<?xml version="1.0" encoding="UTF-8" standalone="no"?>
<!DOCTYPE svg PUBLIC "-//W3C//DTD SVG 1.1//EN"
 "http://www.w3.org/Graphics/SVG/1.1/DTD/svg11.dtd">
<!-- Generated by graphviz version 2.40.1 (20161225.0304)
 -->
<!-- Title: /glade/work/altuntas/doxygen/MOM6/src/parameterizations/vertical Pages: 1 -->
<svg width="125pt" height="151pt"
 viewBox="0.00 0.00 125.00 151.00" xmlns="http://www.w3.org/2000/svg" xmlns:xlink="http://www.w3.org/1999/xlink">
<g id="graph0" class="graph" transform="scale(1 1) rotate(0) translate(4 147)">
<title>/glade/work/altuntas/doxygen/MOM6/src/parameterizations/vertical</title>
<polygon fill="#ffffff" stroke="transparent" points="-4,4 -4,-147 121,-147 121,4 -4,4"/>
<g id="clust1" class="cluster">
<title>clusterdir_8224c134a2c31ae723fb95b3c4123a27</title>
<g id="a_clust1"><a xlink:href="dir_8224c134a2c31ae723fb95b3c4123a27.html" target="_top" xlink:title="parameterizations">
<polygon fill="#ddddee" stroke="#000000" points="8,-64 8,-135 109,-135 109,-64 8,-64"/>
<text text-anchor="middle" x="58.5" y="-123" font-family="Helvetica,sans-Serif" font-size="10.00" fill="#000000">parameterizations</text>
</a>
</g>
</g>
<!-- dir_0e62f7dd21907d06efceeca1eea9505e -->
<g id="node1" class="node">
<title>dir_0e62f7dd21907d06efceeca1eea9505e</title>
<g id="a_node1"><a xlink:href="dir_0e62f7dd21907d06efceeca1eea9505e.html" target="_top" xlink:title="vertical">
<polygon fill="#eeeeff" stroke="#000000" points="85,-108 31,-108 31,-72 85,-72 85,-108"/>
<text text-anchor="middle" x="58" y="-87.5" font-family="Helvetica,sans-Serif" font-size="10.00" fill="#000000">vertical</text>
</a>
</g>
</g>
<!-- dir_5752cadd8276ecfd63d9b924f2a4d4b5 -->
<g id="node2" class="node">
<title>dir_5752cadd8276ecfd63d9b924f2a4d4b5</title>
<g id="a_node2"><a xlink:href="dir_5752cadd8276ecfd63d9b924f2a4d4b5.html" target="_top" xlink:title="framework">
<polygon fill="none" stroke="#000000" points="91,-36 25,-36 25,0 91,0 91,-36"/>
<text text-anchor="middle" x="58" y="-15.5" font-family="Helvetica,sans-Serif" font-size="10.00" fill="#000000">framework</text>
</a>
</g>
</g>
<!-- dir_0e62f7dd21907d06efceeca1eea9505e&#45;&gt;dir_5752cadd8276ecfd63d9b924f2a4d4b5 -->
<g id="edge1" class="edge">
<title>dir_0e62f7dd21907d06efceeca1eea9505e&#45;&gt;dir_5752cadd8276ecfd63d9b924f2a4d4b5</title>
<path fill="none" stroke="#000000" d="M58,-71.8314C58,-64.131 58,-54.9743 58,-46.4166"/>
<polygon fill="#000000" stroke="#000000" points="61.5001,-46.4132 58,-36.4133 54.5001,-46.4133 61.5001,-46.4132"/>
<g id="a_edge1&#45;headlabel"><a xlink:href="dir_000016_000010.html" target="_top" xlink:title="17">
<text text-anchor="middle" x="64.3393" y="-47.5079" font-family="Helvetica,sans-Serif" font-size="10.00" fill="#000000">17</text>
</a>
</g>
</g>
</g>
</svg>
