<?xml version="1.0" encoding="UTF-8" standalone="no"?>
<!DOCTYPE svg PUBLIC "-//W3C//DTD SVG 1.1//EN"
 "http://www.w3.org/Graphics/SVG/1.1/DTD/svg11.dtd">
<!-- Generated by graphviz version 2.40.1 (20161225.0304)
 -->
<!-- Title: /glade/work/altuntas/cesm.sandboxes/cesm2_2_alpha_X_mom/components/mom/MOM6/src Pages: 1 -->
<svg width="966pt" height="148pt"
 viewBox="0.00 0.00 966.00 148.00" xmlns="http://www.w3.org/2000/svg" xmlns:xlink="http://www.w3.org/1999/xlink">
<g id="graph0" class="graph" transform="scale(1 1) rotate(0) translate(4 144)">
<title>/glade/work/altuntas/cesm.sandboxes/cesm2_2_alpha_X_mom/components/mom/MOM6/src</title>
<polygon fill="#ffffff" stroke="transparent" points="-4,4 -4,-144 962,-144 962,4 -4,4"/>
<g id="clust1" class="cluster">
<title>clusterdir_68267d1309a1af8e8297ef4c3efbcdba</title>
<g id="a_clust1"><a xlink:href="dir_68267d1309a1af8e8297ef4c3efbcdba.html" target="_top">
<polygon fill="#eeeeff" stroke="#000000" points="8,-8 8,-132 950,-132 950,-8 8,-8"/>
</a>
</g>
</g>
<!-- dir_68267d1309a1af8e8297ef4c3efbcdba -->
<g id="node1" class="node">
<title>dir_68267d1309a1af8e8297ef4c3efbcdba</title>
<text text-anchor="middle" x="915" y="-103.5" font-family="Helvetica,sans-Serif" font-size="10.00" fill="#000000">src</text>
</g>
<!-- dir_46c4efbc2fdd36aaff2d92f0d53bbc5f -->
<g id="node2" class="node">
<title>dir_46c4efbc2fdd36aaff2d92f0d53bbc5f</title>
<g id="a_node2"><a xlink:href="dir_46c4efbc2fdd36aaff2d92f0d53bbc5f.html" target="_top" xlink:title="ALE">
<polygon fill="#ffffff" stroke="#000000" points="870,-124 816,-124 816,-88 870,-88 870,-124"/>
<text text-anchor="middle" x="843" y="-103.5" font-family="Helvetica,sans-Serif" font-size="10.00" fill="#000000">ALE</text>
</a>
</g>
</g>
<!-- dir_aebb8dcc11953d78e620bbef0b9e2183 -->
<g id="node3" class="node">
<title>dir_aebb8dcc11953d78e620bbef0b9e2183</title>
<g id="a_node3"><a xlink:href="dir_aebb8dcc11953d78e620bbef0b9e2183.html" target="_top" xlink:title="core">
<polygon fill="#ffffff" stroke="#000000" points="798,-124 744,-124 744,-88 798,-88 798,-124"/>
<text text-anchor="middle" x="771" y="-103.5" font-family="Helvetica,sans-Serif" font-size="10.00" fill="#000000">core</text>
</a>
</g>
</g>
<!-- dir_5752cadd8276ecfd63d9b924f2a4d4b5 -->
<g id="node6" class="node">
<title>dir_5752cadd8276ecfd63d9b924f2a4d4b5</title>
<g id="a_node6"><a xlink:href="dir_5752cadd8276ecfd63d9b924f2a4d4b5.html" target="_top" xlink:title="framework">
<polygon fill="#ffffff" stroke="#000000" points="493,-52 431,-52 431,-16 493,-16 493,-52"/>
<text text-anchor="middle" x="462" y="-31.5" font-family="Helvetica,sans-Serif" font-size="10.00" fill="#000000">framework</text>
</a>
</g>
</g>
<!-- dir_aebb8dcc11953d78e620bbef0b9e2183&#45;&gt;dir_5752cadd8276ecfd63d9b924f2a4d4b5 -->
<g id="edge6" class="edge">
<title>dir_aebb8dcc11953d78e620bbef0b9e2183&#45;&gt;dir_5752cadd8276ecfd63d9b924f2a4d4b5</title>
<path fill="none" stroke="#000000" d="M743.8102,-91.459C740.8819,-90.1793 737.9092,-88.9947 735,-88 655.3321,-60.7594 557.6211,-45.5824 503.3505,-38.6681"/>
<polygon fill="#000000" stroke="#000000" points="503.7705,-35.1935 493.4152,-37.4332 502.9071,-42.14 503.7705,-35.1935"/>
<g id="a_edge6&#45;headlabel"><a xlink:href="dir_000007_000010.html" target="_top" xlink:title="6">
<text text-anchor="middle" x="507.6879" y="-30.3192" font-family="Helvetica,sans-Serif" font-size="10.00" fill="#000000">6</text>
</a>
</g>
</g>
<!-- dir_941f38c4e38886800e591b0dff3cead0 -->
<g id="node4" class="node">
<title>dir_941f38c4e38886800e591b0dff3cead0</title>
<g id="a_node4"><a xlink:href="dir_941f38c4e38886800e591b0dff3cead0.html" target="_top" xlink:title="diagnostics">
<polygon fill="#ffffff" stroke="#000000" points="726,-124 660,-124 660,-88 726,-88 726,-124"/>
<text text-anchor="middle" x="693" y="-103.5" font-family="Helvetica,sans-Serif" font-size="10.00" fill="#000000">diagnostics</text>
</a>
</g>
</g>
<!-- dir_941f38c4e38886800e591b0dff3cead0&#45;&gt;dir_5752cadd8276ecfd63d9b924f2a4d4b5 -->
<g id="edge3" class="edge">
<title>dir_941f38c4e38886800e591b0dff3cead0&#45;&gt;dir_5752cadd8276ecfd63d9b924f2a4d4b5</title>
<path fill="none" stroke="#000000" d="M659.6807,-91.269C656.763,-90.1165 653.8404,-89.0099 651,-88 600.8225,-70.1602 541.5882,-54.004 502.9848,-44.108"/>
<polygon fill="#000000" stroke="#000000" points="503.7053,-40.6799 493.1512,-41.6083 501.9807,-47.4641 503.7053,-40.6799"/>
<g id="a_edge3&#45;headlabel"><a xlink:href="dir_000008_000010.html" target="_top" xlink:title="5">
<text text-anchor="middle" x="507.8886" y="-36.3137" font-family="Helvetica,sans-Serif" font-size="10.00" fill="#000000">5</text>
</a>
</g>
</g>
<!-- dir_2e79efa5a200c32482668df7b7b77ba8 -->
<g id="node5" class="node">
<title>dir_2e79efa5a200c32482668df7b7b77ba8</title>
<g id="a_node5"><a xlink:href="dir_2e79efa5a200c32482668df7b7b77ba8.html" target="_top" xlink:title="equation_of_state">
<polygon fill="#ffffff" stroke="#000000" points="642,-124 548,-124 548,-88 642,-88 642,-124"/>
<text text-anchor="middle" x="595" y="-103.5" font-family="Helvetica,sans-Serif" font-size="10.00" fill="#000000">equation_of_state</text>
</a>
</g>
</g>
<!-- dir_2e79efa5a200c32482668df7b7b77ba8&#45;&gt;dir_5752cadd8276ecfd63d9b924f2a4d4b5 -->
<g id="edge8" class="edge">
<title>dir_2e79efa5a200c32482668df7b7b77ba8&#45;&gt;dir_5752cadd8276ecfd63d9b924f2a4d4b5</title>
<path fill="none" stroke="#000000" d="M561.4385,-87.8314C543.4506,-78.0936 521.1611,-66.0271 502.247,-55.7878"/>
<polygon fill="#000000" stroke="#000000" points="503.727,-52.6091 493.2666,-50.9263 500.3944,-58.765 503.727,-52.6091"/>
<g id="a_edge8&#45;headlabel"><a xlink:href="dir_000009_000010.html" target="_top" xlink:title="1">
<text text-anchor="middle" x="508.2398" y="-49.3235" font-family="Helvetica,sans-Serif" font-size="10.00" fill="#000000">1</text>
</a>
</g>
</g>
<!-- dir_5c29a9e3bc5455fc61f46142ad02d86f -->
<g id="node7" class="node">
<title>dir_5c29a9e3bc5455fc61f46142ad02d86f</title>
<g id="a_node7"><a xlink:href="dir_5c29a9e3bc5455fc61f46142ad02d86f.html" target="_top" xlink:title="ice_shelf">
<polygon fill="#ffffff" stroke="#000000" points="530,-124 474,-124 474,-88 530,-88 530,-124"/>
<text text-anchor="middle" x="502" y="-103.5" font-family="Helvetica,sans-Serif" font-size="10.00" fill="#000000">ice_shelf</text>
</a>
</g>
</g>
<!-- dir_5c29a9e3bc5455fc61f46142ad02d86f&#45;&gt;dir_5752cadd8276ecfd63d9b924f2a4d4b5 -->
<g id="edge5" class="edge">
<title>dir_5c29a9e3bc5455fc61f46142ad02d86f&#45;&gt;dir_5752cadd8276ecfd63d9b924f2a4d4b5</title>
<path fill="none" stroke="#000000" d="M491.9063,-87.8314C487.4403,-79.7925 482.0925,-70.1666 477.1621,-61.2918"/>
<polygon fill="#000000" stroke="#000000" points="480.1456,-59.4551 472.2296,-52.4133 474.0265,-62.8546 480.1456,-59.4551"/>
<g id="a_edge5&#45;headlabel"><a xlink:href="dir_000011_000010.html" target="_top" xlink:title="1">
<text text-anchor="middle" x="484.3732" y="-58.7185" font-family="Helvetica,sans-Serif" font-size="10.00" fill="#000000">1</text>
</a>
</g>
</g>
<!-- dir_80d9a72a764e34362c8238d6d43b55a0 -->
<g id="node8" class="node">
<title>dir_80d9a72a764e34362c8238d6d43b55a0</title>
<g id="a_node8"><a xlink:href="dir_80d9a72a764e34362c8238d6d43b55a0.html" target="_top" xlink:title="initialization">
<polygon fill="#ffffff" stroke="#000000" points="456,-124 388,-124 388,-88 456,-88 456,-124"/>
<text text-anchor="middle" x="422" y="-103.5" font-family="Helvetica,sans-Serif" font-size="10.00" fill="#000000">initialization</text>
</a>
</g>
</g>
<!-- dir_80d9a72a764e34362c8238d6d43b55a0&#45;&gt;dir_5752cadd8276ecfd63d9b924f2a4d4b5 -->
<g id="edge4" class="edge">
<title>dir_80d9a72a764e34362c8238d6d43b55a0&#45;&gt;dir_5752cadd8276ecfd63d9b924f2a4d4b5</title>
<path fill="none" stroke="#000000" d="M432.0937,-87.8314C436.5597,-79.7925 441.9075,-70.1666 446.8379,-61.2918"/>
<polygon fill="#000000" stroke="#000000" points="449.9735,-62.8546 451.7704,-52.4133 443.8544,-59.4551 449.9735,-62.8546"/>
<g id="a_edge4&#45;headlabel"><a xlink:href="dir_000012_000010.html" target="_top" xlink:title="1">
<text text-anchor="middle" x="450.7098" y="-64.8757" font-family="Helvetica,sans-Serif" font-size="10.00" fill="#000000">1</text>
</a>
</g>
</g>
<!-- dir_cdf45083c029a2f5876b6f64955c0ed9 -->
<g id="node9" class="node">
<title>dir_cdf45083c029a2f5876b6f64955c0ed9</title>
<g id="a_node9"><a xlink:href="dir_cdf45083c029a2f5876b6f64955c0ed9.html" target="_top" xlink:title="ocean_data_assim">
<polygon fill="#ffffff" stroke="#000000" points="370,-124 272,-124 272,-88 370,-88 370,-124"/>
<text text-anchor="middle" x="321" y="-103.5" font-family="Helvetica,sans-Serif" font-size="10.00" fill="#000000">ocean_data_assim</text>
</a>
</g>
</g>
<!-- dir_8224c134a2c31ae723fb95b3c4123a27 -->
<g id="node10" class="node">
<title>dir_8224c134a2c31ae723fb95b3c4123a27</title>
<g id="a_node10"><a xlink:href="dir_8224c134a2c31ae723fb95b3c4123a27.html" target="_top" xlink:title="parameterizations">
<polygon fill="#ffffff" stroke="#ff0000" points="254,-124 160,-124 160,-88 254,-88 254,-124"/>
<text text-anchor="middle" x="207" y="-103.5" font-family="Helvetica,sans-Serif" font-size="10.00" fill="#000000">parameterizations</text>
</a>
</g>
</g>
<!-- dir_8224c134a2c31ae723fb95b3c4123a27&#45;&gt;dir_5752cadd8276ecfd63d9b924f2a4d4b5 -->
<g id="edge7" class="edge">
<title>dir_8224c134a2c31ae723fb95b3c4123a27&#45;&gt;dir_5752cadd8276ecfd63d9b924f2a4d4b5</title>
<path fill="none" stroke="#000000" d="M254.0051,-90.7181C257.0445,-89.7835 260.0625,-88.8701 263,-88 317.4246,-71.8782 380.7735,-55.0112 421.1123,-44.507"/>
<polygon fill="#000000" stroke="#000000" points="422.0533,-47.8788 430.8527,-41.9779 420.294,-41.1035 422.0533,-47.8788"/>
<g id="a_edge7&#45;headlabel"><a xlink:href="dir_000014_000010.html" target="_top" xlink:title="18">
<text text-anchor="middle" x="419.2876" y="-49.0303" font-family="Helvetica,sans-Serif" font-size="10.00" fill="#000000">18</text>
</a>
</g>
</g>
<!-- dir_419569bb6464a79f27b27102966d14b7 -->
<g id="node11" class="node">
<title>dir_419569bb6464a79f27b27102966d14b7</title>
<g id="a_node11"><a xlink:href="dir_419569bb6464a79f27b27102966d14b7.html" target="_top" xlink:title="tracer">
<polygon fill="#ffffff" stroke="#000000" points="142,-124 88,-124 88,-88 142,-88 142,-124"/>
<text text-anchor="middle" x="115" y="-103.5" font-family="Helvetica,sans-Serif" font-size="10.00" fill="#000000">tracer</text>
</a>
</g>
</g>
<!-- dir_419569bb6464a79f27b27102966d14b7&#45;&gt;dir_5752cadd8276ecfd63d9b924f2a4d4b5 -->
<g id="edge2" class="edge">
<title>dir_419569bb6464a79f27b27102966d14b7&#45;&gt;dir_5752cadd8276ecfd63d9b924f2a4d4b5</title>
<path fill="none" stroke="#000000" d="M142.1663,-91.3889C145.0992,-90.1229 148.0794,-88.9607 151,-88 244.5517,-57.2279 360.0169,-43.0485 420.5277,-37.3302"/>
<polygon fill="#000000" stroke="#000000" points="421.1763,-40.7856 430.8163,-36.39 420.5392,-33.8147 421.1763,-40.7856"/>
<g id="a_edge2&#45;headlabel"><a xlink:href="dir_000017_000010.html" target="_top" xlink:title="14">
<text text-anchor="middle" x="417.855" y="-41.4402" font-family="Helvetica,sans-Serif" font-size="10.00" fill="#000000">14</text>
</a>
</g>
</g>
<!-- dir_8b0164eb0fb74115683f9812cb2f78f0 -->
<g id="node12" class="node">
<title>dir_8b0164eb0fb74115683f9812cb2f78f0</title>
<g id="a_node12"><a xlink:href="dir_8b0164eb0fb74115683f9812cb2f78f0.html" target="_top" xlink:title="user">
<polygon fill="#ffffff" stroke="#000000" points="70,-124 16,-124 16,-88 70,-88 70,-124"/>
<text text-anchor="middle" x="43" y="-103.5" font-family="Helvetica,sans-Serif" font-size="10.00" fill="#000000">user</text>
</a>
</g>
</g>
<!-- dir_8b0164eb0fb74115683f9812cb2f78f0&#45;&gt;dir_5752cadd8276ecfd63d9b924f2a4d4b5 -->
<g id="edge1" class="edge">
<title>dir_8b0164eb0fb74115683f9812cb2f78f0&#45;&gt;dir_5752cadd8276ecfd63d9b924f2a4d4b5</title>
<path fill="none" stroke="#000000" d="M70.1356,-91.293C73.0745,-90.0457 76.0644,-88.9141 79,-88 199.4433,-50.4972 349.3597,-38.9565 420.6369,-35.4698"/>
<polygon fill="#000000" stroke="#000000" points="421.149,-38.95 430.9776,-34.9941 420.8273,-31.9574 421.149,-38.95"/>
<g id="a_edge1&#45;headlabel"><a xlink:href="dir_000018_000010.html" target="_top" xlink:title="15">
<text text-anchor="middle" x="417.6887" y="-39.4514" font-family="Helvetica,sans-Serif" font-size="10.00" fill="#000000">15</text>
</a>
</g>
</g>
</g>
</svg>
