<?xml version="1.0" encoding="UTF-8" standalone="no"?>
<!DOCTYPE svg PUBLIC "-//W3C//DTD SVG 1.1//EN"
 "http://www.w3.org/Graphics/SVG/1.1/DTD/svg11.dtd">
<!-- Generated by graphviz version 2.40.1 (20161225.0304)
 -->
<!-- Title: /glade/work/altuntas/doxygen/MOM6/src Pages: 1 -->
<!--zoomable 148 -->
<svg id="main" version="1.1" xmlns="http://www.w3.org/2000/svg" xmlns:xlink="http://www.w3.org/1999/xlink" xml:space="preserve" onload="init(evt)">
<style type="text/css"><![CDATA[
.edge:hover path { stroke: red; }
.edge:hover polygon { stroke: red; fill: red; }
]]></style>
<script type="text/javascript"><![CDATA[
var edges = document.getElementsByTagName('g');
if (edges && edges.length) {
  for (var i=0;i<edges.length;i++) {
    if (edges[i].id.substr(0,4)=='edge') {
      edges[i].setAttribute('class','edge');
    }
  }
}
]]></script>
        <defs>
                <circle id="rim" cx="0" cy="0" r="7"/>
                <circle id="rim2" cx="0" cy="0" r="3.5"/>
                <g id="zoomPlus">
                        <use xlink:href="#rim" fill="#404040">
                                <set attributeName="fill" to="#808080" begin="zoomplus.mouseover" end="zoomplus.mouseout"/>
                        </use>
                        <path d="M-4,0h8M0,-4v8" fill="none" stroke="white" stroke-width="1.5" pointer-events="none"/>
                </g>
                <g id="zoomMin">
                        <use xlink:href="#rim" fill="#404040">
                                <set attributeName="fill" to="#808080" begin="zoomminus.mouseover" end="zoomminus.mouseout"/>
                        </use>
                        <path d="M-4,0h8" fill="none" stroke="white" stroke-width="1.5" pointer-events="none"/>
                </g>
                <g id="dirArrow">
                        <path fill="none" stroke="white" stroke-width="1.5" d="M0,-3.0v7 M-2.5,-0.5L0,-3.0L2.5,-0.5"/>
                </g>
               <g id="resetDef">
                       <use xlink:href="#rim2" fill="#404040">
                               <set attributeName="fill" to="#808080" begin="reset.mouseover" end="reset.mouseout"/>
                       </use>
               </g>
        </defs>

<script type="text/javascript">
var viewWidth = 1000;
var viewHeight = 148;
var sectionId = 'dynsection-0';
</script>
<script xlink:href="svgpan.js"/>
<svg id="graph" class="graph">
<g id="viewport">
<title>/glade/work/altuntas/doxygen/MOM6/src</title>
<polygon fill="#ffffff" stroke="transparent" points="-4,4 -4,-144 996,-144 996,4 -4,4"/>
<g id="clust1" class="cluster">
<title>clusterdir_68267d1309a1af8e8297ef4c3efbcdba</title>
<g id="a_clust1"><a xlink:href="dir_68267d1309a1af8e8297ef4c3efbcdba.html" target="_top">
<polygon fill="#eeeeff" stroke="#000000" points="8,-8 8,-132 984,-132 984,-8 8,-8"/>
</a>
</g>
</g>
<!-- dir_68267d1309a1af8e8297ef4c3efbcdba -->
<g id="node1" class="node">
<title>dir_68267d1309a1af8e8297ef4c3efbcdba</title>
<text text-anchor="middle" x="949" y="-103.5" font-family="Helvetica,sans-Serif" font-size="10.00" fill="#000000">src</text>
</g>
<!-- dir_46c4efbc2fdd36aaff2d92f0d53bbc5f -->
<g id="node2" class="node">
<title>dir_46c4efbc2fdd36aaff2d92f0d53bbc5f</title>
<g id="a_node2"><a xlink:href="dir_46c4efbc2fdd36aaff2d92f0d53bbc5f.html" target="_top" xlink:title="ALE">
<polygon fill="#ffffff" stroke="#000000" points="904,-124 850,-124 850,-88 904,-88 904,-124"/>
<text text-anchor="middle" x="877" y="-103.5" font-family="Helvetica,sans-Serif" font-size="10.00" fill="#000000">ALE</text>
</a>
</g>
</g>
<!-- dir_aebb8dcc11953d78e620bbef0b9e2183 -->
<g id="node3" class="node">
<title>dir_aebb8dcc11953d78e620bbef0b9e2183</title>
<g id="a_node3"><a xlink:href="dir_aebb8dcc11953d78e620bbef0b9e2183.html" target="_top" xlink:title="core">
<polygon fill="#ffffff" stroke="#000000" points="832,-124 778,-124 778,-88 832,-88 832,-124"/>
<text text-anchor="middle" x="805" y="-103.5" font-family="Helvetica,sans-Serif" font-size="10.00" fill="#000000">core</text>
</a>
</g>
</g>
<!-- dir_5752cadd8276ecfd63d9b924f2a4d4b5 -->
<g id="node6" class="node">
<title>dir_5752cadd8276ecfd63d9b924f2a4d4b5</title>
<g id="a_node6"><a xlink:href="dir_5752cadd8276ecfd63d9b924f2a4d4b5.html" target="_top" xlink:title="framework">
<polygon fill="#ffffff" stroke="#000000" points="514,-52 448,-52 448,-16 514,-16 514,-52"/>
<text text-anchor="middle" x="481" y="-31.5" font-family="Helvetica,sans-Serif" font-size="10.00" fill="#000000">framework</text>
</a>
</g>
</g>
<!-- dir_aebb8dcc11953d78e620bbef0b9e2183&#45;&gt;dir_5752cadd8276ecfd63d9b924f2a4d4b5 -->
<g id="edge6" class="edge">
<title>dir_aebb8dcc11953d78e620bbef0b9e2183&#45;&gt;dir_5752cadd8276ecfd63d9b924f2a4d4b5</title>
<path fill="none" stroke="#000000" d="M777.8203,-91.4292C774.89,-90.1553 771.9141,-88.9803 769,-88 684.7993,-59.6758 581.4586,-44.8666 524.2718,-38.3139"/>
<polygon fill="#000000" stroke="#000000" points="524.4722,-34.8146 514.1459,-37.185 523.6966,-41.7715 524.4722,-34.8146"/>
<g id="a_edge6&#45;headlabel"><a xlink:href="dir_000007_000010.html" target="_top" xlink:title="6">
<text text-anchor="middle" x="528.3592" y="-29.891" font-family="Helvetica,sans-Serif" font-size="10.00" fill="#000000">6</text>
</a>
</g>
</g>
<!-- dir_941f38c4e38886800e591b0dff3cead0 -->
<g id="node4" class="node">
<title>dir_941f38c4e38886800e591b0dff3cead0</title>
<g id="a_node4"><a xlink:href="dir_941f38c4e38886800e591b0dff3cead0.html" target="_top" xlink:title="diagnostics">
<polygon fill="#ffffff" stroke="#000000" points="760,-124 690,-124 690,-88 760,-88 760,-124"/>
<text text-anchor="middle" x="725" y="-103.5" font-family="Helvetica,sans-Serif" font-size="10.00" fill="#000000">diagnostics</text>
</a>
</g>
</g>
<!-- dir_941f38c4e38886800e591b0dff3cead0&#45;&gt;dir_5752cadd8276ecfd63d9b924f2a4d4b5 -->
<g id="edge3" class="edge">
<title>dir_941f38c4e38886800e591b0dff3cead0&#45;&gt;dir_5752cadd8276ecfd63d9b924f2a4d4b5</title>
<path fill="none" stroke="#000000" d="M689.6018,-91.0761C686.7079,-89.9915 683.8147,-88.9516 681,-88 627.7612,-70.0011 565.0012,-53.856 524.178,-44.0075"/>
<polygon fill="#000000" stroke="#000000" points="524.831,-40.565 514.2911,-41.642 523.2022,-47.3729 524.831,-40.565"/>
<g id="a_edge3&#45;headlabel"><a xlink:href="dir_000008_000010.html" target="_top" xlink:title="5">
<text text-anchor="middle" x="528.9876" y="-36.14" font-family="Helvetica,sans-Serif" font-size="10.00" fill="#000000">5</text>
</a>
</g>
</g>
<!-- dir_2e79efa5a200c32482668df7b7b77ba8 -->
<g id="node5" class="node">
<title>dir_2e79efa5a200c32482668df7b7b77ba8</title>
<g id="a_node5"><a xlink:href="dir_2e79efa5a200c32482668df7b7b77ba8.html" target="_top" xlink:title="equation_of_state">
<polygon fill="#ffffff" stroke="#000000" points="671.5,-124 570.5,-124 570.5,-88 671.5,-88 671.5,-124"/>
<text text-anchor="middle" x="621" y="-103.5" font-family="Helvetica,sans-Serif" font-size="10.00" fill="#000000">equation_of_state</text>
</a>
</g>
</g>
<!-- dir_2e79efa5a200c32482668df7b7b77ba8&#45;&gt;dir_5752cadd8276ecfd63d9b924f2a4d4b5 -->
<g id="edge8" class="edge">
<title>dir_2e79efa5a200c32482668df7b7b77ba8&#45;&gt;dir_5752cadd8276ecfd63d9b924f2a4d4b5</title>
<path fill="none" stroke="#000000" d="M585.6721,-87.8314C566.7913,-78.1212 543.4081,-66.0956 523.535,-55.8751"/>
<polygon fill="#000000" stroke="#000000" points="524.8826,-52.6325 514.3889,-51.1715 521.6811,-58.8575 524.8826,-52.6325"/>
<g id="a_edge8&#45;headlabel"><a xlink:href="dir_000009_000010.html" target="_top" xlink:title="1">
<text text-anchor="middle" x="529.3777" y="-49.2515" font-family="Helvetica,sans-Serif" font-size="10.00" fill="#000000">1</text>
</a>
</g>
</g>
<!-- dir_5c29a9e3bc5455fc61f46142ad02d86f -->
<g id="node7" class="node">
<title>dir_5c29a9e3bc5455fc61f46142ad02d86f</title>
<g id="a_node7"><a xlink:href="dir_5c29a9e3bc5455fc61f46142ad02d86f.html" target="_top" xlink:title="ice_shelf">
<polygon fill="#ffffff" stroke="#000000" points="552.5,-124 493.5,-124 493.5,-88 552.5,-88 552.5,-124"/>
<text text-anchor="middle" x="523" y="-103.5" font-family="Helvetica,sans-Serif" font-size="10.00" fill="#000000">ice_shelf</text>
</a>
</g>
</g>
<!-- dir_5c29a9e3bc5455fc61f46142ad02d86f&#45;&gt;dir_5752cadd8276ecfd63d9b924f2a4d4b5 -->
<g id="edge5" class="edge">
<title>dir_5c29a9e3bc5455fc61f46142ad02d86f&#45;&gt;dir_5752cadd8276ecfd63d9b924f2a4d4b5</title>
<path fill="none" stroke="#000000" d="M512.4016,-87.8314C507.7123,-79.7925 502.0972,-70.1666 496.9202,-61.2918"/>
<polygon fill="#000000" stroke="#000000" points="499.8031,-59.2875 491.7411,-52.4133 493.7566,-62.8146 499.8031,-59.2875"/>
<g id="a_edge5&#45;headlabel"><a xlink:href="dir_000011_000010.html" target="_top" xlink:title="1">
<text text-anchor="middle" x="504.0667" y="-58.4618" font-family="Helvetica,sans-Serif" font-size="10.00" fill="#000000">1</text>
</a>
</g>
</g>
<!-- dir_80d9a72a764e34362c8238d6d43b55a0 -->
<g id="node8" class="node">
<title>dir_80d9a72a764e34362c8238d6d43b55a0</title>
<g id="a_node8"><a xlink:href="dir_80d9a72a764e34362c8238d6d43b55a0.html" target="_top" xlink:title="initialization">
<polygon fill="#ffffff" stroke="#000000" points="475.5,-124 404.5,-124 404.5,-88 475.5,-88 475.5,-124"/>
<text text-anchor="middle" x="440" y="-103.5" font-family="Helvetica,sans-Serif" font-size="10.00" fill="#000000">initialization</text>
</a>
</g>
</g>
<!-- dir_80d9a72a764e34362c8238d6d43b55a0&#45;&gt;dir_5752cadd8276ecfd63d9b924f2a4d4b5 -->
<g id="edge4" class="edge">
<title>dir_80d9a72a764e34362c8238d6d43b55a0&#45;&gt;dir_5752cadd8276ecfd63d9b924f2a4d4b5</title>
<path fill="none" stroke="#000000" d="M450.346,-87.8314C454.9237,-79.7925 460.4052,-70.1666 465.4588,-61.2918"/>
<polygon fill="#000000" stroke="#000000" points="468.6077,-62.8351 470.5147,-52.4133 462.5248,-59.3712 468.6077,-62.8351"/>
<g id="a_edge4&#45;headlabel"><a xlink:href="dir_000012_000010.html" target="_top" xlink:title="1">
<text text-anchor="middle" x="469.2963" y="-64.8637" font-family="Helvetica,sans-Serif" font-size="10.00" fill="#000000">1</text>
</a>
</g>
</g>
<!-- dir_cdf45083c029a2f5876b6f64955c0ed9 -->
<g id="node9" class="node">
<title>dir_cdf45083c029a2f5876b6f64955c0ed9</title>
<g id="a_node9"><a xlink:href="dir_cdf45083c029a2f5876b6f64955c0ed9.html" target="_top" xlink:title="ocean_data_assim">
<polygon fill="#ffffff" stroke="#000000" points="386,-124 280,-124 280,-88 386,-88 386,-124"/>
<text text-anchor="middle" x="333" y="-103.5" font-family="Helvetica,sans-Serif" font-size="10.00" fill="#000000">ocean_data_assim</text>
</a>
</g>
</g>
<!-- dir_8224c134a2c31ae723fb95b3c4123a27 -->
<g id="node10" class="node">
<title>dir_8224c134a2c31ae723fb95b3c4123a27</title>
<g id="a_node10"><a xlink:href="dir_8224c134a2c31ae723fb95b3c4123a27.html" target="_top" xlink:title="parameterizations">
<polygon fill="#ffffff" stroke="#ff0000" points="261.5,-124 160.5,-124 160.5,-88 261.5,-88 261.5,-124"/>
<text text-anchor="middle" x="211" y="-103.5" font-family="Helvetica,sans-Serif" font-size="10.00" fill="#000000">parameterizations</text>
</a>
</g>
</g>
<!-- dir_8224c134a2c31ae723fb95b3c4123a27&#45;&gt;dir_5752cadd8276ecfd63d9b924f2a4d4b5 -->
<g id="edge7" class="edge">
<title>dir_8224c134a2c31ae723fb95b3c4123a27&#45;&gt;dir_5752cadd8276ecfd63d9b924f2a4d4b5</title>
<path fill="none" stroke="#000000" d="M261.6979,-90.6362C264.8419,-89.7313 267.9617,-88.846 271,-88 328.5781,-71.9672 395.5125,-55.0505 438.0504,-44.5132"/>
<polygon fill="#000000" stroke="#000000" points="438.9248,-47.9025 447.7932,-42.1057 437.2455,-41.1069 438.9248,-47.9025"/>
<g id="a_edge7&#45;headlabel"><a xlink:href="dir_000014_000010.html" target="_top" xlink:title="17">
<text text-anchor="middle" x="436.1163" y="-49.0211" font-family="Helvetica,sans-Serif" font-size="10.00" fill="#000000">17</text>
</a>
</g>
</g>
<!-- dir_419569bb6464a79f27b27102966d14b7 -->
<g id="node11" class="node">
<title>dir_419569bb6464a79f27b27102966d14b7</title>
<g id="a_node11"><a xlink:href="dir_419569bb6464a79f27b27102966d14b7.html" target="_top" xlink:title="tracer">
<polygon fill="#ffffff" stroke="#000000" points="142,-124 88,-124 88,-88 142,-88 142,-124"/>
<text text-anchor="middle" x="115" y="-103.5" font-family="Helvetica,sans-Serif" font-size="10.00" fill="#000000">tracer</text>
</a>
</g>
</g>
<!-- dir_419569bb6464a79f27b27102966d14b7&#45;&gt;dir_5752cadd8276ecfd63d9b924f2a4d4b5 -->
<g id="edge2" class="edge">
<title>dir_419569bb6464a79f27b27102966d14b7&#45;&gt;dir_5752cadd8276ecfd63d9b924f2a4d4b5</title>
<path fill="none" stroke="#000000" d="M142.1137,-91.718C145.3891,-90.3205 148.7322,-89.0386 152,-88 251.283,-56.4452 373.5817,-42.5685 437.4605,-37.1096"/>
<polygon fill="#000000" stroke="#000000" points="437.8937,-40.5859 447.5717,-36.2746 437.3175,-33.6096 437.8937,-40.5859"/>
<g id="a_edge2&#45;headlabel"><a xlink:href="dir_000017_000010.html" target="_top" xlink:title="12">
<text text-anchor="middle" x="434.5449" y="-41.2113" font-family="Helvetica,sans-Serif" font-size="10.00" fill="#000000">12</text>
</a>
</g>
</g>
<!-- dir_8b0164eb0fb74115683f9812cb2f78f0 -->
<g id="node12" class="node">
<title>dir_8b0164eb0fb74115683f9812cb2f78f0</title>
<g id="a_node12"><a xlink:href="dir_8b0164eb0fb74115683f9812cb2f78f0.html" target="_top" xlink:title="user">
<polygon fill="#ffffff" stroke="#000000" points="70,-124 16,-124 16,-88 70,-88 70,-124"/>
<text text-anchor="middle" x="43" y="-103.5" font-family="Helvetica,sans-Serif" font-size="10.00" fill="#000000">user</text>
</a>
</g>
</g>
<!-- dir_8b0164eb0fb74115683f9812cb2f78f0&#45;&gt;dir_5752cadd8276ecfd63d9b924f2a4d4b5 -->
<g id="edge1" class="edge">
<title>dir_8b0164eb0fb74115683f9812cb2f78f0&#45;&gt;dir_5752cadd8276ecfd63d9b924f2a4d4b5</title>
<path fill="none" stroke="#000000" d="M70.1294,-91.2732C73.0695,-90.0297 76.0614,-88.9045 79,-88 205.3713,-49.1042 362.6272,-38.2154 437.4794,-35.1741"/>
<polygon fill="#000000" stroke="#000000" points="438.0511,-38.6551 447.9118,-34.7799 437.7867,-31.6601 438.0511,-38.6551"/>
<g id="a_edge1&#45;headlabel"><a xlink:href="dir_000018_000010.html" target="_top" xlink:title="15">
<text text-anchor="middle" x="434.5662" y="-39.1279" font-family="Helvetica,sans-Serif" font-size="10.00" fill="#000000">15</text>
</a>
</g>
</g>
</g>
</svg>
        <g id="navigator" transform="translate(0 0)" fill="#404254">
                <rect fill="#f2f5e9" fill-opacity="0.5" stroke="#606060" stroke-width=".5" x="0" y="0" width="60" height="60"/>
                <use id="zoomplus" xlink:href="#zoomPlus" x="17" y="9" onmousedown="handleZoom(evt,'in')"/>
                <use id="zoomminus" xlink:href="#zoomMin" x="42" y="9" onmousedown="handleZoom(evt,'out')"/>
                <use id="reset" xlink:href="#resetDef" x="30" y="36" onmousedown="handleReset()"/>
                <g id="arrowUp" xlink:href="#dirArrow" transform="translate(30 24)" onmousedown="handlePan(0,-1)">
                  <use xlink:href="#rim" fill="#404040">
                        <set attributeName="fill" to="#808080" begin="arrowUp.mouseover" end="arrowUp.mouseout"/>
                  </use>
                  <path fill="none" stroke="white" stroke-width="1.5" d="M0,-3.0v7 M-2.5,-0.5L0,-3.0L2.5,-0.5"/>
                </g>
                <g id="arrowRight" xlink:href="#dirArrow" transform="rotate(90) translate(36 -43)" onmousedown="handlePan(1,0)">
                  <use xlink:href="#rim" fill="#404040">
                        <set attributeName="fill" to="#808080" begin="arrowRight.mouseover" end="arrowRight.mouseout"/>
                  </use>
                  <path fill="none" stroke="white" stroke-width="1.5" d="M0,-3.0v7 M-2.5,-0.5L0,-3.0L2.5,-0.5"/>
                </g>
                <g id="arrowDown" xlink:href="#dirArrow" transform="rotate(180) translate(-30 -48)" onmousedown="handlePan(0,1)">
                  <use xlink:href="#rim" fill="#404040">
                        <set attributeName="fill" to="#808080" begin="arrowDown.mouseover" end="arrowDown.mouseout"/>
                  </use>
                  <path fill="none" stroke="white" stroke-width="1.5" d="M0,-3.0v7 M-2.5,-0.5L0,-3.0L2.5,-0.5"/>
                </g>
                <g id="arrowLeft" xlink:href="#dirArrow" transform="rotate(270) translate(-36 17)" onmousedown="handlePan(-1,0)">
                  <use xlink:href="#rim" fill="#404040">
                        <set attributeName="fill" to="#808080" begin="arrowLeft.mouseover" end="arrowLeft.mouseout"/>
                  </use>
                  <path fill="none" stroke="white" stroke-width="1.5" d="M0,-3.0v7 M-2.5,-0.5L0,-3.0L2.5,-0.5"/>
                </g>
        </g>
        <svg viewBox="0 0 15 15" width="100%" height="30px" preserveAspectRatio="xMaxYMin meet">
         <g id="arrow_out" transform="scale(0.3 0.3)">
          <a xlink:href="dir_68267d1309a1af8e8297ef4c3efbcdba_dep_org.svg" target="_base">
           <rect id="button" ry="5" rx="5" y="6" x="6" height="38" width="38"
                fill="#f2f5e9" fill-opacity="0.5" stroke="#606060" stroke-width="1.0"/>
           <path id="arrow"
             d="M 11.500037,31.436501 C 11.940474,20.09759 22.043105,11.32322 32.158766,21.979434 L 37.068811,17.246167 C 37.068811,17.246167 37.088388,32 37.088388,32 L 22.160133,31.978069 C 22.160133,31.978069 26.997745,27.140456 26.997745,27.140456 C 18.528582,18.264221 13.291696,25.230495 11.500037,31.436501 z"
             style="fill:#404040;"/>
          </a>
         </g>
        </svg>
</svg>
