<?xml version="1.0" encoding="UTF-8" standalone="no"?>
<!DOCTYPE svg PUBLIC "-//W3C//DTD SVG 1.1//EN"
 "http://www.w3.org/Graphics/SVG/1.1/DTD/svg11.dtd">
<!-- Generated by graphviz version 2.40.1 (20161225.0304)
 -->
<!-- Title: /glade/work/altuntas/cesm.sandboxes/cesm2_2_alpha_X_mom/components/mom/MOM6/src/user/dyed_channel_initialization.F90 Pages: 1 -->
<svg width="183pt" height="128pt"
 viewBox="0.00 0.00 183.00 128.00" xmlns="http://www.w3.org/2000/svg" xmlns:xlink="http://www.w3.org/1999/xlink">
<g id="graph0" class="graph" transform="scale(1 1) rotate(0) translate(4 124)">
<title>/glade/work/altuntas/cesm.sandboxes/cesm2_2_alpha_X_mom/components/mom/MOM6/src/user/dyed_channel_initialization.F90</title>
<polygon fill="#ffffff" stroke="transparent" points="-4,4 -4,-124 179,-124 179,4 -4,4"/>
<!-- Node1 -->
<g id="node1" class="node">
<title>Node1</title>
<g id="a_node1"><a xlink:title=" ">
<polygon fill="#bfbfbf" stroke="#000000" points="0,-56.5 0,-119.5 175,-119.5 175,-56.5 0,-56.5"/>
<text text-anchor="start" x="8" y="-107.5" font-family="Helvetica,sans-Serif" font-size="10.00" fill="#000000">/glade/work/altuntas</text>
<text text-anchor="start" x="8" y="-96.5" font-family="Helvetica,sans-Serif" font-size="10.00" fill="#000000">/cesm.sandboxes/cesm2</text>
<text text-anchor="start" x="8" y="-85.5" font-family="Helvetica,sans-Serif" font-size="10.00" fill="#000000">_2_alpha_X_mom/components</text>
<text text-anchor="start" x="8" y="-74.5" font-family="Helvetica,sans-Serif" font-size="10.00" fill="#000000">/mom/MOM6/src/user/dyed_channel</text>
<text text-anchor="middle" x="87.5" y="-63.5" font-family="Helvetica,sans-Serif" font-size="10.00" fill="#000000">_initialization.F90</text>
</a>
</g>
</g>
<!-- Node2 -->
<g id="node2" class="node">
<title>Node2</title>
<g id="a_node2"><a xlink:title=" ">
<polygon fill="#ffffff" stroke="#bfbfbf" points="43,-.5 43,-19.5 132,-19.5 132,-.5 43,-.5"/>
<text text-anchor="middle" x="87.5" y="-7.5" font-family="Helvetica,sans-Serif" font-size="10.00" fill="#000000">MOM_memory.h</text>
</a>
</g>
</g>
<!-- Node1&#45;&gt;Node2 -->
<g id="edge1" class="edge">
<title>Node1&#45;&gt;Node2</title>
<path fill="none" stroke="#191970" d="M87.5,-56.2744C87.5,-47.3302 87.5,-37.8568 87.5,-29.8269"/>
<polygon fill="#191970" stroke="#191970" points="91.0001,-29.6425 87.5,-19.6426 84.0001,-29.6426 91.0001,-29.6425"/>
</g>
</g>
</svg>
