<?xml version="1.0" encoding="UTF-8" standalone="no"?>
<!DOCTYPE svg PUBLIC "-//W3C//DTD SVG 1.1//EN"
 "http://www.w3.org/Graphics/SVG/1.1/DTD/svg11.dtd">
<!-- Generated by graphviz version 2.40.1 (20161225.0304)
 -->
<!-- Title: /glade/work/altuntas/cesm.sandboxes/cesm2_2_alpha_X_mom/components/mom/MOM6/src/core/MOM_continuity.F90 Pages: 1 -->
<svg width="214pt" height="117pt"
 viewBox="0.00 0.00 214.00 117.00" xmlns="http://www.w3.org/2000/svg" xmlns:xlink="http://www.w3.org/1999/xlink">
<g id="graph0" class="graph" transform="scale(1 1) rotate(0) translate(4 113)">
<title>/glade/work/altuntas/cesm.sandboxes/cesm2_2_alpha_X_mom/components/mom/MOM6/src/core/MOM_continuity.F90</title>
<polygon fill="#ffffff" stroke="transparent" points="-4,4 -4,-113 210,-113 210,4 -4,4"/>
<!-- Node1 -->
<g id="node1" class="node">
<title>Node1</title>
<g id="a_node1"><a xlink:title=" ">
<polygon fill="#bfbfbf" stroke="#000000" points="0,-56.5 0,-108.5 206,-108.5 206,-56.5 0,-56.5"/>
<text text-anchor="start" x="8" y="-96.5" font-family="Helvetica,sans-Serif" font-size="10.00" fill="#000000">/glade/work/altuntas</text>
<text text-anchor="start" x="8" y="-85.5" font-family="Helvetica,sans-Serif" font-size="10.00" fill="#000000">/cesm.sandboxes/cesm2</text>
<text text-anchor="start" x="8" y="-74.5" font-family="Helvetica,sans-Serif" font-size="10.00" fill="#000000">_2_alpha_X_mom/components</text>
<text text-anchor="middle" x="103" y="-63.5" font-family="Helvetica,sans-Serif" font-size="10.00" fill="#000000">/mom/MOM6/src/core/MOM_continuity.F90</text>
</a>
</g>
</g>
<!-- Node2 -->
<g id="node2" class="node">
<title>Node2</title>
<g id="a_node2"><a xlink:title=" ">
<polygon fill="#ffffff" stroke="#bfbfbf" points="3.5,-.5 3.5,-19.5 92.5,-19.5 92.5,-.5 3.5,-.5"/>
<text text-anchor="middle" x="48" y="-7.5" font-family="Helvetica,sans-Serif" font-size="10.00" fill="#000000">MOM_memory.h</text>
</a>
</g>
</g>
<!-- Node1&#45;&gt;Node2 -->
<g id="edge1" class="edge">
<title>Node1&#45;&gt;Node2</title>
<path fill="none" stroke="#191970" d="M83.1437,-56.3258C75.9273,-46.8132 67.948,-36.2951 61.4189,-27.6886"/>
<polygon fill="#191970" stroke="#191970" points="64.065,-25.3856 55.2327,-19.534 58.4882,-29.6163 64.065,-25.3856"/>
</g>
<!-- Node3 -->
<g id="node3" class="node">
<title>Node3</title>
<g id="a_node3"><a xlink:href="version__variable_8h.html" target="_top" xlink:title=" ">
<polygon fill="#ffffff" stroke="#000000" points="110.5,-.5 110.5,-19.5 205.5,-19.5 205.5,-.5 110.5,-.5"/>
<text text-anchor="middle" x="158" y="-7.5" font-family="Helvetica,sans-Serif" font-size="10.00" fill="#000000">version_variable.h</text>
</a>
</g>
</g>
<!-- Node1&#45;&gt;Node3 -->
<g id="edge2" class="edge">
<title>Node1&#45;&gt;Node3</title>
<path fill="none" stroke="#191970" d="M122.8563,-56.3258C130.0727,-46.8132 138.052,-36.2951 144.5811,-27.6886"/>
<polygon fill="#191970" stroke="#191970" points="147.5118,-29.6163 150.7673,-19.534 141.935,-25.3856 147.5118,-29.6163"/>
</g>
</g>
</svg>
