<?xml version="1.0" encoding="UTF-8" standalone="no"?>
<!DOCTYPE svg PUBLIC "-//W3C//DTD SVG 1.1//EN"
 "http://www.w3.org/Graphics/SVG/1.1/DTD/svg11.dtd">
<!-- Generated by graphviz version 2.40.1 (20161225.0304)
 -->
<!-- Title: substats Pages: 1 -->
<svg width="429pt" height="357pt"
 viewBox="0.00 0.00 429.00 356.50" xmlns="http://www.w3.org/2000/svg" xmlns:xlink="http://www.w3.org/1999/xlink">
<g id="graph0" class="graph" transform="scale(1 1) rotate(0) translate(4 352.5)">
<title>substats</title>
<polygon fill="#ffffff" stroke="transparent" points="-4,4 -4,-352.5 425,-352.5 425,4 -4,4"/>
<!-- Node1 -->
<g id="node1" class="node">
<title>Node1</title>
<g id="a_node1"><a xlink:title=" ">
<polygon fill="#bfbfbf" stroke="#000000" points="367,-152.5 367,-171.5 421,-171.5 421,-152.5 367,-152.5"/>
<text text-anchor="middle" x="394" y="-159.5" font-family="Helvetica,sans-Serif" font-size="10.00" fill="#000000">substats</text>
</a>
</g>
</g>
<!-- Node2 -->
<g id="node2" class="node">
<title>Node2</title>
<g id="a_node2"><a xlink:href="namespacemom__checksums.html#a49d2774940029da8ff95cf4c9cf578fd" target="_top" xlink:title="Checksums a 2d array staggered at corner points.">
<polygon fill="#ffffff" stroke="#000000" points="170,-315.5 170,-334.5 331,-334.5 331,-315.5 170,-315.5"/>
<text text-anchor="middle" x="250.5" y="-322.5" font-family="Helvetica,sans-Serif" font-size="10.00" fill="#000000">mom_checksums::chksum_b_2d</text>
</a>
</g>
</g>
<!-- Node1&#45;&gt;Node2 -->
<g id="edge1" class="edge">
<title>Node1&#45;&gt;Node2</title>
<path fill="none" stroke="#191970" d="M390.0698,-181.7102C383.1976,-211.1321 366.238,-266.4458 331,-298 322.2148,-305.8668 311.059,-311.4536 299.8722,-315.4171"/>
<polygon fill="#191970" stroke="#191970" points="393.5187,-182.321 392.2268,-171.8052 386.679,-180.8314 393.5187,-182.321"/>
</g>
<!-- Node4 -->
<g id="node4" class="node">
<title>Node4</title>
<g id="a_node4"><a xlink:href="namespacemom__checksums.html#a4f6f9fc4c335aa2c0e4457a236d49b14" target="_top" xlink:title="Checksums a 3d array staggered at corner points.">
<polygon fill="#ffffff" stroke="#000000" points="170,-269.5 170,-288.5 331,-288.5 331,-269.5 170,-269.5"/>
<text text-anchor="middle" x="250.5" y="-276.5" font-family="Helvetica,sans-Serif" font-size="10.00" fill="#000000">mom_checksums::chksum_b_3d</text>
</a>
</g>
</g>
<!-- Node1&#45;&gt;Node4 -->
<g id="edge3" class="edge">
<title>Node1&#45;&gt;Node4</title>
<path fill="none" stroke="#191970" d="M386.2629,-181.2169C376.5611,-202.8692 357.8753,-237.5689 331,-257 323.6032,-262.3479 314.9718,-266.396 306.1614,-269.4602"/>
<polygon fill="#191970" stroke="#191970" points="389.5929,-182.331 390.3005,-171.7598 383.1551,-179.5824 389.5929,-182.331"/>
</g>
<!-- Node6 -->
<g id="node6" class="node">
<title>Node6</title>
<g id="a_node6"><a xlink:href="namespacemom__checksums.html#afa9bfb664bf3ee16447d4ebff9b78ea8" target="_top" xlink:title="Checksums a 2d array staggered at tracer points.">
<polygon fill="#ffffff" stroke="#000000" points="170,-228.5 170,-247.5 331,-247.5 331,-228.5 170,-228.5"/>
<text text-anchor="middle" x="250.5" y="-235.5" font-family="Helvetica,sans-Serif" font-size="10.00" fill="#000000">mom_checksums::chksum_h_2d</text>
</a>
</g>
</g>
<!-- Node1&#45;&gt;Node6 -->
<g id="edge5" class="edge">
<title>Node1&#45;&gt;Node6</title>
<path fill="none" stroke="#191970" d="M379.265,-179.4131C367.4786,-192.2358 349.8529,-209.0983 331,-219 323.6265,-222.8726 315.462,-225.9658 307.2434,-228.4338"/>
<polygon fill="#191970" stroke="#191970" points="382.1036,-181.4874 386.1214,-171.6839 376.867,-176.8421 382.1036,-181.4874"/>
</g>
<!-- Node8 -->
<g id="node8" class="node">
<title>Node8</title>
<g id="a_node8"><a xlink:href="namespacemom__checksums.html#a656dc8f5cc5bdb1ab2ffbf164cfc4e5c" target="_top" xlink:title="Checksums a 3d array staggered at tracer points.">
<polygon fill="#ffffff" stroke="#000000" points="170,-190.5 170,-209.5 331,-209.5 331,-190.5 170,-190.5"/>
<text text-anchor="middle" x="250.5" y="-197.5" font-family="Helvetica,sans-Serif" font-size="10.00" fill="#000000">mom_checksums::chksum_h_3d</text>
</a>
</g>
</g>
<!-- Node1&#45;&gt;Node8 -->
<g id="edge7" class="edge">
<title>Node1&#45;&gt;Node8</title>
<path fill="none" stroke="#191970" d="M357.0994,-173.5405C348.558,-176.0971 339.4852,-178.7214 331,-181 318.7958,-184.2773 305.4698,-187.5465 293.2353,-190.426"/>
<polygon fill="#191970" stroke="#191970" points="358.2608,-176.8458 366.8153,-170.5951 356.23,-170.1468 358.2608,-176.8458"/>
</g>
<!-- Node10 -->
<g id="node10" class="node">
<title>Node10</title>
<g id="a_node10"><a xlink:href="namespacemom__checksums.html#a170da5dcb63242191738bab00ae7a98c" target="_top" xlink:title="Checksums a 2d array staggered at C&#45;grid u points.">
<polygon fill="#ffffff" stroke="#000000" points="170,-152.5 170,-171.5 331,-171.5 331,-152.5 170,-152.5"/>
<text text-anchor="middle" x="250.5" y="-159.5" font-family="Helvetica,sans-Serif" font-size="10.00" fill="#000000">mom_checksums::chksum_u_2d</text>
</a>
</g>
</g>
<!-- Node1&#45;&gt;Node10 -->
<g id="edge9" class="edge">
<title>Node1&#45;&gt;Node10</title>
<path fill="none" stroke="#191970" d="M356.4459,-162C348.5861,-162 340.0116,-162 331.2553,-162"/>
<polygon fill="#191970" stroke="#191970" points="356.671,-165.5001 366.671,-162 356.6709,-158.5001 356.671,-165.5001"/>
</g>
<!-- Node12 -->
<g id="node12" class="node">
<title>Node12</title>
<g id="a_node12"><a xlink:href="namespacemom__checksums.html#a002adb81ca40e3604e68c69c470e3a60" target="_top" xlink:title="Checksums a 3d array staggered at C&#45;grid u points.">
<polygon fill="#ffffff" stroke="#000000" points="170,-76.5 170,-95.5 331,-95.5 331,-76.5 170,-76.5"/>
<text text-anchor="middle" x="250.5" y="-83.5" font-family="Helvetica,sans-Serif" font-size="10.00" fill="#000000">mom_checksums::chksum_u_3d</text>
</a>
</g>
</g>
<!-- Node1&#45;&gt;Node12 -->
<g id="edge11" class="edge">
<title>Node1&#45;&gt;Node12</title>
<path fill="none" stroke="#191970" d="M379.265,-144.5869C367.4786,-131.7642 349.8529,-114.9017 331,-105 323.6265,-101.1274 315.462,-98.0342 307.2434,-95.5662"/>
<polygon fill="#191970" stroke="#191970" points="376.867,-147.1579 386.1214,-152.3161 382.1036,-142.5126 376.867,-147.1579"/>
</g>
<!-- Node14 -->
<g id="node14" class="node">
<title>Node14</title>
<g id="a_node14"><a xlink:href="namespacemom__checksums.html#a036af9a886db469fc5ea2af3137b36f6" target="_top" xlink:title="Checksums a 2d array staggered at C&#45;grid v points.">
<polygon fill="#ffffff" stroke="#000000" points="170,-114.5 170,-133.5 331,-133.5 331,-114.5 170,-114.5"/>
<text text-anchor="middle" x="250.5" y="-121.5" font-family="Helvetica,sans-Serif" font-size="10.00" fill="#000000">mom_checksums::chksum_v_2d</text>
</a>
</g>
</g>
<!-- Node1&#45;&gt;Node14 -->
<g id="edge13" class="edge">
<title>Node1&#45;&gt;Node14</title>
<path fill="none" stroke="#191970" d="M357.0994,-150.4595C348.558,-147.9029 339.4852,-145.2786 331,-143 318.7958,-139.7227 305.4698,-136.4535 293.2353,-133.574"/>
<polygon fill="#191970" stroke="#191970" points="356.23,-153.8532 366.8153,-153.4049 358.2608,-147.1542 356.23,-153.8532"/>
</g>
<!-- Node15 -->
<g id="node15" class="node">
<title>Node15</title>
<g id="a_node15"><a xlink:href="namespacemom__checksums.html#a3c48ee0130a4658c4c4224cdbe4449b9" target="_top" xlink:title="Checksums a 3d array staggered at C&#45;grid v points.">
<polygon fill="#ffffff" stroke="#000000" points="170,-38.5 170,-57.5 331,-57.5 331,-38.5 170,-38.5"/>
<text text-anchor="middle" x="250.5" y="-45.5" font-family="Helvetica,sans-Serif" font-size="10.00" fill="#000000">mom_checksums::chksum_v_3d</text>
</a>
</g>
</g>
<!-- Node1&#45;&gt;Node15 -->
<g id="edge15" class="edge">
<title>Node1&#45;&gt;Node15</title>
<path fill="none" stroke="#191970" d="M386.53,-142.9482C376.9834,-121.1617 358.3507,-86.0551 331,-67 325.4624,-63.142 319.2447,-60.0601 312.7834,-57.5995"/>
<polygon fill="#191970" stroke="#191970" points="383.4093,-144.5589 390.4849,-152.4447 389.8713,-141.8676 383.4093,-144.5589"/>
</g>
<!-- Node16 -->
<g id="node16" class="node">
<title>Node16</title>
<g id="a_node16"><a xlink:href="namespacemom__checksums.html#a4407f1e35457aa61e99ed08ae13b9eeb" target="_top" xlink:title="Checksum a 1d array (typically a column).">
<polygon fill="#ffffff" stroke="#000000" points="180.5,-.5 180.5,-19.5 320.5,-19.5 320.5,-.5 180.5,-.5"/>
<text text-anchor="middle" x="250.5" y="-7.5" font-family="Helvetica,sans-Serif" font-size="10.00" fill="#000000">mom_checksums::zchksum</text>
</a>
</g>
</g>
<!-- Node1&#45;&gt;Node16 -->
<g id="edge17" class="edge">
<title>Node1&#45;&gt;Node16</title>
<path fill="none" stroke="#191970" d="M390.2898,-142.3082C383.7035,-112.9943 367.1103,-58.2072 331,-29 326.1991,-25.1169 320.7399,-22.0023 314.9789,-19.5074"/>
<polygon fill="#191970" stroke="#191970" points="386.8818,-143.1111 392.3439,-152.1894 393.7352,-141.6863 386.8818,-143.1111"/>
</g>
<!-- Node3 -->
<g id="node3" class="node">
<title>Node3</title>
<g id="a_node3"><a xlink:href="namespacemom__checksums.html#acac01c61044b1c7f67392c90b736f77a" target="_top" xlink:title="Checksums on a pair of 2d arrays staggered at q&#45;points.">
<polygon fill="#ffffff" stroke="#000000" points="0,-318 0,-348 134,-348 134,-318 0,-318"/>
<text text-anchor="start" x="8" y="-336" font-family="Helvetica,sans-Serif" font-size="10.00" fill="#000000">mom_checksums::chksum</text>
<text text-anchor="middle" x="67" y="-325" font-family="Helvetica,sans-Serif" font-size="10.00" fill="#000000">_pair_b_2d</text>
</a>
</g>
</g>
<!-- Node2&#45;&gt;Node3 -->
<g id="edge2" class="edge">
<title>Node2&#45;&gt;Node3</title>
<path fill="none" stroke="#191970" d="M159.6457,-328.961C151.021,-329.337 142.3858,-329.7134 134.0449,-330.0771"/>
<polygon fill="#191970" stroke="#191970" points="159.9092,-332.4529 169.7472,-328.5206 159.6042,-325.4595 159.9092,-332.4529"/>
</g>
<!-- Node5 -->
<g id="node5" class="node">
<title>Node5</title>
<g id="a_node5"><a xlink:href="namespacemom__checksums.html#a5b80a1eab30e07bd0d8ac6756807aac0" target="_top" xlink:title="Checksums on a pair of 3d arrays staggered at q&#45;points.">
<polygon fill="#ffffff" stroke="#000000" points="0,-269 0,-299 134,-299 134,-269 0,-269"/>
<text text-anchor="start" x="8" y="-287" font-family="Helvetica,sans-Serif" font-size="10.00" fill="#000000">mom_checksums::chksum</text>
<text text-anchor="middle" x="67" y="-276" font-family="Helvetica,sans-Serif" font-size="10.00" fill="#000000">_pair_b_3d</text>
</a>
</g>
</g>
<!-- Node4&#45;&gt;Node5 -->
<g id="edge4" class="edge">
<title>Node4&#45;&gt;Node5</title>
<path fill="none" stroke="#191970" d="M159.6457,-281.4756C151.021,-281.7106 142.3858,-281.9459 134.0449,-282.1732"/>
<polygon fill="#191970" stroke="#191970" points="159.8463,-284.9715 169.7472,-281.2003 159.6555,-277.9741 159.8463,-284.9715"/>
</g>
<!-- Node7 -->
<g id="node7" class="node">
<title>Node7</title>
<g id="a_node7"><a xlink:href="namespacemom__checksums.html#a359f5f74582dc1452f249a92e8d0563b" target="_top" xlink:title="Checksums on a pair of 2d arrays staggered at tracer points.">
<polygon fill="#ffffff" stroke="#000000" points="0,-220 0,-250 134,-250 134,-220 0,-220"/>
<text text-anchor="start" x="8" y="-238" font-family="Helvetica,sans-Serif" font-size="10.00" fill="#000000">mom_checksums::chksum</text>
<text text-anchor="middle" x="67" y="-227" font-family="Helvetica,sans-Serif" font-size="10.00" fill="#000000">_pair_h_2d</text>
</a>
</g>
</g>
<!-- Node6&#45;&gt;Node7 -->
<g id="edge6" class="edge">
<title>Node6&#45;&gt;Node7</title>
<path fill="none" stroke="#191970" d="M159.6457,-236.5146C151.021,-236.3736 142.3858,-236.2325 134.0449,-236.0961"/>
<polygon fill="#191970" stroke="#191970" points="159.6913,-240.0158 169.7472,-236.6798 159.8058,-233.0167 159.6913,-240.0158"/>
</g>
<!-- Node9 -->
<g id="node9" class="node">
<title>Node9</title>
<g id="a_node9"><a xlink:href="namespacemom__checksums.html#a56121166371f5d8ada74b74158b4af8d" target="_top" xlink:title="Checksums on a pair of 3d arrays staggered at tracer points.">
<polygon fill="#ffffff" stroke="#000000" points="0,-171 0,-201 134,-201 134,-171 0,-171"/>
<text text-anchor="start" x="8" y="-189" font-family="Helvetica,sans-Serif" font-size="10.00" fill="#000000">mom_checksums::chksum</text>
<text text-anchor="middle" x="67" y="-178" font-family="Helvetica,sans-Serif" font-size="10.00" fill="#000000">_pair_h_3d</text>
</a>
</g>
</g>
<!-- Node8&#45;&gt;Node9 -->
<g id="edge8" class="edge">
<title>Node8&#45;&gt;Node9</title>
<path fill="none" stroke="#191970" d="M159.6457,-193.0683C151.021,-192.4103 142.3858,-191.7515 134.0449,-191.1151"/>
<polygon fill="#191970" stroke="#191970" points="159.5099,-196.5681 169.7472,-193.839 160.0425,-189.5883 159.5099,-196.5681"/>
</g>
<!-- Node11 -->
<g id="node11" class="node">
<title>Node11</title>
<g id="a_node11"><a xlink:href="namespacemom__checksums.html#ae29414a605b6acb789b3abfce920955e" target="_top" xlink:title="Checksums a pair of 2d velocity arrays staggered at C&#45;grid locations.">
<polygon fill="#ffffff" stroke="#000000" points="0,-120 0,-150 134,-150 134,-120 0,-120"/>
<text text-anchor="start" x="8" y="-138" font-family="Helvetica,sans-Serif" font-size="10.00" fill="#000000">mom_checksums::chksum</text>
<text text-anchor="middle" x="67" y="-127" font-family="Helvetica,sans-Serif" font-size="10.00" fill="#000000">_uv_2d</text>
</a>
</g>
</g>
<!-- Node10&#45;&gt;Node11 -->
<g id="edge10" class="edge">
<title>Node10&#45;&gt;Node11</title>
<path fill="none" stroke="#191970" d="M175.8783,-151.0202C162.0905,-148.9915 147.7676,-146.8841 134.2155,-144.89"/>
<polygon fill="#191970" stroke="#191970" points="175.4018,-154.4877 185.8048,-152.4808 176.4208,-147.5623 175.4018,-154.4877"/>
</g>
<!-- Node13 -->
<g id="node13" class="node">
<title>Node13</title>
<g id="a_node13"><a xlink:href="namespacemom__checksums.html#a15b3a92eedc3c63382ae26e985b5d7a9" target="_top" xlink:title="Checksums a pair of 3d velocity arrays staggered at C&#45;grid locations.">
<polygon fill="#ffffff" stroke="#000000" points="0,-55 0,-85 134,-85 134,-55 0,-55"/>
<text text-anchor="start" x="8" y="-73" font-family="Helvetica,sans-Serif" font-size="10.00" fill="#000000">mom_checksums::chksum</text>
<text text-anchor="middle" x="67" y="-62" font-family="Helvetica,sans-Serif" font-size="10.00" fill="#000000">_uv_3d</text>
</a>
</g>
</g>
<!-- Node12&#45;&gt;Node13 -->
<g id="edge12" class="edge">
<title>Node12&#45;&gt;Node13</title>
<path fill="none" stroke="#191970" d="M159.6457,-78.0781C151.021,-77.3261 142.3858,-76.5731 134.0449,-75.8459"/>
<polygon fill="#191970" stroke="#191970" points="159.4809,-81.5769 169.7472,-78.9589 160.089,-74.6034 159.4809,-81.5769"/>
</g>
<!-- Node14&#45;&gt;Node11 -->
<g id="edge14" class="edge">
<title>Node14&#45;&gt;Node11</title>
<path fill="none" stroke="#191970" d="M159.6457,-129.4463C151.021,-129.9633 142.3858,-130.481 134.0449,-130.981"/>
<polygon fill="#191970" stroke="#191970" points="159.9746,-132.933 169.7472,-128.8408 159.5556,-125.9455 159.9746,-132.933"/>
</g>
<!-- Node15&#45;&gt;Node13 -->
<g id="edge16" class="edge">
<title>Node15&#45;&gt;Node13</title>
<path fill="none" stroke="#191970" d="M160.9415,-58.7373C151.9333,-59.8173 142.8969,-60.9006 134.18,-61.9457"/>
<polygon fill="#191970" stroke="#191970" points="161.5692,-62.1872 171.0815,-57.5216 160.7359,-55.2369 161.5692,-62.1872"/>
</g>
</g>
</svg>
