<?xml version="1.0" encoding="UTF-8" standalone="no"?>
<!DOCTYPE svg PUBLIC "-//W3C//DTD SVG 1.1//EN"
 "http://www.w3.org/Graphics/SVG/1.1/DTD/svg11.dtd">
<!-- Generated by graphviz version 2.40.1 (20161225.0304)
 -->
<!-- Title: mom_continuity_ppm::meridional_mass_flux Pages: 1 -->
<!--zoomable 295 -->
<svg id="main" version="1.1" xmlns="http://www.w3.org/2000/svg" xmlns:xlink="http://www.w3.org/1999/xlink" xml:space="preserve" onload="init(evt)">
<style type="text/css"><![CDATA[
.edge:hover path { stroke: red; }
.edge:hover polygon { stroke: red; fill: red; }
]]></style>
<script type="text/javascript"><![CDATA[
var edges = document.getElementsByTagName('g');
if (edges && edges.length) {
  for (var i=0;i<edges.length;i++) {
    if (edges[i].id.substr(0,4)=='edge') {
      edges[i].setAttribute('class','edge');
    }
  }
}
]]></script>
        <defs>
                <circle id="rim" cx="0" cy="0" r="7"/>
                <circle id="rim2" cx="0" cy="0" r="3.5"/>
                <g id="zoomPlus">
                        <use xlink:href="#rim" fill="#404040">
                                <set attributeName="fill" to="#808080" begin="zoomplus.mouseover" end="zoomplus.mouseout"/>
                        </use>
                        <path d="M-4,0h8M0,-4v8" fill="none" stroke="white" stroke-width="1.5" pointer-events="none"/>
                </g>
                <g id="zoomMin">
                        <use xlink:href="#rim" fill="#404040">
                                <set attributeName="fill" to="#808080" begin="zoomminus.mouseover" end="zoomminus.mouseout"/>
                        </use>
                        <path d="M-4,0h8" fill="none" stroke="white" stroke-width="1.5" pointer-events="none"/>
                </g>
                <g id="dirArrow">
                        <path fill="none" stroke="white" stroke-width="1.5" d="M0,-3.0v7 M-2.5,-0.5L0,-3.0L2.5,-0.5"/>
                </g>
               <g id="resetDef">
                       <use xlink:href="#rim2" fill="#404040">
                               <set attributeName="fill" to="#808080" begin="reset.mouseover" end="reset.mouseout"/>
                       </use>
               </g>
        </defs>

<script type="text/javascript">
var viewWidth = 581;
var viewHeight = 295;
var sectionId = 'dynsection-7';
</script>
<script xlink:href="svgpan.js"/>
<svg id="graph" class="graph">
<g id="viewport">
<title>mom_continuity_ppm::meridional_mass_flux</title>
<polygon fill="#ffffff" stroke="transparent" points="-4,4 -4,-291.1549 577,-291.1549 577,4 -4,4"/>
<!-- Node1 -->
<g id="node1" class="node">
<title>Node1</title>
<g id="a_node1"><a xlink:title="Calculates the mass or volume fluxes through the meridional faces, and other related quantities.">
<polygon fill="#bfbfbf" stroke="#000000" points="0,-92.6549 0,-122.6549 117,-122.6549 117,-92.6549 0,-92.6549"/>
<text text-anchor="start" x="8" y="-110.6549" font-family="Helvetica,sans-Serif" font-size="10.00" fill="#000000">mom_continuity_ppm</text>
<text text-anchor="middle" x="58.5" y="-99.6549" font-family="Helvetica,sans-Serif" font-size="10.00" fill="#000000">::meridional_mass_flux</text>
</a>
</g>
</g>
<!-- Node2 -->
<g id="node2" class="node">
<title>Node2</title>
<g id="a_node2"><a xlink:href="namespacemom__continuity__ppm.html#a293f7ab5bfd8f3f6a5a50903b05b6411" target="_top" xlink:title="Sets the effective interface thickness at each meridional velocity point.">
<polygon fill="#ffffff" stroke="#000000" points="153.5,-212.6549 153.5,-242.6549 271.5,-242.6549 271.5,-212.6549 153.5,-212.6549"/>
<text text-anchor="start" x="161.5" y="-230.6549" font-family="Helvetica,sans-Serif" font-size="10.00" fill="#000000">mom_continuity_ppm</text>
<text text-anchor="middle" x="212.5" y="-219.6549" font-family="Helvetica,sans-Serif" font-size="10.00" fill="#000000">::merid_face_thickness</text>
</a>
</g>
</g>
<!-- Node1&#45;&gt;Node2 -->
<g id="edge1" class="edge">
<title>Node1&#45;&gt;Node2</title>
<path fill="none" stroke="#191970" d="M70.4699,-122.986C87.1119,-143.4537 119.0446,-179.7768 153,-202.6549 155.7412,-204.5018 158.6408,-206.2551 161.6258,-207.9117"/>
<polygon fill="#191970" stroke="#191970" points="160.2677,-211.1484 170.7642,-212.5888 163.4569,-204.9171 160.2677,-211.1484"/>
</g>
<!-- Node3 -->
<g id="node3" class="node">
<title>Node3</title>
<g id="a_node3"><a xlink:href="namespacemom__continuity__ppm.html#ac00aefda40cb9e22013e99cad342bb63" target="_top" xlink:title="Evaluates the meridional mass or volume fluxes in a layer.">
<polygon fill="#ffffff" stroke="#000000" points="463,-70.6549 463,-100.6549 573,-100.6549 573,-70.6549 463,-70.6549"/>
<text text-anchor="start" x="471" y="-88.6549" font-family="Helvetica,sans-Serif" font-size="10.00" fill="#000000">mom_continuity_ppm</text>
<text text-anchor="middle" x="518" y="-77.6549" font-family="Helvetica,sans-Serif" font-size="10.00" fill="#000000">::merid_flux_layer</text>
</a>
</g>
</g>
<!-- Node1&#45;&gt;Node3 -->
<g id="edge2" class="edge">
<title>Node1&#45;&gt;Node3</title>
<path fill="none" stroke="#191970" d="M68.4876,-92.4097C83.7045,-70.7467 114.977,-31.9859 153,-16.6549 267.5349,29.5262 414.951,-31.9893 481.9704,-65.9229"/>
<polygon fill="#191970" stroke="#191970" points="480.3892,-69.0454 490.8818,-70.5139 483.5951,-62.8227 480.3892,-69.0454"/>
</g>
<!-- Node4 -->
<g id="node4" class="node">
<title>Node4</title>
<g id="a_node4"><a xlink:href="namespacemom__continuity__ppm.html#a6deb1b7de418a17cacd60dabc262ba29" target="_top" xlink:title="Returns the barotropic velocity adjustment that gives the desired barotropic (layer&#45;summed) transport...">
<polygon fill="#ffffff" stroke="#000000" points="308,-70.6549 308,-100.6549 427,-100.6549 427,-70.6549 308,-70.6549"/>
<text text-anchor="start" x="316" y="-88.6549" font-family="Helvetica,sans-Serif" font-size="10.00" fill="#000000">mom_continuity_ppm</text>
<text text-anchor="middle" x="367.5" y="-77.6549" font-family="Helvetica,sans-Serif" font-size="10.00" fill="#000000">::meridional_flux_adjust</text>
</a>
</g>
</g>
<!-- Node1&#45;&gt;Node4 -->
<g id="edge3" class="edge">
<title>Node1&#45;&gt;Node4</title>
<path fill="none" stroke="#191970" d="M117.3479,-103.4651C168.6726,-99.8109 243.2157,-94.5036 297.5722,-90.6335"/>
<polygon fill="#191970" stroke="#191970" points="298.0926,-94.1055 307.8187,-89.904 297.5954,-87.1231 298.0926,-94.1055"/>
</g>
<!-- Node5 -->
<g id="node5" class="node">
<title>Node5</title>
<g id="a_node5"><a xlink:href="namespacemom__continuity__ppm.html#af71fa5f7f4b849ec735e2049df2d0693" target="_top" xlink:title="Calculates left/right edge values for PPM reconstruction.">
<polygon fill="#ffffff" stroke="#000000" points="153,-163.6549 153,-193.6549 272,-193.6549 272,-163.6549 153,-163.6549"/>
<text text-anchor="start" x="161" y="-181.6549" font-family="Helvetica,sans-Serif" font-size="10.00" fill="#000000">mom_continuity_ppm</text>
<text text-anchor="middle" x="212.5" y="-170.6549" font-family="Helvetica,sans-Serif" font-size="10.00" fill="#000000">::ppm_reconstruction_y</text>
</a>
</g>
</g>
<!-- Node1&#45;&gt;Node5 -->
<g id="edge5" class="edge">
<title>Node1&#45;&gt;Node5</title>
<path fill="none" stroke="#191970" d="M88.516,-122.7909C106.992,-131.9764 131.2271,-143.7906 153,-153.6549 157.3631,-155.6316 161.9282,-157.6453 166.5062,-159.6284"/>
<polygon fill="#191970" stroke="#191970" points="165.2903,-162.9151 175.8607,-163.6347 168.0462,-156.4804 165.2903,-162.9151"/>
</g>
<!-- Node10 -->
<g id="node10" class="node">
<title>Node10</title>
<g id="a_node10"><a xlink:href="namespacemom__continuity__ppm.html#adf02002cf5951d7610b8643d2d401585" target="_top" xlink:title="Return the maximum ratio of a/b or maxrat.">
<polygon fill="#ffffff" stroke="#000000" points="157.5,-26.6549 157.5,-56.6549 267.5,-56.6549 267.5,-26.6549 157.5,-26.6549"/>
<text text-anchor="start" x="165.5" y="-44.6549" font-family="Helvetica,sans-Serif" font-size="10.00" fill="#000000">mom_continuity_ppm</text>
<text text-anchor="middle" x="212.5" y="-33.6549" font-family="Helvetica,sans-Serif" font-size="10.00" fill="#000000">::ratio_max</text>
</a>
</g>
</g>
<!-- Node1&#45;&gt;Node10 -->
<g id="edge10" class="edge">
<title>Node1&#45;&gt;Node10</title>
<path fill="none" stroke="#191970" d="M93.8307,-92.5131C115.8402,-83.0805 144.3495,-70.8622 167.908,-60.7657"/>
<polygon fill="#191970" stroke="#191970" points="169.521,-63.8824 177.3337,-56.7261 166.7635,-57.4484 169.521,-63.8824"/>
</g>
<!-- Node11 -->
<g id="node11" class="node">
<title>Node11</title>
<g id="a_node11"><a xlink:href="namespacemom__continuity__ppm.html#a77c6806e82a3634fff7b7480f77c2f02" target="_top" xlink:title="Sets of a structure that describes the meridional barotropic volume or mass fluxes as a function of b...">
<polygon fill="#ffffff" stroke="#000000" points="157.5,-114.6549 157.5,-144.6549 267.5,-144.6549 267.5,-114.6549 157.5,-114.6549"/>
<text text-anchor="start" x="165.5" y="-132.6549" font-family="Helvetica,sans-Serif" font-size="10.00" fill="#000000">mom_continuity_ppm</text>
<text text-anchor="middle" x="212.5" y="-121.6549" font-family="Helvetica,sans-Serif" font-size="10.00" fill="#000000">::set_merid_bt_cont</text>
</a>
</g>
</g>
<!-- Node1&#45;&gt;Node11 -->
<g id="edge11" class="edge">
<title>Node1&#45;&gt;Node11</title>
<path fill="none" stroke="#191970" d="M117.1601,-116.0349C127.0414,-117.4465 137.3506,-118.9192 147.3839,-120.3526"/>
<polygon fill="#191970" stroke="#191970" points="146.9047,-123.8196 157.2992,-121.769 147.8947,-116.8899 146.9047,-123.8196"/>
</g>
<!-- Node4&#45;&gt;Node3 -->
<g id="edge4" class="edge">
<title>Node4&#45;&gt;Node3</title>
<path fill="none" stroke="#191970" d="M427.414,-85.6549C435.6893,-85.6549 444.2231,-85.6549 452.5916,-85.6549"/>
<polygon fill="#191970" stroke="#191970" points="452.6889,-89.155 462.6889,-85.6549 452.6889,-82.155 452.6889,-89.155"/>
</g>
<!-- Node6 -->
<g id="node6" class="node">
<title>Node6</title>
<g id="a_node6"><a xlink:href="namespacemom__error__handler.html#a460cfb79a06c29fc249952c2a3710d67" target="_top" xlink:title="This provides a convenient interface for writing an mpp_error message with run&#45;time filter based on a...">
<polygon fill="#ffffff" stroke="#000000" points="314.5,-256.6549 314.5,-286.6549 420.5,-286.6549 420.5,-256.6549 314.5,-256.6549"/>
<text text-anchor="start" x="322.5" y="-274.6549" font-family="Helvetica,sans-Serif" font-size="10.00" fill="#000000">mom_error_handler::</text>
<text text-anchor="middle" x="367.5" y="-263.6549" font-family="Helvetica,sans-Serif" font-size="10.00" fill="#000000">mom_error</text>
</a>
</g>
</g>
<!-- Node5&#45;&gt;Node6 -->
<g id="edge6" class="edge">
<title>Node5&#45;&gt;Node6</title>
<path fill="none" stroke="#191970" d="M257.0536,-193.7012C262.3099,-196.3113 267.4241,-199.2887 272,-202.6549 292.3532,-217.6271 287.7549,-231.5368 308,-246.6549 310.4352,-248.4734 313.0223,-250.1872 315.7019,-251.798"/>
<polygon fill="#191970" stroke="#191970" points="314.0461,-254.8816 324.5015,-256.5947 317.3964,-248.7354 314.0461,-254.8816"/>
</g>
<!-- Node8 -->
<g id="node8" class="node">
<title>Node8</title>
<g id="a_node8"><a xlink:href="namespacemom__continuity__ppm.html#ab03786fff2550dd61282356608fc1352" target="_top" xlink:title="This subroutine limits the left/right edge values of the PPM reconstruction according to the monotoni...">
<polygon fill="#ffffff" stroke="#000000" points="312.5,-207.6549 312.5,-237.6549 422.5,-237.6549 422.5,-207.6549 312.5,-207.6549"/>
<text text-anchor="start" x="320.5" y="-225.6549" font-family="Helvetica,sans-Serif" font-size="10.00" fill="#000000">mom_continuity_ppm</text>
<text text-anchor="middle" x="367.5" y="-214.6549" font-family="Helvetica,sans-Serif" font-size="10.00" fill="#000000">::ppm_limit_cw84</text>
</a>
</g>
</g>
<!-- Node5&#45;&gt;Node8 -->
<g id="edge8" class="edge">
<title>Node5&#45;&gt;Node8</title>
<path fill="none" stroke="#191970" d="M265.4087,-193.6741C278.058,-197.2649 291.6824,-201.1325 304.7287,-204.8359"/>
<polygon fill="#191970" stroke="#191970" points="303.9911,-208.2647 314.5668,-207.6287 305.9027,-201.5308 303.9911,-208.2647"/>
</g>
<!-- Node9 -->
<g id="node9" class="node">
<title>Node9</title>
<g id="a_node9"><a xlink:href="namespacemom__continuity__ppm.html#a870edb0c5b2cb0464899430b6651260c" target="_top" xlink:title="This subroutine limits the left/right edge values of the PPM reconstruction to give a reconstruction ...">
<polygon fill="#ffffff" stroke="#000000" points="312.5,-158.6549 312.5,-188.6549 422.5,-188.6549 422.5,-158.6549 312.5,-158.6549"/>
<text text-anchor="start" x="320.5" y="-176.6549" font-family="Helvetica,sans-Serif" font-size="10.00" fill="#000000">mom_continuity_ppm</text>
<text text-anchor="middle" x="367.5" y="-165.6549" font-family="Helvetica,sans-Serif" font-size="10.00" fill="#000000">::ppm_limit_pos</text>
</a>
</g>
</g>
<!-- Node5&#45;&gt;Node9 -->
<g id="edge9" class="edge">
<title>Node5&#45;&gt;Node9</title>
<path fill="none" stroke="#191970" d="M272.427,-176.7217C282.1639,-176.4076 292.2915,-176.081 302.15,-175.7629"/>
<polygon fill="#191970" stroke="#191970" points="302.4167,-179.2562 312.2986,-175.4356 302.1909,-172.2599 302.4167,-179.2562"/>
</g>
<!-- Node7 -->
<g id="node7" class="node">
<title>Node7</title>
<g id="a_node7"><a xlink:href="namespacemom__error__handler.html#ad5f00a53059c72fe2332d1436c80ca71" target="_top" xlink:title="This returns .true. if the current PE is the root PE.">
<polygon fill="#ffffff" stroke="#000000" points="465,-256.6549 465,-286.6549 571,-286.6549 571,-256.6549 465,-256.6549"/>
<text text-anchor="start" x="473" y="-274.6549" font-family="Helvetica,sans-Serif" font-size="10.00" fill="#000000">mom_error_handler::</text>
<text text-anchor="middle" x="518" y="-263.6549" font-family="Helvetica,sans-Serif" font-size="10.00" fill="#000000">is_root_pe</text>
</a>
</g>
</g>
<!-- Node6&#45;&gt;Node7 -->
<g id="edge7" class="edge">
<title>Node6&#45;&gt;Node7</title>
<path fill="none" stroke="#191970" d="M420.5607,-271.6549C431.5756,-271.6549 443.2872,-271.6549 454.6294,-271.6549"/>
<polygon fill="#191970" stroke="#191970" points="454.9112,-275.155 464.9112,-271.6549 454.9112,-268.155 454.9112,-275.155"/>
</g>
<!-- Node11&#45;&gt;Node3 -->
<g id="edge12" class="edge">
<title>Node11&#45;&gt;Node3</title>
<path fill="none" stroke="#191970" d="M267.9424,-127.0012C311.4519,-124.3142 373.4165,-119.152 427,-109.6549 436.7735,-107.9226 447.033,-105.661 456.9973,-103.2188"/>
<polygon fill="#191970" stroke="#191970" points="457.9987,-106.5758 466.8344,-100.7293 456.2813,-99.7897 457.9987,-106.5758"/>
</g>
<!-- Node11&#45;&gt;Node4 -->
<g id="edge13" class="edge">
<title>Node11&#45;&gt;Node4</title>
<path fill="none" stroke="#191970" d="M265.4087,-114.6356C278.058,-111.0449 291.6824,-107.1773 304.7287,-103.4738"/>
<polygon fill="#191970" stroke="#191970" points="305.9027,-106.7789 314.5668,-100.6811 303.9911,-100.045 305.9027,-106.7789"/>
</g>
</g>
</svg>
        <g id="navigator" transform="translate(0 0)" fill="#404254">
                <rect fill="#f2f5e9" fill-opacity="0.5" stroke="#606060" stroke-width=".5" x="0" y="0" width="60" height="60"/>
                <use id="zoomplus" xlink:href="#zoomPlus" x="17" y="9" onmousedown="handleZoom(evt,'in')"/>
                <use id="zoomminus" xlink:href="#zoomMin" x="42" y="9" onmousedown="handleZoom(evt,'out')"/>
                <use id="reset" xlink:href="#resetDef" x="30" y="36" onmousedown="handleReset()"/>
                <g id="arrowUp" xlink:href="#dirArrow" transform="translate(30 24)" onmousedown="handlePan(0,-1)">
                  <use xlink:href="#rim" fill="#404040">
                        <set attributeName="fill" to="#808080" begin="arrowUp.mouseover" end="arrowUp.mouseout"/>
                  </use>
                  <path fill="none" stroke="white" stroke-width="1.5" d="M0,-3.0v7 M-2.5,-0.5L0,-3.0L2.5,-0.5"/>
                </g>
                <g id="arrowRight" xlink:href="#dirArrow" transform="rotate(90) translate(36 -43)" onmousedown="handlePan(1,0)">
                  <use xlink:href="#rim" fill="#404040">
                        <set attributeName="fill" to="#808080" begin="arrowRight.mouseover" end="arrowRight.mouseout"/>
                  </use>
                  <path fill="none" stroke="white" stroke-width="1.5" d="M0,-3.0v7 M-2.5,-0.5L0,-3.0L2.5,-0.5"/>
                </g>
                <g id="arrowDown" xlink:href="#dirArrow" transform="rotate(180) translate(-30 -48)" onmousedown="handlePan(0,1)">
                  <use xlink:href="#rim" fill="#404040">
                        <set attributeName="fill" to="#808080" begin="arrowDown.mouseover" end="arrowDown.mouseout"/>
                  </use>
                  <path fill="none" stroke="white" stroke-width="1.5" d="M0,-3.0v7 M-2.5,-0.5L0,-3.0L2.5,-0.5"/>
                </g>
                <g id="arrowLeft" xlink:href="#dirArrow" transform="rotate(270) translate(-36 17)" onmousedown="handlePan(-1,0)">
                  <use xlink:href="#rim" fill="#404040">
                        <set attributeName="fill" to="#808080" begin="arrowLeft.mouseover" end="arrowLeft.mouseout"/>
                  </use>
                  <path fill="none" stroke="white" stroke-width="1.5" d="M0,-3.0v7 M-2.5,-0.5L0,-3.0L2.5,-0.5"/>
                </g>
        </g>
        <svg viewBox="0 0 15 15" width="100%" height="30px" preserveAspectRatio="xMaxYMin meet">
         <g id="arrow_out" transform="scale(0.3 0.3)">
          <a xlink:href="namespacemom__continuity__ppm_ae64c4b7cd1756aa3c121fbcf637d5cae_cgraph_org.svg" target="_base">
           <rect id="button" ry="5" rx="5" y="6" x="6" height="38" width="38"
                fill="#f2f5e9" fill-opacity="0.5" stroke="#606060" stroke-width="1.0"/>
           <path id="arrow"
             d="M 11.500037,31.436501 C 11.940474,20.09759 22.043105,11.32322 32.158766,21.979434 L 37.068811,17.246167 C 37.068811,17.246167 37.088388,32 37.088388,32 L 22.160133,31.978069 C 22.160133,31.978069 26.997745,27.140456 26.997745,27.140456 C 18.528582,18.264221 13.291696,25.230495 11.500037,31.436501 z"
             style="fill:#404040;"/>
          </a>
         </g>
        </svg>
</svg>
