<?xml version="1.0" encoding="UTF-8" standalone="no"?>
<!DOCTYPE svg PUBLIC "-//W3C//DTD SVG 1.1//EN"
 "http://www.w3.org/Graphics/SVG/1.1/DTD/svg11.dtd">
<!-- Generated by graphviz version 2.40.1 (20161225.0304)
 -->
<!-- Title: mom_document::doc_module Pages: 1 -->
<svg width="854pt" height="103pt"
 viewBox="0.00 0.00 854.00 102.50" xmlns="http://www.w3.org/2000/svg" xmlns:xlink="http://www.w3.org/1999/xlink">
<g id="graph0" class="graph" transform="scale(1 1) rotate(0) translate(4 98.5)">
<title>mom_document::doc_module</title>
<polygon fill="#ffffff" stroke="transparent" points="-4,4 -4,-98.5 850,-98.5 850,4 -4,4"/>
<!-- Node1 -->
<g id="node1" class="node">
<title>Node1</title>
<g id="a_node1"><a xlink:title="This subroutine handles the module documentation.">
<polygon fill="#bfbfbf" stroke="#000000" points="0,-44.5 0,-63.5 152,-63.5 152,-44.5 0,-44.5"/>
<text text-anchor="middle" x="76" y="-51.5" font-family="Helvetica,sans-Serif" font-size="10.00" fill="#000000">mom_document::doc_module</text>
</a>
</g>
</g>
<!-- Node2 -->
<g id="node2" class="node">
<title>Node2</title>
<g id="a_node2"><a xlink:href="namespacemom__error__handler.html#ad5f00a53059c72fe2332d1436c80ca71" target="_top" xlink:title="This returns .true. if the current PE is the root PE.">
<polygon fill="#ffffff" stroke="#000000" points="731,-64 731,-94 846,-94 846,-64 731,-64"/>
<text text-anchor="start" x="739" y="-82" font-family="Helvetica,sans-Serif" font-size="10.00" fill="#000000">mom_error_handler::</text>
<text text-anchor="middle" x="788.5" y="-71" font-family="Helvetica,sans-Serif" font-size="10.00" fill="#000000">is_root_pe</text>
</a>
</g>
</g>
<!-- Node1&#45;&gt;Node2 -->
<g id="edge1" class="edge">
<title>Node1&#45;&gt;Node2</title>
<path fill="none" stroke="#191970" d="M110.496,-63.6174C132.4827,-69.2682 161.685,-75.8948 188,-79 380.0164,-101.6585 608.9813,-91.4869 720.583,-84.1611"/>
<polygon fill="#191970" stroke="#191970" points="720.9436,-87.6449 730.6873,-83.4844 720.4757,-80.6605 720.9436,-87.6449"/>
</g>
<!-- Node3 -->
<g id="node3" class="node">
<title>Node3</title>
<g id="a_node3"><a xlink:href="namespacemom__document.html#aab976b6c6c9c01833438d217fca228a4" target="_top" xlink:title="This subroutine allocates and populates a structure that controls where the documentation occurs and ...">
<polygon fill="#ffffff" stroke="#000000" points="229,-39 229,-69 348,-69 348,-39 229,-39"/>
<text text-anchor="start" x="237" y="-57" font-family="Helvetica,sans-Serif" font-size="10.00" fill="#000000">mom_document::open</text>
<text text-anchor="middle" x="288.5" y="-46" font-family="Helvetica,sans-Serif" font-size="10.00" fill="#000000">_doc_file</text>
</a>
</g>
</g>
<!-- Node1&#45;&gt;Node3 -->
<g id="edge2" class="edge">
<title>Node1&#45;&gt;Node3</title>
<path fill="none" stroke="#191970" d="M152.1172,-54C173.8141,-54 197.3385,-54 218.6427,-54"/>
<polygon fill="#191970" stroke="#191970" points="218.9051,-57.5001 228.905,-54 218.905,-50.5001 218.9051,-57.5001"/>
</g>
<!-- Node6 -->
<g id="node6" class="node">
<title>Node6</title>
<g id="a_node6"><a xlink:href="namespacemom__document.html#a249e7992a57539508d07c71c6fcabaeb" target="_top" xlink:title="This subroutine writes out the message and description to the documetation files.">
<polygon fill="#ffffff" stroke="#000000" points="188,-.5 188,-19.5 389,-19.5 389,-.5 188,-.5"/>
<text text-anchor="middle" x="288.5" y="-7.5" font-family="Helvetica,sans-Serif" font-size="10.00" fill="#000000">mom_document::writemessageanddesc</text>
</a>
</g>
</g>
<!-- Node1&#45;&gt;Node6 -->
<g id="edge8" class="edge">
<title>Node1&#45;&gt;Node6</title>
<path fill="none" stroke="#191970" d="M119.8515,-44.4477C140.5121,-39.987 165.507,-34.6478 188,-30 201.5987,-27.1901 216.2478,-24.2343 230.0426,-21.4829"/>
<polygon fill="#191970" stroke="#191970" points="230.784,-24.9041 239.9092,-19.5206 229.4185,-18.0386 230.784,-24.9041"/>
</g>
<!-- Node3&#45;&gt;Node2 -->
<g id="edge6" class="edge">
<title>Node3&#45;&gt;Node2</title>
<path fill="none" stroke="#191970" d="M348.315,-56.9908C441.9464,-61.6723 622.558,-70.7029 720.817,-75.6159"/>
<polygon fill="#191970" stroke="#191970" points="720.7697,-79.1178 730.9321,-76.1216 721.1193,-72.1265 720.7697,-79.1178"/>
</g>
<!-- Node4 -->
<g id="node4" class="node">
<title>Node4</title>
<g id="a_node4"><a xlink:href="namespacemom__document.html#a5f2661445a72a7d0f774677e91366db5" target="_top" xlink:title="Find an unused unit number, returning &gt;0 if found, and triggering a FATAL error if not.">
<polygon fill="#ffffff" stroke="#000000" points="425,-20 425,-50 544,-50 544,-20 425,-20"/>
<text text-anchor="start" x="433" y="-38" font-family="Helvetica,sans-Serif" font-size="10.00" fill="#000000">mom_document::find</text>
<text text-anchor="middle" x="484.5" y="-27" font-family="Helvetica,sans-Serif" font-size="10.00" fill="#000000">_unused_unit_number</text>
</a>
</g>
</g>
<!-- Node3&#45;&gt;Node4 -->
<g id="edge3" class="edge">
<title>Node3&#45;&gt;Node4</title>
<path fill="none" stroke="#191970" d="M348.1048,-48.222C369.1059,-46.1862 392.9013,-43.8795 414.6701,-41.7692"/>
<polygon fill="#191970" stroke="#191970" points="415.2255,-45.2319 424.8411,-40.7833 414.55,-38.2645 415.2255,-45.2319"/>
</g>
<!-- Node5 -->
<g id="node5" class="node">
<title>Node5</title>
<g id="a_node5"><a xlink:href="namespacemom__error__handler.html#a460cfb79a06c29fc249952c2a3710d67" target="_top" xlink:title="This provides a convenient interface for writing an mpp_error message with run&#45;time filter based on a...">
<polygon fill="#ffffff" stroke="#000000" points="580,-20 580,-50 695,-50 695,-20 580,-20"/>
<text text-anchor="start" x="588" y="-38" font-family="Helvetica,sans-Serif" font-size="10.00" fill="#000000">mom_error_handler::</text>
<text text-anchor="middle" x="637.5" y="-27" font-family="Helvetica,sans-Serif" font-size="10.00" fill="#000000">mom_error</text>
</a>
</g>
</g>
<!-- Node3&#45;&gt;Node5 -->
<g id="edge7" class="edge">
<title>Node3&#45;&gt;Node5</title>
<path fill="none" stroke="#191970" d="M348.2228,-41.6673C361.8208,-38.1673 376.0663,-33.938 389,-29 405.9017,-22.547 407.439,-14.3498 425,-10 476.3374,2.7162 491.5618,-3.1105 544,-10 556.1043,-11.5903 568.8693,-14.2916 580.945,-17.3453"/>
<polygon fill="#191970" stroke="#191970" points="580.3343,-20.804 590.8968,-19.9766 582.1237,-14.0366 580.3343,-20.804"/>
</g>
<!-- Node4&#45;&gt;Node5 -->
<g id="edge4" class="edge">
<title>Node4&#45;&gt;Node5</title>
<path fill="none" stroke="#191970" d="M544.0919,-35C552.4432,-35 561.0774,-35 569.569,-35"/>
<polygon fill="#191970" stroke="#191970" points="569.8276,-38.5001 579.8276,-35 569.8276,-31.5001 569.8276,-38.5001"/>
</g>
<!-- Node5&#45;&gt;Node2 -->
<g id="edge5" class="edge">
<title>Node5&#45;&gt;Node2</title>
<path fill="none" stroke="#191970" d="M689.0433,-50.0192C701.2454,-53.5748 714.3788,-57.4018 726.9746,-61.0721"/>
<polygon fill="#191970" stroke="#191970" points="726.3529,-64.5364 736.9328,-63.9738 728.3113,-57.8159 726.3529,-64.5364"/>
</g>
</g>
</svg>
