<?xml version="1.0" encoding="UTF-8" standalone="no"?>
<!DOCTYPE svg PUBLIC "-//W3C//DTD SVG 1.1//EN"
 "http://www.w3.org/Graphics/SVG/1.1/DTD/svg11.dtd">
<!-- Generated by graphviz version 2.40.1 (20161225.0304)
 -->
<!-- Title: mom_sum_output::depth_list_setup Pages: 1 -->
<!--zoomable 196 -->
<svg id="main" version="1.1" xmlns="http://www.w3.org/2000/svg" xmlns:xlink="http://www.w3.org/1999/xlink" xml:space="preserve" onload="init(evt)">
<style type="text/css"><![CDATA[
.edge:hover path { stroke: red; }
.edge:hover polygon { stroke: red; fill: red; }
]]></style>
<script type="text/javascript"><![CDATA[
var edges = document.getElementsByTagName('g');
if (edges && edges.length) {
  for (var i=0;i<edges.length;i++) {
    if (edges[i].id.substr(0,4)=='edge') {
      edges[i].setAttribute('class','edge');
    }
  }
}
]]></script>
        <defs>
                <circle id="rim" cx="0" cy="0" r="7"/>
                <circle id="rim2" cx="0" cy="0" r="3.5"/>
                <g id="zoomPlus">
                        <use xlink:href="#rim" fill="#404040">
                                <set attributeName="fill" to="#808080" begin="zoomplus.mouseover" end="zoomplus.mouseout"/>
                        </use>
                        <path d="M-4,0h8M0,-4v8" fill="none" stroke="white" stroke-width="1.5" pointer-events="none"/>
                </g>
                <g id="zoomMin">
                        <use xlink:href="#rim" fill="#404040">
                                <set attributeName="fill" to="#808080" begin="zoomminus.mouseover" end="zoomminus.mouseout"/>
                        </use>
                        <path d="M-4,0h8" fill="none" stroke="white" stroke-width="1.5" pointer-events="none"/>
                </g>
                <g id="dirArrow">
                        <path fill="none" stroke="white" stroke-width="1.5" d="M0,-3.0v7 M-2.5,-0.5L0,-3.0L2.5,-0.5"/>
                </g>
               <g id="resetDef">
                       <use xlink:href="#rim2" fill="#404040">
                               <set attributeName="fill" to="#808080" begin="reset.mouseover" end="reset.mouseout"/>
                       </use>
               </g>
        </defs>

<script type="text/javascript">
var viewWidth = 749;
var viewHeight = 196;
var sectionId = 'dynsection-2';
</script>
<script xlink:href="svgpan.js"/>
<svg id="graph" class="graph">
<g id="viewport">
<title>mom_sum_output::depth_list_setup</title>
<polygon fill="#ffffff" stroke="transparent" points="-4,4 -4,-191.7317 745,-191.7317 745,4 -4,4"/>
<!-- Node1 -->
<g id="node1" class="node">
<title>Node1</title>
<g id="a_node1"><a xlink:title="This subroutine sets up an ordered list of depths, along with the cross sectional areas at each depth...">
<polygon fill="#bfbfbf" stroke="#000000" points="0,-66.0215 0,-96.0215 125,-96.0215 125,-66.0215 0,-66.0215"/>
<text text-anchor="start" x="8" y="-84.0215" font-family="Helvetica,sans-Serif" font-size="10.00" fill="#000000">mom_sum_output::depth</text>
<text text-anchor="middle" x="62.5" y="-73.0215" font-family="Helvetica,sans-Serif" font-size="10.00" fill="#000000">_list_setup</text>
</a>
</g>
</g>
<!-- Node2 -->
<g id="node2" class="node">
<title>Node2</title>
<g id="a_node2"><a xlink:href="namespacemom__sum__output.html#a1db5001777c2171a7f3f16122b4bacd1" target="_top" xlink:title="create_depth_list makes an ordered list of depths, along with the cross sectional areas at each depth...">
<polygon fill="#ffffff" stroke="#000000" points="316,-139.0215 316,-169.0215 444,-169.0215 444,-139.0215 316,-139.0215"/>
<text text-anchor="start" x="324" y="-157.0215" font-family="Helvetica,sans-Serif" font-size="10.00" fill="#000000">mom_sum_output::create</text>
<text text-anchor="middle" x="380" y="-146.0215" font-family="Helvetica,sans-Serif" font-size="10.00" fill="#000000">_depth_list</text>
</a>
</g>
</g>
<!-- Node1&#45;&gt;Node2 -->
<g id="edge1" class="edge">
<title>Node1&#45;&gt;Node2</title>
<path fill="none" stroke="#191970" d="M123.408,-96.0523C135.8356,-99.0656 148.8311,-102.1779 161,-105.0215 209.1186,-116.2658 263.3131,-128.3958 305.7519,-137.774"/>
<polygon fill="#191970" stroke="#191970" points="305.2035,-141.2371 315.7228,-139.9746 306.7121,-134.4016 305.2035,-141.2371"/>
</g>
<!-- Node3 -->
<g id="node3" class="node">
<title>Node3</title>
<g id="a_node3"><a xlink:href="namespacemom__error__handler.html#ad5f00a53059c72fe2332d1436c80ca71" target="_top" xlink:title="This returns .true. if the current PE is the root PE.">
<polygon fill="#ffffff" stroke="#000000" points="635,-7.0215 635,-37.0215 741,-37.0215 741,-7.0215 635,-7.0215"/>
<text text-anchor="start" x="643" y="-25.0215" font-family="Helvetica,sans-Serif" font-size="10.00" fill="#000000">mom_error_handler::</text>
<text text-anchor="middle" x="688" y="-14.0215" font-family="Helvetica,sans-Serif" font-size="10.00" fill="#000000">is_root_pe</text>
</a>
</g>
</g>
<!-- Node1&#45;&gt;Node3 -->
<g id="edge2" class="edge">
<title>Node1&#45;&gt;Node3</title>
<path fill="none" stroke="#191970" d="M90.2331,-65.9374C109.5871,-55.9472 136.2787,-43.2207 161,-35.0215 281.1437,4.8259 317.5162,1.8956 444,-3.0215 505.4387,-5.41 575.3826,-11.1691 624.5854,-15.7252"/>
<polygon fill="#191970" stroke="#191970" points="624.4767,-19.2302 634.7594,-16.6775 625.1291,-12.2607 624.4767,-19.2302"/>
</g>
<!-- Node4 -->
<g id="node4" class="node">
<title>Node4</title>
<g id="a_node4"><a xlink:href="namespacemom__error__handler.html#a460cfb79a06c29fc249952c2a3710d67" target="_top" xlink:title="This provides a convenient interface for writing an mpp_error message with run&#45;time filter based on a...">
<polygon fill="#ffffff" stroke="#000000" points="486.5,-100.0215 486.5,-130.0215 592.5,-130.0215 592.5,-100.0215 486.5,-100.0215"/>
<text text-anchor="start" x="494.5" y="-118.0215" font-family="Helvetica,sans-Serif" font-size="10.00" fill="#000000">mom_error_handler::</text>
<text text-anchor="middle" x="539.5" y="-107.0215" font-family="Helvetica,sans-Serif" font-size="10.00" fill="#000000">mom_error</text>
</a>
</g>
</g>
<!-- Node1&#45;&gt;Node4 -->
<g id="edge3" class="edge">
<title>Node1&#45;&gt;Node4</title>
<path fill="none" stroke="#191970" d="M88.2032,-96.0425C107.7175,-107.0204 135.459,-121.7274 161,-132.0215 227.6488,-158.8839 244.8877,-167.692 316,-178.0215 372.2981,-186.1992 389.5123,-194.375 444,-178.0215 470.891,-169.9507 497.2015,-151.5855 515.3743,-136.7546"/>
<polygon fill="#191970" stroke="#191970" points="517.7223,-139.3532 523.1241,-130.2388 513.2175,-133.9952 517.7223,-139.3532"/>
</g>
<!-- Node5 -->
<g id="node5" class="node">
<title>Node5</title>
<g id="a_node5"><a xlink:href="namespacemom__sum__output.html#a4f45b1c7dbff4fe064e102ccb2967daf" target="_top" xlink:title="This subroutine reads in the depth list to the specified file and allocates and sets up CSDL and CSli...">
<polygon fill="#ffffff" stroke="#000000" points="161,-66.0215 161,-96.0215 280,-96.0215 280,-66.0215 161,-66.0215"/>
<text text-anchor="start" x="169" y="-84.0215" font-family="Helvetica,sans-Serif" font-size="10.00" fill="#000000">mom_sum_output::read</text>
<text text-anchor="middle" x="220.5" y="-73.0215" font-family="Helvetica,sans-Serif" font-size="10.00" fill="#000000">_depth_list</text>
</a>
</g>
</g>
<!-- Node1&#45;&gt;Node5 -->
<g id="edge5" class="edge">
<title>Node1&#45;&gt;Node5</title>
<path fill="none" stroke="#191970" d="M125.3998,-81.0215C133.7204,-81.0215 142.2899,-81.0215 150.7175,-81.0215"/>
<polygon fill="#191970" stroke="#191970" points="150.9007,-84.5216 160.9007,-81.0215 150.9006,-77.5216 150.9007,-84.5216"/>
</g>
<!-- Node7 -->
<g id="node7" class="node">
<title>Node7</title>
<g id="a_node7"><a xlink:href="namespacemom__sum__output.html#a955e777980a668bfc611c78de5de1895" target="_top" xlink:title="This subroutine writes out the depth list to the specified file.">
<polygon fill="#ffffff" stroke="#000000" points="319,-13.0215 319,-43.0215 441,-43.0215 441,-13.0215 319,-13.0215"/>
<text text-anchor="start" x="327" y="-31.0215" font-family="Helvetica,sans-Serif" font-size="10.00" fill="#000000">mom_sum_output::write</text>
<text text-anchor="middle" x="380" y="-20.0215" font-family="Helvetica,sans-Serif" font-size="10.00" fill="#000000">_depth_list</text>
</a>
</g>
</g>
<!-- Node1&#45;&gt;Node7 -->
<g id="edge13" class="edge">
<title>Node1&#45;&gt;Node7</title>
<path fill="none" stroke="#191970" d="M116.6847,-66.0132C131.0166,-62.389 146.5274,-58.7728 161,-56.0215 209.9799,-46.7103 265.7241,-39.6326 308.714,-34.9224"/>
<polygon fill="#191970" stroke="#191970" points="309.2302,-38.3872 318.7974,-33.8354 308.4798,-31.4275 309.2302,-38.3872"/>
</g>
<!-- Node4&#45;&gt;Node3 -->
<g id="edge4" class="edge">
<title>Node4&#45;&gt;Node3</title>
<path fill="none" stroke="#191970" d="M579.2324,-99.994C585.974,-96.9762 592.7951,-93.6163 599,-90.0215 621.9904,-76.702 645.7938,-58.2285 662.9925,-43.8975"/>
<polygon fill="#191970" stroke="#191970" points="665.4954,-46.3648 670.8725,-37.2358 660.9761,-41.0191 665.4954,-46.3648"/>
</g>
<!-- Node5&#45;&gt;Node2 -->
<g id="edge6" class="edge">
<title>Node5&#45;&gt;Node2</title>
<path fill="none" stroke="#191970" d="M253.5485,-96.1472C277.9286,-107.3055 311.2994,-122.5786 337.638,-134.6333"/>
<polygon fill="#191970" stroke="#191970" points="336.4443,-137.9361 346.9938,-138.9153 339.3575,-131.571 336.4443,-137.9361"/>
</g>
<!-- Node5&#45;&gt;Node4 -->
<g id="edge8" class="edge">
<title>Node5&#45;&gt;Node4</title>
<path fill="none" stroke="#191970" d="M280.1272,-87.3768C336.0111,-93.3331 419.2651,-102.2065 476.2846,-108.2838"/>
<polygon fill="#191970" stroke="#191970" points="475.9452,-111.7674 486.2599,-109.347 476.6872,-104.8068 475.9452,-111.7674"/>
</g>
<!-- Node6 -->
<g id="node6" class="node">
<title>Node6</title>
<g id="a_node6"><a xlink:href="namespacemom__sum__output.html#a928dd1160bb6c0033a417c618b9d01ef" target="_top" xlink:title="Return the checksums required to verify DEPTH_LIST_FILE contents.">
<polygon fill="#ffffff" stroke="#000000" points="480,-51.0215 480,-81.0215 599,-81.0215 599,-51.0215 480,-51.0215"/>
<text text-anchor="start" x="488" y="-69.0215" font-family="Helvetica,sans-Serif" font-size="10.00" fill="#000000">mom_sum_output::get</text>
<text text-anchor="middle" x="539.5" y="-58.0215" font-family="Helvetica,sans-Serif" font-size="10.00" fill="#000000">_depth_list_checksums</text>
</a>
</g>
</g>
<!-- Node5&#45;&gt;Node6 -->
<g id="edge7" class="edge">
<title>Node5&#45;&gt;Node6</title>
<path fill="none" stroke="#191970" d="M280.1272,-78.2177C333.8582,-75.6912 412.8911,-71.9749 469.5809,-69.3093"/>
<polygon fill="#191970" stroke="#191970" points="470.0705,-72.7902 479.895,-68.8243 469.7416,-65.7979 470.0705,-72.7902"/>
</g>
<!-- Node5&#45;&gt;Node7 -->
<g id="edge9" class="edge">
<title>Node5&#45;&gt;Node7</title>
<path fill="none" stroke="#191970" d="M265.7797,-65.9756C284.2162,-59.8494 305.6962,-52.7118 325.0216,-46.2902"/>
<polygon fill="#191970" stroke="#191970" points="326.221,-49.5799 334.6071,-43.1051 324.0136,-42.937 326.221,-49.5799"/>
</g>
<!-- Node7&#45;&gt;Node3 -->
<g id="edge11" class="edge">
<title>Node7&#45;&gt;Node3</title>
<path fill="none" stroke="#191970" d="M441.2191,-26.8289C494.371,-25.7935 571.0315,-24.3001 624.7667,-23.2533"/>
<polygon fill="#191970" stroke="#191970" points="624.9282,-26.751 634.8581,-23.0568 624.7918,-19.7523 624.9282,-26.751"/>
</g>
<!-- Node7&#45;&gt;Node4 -->
<g id="edge12" class="edge">
<title>Node7&#45;&gt;Node4</title>
<path fill="none" stroke="#191970" d="M402.0497,-43.0948C421.9315,-56.3429 452.2262,-75.6896 480,-90.0215 483.7526,-91.9579 487.6898,-93.866 491.676,-95.7122"/>
<polygon fill="#191970" stroke="#191970" points="490.4451,-98.9959 501.0021,-99.8916 493.3079,-92.608 490.4451,-98.9959"/>
</g>
<!-- Node7&#45;&gt;Node6 -->
<g id="edge10" class="edge">
<title>Node7&#45;&gt;Node6</title>
<path fill="none" stroke="#191970" d="M441.2107,-42.6046C450.5998,-44.8415 460.3519,-47.1649 469.9062,-49.4412"/>
<polygon fill="#191970" stroke="#191970" points="469.2289,-52.8777 479.7678,-51.7907 470.8512,-46.0683 469.2289,-52.8777"/>
</g>
</g>
</svg>
        <g id="navigator" transform="translate(0 0)" fill="#404254">
                <rect fill="#f2f5e9" fill-opacity="0.5" stroke="#606060" stroke-width=".5" x="0" y="0" width="60" height="60"/>
                <use id="zoomplus" xlink:href="#zoomPlus" x="17" y="9" onmousedown="handleZoom(evt,'in')"/>
                <use id="zoomminus" xlink:href="#zoomMin" x="42" y="9" onmousedown="handleZoom(evt,'out')"/>
                <use id="reset" xlink:href="#resetDef" x="30" y="36" onmousedown="handleReset()"/>
                <g id="arrowUp" xlink:href="#dirArrow" transform="translate(30 24)" onmousedown="handlePan(0,-1)">
                  <use xlink:href="#rim" fill="#404040">
                        <set attributeName="fill" to="#808080" begin="arrowUp.mouseover" end="arrowUp.mouseout"/>
                  </use>
                  <path fill="none" stroke="white" stroke-width="1.5" d="M0,-3.0v7 M-2.5,-0.5L0,-3.0L2.5,-0.5"/>
                </g>
                <g id="arrowRight" xlink:href="#dirArrow" transform="rotate(90) translate(36 -43)" onmousedown="handlePan(1,0)">
                  <use xlink:href="#rim" fill="#404040">
                        <set attributeName="fill" to="#808080" begin="arrowRight.mouseover" end="arrowRight.mouseout"/>
                  </use>
                  <path fill="none" stroke="white" stroke-width="1.5" d="M0,-3.0v7 M-2.5,-0.5L0,-3.0L2.5,-0.5"/>
                </g>
                <g id="arrowDown" xlink:href="#dirArrow" transform="rotate(180) translate(-30 -48)" onmousedown="handlePan(0,1)">
                  <use xlink:href="#rim" fill="#404040">
                        <set attributeName="fill" to="#808080" begin="arrowDown.mouseover" end="arrowDown.mouseout"/>
                  </use>
                  <path fill="none" stroke="white" stroke-width="1.5" d="M0,-3.0v7 M-2.5,-0.5L0,-3.0L2.5,-0.5"/>
                </g>
                <g id="arrowLeft" xlink:href="#dirArrow" transform="rotate(270) translate(-36 17)" onmousedown="handlePan(-1,0)">
                  <use xlink:href="#rim" fill="#404040">
                        <set attributeName="fill" to="#808080" begin="arrowLeft.mouseover" end="arrowLeft.mouseout"/>
                  </use>
                  <path fill="none" stroke="white" stroke-width="1.5" d="M0,-3.0v7 M-2.5,-0.5L0,-3.0L2.5,-0.5"/>
                </g>
        </g>
        <svg viewBox="0 0 15 15" width="100%" height="30px" preserveAspectRatio="xMaxYMin meet">
         <g id="arrow_out" transform="scale(0.3 0.3)">
          <a xlink:href="namespacemom__sum__output_a53d3dcd50cba41760dd8713228785a8d_cgraph_org.svg" target="_base">
           <rect id="button" ry="5" rx="5" y="6" x="6" height="38" width="38"
                fill="#f2f5e9" fill-opacity="0.5" stroke="#606060" stroke-width="1.0"/>
           <path id="arrow"
             d="M 11.500037,31.436501 C 11.940474,20.09759 22.043105,11.32322 32.158766,21.979434 L 37.068811,17.246167 C 37.068811,17.246167 37.088388,32 37.088388,32 L 22.160133,31.978069 C 22.160133,31.978069 26.997745,27.140456 26.997745,27.140456 C 18.528582,18.264221 13.291696,25.230495 11.500037,31.436501 z"
             style="fill:#404040;"/>
          </a>
         </g>
        </svg>
</svg>
