<?xml version="1.0" encoding="UTF-8" standalone="no"?>
<!DOCTYPE svg PUBLIC "-//W3C//DTD SVG 1.1//EN"
 "http://www.w3.org/Graphics/SVG/1.1/DTD/svg11.dtd">
<!-- Generated by graphviz version 2.40.1 (20161225.0304)
 -->
<!-- Title: mom_regridding::end_regridding Pages: 1 -->
<svg width="296pt" height="235pt"
 viewBox="0.00 0.00 296.00 235.00" xmlns="http://www.w3.org/2000/svg" xmlns:xlink="http://www.w3.org/1999/xlink">
<g id="graph0" class="graph" transform="scale(1 1) rotate(0) translate(4 231)">
<title>mom_regridding::end_regridding</title>
<polygon fill="#ffffff" stroke="transparent" points="-4,4 -4,-231 292,-231 292,4 -4,4"/>
<!-- Node1 -->
<g id="node1" class="node">
<title>Node1</title>
<g id="a_node1"><a xlink:title="Deallocation of regridding memory.">
<polygon fill="#bfbfbf" stroke="#000000" points="0,-98.5 0,-128.5 116,-128.5 116,-98.5 0,-98.5"/>
<text text-anchor="start" x="8" y="-116.5" font-family="Helvetica,sans-Serif" font-size="10.00" fill="#000000">mom_regridding::end</text>
<text text-anchor="middle" x="58" y="-105.5" font-family="Helvetica,sans-Serif" font-size="10.00" fill="#000000">_regridding</text>
</a>
</g>
</g>
<!-- Node2 -->
<g id="node2" class="node">
<title>Node2</title>
<g id="a_node2"><a xlink:href="namespacecoord__adapt.html#a92e88dea18cc4b3adef844f58a8fc0ff" target="_top" xlink:title="Clean up the coordinate control structure.">
<polygon fill="#ffffff" stroke="#000000" points="154,-196.5 154,-226.5 286,-226.5 286,-196.5 154,-196.5"/>
<text text-anchor="start" x="162" y="-214.5" font-family="Helvetica,sans-Serif" font-size="10.00" fill="#000000">coord_adapt::end_coord</text>
<text text-anchor="middle" x="220" y="-203.5" font-family="Helvetica,sans-Serif" font-size="10.00" fill="#000000">_adapt</text>
</a>
</g>
</g>
<!-- Node1&#45;&gt;Node2 -->
<g id="edge1" class="edge">
<title>Node1&#45;&gt;Node2</title>
<path fill="none" stroke="#191970" d="M73.8076,-128.6404C91.6056,-145.0121 121.9765,-170.977 152,-187.5 155.2047,-189.2637 158.5637,-190.9374 162.0001,-192.5187"/>
<polygon fill="#191970" stroke="#191970" points="160.6548,-195.7501 171.2239,-196.4871 163.4213,-189.3199 160.6548,-195.7501"/>
</g>
<!-- Node3 -->
<g id="node3" class="node">
<title>Node3</title>
<g id="a_node3"><a xlink:href="namespacecoord__hycom.html#a30900d0417dacf88c60419208a8818e4" target="_top" xlink:title="This subroutine deallocates memory in the control structure for the coord_hycom module.">
<polygon fill="#ffffff" stroke="#000000" points="152,-147.5 152,-177.5 288,-177.5 288,-147.5 152,-147.5"/>
<text text-anchor="start" x="160" y="-165.5" font-family="Helvetica,sans-Serif" font-size="10.00" fill="#000000">coord_hycom::end_coord</text>
<text text-anchor="middle" x="220" y="-154.5" font-family="Helvetica,sans-Serif" font-size="10.00" fill="#000000">_hycom</text>
</a>
</g>
</g>
<!-- Node1&#45;&gt;Node3 -->
<g id="edge2" class="edge">
<title>Node1&#45;&gt;Node3</title>
<path fill="none" stroke="#191970" d="M107.9272,-128.6014C124.4805,-133.6083 143.0746,-139.2324 160.288,-144.439"/>
<polygon fill="#191970" stroke="#191970" points="159.6526,-147.9033 170.2376,-147.4484 161.6792,-141.2031 159.6526,-147.9033"/>
</g>
<!-- Node4 -->
<g id="node4" class="node">
<title>Node4</title>
<g id="a_node4"><a xlink:href="namespacecoord__sigma.html#ac2489166e8a1e3e891b2e05df3b8d422" target="_top" xlink:title="This subroutine deallocates memory in the control structure for the coord_sigma module.">
<polygon fill="#ffffff" stroke="#000000" points="153.5,-98.5 153.5,-128.5 286.5,-128.5 286.5,-98.5 153.5,-98.5"/>
<text text-anchor="start" x="161.5" y="-116.5" font-family="Helvetica,sans-Serif" font-size="10.00" fill="#000000">coord_sigma::end_coord</text>
<text text-anchor="middle" x="220" y="-105.5" font-family="Helvetica,sans-Serif" font-size="10.00" fill="#000000">_sigma</text>
</a>
</g>
</g>
<!-- Node1&#45;&gt;Node4 -->
<g id="edge3" class="edge">
<title>Node1&#45;&gt;Node4</title>
<path fill="none" stroke="#191970" d="M116.0281,-113.5C124.8014,-113.5 133.9666,-113.5 143.0633,-113.5"/>
<polygon fill="#191970" stroke="#191970" points="143.2801,-117.0001 153.2801,-113.5 143.28,-110.0001 143.2801,-117.0001"/>
</g>
<!-- Node5 -->
<g id="node5" class="node">
<title>Node5</title>
<g id="a_node5"><a xlink:href="namespacecoord__slight.html#af5e8c8c13ad380620be3d8907738ed38" target="_top" xlink:title="This subroutine deallocates memory in the control structure for the coord_slight module.">
<polygon fill="#ffffff" stroke="#000000" points="155,-49.5 155,-79.5 285,-79.5 285,-49.5 155,-49.5"/>
<text text-anchor="start" x="163" y="-67.5" font-family="Helvetica,sans-Serif" font-size="10.00" fill="#000000">coord_slight::end_coord</text>
<text text-anchor="middle" x="220" y="-56.5" font-family="Helvetica,sans-Serif" font-size="10.00" fill="#000000">_slight</text>
</a>
</g>
</g>
<!-- Node1&#45;&gt;Node5 -->
<g id="edge4" class="edge">
<title>Node1&#45;&gt;Node5</title>
<path fill="none" stroke="#191970" d="M107.9272,-98.3986C124.4805,-93.3917 143.0746,-87.7676 160.288,-82.561"/>
<polygon fill="#191970" stroke="#191970" points="161.6792,-85.7969 170.2376,-79.5516 159.6526,-79.0967 161.6792,-85.7969"/>
</g>
<!-- Node6 -->
<g id="node6" class="node">
<title>Node6</title>
<g id="a_node6"><a xlink:href="namespacecoord__zlike.html#ad51a91fb635a0a5c29fa40bc2534f7b4" target="_top" xlink:title="Deallocates the zlike control structure.">
<polygon fill="#ffffff" stroke="#000000" points="157,-.5 157,-30.5 283,-30.5 283,-.5 157,-.5"/>
<text text-anchor="start" x="165" y="-18.5" font-family="Helvetica,sans-Serif" font-size="10.00" fill="#000000">coord_zlike::end_coord</text>
<text text-anchor="middle" x="220" y="-7.5" font-family="Helvetica,sans-Serif" font-size="10.00" fill="#000000">_zlike</text>
</a>
</g>
</g>
<!-- Node1&#45;&gt;Node6 -->
<g id="edge5" class="edge">
<title>Node1&#45;&gt;Node6</title>
<path fill="none" stroke="#191970" d="M74.2124,-98.3596C92.122,-82.2707 122.3647,-56.9334 152,-40.5 155.7125,-38.4413 159.6281,-36.4909 163.6285,-34.6561"/>
<polygon fill="#191970" stroke="#191970" points="165.2652,-37.7619 173.0616,-30.5878 162.4931,-31.3342 165.2652,-37.7619"/>
</g>
</g>
</svg>
