<?xml version="1.0" encoding="UTF-8" standalone="no"?>
<!DOCTYPE svg PUBLIC "-//W3C//DTD SVG 1.1//EN"
 "http://www.w3.org/Graphics/SVG/1.1/DTD/svg11.dtd">
<!-- Generated by graphviz version 2.40.1 (20161225.0304)
 -->
<!-- Title: user_shelf_init::user_init_ice_thickness Pages: 1 -->
<svg width="404pt" height="88pt"
 viewBox="0.00 0.00 404.00 88.00" xmlns="http://www.w3.org/2000/svg" xmlns:xlink="http://www.w3.org/1999/xlink">
<g id="graph0" class="graph" transform="scale(1 1) rotate(0) translate(4 84)">
<title>user_shelf_init::user_init_ice_thickness</title>
<polygon fill="#ffffff" stroke="transparent" points="-4,4 -4,-84 400,-84 400,4 -4,4"/>
<!-- Node1 -->
<g id="node1" class="node">
<title>Node1</title>
<g id="a_node1"><a xlink:title="This subroutine updates the ice shelf thickness, as specified by user&#45;provided code.">
<polygon fill="#bfbfbf" stroke="#000000" points="0,-24.5 0,-54.5 104,-54.5 104,-24.5 0,-24.5"/>
<text text-anchor="start" x="8" y="-42.5" font-family="Helvetica,sans-Serif" font-size="10.00" fill="#000000">user_shelf_init::user</text>
<text text-anchor="middle" x="52" y="-31.5" font-family="Helvetica,sans-Serif" font-size="10.00" fill="#000000">_init_ice_thickness</text>
</a>
</g>
</g>
<!-- Node2 -->
<g id="node2" class="node">
<title>Node2</title>
<g id="a_node2"><a xlink:href="namespaceuser__shelf__init.html#abfa7467860df5279c0c9f95d79cb51cf" target="_top" xlink:title="This subroutine sets up the initial mass and area covered by the ice shelf, based on user&#45;provided co...">
<polygon fill="#ffffff" stroke="#000000" points="140,-24.5 140,-54.5 253,-54.5 253,-24.5 140,-24.5"/>
<text text-anchor="start" x="148" y="-42.5" font-family="Helvetica,sans-Serif" font-size="10.00" fill="#000000">user_shelf_init::user</text>
<text text-anchor="middle" x="196.5" y="-31.5" font-family="Helvetica,sans-Serif" font-size="10.00" fill="#000000">_initialize_shelf_mass</text>
</a>
</g>
</g>
<!-- Node1&#45;&gt;Node2 -->
<g id="edge1" class="edge">
<title>Node1&#45;&gt;Node2</title>
<path fill="none" stroke="#191970" d="M104.1678,-39.5C112.3289,-39.5 120.8613,-39.5 129.3014,-39.5"/>
<polygon fill="#191970" stroke="#191970" points="129.5195,-43.0001 139.5194,-39.5 129.5194,-36.0001 129.5195,-43.0001"/>
</g>
<!-- Node3 -->
<g id="node3" class="node">
<title>Node3</title>
<g id="a_node3"><a xlink:href="namespaceuser__shelf__init.html#abd99438d24c4a57aa3fbab3b067a7c81" target="_top" xlink:title="This subroutine updates the ice shelf mass, as specified by user&#45;provided code.">
<polygon fill="#ffffff" stroke="#000000" points="289,-49.5 289,-79.5 396,-79.5 396,-49.5 289,-49.5"/>
<text text-anchor="start" x="297" y="-67.5" font-family="Helvetica,sans-Serif" font-size="10.00" fill="#000000">user_shelf_init::user</text>
<text text-anchor="middle" x="342.5" y="-56.5" font-family="Helvetica,sans-Serif" font-size="10.00" fill="#000000">_update_shelf_mass</text>
</a>
</g>
</g>
<!-- Node2&#45;&gt;Node3 -->
<g id="edge2" class="edge">
<title>Node2&#45;&gt;Node3</title>
<path fill="none" stroke="#191970" d="M253.3655,-49.2372C261.7675,-50.6759 270.4697,-52.166 278.9961,-53.626"/>
<polygon fill="#191970" stroke="#191970" points="278.4488,-57.0832 288.8961,-55.3213 279.6303,-50.1836 278.4488,-57.0832"/>
</g>
<!-- Node4 -->
<g id="node4" class="node">
<title>Node4</title>
<g id="a_node4"><a xlink:href="namespaceuser__shelf__init.html#a04dc4958214e8b07da385f8be785d706" target="_top" xlink:title="This subroutine writes out the user ice shelf code version number to the model log.">
<polygon fill="#ffffff" stroke="#000000" points="289,-.5 289,-30.5 396,-30.5 396,-.5 289,-.5"/>
<text text-anchor="start" x="297" y="-18.5" font-family="Helvetica,sans-Serif" font-size="10.00" fill="#000000">user_shelf_init::write</text>
<text text-anchor="middle" x="342.5" y="-7.5" font-family="Helvetica,sans-Serif" font-size="10.00" fill="#000000">_user_log</text>
</a>
</g>
</g>
<!-- Node2&#45;&gt;Node4 -->
<g id="edge3" class="edge">
<title>Node2&#45;&gt;Node4</title>
<path fill="none" stroke="#191970" d="M253.3655,-30.1523C261.7675,-28.7711 270.4697,-27.3406 278.9961,-25.939"/>
<polygon fill="#191970" stroke="#191970" points="279.5963,-29.3874 288.8961,-24.3116 278.4608,-22.4801 279.5963,-29.3874"/>
</g>
</g>
</svg>
