<?xml version="1.0" encoding="UTF-8" standalone="no"?>
<!DOCTYPE svg PUBLIC "-//W3C//DTD SVG 1.1//EN"
 "http://www.w3.org/Graphics/SVG/1.1/DTD/svg11.dtd">
<!-- Generated by graphviz version 2.40.1 (20161225.0304)
 -->
<!-- Title: mom_coriolisadv::coradcalc Pages: 1 -->
<svg width="474pt" height="78pt"
 viewBox="0.00 0.00 474.00 77.50" xmlns="http://www.w3.org/2000/svg" xmlns:xlink="http://www.w3.org/1999/xlink">
<g id="graph0" class="graph" transform="scale(1 1) rotate(0) translate(4 73.5)">
<title>mom_coriolisadv::coradcalc</title>
<polygon fill="#ffffff" stroke="transparent" points="-4,4 -4,-73.5 470,-73.5 470,4 -4,4"/>
<!-- Node1 -->
<g id="node1" class="node">
<title>Node1</title>
<g id="a_node1"><a xlink:title="Calculates the Coriolis and momentum advection contributions to the acceleration.">
<polygon fill="#bfbfbf" stroke="#000000" points="0,-28 0,-47 146,-47 146,-28 0,-28"/>
<text text-anchor="middle" x="73" y="-35" font-family="Helvetica,sans-Serif" font-size="10.00" fill="#000000">mom_coriolisadv::coradcalc</text>
</a>
</g>
</g>
<!-- Node2 -->
<g id="node2" class="node">
<title>Node2</title>
<g id="a_node2"><a xlink:href="namespacemom__coriolisadv.html#a8d9732ffd7debb051047934fe1551f97" target="_top" xlink:title="Calculates the acceleration due to the gradient of kinetic energy.">
<polygon fill="#ffffff" stroke="#000000" points="182,-50 182,-69 315,-69 315,-50 182,-50"/>
<text text-anchor="middle" x="248.5" y="-57" font-family="Helvetica,sans-Serif" font-size="10.00" fill="#000000">mom_coriolisadv::gradke</text>
</a>
</g>
</g>
<!-- Node1&#45;&gt;Node2 -->
<g id="edge1" class="edge">
<title>Node1&#45;&gt;Node2</title>
<path fill="none" stroke="#191970" d="M146.157,-46.6707C154.6747,-47.7384 163.3811,-48.8298 171.943,-49.9031"/>
<polygon fill="#191970" stroke="#191970" points="171.5499,-53.3811 181.9076,-51.1522 172.4206,-46.4355 171.5499,-53.3811"/>
</g>
<!-- Node3 -->
<g id="node3" class="node">
<title>Node3</title>
<g id="a_node3"><a xlink:href="namespacemom__error__handler.html#a460cfb79a06c29fc249952c2a3710d67" target="_top" xlink:title="This provides a convenient interface for writing an mpp_error message with run&#45;time filter based on a...">
<polygon fill="#ffffff" stroke="#000000" points="191,-.5 191,-30.5 306,-30.5 306,-.5 191,-.5"/>
<text text-anchor="start" x="199" y="-18.5" font-family="Helvetica,sans-Serif" font-size="10.00" fill="#000000">mom_error_handler::</text>
<text text-anchor="middle" x="248.5" y="-7.5" font-family="Helvetica,sans-Serif" font-size="10.00" fill="#000000">mom_error</text>
</a>
</g>
</g>
<!-- Node1&#45;&gt;Node3 -->
<g id="edge2" class="edge">
<title>Node1&#45;&gt;Node3</title>
<path fill="none" stroke="#191970" d="M146.157,-28.3293C157.6065,-26.8941 169.397,-25.416 180.7191,-23.9967"/>
<polygon fill="#191970" stroke="#191970" points="181.4751,-27.4295 190.9621,-22.7127 180.6044,-20.4838 181.4751,-27.4295"/>
</g>
<!-- Node4 -->
<g id="node4" class="node">
<title>Node4</title>
<g id="a_node4"><a xlink:href="namespacemom__error__handler.html#ad5f00a53059c72fe2332d1436c80ca71" target="_top" xlink:title="This returns .true. if the current PE is the root PE.">
<polygon fill="#ffffff" stroke="#000000" points="351,-.5 351,-30.5 466,-30.5 466,-.5 351,-.5"/>
<text text-anchor="start" x="359" y="-18.5" font-family="Helvetica,sans-Serif" font-size="10.00" fill="#000000">mom_error_handler::</text>
<text text-anchor="middle" x="408.5" y="-7.5" font-family="Helvetica,sans-Serif" font-size="10.00" fill="#000000">is_root_pe</text>
</a>
</g>
</g>
<!-- Node3&#45;&gt;Node4 -->
<g id="edge3" class="edge">
<title>Node3&#45;&gt;Node4</title>
<path fill="none" stroke="#191970" d="M306.2637,-15.5C317.3659,-15.5 329.0889,-15.5 340.4802,-15.5"/>
<polygon fill="#191970" stroke="#191970" points="340.8212,-19.0001 350.8211,-15.5 340.8211,-12.0001 340.8212,-19.0001"/>
</g>
</g>
</svg>
