<?xml version="1.0" encoding="UTF-8" standalone="no"?>
<!DOCTYPE svg PUBLIC "-//W3C//DTD SVG 1.1//EN"
 "http://www.w3.org/Graphics/SVG/1.1/DTD/svg11.dtd">
<!-- Generated by graphviz version 2.40.1 (20161225.0304)
 -->
<!-- Title: mom_diag_mediator::set_axes_info Pages: 1 -->
<svg width="782pt" height="137pt"
 viewBox="0.00 0.00 782.00 137.00" xmlns="http://www.w3.org/2000/svg" xmlns:xlink="http://www.w3.org/1999/xlink">
<g id="graph0" class="graph" transform="scale(1 1) rotate(0) translate(4 133)">
<title>mom_diag_mediator::set_axes_info</title>
<polygon fill="#ffffff" stroke="transparent" points="-4,4 -4,-133 778,-133 778,4 -4,4"/>
<!-- Node1 -->
<g id="node1" class="node">
<title>Node1</title>
<g id="a_node1"><a xlink:title="Sets up diagnostics axes.">
<polygon fill="#bfbfbf" stroke="#000000" points="0,-49.5 0,-79.5 117,-79.5 117,-49.5 0,-49.5"/>
<text text-anchor="start" x="8" y="-67.5" font-family="Helvetica,sans-Serif" font-size="10.00" fill="#000000">mom_diag_mediator::</text>
<text text-anchor="middle" x="58.5" y="-56.5" font-family="Helvetica,sans-Serif" font-size="10.00" fill="#000000">set_axes_info</text>
</a>
</g>
</g>
<!-- Node2 -->
<g id="node2" class="node">
<title>Node2</title>
<g id="a_node2"><a xlink:href="namespacemom__diag__mediator.html#ab9f767ec24a860cb71cae264560272a8" target="_top" xlink:title="Defines a group of &quot;axes&quot; from list of handles.">
<polygon fill="#ffffff" stroke="#000000" points="325,-98.5 325,-128.5 442,-128.5 442,-98.5 325,-98.5"/>
<text text-anchor="start" x="333" y="-116.5" font-family="Helvetica,sans-Serif" font-size="10.00" fill="#000000">mom_diag_mediator::</text>
<text text-anchor="middle" x="383.5" y="-105.5" font-family="Helvetica,sans-Serif" font-size="10.00" fill="#000000">define_axes_group</text>
</a>
</g>
</g>
<!-- Node1&#45;&gt;Node2 -->
<g id="edge1" class="edge">
<title>Node1&#45;&gt;Node2</title>
<path fill="none" stroke="#191970" d="M109.6714,-79.5825C123.6264,-83.2713 138.8111,-86.9007 153,-89.5 206.901,-99.3744 268.6922,-105.5352 314.7212,-109.1389"/>
<polygon fill="#191970" stroke="#191970" points="314.647,-112.6433 324.884,-109.9131 315.1788,-105.6635 314.647,-112.6433"/>
</g>
<!-- Node6 -->
<g id="node6" class="node">
<title>Node6</title>
<g id="a_node6"><a xlink:href="namespacemom__diag__mediator.html#a6f596247402f21fa60bfdf1e73c41044" target="_top" xlink:title="Allocates fields necessary to store diagnostic remapping fields.">
<polygon fill="#ffffff" stroke="#000000" points="153,-.5 153,-30.5 275,-30.5 275,-.5 153,-.5"/>
<text text-anchor="start" x="161" y="-18.5" font-family="Helvetica,sans-Serif" font-size="10.00" fill="#000000">mom_diag_mediator::</text>
<text text-anchor="middle" x="214" y="-7.5" font-family="Helvetica,sans-Serif" font-size="10.00" fill="#000000">diag_grid_storage_init</text>
</a>
</g>
</g>
<!-- Node1&#45;&gt;Node6 -->
<g id="edge5" class="edge">
<title>Node1&#45;&gt;Node6</title>
<path fill="none" stroke="#191970" d="M106.424,-49.3986C122.3131,-44.3917 140.1611,-38.7676 156.6839,-33.561"/>
<polygon fill="#191970" stroke="#191970" points="157.7485,-36.8953 166.2343,-30.5516 155.6447,-30.2189 157.7485,-36.8953"/>
</g>
<!-- Node7 -->
<g id="node7" class="node">
<title>Node7</title>
<g id="a_node7"><a xlink:href="namespacemom__diag__mediator.html#a1abcee77dbc8e8a48f4b48144fc0923c" target="_top" xlink:title=" ">
<polygon fill="#ffffff" stroke="#000000" points="154,-49.5 154,-79.5 274,-79.5 274,-49.5 154,-49.5"/>
<text text-anchor="start" x="162" y="-67.5" font-family="Helvetica,sans-Serif" font-size="10.00" fill="#000000">mom_diag_mediator::</text>
<text text-anchor="middle" x="214" y="-56.5" font-family="Helvetica,sans-Serif" font-size="10.00" fill="#000000">set_axes_info_dsamp</text>
</a>
</g>
</g>
<!-- Node1&#45;&gt;Node7 -->
<g id="edge6" class="edge">
<title>Node1&#45;&gt;Node7</title>
<path fill="none" stroke="#191970" d="M117.2879,-64.5C125.8804,-64.5 134.8019,-64.5 143.597,-64.5"/>
<polygon fill="#191970" stroke="#191970" points="143.8362,-68.0001 153.8362,-64.5 143.8361,-61.0001 143.8362,-68.0001"/>
</g>
<!-- Node3 -->
<g id="node3" class="node">
<title>Node3</title>
<g id="a_node3"><a xlink:href="namespacemom__diag__mediator.html#a82d9bb70db16b1113304936c82d40e82" target="_top" xlink:title="Convert the first n elements (up to 3) of an integer array to an underscore delimited string.">
<polygon fill="#ffffff" stroke="#000000" points="492,-101 492,-120 623,-120 623,-101 492,-101"/>
<text text-anchor="middle" x="557.5" y="-108" font-family="Helvetica,sans-Serif" font-size="10.00" fill="#000000">mom_diag_mediator::i2s</text>
</a>
</g>
</g>
<!-- Node2&#45;&gt;Node3 -->
<g id="edge2" class="edge">
<title>Node2&#45;&gt;Node3</title>
<path fill="none" stroke="#191970" d="M442.4085,-112.4843C454.9334,-112.2684 468.3285,-112.0374 481.3909,-111.8122"/>
<polygon fill="#191970" stroke="#191970" points="481.8342,-115.3052 491.7723,-111.6332 481.7134,-108.3062 481.8342,-115.3052"/>
</g>
<!-- Node4 -->
<g id="node4" class="node">
<title>Node4</title>
<g id="a_node4"><a xlink:href="namespacemom__error__handler.html#a460cfb79a06c29fc249952c2a3710d67" target="_top" xlink:title="This provides a convenient interface for writing an mpp_error message with run&#45;time filter based on a...">
<polygon fill="#ffffff" stroke="#000000" points="500,-49.5 500,-79.5 615,-79.5 615,-49.5 500,-49.5"/>
<text text-anchor="start" x="508" y="-67.5" font-family="Helvetica,sans-Serif" font-size="10.00" fill="#000000">mom_error_handler::</text>
<text text-anchor="middle" x="557.5" y="-56.5" font-family="Helvetica,sans-Serif" font-size="10.00" fill="#000000">mom_error</text>
</a>
</g>
</g>
<!-- Node2&#45;&gt;Node4 -->
<g id="edge3" class="edge">
<title>Node2&#45;&gt;Node4</title>
<path fill="none" stroke="#191970" d="M437.1255,-98.3986C455.2374,-93.2981 475.6238,-87.5571 494.4001,-82.2695"/>
<polygon fill="#191970" stroke="#191970" points="495.3747,-85.6313 504.0515,-79.5516 493.4772,-78.8933 495.3747,-85.6313"/>
</g>
<!-- Node5 -->
<g id="node5" class="node">
<title>Node5</title>
<g id="a_node5"><a xlink:href="namespacemom__error__handler.html#ad5f00a53059c72fe2332d1436c80ca71" target="_top" xlink:title="This returns .true. if the current PE is the root PE.">
<polygon fill="#ffffff" stroke="#000000" points="659,-49.5 659,-79.5 774,-79.5 774,-49.5 659,-49.5"/>
<text text-anchor="start" x="667" y="-67.5" font-family="Helvetica,sans-Serif" font-size="10.00" fill="#000000">mom_error_handler::</text>
<text text-anchor="middle" x="716.5" y="-56.5" font-family="Helvetica,sans-Serif" font-size="10.00" fill="#000000">is_root_pe</text>
</a>
</g>
</g>
<!-- Node4&#45;&gt;Node5 -->
<g id="edge4" class="edge">
<title>Node4&#45;&gt;Node5</title>
<path fill="none" stroke="#191970" d="M615.3524,-64.5C626.2296,-64.5 637.692,-64.5 648.8369,-64.5"/>
<polygon fill="#191970" stroke="#191970" points="648.9569,-68.0001 658.9569,-64.5 648.9568,-61.0001 648.9569,-68.0001"/>
</g>
<!-- Node7&#45;&gt;Node4 -->
<g id="edge10" class="edge">
<title>Node7&#45;&gt;Node4</title>
<path fill="none" stroke="#191970" d="M264.9152,-49.4443C279.6482,-45.76 295.8458,-42.3469 311,-40.5 374.9711,-32.7036 391.9894,-33.0352 456,-40.5 468.4887,-41.9564 481.67,-44.3885 494.2494,-47.1597"/>
<polygon fill="#191970" stroke="#191970" points="493.6542,-50.6141 504.184,-49.4428 495.222,-43.7919 493.6542,-50.6141"/>
</g>
<!-- Node8 -->
<g id="node8" class="node">
<title>Node8</title>
<g id="a_node8"><a xlink:href="namespacemom__diag__mediator.html#a51129041d5b42f6546c087111465f639" target="_top" xlink:title="Defines a group of downsampled &quot;axes&quot; from list of handles.">
<polygon fill="#ffffff" stroke="#000000" points="311,-49.5 311,-79.5 456,-79.5 456,-49.5 311,-49.5"/>
<text text-anchor="start" x="319" y="-67.5" font-family="Helvetica,sans-Serif" font-size="10.00" fill="#000000">mom_diag_mediator::</text>
<text text-anchor="middle" x="383.5" y="-56.5" font-family="Helvetica,sans-Serif" font-size="10.00" fill="#000000">define_axes_group_dsamp</text>
</a>
</g>
</g>
<!-- Node7&#45;&gt;Node8 -->
<g id="edge7" class="edge">
<title>Node7&#45;&gt;Node8</title>
<path fill="none" stroke="#191970" d="M274.2366,-64.5C282.8786,-64.5 291.8926,-64.5 300.8748,-64.5"/>
<polygon fill="#191970" stroke="#191970" points="300.981,-68.0001 310.981,-64.5 300.9809,-61.0001 300.981,-68.0001"/>
</g>
<!-- Node8&#45;&gt;Node3 -->
<g id="edge8" class="edge">
<title>Node8&#45;&gt;Node3</title>
<path fill="none" stroke="#191970" d="M440.4741,-79.5621C463.5945,-85.6744 489.9395,-92.6392 511.7715,-98.4108"/>
<polygon fill="#191970" stroke="#191970" points="510.8945,-101.7992 521.457,-100.9714 512.6837,-95.0317 510.8945,-101.7992"/>
</g>
<!-- Node8&#45;&gt;Node4 -->
<g id="edge9" class="edge">
<title>Node8&#45;&gt;Node4</title>
<path fill="none" stroke="#191970" d="M456.0317,-64.5C467.2406,-64.5 478.7791,-64.5 489.8746,-64.5"/>
<polygon fill="#191970" stroke="#191970" points="489.9178,-68.0001 499.9178,-64.5 489.9177,-61.0001 489.9178,-68.0001"/>
</g>
</g>
</svg>
