<?xml version="1.0" encoding="UTF-8" standalone="no"?>
<!DOCTYPE svg PUBLIC "-//W3C//DTD SVG 1.1//EN"
 "http://www.w3.org/Graphics/SVG/1.1/DTD/svg11.dtd">
<!-- Generated by graphviz version 2.40.1 (20161225.0304)
 -->
<!-- Title: mom_barotropic::uhbt_to_ubt Pages: 1 -->
<svg width="416pt" height="39pt"
 viewBox="0.00 0.00 416.00 39.00" xmlns="http://www.w3.org/2000/svg" xmlns:xlink="http://www.w3.org/1999/xlink">
<g id="graph0" class="graph" transform="scale(1 1) rotate(0) translate(4 35)">
<title>mom_barotropic::uhbt_to_ubt</title>
<polygon fill="#ffffff" stroke="transparent" points="-4,4 -4,-35 412,-35 412,4 -4,4"/>
<!-- Node1 -->
<g id="node1" class="node">
<title>Node1</title>
<g id="a_node1"><a xlink:title="This function inverts the transport function to determine the barotopic velocity that is consistent w...">
<polygon fill="#bfbfbf" stroke="#000000" points="297,-.5 297,-30.5 408,-30.5 408,-.5 297,-.5"/>
<text text-anchor="start" x="305" y="-18.5" font-family="Helvetica,sans-Serif" font-size="10.00" fill="#000000">mom_barotropic::uhbt</text>
<text text-anchor="middle" x="352.5" y="-7.5" font-family="Helvetica,sans-Serif" font-size="10.00" fill="#000000">_to_ubt</text>
</a>
</g>
</g>
<!-- Node2 -->
<g id="node2" class="node">
<title>Node2</title>
<g id="a_node2"><a xlink:href="namespacemom__barotropic.html#a0fefacdd93dd28f6346fb060b390e29e" target="_top" xlink:title="This subroutine sets up the private structure used to apply the open boundary conditions,...">
<polygon fill="#ffffff" stroke="#000000" points="155,-.5 155,-30.5 261,-30.5 261,-.5 155,-.5"/>
<text text-anchor="start" x="163" y="-18.5" font-family="Helvetica,sans-Serif" font-size="10.00" fill="#000000">mom_barotropic::set</text>
<text text-anchor="middle" x="208" y="-7.5" font-family="Helvetica,sans-Serif" font-size="10.00" fill="#000000">_up_bt_obc</text>
</a>
</g>
</g>
<!-- Node1&#45;&gt;Node2 -->
<g id="edge1" class="edge">
<title>Node1&#45;&gt;Node2</title>
<path fill="none" stroke="#191970" d="M286.4594,-15.5C278.0479,-15.5 269.5233,-15.5 261.3462,-15.5"/>
<polygon fill="#191970" stroke="#191970" points="286.6326,-19.0001 296.6325,-15.5 286.6325,-12.0001 286.6326,-19.0001"/>
</g>
<!-- Node3 -->
<g id="node3" class="node">
<title>Node3</title>
<g id="a_node3"><a xlink:href="namespacemom__barotropic.html#a1468df372a5d1dcb95e0b35d782895de" target="_top" xlink:title="This subroutine time steps the barotropic equations explicitly. For gravity waves,...">
<polygon fill="#ffffff" stroke="#000000" points="0,-6 0,-25 119,-25 119,-6 0,-6"/>
<text text-anchor="middle" x="59.5" y="-13" font-family="Helvetica,sans-Serif" font-size="10.00" fill="#000000">mom_barotropic::btstep</text>
</a>
</g>
</g>
<!-- Node2&#45;&gt;Node3 -->
<g id="edge2" class="edge">
<title>Node2&#45;&gt;Node3</title>
<path fill="none" stroke="#191970" d="M144.6198,-15.5C136.1647,-15.5 127.5174,-15.5 119.1293,-15.5"/>
<polygon fill="#191970" stroke="#191970" points="144.8076,-19.0001 154.8075,-15.5 144.8075,-12.0001 144.8076,-19.0001"/>
</g>
</g>
</svg>
