<?xml version="1.0" encoding="UTF-8" standalone="no"?>
<!DOCTYPE svg PUBLIC "-//W3C//DTD SVG 1.1//EN"
 "http://www.w3.org/Graphics/SVG/1.1/DTD/svg11.dtd">
<!-- Generated by graphviz version 2.40.1 (20161225.0304)
 -->
<!-- Title: mom_cap_mod::state_setscalar Pages: 1 -->
<svg width="484pt" height="39pt"
 viewBox="0.00 0.00 484.00 39.00" xmlns="http://www.w3.org/2000/svg" xmlns:xlink="http://www.w3.org/1999/xlink">
<g id="graph0" class="graph" transform="scale(1 1) rotate(0) translate(4 35)">
<title>mom_cap_mod::state_setscalar</title>
<polygon fill="#ffffff" stroke="transparent" points="-4,4 -4,-35 480,-35 480,4 -4,4"/>
<!-- Node1 -->
<g id="node1" class="node">
<title>Node1</title>
<g id="a_node1"><a xlink:title="Set scalar data from state for a particula name.">
<polygon fill="#bfbfbf" stroke="#000000" points="365,-.5 365,-30.5 476,-30.5 476,-.5 365,-.5"/>
<text text-anchor="start" x="373" y="-18.5" font-family="Helvetica,sans-Serif" font-size="10.00" fill="#000000">mom_cap_mod::state</text>
<text text-anchor="middle" x="420.5" y="-7.5" font-family="Helvetica,sans-Serif" font-size="10.00" fill="#000000">_setscalar</text>
</a>
</g>
</g>
<!-- Node2 -->
<g id="node2" class="node">
<title>Node2</title>
<g id="a_node2"><a xlink:href="namespacemom__cap__mod.html#a11baa4d10abcce4225eb074a2c23e398" target="_top" xlink:title="Called by NUOPC to realize import and export fields. &quot;Realizing&quot; a field means that its grid has been...">
<polygon fill="#ffffff" stroke="#000000" points="176,-6 176,-25 329,-25 329,-6 176,-6"/>
<text text-anchor="middle" x="252.5" y="-13" font-family="Helvetica,sans-Serif" font-size="10.00" fill="#000000">mom_cap_mod::initializerealize</text>
</a>
</g>
</g>
<!-- Node1&#45;&gt;Node2 -->
<g id="edge1" class="edge">
<title>Node1&#45;&gt;Node2</title>
<path fill="none" stroke="#191970" d="M354.5379,-15.5C346.2025,-15.5 337.6184,-15.5 329.1352,-15.5"/>
<polygon fill="#191970" stroke="#191970" points="354.5585,-19.0001 364.5584,-15.5 354.5584,-12.0001 354.5585,-19.0001"/>
</g>
<!-- Node3 -->
<g id="node3" class="node">
<title>Node3</title>
<g id="a_node3"><a xlink:href="namespacemom__cap__mod.html#ae0439afc4c901d9850515768bdaaed09" target="_top" xlink:title="NUOPC SetService method is the only public entry point. SetServices registers all of the user&#45;provide...">
<polygon fill="#ffffff" stroke="#000000" points="0,-6 0,-25 140,-25 140,-6 0,-6"/>
<text text-anchor="middle" x="70" y="-13" font-family="Helvetica,sans-Serif" font-size="10.00" fill="#000000">mom_cap_mod::setservices</text>
</a>
</g>
</g>
<!-- Node2&#45;&gt;Node3 -->
<g id="edge2" class="edge">
<title>Node2&#45;&gt;Node3</title>
<path fill="none" stroke="#191970" d="M165.7934,-15.5C157.1496,-15.5 148.4513,-15.5 140.0098,-15.5"/>
<polygon fill="#191970" stroke="#191970" points="165.8968,-19.0001 175.8968,-15.5 165.8968,-12.0001 165.8968,-19.0001"/>
</g>
</g>
</svg>
