<?xml version="1.0" encoding="UTF-8" standalone="no"?>
<!DOCTYPE svg PUBLIC "-//W3C//DTD SVG 1.1//EN"
 "http://www.w3.org/Graphics/SVG/1.1/DTD/svg11.dtd">
<!-- Generated by graphviz version 2.40.1 (20161225.0304)
 -->
<!-- Title: mom_cvmix_ddiff::compute_ddiff_coeffs Pages: 1 -->
<svg width="294pt" height="39pt"
 viewBox="0.00 0.00 294.00 39.00" xmlns="http://www.w3.org/2000/svg" xmlns:xlink="http://www.w3.org/1999/xlink">
<g id="graph0" class="graph" transform="scale(1 1) rotate(0) translate(4 35)">
<title>mom_cvmix_ddiff::compute_ddiff_coeffs</title>
<polygon fill="#ffffff" stroke="transparent" points="-4,4 -4,-35 290,-35 290,4 -4,4"/>
<!-- Node1 -->
<g id="node1" class="node">
<title>Node1</title>
<g id="a_node1"><a xlink:title="Subroutine for computing vertical diffusion coefficients for the double diffusion mixing parameteriza...">
<polygon fill="#bfbfbf" stroke="#000000" points="144,-.5 144,-30.5 286,-30.5 286,-.5 144,-.5"/>
<text text-anchor="start" x="152" y="-18.5" font-family="Helvetica,sans-Serif" font-size="10.00" fill="#000000">mom_cvmix_ddiff::compute</text>
<text text-anchor="middle" x="215" y="-7.5" font-family="Helvetica,sans-Serif" font-size="10.00" fill="#000000">_ddiff_coeffs</text>
</a>
</g>
</g>
<!-- Node2 -->
<g id="node2" class="node">
<title>Node2</title>
<g id="a_node2"><a xlink:href="namespacemom__set__diffusivity.html#ab1a9d6ee0a1fcd2bea69469fc4df3f3c" target="_top" xlink:title="Sets the interior vertical diffusion of scalars due to the following processes:">
<polygon fill="#ffffff" stroke="#000000" points="0,-.5 0,-30.5 108,-30.5 108,-.5 0,-.5"/>
<text text-anchor="start" x="8" y="-18.5" font-family="Helvetica,sans-Serif" font-size="10.00" fill="#000000">mom_set_diffusivity</text>
<text text-anchor="middle" x="54" y="-7.5" font-family="Helvetica,sans-Serif" font-size="10.00" fill="#000000">::set_diffusivity</text>
</a>
</g>
</g>
<!-- Node1&#45;&gt;Node2 -->
<g id="edge1" class="edge">
<title>Node1&#45;&gt;Node2</title>
<path fill="none" stroke="#191970" d="M133.7789,-15.5C125.1289,-15.5 116.49,-15.5 108.2618,-15.5"/>
<polygon fill="#191970" stroke="#191970" points="133.9144,-19.0001 143.9144,-15.5 133.9144,-12.0001 133.9144,-19.0001"/>
</g>
</g>
</svg>
