<?xml version="1.0" encoding="UTF-8" standalone="no"?>
<!DOCTYPE svg PUBLIC "-//W3C//DTD SVG 1.1//EN"
 "http://www.w3.org/Graphics/SVG/1.1/DTD/svg11.dtd">
<!-- Generated by graphviz version 2.40.1 (20161225.0304)
 -->
<!-- Title: mom_document::doc_param_logical_array Pages: 1 -->
<svg width="900pt" height="234pt"
 viewBox="0.00 0.00 900.00 234.20" xmlns="http://www.w3.org/2000/svg" xmlns:xlink="http://www.w3.org/1999/xlink">
<g id="graph0" class="graph" transform="scale(1 1) rotate(0) translate(4 230.1998)">
<title>mom_document::doc_param_logical_array</title>
<polygon fill="#ffffff" stroke="transparent" points="-4,4 -4,-230.1998 896,-230.1998 896,4 -4,4"/>
<!-- Node1 -->
<g id="node1" class="node">
<title>Node1</title>
<g id="a_node1"><a xlink:title="This subroutine handles parameter documentation for arrays of logicals.">
<polygon fill="#bfbfbf" stroke="#000000" points="0,-113.6998 0,-143.6998 140,-143.6998 140,-113.6998 0,-113.6998"/>
<text text-anchor="start" x="8" y="-131.6998" font-family="Helvetica,sans-Serif" font-size="10.00" fill="#000000">mom_document::doc_param</text>
<text text-anchor="middle" x="70" y="-120.6998" font-family="Helvetica,sans-Serif" font-size="10.00" fill="#000000">_logical_array</text>
</a>
</g>
</g>
<!-- Node2 -->
<g id="node2" class="node">
<title>Node2</title>
<g id="a_node2"><a xlink:href="namespacemom__document.html#aadc9c21a3f71a85107454b8080d6ec5c" target="_top" xlink:title="This function returns a string for formatted parameter assignment.">
<polygon fill="#ffffff" stroke="#000000" points="211.5,-195.6998 211.5,-225.6998 330.5,-225.6998 330.5,-195.6998 211.5,-195.6998"/>
<text text-anchor="start" x="219.5" y="-213.6998" font-family="Helvetica,sans-Serif" font-size="10.00" fill="#000000">mom_document::define</text>
<text text-anchor="middle" x="271" y="-202.6998" font-family="Helvetica,sans-Serif" font-size="10.00" fill="#000000">_string</text>
</a>
</g>
</g>
<!-- Node1&#45;&gt;Node2 -->
<g id="edge1" class="edge">
<title>Node1&#45;&gt;Node2</title>
<path fill="none" stroke="#191970" d="M97.8213,-143.7798C118.9035,-154.8527 148.7896,-169.8008 176,-180.6998 186.4313,-184.878 197.6866,-188.8676 208.6758,-192.4954"/>
<polygon fill="#191970" stroke="#191970" points="207.6453,-195.8405 218.2371,-195.5858 209.7983,-189.1798 207.6453,-195.8405"/>
</g>
<!-- Node3 -->
<g id="node3" class="node">
<title>Node3</title>
<g id="a_node3"><a xlink:href="namespacemom__error__handler.html#ad5f00a53059c72fe2332d1436c80ca71" target="_top" xlink:title="This returns .true. if the current PE is the root PE.">
<polygon fill="#ffffff" stroke="#000000" points="786,-75.6998 786,-105.6998 892,-105.6998 892,-75.6998 786,-75.6998"/>
<text text-anchor="start" x="794" y="-93.6998" font-family="Helvetica,sans-Serif" font-size="10.00" fill="#000000">mom_error_handler::</text>
<text text-anchor="middle" x="839" y="-82.6998" font-family="Helvetica,sans-Serif" font-size="10.00" fill="#000000">is_root_pe</text>
</a>
</g>
</g>
<!-- Node1&#45;&gt;Node3 -->
<g id="edge2" class="edge">
<title>Node1&#45;&gt;Node3</title>
<path fill="none" stroke="#191970" d="M140.0191,-139.0452C151.9993,-140.5005 164.34,-141.8035 176,-142.6998 367.4481,-157.4162 417.1651,-168.936 608,-147.6998 669.0043,-140.9112 737.0186,-122.7986 783.3508,-108.7955"/>
<polygon fill="#191970" stroke="#191970" points="784.6498,-112.0582 793.1881,-105.7855 782.6017,-105.3645 784.6498,-112.0582"/>
</g>
<!-- Node4 -->
<g id="node4" class="node">
<title>Node4</title>
<g id="a_node4"><a xlink:href="namespacemom__document.html#aa23ed2e58e74e88a71de374685ee11ec" target="_top" xlink:title="Returns true if documentation has already been written.">
<polygon fill="#ffffff" stroke="#000000" points="402,-119.1998 402,-138.1998 608,-138.1998 608,-119.1998 402,-119.1998"/>
<text text-anchor="middle" x="505" y="-126.1998" font-family="Helvetica,sans-Serif" font-size="10.00" fill="#000000">mom_document::mesghasbeendocumented</text>
</a>
</g>
</g>
<!-- Node1&#45;&gt;Node4 -->
<g id="edge3" class="edge">
<title>Node1&#45;&gt;Node4</title>
<path fill="none" stroke="#191970" d="M140.3737,-128.6998C208.2841,-128.6998 312.2187,-128.6998 391.7726,-128.6998"/>
<polygon fill="#191970" stroke="#191970" points="391.8416,-132.1999 401.8416,-128.6998 391.8416,-125.1999 391.8416,-132.1999"/>
</g>
<!-- Node6 -->
<g id="node6" class="node">
<title>Node6</title>
<g id="a_node6"><a xlink:href="namespacemom__document.html#aab976b6c6c9c01833438d217fca228a4" target="_top" xlink:title="This subroutine allocates and populates a structure that controls where the documentation occurs and ...">
<polygon fill="#ffffff" stroke="#000000" points="214.5,-69.6998 214.5,-99.6998 327.5,-99.6998 327.5,-69.6998 214.5,-69.6998"/>
<text text-anchor="start" x="222.5" y="-87.6998" font-family="Helvetica,sans-Serif" font-size="10.00" fill="#000000">mom_document::open</text>
<text text-anchor="middle" x="271" y="-76.6998" font-family="Helvetica,sans-Serif" font-size="10.00" fill="#000000">_doc_file</text>
</a>
</g>
</g>
<!-- Node1&#45;&gt;Node6 -->
<g id="edge6" class="edge">
<title>Node1&#45;&gt;Node6</title>
<path fill="none" stroke="#191970" d="M138.6106,-113.6805C159.9153,-109.0168 183.353,-103.8862 204.5107,-99.2547"/>
<polygon fill="#191970" stroke="#191970" points="205.3537,-102.6531 214.3739,-97.0956 203.8567,-95.815 205.3537,-102.6531"/>
</g>
<!-- Node8 -->
<g id="node8" class="node">
<title>Node8</title>
<g id="a_node8"><a xlink:href="namespacemom__document.html#a249e7992a57539508d07c71c6fcabaeb" target="_top" xlink:title="This subroutine writes out the message and description to the documetation files.">
<polygon fill="#ffffff" stroke="#000000" points="176,-31.1998 176,-50.1998 366,-50.1998 366,-31.1998 176,-31.1998"/>
<text text-anchor="middle" x="271" y="-38.1998" font-family="Helvetica,sans-Serif" font-size="10.00" fill="#000000">mom_document::writemessageanddesc</text>
</a>
</g>
</g>
<!-- Node1&#45;&gt;Node8 -->
<g id="edge11" class="edge">
<title>Node1&#45;&gt;Node8</title>
<path fill="none" stroke="#191970" d="M88.7474,-113.6481C109.067,-98.0867 143.0235,-74.2141 176,-60.6998 183.4841,-57.6327 191.5006,-55.0127 199.5869,-52.7799"/>
<polygon fill="#191970" stroke="#191970" points="200.6396,-56.1232 209.4539,-50.2445 198.8974,-49.3434 200.6396,-56.1232"/>
</g>
<!-- Node5 -->
<g id="node5" class="node">
<title>Node5</title>
<g id="a_node5"><a xlink:href="namespacemom__error__handler.html#a460cfb79a06c29fc249952c2a3710d67" target="_top" xlink:title="This provides a convenient interface for writing an mpp_error message with run&#45;time filter based on a...">
<polygon fill="#ffffff" stroke="#000000" points="644,-75.6998 644,-105.6998 750,-105.6998 750,-75.6998 644,-75.6998"/>
<text text-anchor="start" x="652" y="-93.6998" font-family="Helvetica,sans-Serif" font-size="10.00" fill="#000000">mom_error_handler::</text>
<text text-anchor="middle" x="697" y="-82.6998" font-family="Helvetica,sans-Serif" font-size="10.00" fill="#000000">mom_error</text>
</a>
</g>
</g>
<!-- Node4&#45;&gt;Node5 -->
<g id="edge4" class="edge">
<title>Node4&#45;&gt;Node5</title>
<path fill="none" stroke="#191970" d="M553.4497,-119.1108C577.8792,-114.2758 607.8049,-108.353 633.9988,-103.1688"/>
<polygon fill="#191970" stroke="#191970" points="634.7058,-106.5968 643.836,-101.2218 633.3467,-99.73 634.7058,-106.5968"/>
</g>
<!-- Node5&#45;&gt;Node3 -->
<g id="edge5" class="edge">
<title>Node5&#45;&gt;Node3</title>
<path fill="none" stroke="#191970" d="M750.2796,-90.6998C758.56,-90.6998 767.184,-90.6998 775.6606,-90.6998"/>
<polygon fill="#191970" stroke="#191970" points="775.8941,-94.1999 785.8941,-90.6998 775.8941,-87.1999 775.8941,-94.1999"/>
</g>
<!-- Node6&#45;&gt;Node3 -->
<g id="edge9" class="edge">
<title>Node6&#45;&gt;Node3</title>
<path fill="none" stroke="#191970" d="M327.7543,-75.1108C340.8615,-71.4702 354.3631,-66.4901 366,-59.6998 385.8168,-48.1364 380.8633,-31.625 402,-22.6998 540.0389,35.5886 721.5718,-34.5083 800.068,-71.1227"/>
<polygon fill="#191970" stroke="#191970" points="799.0276,-74.5028 809.5629,-75.6243 802.0264,-68.1777 799.0276,-74.5028"/>
</g>
<!-- Node6&#45;&gt;Node5 -->
<g id="edge10" class="edge">
<title>Node6&#45;&gt;Node5</title>
<path fill="none" stroke="#191970" d="M327.5695,-85.4965C406.9805,-86.615 551.0433,-88.6441 633.8556,-89.8104"/>
<polygon fill="#191970" stroke="#191970" points="633.8405,-93.3105 643.8889,-89.9517 633.9392,-86.3112 633.8405,-93.3105"/>
</g>
<!-- Node7 -->
<g id="node7" class="node">
<title>Node7</title>
<g id="a_node7"><a xlink:href="namespacemom__document.html#a5f2661445a72a7d0f774677e91366db5" target="_top" xlink:title="Find an unused unit number, returning &gt;0 if found, and triggering a FATAL error if not.">
<polygon fill="#ffffff" stroke="#000000" points="449,-31.6998 449,-61.6998 561,-61.6998 561,-31.6998 449,-31.6998"/>
<text text-anchor="start" x="457" y="-49.6998" font-family="Helvetica,sans-Serif" font-size="10.00" fill="#000000">mom_document::find</text>
<text text-anchor="middle" x="505" y="-38.6998" font-family="Helvetica,sans-Serif" font-size="10.00" fill="#000000">_unused_unit_number</text>
</a>
</g>
</g>
<!-- Node6&#45;&gt;Node7 -->
<g id="edge7" class="edge">
<title>Node6&#45;&gt;Node7</title>
<path fill="none" stroke="#191970" d="M327.6449,-75.501C361.1301,-70.0633 403.698,-63.1505 438.7366,-57.4605"/>
<polygon fill="#191970" stroke="#191970" points="439.5671,-60.8716 448.8768,-55.8138 438.445,-53.9621 439.5671,-60.8716"/>
</g>
<!-- Node7&#45;&gt;Node5 -->
<g id="edge8" class="edge">
<title>Node7&#45;&gt;Node5</title>
<path fill="none" stroke="#191970" d="M561.0505,-59.5447C583.9072,-64.7827 610.4413,-70.8634 633.9684,-76.2551"/>
<polygon fill="#191970" stroke="#191970" points="633.3187,-79.6968 643.8479,-78.5191 634.8824,-72.8737 633.3187,-79.6968"/>
</g>
</g>
</svg>
