<?xml version="1.0" encoding="UTF-8" standalone="no"?>
<!DOCTYPE svg PUBLIC "-//W3C//DTD SVG 1.1//EN"
 "http://www.w3.org/Graphics/SVG/1.1/DTD/svg11.dtd">
<!-- Generated by graphviz version 2.40.1 (20161225.0304)
 -->
<!-- Title: mom_bkgnd_mixing::bkgnd_mixing_init Pages: 1 -->
<svg width="631pt" height="61pt"
 viewBox="0.00 0.00 631.00 61.00" xmlns="http://www.w3.org/2000/svg" xmlns:xlink="http://www.w3.org/1999/xlink">
<g id="graph0" class="graph" transform="scale(1 1) rotate(0) translate(4 57)">
<title>mom_bkgnd_mixing::bkgnd_mixing_init</title>
<polygon fill="#ffffff" stroke="transparent" points="-4,4 -4,-57 627,-57 627,4 -4,4"/>
<!-- Node1 -->
<g id="node1" class="node">
<title>Node1</title>
<g id="a_node1"><a xlink:title="Initialize the background mixing routine.">
<polygon fill="#bfbfbf" stroke="#000000" points="0,-.5 0,-30.5 143,-30.5 143,-.5 0,-.5"/>
<text text-anchor="start" x="8" y="-18.5" font-family="Helvetica,sans-Serif" font-size="10.00" fill="#000000">mom_bkgnd_mixing::bkgnd</text>
<text text-anchor="middle" x="71.5" y="-7.5" font-family="Helvetica,sans-Serif" font-size="10.00" fill="#000000">_mixing_init</text>
</a>
</g>
</g>
<!-- Node2 -->
<g id="node2" class="node">
<title>Node2</title>
<g id="a_node2"><a xlink:href="namespacemom__bkgnd__mixing.html#a829d5b6f715c06b6566a49271d4a7217" target="_top" xlink:title="Sets CSbkgnd_scheme_str to check whether multiple background diffusivity schemes are activated....">
<polygon fill="#ffffff" stroke="#000000" points="179,-22.5 179,-52.5 321,-52.5 321,-22.5 179,-22.5"/>
<text text-anchor="start" x="187" y="-40.5" font-family="Helvetica,sans-Serif" font-size="10.00" fill="#000000">mom_bkgnd_mixing::check</text>
<text text-anchor="middle" x="250" y="-29.5" font-family="Helvetica,sans-Serif" font-size="10.00" fill="#000000">_bkgnd_scheme</text>
</a>
</g>
</g>
<!-- Node1&#45;&gt;Node2 -->
<g id="edge1" class="edge">
<title>Node1&#45;&gt;Node2</title>
<path fill="none" stroke="#191970" d="M143.0743,-24.3215C151.5793,-25.3697 160.3074,-26.4454 168.9327,-27.5085"/>
<polygon fill="#191970" stroke="#191970" points="168.6382,-30.9986 178.9913,-28.7482 169.4946,-24.0512 168.6382,-30.9986"/>
</g>
<!-- Node3 -->
<g id="node3" class="node">
<title>Node3</title>
<g id="a_node3"><a xlink:href="namespacemom__error__handler.html#a460cfb79a06c29fc249952c2a3710d67" target="_top" xlink:title="This provides a convenient interface for writing an mpp_error message with run&#45;time filter based on a...">
<polygon fill="#ffffff" stroke="#000000" points="357,-.5 357,-30.5 472,-30.5 472,-.5 357,-.5"/>
<text text-anchor="start" x="365" y="-18.5" font-family="Helvetica,sans-Serif" font-size="10.00" fill="#000000">mom_error_handler::</text>
<text text-anchor="middle" x="414.5" y="-7.5" font-family="Helvetica,sans-Serif" font-size="10.00" fill="#000000">mom_error</text>
</a>
</g>
</g>
<!-- Node1&#45;&gt;Node3 -->
<g id="edge4" class="edge">
<title>Node1&#45;&gt;Node3</title>
<path fill="none" stroke="#191970" d="M143.2001,-13.9806C155.1548,-13.7805 167.4273,-13.6076 179,-13.5 242.1084,-12.913 257.8925,-12.8251 321,-13.5 329.2851,-13.5886 337.9825,-13.7214 346.5986,-13.8771"/>
<polygon fill="#191970" stroke="#191970" points="346.581,-17.3773 356.6462,-14.0693 346.715,-10.3786 346.581,-17.3773"/>
</g>
<!-- Node2&#45;&gt;Node3 -->
<g id="edge2" class="edge">
<title>Node2&#45;&gt;Node3</title>
<path fill="none" stroke="#191970" d="M321.1954,-27.9784C329.6527,-26.8474 338.2688,-25.6951 346.6773,-24.5705"/>
<polygon fill="#191970" stroke="#191970" points="347.3583,-28.0107 356.8061,-23.2159 346.4304,-21.0725 347.3583,-28.0107"/>
</g>
<!-- Node4 -->
<g id="node4" class="node">
<title>Node4</title>
<g id="a_node4"><a xlink:href="namespacemom__error__handler.html#ad5f00a53059c72fe2332d1436c80ca71" target="_top" xlink:title="This returns .true. if the current PE is the root PE.">
<polygon fill="#ffffff" stroke="#000000" points="508,-.5 508,-30.5 623,-30.5 623,-.5 508,-.5"/>
<text text-anchor="start" x="516" y="-18.5" font-family="Helvetica,sans-Serif" font-size="10.00" fill="#000000">mom_error_handler::</text>
<text text-anchor="middle" x="565.5" y="-7.5" font-family="Helvetica,sans-Serif" font-size="10.00" fill="#000000">is_root_pe</text>
</a>
</g>
</g>
<!-- Node3&#45;&gt;Node4 -->
<g id="edge3" class="edge">
<title>Node3&#45;&gt;Node4</title>
<path fill="none" stroke="#191970" d="M472.0174,-15.5C480.4639,-15.5 489.2292,-15.5 497.8561,-15.5"/>
<polygon fill="#191970" stroke="#191970" points="497.8926,-19.0001 507.8925,-15.5 497.8925,-12.0001 497.8926,-19.0001"/>
</g>
</g>
</svg>
