<?xml version="1.0" encoding="UTF-8" standalone="no"?>
<!DOCTYPE svg PUBLIC "-//W3C//DTD SVG 1.1//EN"
 "http://www.w3.org/Graphics/SVG/1.1/DTD/svg11.dtd">
<!-- Generated by graphviz version 2.40.1 (20161225.0304)
 -->
<!-- Title: mom_grid::get_global_grid_size Pages: 1 -->
<svg width="510pt" height="104pt"
 viewBox="0.00 0.00 510.00 104.00" xmlns="http://www.w3.org/2000/svg" xmlns:xlink="http://www.w3.org/1999/xlink">
<g id="graph0" class="graph" transform="scale(1 1) rotate(0) translate(4 100)">
<title>mom_grid::get_global_grid_size</title>
<polygon fill="#ffffff" stroke="transparent" points="-4,4 -4,-100 506,-100 506,4 -4,4"/>
<!-- Node1 -->
<g id="node1" class="node">
<title>Node1</title>
<g id="a_node1"><a xlink:title="Return global shape of horizontal grid.">
<polygon fill="#bfbfbf" stroke="#000000" points="392,-33 392,-63 502,-63 502,-33 392,-33"/>
<text text-anchor="start" x="400" y="-51" font-family="Helvetica,sans-Serif" font-size="10.00" fill="#000000">mom_grid::get_global</text>
<text text-anchor="middle" x="447" y="-40" font-family="Helvetica,sans-Serif" font-size="10.00" fill="#000000">_grid_size</text>
</a>
</g>
</g>
<!-- Node2 -->
<g id="node2" class="node">
<title>Node2</title>
<g id="a_node2"><a xlink:href="namespacemom__cap__mod.html#a11baa4d10abcce4225eb074a2c23e398" target="_top" xlink:title="Called by NUOPC to realize import and export fields. &quot;Realizing&quot; a field means that its grid has been...">
<polygon fill="#ffffff" stroke="#000000" points="192,-76.5 192,-95.5 345,-95.5 345,-76.5 192,-76.5"/>
<text text-anchor="middle" x="268.5" y="-83.5" font-family="Helvetica,sans-Serif" font-size="10.00" fill="#000000">mom_cap_mod::initializerealize</text>
</a>
</g>
</g>
<!-- Node1&#45;&gt;Node2 -->
<g id="edge1" class="edge">
<title>Node1&#45;&gt;Node2</title>
<path fill="none" stroke="#191970" d="M382.0088,-61.8357C359.1424,-66.7036 333.977,-72.0609 313.1644,-76.4916"/>
<polygon fill="#191970" stroke="#191970" points="382.9356,-65.2169 391.9876,-59.7113 381.478,-58.3703 382.9356,-65.2169"/>
</g>
<!-- Node4 -->
<g id="node4" class="node">
<title>Node4</title>
<g id="a_node4"><a xlink:href="namespaceocn__comp__mct.html#adfe794cbbae40df4bdb9fcec95d4ff9c" target="_top" xlink:title="This subroutine initializes MOM6.">
<polygon fill="#ffffff" stroke="#000000" points="0,-19.5 0,-38.5 145,-38.5 145,-19.5 0,-19.5"/>
<text text-anchor="middle" x="72.5" y="-26.5" font-family="Helvetica,sans-Serif" font-size="10.00" fill="#000000">ocn_comp_mct::ocn_init_mct</text>
</a>
</g>
</g>
<!-- Node1&#45;&gt;Node4 -->
<g id="edge3" class="edge">
<title>Node1&#45;&gt;Node4</title>
<path fill="none" stroke="#191970" d="M381.4482,-44.6743C315.3386,-41.3202 213.5245,-36.1548 145.0299,-32.6798"/>
<polygon fill="#191970" stroke="#191970" points="381.5767,-48.1852 391.7412,-45.1965 381.9315,-41.1942 381.5767,-48.1852"/>
</g>
<!-- Node5 -->
<g id="node5" class="node">
<title>Node5</title>
<g id="a_node5"><a xlink:href="namespaceocn__comp__mct.html#a0e04efafcf563e7c1565dddaabd0dc6b" target="_top" xlink:title="Sets mct global segment maps for the MOM decomposition.">
<polygon fill="#ffffff" stroke="#000000" points="181,-.5 181,-19.5 356,-19.5 356,-.5 181,-.5"/>
<text text-anchor="middle" x="268.5" y="-7.5" font-family="Helvetica,sans-Serif" font-size="10.00" fill="#000000">ocn_comp_mct::ocn_setgsmap_mct</text>
</a>
</g>
</g>
<!-- Node1&#45;&gt;Node5 -->
<g id="edge4" class="edge">
<title>Node1&#45;&gt;Node5</title>
<path fill="none" stroke="#191970" d="M382.0088,-34.1643C359.1424,-29.2964 333.977,-23.9391 313.1644,-19.5084"/>
<polygon fill="#191970" stroke="#191970" points="381.478,-37.6297 391.9876,-36.2887 382.9356,-30.7831 381.478,-37.6297"/>
</g>
<!-- Node3 -->
<g id="node3" class="node">
<title>Node3</title>
<g id="a_node3"><a xlink:href="namespacemom__cap__mod.html#ae0439afc4c901d9850515768bdaaed09" target="_top" xlink:title="NUOPC SetService method is the only public entry point. SetServices registers all of the user&#45;provide...">
<polygon fill="#ffffff" stroke="#000000" points="2.5,-76.5 2.5,-95.5 142.5,-95.5 142.5,-76.5 2.5,-76.5"/>
<text text-anchor="middle" x="72.5" y="-83.5" font-family="Helvetica,sans-Serif" font-size="10.00" fill="#000000">mom_cap_mod::setservices</text>
</a>
</g>
</g>
<!-- Node2&#45;&gt;Node3 -->
<g id="edge2" class="edge">
<title>Node2&#45;&gt;Node3</title>
<path fill="none" stroke="#191970" d="M181.5279,-86C168.5286,-86 155.267,-86 142.6739,-86"/>
<polygon fill="#191970" stroke="#191970" points="181.8792,-89.5001 191.8792,-86 181.8792,-82.5001 181.8792,-89.5001"/>
</g>
<!-- Node5&#45;&gt;Node4 -->
<g id="edge5" class="edge">
<title>Node5&#45;&gt;Node4</title>
<path fill="none" stroke="#191970" d="M170.724,-19.4783C162.1101,-20.3133 153.4939,-21.1486 145.1416,-21.9582"/>
<polygon fill="#191970" stroke="#191970" points="171.2033,-22.9483 180.8189,-18.4997 170.5278,-15.981 171.2033,-22.9483"/>
</g>
</g>
</svg>
