<?xml version="1.0" encoding="UTF-8" standalone="no"?>
<!DOCTYPE svg PUBLIC "-//W3C//DTD SVG 1.1//EN"
 "http://www.w3.org/Graphics/SVG/1.1/DTD/svg11.dtd">
<!-- Generated by graphviz version 2.40.1 (20161225.0304)
 -->
<!-- Title: mom_debugging::check_redundant_st3d Pages: 1 -->
<svg width="284pt" height="39pt"
 viewBox="0.00 0.00 284.00 39.00" xmlns="http://www.w3.org/2000/svg" xmlns:xlink="http://www.w3.org/1999/xlink">
<g id="graph0" class="graph" transform="scale(1 1) rotate(0) translate(4 35)">
<title>mom_debugging::check_redundant_st3d</title>
<polygon fill="#ffffff" stroke="transparent" points="-4,4 -4,-35 280,-35 280,4 -4,4"/>
<!-- Node1 -->
<g id="node1" class="node">
<title>Node1</title>
<g id="a_node1"><a xlink:title="Check for consistency between the duplicated points of a 3&#45;D scalar at tracer points.">
<polygon fill="#bfbfbf" stroke="#000000" points="0,-.5 0,-30.5 120,-30.5 120,-.5 0,-.5"/>
<text text-anchor="start" x="8" y="-18.5" font-family="Helvetica,sans-Serif" font-size="10.00" fill="#000000">mom_debugging::check</text>
<text text-anchor="middle" x="60" y="-7.5" font-family="Helvetica,sans-Serif" font-size="10.00" fill="#000000">_redundant_st3d</text>
</a>
</g>
</g>
<!-- Node2 -->
<g id="node2" class="node">
<title>Node2</title>
<g id="a_node2"><a xlink:href="namespacemom__debugging.html#a0bd233b19527a7e2cd2e345488ad90a8" target="_top" xlink:title="Check for consistency between the duplicated points of a 2&#45;D scalar at tracer points.">
<polygon fill="#ffffff" stroke="#000000" points="156,-.5 156,-30.5 276,-30.5 276,-.5 156,-.5"/>
<text text-anchor="start" x="164" y="-18.5" font-family="Helvetica,sans-Serif" font-size="10.00" fill="#000000">mom_debugging::check</text>
<text text-anchor="middle" x="216" y="-7.5" font-family="Helvetica,sans-Serif" font-size="10.00" fill="#000000">_redundant_st2d</text>
</a>
</g>
</g>
<!-- Node1&#45;&gt;Node2 -->
<g id="edge1" class="edge">
<title>Node1&#45;&gt;Node2</title>
<path fill="none" stroke="#191970" d="M120.3137,-15.5C128.6036,-15.5 137.1748,-15.5 145.6255,-15.5"/>
<polygon fill="#191970" stroke="#191970" points="145.8468,-19.0001 155.8467,-15.5 145.8467,-12.0001 145.8468,-19.0001"/>
</g>
</g>
</svg>
