<?xml version="1.0" encoding="UTF-8" standalone="no"?>
<!DOCTYPE svg PUBLIC "-//W3C//DTD SVG 1.1//EN"
 "http://www.w3.org/Graphics/SVG/1.1/DTD/svg11.dtd">
<!-- Generated by graphviz version 2.40.1 (20161225.0304)
 -->
<!-- Title: mom_regularize_layers::regularize_surface Pages: 1 -->
<svg width="447pt" height="88pt"
 viewBox="0.00 0.00 447.00 88.00" xmlns="http://www.w3.org/2000/svg" xmlns:xlink="http://www.w3.org/1999/xlink">
<g id="graph0" class="graph" transform="scale(1 1) rotate(0) translate(4 84)">
<title>mom_regularize_layers::regularize_surface</title>
<polygon fill="#ffffff" stroke="transparent" points="-4,4 -4,-84 443,-84 443,4 -4,4"/>
<!-- Node1 -->
<g id="node1" class="node">
<title>Node1</title>
<g id="a_node1"><a xlink:title="This subroutine ensures that there is a degree of horizontal smoothness in the depths of the near&#45;sur...">
<polygon fill="#bfbfbf" stroke="#000000" points="0,-24.5 0,-54.5 126,-54.5 126,-24.5 0,-24.5"/>
<text text-anchor="start" x="8" y="-42.5" font-family="Helvetica,sans-Serif" font-size="10.00" fill="#000000">mom_regularize_layers</text>
<text text-anchor="middle" x="63" y="-31.5" font-family="Helvetica,sans-Serif" font-size="10.00" fill="#000000">::regularize_surface</text>
</a>
</g>
</g>
<!-- Node2 -->
<g id="node2" class="node">
<title>Node2</title>
<g id="a_node2"><a xlink:href="namespacemom__regularize__layers.html#a4ba20ced31449e07aa640de2b71c0be8" target="_top" xlink:title="This subroutine determines the amount by which the harmonic mean thickness at velocity points differ ...">
<polygon fill="#ffffff" stroke="#000000" points="162,-49.5 162,-79.5 288,-79.5 288,-49.5 162,-49.5"/>
<text text-anchor="start" x="170" y="-67.5" font-family="Helvetica,sans-Serif" font-size="10.00" fill="#000000">mom_regularize_layers</text>
<text text-anchor="middle" x="225" y="-56.5" font-family="Helvetica,sans-Serif" font-size="10.00" fill="#000000">::find_deficit_ratios</text>
</a>
</g>
</g>
<!-- Node1&#45;&gt;Node2 -->
<g id="edge1" class="edge">
<title>Node1&#45;&gt;Node2</title>
<path fill="none" stroke="#191970" d="M126.0973,-49.2372C134.5261,-50.538 143.2273,-51.8807 151.8103,-53.2053"/>
<polygon fill="#191970" stroke="#191970" points="151.3916,-56.682 161.8084,-54.7482 152.4592,-49.7639 151.3916,-56.682"/>
</g>
<!-- Node3 -->
<g id="node3" class="node">
<title>Node3</title>
<g id="a_node3"><a xlink:href="namespacemom__error__handler.html#a460cfb79a06c29fc249952c2a3710d67" target="_top" xlink:title="This provides a convenient interface for writing an mpp_error message with run&#45;time filter based on a...">
<polygon fill="#ffffff" stroke="#000000" points="167.5,-.5 167.5,-30.5 282.5,-30.5 282.5,-.5 167.5,-.5"/>
<text text-anchor="start" x="175.5" y="-18.5" font-family="Helvetica,sans-Serif" font-size="10.00" fill="#000000">mom_error_handler::</text>
<text text-anchor="middle" x="225" y="-7.5" font-family="Helvetica,sans-Serif" font-size="10.00" fill="#000000">mom_error</text>
</a>
</g>
</g>
<!-- Node1&#45;&gt;Node3 -->
<g id="edge2" class="edge">
<title>Node1&#45;&gt;Node3</title>
<path fill="none" stroke="#191970" d="M126.0973,-30.1523C136.2919,-28.6419 146.8847,-27.0726 157.1852,-25.5466"/>
<polygon fill="#191970" stroke="#191970" points="157.9836,-28.9666 167.3627,-24.0389 156.9577,-22.0422 157.9836,-28.9666"/>
</g>
<!-- Node4 -->
<g id="node4" class="node">
<title>Node4</title>
<g id="a_node4"><a xlink:href="namespacemom__error__handler.html#ad5f00a53059c72fe2332d1436c80ca71" target="_top" xlink:title="This returns .true. if the current PE is the root PE.">
<polygon fill="#ffffff" stroke="#000000" points="324,-.5 324,-30.5 439,-30.5 439,-.5 324,-.5"/>
<text text-anchor="start" x="332" y="-18.5" font-family="Helvetica,sans-Serif" font-size="10.00" fill="#000000">mom_error_handler::</text>
<text text-anchor="middle" x="381.5" y="-7.5" font-family="Helvetica,sans-Serif" font-size="10.00" fill="#000000">is_root_pe</text>
</a>
</g>
</g>
<!-- Node3&#45;&gt;Node4 -->
<g id="edge3" class="edge">
<title>Node3&#45;&gt;Node4</title>
<path fill="none" stroke="#191970" d="M282.8302,-15.5C292.887,-15.5 303.4277,-15.5 313.7222,-15.5"/>
<polygon fill="#191970" stroke="#191970" points="313.9075,-19.0001 323.9075,-15.5 313.9075,-12.0001 313.9075,-19.0001"/>
</g>
</g>
</svg>
