<?xml version="1.0" encoding="UTF-8" standalone="no"?>
<!DOCTYPE svg PUBLIC "-//W3C//DTD SVG 1.1//EN"
 "http://www.w3.org/Graphics/SVG/1.1/DTD/svg11.dtd">
<!-- Generated by graphviz version 2.40.1 (20161225.0304)
 -->
<!-- Title: dyed_obcs_initialization::dyed_obcs_set_obc_data Pages: 1 -->
<svg width="476pt" height="88pt"
 viewBox="0.00 0.00 476.00 88.00" xmlns="http://www.w3.org/2000/svg" xmlns:xlink="http://www.w3.org/1999/xlink">
<g id="graph0" class="graph" transform="scale(1 1) rotate(0) translate(4 84)">
<title>dyed_obcs_initialization::dyed_obcs_set_obc_data</title>
<polygon fill="#ffffff" stroke="transparent" points="-4,4 -4,-84 472,-84 472,4 -4,4"/>
<!-- Node1 -->
<g id="node1" class="node">
<title>Node1</title>
<g id="a_node1"><a xlink:title="This subroutine sets the dye properties at open boundary conditions.">
<polygon fill="#bfbfbf" stroke="#000000" points="0,-24.5 0,-54.5 134,-54.5 134,-24.5 0,-24.5"/>
<text text-anchor="start" x="8" y="-42.5" font-family="Helvetica,sans-Serif" font-size="10.00" fill="#000000">dyed_obcs_initialization</text>
<text text-anchor="middle" x="67" y="-31.5" font-family="Helvetica,sans-Serif" font-size="10.00" fill="#000000">::dyed_obcs_set_obc_data</text>
</a>
</g>
</g>
<!-- Node2 -->
<g id="node2" class="node">
<title>Node2</title>
<g id="a_node2"><a xlink:href="namespacemom__error__handler.html#a460cfb79a06c29fc249952c2a3710d67" target="_top" xlink:title="This provides a convenient interface for writing an mpp_error message with run&#45;time filter based on a...">
<polygon fill="#ffffff" stroke="#000000" points="178,-49.5 178,-79.5 284,-79.5 284,-49.5 178,-49.5"/>
<text text-anchor="start" x="186" y="-67.5" font-family="Helvetica,sans-Serif" font-size="10.00" fill="#000000">mom_error_handler::</text>
<text text-anchor="middle" x="231" y="-56.5" font-family="Helvetica,sans-Serif" font-size="10.00" fill="#000000">mom_error</text>
</a>
</g>
</g>
<!-- Node1&#45;&gt;Node2 -->
<g id="edge1" class="edge">
<title>Node1&#45;&gt;Node2</title>
<path fill="none" stroke="#191970" d="M134.1783,-49.7406C145.3531,-51.4441 156.9078,-53.2055 167.9746,-54.8925"/>
<polygon fill="#191970" stroke="#191970" points="167.5627,-58.37 177.976,-56.4171 168.6176,-51.45 167.5627,-58.37"/>
</g>
<!-- Node4 -->
<g id="node4" class="node">
<title>Node4</title>
<g id="a_node4"><a xlink:href="namespacemom__open__boundary.html#a5d5843dd1a4e1475f69b5eb2c5b0197d" target="_top" xlink:title=" ">
<polygon fill="#ffffff" stroke="#000000" points="170,-.5 170,-30.5 292,-30.5 292,-.5 170,-.5"/>
<text text-anchor="start" x="178" y="-18.5" font-family="Helvetica,sans-Serif" font-size="10.00" fill="#000000">mom_open_boundary::</text>
<text text-anchor="middle" x="231" y="-7.5" font-family="Helvetica,sans-Serif" font-size="10.00" fill="#000000">register_segment_tracer</text>
</a>
</g>
</g>
<!-- Node1&#45;&gt;Node4 -->
<g id="edge3" class="edge">
<title>Node1&#45;&gt;Node4</title>
<path fill="none" stroke="#191970" d="M134.1783,-29.669C142.6979,-28.4223 151.4384,-27.1432 160.0152,-25.888"/>
<polygon fill="#191970" stroke="#191970" points="160.5975,-29.3402 169.9853,-24.429 159.5838,-22.4139 160.5975,-29.3402"/>
</g>
<!-- Node3 -->
<g id="node3" class="node">
<title>Node3</title>
<g id="a_node3"><a xlink:href="namespacemom__error__handler.html#ad5f00a53059c72fe2332d1436c80ca71" target="_top" xlink:title="This returns .true. if the current PE is the root PE.">
<polygon fill="#ffffff" stroke="#000000" points="345,-49.5 345,-79.5 451,-79.5 451,-49.5 345,-49.5"/>
<text text-anchor="start" x="353" y="-67.5" font-family="Helvetica,sans-Serif" font-size="10.00" fill="#000000">mom_error_handler::</text>
<text text-anchor="middle" x="398" y="-56.5" font-family="Helvetica,sans-Serif" font-size="10.00" fill="#000000">is_root_pe</text>
</a>
</g>
</g>
<!-- Node2&#45;&gt;Node3 -->
<g id="edge2" class="edge">
<title>Node2&#45;&gt;Node3</title>
<path fill="none" stroke="#191970" d="M284.299,-64.5C300.3461,-64.5 318.1131,-64.5 334.7407,-64.5"/>
<polygon fill="#191970" stroke="#191970" points="334.9209,-68.0001 344.9208,-64.5 334.9208,-61.0001 334.9209,-68.0001"/>
</g>
<!-- Node5 -->
<g id="node5" class="node">
<title>Node5</title>
<g id="a_node5"><a xlink:href="namespacemom__open__boundary.html#adcd9637c6cc17658fe064ce1dc1011bf" target="_top" xlink:title="Initialize the segment tracer registry.">
<polygon fill="#ffffff" stroke="#000000" points="328,-.5 328,-30.5 468,-30.5 468,-.5 328,-.5"/>
<text text-anchor="start" x="336" y="-18.5" font-family="Helvetica,sans-Serif" font-size="10.00" fill="#000000">mom_open_boundary::</text>
<text text-anchor="middle" x="398" y="-7.5" font-family="Helvetica,sans-Serif" font-size="10.00" fill="#000000">segment_tracer_registry_init</text>
</a>
</g>
</g>
<!-- Node4&#45;&gt;Node5 -->
<g id="edge4" class="edge">
<title>Node4&#45;&gt;Node5</title>
<path fill="none" stroke="#191970" d="M292.2364,-15.5C300.5329,-15.5 309.1459,-15.5 317.7136,-15.5"/>
<polygon fill="#191970" stroke="#191970" points="317.729,-19.0001 327.729,-15.5 317.729,-12.0001 317.729,-19.0001"/>
</g>
</g>
</svg>
