<?xml version="1.0" encoding="UTF-8" standalone="no"?>
<!DOCTYPE svg PUBLIC "-//W3C//DTD SVG 1.1//EN"
 "http://www.w3.org/Graphics/SVG/1.1/DTD/svg11.dtd">
<!-- Generated by graphviz version 2.40.1 (20161225.0304)
 -->
<!-- Title: mom_mixed_layer_restrat::mixedlayer_restrat_register_restarts Pages: 1 -->
<svg width="392pt" height="50pt"
 viewBox="0.00 0.00 392.00 50.00" xmlns="http://www.w3.org/2000/svg" xmlns:xlink="http://www.w3.org/1999/xlink">
<g id="graph0" class="graph" transform="scale(1 1) rotate(0) translate(4 46)">
<title>mom_mixed_layer_restrat::mixedlayer_restrat_register_restarts</title>
<polygon fill="#ffffff" stroke="transparent" points="-4,4 -4,-46 388,-46 388,4 -4,4"/>
<!-- Node1 -->
<g id="node1" class="node">
<title>Node1</title>
<g id="a_node1"><a xlink:title="Allocate and register fields in the mixed layer restratification structure for restarts.">
<polygon fill="#bfbfbf" stroke="#000000" points="244,-.5 244,-41.5 384,-41.5 384,-.5 244,-.5"/>
<text text-anchor="start" x="252" y="-29.5" font-family="Helvetica,sans-Serif" font-size="10.00" fill="#000000">mom_mixed_layer_restrat</text>
<text text-anchor="start" x="252" y="-18.5" font-family="Helvetica,sans-Serif" font-size="10.00" fill="#000000">::mixedlayer_restrat_register</text>
<text text-anchor="middle" x="314" y="-7.5" font-family="Helvetica,sans-Serif" font-size="10.00" fill="#000000">_restarts</text>
</a>
</g>
</g>
<!-- Node2 -->
<g id="node2" class="node">
<title>Node2</title>
<g id="a_node2"><a xlink:href="namespacemom.html#a96708b16215666edbfa5b46228f3a200" target="_top" xlink:title="Initialize MOM, including memory allocation, setting up parameters and diagnostics,...">
<polygon fill="#ffffff" stroke="#000000" points="101,-11.5 101,-30.5 208,-30.5 208,-11.5 101,-11.5"/>
<text text-anchor="middle" x="154.5" y="-18.5" font-family="Helvetica,sans-Serif" font-size="10.00" fill="#000000">mom::initialize_mom</text>
</a>
</g>
</g>
<!-- Node1&#45;&gt;Node2 -->
<g id="edge1" class="edge">
<title>Node1&#45;&gt;Node2</title>
<path fill="none" stroke="#191970" d="M233.5356,-21C224.9662,-21 216.4078,-21 208.2562,-21"/>
<polygon fill="#191970" stroke="#191970" points="233.5767,-24.5001 243.5767,-21 233.5767,-17.5001 233.5767,-24.5001"/>
</g>
<!-- Node3 -->
<g id="node3" class="node">
<title>Node3</title>
<g id="a_node3"><a xlink:href="MOM__driver_8F90.html#a08fffeb2d8e8acbf9ed4609be6d258c6" target="_top" xlink:title=" ">
<polygon fill="#ffffff" stroke="#000000" points="0,-11.5 0,-30.5 65,-30.5 65,-11.5 0,-11.5"/>
<text text-anchor="middle" x="32.5" y="-18.5" font-family="Helvetica,sans-Serif" font-size="10.00" fill="#000000">mom_main</text>
</a>
</g>
</g>
<!-- Node2&#45;&gt;Node3 -->
<g id="edge2" class="edge">
<title>Node2&#45;&gt;Node3</title>
<path fill="none" stroke="#191970" d="M90.9603,-21C82.0691,-21 73.2499,-21 65.2602,-21"/>
<polygon fill="#191970" stroke="#191970" points="90.9891,-24.5001 100.989,-21 90.989,-17.5001 90.9891,-24.5001"/>
</g>
</g>
</svg>
