<?xml version="1.0" encoding="UTF-8" standalone="no"?>
<!DOCTYPE svg PUBLIC "-//W3C//DTD SVG 1.1//EN"
 "http://www.w3.org/Graphics/SVG/1.1/DTD/svg11.dtd">
<!-- Generated by graphviz version 2.40.1 (20161225.0304)
 -->
<!-- Title: mom_diapyc_energy_req::diapyc_energy_req_init Pages: 1 -->
<!--zoomable 394 -->
<svg id="main" version="1.1" xmlns="http://www.w3.org/2000/svg" xmlns:xlink="http://www.w3.org/1999/xlink" xml:space="preserve" onload="init(evt)">
<style type="text/css"><![CDATA[
.edge:hover path { stroke: red; }
.edge:hover polygon { stroke: red; fill: red; }
]]></style>
<script type="text/javascript"><![CDATA[
var edges = document.getElementsByTagName('g');
if (edges && edges.length) {
  for (var i=0;i<edges.length;i++) {
    if (edges[i].id.substr(0,4)=='edge') {
      edges[i].setAttribute('class','edge');
    }
  }
}
]]></script>
        <defs>
                <circle id="rim" cx="0" cy="0" r="7"/>
                <circle id="rim2" cx="0" cy="0" r="3.5"/>
                <g id="zoomPlus">
                        <use xlink:href="#rim" fill="#404040">
                                <set attributeName="fill" to="#808080" begin="zoomplus.mouseover" end="zoomplus.mouseout"/>
                        </use>
                        <path d="M-4,0h8M0,-4v8" fill="none" stroke="white" stroke-width="1.5" pointer-events="none"/>
                </g>
                <g id="zoomMin">
                        <use xlink:href="#rim" fill="#404040">
                                <set attributeName="fill" to="#808080" begin="zoomminus.mouseover" end="zoomminus.mouseout"/>
                        </use>
                        <path d="M-4,0h8" fill="none" stroke="white" stroke-width="1.5" pointer-events="none"/>
                </g>
                <g id="dirArrow">
                        <path fill="none" stroke="white" stroke-width="1.5" d="M0,-3.0v7 M-2.5,-0.5L0,-3.0L2.5,-0.5"/>
                </g>
               <g id="resetDef">
                       <use xlink:href="#rim2" fill="#404040">
                               <set attributeName="fill" to="#808080" begin="reset.mouseover" end="reset.mouseout"/>
                       </use>
               </g>
        </defs>

<script type="text/javascript">
var viewWidth = 1147;
var viewHeight = 394;
var sectionId = 'dynsection-2';
</script>
<script xlink:href="svgpan.js"/>
<svg id="graph" class="graph">
<g id="viewport">
<title>mom_diapyc_energy_req::diapyc_energy_req_init</title>
<polygon fill="#ffffff" stroke="transparent" points="-4,4 -4,-389.6043 1143,-389.6043 1143,4 -4,4"/>
<!-- Node1 -->
<g id="node1" class="node">
<title>Node1</title>
<g id="a_node1"><a xlink:title="Initialize parameters and allocate memory associated with the diapycnal energy requirement module.">
<polygon fill="#bfbfbf" stroke="#000000" points="0,-258 0,-288 125,-288 125,-258 0,-258"/>
<text text-anchor="start" x="8" y="-276" font-family="Helvetica,sans-Serif" font-size="10.00" fill="#000000">mom_diapyc_energy_req</text>
<text text-anchor="middle" x="62.5" y="-265" font-family="Helvetica,sans-Serif" font-size="10.00" fill="#000000">::diapyc_energy_req_init</text>
</a>
</g>
</g>
<!-- Node2 -->
<g id="node2" class="node">
<title>Node2</title>
<g id="a_node2"><a xlink:href="namespacemom__diag__mediator.html#ada491446bf7216fe101e6b0f6ed551e1" target="_top" xlink:title="Returns the &quot;diag_mediator&quot; handle for a group (native, CMOR, z&#45;coord, ...) of diagnostics derived fr...">
<polygon fill="#ffffff" stroke="#000000" points="161,-258 161,-288 271,-288 271,-258 161,-258"/>
<text text-anchor="start" x="169" y="-276" font-family="Helvetica,sans-Serif" font-size="10.00" fill="#000000">mom_diag_mediator::</text>
<text text-anchor="middle" x="216" y="-265" font-family="Helvetica,sans-Serif" font-size="10.00" fill="#000000">register_diag_field</text>
</a>
</g>
</g>
<!-- Node1&#45;&gt;Node2 -->
<g id="edge1" class="edge">
<title>Node1&#45;&gt;Node2</title>
<path fill="none" stroke="#191970" d="M125.3772,-273C133.7357,-273 142.3211,-273 150.7192,-273"/>
<polygon fill="#191970" stroke="#191970" points="150.8422,-276.5001 160.8422,-273 150.8421,-269.5001 150.8422,-276.5001"/>
</g>
<!-- Node3 -->
<g id="node3" class="node">
<title>Node3</title>
<g id="a_node3"><a xlink:href="namespacemom__error__handler.html#a460cfb79a06c29fc249952c2a3710d67" target="_top" xlink:title="This provides a convenient interface for writing an mpp_error message with run&#45;time filter based on a...">
<polygon fill="#ffffff" stroke="#000000" points="891,-193 891,-223 997,-223 997,-193 891,-193"/>
<text text-anchor="start" x="899" y="-211" font-family="Helvetica,sans-Serif" font-size="10.00" fill="#000000">mom_error_handler::</text>
<text text-anchor="middle" x="944" y="-200" font-family="Helvetica,sans-Serif" font-size="10.00" fill="#000000">mom_error</text>
</a>
</g>
</g>
<!-- Node2&#45;&gt;Node3 -->
<g id="edge2" class="edge">
<title>Node2&#45;&gt;Node3</title>
<path fill="none" stroke="#191970" d="M238.7381,-288.0644C286.4787,-318.1906 401.5516,-383 508,-383 508,-383 508,-383 654,-383 744.6776,-383 779.575,-398.3337 855,-348 896.9372,-320.0139 923.1362,-264.839 935.5113,-232.7453"/>
<polygon fill="#191970" stroke="#191970" points="938.8555,-233.7931 939.0458,-223.2 932.291,-231.3623 938.8555,-233.7931"/>
</g>
<!-- Node5 -->
<g id="node5" class="node">
<title>Node5</title>
<g id="a_node5"><a xlink:href="namespacemom__diag__mediator.html#ae50b35cba800ac5fd8975929fd2b9f4a" target="_top" xlink:title="Returns True if either the native or CMOr version of the diagnostic were registered....">
<polygon fill="#ffffff" stroke="#000000" points="307,-143.5 307,-184.5 417,-184.5 417,-143.5 307,-143.5"/>
<text text-anchor="start" x="315" y="-172.5" font-family="Helvetica,sans-Serif" font-size="10.00" fill="#000000">mom_diag_mediator::</text>
<text text-anchor="start" x="315" y="-161.5" font-family="Helvetica,sans-Serif" font-size="10.00" fill="#000000">register_diag_field</text>
<text text-anchor="middle" x="362" y="-150.5" font-family="Helvetica,sans-Serif" font-size="10.00" fill="#000000">_expand_cmor</text>
</a>
</g>
</g>
<!-- Node2&#45;&gt;Node5 -->
<g id="edge4" class="edge">
<title>Node2&#45;&gt;Node5</title>
<path fill="none" stroke="#191970" d="M236.3007,-257.844C259.5489,-240.4875 298.0662,-211.7314 326.3476,-190.6172"/>
<polygon fill="#191970" stroke="#191970" points="328.4798,-193.3932 334.3991,-184.6062 324.2921,-187.784 328.4798,-193.3932"/>
</g>
<!-- Node4 -->
<g id="node4" class="node">
<title>Node4</title>
<g id="a_node4"><a xlink:href="namespacemom__error__handler.html#ad5f00a53059c72fe2332d1436c80ca71" target="_top" xlink:title="This returns .true. if the current PE is the root PE.">
<polygon fill="#ffffff" stroke="#000000" points="1033,-149 1033,-179 1139,-179 1139,-149 1033,-149"/>
<text text-anchor="start" x="1041" y="-167" font-family="Helvetica,sans-Serif" font-size="10.00" fill="#000000">mom_error_handler::</text>
<text text-anchor="middle" x="1086" y="-156" font-family="Helvetica,sans-Serif" font-size="10.00" fill="#000000">is_root_pe</text>
</a>
</g>
</g>
<!-- Node3&#45;&gt;Node4 -->
<g id="edge3" class="edge">
<title>Node3&#45;&gt;Node4</title>
<path fill="none" stroke="#191970" d="M992.4712,-192.9808C1003.7696,-189.4798 1015.9172,-185.7158 1027.5951,-182.0973"/>
<polygon fill="#191970" stroke="#191970" points="1028.7491,-185.404 1037.2652,-179.1009 1026.6773,-178.7176 1028.7491,-185.404"/>
</g>
<!-- Node5&#45;&gt;Node4 -->
<g id="edge16" class="edge">
<title>Node5&#45;&gt;Node4</title>
<path fill="none" stroke="#191970" d="M417.063,-150.6791C475.491,-137.7288 570.6915,-120 654,-120 654,-120 654,-120 800,-120 877.3666,-120 965.151,-135.9233 1022.8205,-148.6118"/>
<polygon fill="#191970" stroke="#191970" points="1022.3511,-152.0931 1032.8737,-150.8581 1023.8777,-145.2616 1022.3511,-152.0931"/>
</g>
<!-- Node6 -->
<g id="node6" class="node">
<title>Node6</title>
<g id="a_node6"><a xlink:href="namespacemom__diag__mediator.html#a8415b33a337b1fbc7535688eca85ab37" target="_top" xlink:title="Create a diagnostic type and attached to list.">
<polygon fill="#ffffff" stroke="#000000" points="453,-262 453,-292 563,-292 563,-262 453,-262"/>
<text text-anchor="start" x="461" y="-280" font-family="Helvetica,sans-Serif" font-size="10.00" fill="#000000">mom_diag_mediator::</text>
<text text-anchor="middle" x="508" y="-269" font-family="Helvetica,sans-Serif" font-size="10.00" fill="#000000">add_diag_to_list</text>
</a>
</g>
</g>
<!-- Node5&#45;&gt;Node6 -->
<g id="edge5" class="edge">
<title>Node5&#45;&gt;Node6</title>
<path fill="none" stroke="#191970" d="M388.7787,-184.7259C414.7777,-204.8485 454.0646,-235.2555 480.3542,-255.6029"/>
<polygon fill="#191970" stroke="#191970" points="478.3495,-258.4771 488.3998,-261.83 482.6339,-252.9415 478.3495,-258.4771"/>
</g>
<!-- Node11 -->
<g id="node11" class="node">
<title>Node11</title>
<g id="a_node11"><a xlink:href="namespacemom__diag__mediator.html#a14d405e0958e6e58797253c52c666cdb" target="_top" xlink:title="Adds the encoded &quot;cell_methods&quot; for a diagnostics as a diag% property This allows access to the cell_...">
<polygon fill="#ffffff" stroke="#000000" points="745,-193 745,-223 855,-223 855,-193 745,-193"/>
<text text-anchor="start" x="753" y="-211" font-family="Helvetica,sans-Serif" font-size="10.00" fill="#000000">mom_diag_mediator::</text>
<text text-anchor="middle" x="800" y="-200" font-family="Helvetica,sans-Serif" font-size="10.00" fill="#000000">add_xyz_method</text>
</a>
</g>
</g>
<!-- Node5&#45;&gt;Node11 -->
<g id="edge12" class="edge">
<title>Node5&#45;&gt;Node11</title>
<path fill="none" stroke="#191970" d="M417.2607,-173.1025C429.0367,-174.8737 441.4145,-176.6095 453,-178 550.7931,-189.7368 664.6228,-198.6834 734.4895,-203.6388"/>
<polygon fill="#191970" stroke="#191970" points="734.6728,-207.1603 744.8936,-204.3703 735.1637,-200.1775 734.6728,-207.1603"/>
</g>
<!-- Node12 -->
<g id="node12" class="node">
<title>Node12</title>
<g id="a_node12"><a xlink:href="namespacemom__diag__mediator.html#ae0f04c145cb120fc2ab6cbfe9f166392" target="_top" xlink:title="Attaches &quot;cell_methods&quot; attribute to a variable based on defaults for axes_grp or optional arguments.">
<polygon fill="#ffffff" stroke="#000000" points="599,-149 599,-179 709,-179 709,-149 599,-149"/>
<text text-anchor="start" x="607" y="-167" font-family="Helvetica,sans-Serif" font-size="10.00" fill="#000000">mom_diag_mediator::</text>
<text text-anchor="middle" x="654" y="-156" font-family="Helvetica,sans-Serif" font-size="10.00" fill="#000000">attach_cell_methods</text>
</a>
</g>
</g>
<!-- Node5&#45;&gt;Node12 -->
<g id="edge14" class="edge">
<title>Node5&#45;&gt;Node12</title>
<path fill="none" stroke="#191970" d="M417.2663,-164C466.0931,-164 537.3511,-164 588.9208,-164"/>
<polygon fill="#191970" stroke="#191970" points="588.9598,-167.5001 598.9598,-164 588.9597,-160.5001 588.9598,-167.5001"/>
</g>
<!-- Node13 -->
<g id="node13" class="node">
<title>Node13</title>
<g id="a_node13"><a xlink:href="namespacemom__diag__mediator.html#a65fe8d329cf5dbfd08c98874a7a64407" target="_top" xlink:title="Log a diagnostic to the available diagnostics file.">
<polygon fill="#ffffff" stroke="#000000" points="453,-61 453,-91 563,-91 563,-61 453,-61"/>
<text text-anchor="start" x="461" y="-79" font-family="Helvetica,sans-Serif" font-size="10.00" fill="#000000">mom_diag_mediator::</text>
<text text-anchor="middle" x="508" y="-68" font-family="Helvetica,sans-Serif" font-size="10.00" fill="#000000">log_available_diag</text>
</a>
</g>
</g>
<!-- Node5&#45;&gt;Node13 -->
<g id="edge17" class="edge">
<title>Node5&#45;&gt;Node13</title>
<path fill="none" stroke="#191970" d="M393.2581,-143.3346C410.666,-132.0146 432.8347,-117.9073 453,-106 458.5931,-102.6973 464.5698,-99.303 470.4466,-96.0395"/>
<polygon fill="#191970" stroke="#191970" points="472.4498,-98.9325 479.53,-91.0508 469.08,-92.7969 472.4498,-98.9325"/>
</g>
<!-- Node15 -->
<g id="node15" class="node">
<title>Node15</title>
<g id="a_node15"><a xlink:href="namespacemom__diag__mediator.html#aca4a32fea8dade9f51e076a56b9bad2b" target="_top" xlink:title="Returns an FMS id from register_diag_field_fms (the diag_manager routine) after expanding axes (axes&#45;...">
<polygon fill="#ffffff" stroke="#000000" points="453,-.5 453,-41.5 563,-41.5 563,-.5 453,-.5"/>
<text text-anchor="start" x="461" y="-29.5" font-family="Helvetica,sans-Serif" font-size="10.00" fill="#000000">mom_diag_mediator::</text>
<text text-anchor="start" x="461" y="-18.5" font-family="Helvetica,sans-Serif" font-size="10.00" fill="#000000">register_diag_field</text>
<text text-anchor="middle" x="508" y="-7.5" font-family="Helvetica,sans-Serif" font-size="10.00" fill="#000000">_expand_axes</text>
</a>
</g>
</g>
<!-- Node5&#45;&gt;Node15 -->
<g id="edge19" class="edge">
<title>Node5&#45;&gt;Node15</title>
<path fill="none" stroke="#191970" d="M375.0684,-143.1756C391.1394,-118.7988 420.3346,-78.2959 453,-51 454.5023,-49.7446 456.0653,-48.5175 457.673,-47.3208"/>
<polygon fill="#191970" stroke="#191970" points="459.7438,-50.1446 466.0099,-41.6014 455.7838,-44.3724 459.7438,-50.1446"/>
</g>
<!-- Node7 -->
<g id="node7" class="node">
<title>Node7</title>
<g id="a_node7"><a xlink:href="namespacemom__diag__mediator.html#a1b0bed2113a0c268eafd1bafbb48bd4f" target="_top" xlink:title="Make a new diagnostic. Either use memory which is in the array of &#39;primary&#39; diagnostics,...">
<polygon fill="#ffffff" stroke="#000000" points="599,-237 599,-267 709,-267 709,-237 599,-237"/>
<text text-anchor="start" x="607" y="-255" font-family="Helvetica,sans-Serif" font-size="10.00" fill="#000000">mom_diag_mediator::</text>
<text text-anchor="middle" x="654" y="-244" font-family="Helvetica,sans-Serif" font-size="10.00" fill="#000000">alloc_diag_with_id</text>
</a>
</g>
</g>
<!-- Node6&#45;&gt;Node7 -->
<g id="edge6" class="edge">
<title>Node6&#45;&gt;Node7</title>
<path fill="none" stroke="#191970" d="M563.1963,-267.5486C571.5541,-266.1174 580.2434,-264.6295 588.7888,-263.1663"/>
<polygon fill="#191970" stroke="#191970" points="589.4598,-266.6024 598.7256,-261.4648 588.2783,-259.7028 589.4598,-266.6024"/>
</g>
<!-- Node8 -->
<g id="node8" class="node">
<title>Node8</title>
<g id="a_node8"><a xlink:href="namespacemom__error__handler.html#a33bcd190d460095104954f2e654f9fe6" target="_top" xlink:title="Issues a FATAL error if the assertion fails, i.e. the first argument is false.">
<polygon fill="#ffffff" stroke="#000000" points="747,-308 747,-338 853,-338 853,-308 747,-308"/>
<text text-anchor="start" x="755" y="-326" font-family="Helvetica,sans-Serif" font-size="10.00" fill="#000000">mom_error_handler::</text>
<text text-anchor="middle" x="800" y="-315" font-family="Helvetica,sans-Serif" font-size="10.00" fill="#000000">assert</text>
</a>
</g>
</g>
<!-- Node6&#45;&gt;Node8 -->
<g id="edge7" class="edge">
<title>Node6&#45;&gt;Node8</title>
<path fill="none" stroke="#191970" d="M528.8164,-292.0993C546.5016,-303.9371 573.0756,-319.464 599,-326 643.9841,-337.3413 696.4463,-336.0957 736.4917,-332.2769"/>
<polygon fill="#191970" stroke="#191970" points="737.0664,-335.7363 746.6541,-331.2278 736.3475,-328.7733 737.0664,-335.7363"/>
</g>
<!-- Node9 -->
<g id="node9" class="node">
<title>Node9</title>
<g id="a_node9"><a xlink:href="namespacemom__diag__mediator.html#a3f7442639213320f7429e2288a79fda2" target="_top" xlink:title="Returns a new diagnostic id, it may be necessary to expand the diagnostics array.">
<polygon fill="#ffffff" stroke="#000000" points="599,-286 599,-316 709,-316 709,-286 599,-286"/>
<text text-anchor="start" x="607" y="-304" font-family="Helvetica,sans-Serif" font-size="10.00" fill="#000000">mom_diag_mediator::</text>
<text text-anchor="middle" x="654" y="-293" font-family="Helvetica,sans-Serif" font-size="10.00" fill="#000000">get_new_diag_id</text>
</a>
</g>
</g>
<!-- Node6&#45;&gt;Node9 -->
<g id="edge9" class="edge">
<title>Node6&#45;&gt;Node9</title>
<path fill="none" stroke="#191970" d="M563.1963,-286.0734C571.5541,-287.4472 580.2434,-288.8756 588.7888,-290.2803"/>
<polygon fill="#191970" stroke="#191970" points="588.2903,-293.7453 598.7256,-291.9138 589.4258,-286.838 588.2903,-293.7453"/>
</g>
<!-- Node8&#45;&gt;Node3 -->
<g id="edge8" class="edge">
<title>Node8&#45;&gt;Node3</title>
<path fill="none" stroke="#191970" d="M839.7526,-307.8657C845.0554,-305.2179 850.2838,-302.2542 855,-299 882.6924,-279.8922 908.9253,-251.3256 925.6399,-231.3094"/>
<polygon fill="#191970" stroke="#191970" points="928.5662,-233.2603 932.197,-223.307 923.1517,-228.8236 928.5662,-233.2603"/>
</g>
<!-- Node9&#45;&gt;Node8 -->
<g id="edge10" class="edge">
<title>Node9&#45;&gt;Node8</title>
<path fill="none" stroke="#191970" d="M709.1963,-309.3173C718.1143,-310.6611 727.4098,-312.0618 736.505,-313.4323"/>
<polygon fill="#191970" stroke="#191970" points="736.2481,-316.933 746.658,-314.9622 737.2912,-310.0111 736.2481,-316.933"/>
</g>
<!-- Node10 -->
<g id="node10" class="node">
<title>Node10</title>
<g id="a_node10"><a xlink:href="namespacemom__diag__mediator.html#a883862f004e30bbc5211f38635511ba0" target="_top" xlink:title="Initializes a diag_type (used after allocating new memory)">
<polygon fill="#ffffff" stroke="#000000" points="745,-259 745,-289 855,-289 855,-259 745,-259"/>
<text text-anchor="start" x="753" y="-277" font-family="Helvetica,sans-Serif" font-size="10.00" fill="#000000">mom_diag_mediator::</text>
<text text-anchor="middle" x="800" y="-266" font-family="Helvetica,sans-Serif" font-size="10.00" fill="#000000">initialize_diag_type</text>
</a>
</g>
</g>
<!-- Node9&#45;&gt;Node10 -->
<g id="edge11" class="edge">
<title>Node9&#45;&gt;Node10</title>
<path fill="none" stroke="#191970" d="M709.1963,-290.7925C717.5541,-289.2468 726.2434,-287.6399 734.7888,-286.0596"/>
<polygon fill="#191970" stroke="#191970" points="735.5288,-289.4822 744.7256,-284.222 734.2558,-282.5989 735.5288,-289.4822"/>
</g>
<!-- Node11&#45;&gt;Node3 -->
<g id="edge13" class="edge">
<title>Node11&#45;&gt;Node3</title>
<path fill="none" stroke="#191970" d="M855.2623,-208C863.4949,-208 872.0365,-208 880.4235,-208"/>
<polygon fill="#191970" stroke="#191970" points="880.546,-211.5001 890.546,-208 880.546,-204.5001 880.546,-211.5001"/>
</g>
<!-- Node12&#45;&gt;Node3 -->
<g id="edge15" class="edge">
<title>Node12&#45;&gt;Node3</title>
<path fill="none" stroke="#191970" d="M709.3678,-167.0547C749.9309,-169.8868 806.1917,-175.0535 855,-184 864.4631,-185.7346 874.3897,-187.978 884.0403,-190.3956"/>
<polygon fill="#191970" stroke="#191970" points="883.4084,-193.8473 893.9664,-192.9641 885.162,-187.0705 883.4084,-193.8473"/>
</g>
<!-- Node14 -->
<g id="node14" class="node">
<title>Node14</title>
<g id="a_node14"><a xlink:href="namespacemom__diag__mediator.html#ae002ca447acba252bf7bdc042e75a01e" target="_top" xlink:title="Describe an option setting in the diagnostic files.">
<polygon fill="#ffffff" stroke="#000000" points="599,-61 599,-91 709,-91 709,-61 599,-61"/>
<text text-anchor="start" x="607" y="-79" font-family="Helvetica,sans-Serif" font-size="10.00" fill="#000000">mom_diag_mediator::</text>
<text text-anchor="middle" x="654" y="-68" font-family="Helvetica,sans-Serif" font-size="10.00" fill="#000000">describe_option</text>
</a>
</g>
</g>
<!-- Node13&#45;&gt;Node14 -->
<g id="edge18" class="edge">
<title>Node13&#45;&gt;Node14</title>
<path fill="none" stroke="#191970" d="M563.1963,-76C571.4633,-76 580.0546,-76 588.5101,-76"/>
<polygon fill="#191970" stroke="#191970" points="588.7256,-79.5001 598.7256,-76 588.7256,-72.5001 588.7256,-79.5001"/>
</g>
</g>
</svg>
        <g id="navigator" transform="translate(0 0)" fill="#404254">
                <rect fill="#f2f5e9" fill-opacity="0.5" stroke="#606060" stroke-width=".5" x="0" y="0" width="60" height="60"/>
                <use id="zoomplus" xlink:href="#zoomPlus" x="17" y="9" onmousedown="handleZoom(evt,'in')"/>
                <use id="zoomminus" xlink:href="#zoomMin" x="42" y="9" onmousedown="handleZoom(evt,'out')"/>
                <use id="reset" xlink:href="#resetDef" x="30" y="36" onmousedown="handleReset()"/>
                <g id="arrowUp" xlink:href="#dirArrow" transform="translate(30 24)" onmousedown="handlePan(0,-1)">
                  <use xlink:href="#rim" fill="#404040">
                        <set attributeName="fill" to="#808080" begin="arrowUp.mouseover" end="arrowUp.mouseout"/>
                  </use>
                  <path fill="none" stroke="white" stroke-width="1.5" d="M0,-3.0v7 M-2.5,-0.5L0,-3.0L2.5,-0.5"/>
                </g>
                <g id="arrowRight" xlink:href="#dirArrow" transform="rotate(90) translate(36 -43)" onmousedown="handlePan(1,0)">
                  <use xlink:href="#rim" fill="#404040">
                        <set attributeName="fill" to="#808080" begin="arrowRight.mouseover" end="arrowRight.mouseout"/>
                  </use>
                  <path fill="none" stroke="white" stroke-width="1.5" d="M0,-3.0v7 M-2.5,-0.5L0,-3.0L2.5,-0.5"/>
                </g>
                <g id="arrowDown" xlink:href="#dirArrow" transform="rotate(180) translate(-30 -48)" onmousedown="handlePan(0,1)">
                  <use xlink:href="#rim" fill="#404040">
                        <set attributeName="fill" to="#808080" begin="arrowDown.mouseover" end="arrowDown.mouseout"/>
                  </use>
                  <path fill="none" stroke="white" stroke-width="1.5" d="M0,-3.0v7 M-2.5,-0.5L0,-3.0L2.5,-0.5"/>
                </g>
                <g id="arrowLeft" xlink:href="#dirArrow" transform="rotate(270) translate(-36 17)" onmousedown="handlePan(-1,0)">
                  <use xlink:href="#rim" fill="#404040">
                        <set attributeName="fill" to="#808080" begin="arrowLeft.mouseover" end="arrowLeft.mouseout"/>
                  </use>
                  <path fill="none" stroke="white" stroke-width="1.5" d="M0,-3.0v7 M-2.5,-0.5L0,-3.0L2.5,-0.5"/>
                </g>
        </g>
        <svg viewBox="0 0 15 15" width="100%" height="30px" preserveAspectRatio="xMaxYMin meet">
         <g id="arrow_out" transform="scale(0.3 0.3)">
          <a xlink:href="namespacemom__diapyc__energy__req_a63b127bfd78461d8df3449591792b224_cgraph_org.svg" target="_base">
           <rect id="button" ry="5" rx="5" y="6" x="6" height="38" width="38"
                fill="#f2f5e9" fill-opacity="0.5" stroke="#606060" stroke-width="1.0"/>
           <path id="arrow"
             d="M 11.500037,31.436501 C 11.940474,20.09759 22.043105,11.32322 32.158766,21.979434 L 37.068811,17.246167 C 37.068811,17.246167 37.088388,32 37.088388,32 L 22.160133,31.978069 C 22.160133,31.978069 26.997745,27.140456 26.997745,27.140456 C 18.528582,18.264221 13.291696,25.230495 11.500037,31.436501 z"
             style="fill:#404040;"/>
          </a>
         </g>
        </svg>
</svg>
