<?xml version="1.0" encoding="UTF-8" standalone="no"?>
<!DOCTYPE svg PUBLIC "-//W3C//DTD SVG 1.1//EN"
 "http://www.w3.org/Graphics/SVG/1.1/DTD/svg11.dtd">
<!-- Generated by graphviz version 2.40.1 (20161225.0304)
 -->
<!-- Title: mom_opacity::opacity_from_chl Pages: 1 -->
<svg width="432pt" height="137pt"
 viewBox="0.00 0.00 432.00 137.00" xmlns="http://www.w3.org/2000/svg" xmlns:xlink="http://www.w3.org/1999/xlink">
<g id="graph0" class="graph" transform="scale(1 1) rotate(0) translate(4 133)">
<title>mom_opacity::opacity_from_chl</title>
<polygon fill="#ffffff" stroke="transparent" points="-4,4 -4,-133 428,-133 428,4 -4,4"/>
<!-- Node1 -->
<g id="node1" class="node">
<title>Node1</title>
<g id="a_node1"><a xlink:title="This sets the &quot;blue&quot; band opacity based on chloophyll A concencentrations The red portion is lumped i...">
<polygon fill="#bfbfbf" stroke="#000000" points="0,-49.5 0,-79.5 117,-79.5 117,-49.5 0,-49.5"/>
<text text-anchor="start" x="8" y="-67.5" font-family="Helvetica,sans-Serif" font-size="10.00" fill="#000000">mom_opacity::opacity</text>
<text text-anchor="middle" x="58.5" y="-56.5" font-family="Helvetica,sans-Serif" font-size="10.00" fill="#000000">_from_chl</text>
</a>
</g>
</g>
<!-- Node2 -->
<g id="node2" class="node">
<title>Node2</title>
<g id="a_node2"><a xlink:href="namespacemom__error__handler.html#a460cfb79a06c29fc249952c2a3710d67" target="_top" xlink:title="This provides a convenient interface for writing an mpp_error message with run&#45;time filter based on a...">
<polygon fill="#ffffff" stroke="#000000" points="155.5,-98.5 155.5,-128.5 270.5,-128.5 270.5,-98.5 155.5,-98.5"/>
<text text-anchor="start" x="163.5" y="-116.5" font-family="Helvetica,sans-Serif" font-size="10.00" fill="#000000">mom_error_handler::</text>
<text text-anchor="middle" x="213" y="-105.5" font-family="Helvetica,sans-Serif" font-size="10.00" fill="#000000">mom_error</text>
</a>
</g>
</g>
<!-- Node1&#45;&gt;Node2 -->
<g id="edge1" class="edge">
<title>Node1&#45;&gt;Node2</title>
<path fill="none" stroke="#191970" d="M106.1158,-79.6014C121.7552,-84.5615 139.3047,-90.1274 155.5919,-95.2929"/>
<polygon fill="#191970" stroke="#191970" points="154.9512,-98.7615 165.5415,-98.4484 157.0675,-92.089 154.9512,-98.7615"/>
</g>
<!-- Node4 -->
<g id="node4" class="node">
<title>Node4</title>
<g id="a_node4"><a xlink:href="namespacemom__opacity.html#a4498b4bb6fcf1b7d849f89aa87c0332e" target="_top" xlink:title="This sets the blue&#45;wavelength opacity according to the scheme proposed by Morel and Antoine (1994).">
<polygon fill="#ffffff" stroke="#000000" points="154.5,-49.5 154.5,-79.5 271.5,-79.5 271.5,-49.5 154.5,-49.5"/>
<text text-anchor="start" x="162.5" y="-67.5" font-family="Helvetica,sans-Serif" font-size="10.00" fill="#000000">mom_opacity::opacity</text>
<text text-anchor="middle" x="213" y="-56.5" font-family="Helvetica,sans-Serif" font-size="10.00" fill="#000000">_morel</text>
</a>
</g>
</g>
<!-- Node1&#45;&gt;Node4 -->
<g id="edge3" class="edge">
<title>Node1&#45;&gt;Node4</title>
<path fill="none" stroke="#191970" d="M117.3506,-64.5C126.1487,-64.5 135.285,-64.5 144.2658,-64.5"/>
<polygon fill="#191970" stroke="#191970" points="144.3131,-68.0001 154.3131,-64.5 144.313,-61.0001 144.3131,-68.0001"/>
</g>
<!-- Node5 -->
<g id="node5" class="node">
<title>Node5</title>
<g id="a_node5"><a xlink:href="namespacemom__opacity.html#a0017241c03e4536115674fc5fc9608bf" target="_top" xlink:title="This sets the penetrating shortwave fraction according to the scheme proposed by Morel and Antoine (1...">
<polygon fill="#ffffff" stroke="#000000" points="153,-.5 153,-30.5 273,-30.5 273,-.5 153,-.5"/>
<text text-anchor="start" x="161" y="-18.5" font-family="Helvetica,sans-Serif" font-size="10.00" fill="#000000">mom_opacity::sw_pen</text>
<text text-anchor="middle" x="213" y="-7.5" font-family="Helvetica,sans-Serif" font-size="10.00" fill="#000000">_frac_morel</text>
</a>
</g>
</g>
<!-- Node1&#45;&gt;Node5 -->
<g id="edge4" class="edge">
<title>Node1&#45;&gt;Node5</title>
<path fill="none" stroke="#191970" d="M106.1158,-49.3986C121.7552,-44.4385 139.3047,-38.8726 155.5919,-33.7071"/>
<polygon fill="#191970" stroke="#191970" points="157.0675,-36.911 165.5415,-30.5516 154.9512,-30.2385 157.0675,-36.911"/>
</g>
<!-- Node3 -->
<g id="node3" class="node">
<title>Node3</title>
<g id="a_node3"><a xlink:href="namespacemom__error__handler.html#ad5f00a53059c72fe2332d1436c80ca71" target="_top" xlink:title="This returns .true. if the current PE is the root PE.">
<polygon fill="#ffffff" stroke="#000000" points="309,-98.5 309,-128.5 424,-128.5 424,-98.5 309,-98.5"/>
<text text-anchor="start" x="317" y="-116.5" font-family="Helvetica,sans-Serif" font-size="10.00" fill="#000000">mom_error_handler::</text>
<text text-anchor="middle" x="366.5" y="-105.5" font-family="Helvetica,sans-Serif" font-size="10.00" fill="#000000">is_root_pe</text>
</a>
</g>
</g>
<!-- Node2&#45;&gt;Node3 -->
<g id="edge2" class="edge">
<title>Node2&#45;&gt;Node3</title>
<path fill="none" stroke="#191970" d="M270.5945,-113.5C279.7781,-113.5 289.3527,-113.5 298.745,-113.5"/>
<polygon fill="#191970" stroke="#191970" points="298.8381,-117.0001 308.8381,-113.5 298.8381,-110.0001 298.8381,-117.0001"/>
</g>
</g>
</svg>
