<?xml version="1.0" encoding="UTF-8" standalone="no"?>
<!DOCTYPE svg PUBLIC "-//W3C//DTD SVG 1.1//EN"
 "http://www.w3.org/Graphics/SVG/1.1/DTD/svg11.dtd">
<!-- Generated by graphviz version 2.40.1 (20161225.0304)
 -->
<!-- Title: mom_mixed_layer_restrat::mixedlayer_restrat_general Pages: 1 -->
<svg width="637pt" height="61pt"
 viewBox="0.00 0.00 637.00 61.00" xmlns="http://www.w3.org/2000/svg" xmlns:xlink="http://www.w3.org/1999/xlink">
<g id="graph0" class="graph" transform="scale(1 1) rotate(0) translate(4 57)">
<title>mom_mixed_layer_restrat::mixedlayer_restrat_general</title>
<polygon fill="#ffffff" stroke="transparent" points="-4,4 -4,-57 633,-57 633,4 -4,4"/>
<!-- Node1 -->
<g id="node1" class="node">
<title>Node1</title>
<g id="a_node1"><a xlink:title="Calculates a restratifying flow in the mixed layer.">
<polygon fill="#bfbfbf" stroke="#000000" points="0,-.5 0,-30.5 151,-30.5 151,-.5 0,-.5"/>
<text text-anchor="start" x="8" y="-18.5" font-family="Helvetica,sans-Serif" font-size="10.00" fill="#000000">mom_mixed_layer_restrat</text>
<text text-anchor="middle" x="75.5" y="-7.5" font-family="Helvetica,sans-Serif" font-size="10.00" fill="#000000">::mixedlayer_restrat_general</text>
</a>
</g>
</g>
<!-- Node2 -->
<g id="node2" class="node">
<title>Node2</title>
<g id="a_node2"><a xlink:href="namespacemom__diag__mediator.html#a2e9db121a293f242f5a42e9d16d0d2e4" target="_top" xlink:title="Build/update vertical grids for diagnostic remapping.">
<polygon fill="#ffffff" stroke="#000000" points="187,-22.5 187,-52.5 327,-52.5 327,-22.5 187,-22.5"/>
<text text-anchor="start" x="195" y="-40.5" font-family="Helvetica,sans-Serif" font-size="10.00" fill="#000000">mom_diag_mediator::</text>
<text text-anchor="middle" x="257" y="-29.5" font-family="Helvetica,sans-Serif" font-size="10.00" fill="#000000">diag_update_remap_grids</text>
</a>
</g>
</g>
<!-- Node1&#45;&gt;Node2 -->
<g id="edge1" class="edge">
<title>Node1&#45;&gt;Node2</title>
<path fill="none" stroke="#191970" d="M151.1581,-24.6707C159.6873,-25.7045 168.3995,-26.7606 176.9819,-27.8008"/>
<polygon fill="#191970" stroke="#191970" points="176.63,-31.2837 186.9785,-29.0125 177.4723,-24.3346 176.63,-31.2837"/>
</g>
<!-- Node3 -->
<g id="node3" class="node">
<title>Node3</title>
<g id="a_node3"><a xlink:href="namespacemom__error__handler.html#a460cfb79a06c29fc249952c2a3710d67" target="_top" xlink:title="This provides a convenient interface for writing an mpp_error message with run&#45;time filter based on a...">
<polygon fill="#ffffff" stroke="#000000" points="363,-.5 363,-30.5 478,-30.5 478,-.5 363,-.5"/>
<text text-anchor="start" x="371" y="-18.5" font-family="Helvetica,sans-Serif" font-size="10.00" fill="#000000">mom_error_handler::</text>
<text text-anchor="middle" x="420.5" y="-7.5" font-family="Helvetica,sans-Serif" font-size="10.00" fill="#000000">mom_error</text>
</a>
</g>
</g>
<!-- Node1&#45;&gt;Node3 -->
<g id="edge4" class="edge">
<title>Node1&#45;&gt;Node3</title>
<path fill="none" stroke="#191970" d="M151.0692,-13.9613C163.0881,-13.7694 175.384,-13.6042 187,-13.5 249.2197,-12.942 264.7813,-12.8346 327,-13.5 335.2851,-13.5886 343.9825,-13.7214 352.5986,-13.8771"/>
<polygon fill="#191970" stroke="#191970" points="352.581,-17.3773 362.6462,-14.0693 352.715,-10.3786 352.581,-17.3773"/>
</g>
<!-- Node2&#45;&gt;Node3 -->
<g id="edge2" class="edge">
<title>Node2&#45;&gt;Node3</title>
<path fill="none" stroke="#191970" d="M327.2876,-28.0423C335.7175,-26.908 344.3133,-25.7514 352.7069,-24.622"/>
<polygon fill="#191970" stroke="#191970" points="353.3762,-28.0636 362.8201,-23.2612 352.4426,-21.1261 353.3762,-28.0636"/>
</g>
<!-- Node4 -->
<g id="node4" class="node">
<title>Node4</title>
<g id="a_node4"><a xlink:href="namespacemom__error__handler.html#ad5f00a53059c72fe2332d1436c80ca71" target="_top" xlink:title="This returns .true. if the current PE is the root PE.">
<polygon fill="#ffffff" stroke="#000000" points="514,-.5 514,-30.5 629,-30.5 629,-.5 514,-.5"/>
<text text-anchor="start" x="522" y="-18.5" font-family="Helvetica,sans-Serif" font-size="10.00" fill="#000000">mom_error_handler::</text>
<text text-anchor="middle" x="571.5" y="-7.5" font-family="Helvetica,sans-Serif" font-size="10.00" fill="#000000">is_root_pe</text>
</a>
</g>
</g>
<!-- Node3&#45;&gt;Node4 -->
<g id="edge3" class="edge">
<title>Node3&#45;&gt;Node4</title>
<path fill="none" stroke="#191970" d="M478.0174,-15.5C486.4639,-15.5 495.2292,-15.5 503.8561,-15.5"/>
<polygon fill="#191970" stroke="#191970" points="503.8926,-19.0001 513.8925,-15.5 503.8925,-12.0001 503.8926,-19.0001"/>
</g>
</g>
</svg>
