<?xml version="1.0" encoding="UTF-8" standalone="no"?>
<!DOCTYPE svg PUBLIC "-//W3C//DTD SVG 1.1//EN"
 "http://www.w3.org/Graphics/SVG/1.1/DTD/svg11.dtd">
<!-- Generated by graphviz version 2.40.1 (20161225.0304)
 -->
<!-- Title: mom_neutral_diffusion::plm_diff Pages: 1 -->
<!--zoomable 143 -->
<svg id="main" version="1.1" xmlns="http://www.w3.org/2000/svg" xmlns:xlink="http://www.w3.org/1999/xlink" xml:space="preserve" onload="init(evt)">
<style type="text/css"><![CDATA[
.edge:hover path { stroke: red; }
.edge:hover polygon { stroke: red; fill: red; }
]]></style>
<script type="text/javascript"><![CDATA[
var edges = document.getElementsByTagName('g');
if (edges && edges.length) {
  for (var i=0;i<edges.length;i++) {
    if (edges[i].id.substr(0,4)=='edge') {
      edges[i].setAttribute('class','edge');
    }
  }
}
]]></script>
        <defs>
                <circle id="rim" cx="0" cy="0" r="7"/>
                <circle id="rim2" cx="0" cy="0" r="3.5"/>
                <g id="zoomPlus">
                        <use xlink:href="#rim" fill="#404040">
                                <set attributeName="fill" to="#808080" begin="zoomplus.mouseover" end="zoomplus.mouseout"/>
                        </use>
                        <path d="M-4,0h8M0,-4v8" fill="none" stroke="white" stroke-width="1.5" pointer-events="none"/>
                </g>
                <g id="zoomMin">
                        <use xlink:href="#rim" fill="#404040">
                                <set attributeName="fill" to="#808080" begin="zoomminus.mouseover" end="zoomminus.mouseout"/>
                        </use>
                        <path d="M-4,0h8" fill="none" stroke="white" stroke-width="1.5" pointer-events="none"/>
                </g>
                <g id="dirArrow">
                        <path fill="none" stroke="white" stroke-width="1.5" d="M0,-3.0v7 M-2.5,-0.5L0,-3.0L2.5,-0.5"/>
                </g>
               <g id="resetDef">
                       <use xlink:href="#rim2" fill="#404040">
                               <set attributeName="fill" to="#808080" begin="reset.mouseover" end="reset.mouseout"/>
                       </use>
               </g>
        </defs>

<script type="text/javascript">
var viewWidth = 1171;
var viewHeight = 143;
var sectionId = 'dynsection-40';
</script>
<script xlink:href="svgpan.js"/>
<svg id="graph" class="graph">
<g id="viewport">
<title>mom_neutral_diffusion::plm_diff</title>
<polygon fill="#ffffff" stroke="transparent" points="-4,4 -4,-138.5 1167,-138.5 1167,4 -4,4"/>
<!-- Node1 -->
<g id="node1" class="node">
<title>Node1</title>
<g id="a_node1"><a xlink:title="Returns PLM slopes for a column where the slopes are the difference in value across each cell....">
<polygon fill="#bfbfbf" stroke="#000000" points="1048,-61 1048,-91 1163,-91 1163,-61 1048,-61"/>
<text text-anchor="start" x="1056" y="-79" font-family="Helvetica,sans-Serif" font-size="10.00" fill="#000000">mom_neutral_diffusion</text>
<text text-anchor="middle" x="1105.5" y="-68" font-family="Helvetica,sans-Serif" font-size="10.00" fill="#000000">::plm_diff</text>
</a>
</g>
</g>
<!-- Node2 -->
<g id="node2" class="node">
<title>Node2</title>
<g id="a_node2"><a xlink:href="namespacemom__neutral__diffusion.html#aec9b89b6a5ddc81f102309b964a0b969" target="_top" xlink:title="Returns interface scalar, Si, for a column of layer values, S.">
<polygon fill="#ffffff" stroke="#000000" points="897,-61 897,-91 1012,-91 1012,-61 897,-61"/>
<text text-anchor="start" x="905" y="-79" font-family="Helvetica,sans-Serif" font-size="10.00" fill="#000000">mom_neutral_diffusion</text>
<text text-anchor="middle" x="954.5" y="-68" font-family="Helvetica,sans-Serif" font-size="10.00" fill="#000000">::interface_scalar</text>
</a>
</g>
</g>
<!-- Node1&#45;&gt;Node2 -->
<g id="edge1" class="edge">
<title>Node1&#45;&gt;Node2</title>
<path fill="none" stroke="#191970" d="M1037.9481,-76C1029.3221,-76 1020.5562,-76 1012.1075,-76"/>
<polygon fill="#191970" stroke="#191970" points="1037.9827,-79.5001 1047.9826,-76 1037.9826,-72.5001 1037.9827,-79.5001"/>
</g>
<!-- Node3 -->
<g id="node3" class="node">
<title>Node3</title>
<g id="a_node3"><a xlink:href="namespacemom__neutral__diffusion.html#a9aaf0988f76c9992d8f1db48ce23bf34" target="_top" xlink:title="Returns true if unit tests of neutral_diffusion functions fail. Otherwise returns false.">
<polygon fill="#ffffff" stroke="#000000" points="566,-104 566,-134 708,-134 708,-104 566,-104"/>
<text text-anchor="start" x="574" y="-122" font-family="Helvetica,sans-Serif" font-size="10.00" fill="#000000">mom_neutral_diffusion</text>
<text text-anchor="middle" x="637" y="-111" font-family="Helvetica,sans-Serif" font-size="10.00" fill="#000000">::ndiff_unit_tests_continuous</text>
</a>
</g>
</g>
<!-- Node2&#45;&gt;Node3 -->
<g id="edge2" class="edge">
<title>Node2&#45;&gt;Node3</title>
<path fill="none" stroke="#191970" d="M895.1472,-93.5948C883.8867,-96.4407 872.1421,-99.079 861,-101 810.2499,-109.7496 752.2812,-114.2618 708.0309,-116.5802"/>
<polygon fill="#191970" stroke="#191970" points="896.0981,-96.964 904.8909,-91.0533 894.3313,-90.1906 896.0981,-96.964"/>
</g>
<!-- Node8 -->
<g id="node8" class="node">
<title>Node8</title>
<g id="a_node8"><a xlink:href="namespacemom__neutral__diffusion.html#a572a6c3f71eec3adb740a788b4ac21bd" target="_top" xlink:title="Calculate remapping factors for u/v columns used to map adjoining columns to a shared coordinate spac...">
<polygon fill="#ffffff" stroke="#000000" points="744,-.5 744,-41.5 861,-41.5 861,-.5 744,-.5"/>
<text text-anchor="start" x="752" y="-29.5" font-family="Helvetica,sans-Serif" font-size="10.00" fill="#000000">mom_neutral_diffusion</text>
<text text-anchor="start" x="752" y="-18.5" font-family="Helvetica,sans-Serif" font-size="10.00" fill="#000000">::neutral_diffusion_calc</text>
<text text-anchor="middle" x="802.5" y="-7.5" font-family="Helvetica,sans-Serif" font-size="10.00" fill="#000000">_coeffs</text>
</a>
</g>
</g>
<!-- Node2&#45;&gt;Node8 -->
<g id="edge7" class="edge">
<title>Node2&#45;&gt;Node8</title>
<path fill="none" stroke="#191970" d="M903.4071,-57.5125C889.2617,-52.394 873.8219,-46.8073 859.3694,-41.5777"/>
<polygon fill="#191970" stroke="#191970" points="902.3711,-60.8596 912.9653,-60.971 904.7529,-54.2772 902.3711,-60.8596"/>
</g>
<!-- Node10 -->
<g id="node10" class="node">
<title>Node10</title>
<g id="a_node10"><a xlink:href="namespacemom__neutral__diffusion.html#aa394289328ee392cdb17000fb6fa90e8" target="_top" xlink:title="Returns a single column of neutral diffusion fluxes of a tracer.">
<polygon fill="#ffffff" stroke="#000000" points="745,-61 745,-91 860,-91 860,-61 745,-61"/>
<text text-anchor="start" x="753" y="-79" font-family="Helvetica,sans-Serif" font-size="10.00" fill="#000000">mom_neutral_diffusion</text>
<text text-anchor="middle" x="802.5" y="-68" font-family="Helvetica,sans-Serif" font-size="10.00" fill="#000000">::neutral_surface_flux</text>
</a>
</g>
</g>
<!-- Node2&#45;&gt;Node10 -->
<g id="edge9" class="edge">
<title>Node2&#45;&gt;Node10</title>
<path fill="none" stroke="#191970" d="M886.4285,-76C877.683,-76 868.7959,-76 860.2373,-76"/>
<polygon fill="#191970" stroke="#191970" points="886.6017,-79.5001 896.6017,-76 886.6017,-72.5001 886.6017,-79.5001"/>
</g>
<!-- Node4 -->
<g id="node4" class="node">
<title>Node4</title>
<g id="a_node4"><a xlink:href="namespacemom__neutral__diffusion.html#a6f91c93a6363fb39395796420f25fad2" target="_top" xlink:title="Returns true if unit tests of neutral_diffusion functions fail. Otherwise returns false.">
<polygon fill="#ffffff" stroke="#000000" points="388,-104 388,-134 530,-134 530,-104 388,-104"/>
<text text-anchor="start" x="396" y="-122" font-family="Helvetica,sans-Serif" font-size="10.00" fill="#000000">mom_neutral_diffusion</text>
<text text-anchor="middle" x="459" y="-111" font-family="Helvetica,sans-Serif" font-size="10.00" fill="#000000">::neutral_diffusion_unit_tests</text>
</a>
</g>
</g>
<!-- Node3&#45;&gt;Node4 -->
<g id="edge3" class="edge">
<title>Node3&#45;&gt;Node4</title>
<path fill="none" stroke="#191970" d="M555.8298,-119C547.2112,-119 538.494,-119 530.0047,-119"/>
<polygon fill="#191970" stroke="#191970" points="555.8823,-122.5001 565.8823,-119 555.8823,-115.5001 555.8823,-122.5001"/>
</g>
<!-- Node5 -->
<g id="node5" class="node">
<title>Node5</title>
<g id="a_node5"><a xlink:href="namespacemom__unit__tests.html#a57645db02bc734c32de50d028ef906ac" target="_top" xlink:title="Calls unit tests for other modules. Note that if a unit test returns true, a FATAL error is triggered...">
<polygon fill="#ffffff" stroke="#000000" points="244,-104 244,-134 352,-134 352,-104 244,-104"/>
<text text-anchor="start" x="252" y="-122" font-family="Helvetica,sans-Serif" font-size="10.00" fill="#000000">mom_unit_tests::unit</text>
<text text-anchor="middle" x="298" y="-111" font-family="Helvetica,sans-Serif" font-size="10.00" fill="#000000">_tests</text>
</a>
</g>
</g>
<!-- Node4&#45;&gt;Node5 -->
<g id="edge4" class="edge">
<title>Node4&#45;&gt;Node5</title>
<path fill="none" stroke="#191970" d="M377.7789,-119C369.1289,-119 360.49,-119 352.2618,-119"/>
<polygon fill="#191970" stroke="#191970" points="377.9144,-122.5001 387.9144,-119 377.9144,-115.5001 377.9144,-122.5001"/>
</g>
<!-- Node6 -->
<g id="node6" class="node">
<title>Node6</title>
<g id="a_node6"><a xlink:href="namespacemom.html#a96708b16215666edbfa5b46228f3a200" target="_top" xlink:title="Initialize MOM, including memory allocation, setting up parameters and diagnostics,...">
<polygon fill="#ffffff" stroke="#000000" points="101,-109.5 101,-128.5 208,-128.5 208,-109.5 101,-109.5"/>
<text text-anchor="middle" x="154.5" y="-116.5" font-family="Helvetica,sans-Serif" font-size="10.00" fill="#000000">mom::initialize_mom</text>
</a>
</g>
</g>
<!-- Node5&#45;&gt;Node6 -->
<g id="edge5" class="edge">
<title>Node5&#45;&gt;Node6</title>
<path fill="none" stroke="#191970" d="M233.5691,-119C225.1423,-119 216.5794,-119 208.3519,-119"/>
<polygon fill="#191970" stroke="#191970" points="233.7488,-122.5001 243.7488,-119 233.7488,-115.5001 233.7488,-122.5001"/>
</g>
<!-- Node7 -->
<g id="node7" class="node">
<title>Node7</title>
<g id="a_node7"><a xlink:href="MOM__driver_8F90.html#a08fffeb2d8e8acbf9ed4609be6d258c6" target="_top" xlink:title=" ">
<polygon fill="#ffffff" stroke="#000000" points="0,-109.5 0,-128.5 65,-128.5 65,-109.5 0,-109.5"/>
<text text-anchor="middle" x="32.5" y="-116.5" font-family="Helvetica,sans-Serif" font-size="10.00" fill="#000000">mom_main</text>
</a>
</g>
</g>
<!-- Node6&#45;&gt;Node7 -->
<g id="edge6" class="edge">
<title>Node6&#45;&gt;Node7</title>
<path fill="none" stroke="#191970" d="M90.9603,-119C82.0691,-119 73.2499,-119 65.2602,-119"/>
<polygon fill="#191970" stroke="#191970" points="90.9891,-122.5001 100.989,-119 90.989,-115.5001 90.9891,-122.5001"/>
</g>
<!-- Node9 -->
<g id="node9" class="node">
<title>Node9</title>
<g id="a_node9"><a xlink:href="namespacemom__tracer__hor__diff.html#a098229e37012e7bd93d13036bfc864ac" target="_top" xlink:title="Compute along&#45;coordinate diffusion of all tracers using the diffusivity in CSKhTr,...">
<polygon fill="#ffffff" stroke="#000000" points="406,-33 406,-63 512,-63 512,-33 406,-33"/>
<text text-anchor="start" x="414" y="-51" font-family="Helvetica,sans-Serif" font-size="10.00" fill="#000000">mom_tracer_hor_diff</text>
<text text-anchor="middle" x="459" y="-40" font-family="Helvetica,sans-Serif" font-size="10.00" fill="#000000">::tracer_hordiff</text>
</a>
</g>
</g>
<!-- Node8&#45;&gt;Node9 -->
<g id="edge8" class="edge">
<title>Node8&#45;&gt;Node9</title>
<path fill="none" stroke="#191970" d="M733.6391,-26.4127C668.3286,-31.5462 571.5815,-39.1508 512.0581,-43.8295"/>
<polygon fill="#191970" stroke="#191970" points="734.1456,-29.8837 743.8405,-25.6108 733.597,-22.9052 734.1456,-29.8837"/>
</g>
<!-- Node10&#45;&gt;Node3 -->
<g id="edge10" class="edge">
<title>Node10&#45;&gt;Node3</title>
<path fill="none" stroke="#191970" d="M734.6407,-93.6311C721.4321,-97.063 707.7001,-100.6308 694.8512,-103.9692"/>
<polygon fill="#191970" stroke="#191970" points="735.8176,-96.9416 744.6161,-91.0393 734.0573,-90.1666 735.8176,-96.9416"/>
</g>
<!-- Node11 -->
<g id="node11" class="node">
<title>Node11</title>
<g id="a_node11"><a xlink:href="namespacemom__neutral__diffusion.html#a5469b7be43f8c428f092b58dd5ca41c8" target="_top" xlink:title="Update tracer concentration due to neutral diffusion; layer thickness unchanged by this update.">
<polygon fill="#ffffff" stroke="#000000" points="579.5,-54 579.5,-84 694.5,-84 694.5,-54 579.5,-54"/>
<text text-anchor="start" x="587.5" y="-72" font-family="Helvetica,sans-Serif" font-size="10.00" fill="#000000">mom_neutral_diffusion</text>
<text text-anchor="middle" x="637" y="-61" font-family="Helvetica,sans-Serif" font-size="10.00" fill="#000000">::neutral_diffusion</text>
</a>
</g>
</g>
<!-- Node10&#45;&gt;Node11 -->
<g id="edge11" class="edge">
<title>Node10&#45;&gt;Node11</title>
<path fill="none" stroke="#191970" d="M734.5824,-73.1274C721.2958,-72.5654 707.4819,-71.9811 694.5717,-71.4351"/>
<polygon fill="#191970" stroke="#191970" points="734.4771,-76.6259 744.6161,-73.5517 734.773,-69.6322 734.4771,-76.6259"/>
</g>
<!-- Node11&#45;&gt;Node9 -->
<g id="edge12" class="edge">
<title>Node11&#45;&gt;Node9</title>
<path fill="none" stroke="#191970" d="M569.1999,-61.0011C550.3557,-58.7779 530.1652,-56.3959 512.2815,-54.286"/>
<polygon fill="#191970" stroke="#191970" points="568.8673,-64.4861 579.2085,-62.1819 569.6875,-57.5343 568.8673,-64.4861"/>
</g>
</g>
</svg>
        <g id="navigator" transform="translate(0 0)" fill="#404254">
                <rect fill="#f2f5e9" fill-opacity="0.5" stroke="#606060" stroke-width=".5" x="0" y="0" width="60" height="60"/>
                <use id="zoomplus" xlink:href="#zoomPlus" x="17" y="9" onmousedown="handleZoom(evt,'in')"/>
                <use id="zoomminus" xlink:href="#zoomMin" x="42" y="9" onmousedown="handleZoom(evt,'out')"/>
                <use id="reset" xlink:href="#resetDef" x="30" y="36" onmousedown="handleReset()"/>
                <g id="arrowUp" xlink:href="#dirArrow" transform="translate(30 24)" onmousedown="handlePan(0,-1)">
                  <use xlink:href="#rim" fill="#404040">
                        <set attributeName="fill" to="#808080" begin="arrowUp.mouseover" end="arrowUp.mouseout"/>
                  </use>
                  <path fill="none" stroke="white" stroke-width="1.5" d="M0,-3.0v7 M-2.5,-0.5L0,-3.0L2.5,-0.5"/>
                </g>
                <g id="arrowRight" xlink:href="#dirArrow" transform="rotate(90) translate(36 -43)" onmousedown="handlePan(1,0)">
                  <use xlink:href="#rim" fill="#404040">
                        <set attributeName="fill" to="#808080" begin="arrowRight.mouseover" end="arrowRight.mouseout"/>
                  </use>
                  <path fill="none" stroke="white" stroke-width="1.5" d="M0,-3.0v7 M-2.5,-0.5L0,-3.0L2.5,-0.5"/>
                </g>
                <g id="arrowDown" xlink:href="#dirArrow" transform="rotate(180) translate(-30 -48)" onmousedown="handlePan(0,1)">
                  <use xlink:href="#rim" fill="#404040">
                        <set attributeName="fill" to="#808080" begin="arrowDown.mouseover" end="arrowDown.mouseout"/>
                  </use>
                  <path fill="none" stroke="white" stroke-width="1.5" d="M0,-3.0v7 M-2.5,-0.5L0,-3.0L2.5,-0.5"/>
                </g>
                <g id="arrowLeft" xlink:href="#dirArrow" transform="rotate(270) translate(-36 17)" onmousedown="handlePan(-1,0)">
                  <use xlink:href="#rim" fill="#404040">
                        <set attributeName="fill" to="#808080" begin="arrowLeft.mouseover" end="arrowLeft.mouseout"/>
                  </use>
                  <path fill="none" stroke="white" stroke-width="1.5" d="M0,-3.0v7 M-2.5,-0.5L0,-3.0L2.5,-0.5"/>
                </g>
        </g>
        <svg viewBox="0 0 15 15" width="100%" height="30px" preserveAspectRatio="xMaxYMin meet">
         <g id="arrow_out" transform="scale(0.3 0.3)">
          <a xlink:href="namespacemom__neutral__diffusion_ac211ae488cb6e3c6685df85d24ecd0dd_icgraph_org.svg" target="_base">
           <rect id="button" ry="5" rx="5" y="6" x="6" height="38" width="38"
                fill="#f2f5e9" fill-opacity="0.5" stroke="#606060" stroke-width="1.0"/>
           <path id="arrow"
             d="M 11.500037,31.436501 C 11.940474,20.09759 22.043105,11.32322 32.158766,21.979434 L 37.068811,17.246167 C 37.068811,17.246167 37.088388,32 37.088388,32 L 22.160133,31.978069 C 22.160133,31.978069 26.997745,27.140456 26.997745,27.140456 C 18.528582,18.264221 13.291696,25.230495 11.500037,31.436501 z"
             style="fill:#404040;"/>
          </a>
         </g>
        </svg>
</svg>
