<?xml version="1.0" encoding="UTF-8" standalone="no"?>
<!DOCTYPE svg PUBLIC "-//W3C//DTD SVG 1.1//EN"
 "http://www.w3.org/Graphics/SVG/1.1/DTD/svg11.dtd">
<!-- Generated by graphviz version 2.40.1 (20161225.0304)
 -->
<!-- Title: mom_internal_tides::internal_tides_init Pages: 1 -->
<svg width="267pt" height="39pt"
 viewBox="0.00 0.00 267.00 39.00" xmlns="http://www.w3.org/2000/svg" xmlns:xlink="http://www.w3.org/1999/xlink">
<g id="graph0" class="graph" transform="scale(1 1) rotate(0) translate(4 35)">
<title>mom_internal_tides::internal_tides_init</title>
<polygon fill="#ffffff" stroke="transparent" points="-4,4 -4,-35 263,-35 263,4 -4,4"/>
<!-- Node1 -->
<g id="node1" class="node">
<title>Node1</title>
<g id="a_node1"><a xlink:title="This subroutine initializes the internal tides module.">
<polygon fill="#bfbfbf" stroke="#000000" points="150,-.5 150,-30.5 259,-30.5 259,-.5 150,-.5"/>
<text text-anchor="start" x="158" y="-18.5" font-family="Helvetica,sans-Serif" font-size="10.00" fill="#000000">mom_internal_tides</text>
<text text-anchor="middle" x="204.5" y="-7.5" font-family="Helvetica,sans-Serif" font-size="10.00" fill="#000000">::internal_tides_init</text>
</a>
</g>
</g>
<!-- Node2 -->
<g id="node2" class="node">
<title>Node2</title>
<g id="a_node2"><a xlink:href="namespacemom__diabatic__driver.html#a51d273bae7e5d2217fa5498620532888" target="_top" xlink:title="This routine initializes the diabatic driver module.">
<polygon fill="#ffffff" stroke="#000000" points="0,-.5 0,-30.5 114,-30.5 114,-.5 0,-.5"/>
<text text-anchor="start" x="8" y="-18.5" font-family="Helvetica,sans-Serif" font-size="10.00" fill="#000000">mom_diabatic_driver</text>
<text text-anchor="middle" x="57" y="-7.5" font-family="Helvetica,sans-Serif" font-size="10.00" fill="#000000">::diabatic_driver_init</text>
</a>
</g>
</g>
<!-- Node1&#45;&gt;Node2 -->
<g id="edge1" class="edge">
<title>Node1&#45;&gt;Node2</title>
<path fill="none" stroke="#191970" d="M139.7481,-15.5C131.256,-15.5 122.6024,-15.5 114.2467,-15.5"/>
<polygon fill="#191970" stroke="#191970" points="139.9955,-19.0001 149.9955,-15.5 139.9955,-12.0001 139.9955,-19.0001"/>
</g>
</g>
</svg>
