<?xml version="1.0" encoding="UTF-8" standalone="no"?>
<!DOCTYPE svg PUBLIC "-//W3C//DTD SVG 1.1//EN"
 "http://www.w3.org/Graphics/SVG/1.1/DTD/svg11.dtd">
<!-- Generated by graphviz version 2.40.1 (20161225.0304)
 -->
<!-- Title: rossby_front_2d_initialization::dtdy Pages: 1 -->
<svg width="732pt" height="50pt"
 viewBox="0.00 0.00 732.00 50.00" xmlns="http://www.w3.org/2000/svg" xmlns:xlink="http://www.w3.org/1999/xlink">
<g id="graph0" class="graph" transform="scale(1 1) rotate(0) translate(4 46)">
<title>rossby_front_2d_initialization::dtdy</title>
<polygon fill="#ffffff" stroke="transparent" points="-4,4 -4,-46 728,-46 728,4 -4,4"/>
<!-- Node1 -->
<g id="node1" class="node">
<title>Node1</title>
<g id="a_node1"><a xlink:title="Analytic prescription of mixed layer temperature gradient in 2d Rossby front test.">
<polygon fill="#bfbfbf" stroke="#000000" points="581,-6 581,-36 724,-36 724,-6 581,-6"/>
<text text-anchor="start" x="589" y="-24" font-family="Helvetica,sans-Serif" font-size="10.00" fill="#000000">rossby_front_2d_initialization</text>
<text text-anchor="middle" x="652.5" y="-13" font-family="Helvetica,sans-Serif" font-size="10.00" fill="#000000">::dtdy</text>
</a>
</g>
</g>
<!-- Node2 -->
<g id="node2" class="node">
<title>Node2</title>
<g id="a_node2"><a xlink:href="namespacerossby__front__2d__initialization.html#a4cdf99efb62134cf4ee9b3dac0b72205" target="_top" xlink:title="Initialization of u and v in the Rossby front test.">
<polygon fill="#ffffff" stroke="#000000" points="402,-.5 402,-41.5 545,-41.5 545,-.5 402,-.5"/>
<text text-anchor="start" x="410" y="-29.5" font-family="Helvetica,sans-Serif" font-size="10.00" fill="#000000">rossby_front_2d_initialization</text>
<text text-anchor="start" x="410" y="-18.5" font-family="Helvetica,sans-Serif" font-size="10.00" fill="#000000">::rossby_front_initialize</text>
<text text-anchor="middle" x="473.5" y="-7.5" font-family="Helvetica,sans-Serif" font-size="10.00" fill="#000000">_velocity</text>
</a>
</g>
</g>
<!-- Node1&#45;&gt;Node2 -->
<g id="edge1" class="edge">
<title>Node1&#45;&gt;Node2</title>
<path fill="none" stroke="#191970" d="M570.9572,-21C562.3619,-21 553.6679,-21 545.1958,-21"/>
<polygon fill="#191970" stroke="#191970" points="570.9828,-24.5001 580.9828,-21 570.9827,-17.5001 570.9828,-24.5001"/>
</g>
<!-- Node3 -->
<g id="node3" class="node">
<title>Node3</title>
<g id="a_node3"><a xlink:href="namespacemom__state__initialization.html#a81503d4f1855cb185f122d6314e4f06c" target="_top" xlink:title="Initialize temporally evolving fields, either as initial conditions or by reading them from a restart...">
<polygon fill="#ffffff" stroke="#000000" points="244,-6 244,-36 366,-36 366,-6 244,-6"/>
<text text-anchor="start" x="252" y="-24" font-family="Helvetica,sans-Serif" font-size="10.00" fill="#000000">mom_state_initialization</text>
<text text-anchor="middle" x="305" y="-13" font-family="Helvetica,sans-Serif" font-size="10.00" fill="#000000">::mom_initialize_state</text>
</a>
</g>
</g>
<!-- Node2&#45;&gt;Node3 -->
<g id="edge2" class="edge">
<title>Node2&#45;&gt;Node3</title>
<path fill="none" stroke="#191970" d="M391.5328,-21C382.9674,-21 374.3705,-21 366.0967,-21"/>
<polygon fill="#191970" stroke="#191970" points="391.5521,-24.5001 401.5521,-21 391.552,-17.5001 391.5521,-24.5001"/>
</g>
<!-- Node4 -->
<g id="node4" class="node">
<title>Node4</title>
<g id="a_node4"><a xlink:href="namespacemom.html#a96708b16215666edbfa5b46228f3a200" target="_top" xlink:title="Initialize MOM, including memory allocation, setting up parameters and diagnostics,...">
<polygon fill="#ffffff" stroke="#000000" points="101,-11.5 101,-30.5 208,-30.5 208,-11.5 101,-11.5"/>
<text text-anchor="middle" x="154.5" y="-18.5" font-family="Helvetica,sans-Serif" font-size="10.00" fill="#000000">mom::initialize_mom</text>
</a>
</g>
</g>
<!-- Node3&#45;&gt;Node4 -->
<g id="edge3" class="edge">
<title>Node3&#45;&gt;Node4</title>
<path fill="none" stroke="#191970" d="M233.5343,-21C225.0802,-21 216.5623,-21 208.4089,-21"/>
<polygon fill="#191970" stroke="#191970" points="233.7859,-24.5001 243.7859,-21 233.7859,-17.5001 233.7859,-24.5001"/>
</g>
<!-- Node5 -->
<g id="node5" class="node">
<title>Node5</title>
<g id="a_node5"><a xlink:href="MOM__driver_8F90.html#a08fffeb2d8e8acbf9ed4609be6d258c6" target="_top" xlink:title=" ">
<polygon fill="#ffffff" stroke="#000000" points="0,-11.5 0,-30.5 65,-30.5 65,-11.5 0,-11.5"/>
<text text-anchor="middle" x="32.5" y="-18.5" font-family="Helvetica,sans-Serif" font-size="10.00" fill="#000000">mom_main</text>
</a>
</g>
</g>
<!-- Node4&#45;&gt;Node5 -->
<g id="edge4" class="edge">
<title>Node4&#45;&gt;Node5</title>
<path fill="none" stroke="#191970" d="M90.9603,-21C82.0691,-21 73.2499,-21 65.2602,-21"/>
<polygon fill="#191970" stroke="#191970" points="90.9891,-24.5001 100.989,-21 90.989,-17.5001 90.9891,-24.5001"/>
</g>
</g>
</svg>
