<?xml version="1.0" encoding="UTF-8" standalone="no"?>
<!DOCTYPE svg PUBLIC "-//W3C//DTD SVG 1.1//EN"
 "http://www.w3.org/Graphics/SVG/1.1/DTD/svg11.dtd">
<!-- Generated by graphviz version 2.40.1 (20161225.0304)
 -->
<!-- Title: mom_boundary_update::update_obc_data Pages: 1 -->
<svg width="323pt" height="137pt"
 viewBox="0.00 0.00 323.00 137.00" xmlns="http://www.w3.org/2000/svg" xmlns:xlink="http://www.w3.org/1999/xlink">
<g id="graph0" class="graph" transform="scale(1 1) rotate(0) translate(4 133)">
<title>mom_boundary_update::update_obc_data</title>
<polygon fill="#ffffff" stroke="transparent" points="-4,4 -4,-133 319,-133 319,4 -4,4"/>
<!-- Node1 -->
<g id="node1" class="node">
<title>Node1</title>
<g id="a_node1"><a xlink:title="Calls appropriate routine to update the open boundary conditions.">
<polygon fill="#bfbfbf" stroke="#000000" points="197,-49.5 197,-79.5 315,-79.5 315,-49.5 197,-49.5"/>
<text text-anchor="start" x="205" y="-67.5" font-family="Helvetica,sans-Serif" font-size="10.00" fill="#000000">mom_boundary_update</text>
<text text-anchor="middle" x="256" y="-56.5" font-family="Helvetica,sans-Serif" font-size="10.00" fill="#000000">::update_obc_data</text>
</a>
</g>
</g>
<!-- Node2 -->
<g id="node2" class="node">
<title>Node2</title>
<g id="a_node2"><a xlink:href="namespacemom__dynamics__split__rk2.html#a976e700971f232fc11bc69b31d611c32" target="_top" xlink:title="RK2 splitting for time stepping MOM adiabatic dynamics.">
<polygon fill="#ffffff" stroke="#000000" points="5.5,-98.5 5.5,-128.5 155.5,-128.5 155.5,-98.5 5.5,-98.5"/>
<text text-anchor="start" x="13.5" y="-116.5" font-family="Helvetica,sans-Serif" font-size="10.00" fill="#000000">mom_dynamics_split</text>
<text text-anchor="middle" x="80.5" y="-105.5" font-family="Helvetica,sans-Serif" font-size="10.00" fill="#000000">_rk2::step_mom_dyn_split_rk2</text>
</a>
</g>
</g>
<!-- Node1&#45;&gt;Node2 -->
<g id="edge1" class="edge">
<title>Node1&#45;&gt;Node2</title>
<path fill="none" stroke="#191970" d="M192.1708,-82.3212C173.2221,-87.6118 152.6622,-93.3522 134.4092,-98.4484"/>
<polygon fill="#191970" stroke="#191970" points="193.2218,-85.6618 201.9122,-79.6014 191.3393,-78.9196 193.2218,-85.6618"/>
</g>
<!-- Node3 -->
<g id="node3" class="node">
<title>Node3</title>
<g id="a_node3"><a xlink:href="namespacemom__dynamics__unsplit.html#ab72d911d187f9247b6cc72d87e815370" target="_top" xlink:title="Step the MOM6 dynamics using an unsplit mixed 2nd order (for continuity) and 3rd order (for the invis...">
<polygon fill="#ffffff" stroke="#000000" points="19,-49.5 19,-79.5 142,-79.5 142,-49.5 19,-49.5"/>
<text text-anchor="start" x="27" y="-67.5" font-family="Helvetica,sans-Serif" font-size="10.00" fill="#000000">mom_dynamics_unsplit</text>
<text text-anchor="middle" x="80.5" y="-56.5" font-family="Helvetica,sans-Serif" font-size="10.00" fill="#000000">::step_mom_dyn_unsplit</text>
</a>
</g>
</g>
<!-- Node1&#45;&gt;Node3 -->
<g id="edge2" class="edge">
<title>Node1&#45;&gt;Node3</title>
<path fill="none" stroke="#191970" d="M186.5826,-64.5C171.9414,-64.5 156.5875,-64.5 142.2513,-64.5"/>
<polygon fill="#191970" stroke="#191970" points="186.5837,-68.0001 196.5837,-64.5 186.5837,-61.0001 186.5837,-68.0001"/>
</g>
<!-- Node4 -->
<g id="node4" class="node">
<title>Node4</title>
<g id="a_node4"><a xlink:href="namespacemom__dynamics__unsplit__rk2.html#a25424d65cc3339442e528c0a92b173a3" target="_top" xlink:title="Step the MOM6 dynamics using an unsplit quasi&#45;2nd order Runge&#45;Kutta scheme.">
<polygon fill="#ffffff" stroke="#000000" points="0,-.5 0,-30.5 161,-30.5 161,-.5 0,-.5"/>
<text text-anchor="start" x="8" y="-18.5" font-family="Helvetica,sans-Serif" font-size="10.00" fill="#000000">mom_dynamics_unsplit</text>
<text text-anchor="middle" x="80.5" y="-7.5" font-family="Helvetica,sans-Serif" font-size="10.00" fill="#000000">_rk2::step_mom_dyn_unsplit_rk2</text>
</a>
</g>
</g>
<!-- Node1&#45;&gt;Node4 -->
<g id="edge3" class="edge">
<title>Node1&#45;&gt;Node4</title>
<path fill="none" stroke="#191970" d="M192.1708,-46.6788C173.2221,-41.3882 152.6622,-35.6478 134.4092,-30.5516"/>
<polygon fill="#191970" stroke="#191970" points="191.3393,-50.0804 201.9122,-49.3986 193.2218,-43.3382 191.3393,-50.0804"/>
</g>
</g>
</svg>
