<?xml version="1.0" encoding="UTF-8" standalone="no"?>
<!DOCTYPE svg PUBLIC "-//W3C//DTD SVG 1.1//EN"
 "http://www.w3.org/Graphics/SVG/1.1/DTD/svg11.dtd">
<!-- Generated by graphviz version 2.40.1 (20161225.0304)
 -->
<!-- Title: oil_tracer::initialize_oil_tracer Pages: 1 -->
<!--zoomable 239 -->
<svg id="main" version="1.1" xmlns="http://www.w3.org/2000/svg" xmlns:xlink="http://www.w3.org/1999/xlink" xml:space="preserve" onload="init(evt)">
<style type="text/css"><![CDATA[
.edge:hover path { stroke: red; }
.edge:hover polygon { stroke: red; fill: red; }
]]></style>
<script type="text/javascript"><![CDATA[
var edges = document.getElementsByTagName('g');
if (edges && edges.length) {
  for (var i=0;i<edges.length;i++) {
    if (edges[i].id.substr(0,4)=='edge') {
      edges[i].setAttribute('class','edge');
    }
  }
}
]]></script>
        <defs>
                <circle id="rim" cx="0" cy="0" r="7"/>
                <circle id="rim2" cx="0" cy="0" r="3.5"/>
                <g id="zoomPlus">
                        <use xlink:href="#rim" fill="#404040">
                                <set attributeName="fill" to="#808080" begin="zoomplus.mouseover" end="zoomplus.mouseout"/>
                        </use>
                        <path d="M-4,0h8M0,-4v8" fill="none" stroke="white" stroke-width="1.5" pointer-events="none"/>
                </g>
                <g id="zoomMin">
                        <use xlink:href="#rim" fill="#404040">
                                <set attributeName="fill" to="#808080" begin="zoomminus.mouseover" end="zoomminus.mouseout"/>
                        </use>
                        <path d="M-4,0h8" fill="none" stroke="white" stroke-width="1.5" pointer-events="none"/>
                </g>
                <g id="dirArrow">
                        <path fill="none" stroke="white" stroke-width="1.5" d="M0,-3.0v7 M-2.5,-0.5L0,-3.0L2.5,-0.5"/>
                </g>
               <g id="resetDef">
                       <use xlink:href="#rim2" fill="#404040">
                               <set attributeName="fill" to="#808080" begin="reset.mouseover" end="reset.mouseout"/>
                       </use>
               </g>
        </defs>

<script type="text/javascript">
var viewWidth = 752;
var viewHeight = 239;
var sectionId = 'dynsection-0';
</script>
<script xlink:href="svgpan.js"/>
<svg id="graph" class="graph">
<g id="viewport">
<title>oil_tracer::initialize_oil_tracer</title>
<polygon fill="#ffffff" stroke="transparent" points="-4,4 -4,-235.3921 748,-235.3921 748,4 -4,4"/>
<!-- Node1 -->
<g id="node1" class="node">
<title>Node1</title>
<g id="a_node1"><a xlink:title="Initialize the oil tracers and set up tracer output.">
<polygon fill="#bfbfbf" stroke="#000000" points="0,-180.5 0,-210.5 103,-210.5 103,-180.5 0,-180.5"/>
<text text-anchor="start" x="8" y="-198.5" font-family="Helvetica,sans-Serif" font-size="10.00" fill="#000000">oil_tracer::initialize</text>
<text text-anchor="middle" x="51.5" y="-187.5" font-family="Helvetica,sans-Serif" font-size="10.00" fill="#000000">_oil_tracer</text>
</a>
</g>
</g>
<!-- Node2 -->
<g id="node2" class="node">
<title>Node2</title>
<g id="a_node2"><a xlink:href="namespacemom__error__handler.html#a460cfb79a06c29fc249952c2a3710d67" target="_top" xlink:title="This provides a convenient interface for writing an mpp_error message with run&#45;time filter based on a...">
<polygon fill="#ffffff" stroke="#000000" points="478,-142.5 478,-172.5 593,-172.5 593,-142.5 478,-142.5"/>
<text text-anchor="start" x="486" y="-160.5" font-family="Helvetica,sans-Serif" font-size="10.00" fill="#000000">mom_error_handler::</text>
<text text-anchor="middle" x="535.5" y="-149.5" font-family="Helvetica,sans-Serif" font-size="10.00" fill="#000000">mom_error</text>
</a>
</g>
</g>
<!-- Node1&#45;&gt;Node2 -->
<g id="edge1" class="edge">
<title>Node1&#45;&gt;Node2</title>
<path fill="none" stroke="#191970" d="M103.214,-208.262C179.1018,-224.7168 324.3732,-247.5275 442,-214.5 466.8526,-207.5218 491.6451,-191.9109 509.4498,-178.7877"/>
<polygon fill="#191970" stroke="#191970" points="511.7552,-181.4318 517.5986,-172.5941 507.5193,-175.8588 511.7552,-181.4318"/>
</g>
<!-- Node4 -->
<g id="node4" class="node">
<title>Node4</title>
<g id="a_node4"><a xlink:href="namespacemom__io.html#aa583d22dfaf16e3157b2741d838f5240" target="_top" xlink:title="This routine queries vardesc.">
<polygon fill="#ffffff" stroke="#000000" points="139,-186 139,-205 267,-205 267,-186 139,-186"/>
<text text-anchor="middle" x="203" y="-193" font-family="Helvetica,sans-Serif" font-size="10.00" fill="#000000">mom_io::query_vardesc</text>
</a>
</g>
</g>
<!-- Node1&#45;&gt;Node4 -->
<g id="edge3" class="edge">
<title>Node1&#45;&gt;Node4</title>
<path fill="none" stroke="#191970" d="M103.214,-195.5C111.4698,-195.5 120.1506,-195.5 128.8044,-195.5"/>
<polygon fill="#191970" stroke="#191970" points="128.9237,-199.0001 138.9236,-195.5 128.9236,-192.0001 128.9237,-199.0001"/>
</g>
<!-- Node6 -->
<g id="node6" class="node">
<title>Node6</title>
<g id="a_node6"><a xlink:href="namespacemom__tracer__z__init.html#aef33387149983391f1ea92bad7344360" target="_top" xlink:title="This function initializes a tracer by reading a Z&#45;space file, returning .true. if this appears to hav...">
<polygon fill="#ffffff" stroke="#000000" points="149,-98.5 149,-128.5 257,-128.5 257,-98.5 149,-98.5"/>
<text text-anchor="start" x="157" y="-116.5" font-family="Helvetica,sans-Serif" font-size="10.00" fill="#000000">mom_tracer_z_init::</text>
<text text-anchor="middle" x="203" y="-105.5" font-family="Helvetica,sans-Serif" font-size="10.00" fill="#000000">tracer_z_init</text>
</a>
</g>
</g>
<!-- Node1&#45;&gt;Node6 -->
<g id="edge6" class="edge">
<title>Node1&#45;&gt;Node6</title>
<path fill="none" stroke="#191970" d="M79.2874,-180.4599C103.6635,-167.2663 139.2961,-147.98 166.0663,-133.4905"/>
<polygon fill="#191970" stroke="#191970" points="168.0042,-136.4215 175.1326,-128.5833 164.6721,-130.2654 168.0042,-136.4215"/>
</g>
<!-- Node3 -->
<g id="node3" class="node">
<title>Node3</title>
<g id="a_node3"><a xlink:href="namespacemom__error__handler.html#ad5f00a53059c72fe2332d1436c80ca71" target="_top" xlink:title="This returns .true. if the current PE is the root PE.">
<polygon fill="#ffffff" stroke="#000000" points="629,-71.5 629,-101.5 744,-101.5 744,-71.5 629,-71.5"/>
<text text-anchor="start" x="637" y="-89.5" font-family="Helvetica,sans-Serif" font-size="10.00" fill="#000000">mom_error_handler::</text>
<text text-anchor="middle" x="686.5" y="-78.5" font-family="Helvetica,sans-Serif" font-size="10.00" fill="#000000">is_root_pe</text>
</a>
</g>
</g>
<!-- Node2&#45;&gt;Node3 -->
<g id="edge2" class="edge">
<title>Node2&#45;&gt;Node3</title>
<path fill="none" stroke="#191970" d="M567.5232,-142.4427C590.2456,-131.7587 620.9378,-117.3273 645.4573,-105.7982"/>
<polygon fill="#191970" stroke="#191970" points="646.9627,-108.9581 654.5229,-101.5356 643.9841,-102.6234 646.9627,-108.9581"/>
</g>
<!-- Node5 -->
<g id="node5" class="node">
<title>Node5</title>
<g id="a_node5"><a xlink:href="namespacemom__io.html#ac4bc408e8b38dbd669842753f26ebf88" target="_top" xlink:title="Copies a string.">
<polygon fill="#ffffff" stroke="#000000" points="303,-186 303,-205 442,-205 442,-186 303,-186"/>
<text text-anchor="middle" x="372.5" y="-193" font-family="Helvetica,sans-Serif" font-size="10.00" fill="#000000">mom_io::safe_string_copy</text>
</a>
</g>
</g>
<!-- Node4&#45;&gt;Node5 -->
<g id="edge4" class="edge">
<title>Node4&#45;&gt;Node5</title>
<path fill="none" stroke="#191970" d="M267.0807,-195.5C275.5034,-195.5 284.2163,-195.5 292.858,-195.5"/>
<polygon fill="#191970" stroke="#191970" points="292.9484,-199.0001 302.9484,-195.5 292.9483,-192.0001 292.9484,-199.0001"/>
</g>
<!-- Node5&#45;&gt;Node2 -->
<g id="edge5" class="edge">
<title>Node5&#45;&gt;Node2</title>
<path fill="none" stroke="#191970" d="M413.6318,-185.911C430.1002,-182.0717 449.5105,-177.5466 467.9407,-173.25"/>
<polygon fill="#191970" stroke="#191970" points="468.8157,-176.64 477.7599,-170.9609 467.2264,-169.8228 468.8157,-176.64"/>
</g>
<!-- Node6&#45;&gt;Node2 -->
<g id="edge9" class="edge">
<title>Node6&#45;&gt;Node2</title>
<path fill="none" stroke="#191970" d="M257.1954,-128.0695C271.9625,-131.6105 288.0195,-135.072 303,-137.5 358.0262,-146.4184 421.0665,-151.5275 467.6102,-154.3458"/>
<polygon fill="#191970" stroke="#191970" points="467.6894,-157.8564 477.8769,-154.9466 468.0984,-150.8683 467.6894,-157.8564"/>
</g>
<!-- Node7 -->
<g id="node7" class="node">
<title>Node7</title>
<g id="a_node7"><a xlink:href="namespacemom__tracer__z__init.html#a226f9ae9c2532e8d7047e6bf5680bd7a" target="_top" xlink:title="This subroutine determines a limited slope for val to be advected with a piecewise limited scheme.">
<polygon fill="#ffffff" stroke="#000000" points="318.5,-98.5 318.5,-128.5 426.5,-128.5 426.5,-98.5 318.5,-98.5"/>
<text text-anchor="start" x="326.5" y="-116.5" font-family="Helvetica,sans-Serif" font-size="10.00" fill="#000000">mom_tracer_z_init::</text>
<text text-anchor="middle" x="372.5" y="-105.5" font-family="Helvetica,sans-Serif" font-size="10.00" fill="#000000">find_limited_slope</text>
</a>
</g>
</g>
<!-- Node6&#45;&gt;Node7 -->
<g id="edge7" class="edge">
<title>Node6&#45;&gt;Node7</title>
<path fill="none" stroke="#191970" d="M257.0969,-113.5C273.304,-113.5 291.2396,-113.5 308.0442,-113.5"/>
<polygon fill="#191970" stroke="#191970" points="308.3357,-117.0001 318.3357,-113.5 308.3356,-110.0001 308.3357,-117.0001"/>
</g>
<!-- Node8 -->
<g id="node8" class="node">
<title>Node8</title>
<g id="a_node8"><a xlink:href="namespacemom__tracer__z__init.html#a4cfb4818fc391a8d95ce737c06662d25" target="_top" xlink:title="Determines the layers bounded by interfaces e that overlap with the depth range between Z_top and Z_b...">
<polygon fill="#ffffff" stroke="#000000" points="318.5,-49.5 318.5,-79.5 426.5,-79.5 426.5,-49.5 318.5,-49.5"/>
<text text-anchor="start" x="326.5" y="-67.5" font-family="Helvetica,sans-Serif" font-size="10.00" fill="#000000">mom_tracer_z_init::</text>
<text text-anchor="middle" x="372.5" y="-56.5" font-family="Helvetica,sans-Serif" font-size="10.00" fill="#000000">find_overlap</text>
</a>
</g>
</g>
<!-- Node6&#45;&gt;Node8 -->
<g id="edge8" class="edge">
<title>Node6&#45;&gt;Node8</title>
<path fill="none" stroke="#191970" d="M255.2387,-98.3986C272.8011,-93.3215 292.5591,-87.6098 310.7802,-82.3423"/>
<polygon fill="#191970" stroke="#191970" points="311.7992,-85.6911 320.4338,-79.5516 309.8552,-78.9665 311.7992,-85.6911"/>
</g>
<!-- Node9 -->
<g id="node9" class="node">
<title>Node9</title>
<g id="a_node9"><a xlink:href="namespacemom__tracer__z__init.html#a9f9a4d16dbd230d126b3f4d255071ad8" target="_top" xlink:title="This subroutine reads the vertical coordinate data for a field from a NetCDF file....">
<polygon fill="#ffffff" stroke="#000000" points="318.5,-.5 318.5,-30.5 426.5,-30.5 426.5,-.5 318.5,-.5"/>
<text text-anchor="start" x="326.5" y="-18.5" font-family="Helvetica,sans-Serif" font-size="10.00" fill="#000000">mom_tracer_z_init::</text>
<text text-anchor="middle" x="372.5" y="-7.5" font-family="Helvetica,sans-Serif" font-size="10.00" fill="#000000">read_z_edges</text>
</a>
</g>
</g>
<!-- Node6&#45;&gt;Node9 -->
<g id="edge10" class="edge">
<title>Node6&#45;&gt;Node9</title>
<path fill="none" stroke="#191970" d="M219.972,-98.3915C239.0421,-82.0478 271.47,-56.1071 303,-39.5 306.3,-37.7618 309.7522,-36.1078 313.2786,-34.5413"/>
<polygon fill="#191970" stroke="#191970" points="314.8492,-37.6787 322.7337,-30.6017 312.1568,-31.2171 314.8492,-37.6787"/>
</g>
<!-- Node9&#45;&gt;Node2 -->
<g id="edge11" class="edge">
<title>Node9&#45;&gt;Node2</title>
<path fill="none" stroke="#191970" d="M426.4602,-30.5197C431.9425,-33.0898 437.2375,-36.0651 442,-39.5 463.341,-54.8918 461.7186,-65.8297 478,-86.5 490.6795,-102.5974 505.2048,-120.5289 516.484,-134.344"/>
<polygon fill="#191970" stroke="#191970" points="514.0012,-136.8367 523.042,-142.3608 519.4193,-132.4045 514.0012,-136.8367"/>
</g>
<!-- Node10 -->
<g id="node10" class="node">
<title>Node10</title>
<g id="a_node10"><a xlink:href="namespacemom__error__handler.html#a1c462df7b61f1296407b4af51dfeceab" target="_top" xlink:title="This provides a convenient interface for writing an informative comment.">
<polygon fill="#ffffff" stroke="#000000" points="478,-47.5 478,-77.5 593,-77.5 593,-47.5 478,-47.5"/>
<text text-anchor="start" x="486" y="-65.5" font-family="Helvetica,sans-Serif" font-size="10.00" fill="#000000">mom_error_handler::</text>
<text text-anchor="middle" x="535.5" y="-54.5" font-family="Helvetica,sans-Serif" font-size="10.00" fill="#000000">mom_mesg</text>
</a>
</g>
</g>
<!-- Node9&#45;&gt;Node10 -->
<g id="edge12" class="edge">
<title>Node9&#45;&gt;Node10</title>
<path fill="none" stroke="#191970" d="M424.5224,-30.5003C440.108,-34.9943 457.3558,-39.9676 473.5159,-44.6273"/>
<polygon fill="#191970" stroke="#191970" points="472.8345,-48.0733 483.4128,-47.481 474.774,-41.3474 472.8345,-48.0733"/>
</g>
<!-- Node10&#45;&gt;Node3 -->
<g id="edge13" class="edge">
<title>Node10&#45;&gt;Node3</title>
<path fill="none" stroke="#191970" d="M593.0174,-71.6418C601.4639,-72.9843 610.2292,-74.3775 618.8561,-75.7487"/>
<polygon fill="#191970" stroke="#191970" points="618.4671,-79.2307 628.8925,-77.3438 619.5659,-72.3174 618.4671,-79.2307"/>
</g>
</g>
</svg>
        <g id="navigator" transform="translate(0 0)" fill="#404254">
                <rect fill="#f2f5e9" fill-opacity="0.5" stroke="#606060" stroke-width=".5" x="0" y="0" width="60" height="60"/>
                <use id="zoomplus" xlink:href="#zoomPlus" x="17" y="9" onmousedown="handleZoom(evt,'in')"/>
                <use id="zoomminus" xlink:href="#zoomMin" x="42" y="9" onmousedown="handleZoom(evt,'out')"/>
                <use id="reset" xlink:href="#resetDef" x="30" y="36" onmousedown="handleReset()"/>
                <g id="arrowUp" xlink:href="#dirArrow" transform="translate(30 24)" onmousedown="handlePan(0,-1)">
                  <use xlink:href="#rim" fill="#404040">
                        <set attributeName="fill" to="#808080" begin="arrowUp.mouseover" end="arrowUp.mouseout"/>
                  </use>
                  <path fill="none" stroke="white" stroke-width="1.5" d="M0,-3.0v7 M-2.5,-0.5L0,-3.0L2.5,-0.5"/>
                </g>
                <g id="arrowRight" xlink:href="#dirArrow" transform="rotate(90) translate(36 -43)" onmousedown="handlePan(1,0)">
                  <use xlink:href="#rim" fill="#404040">
                        <set attributeName="fill" to="#808080" begin="arrowRight.mouseover" end="arrowRight.mouseout"/>
                  </use>
                  <path fill="none" stroke="white" stroke-width="1.5" d="M0,-3.0v7 M-2.5,-0.5L0,-3.0L2.5,-0.5"/>
                </g>
                <g id="arrowDown" xlink:href="#dirArrow" transform="rotate(180) translate(-30 -48)" onmousedown="handlePan(0,1)">
                  <use xlink:href="#rim" fill="#404040">
                        <set attributeName="fill" to="#808080" begin="arrowDown.mouseover" end="arrowDown.mouseout"/>
                  </use>
                  <path fill="none" stroke="white" stroke-width="1.5" d="M0,-3.0v7 M-2.5,-0.5L0,-3.0L2.5,-0.5"/>
                </g>
                <g id="arrowLeft" xlink:href="#dirArrow" transform="rotate(270) translate(-36 17)" onmousedown="handlePan(-1,0)">
                  <use xlink:href="#rim" fill="#404040">
                        <set attributeName="fill" to="#808080" begin="arrowLeft.mouseover" end="arrowLeft.mouseout"/>
                  </use>
                  <path fill="none" stroke="white" stroke-width="1.5" d="M0,-3.0v7 M-2.5,-0.5L0,-3.0L2.5,-0.5"/>
                </g>
        </g>
        <svg viewBox="0 0 15 15" width="100%" height="30px" preserveAspectRatio="xMaxYMin meet">
         <g id="arrow_out" transform="scale(0.3 0.3)">
          <a xlink:href="namespaceoil__tracer_a3cb362789ef0ea593f8b7de22016a92e_cgraph_org.svg" target="_base">
           <rect id="button" ry="5" rx="5" y="6" x="6" height="38" width="38"
                fill="#f2f5e9" fill-opacity="0.5" stroke="#606060" stroke-width="1.0"/>
           <path id="arrow"
             d="M 11.500037,31.436501 C 11.940474,20.09759 22.043105,11.32322 32.158766,21.979434 L 37.068811,17.246167 C 37.068811,17.246167 37.088388,32 37.088388,32 L 22.160133,31.978069 C 22.160133,31.978069 26.997745,27.140456 26.997745,27.140456 C 18.528582,18.264221 13.291696,25.230495 11.500037,31.436501 z"
             style="fill:#404040;"/>
          </a>
         </g>
        </svg>
</svg>
