<?xml version="1.0" encoding="UTF-8" standalone="no"?>
<!DOCTYPE svg PUBLIC "-//W3C//DTD SVG 1.1//EN"
 "http://www.w3.org/Graphics/SVG/1.1/DTD/svg11.dtd">
<!-- Generated by graphviz version 2.40.1 (20161225.0304)
 -->
<!-- Title: mom_checksums::chksum_pair_h_3d Pages: 1 -->
<svg width="845pt" height="204pt"
 viewBox="0.00 0.00 845.00 203.50" xmlns="http://www.w3.org/2000/svg" xmlns:xlink="http://www.w3.org/1999/xlink">
<g id="graph0" class="graph" transform="scale(1 1) rotate(0) translate(4 199.5)">
<title>mom_checksums::chksum_pair_h_3d</title>
<polygon fill="#ffffff" stroke="transparent" points="-4,4 -4,-199.5 841,-199.5 841,4 -4,4"/>
<!-- Node1 -->
<g id="node1" class="node">
<title>Node1</title>
<g id="a_node1"><a xlink:title="Checksums on a pair of 3d arrays staggered at tracer points.">
<polygon fill="#bfbfbf" stroke="#000000" points="0,-77 0,-107 137,-107 137,-77 0,-77"/>
<text text-anchor="start" x="8" y="-95" font-family="Helvetica,sans-Serif" font-size="10.00" fill="#000000">mom_checksums::chksum</text>
<text text-anchor="middle" x="68.5" y="-84" font-family="Helvetica,sans-Serif" font-size="10.00" fill="#000000">_pair_h_3d</text>
</a>
</g>
</g>
<!-- Node2 -->
<g id="node2" class="node">
<title>Node2</title>
<g id="a_node2"><a xlink:href="namespacemom__checksums.html#a656dc8f5cc5bdb1ab2ffbf164cfc4e5c" target="_top" xlink:title="Checksums a 3d array staggered at tracer points.">
<polygon fill="#ffffff" stroke="#000000" points="173,-82.5 173,-101.5 340,-101.5 340,-82.5 173,-82.5"/>
<text text-anchor="middle" x="256.5" y="-89.5" font-family="Helvetica,sans-Serif" font-size="10.00" fill="#000000">mom_checksums::chksum_h_3d</text>
</a>
</g>
</g>
<!-- Node1&#45;&gt;Node2 -->
<g id="edge1" class="edge">
<title>Node1&#45;&gt;Node2</title>
<path fill="none" stroke="#191970" d="M137.1703,-92C145.5388,-92 154.1966,-92 162.8505,-92"/>
<polygon fill="#191970" stroke="#191970" points="162.9901,-95.5001 172.99,-92 162.99,-88.5001 162.9901,-95.5001"/>
</g>
<!-- Node3 -->
<g id="node3" class="node">
<title>Node3</title>
<g id="a_node3"><a xlink:href="namespacemom__checksums.html#a2bbf928379ba9abdc67a2f6f93ea8c34" target="_top" xlink:title="Write a message including checksums of non&#45;shifted and laterally shifted arrays.">
<polygon fill="#ffffff" stroke="#000000" points="558.5,-165 558.5,-195 676.5,-195 676.5,-165 558.5,-165"/>
<text text-anchor="start" x="566.5" y="-183" font-family="Helvetica,sans-Serif" font-size="10.00" fill="#000000">mom_checksums::chk</text>
<text text-anchor="middle" x="617.5" y="-172" font-family="Helvetica,sans-Serif" font-size="10.00" fill="#000000">_sum_msg_nsew</text>
</a>
</g>
</g>
<!-- Node2&#45;&gt;Node3 -->
<g id="edge2" class="edge">
<title>Node2&#45;&gt;Node3</title>
<path fill="none" stroke="#191970" d="M272.0587,-101.6279C294.2409,-114.861 336.6388,-138.3515 376,-150 432.5443,-166.7337 499.2175,-174.1382 548.1673,-177.4122"/>
<polygon fill="#191970" stroke="#191970" points="548.1341,-180.9169 558.3336,-178.05 548.5724,-173.9306 548.1341,-180.9169"/>
</g>
<!-- Node4 -->
<g id="node4" class="node">
<title>Node4</title>
<g id="a_node4"><a xlink:href="namespacemom__error__handler.html#ad5f00a53059c72fe2332d1436c80ca71" target="_top" xlink:title="This returns .true. if the current PE is the root PE.">
<polygon fill="#ffffff" stroke="#000000" points="722,-121 722,-151 837,-151 837,-121 722,-121"/>
<text text-anchor="start" x="730" y="-139" font-family="Helvetica,sans-Serif" font-size="10.00" fill="#000000">mom_error_handler::</text>
<text text-anchor="middle" x="779.5" y="-128" font-family="Helvetica,sans-Serif" font-size="10.00" fill="#000000">is_root_pe</text>
</a>
</g>
</g>
<!-- Node2&#45;&gt;Node4 -->
<g id="edge7" class="edge">
<title>Node2&#45;&gt;Node4</title>
<path fill="none" stroke="#191970" d="M294.4488,-101.5522C317.8098,-107.0288 348.456,-113.493 376,-117 493.1787,-131.9196 630.8391,-135.4315 711.301,-136.0885"/>
<polygon fill="#191970" stroke="#191970" points="711.762,-139.5916 721.7858,-136.1605 711.8101,-132.5918 711.762,-139.5916"/>
</g>
<!-- Node5 -->
<g id="node5" class="node">
<title>Node5</title>
<g id="a_node5"><a xlink:href="namespacemom__checksums.html#a6400a8423305b77e4aed5d1cb4c24520" target="_top" xlink:title="A wrapper for MOM_error used in the checksum code.">
<polygon fill="#ffffff" stroke="#000000" points="376,-77 376,-107 513,-107 513,-77 376,-77"/>
<text text-anchor="start" x="384" y="-95" font-family="Helvetica,sans-Serif" font-size="10.00" fill="#000000">mom_checksums::chksum</text>
<text text-anchor="middle" x="444.5" y="-84" font-family="Helvetica,sans-Serif" font-size="10.00" fill="#000000">_error</text>
</a>
</g>
</g>
<!-- Node2&#45;&gt;Node5 -->
<g id="edge4" class="edge">
<title>Node2&#45;&gt;Node5</title>
<path fill="none" stroke="#191970" d="M340.0544,-92C348.5601,-92 357.1814,-92 365.635,-92"/>
<polygon fill="#191970" stroke="#191970" points="365.8443,-95.5001 375.8442,-92 365.8442,-88.5001 365.8443,-95.5001"/>
</g>
<!-- Node7 -->
<g id="node7" class="node">
<title>Node7</title>
<g id="a_node7"><a xlink:href="MOM__checksums_8F90.html#a9a7c036cc3f0557b0ca26ff97aa2ad1b" target="_top" xlink:title=" ">
<polygon fill="#ffffff" stroke="#000000" points="420,-38.5 420,-57.5 469,-57.5 469,-38.5 420,-38.5"/>
<text text-anchor="middle" x="444.5" y="-45.5" font-family="Helvetica,sans-Serif" font-size="10.00" fill="#000000">subchk</text>
</a>
</g>
</g>
<!-- Node2&#45;&gt;Node7 -->
<g id="edge8" class="edge">
<title>Node2&#45;&gt;Node7</title>
<path fill="none" stroke="#191970" d="M297.2932,-82.4527C331.0097,-74.5616 378.3439,-63.4834 410.1508,-56.0392"/>
<polygon fill="#191970" stroke="#191970" points="410.9559,-59.4454 419.8951,-53.7586 409.3606,-52.6296 410.9559,-59.4454"/>
</g>
<!-- Node9 -->
<g id="node9" class="node">
<title>Node9</title>
<g id="a_node9"><a xlink:href="MOM__checksums_8F90.html#ad399546f73e634377973802b3dc64d28" target="_top" xlink:title=" ">
<polygon fill="#ffffff" stroke="#000000" points="417,-.5 417,-19.5 472,-19.5 472,-.5 417,-.5"/>
<text text-anchor="middle" x="444.5" y="-7.5" font-family="Helvetica,sans-Serif" font-size="10.00" fill="#000000">substats</text>
</a>
</g>
</g>
<!-- Node2&#45;&gt;Node9 -->
<g id="edge10" class="edge">
<title>Node2&#45;&gt;Node9</title>
<path fill="none" stroke="#191970" d="M272.2146,-82.3078C294.582,-68.8435 337.1986,-44.402 376,-29 385.8075,-25.107 396.7047,-21.695 406.8698,-18.877"/>
<polygon fill="#191970" stroke="#191970" points="407.9563,-22.2099 416.7234,-16.2612 406.1601,-15.4443 407.9563,-22.2099"/>
</g>
<!-- Node3&#45;&gt;Node4 -->
<g id="edge3" class="edge">
<title>Node3&#45;&gt;Node4</title>
<path fill="none" stroke="#191970" d="M672.7981,-164.9808C686.1483,-161.3548 700.5377,-157.4466 714.2947,-153.7101"/>
<polygon fill="#191970" stroke="#191970" points="715.4433,-157.025 724.1762,-151.0262 713.6085,-150.2697 715.4433,-157.025"/>
</g>
<!-- Node6 -->
<g id="node6" class="node">
<title>Node6</title>
<g id="a_node6"><a xlink:href="namespacemom__error__handler.html#a460cfb79a06c29fc249952c2a3710d67" target="_top" xlink:title="This provides a convenient interface for writing an mpp_error message with run&#45;time filter based on a...">
<polygon fill="#ffffff" stroke="#000000" points="560,-77 560,-107 675,-107 675,-77 560,-77"/>
<text text-anchor="start" x="568" y="-95" font-family="Helvetica,sans-Serif" font-size="10.00" fill="#000000">mom_error_handler::</text>
<text text-anchor="middle" x="617.5" y="-84" font-family="Helvetica,sans-Serif" font-size="10.00" fill="#000000">mom_error</text>
</a>
</g>
</g>
<!-- Node5&#45;&gt;Node6 -->
<g id="edge5" class="edge">
<title>Node5&#45;&gt;Node6</title>
<path fill="none" stroke="#191970" d="M513.3713,-92C525.3234,-92 537.7444,-92 549.6684,-92"/>
<polygon fill="#191970" stroke="#191970" points="549.9949,-95.5001 559.9949,-92 549.9949,-88.5001 549.9949,-95.5001"/>
</g>
<!-- Node6&#45;&gt;Node4 -->
<g id="edge6" class="edge">
<title>Node6&#45;&gt;Node4</title>
<path fill="none" stroke="#191970" d="M672.7981,-107.0192C686.1483,-110.6452 700.5377,-114.5534 714.2947,-118.2899"/>
<polygon fill="#191970" stroke="#191970" points="713.6085,-121.7303 724.1762,-120.9738 715.4433,-114.975 713.6085,-121.7303"/>
</g>
<!-- Node8 -->
<g id="node8" class="node">
<title>Node8</title>
<g id="a_node8"><a xlink:href="namespacemom__checksums.html#a13c171528ae5ab341cf75ef302a5b930" target="_top" xlink:title="Does a bitcount of a number by first casting to an integer and then using BTEST to check bit by bit.">
<polygon fill="#ffffff" stroke="#000000" points="549,-38.5 549,-57.5 686,-57.5 686,-38.5 549,-38.5"/>
<text text-anchor="middle" x="617.5" y="-45.5" font-family="Helvetica,sans-Serif" font-size="10.00" fill="#000000">mom_checksums::bitcount</text>
</a>
</g>
</g>
<!-- Node7&#45;&gt;Node8 -->
<g id="edge9" class="edge">
<title>Node7&#45;&gt;Node8</title>
<path fill="none" stroke="#191970" d="M469.2867,-48C487.5164,-48 513.3767,-48 538.4041,-48"/>
<polygon fill="#191970" stroke="#191970" points="538.6793,-51.5001 548.6792,-48 538.6792,-44.5001 538.6793,-51.5001"/>
</g>
</g>
</svg>
