<?xml version="1.0" encoding="UTF-8" standalone="no"?>
<!DOCTYPE svg PUBLIC "-//W3C//DTD SVG 1.1//EN"
 "http://www.w3.org/Graphics/SVG/1.1/DTD/svg11.dtd">
<!-- Generated by graphviz version 2.40.1 (20161225.0304)
 -->
<!-- Title: mom_diapyc_energy_req::diapyc_energy_req_test Pages: 1 -->
<svg width="793pt" height="197pt"
 viewBox="0.00 0.00 793.00 197.00" xmlns="http://www.w3.org/2000/svg" xmlns:xlink="http://www.w3.org/1999/xlink">
<g id="graph0" class="graph" transform="scale(1 1) rotate(0) translate(4 193)">
<title>mom_diapyc_energy_req::diapyc_energy_req_test</title>
<polygon fill="#ffffff" stroke="transparent" points="-4,4 -4,-193 789,-193 789,4 -4,4"/>
<!-- Node1 -->
<g id="node1" class="node">
<title>Node1</title>
<g id="a_node1"><a xlink:title="This subroutine helps test the accuracy of the diapycnal mixing energy requirement code by writing di...">
<polygon fill="#bfbfbf" stroke="#000000" points="0,-16.5 0,-46.5 137,-46.5 137,-16.5 0,-16.5"/>
<text text-anchor="start" x="8" y="-34.5" font-family="Helvetica,sans-Serif" font-size="10.00" fill="#000000">mom_diapyc_energy_req</text>
<text text-anchor="middle" x="68.5" y="-23.5" font-family="Helvetica,sans-Serif" font-size="10.00" fill="#000000">::diapyc_energy_req_test</text>
</a>
</g>
</g>
<!-- Node2 -->
<g id="node2" class="node">
<title>Node2</title>
<g id="a_node2"><a xlink:href="namespacemom__diapyc__energy__req.html#aca27fbd2a716b8565b0b754a417479d5" target="_top" xlink:title="This subroutine uses a substantially refactored tridiagonal equation for diapycnal mixing of temperat...">
<polygon fill="#ffffff" stroke="#000000" points="173,-84.5 173,-114.5 310,-114.5 310,-84.5 173,-84.5"/>
<text text-anchor="start" x="181" y="-102.5" font-family="Helvetica,sans-Serif" font-size="10.00" fill="#000000">mom_diapyc_energy_req</text>
<text text-anchor="middle" x="241.5" y="-91.5" font-family="Helvetica,sans-Serif" font-size="10.00" fill="#000000">::diapyc_energy_req_calc</text>
</a>
</g>
</g>
<!-- Node1&#45;&gt;Node2 -->
<g id="edge1" class="edge">
<title>Node1&#45;&gt;Node2</title>
<path fill="none" stroke="#191970" d="M106.8943,-46.5914C132.5397,-56.6717 166.4569,-70.0033 193.8286,-80.7621"/>
<polygon fill="#191970" stroke="#191970" points="192.6258,-84.0499 203.213,-84.4508 195.1865,-77.5351 192.6258,-84.0499"/>
</g>
<!-- Node4 -->
<g id="node4" class="node">
<title>Node4</title>
<g id="a_node4"><a xlink:href="namespacemom__error__handler.html#a460cfb79a06c29fc249952c2a3710d67" target="_top" xlink:title="This provides a convenient interface for writing an mpp_error message with run&#45;time filter based on a...">
<polygon fill="#ffffff" stroke="#000000" points="519,-22.5 519,-52.5 634,-52.5 634,-22.5 519,-22.5"/>
<text text-anchor="start" x="527" y="-40.5" font-family="Helvetica,sans-Serif" font-size="10.00" fill="#000000">mom_error_handler::</text>
<text text-anchor="middle" x="576.5" y="-29.5" font-family="Helvetica,sans-Serif" font-size="10.00" fill="#000000">mom_error</text>
</a>
</g>
</g>
<!-- Node1&#45;&gt;Node4 -->
<g id="edge8" class="edge">
<title>Node1&#45;&gt;Node4</title>
<path fill="none" stroke="#191970" d="M137.0111,-32.3092C234.3467,-33.4588 411.5888,-35.5522 508.5926,-36.6979"/>
<polygon fill="#191970" stroke="#191970" points="508.8283,-40.2009 518.869,-36.8193 508.911,-33.2014 508.8283,-40.2009"/>
</g>
<!-- Node5 -->
<g id="node5" class="node">
<title>Node5</title>
<g id="a_node5"><a xlink:href="namespacemom__error__handler.html#ad5f00a53059c72fe2332d1436c80ca71" target="_top" xlink:title="This returns .true. if the current PE is the root PE.">
<polygon fill="#ffffff" stroke="#000000" points="670,-.5 670,-30.5 785,-30.5 785,-.5 670,-.5"/>
<text text-anchor="start" x="678" y="-18.5" font-family="Helvetica,sans-Serif" font-size="10.00" fill="#000000">mom_error_handler::</text>
<text text-anchor="middle" x="727.5" y="-7.5" font-family="Helvetica,sans-Serif" font-size="10.00" fill="#000000">is_root_pe</text>
</a>
</g>
</g>
<!-- Node1&#45;&gt;Node5 -->
<g id="edge7" class="edge">
<title>Node1&#45;&gt;Node5</title>
<path fill="none" stroke="#191970" d="M137.2502,-26.9898C243.6761,-20.5052 454.7488,-9.6251 634,-12.5 642.2869,-12.6329 650.9854,-12.832 659.602,-13.0657"/>
<polygon fill="#191970" stroke="#191970" points="659.5538,-16.5657 669.65,-13.354 659.7546,-9.5686 659.5538,-16.5657"/>
</g>
<!-- Node3 -->
<g id="node3" class="node">
<title>Node3</title>
<g id="a_node3"><a xlink:href="namespacemom__eos.html#ab6ed65d2df376be9bbea2050f50fe46e" target="_top" xlink:title="Calls the appropriate subroutine to calculate specific volume derivatives for an array.">
<polygon fill="#ffffff" stroke="#000000" points="358.5,-158.5 358.5,-188.5 470.5,-188.5 470.5,-158.5 358.5,-158.5"/>
<text text-anchor="start" x="366.5" y="-176.5" font-family="Helvetica,sans-Serif" font-size="10.00" fill="#000000">mom_eos::calculate</text>
<text text-anchor="middle" x="414.5" y="-165.5" font-family="Helvetica,sans-Serif" font-size="10.00" fill="#000000">_specific_vol_derivs</text>
</a>
</g>
</g>
<!-- Node2&#45;&gt;Node3 -->
<g id="edge2" class="edge">
<title>Node2&#45;&gt;Node3</title>
<path fill="none" stroke="#191970" d="M270.8396,-114.5986C291.5732,-125.0055 320.1608,-138.8292 346,-149.5 350.4259,-151.3278 355.0471,-153.1417 359.7083,-154.9057"/>
<polygon fill="#191970" stroke="#191970" points="358.6887,-158.2602 369.282,-158.4447 361.1159,-151.6945 358.6887,-158.2602"/>
</g>
<!-- Node6 -->
<g id="node6" class="node">
<title>Node6</title>
<g id="a_node6"><a xlink:href="namespacemom__diapyc__energy__req.html#a2bed511a4b1df9de0e2230c24389bc82" target="_top" xlink:title="This subroutine calculates the change in potential energy and or derivatives for several changes in a...">
<polygon fill="#ffffff" stroke="#000000" points="346,-109.5 346,-139.5 483,-139.5 483,-109.5 346,-109.5"/>
<text text-anchor="start" x="354" y="-127.5" font-family="Helvetica,sans-Serif" font-size="10.00" fill="#000000">mom_diapyc_energy_req</text>
<text text-anchor="middle" x="414.5" y="-116.5" font-family="Helvetica,sans-Serif" font-size="10.00" fill="#000000">::find_pe_chg</text>
</a>
</g>
</g>
<!-- Node2&#45;&gt;Node6 -->
<g id="edge5" class="edge">
<title>Node2&#45;&gt;Node6</title>
<path fill="none" stroke="#191970" d="M310.3713,-109.4525C318.7692,-110.6661 327.3987,-111.9131 335.9246,-113.1452"/>
<polygon fill="#191970" stroke="#191970" points="335.4679,-116.6155 345.8657,-114.5817 336.4691,-109.6874 335.4679,-116.6155"/>
</g>
<!-- Node7 -->
<g id="node7" class="node">
<title>Node7</title>
<g id="a_node7"><a xlink:href="namespacemom__diapyc__energy__req.html#afb1736a09e8f04ae84f561924e157691" target="_top" xlink:title="This subroutine calculates the change in potential energy and or derivatives for several changes in a...">
<polygon fill="#ffffff" stroke="#000000" points="346,-60.5 346,-90.5 483,-90.5 483,-60.5 346,-60.5"/>
<text text-anchor="start" x="354" y="-78.5" font-family="Helvetica,sans-Serif" font-size="10.00" fill="#000000">mom_diapyc_energy_req</text>
<text text-anchor="middle" x="414.5" y="-67.5" font-family="Helvetica,sans-Serif" font-size="10.00" fill="#000000">::find_pe_chg_orig</text>
</a>
</g>
</g>
<!-- Node2&#45;&gt;Node7 -->
<g id="edge6" class="edge">
<title>Node2&#45;&gt;Node7</title>
<path fill="none" stroke="#191970" d="M310.3713,-89.9456C318.7692,-88.7806 327.3987,-87.5834 335.9246,-86.4006"/>
<polygon fill="#191970" stroke="#191970" points="336.4415,-89.8625 345.8657,-85.0215 335.4796,-82.9289 336.4415,-89.8625"/>
</g>
<!-- Node3&#45;&gt;Node4 -->
<g id="edge3" class="edge">
<title>Node3&#45;&gt;Node4</title>
<path fill="none" stroke="#191970" d="M467.188,-158.376C472.7432,-155.8178 478.1324,-152.8738 483,-149.5 517.1153,-125.8542 545.8676,-86.5867 562.1435,-61.387"/>
<polygon fill="#191970" stroke="#191970" points="565.1885,-63.1199 567.5622,-52.7944 559.2675,-59.386 565.1885,-63.1199"/>
</g>
<!-- Node4&#45;&gt;Node5 -->
<g id="edge4" class="edge">
<title>Node4&#45;&gt;Node5</title>
<path fill="none" stroke="#191970" d="M634.0174,-29.12C642.4639,-27.8894 651.2292,-26.6123 659.8561,-25.3554"/>
<polygon fill="#191970" stroke="#191970" points="660.5016,-28.7984 669.8925,-23.8931 659.4924,-21.8715 660.5016,-28.7984"/>
</g>
</g>
</svg>
