<?xml version="1.0" encoding="UTF-8" standalone="no"?>
<!DOCTYPE svg PUBLIC "-//W3C//DTD SVG 1.1//EN"
 "http://www.w3.org/Graphics/SVG/1.1/DTD/svg11.dtd">
<!-- Generated by graphviz version 2.40.1 (20161225.0304)
 -->
<!-- Title: mom::get_ocean_stocks Pages: 1 -->
<svg width="301pt" height="88pt"
 viewBox="0.00 0.00 301.00 88.00" xmlns="http://www.w3.org/2000/svg" xmlns:xlink="http://www.w3.org/1999/xlink">
<g id="graph0" class="graph" transform="scale(1 1) rotate(0) translate(4 84)">
<title>mom::get_ocean_stocks</title>
<polygon fill="#ffffff" stroke="transparent" points="-4,4 -4,-84 297,-84 297,4 -4,4"/>
<!-- Node1 -->
<g id="node1" class="node">
<title>Node1</title>
<g id="a_node1"><a xlink:title="Find the global integrals of various quantities.">
<polygon fill="#bfbfbf" stroke="#000000" points="169,-30 169,-49 293,-49 293,-30 169,-30"/>
<text text-anchor="middle" x="231" y="-37" font-family="Helvetica,sans-Serif" font-size="10.00" fill="#000000">mom::get_ocean_stocks</text>
</a>
</g>
</g>
<!-- Node2 -->
<g id="node2" class="node">
<title>Node2</title>
<g id="a_node2"><a xlink:href="namespacemom__ocean__model__nuopc.html#a8f12e00dd1cb9f454bca8ad2e74fde40" target="_top" xlink:title="Ocean_stock_pe &#45; returns the integrated stocks of heat, water, etc. for conservation checks....">
<polygon fill="#ffffff" stroke="#000000" points="0,-49.5 0,-79.5 133,-79.5 133,-49.5 0,-49.5"/>
<text text-anchor="start" x="8" y="-67.5" font-family="Helvetica,sans-Serif" font-size="10.00" fill="#000000">mom_ocean_model_nuopc</text>
<text text-anchor="middle" x="66.5" y="-56.5" font-family="Helvetica,sans-Serif" font-size="10.00" fill="#000000">::ocean_stock_pe</text>
</a>
</g>
</g>
<!-- Node1&#45;&gt;Node2 -->
<g id="edge1" class="edge">
<title>Node1&#45;&gt;Node2</title>
<path fill="none" stroke="#191970" d="M158.8703,-50.462C150.3265,-51.7604 141.6347,-53.0814 133.1713,-54.3676"/>
<polygon fill="#191970" stroke="#191970" points="159.449,-53.9143 168.8096,-48.9514 158.3972,-46.9937 159.449,-53.9143"/>
</g>
<!-- Node3 -->
<g id="node3" class="node">
<title>Node3</title>
<g id="a_node3"><a xlink:href="namespacemom__ocean__model__mct.html#af453e38e57801cebcc7145c370c30f28" target="_top" xlink:title="Ocean_stock_pe &#45; returns the integrated stocks of heat, water, etc. for conservation checks....">
<polygon fill="#ffffff" stroke="#000000" points="5,-.5 5,-30.5 128,-30.5 128,-.5 5,-.5"/>
<text text-anchor="start" x="13" y="-18.5" font-family="Helvetica,sans-Serif" font-size="10.00" fill="#000000">mom_ocean_model_mct</text>
<text text-anchor="middle" x="66.5" y="-7.5" font-family="Helvetica,sans-Serif" font-size="10.00" fill="#000000">::ocean_stock_pe</text>
</a>
</g>
</g>
<!-- Node1&#45;&gt;Node3 -->
<g id="edge2" class="edge">
<title>Node1&#45;&gt;Node3</title>
<path fill="none" stroke="#191970" d="M158.731,-28.9562C148.5601,-27.4723 138.1824,-25.9582 128.2327,-24.5066"/>
<polygon fill="#191970" stroke="#191970" points="158.409,-32.4462 168.8096,-30.4266 159.4197,-25.5195 158.409,-32.4462"/>
</g>
</g>
</svg>
