<?xml version="1.0" encoding="UTF-8" standalone="no"?>
<!DOCTYPE svg PUBLIC "-//W3C//DTD SVG 1.1//EN"
 "http://www.w3.org/Graphics/SVG/1.1/DTD/svg11.dtd">
<!-- Generated by graphviz version 2.40.1 (20161225.0304)
 -->
<!-- Title: mom_ocean_model_mct::ocean_stock_pe Pages: 1 -->
<svg width="440pt" height="39pt"
 viewBox="0.00 0.00 440.00 39.00" xmlns="http://www.w3.org/2000/svg" xmlns:xlink="http://www.w3.org/1999/xlink">
<g id="graph0" class="graph" transform="scale(1 1) rotate(0) translate(4 35)">
<title>mom_ocean_model_mct::ocean_stock_pe</title>
<polygon fill="#ffffff" stroke="transparent" points="-4,4 -4,-35 436,-35 436,4 -4,4"/>
<!-- Node1 -->
<g id="node1" class="node">
<title>Node1</title>
<g id="a_node1"><a xlink:title="Ocean_stock_pe &#45; returns the integrated stocks of heat, water, etc. for conservation checks....">
<polygon fill="#bfbfbf" stroke="#000000" points="0,-.5 0,-30.5 123,-30.5 123,-.5 0,-.5"/>
<text text-anchor="start" x="8" y="-18.5" font-family="Helvetica,sans-Serif" font-size="10.00" fill="#000000">mom_ocean_model_mct</text>
<text text-anchor="middle" x="61.5" y="-7.5" font-family="Helvetica,sans-Serif" font-size="10.00" fill="#000000">::ocean_stock_pe</text>
</a>
</g>
</g>
<!-- Node2 -->
<g id="node2" class="node">
<title>Node2</title>
<g id="a_node2"><a xlink:href="namespacemom.html#a462293ed92e99927ef9939747d633080" target="_top" xlink:title="Find the global integrals of various quantities.">
<polygon fill="#ffffff" stroke="#000000" points="159,-6 159,-25 283,-25 283,-6 159,-6"/>
<text text-anchor="middle" x="221" y="-13" font-family="Helvetica,sans-Serif" font-size="10.00" fill="#000000">mom::get_ocean_stocks</text>
</a>
</g>
</g>
<!-- Node1&#45;&gt;Node2 -->
<g id="edge1" class="edge">
<title>Node1&#45;&gt;Node2</title>
<path fill="none" stroke="#191970" d="M123.1669,-15.5C131.6099,-15.5 140.3383,-15.5 148.9461,-15.5"/>
<polygon fill="#191970" stroke="#191970" points="148.9711,-19.0001 158.971,-15.5 148.971,-12.0001 148.9711,-19.0001"/>
</g>
<!-- Node3 -->
<g id="node3" class="node">
<title>Node3</title>
<g id="a_node3"><a xlink:href="namespacemom__spatial__means.html#a4c637edc1baf0fbac110c0c6b98ee161" target="_top" xlink:title="Find the global mass&#45;weighted integral of a variable. This uses reproducing sums.">
<polygon fill="#ffffff" stroke="#000000" points="319,-.5 319,-30.5 432,-30.5 432,-.5 319,-.5"/>
<text text-anchor="start" x="327" y="-18.5" font-family="Helvetica,sans-Serif" font-size="10.00" fill="#000000">mom_spatial_means::</text>
<text text-anchor="middle" x="375.5" y="-7.5" font-family="Helvetica,sans-Serif" font-size="10.00" fill="#000000">global_mass_integral</text>
</a>
</g>
</g>
<!-- Node2&#45;&gt;Node3 -->
<g id="edge2" class="edge">
<title>Node2&#45;&gt;Node3</title>
<path fill="none" stroke="#191970" d="M283.3957,-15.5C291.7314,-15.5 300.3068,-15.5 308.7138,-15.5"/>
<polygon fill="#191970" stroke="#191970" points="308.8575,-19.0001 318.8575,-15.5 308.8574,-12.0001 308.8575,-19.0001"/>
</g>
</g>
</svg>
