<?xml version="1.0" encoding="UTF-8" standalone="no"?>
<!DOCTYPE svg PUBLIC "-//W3C//DTD SVG 1.1//EN"
 "http://www.w3.org/Graphics/SVG/1.1/DTD/svg11.dtd">
<!-- Generated by graphviz version 2.40.1 (20161225.0304)
 -->
<!-- Title: mom_state_initialization::mom_temp_salt_initialize_from_z Pages: 1 -->
<svg width="505pt" height="88pt"
 viewBox="0.00 0.00 505.00 88.00" xmlns="http://www.w3.org/2000/svg" xmlns:xlink="http://www.w3.org/1999/xlink">
<g id="graph0" class="graph" transform="scale(1 1) rotate(0) translate(4 84)">
<title>mom_state_initialization::mom_temp_salt_initialize_from_z</title>
<polygon fill="#ffffff" stroke="transparent" points="-4,4 -4,-84 501,-84 501,4 -4,4"/>
<!-- Node1 -->
<g id="node1" class="node">
<title>Node1</title>
<g id="a_node1"><a xlink:title="This subroutine determines the isopycnal or other coordinate interfaces and layer potential temperatu...">
<polygon fill="#bfbfbf" stroke="#000000" points="0,-24.5 0,-54.5 177,-54.5 177,-24.5 0,-24.5"/>
<text text-anchor="start" x="8" y="-42.5" font-family="Helvetica,sans-Serif" font-size="10.00" fill="#000000">mom_state_initialization</text>
<text text-anchor="middle" x="88.5" y="-31.5" font-family="Helvetica,sans-Serif" font-size="10.00" fill="#000000">::mom_temp_salt_initialize_from_z</text>
</a>
</g>
</g>
<!-- Node2 -->
<g id="node2" class="node">
<title>Node2</title>
<g id="a_node2"><a xlink:href="namespacemom__state__initialization.html#a59cb36440a4ef993c4c98170e52a775f" target="_top" xlink:title="Adjust interface heights to fit the bathymetry and diagnose layer thickness.">
<polygon fill="#ffffff" stroke="#000000" points="213,-49.5 213,-79.5 346,-79.5 346,-49.5 213,-49.5"/>
<text text-anchor="start" x="221" y="-67.5" font-family="Helvetica,sans-Serif" font-size="10.00" fill="#000000">mom_state_initialization</text>
<text text-anchor="middle" x="279.5" y="-56.5" font-family="Helvetica,sans-Serif" font-size="10.00" fill="#000000">::adjustetatofitbathymetry</text>
</a>
</g>
</g>
<!-- Node1&#45;&gt;Node2 -->
<g id="edge1" class="edge">
<title>Node1&#45;&gt;Node2</title>
<path fill="none" stroke="#191970" d="M177.0109,-51.0852C185.708,-52.2236 194.4827,-53.3721 203.0446,-54.4927"/>
<polygon fill="#191970" stroke="#191970" points="202.6106,-57.9657 212.9803,-55.7932 203.5191,-51.0249 202.6106,-57.9657"/>
</g>
<!-- Node3 -->
<g id="node3" class="node">
<title>Node3</title>
<g id="a_node3"><a xlink:href="namespacemom__error__handler.html#a460cfb79a06c29fc249952c2a3710d67" target="_top" xlink:title="This provides a convenient interface for writing an mpp_error message with run&#45;time filter based on a...">
<polygon fill="#ffffff" stroke="#000000" points="222,-.5 222,-30.5 337,-30.5 337,-.5 222,-.5"/>
<text text-anchor="start" x="230" y="-18.5" font-family="Helvetica,sans-Serif" font-size="10.00" fill="#000000">mom_error_handler::</text>
<text text-anchor="middle" x="279.5" y="-7.5" font-family="Helvetica,sans-Serif" font-size="10.00" fill="#000000">mom_error</text>
</a>
</g>
</g>
<!-- Node1&#45;&gt;Node3 -->
<g id="edge2" class="edge">
<title>Node1&#45;&gt;Node3</title>
<path fill="none" stroke="#191970" d="M177.0109,-28.3782C188.6659,-26.9137 200.4605,-25.4317 211.6952,-24.02"/>
<polygon fill="#191970" stroke="#191970" points="212.3499,-27.4653 221.8355,-22.7458 211.4771,-20.5199 212.3499,-27.4653"/>
</g>
<!-- Node4 -->
<g id="node4" class="node">
<title>Node4</title>
<g id="a_node4"><a xlink:href="namespacemom__error__handler.html#ad5f00a53059c72fe2332d1436c80ca71" target="_top" xlink:title="This returns .true. if the current PE is the root PE.">
<polygon fill="#ffffff" stroke="#000000" points="382,-.5 382,-30.5 497,-30.5 497,-.5 382,-.5"/>
<text text-anchor="start" x="390" y="-18.5" font-family="Helvetica,sans-Serif" font-size="10.00" fill="#000000">mom_error_handler::</text>
<text text-anchor="middle" x="439.5" y="-7.5" font-family="Helvetica,sans-Serif" font-size="10.00" fill="#000000">is_root_pe</text>
</a>
</g>
</g>
<!-- Node3&#45;&gt;Node4 -->
<g id="edge3" class="edge">
<title>Node3&#45;&gt;Node4</title>
<path fill="none" stroke="#191970" d="M337.2637,-15.5C348.3659,-15.5 360.0889,-15.5 371.4802,-15.5"/>
<polygon fill="#191970" stroke="#191970" points="371.8212,-19.0001 381.8211,-15.5 371.8211,-12.0001 371.8212,-19.0001"/>
</g>
</g>
</svg>
