<?xml version="1.0" encoding="UTF-8" standalone="no"?>
<!DOCTYPE svg PUBLIC "-//W3C//DTD SVG 1.1//EN"
 "http://www.w3.org/Graphics/SVG/1.1/DTD/svg11.dtd">
<!-- Generated by graphviz version 2.40.1 (20161225.0304)
 -->
<!-- Title: mom_diag_mediator::set_masks_for_axes Pages: 1 -->
<svg width="615pt" height="88pt"
 viewBox="0.00 0.00 615.00 88.00" xmlns="http://www.w3.org/2000/svg" xmlns:xlink="http://www.w3.org/1999/xlink">
<g id="graph0" class="graph" transform="scale(1 1) rotate(0) translate(4 84)">
<title>mom_diag_mediator::set_masks_for_axes</title>
<polygon fill="#ffffff" stroke="transparent" points="-4,4 -4,-84 611,-84 611,4 -4,4"/>
<!-- Node1 -->
<g id="node1" class="node">
<title>Node1</title>
<g id="a_node1"><a xlink:title="set_masks_for_axes sets up the 2d and 3d masks for diagnostics using the current grid recorded after ...">
<polygon fill="#bfbfbf" stroke="#000000" points="0,-24.5 0,-54.5 117,-54.5 117,-24.5 0,-24.5"/>
<text text-anchor="start" x="8" y="-42.5" font-family="Helvetica,sans-Serif" font-size="10.00" fill="#000000">mom_diag_mediator::</text>
<text text-anchor="middle" x="58.5" y="-31.5" font-family="Helvetica,sans-Serif" font-size="10.00" fill="#000000">set_masks_for_axes</text>
</a>
</g>
</g>
<!-- Node2 -->
<g id="node2" class="node">
<title>Node2</title>
<g id="a_node2"><a xlink:href="namespacemom__error__handler.html#a33bcd190d460095104954f2e654f9fe6" target="_top" xlink:title="Issues a FATAL error if the assertion fails, i.e. the first argument is false.">
<polygon fill="#ffffff" stroke="#000000" points="171.5,-49.5 171.5,-79.5 286.5,-79.5 286.5,-49.5 171.5,-49.5"/>
<text text-anchor="start" x="179.5" y="-67.5" font-family="Helvetica,sans-Serif" font-size="10.00" fill="#000000">mom_error_handler::</text>
<text text-anchor="middle" x="229" y="-56.5" font-family="Helvetica,sans-Serif" font-size="10.00" fill="#000000">assert</text>
</a>
</g>
</g>
<!-- Node1&#45;&gt;Node2 -->
<g id="edge1" class="edge">
<title>Node1&#45;&gt;Node2</title>
<path fill="none" stroke="#191970" d="M117.1764,-48.1036C131.4208,-50.1922 146.765,-52.4421 161.3855,-54.5859"/>
<polygon fill="#191970" stroke="#191970" points="160.9674,-58.0619 171.3694,-56.0498 161.9829,-51.1359 160.9674,-58.0619"/>
</g>
<!-- Node5 -->
<g id="node5" class="node">
<title>Node5</title>
<g id="a_node5"><a xlink:href="namespacemom__diag__mediator.html#ade968ef275fa55cf8a2301debdd7e88a" target="_top" xlink:title=" ">
<polygon fill="#ffffff" stroke="#000000" points="153,-.5 153,-30.5 305,-30.5 305,-.5 153,-.5"/>
<text text-anchor="start" x="161" y="-18.5" font-family="Helvetica,sans-Serif" font-size="10.00" fill="#000000">mom_diag_mediator::</text>
<text text-anchor="middle" x="229" y="-7.5" font-family="Helvetica,sans-Serif" font-size="10.00" fill="#000000">set_masks_for_axes_dsamp</text>
</a>
</g>
</g>
<!-- Node1&#45;&gt;Node5 -->
<g id="edge4" class="edge">
<title>Node1&#45;&gt;Node5</title>
<path fill="none" stroke="#191970" d="M117.1764,-31.2406C125.4154,-30.0808 134.0223,-28.8693 142.6444,-27.6556"/>
<polygon fill="#191970" stroke="#191970" points="143.3371,-31.0927 152.7516,-26.2329 142.3614,-24.161 143.3371,-31.0927"/>
</g>
<!-- Node3 -->
<g id="node3" class="node">
<title>Node3</title>
<g id="a_node3"><a xlink:href="namespacemom__error__handler.html#a460cfb79a06c29fc249952c2a3710d67" target="_top" xlink:title="This provides a convenient interface for writing an mpp_error message with run&#45;time filter based on a...">
<polygon fill="#ffffff" stroke="#000000" points="341,-24.5 341,-54.5 456,-54.5 456,-24.5 341,-24.5"/>
<text text-anchor="start" x="349" y="-42.5" font-family="Helvetica,sans-Serif" font-size="10.00" fill="#000000">mom_error_handler::</text>
<text text-anchor="middle" x="398.5" y="-31.5" font-family="Helvetica,sans-Serif" font-size="10.00" fill="#000000">mom_error</text>
</a>
</g>
</g>
<!-- Node2&#45;&gt;Node3 -->
<g id="edge2" class="edge">
<title>Node2&#45;&gt;Node3</title>
<path fill="none" stroke="#191970" d="M286.8582,-55.9663C301.04,-53.8746 316.3426,-51.6176 330.9356,-49.4653"/>
<polygon fill="#191970" stroke="#191970" points="331.5203,-52.917 340.9025,-47.9952 330.4988,-45.9919 331.5203,-52.917"/>
</g>
<!-- Node4 -->
<g id="node4" class="node">
<title>Node4</title>
<g id="a_node4"><a xlink:href="namespacemom__error__handler.html#ad5f00a53059c72fe2332d1436c80ca71" target="_top" xlink:title="This returns .true. if the current PE is the root PE.">
<polygon fill="#ffffff" stroke="#000000" points="492,-24.5 492,-54.5 607,-54.5 607,-24.5 492,-24.5"/>
<text text-anchor="start" x="500" y="-42.5" font-family="Helvetica,sans-Serif" font-size="10.00" fill="#000000">mom_error_handler::</text>
<text text-anchor="middle" x="549.5" y="-31.5" font-family="Helvetica,sans-Serif" font-size="10.00" fill="#000000">is_root_pe</text>
</a>
</g>
</g>
<!-- Node3&#45;&gt;Node4 -->
<g id="edge3" class="edge">
<title>Node3&#45;&gt;Node4</title>
<path fill="none" stroke="#191970" d="M456.0174,-39.5C464.4639,-39.5 473.2292,-39.5 481.8561,-39.5"/>
<polygon fill="#191970" stroke="#191970" points="481.8926,-43.0001 491.8925,-39.5 481.8925,-36.0001 481.8926,-43.0001"/>
</g>
<!-- Node5&#45;&gt;Node3 -->
<g id="edge5" class="edge">
<title>Node5&#45;&gt;Node3</title>
<path fill="none" stroke="#191970" d="M305.3205,-26.3064C313.8165,-27.5094 322.4266,-28.7285 330.8047,-29.9148"/>
<polygon fill="#191970" stroke="#191970" points="330.494,-33.4057 340.8859,-31.3423 331.4754,-26.4748 330.494,-33.4057"/>
</g>
</g>
</svg>
