<?xml version="1.0" encoding="UTF-8" standalone="no"?>
<!DOCTYPE svg PUBLIC "-//W3C//DTD SVG 1.1//EN"
 "http://www.w3.org/Graphics/SVG/1.1/DTD/svg11.dtd">
<!-- Generated by graphviz version 2.40.1 (20161225.0304)
 -->
<!-- Title: mom_diag_mediator::diag_mediator_close_registration Pages: 1 -->
<svg width="287pt" height="127pt"
 viewBox="0.00 0.00 287.00 126.50" xmlns="http://www.w3.org/2000/svg" xmlns:xlink="http://www.w3.org/1999/xlink">
<g id="graph0" class="graph" transform="scale(1 1) rotate(0) translate(4 122.5)">
<title>mom_diag_mediator::diag_mediator_close_registration</title>
<polygon fill="#ffffff" stroke="transparent" points="-4,4 -4,-122.5 283,-122.5 283,4 -4,4"/>
<!-- Node1 -->
<g id="node1" class="node">
<title>Node1</title>
<g id="a_node1"><a xlink:title=" ">
<polygon fill="#bfbfbf" stroke="#000000" points="169,-44 169,-85 279,-85 279,-44 169,-44"/>
<text text-anchor="start" x="177" y="-73" font-family="Helvetica,sans-Serif" font-size="10.00" fill="#000000">mom_diag_mediator::</text>
<text text-anchor="start" x="177" y="-62" font-family="Helvetica,sans-Serif" font-size="10.00" fill="#000000">diag_mediator_close</text>
<text text-anchor="middle" x="224" y="-51" font-family="Helvetica,sans-Serif" font-size="10.00" fill="#000000">_registration</text>
</a>
</g>
</g>
<!-- Node2 -->
<g id="node2" class="node">
<title>Node2</title>
<g id="a_node2"><a xlink:href="MOM__driver_8F90.html#a08fffeb2d8e8acbf9ed4609be6d258c6" target="_top" xlink:title=" ">
<polygon fill="#ffffff" stroke="#000000" points="34,-99 34,-118 99,-118 99,-99 34,-99"/>
<text text-anchor="middle" x="66.5" y="-106" font-family="Helvetica,sans-Serif" font-size="10.00" fill="#000000">mom_main</text>
</a>
</g>
</g>
<!-- Node1&#45;&gt;Node2 -->
<g id="edge1" class="edge">
<title>Node1&#45;&gt;Node2</title>
<path fill="none" stroke="#191970" d="M159.235,-82.5931C138.6037,-88.3567 116.6494,-94.49 99.2836,-99.3414"/>
<polygon fill="#191970" stroke="#191970" points="160.2247,-85.9507 168.9141,-79.8891 158.3412,-79.2088 160.2247,-85.9507"/>
</g>
<!-- Node3 -->
<g id="node3" class="node">
<title>Node3</title>
<g id="a_node3"><a xlink:href="namespacemom__ocean__model__mct.html#ab85c4a8f30fcf7782a514a3fc66165a2" target="_top" xlink:title="ocean_model_init initializes the ocean model, including registering fields for restarts and reading r...">
<polygon fill="#ffffff" stroke="#000000" points="5,-49.5 5,-79.5 128,-79.5 128,-49.5 5,-49.5"/>
<text text-anchor="start" x="13" y="-67.5" font-family="Helvetica,sans-Serif" font-size="10.00" fill="#000000">mom_ocean_model_mct</text>
<text text-anchor="middle" x="66.5" y="-56.5" font-family="Helvetica,sans-Serif" font-size="10.00" fill="#000000">::ocean_model_init</text>
</a>
</g>
</g>
<!-- Node1&#45;&gt;Node3 -->
<g id="edge2" class="edge">
<title>Node1&#45;&gt;Node3</title>
<path fill="none" stroke="#191970" d="M158.8436,-64.5C148.642,-64.5 138.1266,-64.5 128.0103,-64.5"/>
<polygon fill="#191970" stroke="#191970" points="158.9142,-68.0001 168.9141,-64.5 158.9141,-61.0001 158.9142,-68.0001"/>
</g>
<!-- Node4 -->
<g id="node4" class="node">
<title>Node4</title>
<g id="a_node4"><a xlink:href="namespacemom__ocean__model__nuopc.html#a7682efcc4c80e04e7e3d1f3ca9b123f7" target="_top" xlink:title="ocean_model_init initializes the ocean model, including registering fields for restarts and reading r...">
<polygon fill="#ffffff" stroke="#000000" points="0,-.5 0,-30.5 133,-30.5 133,-.5 0,-.5"/>
<text text-anchor="start" x="8" y="-18.5" font-family="Helvetica,sans-Serif" font-size="10.00" fill="#000000">mom_ocean_model_nuopc</text>
<text text-anchor="middle" x="66.5" y="-7.5" font-family="Helvetica,sans-Serif" font-size="10.00" fill="#000000">::ocean_model_init</text>
</a>
</g>
</g>
<!-- Node1&#45;&gt;Node4 -->
<g id="edge3" class="edge">
<title>Node1&#45;&gt;Node4</title>
<path fill="none" stroke="#191970" d="M159.2521,-44.3562C144.3623,-39.7238 128.7824,-34.8768 114.735,-30.5064"/>
<polygon fill="#191970" stroke="#191970" points="158.3258,-47.7334 168.9141,-47.3622 160.4053,-41.0494 158.3258,-47.7334"/>
</g>
</g>
</svg>
