<?xml version="1.0" encoding="UTF-8" standalone="no"?>
<!DOCTYPE svg PUBLIC "-//W3C//DTD SVG 1.1//EN"
 "http://www.w3.org/Graphics/SVG/1.1/DTD/svg11.dtd">
<!-- Generated by graphviz version 2.40.1 (20161225.0304)
 -->
<!-- Title: mom_sum_output::depth_list_setup Pages: 1 -->
<svg width="781pt" height="196pt"
 viewBox="0.00 0.00 781.00 195.85" xmlns="http://www.w3.org/2000/svg" xmlns:xlink="http://www.w3.org/1999/xlink">
<g id="graph0" class="graph" transform="scale(1 1) rotate(0) translate(4 191.8461)">
<title>mom_sum_output::depth_list_setup</title>
<polygon fill="#ffffff" stroke="transparent" points="-4,4 -4,-191.8461 777,-191.8461 777,4 -4,4"/>
<!-- Node1 -->
<g id="node1" class="node">
<title>Node1</title>
<g id="a_node1"><a xlink:title="This subroutine sets up an ordered list of depths, along with the cross sectional areas at each depth...">
<polygon fill="#bfbfbf" stroke="#000000" points="0,-66.1061 0,-96.1061 130,-96.1061 130,-66.1061 0,-66.1061"/>
<text text-anchor="start" x="8" y="-84.1061" font-family="Helvetica,sans-Serif" font-size="10.00" fill="#000000">mom_sum_output::depth</text>
<text text-anchor="middle" x="65" y="-73.1061" font-family="Helvetica,sans-Serif" font-size="10.00" fill="#000000">_list_setup</text>
</a>
</g>
</g>
<!-- Node2 -->
<g id="node2" class="node">
<title>Node2</title>
<g id="a_node2"><a xlink:href="namespacemom__sum__output.html#a1db5001777c2171a7f3f16122b4bacd1" target="_top" xlink:title="create_depth_list makes an ordered list of depths, along with the cross sectional areas at each depth...">
<polygon fill="#ffffff" stroke="#000000" points="327,-139.1061 327,-169.1061 460,-169.1061 460,-139.1061 327,-139.1061"/>
<text text-anchor="start" x="335" y="-157.1061" font-family="Helvetica,sans-Serif" font-size="10.00" fill="#000000">mom_sum_output::create</text>
<text text-anchor="middle" x="393.5" y="-146.1061" font-family="Helvetica,sans-Serif" font-size="10.00" fill="#000000">_depth_list</text>
</a>
</g>
</g>
<!-- Node1&#45;&gt;Node2 -->
<g id="edge1" class="edge">
<title>Node1&#45;&gt;Node2</title>
<path fill="none" stroke="#191970" d="M127.4499,-96.1636C140.1933,-99.1749 153.5198,-102.2796 166,-105.1061 216.1882,-116.4726 272.7504,-128.658 316.9207,-138.0338"/>
<polygon fill="#191970" stroke="#191970" points="316.2134,-141.4616 326.7218,-140.1113 317.6649,-134.6137 316.2134,-141.4616"/>
</g>
<!-- Node3 -->
<g id="node3" class="node">
<title>Node3</title>
<g id="a_node3"><a xlink:href="namespacemom__error__handler.html#ad5f00a53059c72fe2332d1436c80ca71" target="_top" xlink:title="This returns .true. if the current PE is the root PE.">
<polygon fill="#ffffff" stroke="#000000" points="658,-7.1061 658,-37.1061 773,-37.1061 773,-7.1061 658,-7.1061"/>
<text text-anchor="start" x="666" y="-25.1061" font-family="Helvetica,sans-Serif" font-size="10.00" fill="#000000">mom_error_handler::</text>
<text text-anchor="middle" x="715.5" y="-14.1061" font-family="Helvetica,sans-Serif" font-size="10.00" fill="#000000">is_root_pe</text>
</a>
</g>
</g>
<!-- Node1&#45;&gt;Node3 -->
<g id="edge2" class="edge">
<title>Node1&#45;&gt;Node3</title>
<path fill="none" stroke="#191970" d="M93.4633,-65.9949C113.3202,-55.9925 140.6925,-43.2627 166,-35.1061 291.1013,5.2139 328.6521,1.7709 460,-3.1061 523.8614,-5.4773 596.5162,-11.1714 647.9803,-15.7117"/>
<polygon fill="#191970" stroke="#191970" points="647.7104,-19.2014 657.9816,-16.6031 648.3319,-12.2291 647.7104,-19.2014"/>
</g>
<!-- Node4 -->
<g id="node4" class="node">
<title>Node4</title>
<g id="a_node4"><a xlink:href="namespacemom__error__handler.html#a460cfb79a06c29fc249952c2a3710d67" target="_top" xlink:title="This provides a convenient interface for writing an mpp_error message with run&#45;time filter based on a...">
<polygon fill="#ffffff" stroke="#000000" points="501.5,-100.1061 501.5,-130.1061 616.5,-130.1061 616.5,-100.1061 501.5,-100.1061"/>
<text text-anchor="start" x="509.5" y="-118.1061" font-family="Helvetica,sans-Serif" font-size="10.00" fill="#000000">mom_error_handler::</text>
<text text-anchor="middle" x="559" y="-107.1061" font-family="Helvetica,sans-Serif" font-size="10.00" fill="#000000">mom_error</text>
</a>
</g>
</g>
<!-- Node1&#45;&gt;Node4 -->
<g id="edge3" class="edge">
<title>Node1&#45;&gt;Node4</title>
<path fill="none" stroke="#191970" d="M90.9001,-96.2985C110.9108,-107.5742 139.5632,-122.7303 166,-133.1061 235.162,-160.2505 253.3908,-168.0125 327,-178.1061 385.5631,-186.1365 403.2462,-194.6329 460,-178.1061 487.773,-170.0186 515.193,-151.5219 534.1078,-136.6507"/>
<polygon fill="#191970" stroke="#191970" points="536.3456,-139.3423 541.9198,-130.3324 531.9436,-133.8997 536.3456,-139.3423"/>
</g>
<!-- Node5 -->
<g id="node5" class="node">
<title>Node5</title>
<g id="a_node5"><a xlink:href="namespacemom__sum__output.html#a4f45b1c7dbff4fe064e102ccb2967daf" target="_top" xlink:title="This subroutine reads in the depth list to the specified file and allocates and sets up CSDL and CSli...">
<polygon fill="#ffffff" stroke="#000000" points="166,-66.1061 166,-96.1061 291,-96.1061 291,-66.1061 166,-66.1061"/>
<text text-anchor="start" x="174" y="-84.1061" font-family="Helvetica,sans-Serif" font-size="10.00" fill="#000000">mom_sum_output::read</text>
<text text-anchor="middle" x="228.5" y="-73.1061" font-family="Helvetica,sans-Serif" font-size="10.00" fill="#000000">_depth_list</text>
</a>
</g>
</g>
<!-- Node1&#45;&gt;Node5 -->
<g id="edge5" class="edge">
<title>Node1&#45;&gt;Node5</title>
<path fill="none" stroke="#191970" d="M130.0893,-81.1061C138.4463,-81.1061 147.0459,-81.1061 155.5185,-81.1061"/>
<polygon fill="#191970" stroke="#191970" points="155.7652,-84.6062 165.7652,-81.1061 155.7651,-77.6062 155.7652,-84.6062"/>
</g>
<!-- Node7 -->
<g id="node7" class="node">
<title>Node7</title>
<g id="a_node7"><a xlink:href="namespacemom__sum__output.html#a955e777980a668bfc611c78de5de1895" target="_top" xlink:title="This subroutine writes out the depth list to the specified file.">
<polygon fill="#ffffff" stroke="#000000" points="331,-13.1061 331,-43.1061 456,-43.1061 456,-13.1061 331,-13.1061"/>
<text text-anchor="start" x="339" y="-31.1061" font-family="Helvetica,sans-Serif" font-size="10.00" fill="#000000">mom_sum_output::write</text>
<text text-anchor="middle" x="393.5" y="-20.1061" font-family="Helvetica,sans-Serif" font-size="10.00" fill="#000000">_depth_list</text>
</a>
</g>
</g>
<!-- Node1&#45;&gt;Node7 -->
<g id="edge13" class="edge">
<title>Node1&#45;&gt;Node7</title>
<path fill="none" stroke="#191970" d="M120.5698,-66.0801C135.2654,-62.4561 151.1673,-58.8444 166,-56.1061 217.372,-46.6224 275.8799,-39.5022 320.6968,-34.8155"/>
<polygon fill="#191970" stroke="#191970" points="321.3215,-38.2698 330.9108,-33.7646 320.605,-31.3065 321.3215,-38.2698"/>
</g>
<!-- Node4&#45;&gt;Node3 -->
<g id="edge4" class="edge">
<title>Node4&#45;&gt;Node3</title>
<path fill="none" stroke="#191970" d="M601.3584,-99.9997C608.3927,-97.0113 615.5059,-93.6816 622,-90.1061 646.2437,-76.7582 671.4957,-58.0624 689.637,-43.6516"/>
<polygon fill="#191970" stroke="#191970" points="691.8487,-46.3643 697.4426,-37.3665 687.4586,-40.912 691.8487,-46.3643"/>
</g>
<!-- Node5&#45;&gt;Node2 -->
<g id="edge6" class="edge">
<title>Node5&#45;&gt;Node2</title>
<path fill="none" stroke="#191970" d="M262.6881,-96.2318C288.0195,-107.439 322.7335,-122.7973 350.0353,-134.8763"/>
<polygon fill="#191970" stroke="#191970" points="348.7946,-138.1546 359.3557,-138.9999 351.6268,-131.7531 348.7946,-138.1546"/>
</g>
<!-- Node5&#45;&gt;Node4 -->
<g id="edge8" class="edge">
<title>Node5&#45;&gt;Node4</title>
<path fill="none" stroke="#191970" d="M291.0531,-87.5412C348.1637,-93.4165 432.3874,-102.0809 491.1129,-108.1223"/>
<polygon fill="#191970" stroke="#191970" points="491.0979,-111.6391 501.4036,-109.1809 491.8143,-104.6759 491.0979,-111.6391"/>
</g>
<!-- Node6 -->
<g id="node6" class="node">
<title>Node6</title>
<g id="a_node6"><a xlink:href="namespacemom__sum__output.html#a928dd1160bb6c0033a417c618b9d01ef" target="_top" xlink:title="Return the checksums required to verify DEPTH_LIST_FILE contents.">
<polygon fill="#ffffff" stroke="#000000" points="496,-51.1061 496,-81.1061 622,-81.1061 622,-51.1061 496,-51.1061"/>
<text text-anchor="start" x="504" y="-69.1061" font-family="Helvetica,sans-Serif" font-size="10.00" fill="#000000">mom_sum_output::get</text>
<text text-anchor="middle" x="559" y="-58.1061" font-family="Helvetica,sans-Serif" font-size="10.00" fill="#000000">_depth_list_checksums</text>
</a>
</g>
</g>
<!-- Node5&#45;&gt;Node6 -->
<g id="edge7" class="edge">
<title>Node5&#45;&gt;Node6</title>
<path fill="none" stroke="#191970" d="M291.0531,-78.2671C346.3983,-75.7552 427.2063,-72.0877 485.5954,-69.4376"/>
<polygon fill="#191970" stroke="#191970" points="486.0289,-72.9217 495.8599,-68.9718 485.7114,-65.9289 486.0289,-72.9217"/>
</g>
<!-- Node5&#45;&gt;Node7 -->
<g id="edge9" class="edge">
<title>Node5&#45;&gt;Node7</title>
<path fill="none" stroke="#191970" d="M275.341,-66.0602C294.5004,-59.906 316.837,-52.7312 336.8995,-46.2869"/>
<polygon fill="#191970" stroke="#191970" points="338.0914,-49.5803 346.5418,-43.1896 335.9506,-42.9156 338.0914,-49.5803"/>
</g>
<!-- Node7&#45;&gt;Node3 -->
<g id="edge11" class="edge">
<title>Node7&#45;&gt;Node3</title>
<path fill="none" stroke="#191970" d="M456.3492,-26.935C511.3988,-25.9092 591.2048,-24.4222 647.6823,-23.3698"/>
<polygon fill="#191970" stroke="#191970" points="648.0122,-26.8644 657.9452,-23.1786 647.8817,-19.8656 648.0122,-26.8644"/>
</g>
<!-- Node7&#45;&gt;Node4 -->
<g id="edge12" class="edge">
<title>Node7&#45;&gt;Node4</title>
<path fill="none" stroke="#191970" d="M416.0856,-43.267C436.4543,-56.5726 467.5002,-75.9546 496,-90.1061 500.0824,-92.1332 504.3717,-94.1192 508.7118,-96.0302"/>
<polygon fill="#191970" stroke="#191970" points="507.6616,-99.3869 518.2337,-100.0805 510.4017,-92.9454 507.6616,-99.3869"/>
</g>
<!-- Node7&#45;&gt;Node6 -->
<g id="edge10" class="edge">
<title>Node7&#45;&gt;Node6</title>
<path fill="none" stroke="#191970" d="M456.0685,-42.4723C465.8171,-44.7107 475.9637,-47.0404 485.9209,-49.3266"/>
<polygon fill="#191970" stroke="#191970" points="485.2636,-52.7667 495.7933,-51.5934 486.8302,-45.9443 485.2636,-52.7667"/>
</g>
</g>
</svg>
