<?xml version="1.0" encoding="UTF-8" standalone="no"?>
<!DOCTYPE svg PUBLIC "-//W3C//DTD SVG 1.1//EN"
 "http://www.w3.org/Graphics/SVG/1.1/DTD/svg11.dtd">
<!-- Generated by graphviz version 2.40.1 (20161225.0304)
 -->
<!-- Title: mom_diag_mediator::diag_copy_diag_to_storage Pages: 1 -->
<svg width="387pt" height="66pt"
 viewBox="0.00 0.00 387.00 66.00" xmlns="http://www.w3.org/2000/svg" xmlns:xlink="http://www.w3.org/1999/xlink">
<g id="graph0" class="graph" transform="scale(1 1) rotate(0) translate(4 62)">
<title>mom_diag_mediator::diag_copy_diag_to_storage</title>
<polygon fill="#ffffff" stroke="transparent" points="-4,4 -4,-62 383,-62 383,4 -4,4"/>
<!-- Node1 -->
<g id="node1" class="node">
<title>Node1</title>
<g id="a_node1"><a xlink:title="Copy from the main diagnostic arrays to the grid storage as well as the native thicknesses.">
<polygon fill="#bfbfbf" stroke="#000000" points="244,-14 244,-44 379,-44 379,-14 244,-14"/>
<text text-anchor="start" x="252" y="-32" font-family="Helvetica,sans-Serif" font-size="10.00" fill="#000000">mom_diag_mediator::</text>
<text text-anchor="middle" x="311.5" y="-21" font-family="Helvetica,sans-Serif" font-size="10.00" fill="#000000">diag_copy_diag_to_storage</text>
</a>
</g>
</g>
<!-- Node2 -->
<g id="node2" class="node">
<title>Node2</title>
<g id="a_node2"><a xlink:href="namespacemom.html#a96708b16215666edbfa5b46228f3a200" target="_top" xlink:title="Initialize MOM, including memory allocation, setting up parameters and diagnostics,...">
<polygon fill="#ffffff" stroke="#000000" points="101,-38.5 101,-57.5 208,-57.5 208,-38.5 101,-38.5"/>
<text text-anchor="middle" x="154.5" y="-45.5" font-family="Helvetica,sans-Serif" font-size="10.00" fill="#000000">mom::initialize_mom</text>
</a>
</g>
</g>
<!-- Node1&#45;&gt;Node2 -->
<g id="edge1" class="edge">
<title>Node1&#45;&gt;Node2</title>
<path fill="none" stroke="#191970" d="M233.5691,-38.4311C225.0422,-39.463 216.5063,-40.496 208.364,-41.4814"/>
<polygon fill="#191970" stroke="#191970" points="234.0436,-41.8993 243.5506,-37.2232 233.2025,-34.95 234.0436,-41.8993"/>
</g>
<!-- Node4 -->
<g id="node4" class="node">
<title>Node4</title>
<g id="a_node4"><a xlink:href="namespacemom.html#ad55f786e26bcd3445a7224f2fad54f7e" target="_top" xlink:title="This subroutine orchestrates the time stepping of MOM. The adiabatic dynamics are stepped by calls to...">
<polygon fill="#ffffff" stroke="#000000" points="109.5,-.5 109.5,-19.5 199.5,-19.5 199.5,-.5 109.5,-.5"/>
<text text-anchor="middle" x="154.5" y="-7.5" font-family="Helvetica,sans-Serif" font-size="10.00" fill="#000000">mom::step_mom</text>
</a>
</g>
</g>
<!-- Node1&#45;&gt;Node4 -->
<g id="edge3" class="edge">
<title>Node1&#45;&gt;Node4</title>
<path fill="none" stroke="#191970" d="M233.4711,-19.557C221.9692,-18.1651 210.4537,-16.7715 199.9126,-15.4958"/>
<polygon fill="#191970" stroke="#191970" points="233.2025,-23.05 243.5506,-20.7768 234.0436,-16.1007 233.2025,-23.05"/>
</g>
<!-- Node3 -->
<g id="node3" class="node">
<title>Node3</title>
<g id="a_node3"><a xlink:href="MOM__driver_8F90.html#a08fffeb2d8e8acbf9ed4609be6d258c6" target="_top" xlink:title=" ">
<polygon fill="#ffffff" stroke="#000000" points="0,-19.5 0,-38.5 65,-38.5 65,-19.5 0,-19.5"/>
<text text-anchor="middle" x="32.5" y="-26.5" font-family="Helvetica,sans-Serif" font-size="10.00" fill="#000000">mom_main</text>
</a>
</g>
</g>
<!-- Node2&#45;&gt;Node3 -->
<g id="edge2" class="edge">
<title>Node2&#45;&gt;Node3</title>
<path fill="none" stroke="#191970" d="M90.9603,-38.1045C82.0691,-36.7198 73.2499,-35.3463 65.2602,-34.102"/>
<polygon fill="#191970" stroke="#191970" points="90.5695,-41.5857 100.989,-39.6663 91.6467,-34.6691 90.5695,-41.5857"/>
</g>
<!-- Node4&#45;&gt;Node3 -->
<g id="edge4" class="edge">
<title>Node4&#45;&gt;Node3</title>
<path fill="none" stroke="#191970" d="M99.2932,-18.5978C87.6389,-20.4128 75.7,-22.2721 65.1988,-23.9076"/>
<polygon fill="#191970" stroke="#191970" points="100.0761,-22.0181 109.4183,-17.0209 98.9988,-15.1015 100.0761,-22.0181"/>
</g>
</g>
</svg>
