<?xml version="1.0" encoding="UTF-8" standalone="no"?>
<!DOCTYPE svg PUBLIC "-//W3C//DTD SVG 1.1//EN"
 "http://www.w3.org/Graphics/SVG/1.1/DTD/svg11.dtd">
<!-- Generated by graphviz version 2.40.1 (20161225.0304)
 -->
<!-- Title: mom_open_boundary::open_boundary_zero_normal_flow Pages: 1 -->
<svg width="395pt" height="88pt"
 viewBox="0.00 0.00 395.00 88.00" xmlns="http://www.w3.org/2000/svg" xmlns:xlink="http://www.w3.org/1999/xlink">
<g id="graph0" class="graph" transform="scale(1 1) rotate(0) translate(4 84)">
<title>mom_open_boundary::open_boundary_zero_normal_flow</title>
<polygon fill="#ffffff" stroke="transparent" points="-4,4 -4,-84 391,-84 391,4 -4,4"/>
<!-- Node1 -->
<g id="node1" class="node">
<title>Node1</title>
<g id="a_node1"><a xlink:title="Applies zero values to 3d u,v fields on OBC segments.">
<polygon fill="#bfbfbf" stroke="#000000" points="207,-24.5 207,-54.5 387,-54.5 387,-24.5 207,-24.5"/>
<text text-anchor="start" x="215" y="-42.5" font-family="Helvetica,sans-Serif" font-size="10.00" fill="#000000">mom_open_boundary::</text>
<text text-anchor="middle" x="297" y="-31.5" font-family="Helvetica,sans-Serif" font-size="10.00" fill="#000000">open_boundary_zero_normal_flow</text>
</a>
</g>
</g>
<!-- Node2 -->
<g id="node2" class="node">
<title>Node2</title>
<g id="a_node2"><a xlink:href="namespacemom__dynamics__unsplit.html#ab72d911d187f9247b6cc72d87e815370" target="_top" xlink:title="Step the MOM6 dynamics using an unsplit mixed 2nd order (for continuity) and 3rd order (for the invis...">
<polygon fill="#ffffff" stroke="#000000" points="21,-49.5 21,-79.5 150,-79.5 150,-49.5 21,-49.5"/>
<text text-anchor="start" x="29" y="-67.5" font-family="Helvetica,sans-Serif" font-size="10.00" fill="#000000">mom_dynamics_unsplit</text>
<text text-anchor="middle" x="85.5" y="-56.5" font-family="Helvetica,sans-Serif" font-size="10.00" fill="#000000">::step_mom_dyn_unsplit</text>
</a>
</g>
</g>
<!-- Node1&#45;&gt;Node2 -->
<g id="edge1" class="edge">
<title>Node1&#45;&gt;Node2</title>
<path fill="none" stroke="#191970" d="M196.6419,-51.3627C180.8242,-53.2324 164.8451,-55.1211 150.1253,-56.8611"/>
<polygon fill="#191970" stroke="#191970" points="197.4783,-54.7882 206.9983,-50.1385 196.6565,-47.8366 197.4783,-54.7882"/>
</g>
<!-- Node3 -->
<g id="node3" class="node">
<title>Node3</title>
<g id="a_node3"><a xlink:href="namespacemom__dynamics__unsplit__rk2.html#a25424d65cc3339442e528c0a92b173a3" target="_top" xlink:title="Step the MOM6 dynamics using an unsplit quasi&#45;2nd order Runge&#45;Kutta scheme.">
<polygon fill="#ffffff" stroke="#000000" points="0,-.5 0,-30.5 171,-30.5 171,-.5 0,-.5"/>
<text text-anchor="start" x="8" y="-18.5" font-family="Helvetica,sans-Serif" font-size="10.00" fill="#000000">mom_dynamics_unsplit</text>
<text text-anchor="middle" x="85.5" y="-7.5" font-family="Helvetica,sans-Serif" font-size="10.00" fill="#000000">_rk2::step_mom_dyn_unsplit_rk2</text>
</a>
</g>
</g>
<!-- Node1&#45;&gt;Node3 -->
<g id="edge2" class="edge">
<title>Node1&#45;&gt;Node3</title>
<path fill="none" stroke="#191970" d="M196.8918,-28.1402C188.251,-27.1597 179.5599,-26.1735 171.05,-25.2078"/>
<polygon fill="#191970" stroke="#191970" points="196.6674,-31.6371 206.9983,-29.287 197.4567,-24.6818 196.6674,-31.6371"/>
</g>
</g>
</svg>
