<?xml version="1.0" encoding="UTF-8" standalone="no"?>
<!DOCTYPE svg PUBLIC "-//W3C//DTD SVG 1.1//EN"
 "http://www.w3.org/Graphics/SVG/1.1/DTD/svg11.dtd">
<!-- Generated by graphviz version 2.40.1 (20161225.0304)
 -->
<!-- Title: mom_domains::do_group_pass Pages: 1 -->
<svg width="884pt" height="398pt"
 viewBox="0.00 0.00 884.00 397.50" xmlns="http://www.w3.org/2000/svg" xmlns:xlink="http://www.w3.org/1999/xlink">
<g id="graph0" class="graph" transform="scale(1 1) rotate(0) translate(4 393.5)">
<title>mom_domains::do_group_pass</title>
<polygon fill="#ffffff" stroke="transparent" points="-4,4 -4,-393.5 880,-393.5 880,4 -4,4"/>
<!-- Node1 -->
<g id="node1" class="node">
<title>Node1</title>
<g id="a_node1"><a xlink:title="do_group_pass carries out a group halo update.">
<polygon fill="#bfbfbf" stroke="#000000" points="713,-132.5 713,-151.5 876,-151.5 876,-132.5 713,-132.5"/>
<text text-anchor="middle" x="794.5" y="-139.5" font-family="Helvetica,sans-Serif" font-size="10.00" fill="#000000">mom_domains::do_group_pass</text>
</a>
</g>
</g>
<!-- Node2 -->
<g id="node2" class="node">
<title>Node2</title>
<g id="a_node2"><a xlink:href="namespacemom__tracer__advect.html#a28a6e28170a8d4f34337a1a202e0d902" target="_top" xlink:title="This routine time steps the tracer concentration using a monotonic, conservative, weakly diffusive sc...">
<polygon fill="#ffffff" stroke="#000000" points="535,-287 535,-317 650,-317 650,-287 535,-287"/>
<text text-anchor="start" x="543" y="-305" font-family="Helvetica,sans-Serif" font-size="10.00" fill="#000000">mom_tracer_advect::</text>
<text text-anchor="middle" x="592.5" y="-294" font-family="Helvetica,sans-Serif" font-size="10.00" fill="#000000">advect_tracer</text>
</a>
</g>
</g>
<!-- Node1&#45;&gt;Node2 -->
<g id="edge1" class="edge">
<title>Node1&#45;&gt;Node2</title>
<path fill="none" stroke="#191970" d="M779.3867,-159.0856C758.083,-182.5418 717.3045,-225.1953 677,-255 660.5334,-267.1768 640.5706,-278.4219 624.1837,-286.8577"/>
<polygon fill="#191970" stroke="#191970" points="781.9955,-161.419 786.0773,-151.642 776.7894,-156.7396 781.9955,-161.419"/>
</g>
<!-- Node10 -->
<g id="node10" class="node">
<title>Node10</title>
<g id="a_node10"><a xlink:href="namespacemom__ale.html#aaa82975639f59d30c233567cd9ef19c7" target="_top" xlink:title="For a state&#45;based coordinate, accelerate the process of regridding by repeatedly applying the grid ca...">
<polygon fill="#ffffff" stroke="#000000" points="536.5,-215 536.5,-245 648.5,-245 648.5,-215 536.5,-215"/>
<text text-anchor="start" x="544.5" y="-233" font-family="Helvetica,sans-Serif" font-size="10.00" fill="#000000">mom_ale::ale_regrid</text>
<text text-anchor="middle" x="592.5" y="-222" font-family="Helvetica,sans-Serif" font-size="10.00" fill="#000000">_accelerated</text>
</a>
</g>
</g>
<!-- Node1&#45;&gt;Node10 -->
<g id="edge9" class="edge">
<title>Node1&#45;&gt;Node10</title>
<path fill="none" stroke="#191970" d="M770.2075,-156.9278C746.9321,-170.7666 710.4937,-191.2358 677,-205 667.9437,-208.7217 658.1343,-212.145 648.5144,-215.1866"/>
<polygon fill="#191970" stroke="#191970" points="772.2691,-159.7723 779.0363,-151.6202 768.6624,-153.7729 772.2691,-159.7723"/>
</g>
<!-- Node13 -->
<g id="node13" class="node">
<title>Node13</title>
<g id="a_node13"><a xlink:href="namespacemom__bulk__mixed__layer.html#a1ce079fe4ece14b087b1fbecbfe66907" target="_top" xlink:title="This subroutine partially steps the bulk mixed layer model. The following processes are executed,...">
<polygon fill="#ffffff" stroke="#000000" points="529.5,-39 529.5,-69 655.5,-69 655.5,-39 529.5,-39"/>
<text text-anchor="start" x="537.5" y="-57" font-family="Helvetica,sans-Serif" font-size="10.00" fill="#000000">mom_bulk_mixed_layer</text>
<text text-anchor="middle" x="592.5" y="-46" font-family="Helvetica,sans-Serif" font-size="10.00" fill="#000000">::bulkmixedlayer</text>
</a>
</g>
</g>
<!-- Node1&#45;&gt;Node13 -->
<g id="edge13" class="edge">
<title>Node1&#45;&gt;Node13</title>
<path fill="none" stroke="#191970" d="M767.8735,-127.7375C744.3262,-115.3959 708.862,-97.465 677,-84 664.5247,-78.7279 650.7695,-73.5744 638.0452,-69.0677"/>
<polygon fill="#191970" stroke="#191970" points="766.4096,-130.9224 776.8872,-132.4942 769.6766,-124.7315 766.4096,-130.9224"/>
</g>
<!-- Node14 -->
<g id="node14" class="node">
<title>Node14</title>
<g id="a_node14"><a xlink:href="namespacemom__diabatic__driver.html#a71d8d849db16be4b87c2650b49f01c82" target="_top" xlink:title="Imposes the diapycnal mass fluxes and the accompanying diapycnal advection of momentum and tracers us...">
<polygon fill="#ffffff" stroke="#000000" points="343.5,-83 343.5,-113 457.5,-113 457.5,-83 343.5,-83"/>
<text text-anchor="start" x="351.5" y="-101" font-family="Helvetica,sans-Serif" font-size="10.00" fill="#000000">mom_diabatic_driver</text>
<text text-anchor="middle" x="400.5" y="-90" font-family="Helvetica,sans-Serif" font-size="10.00" fill="#000000">::layered_diabatic</text>
</a>
</g>
</g>
<!-- Node1&#45;&gt;Node14 -->
<g id="edge18" class="edge">
<title>Node1&#45;&gt;Node14</title>
<path fill="none" stroke="#191970" d="M746.3451,-130.1515C725.1927,-125.3635 699.9861,-120.2187 677,-117 601.5911,-106.4406 513.7543,-101.6757 457.6703,-99.5764"/>
<polygon fill="#191970" stroke="#191970" points="745.8452,-133.628 756.3759,-132.4633 747.4174,-126.8068 745.8452,-133.628"/>
</g>
<!-- Node16 -->
<g id="node16" class="node">
<title>Node16</title>
<g id="a_node16"><a xlink:href="namespacemom__diabatic__driver.html#ae57c48925de75712384e859a851c8c40" target="_top" xlink:title="This subroutine imposes the diapycnal mass fluxes and the accompanying diapycnal advection of momentu...">
<polygon fill="#ffffff" stroke="#000000" points="535.5,-127 535.5,-157 649.5,-157 649.5,-127 535.5,-127"/>
<text text-anchor="start" x="543.5" y="-145" font-family="Helvetica,sans-Serif" font-size="10.00" fill="#000000">mom_diabatic_driver</text>
<text text-anchor="middle" x="592.5" y="-134" font-family="Helvetica,sans-Serif" font-size="10.00" fill="#000000">::diabatic_ale</text>
</a>
</g>
</g>
<!-- Node1&#45;&gt;Node16 -->
<g id="edge16" class="edge">
<title>Node1&#45;&gt;Node16</title>
<path fill="none" stroke="#191970" d="M702.8916,-142C684.7357,-142 666.1714,-142 649.573,-142"/>
<polygon fill="#191970" stroke="#191970" points="702.9212,-145.5001 712.9211,-142 702.9211,-138.5001 702.9212,-145.5001"/>
</g>
<!-- Node17 -->
<g id="node17" class="node">
<title>Node17</title>
<g id="a_node17"><a xlink:href="namespacemom__meke.html#a099f1cfad37430ef1bd60972a92b1be4" target="_top" xlink:title="Initializes the MOM_MEKE module and reads parameters. Returns True if module is to be used,...">
<polygon fill="#ffffff" stroke="#000000" points="532.5,-176.5 532.5,-195.5 652.5,-195.5 652.5,-176.5 532.5,-176.5"/>
<text text-anchor="middle" x="592.5" y="-183.5" font-family="Helvetica,sans-Serif" font-size="10.00" fill="#000000">mom_meke::meke_init</text>
</a>
</g>
</g>
<!-- Node1&#45;&gt;Node17 -->
<g id="edge19" class="edge">
<title>Node1&#45;&gt;Node17</title>
<path fill="none" stroke="#191970" d="M740.8233,-153.692C708.1469,-160.8096 666.9316,-169.7872 636.2455,-176.4713"/>
<polygon fill="#191970" stroke="#191970" points="741.6431,-157.0955 750.669,-151.5473 740.1532,-150.2559 741.6431,-157.0955"/>
</g>
<!-- Node18 -->
<g id="node18" class="node">
<title>Node18</title>
<g id="a_node18"><a xlink:href="namespacemom__meke.html#a5f752f097ddeba7071e1703110e51bc2" target="_top" xlink:title="Integrates forward&#45;in&#45;time the MEKE eddy energy equation. See MEKE equations.">
<polygon fill="#ffffff" stroke="#000000" points="508,-.5 508,-19.5 677,-19.5 677,-.5 508,-.5"/>
<text text-anchor="middle" x="592.5" y="-7.5" font-family="Helvetica,sans-Serif" font-size="10.00" fill="#000000">mom_meke::step_forward_meke</text>
</a>
</g>
</g>
<!-- Node1&#45;&gt;Node18 -->
<g id="edge21" class="edge">
<title>Node1&#45;&gt;Node18</title>
<path fill="none" stroke="#191970" d="M781.3781,-124.3328C761.6401,-99.0929 721.8147,-53.1069 677,-29 669.7168,-25.0822 661.6628,-21.9708 653.5054,-19.5002"/>
<polygon fill="#191970" stroke="#191970" points="778.6391,-126.5129 787.4971,-132.3254 784.1972,-122.2576 778.6391,-126.5129"/>
</g>
<!-- Node3 -->
<g id="node3" class="node">
<title>Node3</title>
<g id="a_node3"><a xlink:href="namespacemom__offline__main.html#ae85546d26ceb447742abe3c528cad2d7" target="_top" xlink:title="3D advection is done by doing flux&#45;limited nonlinear horizontal advection interspersed with an ALE re...">
<polygon fill="#ffffff" stroke="#000000" points="333,-261 333,-291 468,-291 468,-261 333,-261"/>
<text text-anchor="start" x="341" y="-279" font-family="Helvetica,sans-Serif" font-size="10.00" fill="#000000">mom_offline_main::offline</text>
<text text-anchor="middle" x="400.5" y="-268" font-family="Helvetica,sans-Serif" font-size="10.00" fill="#000000">_advection_ale</text>
</a>
</g>
</g>
<!-- Node2&#45;&gt;Node3 -->
<g id="edge2" class="edge">
<title>Node2&#45;&gt;Node3</title>
<path fill="none" stroke="#191970" d="M524.8606,-292.8405C506.4842,-290.352 486.5847,-287.6573 468.2047,-285.1683"/>
<polygon fill="#191970" stroke="#191970" points="524.5144,-296.3255 534.8937,-294.1991 525.4538,-289.3888 524.5144,-296.3255"/>
</g>
<!-- Node4 -->
<g id="node4" class="node">
<title>Node4</title>
<g id="a_node4"><a xlink:href="namespacemom__offline__main.html#a887d59c64eb269aad257eacc8cf30444" target="_top" xlink:title="When in layer mode, 3D horizontal advection using stored mass fluxes must be used....">
<polygon fill="#ffffff" stroke="#000000" points="333,-359 333,-389 468,-389 468,-359 333,-359"/>
<text text-anchor="start" x="341" y="-377" font-family="Helvetica,sans-Serif" font-size="10.00" fill="#000000">mom_offline_main::offline</text>
<text text-anchor="middle" x="400.5" y="-366" font-family="Helvetica,sans-Serif" font-size="10.00" fill="#000000">_advection_layer</text>
</a>
</g>
</g>
<!-- Node2&#45;&gt;Node4 -->
<g id="edge3" class="edge">
<title>Node2&#45;&gt;Node4</title>
<path fill="none" stroke="#191970" d="M547.0238,-320.8029C524.5571,-329.9159 496.9743,-340.8423 472,-350 463.8863,-352.9752 455.2039,-356.0115 446.7852,-358.8796"/>
<polygon fill="#191970" stroke="#191970" points="548.3751,-324.0318 556.3167,-317.0188 545.7351,-317.5487 548.3751,-324.0318"/>
</g>
<!-- Node9 -->
<g id="node9" class="node">
<title>Node9</title>
<g id="a_node9"><a xlink:href="namespacemom__offline__main.html#a312c47e83e64a6bdf064526f77a8a8ec" target="_top" xlink:title="In the case where the main advection routine did not converge, something needs to be done with the re...">
<polygon fill="#ffffff" stroke="#000000" points="333,-310 333,-340 468,-340 468,-310 333,-310"/>
<text text-anchor="start" x="341" y="-328" font-family="Helvetica,sans-Serif" font-size="10.00" fill="#000000">mom_offline_main::offline</text>
<text text-anchor="middle" x="400.5" y="-317" font-family="Helvetica,sans-Serif" font-size="10.00" fill="#000000">_redistribute_residual</text>
</a>
</g>
</g>
<!-- Node2&#45;&gt;Node9 -->
<g id="edge8" class="edge">
<title>Node2&#45;&gt;Node9</title>
<path fill="none" stroke="#191970" d="M524.8606,-310.1026C506.4842,-312.304 486.5847,-314.6878 468.2047,-316.8895"/>
<polygon fill="#191970" stroke="#191970" points="525.381,-313.5654 534.8937,-308.9008 524.5483,-306.6151 525.381,-313.5654"/>
</g>
<!-- Node5 -->
<g id="node5" class="node">
<title>Node5</title>
<g id="a_node5"><a xlink:href="namespacemom.html#ade4f7557fcda73ffc12284d3cecf4182" target="_top" xlink:title="step_offline is the main driver for running tracers offline in MOM6. This has been primarily develope...">
<polygon fill="#ffffff" stroke="#000000" points="187,-297.5 187,-316.5 285,-316.5 285,-297.5 187,-297.5"/>
<text text-anchor="middle" x="236" y="-304.5" font-family="Helvetica,sans-Serif" font-size="10.00" fill="#000000">mom::step_offline</text>
</a>
</g>
</g>
<!-- Node4&#45;&gt;Node5 -->
<g id="edge4" class="edge">
<title>Node4&#45;&gt;Node5</title>
<path fill="none" stroke="#191970" d="M343.7012,-355.5686C338.704,-353.7558 333.7452,-351.8869 329,-350 302.8837,-339.6152 273.5791,-325.6695 254.97,-316.5143"/>
<polygon fill="#191970" stroke="#191970" points="342.7177,-358.9333 353.3125,-358.9752 345.0563,-352.3354 342.7177,-358.9333"/>
</g>
<!-- Node6 -->
<g id="node6" class="node">
<title>Node6</title>
<g id="a_node6"><a xlink:href="MOM__driver_8F90.html#a08fffeb2d8e8acbf9ed4609be6d258c6" target="_top" xlink:title=" ">
<polygon fill="#ffffff" stroke="#000000" points="37.5,-179.5 37.5,-198.5 105.5,-198.5 105.5,-179.5 37.5,-179.5"/>
<text text-anchor="middle" x="71.5" y="-186.5" font-family="Helvetica,sans-Serif" font-size="10.00" fill="#000000">mom_main</text>
</a>
</g>
</g>
<!-- Node5&#45;&gt;Node6 -->
<g id="edge5" class="edge">
<title>Node5&#45;&gt;Node6</title>
<path fill="none" stroke="#191970" d="M214.0945,-291.2866C179.6012,-266.5437 113.6281,-219.2196 85.1477,-198.7899"/>
<polygon fill="#191970" stroke="#191970" points="212.3726,-294.3588 222.5383,-297.3436 216.4527,-288.6708 212.3726,-294.3588"/>
</g>
<!-- Node7 -->
<g id="node7" class="node">
<title>Node7</title>
<g id="a_node7"><a xlink:href="namespacemom__ocean__model__mct.html#a422ba42ca07c0bf28ec5113aba4f1e96" target="_top" xlink:title="update_ocean_model uses the forcing in Ice_ocean_boundary to advance the ocean model&#39;s state from the...">
<polygon fill="#ffffff" stroke="#000000" points="6,-267 6,-297 137,-297 137,-267 6,-267"/>
<text text-anchor="start" x="14" y="-285" font-family="Helvetica,sans-Serif" font-size="10.00" fill="#000000">mom_ocean_model_mct</text>
<text text-anchor="middle" x="71.5" y="-274" font-family="Helvetica,sans-Serif" font-size="10.00" fill="#000000">::update_ocean_model</text>
</a>
</g>
</g>
<!-- Node5&#45;&gt;Node7 -->
<g id="edge6" class="edge">
<title>Node5&#45;&gt;Node7</title>
<path fill="none" stroke="#191970" d="M176.5994,-297.9726C163.8279,-296.0316 150.258,-293.9693 137.2609,-291.9941"/>
<polygon fill="#191970" stroke="#191970" points="176.2322,-301.4569 186.6446,-299.4992 177.284,-294.5363 176.2322,-301.4569"/>
</g>
<!-- Node8 -->
<g id="node8" class="node">
<title>Node8</title>
<g id="a_node8"><a xlink:href="namespacemom__ocean__model__nuopc.html#a02a87b4944febcc6828c55e8e4375e62" target="_top" xlink:title="update_ocean_model uses the forcing in Ice_ocean_boundary to advance the ocean model&#39;s state from the...">
<polygon fill="#ffffff" stroke="#000000" points="0,-316 0,-346 143,-346 143,-316 0,-316"/>
<text text-anchor="start" x="8" y="-334" font-family="Helvetica,sans-Serif" font-size="10.00" fill="#000000">mom_ocean_model_nuopc</text>
<text text-anchor="middle" x="71.5" y="-323" font-family="Helvetica,sans-Serif" font-size="10.00" fill="#000000">::update_ocean_model</text>
</a>
</g>
</g>
<!-- Node5&#45;&gt;Node8 -->
<g id="edge7" class="edge">
<title>Node5&#45;&gt;Node8</title>
<path fill="none" stroke="#191970" d="M176.4444,-315.689C165.5942,-317.272 154.1724,-318.9384 143.0185,-320.5657"/>
<polygon fill="#191970" stroke="#191970" points="177.2547,-319.1079 186.6446,-314.2008 176.244,-312.1812 177.2547,-319.1079"/>
</g>
<!-- Node11 -->
<g id="node11" class="node">
<title>Node11</title>
<g id="a_node11"><a xlink:href="namespacemom__state__initialization.html#a81503d4f1855cb185f122d6314e4f06c" target="_top" xlink:title="Initialize temporally evolving fields, either as initial conditions or by reading them from a restart...">
<polygon fill="#ffffff" stroke="#000000" points="336,-212 336,-242 465,-242 465,-212 336,-212"/>
<text text-anchor="start" x="344" y="-230" font-family="Helvetica,sans-Serif" font-size="10.00" fill="#000000">mom_state_initialization</text>
<text text-anchor="middle" x="400.5" y="-219" font-family="Helvetica,sans-Serif" font-size="10.00" fill="#000000">::mom_initialize_state</text>
</a>
</g>
</g>
<!-- Node10&#45;&gt;Node11 -->
<g id="edge10" class="edge">
<title>Node10&#45;&gt;Node11</title>
<path fill="none" stroke="#191970" d="M526.2808,-228.9653C506.4688,-228.6558 484.7786,-228.3169 465.0739,-228.009"/>
<polygon fill="#191970" stroke="#191970" points="526.396,-232.4675 536.4495,-229.1242 526.5054,-225.4683 526.396,-232.4675"/>
</g>
<!-- Node12 -->
<g id="node12" class="node">
<title>Node12</title>
<g id="a_node12"><a xlink:href="namespacemom.html#a96708b16215666edbfa5b46228f3a200" target="_top" xlink:title="Initialize MOM, including memory allocation, setting up parameters and diagnostics,...">
<polygon fill="#ffffff" stroke="#000000" points="181,-179.5 181,-198.5 291,-198.5 291,-179.5 181,-179.5"/>
<text text-anchor="middle" x="236" y="-186.5" font-family="Helvetica,sans-Serif" font-size="10.00" fill="#000000">mom::initialize_mom</text>
</a>
</g>
</g>
<!-- Node11&#45;&gt;Node12 -->
<g id="edge11" class="edge">
<title>Node11&#45;&gt;Node12</title>
<path fill="none" stroke="#191970" d="M326.1164,-209.8172C309.2786,-205.9276 291.997,-201.9355 277.129,-198.5009"/>
<polygon fill="#191970" stroke="#191970" points="325.4262,-213.2498 335.9574,-212.0905 327.0018,-206.4294 325.4262,-213.2498"/>
</g>
<!-- Node12&#45;&gt;Node6 -->
<g id="edge12" class="edge">
<title>Node12&#45;&gt;Node6</title>
<path fill="none" stroke="#191970" d="M170.7031,-189C148.4829,-189 124.5369,-189 105.739,-189"/>
<polygon fill="#191970" stroke="#191970" points="170.7663,-192.5001 180.7663,-189 170.7662,-185.5001 170.7663,-192.5001"/>
</g>
<!-- Node13&#45;&gt;Node14 -->
<g id="edge14" class="edge">
<title>Node13&#45;&gt;Node14</title>
<path fill="none" stroke="#191970" d="M519.4361,-70.7438C498.9296,-75.4432 476.94,-80.4825 457.5155,-84.9339"/>
<polygon fill="#191970" stroke="#191970" points="520.4006,-74.1136 529.3661,-68.4682 518.8369,-67.2905 520.4006,-74.1136"/>
</g>
<!-- Node15 -->
<g id="node15" class="node">
<title>Node15</title>
<g id="a_node15"><a xlink:href="namespacemom__diabatic__driver.html#a9005de9f3ad26b32de53e3cd9826b9b9" target="_top" xlink:title="This subroutine imposes the diapycnal mass fluxes and the accompanying diapycnal advection of momentu...">
<polygon fill="#ffffff" stroke="#000000" points="179,-121 179,-151 293,-151 293,-121 179,-121"/>
<text text-anchor="start" x="187" y="-139" font-family="Helvetica,sans-Serif" font-size="10.00" fill="#000000">mom_diabatic_driver</text>
<text text-anchor="middle" x="236" y="-128" font-family="Helvetica,sans-Serif" font-size="10.00" fill="#000000">::diabatic</text>
</a>
</g>
</g>
<!-- Node14&#45;&gt;Node15 -->
<g id="edge15" class="edge">
<title>Node14&#45;&gt;Node15</title>
<path fill="none" stroke="#191970" d="M333.3766,-113.5057C320.0617,-116.5815 306.1991,-119.7838 293.25,-122.7751"/>
<polygon fill="#191970" stroke="#191970" points="334.4719,-116.8449 343.4275,-111.1839 332.8963,-110.0245 334.4719,-116.8449"/>
</g>
<!-- Node16&#45;&gt;Node15 -->
<g id="edge17" class="edge">
<title>Node16&#45;&gt;Node15</title>
<path fill="none" stroke="#191970" d="M525.1824,-140.867C458.1433,-139.7387 356.3564,-138.0256 293.1357,-136.9616"/>
<polygon fill="#191970" stroke="#191970" points="525.1646,-144.3671 535.2221,-141.036 525.2825,-137.3681 525.1646,-144.3671"/>
</g>
<!-- Node17&#45;&gt;Node12 -->
<g id="edge20" class="edge">
<title>Node17&#45;&gt;Node12</title>
<path fill="none" stroke="#191970" d="M522.2604,-186.5911C454.4587,-187.1616 353.1885,-188.0138 291.0406,-188.5368"/>
<polygon fill="#191970" stroke="#191970" points="522.4576,-190.0896 532.4278,-186.5055 522.3986,-183.0899 522.4576,-190.0896"/>
</g>
<!-- Node19 -->
<g id="node19" class="node">
<title>Node19</title>
<g id="a_node19"><a xlink:href="namespacemom.html#a42ee7e91ffcf1340679e29ab28d9b41d" target="_top" xlink:title="Time step the ocean dynamics, including the momentum and continuity equations.">
<polygon fill="#ffffff" stroke="#000000" points="329,-22.5 329,-41.5 472,-41.5 472,-22.5 329,-22.5"/>
<text text-anchor="middle" x="400.5" y="-29.5" font-family="Helvetica,sans-Serif" font-size="10.00" fill="#000000">mom::step_mom_dynamics</text>
</a>
</g>
</g>
<!-- Node18&#45;&gt;Node19 -->
<g id="edge22" class="edge">
<title>Node18&#45;&gt;Node19</title>
<path fill="none" stroke="#191970" d="M499.2119,-20.6893C490.1585,-21.7266 481.0728,-22.7677 472.2774,-23.7755"/>
<polygon fill="#191970" stroke="#191970" points="499.8662,-24.1373 509.4027,-19.5216 499.0692,-17.1828 499.8662,-24.1373"/>
</g>
<!-- Node20 -->
<g id="node20" class="node">
<title>Node20</title>
<g id="a_node20"><a xlink:href="namespacemom.html#a972730596703580d4646320f2c9085a5" target="_top" xlink:title="This subroutine orchestrates the time stepping of MOM. The adiabatic dynamics are stepped by calls to...">
<polygon fill="#ffffff" stroke="#000000" points="190,-63.5 190,-82.5 282,-82.5 282,-63.5 190,-63.5"/>
<text text-anchor="middle" x="236" y="-70.5" font-family="Helvetica,sans-Serif" font-size="10.00" fill="#000000">mom::step_mom</text>
</a>
</g>
</g>
<!-- Node19&#45;&gt;Node20 -->
<g id="edge23" class="edge">
<title>Node19&#45;&gt;Node20</title>
<path fill="none" stroke="#191970" d="M352.3769,-43.9942C327.4831,-50.1987 297.5195,-57.6669 274.2308,-63.4714"/>
<polygon fill="#191970" stroke="#191970" points="353.4902,-47.3239 362.3469,-41.5093 351.7973,-40.5317 353.4902,-47.3239"/>
</g>
<!-- Node20&#45;&gt;Node6 -->
<g id="edge24" class="edge">
<title>Node20&#45;&gt;Node6</title>
<path fill="none" stroke="#191970" d="M212.8186,-88.1542C202.4137,-95.0329 190.0245,-103.33 179,-111 144.3614,-135.0987 104.3125,-164.6019 84.2887,-179.4684"/>
<polygon fill="#191970" stroke="#191970" points="214.9397,-90.9482 221.3673,-82.5258 211.0903,-85.1016 214.9397,-90.9482"/>
</g>
</g>
</svg>
