<?xml version="1.0" encoding="UTF-8" standalone="no"?>
<!DOCTYPE svg PUBLIC "-//W3C//DTD SVG 1.1//EN"
 "http://www.w3.org/Graphics/SVG/1.1/DTD/svg11.dtd">
<!-- Generated by graphviz version 2.40.1 (20161225.0304)
 -->
<!-- Title: mom_neutral_diffusion::find_neutral_pos_linear Pages: 1 -->
<svg width="446pt" height="186pt"
 viewBox="0.00 0.00 446.00 186.00" xmlns="http://www.w3.org/2000/svg" xmlns:xlink="http://www.w3.org/1999/xlink">
<g id="graph0" class="graph" transform="scale(1 1) rotate(0) translate(4 182)">
<title>mom_neutral_diffusion::find_neutral_pos_linear</title>
<polygon fill="#ffffff" stroke="transparent" points="-4,4 -4,-182 442,-182 442,4 -4,4"/>
<!-- Node1 -->
<g id="node1" class="node">
<title>Node1</title>
<g id="a_node1"><a xlink:title="Search a layer to find where delta_rho = 0 based on a linear interpolation of alpha and beta of the t...">
<polygon fill="#bfbfbf" stroke="#000000" points="0,-73.5 0,-103.5 122,-103.5 122,-73.5 0,-73.5"/>
<text text-anchor="start" x="8" y="-91.5" font-family="Helvetica,sans-Serif" font-size="10.00" fill="#000000">mom_neutral_diffusion</text>
<text text-anchor="middle" x="61" y="-80.5" font-family="Helvetica,sans-Serif" font-size="10.00" fill="#000000">::find_neutral_pos_linear</text>
</a>
</g>
</g>
<!-- Node2 -->
<g id="node2" class="node">
<title>Node2</title>
<g id="a_node2"><a xlink:href="namespacemom__neutral__diffusion.html#ae0420673e01c23b26e87dc68317347a1" target="_top" xlink:title="Calculate delta rho from derivatives and gradients of properties .">
<polygon fill="#ffffff" stroke="#000000" points="167.5,-147.5 167.5,-177.5 286.5,-177.5 286.5,-147.5 167.5,-147.5"/>
<text text-anchor="start" x="175.5" y="-165.5" font-family="Helvetica,sans-Serif" font-size="10.00" fill="#000000">mom_neutral_diffusion</text>
<text text-anchor="middle" x="227" y="-154.5" font-family="Helvetica,sans-Serif" font-size="10.00" fill="#000000">::delta_rho_from_derivs</text>
</a>
</g>
</g>
<!-- Node1&#45;&gt;Node2 -->
<g id="edge1" class="edge">
<title>Node1&#45;&gt;Node2</title>
<path fill="none" stroke="#191970" d="M87.6855,-103.5521C106.9002,-114.0676 133.625,-128.0407 158,-138.5 162.1777,-140.2927 166.5383,-142.0538 170.9485,-143.7572"/>
<polygon fill="#191970" stroke="#191970" points="170.0387,-147.1538 180.631,-147.3835 172.4938,-140.5985 170.0387,-147.1538"/>
</g>
<!-- Node3 -->
<g id="node3" class="node">
<title>Node3</title>
<g id="a_node3"><a xlink:href="namespacepolynomial__functions.html#adb2b5d18db527314545e8e21638a2872" target="_top" xlink:title="Pointwise evaluation of a polynomial at x.">
<polygon fill="#ffffff" stroke="#000000" points="167.5,-98.5 167.5,-128.5 286.5,-128.5 286.5,-98.5 167.5,-98.5"/>
<text text-anchor="start" x="175.5" y="-116.5" font-family="Helvetica,sans-Serif" font-size="10.00" fill="#000000">polynomial_functions</text>
<text text-anchor="middle" x="227" y="-105.5" font-family="Helvetica,sans-Serif" font-size="10.00" fill="#000000">::evaluation_polynomial</text>
</a>
</g>
</g>
<!-- Node1&#45;&gt;Node3 -->
<g id="edge2" class="edge">
<title>Node1&#45;&gt;Node3</title>
<path fill="none" stroke="#191970" d="M122.3406,-97.738C133.6985,-99.4486 145.6381,-101.2467 157.2249,-102.9917"/>
<polygon fill="#191970" stroke="#191970" points="156.8831,-106.4796 167.2928,-104.508 157.9256,-99.5577 156.8831,-106.4796"/>
</g>
<!-- Node4 -->
<g id="node4" class="node">
<title>Node4</title>
<g id="a_node4"><a xlink:href="namespacepolynomial__functions.html#a38462b1bc63d3f1f441e4d340c2b4627" target="_top" xlink:title="Calculates the first derivative of a polynomial evaluated at a point x.">
<polygon fill="#ffffff" stroke="#000000" points="158,-49.5 158,-79.5 296,-79.5 296,-49.5 158,-49.5"/>
<text text-anchor="start" x="166" y="-67.5" font-family="Helvetica,sans-Serif" font-size="10.00" fill="#000000">polynomial_functions</text>
<text text-anchor="middle" x="227" y="-56.5" font-family="Helvetica,sans-Serif" font-size="10.00" fill="#000000">::first_derivative_polynomial</text>
</a>
</g>
</g>
<!-- Node1&#45;&gt;Node4 -->
<g id="edge3" class="edge">
<title>Node1&#45;&gt;Node4</title>
<path fill="none" stroke="#191970" d="M122.3406,-79.6315C130.6384,-78.4318 139.2467,-77.1872 147.8011,-75.9504"/>
<polygon fill="#191970" stroke="#191970" points="148.4003,-79.4003 157.7965,-74.5053 147.3986,-72.4723 148.4003,-79.4003"/>
</g>
<!-- Node5 -->
<g id="node5" class="node">
<title>Node5</title>
<g id="a_node5"><a xlink:href="namespacemom__error__handler.html#a460cfb79a06c29fc249952c2a3710d67" target="_top" xlink:title="This provides a convenient interface for writing an mpp_error message with run&#45;time filter based on a...">
<polygon fill="#ffffff" stroke="#000000" points="174,-.5 174,-30.5 280,-30.5 280,-.5 174,-.5"/>
<text text-anchor="start" x="182" y="-18.5" font-family="Helvetica,sans-Serif" font-size="10.00" fill="#000000">mom_error_handler::</text>
<text text-anchor="middle" x="227" y="-7.5" font-family="Helvetica,sans-Serif" font-size="10.00" fill="#000000">mom_error</text>
</a>
</g>
</g>
<!-- Node1&#45;&gt;Node5 -->
<g id="edge4" class="edge">
<title>Node1&#45;&gt;Node5</title>
<path fill="none" stroke="#191970" d="M89.4678,-73.3618C108.5921,-63.4545 134.4992,-50.5348 158,-40.5 163.0533,-38.3423 168.3621,-36.2021 173.6969,-34.1347"/>
<polygon fill="#191970" stroke="#191970" points="175.1673,-37.3205 183.2782,-30.5041 172.6869,-30.7747 175.1673,-37.3205"/>
</g>
<!-- Node6 -->
<g id="node6" class="node">
<title>Node6</title>
<g id="a_node6"><a xlink:href="namespacemom__error__handler.html#ad5f00a53059c72fe2332d1436c80ca71" target="_top" xlink:title="This returns .true. if the current PE is the root PE.">
<polygon fill="#ffffff" stroke="#000000" points="332,-.5 332,-30.5 438,-30.5 438,-.5 332,-.5"/>
<text text-anchor="start" x="340" y="-18.5" font-family="Helvetica,sans-Serif" font-size="10.00" fill="#000000">mom_error_handler::</text>
<text text-anchor="middle" x="385" y="-7.5" font-family="Helvetica,sans-Serif" font-size="10.00" fill="#000000">is_root_pe</text>
</a>
</g>
</g>
<!-- Node5&#45;&gt;Node6 -->
<g id="edge5" class="edge">
<title>Node5&#45;&gt;Node6</title>
<path fill="none" stroke="#191970" d="M280.0512,-15.5C293.339,-15.5 307.7286,-15.5 321.4685,-15.5"/>
<polygon fill="#191970" stroke="#191970" points="321.8199,-19.0001 331.8198,-15.5 321.8198,-12.0001 321.8199,-19.0001"/>
</g>
</g>
</svg>
