<?xml version="1.0" encoding="UTF-8" standalone="no"?>
<!DOCTYPE svg PUBLIC "-//W3C//DTD SVG 1.1//EN"
 "http://www.w3.org/Graphics/SVG/1.1/DTD/svg11.dtd">
<!-- Generated by graphviz version 2.40.1 (20161225.0304)
 -->
<!-- Title: mom_cvmix_kpp::kpp_compute_bld Pages: 1 -->
<svg width="592pt" height="186pt"
 viewBox="0.00 0.00 592.00 186.00" xmlns="http://www.w3.org/2000/svg" xmlns:xlink="http://www.w3.org/1999/xlink">
<g id="graph0" class="graph" transform="scale(1 1) rotate(0) translate(4 182)">
<title>mom_cvmix_kpp::kpp_compute_bld</title>
<polygon fill="#ffffff" stroke="transparent" points="-4,4 -4,-182 588,-182 588,4 -4,4"/>
<!-- Node1 -->
<g id="node1" class="node">
<title>Node1</title>
<g id="a_node1"><a xlink:title="Compute OBL depth.">
<polygon fill="#bfbfbf" stroke="#000000" points="0,-48.5 0,-78.5 113,-78.5 113,-48.5 0,-48.5"/>
<text text-anchor="start" x="8" y="-66.5" font-family="Helvetica,sans-Serif" font-size="10.00" fill="#000000">mom_cvmix_kpp::kpp</text>
<text text-anchor="middle" x="56.5" y="-55.5" font-family="Helvetica,sans-Serif" font-size="10.00" fill="#000000">_compute_bld</text>
</a>
</g>
</g>
<!-- Node2 -->
<g id="node2" class="node">
<title>Node2</title>
<g id="a_node2"><a xlink:href="namespacemom__wave__interface.html#aa07c73f561840851981d6a013423dd6e" target="_top" xlink:title="Interface to get Langmuir number based on options stored in wave structure.">
<polygon fill="#ffffff" stroke="#000000" points="149,-73.5 149,-103.5 265,-103.5 265,-73.5 149,-73.5"/>
<text text-anchor="start" x="157" y="-91.5" font-family="Helvetica,sans-Serif" font-size="10.00" fill="#000000">mom_wave_interface</text>
<text text-anchor="middle" x="207" y="-80.5" font-family="Helvetica,sans-Serif" font-size="10.00" fill="#000000">::get_langmuir_number</text>
</a>
</g>
</g>
<!-- Node1&#45;&gt;Node2 -->
<g id="edge1" class="edge">
<title>Node1&#45;&gt;Node2</title>
<path fill="none" stroke="#191970" d="M113.3976,-72.9514C121.7138,-74.3329 130.3485,-75.7672 138.8607,-77.1812"/>
<polygon fill="#191970" stroke="#191970" points="138.3323,-80.6413 148.7707,-78.8274 139.4794,-73.7359 138.3323,-80.6413"/>
</g>
<!-- Node9 -->
<g id="node9" class="node">
<title>Node9</title>
<g id="a_node9"><a xlink:href="namespacemom__cvmix__kpp.html#a8662fdd6328fdec67691ced27f03e049" target="_top" xlink:title="Apply a 1&#45;1&#45;4&#45;1&#45;1 Laplacian filter one time on BLD to reduce any horizontal two&#45;grid&#45;point noise.">
<polygon fill="#ffffff" stroke="#000000" points="150.5,-24.5 150.5,-54.5 263.5,-54.5 263.5,-24.5 150.5,-24.5"/>
<text text-anchor="start" x="158.5" y="-42.5" font-family="Helvetica,sans-Serif" font-size="10.00" fill="#000000">mom_cvmix_kpp::kpp</text>
<text text-anchor="middle" x="207" y="-31.5" font-family="Helvetica,sans-Serif" font-size="10.00" fill="#000000">_smooth_bld</text>
</a>
</g>
</g>
<!-- Node1&#45;&gt;Node9 -->
<g id="edge8" class="edge">
<title>Node1&#45;&gt;Node9</title>
<path fill="none" stroke="#191970" d="M113.3976,-54.4266C122.1066,-53.0378 131.1649,-51.5933 140.066,-50.1739"/>
<polygon fill="#191970" stroke="#191970" points="140.6979,-53.6174 150.0219,-48.5862 139.5955,-46.7047 140.6979,-53.6174"/>
</g>
<!-- Node3 -->
<g id="node3" class="node">
<title>Node3</title>
<g id="a_node3"><a xlink:href="namespacemom__wave__interface.html#a5ebd32de10bed6d66c0a95a4a15cc81a" target="_top" xlink:title="Get SL averaged Stokes drift from the banded Spectrum method.">
<polygon fill="#ffffff" stroke="#000000" points="310.5,-147.5 310.5,-177.5 425.5,-177.5 425.5,-147.5 310.5,-147.5"/>
<text text-anchor="start" x="318.5" y="-165.5" font-family="Helvetica,sans-Serif" font-size="10.00" fill="#000000">mom_wave_interface</text>
<text text-anchor="middle" x="368" y="-154.5" font-family="Helvetica,sans-Serif" font-size="10.00" fill="#000000">::get_sl_average_band</text>
</a>
</g>
</g>
<!-- Node2&#45;&gt;Node3 -->
<g id="edge2" class="edge">
<title>Node2&#45;&gt;Node3</title>
<path fill="none" stroke="#191970" d="M232.832,-103.5472C251.4391,-114.0604 277.3331,-128.0327 301,-138.5 305.0503,-140.2913 309.2799,-142.0516 313.5591,-143.7542"/>
<polygon fill="#191970" stroke="#191970" points="312.3666,-147.0455 322.9561,-147.3796 314.8862,-140.5147 312.3666,-147.0455"/>
</g>
<!-- Node4 -->
<g id="node4" class="node">
<title>Node4</title>
<g id="a_node4"><a xlink:href="namespacemom__wave__interface.html#ae631a776ca48a5b8be572bed00e6f5c1" target="_top" xlink:title="Get SL Averaged Stokes drift from a Stokes drift Profile.">
<polygon fill="#ffffff" stroke="#000000" points="313,-98.5 313,-128.5 423,-128.5 423,-98.5 313,-98.5"/>
<text text-anchor="start" x="321" y="-116.5" font-family="Helvetica,sans-Serif" font-size="10.00" fill="#000000">mom_wave_interface</text>
<text text-anchor="middle" x="368" y="-105.5" font-family="Helvetica,sans-Serif" font-size="10.00" fill="#000000">::get_sl_average_prof</text>
</a>
</g>
</g>
<!-- Node2&#45;&gt;Node4 -->
<g id="edge3" class="edge">
<title>Node2&#45;&gt;Node4</title>
<path fill="none" stroke="#191970" d="M265.1247,-97.5256C277.4201,-99.4348 290.4721,-101.4615 303.0031,-103.4073"/>
<polygon fill="#191970" stroke="#191970" points="302.498,-106.8707 312.9167,-104.9467 303.5722,-99.9536 302.498,-106.8707"/>
</g>
<!-- Node5 -->
<g id="node5" class="node">
<title>Node5</title>
<g id="a_node5"><a xlink:href="namespacemom__wave__interface.html#a42ca9104192ff12c44c28b705d137eb9" target="_top" xlink:title="Get SL averaged Stokes drift from Li/FK 17 method.">
<polygon fill="#ffffff" stroke="#000000" points="301,-49.5 301,-79.5 435,-79.5 435,-49.5 301,-49.5"/>
<text text-anchor="start" x="309" y="-67.5" font-family="Helvetica,sans-Serif" font-size="10.00" fill="#000000">mom_wave_interface</text>
<text text-anchor="middle" x="368" y="-56.5" font-family="Helvetica,sans-Serif" font-size="10.00" fill="#000000">::get_stokessl_lifoxkemper</text>
</a>
</g>
</g>
<!-- Node2&#45;&gt;Node5 -->
<g id="edge4" class="edge">
<title>Node2&#45;&gt;Node5</title>
<path fill="none" stroke="#191970" d="M265.1247,-79.8354C273.476,-78.5905 282.1763,-77.2936 290.8253,-76.0043"/>
<polygon fill="#191970" stroke="#191970" points="291.5564,-79.4341 300.931,-74.4979 290.5242,-72.5106 291.5564,-79.4341"/>
</g>
<!-- Node7 -->
<g id="node7" class="node">
<title>Node7</title>
<g id="a_node7"><a xlink:href="namespacemom__error__handler.html#a460cfb79a06c29fc249952c2a3710d67" target="_top" xlink:title="This provides a convenient interface for writing an mpp_error message with run&#45;time filter based on a...">
<polygon fill="#ffffff" stroke="#000000" points="315,-.5 315,-30.5 421,-30.5 421,-.5 315,-.5"/>
<text text-anchor="start" x="323" y="-18.5" font-family="Helvetica,sans-Serif" font-size="10.00" fill="#000000">mom_error_handler::</text>
<text text-anchor="middle" x="368" y="-7.5" font-family="Helvetica,sans-Serif" font-size="10.00" fill="#000000">mom_error</text>
</a>
</g>
</g>
<!-- Node2&#45;&gt;Node7 -->
<g id="edge6" class="edge">
<title>Node2&#45;&gt;Node7</title>
<path fill="none" stroke="#191970" d="M246.4816,-73.3859C252.7723,-70.6302 259.1353,-67.6295 265,-64.5 281.9654,-55.4471 283.8779,-49.2528 301,-40.5 305.0263,-38.4417 309.2631,-36.4631 313.5691,-34.5831"/>
<polygon fill="#191970" stroke="#191970" points="315.1664,-37.7093 323.051,-30.6324 312.4741,-31.2478 315.1664,-37.7093"/>
</g>
<!-- Node6 -->
<g id="node6" class="node">
<title>Node6</title>
<g id="a_node6"><a xlink:href="namespacemom__wave__interface.html#ae771d75c78a0370ad163edd5b1c19965" target="_top" xlink:title="Computes wind speed from ustar_air based on COARE 3.5 Cd relationship Probably doesn&#39;t belong in this...">
<polygon fill="#ffffff" stroke="#000000" points="471,-49.5 471,-79.5 584,-79.5 584,-49.5 471,-49.5"/>
<text text-anchor="start" x="479" y="-67.5" font-family="Helvetica,sans-Serif" font-size="10.00" fill="#000000">mom_wave_interface</text>
<text text-anchor="middle" x="527.5" y="-56.5" font-family="Helvetica,sans-Serif" font-size="10.00" fill="#000000">::ust_2_u10_coare3p5</text>
</a>
</g>
</g>
<!-- Node5&#45;&gt;Node6 -->
<g id="edge5" class="edge">
<title>Node5&#45;&gt;Node6</title>
<path fill="none" stroke="#191970" d="M435.1801,-64.5C443.6539,-64.5 452.3219,-64.5 460.7884,-64.5"/>
<polygon fill="#191970" stroke="#191970" points="460.9892,-68.0001 470.9892,-64.5 460.9891,-61.0001 460.9892,-68.0001"/>
</g>
<!-- Node8 -->
<g id="node8" class="node">
<title>Node8</title>
<g id="a_node8"><a xlink:href="namespacemom__error__handler.html#ad5f00a53059c72fe2332d1436c80ca71" target="_top" xlink:title="This returns .true. if the current PE is the root PE.">
<polygon fill="#ffffff" stroke="#000000" points="474.5,-.5 474.5,-30.5 580.5,-30.5 580.5,-.5 474.5,-.5"/>
<text text-anchor="start" x="482.5" y="-18.5" font-family="Helvetica,sans-Serif" font-size="10.00" fill="#000000">mom_error_handler::</text>
<text text-anchor="middle" x="527.5" y="-7.5" font-family="Helvetica,sans-Serif" font-size="10.00" fill="#000000">is_root_pe</text>
</a>
</g>
</g>
<!-- Node7&#45;&gt;Node8 -->
<g id="edge7" class="edge">
<title>Node7&#45;&gt;Node8</title>
<path fill="none" stroke="#191970" d="M421.1112,-15.5C434.8936,-15.5 449.8752,-15.5 464.1275,-15.5"/>
<polygon fill="#191970" stroke="#191970" points="464.349,-19.0001 474.349,-15.5 464.3489,-12.0001 464.349,-19.0001"/>
</g>
</g>
</svg>
