<?xml version="1.0" encoding="UTF-8" standalone="no"?>
<!DOCTYPE svg PUBLIC "-//W3C//DTD SVG 1.1//EN"
 "http://www.w3.org/Graphics/SVG/1.1/DTD/svg11.dtd">
<!-- Generated by graphviz version 2.40.1 (20161225.0304)
 -->
<!-- Title: mom_continuity_ppm::continuity_ppm Pages: 1 -->
<!--zoomable 524 -->
<svg id="main" version="1.1" xmlns="http://www.w3.org/2000/svg" xmlns:xlink="http://www.w3.org/1999/xlink" xml:space="preserve" onload="init(evt)">
<style type="text/css"><![CDATA[
.edge:hover path { stroke: red; }
.edge:hover polygon { stroke: red; fill: red; }
]]></style>
<script type="text/javascript"><![CDATA[
var edges = document.getElementsByTagName('g');
if (edges && edges.length) {
  for (var i=0;i<edges.length;i++) {
    if (edges[i].id.substr(0,4)=='edge') {
      edges[i].setAttribute('class','edge');
    }
  }
}
]]></script>
        <defs>
                <circle id="rim" cx="0" cy="0" r="7"/>
                <circle id="rim2" cx="0" cy="0" r="3.5"/>
                <g id="zoomPlus">
                        <use xlink:href="#rim" fill="#404040">
                                <set attributeName="fill" to="#808080" begin="zoomplus.mouseover" end="zoomplus.mouseout"/>
                        </use>
                        <path d="M-4,0h8M0,-4v8" fill="none" stroke="white" stroke-width="1.5" pointer-events="none"/>
                </g>
                <g id="zoomMin">
                        <use xlink:href="#rim" fill="#404040">
                                <set attributeName="fill" to="#808080" begin="zoomminus.mouseover" end="zoomminus.mouseout"/>
                        </use>
                        <path d="M-4,0h8" fill="none" stroke="white" stroke-width="1.5" pointer-events="none"/>
                </g>
                <g id="dirArrow">
                        <path fill="none" stroke="white" stroke-width="1.5" d="M0,-3.0v7 M-2.5,-0.5L0,-3.0L2.5,-0.5"/>
                </g>
               <g id="resetDef">
                       <use xlink:href="#rim2" fill="#404040">
                               <set attributeName="fill" to="#808080" begin="reset.mouseover" end="reset.mouseout"/>
                       </use>
               </g>
        </defs>

<script type="text/javascript">
var viewWidth = 756;
var viewHeight = 524;
var sectionId = 'dynsection-0';
</script>
<script xlink:href="svgpan.js"/>
<svg id="graph" class="graph">
<g id="viewport">
<title>mom_continuity_ppm::continuity_ppm</title>
<polygon fill="#ffffff" stroke="transparent" points="-4,4 -4,-519.9809 752,-519.9809 752,4 -4,4"/>
<!-- Node1 -->
<g id="node1" class="node">
<title>Node1</title>
<g id="a_node1"><a xlink:title="Time steps the layer thicknesses, using a monotonically limit, directionally split PPM scheme,...">
<polygon fill="#bfbfbf" stroke="#000000" points="0,-173.5 0,-203.5 116,-203.5 116,-173.5 0,-173.5"/>
<text text-anchor="start" x="8" y="-191.5" font-family="Helvetica,sans-Serif" font-size="10.00" fill="#000000">mom_continuity_ppm</text>
<text text-anchor="middle" x="58" y="-180.5" font-family="Helvetica,sans-Serif" font-size="10.00" fill="#000000">::continuity_ppm</text>
</a>
</g>
</g>
<!-- Node2 -->
<g id="node2" class="node">
<title>Node2</title>
<g id="a_node2"><a xlink:href="namespacemom__continuity__ppm.html#ad8518f52de5e1be087caac0fc7db255f" target="_top" xlink:title="Calculates the mass or volume fluxes through the meridional faces, and other related quantities.">
<polygon fill="#ffffff" stroke="#000000" points="152,-359.5 152,-389.5 274,-389.5 274,-359.5 152,-359.5"/>
<text text-anchor="start" x="160" y="-377.5" font-family="Helvetica,sans-Serif" font-size="10.00" fill="#000000">mom_continuity_ppm</text>
<text text-anchor="middle" x="213" y="-366.5" font-family="Helvetica,sans-Serif" font-size="10.00" fill="#000000">::meridional_mass_flux</text>
</a>
</g>
</g>
<!-- Node1&#45;&gt;Node2 -->
<g id="edge1" class="edge">
<title>Node1&#45;&gt;Node2</title>
<path fill="none" stroke="#191970" d="M70.6843,-203.7212C97.7732,-236.2278 161.424,-312.6088 193.6216,-351.246"/>
<polygon fill="#191970" stroke="#191970" points="191.2672,-353.8878 200.3578,-359.3294 196.6447,-349.4065 191.2672,-353.8878"/>
</g>
<!-- Node7 -->
<g id="node7" class="node">
<title>Node7</title>
<g id="a_node7"><a xlink:href="namespacemom__error__handler.html#a460cfb79a06c29fc249952c2a3710d67" target="_top" xlink:title="This provides a convenient interface for writing an mpp_error message with run&#45;time filter based on a...">
<polygon fill="#ffffff" stroke="#000000" points="476,-217.5 476,-247.5 591,-247.5 591,-217.5 476,-217.5"/>
<text text-anchor="start" x="484" y="-235.5" font-family="Helvetica,sans-Serif" font-size="10.00" fill="#000000">mom_error_handler::</text>
<text text-anchor="middle" x="533.5" y="-224.5" font-family="Helvetica,sans-Serif" font-size="10.00" fill="#000000">mom_error</text>
</a>
</g>
</g>
<!-- Node1&#45;&gt;Node7 -->
<g id="edge15" class="edge">
<title>Node1&#45;&gt;Node7</title>
<path fill="none" stroke="#191970" d="M116.1359,-188.2436C190.4709,-188.6794 322.9783,-192.0277 435,-208.5 446.3135,-210.1636 458.2286,-212.5286 469.7114,-215.1317"/>
<polygon fill="#191970" stroke="#191970" points="469.1297,-218.5903 479.665,-217.4691 470.73,-211.7756 469.1297,-218.5903"/>
</g>
<!-- Node13 -->
<g id="node13" class="node">
<title>Node13</title>
<g id="a_node13"><a xlink:href="namespacemom__continuity__ppm.html#ac9ae859f0fd4d6b13faab1065bf371b2" target="_top" xlink:title="Calculates the mass or volume fluxes through the zonal faces, and other related quantities.">
<polygon fill="#ffffff" stroke="#000000" points="155,-129.5 155,-159.5 271,-159.5 271,-129.5 155,-129.5"/>
<text text-anchor="start" x="163" y="-147.5" font-family="Helvetica,sans-Serif" font-size="10.00" fill="#000000">mom_continuity_ppm</text>
<text text-anchor="middle" x="213" y="-136.5" font-family="Helvetica,sans-Serif" font-size="10.00" fill="#000000">::zonal_mass_flux</text>
</a>
</g>
</g>
<!-- Node1&#45;&gt;Node13 -->
<g id="edge16" class="edge">
<title>Node1&#45;&gt;Node13</title>
<path fill="none" stroke="#191970" d="M110.9087,-173.4808C123.558,-169.89 137.1824,-166.0224 150.2287,-162.319"/>
<polygon fill="#191970" stroke="#191970" points="151.4027,-165.6241 160.0668,-159.5262 149.4911,-158.8901 151.4027,-165.6241"/>
</g>
<!-- Node3 -->
<g id="node3" class="node">
<title>Node3</title>
<g id="a_node3"><a xlink:href="namespacemom__continuity__ppm.html#ac4f73cd224d4e8bdb6012359220ebd6c" target="_top" xlink:title="Sets the effective interface thickness at each meridional velocity point.">
<polygon fill="#ffffff" stroke="#000000" points="310.5,-452.5 310.5,-482.5 434.5,-482.5 434.5,-452.5 310.5,-452.5"/>
<text text-anchor="start" x="318.5" y="-470.5" font-family="Helvetica,sans-Serif" font-size="10.00" fill="#000000">mom_continuity_ppm</text>
<text text-anchor="middle" x="372.5" y="-459.5" font-family="Helvetica,sans-Serif" font-size="10.00" fill="#000000">::merid_face_thickness</text>
</a>
</g>
</g>
<!-- Node2&#45;&gt;Node3 -->
<g id="edge2" class="edge">
<title>Node2&#45;&gt;Node3</title>
<path fill="none" stroke="#191970" d="M231.3993,-389.7366C250.2568,-404.8216 280.8632,-427.8663 310,-443.5 313.2102,-445.2225 316.5713,-446.883 319.9981,-448.4708"/>
<polygon fill="#191970" stroke="#191970" points="318.6009,-451.6798 329.1642,-452.4968 321.416,-445.2708 318.6009,-451.6798"/>
</g>
<!-- Node4 -->
<g id="node4" class="node">
<title>Node4</title>
<g id="a_node4"><a xlink:href="namespacemom__continuity__ppm.html#a7903cb1f2a81dd7c1e6c6327a8354660" target="_top" xlink:title="Evaluates the meridional mass or volume fluxes in a layer.">
<polygon fill="#ffffff" stroke="#000000" points="632,-428.5 632,-458.5 748,-458.5 748,-428.5 632,-428.5"/>
<text text-anchor="start" x="640" y="-446.5" font-family="Helvetica,sans-Serif" font-size="10.00" fill="#000000">mom_continuity_ppm</text>
<text text-anchor="middle" x="690" y="-435.5" font-family="Helvetica,sans-Serif" font-size="10.00" fill="#000000">::merid_flux_layer</text>
</a>
</g>
</g>
<!-- Node2&#45;&gt;Node4 -->
<g id="edge3" class="edge">
<title>Node2&#45;&gt;Node4</title>
<path fill="none" stroke="#191970" d="M219.9333,-389.6932C233.0776,-416.4019 264.4422,-470.9753 310,-492.5 423.9671,-546.346 577.4191,-493.6308 649.4595,-462.6061"/>
<polygon fill="#191970" stroke="#191970" points="650.9081,-465.7926 658.6596,-458.57 648.0959,-459.3823 650.9081,-465.7926"/>
</g>
<!-- Node5 -->
<g id="node5" class="node">
<title>Node5</title>
<g id="a_node5"><a xlink:href="namespacemom__continuity__ppm.html#aa0e2e51881c2eef081ee1e7731e8ebc4" target="_top" xlink:title="Returns the barotropic velocity adjustment that gives the desired barotropic (layer&#45;summed) transport...">
<polygon fill="#ffffff" stroke="#000000" points="471,-384.5 471,-414.5 596,-414.5 596,-384.5 471,-384.5"/>
<text text-anchor="start" x="479" y="-402.5" font-family="Helvetica,sans-Serif" font-size="10.00" fill="#000000">mom_continuity_ppm</text>
<text text-anchor="middle" x="533.5" y="-391.5" font-family="Helvetica,sans-Serif" font-size="10.00" fill="#000000">::meridional_flux_adjust</text>
</a>
</g>
</g>
<!-- Node2&#45;&gt;Node5 -->
<g id="edge4" class="edge">
<title>Node2&#45;&gt;Node5</title>
<path fill="none" stroke="#191970" d="M274.038,-379.2612C327.1271,-383.4023 404.1669,-389.4116 460.506,-393.8062"/>
<polygon fill="#191970" stroke="#191970" points="460.5325,-397.3189 470.7744,-394.6072 461.0769,-390.3401 460.5325,-397.3189"/>
</g>
<!-- Node6 -->
<g id="node6" class="node">
<title>Node6</title>
<g id="a_node6"><a xlink:href="namespacemom__continuity__ppm.html#af71fa5f7f4b849ec735e2049df2d0693" target="_top" xlink:title="Calculates left/right edge values for PPM reconstruction.">
<polygon fill="#ffffff" stroke="#000000" points="310,-315.5 310,-345.5 435,-345.5 435,-315.5 310,-315.5"/>
<text text-anchor="start" x="318" y="-333.5" font-family="Helvetica,sans-Serif" font-size="10.00" fill="#000000">mom_continuity_ppm</text>
<text text-anchor="middle" x="372.5" y="-322.5" font-family="Helvetica,sans-Serif" font-size="10.00" fill="#000000">::ppm_reconstruction_y</text>
</a>
</g>
</g>
<!-- Node2&#45;&gt;Node6 -->
<g id="edge6" class="edge">
<title>Node2&#45;&gt;Node6</title>
<path fill="none" stroke="#191970" d="M267.4447,-359.4808C280.5889,-355.8548 294.7562,-351.9466 308.3009,-348.2101"/>
<polygon fill="#191970" stroke="#191970" points="309.3209,-351.5595 318.03,-345.5262 307.4593,-344.8116 309.3209,-351.5595"/>
</g>
<!-- Node11 -->
<g id="node11" class="node">
<title>Node11</title>
<g id="a_node11"><a xlink:href="namespacemom__continuity__ppm.html#adf02002cf5951d7610b8643d2d401585" target="_top" xlink:title="Return the maximum ratio of a/b or maxrat.">
<polygon fill="#ffffff" stroke="#000000" points="314.5,-266.5 314.5,-296.5 430.5,-296.5 430.5,-266.5 314.5,-266.5"/>
<text text-anchor="start" x="322.5" y="-284.5" font-family="Helvetica,sans-Serif" font-size="10.00" fill="#000000">mom_continuity_ppm</text>
<text text-anchor="middle" x="372.5" y="-273.5" font-family="Helvetica,sans-Serif" font-size="10.00" fill="#000000">::ratio_max</text>
</a>
</g>
</g>
<!-- Node2&#45;&gt;Node11 -->
<g id="edge11" class="edge">
<title>Node2&#45;&gt;Node11</title>
<path fill="none" stroke="#191970" d="M231.8381,-359.3125C250.7867,-344.524 281.2398,-322.0613 310,-306.5 313.7002,-304.4979 317.5958,-302.5645 321.5584,-300.7201"/>
<polygon fill="#191970" stroke="#191970" points="323.147,-303.8443 330.8664,-296.5875 320.3064,-297.4466 323.147,-303.8443"/>
</g>
<!-- Node12 -->
<g id="node12" class="node">
<title>Node12</title>
<g id="a_node12"><a xlink:href="namespacemom__continuity__ppm.html#a85af71a6eb17a9501238c84e11391b60" target="_top" xlink:title="Sets of a structure that describes the meridional barotropic volume or mass fluxes as a function of b...">
<polygon fill="#ffffff" stroke="#000000" points="314.5,-403.5 314.5,-433.5 430.5,-433.5 430.5,-403.5 314.5,-403.5"/>
<text text-anchor="start" x="322.5" y="-421.5" font-family="Helvetica,sans-Serif" font-size="10.00" fill="#000000">mom_continuity_ppm</text>
<text text-anchor="middle" x="372.5" y="-410.5" font-family="Helvetica,sans-Serif" font-size="10.00" fill="#000000">::set_merid_bt_cont</text>
</a>
</g>
</g>
<!-- Node2&#45;&gt;Node12 -->
<g id="edge12" class="edge">
<title>Node2&#45;&gt;Node12</title>
<path fill="none" stroke="#191970" d="M267.4447,-389.5192C280.5889,-393.1452 294.7562,-397.0534 308.3009,-400.7899"/>
<polygon fill="#191970" stroke="#191970" points="307.4593,-404.1884 318.03,-403.4738 309.3209,-397.4405 307.4593,-404.1884"/>
</g>
<!-- Node5&#45;&gt;Node4 -->
<g id="edge5" class="edge">
<title>Node5&#45;&gt;Node4</title>
<path fill="none" stroke="#191970" d="M586.9207,-414.5192C599.6924,-418.11 613.4487,-421.9776 626.6212,-425.681"/>
<polygon fill="#191970" stroke="#191970" points="625.9804,-429.1365 636.5545,-428.4738 627.8751,-422.3978 625.9804,-429.1365"/>
</g>
<!-- Node6&#45;&gt;Node7 -->
<g id="edge7" class="edge">
<title>Node6&#45;&gt;Node7</title>
<path fill="none" stroke="#191970" d="M420.4487,-315.4184C425.5958,-312.8441 430.565,-309.8849 435,-306.5 456.4819,-290.1049 449.6323,-274.0437 471,-257.5 473.2957,-255.7226 475.7345,-254.0547 478.2669,-252.4918"/>
<polygon fill="#191970" stroke="#191970" points="480.105,-255.475 487.1661,-247.5761 476.7204,-249.3476 480.105,-255.475"/>
</g>
<!-- Node9 -->
<g id="node9" class="node">
<title>Node9</title>
<g id="a_node9"><a xlink:href="namespacemom__continuity__ppm.html#ab03786fff2550dd61282356608fc1352" target="_top" xlink:title="This subroutine limits the left/right edge values of the PPM reconstruction according to the monotoni...">
<polygon fill="#ffffff" stroke="#000000" points="475.5,-315.5 475.5,-345.5 591.5,-345.5 591.5,-315.5 475.5,-315.5"/>
<text text-anchor="start" x="483.5" y="-333.5" font-family="Helvetica,sans-Serif" font-size="10.00" fill="#000000">mom_continuity_ppm</text>
<text text-anchor="middle" x="533.5" y="-322.5" font-family="Helvetica,sans-Serif" font-size="10.00" fill="#000000">::ppm_limit_cw84</text>
</a>
</g>
</g>
<!-- Node6&#45;&gt;Node9 -->
<g id="edge9" class="edge">
<title>Node6&#45;&gt;Node9</title>
<path fill="none" stroke="#191970" d="M435.2078,-330.5C445.0373,-330.5 455.2394,-330.5 465.1873,-330.5"/>
<polygon fill="#191970" stroke="#191970" points="465.4358,-334.0001 475.4357,-330.5 465.4357,-327.0001 465.4358,-334.0001"/>
</g>
<!-- Node10 -->
<g id="node10" class="node">
<title>Node10</title>
<g id="a_node10"><a xlink:href="namespacemom__continuity__ppm.html#a870edb0c5b2cb0464899430b6651260c" target="_top" xlink:title="This subroutine limits the left/right edge values of the PPM reconstruction to give a reconstruction ...">
<polygon fill="#ffffff" stroke="#000000" points="475.5,-266.5 475.5,-296.5 591.5,-296.5 591.5,-266.5 475.5,-266.5"/>
<text text-anchor="start" x="483.5" y="-284.5" font-family="Helvetica,sans-Serif" font-size="10.00" fill="#000000">mom_continuity_ppm</text>
<text text-anchor="middle" x="533.5" y="-273.5" font-family="Helvetica,sans-Serif" font-size="10.00" fill="#000000">::ppm_limit_pos</text>
</a>
</g>
</g>
<!-- Node6&#45;&gt;Node10 -->
<g id="edge10" class="edge">
<title>Node6&#45;&gt;Node10</title>
<path fill="none" stroke="#191970" d="M422.119,-315.3986C438.5702,-310.3917 457.0494,-304.7676 474.1566,-299.561"/>
<polygon fill="#191970" stroke="#191970" points="475.4972,-302.8116 484.0448,-296.5516 473.459,-296.1149 475.4972,-302.8116"/>
</g>
<!-- Node8 -->
<g id="node8" class="node">
<title>Node8</title>
<g id="a_node8"><a xlink:href="namespacemom__error__handler.html#ad5f00a53059c72fe2332d1436c80ca71" target="_top" xlink:title="This returns .true. if the current PE is the root PE.">
<polygon fill="#ffffff" stroke="#000000" points="632.5,-217.5 632.5,-247.5 747.5,-247.5 747.5,-217.5 632.5,-217.5"/>
<text text-anchor="start" x="640.5" y="-235.5" font-family="Helvetica,sans-Serif" font-size="10.00" fill="#000000">mom_error_handler::</text>
<text text-anchor="middle" x="690" y="-224.5" font-family="Helvetica,sans-Serif" font-size="10.00" fill="#000000">is_root_pe</text>
</a>
</g>
</g>
<!-- Node7&#45;&gt;Node8 -->
<g id="edge8" class="edge">
<title>Node7&#45;&gt;Node8</title>
<path fill="none" stroke="#191970" d="M591.3302,-232.5C601.387,-232.5 611.9277,-232.5 622.2222,-232.5"/>
<polygon fill="#191970" stroke="#191970" points="622.4075,-236.0001 632.4075,-232.5 622.4075,-229.0001 622.4075,-236.0001"/>
</g>
<!-- Node12&#45;&gt;Node4 -->
<g id="edge13" class="edge">
<title>Node12&#45;&gt;Node4</title>
<path fill="none" stroke="#191970" d="M430.7344,-423.0854C484.6924,-427.334 564.9691,-433.655 621.8792,-438.1362"/>
<polygon fill="#191970" stroke="#191970" points="621.6227,-441.6267 631.8666,-438.9226 622.1723,-434.6483 621.6227,-441.6267"/>
</g>
<!-- Node12&#45;&gt;Node5 -->
<g id="edge14" class="edge">
<title>Node12&#45;&gt;Node5</title>
<path fill="none" stroke="#191970" d="M430.6247,-411.6406C440.42,-410.4846 450.6953,-409.272 460.805,-408.0789"/>
<polygon fill="#191970" stroke="#191970" points="461.3146,-411.5432 470.8354,-406.8952 460.4941,-404.5914 461.3146,-411.5432"/>
</g>
<!-- Node13&#45;&gt;Node11 -->
<g id="edge21" class="edge">
<title>Node13&#45;&gt;Node11</title>
<path fill="none" stroke="#191970" d="M222.4756,-159.783C238.0183,-183.7059 271.1177,-230.0899 310,-257.5 312.0781,-258.965 314.2574,-260.3548 316.5055,-261.6717"/>
<polygon fill="#191970" stroke="#191970" points="314.9711,-264.8194 325.4484,-266.3936 318.2396,-258.6293 314.9711,-264.8194"/>
</g>
<!-- Node14 -->
<g id="node14" class="node">
<title>Node14</title>
<g id="a_node14"><a xlink:href="namespacemom__continuity__ppm.html#a9a7eac2a9b17d0e9ee9ca0a27d2f8fb6" target="_top" xlink:title="Calculates left/right edge values for PPM reconstruction.">
<polygon fill="#ffffff" stroke="#000000" points="310,-217.5 310,-247.5 435,-247.5 435,-217.5 310,-217.5"/>
<text text-anchor="start" x="318" y="-235.5" font-family="Helvetica,sans-Serif" font-size="10.00" fill="#000000">mom_continuity_ppm</text>
<text text-anchor="middle" x="372.5" y="-224.5" font-family="Helvetica,sans-Serif" font-size="10.00" fill="#000000">::ppm_reconstruction_x</text>
</a>
</g>
</g>
<!-- Node13&#45;&gt;Node14 -->
<g id="edge17" class="edge">
<title>Node13&#45;&gt;Node14</title>
<path fill="none" stroke="#191970" d="M240.419,-159.6277C266.8611,-174.2165 307.045,-196.3869 336.1452,-212.4422"/>
<polygon fill="#191970" stroke="#191970" points="334.7258,-215.6564 345.1723,-217.4227 338.1073,-209.5273 334.7258,-215.6564"/>
</g>
<!-- Node15 -->
<g id="node15" class="node">
<title>Node15</title>
<g id="a_node15"><a xlink:href="namespacemom__continuity__ppm.html#ac6921e0b1534dfb716dc9cc6aa9b84f8" target="_top" xlink:title="Sets a structure that describes the zonal barotropic volume or mass fluxes as a function of barotropi...">
<polygon fill="#ffffff" stroke="#000000" points="314.5,-41.5 314.5,-71.5 430.5,-71.5 430.5,-41.5 314.5,-41.5"/>
<text text-anchor="start" x="322.5" y="-59.5" font-family="Helvetica,sans-Serif" font-size="10.00" fill="#000000">mom_continuity_ppm</text>
<text text-anchor="middle" x="372.5" y="-48.5" font-family="Helvetica,sans-Serif" font-size="10.00" fill="#000000">::set_zonal_bt_cont</text>
</a>
</g>
</g>
<!-- Node13&#45;&gt;Node15 -->
<g id="edge22" class="edge">
<title>Node13&#45;&gt;Node15</title>
<path fill="none" stroke="#191970" d="M236.9632,-129.3366C256.3821,-117.2531 284.5945,-100.1559 310,-86.5 316.5597,-82.9741 323.5996,-79.4 330.5043,-76.007"/>
<polygon fill="#191970" stroke="#191970" points="332.3049,-79.0239 339.7784,-71.5141 329.2529,-72.7243 332.3049,-79.0239"/>
</g>
<!-- Node16 -->
<g id="node16" class="node">
<title>Node16</title>
<g id="a_node16"><a xlink:href="namespacemom__continuity__ppm.html#a92727e6da5d660f09e7ed9abaa076b6e" target="_top" xlink:title="Returns the barotropic velocity adjustment that gives the desired barotropic (layer&#45;summed) transport...">
<polygon fill="#ffffff" stroke="#000000" points="475.5,-.5 475.5,-30.5 591.5,-30.5 591.5,-.5 475.5,-.5"/>
<text text-anchor="start" x="483.5" y="-18.5" font-family="Helvetica,sans-Serif" font-size="10.00" fill="#000000">mom_continuity_ppm</text>
<text text-anchor="middle" x="533.5" y="-7.5" font-family="Helvetica,sans-Serif" font-size="10.00" fill="#000000">::zonal_flux_adjust</text>
</a>
</g>
</g>
<!-- Node13&#45;&gt;Node16 -->
<g id="edge27" class="edge">
<title>Node13&#45;&gt;Node16</title>
<path fill="none" stroke="#191970" d="M220.7067,-129.4439C234.6236,-104.0545 266.586,-53.3595 310,-31.5 357.8076,-7.4282 418.7891,-4.6104 464.9725,-7.1533"/>
<polygon fill="#191970" stroke="#191970" points="464.9795,-10.6611 475.185,-7.8154 465.4324,-3.6757 464.9795,-10.6611"/>
</g>
<!-- Node17 -->
<g id="node17" class="node">
<title>Node17</title>
<g id="a_node17"><a xlink:href="namespacemom__continuity__ppm.html#a0a12a5757ff16a83b8971cec715147e4" target="_top" xlink:title="Evaluates the zonal mass or volume fluxes in a layer.">
<polygon fill="#ffffff" stroke="#000000" points="632,-44.5 632,-74.5 748,-74.5 748,-44.5 632,-44.5"/>
<text text-anchor="start" x="640" y="-62.5" font-family="Helvetica,sans-Serif" font-size="10.00" fill="#000000">mom_continuity_ppm</text>
<text text-anchor="middle" x="690" y="-51.5" font-family="Helvetica,sans-Serif" font-size="10.00" fill="#000000">::zonal_flux_layer</text>
</a>
</g>
</g>
<!-- Node13&#45;&gt;Node17 -->
<g id="edge28" class="edge">
<title>Node13&#45;&gt;Node17</title>
<path fill="none" stroke="#191970" d="M270.2672,-129.4912C283.2829,-126.3143 297.0805,-123.1305 310,-120.5 368.2169,-108.6467 528.9227,-83.8256 621.6342,-69.7731"/>
<polygon fill="#191970" stroke="#191970" points="622.4017,-73.1968 631.7651,-68.2393 621.3539,-66.2757 622.4017,-73.1968"/>
</g>
<!-- Node18 -->
<g id="node18" class="node">
<title>Node18</title>
<g id="a_node18"><a xlink:href="namespacemom__continuity__ppm.html#ab0e7b60457e8fd605e3fffd6c3ba9827" target="_top" xlink:title="Sets the effective interface thickness at each zonal velocity point.">
<polygon fill="#ffffff" stroke="#000000" points="311,-129.5 311,-159.5 434,-159.5 434,-129.5 311,-129.5"/>
<text text-anchor="start" x="319" y="-147.5" font-family="Helvetica,sans-Serif" font-size="10.00" fill="#000000">mom_continuity_ppm</text>
<text text-anchor="middle" x="372.5" y="-136.5" font-family="Helvetica,sans-Serif" font-size="10.00" fill="#000000">::zonal_face_thickness</text>
</a>
</g>
</g>
<!-- Node13&#45;&gt;Node18 -->
<g id="edge26" class="edge">
<title>Node13&#45;&gt;Node18</title>
<path fill="none" stroke="#191970" d="M271.0344,-144.5C280.6201,-144.5 290.6589,-144.5 300.5368,-144.5"/>
<polygon fill="#191970" stroke="#191970" points="300.7467,-148.0001 310.7467,-144.5 300.7466,-141.0001 300.7467,-148.0001"/>
</g>
<!-- Node14&#45;&gt;Node7 -->
<g id="edge18" class="edge">
<title>Node14&#45;&gt;Node7</title>
<path fill="none" stroke="#191970" d="M435.2078,-232.5C445.2732,-232.5 455.7293,-232.5 465.9031,-232.5"/>
<polygon fill="#191970" stroke="#191970" points="465.9579,-236.0001 475.9578,-232.5 465.9578,-229.0001 465.9579,-236.0001"/>
</g>
<!-- Node14&#45;&gt;Node9 -->
<g id="edge19" class="edge">
<title>Node14&#45;&gt;Node9</title>
<path fill="none" stroke="#191970" d="M418.8339,-247.5761C424.5539,-250.4148 430.1025,-253.7081 435,-257.5 456.3677,-274.0437 449.5181,-290.1049 471,-306.5 472.8017,-307.8751 474.6916,-309.18 476.6458,-310.4173"/>
<polygon fill="#191970" stroke="#191970" points="475.1183,-313.5736 485.5513,-315.4184 478.5459,-307.4702 475.1183,-313.5736"/>
</g>
<!-- Node14&#45;&gt;Node10 -->
<g id="edge20" class="edge">
<title>Node14&#45;&gt;Node10</title>
<path fill="none" stroke="#191970" d="M422.119,-247.6014C438.5702,-252.6083 457.0494,-258.2324 474.1566,-263.439"/>
<polygon fill="#191970" stroke="#191970" points="473.459,-266.8851 484.0448,-266.4484 475.4972,-260.1884 473.459,-266.8851"/>
</g>
<!-- Node15&#45;&gt;Node16 -->
<g id="edge23" class="edge">
<title>Node15&#45;&gt;Node16</title>
<path fill="none" stroke="#191970" d="M430.6247,-41.6981C442.0243,-38.795 454.0743,-35.7264 465.7565,-32.7515"/>
<polygon fill="#191970" stroke="#191970" points="466.6337,-36.1399 475.4606,-30.2802 464.9061,-29.3564 466.6337,-36.1399"/>
</g>
<!-- Node15&#45;&gt;Node17 -->
<g id="edge25" class="edge">
<title>Node15&#45;&gt;Node17</title>
<path fill="none" stroke="#191970" d="M430.7344,-57.0502C484.5807,-57.559 564.6368,-58.3155 621.5254,-58.853"/>
<polygon fill="#191970" stroke="#191970" points="621.834,-62.356 631.8666,-58.9507 621.9002,-55.3563 621.834,-62.356"/>
</g>
<!-- Node16&#45;&gt;Node17 -->
<g id="edge24" class="edge">
<title>Node16&#45;&gt;Node17</title>
<path fill="none" stroke="#191970" d="M586.9207,-30.5192C599.6924,-34.11 613.4487,-37.9776 626.6212,-41.681"/>
<polygon fill="#191970" stroke="#191970" points="625.9804,-45.1365 636.5545,-44.4738 627.8751,-38.3978 625.9804,-45.1365"/>
</g>
</g>
</svg>
        <g id="navigator" transform="translate(0 0)" fill="#404254">
                <rect fill="#f2f5e9" fill-opacity="0.5" stroke="#606060" stroke-width=".5" x="0" y="0" width="60" height="60"/>
                <use id="zoomplus" xlink:href="#zoomPlus" x="17" y="9" onmousedown="handleZoom(evt,'in')"/>
                <use id="zoomminus" xlink:href="#zoomMin" x="42" y="9" onmousedown="handleZoom(evt,'out')"/>
                <use id="reset" xlink:href="#resetDef" x="30" y="36" onmousedown="handleReset()"/>
                <g id="arrowUp" xlink:href="#dirArrow" transform="translate(30 24)" onmousedown="handlePan(0,-1)">
                  <use xlink:href="#rim" fill="#404040">
                        <set attributeName="fill" to="#808080" begin="arrowUp.mouseover" end="arrowUp.mouseout"/>
                  </use>
                  <path fill="none" stroke="white" stroke-width="1.5" d="M0,-3.0v7 M-2.5,-0.5L0,-3.0L2.5,-0.5"/>
                </g>
                <g id="arrowRight" xlink:href="#dirArrow" transform="rotate(90) translate(36 -43)" onmousedown="handlePan(1,0)">
                  <use xlink:href="#rim" fill="#404040">
                        <set attributeName="fill" to="#808080" begin="arrowRight.mouseover" end="arrowRight.mouseout"/>
                  </use>
                  <path fill="none" stroke="white" stroke-width="1.5" d="M0,-3.0v7 M-2.5,-0.5L0,-3.0L2.5,-0.5"/>
                </g>
                <g id="arrowDown" xlink:href="#dirArrow" transform="rotate(180) translate(-30 -48)" onmousedown="handlePan(0,1)">
                  <use xlink:href="#rim" fill="#404040">
                        <set attributeName="fill" to="#808080" begin="arrowDown.mouseover" end="arrowDown.mouseout"/>
                  </use>
                  <path fill="none" stroke="white" stroke-width="1.5" d="M0,-3.0v7 M-2.5,-0.5L0,-3.0L2.5,-0.5"/>
                </g>
                <g id="arrowLeft" xlink:href="#dirArrow" transform="rotate(270) translate(-36 17)" onmousedown="handlePan(-1,0)">
                  <use xlink:href="#rim" fill="#404040">
                        <set attributeName="fill" to="#808080" begin="arrowLeft.mouseover" end="arrowLeft.mouseout"/>
                  </use>
                  <path fill="none" stroke="white" stroke-width="1.5" d="M0,-3.0v7 M-2.5,-0.5L0,-3.0L2.5,-0.5"/>
                </g>
        </g>
        <svg viewBox="0 0 15 15" width="100%" height="30px" preserveAspectRatio="xMaxYMin meet">
         <g id="arrow_out" transform="scale(0.3 0.3)">
          <a xlink:href="namespacemom__continuity__ppm_ad928a3c6f1cb3c01f944a89d4b13d08b_cgraph_org.svg" target="_base">
           <rect id="button" ry="5" rx="5" y="6" x="6" height="38" width="38"
                fill="#f2f5e9" fill-opacity="0.5" stroke="#606060" stroke-width="1.0"/>
           <path id="arrow"
             d="M 11.500037,31.436501 C 11.940474,20.09759 22.043105,11.32322 32.158766,21.979434 L 37.068811,17.246167 C 37.068811,17.246167 37.088388,32 37.088388,32 L 22.160133,31.978069 C 22.160133,31.978069 26.997745,27.140456 26.997745,27.140456 C 18.528582,18.264221 13.291696,25.230495 11.500037,31.436501 z"
             style="fill:#404040;"/>
          </a>
         </g>
        </svg>
</svg>
