<?xml version="1.0" encoding="UTF-8" standalone="no"?>
<!DOCTYPE svg PUBLIC "-//W3C//DTD SVG 1.1//EN"
 "http://www.w3.org/Graphics/SVG/1.1/DTD/svg11.dtd">
<!-- Generated by graphviz version 2.40.1 (20161225.0304)
 -->
<!-- Title: p3m_functions::p3m_limiter Pages: 1 -->
<svg width="286pt" height="247pt"
 viewBox="0.00 0.00 286.00 246.50" xmlns="http://www.w3.org/2000/svg" xmlns:xlink="http://www.w3.org/1999/xlink">
<g id="graph0" class="graph" transform="scale(1 1) rotate(0) translate(4 242.5)">
<title>p3m_functions::p3m_limiter</title>
<polygon fill="#ffffff" stroke="transparent" points="-4,4 -4,-242.5 282,-242.5 282,4 -4,4"/>
<!-- Node1 -->
<g id="node1" class="node">
<title>Node1</title>
<g id="a_node1"><a xlink:title="Adust a piecewise cubic reconstruction with a limiter that adjusts the edge values and slopes.">
<polygon fill="#bfbfbf" stroke="#000000" points="0,-98.5 0,-128.5 105,-128.5 105,-98.5 0,-98.5"/>
<text text-anchor="start" x="8" y="-116.5" font-family="Helvetica,sans-Serif" font-size="10.00" fill="#000000">p3m_functions::p3m</text>
<text text-anchor="middle" x="52.5" y="-105.5" font-family="Helvetica,sans-Serif" font-size="10.00" fill="#000000">_limiter</text>
</a>
</g>
</g>
<!-- Node2 -->
<g id="node2" class="node">
<title>Node2</title>
<g id="a_node2"><a xlink:href="namespaceregrid__edge__values.html#ad43eb7fa3a284e2b33068f47232521ca" target="_top" xlink:title="Replace discontinuous collocated edge values with their average.">
<polygon fill="#ffffff" stroke="#000000" points="148.5,-197 148.5,-238 270.5,-238 270.5,-197 148.5,-197"/>
<text text-anchor="start" x="156.5" y="-226" font-family="Helvetica,sans-Serif" font-size="10.00" fill="#000000">regrid_edge_values</text>
<text text-anchor="start" x="156.5" y="-215" font-family="Helvetica,sans-Serif" font-size="10.00" fill="#000000">::average_discontinuous</text>
<text text-anchor="middle" x="209.5" y="-204" font-family="Helvetica,sans-Serif" font-size="10.00" fill="#000000">_edge_values</text>
</a>
</g>
</g>
<!-- Node1&#45;&gt;Node2 -->
<g id="edge1" class="edge">
<title>Node1&#45;&gt;Node2</title>
<path fill="none" stroke="#191970" d="M67.7556,-128.6006C84.6101,-144.6983 113.0773,-170.2033 141,-187.5 143.6195,-189.1227 146.3421,-190.7023 149.1262,-192.233"/>
<polygon fill="#191970" stroke="#191970" points="147.6901,-195.4313 158.1759,-196.9475 150.9243,-189.2232 147.6901,-195.4313"/>
</g>
<!-- Node3 -->
<g id="node3" class="node">
<title>Node3</title>
<g id="a_node3"><a xlink:href="namespaceregrid__edge__values.html#aa3c7ea104f554d508b69efd860fc6b10" target="_top" xlink:title="Bound edge values by neighboring cell averages.">
<polygon fill="#ffffff" stroke="#000000" points="155,-147.5 155,-177.5 264,-177.5 264,-147.5 155,-147.5"/>
<text text-anchor="start" x="163" y="-165.5" font-family="Helvetica,sans-Serif" font-size="10.00" fill="#000000">regrid_edge_values</text>
<text text-anchor="middle" x="209.5" y="-154.5" font-family="Helvetica,sans-Serif" font-size="10.00" fill="#000000">::bound_edge_values</text>
</a>
</g>
</g>
<!-- Node1&#45;&gt;Node3 -->
<g id="edge2" class="edge">
<title>Node1&#45;&gt;Node3</title>
<path fill="none" stroke="#191970" d="M100.8862,-128.6014C116.9287,-133.6083 134.9488,-139.2324 151.631,-144.439"/>
<polygon fill="#191970" stroke="#191970" points="150.6849,-147.8101 161.2735,-147.4484 152.7704,-141.128 150.6849,-147.8101"/>
</g>
<!-- Node4 -->
<g id="node4" class="node">
<title>Node4</title>
<g id="a_node4"><a xlink:href="namespacep3m__functions.html#af4668b1791bbeae193f0f301cf101f6b" target="_top" xlink:title="Build cubic interpolant in cell k.">
<polygon fill="#ffffff" stroke="#000000" points="156,-98.5 156,-128.5 263,-128.5 263,-98.5 156,-98.5"/>
<text text-anchor="start" x="164" y="-116.5" font-family="Helvetica,sans-Serif" font-size="10.00" fill="#000000">p3m_functions::build</text>
<text text-anchor="middle" x="209.5" y="-105.5" font-family="Helvetica,sans-Serif" font-size="10.00" fill="#000000">_cubic_interpolant</text>
</a>
</g>
</g>
<!-- Node1&#45;&gt;Node4 -->
<g id="edge3" class="edge">
<title>Node1&#45;&gt;Node4</title>
<path fill="none" stroke="#191970" d="M105.2155,-113.5C118.2062,-113.5 132.2567,-113.5 145.7095,-113.5"/>
<polygon fill="#191970" stroke="#191970" points="145.853,-117.0001 155.8529,-113.5 145.8529,-110.0001 145.853,-117.0001"/>
</g>
<!-- Node5 -->
<g id="node5" class="node">
<title>Node5</title>
<g id="a_node5"><a xlink:href="namespacep3m__functions.html#a3c461688b7c3ae5b2b4a7cf3311b8a69" target="_top" xlink:title="Check whether the cubic reconstruction in cell k is monotonic.">
<polygon fill="#ffffff" stroke="#000000" points="148.5,-49.5 148.5,-79.5 270.5,-79.5 270.5,-49.5 148.5,-49.5"/>
<text text-anchor="start" x="156.5" y="-67.5" font-family="Helvetica,sans-Serif" font-size="10.00" fill="#000000">p3m_functions::is_cubic</text>
<text text-anchor="middle" x="209.5" y="-56.5" font-family="Helvetica,sans-Serif" font-size="10.00" fill="#000000">_monotonic</text>
</a>
</g>
</g>
<!-- Node1&#45;&gt;Node5 -->
<g id="edge4" class="edge">
<title>Node1&#45;&gt;Node5</title>
<path fill="none" stroke="#191970" d="M100.8862,-98.3986C116.9287,-93.3917 134.9488,-87.7676 151.631,-82.561"/>
<polygon fill="#191970" stroke="#191970" points="152.7704,-85.872 161.2735,-79.5516 150.6849,-79.1899 152.7704,-85.872"/>
</g>
<!-- Node6 -->
<g id="node6" class="node">
<title>Node6</title>
<g id="a_node6"><a xlink:href="namespacep3m__functions.html#adb96651fe725f11e90dec2b8509989b0" target="_top" xlink:title="Monotonize a cubic curve by modifying the edge slopes.">
<polygon fill="#ffffff" stroke="#000000" points="141,-.5 141,-30.5 278,-30.5 278,-.5 141,-.5"/>
<text text-anchor="start" x="149" y="-18.5" font-family="Helvetica,sans-Serif" font-size="10.00" fill="#000000">p3m_functions::monotonize</text>
<text text-anchor="middle" x="209.5" y="-7.5" font-family="Helvetica,sans-Serif" font-size="10.00" fill="#000000">_cubic</text>
</a>
</g>
</g>
<!-- Node1&#45;&gt;Node6 -->
<g id="edge5" class="edge">
<title>Node1&#45;&gt;Node6</title>
<path fill="none" stroke="#191970" d="M67.5903,-98.2789C84.3035,-82.1211 112.6507,-56.7253 141,-40.5 144.6464,-38.413 148.4986,-36.447 152.442,-34.6056"/>
<polygon fill="#191970" stroke="#191970" points="153.9922,-37.7479 161.7547,-30.5371 151.1898,-31.3333 153.9922,-37.7479"/>
</g>
</g>
</svg>
