<?xml version="1.0" encoding="UTF-8" standalone="no"?>
<!DOCTYPE svg PUBLIC "-//W3C//DTD SVG 1.1//EN"
 "http://www.w3.org/Graphics/SVG/1.1/DTD/svg11.dtd">
<!-- Generated by graphviz version 2.40.1 (20161225.0304)
 -->
<!-- Title: mom_spatial_means::global_i_mean Pages: 1 -->
<svg width="614pt" height="39pt"
 viewBox="0.00 0.00 614.00 39.00" xmlns="http://www.w3.org/2000/svg" xmlns:xlink="http://www.w3.org/1999/xlink">
<g id="graph0" class="graph" transform="scale(1 1) rotate(0) translate(4 35)">
<title>mom_spatial_means::global_i_mean</title>
<polygon fill="#ffffff" stroke="transparent" points="-4,4 -4,-35 610,-35 610,4 -4,4"/>
<!-- Node1 -->
<g id="node1" class="node">
<title>Node1</title>
<g id="a_node1"><a xlink:title="Determine the global mean of a field along rows of constant i, returning it in a 1&#45;d array using the ...">
<polygon fill="#bfbfbf" stroke="#000000" points="488,-.5 488,-30.5 606,-30.5 606,-.5 488,-.5"/>
<text text-anchor="start" x="496" y="-18.5" font-family="Helvetica,sans-Serif" font-size="10.00" fill="#000000">mom_spatial_means::</text>
<text text-anchor="middle" x="547" y="-7.5" font-family="Helvetica,sans-Serif" font-size="10.00" fill="#000000">global_i_mean</text>
</a>
</g>
</g>
<!-- Node2 -->
<g id="node2" class="node">
<title>Node2</title>
<g id="a_node2"><a xlink:href="namespacemom__sponge.html#afc5fe4db356e9e93696c909cd2c4d7ba" target="_top" xlink:title="This subroutine applies damping to the layers thicknesses, mixed layer buoyancy, and a variety of tra...">
<polygon fill="#ffffff" stroke="#000000" points="300,-6 300,-25 452,-25 452,-6 300,-6"/>
<text text-anchor="middle" x="376" y="-13" font-family="Helvetica,sans-Serif" font-size="10.00" fill="#000000">mom_sponge::apply_sponge</text>
</a>
</g>
</g>
<!-- Node1&#45;&gt;Node2 -->
<g id="edge1" class="edge">
<title>Node1&#45;&gt;Node2</title>
<path fill="none" stroke="#191970" d="M477.5661,-15.5C469.175,-15.5 460.5697,-15.5 452.0894,-15.5"/>
<polygon fill="#191970" stroke="#191970" points="477.6724,-19.0001 487.6724,-15.5 477.6724,-12.0001 477.6724,-19.0001"/>
</g>
<!-- Node3 -->
<g id="node3" class="node">
<title>Node3</title>
<g id="a_node3"><a xlink:href="namespacemom__diabatic__driver.html#a71d8d849db16be4b87c2650b49f01c82" target="_top" xlink:title="Imposes the diapycnal mass fluxes and the accompanying diapycnal advection of momentum and tracers us...">
<polygon fill="#ffffff" stroke="#000000" points="150,-.5 150,-30.5 264,-30.5 264,-.5 150,-.5"/>
<text text-anchor="start" x="158" y="-18.5" font-family="Helvetica,sans-Serif" font-size="10.00" fill="#000000">mom_diabatic_driver</text>
<text text-anchor="middle" x="207" y="-7.5" font-family="Helvetica,sans-Serif" font-size="10.00" fill="#000000">::layered_diabatic</text>
</a>
</g>
</g>
<!-- Node2&#45;&gt;Node3 -->
<g id="edge2" class="edge">
<title>Node2&#45;&gt;Node3</title>
<path fill="none" stroke="#191970" d="M289.7449,-15.5C281.0814,-15.5 272.4425,-15.5 264.1927,-15.5"/>
<polygon fill="#191970" stroke="#191970" points="289.9047,-19.0001 299.9046,-15.5 289.9046,-12.0001 289.9047,-19.0001"/>
</g>
<!-- Node4 -->
<g id="node4" class="node">
<title>Node4</title>
<g id="a_node4"><a xlink:href="namespacemom__diabatic__driver.html#a9005de9f3ad26b32de53e3cd9826b9b9" target="_top" xlink:title="This subroutine imposes the diapycnal mass fluxes and the accompanying diapycnal advection of momentu...">
<polygon fill="#ffffff" stroke="#000000" points="0,-.5 0,-30.5 114,-30.5 114,-.5 0,-.5"/>
<text text-anchor="start" x="8" y="-18.5" font-family="Helvetica,sans-Serif" font-size="10.00" fill="#000000">mom_diabatic_driver</text>
<text text-anchor="middle" x="57" y="-7.5" font-family="Helvetica,sans-Serif" font-size="10.00" fill="#000000">::diabatic</text>
</a>
</g>
</g>
<!-- Node3&#45;&gt;Node4 -->
<g id="edge3" class="edge">
<title>Node3&#45;&gt;Node4</title>
<path fill="none" stroke="#191970" d="M139.6894,-15.5C131.2716,-15.5 122.7232,-15.5 114.4745,-15.5"/>
<polygon fill="#191970" stroke="#191970" points="139.8636,-19.0001 149.8635,-15.5 139.8635,-12.0001 139.8636,-19.0001"/>
</g>
</g>
</svg>
