<?xml version="1.0" encoding="UTF-8" standalone="no"?>
<!DOCTYPE svg PUBLIC "-//W3C//DTD SVG 1.1//EN"
 "http://www.w3.org/Graphics/SVG/1.1/DTD/svg11.dtd">
<!-- Generated by graphviz version 2.40.1 (20161225.0304)
 -->
<!-- Title: mom_fixed_initialization::mom_initialize_topography Pages: 1 -->
<svg width="666pt" height="718pt"
 viewBox="0.00 0.00 666.00 717.50" xmlns="http://www.w3.org/2000/svg" xmlns:xlink="http://www.w3.org/1999/xlink">
<g id="graph0" class="graph" transform="scale(1 1) rotate(0) translate(4 713.5)">
<title>mom_fixed_initialization::mom_initialize_topography</title>
<polygon fill="#ffffff" stroke="transparent" points="-4,4 -4,-713.5 662,-713.5 662,4 -4,4"/>
<!-- Node1 -->
<g id="node1" class="node">
<title>Node1</title>
<g id="a_node1"><a xlink:title="MOM_initialize_topography makes the appropriate call to set up the bathymetry. At this point the topo...">
<polygon fill="#bfbfbf" stroke="#000000" points="0,-350.5 0,-380.5 147,-380.5 147,-350.5 0,-350.5"/>
<text text-anchor="start" x="8" y="-368.5" font-family="Helvetica,sans-Serif" font-size="10.00" fill="#000000">mom_fixed_initialization</text>
<text text-anchor="middle" x="73.5" y="-357.5" font-family="Helvetica,sans-Serif" font-size="10.00" fill="#000000">::mom_initialize_topography</text>
</a>
</g>
</g>
<!-- Node2 -->
<g id="node2" class="node">
<title>Node2</title>
<g id="a_node2"><a xlink:href="namespacebenchmark__initialization.html#aa9f5b306237bd4938a117fe871a93ed7" target="_top" xlink:title="This subroutine sets up the benchmark test case topography.">
<polygon fill="#ffffff" stroke="#000000" points="200,-668 200,-709 329,-709 329,-668 200,-668"/>
<text text-anchor="start" x="208" y="-697" font-family="Helvetica,sans-Serif" font-size="10.00" fill="#000000">benchmark_initialization</text>
<text text-anchor="start" x="208" y="-686" font-family="Helvetica,sans-Serif" font-size="10.00" fill="#000000">::benchmark_initialize</text>
<text text-anchor="middle" x="264.5" y="-675" font-family="Helvetica,sans-Serif" font-size="10.00" fill="#000000">_topography</text>
</a>
</g>
</g>
<!-- Node1&#45;&gt;Node2 -->
<g id="edge1" class="edge">
<title>Node1&#45;&gt;Node2</title>
<path fill="none" stroke="#191970" d="M74.7905,-380.617C79.6517,-428.2549 101.0084,-576.9126 183,-658.5 185.535,-661.0225 188.2998,-663.3351 191.2302,-665.455"/>
<polygon fill="#191970" stroke="#191970" points="189.5534,-668.536 199.8734,-670.9336 193.3011,-662.6237 189.5534,-668.536"/>
</g>
<!-- Node5 -->
<g id="node5" class="node">
<title>Node5</title>
<g id="a_node5"><a xlink:href="namespacedense__water__initialization.html#ae2a5062c406c66b1917f2ad564d4a5e6" target="_top" xlink:title="Initialize the topography field for the dense water experiment.">
<polygon fill="#ffffff" stroke="#000000" points="195,-608 195,-649 334,-649 334,-608 195,-608"/>
<text text-anchor="start" x="203" y="-637" font-family="Helvetica,sans-Serif" font-size="10.00" fill="#000000">dense_water_initialization</text>
<text text-anchor="start" x="203" y="-626" font-family="Helvetica,sans-Serif" font-size="10.00" fill="#000000">::dense_water_initialize</text>
<text text-anchor="middle" x="264.5" y="-615" font-family="Helvetica,sans-Serif" font-size="10.00" fill="#000000">_topography</text>
</a>
</g>
</g>
<!-- Node1&#45;&gt;Node5 -->
<g id="edge4" class="edge">
<title>Node1&#45;&gt;Node5</title>
<path fill="none" stroke="#191970" d="M76.4409,-380.671C85.1589,-421.6728 114.6424,-535.8212 183,-598.5 184.2988,-599.6909 185.6489,-600.8356 187.0429,-601.9359"/>
<polygon fill="#191970" stroke="#191970" points="185.2417,-604.9459 195.4552,-607.7631 189.2278,-599.1916 185.2417,-604.9459"/>
</g>
<!-- Node6 -->
<g id="node6" class="node">
<title>Node6</title>
<g id="a_node6"><a xlink:href="namespacedome2d__initialization.html#ae850c5e89a9275c4333c02828187bf81" target="_top" xlink:title="Initialize topography with a shelf and slope in a 2D domain.">
<polygon fill="#ffffff" stroke="#000000" points="183,-558.5 183,-588.5 346,-588.5 346,-558.5 183,-558.5"/>
<text text-anchor="start" x="191" y="-576.5" font-family="Helvetica,sans-Serif" font-size="10.00" fill="#000000">dome2d_initialization</text>
<text text-anchor="middle" x="264.5" y="-565.5" font-family="Helvetica,sans-Serif" font-size="10.00" fill="#000000">::dome2d_initialize_topography</text>
</a>
</g>
</g>
<!-- Node1&#45;&gt;Node6 -->
<g id="edge5" class="edge">
<title>Node1&#45;&gt;Node6</title>
<path fill="none" stroke="#191970" d="M78.2308,-380.7215C89.9688,-415.9459 123.8349,-503.5644 183,-549.5 184.7986,-550.8964 186.6766,-552.2117 188.618,-553.4505"/>
<polygon fill="#191970" stroke="#191970" points="187.049,-556.5831 197.4856,-558.4073 190.4644,-550.4729 187.049,-556.5831"/>
</g>
<!-- Node7 -->
<g id="node7" class="node">
<title>Node7</title>
<g id="a_node7"><a xlink:href="namespacedome__initialization.html#a80775c1d93b437bb2cc4c75c3c99ecb4" target="_top" xlink:title="This subroutine sets up the DOME topography.">
<polygon fill="#ffffff" stroke="#000000" points="189,-509.5 189,-539.5 340,-539.5 340,-509.5 189,-509.5"/>
<text text-anchor="start" x="197" y="-527.5" font-family="Helvetica,sans-Serif" font-size="10.00" fill="#000000">dome_initialization</text>
<text text-anchor="middle" x="264.5" y="-516.5" font-family="Helvetica,sans-Serif" font-size="10.00" fill="#000000">::dome_initialize_topography</text>
</a>
</g>
</g>
<!-- Node1&#45;&gt;Node7 -->
<g id="edge6" class="edge">
<title>Node1&#45;&gt;Node7</title>
<path fill="none" stroke="#191970" d="M81.8814,-380.8396C97.8597,-408.6558 135.3712,-467.4955 183,-499.5 186.0672,-501.5611 189.3114,-503.4579 192.6689,-505.2029"/>
<polygon fill="#191970" stroke="#191970" points="191.2375,-508.3973 201.7773,-509.4761 194.2107,-502.0601 191.2375,-508.3973"/>
</g>
<!-- Node8 -->
<g id="node8" class="node">
<title>Node8</title>
<g id="a_node8"><a xlink:href="namespacedumbbell__initialization.html#aba31e0ec02e4c1c0e5987d8843be5e76" target="_top" xlink:title="Initialization of topography.">
<polygon fill="#ffffff" stroke="#000000" points="205.5,-449 205.5,-490 323.5,-490 323.5,-449 205.5,-449"/>
<text text-anchor="start" x="213.5" y="-478" font-family="Helvetica,sans-Serif" font-size="10.00" fill="#000000">dumbbell_initialization</text>
<text text-anchor="start" x="213.5" y="-467" font-family="Helvetica,sans-Serif" font-size="10.00" fill="#000000">::dumbbell_initialize</text>
<text text-anchor="middle" x="264.5" y="-456" font-family="Helvetica,sans-Serif" font-size="10.00" fill="#000000">_topography</text>
</a>
</g>
</g>
<!-- Node1&#45;&gt;Node8 -->
<g id="edge8" class="edge">
<title>Node1&#45;&gt;Node8</title>
<path fill="none" stroke="#191970" d="M92.7861,-380.6539C113.9911,-396.7973 149.5112,-422.341 183,-439.5 187.2227,-441.6636 191.6387,-443.7486 196.1367,-445.7416"/>
<polygon fill="#191970" stroke="#191970" points="194.8768,-449.0091 205.4491,-449.6991 197.6146,-442.5667 194.8768,-449.0091"/>
</g>
<!-- Node9 -->
<g id="node9" class="node">
<title>Node9</title>
<g id="a_node9"><a xlink:href="namespaceisomip__initialization.html#a7292729944785b82fbeb51a27029b1b3" target="_top" xlink:title="Initialization of topography for the ISOMIP configuration.">
<polygon fill="#ffffff" stroke="#000000" points="187,-399.5 187,-429.5 342,-429.5 342,-399.5 187,-399.5"/>
<text text-anchor="start" x="195" y="-417.5" font-family="Helvetica,sans-Serif" font-size="10.00" fill="#000000">isomip_initialization</text>
<text text-anchor="middle" x="264.5" y="-406.5" font-family="Helvetica,sans-Serif" font-size="10.00" fill="#000000">::isomip_initialize_topography</text>
</a>
</g>
</g>
<!-- Node1&#45;&gt;Node9 -->
<g id="edge9" class="edge">
<title>Node1&#45;&gt;Node9</title>
<path fill="none" stroke="#191970" d="M132.1043,-380.5346C152.3629,-385.7318 175.2391,-391.6006 196.2063,-396.9796"/>
<polygon fill="#191970" stroke="#191970" points="195.4504,-400.399 206.0065,-399.4938 197.1899,-393.6186 195.4504,-400.399"/>
</g>
<!-- Node10 -->
<g id="node10" class="node">
<title>Node10</title>
<g id="a_node10"><a xlink:href="namespacekelvin__initialization.html#abddff8dbfe770caf9b7d5564b3a0fc6d" target="_top" xlink:title="This subroutine sets up the Kelvin topography and land mask.">
<polygon fill="#ffffff" stroke="#000000" points="188.5,-350.5 188.5,-380.5 340.5,-380.5 340.5,-350.5 188.5,-350.5"/>
<text text-anchor="start" x="196.5" y="-368.5" font-family="Helvetica,sans-Serif" font-size="10.00" fill="#000000">kelvin_initialization</text>
<text text-anchor="middle" x="264.5" y="-357.5" font-family="Helvetica,sans-Serif" font-size="10.00" fill="#000000">::kelvin_initialize_topography</text>
</a>
</g>
</g>
<!-- Node1&#45;&gt;Node10 -->
<g id="edge11" class="edge">
<title>Node1&#45;&gt;Node10</title>
<path fill="none" stroke="#191970" d="M147.0724,-365.5C157.2397,-365.5 167.7576,-365.5 178.1305,-365.5"/>
<polygon fill="#191970" stroke="#191970" points="178.4367,-369.0001 188.4367,-365.5 178.4366,-362.0001 178.4367,-369.0001"/>
</g>
<!-- Node11 -->
<g id="node11" class="node">
<title>Node11</title>
<g id="a_node11"><a xlink:href="namespaceneverland__initialization.html#ac855cd08ae8a9a5bc1dfe8106084aa0a" target="_top" xlink:title="This subroutine sets up the Neverland test case topography.">
<polygon fill="#ffffff" stroke="#000000" points="202,-290 202,-331 327,-331 327,-290 202,-290"/>
<text text-anchor="start" x="210" y="-319" font-family="Helvetica,sans-Serif" font-size="10.00" fill="#000000">neverland_initialization</text>
<text text-anchor="start" x="210" y="-308" font-family="Helvetica,sans-Serif" font-size="10.00" fill="#000000">::neverland_initialize</text>
<text text-anchor="middle" x="264.5" y="-297" font-family="Helvetica,sans-Serif" font-size="10.00" fill="#000000">_topography</text>
</a>
</g>
</g>
<!-- Node1&#45;&gt;Node11 -->
<g id="edge13" class="edge">
<title>Node1&#45;&gt;Node11</title>
<path fill="none" stroke="#191970" d="M125.6916,-350.471C146.1852,-344.5697 170.0546,-337.6963 192.1618,-331.3304"/>
<polygon fill="#191970" stroke="#191970" points="193.2027,-334.6729 201.8437,-328.5424 191.2657,-327.9463 193.2027,-334.6729"/>
</g>
<!-- Node14 -->
<g id="node14" class="node">
<title>Node14</title>
<g id="a_node14"><a xlink:href="namespacephillips__initialization.html#a99b5e25a77486b3004be63895ab57b73" target="_top" xlink:title="Initialize topography.">
<polygon fill="#ffffff" stroke="#000000" points="209.5,-230 209.5,-271 319.5,-271 319.5,-230 209.5,-230"/>
<text text-anchor="start" x="217.5" y="-259" font-family="Helvetica,sans-Serif" font-size="10.00" fill="#000000">phillips_initialization</text>
<text text-anchor="start" x="217.5" y="-248" font-family="Helvetica,sans-Serif" font-size="10.00" fill="#000000">::phillips_initialize</text>
<text text-anchor="middle" x="264.5" y="-237" font-family="Helvetica,sans-Serif" font-size="10.00" fill="#000000">_topography</text>
</a>
</g>
</g>
<!-- Node1&#45;&gt;Node14 -->
<g id="edge17" class="edge">
<title>Node1&#45;&gt;Node14</title>
<path fill="none" stroke="#191970" d="M89.7966,-350.2119C110.2449,-331.6804 147.0123,-300.4603 183,-280.5 188.237,-277.5953 193.8108,-274.8699 199.4908,-272.3379"/>
<polygon fill="#191970" stroke="#191970" points="201.2677,-275.3863 209.1095,-268.2619 198.5364,-268.941 201.2677,-275.3863"/>
</g>
<!-- Node15 -->
<g id="node15" class="node">
<title>Node15</title>
<g id="a_node15"><a xlink:href="namespaceseamount__initialization.html#ad0d12dd03f77e4a827fcd925805b92c9" target="_top" xlink:title="Initialization of topography.">
<polygon fill="#ffffff" stroke="#000000" points="203,-170 203,-211 326,-211 326,-170 203,-170"/>
<text text-anchor="start" x="211" y="-199" font-family="Helvetica,sans-Serif" font-size="10.00" fill="#000000">seamount_initialization</text>
<text text-anchor="start" x="211" y="-188" font-family="Helvetica,sans-Serif" font-size="10.00" fill="#000000">::seamount_initialize</text>
<text text-anchor="middle" x="264.5" y="-177" font-family="Helvetica,sans-Serif" font-size="10.00" fill="#000000">_topography</text>
</a>
</g>
</g>
<!-- Node1&#45;&gt;Node15 -->
<g id="edge18" class="edge">
<title>Node1&#45;&gt;Node15</title>
<path fill="none" stroke="#191970" d="M81.2474,-350.0689C96.6982,-320.7699 134.1065,-256.7781 183,-220.5 186.4055,-217.9732 190.0464,-215.6395 193.8299,-213.487"/>
<polygon fill="#191970" stroke="#191970" points="195.6136,-216.5045 202.8732,-208.7876 192.3858,-210.2931 195.6136,-216.5045"/>
</g>
<!-- Node16 -->
<g id="node16" class="node">
<title>Node16</title>
<g id="a_node16"><a xlink:href="namespaceshelfwave__initialization.html#ac2db4043726cb7eed851c69d6190b8dd" target="_top" xlink:title="Initialization of topography.">
<polygon fill="#ffffff" stroke="#000000" points="202,-110 202,-151 327,-151 327,-110 202,-110"/>
<text text-anchor="start" x="210" y="-139" font-family="Helvetica,sans-Serif" font-size="10.00" fill="#000000">shelfwave_initialization</text>
<text text-anchor="start" x="210" y="-128" font-family="Helvetica,sans-Serif" font-size="10.00" fill="#000000">::shelfwave_initialize</text>
<text text-anchor="middle" x="264.5" y="-117" font-family="Helvetica,sans-Serif" font-size="10.00" fill="#000000">_topography</text>
</a>
</g>
</g>
<!-- Node1&#45;&gt;Node16 -->
<g id="edge19" class="edge">
<title>Node1&#45;&gt;Node16</title>
<path fill="none" stroke="#191970" d="M77.5348,-350.2524C88.2485,-312.6372 120.925,-214.556 183,-160.5 186.0469,-157.8467 189.349,-155.4201 192.8193,-153.2019"/>
<polygon fill="#191970" stroke="#191970" points="194.7942,-156.1047 201.743,-148.1068 191.3234,-150.0258 194.7942,-156.1047"/>
</g>
<!-- Node17 -->
<g id="node17" class="node">
<title>Node17</title>
<g id="a_node17"><a xlink:href="namespacesloshing__initialization.html#a0ecf019d4e63415fc16ce5ca4158f7f3" target="_top" xlink:title="Initialization of topography.">
<polygon fill="#ffffff" stroke="#000000" points="206.5,-50 206.5,-91 322.5,-91 322.5,-50 206.5,-50"/>
<text text-anchor="start" x="214.5" y="-79" font-family="Helvetica,sans-Serif" font-size="10.00" fill="#000000">sloshing_initialization</text>
<text text-anchor="start" x="214.5" y="-68" font-family="Helvetica,sans-Serif" font-size="10.00" fill="#000000">::sloshing_initialize</text>
<text text-anchor="middle" x="264.5" y="-57" font-family="Helvetica,sans-Serif" font-size="10.00" fill="#000000">_topography</text>
</a>
</g>
</g>
<!-- Node1&#45;&gt;Node17 -->
<g id="edge20" class="edge">
<title>Node1&#45;&gt;Node17</title>
<path fill="none" stroke="#191970" d="M75.4896,-350.2452C82.1159,-305.4902 107.4691,-173.1314 183,-100.5 187.247,-96.4161 192.0965,-92.8799 197.2655,-89.8194"/>
<polygon fill="#191970" stroke="#191970" points="198.9995,-92.8619 206.2165,-85.1052 195.7376,-86.6684 198.9995,-92.8619"/>
</g>
<!-- Node18 -->
<g id="node18" class="node">
<title>Node18</title>
<g id="a_node18"><a xlink:href="namespaceuser__initialization.html#ad48bbaeae8df60afdaffe34590d835ab" target="_top" xlink:title="Initialize topography.">
<polygon fill="#ffffff" stroke="#000000" points="192,-.5 192,-30.5 337,-30.5 337,-.5 192,-.5"/>
<text text-anchor="start" x="200" y="-18.5" font-family="Helvetica,sans-Serif" font-size="10.00" fill="#000000">user_initialization</text>
<text text-anchor="middle" x="264.5" y="-7.5" font-family="Helvetica,sans-Serif" font-size="10.00" fill="#000000">::user_initialize_topography</text>
</a>
</g>
</g>
<!-- Node1&#45;&gt;Node18 -->
<g id="edge21" class="edge">
<title>Node1&#45;&gt;Node18</title>
<path fill="none" stroke="#191970" d="M73.9499,-350.3897C76.3092,-299.114 91.0401,-129.9793 183,-40.5 184.4718,-39.0679 186.0234,-37.7177 187.6419,-36.4445"/>
<polygon fill="#191970" stroke="#191970" points="189.865,-39.1685 196.2319,-30.7001 185.9737,-33.3497 189.865,-39.1685"/>
</g>
<!-- Node3 -->
<g id="node3" class="node">
<title>Node3</title>
<g id="a_node3"><a xlink:href="namespacemom__error__handler.html#a1c462df7b61f1296407b4af51dfeceab" target="_top" xlink:title="This provides a convenient interface for writing an informative comment.">
<polygon fill="#ffffff" stroke="#000000" points="387,-374.5 387,-404.5 502,-404.5 502,-374.5 387,-374.5"/>
<text text-anchor="start" x="395" y="-392.5" font-family="Helvetica,sans-Serif" font-size="10.00" fill="#000000">mom_error_handler::</text>
<text text-anchor="middle" x="444.5" y="-381.5" font-family="Helvetica,sans-Serif" font-size="10.00" fill="#000000">mom_mesg</text>
</a>
</g>
</g>
<!-- Node2&#45;&gt;Node3 -->
<g id="edge2" class="edge">
<title>Node2&#45;&gt;Node3</title>
<path fill="none" stroke="#191970" d="M329.1594,-670.9665C335.3294,-667.5215 341.0999,-663.4084 346,-658.5 415.2163,-589.1661 436.2333,-467.258 442.2449,-414.7391"/>
<polygon fill="#191970" stroke="#191970" points="445.7429,-414.9413 443.3119,-404.6292 438.7815,-414.2066 445.7429,-414.9413"/>
</g>
<!-- Node4 -->
<g id="node4" class="node">
<title>Node4</title>
<g id="a_node4"><a xlink:href="namespacemom__error__handler.html#ad5f00a53059c72fe2332d1436c80ca71" target="_top" xlink:title="This returns .true. if the current PE is the root PE.">
<polygon fill="#ffffff" stroke="#000000" points="543,-239.5 543,-269.5 658,-269.5 658,-239.5 543,-239.5"/>
<text text-anchor="start" x="551" y="-257.5" font-family="Helvetica,sans-Serif" font-size="10.00" fill="#000000">mom_error_handler::</text>
<text text-anchor="middle" x="600.5" y="-246.5" font-family="Helvetica,sans-Serif" font-size="10.00" fill="#000000">is_root_pe</text>
</a>
</g>
</g>
<!-- Node3&#45;&gt;Node4 -->
<g id="edge3" class="edge">
<title>Node3&#45;&gt;Node4</title>
<path fill="none" stroke="#191970" d="M463.5646,-374.3318C476.0442,-364.3078 492.6396,-350.7977 507,-338.5 531.0744,-317.8837 557.9298,-293.6205 576.6603,-276.4857"/>
<polygon fill="#191970" stroke="#191970" points="579.1535,-278.9482 584.1585,-269.61 574.4226,-273.7889 579.1535,-278.9482"/>
</g>
<!-- Node7&#45;&gt;Node3 -->
<g id="edge7" class="edge">
<title>Node7&#45;&gt;Node3</title>
<path fill="none" stroke="#191970" d="M326.6267,-509.3883C333.41,-506.5994 340.0156,-503.328 346,-499.5 381.3884,-476.8637 411.8328,-438.1328 429.1616,-413.1886"/>
<polygon fill="#191970" stroke="#191970" points="432.218,-414.9176 434.9374,-404.6777 426.4259,-410.9869 432.218,-414.9176"/>
</g>
<!-- Node9&#45;&gt;Node3 -->
<g id="edge10" class="edge">
<title>Node9&#45;&gt;Node3</title>
<path fill="none" stroke="#191970" d="M342.1422,-403.7164C353.6524,-402.1177 365.4375,-400.4809 376.725,-398.9132"/>
<polygon fill="#191970" stroke="#191970" points="377.5057,-402.3385 386.9291,-397.496 376.5426,-395.405 377.5057,-402.3385"/>
</g>
<!-- Node10&#45;&gt;Node3 -->
<g id="edge12" class="edge">
<title>Node10&#45;&gt;Node3</title>
<path fill="none" stroke="#191970" d="M340.5753,-375.6434C352.5975,-377.2463 364.9593,-378.8946 376.7747,-380.47"/>
<polygon fill="#191970" stroke="#191970" points="376.62,-383.9802 386.9949,-381.8327 377.5452,-377.0416 376.62,-383.9802"/>
</g>
<!-- Node11&#45;&gt;Node3 -->
<g id="edge15" class="edge">
<title>Node11&#45;&gt;Node3</title>
<path fill="none" stroke="#191970" d="M320.4466,-331.0168C329.0556,-334.3935 337.8032,-337.9524 346,-341.5 366.0701,-350.1863 387.9781,-360.7508 406.026,-369.755"/>
<polygon fill="#191970" stroke="#191970" points="404.5748,-372.9427 415.0819,-374.3032 407.7165,-366.6873 404.5748,-372.9427"/>
</g>
<!-- Node12 -->
<g id="node12" class="node">
<title>Node12</title>
<g id="a_node12"><a xlink:href="namespaceneverland__initialization.html#ac47b2f62d94cc877898360b481c13540" target="_top" xlink:title="Returns the value of a cosine&#45;bell function evaluated at x/L.">
<polygon fill="#ffffff" stroke="#000000" points="382,-298.5 382,-328.5 507,-328.5 507,-298.5 382,-298.5"/>
<text text-anchor="start" x="390" y="-316.5" font-family="Helvetica,sans-Serif" font-size="10.00" fill="#000000">neverland_initialization</text>
<text text-anchor="middle" x="444.5" y="-305.5" font-family="Helvetica,sans-Serif" font-size="10.00" fill="#000000">::cosbell</text>
</a>
</g>
</g>
<!-- Node11&#45;&gt;Node12 -->
<g id="edge14" class="edge">
<title>Node11&#45;&gt;Node12</title>
<path fill="none" stroke="#191970" d="M327.2026,-311.545C341.5466,-311.7841 356.9124,-312.0402 371.642,-312.2857"/>
<polygon fill="#191970" stroke="#191970" points="371.6605,-315.7864 381.7175,-312.4536 371.7772,-308.7874 371.6605,-315.7864"/>
</g>
<!-- Node13 -->
<g id="node13" class="node">
<title>Node13</title>
<g id="a_node13"><a xlink:href="namespaceneverland__initialization.html#ac08a73f9f287ed5a927c681ae585c122" target="_top" xlink:title="Returns the value of a sin&#45;spike function evaluated at x/L.">
<polygon fill="#ffffff" stroke="#000000" points="382,-249.5 382,-279.5 507,-279.5 507,-249.5 382,-249.5"/>
<text text-anchor="start" x="390" y="-267.5" font-family="Helvetica,sans-Serif" font-size="10.00" fill="#000000">neverland_initialization</text>
<text text-anchor="middle" x="444.5" y="-256.5" font-family="Helvetica,sans-Serif" font-size="10.00" fill="#000000">::spike</text>
</a>
</g>
</g>
<!-- Node11&#45;&gt;Node13 -->
<g id="edge16" class="edge">
<title>Node11&#45;&gt;Node13</title>
<path fill="none" stroke="#191970" d="M327.2026,-294.476C342.9147,-290.4607 359.8528,-286.1321 375.838,-282.047"/>
<polygon fill="#191970" stroke="#191970" points="376.8264,-285.4069 385.6484,-279.5399 375.0931,-278.6249 376.8264,-285.4069"/>
</g>
<!-- Node19 -->
<g id="node19" class="node">
<title>Node19</title>
<g id="a_node19"><a xlink:href="namespacemom__error__handler.html#a460cfb79a06c29fc249952c2a3710d67" target="_top" xlink:title="This provides a convenient interface for writing an mpp_error message with run&#45;time filter based on a...">
<polygon fill="#ffffff" stroke="#000000" points="387,-126.5 387,-156.5 502,-156.5 502,-126.5 387,-126.5"/>
<text text-anchor="start" x="395" y="-144.5" font-family="Helvetica,sans-Serif" font-size="10.00" fill="#000000">mom_error_handler::</text>
<text text-anchor="middle" x="444.5" y="-133.5" font-family="Helvetica,sans-Serif" font-size="10.00" fill="#000000">mom_error</text>
</a>
</g>
</g>
<!-- Node18&#45;&gt;Node19 -->
<g id="edge22" class="edge">
<title>Node18&#45;&gt;Node19</title>
<path fill="none" stroke="#191970" d="M325.6158,-30.5251C332.7242,-33.344 339.6827,-36.6461 346,-40.5 379.3729,-60.8594 409.4204,-95.0924 427.3164,-117.9852"/>
<polygon fill="#191970" stroke="#191970" points="424.7067,-120.3344 433.5619,-126.1513 430.267,-116.0818 424.7067,-120.3344"/>
</g>
<!-- Node20 -->
<g id="node20" class="node">
<title>Node20</title>
<g id="a_node20"><a xlink:href="namespaceuser__initialization.html#aebfc0db710e83bae83f08e1a774256dd" target="_top" xlink:title="Write output about the parameter values being used.">
<polygon fill="#ffffff" stroke="#000000" points="395.5,-.5 395.5,-30.5 493.5,-30.5 493.5,-.5 395.5,-.5"/>
<text text-anchor="start" x="403.5" y="-18.5" font-family="Helvetica,sans-Serif" font-size="10.00" fill="#000000">user_initialization</text>
<text text-anchor="middle" x="444.5" y="-7.5" font-family="Helvetica,sans-Serif" font-size="10.00" fill="#000000">::write_user_log</text>
</a>
</g>
</g>
<!-- Node18&#45;&gt;Node20 -->
<g id="edge24" class="edge">
<title>Node18&#45;&gt;Node20</title>
<path fill="none" stroke="#191970" d="M337.194,-15.5C353.0494,-15.5 369.6495,-15.5 384.9244,-15.5"/>
<polygon fill="#191970" stroke="#191970" points="385.2622,-19.0001 395.2622,-15.5 385.2621,-12.0001 385.2622,-19.0001"/>
</g>
<!-- Node19&#45;&gt;Node4 -->
<g id="edge23" class="edge">
<title>Node19&#45;&gt;Node4</title>
<path fill="none" stroke="#191970" d="M465.2156,-156.5055C492.4886,-176.261 540.5859,-211.1007 571.4745,-233.4751"/>
<polygon fill="#191970" stroke="#191970" points="569.5469,-236.4006 579.6987,-239.4324 573.6533,-230.7316 569.5469,-236.4006"/>
</g>
</g>
</svg>
