<?xml version="1.0" encoding="UTF-8" standalone="no"?>
<!DOCTYPE svg PUBLIC "-//W3C//DTD SVG 1.1//EN"
 "http://www.w3.org/Graphics/SVG/1.1/DTD/svg11.dtd">
<!-- Generated by graphviz version 2.40.1 (20161225.0304)
 -->
<!-- Title: regrid_consts::coordinatemode Pages: 1 -->
<svg width="369pt" height="274pt"
 viewBox="0.00 0.00 369.00 273.50" xmlns="http://www.w3.org/2000/svg" xmlns:xlink="http://www.w3.org/1999/xlink">
<g id="graph0" class="graph" transform="scale(1 1) rotate(0) translate(4 269.5)">
<title>regrid_consts::coordinatemode</title>
<polygon fill="#ffffff" stroke="transparent" points="-4,4 -4,-269.5 365,-269.5 365,4 -4,4"/>
<!-- Node1 -->
<g id="node1" class="node">
<title>Node1</title>
<g id="a_node1"><a xlink:title="Parse a string parameter specifying the coordinate mode and return the appropriate enumerated integer...">
<polygon fill="#bfbfbf" stroke="#000000" points="199,-128 199,-147 361,-147 361,-128 199,-128"/>
<text text-anchor="middle" x="280" y="-135" font-family="Helvetica,sans-Serif" font-size="10.00" fill="#000000">regrid_consts::coordinatemode</text>
</a>
</g>
</g>
<!-- Node2 -->
<g id="node2" class="node">
<title>Node2</title>
<g id="a_node2"><a xlink:href="namespaceregrid__consts.html#abb7bad7b33524d0373426750c48cb1c6" target="_top" xlink:title="Returns a string with the coordinate units associated with the string defining the coordinate mode.">
<polygon fill="#ffffff" stroke="#000000" points="0,-246 0,-265 163,-265 163,-246 0,-246"/>
<text text-anchor="middle" x="81.5" y="-253" font-family="Helvetica,sans-Serif" font-size="10.00" fill="#000000">regrid_consts::coordinateunitss</text>
</a>
</g>
</g>
<!-- Node1&#45;&gt;Node2 -->
<g id="edge1" class="edge">
<title>Node1&#45;&gt;Node2</title>
<path fill="none" stroke="#191970" d="M264.9298,-154.5092C244.2076,-176.8067 204.7148,-215.5382 163,-236.5 155.3407,-240.3488 146.8829,-243.4328 138.4015,-245.9"/>
<polygon fill="#191970" stroke="#191970" points="267.5329,-156.8488 271.6843,-147.1012 262.3603,-152.1325 267.5329,-156.8488"/>
</g>
<!-- Node3 -->
<g id="node3" class="node">
<title>Node3</title>
<g id="a_node3"><a xlink:href="namespacemom__diag__remap.html#a5b0f7f8140918d3567bcc568cda0932e" target="_top" xlink:title="Calculate masks for target grid.">
<polygon fill="#ffffff" stroke="#000000" points="18.5,-196.5 18.5,-226.5 144.5,-226.5 144.5,-196.5 18.5,-196.5"/>
<text text-anchor="start" x="26.5" y="-214.5" font-family="Helvetica,sans-Serif" font-size="10.00" fill="#000000">mom_diag_remap::diag</text>
<text text-anchor="middle" x="81.5" y="-203.5" font-family="Helvetica,sans-Serif" font-size="10.00" fill="#000000">_remap_calc_hmask</text>
</a>
</g>
</g>
<!-- Node1&#45;&gt;Node3 -->
<g id="edge2" class="edge">
<title>Node1&#45;&gt;Node3</title>
<path fill="none" stroke="#191970" d="M250.2068,-151.3822C226.7892,-162.0119 193.1932,-176.6452 163,-187.5 154.3942,-190.5939 145.1765,-193.5969 136.148,-196.3715"/>
<polygon fill="#191970" stroke="#191970" points="251.9423,-154.4372 259.5801,-147.0945 249.0304,-148.0716 251.9423,-154.4372"/>
</g>
<!-- Node4 -->
<g id="node4" class="node">
<title>Node4</title>
<g id="a_node4"><a xlink:href="namespacemom__diag__remap.html#a0f3324e591a16e1ef6e3fc7b9f800270" target="_top" xlink:title="Configure the vertical axes for a diagnostic remapping control structure. Reads a configuration param...">
<polygon fill="#ffffff" stroke="#000000" points="16,-147.5 16,-177.5 147,-177.5 147,-147.5 16,-147.5"/>
<text text-anchor="start" x="24" y="-165.5" font-family="Helvetica,sans-Serif" font-size="10.00" fill="#000000">mom_diag_remap::diag</text>
<text text-anchor="middle" x="81.5" y="-154.5" font-family="Helvetica,sans-Serif" font-size="10.00" fill="#000000">_remap_configure_axes</text>
</a>
</g>
</g>
<!-- Node1&#45;&gt;Node4 -->
<g id="edge3" class="edge">
<title>Node1&#45;&gt;Node4</title>
<path fill="none" stroke="#191970" d="M194.131,-148.3147C178.3943,-150.2967 162.2005,-152.3362 147.1712,-154.2291"/>
<polygon fill="#191970" stroke="#191970" points="194.9052,-151.745 204.3894,-147.0227 194.0304,-144.7998 194.9052,-151.745"/>
</g>
<!-- Node5 -->
<g id="node5" class="node">
<title>Node5</title>
<g id="a_node5"><a xlink:href="namespacemom__diag__remap.html#a0607b4ad01c1d80f181aa7450ba4f703" target="_top" xlink:title="Initialize a diagnostic remapping type with the given vertical coordinate.">
<polygon fill="#ffffff" stroke="#000000" points="18.5,-98.5 18.5,-128.5 144.5,-128.5 144.5,-98.5 18.5,-98.5"/>
<text text-anchor="start" x="26.5" y="-116.5" font-family="Helvetica,sans-Serif" font-size="10.00" fill="#000000">mom_diag_remap::diag</text>
<text text-anchor="middle" x="81.5" y="-105.5" font-family="Helvetica,sans-Serif" font-size="10.00" fill="#000000">_remap_init</text>
</a>
</g>
</g>
<!-- Node1&#45;&gt;Node5 -->
<g id="edge4" class="edge">
<title>Node1&#45;&gt;Node5</title>
<path fill="none" stroke="#191970" d="M191.0265,-126.7425C175.349,-124.847 159.3258,-122.9097 144.5442,-121.1225"/>
<polygon fill="#191970" stroke="#191970" points="190.9146,-130.2544 201.2624,-127.9801 191.7549,-123.305 190.9146,-130.2544"/>
</g>
<!-- Node6 -->
<g id="node6" class="node">
<title>Node6</title>
<g id="a_node6"><a xlink:href="namespacemom__diag__remap.html#a1951a63528283e209401e317872f650b" target="_top" xlink:title="Build/update target vertical grids for diagnostic remapping.">
<polygon fill="#ffffff" stroke="#000000" points="18.5,-49.5 18.5,-79.5 144.5,-79.5 144.5,-49.5 18.5,-49.5"/>
<text text-anchor="start" x="26.5" y="-67.5" font-family="Helvetica,sans-Serif" font-size="10.00" fill="#000000">mom_diag_remap::diag</text>
<text text-anchor="middle" x="81.5" y="-56.5" font-family="Helvetica,sans-Serif" font-size="10.00" fill="#000000">_remap_update</text>
</a>
</g>
</g>
<!-- Node1&#45;&gt;Node6 -->
<g id="edge5" class="edge">
<title>Node1&#45;&gt;Node6</title>
<path fill="none" stroke="#191970" d="M248.8315,-123.8003C225.432,-113.7393 192.4849,-100.0454 163,-89.5 153.3845,-86.061 143.0316,-82.6596 133.0373,-79.5255"/>
<polygon fill="#191970" stroke="#191970" points="247.6698,-127.1112 258.2375,-127.87 250.4495,-120.6868 247.6698,-127.1112"/>
</g>
<!-- Node7 -->
<g id="node7" class="node">
<title>Node7</title>
<g id="a_node7"><a xlink:href="namespaceregrid__consts.html#ab231ec7fa57aa5630c057ecbf9fbb95d" target="_top" xlink:title="Returns true if the coordinate is dependent on the state density, returns false otherwise.">
<polygon fill="#ffffff" stroke="#000000" points="27,-.5 27,-30.5 136,-30.5 136,-.5 27,-.5"/>
<text text-anchor="start" x="35" y="-18.5" font-family="Helvetica,sans-Serif" font-size="10.00" fill="#000000">regrid_consts::state</text>
<text text-anchor="middle" x="81.5" y="-7.5" font-family="Helvetica,sans-Serif" font-size="10.00" fill="#000000">_dependent_char</text>
</a>
</g>
</g>
<!-- Node1&#45;&gt;Node7 -->
<g id="edge6" class="edge">
<title>Node1&#45;&gt;Node7</title>
<path fill="none" stroke="#191970" d="M263.7131,-120.326C242.4381,-98.8184 203.1486,-62.1694 163,-40.5 154.6646,-36.0011 145.4031,-32.1892 136.1996,-29.0019"/>
<polygon fill="#191970" stroke="#191970" points="261.4675,-123.0371 270.9491,-127.7648 266.4852,-118.1563 261.4675,-123.0371"/>
</g>
</g>
</svg>
