<?xml version="1.0" encoding="UTF-8" standalone="no"?>
<!DOCTYPE svg PUBLIC "-//W3C//DTD SVG 1.1//EN"
 "http://www.w3.org/Graphics/SVG/1.1/DTD/svg11.dtd">
<!-- Generated by graphviz version 2.40.1 (20161225.0304)
 -->
<!-- Title: mom_spatial_means::global_area_mean Pages: 1 -->
<svg width="481pt" height="176pt"
 viewBox="0.00 0.00 481.00 175.50" xmlns="http://www.w3.org/2000/svg" xmlns:xlink="http://www.w3.org/1999/xlink">
<g id="graph0" class="graph" transform="scale(1 1) rotate(0) translate(4 171.5)">
<title>mom_spatial_means::global_area_mean</title>
<polygon fill="#ffffff" stroke="transparent" points="-4,4 -4,-171.5 477,-171.5 477,4 -4,4"/>
<!-- Node1 -->
<g id="node1" class="node">
<title>Node1</title>
<g id="a_node1"><a xlink:title="Return the global area mean of a variable. This uses reproducing sums.">
<polygon fill="#bfbfbf" stroke="#000000" points="355,-48.5 355,-78.5 473,-78.5 473,-48.5 355,-48.5"/>
<text text-anchor="start" x="363" y="-66.5" font-family="Helvetica,sans-Serif" font-size="10.00" fill="#000000">mom_spatial_means::</text>
<text text-anchor="middle" x="414" y="-55.5" font-family="Helvetica,sans-Serif" font-size="10.00" fill="#000000">global_area_mean</text>
</a>
</g>
</g>
<!-- Node2 -->
<g id="node2" class="node">
<title>Node2</title>
<g id="a_node2"><a xlink:href="namespacemom__forcing__type.html#a44a9dacaf67968ab9a0e625c4d890680" target="_top" xlink:title="Offer buoyancy forcing fields for diagnostics for those fields registered as part of register_forcing...">
<polygon fill="#ffffff" stroke="#000000" points="179,-85.5 179,-115.5 319,-115.5 319,-85.5 179,-85.5"/>
<text text-anchor="start" x="187" y="-103.5" font-family="Helvetica,sans-Serif" font-size="10.00" fill="#000000">mom_forcing_type::forcing</text>
<text text-anchor="middle" x="249" y="-92.5" font-family="Helvetica,sans-Serif" font-size="10.00" fill="#000000">_diagnostics</text>
</a>
</g>
</g>
<!-- Node1&#45;&gt;Node2 -->
<g id="edge1" class="edge">
<title>Node1&#45;&gt;Node2</title>
<path fill="none" stroke="#191970" d="M345.0352,-78.9648C335.4634,-81.1112 325.6416,-83.3137 316.1044,-85.4524"/>
<polygon fill="#191970" stroke="#191970" points="345.9054,-82.3567 354.8973,-76.7533 344.3737,-75.5263 345.9054,-82.3567"/>
</g>
<!-- Node6 -->
<g id="node6" class="node">
<title>Node6</title>
<g id="a_node6"><a xlink:href="namespacemom__internal__tides.html#a9e8e7b153aef9049c2217658821e3178" target="_top" xlink:title="Checks for energy conservation on computational domain.">
<polygon fill="#ffffff" stroke="#000000" points="194.5,-24.5 194.5,-54.5 303.5,-54.5 303.5,-24.5 194.5,-24.5"/>
<text text-anchor="start" x="202.5" y="-42.5" font-family="Helvetica,sans-Serif" font-size="10.00" fill="#000000">mom_internal_tides</text>
<text text-anchor="middle" x="249" y="-31.5" font-family="Helvetica,sans-Serif" font-size="10.00" fill="#000000">::sum_en</text>
</a>
</g>
</g>
<!-- Node1&#45;&gt;Node6 -->
<g id="edge5" class="edge">
<title>Node1&#45;&gt;Node6</title>
<path fill="none" stroke="#191970" d="M344.953,-53.4568C331.1391,-51.4475 316.8081,-49.363 303.5658,-47.4368"/>
<polygon fill="#191970" stroke="#191970" points="344.4976,-56.9273 354.8973,-54.9032 345.5052,-50.0002 344.4976,-56.9273"/>
</g>
<!-- Node3 -->
<g id="node3" class="node">
<title>Node3</title>
<g id="a_node3"><a xlink:href="MOM__driver_8F90.html#a08fffeb2d8e8acbf9ed4609be6d258c6" target="_top" xlink:title=" ">
<polygon fill="#ffffff" stroke="#000000" points="37.5,-148 37.5,-167 105.5,-167 105.5,-148 37.5,-148"/>
<text text-anchor="middle" x="71.5" y="-155" font-family="Helvetica,sans-Serif" font-size="10.00" fill="#000000">mom_main</text>
</a>
</g>
</g>
<!-- Node2&#45;&gt;Node3 -->
<g id="edge2" class="edge">
<title>Node2&#45;&gt;Node3</title>
<path fill="none" stroke="#191970" d="M199.8961,-119.0792C182.0869,-125.5582 161.7408,-132.6622 143,-138.5 130.9824,-142.2435 117.6878,-145.9052 105.855,-148.9992"/>
<polygon fill="#191970" stroke="#191970" points="201.3194,-122.2852 209.5028,-115.5561 198.9091,-115.7133 201.3194,-122.2852"/>
</g>
<!-- Node4 -->
<g id="node4" class="node">
<title>Node4</title>
<g id="a_node4"><a xlink:href="namespacemom__ocean__model__mct.html#a422ba42ca07c0bf28ec5113aba4f1e96" target="_top" xlink:title="update_ocean_model uses the forcing in Ice_ocean_boundary to advance the ocean model&#39;s state from the...">
<polygon fill="#ffffff" stroke="#000000" points="6,-98.5 6,-128.5 137,-128.5 137,-98.5 6,-98.5"/>
<text text-anchor="start" x="14" y="-116.5" font-family="Helvetica,sans-Serif" font-size="10.00" fill="#000000">mom_ocean_model_mct</text>
<text text-anchor="middle" x="71.5" y="-105.5" font-family="Helvetica,sans-Serif" font-size="10.00" fill="#000000">::update_ocean_model</text>
</a>
</g>
</g>
<!-- Node2&#45;&gt;Node4 -->
<g id="edge3" class="edge">
<title>Node2&#45;&gt;Node4</title>
<path fill="none" stroke="#191970" d="M168.7597,-106.3768C158.1653,-107.1527 147.4076,-107.9406 137.098,-108.6956"/>
<polygon fill="#191970" stroke="#191970" points="169.1297,-109.8591 178.8473,-105.6379 168.6183,-102.8778 169.1297,-109.8591"/>
</g>
<!-- Node5 -->
<g id="node5" class="node">
<title>Node5</title>
<g id="a_node5"><a xlink:href="namespacemom__ocean__model__nuopc.html#a02a87b4944febcc6828c55e8e4375e62" target="_top" xlink:title="update_ocean_model uses the forcing in Ice_ocean_boundary to advance the ocean model&#39;s state from the...">
<polygon fill="#ffffff" stroke="#000000" points="0,-49.5 0,-79.5 143,-79.5 143,-49.5 0,-49.5"/>
<text text-anchor="start" x="8" y="-67.5" font-family="Helvetica,sans-Serif" font-size="10.00" fill="#000000">mom_ocean_model_nuopc</text>
<text text-anchor="middle" x="71.5" y="-56.5" font-family="Helvetica,sans-Serif" font-size="10.00" fill="#000000">::update_ocean_model</text>
</a>
</g>
</g>
<!-- Node2&#45;&gt;Node5 -->
<g id="edge4" class="edge">
<title>Node2&#45;&gt;Node5</title>
<path fill="none" stroke="#191970" d="M168.8659,-84.2474C160.3044,-82.511 151.635,-80.7527 143.1804,-79.038"/>
<polygon fill="#191970" stroke="#191970" points="168.3511,-87.7142 178.8473,-86.2718 169.7426,-80.8539 168.3511,-87.7142"/>
</g>
<!-- Node7 -->
<g id="node7" class="node">
<title>Node7</title>
<g id="a_node7"><a xlink:href="namespacemom__internal__tides.html#aeeeea20ff7fe971846b7539d377f4389" target="_top" xlink:title="Calls subroutines in this file that are needed to refract, propagate, and dissipate energy density of...">
<polygon fill="#ffffff" stroke="#000000" points="16.5,-.5 16.5,-30.5 126.5,-30.5 126.5,-.5 16.5,-.5"/>
<text text-anchor="start" x="24.5" y="-18.5" font-family="Helvetica,sans-Serif" font-size="10.00" fill="#000000">mom_internal_tides</text>
<text text-anchor="middle" x="71.5" y="-7.5" font-family="Helvetica,sans-Serif" font-size="10.00" fill="#000000">::propagate_int_tide</text>
</a>
</g>
</g>
<!-- Node6&#45;&gt;Node7 -->
<g id="edge6" class="edge">
<title>Node6&#45;&gt;Node7</title>
<path fill="none" stroke="#191970" d="M184.2762,-30.7486C165.3693,-28.1922 144.8891,-25.423 126.6351,-22.9549"/>
<polygon fill="#191970" stroke="#191970" points="183.917,-34.2318 194.2958,-32.1034 184.855,-27.2949 183.917,-34.2318"/>
</g>
</g>
</svg>
