<?xml version="1.0" encoding="UTF-8" standalone="no"?>
<!DOCTYPE svg PUBLIC "-//W3C//DTD SVG 1.1//EN"
 "http://www.w3.org/Graphics/SVG/1.1/DTD/svg11.dtd">
<!-- Generated by graphviz version 2.40.1 (20161225.0304)
 -->
<!-- Title: mom_wave_interface::get_langmuir_number Pages: 1 -->
<svg width="515pt" height="137pt"
 viewBox="0.00 0.00 515.00 137.00" xmlns="http://www.w3.org/2000/svg" xmlns:xlink="http://www.w3.org/1999/xlink">
<g id="graph0" class="graph" transform="scale(1 1) rotate(0) translate(4 133)">
<title>mom_wave_interface::get_langmuir_number</title>
<polygon fill="#ffffff" stroke="transparent" points="-4,4 -4,-133 511,-133 511,4 -4,4"/>
<!-- Node1 -->
<g id="node1" class="node">
<title>Node1</title>
<g id="a_node1"><a xlink:title="Interface to get Langmuir number based on options stored in wave structure.">
<polygon fill="#bfbfbf" stroke="#000000" points="385,-49.5 385,-79.5 507,-79.5 507,-49.5 385,-49.5"/>
<text text-anchor="start" x="393" y="-67.5" font-family="Helvetica,sans-Serif" font-size="10.00" fill="#000000">mom_wave_interface</text>
<text text-anchor="middle" x="446" y="-56.5" font-family="Helvetica,sans-Serif" font-size="10.00" fill="#000000">::get_langmuir_number</text>
</a>
</g>
</g>
<!-- Node2 -->
<g id="node2" class="node">
<title>Node2</title>
<g id="a_node2"><a xlink:href="namespacemom__energetic__pbl.html#a397c319268a901e2e4bf3c5a3e7730f4" target="_top" xlink:title="This subroutine determines the diffusivities from the integrated energetics mixed layer model....">
<polygon fill="#ffffff" stroke="#000000" points="234,-98.5 234,-128.5 347,-128.5 347,-98.5 234,-98.5"/>
<text text-anchor="start" x="242" y="-116.5" font-family="Helvetica,sans-Serif" font-size="10.00" fill="#000000">mom_energetic_pbl::</text>
<text text-anchor="middle" x="290.5" y="-105.5" font-family="Helvetica,sans-Serif" font-size="10.00" fill="#000000">energetic_pbl</text>
</a>
</g>
</g>
<!-- Node1&#45;&gt;Node2 -->
<g id="edge1" class="edge">
<title>Node1&#45;&gt;Node2</title>
<path fill="none" stroke="#191970" d="M388.5192,-82.6129C371.9877,-87.8222 354.1418,-93.4457 338.2657,-98.4484"/>
<polygon fill="#191970" stroke="#191970" points="389.5903,-85.9451 398.076,-79.6014 387.4864,-79.2688 389.5903,-85.9451"/>
</g>
<!-- Node3 -->
<g id="node3" class="node">
<title>Node3</title>
<g id="a_node3"><a xlink:href="namespacemom__cvmix__kpp.html#a118674d1bd14d2429b7f7d939b749f3c" target="_top" xlink:title="Compute OBL depth.">
<polygon fill="#ffffff" stroke="#000000" points="232.5,-49.5 232.5,-79.5 348.5,-79.5 348.5,-49.5 232.5,-49.5"/>
<text text-anchor="start" x="240.5" y="-67.5" font-family="Helvetica,sans-Serif" font-size="10.00" fill="#000000">mom_cvmix_kpp::kpp</text>
<text text-anchor="middle" x="290.5" y="-56.5" font-family="Helvetica,sans-Serif" font-size="10.00" fill="#000000">_compute_bld</text>
</a>
</g>
</g>
<!-- Node1&#45;&gt;Node3 -->
<g id="edge2" class="edge">
<title>Node1&#45;&gt;Node3</title>
<path fill="none" stroke="#191970" d="M374.7606,-64.5C365.9812,-64.5 357.0902,-64.5 348.5398,-64.5"/>
<polygon fill="#191970" stroke="#191970" points="374.9886,-68.0001 384.9886,-64.5 374.9886,-61.0001 374.9886,-68.0001"/>
</g>
<!-- Node4 -->
<g id="node4" class="node">
<title>Node4</title>
<g id="a_node4"><a xlink:href="namespacemom__wave__interface.html#a42b769030d04a1c087e168de36ce7285" target="_top" xlink:title="Constructs the Stokes Drift profile on the model grid based on desired coupling options.">
<polygon fill="#ffffff" stroke="#000000" points="232,-.5 232,-30.5 349,-30.5 349,-.5 232,-.5"/>
<text text-anchor="start" x="240" y="-18.5" font-family="Helvetica,sans-Serif" font-size="10.00" fill="#000000">mom_wave_interface</text>
<text text-anchor="middle" x="290.5" y="-7.5" font-family="Helvetica,sans-Serif" font-size="10.00" fill="#000000">::update_stokes_drift</text>
</a>
</g>
</g>
<!-- Node1&#45;&gt;Node4 -->
<g id="edge3" class="edge">
<title>Node1&#45;&gt;Node4</title>
<path fill="none" stroke="#191970" d="M388.5192,-46.3871C371.9877,-41.1778 354.1418,-35.5543 338.2657,-30.5516"/>
<polygon fill="#191970" stroke="#191970" points="387.4864,-49.7312 398.076,-49.3986 389.5903,-43.0549 387.4864,-49.7312"/>
</g>
<!-- Node5 -->
<g id="node5" class="node">
<title>Node5</title>
<g id="a_node5"><a xlink:href="namespacemom.html#a972730596703580d4646320f2c9085a5" target="_top" xlink:title="This subroutine orchestrates the time stepping of MOM. The adiabatic dynamics are stepped by calls to...">
<polygon fill="#ffffff" stroke="#000000" points="104,-6 104,-25 196,-25 196,-6 104,-6"/>
<text text-anchor="middle" x="150" y="-13" font-family="Helvetica,sans-Serif" font-size="10.00" fill="#000000">mom::step_mom</text>
</a>
</g>
</g>
<!-- Node4&#45;&gt;Node5 -->
<g id="edge4" class="edge">
<title>Node4&#45;&gt;Node5</title>
<path fill="none" stroke="#191970" d="M221.6293,-15.5C212.9879,-15.5 204.3186,-15.5 196.1448,-15.5"/>
<polygon fill="#191970" stroke="#191970" points="221.7295,-19.0001 231.7294,-15.5 221.7294,-12.0001 221.7295,-19.0001"/>
</g>
<!-- Node6 -->
<g id="node6" class="node">
<title>Node6</title>
<g id="a_node6"><a xlink:href="MOM__driver_8F90.html#a08fffeb2d8e8acbf9ed4609be6d258c6" target="_top" xlink:title=" ">
<polygon fill="#ffffff" stroke="#000000" points="0,-6 0,-25 68,-25 68,-6 0,-6"/>
<text text-anchor="middle" x="34" y="-13" font-family="Helvetica,sans-Serif" font-size="10.00" fill="#000000">mom_main</text>
</a>
</g>
</g>
<!-- Node5&#45;&gt;Node6 -->
<g id="edge5" class="edge">
<title>Node5&#45;&gt;Node6</title>
<path fill="none" stroke="#191970" d="M93.6813,-15.5C84.9846,-15.5 76.2375,-15.5 68.2229,-15.5"/>
<polygon fill="#191970" stroke="#191970" points="93.8205,-19.0001 103.8204,-15.5 93.8204,-12.0001 93.8205,-19.0001"/>
</g>
</g>
</svg>
