<?xml version="1.0" encoding="UTF-8" standalone="no"?>
<!DOCTYPE svg PUBLIC "-//W3C//DTD SVG 1.1//EN"
 "http://www.w3.org/Graphics/SVG/1.1/DTD/svg11.dtd">
<!-- Generated by graphviz version 2.40.1 (20161225.0304)
 -->
<!-- Title: mom_restart::restore_state Pages: 1 -->
<!--zoomable 202 -->
<svg id="main" version="1.1" xmlns="http://www.w3.org/2000/svg" xmlns:xlink="http://www.w3.org/1999/xlink" xml:space="preserve" onload="init(evt)">
<style type="text/css"><![CDATA[
.edge:hover path { stroke: red; }
.edge:hover polygon { stroke: red; fill: red; }
]]></style>
<script type="text/javascript"><![CDATA[
var edges = document.getElementsByTagName('g');
if (edges && edges.length) {
  for (var i=0;i<edges.length;i++) {
    if (edges[i].id.substr(0,4)=='edge') {
      edges[i].setAttribute('class','edge');
    }
  }
}
]]></script>
        <defs>
                <circle id="rim" cx="0" cy="0" r="7"/>
                <circle id="rim2" cx="0" cy="0" r="3.5"/>
                <g id="zoomPlus">
                        <use xlink:href="#rim" fill="#404040">
                                <set attributeName="fill" to="#808080" begin="zoomplus.mouseover" end="zoomplus.mouseout"/>
                        </use>
                        <path d="M-4,0h8M0,-4v8" fill="none" stroke="white" stroke-width="1.5" pointer-events="none"/>
                </g>
                <g id="zoomMin">
                        <use xlink:href="#rim" fill="#404040">
                                <set attributeName="fill" to="#808080" begin="zoomminus.mouseover" end="zoomminus.mouseout"/>
                        </use>
                        <path d="M-4,0h8" fill="none" stroke="white" stroke-width="1.5" pointer-events="none"/>
                </g>
                <g id="dirArrow">
                        <path fill="none" stroke="white" stroke-width="1.5" d="M0,-3.0v7 M-2.5,-0.5L0,-3.0L2.5,-0.5"/>
                </g>
               <g id="resetDef">
                       <use xlink:href="#rim2" fill="#404040">
                               <set attributeName="fill" to="#808080" begin="reset.mouseover" end="reset.mouseout"/>
                       </use>
               </g>
        </defs>

<script type="text/javascript">
var viewWidth = 575;
var viewHeight = 202;
var sectionId = 'dynsection-44';
</script>
<script xlink:href="svgpan.js"/>
<svg id="graph" class="graph">
<g id="viewport">
<title>mom_restart::restore_state</title>
<polygon fill="#ffffff" stroke="transparent" points="-4,4 -4,-198.1795 571,-198.1795 571,4 -4,4"/>
<!-- Node1 -->
<g id="node1" class="node">
<title>Node1</title>
<g id="a_node1"><a xlink:title="restore_state reads the model state from previously generated files. All restart variables are read f...">
<polygon fill="#bfbfbf" stroke="#000000" points="453,-70.6795 453,-100.6795 567,-100.6795 567,-70.6795 453,-70.6795"/>
<text text-anchor="start" x="461" y="-88.6795" font-family="Helvetica,sans-Serif" font-size="10.00" fill="#000000">mom_restart::restore</text>
<text text-anchor="middle" x="510" y="-77.6795" font-family="Helvetica,sans-Serif" font-size="10.00" fill="#000000">_state</text>
</a>
</g>
</g>
<!-- Node2 -->
<g id="node2" class="node">
<title>Node2</title>
<g id="a_node2"><a xlink:href="namespacemom__ice__shelf.html#a5990f9918493ff4984245eac74e5f4d9" target="_top" xlink:title="Initializes shelf model data, parameters and diagnostics.">
<polygon fill="#ffffff" stroke="#000000" points="104,-163.6795 104,-193.6795 233,-193.6795 233,-163.6795 104,-163.6795"/>
<text text-anchor="start" x="112" y="-181.6795" font-family="Helvetica,sans-Serif" font-size="10.00" fill="#000000">mom_ice_shelf::initialize</text>
<text text-anchor="middle" x="168.5" y="-170.6795" font-family="Helvetica,sans-Serif" font-size="10.00" fill="#000000">_ice_shelf</text>
</a>
</g>
</g>
<!-- Node1&#45;&gt;Node2 -->
<g id="edge1" class="edge">
<title>Node1&#45;&gt;Node2</title>
<path fill="none" stroke="#191970" d="M489.2819,-108.3224C471.858,-125.7076 445.3132,-148.5605 417,-159.6795 357.7973,-182.9294 284.648,-185.7431 233.0896,-183.9241"/>
<polygon fill="#191970" stroke="#191970" points="492.1542,-110.3892 496.6192,-100.7812 487.1371,-105.5077 492.1542,-110.3892"/>
</g>
<!-- Node4 -->
<g id="node4" class="node">
<title>Node4</title>
<g id="a_node4"><a xlink:href="namespacemom__state__initialization.html#a81503d4f1855cb185f122d6314e4f06c" target="_top" xlink:title="Initialize temporally evolving fields, either as initial conditions or by reading them from a restart...">
<polygon fill="#ffffff" stroke="#000000" points="278.5,-119.6795 278.5,-149.6795 407.5,-149.6795 407.5,-119.6795 278.5,-119.6795"/>
<text text-anchor="start" x="286.5" y="-137.6795" font-family="Helvetica,sans-Serif" font-size="10.00" fill="#000000">mom_state_initialization</text>
<text text-anchor="middle" x="343" y="-126.6795" font-family="Helvetica,sans-Serif" font-size="10.00" fill="#000000">::mom_initialize_state</text>
</a>
</g>
</g>
<!-- Node1&#45;&gt;Node4 -->
<g id="edge3" class="edge">
<title>Node1&#45;&gt;Node4</title>
<path fill="none" stroke="#191970" d="M448.7656,-103.6465C430.8725,-108.8966 411.5078,-114.5785 394.2982,-119.628"/>
<polygon fill="#191970" stroke="#191970" points="449.9218,-106.9549 458.5318,-100.781 447.9509,-100.2381 449.9218,-106.9549"/>
</g>
<!-- Node6 -->
<g id="node6" class="node">
<title>Node6</title>
<g id="a_node6"><a xlink:href="namespacemom__surface__forcing__mct.html#a9b444c1127c12220af99c66f7d38460d" target="_top" xlink:title="Initialize the surface forcing, including setting parameters and allocating permanent memory.">
<polygon fill="#ffffff" stroke="#000000" points="275,-70.6795 275,-100.6795 411,-100.6795 411,-70.6795 275,-70.6795"/>
<text text-anchor="start" x="283" y="-88.6795" font-family="Helvetica,sans-Serif" font-size="10.00" fill="#000000">mom_surface_forcing</text>
<text text-anchor="middle" x="343" y="-77.6795" font-family="Helvetica,sans-Serif" font-size="10.00" fill="#000000">_mct::surface_forcing_init</text>
</a>
</g>
</g>
<!-- Node1&#45;&gt;Node6 -->
<g id="edge6" class="edge">
<title>Node1&#45;&gt;Node6</title>
<path fill="none" stroke="#191970" d="M442.7661,-85.6795C432.3959,-85.6795 421.6776,-85.6795 411.2848,-85.6795"/>
<polygon fill="#191970" stroke="#191970" points="442.9952,-89.1796 452.9952,-85.6795 442.9951,-82.1796 442.9952,-89.1796"/>
</g>
<!-- Node7 -->
<g id="node7" class="node">
<title>Node7</title>
<g id="a_node7"><a xlink:href="namespacemom__surface__forcing__nuopc.html#a06657bd6f01be304accc1f2e964fefa1" target="_top" xlink:title="Initialize the surface forcing, including setting parameters and allocating permanent memory.">
<polygon fill="#ffffff" stroke="#000000" points="269,-21.6795 269,-51.6795 417,-51.6795 417,-21.6795 269,-21.6795"/>
<text text-anchor="start" x="277" y="-39.6795" font-family="Helvetica,sans-Serif" font-size="10.00" fill="#000000">mom_surface_forcing</text>
<text text-anchor="middle" x="343" y="-28.6795" font-family="Helvetica,sans-Serif" font-size="10.00" fill="#000000">_nuopc::surface_forcing_init</text>
</a>
</g>
</g>
<!-- Node1&#45;&gt;Node7 -->
<g id="edge7" class="edge">
<title>Node1&#45;&gt;Node7</title>
<path fill="none" stroke="#191970" d="M448.7656,-67.7126C430.8725,-62.4625 411.5078,-56.7806 394.2982,-51.7311"/>
<polygon fill="#191970" stroke="#191970" points="447.9509,-71.121 458.5318,-70.5781 449.9218,-64.4042 447.9509,-71.121"/>
</g>
<!-- Node8 -->
<g id="node8" class="node">
<title>Node8</title>
<g id="a_node8"><a xlink:href="namespacemom__surface__forcing.html#a791cb2bd2daa4fd3f036b121995bfb6c" target="_top" xlink:title="Initialize the surface forcing module.">
<polygon fill="#ffffff" stroke="#000000" points="109.5,-26.6795 109.5,-56.6795 227.5,-56.6795 227.5,-26.6795 109.5,-26.6795"/>
<text text-anchor="start" x="117.5" y="-44.6795" font-family="Helvetica,sans-Serif" font-size="10.00" fill="#000000">mom_surface_forcing</text>
<text text-anchor="middle" x="168.5" y="-33.6795" font-family="Helvetica,sans-Serif" font-size="10.00" fill="#000000">::surface_forcing_init</text>
</a>
</g>
</g>
<!-- Node1&#45;&gt;Node8 -->
<g id="edge8" class="edge">
<title>Node1&#45;&gt;Node8</title>
<path fill="none" stroke="#191970" d="M489.804,-62.7616C472.5118,-44.9997 445.8856,-21.7695 417,-11.6795 345.822,13.1834 256.9815,-9.4343 207.1133,-26.5943"/>
<polygon fill="#191970" stroke="#191970" points="487.662,-65.5922 497.0668,-70.4709 492.7571,-60.7922 487.662,-65.5922"/>
</g>
<!-- Node3 -->
<g id="node3" class="node">
<title>Node3</title>
<g id="a_node3"><a xlink:href="MOM__driver_8F90.html#a08fffeb2d8e8acbf9ed4609be6d258c6" target="_top" xlink:title=" ">
<polygon fill="#ffffff" stroke="#000000" points="0,-125.1795 0,-144.1795 68,-144.1795 68,-125.1795 0,-125.1795"/>
<text text-anchor="middle" x="34" y="-132.1795" font-family="Helvetica,sans-Serif" font-size="10.00" fill="#000000">mom_main</text>
</a>
</g>
</g>
<!-- Node2&#45;&gt;Node3 -->
<g id="edge2" class="edge">
<title>Node2&#45;&gt;Node3</title>
<path fill="none" stroke="#191970" d="M112.7408,-160.4386C95.7589,-154.8832 77.7697,-148.9983 63.2791,-144.2578"/>
<polygon fill="#191970" stroke="#191970" points="111.9963,-163.8775 122.5889,-163.6603 114.1728,-157.2245 111.9963,-163.8775"/>
</g>
<!-- Node5 -->
<g id="node5" class="node">
<title>Node5</title>
<g id="a_node5"><a xlink:href="namespacemom.html#a96708b16215666edbfa5b46228f3a200" target="_top" xlink:title="Initialize MOM, including memory allocation, setting up parameters and diagnostics,...">
<polygon fill="#ffffff" stroke="#000000" points="113.5,-125.1795 113.5,-144.1795 223.5,-144.1795 223.5,-125.1795 113.5,-125.1795"/>
<text text-anchor="middle" x="168.5" y="-132.1795" font-family="Helvetica,sans-Serif" font-size="10.00" fill="#000000">mom::initialize_mom</text>
</a>
</g>
</g>
<!-- Node4&#45;&gt;Node5 -->
<g id="edge4" class="edge">
<title>Node4&#45;&gt;Node5</title>
<path fill="none" stroke="#191970" d="M267.819,-134.6795C252.9387,-134.6795 237.5809,-134.6795 223.522,-134.6795"/>
<polygon fill="#191970" stroke="#191970" points="268.0227,-138.1796 278.0226,-134.6795 268.0226,-131.1796 268.0227,-138.1796"/>
</g>
<!-- Node5&#45;&gt;Node3 -->
<g id="edge5" class="edge">
<title>Node5&#45;&gt;Node3</title>
<path fill="none" stroke="#191970" d="M103.3184,-134.6795C91.2441,-134.6795 79.0809,-134.6795 68.3875,-134.6795"/>
<polygon fill="#191970" stroke="#191970" points="103.4057,-138.1796 113.4056,-134.6795 103.4056,-131.1796 103.4057,-138.1796"/>
</g>
<!-- Node8&#45;&gt;Node3 -->
<g id="edge9" class="edge">
<title>Node8&#45;&gt;Node3</title>
<path fill="none" stroke="#191970" d="M138.2849,-62.5718C110.102,-82.0588 69.3088,-110.2653 48.0616,-124.9567"/>
<polygon fill="#191970" stroke="#191970" points="140.3562,-65.3948 146.5909,-56.8286 136.3751,-59.6371 140.3562,-65.3948"/>
</g>
</g>
</svg>
        <g id="navigator" transform="translate(0 0)" fill="#404254">
                <rect fill="#f2f5e9" fill-opacity="0.5" stroke="#606060" stroke-width=".5" x="0" y="0" width="60" height="60"/>
                <use id="zoomplus" xlink:href="#zoomPlus" x="17" y="9" onmousedown="handleZoom(evt,'in')"/>
                <use id="zoomminus" xlink:href="#zoomMin" x="42" y="9" onmousedown="handleZoom(evt,'out')"/>
                <use id="reset" xlink:href="#resetDef" x="30" y="36" onmousedown="handleReset()"/>
                <g id="arrowUp" xlink:href="#dirArrow" transform="translate(30 24)" onmousedown="handlePan(0,-1)">
                  <use xlink:href="#rim" fill="#404040">
                        <set attributeName="fill" to="#808080" begin="arrowUp.mouseover" end="arrowUp.mouseout"/>
                  </use>
                  <path fill="none" stroke="white" stroke-width="1.5" d="M0,-3.0v7 M-2.5,-0.5L0,-3.0L2.5,-0.5"/>
                </g>
                <g id="arrowRight" xlink:href="#dirArrow" transform="rotate(90) translate(36 -43)" onmousedown="handlePan(1,0)">
                  <use xlink:href="#rim" fill="#404040">
                        <set attributeName="fill" to="#808080" begin="arrowRight.mouseover" end="arrowRight.mouseout"/>
                  </use>
                  <path fill="none" stroke="white" stroke-width="1.5" d="M0,-3.0v7 M-2.5,-0.5L0,-3.0L2.5,-0.5"/>
                </g>
                <g id="arrowDown" xlink:href="#dirArrow" transform="rotate(180) translate(-30 -48)" onmousedown="handlePan(0,1)">
                  <use xlink:href="#rim" fill="#404040">
                        <set attributeName="fill" to="#808080" begin="arrowDown.mouseover" end="arrowDown.mouseout"/>
                  </use>
                  <path fill="none" stroke="white" stroke-width="1.5" d="M0,-3.0v7 M-2.5,-0.5L0,-3.0L2.5,-0.5"/>
                </g>
                <g id="arrowLeft" xlink:href="#dirArrow" transform="rotate(270) translate(-36 17)" onmousedown="handlePan(-1,0)">
                  <use xlink:href="#rim" fill="#404040">
                        <set attributeName="fill" to="#808080" begin="arrowLeft.mouseover" end="arrowLeft.mouseout"/>
                  </use>
                  <path fill="none" stroke="white" stroke-width="1.5" d="M0,-3.0v7 M-2.5,-0.5L0,-3.0L2.5,-0.5"/>
                </g>
        </g>
        <svg viewBox="0 0 15 15" width="100%" height="30px" preserveAspectRatio="xMaxYMin meet">
         <g id="arrow_out" transform="scale(0.3 0.3)">
          <a xlink:href="namespacemom__restart_aec60d8a437fc858db4a020f9985b449d_icgraph_org.svg" target="_base">
           <rect id="button" ry="5" rx="5" y="6" x="6" height="38" width="38"
                fill="#f2f5e9" fill-opacity="0.5" stroke="#606060" stroke-width="1.0"/>
           <path id="arrow"
             d="M 11.500037,31.436501 C 11.940474,20.09759 22.043105,11.32322 32.158766,21.979434 L 37.068811,17.246167 C 37.068811,17.246167 37.088388,32 37.088388,32 L 22.160133,31.978069 C 22.160133,31.978069 26.997745,27.140456 26.997745,27.140456 C 18.528582,18.264221 13.291696,25.230495 11.500037,31.436501 z"
             style="fill:#404040;"/>
          </a>
         </g>
        </svg>
</svg>
