<?xml version="1.0" encoding="UTF-8" standalone="no"?>
<!DOCTYPE svg PUBLIC "-//W3C//DTD SVG 1.1//EN"
 "http://www.w3.org/Graphics/SVG/1.1/DTD/svg11.dtd">
<!-- Generated by graphviz version 2.40.1 (20161225.0304)
 -->
<!-- Title: mom_set_visc::set_visc_register_restarts Pages: 1 -->
<svg width="298pt" height="186pt"
 viewBox="0.00 0.00 298.00 186.00" xmlns="http://www.w3.org/2000/svg" xmlns:xlink="http://www.w3.org/1999/xlink">
<g id="graph0" class="graph" transform="scale(1 1) rotate(0) translate(4 182)">
<title>mom_set_visc::set_visc_register_restarts</title>
<polygon fill="#ffffff" stroke="transparent" points="-4,4 -4,-182 294,-182 294,4 -4,4"/>
<!-- Node1 -->
<g id="node1" class="node">
<title>Node1</title>
<g id="a_node1"><a xlink:title="Register any fields associated with the vertvisc_type.">
<polygon fill="#bfbfbf" stroke="#000000" points="0,-73.5 0,-103.5 123,-103.5 123,-73.5 0,-73.5"/>
<text text-anchor="start" x="8" y="-91.5" font-family="Helvetica,sans-Serif" font-size="10.00" fill="#000000">mom_set_visc::set_visc</text>
<text text-anchor="middle" x="61.5" y="-80.5" font-family="Helvetica,sans-Serif" font-size="10.00" fill="#000000">_register_restarts</text>
</a>
</g>
</g>
<!-- Node2 -->
<g id="node2" class="node">
<title>Node2</title>
<g id="a_node2"><a xlink:href="namespacemom__cvmix__conv.html#a5e741c84ad14fae3e5801d00a9867bba" target="_top" xlink:title="Reads the parameter &quot;USE_CVMix_CONVECTION&quot; and returns state. This function allows other modules to k...">
<polygon fill="#ffffff" stroke="#000000" points="160.5,-147.5 160.5,-177.5 288.5,-177.5 288.5,-147.5 160.5,-147.5"/>
<text text-anchor="start" x="168.5" y="-165.5" font-family="Helvetica,sans-Serif" font-size="10.00" fill="#000000">mom_cvmix_conv::cvmix</text>
<text text-anchor="middle" x="224.5" y="-154.5" font-family="Helvetica,sans-Serif" font-size="10.00" fill="#000000">_conv_is_used</text>
</a>
</g>
</g>
<!-- Node1&#45;&gt;Node2 -->
<g id="edge1" class="edge">
<title>Node1&#45;&gt;Node2</title>
<path fill="none" stroke="#191970" d="M88.8019,-103.642C108.1135,-114.0688 134.7762,-127.8985 159,-138.5 163.1051,-140.2966 167.3918,-142.0752 171.7219,-143.8035"/>
<polygon fill="#191970" stroke="#191970" points="170.6281,-147.1334 181.2168,-147.4941 173.1642,-140.6089 170.6281,-147.1334"/>
</g>
<!-- Node3 -->
<g id="node3" class="node">
<title>Node3</title>
<g id="a_node3"><a xlink:href="namespacemom__cvmix__shear.html#aa8084ded891a4e6e33ceeec0f240233f" target="_top" xlink:title="Reads the parameters &quot;LMD94&quot; and &quot;PP81&quot; and returns state. This function allows other modules to know...">
<polygon fill="#ffffff" stroke="#000000" points="159,-98.5 159,-128.5 290,-128.5 290,-98.5 159,-98.5"/>
<text text-anchor="start" x="167" y="-116.5" font-family="Helvetica,sans-Serif" font-size="10.00" fill="#000000">mom_cvmix_shear::cvmix</text>
<text text-anchor="middle" x="224.5" y="-105.5" font-family="Helvetica,sans-Serif" font-size="10.00" fill="#000000">_shear_is_used</text>
</a>
</g>
</g>
<!-- Node1&#45;&gt;Node3 -->
<g id="edge2" class="edge">
<title>Node1&#45;&gt;Node3</title>
<path fill="none" stroke="#191970" d="M123.1233,-97.9514C131.5471,-99.2434 140.2725,-100.5817 148.909,-101.9063"/>
<polygon fill="#191970" stroke="#191970" points="148.5682,-105.3949 158.9832,-103.4514 149.6295,-98.4758 148.5682,-105.3949"/>
</g>
<!-- Node4 -->
<g id="node4" class="node">
<title>Node4</title>
<g id="a_node4"><a xlink:href="namespacemom__kappa__shear.html#ad4d87b0928aea195213e682b493eb555" target="_top" xlink:title="This function indicates to other modules whether the Jackson et al shear mixing parameterization will...">
<polygon fill="#ffffff" stroke="#000000" points="159,-49.5 159,-79.5 290,-79.5 290,-49.5 159,-49.5"/>
<text text-anchor="start" x="167" y="-67.5" font-family="Helvetica,sans-Serif" font-size="10.00" fill="#000000">mom_kappa_shear::kappa</text>
<text text-anchor="middle" x="224.5" y="-56.5" font-family="Helvetica,sans-Serif" font-size="10.00" fill="#000000">_shear_at_vertex</text>
</a>
</g>
</g>
<!-- Node1&#45;&gt;Node4 -->
<g id="edge3" class="edge">
<title>Node1&#45;&gt;Node4</title>
<path fill="none" stroke="#191970" d="M123.1233,-79.4266C131.5471,-78.1863 140.2725,-76.9016 148.909,-75.63"/>
<polygon fill="#191970" stroke="#191970" points="149.5998,-79.0661 158.9832,-74.1466 148.58,-72.1407 149.5998,-79.0661"/>
</g>
<!-- Node5 -->
<g id="node5" class="node">
<title>Node5</title>
<g id="a_node5"><a xlink:href="namespacemom__kappa__shear.html#ac7859c609e462000ca8fd763d68d141e" target="_top" xlink:title="This function indicates to other modules whether the Jackson et al shear mixing parameterization will...">
<polygon fill="#ffffff" stroke="#000000" points="159,-.5 159,-30.5 290,-30.5 290,-.5 159,-.5"/>
<text text-anchor="start" x="167" y="-18.5" font-family="Helvetica,sans-Serif" font-size="10.00" fill="#000000">mom_kappa_shear::kappa</text>
<text text-anchor="middle" x="224.5" y="-7.5" font-family="Helvetica,sans-Serif" font-size="10.00" fill="#000000">_shear_is_used</text>
</a>
</g>
</g>
<!-- Node1&#45;&gt;Node5 -->
<g id="edge4" class="edge">
<title>Node1&#45;&gt;Node5</title>
<path fill="none" stroke="#191970" d="M90.6061,-73.2877C109.8139,-63.4691 135.6509,-50.6772 159,-40.5 163.7595,-38.4255 168.7515,-36.3482 173.7662,-34.3266"/>
<polygon fill="#191970" stroke="#191970" points="175.3711,-37.4557 183.383,-30.5232 172.7966,-30.9464 175.3711,-37.4557"/>
</g>
</g>
</svg>
