<?xml version="1.0" encoding="UTF-8" standalone="no"?>
<!DOCTYPE svg PUBLIC "-//W3C//DTD SVG 1.1//EN"
 "http://www.w3.org/Graphics/SVG/1.1/DTD/svg11.dtd">
<!-- Generated by graphviz version 2.40.1 (20161225.0304)
 -->
<!-- Title: mom_open_boundary::parse_segment_str Pages: 1 -->
<svg width="588pt" height="102pt"
 viewBox="0.00 0.00 588.00 102.00" xmlns="http://www.w3.org/2000/svg" xmlns:xlink="http://www.w3.org/1999/xlink">
<g id="graph0" class="graph" transform="scale(1 1) rotate(0) translate(4 98)">
<title>mom_open_boundary::parse_segment_str</title>
<polygon fill="#ffffff" stroke="transparent" points="-4,4 -4,-98 584,-98 584,4 -4,4"/>
<!-- Node1 -->
<g id="node1" class="node">
<title>Node1</title>
<g id="a_node1"><a xlink:title="Parse an OBC_SEGMENT_%%% string.">
<polygon fill="#bfbfbf" stroke="#000000" points="0,-19.5 0,-49.5 123,-49.5 123,-19.5 0,-19.5"/>
<text text-anchor="start" x="8" y="-37.5" font-family="Helvetica,sans-Serif" font-size="10.00" fill="#000000">mom_open_boundary::</text>
<text text-anchor="middle" x="61.5" y="-26.5" font-family="Helvetica,sans-Serif" font-size="10.00" fill="#000000">parse_segment_str</text>
</a>
</g>
</g>
<!-- Node2 -->
<g id="node2" class="node">
<title>Node2</title>
<g id="a_node2"><a xlink:href="namespacemom__string__functions.html#aad76dee92b69dab4488da049fe11cdb8" target="_top" xlink:title="Returns the string corresponding to the nth word in the argument or &quot;&quot; if the string is not long enou...">
<polygon fill="#ffffff" stroke="#000000" points="159,-63.5 159,-93.5 278,-93.5 278,-63.5 159,-63.5"/>
<text text-anchor="start" x="167" y="-81.5" font-family="Helvetica,sans-Serif" font-size="10.00" fill="#000000">mom_string_functions</text>
<text text-anchor="middle" x="218.5" y="-70.5" font-family="Helvetica,sans-Serif" font-size="10.00" fill="#000000">::extract_word</text>
</a>
</g>
</g>
<!-- Node1&#45;&gt;Node2 -->
<g id="edge1" class="edge">
<title>Node1&#45;&gt;Node2</title>
<path fill="none" stroke="#191970" d="M115.0914,-49.5192C127.9039,-53.11 141.7041,-56.9776 154.9187,-60.681"/>
<polygon fill="#191970" stroke="#191970" points="154.3102,-64.1453 164.8838,-63.4738 156.1993,-57.405 154.3102,-64.1453"/>
</g>
<!-- Node3 -->
<g id="node3" class="node">
<title>Node3</title>
<g id="a_node3"><a xlink:href="MOM__open__boundary_8F90.html#a0793b1a5746e6ead6bff50c3a52cae90" target="_top" xlink:title=" ">
<polygon fill="#ffffff" stroke="#000000" points="168,-25 168,-44 269,-44 269,-25 168,-25"/>
<text text-anchor="middle" x="218.5" y="-32" font-family="Helvetica,sans-Serif" font-size="10.00" fill="#000000">interpret_int_expr</text>
</a>
</g>
</g>
<!-- Node1&#45;&gt;Node3 -->
<g id="edge2" class="edge">
<title>Node1&#45;&gt;Node3</title>
<path fill="none" stroke="#191970" d="M123.0999,-34.5C134.4128,-34.5 146.2173,-34.5 157.5121,-34.5"/>
<polygon fill="#191970" stroke="#191970" points="157.713,-38.0001 167.7129,-34.5 157.7129,-31.0001 157.713,-38.0001"/>
</g>
<!-- Node4 -->
<g id="node4" class="node">
<title>Node4</title>
<g id="a_node4"><a xlink:href="namespacemom__error__handler.html#a460cfb79a06c29fc249952c2a3710d67" target="_top" xlink:title="This provides a convenient interface for writing an mpp_error message with run&#45;time filter based on a...">
<polygon fill="#ffffff" stroke="#000000" points="314,-.5 314,-30.5 429,-30.5 429,-.5 314,-.5"/>
<text text-anchor="start" x="322" y="-18.5" font-family="Helvetica,sans-Serif" font-size="10.00" fill="#000000">mom_error_handler::</text>
<text text-anchor="middle" x="371.5" y="-7.5" font-family="Helvetica,sans-Serif" font-size="10.00" fill="#000000">mom_error</text>
</a>
</g>
</g>
<!-- Node1&#45;&gt;Node4 -->
<g id="edge5" class="edge">
<title>Node1&#45;&gt;Node4</title>
<path fill="none" stroke="#191970" d="M123.1313,-20.6325C134.9765,-18.4955 147.3273,-16.6267 159,-15.5 207.1728,-10.85 261.7752,-10.9656 303.5679,-12.1838"/>
<polygon fill="#191970" stroke="#191970" points="303.5268,-15.6842 313.6336,-12.5056 303.7505,-8.6878 303.5268,-15.6842"/>
</g>
<!-- Node3&#45;&gt;Node4 -->
<g id="edge3" class="edge">
<title>Node3&#45;&gt;Node4</title>
<path fill="none" stroke="#191970" d="M269.0219,-28.226C280.13,-26.8466 292.0673,-25.3642 303.7303,-23.9158"/>
<polygon fill="#191970" stroke="#191970" points="304.3888,-27.361 313.8812,-22.6553 303.5261,-20.4144 304.3888,-27.361"/>
</g>
<!-- Node5 -->
<g id="node5" class="node">
<title>Node5</title>
<g id="a_node5"><a xlink:href="namespacemom__error__handler.html#ad5f00a53059c72fe2332d1436c80ca71" target="_top" xlink:title="This returns .true. if the current PE is the root PE.">
<polygon fill="#ffffff" stroke="#000000" points="465,-.5 465,-30.5 580,-30.5 580,-.5 465,-.5"/>
<text text-anchor="start" x="473" y="-18.5" font-family="Helvetica,sans-Serif" font-size="10.00" fill="#000000">mom_error_handler::</text>
<text text-anchor="middle" x="522.5" y="-7.5" font-family="Helvetica,sans-Serif" font-size="10.00" fill="#000000">is_root_pe</text>
</a>
</g>
</g>
<!-- Node4&#45;&gt;Node5 -->
<g id="edge4" class="edge">
<title>Node4&#45;&gt;Node5</title>
<path fill="none" stroke="#191970" d="M429.0174,-15.5C437.4639,-15.5 446.2292,-15.5 454.8561,-15.5"/>
<polygon fill="#191970" stroke="#191970" points="454.8926,-19.0001 464.8925,-15.5 454.8925,-12.0001 454.8926,-19.0001"/>
</g>
</g>
</svg>
