<?xml version="1.0" encoding="UTF-8" standalone="no"?>
<!DOCTYPE svg PUBLIC "-//W3C//DTD SVG 1.1//EN"
 "http://www.w3.org/Graphics/SVG/1.1/DTD/svg11.dtd">
<!-- Generated by graphviz version 2.40.1 (20161225.0304)
 -->
<!-- Title: mom_meke::step_forward_meke Pages: 1 -->
<svg width="599pt" height="154pt"
 viewBox="0.00 0.00 599.00 153.50" xmlns="http://www.w3.org/2000/svg" xmlns:xlink="http://www.w3.org/1999/xlink">
<g id="graph0" class="graph" transform="scale(1 1) rotate(0) translate(4 149.5)">
<title>mom_meke::step_forward_meke</title>
<polygon fill="#ffffff" stroke="transparent" points="-4,4 -4,-149.5 595,-149.5 595,4 -4,4"/>
<!-- Node1 -->
<g id="node1" class="node">
<title>Node1</title>
<g id="a_node1"><a xlink:title="Integrates forward&#45;in&#45;time the MEKE eddy energy equation. See MEKE equations.">
<polygon fill="#bfbfbf" stroke="#000000" points="0,-69 0,-88 169,-88 169,-69 0,-69"/>
<text text-anchor="middle" x="84.5" y="-76" font-family="Helvetica,sans-Serif" font-size="10.00" fill="#000000">mom_meke::step_forward_meke</text>
</a>
</g>
</g>
<!-- Node2 -->
<g id="node2" class="node">
<title>Node2</title>
<g id="a_node2"><a xlink:href="namespacemom__domains.html#aac3bc012a8c214cbd73bb00668ff165e" target="_top" xlink:title="do_group_pass carries out a group halo update.">
<polygon fill="#ffffff" stroke="#000000" points="206.5,-126 206.5,-145 369.5,-145 369.5,-126 206.5,-126"/>
<text text-anchor="middle" x="288" y="-133" font-family="Helvetica,sans-Serif" font-size="10.00" fill="#000000">mom_domains::do_group_pass</text>
</a>
</g>
</g>
<!-- Node1&#45;&gt;Node2 -->
<g id="edge1" class="edge">
<title>Node1&#45;&gt;Node2</title>
<path fill="none" stroke="#191970" d="M112.5536,-88.0516C136.8553,-96.156 173.0356,-107.8165 205,-116.5 214.2112,-119.0023 224.0562,-121.4511 233.6291,-123.7142"/>
<polygon fill="#191970" stroke="#191970" points="232.9361,-127.1463 243.4688,-125.9997 234.52,-120.3278 232.9361,-127.1463"/>
</g>
<!-- Node3 -->
<g id="node3" class="node">
<title>Node3</title>
<g id="a_node3"><a xlink:href="namespacemom__meke.html#a0ef9a8bcdf705b544db9b8c28a5e6a56" target="_top" xlink:title="Calculates the equilibrium solutino where the source depends only on MEKE diffusivity and there is no...">
<polygon fill="#ffffff" stroke="#000000" points="210.5,-88 210.5,-107 365.5,-107 365.5,-88 210.5,-88"/>
<text text-anchor="middle" x="288" y="-95" font-family="Helvetica,sans-Serif" font-size="10.00" fill="#000000">mom_meke::meke_equilibrium</text>
</a>
</g>
</g>
<!-- Node1&#45;&gt;Node3 -->
<g id="edge2" class="edge">
<title>Node1&#45;&gt;Node3</title>
<path fill="none" stroke="#191970" d="M169.0344,-86.3926C179.2721,-87.3485 189.7492,-88.3267 200.0349,-89.287"/>
<polygon fill="#191970" stroke="#191970" points="199.9588,-92.7951 210.2409,-90.2399 200.6096,-85.8254 199.9588,-92.7951"/>
</g>
<!-- Node5 -->
<g id="node5" class="node">
<title>Node5</title>
<g id="a_node5"><a xlink:href="namespacemom__meke.html#a8180d5d0cacf48bcbdffead9e6a06efd" target="_top" xlink:title="Calculates the eddy mixing length scale and &#160;and &#160;functions that are ratios of either bottom or barot...">
<polygon fill="#ffffff" stroke="#000000" points="205,-50 205,-69 371,-69 371,-50 205,-50"/>
<text text-anchor="middle" x="288" y="-57" font-family="Helvetica,sans-Serif" font-size="10.00" fill="#000000">mom_meke::meke_lengthscales</text>
</a>
</g>
</g>
<!-- Node1&#45;&gt;Node5 -->
<g id="edge4" class="edge">
<title>Node1&#45;&gt;Node5</title>
<path fill="none" stroke="#191970" d="M169.0344,-70.6074C177.5112,-69.8159 186.1522,-69.0091 194.7127,-68.2099"/>
<polygon fill="#191970" stroke="#191970" points="195.0791,-71.691 204.7104,-67.2764 194.4283,-64.7213 195.0791,-71.691"/>
</g>
<!-- Node6 -->
<g id="node6" class="node">
<title>Node6</title>
<g id="a_node6"><a xlink:href="namespacemom__error__handler.html#a460cfb79a06c29fc249952c2a3710d67" target="_top" xlink:title="This provides a convenient interface for writing an mpp_error message with run&#45;time filter based on a...">
<polygon fill="#ffffff" stroke="#000000" points="230.5,-.5 230.5,-30.5 345.5,-30.5 345.5,-.5 230.5,-.5"/>
<text text-anchor="start" x="238.5" y="-18.5" font-family="Helvetica,sans-Serif" font-size="10.00" fill="#000000">mom_error_handler::</text>
<text text-anchor="middle" x="288" y="-7.5" font-family="Helvetica,sans-Serif" font-size="10.00" fill="#000000">mom_error</text>
</a>
</g>
</g>
<!-- Node1&#45;&gt;Node6 -->
<g id="edge6" class="edge">
<title>Node1&#45;&gt;Node6</title>
<path fill="none" stroke="#191970" d="M114.6744,-68.8656C139.0273,-61.1187 174.1854,-49.9991 205,-40.5 212.3817,-38.2245 220.14,-35.8564 227.827,-33.5245"/>
<polygon fill="#191970" stroke="#191970" points="228.9347,-36.8461 237.4922,-30.5996 226.9071,-30.1461 228.9347,-36.8461"/>
</g>
<!-- Node4 -->
<g id="node4" class="node">
<title>Node4</title>
<g id="a_node4"><a xlink:href="namespacemom__meke.html#aed5885cde342caa59b2b9cde72a3e1e7" target="_top" xlink:title="Calculates the eddy mixing length scale and &#160;and &#160;functions that are ratios of either bottom or barot...">
<polygon fill="#ffffff" stroke="#000000" points="407,-69 407,-88 591,-88 591,-69 407,-69"/>
<text text-anchor="middle" x="499" y="-76" font-family="Helvetica,sans-Serif" font-size="10.00" fill="#000000">mom_meke::meke_lengthscales_0d</text>
</a>
</g>
</g>
<!-- Node3&#45;&gt;Node4 -->
<g id="edge3" class="edge">
<title>Node3&#45;&gt;Node4</title>
<path fill="none" stroke="#191970" d="M365.6697,-90.506C375.8211,-89.5919 386.3427,-88.6445 396.8207,-87.701"/>
<polygon fill="#191970" stroke="#191970" points="397.1938,-91.1816 406.8396,-86.7988 396.566,-84.2098 397.1938,-91.1816"/>
</g>
<!-- Node5&#45;&gt;Node4 -->
<g id="edge5" class="edge">
<title>Node5&#45;&gt;Node4</title>
<path fill="none" stroke="#191970" d="M371.0899,-66.982C379.5446,-67.7434 388.2006,-68.5228 396.8269,-69.2996"/>
<polygon fill="#191970" stroke="#191970" points="396.6523,-72.7979 406.9259,-70.209 397.2801,-65.8261 396.6523,-72.7979"/>
</g>
<!-- Node7 -->
<g id="node7" class="node">
<title>Node7</title>
<g id="a_node7"><a xlink:href="namespacemom__error__handler.html#ad5f00a53059c72fe2332d1436c80ca71" target="_top" xlink:title="This returns .true. if the current PE is the root PE.">
<polygon fill="#ffffff" stroke="#000000" points="441.5,-.5 441.5,-30.5 556.5,-30.5 556.5,-.5 441.5,-.5"/>
<text text-anchor="start" x="449.5" y="-18.5" font-family="Helvetica,sans-Serif" font-size="10.00" fill="#000000">mom_error_handler::</text>
<text text-anchor="middle" x="499" y="-7.5" font-family="Helvetica,sans-Serif" font-size="10.00" fill="#000000">is_root_pe</text>
</a>
</g>
</g>
<!-- Node6&#45;&gt;Node7 -->
<g id="edge7" class="edge">
<title>Node6&#45;&gt;Node7</title>
<path fill="none" stroke="#191970" d="M345.6567,-15.5C372.0564,-15.5 403.527,-15.5 431.0686,-15.5"/>
<polygon fill="#191970" stroke="#191970" points="431.4131,-19.0001 441.413,-15.5 431.413,-12.0001 431.4131,-19.0001"/>
</g>
</g>
</svg>
