<?xml version="1.0" encoding="UTF-8" standalone="no"?>
<!DOCTYPE svg PUBLIC "-//W3C//DTD SVG 1.1//EN"
 "http://www.w3.org/Graphics/SVG/1.1/DTD/svg11.dtd">
<!-- Generated by graphviz version 2.40.1 (20161225.0304)
 -->
<!-- Title: dyed_obc_tracer::register_dyed_obc_tracer Pages: 1 -->
<!--zoomable 279 -->
<svg id="main" version="1.1" xmlns="http://www.w3.org/2000/svg" xmlns:xlink="http://www.w3.org/1999/xlink" xml:space="preserve" onload="init(evt)">
<style type="text/css"><![CDATA[
.edge:hover path { stroke: red; }
.edge:hover polygon { stroke: red; fill: red; }
]]></style>
<script type="text/javascript"><![CDATA[
var edges = document.getElementsByTagName('g');
if (edges && edges.length) {
  for (var i=0;i<edges.length;i++) {
    if (edges[i].id.substr(0,4)=='edge') {
      edges[i].setAttribute('class','edge');
    }
  }
}
]]></script>
        <defs>
                <circle id="rim" cx="0" cy="0" r="7"/>
                <circle id="rim2" cx="0" cy="0" r="3.5"/>
                <g id="zoomPlus">
                        <use xlink:href="#rim" fill="#404040">
                                <set attributeName="fill" to="#808080" begin="zoomplus.mouseover" end="zoomplus.mouseout"/>
                        </use>
                        <path d="M-4,0h8M0,-4v8" fill="none" stroke="white" stroke-width="1.5" pointer-events="none"/>
                </g>
                <g id="zoomMin">
                        <use xlink:href="#rim" fill="#404040">
                                <set attributeName="fill" to="#808080" begin="zoomminus.mouseover" end="zoomminus.mouseout"/>
                        </use>
                        <path d="M-4,0h8" fill="none" stroke="white" stroke-width="1.5" pointer-events="none"/>
                </g>
                <g id="dirArrow">
                        <path fill="none" stroke="white" stroke-width="1.5" d="M0,-3.0v7 M-2.5,-0.5L0,-3.0L2.5,-0.5"/>
                </g>
               <g id="resetDef">
                       <use xlink:href="#rim2" fill="#404040">
                               <set attributeName="fill" to="#808080" begin="reset.mouseover" end="reset.mouseout"/>
                       </use>
               </g>
        </defs>

<script type="text/javascript">
var viewWidth = 921;
var viewHeight = 279;
var sectionId = 'dynsection-2';
</script>
<script xlink:href="svgpan.js"/>
<svg id="graph" class="graph">
<g id="viewport">
<title>dyed_obc_tracer::register_dyed_obc_tracer</title>
<polygon fill="#ffffff" stroke="transparent" points="-4,4 -4,-275 917,-275 917,4 -4,4"/>
<!-- Node1 -->
<g id="node1" class="node">
<title>Node1</title>
<g id="a_node1"><a xlink:title="Register tracer fields and subroutines to be used with MOM.">
<polygon fill="#bfbfbf" stroke="#000000" points="0,-177.5 0,-207.5 127,-207.5 127,-177.5 0,-177.5"/>
<text text-anchor="start" x="8" y="-195.5" font-family="Helvetica,sans-Serif" font-size="10.00" fill="#000000">dyed_obc_tracer::register</text>
<text text-anchor="middle" x="63.5" y="-184.5" font-family="Helvetica,sans-Serif" font-size="10.00" fill="#000000">_dyed_obc_tracer</text>
</a>
</g>
</g>
<!-- Node2 -->
<g id="node2" class="node">
<title>Node2</title>
<g id="a_node2"><a xlink:href="namespaceatmos__ocean__fluxes__mod.html#a1bd0443a803dd443bd7a4f24dae28e13" target="_top" xlink:title="This subroutine duplicates an interface used by the FMS coupler, but only returns a value of &#45;1....">
<polygon fill="#ffffff" stroke="#000000" points="163,-240.5 163,-270.5 300,-270.5 300,-240.5 163,-240.5"/>
<text text-anchor="start" x="171" y="-258.5" font-family="Helvetica,sans-Serif" font-size="10.00" fill="#000000">atmos_ocean_fluxes</text>
<text text-anchor="middle" x="231.5" y="-247.5" font-family="Helvetica,sans-Serif" font-size="10.00" fill="#000000">_mod::aof_set_coupler_flux</text>
</a>
</g>
</g>
<!-- Node1&#45;&gt;Node2 -->
<g id="edge1" class="edge">
<title>Node1&#45;&gt;Node2</title>
<path fill="none" stroke="#191970" d="M103.7402,-207.5901C127.1355,-216.3633 156.8141,-227.4928 181.6768,-236.8163"/>
<polygon fill="#191970" stroke="#191970" points="180.7051,-240.1899 191.2974,-240.424 183.163,-233.6356 180.7051,-240.1899"/>
</g>
<!-- Node3 -->
<g id="node3" class="node">
<title>Node3</title>
<g id="a_node3"><a xlink:href="namespacemom__error__handler.html#a460cfb79a06c29fc249952c2a3710d67" target="_top" xlink:title="This provides a convenient interface for writing an mpp_error message with run&#45;time filter based on a...">
<polygon fill="#ffffff" stroke="#000000" points="665,-44.5 665,-74.5 771,-74.5 771,-44.5 665,-44.5"/>
<text text-anchor="start" x="673" y="-62.5" font-family="Helvetica,sans-Serif" font-size="10.00" fill="#000000">mom_error_handler::</text>
<text text-anchor="middle" x="718" y="-51.5" font-family="Helvetica,sans-Serif" font-size="10.00" fill="#000000">mom_error</text>
</a>
</g>
</g>
<!-- Node1&#45;&gt;Node3 -->
<g id="edge2" class="edge">
<title>Node1&#45;&gt;Node3</title>
<path fill="none" stroke="#191970" d="M127.1773,-198.8776C206.2894,-205.343 345.121,-211.8971 462,-192.5 539.3683,-179.6601 560.8562,-174.3219 629,-135.5 654.5672,-120.9342 679.6894,-98.5267 696.6879,-81.811"/>
<polygon fill="#191970" stroke="#191970" points="699.316,-84.1323 703.8989,-74.5799 694.3593,-79.1894 699.316,-84.1323"/>
</g>
<!-- Node5 -->
<g id="node5" class="node">
<title>Node5</title>
<g id="a_node5"><a xlink:href="namespacemom__tracer__registry.html#a97a70989bd0318f51d90c2fc6f87c6f5" target="_top" xlink:title="This subroutine registers a tracer to be advected and laterally diffused.">
<polygon fill="#ffffff" stroke="#000000" points="178.5,-63.5 178.5,-93.5 284.5,-93.5 284.5,-63.5 178.5,-63.5"/>
<text text-anchor="start" x="186.5" y="-81.5" font-family="Helvetica,sans-Serif" font-size="10.00" fill="#000000">mom_tracer_registry</text>
<text text-anchor="middle" x="231.5" y="-70.5" font-family="Helvetica,sans-Serif" font-size="10.00" fill="#000000">::register_tracer</text>
</a>
</g>
</g>
<!-- Node1&#45;&gt;Node5 -->
<g id="edge4" class="edge">
<title>Node1&#45;&gt;Node5</title>
<path fill="none" stroke="#191970" d="M85.8091,-177.3617C115.3875,-157.2906 167.71,-121.7861 200.9439,-99.2345"/>
<polygon fill="#191970" stroke="#191970" points="203.0567,-102.0306 209.3662,-93.5194 199.1262,-96.2382 203.0567,-102.0306"/>
</g>
<!-- Node9 -->
<g id="node9" class="node">
<title>Node9</title>
<g id="a_node9"><a xlink:href="namespacemom__io.html#a09be50ad112d6bc134d06d82fcbe1fdc" target="_top" xlink:title="Returns a vardesc type whose elements have been filled with the provided fields. The argument name is...">
<polygon fill="#ffffff" stroke="#000000" points="183,-164 183,-183 280,-183 280,-164 183,-164"/>
<text text-anchor="middle" x="231.5" y="-171" font-family="Helvetica,sans-Serif" font-size="10.00" fill="#000000">mom_io::var_desc</text>
</a>
</g>
</g>
<!-- Node1&#45;&gt;Node9 -->
<g id="edge12" class="edge">
<title>Node1&#45;&gt;Node9</title>
<path fill="none" stroke="#191970" d="M127.0136,-185.3169C142.0375,-183.6178 157.9925,-181.8133 172.7923,-180.1396"/>
<polygon fill="#191970" stroke="#191970" points="173.2848,-183.6063 182.8281,-179.0046 172.4981,-176.6506 173.2848,-183.6063"/>
</g>
<!-- Node4 -->
<g id="node4" class="node">
<title>Node4</title>
<g id="a_node4"><a xlink:href="namespacemom__error__handler.html#ad5f00a53059c72fe2332d1436c80ca71" target="_top" xlink:title="This returns .true. if the current PE is the root PE.">
<polygon fill="#ffffff" stroke="#000000" points="807,-22.5 807,-52.5 913,-52.5 913,-22.5 807,-22.5"/>
<text text-anchor="start" x="815" y="-40.5" font-family="Helvetica,sans-Serif" font-size="10.00" fill="#000000">mom_error_handler::</text>
<text text-anchor="middle" x="860" y="-29.5" font-family="Helvetica,sans-Serif" font-size="10.00" fill="#000000">is_root_pe</text>
</a>
</g>
</g>
<!-- Node3&#45;&gt;Node4 -->
<g id="edge3" class="edge">
<title>Node3&#45;&gt;Node4</title>
<path fill="none" stroke="#191970" d="M771.2796,-51.2454C779.651,-49.9484 788.3736,-48.5971 796.94,-47.2699"/>
<polygon fill="#191970" stroke="#191970" points="797.5479,-50.7175 806.8941,-45.7277 796.4761,-43.8001 797.5479,-50.7175"/>
</g>
<!-- Node5&#45;&gt;Node3 -->
<g id="edge5" class="edge">
<title>Node5&#45;&gt;Node3</title>
<path fill="none" stroke="#191970" d="M284.9557,-76.4123C375.3363,-72.8825 557.9227,-65.7517 654.6079,-61.9757"/>
<polygon fill="#191970" stroke="#191970" points="654.9702,-65.4644 664.8259,-61.5767 654.6969,-58.4697 654.9702,-65.4644"/>
</g>
<!-- Node6 -->
<g id="node6" class="node">
<title>Node6</title>
<g id="a_node6"><a xlink:href="namespacemom__io.html#aa583d22dfaf16e3157b2741d838f5240" target="_top" xlink:title="This routine queries vardesc.">
<polygon fill="#ffffff" stroke="#000000" points="338.5,-88 338.5,-107 459.5,-107 459.5,-88 338.5,-88"/>
<text text-anchor="middle" x="399" y="-95" font-family="Helvetica,sans-Serif" font-size="10.00" fill="#000000">mom_io::query_vardesc</text>
</a>
</g>
</g>
<!-- Node5&#45;&gt;Node6 -->
<g id="edge6" class="edge">
<title>Node5&#45;&gt;Node6</title>
<path fill="none" stroke="#191970" d="M284.9586,-84.564C298.8053,-86.1346 313.9288,-87.8501 328.5029,-89.5033"/>
<polygon fill="#191970" stroke="#191970" points="328.1516,-92.9858 338.4824,-90.6353 328.9407,-86.0304 328.1516,-92.9858"/>
</g>
<!-- Node8 -->
<g id="node8" class="node">
<title>Node8</title>
<g id="a_node8"><a xlink:href="namespacemom__tracer__registry.html#a452937bf1f9d01a47d1a80793e317b33" target="_top" xlink:title="Initialize the tracer registry.">
<polygon fill="#ffffff" stroke="#000000" points="510.5,-.5 510.5,-30.5 616.5,-30.5 616.5,-.5 510.5,-.5"/>
<text text-anchor="start" x="518.5" y="-18.5" font-family="Helvetica,sans-Serif" font-size="10.00" fill="#000000">mom_tracer_registry</text>
<text text-anchor="middle" x="563.5" y="-7.5" font-family="Helvetica,sans-Serif" font-size="10.00" fill="#000000">::tracer_registry_init</text>
</a>
</g>
</g>
<!-- Node5&#45;&gt;Node8 -->
<g id="edge9" class="edge">
<title>Node5&#45;&gt;Node8</title>
<path fill="none" stroke="#191970" d="M273.2464,-63.4751C292.1921,-57.1359 315.0124,-50.1601 336,-45.5 390.7775,-33.3372 454.1447,-25.4769 500.0683,-20.8664"/>
<polygon fill="#191970" stroke="#191970" points="500.5665,-24.3345 510.1774,-19.8757 499.8836,-17.3678 500.5665,-24.3345"/>
</g>
<!-- Node7 -->
<g id="node7" class="node">
<title>Node7</title>
<g id="a_node7"><a xlink:href="namespacemom__io.html#ac4bc408e8b38dbd669842753f26ebf88" target="_top" xlink:title="Copies a string.">
<polygon fill="#ffffff" stroke="#000000" points="498,-107 498,-126 629,-126 629,-107 498,-107"/>
<text text-anchor="middle" x="563.5" y="-114" font-family="Helvetica,sans-Serif" font-size="10.00" fill="#000000">mom_io::safe_string_copy</text>
</a>
</g>
</g>
<!-- Node6&#45;&gt;Node7 -->
<g id="edge7" class="edge">
<title>Node6&#45;&gt;Node7</title>
<path fill="none" stroke="#191970" d="M459.7864,-104.5209C468.9272,-105.5767 478.4484,-106.6764 487.8537,-107.7627"/>
<polygon fill="#191970" stroke="#191970" points="487.6548,-111.263 497.9904,-108.9335 488.4581,-104.3092 487.6548,-111.263"/>
</g>
<!-- Node7&#45;&gt;Node3 -->
<g id="edge8" class="edge">
<title>Node7&#45;&gt;Node3</title>
<path fill="none" stroke="#191970" d="M589.3598,-106.9595C610.7054,-99.0844 641.6315,-87.6748 667.8112,-78.0162"/>
<polygon fill="#191970" stroke="#191970" points="669.0447,-81.2918 677.2151,-74.5468 666.6218,-74.7245 669.0447,-81.2918"/>
</g>
<!-- Node8&#45;&gt;Node3 -->
<g id="edge11" class="edge">
<title>Node8&#45;&gt;Node3</title>
<path fill="none" stroke="#191970" d="M616.238,-30.5192C628.8465,-34.11 642.427,-37.9776 655.4311,-41.681"/>
<polygon fill="#191970" stroke="#191970" points="654.6613,-45.1009 665.2375,-44.4738 656.5786,-38.3686 654.6613,-45.1009"/>
</g>
<!-- Node8&#45;&gt;Node4 -->
<g id="edge10" class="edge">
<title>Node8&#45;&gt;Node4</title>
<path fill="none" stroke="#191970" d="M616.5083,-19.4332C667.0529,-23.1835 743.2119,-28.8344 796.8702,-32.8158"/>
<polygon fill="#191970" stroke="#191970" points="796.7201,-36.3142 806.9517,-33.5639 797.2381,-29.3334 796.7201,-36.3142"/>
</g>
<!-- Node9&#45;&gt;Node7 -->
<g id="edge15" class="edge">
<title>Node9&#45;&gt;Node7</title>
<path fill="none" stroke="#191970" d="M280.1216,-164.5101C297.7161,-161.2966 317.7436,-157.6842 336,-154.5 389.3614,-145.1929 449.8495,-135.1118 495.0342,-127.6732"/>
<polygon fill="#191970" stroke="#191970" points="495.7143,-131.1084 505.0139,-126.0322 494.5785,-124.2012 495.7143,-131.1084"/>
</g>
<!-- Node10 -->
<g id="node10" class="node">
<title>Node10</title>
<g id="a_node10"><a xlink:href="namespacemom__io.html#a0dff28e4952f43175f84cd9cdcda9837" target="_top" xlink:title="This routine modifies the named elements of a vardesc type. All arguments are optional,...">
<polygon fill="#ffffff" stroke="#000000" points="336,-164 336,-183 462,-183 462,-164 336,-164"/>
<text text-anchor="middle" x="399" y="-171" font-family="Helvetica,sans-Serif" font-size="10.00" fill="#000000">mom_io::modify_vardesc</text>
</a>
</g>
</g>
<!-- Node9&#45;&gt;Node10 -->
<g id="edge13" class="edge">
<title>Node9&#45;&gt;Node10</title>
<path fill="none" stroke="#191970" d="M280.3982,-173.5C294.6562,-173.5 310.5545,-173.5 325.9612,-173.5"/>
<polygon fill="#191970" stroke="#191970" points="325.9924,-177.0001 335.9924,-173.5 325.9924,-170.0001 325.9924,-177.0001"/>
</g>
<!-- Node10&#45;&gt;Node7 -->
<g id="edge14" class="edge">
<title>Node10&#45;&gt;Node7</title>
<path fill="none" stroke="#191970" d="M426.5336,-163.9595C453.8153,-154.5062 495.7959,-139.9598 526.0893,-129.463"/>
<polygon fill="#191970" stroke="#191970" points="527.5737,-132.6529 535.8766,-126.0716 525.2818,-126.0387 527.5737,-132.6529"/>
</g>
</g>
</svg>
        <g id="navigator" transform="translate(0 0)" fill="#404254">
                <rect fill="#f2f5e9" fill-opacity="0.5" stroke="#606060" stroke-width=".5" x="0" y="0" width="60" height="60"/>
                <use id="zoomplus" xlink:href="#zoomPlus" x="17" y="9" onmousedown="handleZoom(evt,'in')"/>
                <use id="zoomminus" xlink:href="#zoomMin" x="42" y="9" onmousedown="handleZoom(evt,'out')"/>
                <use id="reset" xlink:href="#resetDef" x="30" y="36" onmousedown="handleReset()"/>
                <g id="arrowUp" xlink:href="#dirArrow" transform="translate(30 24)" onmousedown="handlePan(0,-1)">
                  <use xlink:href="#rim" fill="#404040">
                        <set attributeName="fill" to="#808080" begin="arrowUp.mouseover" end="arrowUp.mouseout"/>
                  </use>
                  <path fill="none" stroke="white" stroke-width="1.5" d="M0,-3.0v7 M-2.5,-0.5L0,-3.0L2.5,-0.5"/>
                </g>
                <g id="arrowRight" xlink:href="#dirArrow" transform="rotate(90) translate(36 -43)" onmousedown="handlePan(1,0)">
                  <use xlink:href="#rim" fill="#404040">
                        <set attributeName="fill" to="#808080" begin="arrowRight.mouseover" end="arrowRight.mouseout"/>
                  </use>
                  <path fill="none" stroke="white" stroke-width="1.5" d="M0,-3.0v7 M-2.5,-0.5L0,-3.0L2.5,-0.5"/>
                </g>
                <g id="arrowDown" xlink:href="#dirArrow" transform="rotate(180) translate(-30 -48)" onmousedown="handlePan(0,1)">
                  <use xlink:href="#rim" fill="#404040">
                        <set attributeName="fill" to="#808080" begin="arrowDown.mouseover" end="arrowDown.mouseout"/>
                  </use>
                  <path fill="none" stroke="white" stroke-width="1.5" d="M0,-3.0v7 M-2.5,-0.5L0,-3.0L2.5,-0.5"/>
                </g>
                <g id="arrowLeft" xlink:href="#dirArrow" transform="rotate(270) translate(-36 17)" onmousedown="handlePan(-1,0)">
                  <use xlink:href="#rim" fill="#404040">
                        <set attributeName="fill" to="#808080" begin="arrowLeft.mouseover" end="arrowLeft.mouseout"/>
                  </use>
                  <path fill="none" stroke="white" stroke-width="1.5" d="M0,-3.0v7 M-2.5,-0.5L0,-3.0L2.5,-0.5"/>
                </g>
        </g>
        <svg viewBox="0 0 15 15" width="100%" height="30px" preserveAspectRatio="xMaxYMin meet">
         <g id="arrow_out" transform="scale(0.3 0.3)">
          <a xlink:href="namespacedyed__obc__tracer_a968aec7f642a4750d835b0d030c17fe5_cgraph_org.svg" target="_base">
           <rect id="button" ry="5" rx="5" y="6" x="6" height="38" width="38"
                fill="#f2f5e9" fill-opacity="0.5" stroke="#606060" stroke-width="1.0"/>
           <path id="arrow"
             d="M 11.500037,31.436501 C 11.940474,20.09759 22.043105,11.32322 32.158766,21.979434 L 37.068811,17.246167 C 37.068811,17.246167 37.088388,32 37.088388,32 L 22.160133,31.978069 C 22.160133,31.978069 26.997745,27.140456 26.997745,27.140456 C 18.528582,18.264221 13.291696,25.230495 11.500037,31.436501 z"
             style="fill:#404040;"/>
          </a>
         </g>
        </svg>
</svg>
