<?xml version="1.0" encoding="UTF-8" standalone="no"?>
<!DOCTYPE svg PUBLIC "-//W3C//DTD SVG 1.1//EN"
 "http://www.w3.org/Graphics/SVG/1.1/DTD/svg11.dtd">
<!-- Generated by graphviz version 2.40.1 (20161225.0304)
 -->
<!-- Title: mom_barotropic::set_up_bt_obc Pages: 1 -->
<svg width="403pt" height="137pt"
 viewBox="0.00 0.00 403.00 137.00" xmlns="http://www.w3.org/2000/svg" xmlns:xlink="http://www.w3.org/1999/xlink">
<g id="graph0" class="graph" transform="scale(1 1) rotate(0) translate(4 133)">
<title>mom_barotropic::set_up_bt_obc</title>
<polygon fill="#ffffff" stroke="transparent" points="-4,4 -4,-133 399,-133 399,4 -4,4"/>
<!-- Node1 -->
<g id="node1" class="node">
<title>Node1</title>
<g id="a_node1"><a xlink:title="This subroutine sets up the private structure used to apply the open boundary conditions,...">
<polygon fill="#bfbfbf" stroke="#000000" points="0,-49.5 0,-79.5 106,-79.5 106,-49.5 0,-49.5"/>
<text text-anchor="start" x="8" y="-67.5" font-family="Helvetica,sans-Serif" font-size="10.00" fill="#000000">mom_barotropic::set</text>
<text text-anchor="middle" x="53" y="-56.5" font-family="Helvetica,sans-Serif" font-size="10.00" fill="#000000">_up_bt_obc</text>
</a>
</g>
</g>
<!-- Node2 -->
<g id="node2" class="node">
<title>Node2</title>
<g id="a_node2"><a xlink:href="namespacemom__error__handler.html#a460cfb79a06c29fc249952c2a3710d67" target="_top" xlink:title="This provides a convenient interface for writing an mpp_error message with run&#45;time filter based on a...">
<polygon fill="#ffffff" stroke="#000000" points="144.5,-98.5 144.5,-128.5 250.5,-128.5 250.5,-98.5 144.5,-98.5"/>
<text text-anchor="start" x="152.5" y="-116.5" font-family="Helvetica,sans-Serif" font-size="10.00" fill="#000000">mom_error_handler::</text>
<text text-anchor="middle" x="197.5" y="-105.5" font-family="Helvetica,sans-Serif" font-size="10.00" fill="#000000">mom_error</text>
</a>
</g>
</g>
<!-- Node1&#45;&gt;Node2 -->
<g id="edge1" class="edge">
<title>Node1&#45;&gt;Node2</title>
<path fill="none" stroke="#191970" d="M97.5338,-79.6014C111.955,-84.4917 128.1126,-89.9707 143.1632,-95.0744"/>
<polygon fill="#191970" stroke="#191970" points="142.2701,-98.4672 152.8645,-98.3641 144.5181,-91.838 142.2701,-98.4672"/>
</g>
<!-- Node4 -->
<g id="node4" class="node">
<title>Node4</title>
<g id="a_node4"><a xlink:href="namespacemom__barotropic.html#aa9804838e509354bad61368416fcc889" target="_top" xlink:title="This function inverts the transport function to determine the barotopic velocity that is consistent w...">
<polygon fill="#ffffff" stroke="#000000" points="142,-49.5 142,-79.5 253,-79.5 253,-49.5 142,-49.5"/>
<text text-anchor="start" x="150" y="-67.5" font-family="Helvetica,sans-Serif" font-size="10.00" fill="#000000">mom_barotropic::uhbt</text>
<text text-anchor="middle" x="197.5" y="-56.5" font-family="Helvetica,sans-Serif" font-size="10.00" fill="#000000">_to_ubt</text>
</a>
</g>
</g>
<!-- Node1&#45;&gt;Node4 -->
<g id="edge3" class="edge">
<title>Node1&#45;&gt;Node4</title>
<path fill="none" stroke="#191970" d="M106.3959,-64.5C114.6264,-64.5 123.2079,-64.5 131.671,-64.5"/>
<polygon fill="#191970" stroke="#191970" points="131.9038,-68.0001 141.9038,-64.5 131.9038,-61.0001 131.9038,-68.0001"/>
</g>
<!-- Node5 -->
<g id="node5" class="node">
<title>Node5</title>
<g id="a_node5"><a xlink:href="namespacemom__barotropic.html#ae3fd1674ca574d406c0455182422d08b" target="_top" xlink:title="This function inverts the transport function to determine the barotopic velocity that is consistent w...">
<polygon fill="#ffffff" stroke="#000000" points="142,-.5 142,-30.5 253,-30.5 253,-.5 142,-.5"/>
<text text-anchor="start" x="150" y="-18.5" font-family="Helvetica,sans-Serif" font-size="10.00" fill="#000000">mom_barotropic::vhbt</text>
<text text-anchor="middle" x="197.5" y="-7.5" font-family="Helvetica,sans-Serif" font-size="10.00" fill="#000000">_to_vbt</text>
</a>
</g>
</g>
<!-- Node1&#45;&gt;Node5 -->
<g id="edge4" class="edge">
<title>Node1&#45;&gt;Node5</title>
<path fill="none" stroke="#191970" d="M97.5338,-49.3986C111.955,-44.5083 128.1126,-39.0293 143.1632,-33.9256"/>
<polygon fill="#191970" stroke="#191970" points="144.5181,-37.162 152.8645,-30.6359 142.2701,-30.5328 144.5181,-37.162"/>
</g>
<!-- Node3 -->
<g id="node3" class="node">
<title>Node3</title>
<g id="a_node3"><a xlink:href="namespacemom__error__handler.html#ad5f00a53059c72fe2332d1436c80ca71" target="_top" xlink:title="This returns .true. if the current PE is the root PE.">
<polygon fill="#ffffff" stroke="#000000" points="289,-98.5 289,-128.5 395,-128.5 395,-98.5 289,-98.5"/>
<text text-anchor="start" x="297" y="-116.5" font-family="Helvetica,sans-Serif" font-size="10.00" fill="#000000">mom_error_handler::</text>
<text text-anchor="middle" x="342" y="-105.5" font-family="Helvetica,sans-Serif" font-size="10.00" fill="#000000">is_root_pe</text>
</a>
</g>
</g>
<!-- Node2&#45;&gt;Node3 -->
<g id="edge2" class="edge">
<title>Node2&#45;&gt;Node3</title>
<path fill="none" stroke="#191970" d="M250.8959,-113.5C259.8915,-113.5 269.3063,-113.5 278.5274,-113.5"/>
<polygon fill="#191970" stroke="#191970" points="278.8236,-117.0001 288.8236,-113.5 278.8235,-110.0001 278.8236,-117.0001"/>
</g>
</g>
</svg>
