<?xml version="1.0" encoding="UTF-8" standalone="no"?>
<!DOCTYPE svg PUBLIC "-//W3C//DTD SVG 1.1//EN"
 "http://www.w3.org/Graphics/SVG/1.1/DTD/svg11.dtd">
<!-- Generated by graphviz version 2.40.1 (20161225.0304)
 -->
<!-- Title: mom_boundary_update::obc_register_end Pages: 1 -->
<svg width="294pt" height="137pt"
 viewBox="0.00 0.00 294.00 137.00" xmlns="http://www.w3.org/2000/svg" xmlns:xlink="http://www.w3.org/1999/xlink">
<g id="graph0" class="graph" transform="scale(1 1) rotate(0) translate(4 133)">
<title>mom_boundary_update::obc_register_end</title>
<polygon fill="#ffffff" stroke="transparent" points="-4,4 -4,-133 290,-133 290,4 -4,4"/>
<!-- Node1 -->
<g id="node1" class="node">
<title>Node1</title>
<g id="a_node1"><a xlink:title="Clean up the OBC registry.">
<polygon fill="#bfbfbf" stroke="#000000" points="0,-49.5 0,-79.5 127,-79.5 127,-49.5 0,-49.5"/>
<text text-anchor="start" x="8" y="-67.5" font-family="Helvetica,sans-Serif" font-size="10.00" fill="#000000">mom_boundary_update</text>
<text text-anchor="middle" x="63.5" y="-56.5" font-family="Helvetica,sans-Serif" font-size="10.00" fill="#000000">::obc_register_end</text>
</a>
</g>
</g>
<!-- Node2 -->
<g id="node2" class="node">
<title>Node2</title>
<g id="a_node2"><a xlink:href="namespacemom__open__boundary.html#a55081f00e4a95f87ddc5dfe1d61f52e0" target="_top" xlink:title="Clean up the file OBC from registry.">
<polygon fill="#ffffff" stroke="#000000" points="163,-98.5 163,-128.5 286,-128.5 286,-98.5 163,-98.5"/>
<text text-anchor="start" x="171" y="-116.5" font-family="Helvetica,sans-Serif" font-size="10.00" fill="#000000">mom_open_boundary::</text>
<text text-anchor="middle" x="224.5" y="-105.5" font-family="Helvetica,sans-Serif" font-size="10.00" fill="#000000">file_obc_end</text>
</a>
</g>
</g>
<!-- Node1&#45;&gt;Node2 -->
<g id="edge1" class="edge">
<title>Node1&#45;&gt;Node2</title>
<path fill="none" stroke="#191970" d="M113.119,-79.6014C129.5702,-84.6083 148.0494,-90.2324 165.1566,-95.439"/>
<polygon fill="#191970" stroke="#191970" points="164.459,-98.8851 175.0448,-98.4484 166.4972,-92.1884 164.459,-98.8851"/>
</g>
<!-- Node3 -->
<g id="node3" class="node">
<title>Node3</title>
<g id="a_node3"><a xlink:href="namespacekelvin__initialization.html#a9c8e0745879d099cef92df7f16c67f9c" target="_top" xlink:title="Clean up the Kelvin wave OBC from registry.">
<polygon fill="#ffffff" stroke="#000000" points="172.5,-49.5 172.5,-79.5 276.5,-79.5 276.5,-49.5 172.5,-49.5"/>
<text text-anchor="start" x="180.5" y="-67.5" font-family="Helvetica,sans-Serif" font-size="10.00" fill="#000000">kelvin_initialization</text>
<text text-anchor="middle" x="224.5" y="-56.5" font-family="Helvetica,sans-Serif" font-size="10.00" fill="#000000">::kelvin_obc_end</text>
</a>
</g>
</g>
<!-- Node1&#45;&gt;Node3 -->
<g id="edge2" class="edge">
<title>Node1&#45;&gt;Node3</title>
<path fill="none" stroke="#191970" d="M127.1315,-64.5C138.7563,-64.5 150.8725,-64.5 162.4505,-64.5"/>
<polygon fill="#191970" stroke="#191970" points="162.4607,-68.0001 172.4607,-64.5 162.4606,-61.0001 162.4607,-68.0001"/>
</g>
<!-- Node4 -->
<g id="node4" class="node">
<title>Node4</title>
<g id="a_node4"><a xlink:href="namespacetidal__bay__initialization.html#a0c8bd22e72376c9f9af5bc5f628393f9" target="_top" xlink:title="Clean up the tidal bay OBC from registry.">
<polygon fill="#ffffff" stroke="#000000" points="165,-.5 165,-30.5 284,-30.5 284,-.5 165,-.5"/>
<text text-anchor="start" x="173" y="-18.5" font-family="Helvetica,sans-Serif" font-size="10.00" fill="#000000">tidal_bay_initialization</text>
<text text-anchor="middle" x="224.5" y="-7.5" font-family="Helvetica,sans-Serif" font-size="10.00" fill="#000000">::tidal_bay_obc_end</text>
</a>
</g>
</g>
<!-- Node1&#45;&gt;Node4 -->
<g id="edge3" class="edge">
<title>Node1&#45;&gt;Node4</title>
<path fill="none" stroke="#191970" d="M113.119,-49.3986C129.5702,-44.3917 148.0494,-38.7676 165.1566,-33.561"/>
<polygon fill="#191970" stroke="#191970" points="166.4972,-36.8116 175.0448,-30.5516 164.459,-30.1149 166.4972,-36.8116"/>
</g>
</g>
</svg>
