<?xml version="1.0" encoding="UTF-8" standalone="no"?>
<!DOCTYPE svg PUBLIC "-//W3C//DTD SVG 1.1//EN"
 "http://www.w3.org/Graphics/SVG/1.1/DTD/svg11.dtd">
<!-- Generated by graphviz version 2.40.1 (20161225.0304)
 -->
<!-- Title: mom_document::undef_string Pages: 1 -->
<svg width="315pt" height="39pt"
 viewBox="0.00 0.00 315.00 39.00" xmlns="http://www.w3.org/2000/svg" xmlns:xlink="http://www.w3.org/1999/xlink">
<g id="graph0" class="graph" transform="scale(1 1) rotate(0) translate(4 35)">
<title>mom_document::undef_string</title>
<polygon fill="#ffffff" stroke="transparent" points="-4,4 -4,-35 311,-35 311,4 -4,4"/>
<!-- Node1 -->
<g id="node1" class="node">
<title>Node1</title>
<g id="a_node1"><a xlink:title="This function returns a string for formatted false logicals.">
<polygon fill="#bfbfbf" stroke="#000000" points="185,-.5 185,-30.5 307,-30.5 307,-.5 185,-.5"/>
<text text-anchor="start" x="193" y="-18.5" font-family="Helvetica,sans-Serif" font-size="10.00" fill="#000000">mom_document::undef</text>
<text text-anchor="middle" x="246" y="-7.5" font-family="Helvetica,sans-Serif" font-size="10.00" fill="#000000">_string</text>
</a>
</g>
</g>
<!-- Node2 -->
<g id="node2" class="node">
<title>Node2</title>
<g id="a_node2"><a xlink:href="namespacemom__document.html#ac2c836b7249384e076d12f62d5e5c1c4" target="_top" xlink:title="This subroutine handles parameter documentation for logicals.">
<polygon fill="#ffffff" stroke="#000000" points="0,-.5 0,-30.5 149,-30.5 149,-.5 0,-.5"/>
<text text-anchor="start" x="8" y="-18.5" font-family="Helvetica,sans-Serif" font-size="10.00" fill="#000000">mom_document::doc_param</text>
<text text-anchor="middle" x="74.5" y="-7.5" font-family="Helvetica,sans-Serif" font-size="10.00" fill="#000000">_logical</text>
</a>
</g>
</g>
<!-- Node1&#45;&gt;Node2 -->
<g id="edge1" class="edge">
<title>Node1&#45;&gt;Node2</title>
<path fill="none" stroke="#191970" d="M174.5148,-15.5C166.1789,-15.5 157.6579,-15.5 149.279,-15.5"/>
<polygon fill="#191970" stroke="#191970" points="174.569,-19.0001 184.569,-15.5 174.5689,-12.0001 174.569,-19.0001"/>
</g>
</g>
</svg>
