<?xml version="1.0" encoding="UTF-8" standalone="no"?>
<!DOCTYPE svg PUBLIC "-//W3C//DTD SVG 1.1//EN"
 "http://www.w3.org/Graphics/SVG/1.1/DTD/svg11.dtd">
<!-- Generated by graphviz version 2.40.1 (20161225.0304)
 -->
<!-- Title: bfb_initialization::bfb_initialize_sponges_southonly Pages: 1 -->
<svg width="593pt" height="88pt"
 viewBox="0.00 0.00 593.00 88.00" xmlns="http://www.w3.org/2000/svg" xmlns:xlink="http://www.w3.org/1999/xlink">
<g id="graph0" class="graph" transform="scale(1 1) rotate(0) translate(4 84)">
<title>bfb_initialization::bfb_initialize_sponges_southonly</title>
<polygon fill="#ffffff" stroke="transparent" points="-4,4 -4,-84 589,-84 589,4 -4,4"/>
<!-- Node1 -->
<g id="node1" class="node">
<title>Node1</title>
<g id="a_node1"><a xlink:title="This subroutine sets up the sponges for the southern bouundary of the domain. Maximum damping occurs ...">
<polygon fill="#bfbfbf" stroke="#000000" points="0,-19 0,-60 125,-60 125,-19 0,-19"/>
<text text-anchor="start" x="8" y="-48" font-family="Helvetica,sans-Serif" font-size="10.00" fill="#000000">bfb_initialization</text>
<text text-anchor="start" x="8" y="-37" font-family="Helvetica,sans-Serif" font-size="10.00" fill="#000000">::bfb_initialize_sponges</text>
<text text-anchor="middle" x="62.5" y="-26" font-family="Helvetica,sans-Serif" font-size="10.00" fill="#000000">_southonly</text>
</a>
</g>
</g>
<!-- Node2 -->
<g id="node2" class="node">
<title>Node2</title>
<g id="a_node2"><a xlink:href="namespacemom__sponge.html#a2c3c6a03d98c13221031af667b42428d" target="_top" xlink:title="This subroutine determines the number of points which are within sponges in this computational domain...">
<polygon fill="#ffffff" stroke="#000000" points="161,-49.5 161,-79.5 283,-79.5 283,-49.5 161,-49.5"/>
<text text-anchor="start" x="169" y="-67.5" font-family="Helvetica,sans-Serif" font-size="10.00" fill="#000000">mom_sponge::initialize</text>
<text text-anchor="middle" x="222" y="-56.5" font-family="Helvetica,sans-Serif" font-size="10.00" fill="#000000">_sponge</text>
</a>
</g>
</g>
<!-- Node1&#45;&gt;Node2 -->
<g id="edge1" class="edge">
<title>Node1&#45;&gt;Node2</title>
<path fill="none" stroke="#191970" d="M125.0808,-49.3089C133.5492,-50.6362 142.2888,-52.0061 150.8926,-53.3546"/>
<polygon fill="#191970" stroke="#191970" points="150.4845,-56.8333 160.9059,-54.9241 151.5685,-49.9178 150.4845,-56.8333"/>
</g>
<!-- Node5 -->
<g id="node5" class="node">
<title>Node5</title>
<g id="a_node5"><a xlink:href="namespacebfb__initialization.html#acf4641a95e7aa3b9953db2b04a627c97" target="_top" xlink:title="Write output about the parameter values being used.">
<polygon fill="#ffffff" stroke="#000000" points="176.5,-.5 176.5,-30.5 267.5,-30.5 267.5,-.5 176.5,-.5"/>
<text text-anchor="start" x="184.5" y="-18.5" font-family="Helvetica,sans-Serif" font-size="10.00" fill="#000000">bfb_initialization</text>
<text text-anchor="middle" x="222" y="-7.5" font-family="Helvetica,sans-Serif" font-size="10.00" fill="#000000">::write_bfb_log</text>
</a>
</g>
</g>
<!-- Node1&#45;&gt;Node5 -->
<g id="edge4" class="edge">
<title>Node1&#45;&gt;Node5</title>
<path fill="none" stroke="#191970" d="M125.0808,-30.0834C138.7121,-28.0323 153.0459,-25.8755 166.3852,-23.8684"/>
<polygon fill="#191970" stroke="#191970" points="166.9959,-27.316 176.3638,-22.3669 165.9543,-20.3939 166.9959,-27.316"/>
</g>
<!-- Node3 -->
<g id="node3" class="node">
<title>Node3</title>
<g id="a_node3"><a xlink:href="namespacemom__error__handler.html#a460cfb79a06c29fc249952c2a3710d67" target="_top" xlink:title="This provides a convenient interface for writing an mpp_error message with run&#45;time filter based on a...">
<polygon fill="#ffffff" stroke="#000000" points="319,-49.5 319,-79.5 434,-79.5 434,-49.5 319,-49.5"/>
<text text-anchor="start" x="327" y="-67.5" font-family="Helvetica,sans-Serif" font-size="10.00" fill="#000000">mom_error_handler::</text>
<text text-anchor="middle" x="376.5" y="-56.5" font-family="Helvetica,sans-Serif" font-size="10.00" fill="#000000">mom_error</text>
</a>
</g>
</g>
<!-- Node2&#45;&gt;Node3 -->
<g id="edge2" class="edge">
<title>Node2&#45;&gt;Node3</title>
<path fill="none" stroke="#191970" d="M283.0625,-64.5C291.4576,-64.5 300.1198,-64.5 308.6279,-64.5"/>
<polygon fill="#191970" stroke="#191970" points="308.9013,-68.0001 318.9013,-64.5 308.9012,-61.0001 308.9013,-68.0001"/>
</g>
<!-- Node4 -->
<g id="node4" class="node">
<title>Node4</title>
<g id="a_node4"><a xlink:href="namespacemom__error__handler.html#ad5f00a53059c72fe2332d1436c80ca71" target="_top" xlink:title="This returns .true. if the current PE is the root PE.">
<polygon fill="#ffffff" stroke="#000000" points="470,-49.5 470,-79.5 585,-79.5 585,-49.5 470,-49.5"/>
<text text-anchor="start" x="478" y="-67.5" font-family="Helvetica,sans-Serif" font-size="10.00" fill="#000000">mom_error_handler::</text>
<text text-anchor="middle" x="527.5" y="-56.5" font-family="Helvetica,sans-Serif" font-size="10.00" fill="#000000">is_root_pe</text>
</a>
</g>
</g>
<!-- Node3&#45;&gt;Node4 -->
<g id="edge3" class="edge">
<title>Node3&#45;&gt;Node4</title>
<path fill="none" stroke="#191970" d="M434.0174,-64.5C442.4639,-64.5 451.2292,-64.5 459.8561,-64.5"/>
<polygon fill="#191970" stroke="#191970" points="459.8926,-68.0001 469.8925,-64.5 459.8925,-61.0001 459.8926,-68.0001"/>
</g>
</g>
</svg>
