<?xml version="1.0" encoding="UTF-8" standalone="no"?>
<!DOCTYPE svg PUBLIC "-//W3C//DTD SVG 1.1//EN"
 "http://www.w3.org/Graphics/SVG/1.1/DTD/svg11.dtd">
<!-- Generated by graphviz version 2.40.1 (20161225.0304)
 -->
<!-- Title: mom_ocean_model_nuopc::ocean_model_save_restart Pages: 1 -->
<svg width="974pt" height="151pt"
 viewBox="0.00 0.00 974.00 151.00" xmlns="http://www.w3.org/2000/svg" xmlns:xlink="http://www.w3.org/1999/xlink">
<g id="graph0" class="graph" transform="scale(1 1) rotate(0) translate(4 147)">
<title>mom_ocean_model_nuopc::ocean_model_save_restart</title>
<polygon fill="#ffffff" stroke="transparent" points="-4,4 -4,-147 970,-147 970,4 -4,4"/>
<!-- Node1 -->
<g id="node1" class="node">
<title>Node1</title>
<g id="a_node1"><a xlink:title="ocean_model_save_restart causes restart files associated with the ocean to be written out.">
<polygon fill="#bfbfbf" stroke="#000000" points="0,-44.5 0,-74.5 150,-74.5 150,-44.5 0,-44.5"/>
<text text-anchor="start" x="8" y="-62.5" font-family="Helvetica,sans-Serif" font-size="10.00" fill="#000000">mom_ocean_model_nuopc</text>
<text text-anchor="middle" x="75" y="-51.5" font-family="Helvetica,sans-Serif" font-size="10.00" fill="#000000">::ocean_model_save_restart</text>
</a>
</g>
</g>
<!-- Node2 -->
<g id="node2" class="node">
<title>Node2</title>
<g id="a_node2"><a xlink:href="namespacemom__surface__forcing__nuopc.html#a4e135d3baa97ffa2bd9287b8957befd5" target="_top" xlink:title="Save any restart files associated with the surface forcing.">
<polygon fill="#ffffff" stroke="#000000" points="186,-88 186,-129 304,-129 304,-88 186,-88"/>
<text text-anchor="start" x="194" y="-117" font-family="Helvetica,sans-Serif" font-size="10.00" fill="#000000">mom_surface_forcing</text>
<text text-anchor="start" x="194" y="-106" font-family="Helvetica,sans-Serif" font-size="10.00" fill="#000000">_nuopc::forcing_save</text>
<text text-anchor="middle" x="245" y="-95" font-family="Helvetica,sans-Serif" font-size="10.00" fill="#000000">_restart</text>
</a>
</g>
</g>
<!-- Node1&#45;&gt;Node2 -->
<g id="edge1" class="edge">
<title>Node1&#45;&gt;Node2</title>
<path fill="none" stroke="#191970" d="M127.3928,-74.6014C142.743,-79.0259 159.7655,-83.9324 175.9828,-88.6068"/>
<polygon fill="#191970" stroke="#191970" points="175.376,-92.0743 185.9542,-91.4809 177.3147,-85.3482 175.376,-92.0743"/>
</g>
<!-- Node3 -->
<g id="node3" class="node">
<title>Node3</title>
<g id="a_node3"><a xlink:href="namespacemom__restart.html#ab88b83af8a7dc731b70bc534325ba2b4" target="_top" xlink:title="save_restart saves all registered variables to restart files.">
<polygon fill="#ffffff" stroke="#000000" points="340,-74 340,-93 480,-93 480,-74 340,-74"/>
<text text-anchor="middle" x="410" y="-81" font-family="Helvetica,sans-Serif" font-size="10.00" fill="#000000">mom_restart::save_restart</text>
</a>
</g>
</g>
<!-- Node1&#45;&gt;Node3 -->
<g id="edge9" class="edge">
<title>Node1&#45;&gt;Node3</title>
<path fill="none" stroke="#191970" d="M150.1805,-64.8861C203.6633,-68.7177 275.4077,-73.8576 329.9549,-77.7654"/>
<polygon fill="#191970" stroke="#191970" points="329.707,-81.2565 339.9316,-78.4802 330.2073,-74.2744 329.707,-81.2565"/>
</g>
<!-- Node8 -->
<g id="node8" class="node">
<title>Node8</title>
<g id="a_node8"><a xlink:href="namespacemom__ice__shelf.html#a40ae01bbe3155191647f2150903dda69" target="_top" xlink:title="Save the ice shelf restart file.">
<polygon fill="#ffffff" stroke="#000000" points="190,-.5 190,-30.5 300,-30.5 300,-.5 190,-.5"/>
<text text-anchor="start" x="198" y="-18.5" font-family="Helvetica,sans-Serif" font-size="10.00" fill="#000000">mom_ice_shelf::ice</text>
<text text-anchor="middle" x="245" y="-7.5" font-family="Helvetica,sans-Serif" font-size="10.00" fill="#000000">_shelf_save_restart</text>
</a>
</g>
</g>
<!-- Node1&#45;&gt;Node8 -->
<g id="edge8" class="edge">
<title>Node1&#45;&gt;Node8</title>
<path fill="none" stroke="#191970" d="M133.0289,-44.4808C148.0994,-40.5802 164.4319,-36.3529 179.8427,-32.3643"/>
<polygon fill="#191970" stroke="#191970" points="181.0101,-35.6775 189.8141,-29.7834 179.2561,-28.9008 181.0101,-35.6775"/>
</g>
<!-- Node2&#45;&gt;Node3 -->
<g id="edge2" class="edge">
<title>Node2&#45;&gt;Node3</title>
<path fill="none" stroke="#191970" d="M304.1027,-99.545C314.7932,-97.9253 326.0551,-96.2189 337.0853,-94.5477"/>
<polygon fill="#191970" stroke="#191970" points="337.7641,-97.9849 347.1269,-93.0262 336.7154,-91.0639 337.7641,-97.9849"/>
</g>
<!-- Node4 -->
<g id="node4" class="node">
<title>Node4</title>
<g id="a_node4"><a xlink:href="namespacemom__restart.html#ac31159d0fec067a0a07ac1ac44a5ff8e" target="_top" xlink:title="Return bounds for computing checksums to store in restart files.">
<polygon fill="#ffffff" stroke="#000000" points="516,-112.5 516,-142.5 664,-142.5 664,-112.5 516,-112.5"/>
<text text-anchor="start" x="524" y="-130.5" font-family="Helvetica,sans-Serif" font-size="10.00" fill="#000000">mom_restart::get_checksum</text>
<text text-anchor="middle" x="590" y="-119.5" font-family="Helvetica,sans-Serif" font-size="10.00" fill="#000000">_loop_ranges</text>
</a>
</g>
</g>
<!-- Node3&#45;&gt;Node4 -->
<g id="edge3" class="edge">
<title>Node3&#45;&gt;Node4</title>
<path fill="none" stroke="#191970" d="M449.0573,-93.0473C469.3232,-98.0012 494.7275,-104.2112 518.3663,-109.9895"/>
<polygon fill="#191970" stroke="#191970" points="517.8239,-113.4599 528.369,-112.4346 519.4861,-106.6601 517.8239,-113.4599"/>
</g>
<!-- Node5 -->
<g id="node5" class="node">
<title>Node5</title>
<g id="a_node5"><a xlink:href="namespacemom__error__handler.html#a460cfb79a06c29fc249952c2a3710d67" target="_top" xlink:title="This provides a convenient interface for writing an mpp_error message with run&#45;time filter based on a...">
<polygon fill="#ffffff" stroke="#000000" points="700,-46.5 700,-76.5 815,-76.5 815,-46.5 700,-46.5"/>
<text text-anchor="start" x="708" y="-64.5" font-family="Helvetica,sans-Serif" font-size="10.00" fill="#000000">mom_error_handler::</text>
<text text-anchor="middle" x="757.5" y="-53.5" font-family="Helvetica,sans-Serif" font-size="10.00" fill="#000000">mom_error</text>
</a>
</g>
</g>
<!-- Node3&#45;&gt;Node5 -->
<g id="edge4" class="edge">
<title>Node3&#45;&gt;Node5</title>
<path fill="none" stroke="#191970" d="M480.3218,-79.048C541.4389,-75.1787 629.3999,-69.6099 689.7487,-65.7893"/>
<polygon fill="#191970" stroke="#191970" points="690.1759,-69.2693 699.9347,-65.1444 689.7335,-62.2833 690.1759,-69.2693"/>
</g>
<!-- Node7 -->
<g id="node7" class="node">
<title>Node7</title>
<g id="a_node7"><a xlink:href="namespacemom__restart.html#a4b143fb18dab7c0825e426fbf9532623" target="_top" xlink:title=" ">
<polygon fill="#ffffff" stroke="#000000" points="534.5,-24.5 534.5,-54.5 645.5,-54.5 645.5,-24.5 534.5,-24.5"/>
<text text-anchor="start" x="542.5" y="-42.5" font-family="Helvetica,sans-Serif" font-size="10.00" fill="#000000">mom_restart::restart</text>
<text text-anchor="middle" x="590" y="-31.5" font-family="Helvetica,sans-Serif" font-size="10.00" fill="#000000">_error</text>
</a>
</g>
</g>
<!-- Node3&#45;&gt;Node7 -->
<g id="edge6" class="edge">
<title>Node3&#45;&gt;Node7</title>
<path fill="none" stroke="#191970" d="M449.0573,-73.9527C471.0559,-68.5752 499.1092,-61.7178 524.3865,-55.5388"/>
<polygon fill="#191970" stroke="#191970" points="525.4025,-58.8936 534.2853,-53.1191 523.7402,-52.0938 525.4025,-58.8936"/>
</g>
<!-- Node6 -->
<g id="node6" class="node">
<title>Node6</title>
<g id="a_node6"><a xlink:href="namespacemom__error__handler.html#ad5f00a53059c72fe2332d1436c80ca71" target="_top" xlink:title="This returns .true. if the current PE is the root PE.">
<polygon fill="#ffffff" stroke="#000000" points="851,-46.5 851,-76.5 966,-76.5 966,-46.5 851,-46.5"/>
<text text-anchor="start" x="859" y="-64.5" font-family="Helvetica,sans-Serif" font-size="10.00" fill="#000000">mom_error_handler::</text>
<text text-anchor="middle" x="908.5" y="-53.5" font-family="Helvetica,sans-Serif" font-size="10.00" fill="#000000">is_root_pe</text>
</a>
</g>
</g>
<!-- Node5&#45;&gt;Node6 -->
<g id="edge5" class="edge">
<title>Node5&#45;&gt;Node6</title>
<path fill="none" stroke="#191970" d="M815.0174,-61.5C823.4639,-61.5 832.2292,-61.5 840.8561,-61.5"/>
<polygon fill="#191970" stroke="#191970" points="840.8926,-65.0001 850.8925,-61.5 840.8925,-58.0001 840.8926,-65.0001"/>
</g>
<!-- Node7&#45;&gt;Node5 -->
<g id="edge7" class="edge">
<title>Node7&#45;&gt;Node5</title>
<path fill="none" stroke="#191970" d="M645.7751,-46.8257C659.9253,-48.6842 675.2793,-50.7009 689.9445,-52.627"/>
<polygon fill="#191970" stroke="#191970" points="689.5934,-56.1109 699.964,-53.943 690.505,-49.1705 689.5934,-56.1109"/>
</g>
</g>
</svg>
