<?xml version="1.0" encoding="UTF-8" standalone="no"?>
<!DOCTYPE svg PUBLIC "-//W3C//DTD SVG 1.1//EN"
 "http://www.w3.org/Graphics/SVG/1.1/DTD/svg11.dtd">
<!-- Generated by graphviz version 2.40.1 (20161225.0304)
 -->
<!-- Title: mom_ocean_model_mct::ocean_model_init_sfc Pages: 1 -->
<svg width="337pt" height="39pt"
 viewBox="0.00 0.00 337.00 39.00" xmlns="http://www.w3.org/2000/svg" xmlns:xlink="http://www.w3.org/1999/xlink">
<g id="graph0" class="graph" transform="scale(1 1) rotate(0) translate(4 35)">
<title>mom_ocean_model_mct::ocean_model_init_sfc</title>
<polygon fill="#ffffff" stroke="transparent" points="-4,4 -4,-35 333,-35 333,4 -4,4"/>
<!-- Node1 -->
<g id="node1" class="node">
<title>Node1</title>
<g id="a_node1"><a xlink:title="This subroutine extracts the surface properties from the ocean&#39;s internal state and stores them in th...">
<polygon fill="#bfbfbf" stroke="#000000" points="0,-.5 0,-30.5 131,-30.5 131,-.5 0,-.5"/>
<text text-anchor="start" x="8" y="-18.5" font-family="Helvetica,sans-Serif" font-size="10.00" fill="#000000">mom_ocean_model_mct</text>
<text text-anchor="middle" x="65.5" y="-7.5" font-family="Helvetica,sans-Serif" font-size="10.00" fill="#000000">::ocean_model_init_sfc</text>
</a>
</g>
</g>
<!-- Node2 -->
<g id="node2" class="node">
<title>Node2</title>
<g id="a_node2"><a xlink:href="namespacemom__ocean__model__mct.html#aafb1d4da55ede89a37e651944c52b187" target="_top" xlink:title="This subroutine translates the coupler&#39;s ocean_data_type into MOM&#39;s surface state variable....">
<polygon fill="#ffffff" stroke="#000000" points="167,-.5 167,-30.5 329,-30.5 329,-.5 167,-.5"/>
<text text-anchor="start" x="175" y="-18.5" font-family="Helvetica,sans-Serif" font-size="10.00" fill="#000000">mom_ocean_model_mct</text>
<text text-anchor="middle" x="248" y="-7.5" font-family="Helvetica,sans-Serif" font-size="10.00" fill="#000000">::convert_state_to_ocean_type</text>
</a>
</g>
</g>
<!-- Node1&#45;&gt;Node2 -->
<g id="edge1" class="edge">
<title>Node1&#45;&gt;Node2</title>
<path fill="none" stroke="#191970" d="M131.1289,-15.5C139.4285,-15.5 148.036,-15.5 156.6446,-15.5"/>
<polygon fill="#191970" stroke="#191970" points="156.7327,-19.0001 166.7327,-15.5 156.7327,-12.0001 156.7327,-19.0001"/>
</g>
</g>
</svg>
