<?xml version="1.0" encoding="UTF-8" standalone="no"?>
<!DOCTYPE svg PUBLIC "-//W3C//DTD SVG 1.1//EN"
 "http://www.w3.org/Graphics/SVG/1.1/DTD/svg11.dtd">
<!-- Generated by graphviz version 2.40.1 (20161225.0304)
 -->
<!-- Title: mom_pressureforce_mont::set_pbce_bouss Pages: 1 -->
<!--zoomable 149 -->
<svg id="main" version="1.1" xmlns="http://www.w3.org/2000/svg" xmlns:xlink="http://www.w3.org/1999/xlink" xml:space="preserve" onload="init(evt)">
<style type="text/css"><![CDATA[
.edge:hover path { stroke: red; }
.edge:hover polygon { stroke: red; fill: red; }
]]></style>
<script type="text/javascript"><![CDATA[
var edges = document.getElementsByTagName('g');
if (edges && edges.length) {
  for (var i=0;i<edges.length;i++) {
    if (edges[i].id.substr(0,4)=='edge') {
      edges[i].setAttribute('class','edge');
    }
  }
}
]]></script>
        <defs>
                <circle id="rim" cx="0" cy="0" r="7"/>
                <circle id="rim2" cx="0" cy="0" r="3.5"/>
                <g id="zoomPlus">
                        <use xlink:href="#rim" fill="#404040">
                                <set attributeName="fill" to="#808080" begin="zoomplus.mouseover" end="zoomplus.mouseout"/>
                        </use>
                        <path d="M-4,0h8M0,-4v8" fill="none" stroke="white" stroke-width="1.5" pointer-events="none"/>
                </g>
                <g id="zoomMin">
                        <use xlink:href="#rim" fill="#404040">
                                <set attributeName="fill" to="#808080" begin="zoomminus.mouseover" end="zoomminus.mouseout"/>
                        </use>
                        <path d="M-4,0h8" fill="none" stroke="white" stroke-width="1.5" pointer-events="none"/>
                </g>
                <g id="dirArrow">
                        <path fill="none" stroke="white" stroke-width="1.5" d="M0,-3.0v7 M-2.5,-0.5L0,-3.0L2.5,-0.5"/>
                </g>
               <g id="resetDef">
                       <use xlink:href="#rim2" fill="#404040">
                               <set attributeName="fill" to="#808080" begin="reset.mouseover" end="reset.mouseout"/>
                       </use>
               </g>
        </defs>

<script type="text/javascript">
var viewWidth = 515;
var viewHeight = 149;
var sectionId = 'dynsection-3';
</script>
<script xlink:href="svgpan.js"/>
<svg id="graph" class="graph">
<g id="viewport">
<title>mom_pressureforce_mont::set_pbce_bouss</title>
<polygon fill="#ffffff" stroke="transparent" points="-4,4 -4,-145 511,-145 511,4 -4,4"/>
<!-- Node1 -->
<g id="node1" class="node">
<title>Node1</title>
<g id="a_node1"><a xlink:title="Determines the partial derivative of the acceleration due to pressure forces with the free surface he...">
<polygon fill="#bfbfbf" stroke="#000000" points="367,-55.5 367,-85.5 507,-85.5 507,-55.5 367,-55.5"/>
<text text-anchor="start" x="375" y="-73.5" font-family="Helvetica,sans-Serif" font-size="10.00" fill="#000000">mom_pressureforce_mont</text>
<text text-anchor="middle" x="437" y="-62.5" font-family="Helvetica,sans-Serif" font-size="10.00" fill="#000000">::set_pbce_bouss</text>
</a>
</g>
</g>
<!-- Node2 -->
<g id="node2" class="node">
<title>Node2</title>
<g id="a_node2"><a xlink:href="namespacemom__pressureforce__afv.html#a76bbe7402a644b2c0ffd2a841207471c" target="_top" xlink:title="Boussinesq analytically&#45;integrated finite volume form of pressure gradient.">
<polygon fill="#ffffff" stroke="#000000" points="186.5,-110.5 186.5,-140.5 326.5,-140.5 326.5,-110.5 186.5,-110.5"/>
<text text-anchor="start" x="194.5" y="-128.5" font-family="Helvetica,sans-Serif" font-size="10.00" fill="#000000">mom_pressureforce_afv</text>
<text text-anchor="middle" x="256.5" y="-117.5" font-family="Helvetica,sans-Serif" font-size="10.00" fill="#000000">::pressureforce_afv_bouss</text>
</a>
</g>
</g>
<!-- Node1&#45;&gt;Node2 -->
<g id="edge1" class="edge">
<title>Node1&#45;&gt;Node2</title>
<path fill="none" stroke="#191970" d="M377.8897,-88.5114C354.5487,-95.6237 328.0404,-103.701 305.7628,-110.4892"/>
<polygon fill="#191970" stroke="#191970" points="379.132,-91.7919 387.6776,-85.529 377.0916,-85.0958 379.132,-91.7919"/>
</g>
<!-- Node4 -->
<g id="node4" class="node">
<title>Node4</title>
<g id="a_node4"><a xlink:href="namespacemom__pressureforce__blk__afv.html#aba1c6a55e8f4dce7c9951a46fd1d93d1" target="_top" xlink:title="Boussinesq analytically&#45;integrated finite volume form of pressure gradient.">
<polygon fill="#ffffff" stroke="#000000" points="192,-50 192,-91 321,-91 321,-50 192,-50"/>
<text text-anchor="start" x="200" y="-79" font-family="Helvetica,sans-Serif" font-size="10.00" fill="#000000">mom_pressureforce_blk</text>
<text text-anchor="start" x="200" y="-68" font-family="Helvetica,sans-Serif" font-size="10.00" fill="#000000">_afv::pressureforce_blk</text>
<text text-anchor="middle" x="256.5" y="-57" font-family="Helvetica,sans-Serif" font-size="10.00" fill="#000000">_afv_bouss</text>
</a>
</g>
</g>
<!-- Node1&#45;&gt;Node4 -->
<g id="edge3" class="edge">
<title>Node1&#45;&gt;Node4</title>
<path fill="none" stroke="#191970" d="M356.6168,-70.5C344.7607,-70.5 332.6748,-70.5 321.1906,-70.5"/>
<polygon fill="#191970" stroke="#191970" points="356.9557,-74.0001 366.9556,-70.5 356.9556,-67.0001 356.9557,-74.0001"/>
</g>
<!-- Node6 -->
<g id="node6" class="node">
<title>Node6</title>
<g id="a_node6"><a xlink:href="namespacemom__pressureforce__mont.html#a5f96546655ff2d3fc9090ba2467ef521" target="_top" xlink:title="Boussinesq Montgomery&#45;potential form of pressure gradient.">
<polygon fill="#ffffff" stroke="#000000" points="182,-.5 182,-30.5 331,-30.5 331,-.5 182,-.5"/>
<text text-anchor="start" x="190" y="-18.5" font-family="Helvetica,sans-Serif" font-size="10.00" fill="#000000">mom_pressureforce_mont</text>
<text text-anchor="middle" x="256.5" y="-7.5" font-family="Helvetica,sans-Serif" font-size="10.00" fill="#000000">::pressureforce_mont_bouss</text>
</a>
</g>
</g>
<!-- Node1&#45;&gt;Node6 -->
<g id="edge5" class="edge">
<title>Node1&#45;&gt;Node6</title>
<path fill="none" stroke="#191970" d="M377.8897,-52.4886C354.5487,-45.3763 328.0404,-37.299 305.7628,-30.5108"/>
<polygon fill="#191970" stroke="#191970" points="377.0916,-55.9042 387.6776,-55.471 379.132,-49.2081 377.0916,-55.9042"/>
</g>
<!-- Node3 -->
<g id="node3" class="node">
<title>Node3</title>
<g id="a_node3"><a xlink:href="namespacemom__pressureforce__afv.html#a880b760c32de359e1215a79633efbba1" target="_top" xlink:title="Thin interface between the model and the Boussinesq and non&#45;Boussinesq pressure force routines.">
<polygon fill="#ffffff" stroke="#000000" points="7.5,-110.5 7.5,-140.5 138.5,-140.5 138.5,-110.5 7.5,-110.5"/>
<text text-anchor="start" x="15.5" y="-128.5" font-family="Helvetica,sans-Serif" font-size="10.00" fill="#000000">mom_pressureforce_afv</text>
<text text-anchor="middle" x="73" y="-117.5" font-family="Helvetica,sans-Serif" font-size="10.00" fill="#000000">::pressureforce_afv</text>
</a>
</g>
</g>
<!-- Node2&#45;&gt;Node3 -->
<g id="edge2" class="edge">
<title>Node2&#45;&gt;Node3</title>
<path fill="none" stroke="#191970" d="M176.3165,-125.5C163.7144,-125.5 150.8166,-125.5 138.5944,-125.5"/>
<polygon fill="#191970" stroke="#191970" points="176.3411,-129.0001 186.3411,-125.5 176.341,-122.0001 176.3411,-129.0001"/>
</g>
<!-- Node5 -->
<g id="node5" class="node">
<title>Node5</title>
<g id="a_node5"><a xlink:href="namespacemom__pressureforce__blk__afv.html#aca748df88aad5adfb7df53de1760e955" target="_top" xlink:title="Thin interface between the model and the Boussinesq and non&#45;Boussinesq pressure force routines.">
<polygon fill="#ffffff" stroke="#000000" points="0,-55.5 0,-85.5 146,-85.5 146,-55.5 0,-55.5"/>
<text text-anchor="start" x="8" y="-73.5" font-family="Helvetica,sans-Serif" font-size="10.00" fill="#000000">mom_pressureforce_blk</text>
<text text-anchor="middle" x="73" y="-62.5" font-family="Helvetica,sans-Serif" font-size="10.00" fill="#000000">_afv::pressureforce_blk_afv</text>
</a>
</g>
</g>
<!-- Node4&#45;&gt;Node5 -->
<g id="edge4" class="edge">
<title>Node4&#45;&gt;Node5</title>
<path fill="none" stroke="#191970" d="M181.6378,-70.5C169.9345,-70.5 157.8515,-70.5 146.1863,-70.5"/>
<polygon fill="#191970" stroke="#191970" points="181.8048,-74.0001 191.8048,-70.5 181.8047,-67.0001 181.8048,-74.0001"/>
</g>
</g>
</svg>
        <g id="navigator" transform="translate(0 0)" fill="#404254">
                <rect fill="#f2f5e9" fill-opacity="0.5" stroke="#606060" stroke-width=".5" x="0" y="0" width="60" height="60"/>
                <use id="zoomplus" xlink:href="#zoomPlus" x="17" y="9" onmousedown="handleZoom(evt,'in')"/>
                <use id="zoomminus" xlink:href="#zoomMin" x="42" y="9" onmousedown="handleZoom(evt,'out')"/>
                <use id="reset" xlink:href="#resetDef" x="30" y="36" onmousedown="handleReset()"/>
                <g id="arrowUp" xlink:href="#dirArrow" transform="translate(30 24)" onmousedown="handlePan(0,-1)">
                  <use xlink:href="#rim" fill="#404040">
                        <set attributeName="fill" to="#808080" begin="arrowUp.mouseover" end="arrowUp.mouseout"/>
                  </use>
                  <path fill="none" stroke="white" stroke-width="1.5" d="M0,-3.0v7 M-2.5,-0.5L0,-3.0L2.5,-0.5"/>
                </g>
                <g id="arrowRight" xlink:href="#dirArrow" transform="rotate(90) translate(36 -43)" onmousedown="handlePan(1,0)">
                  <use xlink:href="#rim" fill="#404040">
                        <set attributeName="fill" to="#808080" begin="arrowRight.mouseover" end="arrowRight.mouseout"/>
                  </use>
                  <path fill="none" stroke="white" stroke-width="1.5" d="M0,-3.0v7 M-2.5,-0.5L0,-3.0L2.5,-0.5"/>
                </g>
                <g id="arrowDown" xlink:href="#dirArrow" transform="rotate(180) translate(-30 -48)" onmousedown="handlePan(0,1)">
                  <use xlink:href="#rim" fill="#404040">
                        <set attributeName="fill" to="#808080" begin="arrowDown.mouseover" end="arrowDown.mouseout"/>
                  </use>
                  <path fill="none" stroke="white" stroke-width="1.5" d="M0,-3.0v7 M-2.5,-0.5L0,-3.0L2.5,-0.5"/>
                </g>
                <g id="arrowLeft" xlink:href="#dirArrow" transform="rotate(270) translate(-36 17)" onmousedown="handlePan(-1,0)">
                  <use xlink:href="#rim" fill="#404040">
                        <set attributeName="fill" to="#808080" begin="arrowLeft.mouseover" end="arrowLeft.mouseout"/>
                  </use>
                  <path fill="none" stroke="white" stroke-width="1.5" d="M0,-3.0v7 M-2.5,-0.5L0,-3.0L2.5,-0.5"/>
                </g>
        </g>
        <svg viewBox="0 0 15 15" width="100%" height="30px" preserveAspectRatio="xMaxYMin meet">
         <g id="arrow_out" transform="scale(0.3 0.3)">
          <a xlink:href="namespacemom__pressureforce__mont_ade9fe196c1e6557f33069d51f66def54_icgraph_org.svg" target="_base">
           <rect id="button" ry="5" rx="5" y="6" x="6" height="38" width="38"
                fill="#f2f5e9" fill-opacity="0.5" stroke="#606060" stroke-width="1.0"/>
           <path id="arrow"
             d="M 11.500037,31.436501 C 11.940474,20.09759 22.043105,11.32322 32.158766,21.979434 L 37.068811,17.246167 C 37.068811,17.246167 37.088388,32 37.088388,32 L 22.160133,31.978069 C 22.160133,31.978069 26.997745,27.140456 26.997745,27.140456 C 18.528582,18.264221 13.291696,25.230495 11.500037,31.436501 z"
             style="fill:#404040;"/>
          </a>
         </g>
        </svg>
</svg>
