<?xml version="1.0" encoding="UTF-8" standalone="no"?>
<!DOCTYPE svg PUBLIC "-//W3C//DTD SVG 1.1//EN"
 "http://www.w3.org/Graphics/SVG/1.1/DTD/svg11.dtd">
<!-- Generated by graphviz version 2.40.1 (20161225.0304)
 -->
<!-- Title: mom_intrinsic_functions::invcosh Pages: 1 -->
<svg width="455pt" height="88pt"
 viewBox="0.00 0.00 455.00 88.00" xmlns="http://www.w3.org/2000/svg" xmlns:xlink="http://www.w3.org/1999/xlink">
<g id="graph0" class="graph" transform="scale(1 1) rotate(0) translate(4 84)">
<title>mom_intrinsic_functions::invcosh</title>
<polygon fill="#ffffff" stroke="transparent" points="-4,4 -4,-84 451,-84 451,4 -4,4"/>
<!-- Node1 -->
<g id="node1" class="node">
<title>Node1</title>
<g id="a_node1"><a xlink:title="Evaluate the inverse cosh, either using a math library or an equivalent expression.">
<polygon fill="#bfbfbf" stroke="#000000" points="325,-24.5 325,-54.5 447,-54.5 447,-24.5 325,-24.5"/>
<text text-anchor="start" x="333" y="-42.5" font-family="Helvetica,sans-Serif" font-size="10.00" fill="#000000">mom_intrinsic_functions</text>
<text text-anchor="middle" x="386" y="-31.5" font-family="Helvetica,sans-Serif" font-size="10.00" fill="#000000">::invcosh</text>
</a>
</g>
</g>
<!-- Node2 -->
<g id="node2" class="node">
<title>Node2</title>
<g id="a_node2"><a xlink:href="namespacemom__bkgnd__mixing.html#a1f8ad91305db7b774f5f43b34cd18900" target="_top" xlink:title="Calculates the vertical background diffusivities/viscosities.">
<polygon fill="#ffffff" stroke="#000000" points="140,-49.5 140,-79.5 289,-79.5 289,-49.5 140,-49.5"/>
<text text-anchor="start" x="148" y="-67.5" font-family="Helvetica,sans-Serif" font-size="10.00" fill="#000000">mom_bkgnd_mixing::calculate</text>
<text text-anchor="middle" x="214.5" y="-56.5" font-family="Helvetica,sans-Serif" font-size="10.00" fill="#000000">_bkgnd_mixing</text>
</a>
</g>
</g>
<!-- Node1&#45;&gt;Node2 -->
<g id="edge1" class="edge">
<title>Node1&#45;&gt;Node2</title>
<path fill="none" stroke="#191970" d="M314.5148,-49.9206C306.1789,-51.1357 297.6579,-52.3779 289.279,-53.5993"/>
<polygon fill="#191970" stroke="#191970" points="315.1785,-53.3609 324.569,-48.455 314.1687,-46.4341 315.1785,-53.3609"/>
</g>
<!-- Node3 -->
<g id="node3" class="node">
<title>Node3</title>
<g id="a_node3"><a xlink:href="namespacemom__bkgnd__mixing.html#ac43e811804d24aa3a648bf8ebb499887" target="_top" xlink:title="Get surface vertical background diffusivities/viscosities.">
<polygon fill="#ffffff" stroke="#000000" points="153,-.5 153,-30.5 276,-30.5 276,-.5 153,-.5"/>
<text text-anchor="start" x="161" y="-18.5" font-family="Helvetica,sans-Serif" font-size="10.00" fill="#000000">mom_bkgnd_mixing::sfc</text>
<text text-anchor="middle" x="214.5" y="-7.5" font-family="Helvetica,sans-Serif" font-size="10.00" fill="#000000">_bkgnd_mixing</text>
</a>
</g>
</g>
<!-- Node1&#45;&gt;Node3 -->
<g id="edge2" class="edge">
<title>Node1&#45;&gt;Node3</title>
<path fill="none" stroke="#191970" d="M314.457,-29.4882C301.7051,-27.7036 288.5221,-25.8588 276.0785,-24.1174"/>
<polygon fill="#191970" stroke="#191970" points="314.1804,-32.9835 324.569,-30.9032 315.1506,-26.051 314.1804,-32.9835"/>
</g>
<!-- Node4 -->
<g id="node4" class="node">
<title>Node4</title>
<g id="a_node4"><a xlink:href="namespacemom__set__diffusivity.html#a7c293162d6c8efb882c8b04b4ea5241d" target="_top" xlink:title="Sets the interior vertical diffusion of scalars due to the following processes:">
<polygon fill="#ffffff" stroke="#000000" points="0,-.5 0,-30.5 104,-30.5 104,-.5 0,-.5"/>
<text text-anchor="start" x="8" y="-18.5" font-family="Helvetica,sans-Serif" font-size="10.00" fill="#000000">mom_set_diffusivity</text>
<text text-anchor="middle" x="52" y="-7.5" font-family="Helvetica,sans-Serif" font-size="10.00" fill="#000000">::set_diffusivity</text>
</a>
</g>
</g>
<!-- Node3&#45;&gt;Node4 -->
<g id="edge3" class="edge">
<title>Node3&#45;&gt;Node4</title>
<path fill="none" stroke="#191970" d="M142.3829,-15.5C129.5266,-15.5 116.3613,-15.5 104.1967,-15.5"/>
<polygon fill="#191970" stroke="#191970" points="142.6022,-19.0001 152.6022,-15.5 142.6021,-12.0001 142.6022,-19.0001"/>
</g>
</g>
</svg>
