<?xml version="1.0" encoding="UTF-8" standalone="no"?>
<!DOCTYPE svg PUBLIC "-//W3C//DTD SVG 1.1//EN"
 "http://www.w3.org/Graphics/SVG/1.1/DTD/svg11.dtd">
<!-- Generated by graphviz version 2.40.1 (20161225.0304)
 -->
<!-- Title: mom_ale::check_grid Pages: 1 -->
<!--zoomable 214 -->
<svg id="main" version="1.1" xmlns="http://www.w3.org/2000/svg" xmlns:xlink="http://www.w3.org/1999/xlink" xml:space="preserve" onload="init(evt)">
<style type="text/css"><![CDATA[
.edge:hover path { stroke: red; }
.edge:hover polygon { stroke: red; fill: red; }
]]></style>
<script type="text/javascript"><![CDATA[
var edges = document.getElementsByTagName('g');
if (edges && edges.length) {
  for (var i=0;i<edges.length;i++) {
    if (edges[i].id.substr(0,4)=='edge') {
      edges[i].setAttribute('class','edge');
    }
  }
}
]]></script>
        <defs>
                <circle id="rim" cx="0" cy="0" r="7"/>
                <circle id="rim2" cx="0" cy="0" r="3.5"/>
                <g id="zoomPlus">
                        <use xlink:href="#rim" fill="#404040">
                                <set attributeName="fill" to="#808080" begin="zoomplus.mouseover" end="zoomplus.mouseout"/>
                        </use>
                        <path d="M-4,0h8M0,-4v8" fill="none" stroke="white" stroke-width="1.5" pointer-events="none"/>
                </g>
                <g id="zoomMin">
                        <use xlink:href="#rim" fill="#404040">
                                <set attributeName="fill" to="#808080" begin="zoomminus.mouseover" end="zoomminus.mouseout"/>
                        </use>
                        <path d="M-4,0h8" fill="none" stroke="white" stroke-width="1.5" pointer-events="none"/>
                </g>
                <g id="dirArrow">
                        <path fill="none" stroke="white" stroke-width="1.5" d="M0,-3.0v7 M-2.5,-0.5L0,-3.0L2.5,-0.5"/>
                </g>
               <g id="resetDef">
                       <use xlink:href="#rim2" fill="#404040">
                               <set attributeName="fill" to="#808080" begin="reset.mouseover" end="reset.mouseout"/>
                       </use>
               </g>
        </defs>

<script type="text/javascript">
var viewWidth = 623;
var viewHeight = 214;
var sectionId = 'dynsection-21';
</script>
<script xlink:href="svgpan.js"/>
<svg id="graph" class="graph">
<g id="viewport">
<title>mom_ale::check_grid</title>
<polygon fill="#ffffff" stroke="transparent" points="-4,4 -4,-209.5 619,-209.5 619,4 -4,4"/>
<!-- Node1 -->
<g id="node1" class="node">
<title>Node1</title>
<g id="a_node1"><a xlink:title="Check grid for negative thicknesses.">
<polygon fill="#bfbfbf" stroke="#000000" points="505,-126 505,-145 615,-145 615,-126 505,-126"/>
<text text-anchor="middle" x="560" y="-133" font-family="Helvetica,sans-Serif" font-size="10.00" fill="#000000">mom_ale::check_grid</text>
</a>
</g>
</g>
<!-- Node2 -->
<g id="node2" class="node">
<title>Node2</title>
<g id="a_node2"><a xlink:href="namespacemom__ale.html#ac56eac14cd9b8909082c1d4fe4e98152" target="_top" xlink:title="Takes care of (1) building a new grid and (2) remapping all variables between the old grid and the ne...">
<polygon fill="#ffffff" stroke="#000000" points="352,-186 352,-205 453,-205 453,-186 352,-186"/>
<text text-anchor="middle" x="402.5" y="-193" font-family="Helvetica,sans-Serif" font-size="10.00" fill="#000000">mom_ale::ale_main</text>
</a>
</g>
</g>
<!-- Node1&#45;&gt;Node2 -->
<g id="edge1" class="edge">
<title>Node1&#45;&gt;Node2</title>
<path fill="none" stroke="#191970" d="M531.5996,-149.5791C513.8692,-158.0451 490.419,-168.6619 469,-176.5 459.5283,-179.9661 449.1126,-183.2032 439.3922,-185.9884"/>
<polygon fill="#191970" stroke="#191970" points="533.3304,-152.63 540.8121,-145.1283 530.2853,-146.327 533.3304,-152.63"/>
</g>
<!-- Node3 -->
<g id="node3" class="node">
<title>Node3</title>
<g id="a_node3"><a xlink:href="namespacemom__ale.html#a666f48c8fa163fe717e60bd6ed749a75" target="_top" xlink:title="Takes care of (1) building a new grid and (2) remapping all variables between the old grid and the ne...">
<polygon fill="#ffffff" stroke="#000000" points="336,-148 336,-167 469,-167 469,-148 336,-148"/>
<text text-anchor="middle" x="402.5" y="-155" font-family="Helvetica,sans-Serif" font-size="10.00" fill="#000000">mom_ale::ale_main_offline</text>
</a>
</g>
</g>
<!-- Node1&#45;&gt;Node3 -->
<g id="edge2" class="edge">
<title>Node1&#45;&gt;Node3</title>
<path fill="none" stroke="#191970" d="M494.7537,-144.6138C486.3151,-145.7925 477.6632,-147.001 469.2014,-148.183"/>
<polygon fill="#191970" stroke="#191970" points="495.4945,-148.0444 504.9141,-143.1945 494.5261,-141.1117 495.4945,-148.0444"/>
</g>
<!-- Node5 -->
<g id="node5" class="node">
<title>Node5</title>
<g id="a_node5"><a xlink:href="namespacemom__ale.html#ae95451e2fbd4805eec01d00bebb268b4" target="_top" xlink:title="Regrid/remap stored fields used for offline tracer integrations. These input fields are assumed to ha...">
<polygon fill="#ffffff" stroke="#000000" points="349,-98.5 349,-128.5 456,-128.5 456,-98.5 349,-98.5"/>
<text text-anchor="start" x="357" y="-116.5" font-family="Helvetica,sans-Serif" font-size="10.00" fill="#000000">mom_ale::ale_offline</text>
<text text-anchor="middle" x="402.5" y="-105.5" font-family="Helvetica,sans-Serif" font-size="10.00" fill="#000000">_inputs</text>
</a>
</g>
</g>
<!-- Node1&#45;&gt;Node5 -->
<g id="edge4" class="edge">
<title>Node1&#45;&gt;Node5</title>
<path fill="none" stroke="#191970" d="M494.7623,-126.3874C481.9384,-124.5962 468.6216,-122.736 456.2277,-121.0048"/>
<polygon fill="#191970" stroke="#191970" points="494.5261,-129.8883 504.9141,-127.8055 495.4945,-122.9556 494.5261,-129.8883"/>
</g>
<!-- Node7 -->
<g id="node7" class="node">
<title>Node7</title>
<g id="a_node7"><a xlink:href="namespacemom__ale.html#aa7a1311028c2cd514b4b5224c5c7fe17" target="_top" xlink:title="Remaps all tracers from h onto h_target. This is intended to be called when tracers are done offline....">
<polygon fill="#ffffff" stroke="#000000" points="349,-49.5 349,-79.5 456,-79.5 456,-49.5 349,-49.5"/>
<text text-anchor="start" x="357" y="-67.5" font-family="Helvetica,sans-Serif" font-size="10.00" fill="#000000">mom_ale::ale_offline</text>
<text text-anchor="middle" x="402.5" y="-56.5" font-family="Helvetica,sans-Serif" font-size="10.00" fill="#000000">_tracer_final</text>
</a>
</g>
</g>
<!-- Node1&#45;&gt;Node7 -->
<g id="edge6" class="edge">
<title>Node1&#45;&gt;Node7</title>
<path fill="none" stroke="#191970" d="M533.2286,-121.0021C515.2922,-111.5297 491.0178,-99.1696 469,-89.5 461.2079,-86.0779 452.7851,-82.6843 444.6378,-79.5526"/>
<polygon fill="#191970" stroke="#191970" points="532.0149,-124.3211 542.4866,-125.9321 535.3051,-118.1425 532.0149,-124.3211"/>
</g>
<!-- Node4 -->
<g id="node4" class="node">
<title>Node4</title>
<g id="a_node4"><a xlink:href="namespacemom__offline__main.html#ae85546d26ceb447742abe3c528cad2d7" target="_top" xlink:title="3D advection is done by doing flux&#45;limited nonlinear horizontal advection interspersed with an ALE re...">
<polygon fill="#ffffff" stroke="#000000" points="170.5,-144.5 170.5,-174.5 298.5,-174.5 298.5,-144.5 170.5,-144.5"/>
<text text-anchor="start" x="178.5" y="-162.5" font-family="Helvetica,sans-Serif" font-size="10.00" fill="#000000">mom_offline_main::offline</text>
<text text-anchor="middle" x="234.5" y="-151.5" font-family="Helvetica,sans-Serif" font-size="10.00" fill="#000000">_advection_ale</text>
</a>
</g>
</g>
<!-- Node3&#45;&gt;Node4 -->
<g id="edge3" class="edge">
<title>Node3&#45;&gt;Node4</title>
<path fill="none" stroke="#191970" d="M325.5459,-158.4161C316.5634,-158.5231 307.4728,-158.6313 298.6887,-158.7358"/>
<polygon fill="#191970" stroke="#191970" points="325.6616,-161.9151 335.6192,-158.2962 325.5782,-154.9156 325.6616,-161.9151"/>
</g>
<!-- Node6 -->
<g id="node6" class="node">
<title>Node6</title>
<g id="a_node6"><a xlink:href="namespacemom__offline__main.html#a2e59b996b88713928c04f72d57c5a531" target="_top" xlink:title="Update fields used in this round of offline transport. First fields are updated from files or from ar...">
<polygon fill="#ffffff" stroke="#000000" points="169,-95.5 169,-125.5 300,-125.5 300,-95.5 169,-95.5"/>
<text text-anchor="start" x="177" y="-113.5" font-family="Helvetica,sans-Serif" font-size="10.00" fill="#000000">mom_offline_main::update</text>
<text text-anchor="middle" x="234.5" y="-102.5" font-family="Helvetica,sans-Serif" font-size="10.00" fill="#000000">_offline_fields</text>
</a>
</g>
</g>
<!-- Node5&#45;&gt;Node6 -->
<g id="edge5" class="edge">
<title>Node5&#45;&gt;Node6</title>
<path fill="none" stroke="#191970" d="M338.5345,-112.3578C326.008,-112.1341 312.8503,-111.8991 300.2662,-111.6744"/>
<polygon fill="#191970" stroke="#191970" points="338.8209,-115.8633 348.8818,-112.5425 338.946,-108.8645 338.8209,-115.8633"/>
</g>
<!-- Node8 -->
<g id="node8" class="node">
<title>Node8</title>
<g id="a_node8"><a xlink:href="namespacemom.html#ade4f7557fcda73ffc12284d3cecf4182" target="_top" xlink:title="step_offline is the main driver for running tracers offline in MOM6. This has been primarily develope...">
<polygon fill="#ffffff" stroke="#000000" points="187,-55 187,-74 282,-74 282,-55 187,-55"/>
<text text-anchor="middle" x="234.5" y="-62" font-family="Helvetica,sans-Serif" font-size="10.00" fill="#000000">mom::step_offline</text>
</a>
</g>
</g>
<!-- Node7&#45;&gt;Node8 -->
<g id="edge7" class="edge">
<title>Node7&#45;&gt;Node8</title>
<path fill="none" stroke="#191970" d="M338.6465,-64.5C319.9138,-64.5 299.7605,-64.5 282.2199,-64.5"/>
<polygon fill="#191970" stroke="#191970" points="338.8819,-68.0001 348.8818,-64.5 338.8818,-61.0001 338.8819,-68.0001"/>
</g>
<!-- Node9 -->
<g id="node9" class="node">
<title>Node9</title>
<g id="a_node9"><a xlink:href="MOM__driver_8F90.html#a08fffeb2d8e8acbf9ed4609be6d258c6" target="_top" xlink:title=" ">
<polygon fill="#ffffff" stroke="#000000" points="34,-99 34,-118 99,-118 99,-99 34,-99"/>
<text text-anchor="middle" x="66.5" y="-106" font-family="Helvetica,sans-Serif" font-size="10.00" fill="#000000">mom_main</text>
</a>
</g>
</g>
<!-- Node8&#45;&gt;Node9 -->
<g id="edge8" class="edge">
<title>Node8&#45;&gt;Node9</title>
<path fill="none" stroke="#191970" d="M188.0035,-76.6776C159.7852,-84.0682 124.4617,-93.3196 99.1864,-99.9393"/>
<polygon fill="#191970" stroke="#191970" points="189.2596,-79.9668 198.0465,-74.0473 187.486,-73.1952 189.2596,-79.9668"/>
</g>
<!-- Node10 -->
<g id="node10" class="node">
<title>Node10</title>
<g id="a_node10"><a xlink:href="namespacemom__ocean__model__mct.html#a422ba42ca07c0bf28ec5113aba4f1e96" target="_top" xlink:title="update_ocean_model uses the forcing in Ice_ocean_boundary to advance the ocean model&#39;s state from the...">
<polygon fill="#ffffff" stroke="#000000" points="5,-49.5 5,-79.5 128,-79.5 128,-49.5 5,-49.5"/>
<text text-anchor="start" x="13" y="-67.5" font-family="Helvetica,sans-Serif" font-size="10.00" fill="#000000">mom_ocean_model_mct</text>
<text text-anchor="middle" x="66.5" y="-56.5" font-family="Helvetica,sans-Serif" font-size="10.00" fill="#000000">::update_ocean_model</text>
</a>
</g>
</g>
<!-- Node8&#45;&gt;Node10 -->
<g id="edge9" class="edge">
<title>Node8&#45;&gt;Node10</title>
<path fill="none" stroke="#191970" d="M176.7286,-64.5C161.0547,-64.5 144.0266,-64.5 128.1477,-64.5"/>
<polygon fill="#191970" stroke="#191970" points="176.8074,-68.0001 186.8073,-64.5 176.8073,-61.0001 176.8074,-68.0001"/>
</g>
<!-- Node11 -->
<g id="node11" class="node">
<title>Node11</title>
<g id="a_node11"><a xlink:href="namespacemom__ocean__model__nuopc.html#a02a87b4944febcc6828c55e8e4375e62" target="_top" xlink:title="update_ocean_model uses the forcing in Ice_ocean_boundary to advance the ocean model&#39;s state from the...">
<polygon fill="#ffffff" stroke="#000000" points="0,-.5 0,-30.5 133,-30.5 133,-.5 0,-.5"/>
<text text-anchor="start" x="8" y="-18.5" font-family="Helvetica,sans-Serif" font-size="10.00" fill="#000000">mom_ocean_model_nuopc</text>
<text text-anchor="middle" x="66.5" y="-7.5" font-family="Helvetica,sans-Serif" font-size="10.00" fill="#000000">::update_ocean_model</text>
</a>
</g>
</g>
<!-- Node8&#45;&gt;Node11 -->
<g id="edge10" class="edge">
<title>Node8&#45;&gt;Node11</title>
<path fill="none" stroke="#191970" d="M192.1033,-52.1343C169.6092,-45.5735 141.7905,-37.4597 118.0553,-30.537"/>
<polygon fill="#191970" stroke="#191970" points="191.1291,-55.4959 201.7091,-54.936 193.0891,-48.7759 191.1291,-55.4959"/>
</g>
</g>
</svg>
        <g id="navigator" transform="translate(0 0)" fill="#404254">
                <rect fill="#f2f5e9" fill-opacity="0.5" stroke="#606060" stroke-width=".5" x="0" y="0" width="60" height="60"/>
                <use id="zoomplus" xlink:href="#zoomPlus" x="17" y="9" onmousedown="handleZoom(evt,'in')"/>
                <use id="zoomminus" xlink:href="#zoomMin" x="42" y="9" onmousedown="handleZoom(evt,'out')"/>
                <use id="reset" xlink:href="#resetDef" x="30" y="36" onmousedown="handleReset()"/>
                <g id="arrowUp" xlink:href="#dirArrow" transform="translate(30 24)" onmousedown="handlePan(0,-1)">
                  <use xlink:href="#rim" fill="#404040">
                        <set attributeName="fill" to="#808080" begin="arrowUp.mouseover" end="arrowUp.mouseout"/>
                  </use>
                  <path fill="none" stroke="white" stroke-width="1.5" d="M0,-3.0v7 M-2.5,-0.5L0,-3.0L2.5,-0.5"/>
                </g>
                <g id="arrowRight" xlink:href="#dirArrow" transform="rotate(90) translate(36 -43)" onmousedown="handlePan(1,0)">
                  <use xlink:href="#rim" fill="#404040">
                        <set attributeName="fill" to="#808080" begin="arrowRight.mouseover" end="arrowRight.mouseout"/>
                  </use>
                  <path fill="none" stroke="white" stroke-width="1.5" d="M0,-3.0v7 M-2.5,-0.5L0,-3.0L2.5,-0.5"/>
                </g>
                <g id="arrowDown" xlink:href="#dirArrow" transform="rotate(180) translate(-30 -48)" onmousedown="handlePan(0,1)">
                  <use xlink:href="#rim" fill="#404040">
                        <set attributeName="fill" to="#808080" begin="arrowDown.mouseover" end="arrowDown.mouseout"/>
                  </use>
                  <path fill="none" stroke="white" stroke-width="1.5" d="M0,-3.0v7 M-2.5,-0.5L0,-3.0L2.5,-0.5"/>
                </g>
                <g id="arrowLeft" xlink:href="#dirArrow" transform="rotate(270) translate(-36 17)" onmousedown="handlePan(-1,0)">
                  <use xlink:href="#rim" fill="#404040">
                        <set attributeName="fill" to="#808080" begin="arrowLeft.mouseover" end="arrowLeft.mouseout"/>
                  </use>
                  <path fill="none" stroke="white" stroke-width="1.5" d="M0,-3.0v7 M-2.5,-0.5L0,-3.0L2.5,-0.5"/>
                </g>
        </g>
        <svg viewBox="0 0 15 15" width="100%" height="30px" preserveAspectRatio="xMaxYMin meet">
         <g id="arrow_out" transform="scale(0.3 0.3)">
          <a xlink:href="namespacemom__ale_a9b511a4b61f92b735cef1129dff14bcb_icgraph_org.svg" target="_base">
           <rect id="button" ry="5" rx="5" y="6" x="6" height="38" width="38"
                fill="#f2f5e9" fill-opacity="0.5" stroke="#606060" stroke-width="1.0"/>
           <path id="arrow"
             d="M 11.500037,31.436501 C 11.940474,20.09759 22.043105,11.32322 32.158766,21.979434 L 37.068811,17.246167 C 37.068811,17.246167 37.088388,32 37.088388,32 L 22.160133,31.978069 C 22.160133,31.978069 26.997745,27.140456 26.997745,27.140456 C 18.528582,18.264221 13.291696,25.230495 11.500037,31.436501 z"
             style="fill:#404040;"/>
          </a>
         </g>
        </svg>
</svg>
