<?xml version="1.0" encoding="UTF-8" standalone="no"?>
<!DOCTYPE svg PUBLIC "-//W3C//DTD SVG 1.1//EN"
 "http://www.w3.org/Graphics/SVG/1.1/DTD/svg11.dtd">
<!-- Generated by graphviz version 2.40.1 (20161225.0304)
 -->
<!-- Title: mom_wave_interface::update_stokes_drift Pages: 1 -->
<!--zoomable 186 -->
<svg id="main" version="1.1" xmlns="http://www.w3.org/2000/svg" xmlns:xlink="http://www.w3.org/1999/xlink" xml:space="preserve" onload="init(evt)">
<style type="text/css"><![CDATA[
.edge:hover path { stroke: red; }
.edge:hover polygon { stroke: red; fill: red; }
]]></style>
<script type="text/javascript"><![CDATA[
var edges = document.getElementsByTagName('g');
if (edges && edges.length) {
  for (var i=0;i<edges.length;i++) {
    if (edges[i].id.substr(0,4)=='edge') {
      edges[i].setAttribute('class','edge');
    }
  }
}
]]></script>
        <defs>
                <circle id="rim" cx="0" cy="0" r="7"/>
                <circle id="rim2" cx="0" cy="0" r="3.5"/>
                <g id="zoomPlus">
                        <use xlink:href="#rim" fill="#404040">
                                <set attributeName="fill" to="#808080" begin="zoomplus.mouseover" end="zoomplus.mouseout"/>
                        </use>
                        <path d="M-4,0h8M0,-4v8" fill="none" stroke="white" stroke-width="1.5" pointer-events="none"/>
                </g>
                <g id="zoomMin">
                        <use xlink:href="#rim" fill="#404040">
                                <set attributeName="fill" to="#808080" begin="zoomminus.mouseover" end="zoomminus.mouseout"/>
                        </use>
                        <path d="M-4,0h8" fill="none" stroke="white" stroke-width="1.5" pointer-events="none"/>
                </g>
                <g id="dirArrow">
                        <path fill="none" stroke="white" stroke-width="1.5" d="M0,-3.0v7 M-2.5,-0.5L0,-3.0L2.5,-0.5"/>
                </g>
               <g id="resetDef">
                       <use xlink:href="#rim2" fill="#404040">
                               <set attributeName="fill" to="#808080" begin="reset.mouseover" end="reset.mouseout"/>
                       </use>
               </g>
        </defs>

<script type="text/javascript">
var viewWidth = 589;
var viewHeight = 186;
var sectionId = 'dynsection-12';
</script>
<script xlink:href="svgpan.js"/>
<svg id="graph" class="graph">
<g id="viewport">
<title>mom_wave_interface::update_stokes_drift</title>
<polygon fill="#ffffff" stroke="transparent" points="-4,4 -4,-182 585,-182 585,4 -4,4"/>
<!-- Node1 -->
<g id="node1" class="node">
<title>Node1</title>
<g id="a_node1"><a xlink:title="Constructs the Stokes Drift profile on the model grid based on desired coupling options.">
<polygon fill="#bfbfbf" stroke="#000000" points="0,-97.5 0,-127.5 110,-127.5 110,-97.5 0,-97.5"/>
<text text-anchor="start" x="8" y="-115.5" font-family="Helvetica,sans-Serif" font-size="10.00" fill="#000000">mom_wave_interface</text>
<text text-anchor="middle" x="55" y="-104.5" font-family="Helvetica,sans-Serif" font-size="10.00" fill="#000000">::update_stokes_drift</text>
</a>
</g>
</g>
<!-- Node2 -->
<g id="node2" class="node">
<title>Node2</title>
<g id="a_node2"><a xlink:href="namespacemom__wave__interface.html#af4594bd7d4bc3eed353357d436a551c4" target="_top" xlink:title="Compute the Stokes drift at a given depth.">
<polygon fill="#ffffff" stroke="#000000" points="149,-122.5 149,-152.5 259,-152.5 259,-122.5 149,-122.5"/>
<text text-anchor="start" x="157" y="-140.5" font-family="Helvetica,sans-Serif" font-size="10.00" fill="#000000">mom_wave_interface</text>
<text text-anchor="middle" x="204" y="-129.5" font-family="Helvetica,sans-Serif" font-size="10.00" fill="#000000">::dhh85_mid</text>
</a>
</g>
</g>
<!-- Node1&#45;&gt;Node2 -->
<g id="edge1" class="edge">
<title>Node1&#45;&gt;Node2</title>
<path fill="none" stroke="#191970" d="M110.0588,-121.738C119.4109,-123.3072 129.2024,-124.9501 138.7858,-126.558"/>
<polygon fill="#191970" stroke="#191970" points="138.2288,-130.0134 148.6701,-128.2165 139.3871,-123.1099 138.2288,-130.0134"/>
</g>
<!-- Node3 -->
<g id="node3" class="node">
<title>Node3</title>
<g id="a_node3"><a xlink:href="namespacemom__wave__interface.html#aa07c73f561840851981d6a013423dd6e" target="_top" xlink:title="Interface to get Langmuir number based on options stored in wave structure.">
<polygon fill="#ffffff" stroke="#000000" points="146,-73.5 146,-103.5 262,-103.5 262,-73.5 146,-73.5"/>
<text text-anchor="start" x="154" y="-91.5" font-family="Helvetica,sans-Serif" font-size="10.00" fill="#000000">mom_wave_interface</text>
<text text-anchor="middle" x="204" y="-80.5" font-family="Helvetica,sans-Serif" font-size="10.00" fill="#000000">::get_langmuir_number</text>
</a>
</g>
</g>
<!-- Node1&#45;&gt;Node3 -->
<g id="edge2" class="edge">
<title>Node1&#45;&gt;Node3</title>
<path fill="none" stroke="#191970" d="M110.0588,-103.6315C118.4601,-102.2782 127.2161,-100.8679 135.8572,-99.476"/>
<polygon fill="#191970" stroke="#191970" points="136.6041,-102.9009 145.9202,-97.8551 135.4908,-95.99 136.6041,-102.9009"/>
</g>
<!-- Node4 -->
<g id="node4" class="node">
<title>Node4</title>
<g id="a_node4"><a xlink:href="namespacemom__wave__interface.html#a5ebd32de10bed6d66c0a95a4a15cc81a" target="_top" xlink:title="Get SL averaged Stokes drift from the banded Spectrum method.">
<polygon fill="#ffffff" stroke="#000000" points="307.5,-147.5 307.5,-177.5 422.5,-177.5 422.5,-147.5 307.5,-147.5"/>
<text text-anchor="start" x="315.5" y="-165.5" font-family="Helvetica,sans-Serif" font-size="10.00" fill="#000000">mom_wave_interface</text>
<text text-anchor="middle" x="365" y="-154.5" font-family="Helvetica,sans-Serif" font-size="10.00" fill="#000000">::get_sl_average_band</text>
</a>
</g>
</g>
<!-- Node3&#45;&gt;Node4 -->
<g id="edge3" class="edge">
<title>Node3&#45;&gt;Node4</title>
<path fill="none" stroke="#191970" d="M241.9676,-103.5651C248.7538,-106.6225 255.6734,-109.9862 262,-113.5 279.0294,-122.9581 280.6812,-129.5829 298,-138.5 301.3264,-140.2127 304.8034,-141.856 308.3486,-143.4224"/>
<polygon fill="#191970" stroke="#191970" points="307.2599,-146.7606 317.8364,-147.3839 309.9571,-140.3011 307.2599,-146.7606"/>
</g>
<!-- Node5 -->
<g id="node5" class="node">
<title>Node5</title>
<g id="a_node5"><a xlink:href="namespacemom__wave__interface.html#ae631a776ca48a5b8be572bed00e6f5c1" target="_top" xlink:title="Get SL Averaged Stokes drift from a Stokes drift Profile.">
<polygon fill="#ffffff" stroke="#000000" points="310,-98.5 310,-128.5 420,-128.5 420,-98.5 310,-98.5"/>
<text text-anchor="start" x="318" y="-116.5" font-family="Helvetica,sans-Serif" font-size="10.00" fill="#000000">mom_wave_interface</text>
<text text-anchor="middle" x="365" y="-105.5" font-family="Helvetica,sans-Serif" font-size="10.00" fill="#000000">::get_sl_average_prof</text>
</a>
</g>
</g>
<!-- Node3&#45;&gt;Node5 -->
<g id="edge4" class="edge">
<title>Node3&#45;&gt;Node5</title>
<path fill="none" stroke="#191970" d="M262.1247,-97.5256C274.4201,-99.4348 287.4721,-101.4615 300.0031,-103.4073"/>
<polygon fill="#191970" stroke="#191970" points="299.498,-106.8707 309.9167,-104.9467 300.5722,-99.9536 299.498,-106.8707"/>
</g>
<!-- Node6 -->
<g id="node6" class="node">
<title>Node6</title>
<g id="a_node6"><a xlink:href="namespacemom__wave__interface.html#a42ca9104192ff12c44c28b705d137eb9" target="_top" xlink:title="Get SL averaged Stokes drift from Li/FK 17 method.">
<polygon fill="#ffffff" stroke="#000000" points="298,-49.5 298,-79.5 432,-79.5 432,-49.5 298,-49.5"/>
<text text-anchor="start" x="306" y="-67.5" font-family="Helvetica,sans-Serif" font-size="10.00" fill="#000000">mom_wave_interface</text>
<text text-anchor="middle" x="365" y="-56.5" font-family="Helvetica,sans-Serif" font-size="10.00" fill="#000000">::get_stokessl_lifoxkemper</text>
</a>
</g>
</g>
<!-- Node3&#45;&gt;Node6 -->
<g id="edge5" class="edge">
<title>Node3&#45;&gt;Node6</title>
<path fill="none" stroke="#191970" d="M262.1247,-79.8354C270.476,-78.5905 279.1763,-77.2936 287.8253,-76.0043"/>
<polygon fill="#191970" stroke="#191970" points="288.5564,-79.4341 297.931,-74.4979 287.5242,-72.5106 288.5564,-79.4341"/>
</g>
<!-- Node8 -->
<g id="node8" class="node">
<title>Node8</title>
<g id="a_node8"><a xlink:href="namespacemom__error__handler.html#a460cfb79a06c29fc249952c2a3710d67" target="_top" xlink:title="This provides a convenient interface for writing an mpp_error message with run&#45;time filter based on a...">
<polygon fill="#ffffff" stroke="#000000" points="312,-.5 312,-30.5 418,-30.5 418,-.5 312,-.5"/>
<text text-anchor="start" x="320" y="-18.5" font-family="Helvetica,sans-Serif" font-size="10.00" fill="#000000">mom_error_handler::</text>
<text text-anchor="middle" x="365" y="-7.5" font-family="Helvetica,sans-Serif" font-size="10.00" fill="#000000">mom_error</text>
</a>
</g>
</g>
<!-- Node3&#45;&gt;Node8 -->
<g id="edge7" class="edge">
<title>Node3&#45;&gt;Node8</title>
<path fill="none" stroke="#191970" d="M231.5643,-73.3647C250.0873,-63.4587 275.191,-50.5393 298,-40.5 302.7779,-38.397 307.7938,-36.3104 312.8405,-34.2916"/>
<polygon fill="#191970" stroke="#191970" points="314.4886,-37.4054 322.5293,-30.5062 311.9412,-30.8853 314.4886,-37.4054"/>
</g>
<!-- Node7 -->
<g id="node7" class="node">
<title>Node7</title>
<g id="a_node7"><a xlink:href="namespacemom__wave__interface.html#ae771d75c78a0370ad163edd5b1c19965" target="_top" xlink:title="Computes wind speed from ustar_air based on COARE 3.5 Cd relationship Probably doesn&#39;t belong in this...">
<polygon fill="#ffffff" stroke="#000000" points="468,-49.5 468,-79.5 581,-79.5 581,-49.5 468,-49.5"/>
<text text-anchor="start" x="476" y="-67.5" font-family="Helvetica,sans-Serif" font-size="10.00" fill="#000000">mom_wave_interface</text>
<text text-anchor="middle" x="524.5" y="-56.5" font-family="Helvetica,sans-Serif" font-size="10.00" fill="#000000">::ust_2_u10_coare3p5</text>
</a>
</g>
</g>
<!-- Node6&#45;&gt;Node7 -->
<g id="edge6" class="edge">
<title>Node6&#45;&gt;Node7</title>
<path fill="none" stroke="#191970" d="M432.1801,-64.5C440.6539,-64.5 449.3219,-64.5 457.7884,-64.5"/>
<polygon fill="#191970" stroke="#191970" points="457.9892,-68.0001 467.9892,-64.5 457.9891,-61.0001 457.9892,-68.0001"/>
</g>
<!-- Node9 -->
<g id="node9" class="node">
<title>Node9</title>
<g id="a_node9"><a xlink:href="namespacemom__error__handler.html#ad5f00a53059c72fe2332d1436c80ca71" target="_top" xlink:title="This returns .true. if the current PE is the root PE.">
<polygon fill="#ffffff" stroke="#000000" points="471.5,-.5 471.5,-30.5 577.5,-30.5 577.5,-.5 471.5,-.5"/>
<text text-anchor="start" x="479.5" y="-18.5" font-family="Helvetica,sans-Serif" font-size="10.00" fill="#000000">mom_error_handler::</text>
<text text-anchor="middle" x="524.5" y="-7.5" font-family="Helvetica,sans-Serif" font-size="10.00" fill="#000000">is_root_pe</text>
</a>
</g>
</g>
<!-- Node8&#45;&gt;Node9 -->
<g id="edge8" class="edge">
<title>Node8&#45;&gt;Node9</title>
<path fill="none" stroke="#191970" d="M418.1112,-15.5C431.8936,-15.5 446.8752,-15.5 461.1275,-15.5"/>
<polygon fill="#191970" stroke="#191970" points="461.349,-19.0001 471.349,-15.5 461.3489,-12.0001 461.349,-19.0001"/>
</g>
</g>
</svg>
        <g id="navigator" transform="translate(0 0)" fill="#404254">
                <rect fill="#f2f5e9" fill-opacity="0.5" stroke="#606060" stroke-width=".5" x="0" y="0" width="60" height="60"/>
                <use id="zoomplus" xlink:href="#zoomPlus" x="17" y="9" onmousedown="handleZoom(evt,'in')"/>
                <use id="zoomminus" xlink:href="#zoomMin" x="42" y="9" onmousedown="handleZoom(evt,'out')"/>
                <use id="reset" xlink:href="#resetDef" x="30" y="36" onmousedown="handleReset()"/>
                <g id="arrowUp" xlink:href="#dirArrow" transform="translate(30 24)" onmousedown="handlePan(0,-1)">
                  <use xlink:href="#rim" fill="#404040">
                        <set attributeName="fill" to="#808080" begin="arrowUp.mouseover" end="arrowUp.mouseout"/>
                  </use>
                  <path fill="none" stroke="white" stroke-width="1.5" d="M0,-3.0v7 M-2.5,-0.5L0,-3.0L2.5,-0.5"/>
                </g>
                <g id="arrowRight" xlink:href="#dirArrow" transform="rotate(90) translate(36 -43)" onmousedown="handlePan(1,0)">
                  <use xlink:href="#rim" fill="#404040">
                        <set attributeName="fill" to="#808080" begin="arrowRight.mouseover" end="arrowRight.mouseout"/>
                  </use>
                  <path fill="none" stroke="white" stroke-width="1.5" d="M0,-3.0v7 M-2.5,-0.5L0,-3.0L2.5,-0.5"/>
                </g>
                <g id="arrowDown" xlink:href="#dirArrow" transform="rotate(180) translate(-30 -48)" onmousedown="handlePan(0,1)">
                  <use xlink:href="#rim" fill="#404040">
                        <set attributeName="fill" to="#808080" begin="arrowDown.mouseover" end="arrowDown.mouseout"/>
                  </use>
                  <path fill="none" stroke="white" stroke-width="1.5" d="M0,-3.0v7 M-2.5,-0.5L0,-3.0L2.5,-0.5"/>
                </g>
                <g id="arrowLeft" xlink:href="#dirArrow" transform="rotate(270) translate(-36 17)" onmousedown="handlePan(-1,0)">
                  <use xlink:href="#rim" fill="#404040">
                        <set attributeName="fill" to="#808080" begin="arrowLeft.mouseover" end="arrowLeft.mouseout"/>
                  </use>
                  <path fill="none" stroke="white" stroke-width="1.5" d="M0,-3.0v7 M-2.5,-0.5L0,-3.0L2.5,-0.5"/>
                </g>
        </g>
        <svg viewBox="0 0 15 15" width="100%" height="30px" preserveAspectRatio="xMaxYMin meet">
         <g id="arrow_out" transform="scale(0.3 0.3)">
          <a xlink:href="namespacemom__wave__interface_a42b769030d04a1c087e168de36ce7285_cgraph_org.svg" target="_base">
           <rect id="button" ry="5" rx="5" y="6" x="6" height="38" width="38"
                fill="#f2f5e9" fill-opacity="0.5" stroke="#606060" stroke-width="1.0"/>
           <path id="arrow"
             d="M 11.500037,31.436501 C 11.940474,20.09759 22.043105,11.32322 32.158766,21.979434 L 37.068811,17.246167 C 37.068811,17.246167 37.088388,32 37.088388,32 L 22.160133,31.978069 C 22.160133,31.978069 26.997745,27.140456 26.997745,27.140456 C 18.528582,18.264221 13.291696,25.230495 11.500037,31.436501 z"
             style="fill:#404040;"/>
          </a>
         </g>
        </svg>
</svg>
