<?xml version="1.0" encoding="UTF-8" standalone="no"?>
<!DOCTYPE svg PUBLIC "-//W3C//DTD SVG 1.1//EN"
 "http://www.w3.org/Graphics/SVG/1.1/DTD/svg11.dtd">
<!-- Generated by graphviz version 2.40.1 (20161225.0304)
 -->
<!-- Title: mom_set_diffusivity::set_diffusivity_init Pages: 1 -->
<svg width="1207pt" height="394pt"
 viewBox="0.00 0.00 1207.00 394.02" xmlns="http://www.w3.org/2000/svg" xmlns:xlink="http://www.w3.org/1999/xlink">
<g id="graph0" class="graph" transform="scale(1 1) rotate(0) translate(4 390.017)">
<title>mom_set_diffusivity::set_diffusivity_init</title>
<polygon fill="#ffffff" stroke="transparent" points="-4,4 -4,-390.017 1203,-390.017 1203,4 -4,4"/>
<!-- Node1 -->
<g id="node1" class="node">
<title>Node1</title>
<g id="a_node1"><a xlink:title=" ">
<polygon fill="#bfbfbf" stroke="#000000" points="0,-282 0,-312 108,-312 108,-282 0,-282"/>
<text text-anchor="start" x="8" y="-300" font-family="Helvetica,sans-Serif" font-size="10.00" fill="#000000">mom_set_diffusivity</text>
<text text-anchor="middle" x="54" y="-289" font-family="Helvetica,sans-Serif" font-size="10.00" fill="#000000">::set_diffusivity_init</text>
</a>
</g>
</g>
<!-- Node2 -->
<g id="node2" class="node">
<title>Node2</title>
<g id="a_node2"><a xlink:href="namespacemom__kappa__shear.html#ad4d87b0928aea195213e682b493eb555" target="_top" xlink:title="This function indicates to other modules whether the Jackson et al shear mixing parameterization will...">
<polygon fill="#ffffff" stroke="#000000" points="144,-307 144,-337 285,-337 285,-307 144,-307"/>
<text text-anchor="start" x="152" y="-325" font-family="Helvetica,sans-Serif" font-size="10.00" fill="#000000">mom_kappa_shear::kappa</text>
<text text-anchor="middle" x="214.5" y="-314" font-family="Helvetica,sans-Serif" font-size="10.00" fill="#000000">_shear_at_vertex</text>
</a>
</g>
</g>
<!-- Node1&#45;&gt;Node2 -->
<g id="edge1" class="edge">
<title>Node1&#45;&gt;Node2</title>
<path fill="none" stroke="#191970" d="M108.338,-305.4639C116.5085,-306.7365 125.0806,-308.0717 133.6615,-309.4083"/>
<polygon fill="#191970" stroke="#191970" points="133.2959,-312.8935 143.7155,-310.9744 134.3733,-305.9769 133.2959,-312.8935"/>
</g>
<!-- Node3 -->
<g id="node3" class="node">
<title>Node3</title>
<g id="a_node3"><a xlink:href="namespacemom__diag__mediator.html#ada491446bf7216fe101e6b0f6ed551e1" target="_top" xlink:title="Returns the &quot;diag_mediator&quot; handle for a group (native, CMOR, z&#45;coord, ...) of diagnostics derived fr...">
<polygon fill="#ffffff" stroke="#000000" points="156,-258 156,-288 273,-288 273,-258 156,-258"/>
<text text-anchor="start" x="164" y="-276" font-family="Helvetica,sans-Serif" font-size="10.00" fill="#000000">mom_diag_mediator::</text>
<text text-anchor="middle" x="214.5" y="-265" font-family="Helvetica,sans-Serif" font-size="10.00" fill="#000000">register_diag_field</text>
</a>
</g>
</g>
<!-- Node1&#45;&gt;Node3 -->
<g id="edge2" class="edge">
<title>Node1&#45;&gt;Node3</title>
<path fill="none" stroke="#191970" d="M108.338,-288.8747C120.3935,-287.072 133.3229,-285.1386 145.8657,-283.2631"/>
<polygon fill="#191970" stroke="#191970" points="146.4453,-286.7154 155.8177,-281.7749 145.41,-279.7924 146.4453,-286.7154"/>
</g>
<!-- Node4 -->
<g id="node4" class="node">
<title>Node4</title>
<g id="a_node4"><a xlink:href="namespacemom__error__handler.html#a460cfb79a06c29fc249952c2a3710d67" target="_top" xlink:title="This provides a convenient interface for writing an mpp_error message with run&#45;time filter based on a...">
<polygon fill="#ffffff" stroke="#000000" points="933,-193 933,-223 1048,-223 1048,-193 933,-193"/>
<text text-anchor="start" x="941" y="-211" font-family="Helvetica,sans-Serif" font-size="10.00" fill="#000000">mom_error_handler::</text>
<text text-anchor="middle" x="990.5" y="-200" font-family="Helvetica,sans-Serif" font-size="10.00" fill="#000000">mom_error</text>
</a>
</g>
</g>
<!-- Node3&#45;&gt;Node4 -->
<g id="edge3" class="edge">
<title>Node3&#45;&gt;Node4</title>
<path fill="none" stroke="#191970" d="M257.4684,-288.0644C343.4745,-318.1906 528.9128,-383 532.5,-383 532.5,-383 532.5,-383 685.5,-383 780.7784,-383 816.9388,-399.6544 897,-348 939.9928,-320.2616 967.9079,-264.9957 981.2627,-232.8196"/>
<polygon fill="#191970" stroke="#191970" points="984.6268,-233.8331 985.0877,-223.2483 978.1266,-231.2354 984.6268,-233.8331"/>
</g>
<!-- Node6 -->
<g id="node6" class="node">
<title>Node6</title>
<g id="a_node6"><a xlink:href="namespacemom__diag__mediator.html#ae50b35cba800ac5fd8975929fd2b9f4a" target="_top" xlink:title="Returns True if either the native or CMOr version of the diagnostic were registered....">
<polygon fill="#ffffff" stroke="#000000" points="321,-143.5 321,-184.5 438,-184.5 438,-143.5 321,-143.5"/>
<text text-anchor="start" x="329" y="-172.5" font-family="Helvetica,sans-Serif" font-size="10.00" fill="#000000">mom_diag_mediator::</text>
<text text-anchor="start" x="329" y="-161.5" font-family="Helvetica,sans-Serif" font-size="10.00" fill="#000000">register_diag_field</text>
<text text-anchor="middle" x="379.5" y="-150.5" font-family="Helvetica,sans-Serif" font-size="10.00" fill="#000000">_expand_cmor</text>
</a>
</g>
</g>
<!-- Node3&#45;&gt;Node6 -->
<g id="edge5" class="edge">
<title>Node3&#45;&gt;Node6</title>
<path fill="none" stroke="#191970" d="M237.4425,-257.844C263.829,-240.413 307.62,-211.4844 339.6188,-190.3457"/>
<polygon fill="#191970" stroke="#191970" points="341.8926,-193.0385 348.3072,-184.6062 338.0342,-187.1978 341.8926,-193.0385"/>
</g>
<!-- Node5 -->
<g id="node5" class="node">
<title>Node5</title>
<g id="a_node5"><a xlink:href="namespacemom__error__handler.html#ad5f00a53059c72fe2332d1436c80ca71" target="_top" xlink:title="This returns .true. if the current PE is the root PE.">
<polygon fill="#ffffff" stroke="#000000" points="1084,-149 1084,-179 1199,-179 1199,-149 1084,-149"/>
<text text-anchor="start" x="1092" y="-167" font-family="Helvetica,sans-Serif" font-size="10.00" fill="#000000">mom_error_handler::</text>
<text text-anchor="middle" x="1141.5" y="-156" font-family="Helvetica,sans-Serif" font-size="10.00" fill="#000000">is_root_pe</text>
</a>
</g>
</g>
<!-- Node4&#45;&gt;Node5 -->
<g id="edge4" class="edge">
<title>Node4&#45;&gt;Node5</title>
<path fill="none" stroke="#191970" d="M1042.0433,-192.9808C1054.2454,-189.4252 1067.3788,-185.5982 1079.9746,-181.9279"/>
<polygon fill="#191970" stroke="#191970" points="1081.3113,-185.1841 1089.9328,-179.0262 1079.3529,-178.4636 1081.3113,-185.1841"/>
</g>
<!-- Node6&#45;&gt;Node5 -->
<g id="edge17" class="edge">
<title>Node6&#45;&gt;Node5</title>
<path fill="none" stroke="#191970" d="M438.0883,-150.4995C499.4165,-137.5655 598.6865,-120 685.5,-120 685.5,-120 685.5,-120 838.5,-120 920.0715,-120 1012.7253,-135.8105 1073.864,-148.4766"/>
<polygon fill="#191970" stroke="#191970" points="1073.2683,-151.9278 1083.7744,-150.5595 1074.7081,-145.0775 1073.2683,-151.9278"/>
</g>
<!-- Node7 -->
<g id="node7" class="node">
<title>Node7</title>
<g id="a_node7"><a xlink:href="namespacemom__diag__mediator.html#a8415b33a337b1fbc7535688eca85ab37" target="_top" xlink:title="Create a diagnostic type and attached to list.">
<polygon fill="#ffffff" stroke="#000000" points="474,-262 474,-292 591,-292 591,-262 474,-262"/>
<text text-anchor="start" x="482" y="-280" font-family="Helvetica,sans-Serif" font-size="10.00" fill="#000000">mom_diag_mediator::</text>
<text text-anchor="middle" x="532.5" y="-269" font-family="Helvetica,sans-Serif" font-size="10.00" fill="#000000">add_diag_to_list</text>
</a>
</g>
</g>
<!-- Node6&#45;&gt;Node7 -->
<g id="edge6" class="edge">
<title>Node6&#45;&gt;Node7</title>
<path fill="none" stroke="#191970" d="M407.5626,-184.7259C434.9261,-204.9356 476.3354,-235.5189 503.8858,-255.8666"/>
<polygon fill="#191970" stroke="#191970" points="501.8367,-258.7044 511.9601,-261.83 505.9954,-253.0736 501.8367,-258.7044"/>
</g>
<!-- Node12 -->
<g id="node12" class="node">
<title>Node12</title>
<g id="a_node12"><a xlink:href="namespacemom__diag__mediator.html#a14d405e0958e6e58797253c52c666cdb" target="_top" xlink:title="Adds the encoded &quot;cell_methods&quot; for a diagnostics as a diag% property This allows access to the cell_...">
<polygon fill="#ffffff" stroke="#000000" points="780,-193 780,-223 897,-223 897,-193 780,-193"/>
<text text-anchor="start" x="788" y="-211" font-family="Helvetica,sans-Serif" font-size="10.00" fill="#000000">mom_diag_mediator::</text>
<text text-anchor="middle" x="838.5" y="-200" font-family="Helvetica,sans-Serif" font-size="10.00" fill="#000000">add_xyz_method</text>
</a>
</g>
</g>
<!-- Node6&#45;&gt;Node12 -->
<g id="edge13" class="edge">
<title>Node6&#45;&gt;Node12</title>
<path fill="none" stroke="#191970" d="M438.1496,-173.2935C449.9991,-175.0006 462.384,-176.663 474,-178 576.8686,-189.8405 696.593,-198.7697 769.9532,-203.6918"/>
<polygon fill="#191970" stroke="#191970" points="769.7801,-207.1879 779.9904,-204.3596 770.2448,-200.2034 769.7801,-207.1879"/>
</g>
<!-- Node13 -->
<g id="node13" class="node">
<title>Node13</title>
<g id="a_node13"><a xlink:href="namespacemom__diag__mediator.html#ae0f04c145cb120fc2ab6cbfe9f166392" target="_top" xlink:title="Attaches &quot;cell_methods&quot; attribute to a variable based on defaults for axes_grp or optional arguments.">
<polygon fill="#ffffff" stroke="#000000" points="627,-149 627,-179 744,-179 744,-149 627,-149"/>
<text text-anchor="start" x="635" y="-167" font-family="Helvetica,sans-Serif" font-size="10.00" fill="#000000">mom_diag_mediator::</text>
<text text-anchor="middle" x="685.5" y="-156" font-family="Helvetica,sans-Serif" font-size="10.00" fill="#000000">attach_cell_methods</text>
</a>
</g>
</g>
<!-- Node6&#45;&gt;Node13 -->
<g id="edge15" class="edge">
<title>Node6&#45;&gt;Node13</title>
<path fill="none" stroke="#191970" d="M438.1378,-164C489.0854,-164 562.9353,-164 616.6726,-164"/>
<polygon fill="#191970" stroke="#191970" points="616.8004,-167.5001 626.8004,-164 616.8003,-160.5001 616.8004,-167.5001"/>
</g>
<!-- Node14 -->
<g id="node14" class="node">
<title>Node14</title>
<g id="a_node14"><a xlink:href="namespacemom__diag__mediator.html#a65fe8d329cf5dbfd08c98874a7a64407" target="_top" xlink:title="Log a diagnostic to the available diagnostics file.">
<polygon fill="#ffffff" stroke="#000000" points="474,-61 474,-91 591,-91 591,-61 474,-61"/>
<text text-anchor="start" x="482" y="-79" font-family="Helvetica,sans-Serif" font-size="10.00" fill="#000000">mom_diag_mediator::</text>
<text text-anchor="middle" x="532.5" y="-68" font-family="Helvetica,sans-Serif" font-size="10.00" fill="#000000">log_available_diag</text>
</a>
</g>
</g>
<!-- Node6&#45;&gt;Node14 -->
<g id="edge18" class="edge">
<title>Node6&#45;&gt;Node14</title>
<path fill="none" stroke="#191970" d="M411.9336,-143.2441C430.003,-131.8967 453.0251,-117.7921 474,-106 480.0162,-102.6177 486.4542,-99.1594 492.7791,-95.8498"/>
<polygon fill="#191970" stroke="#191970" points="494.6266,-98.8348 501.9024,-91.1333 491.4119,-92.6165 494.6266,-98.8348"/>
</g>
<!-- Node16 -->
<g id="node16" class="node">
<title>Node16</title>
<g id="a_node16"><a xlink:href="namespacemom__diag__mediator.html#aca4a32fea8dade9f51e076a56b9bad2b" target="_top" xlink:title="Returns an FMS id from register_diag_field_fms (the diag_manager routine) after expanding axes (axes&#45;...">
<polygon fill="#ffffff" stroke="#000000" points="474,-.5 474,-41.5 591,-41.5 591,-.5 474,-.5"/>
<text text-anchor="start" x="482" y="-29.5" font-family="Helvetica,sans-Serif" font-size="10.00" fill="#000000">mom_diag_mediator::</text>
<text text-anchor="start" x="482" y="-18.5" font-family="Helvetica,sans-Serif" font-size="10.00" fill="#000000">register_diag_field</text>
<text text-anchor="middle" x="532.5" y="-7.5" font-family="Helvetica,sans-Serif" font-size="10.00" fill="#000000">_expand_axes</text>
</a>
</g>
</g>
<!-- Node6&#45;&gt;Node16 -->
<g id="edge20" class="edge">
<title>Node6&#45;&gt;Node16</title>
<path fill="none" stroke="#191970" d="M392.8289,-143.4981C409.5061,-119.0633 440.0332,-78.1369 474,-51 475.5717,-49.7443 477.2043,-48.5194 478.8819,-47.3268"/>
<polygon fill="#191970" stroke="#191970" points="481.1194,-50.0456 487.572,-41.6423 477.2874,-44.1875 481.1194,-50.0456"/>
</g>
<!-- Node8 -->
<g id="node8" class="node">
<title>Node8</title>
<g id="a_node8"><a xlink:href="namespacemom__diag__mediator.html#a1b0bed2113a0c268eafd1bafbb48bd4f" target="_top" xlink:title="Make a new diagnostic. Either use memory which is in the array of &#39;primary&#39; diagnostics,...">
<polygon fill="#ffffff" stroke="#000000" points="627,-237 627,-267 744,-267 744,-237 627,-237"/>
<text text-anchor="start" x="635" y="-255" font-family="Helvetica,sans-Serif" font-size="10.00" fill="#000000">mom_diag_mediator::</text>
<text text-anchor="middle" x="685.5" y="-244" font-family="Helvetica,sans-Serif" font-size="10.00" fill="#000000">alloc_diag_with_id</text>
</a>
</g>
</g>
<!-- Node7&#45;&gt;Node8 -->
<g id="edge7" class="edge">
<title>Node7&#45;&gt;Node8</title>
<path fill="none" stroke="#191970" d="M591.2162,-267.4058C599.6354,-266.0302 608.3589,-264.6048 616.9473,-263.2014"/>
<polygon fill="#191970" stroke="#191970" points="617.6362,-266.6354 626.9409,-261.5685 616.5073,-259.727 617.6362,-266.6354"/>
</g>
<!-- Node9 -->
<g id="node9" class="node">
<title>Node9</title>
<g id="a_node9"><a xlink:href="namespacemom__error__handler.html#a33bcd190d460095104954f2e654f9fe6" target="_top" xlink:title="Issues a FATAL error if the assertion fails, i.e. the first argument is false.">
<polygon fill="#ffffff" stroke="#000000" points="781,-308 781,-338 896,-338 896,-308 781,-308"/>
<text text-anchor="start" x="789" y="-326" font-family="Helvetica,sans-Serif" font-size="10.00" fill="#000000">mom_error_handler::</text>
<text text-anchor="middle" x="838.5" y="-315" font-family="Helvetica,sans-Serif" font-size="10.00" fill="#000000">assert</text>
</a>
</g>
</g>
<!-- Node7&#45;&gt;Node9 -->
<g id="edge8" class="edge">
<title>Node7&#45;&gt;Node9</title>
<path fill="none" stroke="#191970" d="M554.2057,-292.1059C572.6239,-303.9476 600.2477,-319.4766 627,-326 673.9673,-337.4527 728.5593,-336.3332 770.5141,-332.5431"/>
<polygon fill="#191970" stroke="#191970" points="771.01,-336.0115 780.6228,-331.5567 770.3301,-329.0446 771.01,-336.0115"/>
</g>
<!-- Node10 -->
<g id="node10" class="node">
<title>Node10</title>
<g id="a_node10"><a xlink:href="namespacemom__diag__mediator.html#a3f7442639213320f7429e2288a79fda2" target="_top" xlink:title="Returns a new diagnostic id, it may be necessary to expand the diagnostics array.">
<polygon fill="#ffffff" stroke="#000000" points="627,-286 627,-316 744,-316 744,-286 627,-286"/>
<text text-anchor="start" x="635" y="-304" font-family="Helvetica,sans-Serif" font-size="10.00" fill="#000000">mom_diag_mediator::</text>
<text text-anchor="middle" x="685.5" y="-293" font-family="Helvetica,sans-Serif" font-size="10.00" fill="#000000">get_new_diag_id</text>
</a>
</g>
</g>
<!-- Node7&#45;&gt;Node10 -->
<g id="edge10" class="edge">
<title>Node7&#45;&gt;Node10</title>
<path fill="none" stroke="#191970" d="M591.2162,-286.2104C599.6354,-287.531 608.3589,-288.8994 616.9473,-290.2466"/>
<polygon fill="#191970" stroke="#191970" points="616.5193,-293.7222 626.9409,-291.8143 617.6041,-286.8068 616.5193,-293.7222"/>
</g>
<!-- Node9&#45;&gt;Node4 -->
<g id="edge9" class="edge">
<title>Node9&#45;&gt;Node4</title>
<path fill="none" stroke="#191970" d="M880.7229,-307.9722C886.3722,-305.3083 891.9516,-302.3118 897,-299 926.1313,-279.8898 954.0091,-250.894 971.6238,-230.7897"/>
<polygon fill="#191970" stroke="#191970" points="974.4268,-232.8983 978.2965,-223.0354 969.1208,-228.3324 974.4268,-232.8983"/>
</g>
<!-- Node10&#45;&gt;Node9 -->
<g id="edge11" class="edge">
<title>Node10&#45;&gt;Node9</title>
<path fill="none" stroke="#191970" d="M744.2162,-309.4429C752.9719,-310.7018 762.0565,-312.0081 770.9761,-313.2907"/>
<polygon fill="#191970" stroke="#191970" points="770.5538,-316.7659 780.9502,-314.7249 771.5502,-309.8371 770.5538,-316.7659"/>
</g>
<!-- Node11 -->
<g id="node11" class="node">
<title>Node11</title>
<g id="a_node11"><a xlink:href="namespacemom__diag__mediator.html#a883862f004e30bbc5211f38635511ba0" target="_top" xlink:title="Initializes a diag_type (used after allocating new memory)">
<polygon fill="#ffffff" stroke="#000000" points="780,-259 780,-289 897,-289 897,-259 780,-259"/>
<text text-anchor="start" x="788" y="-277" font-family="Helvetica,sans-Serif" font-size="10.00" fill="#000000">mom_diag_mediator::</text>
<text text-anchor="middle" x="838.5" y="-266" font-family="Helvetica,sans-Serif" font-size="10.00" fill="#000000">initialize_diag_type</text>
</a>
</g>
</g>
<!-- Node10&#45;&gt;Node11 -->
<g id="edge12" class="edge">
<title>Node10&#45;&gt;Node11</title>
<path fill="none" stroke="#191970" d="M744.2162,-290.6383C752.6354,-289.1526 761.3589,-287.6131 769.9473,-286.0975"/>
<polygon fill="#191970" stroke="#191970" points="770.7013,-289.5186 779.9409,-284.334 769.4848,-282.6252 770.7013,-289.5186"/>
</g>
<!-- Node12&#45;&gt;Node4 -->
<g id="edge14" class="edge">
<title>Node12&#45;&gt;Node4</title>
<path fill="none" stroke="#191970" d="M897.2672,-208C905.5821,-208 914.1875,-208 922.6562,-208"/>
<polygon fill="#191970" stroke="#191970" points="922.8897,-211.5001 932.8897,-208 922.8897,-204.5001 922.8897,-211.5001"/>
</g>
<!-- Node13&#45;&gt;Node4 -->
<g id="edge16" class="edge">
<title>Node13&#45;&gt;Node4</title>
<path fill="none" stroke="#191970" d="M744.1807,-167.0695C786.8123,-169.9006 845.7698,-175.0598 897,-184 907.1339,-185.7685 917.7837,-188.0687 928.1192,-190.544"/>
<polygon fill="#191970" stroke="#191970" points="927.3579,-193.9611 937.9052,-192.9592 929.0352,-187.165 927.3579,-193.9611"/>
</g>
<!-- Node15 -->
<g id="node15" class="node">
<title>Node15</title>
<g id="a_node15"><a xlink:href="namespacemom__diag__mediator.html#ae002ca447acba252bf7bdc042e75a01e" target="_top" xlink:title="Describe an option setting in the diagnostic files.">
<polygon fill="#ffffff" stroke="#000000" points="627,-61 627,-91 744,-91 744,-61 627,-61"/>
<text text-anchor="start" x="635" y="-79" font-family="Helvetica,sans-Serif" font-size="10.00" fill="#000000">mom_diag_mediator::</text>
<text text-anchor="middle" x="685.5" y="-68" font-family="Helvetica,sans-Serif" font-size="10.00" fill="#000000">describe_option</text>
</a>
</g>
</g>
<!-- Node14&#45;&gt;Node15 -->
<g id="edge19" class="edge">
<title>Node14&#45;&gt;Node15</title>
<path fill="none" stroke="#191970" d="M591.2162,-76C599.5439,-76 608.1693,-76 616.6671,-76"/>
<polygon fill="#191970" stroke="#191970" points="616.9409,-79.5001 626.9409,-76 616.9409,-72.5001 616.9409,-79.5001"/>
</g>
</g>
</svg>
