<?xml version="1.0" encoding="UTF-8" standalone="no"?>
<!DOCTYPE svg PUBLIC "-//W3C//DTD SVG 1.1//EN"
 "http://www.w3.org/Graphics/SVG/1.1/DTD/svg11.dtd">
<!-- Generated by graphviz version 2.40.1 (20161225.0304)
 -->
<!-- Title: mom_neutral_diffusion::search_other_column Pages: 1 -->
<!--zoomable 213 -->
<svg id="main" version="1.1" xmlns="http://www.w3.org/2000/svg" xmlns:xlink="http://www.w3.org/1999/xlink" xml:space="preserve" onload="init(evt)">
<style type="text/css"><![CDATA[
.edge:hover path { stroke: red; }
.edge:hover polygon { stroke: red; fill: red; }
]]></style>
<script type="text/javascript"><![CDATA[
var edges = document.getElementsByTagName('g');
if (edges && edges.length) {
  for (var i=0;i<edges.length;i++) {
    if (edges[i].id.substr(0,4)=='edge') {
      edges[i].setAttribute('class','edge');
    }
  }
}
]]></script>
        <defs>
                <circle id="rim" cx="0" cy="0" r="7"/>
                <circle id="rim2" cx="0" cy="0" r="3.5"/>
                <g id="zoomPlus">
                        <use xlink:href="#rim" fill="#404040">
                                <set attributeName="fill" to="#808080" begin="zoomplus.mouseover" end="zoomplus.mouseout"/>
                        </use>
                        <path d="M-4,0h8M0,-4v8" fill="none" stroke="white" stroke-width="1.5" pointer-events="none"/>
                </g>
                <g id="zoomMin">
                        <use xlink:href="#rim" fill="#404040">
                                <set attributeName="fill" to="#808080" begin="zoomminus.mouseover" end="zoomminus.mouseout"/>
                        </use>
                        <path d="M-4,0h8" fill="none" stroke="white" stroke-width="1.5" pointer-events="none"/>
                </g>
                <g id="dirArrow">
                        <path fill="none" stroke="white" stroke-width="1.5" d="M0,-3.0v7 M-2.5,-0.5L0,-3.0L2.5,-0.5"/>
                </g>
               <g id="resetDef">
                       <use xlink:href="#rim2" fill="#404040">
                               <set attributeName="fill" to="#808080" begin="reset.mouseover" end="reset.mouseout"/>
                       </use>
               </g>
        </defs>

<script type="text/javascript">
var viewWidth = 753;
var viewHeight = 213;
var sectionId = 'dynsection-45';
</script>
<script xlink:href="svgpan.js"/>
<svg id="graph" class="graph">
<g id="viewport">
<title>mom_neutral_diffusion::search_other_column</title>
<polygon fill="#ffffff" stroke="transparent" points="-4,4 -4,-209.0684 749,-209.0684 749,4 -4,4"/>
<!-- Node1 -->
<g id="node1" class="node">
<title>Node1</title>
<g id="a_node1"><a xlink:title="Searches the &quot;other&quot; (searched) column for the position of the neutral surface.">
<polygon fill="#bfbfbf" stroke="#000000" points="0,-94.0684 0,-124.0684 116,-124.0684 116,-94.0684 0,-94.0684"/>
<text text-anchor="start" x="8" y="-112.0684" font-family="Helvetica,sans-Serif" font-size="10.00" fill="#000000">mom_neutral_diffusion</text>
<text text-anchor="middle" x="58" y="-101.0684" font-family="Helvetica,sans-Serif" font-size="10.00" fill="#000000">::search_other_column</text>
</a>
</g>
</g>
<!-- Node2 -->
<g id="node2" class="node">
<title>Node2</title>
<g id="a_node2"><a xlink:href="namespacemom__neutral__diffusion.html#a096623adeec0973cbb99cb9048946ad3" target="_top" xlink:title="Calculate the difference in density between two points in a variety of ways.">
<polygon fill="#ffffff" stroke="#000000" points="321.5,-163.5684 321.5,-204.5684 436.5,-204.5684 436.5,-163.5684 321.5,-163.5684"/>
<text text-anchor="start" x="329.5" y="-192.5684" font-family="Helvetica,sans-Serif" font-size="10.00" fill="#000000">mom_neutral_diffusion</text>
<text text-anchor="start" x="329.5" y="-181.5684" font-family="Helvetica,sans-Serif" font-size="10.00" fill="#000000">::calc_delta_rho_and</text>
<text text-anchor="middle" x="379" y="-170.5684" font-family="Helvetica,sans-Serif" font-size="10.00" fill="#000000">_derivs</text>
</a>
</g>
</g>
<!-- Node1&#45;&gt;Node2 -->
<g id="edge1" class="edge">
<title>Node1&#45;&gt;Node2</title>
<path fill="none" stroke="#191970" d="M80.4908,-124.1859C98.8953,-135.7601 126.0356,-151.0574 152,-159.0684 203.9523,-175.0976 265.3805,-181.1277 311.2261,-183.2716"/>
<polygon fill="#191970" stroke="#191970" points="311.2126,-186.774 321.3499,-183.694 311.5045,-179.7801 311.2126,-186.774"/>
</g>
<!-- Node6 -->
<g id="node6" class="node">
<title>Node6</title>
<g id="a_node6"><a xlink:href="namespacemom__neutral__diffusion.html#a8bef35a99b64bf7afad086a557ba7c1d" target="_top" xlink:title="Use the full equation of state to calculate the difference in locally referenced potential density....">
<polygon fill="#ffffff" stroke="#000000" points="155.5,-119.0684 155.5,-149.0684 270.5,-149.0684 270.5,-119.0684 155.5,-119.0684"/>
<text text-anchor="start" x="163.5" y="-137.0684" font-family="Helvetica,sans-Serif" font-size="10.00" fill="#000000">mom_neutral_diffusion</text>
<text text-anchor="middle" x="213" y="-126.0684" font-family="Helvetica,sans-Serif" font-size="10.00" fill="#000000">::find_neutral_pos_full</text>
</a>
</g>
</g>
<!-- Node1&#45;&gt;Node6 -->
<g id="edge5" class="edge">
<title>Node1&#45;&gt;Node6</title>
<path fill="none" stroke="#191970" d="M116.1573,-118.4486C125.6568,-119.9808 135.5706,-121.5798 145.2765,-123.1452"/>
<polygon fill="#191970" stroke="#191970" points="144.86,-126.6232 155.2897,-124.7603 145.9747,-119.7125 144.86,-126.6232"/>
</g>
<!-- Node8 -->
<g id="node8" class="node">
<title>Node8</title>
<g id="a_node8"><a xlink:href="namespacemom__neutral__diffusion.html#ae7f1b4822d5d24548770e48c620a7b6f" target="_top" xlink:title="Search a layer to find where delta_rho = 0 based on a linear interpolation of alpha and beta of the t...">
<polygon fill="#ffffff" stroke="#000000" points="152,-70.0684 152,-100.0684 274,-100.0684 274,-70.0684 152,-70.0684"/>
<text text-anchor="start" x="160" y="-88.0684" font-family="Helvetica,sans-Serif" font-size="10.00" fill="#000000">mom_neutral_diffusion</text>
<text text-anchor="middle" x="213" y="-77.0684" font-family="Helvetica,sans-Serif" font-size="10.00" fill="#000000">::find_neutral_pos_linear</text>
</a>
</g>
</g>
<!-- Node1&#45;&gt;Node8 -->
<g id="edge8" class="edge">
<title>Node1&#45;&gt;Node8</title>
<path fill="none" stroke="#191970" d="M116.1573,-100.0634C124.5542,-98.7632 133.2748,-97.4129 141.8893,-96.0791"/>
<polygon fill="#191970" stroke="#191970" points="142.581,-99.5138 151.9276,-94.5247 141.5098,-92.5962 142.581,-99.5138"/>
</g>
<!-- Node10 -->
<g id="node10" class="node">
<title>Node10</title>
<g id="a_node10"><a xlink:href="namespacemom__neutral__diffusion.html#a666836e70bdae7ef4ec271246cf91993" target="_top" xlink:title="Returns the non&#45;dimensional position between Pneg and Ppos where the interpolated density difference ...">
<polygon fill="#ffffff" stroke="#000000" points="152.5,-9.5684 152.5,-50.5684 273.5,-50.5684 273.5,-9.5684 152.5,-9.5684"/>
<text text-anchor="start" x="160.5" y="-38.5684" font-family="Helvetica,sans-Serif" font-size="10.00" fill="#000000">mom_neutral_diffusion</text>
<text text-anchor="start" x="160.5" y="-27.5684" font-family="Helvetica,sans-Serif" font-size="10.00" fill="#000000">::interpolate_for_nondim</text>
<text text-anchor="middle" x="213" y="-16.5684" font-family="Helvetica,sans-Serif" font-size="10.00" fill="#000000">_position</text>
</a>
</g>
</g>
<!-- Node1&#45;&gt;Node10 -->
<g id="edge13" class="edge">
<title>Node1&#45;&gt;Node10</title>
<path fill="none" stroke="#191970" d="M86.7082,-93.8813C105.2763,-84.1135 129.9998,-71.2105 152,-60.0684 155.2441,-58.4254 158.5909,-56.7433 161.9688,-55.0554"/>
<polygon fill="#191970" stroke="#191970" points="163.5387,-58.1836 170.9335,-50.5963 160.4212,-51.9161 163.5387,-58.1836"/>
</g>
<!-- Node3 -->
<g id="node3" class="node">
<title>Node3</title>
<g id="a_node3"><a xlink:href="namespacemom__neutral__diffusion.html#ae0420673e01c23b26e87dc68317347a1" target="_top" xlink:title="Calculate delta rho from derivatives and gradients of properties .">
<polygon fill="#ffffff" stroke="#000000" points="484,-51.0684 484,-81.0684 603,-81.0684 603,-51.0684 484,-51.0684"/>
<text text-anchor="start" x="492" y="-69.0684" font-family="Helvetica,sans-Serif" font-size="10.00" fill="#000000">mom_neutral_diffusion</text>
<text text-anchor="middle" x="543.5" y="-58.0684" font-family="Helvetica,sans-Serif" font-size="10.00" fill="#000000">::delta_rho_from_derivs</text>
</a>
</g>
</g>
<!-- Node2&#45;&gt;Node3 -->
<g id="edge2" class="edge">
<title>Node2&#45;&gt;Node3</title>
<path fill="none" stroke="#191970" d="M433.5492,-163.4116C438.63,-160.5943 443.539,-157.4814 448,-154.0684 468.3417,-138.5051 465.4514,-126.7305 484,-109.0684 492.268,-101.1955 502.035,-93.5673 511.2397,-86.9766"/>
<polygon fill="#191970" stroke="#191970" points="513.2716,-89.8267 519.4757,-81.2383 509.2699,-84.0833 513.2716,-89.8267"/>
</g>
<!-- Node4 -->
<g id="node4" class="node">
<title>Node4</title>
<g id="a_node4"><a xlink:href="namespacemom__error__handler.html#a460cfb79a06c29fc249952c2a3710d67" target="_top" xlink:title="This provides a convenient interface for writing an mpp_error message with run&#45;time filter based on a...">
<polygon fill="#ffffff" stroke="#000000" points="490.5,-119.0684 490.5,-149.0684 596.5,-149.0684 596.5,-119.0684 490.5,-119.0684"/>
<text text-anchor="start" x="498.5" y="-137.0684" font-family="Helvetica,sans-Serif" font-size="10.00" fill="#000000">mom_error_handler::</text>
<text text-anchor="middle" x="543.5" y="-126.0684" font-family="Helvetica,sans-Serif" font-size="10.00" fill="#000000">mom_error</text>
</a>
</g>
</g>
<!-- Node2&#45;&gt;Node4 -->
<g id="edge3" class="edge">
<title>Node2&#45;&gt;Node4</title>
<path fill="none" stroke="#191970" d="M436.5341,-166.5808C451.8866,-161.9144 468.5056,-156.863 483.9633,-152.1647"/>
<polygon fill="#191970" stroke="#191970" points="485.3785,-155.3927 493.9285,-149.1357 483.3428,-148.6952 485.3785,-155.3927"/>
</g>
<!-- Node5 -->
<g id="node5" class="node">
<title>Node5</title>
<g id="a_node5"><a xlink:href="namespacemom__error__handler.html#ad5f00a53059c72fe2332d1436c80ca71" target="_top" xlink:title="This returns .true. if the current PE is the root PE.">
<polygon fill="#ffffff" stroke="#000000" points="639,-119.0684 639,-149.0684 745,-149.0684 745,-119.0684 639,-119.0684"/>
<text text-anchor="start" x="647" y="-137.0684" font-family="Helvetica,sans-Serif" font-size="10.00" fill="#000000">mom_error_handler::</text>
<text text-anchor="middle" x="692" y="-126.0684" font-family="Helvetica,sans-Serif" font-size="10.00" fill="#000000">is_root_pe</text>
</a>
</g>
</g>
<!-- Node4&#45;&gt;Node5 -->
<g id="edge4" class="edge">
<title>Node4&#45;&gt;Node5</title>
<path fill="none" stroke="#191970" d="M596.6925,-134.0684C607.0356,-134.0684 617.973,-134.0684 628.6069,-134.0684"/>
<polygon fill="#191970" stroke="#191970" points="628.6798,-137.5685 638.6798,-134.0684 628.6798,-130.5685 628.6798,-137.5685"/>
</g>
<!-- Node6&#45;&gt;Node2 -->
<g id="edge6" class="edge">
<title>Node6&#45;&gt;Node2</title>
<path fill="none" stroke="#191970" d="M262.8055,-149.07C278.0692,-153.6675 295.1261,-158.8051 311.3692,-163.6977"/>
<polygon fill="#191970" stroke="#191970" points="310.7699,-167.1724 321.3544,-166.7052 312.7888,-160.4698 310.7699,-167.1724"/>
</g>
<!-- Node7 -->
<g id="node7" class="node">
<title>Node7</title>
<g id="a_node7"><a xlink:href="namespacepolynomial__functions.html#adb2b5d18db527314545e8e21638a2872" target="_top" xlink:title="Pointwise evaluation of a polynomial at x.">
<polygon fill="#ffffff" stroke="#000000" points="319.5,-114.0684 319.5,-144.0684 438.5,-144.0684 438.5,-114.0684 319.5,-114.0684"/>
<text text-anchor="start" x="327.5" y="-132.0684" font-family="Helvetica,sans-Serif" font-size="10.00" fill="#000000">polynomial_functions</text>
<text text-anchor="middle" x="379" y="-121.0684" font-family="Helvetica,sans-Serif" font-size="10.00" fill="#000000">::evaluation_polynomial</text>
</a>
</g>
</g>
<!-- Node6&#45;&gt;Node7 -->
<g id="edge7" class="edge">
<title>Node6&#45;&gt;Node7</title>
<path fill="none" stroke="#191970" d="M270.5929,-132.3337C283.0063,-131.9598 296.2589,-131.5606 309.0839,-131.1743"/>
<polygon fill="#191970" stroke="#191970" points="309.3634,-134.6676 319.2534,-130.868 309.1526,-127.6707 309.3634,-134.6676"/>
</g>
<!-- Node8&#45;&gt;Node3 -->
<g id="edge9" class="edge">
<title>Node8&#45;&gt;Node3</title>
<path fill="none" stroke="#191970" d="M257.4044,-69.9589C263.2382,-67.1018 268.9397,-63.8125 274,-60.0684 294.3115,-45.0397 287.167,-26.8885 310,-16.0684 365.4251,10.1964 388.4415,-1.4203 448,-16.0684 471.2135,-21.7776 495.0376,-34.2376 513.0838,-45.2903"/>
<polygon fill="#191970" stroke="#191970" points="511.6368,-48.5161 521.9602,-50.8986 515.3758,-42.5983 511.6368,-48.5161"/>
</g>
<!-- Node8&#45;&gt;Node4 -->
<g id="edge12" class="edge">
<title>Node8&#45;&gt;Node4</title>
<path fill="none" stroke="#191970" d="M274.3733,-86.282C322.0907,-88.125 389.7455,-92.7123 448,-104.0684 462.8294,-106.9592 478.6006,-111.3465 492.9635,-115.8803"/>
<polygon fill="#191970" stroke="#191970" points="492.0611,-119.2671 502.6532,-119.026 494.2226,-112.6092 492.0611,-119.2671"/>
</g>
<!-- Node8&#45;&gt;Node7 -->
<g id="edge10" class="edge">
<title>Node8&#45;&gt;Node7</title>
<path fill="none" stroke="#191970" d="M269.6635,-100.0876C283.4761,-103.7488 298.3744,-107.6977 312.5951,-111.4671"/>
<polygon fill="#191970" stroke="#191970" points="311.7472,-114.8631 322.3102,-114.0422 313.5408,-108.0968 311.7472,-114.8631"/>
</g>
<!-- Node9 -->
<g id="node9" class="node">
<title>Node9</title>
<g id="a_node9"><a xlink:href="namespacepolynomial__functions.html#a38462b1bc63d3f1f441e4d340c2b4627" target="_top" xlink:title="Calculates the first derivative of a polynomial evaluated at a point x.">
<polygon fill="#ffffff" stroke="#000000" points="310,-26.0684 310,-56.0684 448,-56.0684 448,-26.0684 310,-26.0684"/>
<text text-anchor="start" x="318" y="-44.0684" font-family="Helvetica,sans-Serif" font-size="10.00" fill="#000000">polynomial_functions</text>
<text text-anchor="middle" x="379" y="-33.0684" font-family="Helvetica,sans-Serif" font-size="10.00" fill="#000000">::first_derivative_polynomial</text>
</a>
</g>
</g>
<!-- Node8&#45;&gt;Node9 -->
<g id="edge11" class="edge">
<title>Node8&#45;&gt;Node9</title>
<path fill="none" stroke="#191970" d="M269.6635,-70.0491C283.4761,-66.388 298.3744,-62.439 312.5951,-58.6697"/>
<polygon fill="#191970" stroke="#191970" points="313.5408,-62.04 322.3102,-56.0946 311.7472,-55.2736 313.5408,-62.04"/>
</g>
</g>
</svg>
        <g id="navigator" transform="translate(0 0)" fill="#404254">
                <rect fill="#f2f5e9" fill-opacity="0.5" stroke="#606060" stroke-width=".5" x="0" y="0" width="60" height="60"/>
                <use id="zoomplus" xlink:href="#zoomPlus" x="17" y="9" onmousedown="handleZoom(evt,'in')"/>
                <use id="zoomminus" xlink:href="#zoomMin" x="42" y="9" onmousedown="handleZoom(evt,'out')"/>
                <use id="reset" xlink:href="#resetDef" x="30" y="36" onmousedown="handleReset()"/>
                <g id="arrowUp" xlink:href="#dirArrow" transform="translate(30 24)" onmousedown="handlePan(0,-1)">
                  <use xlink:href="#rim" fill="#404040">
                        <set attributeName="fill" to="#808080" begin="arrowUp.mouseover" end="arrowUp.mouseout"/>
                  </use>
                  <path fill="none" stroke="white" stroke-width="1.5" d="M0,-3.0v7 M-2.5,-0.5L0,-3.0L2.5,-0.5"/>
                </g>
                <g id="arrowRight" xlink:href="#dirArrow" transform="rotate(90) translate(36 -43)" onmousedown="handlePan(1,0)">
                  <use xlink:href="#rim" fill="#404040">
                        <set attributeName="fill" to="#808080" begin="arrowRight.mouseover" end="arrowRight.mouseout"/>
                  </use>
                  <path fill="none" stroke="white" stroke-width="1.5" d="M0,-3.0v7 M-2.5,-0.5L0,-3.0L2.5,-0.5"/>
                </g>
                <g id="arrowDown" xlink:href="#dirArrow" transform="rotate(180) translate(-30 -48)" onmousedown="handlePan(0,1)">
                  <use xlink:href="#rim" fill="#404040">
                        <set attributeName="fill" to="#808080" begin="arrowDown.mouseover" end="arrowDown.mouseout"/>
                  </use>
                  <path fill="none" stroke="white" stroke-width="1.5" d="M0,-3.0v7 M-2.5,-0.5L0,-3.0L2.5,-0.5"/>
                </g>
                <g id="arrowLeft" xlink:href="#dirArrow" transform="rotate(270) translate(-36 17)" onmousedown="handlePan(-1,0)">
                  <use xlink:href="#rim" fill="#404040">
                        <set attributeName="fill" to="#808080" begin="arrowLeft.mouseover" end="arrowLeft.mouseout"/>
                  </use>
                  <path fill="none" stroke="white" stroke-width="1.5" d="M0,-3.0v7 M-2.5,-0.5L0,-3.0L2.5,-0.5"/>
                </g>
        </g>
        <svg viewBox="0 0 15 15" width="100%" height="30px" preserveAspectRatio="xMaxYMin meet">
         <g id="arrow_out" transform="scale(0.3 0.3)">
          <a xlink:href="namespacemom__neutral__diffusion_a2952cbcce84dbdae01fce09240f819c5_cgraph_org.svg" target="_base">
           <rect id="button" ry="5" rx="5" y="6" x="6" height="38" width="38"
                fill="#f2f5e9" fill-opacity="0.5" stroke="#606060" stroke-width="1.0"/>
           <path id="arrow"
             d="M 11.500037,31.436501 C 11.940474,20.09759 22.043105,11.32322 32.158766,21.979434 L 37.068811,17.246167 C 37.068811,17.246167 37.088388,32 37.088388,32 L 22.160133,31.978069 C 22.160133,31.978069 26.997745,27.140456 26.997745,27.140456 C 18.528582,18.264221 13.291696,25.230495 11.500037,31.436501 z"
             style="fill:#404040;"/>
          </a>
         </g>
        </svg>
</svg>
