<?xml version="1.0" encoding="UTF-8" standalone="no"?>
<!DOCTYPE svg PUBLIC "-//W3C//DTD SVG 1.1//EN"
 "http://www.w3.org/Graphics/SVG/1.1/DTD/svg11.dtd">
<!-- Generated by graphviz version 2.40.1 (20161225.0304)
 -->
<!-- Title: mom_pressureforce_mont::set_pbce_nonbouss Pages: 1 -->
<svg width="533pt" height="149pt"
 viewBox="0.00 0.00 533.00 149.00" xmlns="http://www.w3.org/2000/svg" xmlns:xlink="http://www.w3.org/1999/xlink">
<g id="graph0" class="graph" transform="scale(1 1) rotate(0) translate(4 145)">
<title>mom_pressureforce_mont::set_pbce_nonbouss</title>
<polygon fill="#ffffff" stroke="transparent" points="-4,4 -4,-145 529,-145 529,4 -4,4"/>
<!-- Node1 -->
<g id="node1" class="node">
<title>Node1</title>
<g id="a_node1"><a xlink:title="Determines the partial derivative of the acceleration due to pressure forces with the column mass.">
<polygon fill="#bfbfbf" stroke="#000000" points="385,-55.5 385,-85.5 525,-85.5 525,-55.5 385,-55.5"/>
<text text-anchor="start" x="393" y="-73.5" font-family="Helvetica,sans-Serif" font-size="10.00" fill="#000000">mom_pressureforce_mont</text>
<text text-anchor="middle" x="455" y="-62.5" font-family="Helvetica,sans-Serif" font-size="10.00" fill="#000000">::set_pbce_nonbouss</text>
</a>
</g>
</g>
<!-- Node2 -->
<g id="node2" class="node">
<title>Node2</title>
<g id="a_node2"><a xlink:href="namespacemom__pressureforce__afv.html#a84013032637268b653579bad40d68ad5" target="_top" xlink:title="Non&#45;Boussinesq analytically&#45;integrated finite volume form of pressure gradient.">
<polygon fill="#ffffff" stroke="#000000" points="186.5,-110.5 186.5,-140.5 344.5,-140.5 344.5,-110.5 186.5,-110.5"/>
<text text-anchor="start" x="194.5" y="-128.5" font-family="Helvetica,sans-Serif" font-size="10.00" fill="#000000">mom_pressureforce_afv</text>
<text text-anchor="middle" x="265.5" y="-117.5" font-family="Helvetica,sans-Serif" font-size="10.00" fill="#000000">::pressureforce_afv_nonbouss</text>
</a>
</g>
</g>
<!-- Node1&#45;&gt;Node2 -->
<g id="edge1" class="edge">
<title>Node1&#45;&gt;Node2</title>
<path fill="none" stroke="#191970" d="M393.598,-88.3212C368.9348,-95.4793 340.8164,-103.6404 317.2191,-110.4892"/>
<polygon fill="#191970" stroke="#191970" points="394.5902,-91.6777 403.2183,-85.529 392.639,-84.9551 394.5902,-91.6777"/>
</g>
<!-- Node4 -->
<g id="node4" class="node">
<title>Node4</title>
<g id="a_node4"><a xlink:href="namespacemom__pressureforce__blk__afv.html#aa8366d5ab9c585e709eb4b3b0f620bd5" target="_top" xlink:title="Non&#45;Boussinesq analytically&#45;integrated finite volume form of pressure gradient.">
<polygon fill="#ffffff" stroke="#000000" points="201,-50 201,-91 330,-91 330,-50 201,-50"/>
<text text-anchor="start" x="209" y="-79" font-family="Helvetica,sans-Serif" font-size="10.00" fill="#000000">mom_pressureforce_blk</text>
<text text-anchor="start" x="209" y="-68" font-family="Helvetica,sans-Serif" font-size="10.00" fill="#000000">_afv::pressureforce_blk</text>
<text text-anchor="middle" x="265.5" y="-57" font-family="Helvetica,sans-Serif" font-size="10.00" fill="#000000">_afv_nonbouss</text>
</a>
</g>
</g>
<!-- Node1&#45;&gt;Node4 -->
<g id="edge3" class="edge">
<title>Node1&#45;&gt;Node4</title>
<path fill="none" stroke="#191970" d="M374.7783,-70.5C359.9093,-70.5 344.5512,-70.5 330.2162,-70.5"/>
<polygon fill="#191970" stroke="#191970" points="374.9756,-74.0001 384.9756,-70.5 374.9756,-67.0001 374.9756,-74.0001"/>
</g>
<!-- Node6 -->
<g id="node6" class="node">
<title>Node6</title>
<g id="a_node6"><a xlink:href="namespacemom__pressureforce__mont.html#a6880a913a82b65eb65a728abb487ef91" target="_top" xlink:title="Non&#45;Boussinesq Montgomery&#45;potential form of pressure gradient.">
<polygon fill="#ffffff" stroke="#000000" points="182,-.5 182,-30.5 349,-30.5 349,-.5 182,-.5"/>
<text text-anchor="start" x="190" y="-18.5" font-family="Helvetica,sans-Serif" font-size="10.00" fill="#000000">mom_pressureforce_mont</text>
<text text-anchor="middle" x="265.5" y="-7.5" font-family="Helvetica,sans-Serif" font-size="10.00" fill="#000000">::pressureforce_mont_nonbouss</text>
</a>
</g>
</g>
<!-- Node1&#45;&gt;Node6 -->
<g id="edge5" class="edge">
<title>Node1&#45;&gt;Node6</title>
<path fill="none" stroke="#191970" d="M393.598,-52.6788C368.9348,-45.5207 340.8164,-37.3596 317.2191,-30.5108"/>
<polygon fill="#191970" stroke="#191970" points="392.639,-56.0449 403.2183,-55.471 394.5902,-49.3223 392.639,-56.0449"/>
</g>
<!-- Node3 -->
<g id="node3" class="node">
<title>Node3</title>
<g id="a_node3"><a xlink:href="namespacemom__pressureforce__afv.html#a880b760c32de359e1215a79633efbba1" target="_top" xlink:title="Thin interface between the model and the Boussinesq and non&#45;Boussinesq pressure force routines.">
<polygon fill="#ffffff" stroke="#000000" points="7.5,-110.5 7.5,-140.5 138.5,-140.5 138.5,-110.5 7.5,-110.5"/>
<text text-anchor="start" x="15.5" y="-128.5" font-family="Helvetica,sans-Serif" font-size="10.00" fill="#000000">mom_pressureforce_afv</text>
<text text-anchor="middle" x="73" y="-117.5" font-family="Helvetica,sans-Serif" font-size="10.00" fill="#000000">::pressureforce_afv</text>
</a>
</g>
</g>
<!-- Node2&#45;&gt;Node3 -->
<g id="edge2" class="edge">
<title>Node2&#45;&gt;Node3</title>
<path fill="none" stroke="#191970" d="M176.2606,-125.5C163.5911,-125.5 150.7586,-125.5 138.6477,-125.5"/>
<polygon fill="#191970" stroke="#191970" points="176.3696,-129.0001 186.3695,-125.5 176.3695,-122.0001 176.3696,-129.0001"/>
</g>
<!-- Node5 -->
<g id="node5" class="node">
<title>Node5</title>
<g id="a_node5"><a xlink:href="namespacemom__pressureforce__blk__afv.html#aca748df88aad5adfb7df53de1760e955" target="_top" xlink:title="Thin interface between the model and the Boussinesq and non&#45;Boussinesq pressure force routines.">
<polygon fill="#ffffff" stroke="#000000" points="0,-55.5 0,-85.5 146,-85.5 146,-55.5 0,-55.5"/>
<text text-anchor="start" x="8" y="-73.5" font-family="Helvetica,sans-Serif" font-size="10.00" fill="#000000">mom_pressureforce_blk</text>
<text text-anchor="middle" x="73" y="-62.5" font-family="Helvetica,sans-Serif" font-size="10.00" fill="#000000">_afv::pressureforce_blk_afv</text>
</a>
</g>
</g>
<!-- Node4&#45;&gt;Node5 -->
<g id="edge4" class="edge">
<title>Node4&#45;&gt;Node5</title>
<path fill="none" stroke="#191970" d="M190.824,-70.5C176.1316,-70.5 160.732,-70.5 146.0923,-70.5"/>
<polygon fill="#191970" stroke="#191970" points="190.8648,-74.0001 200.8648,-70.5 190.8647,-67.0001 190.8648,-74.0001"/>
</g>
</g>
</svg>
