<?xml version="1.0" encoding="UTF-8" standalone="no"?>
<!DOCTYPE svg PUBLIC "-//W3C//DTD SVG 1.1//EN"
 "http://www.w3.org/Graphics/SVG/1.1/DTD/svg11.dtd">
<!-- Generated by graphviz version 2.40.1 (20161225.0304)
 -->
<!-- Title: mom_remapping::average_value_ppoly Pages: 1 -->
<!--zoomable 469 -->
<svg id="main" version="1.1" xmlns="http://www.w3.org/2000/svg" xmlns:xlink="http://www.w3.org/1999/xlink" xml:space="preserve" onload="init(evt)">
<style type="text/css"><![CDATA[
.edge:hover path { stroke: red; }
.edge:hover polygon { stroke: red; fill: red; }
]]></style>
<script type="text/javascript"><![CDATA[
var edges = document.getElementsByTagName('g');
if (edges && edges.length) {
  for (var i=0;i<edges.length;i++) {
    if (edges[i].id.substr(0,4)=='edge') {
      edges[i].setAttribute('class','edge');
    }
  }
}
]]></script>
        <defs>
                <circle id="rim" cx="0" cy="0" r="7"/>
                <circle id="rim2" cx="0" cy="0" r="3.5"/>
                <g id="zoomPlus">
                        <use xlink:href="#rim" fill="#404040">
                                <set attributeName="fill" to="#808080" begin="zoomplus.mouseover" end="zoomplus.mouseout"/>
                        </use>
                        <path d="M-4,0h8M0,-4v8" fill="none" stroke="white" stroke-width="1.5" pointer-events="none"/>
                </g>
                <g id="zoomMin">
                        <use xlink:href="#rim" fill="#404040">
                                <set attributeName="fill" to="#808080" begin="zoomminus.mouseover" end="zoomminus.mouseout"/>
                        </use>
                        <path d="M-4,0h8" fill="none" stroke="white" stroke-width="1.5" pointer-events="none"/>
                </g>
                <g id="dirArrow">
                        <path fill="none" stroke="white" stroke-width="1.5" d="M0,-3.0v7 M-2.5,-0.5L0,-3.0L2.5,-0.5"/>
                </g>
               <g id="resetDef">
                       <use xlink:href="#rim2" fill="#404040">
                               <set attributeName="fill" to="#808080" begin="reset.mouseover" end="reset.mouseout"/>
                       </use>
               </g>
        </defs>

<script type="text/javascript">
var viewWidth = 1375;
var viewHeight = 469;
var sectionId = 'dynsection-1';
</script>
<script xlink:href="svgpan.js"/>
<svg id="graph" class="graph">
<g id="viewport">
<title>mom_remapping::average_value_ppoly</title>
<polygon fill="#ffffff" stroke="transparent" points="-4,4 -4,-464.7873 1371,-464.7873 1371,4 -4,4"/>
<!-- Node1 -->
<g id="node1" class="node">
<title>Node1</title>
<g id="a_node1"><a xlink:title="Returns the average value of a reconstruction within a single source cell, i0, between the non&#45;dimens...">
<polygon fill="#bfbfbf" stroke="#000000" points="1228,-334.2873 1228,-364.2873 1367,-364.2873 1367,-334.2873 1228,-334.2873"/>
<text text-anchor="start" x="1236" y="-352.2873" font-family="Helvetica,sans-Serif" font-size="10.00" fill="#000000">mom_remapping::average</text>
<text text-anchor="middle" x="1297.5" y="-341.2873" font-family="Helvetica,sans-Serif" font-size="10.00" fill="#000000">_value_ppoly</text>
</a>
</g>
</g>
<!-- Node2 -->
<g id="node2" class="node">
<title>Node2</title>
<g id="a_node2"><a xlink:href="namespacemom__neutral__diffusion.html#a005d759280cfcb84cafa23a984ffc818" target="_top" xlink:title="Evaluate various parts of the reconstructions to calculate gradient&#45;based flux limter.">
<polygon fill="#ffffff" stroke="#000000" points="1063,-370.2873 1063,-400.2873 1191,-400.2873 1191,-370.2873 1063,-370.2873"/>
<text text-anchor="start" x="1071" y="-388.2873" font-family="Helvetica,sans-Serif" font-size="10.00" fill="#000000">mom_neutral_diffusion</text>
<text text-anchor="middle" x="1127" y="-377.2873" font-family="Helvetica,sans-Serif" font-size="10.00" fill="#000000">::neutral_surface_t_eval</text>
</a>
</g>
</g>
<!-- Node1&#45;&gt;Node2 -->
<g id="edge1" class="edge">
<title>Node1&#45;&gt;Node2</title>
<path fill="none" stroke="#191970" d="M1217.7019,-366.1361C1208.8346,-368.0084 1199.8884,-369.8973 1191.249,-371.7215"/>
<polygon fill="#191970" stroke="#191970" points="1218.598,-369.5242 1227.6592,-364.0337 1217.1518,-362.6752 1218.598,-369.5242"/>
</g>
<!-- Node11 -->
<g id="node11" class="node">
<title>Node11</title>
<g id="a_node11"><a xlink:href="namespacemom__remapping.html#ab933069898cb9de16ec60f175185762e" target="_top" xlink:title="Remaps column of n0 values u0 on grid h0 to grid h1 with n1 cells by calculating the n0+n1+1 sub&#45;inte...">
<polygon fill="#ffffff" stroke="#000000" points="1062,-310.2873 1062,-340.2873 1192,-340.2873 1192,-310.2873 1062,-310.2873"/>
<text text-anchor="start" x="1070" y="-328.2873" font-family="Helvetica,sans-Serif" font-size="10.00" fill="#000000">mom_remapping::remap</text>
<text text-anchor="middle" x="1127" y="-317.2873" font-family="Helvetica,sans-Serif" font-size="10.00" fill="#000000">_via_sub_cells</text>
</a>
</g>
</g>
<!-- Node1&#45;&gt;Node11 -->
<g id="edge10" class="edge">
<title>Node1&#45;&gt;Node11</title>
<path fill="none" stroke="#191970" d="M1217.6517,-338.0476C1209.0803,-336.8411 1200.4359,-335.6243 1192.0668,-334.4462"/>
<polygon fill="#191970" stroke="#191970" points="1217.2689,-341.5282 1227.6592,-339.4563 1218.2447,-334.5965 1217.2689,-341.5282"/>
</g>
<!-- Node3 -->
<g id="node3" class="node">
<title>Node3</title>
<g id="a_node3"><a xlink:href="namespacemom__neutral__diffusion.html#aa394289328ee392cdb17000fb6fa90e8" target="_top" xlink:title="Returns a single column of neutral diffusion fluxes of a tracer.">
<polygon fill="#ffffff" stroke="#000000" points="890,-381.2873 890,-411.2873 1012,-411.2873 1012,-381.2873 890,-381.2873"/>
<text text-anchor="start" x="898" y="-399.2873" font-family="Helvetica,sans-Serif" font-size="10.00" fill="#000000">mom_neutral_diffusion</text>
<text text-anchor="middle" x="951" y="-388.2873" font-family="Helvetica,sans-Serif" font-size="10.00" fill="#000000">::neutral_surface_flux</text>
</a>
</g>
</g>
<!-- Node2&#45;&gt;Node3 -->
<g id="edge2" class="edge">
<title>Node2&#45;&gt;Node3</title>
<path fill="none" stroke="#191970" d="M1052.7095,-389.9304C1039.1602,-390.7772 1025.1663,-391.6519 1012.0556,-392.4713"/>
<polygon fill="#191970" stroke="#191970" points="1053.1999,-393.4067 1062.9621,-389.2896 1052.7632,-386.4203 1053.1999,-393.4067"/>
</g>
<!-- Node4 -->
<g id="node4" class="node">
<title>Node4</title>
<g id="a_node4"><a xlink:href="namespacemom__neutral__diffusion.html#a9aaf0988f76c9992d8f1db48ce23bf34" target="_top" xlink:title="Returns true if unit tests of neutral_diffusion functions fail. Otherwise returns false.">
<polygon fill="#ffffff" stroke="#000000" points="690.5,-381.2873 690.5,-411.2873 839.5,-411.2873 839.5,-381.2873 690.5,-381.2873"/>
<text text-anchor="start" x="698.5" y="-399.2873" font-family="Helvetica,sans-Serif" font-size="10.00" fill="#000000">mom_neutral_diffusion</text>
<text text-anchor="middle" x="765" y="-388.2873" font-family="Helvetica,sans-Serif" font-size="10.00" fill="#000000">::ndiff_unit_tests_continuous</text>
</a>
</g>
</g>
<!-- Node3&#45;&gt;Node4 -->
<g id="edge3" class="edge">
<title>Node3&#45;&gt;Node4</title>
<path fill="none" stroke="#191970" d="M879.5518,-396.2873C866.5392,-396.2873 852.9308,-396.2873 839.8237,-396.2873"/>
<polygon fill="#191970" stroke="#191970" points="879.8391,-399.7874 889.839,-396.2873 879.839,-392.7874 879.8391,-399.7874"/>
</g>
<!-- Node9 -->
<g id="node9" class="node">
<title>Node9</title>
<g id="a_node9"><a xlink:href="namespacemom__neutral__diffusion.html#ad048cb54d8df3953db6c565a6fcebfb1" target="_top" xlink:title="Update tracer concentration due to neutral diffusion; layer thickness unchanged by this update.">
<polygon fill="#ffffff" stroke="#000000" points="704,-430.2873 704,-460.2873 826,-460.2873 826,-430.2873 704,-430.2873"/>
<text text-anchor="start" x="712" y="-448.2873" font-family="Helvetica,sans-Serif" font-size="10.00" fill="#000000">mom_neutral_diffusion</text>
<text text-anchor="middle" x="765" y="-437.2873" font-family="Helvetica,sans-Serif" font-size="10.00" fill="#000000">::neutral_diffusion</text>
</a>
</g>
</g>
<!-- Node3&#45;&gt;Node9 -->
<g id="edge8" class="edge">
<title>Node3&#45;&gt;Node9</title>
<path fill="none" stroke="#191970" d="M884.105,-413.9101C863.7557,-419.271 841.592,-425.1098 821.9623,-430.2811"/>
<polygon fill="#191970" stroke="#191970" points="885.1514,-417.254 893.9298,-411.3219 883.3681,-410.4849 885.1514,-417.254"/>
</g>
<!-- Node5 -->
<g id="node5" class="node">
<title>Node5</title>
<g id="a_node5"><a xlink:href="namespacemom__neutral__diffusion.html#a6f91c93a6363fb39395796420f25fad2" target="_top" xlink:title="Returns true if unit tests of neutral_diffusion functions fail. Otherwise returns false.">
<polygon fill="#ffffff" stroke="#000000" points="505,-381.2873 505,-411.2873 654,-411.2873 654,-381.2873 505,-381.2873"/>
<text text-anchor="start" x="513" y="-399.2873" font-family="Helvetica,sans-Serif" font-size="10.00" fill="#000000">mom_neutral_diffusion</text>
<text text-anchor="middle" x="579.5" y="-388.2873" font-family="Helvetica,sans-Serif" font-size="10.00" fill="#000000">::neutral_diffusion_unit_tests</text>
</a>
</g>
</g>
<!-- Node4&#45;&gt;Node5 -->
<g id="edge4" class="edge">
<title>Node4&#45;&gt;Node5</title>
<path fill="none" stroke="#191970" d="M680.2489,-396.2873C671.5904,-396.2873 662.8383,-396.2873 654.2973,-396.2873"/>
<polygon fill="#191970" stroke="#191970" points="680.3519,-399.7874 690.3519,-396.2873 680.3519,-392.7874 680.3519,-399.7874"/>
</g>
<!-- Node6 -->
<g id="node6" class="node">
<title>Node6</title>
<g id="a_node6"><a xlink:href="namespacemom__unit__tests.html#a57645db02bc734c32de50d028ef906ac" target="_top" xlink:title="Calls unit tests for other modules. Note that if a unit test returns true, a FATAL error is triggered...">
<polygon fill="#ffffff" stroke="#000000" points="341.5,-339.2873 341.5,-369.2873 452.5,-369.2873 452.5,-339.2873 341.5,-339.2873"/>
<text text-anchor="start" x="349.5" y="-357.2873" font-family="Helvetica,sans-Serif" font-size="10.00" fill="#000000">mom_unit_tests::unit</text>
<text text-anchor="middle" x="397" y="-346.2873" font-family="Helvetica,sans-Serif" font-size="10.00" fill="#000000">_tests</text>
</a>
</g>
</g>
<!-- Node5&#45;&gt;Node6 -->
<g id="edge5" class="edge">
<title>Node5&#45;&gt;Node6</title>
<path fill="none" stroke="#191970" d="M504.083,-378.931C486.8354,-374.9617 468.8093,-370.8132 452.5721,-367.0764"/>
<polygon fill="#191970" stroke="#191970" points="503.5985,-382.4109 514.1288,-381.2429 505.1685,-375.5893 503.5985,-382.4109"/>
</g>
<!-- Node7 -->
<g id="node7" class="node">
<title>Node7</title>
<g id="a_node7"><a xlink:href="namespacemom.html#a96708b16215666edbfa5b46228f3a200" target="_top" xlink:title="Initialize MOM, including memory allocation, setting up parameters and diagnostics,...">
<polygon fill="#ffffff" stroke="#000000" points="179,-295.7873 179,-314.7873 289,-314.7873 289,-295.7873 179,-295.7873"/>
<text text-anchor="middle" x="234" y="-302.7873" font-family="Helvetica,sans-Serif" font-size="10.00" fill="#000000">mom::initialize_mom</text>
</a>
</g>
</g>
<!-- Node6&#45;&gt;Node7 -->
<g id="edge6" class="edge">
<title>Node6&#45;&gt;Node7</title>
<path fill="none" stroke="#191970" d="M336.9794,-336.2443C312.8749,-328.9981 286.0711,-320.9405 265.8529,-314.8627"/>
<polygon fill="#191970" stroke="#191970" points="336.1803,-339.6587 346.7646,-339.1858 338.1956,-332.9551 336.1803,-339.6587"/>
</g>
<!-- Node8 -->
<g id="node8" class="node">
<title>Node8</title>
<g id="a_node8"><a xlink:href="MOM__driver_8F90.html#a08fffeb2d8e8acbf9ed4609be6d258c6" target="_top" xlink:title=" ">
<polygon fill="#ffffff" stroke="#000000" points="37.5,-195.7873 37.5,-214.7873 105.5,-214.7873 105.5,-195.7873 37.5,-195.7873"/>
<text text-anchor="middle" x="71.5" y="-202.7873" font-family="Helvetica,sans-Serif" font-size="10.00" fill="#000000">mom_main</text>
</a>
</g>
</g>
<!-- Node7&#45;&gt;Node8 -->
<g id="edge7" class="edge">
<title>Node7&#45;&gt;Node8</title>
<path fill="none" stroke="#191970" d="M209.6368,-290.2945C175.8535,-269.5048 115.734,-232.5082 87.2728,-214.9936"/>
<polygon fill="#191970" stroke="#191970" points="208.0679,-293.4386 218.4188,-295.6988 211.7366,-287.477 208.0679,-293.4386"/>
</g>
<!-- Node10 -->
<g id="node10" class="node">
<title>Node10</title>
<g id="a_node10"><a xlink:href="namespacemom__tracer__hor__diff.html#a069e22612062290389c2630c7f90ede2" target="_top" xlink:title="Compute along&#45;coordinate diffusion of all tracers using the diffusivity in CSKhTr,...">
<polygon fill="#ffffff" stroke="#000000" points="522,-430.2873 522,-460.2873 637,-460.2873 637,-430.2873 522,-430.2873"/>
<text text-anchor="start" x="530" y="-448.2873" font-family="Helvetica,sans-Serif" font-size="10.00" fill="#000000">mom_tracer_hor_diff</text>
<text text-anchor="middle" x="579.5" y="-437.2873" font-family="Helvetica,sans-Serif" font-size="10.00" fill="#000000">::tracer_hordiff</text>
</a>
</g>
</g>
<!-- Node9&#45;&gt;Node10 -->
<g id="edge9" class="edge">
<title>Node9&#45;&gt;Node10</title>
<path fill="none" stroke="#191970" d="M693.5385,-445.2873C674.9032,-445.2873 655.0558,-445.2873 637.231,-445.2873"/>
<polygon fill="#191970" stroke="#191970" points="693.7463,-448.7874 703.7463,-445.2873 693.7462,-441.7874 693.7463,-448.7874"/>
</g>
<!-- Node12 -->
<g id="node12" class="node">
<title>Node12</title>
<g id="a_node12"><a xlink:href="namespacemom__remapping.html#abe4a1d5b1b9f26063a5e4aba5be0b0a5" target="_top" xlink:title="Remaps column of values u0 on grid h0 to grid h1 assuming the top edge is aligned.">
<polygon fill="#ffffff" stroke="#000000" points="876,-163.2873 876,-193.2873 1026,-193.2873 1026,-163.2873 876,-163.2873"/>
<text text-anchor="start" x="884" y="-181.2873" font-family="Helvetica,sans-Serif" font-size="10.00" fill="#000000">mom_remapping::remapping</text>
<text text-anchor="middle" x="951" y="-170.2873" font-family="Helvetica,sans-Serif" font-size="10.00" fill="#000000">_core_h</text>
</a>
</g>
</g>
<!-- Node11&#45;&gt;Node12 -->
<g id="edge11" class="edge">
<title>Node11&#45;&gt;Node12</title>
<path fill="none" stroke="#191970" d="M1101.1526,-303.6988C1065.0509,-273.5457 1000.4397,-219.5807 969.0733,-193.3826"/>
<polygon fill="#191970" stroke="#191970" points="1098.9091,-306.3852 1108.8278,-310.1093 1103.3964,-301.0126 1098.9091,-306.3852"/>
</g>
<!-- Node33 -->
<g id="node33" class="node">
<title>Node33</title>
<g id="a_node33"><a xlink:href="namespacemom__remapping.html#a38bd02a8643f4a984bc3985f34106d9a" target="_top" xlink:title="Remaps column of values u0 on grid h0 to implied grid h1 where the interfaces of h1 differ from those...">
<polygon fill="#ffffff" stroke="#000000" points="876,-332.2873 876,-362.2873 1026,-362.2873 1026,-332.2873 876,-332.2873"/>
<text text-anchor="start" x="884" y="-350.2873" font-family="Helvetica,sans-Serif" font-size="10.00" fill="#000000">mom_remapping::remapping</text>
<text text-anchor="middle" x="951" y="-339.2873" font-family="Helvetica,sans-Serif" font-size="10.00" fill="#000000">_core_w</text>
</a>
</g>
</g>
<!-- Node11&#45;&gt;Node33 -->
<g id="edge37" class="edge">
<title>Node11&#45;&gt;Node33</title>
<path fill="none" stroke="#191970" d="M1052.0151,-334.6604C1043.4573,-335.7301 1034.7315,-336.8208 1026.1713,-337.8908"/>
<polygon fill="#191970" stroke="#191970" points="1052.4755,-338.1301 1061.9641,-333.4167 1051.6072,-331.1842 1052.4755,-338.1301"/>
</g>
<!-- Node34 -->
<g id="node34" class="node">
<title>Node34</title>
<g id="a_node34"><a xlink:href="namespacemom__remapping.html#a5849f564453d5ed76fb4feffd41eca26" target="_top" xlink:title="Runs unit tests on remapping functions. Should only be called from a single/root thread Returns True ...">
<polygon fill="#ffffff" stroke="#000000" points="690,-332.2873 690,-362.2873 840,-362.2873 840,-332.2873 690,-332.2873"/>
<text text-anchor="start" x="698" y="-350.2873" font-family="Helvetica,sans-Serif" font-size="10.00" fill="#000000">mom_remapping::remapping</text>
<text text-anchor="middle" x="765" y="-339.2873" font-family="Helvetica,sans-Serif" font-size="10.00" fill="#000000">_unit_tests</text>
</a>
</g>
</g>
<!-- Node11&#45;&gt;Node34 -->
<g id="edge40" class="edge">
<title>Node11&#45;&gt;Node34</title>
<path fill="none" stroke="#191970" d="M1051.6841,-323.6318C1043.0234,-323.4901 1034.3193,-323.3696 1026,-323.2873 959.3366,-322.6273 942.2892,-316.2027 876,-323.2873 858.748,-325.131 840.2406,-328.5431 823.3794,-332.2275"/>
<polygon fill="#191970" stroke="#191970" points="1051.7464,-327.1333 1061.8055,-323.8069 1051.8675,-320.1344 1051.7464,-327.1333"/>
</g>
<!-- Node13 -->
<g id="node13" class="node">
<title>Node13</title>
<g id="a_node13"><a xlink:href="namespacemom__ale__sponge.html#a1f297a8680a56b92ad1ac4e09f375d05" target="_top" xlink:title="This subroutine applies damping to the layers thicknesses, temp, salt and a variety of tracers for ev...">
<polygon fill="#ffffff" stroke="#000000" points="699.5,-185.2873 699.5,-215.2873 830.5,-215.2873 830.5,-185.2873 699.5,-185.2873"/>
<text text-anchor="start" x="707.5" y="-203.2873" font-family="Helvetica,sans-Serif" font-size="10.00" fill="#000000">mom_ale_sponge::apply</text>
<text text-anchor="middle" x="765" y="-192.2873" font-family="Helvetica,sans-Serif" font-size="10.00" fill="#000000">_ale_sponge</text>
</a>
</g>
</g>
<!-- Node12&#45;&gt;Node13 -->
<g id="edge12" class="edge">
<title>Node12&#45;&gt;Node13</title>
<path fill="none" stroke="#191970" d="M865.9485,-188.3471C854.0525,-189.7542 841.9817,-191.1819 830.5225,-192.5373"/>
<polygon fill="#191970" stroke="#191970" points="866.3632,-191.8226 875.8828,-187.1721 865.5409,-184.871 866.3632,-191.8226"/>
</g>
<!-- Node18 -->
<g id="node18" class="node">
<title>Node18</title>
<g id="a_node18"><a xlink:href="namespacecoord__rho.html#aa5b249b62eabf07cdc7f02649f029cae" target="_top" xlink:title="Iteratively build a rho coordinate column.">
<polygon fill="#ffffff" stroke="#000000" points="708.5,-97.2873 708.5,-127.2873 821.5,-127.2873 821.5,-97.2873 708.5,-97.2873"/>
<text text-anchor="start" x="716.5" y="-115.2873" font-family="Helvetica,sans-Serif" font-size="10.00" fill="#000000">coord_rho::build_rho</text>
<text text-anchor="middle" x="765" y="-104.2873" font-family="Helvetica,sans-Serif" font-size="10.00" fill="#000000">_column_iteratively</text>
</a>
</g>
</g>
<!-- Node12&#45;&gt;Node18 -->
<g id="edge18" class="edge">
<title>Node12&#45;&gt;Node18</title>
<path fill="none" stroke="#191970" d="M898.8193,-159.7715C869.9799,-149.5382 834.6071,-136.9865 807.4736,-127.3585"/>
<polygon fill="#191970" stroke="#191970" points="897.7331,-163.0999 908.3278,-163.1455 900.074,-156.5029 897.7331,-163.0999"/>
</g>
<!-- Node19 -->
<g id="node19" class="node">
<title>Node19</title>
<g id="a_node19"><a xlink:href="namespacemom__tidal__mixing.html#aef4b9f3c4ceece52a1cebe1bbee66988" target="_top" xlink:title="Calls the CVMix routines to compute tidal dissipation and to add the effect of internal&#45;tide&#45;driven m...">
<polygon fill="#ffffff" stroke="#000000" points="692,-48.2873 692,-78.2873 838,-78.2873 838,-48.2873 692,-48.2873"/>
<text text-anchor="start" x="700" y="-66.2873" font-family="Helvetica,sans-Serif" font-size="10.00" fill="#000000">mom_tidal_mixing::calculate</text>
<text text-anchor="middle" x="765" y="-55.2873" font-family="Helvetica,sans-Serif" font-size="10.00" fill="#000000">_cvmix_tidal</text>
</a>
</g>
</g>
<!-- Node12&#45;&gt;Node19 -->
<g id="edge19" class="edge">
<title>Node12&#45;&gt;Node19</title>
<path fill="none" stroke="#191970" d="M928.8979,-156.2805C907.6704,-136.1913 873.9058,-106.8773 840,-88.2873 833.1401,-84.5261 825.6168,-81.2004 818.0656,-78.3028"/>
<polygon fill="#191970" stroke="#191970" points="926.4924,-158.823 936.1284,-163.2275 931.3422,-153.7753 926.4924,-158.823"/>
</g>
<!-- Node21 -->
<g id="node21" class="node">
<title>Node21</title>
<g id="a_node21"><a xlink:href="namespacemom__state__initialization.html#a69c6f01824f00611082b6d5f1b6ca738" target="_top" xlink:title="Adjust the layer thicknesses by removing the top of the water column above the depth where the hydros...">
<polygon fill="#ffffff" stroke="#000000" points="700.5,-283.2873 700.5,-313.2873 829.5,-313.2873 829.5,-283.2873 700.5,-283.2873"/>
<text text-anchor="start" x="708.5" y="-301.2873" font-family="Helvetica,sans-Serif" font-size="10.00" fill="#000000">mom_state_initialization</text>
<text text-anchor="middle" x="765" y="-290.2873" font-family="Helvetica,sans-Serif" font-size="10.00" fill="#000000">::cut_off_column_top</text>
</a>
</g>
</g>
<!-- Node12&#45;&gt;Node21 -->
<g id="edge21" class="edge">
<title>Node12&#45;&gt;Node21</title>
<path fill="none" stroke="#191970" d="M930.2989,-200.8429C909.389,-222.4207 875.2238,-254.5206 840,-274.2873 834.0389,-277.6325 827.5453,-280.5865 820.9546,-283.1746"/>
<polygon fill="#191970" stroke="#191970" points="933.0155,-203.0656 937.3802,-193.4116 927.9478,-198.2366 933.0155,-203.0656"/>
</g>
<!-- Node25 -->
<g id="node25" class="node">
<title>Node25</title>
<g id="a_node25"><a xlink:href="namespacemom__diag__remap.html#ac004e8411a2391dd4fff667714d7a539" target="_top" xlink:title="Remap diagnostic field to alternative vertical grid.">
<polygon fill="#ffffff" stroke="#000000" points="702,-234.2873 702,-264.2873 828,-264.2873 828,-234.2873 702,-234.2873"/>
<text text-anchor="start" x="710" y="-252.2873" font-family="Helvetica,sans-Serif" font-size="10.00" fill="#000000">mom_diag_remap::diag</text>
<text text-anchor="middle" x="765" y="-241.2873" font-family="Helvetica,sans-Serif" font-size="10.00" fill="#000000">_remap_do_remap</text>
</a>
</g>
</g>
<!-- Node12&#45;&gt;Node25 -->
<g id="edge26" class="edge">
<title>Node12&#45;&gt;Node25</title>
<path fill="none" stroke="#191970" d="M907.97,-197.5829C887.5478,-206.4628 862.698,-216.8699 840,-225.2873 831.7963,-228.3295 823.007,-231.3506 814.4376,-234.1711"/>
<polygon fill="#191970" stroke="#191970" points="909.5564,-200.7092 917.3136,-193.4928 906.7493,-194.2967 909.5564,-200.7092"/>
</g>
<!-- Node26 -->
<g id="node26" class="node">
<title>Node26</title>
<g id="a_node26"><a xlink:href="namespacemom__oda__driver__mod.html#a24806346258e5d9143e233999eef0e7f" target="_top" xlink:title="Copy ensemble member tracers to ensemble vector.">
<polygon fill="#ffffff" stroke="#000000" points="336,-23.2873 336,-53.2873 458,-53.2873 458,-23.2873 336,-23.2873"/>
<text text-anchor="start" x="344" y="-41.2873" font-family="Helvetica,sans-Serif" font-size="10.00" fill="#000000">mom_oda_driver_mod</text>
<text text-anchor="middle" x="397" y="-30.2873" font-family="Helvetica,sans-Serif" font-size="10.00" fill="#000000">::set_prior_tracer</text>
</a>
</g>
</g>
<!-- Node12&#45;&gt;Node26 -->
<g id="edge27" class="edge">
<title>Node12&#45;&gt;Node26</title>
<path fill="none" stroke="#191970" d="M940.3168,-154.1269C924.1066,-120.8685 889.8197,-62.366 840,-38.2873 713.4529,22.8752 541.8258,-3.2861 453.9702,-23.2648"/>
<polygon fill="#191970" stroke="#191970" points="937.1554,-155.6288 944.5864,-163.1806 943.4867,-152.643 937.1554,-155.6288"/>
</g>
<!-- Node27 -->
<g id="node27" class="node">
<title>Node27</title>
<g id="a_node27"><a xlink:href="namespacemom__wave__speed.html#a2bb7c3c0482510f3d50a2f2e933e4229" target="_top" xlink:title="Calculates the wave speed of the first baroclinic mode.">
<polygon fill="#ffffff" stroke="#000000" points="512.5,-97.2873 512.5,-127.2873 646.5,-127.2873 646.5,-97.2873 512.5,-97.2873"/>
<text text-anchor="start" x="520.5" y="-115.2873" font-family="Helvetica,sans-Serif" font-size="10.00" fill="#000000">mom_wave_speed::wave</text>
<text text-anchor="middle" x="579.5" y="-104.2873" font-family="Helvetica,sans-Serif" font-size="10.00" fill="#000000">_speed</text>
</a>
</g>
</g>
<!-- Node12&#45;&gt;Node27 -->
<g id="edge29" class="edge">
<title>Node12&#45;&gt;Node27</title>
<path fill="none" stroke="#191970" d="M865.9357,-166.3888C814.7954,-158.8719 748.4946,-148.4858 690,-137.2873 674.5456,-134.3286 657.9591,-130.7777 642.4574,-127.2936"/>
<polygon fill="#191970" stroke="#191970" points="865.5537,-169.8701 875.9548,-167.8534 866.5662,-162.9437 865.5537,-169.8701"/>
</g>
<!-- Node14 -->
<g id="node14" class="node">
<title>Node14</title>
<g id="a_node14"><a xlink:href="namespacemom__diabatic__driver.html#a9005de9f3ad26b32de53e3cd9826b9b9" target="_top" xlink:title="This subroutine imposes the diapycnal mass fluxes and the accompanying diapycnal advection of momentu...">
<polygon fill="#ffffff" stroke="#000000" points="522.5,-146.2873 522.5,-176.2873 636.5,-176.2873 636.5,-146.2873 522.5,-146.2873"/>
<text text-anchor="start" x="530.5" y="-164.2873" font-family="Helvetica,sans-Serif" font-size="10.00" fill="#000000">mom_diabatic_driver</text>
<text text-anchor="middle" x="579.5" y="-153.2873" font-family="Helvetica,sans-Serif" font-size="10.00" fill="#000000">::diabatic</text>
</a>
</g>
</g>
<!-- Node13&#45;&gt;Node14 -->
<g id="edge13" class="edge">
<title>Node13&#45;&gt;Node14</title>
<path fill="none" stroke="#191970" d="M689.1488,-184.3401C671.6457,-180.6602 653.3117,-176.8056 636.7548,-173.3247"/>
<polygon fill="#191970" stroke="#191970" points="688.8324,-187.85 699.3386,-186.4824 690.2727,-180.9998 688.8324,-187.85"/>
</g>
<!-- Node15 -->
<g id="node15" class="node">
<title>Node15</title>
<g id="a_node15"><a xlink:href="namespacemom__diabatic__driver.html#a9cdc6d13fb212778da2d58f286528fde" target="_top" xlink:title="Imposes the diapycnal mass fluxes and the accompanying diapycnal advection of momentum and tracers us...">
<polygon fill="#ffffff" stroke="#000000" points="522.5,-195.2873 522.5,-225.2873 636.5,-225.2873 636.5,-195.2873 522.5,-195.2873"/>
<text text-anchor="start" x="530.5" y="-213.2873" font-family="Helvetica,sans-Serif" font-size="10.00" fill="#000000">mom_diabatic_driver</text>
<text text-anchor="middle" x="579.5" y="-202.2873" font-family="Helvetica,sans-Serif" font-size="10.00" fill="#000000">::legacy_diabatic</text>
</a>
</g>
</g>
<!-- Node13&#45;&gt;Node15 -->
<g id="edge14" class="edge">
<title>Node13&#45;&gt;Node15</title>
<path fill="none" stroke="#191970" d="M689.1488,-204.3763C671.6457,-205.3198 653.3117,-206.3082 636.7548,-207.2007"/>
<polygon fill="#191970" stroke="#191970" points="689.5415,-207.8603 699.3386,-203.827 689.1647,-200.8704 689.5415,-207.8603"/>
</g>
<!-- Node16 -->
<g id="node16" class="node">
<title>Node16</title>
<g id="a_node16"><a xlink:href="namespacemom.html#a1a81ea749a309f10f5c3c7a17efa3606" target="_top" xlink:title="MOM_step_thermo orchestrates the thermodynamic time stepping and vertical remapping,...">
<polygon fill="#ffffff" stroke="#000000" points="331.5,-200.7873 331.5,-219.7873 462.5,-219.7873 462.5,-200.7873 331.5,-200.7873"/>
<text text-anchor="middle" x="397" y="-207.7873" font-family="Helvetica,sans-Serif" font-size="10.00" fill="#000000">mom::step_mom_thermo</text>
</a>
</g>
</g>
<!-- Node15&#45;&gt;Node16 -->
<g id="edge15" class="edge">
<title>Node15&#45;&gt;Node16</title>
<path fill="none" stroke="#191970" d="M511.8598,-210.2873C495.7732,-210.2873 478.6353,-210.2873 462.6399,-210.2873"/>
<polygon fill="#191970" stroke="#191970" points="512.2566,-213.7874 522.2566,-210.2873 512.2566,-206.7874 512.2566,-213.7874"/>
</g>
<!-- Node17 -->
<g id="node17" class="node">
<title>Node17</title>
<g id="a_node17"><a xlink:href="namespacemom.html#a972730596703580d4646320f2c9085a5" target="_top" xlink:title="This subroutine orchestrates the time stepping of MOM. The adiabatic dynamics are stepped by calls to...">
<polygon fill="#ffffff" stroke="#000000" points="188,-192.7873 188,-211.7873 280,-211.7873 280,-192.7873 188,-192.7873"/>
<text text-anchor="middle" x="234" y="-199.7873" font-family="Helvetica,sans-Serif" font-size="10.00" fill="#000000">mom::step_mom</text>
</a>
</g>
</g>
<!-- Node16&#45;&gt;Node17 -->
<g id="edge16" class="edge">
<title>Node16&#45;&gt;Node17</title>
<path fill="none" stroke="#191970" d="M321.0416,-206.5592C307.0441,-205.8722 292.8277,-205.1745 280.054,-204.5476"/>
<polygon fill="#191970" stroke="#191970" points="321.0119,-210.0619 331.1715,-207.0564 321.3551,-203.0703 321.0119,-210.0619"/>
</g>
<!-- Node17&#45;&gt;Node8 -->
<g id="edge17" class="edge">
<title>Node17&#45;&gt;Node8</title>
<path fill="none" stroke="#191970" d="M177.7972,-203.3248C153.7688,-203.7684 126.5011,-204.2719 105.5994,-204.6577"/>
<polygon fill="#191970" stroke="#191970" points="177.935,-206.823 187.8687,-203.1389 177.8058,-199.8242 177.935,-206.823"/>
</g>
<!-- Node20 -->
<g id="node20" class="node">
<title>Node20</title>
<g id="a_node20"><a xlink:href="namespacemom__tidal__mixing.html#abf084268fd9c71f20880838d2bce7e3e" target="_top" xlink:title="Depending on whether or not CVMix is active, calls the associated subroutine to compute internal tida...">
<polygon fill="#ffffff" stroke="#000000" points="506.5,-48.2873 506.5,-78.2873 652.5,-78.2873 652.5,-48.2873 506.5,-48.2873"/>
<text text-anchor="start" x="514.5" y="-66.2873" font-family="Helvetica,sans-Serif" font-size="10.00" fill="#000000">mom_tidal_mixing::calculate</text>
<text text-anchor="middle" x="579.5" y="-55.2873" font-family="Helvetica,sans-Serif" font-size="10.00" fill="#000000">_tidal_mixing</text>
</a>
</g>
</g>
<!-- Node19&#45;&gt;Node20 -->
<g id="edge20" class="edge">
<title>Node19&#45;&gt;Node20</title>
<path fill="none" stroke="#191970" d="M681.9051,-63.2873C672.1975,-63.2873 662.3472,-63.2873 652.7859,-63.2873"/>
<polygon fill="#191970" stroke="#191970" points="681.9518,-66.7874 691.9518,-63.2873 681.9517,-59.7874 681.9518,-66.7874"/>
</g>
<!-- Node22 -->
<g id="node22" class="node">
<title>Node22</title>
<g id="a_node22"><a xlink:href="namespacemom__state__initialization.html#a807c1c2bb13f172945c7c25f3af7abd1" target="_top" xlink:title="Run simple unit tests.">
<polygon fill="#ffffff" stroke="#000000" points="515,-244.2873 515,-274.2873 644,-274.2873 644,-244.2873 515,-244.2873"/>
<text text-anchor="start" x="523" y="-262.2873" font-family="Helvetica,sans-Serif" font-size="10.00" fill="#000000">mom_state_initialization</text>
<text text-anchor="middle" x="579.5" y="-251.2873" font-family="Helvetica,sans-Serif" font-size="10.00" fill="#000000">::mom_state_init_tests</text>
</a>
</g>
</g>
<!-- Node21&#45;&gt;Node22 -->
<g id="edge22" class="edge">
<title>Node21&#45;&gt;Node22</title>
<path fill="none" stroke="#191970" d="M690.438,-282.6112C675.1277,-279.3923 659.1292,-276.0287 644.2009,-272.8901"/>
<polygon fill="#191970" stroke="#191970" points="689.8753,-286.0693 700.3815,-284.7017 691.3156,-279.2191 689.8753,-286.0693"/>
</g>
<!-- Node23 -->
<g id="node23" class="node">
<title>Node23</title>
<g id="a_node23"><a xlink:href="namespacemom__state__initialization.html#abbe8ee99793eae86251739a8a1bf572f" target="_top" xlink:title="Adjust the layer thicknesses by cutting away the top of each model column at the depth where the hydr...">
<polygon fill="#ffffff" stroke="#000000" points="515,-293.2873 515,-323.2873 644,-323.2873 644,-293.2873 515,-293.2873"/>
<text text-anchor="start" x="523" y="-311.2873" font-family="Helvetica,sans-Serif" font-size="10.00" fill="#000000">mom_state_initialization</text>
<text text-anchor="middle" x="579.5" y="-300.2873" font-family="Helvetica,sans-Serif" font-size="10.00" fill="#000000">::trim_for_ice</text>
</a>
</g>
</g>
<!-- Node21&#45;&gt;Node23 -->
<g id="edge23" class="edge">
<title>Node21&#45;&gt;Node23</title>
<path fill="none" stroke="#191970" d="M690.0004,-302.3304C674.8231,-303.1485 658.987,-304.0022 644.2009,-304.7993"/>
<polygon fill="#191970" stroke="#191970" points="690.5844,-305.8041 700.3815,-301.7707 690.2076,-298.8142 690.5844,-305.8041"/>
</g>
<!-- Node24 -->
<g id="node24" class="node">
<title>Node24</title>
<g id="a_node24"><a xlink:href="namespacemom__state__initialization.html#a81503d4f1855cb185f122d6314e4f06c" target="_top" xlink:title="Initialize temporally evolving fields, either as initial conditions or by reading them from a restart...">
<polygon fill="#ffffff" stroke="#000000" points="332.5,-290.2873 332.5,-320.2873 461.5,-320.2873 461.5,-290.2873 332.5,-290.2873"/>
<text text-anchor="start" x="340.5" y="-308.2873" font-family="Helvetica,sans-Serif" font-size="10.00" fill="#000000">mom_state_initialization</text>
<text text-anchor="middle" x="397" y="-297.2873" font-family="Helvetica,sans-Serif" font-size="10.00" fill="#000000">::mom_initialize_state</text>
</a>
</g>
</g>
<!-- Node23&#45;&gt;Node24 -->
<g id="edge24" class="edge">
<title>Node23&#45;&gt;Node24</title>
<path fill="none" stroke="#191970" d="M504.6069,-307.0561C490.3071,-306.8211 475.4533,-306.5769 461.5127,-306.3477"/>
<polygon fill="#191970" stroke="#191970" points="504.8443,-310.5604 514.9005,-307.2253 504.9594,-303.5614 504.8443,-310.5604"/>
</g>
<!-- Node24&#45;&gt;Node7 -->
<g id="edge25" class="edge">
<title>Node24&#45;&gt;Node7</title>
<path fill="none" stroke="#191970" d="M322.0296,-305.2873C310.9786,-305.2873 299.7664,-305.2873 289.2128,-305.2873"/>
<polygon fill="#191970" stroke="#191970" points="322.1098,-308.7874 332.1097,-305.2873 322.1097,-301.7874 322.1098,-308.7874"/>
</g>
<!-- Node26&#45;&gt;Node17 -->
<g id="edge28" class="edge">
<title>Node26&#45;&gt;Node17</title>
<path fill="none" stroke="#191970" d="M353.5872,-58.3954C343.14,-64.8446 332.768,-72.8204 325,-82.2873 295.5661,-118.1583 321.3405,-147.0129 289,-180.2873 283.8392,-185.5971 277.2308,-189.6604 270.3972,-192.7583"/>
<polygon fill="#191970" stroke="#191970" points="355.4235,-61.3766 362.325,-53.3379 351.9169,-55.3182 355.4235,-61.3766"/>
</g>
<!-- Node28 -->
<g id="node28" class="node">
<title>Node28</title>
<g id="a_node28"><a xlink:href="namespacemom__lateral__mixing__coeffs.html#a8652c5651033573cfd6f09b789d64713" target="_top" xlink:title="Calculates and stores the non&#45;dimensional resolution functions.">
<polygon fill="#ffffff" stroke="#000000" points="342,-140.7873 342,-181.7873 452,-181.7873 452,-140.7873 342,-140.7873"/>
<text text-anchor="start" x="350" y="-169.7873" font-family="Helvetica,sans-Serif" font-size="10.00" fill="#000000">mom_lateral_mixing</text>
<text text-anchor="start" x="350" y="-158.7873" font-family="Helvetica,sans-Serif" font-size="10.00" fill="#000000">_coeffs::calc_resoln</text>
<text text-anchor="middle" x="397" y="-147.7873" font-family="Helvetica,sans-Serif" font-size="10.00" fill="#000000">_function</text>
</a>
</g>
</g>
<!-- Node27&#45;&gt;Node28 -->
<g id="edge30" class="edge">
<title>Node27&#45;&gt;Node28</title>
<path fill="none" stroke="#191970" d="M513.5295,-129.9999C493.3879,-135.4078 471.4622,-141.2947 452.1196,-146.488"/>
<polygon fill="#191970" stroke="#191970" points="514.5045,-133.3621 523.2548,-127.3887 512.6893,-126.6016 514.5045,-133.3621"/>
</g>
<!-- Node32 -->
<g id="node32" class="node">
<title>Node32</title>
<g id="a_node32"><a xlink:href="namespacemom__diagnostics.html#a6bd689b4d9f660020d8e3960879b4799" target="_top" xlink:title="Diagnostics not more naturally calculated elsewhere are computed here.">
<polygon fill="#ffffff" stroke="#000000" points="325,-91.2873 325,-121.2873 469,-121.2873 469,-91.2873 325,-91.2873"/>
<text text-anchor="start" x="333" y="-109.2873" font-family="Helvetica,sans-Serif" font-size="10.00" fill="#000000">mom_diagnostics::calculate</text>
<text text-anchor="middle" x="397" y="-98.2873" font-family="Helvetica,sans-Serif" font-size="10.00" fill="#000000">_diagnostic_fields</text>
</a>
</g>
</g>
<!-- Node27&#45;&gt;Node32 -->
<g id="edge36" class="edge">
<title>Node27&#45;&gt;Node32</title>
<path fill="none" stroke="#191970" d="M502.0078,-109.7396C491.144,-109.3824 480.0139,-109.0165 469.2527,-108.6627"/>
<polygon fill="#191970" stroke="#191970" points="502.2116,-113.2481 512.3212,-110.0786 502.4417,-106.2518 502.2116,-113.2481"/>
</g>
<!-- Node28&#45;&gt;Node17 -->
<g id="edge31" class="edge">
<title>Node28&#45;&gt;Node17</title>
<path fill="none" stroke="#191970" d="M331.9916,-177.6391C311.6994,-182.7432 289.9835,-188.2055 272.1648,-192.6875"/>
<polygon fill="#191970" stroke="#191970" points="332.9715,-181.0017 341.8156,-175.168 331.2639,-174.2131 332.9715,-181.0017"/>
</g>
<!-- Node29 -->
<g id="node29" class="node">
<title>Node29</title>
<g id="a_node29"><a xlink:href="namespacemom.html#ade4f7557fcda73ffc12284d3cecf4182" target="_top" xlink:title="step_offline is the main driver for running tracers offline in MOM6. This has been primarily develope...">
<polygon fill="#ffffff" stroke="#000000" points="185,-151.7873 185,-170.7873 283,-170.7873 283,-151.7873 185,-151.7873"/>
<text text-anchor="middle" x="234" y="-158.7873" font-family="Helvetica,sans-Serif" font-size="10.00" fill="#000000">mom::step_offline</text>
</a>
</g>
</g>
<!-- Node28&#45;&gt;Node29 -->
<g id="edge32" class="edge">
<title>Node28&#45;&gt;Node29</title>
<path fill="none" stroke="#191970" d="M331.3798,-161.2873C315.268,-161.2873 298.2949,-161.2873 283.1126,-161.2873"/>
<polygon fill="#191970" stroke="#191970" points="331.8157,-164.7874 341.8156,-161.2873 331.8156,-157.7874 331.8157,-164.7874"/>
</g>
<!-- Node29&#45;&gt;Node8 -->
<g id="edge33" class="edge">
<title>Node29&#45;&gt;Node8</title>
<path fill="none" stroke="#191970" d="M189.5288,-173.5847C174.7337,-177.6546 158.1642,-182.1895 143,-186.2873 130.8487,-189.5708 117.5228,-193.1248 105.7022,-196.2609"/>
<polygon fill="#191970" stroke="#191970" points="190.7375,-176.8822 199.4491,-170.8525 188.8787,-170.1335 190.7375,-176.8822"/>
</g>
<!-- Node30 -->
<g id="node30" class="node">
<title>Node30</title>
<g id="a_node30"><a xlink:href="namespacemom__ocean__model__mct.html#a422ba42ca07c0bf28ec5113aba4f1e96" target="_top" xlink:title="update_ocean_model uses the forcing in Ice_ocean_boundary to advance the ocean model&#39;s state from the...">
<polygon fill="#ffffff" stroke="#000000" points="6,-97.2873 6,-127.2873 137,-127.2873 137,-97.2873 6,-97.2873"/>
<text text-anchor="start" x="14" y="-115.2873" font-family="Helvetica,sans-Serif" font-size="10.00" fill="#000000">mom_ocean_model_mct</text>
<text text-anchor="middle" x="71.5" y="-104.2873" font-family="Helvetica,sans-Serif" font-size="10.00" fill="#000000">::update_ocean_model</text>
</a>
</g>
</g>
<!-- Node29&#45;&gt;Node30 -->
<g id="edge34" class="edge">
<title>Node29&#45;&gt;Node30</title>
<path fill="none" stroke="#191970" d="M192.6982,-148.8332C170.9924,-142.288 144.2227,-134.2159 121.3675,-127.3242"/>
<polygon fill="#191970" stroke="#191970" points="191.6979,-152.1872 202.2826,-151.7232 193.7189,-145.4852 191.6979,-152.1872"/>
</g>
<!-- Node31 -->
<g id="node31" class="node">
<title>Node31</title>
<g id="a_node31"><a xlink:href="namespacemom__ocean__model__nuopc.html#a02a87b4944febcc6828c55e8e4375e62" target="_top" xlink:title="update_ocean_model uses the forcing in Ice_ocean_boundary to advance the ocean model&#39;s state from the...">
<polygon fill="#ffffff" stroke="#000000" points="0,-146.2873 0,-176.2873 143,-176.2873 143,-146.2873 0,-146.2873"/>
<text text-anchor="start" x="8" y="-164.2873" font-family="Helvetica,sans-Serif" font-size="10.00" fill="#000000">mom_ocean_model_nuopc</text>
<text text-anchor="middle" x="71.5" y="-153.2873" font-family="Helvetica,sans-Serif" font-size="10.00" fill="#000000">::update_ocean_model</text>
</a>
</g>
</g>
<!-- Node29&#45;&gt;Node31 -->
<g id="edge35" class="edge">
<title>Node29&#45;&gt;Node31</title>
<path fill="none" stroke="#191970" d="M174.7013,-161.2873C164.4023,-161.2873 153.5945,-161.2873 143.0104,-161.2873"/>
<polygon fill="#191970" stroke="#191970" points="174.8037,-164.7874 184.8037,-161.2873 174.8036,-157.7874 174.8037,-164.7874"/>
</g>
<!-- Node33&#45;&gt;Node34 -->
<g id="edge38" class="edge">
<title>Node33&#45;&gt;Node34</title>
<path fill="none" stroke="#191970" d="M865.8527,-347.2873C857.2581,-347.2873 848.5735,-347.2873 840.0952,-347.2873"/>
<polygon fill="#191970" stroke="#191970" points="865.8829,-350.7874 875.8828,-347.2873 865.8828,-343.7874 865.8829,-350.7874"/>
</g>
<!-- Node34&#45;&gt;Node6 -->
<g id="edge39" class="edge">
<title>Node34&#45;&gt;Node6</title>
<path fill="none" stroke="#191970" d="M679.5403,-348.9128C609.7033,-350.2413 513.0019,-352.0807 452.7671,-353.2265"/>
<polygon fill="#191970" stroke="#191970" points="679.7101,-352.4104 689.6417,-348.7207 679.5769,-345.4116 679.7101,-352.4104"/>
</g>
</g>
</svg>
        <g id="navigator" transform="translate(0 0)" fill="#404254">
                <rect fill="#f2f5e9" fill-opacity="0.5" stroke="#606060" stroke-width=".5" x="0" y="0" width="60" height="60"/>
                <use id="zoomplus" xlink:href="#zoomPlus" x="17" y="9" onmousedown="handleZoom(evt,'in')"/>
                <use id="zoomminus" xlink:href="#zoomMin" x="42" y="9" onmousedown="handleZoom(evt,'out')"/>
                <use id="reset" xlink:href="#resetDef" x="30" y="36" onmousedown="handleReset()"/>
                <g id="arrowUp" xlink:href="#dirArrow" transform="translate(30 24)" onmousedown="handlePan(0,-1)">
                  <use xlink:href="#rim" fill="#404040">
                        <set attributeName="fill" to="#808080" begin="arrowUp.mouseover" end="arrowUp.mouseout"/>
                  </use>
                  <path fill="none" stroke="white" stroke-width="1.5" d="M0,-3.0v7 M-2.5,-0.5L0,-3.0L2.5,-0.5"/>
                </g>
                <g id="arrowRight" xlink:href="#dirArrow" transform="rotate(90) translate(36 -43)" onmousedown="handlePan(1,0)">
                  <use xlink:href="#rim" fill="#404040">
                        <set attributeName="fill" to="#808080" begin="arrowRight.mouseover" end="arrowRight.mouseout"/>
                  </use>
                  <path fill="none" stroke="white" stroke-width="1.5" d="M0,-3.0v7 M-2.5,-0.5L0,-3.0L2.5,-0.5"/>
                </g>
                <g id="arrowDown" xlink:href="#dirArrow" transform="rotate(180) translate(-30 -48)" onmousedown="handlePan(0,1)">
                  <use xlink:href="#rim" fill="#404040">
                        <set attributeName="fill" to="#808080" begin="arrowDown.mouseover" end="arrowDown.mouseout"/>
                  </use>
                  <path fill="none" stroke="white" stroke-width="1.5" d="M0,-3.0v7 M-2.5,-0.5L0,-3.0L2.5,-0.5"/>
                </g>
                <g id="arrowLeft" xlink:href="#dirArrow" transform="rotate(270) translate(-36 17)" onmousedown="handlePan(-1,0)">
                  <use xlink:href="#rim" fill="#404040">
                        <set attributeName="fill" to="#808080" begin="arrowLeft.mouseover" end="arrowLeft.mouseout"/>
                  </use>
                  <path fill="none" stroke="white" stroke-width="1.5" d="M0,-3.0v7 M-2.5,-0.5L0,-3.0L2.5,-0.5"/>
                </g>
        </g>
        <svg viewBox="0 0 15 15" width="100%" height="30px" preserveAspectRatio="xMaxYMin meet">
         <g id="arrow_out" transform="scale(0.3 0.3)">
          <a xlink:href="namespacemom__remapping_a89dde73fbc6eec035c8dabc225a9c210_icgraph_org.svg" target="_base">
           <rect id="button" ry="5" rx="5" y="6" x="6" height="38" width="38"
                fill="#f2f5e9" fill-opacity="0.5" stroke="#606060" stroke-width="1.0"/>
           <path id="arrow"
             d="M 11.500037,31.436501 C 11.940474,20.09759 22.043105,11.32322 32.158766,21.979434 L 37.068811,17.246167 C 37.068811,17.246167 37.088388,32 37.088388,32 L 22.160133,31.978069 C 22.160133,31.978069 26.997745,27.140456 26.997745,27.140456 C 18.528582,18.264221 13.291696,25.230495 11.500037,31.436501 z"
             style="fill:#404040;"/>
          </a>
         </g>
        </svg>
</svg>
