<?xml version="1.0" encoding="UTF-8" standalone="no"?>
<!DOCTYPE svg PUBLIC "-//W3C//DTD SVG 1.1//EN"
 "http://www.w3.org/Graphics/SVG/1.1/DTD/svg11.dtd">
<!-- Generated by graphviz version 2.40.1 (20161225.0304)
 -->
<!-- Title: mom_ice_shelf_dynamics::ice_shelf_min_thickness_calve Pages: 1 -->
<svg width="498pt" height="39pt"
 viewBox="0.00 0.00 498.00 39.00" xmlns="http://www.w3.org/2000/svg" xmlns:xlink="http://www.w3.org/1999/xlink">
<g id="graph0" class="graph" transform="scale(1 1) rotate(0) translate(4 35)">
<title>mom_ice_shelf_dynamics::ice_shelf_min_thickness_calve</title>
<polygon fill="#ffffff" stroke="transparent" points="-4,4 -4,-35 494,-35 494,4 -4,4"/>
<!-- Node1 -->
<g id="node1" class="node">
<title>Node1</title>
<g id="a_node1"><a xlink:title="Apply a very simple calving law using a minimum thickness rule.">
<polygon fill="#bfbfbf" stroke="#000000" points="332,-.5 332,-30.5 490,-30.5 490,-.5 332,-.5"/>
<text text-anchor="start" x="340" y="-18.5" font-family="Helvetica,sans-Serif" font-size="10.00" fill="#000000">mom_ice_shelf_dynamics</text>
<text text-anchor="middle" x="411" y="-7.5" font-family="Helvetica,sans-Serif" font-size="10.00" fill="#000000">::ice_shelf_min_thickness_calve</text>
</a>
</g>
</g>
<!-- Node2 -->
<g id="node2" class="node">
<title>Node2</title>
<g id="a_node2"><a xlink:href="namespacemom__ice__shelf__dynamics.html#a00b61e0e4f3a40d2e6d6cb8a5d5b3ada" target="_top" xlink:title="This subroutine takes the velocity (on the Bgrid) and timesteps h_t = &#45; div (uh) once....">
<polygon fill="#ffffff" stroke="#000000" points="166,-.5 166,-30.5 296,-30.5 296,-.5 166,-.5"/>
<text text-anchor="start" x="174" y="-18.5" font-family="Helvetica,sans-Serif" font-size="10.00" fill="#000000">mom_ice_shelf_dynamics</text>
<text text-anchor="middle" x="231" y="-7.5" font-family="Helvetica,sans-Serif" font-size="10.00" fill="#000000">::ice_shelf_advect</text>
</a>
</g>
</g>
<!-- Node1&#45;&gt;Node2 -->
<g id="edge1" class="edge">
<title>Node1&#45;&gt;Node2</title>
<path fill="none" stroke="#191970" d="M321.7184,-15.5C313.1217,-15.5 304.5162,-15.5 296.2158,-15.5"/>
<polygon fill="#191970" stroke="#191970" points="321.7875,-19.0001 331.7874,-15.5 321.7874,-12.0001 321.7875,-19.0001"/>
</g>
<!-- Node3 -->
<g id="node3" class="node">
<title>Node3</title>
<g id="a_node3"><a xlink:href="namespacemom__ice__shelf__dynamics.html#adb908b77efa101749be0be069916139c" target="_top" xlink:title="This subroutine updates the ice shelf velocities, mass, stresses and properties due to the ice shelf ...">
<polygon fill="#ffffff" stroke="#000000" points="0,-.5 0,-30.5 130,-30.5 130,-.5 0,-.5"/>
<text text-anchor="start" x="8" y="-18.5" font-family="Helvetica,sans-Serif" font-size="10.00" fill="#000000">mom_ice_shelf_dynamics</text>
<text text-anchor="middle" x="65" y="-7.5" font-family="Helvetica,sans-Serif" font-size="10.00" fill="#000000">::update_ice_shelf</text>
</a>
</g>
</g>
<!-- Node2&#45;&gt;Node3 -->
<g id="edge2" class="edge">
<title>Node2&#45;&gt;Node3</title>
<path fill="none" stroke="#191970" d="M155.6068,-15.5C147.1306,-15.5 138.5478,-15.5 130.2158,-15.5"/>
<polygon fill="#191970" stroke="#191970" points="155.8689,-19.0001 165.8688,-15.5 155.8688,-12.0001 155.8689,-19.0001"/>
</g>
</g>
</svg>
