<?xml version="1.0" encoding="UTF-8" standalone="no"?>
<!DOCTYPE svg PUBLIC "-//W3C//DTD SVG 1.1//EN"
 "http://www.w3.org/Graphics/SVG/1.1/DTD/svg11.dtd">
<!-- Generated by graphviz version 2.40.1 (20161225.0304)
 -->
<!-- Title: mom_neutral_diffusion::fvlsq_slope Pages: 1 -->
<!--zoomable 173 -->
<svg id="main" version="1.1" xmlns="http://www.w3.org/2000/svg" xmlns:xlink="http://www.w3.org/1999/xlink" xml:space="preserve" onload="init(evt)">
<style type="text/css"><![CDATA[
.edge:hover path { stroke: red; }
.edge:hover polygon { stroke: red; fill: red; }
]]></style>
<script type="text/javascript"><![CDATA[
var edges = document.getElementsByTagName('g');
if (edges && edges.length) {
  for (var i=0;i<edges.length;i++) {
    if (edges[i].id.substr(0,4)=='edge') {
      edges[i].setAttribute('class','edge');
    }
  }
}
]]></script>
        <defs>
                <circle id="rim" cx="0" cy="0" r="7"/>
                <circle id="rim2" cx="0" cy="0" r="3.5"/>
                <g id="zoomPlus">
                        <use xlink:href="#rim" fill="#404040">
                                <set attributeName="fill" to="#808080" begin="zoomplus.mouseover" end="zoomplus.mouseout"/>
                        </use>
                        <path d="M-4,0h8M0,-4v8" fill="none" stroke="white" stroke-width="1.5" pointer-events="none"/>
                </g>
                <g id="zoomMin">
                        <use xlink:href="#rim" fill="#404040">
                                <set attributeName="fill" to="#808080" begin="zoomminus.mouseover" end="zoomminus.mouseout"/>
                        </use>
                        <path d="M-4,0h8" fill="none" stroke="white" stroke-width="1.5" pointer-events="none"/>
                </g>
                <g id="dirArrow">
                        <path fill="none" stroke="white" stroke-width="1.5" d="M0,-3.0v7 M-2.5,-0.5L0,-3.0L2.5,-0.5"/>
                </g>
               <g id="resetDef">
                       <use xlink:href="#rim2" fill="#404040">
                               <set attributeName="fill" to="#808080" begin="reset.mouseover" end="reset.mouseout"/>
                       </use>
               </g>
        </defs>

<script type="text/javascript">
var viewWidth = 1372;
var viewHeight = 173;
var sectionId = 'dynsection-9';
</script>
<script xlink:href="svgpan.js"/>
<svg id="graph" class="graph">
<g id="viewport">
<title>mom_neutral_diffusion::fvlsq_slope</title>
<polygon fill="#ffffff" stroke="transparent" points="-4,4 -4,-168.5 1368,-168.5 1368,4 -4,4"/>
<!-- Node1 -->
<g id="node1" class="node">
<title>Node1</title>
<g id="a_node1"><a xlink:title="Returns the cell&#45;centered second&#45;order weighted least squares slope using three consecutive cell widt...">
<polygon fill="#bfbfbf" stroke="#000000" points="1242,-101 1242,-131 1364,-131 1364,-101 1242,-101"/>
<text text-anchor="start" x="1250" y="-119" font-family="Helvetica,sans-Serif" font-size="10.00" fill="#000000">mom_neutral_diffusion</text>
<text text-anchor="middle" x="1303" y="-108" font-family="Helvetica,sans-Serif" font-size="10.00" fill="#000000">::fvlsq_slope</text>
</a>
</g>
</g>
<!-- Node2 -->
<g id="node2" class="node">
<title>Node2</title>
<g id="a_node2"><a xlink:href="namespacemom__neutral__diffusion.html#ac211ae488cb6e3c6685df85d24ecd0dd" target="_top" xlink:title="Returns PLM slopes for a column where the slopes are the difference in value across each cell....">
<polygon fill="#ffffff" stroke="#000000" points="1084,-79 1084,-109 1206,-109 1206,-79 1084,-79"/>
<text text-anchor="start" x="1092" y="-97" font-family="Helvetica,sans-Serif" font-size="10.00" fill="#000000">mom_neutral_diffusion</text>
<text text-anchor="middle" x="1145" y="-86" font-family="Helvetica,sans-Serif" font-size="10.00" fill="#000000">::plm_diff</text>
</a>
</g>
</g>
<!-- Node1&#45;&gt;Node2 -->
<g id="edge1" class="edge">
<title>Node1&#45;&gt;Node2</title>
<path fill="none" stroke="#191970" d="M1231.9145,-106.102C1223.3268,-104.9063 1214.6132,-103.693 1206.185,-102.5194"/>
<polygon fill="#191970" stroke="#191970" points="1231.5259,-109.5816 1241.9131,-107.4942 1232.4913,-102.6485 1231.5259,-109.5816"/>
</g>
<!-- Node13 -->
<g id="node13" class="node">
<title>Node13</title>
<g id="a_node13"><a xlink:href="namespacemom__neutral__diffusion.html#ad964ab49cd5901b79dc32f2367d24aed" target="_top" xlink:title="Returns true if a test of fvlsq_slope() fails, and conditionally writes results to stream.">
<polygon fill="#ffffff" stroke="#000000" points="926,-134 926,-164 1048,-164 1048,-134 926,-134"/>
<text text-anchor="start" x="934" y="-152" font-family="Helvetica,sans-Serif" font-size="10.00" fill="#000000">mom_neutral_diffusion</text>
<text text-anchor="middle" x="987" y="-141" font-family="Helvetica,sans-Serif" font-size="10.00" fill="#000000">::test_fvlsq_slope</text>
</a>
</g>
</g>
<!-- Node1&#45;&gt;Node13 -->
<g id="edge14" class="edge">
<title>Node1&#45;&gt;Node13</title>
<path fill="none" stroke="#191970" d="M1231.6265,-123.4536C1176.3614,-129.2249 1100.6299,-137.1336 1048.1321,-142.616"/>
<polygon fill="#191970" stroke="#191970" points="1232.115,-126.9217 1241.6973,-122.4019 1231.3879,-119.9595 1232.115,-126.9217"/>
</g>
<!-- Node3 -->
<g id="node3" class="node">
<title>Node3</title>
<g id="a_node3"><a xlink:href="namespacemom__neutral__diffusion.html#aec9b89b6a5ddc81f102309b964a0b969" target="_top" xlink:title="Returns interface scalar, Si, for a column of layer values, S.">
<polygon fill="#ffffff" stroke="#000000" points="926,-77 926,-107 1048,-107 1048,-77 926,-77"/>
<text text-anchor="start" x="934" y="-95" font-family="Helvetica,sans-Serif" font-size="10.00" fill="#000000">mom_neutral_diffusion</text>
<text text-anchor="middle" x="987" y="-84" font-family="Helvetica,sans-Serif" font-size="10.00" fill="#000000">::interface_scalar</text>
</a>
</g>
</g>
<!-- Node2&#45;&gt;Node3 -->
<g id="edge2" class="edge">
<title>Node2&#45;&gt;Node3</title>
<path fill="none" stroke="#191970" d="M1073.6344,-93.0966C1065.1375,-92.9891 1056.5216,-92.88 1048.185,-92.7745"/>
<polygon fill="#191970" stroke="#191970" points="1073.8695,-96.5998 1083.9131,-93.2267 1073.9582,-89.6004 1073.8695,-96.5998"/>
</g>
<!-- Node4 -->
<g id="node4" class="node">
<title>Node4</title>
<g id="a_node4"><a xlink:href="namespacemom__neutral__diffusion.html#a9aaf0988f76c9992d8f1db48ce23bf34" target="_top" xlink:title="Returns true if unit tests of neutral_diffusion functions fail. Otherwise returns false.">
<polygon fill="#ffffff" stroke="#000000" points="582,-105 582,-135 731,-135 731,-105 582,-105"/>
<text text-anchor="start" x="590" y="-123" font-family="Helvetica,sans-Serif" font-size="10.00" fill="#000000">mom_neutral_diffusion</text>
<text text-anchor="middle" x="656.5" y="-112" font-family="Helvetica,sans-Serif" font-size="10.00" fill="#000000">::ndiff_unit_tests_continuous</text>
</a>
</g>
</g>
<!-- Node3&#45;&gt;Node4 -->
<g id="edge3" class="edge">
<title>Node3&#45;&gt;Node4</title>
<path fill="none" stroke="#191970" d="M915.7259,-98.0384C861.2367,-102.6547 786.3275,-109.001 731.0433,-113.6847"/>
<polygon fill="#191970" stroke="#191970" points="916.3272,-101.5 925.9961,-97.1683 915.7363,-94.525 916.3272,-101.5"/>
</g>
<!-- Node9 -->
<g id="node9" class="node">
<title>Node9</title>
<g id="a_node9"><a xlink:href="namespacemom__neutral__diffusion.html#a912fd9a78666e8ad1001ee0a06e03d9a" target="_top" xlink:title="Calculate remapping factors for u/v columns used to map adjoining columns to a shared coordinate spac...">
<polygon fill="#ffffff" stroke="#000000" points="767,-.5 767,-41.5 890,-41.5 890,-.5 767,-.5"/>
<text text-anchor="start" x="775" y="-29.5" font-family="Helvetica,sans-Serif" font-size="10.00" fill="#000000">mom_neutral_diffusion</text>
<text text-anchor="start" x="775" y="-18.5" font-family="Helvetica,sans-Serif" font-size="10.00" fill="#000000">::neutral_diffusion_calc</text>
<text text-anchor="middle" x="828.5" y="-7.5" font-family="Helvetica,sans-Serif" font-size="10.00" fill="#000000">_coeffs</text>
</a>
</g>
</g>
<!-- Node3&#45;&gt;Node9 -->
<g id="edge8" class="edge">
<title>Node3&#45;&gt;Node9</title>
<path fill="none" stroke="#191970" d="M944.1364,-72.7993C922.5563,-63.1325 896.3785,-51.4061 874.3913,-41.557"/>
<polygon fill="#191970" stroke="#191970" points="942.8292,-76.0488 953.3862,-76.9427 945.6909,-69.6604 942.8292,-76.0488"/>
</g>
<!-- Node11 -->
<g id="node11" class="node">
<title>Node11</title>
<g id="a_node11"><a xlink:href="namespacemom__neutral__diffusion.html#aa394289328ee392cdb17000fb6fa90e8" target="_top" xlink:title="Returns a single column of neutral diffusion fluxes of a tracer.">
<polygon fill="#ffffff" stroke="#000000" points="767.5,-61 767.5,-91 889.5,-91 889.5,-61 767.5,-61"/>
<text text-anchor="start" x="775.5" y="-79" font-family="Helvetica,sans-Serif" font-size="10.00" fill="#000000">mom_neutral_diffusion</text>
<text text-anchor="middle" x="828.5" y="-68" font-family="Helvetica,sans-Serif" font-size="10.00" fill="#000000">::neutral_surface_flux</text>
</a>
</g>
</g>
<!-- Node3&#45;&gt;Node11 -->
<g id="edge10" class="edge">
<title>Node3&#45;&gt;Node11</title>
<path fill="none" stroke="#191970" d="M915.6146,-84.7939C906.9353,-83.9178 898.1288,-83.0288 889.6173,-82.1696"/>
<polygon fill="#191970" stroke="#191970" points="915.4188,-88.2918 925.7198,-85.814 916.1219,-81.3272 915.4188,-88.2918"/>
</g>
<!-- Node5 -->
<g id="node5" class="node">
<title>Node5</title>
<g id="a_node5"><a xlink:href="namespacemom__neutral__diffusion.html#a6f91c93a6363fb39395796420f25fad2" target="_top" xlink:title="Returns true if unit tests of neutral_diffusion functions fail. Otherwise returns false.">
<polygon fill="#ffffff" stroke="#000000" points="397,-105 397,-135 546,-135 546,-105 397,-105"/>
<text text-anchor="start" x="405" y="-123" font-family="Helvetica,sans-Serif" font-size="10.00" fill="#000000">mom_neutral_diffusion</text>
<text text-anchor="middle" x="471.5" y="-112" font-family="Helvetica,sans-Serif" font-size="10.00" fill="#000000">::neutral_diffusion_unit_tests</text>
</a>
</g>
</g>
<!-- Node4&#45;&gt;Node5 -->
<g id="edge4" class="edge">
<title>Node4&#45;&gt;Node5</title>
<path fill="none" stroke="#191970" d="M571.5317,-120C563.0744,-120 554.5325,-120 546.1915,-120"/>
<polygon fill="#191970" stroke="#191970" points="571.7867,-123.5001 581.7867,-120 571.7866,-116.5001 571.7867,-123.5001"/>
</g>
<!-- Node6 -->
<g id="node6" class="node">
<title>Node6</title>
<g id="a_node6"><a xlink:href="namespacemom__unit__tests.html#a57645db02bc734c32de50d028ef906ac" target="_top" xlink:title="Calls unit tests for other modules. Note that if a unit test returns true, a FATAL error is triggered...">
<polygon fill="#ffffff" stroke="#000000" points="250,-105 250,-135 361,-135 361,-105 250,-105"/>
<text text-anchor="start" x="258" y="-123" font-family="Helvetica,sans-Serif" font-size="10.00" fill="#000000">mom_unit_tests::unit</text>
<text text-anchor="middle" x="305.5" y="-112" font-family="Helvetica,sans-Serif" font-size="10.00" fill="#000000">_tests</text>
</a>
</g>
</g>
<!-- Node5&#45;&gt;Node6 -->
<g id="edge5" class="edge">
<title>Node5&#45;&gt;Node6</title>
<path fill="none" stroke="#191970" d="M386.7032,-120C378.1315,-120 369.5853,-120 361.4307,-120"/>
<polygon fill="#191970" stroke="#191970" points="386.7555,-123.5001 396.7554,-120 386.7554,-116.5001 386.7555,-123.5001"/>
</g>
<!-- Node7 -->
<g id="node7" class="node">
<title>Node7</title>
<g id="a_node7"><a xlink:href="namespacemom.html#a96708b16215666edbfa5b46228f3a200" target="_top" xlink:title="Initialize MOM, including memory allocation, setting up parameters and diagnostics,...">
<polygon fill="#ffffff" stroke="#000000" points="104,-110.5 104,-129.5 214,-129.5 214,-110.5 104,-110.5"/>
<text text-anchor="middle" x="159" y="-117.5" font-family="Helvetica,sans-Serif" font-size="10.00" fill="#000000">mom::initialize_mom</text>
</a>
</g>
</g>
<!-- Node6&#45;&gt;Node7 -->
<g id="edge6" class="edge">
<title>Node6&#45;&gt;Node7</title>
<path fill="none" stroke="#191970" d="M239.4734,-120C231.0141,-120 222.4251,-120 214.1636,-120"/>
<polygon fill="#191970" stroke="#191970" points="239.6967,-123.5001 249.6967,-120 239.6967,-116.5001 239.6967,-123.5001"/>
</g>
<!-- Node8 -->
<g id="node8" class="node">
<title>Node8</title>
<g id="a_node8"><a xlink:href="MOM__driver_8F90.html#a08fffeb2d8e8acbf9ed4609be6d258c6" target="_top" xlink:title=" ">
<polygon fill="#ffffff" stroke="#000000" points="0,-110.5 0,-129.5 68,-129.5 68,-110.5 0,-110.5"/>
<text text-anchor="middle" x="34" y="-117.5" font-family="Helvetica,sans-Serif" font-size="10.00" fill="#000000">mom_main</text>
</a>
</g>
</g>
<!-- Node7&#45;&gt;Node8 -->
<g id="edge7" class="edge">
<title>Node7&#45;&gt;Node8</title>
<path fill="none" stroke="#191970" d="M93.7848,-120C84.8995,-120 76.0876,-120 68.0691,-120"/>
<polygon fill="#191970" stroke="#191970" points="93.8094,-123.5001 103.8093,-120 93.8093,-116.5001 93.8094,-123.5001"/>
</g>
<!-- Node10 -->
<g id="node10" class="node">
<title>Node10</title>
<g id="a_node10"><a xlink:href="namespacemom__tracer__hor__diff.html#a069e22612062290389c2630c7f90ede2" target="_top" xlink:title="Compute along&#45;coordinate diffusion of all tracers using the diffusivity in CSKhTr,...">
<polygon fill="#ffffff" stroke="#000000" points="414,-34 414,-64 529,-64 529,-34 414,-34"/>
<text text-anchor="start" x="422" y="-52" font-family="Helvetica,sans-Serif" font-size="10.00" fill="#000000">mom_tracer_hor_diff</text>
<text text-anchor="middle" x="471.5" y="-41" font-family="Helvetica,sans-Serif" font-size="10.00" fill="#000000">::tracer_hordiff</text>
</a>
</g>
</g>
<!-- Node9&#45;&gt;Node10 -->
<g id="edge9" class="edge">
<title>Node9&#45;&gt;Node10</title>
<path fill="none" stroke="#191970" d="M756.6762,-26.6332C689.7576,-31.8818 591.2471,-39.6081 529.2748,-44.4686"/>
<polygon fill="#191970" stroke="#191970" points="757.0272,-30.1166 766.7229,-25.8453 756.4798,-23.138 757.0272,-30.1166"/>
</g>
<!-- Node11&#45;&gt;Node4 -->
<g id="edge11" class="edge">
<title>Node11&#45;&gt;Node4</title>
<path fill="none" stroke="#191970" d="M759.7229,-93.5941C744.9892,-97.3632 729.5521,-101.3122 715.2388,-104.9738"/>
<polygon fill="#191970" stroke="#191970" points="760.9678,-96.8885 769.7884,-91.0192 759.233,-90.1068 760.9678,-96.8885"/>
</g>
<!-- Node12 -->
<g id="node12" class="node">
<title>Node12</title>
<g id="a_node12"><a xlink:href="namespacemom__neutral__diffusion.html#ad048cb54d8df3953db6c565a6fcebfb1" target="_top" xlink:title="Update tracer concentration due to neutral diffusion; layer thickness unchanged by this update.">
<polygon fill="#ffffff" stroke="#000000" points="595.5,-55 595.5,-85 717.5,-85 717.5,-55 595.5,-55"/>
<text text-anchor="start" x="603.5" y="-73" font-family="Helvetica,sans-Serif" font-size="10.00" fill="#000000">mom_neutral_diffusion</text>
<text text-anchor="middle" x="656.5" y="-62" font-family="Helvetica,sans-Serif" font-size="10.00" fill="#000000">::neutral_diffusion</text>
</a>
</g>
</g>
<!-- Node11&#45;&gt;Node12 -->
<g id="edge12" class="edge">
<title>Node11&#45;&gt;Node12</title>
<path fill="none" stroke="#191970" d="M757.0242,-73.5067C743.9649,-73.0511 730.4455,-72.5795 717.7178,-72.1355"/>
<polygon fill="#191970" stroke="#191970" points="757.259,-77.0169 767.3749,-73.8677 757.5031,-70.0211 757.259,-77.0169"/>
</g>
<!-- Node12&#45;&gt;Node10 -->
<g id="edge13" class="edge">
<title>Node12&#45;&gt;Node10</title>
<path fill="none" stroke="#191970" d="M585.2311,-61.91C566.646,-59.8004 546.8522,-57.5535 529.0754,-55.5356"/>
<polygon fill="#191970" stroke="#191970" points="585.0804,-65.4153 595.4114,-63.0656 585.87,-58.46 585.0804,-65.4153"/>
</g>
<!-- Node13&#45;&gt;Node4 -->
<g id="edge15" class="edge">
<title>Node13&#45;&gt;Node4</title>
<path fill="none" stroke="#191970" d="M915.7259,-142.746C861.2367,-137.9648 786.3275,-131.3918 731.0433,-126.5409"/>
<polygon fill="#191970" stroke="#191970" points="915.7284,-146.2596 925.9961,-143.6472 916.3403,-139.2864 915.7284,-146.2596"/>
</g>
</g>
</svg>
        <g id="navigator" transform="translate(0 0)" fill="#404254">
                <rect fill="#f2f5e9" fill-opacity="0.5" stroke="#606060" stroke-width=".5" x="0" y="0" width="60" height="60"/>
                <use id="zoomplus" xlink:href="#zoomPlus" x="17" y="9" onmousedown="handleZoom(evt,'in')"/>
                <use id="zoomminus" xlink:href="#zoomMin" x="42" y="9" onmousedown="handleZoom(evt,'out')"/>
                <use id="reset" xlink:href="#resetDef" x="30" y="36" onmousedown="handleReset()"/>
                <g id="arrowUp" xlink:href="#dirArrow" transform="translate(30 24)" onmousedown="handlePan(0,-1)">
                  <use xlink:href="#rim" fill="#404040">
                        <set attributeName="fill" to="#808080" begin="arrowUp.mouseover" end="arrowUp.mouseout"/>
                  </use>
                  <path fill="none" stroke="white" stroke-width="1.5" d="M0,-3.0v7 M-2.5,-0.5L0,-3.0L2.5,-0.5"/>
                </g>
                <g id="arrowRight" xlink:href="#dirArrow" transform="rotate(90) translate(36 -43)" onmousedown="handlePan(1,0)">
                  <use xlink:href="#rim" fill="#404040">
                        <set attributeName="fill" to="#808080" begin="arrowRight.mouseover" end="arrowRight.mouseout"/>
                  </use>
                  <path fill="none" stroke="white" stroke-width="1.5" d="M0,-3.0v7 M-2.5,-0.5L0,-3.0L2.5,-0.5"/>
                </g>
                <g id="arrowDown" xlink:href="#dirArrow" transform="rotate(180) translate(-30 -48)" onmousedown="handlePan(0,1)">
                  <use xlink:href="#rim" fill="#404040">
                        <set attributeName="fill" to="#808080" begin="arrowDown.mouseover" end="arrowDown.mouseout"/>
                  </use>
                  <path fill="none" stroke="white" stroke-width="1.5" d="M0,-3.0v7 M-2.5,-0.5L0,-3.0L2.5,-0.5"/>
                </g>
                <g id="arrowLeft" xlink:href="#dirArrow" transform="rotate(270) translate(-36 17)" onmousedown="handlePan(-1,0)">
                  <use xlink:href="#rim" fill="#404040">
                        <set attributeName="fill" to="#808080" begin="arrowLeft.mouseover" end="arrowLeft.mouseout"/>
                  </use>
                  <path fill="none" stroke="white" stroke-width="1.5" d="M0,-3.0v7 M-2.5,-0.5L0,-3.0L2.5,-0.5"/>
                </g>
        </g>
        <svg viewBox="0 0 15 15" width="100%" height="30px" preserveAspectRatio="xMaxYMin meet">
         <g id="arrow_out" transform="scale(0.3 0.3)">
          <a xlink:href="namespacemom__neutral__diffusion_a6ed3814088af470ad6fc4a3a80926fd7_icgraph_org.svg" target="_base">
           <rect id="button" ry="5" rx="5" y="6" x="6" height="38" width="38"
                fill="#f2f5e9" fill-opacity="0.5" stroke="#606060" stroke-width="1.0"/>
           <path id="arrow"
             d="M 11.500037,31.436501 C 11.940474,20.09759 22.043105,11.32322 32.158766,21.979434 L 37.068811,17.246167 C 37.068811,17.246167 37.088388,32 37.088388,32 L 22.160133,31.978069 C 22.160133,31.978069 26.997745,27.140456 26.997745,27.140456 C 18.528582,18.264221 13.291696,25.230495 11.500037,31.436501 z"
             style="fill:#404040;"/>
          </a>
         </g>
        </svg>
</svg>
