<?xml version="1.0" encoding="UTF-8" standalone="no"?>
<!DOCTYPE svg PUBLIC "-//W3C//DTD SVG 1.1//EN"
 "http://www.w3.org/Graphics/SVG/1.1/DTD/svg11.dtd">
<!-- Generated by graphviz version 2.40.1 (20161225.0304)
 -->
<!-- Title: mom_offline_main::register_diags_offline_transport Pages: 1 -->
<!--zoomable 394 -->
<svg id="main" version="1.1" xmlns="http://www.w3.org/2000/svg" xmlns:xlink="http://www.w3.org/1999/xlink" xml:space="preserve" onload="init(evt)">
<style type="text/css"><![CDATA[
.edge:hover path { stroke: red; }
.edge:hover polygon { stroke: red; fill: red; }
]]></style>
<script type="text/javascript"><![CDATA[
var edges = document.getElementsByTagName('g');
if (edges && edges.length) {
  for (var i=0;i<edges.length;i++) {
    if (edges[i].id.substr(0,4)=='edge') {
      edges[i].setAttribute('class','edge');
    }
  }
}
]]></script>
        <defs>
                <circle id="rim" cx="0" cy="0" r="7"/>
                <circle id="rim2" cx="0" cy="0" r="3.5"/>
                <g id="zoomPlus">
                        <use xlink:href="#rim" fill="#404040">
                                <set attributeName="fill" to="#808080" begin="zoomplus.mouseover" end="zoomplus.mouseout"/>
                        </use>
                        <path d="M-4,0h8M0,-4v8" fill="none" stroke="white" stroke-width="1.5" pointer-events="none"/>
                </g>
                <g id="zoomMin">
                        <use xlink:href="#rim" fill="#404040">
                                <set attributeName="fill" to="#808080" begin="zoomminus.mouseover" end="zoomminus.mouseout"/>
                        </use>
                        <path d="M-4,0h8" fill="none" stroke="white" stroke-width="1.5" pointer-events="none"/>
                </g>
                <g id="dirArrow">
                        <path fill="none" stroke="white" stroke-width="1.5" d="M0,-3.0v7 M-2.5,-0.5L0,-3.0L2.5,-0.5"/>
                </g>
               <g id="resetDef">
                       <use xlink:href="#rim2" fill="#404040">
                               <set attributeName="fill" to="#808080" begin="reset.mouseover" end="reset.mouseout"/>
                       </use>
               </g>
        </defs>

<script type="text/javascript">
var viewWidth = 1218;
var viewHeight = 394;
var sectionId = 'dynsection-10';
</script>
<script xlink:href="svgpan.js"/>
<svg id="graph" class="graph">
<g id="viewport">
<title>mom_offline_main::register_diags_offline_transport</title>
<polygon fill="#ffffff" stroke="transparent" points="-4,4 -4,-390.017 1214,-390.017 1214,4 -4,4"/>
<!-- Node1 -->
<g id="node1" class="node">
<title>Node1</title>
<g id="a_node1"><a xlink:title="Initialize additional diagnostics required for offline tracer transport.">
<polygon fill="#bfbfbf" stroke="#000000" points="0,-258 0,-288 143,-288 143,-258 0,-258"/>
<text text-anchor="start" x="8" y="-276" font-family="Helvetica,sans-Serif" font-size="10.00" fill="#000000">mom_offline_main::register</text>
<text text-anchor="middle" x="71.5" y="-265" font-family="Helvetica,sans-Serif" font-size="10.00" fill="#000000">_diags_offline_transport</text>
</a>
</g>
</g>
<!-- Node2 -->
<g id="node2" class="node">
<title>Node2</title>
<g id="a_node2"><a xlink:href="namespacemom__diag__mediator.html#ada491446bf7216fe101e6b0f6ed551e1" target="_top" xlink:title="Returns the &quot;diag_mediator&quot; handle for a group (native, CMOR, z&#45;coord, ...) of diagnostics derived fr...">
<polygon fill="#ffffff" stroke="#000000" points="179,-258 179,-288 296,-288 296,-258 179,-258"/>
<text text-anchor="start" x="187" y="-276" font-family="Helvetica,sans-Serif" font-size="10.00" fill="#000000">mom_diag_mediator::</text>
<text text-anchor="middle" x="237.5" y="-265" font-family="Helvetica,sans-Serif" font-size="10.00" fill="#000000">register_diag_field</text>
</a>
</g>
</g>
<!-- Node1&#45;&gt;Node2 -->
<g id="edge1" class="edge">
<title>Node1&#45;&gt;Node2</title>
<path fill="none" stroke="#191970" d="M143.3445,-273C151.7544,-273 160.3198,-273 168.6871,-273"/>
<polygon fill="#191970" stroke="#191970" points="168.7712,-276.5001 178.7711,-273 168.7711,-269.5001 168.7712,-276.5001"/>
</g>
<!-- Node3 -->
<g id="node3" class="node">
<title>Node3</title>
<g id="a_node3"><a xlink:href="namespacemom__error__handler.html#a460cfb79a06c29fc249952c2a3710d67" target="_top" xlink:title="This provides a convenient interface for writing an mpp_error message with run&#45;time filter based on a...">
<polygon fill="#ffffff" stroke="#000000" points="944,-193 944,-223 1059,-223 1059,-193 944,-193"/>
<text text-anchor="start" x="952" y="-211" font-family="Helvetica,sans-Serif" font-size="10.00" fill="#000000">mom_error_handler::</text>
<text text-anchor="middle" x="1001.5" y="-200" font-family="Helvetica,sans-Serif" font-size="10.00" fill="#000000">mom_error</text>
</a>
</g>
</g>
<!-- Node2&#45;&gt;Node3 -->
<g id="edge2" class="edge">
<title>Node2&#45;&gt;Node3</title>
<path fill="none" stroke="#191970" d="M261.429,-288.0644C311.6467,-318.1906 432.5694,-383 543.5,-383 543.5,-383 543.5,-383 696.5,-383 791.7784,-383 827.9388,-399.6544 908,-348 950.9928,-320.2616 978.9079,-264.9957 992.2627,-232.8196"/>
<polygon fill="#191970" stroke="#191970" points="995.6268,-233.8331 996.0877,-223.2483 989.1266,-231.2354 995.6268,-233.8331"/>
</g>
<!-- Node5 -->
<g id="node5" class="node">
<title>Node5</title>
<g id="a_node5"><a xlink:href="namespacemom__diag__mediator.html#ae50b35cba800ac5fd8975929fd2b9f4a" target="_top" xlink:title="Returns True if either the native or CMOr version of the diagnostic were registered....">
<polygon fill="#ffffff" stroke="#000000" points="332,-143.5 332,-184.5 449,-184.5 449,-143.5 332,-143.5"/>
<text text-anchor="start" x="340" y="-172.5" font-family="Helvetica,sans-Serif" font-size="10.00" fill="#000000">mom_diag_mediator::</text>
<text text-anchor="start" x="340" y="-161.5" font-family="Helvetica,sans-Serif" font-size="10.00" fill="#000000">register_diag_field</text>
<text text-anchor="middle" x="390.5" y="-150.5" font-family="Helvetica,sans-Serif" font-size="10.00" fill="#000000">_expand_cmor</text>
</a>
</g>
</g>
<!-- Node2&#45;&gt;Node5 -->
<g id="edge4" class="edge">
<title>Node2&#45;&gt;Node5</title>
<path fill="none" stroke="#191970" d="M258.774,-257.844C283.1369,-240.4875 323.5008,-211.7314 353.1383,-190.6172"/>
<polygon fill="#191970" stroke="#191970" points="355.462,-193.2591 361.5758,-184.6062 351.4004,-187.5579 355.462,-193.2591"/>
</g>
<!-- Node4 -->
<g id="node4" class="node">
<title>Node4</title>
<g id="a_node4"><a xlink:href="namespacemom__error__handler.html#ad5f00a53059c72fe2332d1436c80ca71" target="_top" xlink:title="This returns .true. if the current PE is the root PE.">
<polygon fill="#ffffff" stroke="#000000" points="1095,-149 1095,-179 1210,-179 1210,-149 1095,-149"/>
<text text-anchor="start" x="1103" y="-167" font-family="Helvetica,sans-Serif" font-size="10.00" fill="#000000">mom_error_handler::</text>
<text text-anchor="middle" x="1152.5" y="-156" font-family="Helvetica,sans-Serif" font-size="10.00" fill="#000000">is_root_pe</text>
</a>
</g>
</g>
<!-- Node3&#45;&gt;Node4 -->
<g id="edge3" class="edge">
<title>Node3&#45;&gt;Node4</title>
<path fill="none" stroke="#191970" d="M1053.0433,-192.9808C1065.2454,-189.4252 1078.3788,-185.5982 1090.9746,-181.9279"/>
<polygon fill="#191970" stroke="#191970" points="1092.3113,-185.1841 1100.9328,-179.0262 1090.3529,-178.4636 1092.3113,-185.1841"/>
</g>
<!-- Node5&#45;&gt;Node4 -->
<g id="edge16" class="edge">
<title>Node5&#45;&gt;Node4</title>
<path fill="none" stroke="#191970" d="M449.0883,-150.4995C510.4165,-137.5655 609.6865,-120 696.5,-120 696.5,-120 696.5,-120 849.5,-120 931.0715,-120 1023.7253,-135.8105 1084.864,-148.4766"/>
<polygon fill="#191970" stroke="#191970" points="1084.2683,-151.9278 1094.7744,-150.5595 1085.7081,-145.0775 1084.2683,-151.9278"/>
</g>
<!-- Node6 -->
<g id="node6" class="node">
<title>Node6</title>
<g id="a_node6"><a xlink:href="namespacemom__diag__mediator.html#a8415b33a337b1fbc7535688eca85ab37" target="_top" xlink:title="Create a diagnostic type and attached to list.">
<polygon fill="#ffffff" stroke="#000000" points="485,-262 485,-292 602,-292 602,-262 485,-262"/>
<text text-anchor="start" x="493" y="-280" font-family="Helvetica,sans-Serif" font-size="10.00" fill="#000000">mom_diag_mediator::</text>
<text text-anchor="middle" x="543.5" y="-269" font-family="Helvetica,sans-Serif" font-size="10.00" fill="#000000">add_diag_to_list</text>
</a>
</g>
</g>
<!-- Node5&#45;&gt;Node6 -->
<g id="edge5" class="edge">
<title>Node5&#45;&gt;Node6</title>
<path fill="none" stroke="#191970" d="M418.5626,-184.7259C445.9261,-204.9356 487.3354,-235.5189 514.8858,-255.8666"/>
<polygon fill="#191970" stroke="#191970" points="512.8367,-258.7044 522.9601,-261.83 516.9954,-253.0736 512.8367,-258.7044"/>
</g>
<!-- Node11 -->
<g id="node11" class="node">
<title>Node11</title>
<g id="a_node11"><a xlink:href="namespacemom__diag__mediator.html#a14d405e0958e6e58797253c52c666cdb" target="_top" xlink:title="Adds the encoded &quot;cell_methods&quot; for a diagnostics as a diag% property This allows access to the cell_...">
<polygon fill="#ffffff" stroke="#000000" points="791,-193 791,-223 908,-223 908,-193 791,-193"/>
<text text-anchor="start" x="799" y="-211" font-family="Helvetica,sans-Serif" font-size="10.00" fill="#000000">mom_diag_mediator::</text>
<text text-anchor="middle" x="849.5" y="-200" font-family="Helvetica,sans-Serif" font-size="10.00" fill="#000000">add_xyz_method</text>
</a>
</g>
</g>
<!-- Node5&#45;&gt;Node11 -->
<g id="edge12" class="edge">
<title>Node5&#45;&gt;Node11</title>
<path fill="none" stroke="#191970" d="M449.1496,-173.2935C460.9991,-175.0006 473.384,-176.663 485,-178 587.8686,-189.8405 707.593,-198.7697 780.9532,-203.6918"/>
<polygon fill="#191970" stroke="#191970" points="780.7801,-207.1879 790.9904,-204.3596 781.2448,-200.2034 780.7801,-207.1879"/>
</g>
<!-- Node12 -->
<g id="node12" class="node">
<title>Node12</title>
<g id="a_node12"><a xlink:href="namespacemom__diag__mediator.html#ae0f04c145cb120fc2ab6cbfe9f166392" target="_top" xlink:title="Attaches &quot;cell_methods&quot; attribute to a variable based on defaults for axes_grp or optional arguments.">
<polygon fill="#ffffff" stroke="#000000" points="638,-149 638,-179 755,-179 755,-149 638,-149"/>
<text text-anchor="start" x="646" y="-167" font-family="Helvetica,sans-Serif" font-size="10.00" fill="#000000">mom_diag_mediator::</text>
<text text-anchor="middle" x="696.5" y="-156" font-family="Helvetica,sans-Serif" font-size="10.00" fill="#000000">attach_cell_methods</text>
</a>
</g>
</g>
<!-- Node5&#45;&gt;Node12 -->
<g id="edge14" class="edge">
<title>Node5&#45;&gt;Node12</title>
<path fill="none" stroke="#191970" d="M449.1378,-164C500.0854,-164 573.9353,-164 627.6726,-164"/>
<polygon fill="#191970" stroke="#191970" points="627.8004,-167.5001 637.8004,-164 627.8003,-160.5001 627.8004,-167.5001"/>
</g>
<!-- Node13 -->
<g id="node13" class="node">
<title>Node13</title>
<g id="a_node13"><a xlink:href="namespacemom__diag__mediator.html#a65fe8d329cf5dbfd08c98874a7a64407" target="_top" xlink:title="Log a diagnostic to the available diagnostics file.">
<polygon fill="#ffffff" stroke="#000000" points="485,-61 485,-91 602,-91 602,-61 485,-61"/>
<text text-anchor="start" x="493" y="-79" font-family="Helvetica,sans-Serif" font-size="10.00" fill="#000000">mom_diag_mediator::</text>
<text text-anchor="middle" x="543.5" y="-68" font-family="Helvetica,sans-Serif" font-size="10.00" fill="#000000">log_available_diag</text>
</a>
</g>
</g>
<!-- Node5&#45;&gt;Node13 -->
<g id="edge17" class="edge">
<title>Node5&#45;&gt;Node13</title>
<path fill="none" stroke="#191970" d="M422.9336,-143.2441C441.003,-131.8967 464.0251,-117.7921 485,-106 491.0162,-102.6177 497.4542,-99.1594 503.7791,-95.8498"/>
<polygon fill="#191970" stroke="#191970" points="505.6266,-98.8348 512.9024,-91.1333 502.4119,-92.6165 505.6266,-98.8348"/>
</g>
<!-- Node15 -->
<g id="node15" class="node">
<title>Node15</title>
<g id="a_node15"><a xlink:href="namespacemom__diag__mediator.html#aca4a32fea8dade9f51e076a56b9bad2b" target="_top" xlink:title="Returns an FMS id from register_diag_field_fms (the diag_manager routine) after expanding axes (axes&#45;...">
<polygon fill="#ffffff" stroke="#000000" points="485,-.5 485,-41.5 602,-41.5 602,-.5 485,-.5"/>
<text text-anchor="start" x="493" y="-29.5" font-family="Helvetica,sans-Serif" font-size="10.00" fill="#000000">mom_diag_mediator::</text>
<text text-anchor="start" x="493" y="-18.5" font-family="Helvetica,sans-Serif" font-size="10.00" fill="#000000">register_diag_field</text>
<text text-anchor="middle" x="543.5" y="-7.5" font-family="Helvetica,sans-Serif" font-size="10.00" fill="#000000">_expand_axes</text>
</a>
</g>
</g>
<!-- Node5&#45;&gt;Node15 -->
<g id="edge19" class="edge">
<title>Node5&#45;&gt;Node15</title>
<path fill="none" stroke="#191970" d="M403.8289,-143.4981C420.5061,-119.0633 451.0332,-78.1369 485,-51 486.5717,-49.7443 488.2043,-48.5194 489.8819,-47.3268"/>
<polygon fill="#191970" stroke="#191970" points="492.1194,-50.0456 498.572,-41.6423 488.2874,-44.1875 492.1194,-50.0456"/>
</g>
<!-- Node7 -->
<g id="node7" class="node">
<title>Node7</title>
<g id="a_node7"><a xlink:href="namespacemom__diag__mediator.html#a1b0bed2113a0c268eafd1bafbb48bd4f" target="_top" xlink:title="Make a new diagnostic. Either use memory which is in the array of &#39;primary&#39; diagnostics,...">
<polygon fill="#ffffff" stroke="#000000" points="638,-237 638,-267 755,-267 755,-237 638,-237"/>
<text text-anchor="start" x="646" y="-255" font-family="Helvetica,sans-Serif" font-size="10.00" fill="#000000">mom_diag_mediator::</text>
<text text-anchor="middle" x="696.5" y="-244" font-family="Helvetica,sans-Serif" font-size="10.00" fill="#000000">alloc_diag_with_id</text>
</a>
</g>
</g>
<!-- Node6&#45;&gt;Node7 -->
<g id="edge6" class="edge">
<title>Node6&#45;&gt;Node7</title>
<path fill="none" stroke="#191970" d="M602.2162,-267.4058C610.6354,-266.0302 619.3589,-264.6048 627.9473,-263.2014"/>
<polygon fill="#191970" stroke="#191970" points="628.6362,-266.6354 637.9409,-261.5685 627.5073,-259.727 628.6362,-266.6354"/>
</g>
<!-- Node8 -->
<g id="node8" class="node">
<title>Node8</title>
<g id="a_node8"><a xlink:href="namespacemom__error__handler.html#a33bcd190d460095104954f2e654f9fe6" target="_top" xlink:title="Issues a FATAL error if the assertion fails, i.e. the first argument is false.">
<polygon fill="#ffffff" stroke="#000000" points="792,-308 792,-338 907,-338 907,-308 792,-308"/>
<text text-anchor="start" x="800" y="-326" font-family="Helvetica,sans-Serif" font-size="10.00" fill="#000000">mom_error_handler::</text>
<text text-anchor="middle" x="849.5" y="-315" font-family="Helvetica,sans-Serif" font-size="10.00" fill="#000000">assert</text>
</a>
</g>
</g>
<!-- Node6&#45;&gt;Node8 -->
<g id="edge7" class="edge">
<title>Node6&#45;&gt;Node8</title>
<path fill="none" stroke="#191970" d="M565.2057,-292.1059C583.6239,-303.9476 611.2477,-319.4766 638,-326 684.9673,-337.4527 739.5593,-336.3332 781.5141,-332.5431"/>
<polygon fill="#191970" stroke="#191970" points="782.01,-336.0115 791.6228,-331.5567 781.3301,-329.0446 782.01,-336.0115"/>
</g>
<!-- Node9 -->
<g id="node9" class="node">
<title>Node9</title>
<g id="a_node9"><a xlink:href="namespacemom__diag__mediator.html#a3f7442639213320f7429e2288a79fda2" target="_top" xlink:title="Returns a new diagnostic id, it may be necessary to expand the diagnostics array.">
<polygon fill="#ffffff" stroke="#000000" points="638,-286 638,-316 755,-316 755,-286 638,-286"/>
<text text-anchor="start" x="646" y="-304" font-family="Helvetica,sans-Serif" font-size="10.00" fill="#000000">mom_diag_mediator::</text>
<text text-anchor="middle" x="696.5" y="-293" font-family="Helvetica,sans-Serif" font-size="10.00" fill="#000000">get_new_diag_id</text>
</a>
</g>
</g>
<!-- Node6&#45;&gt;Node9 -->
<g id="edge9" class="edge">
<title>Node6&#45;&gt;Node9</title>
<path fill="none" stroke="#191970" d="M602.2162,-286.2104C610.6354,-287.531 619.3589,-288.8994 627.9473,-290.2466"/>
<polygon fill="#191970" stroke="#191970" points="627.5193,-293.7222 637.9409,-291.8143 628.6041,-286.8068 627.5193,-293.7222"/>
</g>
<!-- Node8&#45;&gt;Node3 -->
<g id="edge8" class="edge">
<title>Node8&#45;&gt;Node3</title>
<path fill="none" stroke="#191970" d="M891.7229,-307.9722C897.3722,-305.3083 902.9516,-302.3118 908,-299 937.1313,-279.8898 965.0091,-250.894 982.6238,-230.7897"/>
<polygon fill="#191970" stroke="#191970" points="985.4268,-232.8983 989.2965,-223.0354 980.1208,-228.3324 985.4268,-232.8983"/>
</g>
<!-- Node9&#45;&gt;Node8 -->
<g id="edge10" class="edge">
<title>Node9&#45;&gt;Node8</title>
<path fill="none" stroke="#191970" d="M755.2162,-309.4429C763.9719,-310.7018 773.0565,-312.0081 781.9761,-313.2907"/>
<polygon fill="#191970" stroke="#191970" points="781.5538,-316.7659 791.9502,-314.7249 782.5502,-309.8371 781.5538,-316.7659"/>
</g>
<!-- Node10 -->
<g id="node10" class="node">
<title>Node10</title>
<g id="a_node10"><a xlink:href="namespacemom__diag__mediator.html#a883862f004e30bbc5211f38635511ba0" target="_top" xlink:title="Initializes a diag_type (used after allocating new memory)">
<polygon fill="#ffffff" stroke="#000000" points="791,-259 791,-289 908,-289 908,-259 791,-259"/>
<text text-anchor="start" x="799" y="-277" font-family="Helvetica,sans-Serif" font-size="10.00" fill="#000000">mom_diag_mediator::</text>
<text text-anchor="middle" x="849.5" y="-266" font-family="Helvetica,sans-Serif" font-size="10.00" fill="#000000">initialize_diag_type</text>
</a>
</g>
</g>
<!-- Node9&#45;&gt;Node10 -->
<g id="edge11" class="edge">
<title>Node9&#45;&gt;Node10</title>
<path fill="none" stroke="#191970" d="M755.2162,-290.6383C763.6354,-289.1526 772.3589,-287.6131 780.9473,-286.0975"/>
<polygon fill="#191970" stroke="#191970" points="781.7013,-289.5186 790.9409,-284.334 780.4848,-282.6252 781.7013,-289.5186"/>
</g>
<!-- Node11&#45;&gt;Node3 -->
<g id="edge13" class="edge">
<title>Node11&#45;&gt;Node3</title>
<path fill="none" stroke="#191970" d="M908.2672,-208C916.5821,-208 925.1875,-208 933.6562,-208"/>
<polygon fill="#191970" stroke="#191970" points="933.8897,-211.5001 943.8897,-208 933.8897,-204.5001 933.8897,-211.5001"/>
</g>
<!-- Node12&#45;&gt;Node3 -->
<g id="edge15" class="edge">
<title>Node12&#45;&gt;Node3</title>
<path fill="none" stroke="#191970" d="M755.1807,-167.0695C797.8123,-169.9006 856.7698,-175.0598 908,-184 918.1339,-185.7685 928.7837,-188.0687 939.1192,-190.544"/>
<polygon fill="#191970" stroke="#191970" points="938.3579,-193.9611 948.9052,-192.9592 940.0352,-187.165 938.3579,-193.9611"/>
</g>
<!-- Node14 -->
<g id="node14" class="node">
<title>Node14</title>
<g id="a_node14"><a xlink:href="namespacemom__diag__mediator.html#ae002ca447acba252bf7bdc042e75a01e" target="_top" xlink:title="Describe an option setting in the diagnostic files.">
<polygon fill="#ffffff" stroke="#000000" points="638,-61 638,-91 755,-91 755,-61 638,-61"/>
<text text-anchor="start" x="646" y="-79" font-family="Helvetica,sans-Serif" font-size="10.00" fill="#000000">mom_diag_mediator::</text>
<text text-anchor="middle" x="696.5" y="-68" font-family="Helvetica,sans-Serif" font-size="10.00" fill="#000000">describe_option</text>
</a>
</g>
</g>
<!-- Node13&#45;&gt;Node14 -->
<g id="edge18" class="edge">
<title>Node13&#45;&gt;Node14</title>
<path fill="none" stroke="#191970" d="M602.2162,-76C610.5439,-76 619.1693,-76 627.6671,-76"/>
<polygon fill="#191970" stroke="#191970" points="627.9409,-79.5001 637.9409,-76 627.9409,-72.5001 627.9409,-79.5001"/>
</g>
</g>
</svg>
        <g id="navigator" transform="translate(0 0)" fill="#404254">
                <rect fill="#f2f5e9" fill-opacity="0.5" stroke="#606060" stroke-width=".5" x="0" y="0" width="60" height="60"/>
                <use id="zoomplus" xlink:href="#zoomPlus" x="17" y="9" onmousedown="handleZoom(evt,'in')"/>
                <use id="zoomminus" xlink:href="#zoomMin" x="42" y="9" onmousedown="handleZoom(evt,'out')"/>
                <use id="reset" xlink:href="#resetDef" x="30" y="36" onmousedown="handleReset()"/>
                <g id="arrowUp" xlink:href="#dirArrow" transform="translate(30 24)" onmousedown="handlePan(0,-1)">
                  <use xlink:href="#rim" fill="#404040">
                        <set attributeName="fill" to="#808080" begin="arrowUp.mouseover" end="arrowUp.mouseout"/>
                  </use>
                  <path fill="none" stroke="white" stroke-width="1.5" d="M0,-3.0v7 M-2.5,-0.5L0,-3.0L2.5,-0.5"/>
                </g>
                <g id="arrowRight" xlink:href="#dirArrow" transform="rotate(90) translate(36 -43)" onmousedown="handlePan(1,0)">
                  <use xlink:href="#rim" fill="#404040">
                        <set attributeName="fill" to="#808080" begin="arrowRight.mouseover" end="arrowRight.mouseout"/>
                  </use>
                  <path fill="none" stroke="white" stroke-width="1.5" d="M0,-3.0v7 M-2.5,-0.5L0,-3.0L2.5,-0.5"/>
                </g>
                <g id="arrowDown" xlink:href="#dirArrow" transform="rotate(180) translate(-30 -48)" onmousedown="handlePan(0,1)">
                  <use xlink:href="#rim" fill="#404040">
                        <set attributeName="fill" to="#808080" begin="arrowDown.mouseover" end="arrowDown.mouseout"/>
                  </use>
                  <path fill="none" stroke="white" stroke-width="1.5" d="M0,-3.0v7 M-2.5,-0.5L0,-3.0L2.5,-0.5"/>
                </g>
                <g id="arrowLeft" xlink:href="#dirArrow" transform="rotate(270) translate(-36 17)" onmousedown="handlePan(-1,0)">
                  <use xlink:href="#rim" fill="#404040">
                        <set attributeName="fill" to="#808080" begin="arrowLeft.mouseover" end="arrowLeft.mouseout"/>
                  </use>
                  <path fill="none" stroke="white" stroke-width="1.5" d="M0,-3.0v7 M-2.5,-0.5L0,-3.0L2.5,-0.5"/>
                </g>
        </g>
        <svg viewBox="0 0 15 15" width="100%" height="30px" preserveAspectRatio="xMaxYMin meet">
         <g id="arrow_out" transform="scale(0.3 0.3)">
          <a xlink:href="namespacemom__offline__main_a0adf88ec8f84684573c1bafd91b22cf6_cgraph_org.svg" target="_base">
           <rect id="button" ry="5" rx="5" y="6" x="6" height="38" width="38"
                fill="#f2f5e9" fill-opacity="0.5" stroke="#606060" stroke-width="1.0"/>
           <path id="arrow"
             d="M 11.500037,31.436501 C 11.940474,20.09759 22.043105,11.32322 32.158766,21.979434 L 37.068811,17.246167 C 37.068811,17.246167 37.088388,32 37.088388,32 L 22.160133,31.978069 C 22.160133,31.978069 26.997745,27.140456 26.997745,27.140456 C 18.528582,18.264221 13.291696,25.230495 11.500037,31.436501 z"
             style="fill:#404040;"/>
          </a>
         </g>
        </svg>
</svg>
