<?xml version="1.0" encoding="UTF-8" standalone="no"?>
<!DOCTYPE svg PUBLIC "-//W3C//DTD SVG 1.1//EN"
 "http://www.w3.org/Graphics/SVG/1.1/DTD/svg11.dtd">
<!-- Generated by graphviz version 2.40.1 (20161225.0304)
 -->
<!-- Title: mom_pressureforce_afv::pressureforce_afv_nonbouss Pages: 1 -->
<!--zoomable 332 -->
<svg id="main" version="1.1" xmlns="http://www.w3.org/2000/svg" xmlns:xlink="http://www.w3.org/1999/xlink" xml:space="preserve" onload="init(evt)">
<style type="text/css"><![CDATA[
.edge:hover path { stroke: red; }
.edge:hover polygon { stroke: red; fill: red; }
]]></style>
<script type="text/javascript"><![CDATA[
var edges = document.getElementsByTagName('g');
if (edges && edges.length) {
  for (var i=0;i<edges.length;i++) {
    if (edges[i].id.substr(0,4)=='edge') {
      edges[i].setAttribute('class','edge');
    }
  }
}
]]></script>
        <defs>
                <circle id="rim" cx="0" cy="0" r="7"/>
                <circle id="rim2" cx="0" cy="0" r="3.5"/>
                <g id="zoomPlus">
                        <use xlink:href="#rim" fill="#404040">
                                <set attributeName="fill" to="#808080" begin="zoomplus.mouseover" end="zoomplus.mouseout"/>
                        </use>
                        <path d="M-4,0h8M0,-4v8" fill="none" stroke="white" stroke-width="1.5" pointer-events="none"/>
                </g>
                <g id="zoomMin">
                        <use xlink:href="#rim" fill="#404040">
                                <set attributeName="fill" to="#808080" begin="zoomminus.mouseover" end="zoomminus.mouseout"/>
                        </use>
                        <path d="M-4,0h8" fill="none" stroke="white" stroke-width="1.5" pointer-events="none"/>
                </g>
                <g id="dirArrow">
                        <path fill="none" stroke="white" stroke-width="1.5" d="M0,-3.0v7 M-2.5,-0.5L0,-3.0L2.5,-0.5"/>
                </g>
               <g id="resetDef">
                       <use xlink:href="#rim2" fill="#404040">
                               <set attributeName="fill" to="#808080" begin="reset.mouseover" end="reset.mouseout"/>
                       </use>
               </g>
        </defs>

<script type="text/javascript">
var viewWidth = 968;
var viewHeight = 332;
var sectionId = 'dynsection-4';
</script>
<script xlink:href="svgpan.js"/>
<svg id="graph" class="graph">
<g id="viewport">
<title>mom_pressureforce_afv::pressureforce_afv_nonbouss</title>
<polygon fill="#ffffff" stroke="transparent" points="-4,4 -4,-327.5 964,-327.5 964,4 -4,4"/>
<!-- Node1 -->
<g id="node1" class="node">
<title>Node1</title>
<g id="a_node1"><a xlink:title="Non&#45;Boussinesq analytically&#45;integrated finite volume form of pressure gradient.">
<polygon fill="#bfbfbf" stroke="#000000" points="0,-180 0,-210 148,-210 148,-180 0,-180"/>
<text text-anchor="start" x="8" y="-198" font-family="Helvetica,sans-Serif" font-size="10.00" fill="#000000">mom_pressureforce_afv</text>
<text text-anchor="middle" x="74" y="-187" font-family="Helvetica,sans-Serif" font-size="10.00" fill="#000000">::pressureforce_afv_nonbouss</text>
</a>
</g>
</g>
<!-- Node2 -->
<g id="node2" class="node">
<title>Node2</title>
<g id="a_node2"><a xlink:href="namespacemom__tidal__forcing.html#a9614ae35fac1d880d5daacbd60f3d47a" target="_top" xlink:title="This subroutine calculates the geopotential anomalies that drive the tides, including self&#45;attraction...">
<polygon fill="#ffffff" stroke="#000000" points="215,-293 215,-323 317,-323 317,-293 215,-293"/>
<text text-anchor="start" x="223" y="-311" font-family="Helvetica,sans-Serif" font-size="10.00" fill="#000000">mom_tidal_forcing::</text>
<text text-anchor="middle" x="266" y="-300" font-family="Helvetica,sans-Serif" font-size="10.00" fill="#000000">calc_tidal_forcing</text>
</a>
</g>
</g>
<!-- Node1&#45;&gt;Node2 -->
<g id="edge1" class="edge">
<title>Node1&#45;&gt;Node2</title>
<path fill="none" stroke="#191970" d="M90.8079,-210.2232C111.4933,-228.3327 148.2805,-258.5528 184,-278 191.464,-282.0637 199.5914,-285.7863 207.7337,-289.1223"/>
<polygon fill="#191970" stroke="#191970" points="206.6725,-292.4656 217.2601,-292.8582 209.2282,-285.9488 206.6725,-292.4656"/>
</g>
<!-- Node3 -->
<g id="node3" class="node">
<title>Node3</title>
<g id="a_node3"><a xlink:href="namespacemom__error__handler.html#a460cfb79a06c29fc249952c2a3710d67" target="_top" xlink:title="This provides a convenient interface for writing an mpp_error message with run&#45;time filter based on a...">
<polygon fill="#ffffff" stroke="#000000" points="708,-133 708,-163 814,-163 814,-133 708,-133"/>
<text text-anchor="start" x="716" y="-151" font-family="Helvetica,sans-Serif" font-size="10.00" fill="#000000">mom_error_handler::</text>
<text text-anchor="middle" x="761" y="-140" font-family="Helvetica,sans-Serif" font-size="10.00" fill="#000000">mom_error</text>
</a>
</g>
</g>
<!-- Node1&#45;&gt;Node3 -->
<g id="edge2" class="edge">
<title>Node1&#45;&gt;Node3</title>
<path fill="none" stroke="#191970" d="M138.2046,-210.0211C223.6031,-228.2309 379.348,-255.286 513,-245 582.5043,-239.6509 604.0554,-248.7586 668,-221 695.4304,-209.0923 721.7595,-187.0956 739.357,-170.3495"/>
<polygon fill="#191970" stroke="#191970" points="742.0917,-172.5709 746.8005,-163.0799 737.2008,-167.563 742.0917,-172.5709"/>
</g>
<!-- Node5 -->
<g id="node5" class="node">
<title>Node5</title>
<g id="a_node5"><a xlink:href="namespacemom__ale.html#a91746417ee4d7c78f6571bf0fed7d46f" target="_top" xlink:title="Use plm reconstruction for pressure gradient (determine edge values) By using a PLM (limited piecewis...">
<polygon fill="#ffffff" stroke="#000000" points="185.5,-185.5 185.5,-204.5 346.5,-204.5 346.5,-185.5 185.5,-185.5"/>
<text text-anchor="middle" x="266" y="-192.5" font-family="Helvetica,sans-Serif" font-size="10.00" fill="#000000">mom_ale::pressure_gradient_plm</text>
</a>
</g>
</g>
<!-- Node1&#45;&gt;Node5 -->
<g id="edge4" class="edge">
<title>Node1&#45;&gt;Node5</title>
<path fill="none" stroke="#191970" d="M148.2322,-195C157.0493,-195 166.125,-195 175.1401,-195"/>
<polygon fill="#191970" stroke="#191970" points="175.2757,-198.5001 185.2757,-195 175.2756,-191.5001 175.2757,-198.5001"/>
</g>
<!-- Node8 -->
<g id="node8" class="node">
<title>Node8</title>
<g id="a_node8"><a xlink:href="namespacemom__ale.html#acf43bf9f59c68caaff5403976c200ba4" target="_top" xlink:title="Use ppm reconstruction for pressure gradient (determine edge values) By using a PPM (limited piecewis...">
<polygon fill="#ffffff" stroke="#000000" points="184,-112.5 184,-131.5 348,-131.5 348,-112.5 184,-112.5"/>
<text text-anchor="middle" x="266" y="-119.5" font-family="Helvetica,sans-Serif" font-size="10.00" fill="#000000">mom_ale::pressure_gradient_ppm</text>
</a>
</g>
</g>
<!-- Node1&#45;&gt;Node8 -->
<g id="edge7" class="edge">
<title>Node1&#45;&gt;Node8</title>
<path fill="none" stroke="#191970" d="M113.7825,-179.8744C148.4233,-166.7037 198.1425,-147.8 231.2213,-135.2231"/>
<polygon fill="#191970" stroke="#191970" points="232.8145,-138.3619 240.9178,-131.5364 230.3268,-131.8189 232.8145,-138.3619"/>
</g>
<!-- Node18 -->
<g id="node18" class="node">
<title>Node18</title>
<g id="a_node18"><a xlink:href="namespacemom__pressureforce__mont.html#a297cdf6e4eb83d250444c5f527a8a232" target="_top" xlink:title="Determines the partial derivative of the acceleration due to pressure forces with the column mass.">
<polygon fill="#ffffff" stroke="#000000" points="201,-63 201,-93 331,-93 331,-63 201,-63"/>
<text text-anchor="start" x="209" y="-81" font-family="Helvetica,sans-Serif" font-size="10.00" fill="#000000">mom_pressureforce_mont</text>
<text text-anchor="middle" x="266" y="-70" font-family="Helvetica,sans-Serif" font-size="10.00" fill="#000000">::set_pbce_nonbouss</text>
</a>
</g>
</g>
<!-- Node1&#45;&gt;Node18 -->
<g id="edge18" class="edge">
<title>Node1&#45;&gt;Node18</title>
<path fill="none" stroke="#191970" d="M88.224,-179.7739C107.9252,-159.523 145.4678,-123.8617 184,-103 188.0102,-100.8288 192.2352,-98.8192 196.566,-96.9637"/>
<polygon fill="#191970" stroke="#191970" points="198.174,-100.0909 206.1739,-93.1446 195.5883,-93.586 198.174,-100.0909"/>
</g>
<!-- Node4 -->
<g id="node4" class="node">
<title>Node4</title>
<g id="a_node4"><a xlink:href="namespacemom__error__handler.html#ad5f00a53059c72fe2332d1436c80ca71" target="_top" xlink:title="This returns .true. if the current PE is the root PE.">
<polygon fill="#ffffff" stroke="#000000" points="854,-133 854,-163 960,-163 960,-133 854,-133"/>
<text text-anchor="start" x="862" y="-151" font-family="Helvetica,sans-Serif" font-size="10.00" fill="#000000">mom_error_handler::</text>
<text text-anchor="middle" x="907" y="-140" font-family="Helvetica,sans-Serif" font-size="10.00" fill="#000000">is_root_pe</text>
</a>
</g>
</g>
<!-- Node3&#45;&gt;Node4 -->
<g id="edge3" class="edge">
<title>Node3&#45;&gt;Node4</title>
<path fill="none" stroke="#191970" d="M814.1224,-148C823.6834,-148 833.7369,-148 843.5557,-148"/>
<polygon fill="#191970" stroke="#191970" points="843.6726,-151.5001 853.6725,-148 843.6725,-144.5001 843.6726,-151.5001"/>
</g>
<!-- Node6 -->
<g id="node6" class="node">
<title>Node6</title>
<g id="a_node6"><a xlink:href="namespaceplm__functions.html#a7e6d6acb77747f967174265a1bf45784" target="_top" xlink:title="Reconstruction by linear polynomials within boundary cells.">
<polygon fill="#ffffff" stroke="#000000" points="387.5,-205 387.5,-235 509.5,-235 509.5,-205 387.5,-205"/>
<text text-anchor="start" x="395.5" y="-223" font-family="Helvetica,sans-Serif" font-size="10.00" fill="#000000">plm_functions::plm</text>
<text text-anchor="middle" x="448.5" y="-212" font-family="Helvetica,sans-Serif" font-size="10.00" fill="#000000">_boundary_extrapolation</text>
</a>
</g>
</g>
<!-- Node5&#45;&gt;Node6 -->
<g id="edge5" class="edge">
<title>Node5&#45;&gt;Node6</title>
<path fill="none" stroke="#191970" d="M335.516,-204.5227C349.0817,-206.3811 363.3278,-208.3326 376.9579,-210.1997"/>
<polygon fill="#191970" stroke="#191970" points="376.8568,-213.7185 387.2393,-211.6081 377.8069,-206.7832 376.8568,-213.7185"/>
</g>
<!-- Node7 -->
<g id="node7" class="node">
<title>Node7</title>
<g id="a_node7"><a xlink:href="namespaceplm__functions.html#afc5335533d6ae9896bf0d869fa5a25e9" target="_top" xlink:title="Reconstruction by linear polynomials within each cell.">
<polygon fill="#ffffff" stroke="#000000" points="399,-156 399,-186 498,-186 498,-156 399,-156"/>
<text text-anchor="start" x="407" y="-174" font-family="Helvetica,sans-Serif" font-size="10.00" fill="#000000">plm_functions::plm</text>
<text text-anchor="middle" x="448.5" y="-163" font-family="Helvetica,sans-Serif" font-size="10.00" fill="#000000">_reconstruction</text>
</a>
</g>
</g>
<!-- Node5&#45;&gt;Node7 -->
<g id="edge6" class="edge">
<title>Node5&#45;&gt;Node7</title>
<path fill="none" stroke="#191970" d="M338.391,-185.4801C355.0446,-183.29 372.5745,-180.9847 388.6289,-178.8735"/>
<polygon fill="#191970" stroke="#191970" points="389.4835,-182.2913 398.9418,-177.5172 388.5707,-175.3511 389.4835,-182.2913"/>
</g>
<!-- Node9 -->
<g id="node9" class="node">
<title>Node9</title>
<g id="a_node9"><a xlink:href="namespaceregrid__edge__values.html#a0c268712aaf87b3597cef51c85fb32cb" target="_top" xlink:title="Compute ih4 edge values (implicit fourth order accurate) in the same units as h.">
<polygon fill="#ffffff" stroke="#000000" points="384,-107 384,-137 513,-137 513,-107 384,-107"/>
<text text-anchor="start" x="392" y="-125" font-family="Helvetica,sans-Serif" font-size="10.00" fill="#000000">regrid_edge_values</text>
<text text-anchor="middle" x="448.5" y="-114" font-family="Helvetica,sans-Serif" font-size="10.00" fill="#000000">::edge_values_implicit_h4</text>
</a>
</g>
</g>
<!-- Node8&#45;&gt;Node9 -->
<g id="edge8" class="edge">
<title>Node8&#45;&gt;Node9</title>
<path fill="none" stroke="#191970" d="M348.174,-122C356.649,-122 365.2294,-122 373.619,-122"/>
<polygon fill="#191970" stroke="#191970" points="373.7379,-125.5001 383.7379,-122 373.7378,-118.5001 373.7379,-125.5001"/>
</g>
<!-- Node13 -->
<g id="node13" class="node">
<title>Node13</title>
<g id="a_node13"><a xlink:href="namespaceppm__functions.html#a47eb8faecb5e25f3939cffa57f9b7cff" target="_top" xlink:title="Reconstruction by parabolas within boundary cells.">
<polygon fill="#ffffff" stroke="#000000" points="387.5,-58 387.5,-88 509.5,-88 509.5,-58 387.5,-58"/>
<text text-anchor="start" x="395.5" y="-76" font-family="Helvetica,sans-Serif" font-size="10.00" fill="#000000">ppm_functions::ppm</text>
<text text-anchor="middle" x="448.5" y="-65" font-family="Helvetica,sans-Serif" font-size="10.00" fill="#000000">_boundary_extrapolation</text>
</a>
</g>
</g>
<!-- Node8&#45;&gt;Node13 -->
<g id="edge13" class="edge">
<title>Node8&#45;&gt;Node13</title>
<path fill="none" stroke="#191970" d="M306.5417,-112.4662C319.7869,-109.257 334.5474,-105.5798 348,-102 361.0055,-98.5392 374.9034,-94.6517 388.0872,-90.8748"/>
<polygon fill="#191970" stroke="#191970" points="389.3634,-94.1495 398.003,-88.0169 387.4248,-87.4233 389.3634,-94.1495"/>
</g>
<!-- Node14 -->
<g id="node14" class="node">
<title>Node14</title>
<g id="a_node14"><a xlink:href="namespaceppm__functions.html#a23d5e557ad48883c77429ee9bff8b052" target="_top" xlink:title="Builds quadratic polynomials coefficients from cell mean and edge values.">
<polygon fill="#ffffff" stroke="#000000" points="396,-9 396,-39 501,-39 501,-9 396,-9"/>
<text text-anchor="start" x="404" y="-27" font-family="Helvetica,sans-Serif" font-size="10.00" fill="#000000">ppm_functions::ppm</text>
<text text-anchor="middle" x="448.5" y="-16" font-family="Helvetica,sans-Serif" font-size="10.00" fill="#000000">_reconstruction</text>
</a>
</g>
</g>
<!-- Node8&#45;&gt;Node14 -->
<g id="edge14" class="edge">
<title>Node8&#45;&gt;Node14</title>
<path fill="none" stroke="#191970" d="M327.335,-112.4681C334.6699,-109.7922 341.7589,-106.3715 348,-102 371.6255,-85.452 361.3823,-65.9008 384,-48 385.7508,-46.6143 387.5897,-45.3031 389.4944,-44.0628"/>
<polygon fill="#191970" stroke="#191970" points="391.2675,-47.0807 398.1992,-39.0681 387.7837,-41.0092 391.2675,-47.0807"/>
</g>
<!-- Node10 -->
<g id="node10" class="node">
<title>Node10</title>
<g id="a_node10"><a xlink:href="namespacepolynomial__functions.html#adb2b5d18db527314545e8e21638a2872" target="_top" xlink:title="Pointwise evaluation of a polynomial at x.">
<polygon fill="#ffffff" stroke="#000000" points="549,-181 549,-211 668,-211 668,-181 549,-181"/>
<text text-anchor="start" x="557" y="-199" font-family="Helvetica,sans-Serif" font-size="10.00" fill="#000000">polynomial_functions</text>
<text text-anchor="middle" x="608.5" y="-188" font-family="Helvetica,sans-Serif" font-size="10.00" fill="#000000">::evaluation_polynomial</text>
</a>
</g>
</g>
<!-- Node9&#45;&gt;Node10 -->
<g id="edge9" class="edge">
<title>Node9&#45;&gt;Node10</title>
<path fill="none" stroke="#191970" d="M493.546,-137.1019C500.1889,-139.8027 506.8584,-142.7901 513,-146 530.2639,-155.023 531.9273,-161.6203 549,-171 552.4908,-172.9178 556.1593,-174.7851 559.889,-176.5788"/>
<polygon fill="#191970" stroke="#191970" points="558.6719,-179.8715 569.2193,-180.873 561.5986,-173.5126 558.6719,-179.8715"/>
</g>
<!-- Node11 -->
<g id="node11" class="node">
<title>Node11</title>
<g id="a_node11"><a xlink:href="namespaceregrid__solvers.html#a8130a338b59de62b00f68da4204568ad" target="_top" xlink:title="Solve the linear system AX = B by Gaussian elimination.">
<polygon fill="#ffffff" stroke="#000000" points="555,-132 555,-162 662,-162 662,-132 555,-132"/>
<text text-anchor="start" x="563" y="-150" font-family="Helvetica,sans-Serif" font-size="10.00" fill="#000000">regrid_solvers::solve</text>
<text text-anchor="middle" x="608.5" y="-139" font-family="Helvetica,sans-Serif" font-size="10.00" fill="#000000">_linear_system</text>
</a>
</g>
</g>
<!-- Node9&#45;&gt;Node11 -->
<g id="edge10" class="edge">
<title>Node9&#45;&gt;Node11</title>
<path fill="none" stroke="#191970" d="M513.1169,-132.0964C523.633,-133.7395 534.5176,-135.4402 545.0063,-137.0791"/>
<polygon fill="#191970" stroke="#191970" points="544.4959,-140.5418 554.9164,-138.6276 545.5766,-133.6257 544.4959,-140.5418"/>
</g>
<!-- Node12 -->
<g id="node12" class="node">
<title>Node12</title>
<g id="a_node12"><a xlink:href="namespaceregrid__solvers.html#a0d5c3cff8f31429b0a2c6d267e8b345d" target="_top" xlink:title="Solve the tridiagonal system AX = B.">
<polygon fill="#ffffff" stroke="#000000" points="555,-83 555,-113 662,-113 662,-83 555,-83"/>
<text text-anchor="start" x="563" y="-101" font-family="Helvetica,sans-Serif" font-size="10.00" fill="#000000">regrid_solvers::solve</text>
<text text-anchor="middle" x="608.5" y="-90" font-family="Helvetica,sans-Serif" font-size="10.00" fill="#000000">_tridiagonal_system</text>
</a>
</g>
</g>
<!-- Node9&#45;&gt;Node12 -->
<g id="edge12" class="edge">
<title>Node9&#45;&gt;Node12</title>
<path fill="none" stroke="#191970" d="M513.1169,-112.3075C523.633,-110.7301 534.5176,-109.0974 545.0063,-107.524"/>
<polygon fill="#191970" stroke="#191970" points="545.5463,-110.9823 554.9164,-106.0375 544.5078,-104.0598 545.5463,-110.9823"/>
</g>
<!-- Node11&#45;&gt;Node3 -->
<g id="edge11" class="edge">
<title>Node11&#45;&gt;Node3</title>
<path fill="none" stroke="#191970" d="M662.2658,-147.3526C673.74,-147.4278 685.9602,-147.5079 697.7528,-147.5853"/>
<polygon fill="#191970" stroke="#191970" points="697.9537,-151.0866 707.9764,-147.6523 697.9996,-144.0867 697.9537,-151.0866"/>
</g>
<!-- Node15 -->
<g id="node15" class="node">
<title>Node15</title>
<g id="a_node15"><a xlink:href="namespaceppm__functions.html#a10ee2c234d48b1d9375bcd7deee7be0c" target="_top" xlink:title="Adjusts edge values using the standard PPM limiter (Colella &amp; Woodward, JCP 1984) after first checkin...">
<polygon fill="#ffffff" stroke="#000000" points="556,-9 556,-39 661,-39 661,-9 556,-9"/>
<text text-anchor="start" x="564" y="-27" font-family="Helvetica,sans-Serif" font-size="10.00" fill="#000000">ppm_functions::ppm</text>
<text text-anchor="middle" x="608.5" y="-16" font-family="Helvetica,sans-Serif" font-size="10.00" fill="#000000">_limiter_standard</text>
</a>
</g>
</g>
<!-- Node14&#45;&gt;Node15 -->
<g id="edge15" class="edge">
<title>Node14&#45;&gt;Node15</title>
<path fill="none" stroke="#191970" d="M501.3334,-24C515.6072,-24 531.1902,-24 545.9416,-24"/>
<polygon fill="#191970" stroke="#191970" points="545.9949,-27.5001 555.9949,-24 545.9949,-20.5001 545.9949,-27.5001"/>
</g>
<!-- Node16 -->
<g id="node16" class="node">
<title>Node16</title>
<g id="a_node16"><a xlink:href="namespaceregrid__edge__values.html#aa3c7ea104f554d508b69efd860fc6b10" target="_top" xlink:title="Bound edge values by neighboring cell averages.">
<polygon fill="#ffffff" stroke="#000000" points="706.5,-61 706.5,-91 815.5,-91 815.5,-61 706.5,-61"/>
<text text-anchor="start" x="714.5" y="-79" font-family="Helvetica,sans-Serif" font-size="10.00" fill="#000000">regrid_edge_values</text>
<text text-anchor="middle" x="761" y="-68" font-family="Helvetica,sans-Serif" font-size="10.00" fill="#000000">::bound_edge_values</text>
</a>
</g>
</g>
<!-- Node15&#45;&gt;Node16 -->
<g id="edge16" class="edge">
<title>Node15&#45;&gt;Node16</title>
<path fill="none" stroke="#191970" d="M652.6093,-39.0406C669.6804,-44.8615 689.3823,-51.5795 707.2682,-57.6784"/>
<polygon fill="#191970" stroke="#191970" points="706.3953,-61.0785 716.9898,-60.9932 708.6545,-54.4531 706.3953,-61.0785"/>
</g>
<!-- Node17 -->
<g id="node17" class="node">
<title>Node17</title>
<g id="a_node17"><a xlink:href="namespaceregrid__edge__values.html#a4a496536a77bef8467c441731619761d" target="_top" xlink:title="Check discontinuous edge values and replace them with their average if not monotonic.">
<polygon fill="#ffffff" stroke="#000000" points="704,-.5 704,-41.5 818,-41.5 818,-.5 704,-.5"/>
<text text-anchor="start" x="712" y="-29.5" font-family="Helvetica,sans-Serif" font-size="10.00" fill="#000000">regrid_edge_values</text>
<text text-anchor="start" x="712" y="-18.5" font-family="Helvetica,sans-Serif" font-size="10.00" fill="#000000">::check_discontinuous</text>
<text text-anchor="middle" x="761" y="-7.5" font-family="Helvetica,sans-Serif" font-size="10.00" fill="#000000">_edge_values</text>
</a>
</g>
</g>
<!-- Node15&#45;&gt;Node17 -->
<g id="edge17" class="edge">
<title>Node15&#45;&gt;Node17</title>
<path fill="none" stroke="#191970" d="M661.4091,-22.9592C671.7747,-22.7553 682.7771,-22.5388 693.5425,-22.327"/>
<polygon fill="#191970" stroke="#191970" points="693.8338,-25.8221 703.7629,-22.126 693.696,-18.8234 693.8338,-25.8221"/>
</g>
</g>
</svg>
        <g id="navigator" transform="translate(0 0)" fill="#404254">
                <rect fill="#f2f5e9" fill-opacity="0.5" stroke="#606060" stroke-width=".5" x="0" y="0" width="60" height="60"/>
                <use id="zoomplus" xlink:href="#zoomPlus" x="17" y="9" onmousedown="handleZoom(evt,'in')"/>
                <use id="zoomminus" xlink:href="#zoomMin" x="42" y="9" onmousedown="handleZoom(evt,'out')"/>
                <use id="reset" xlink:href="#resetDef" x="30" y="36" onmousedown="handleReset()"/>
                <g id="arrowUp" xlink:href="#dirArrow" transform="translate(30 24)" onmousedown="handlePan(0,-1)">
                  <use xlink:href="#rim" fill="#404040">
                        <set attributeName="fill" to="#808080" begin="arrowUp.mouseover" end="arrowUp.mouseout"/>
                  </use>
                  <path fill="none" stroke="white" stroke-width="1.5" d="M0,-3.0v7 M-2.5,-0.5L0,-3.0L2.5,-0.5"/>
                </g>
                <g id="arrowRight" xlink:href="#dirArrow" transform="rotate(90) translate(36 -43)" onmousedown="handlePan(1,0)">
                  <use xlink:href="#rim" fill="#404040">
                        <set attributeName="fill" to="#808080" begin="arrowRight.mouseover" end="arrowRight.mouseout"/>
                  </use>
                  <path fill="none" stroke="white" stroke-width="1.5" d="M0,-3.0v7 M-2.5,-0.5L0,-3.0L2.5,-0.5"/>
                </g>
                <g id="arrowDown" xlink:href="#dirArrow" transform="rotate(180) translate(-30 -48)" onmousedown="handlePan(0,1)">
                  <use xlink:href="#rim" fill="#404040">
                        <set attributeName="fill" to="#808080" begin="arrowDown.mouseover" end="arrowDown.mouseout"/>
                  </use>
                  <path fill="none" stroke="white" stroke-width="1.5" d="M0,-3.0v7 M-2.5,-0.5L0,-3.0L2.5,-0.5"/>
                </g>
                <g id="arrowLeft" xlink:href="#dirArrow" transform="rotate(270) translate(-36 17)" onmousedown="handlePan(-1,0)">
                  <use xlink:href="#rim" fill="#404040">
                        <set attributeName="fill" to="#808080" begin="arrowLeft.mouseover" end="arrowLeft.mouseout"/>
                  </use>
                  <path fill="none" stroke="white" stroke-width="1.5" d="M0,-3.0v7 M-2.5,-0.5L0,-3.0L2.5,-0.5"/>
                </g>
        </g>
        <svg viewBox="0 0 15 15" width="100%" height="30px" preserveAspectRatio="xMaxYMin meet">
         <g id="arrow_out" transform="scale(0.3 0.3)">
          <a xlink:href="namespacemom__pressureforce__afv_a84013032637268b653579bad40d68ad5_cgraph_org.svg" target="_base">
           <rect id="button" ry="5" rx="5" y="6" x="6" height="38" width="38"
                fill="#f2f5e9" fill-opacity="0.5" stroke="#606060" stroke-width="1.0"/>
           <path id="arrow"
             d="M 11.500037,31.436501 C 11.940474,20.09759 22.043105,11.32322 32.158766,21.979434 L 37.068811,17.246167 C 37.068811,17.246167 37.088388,32 37.088388,32 L 22.160133,31.978069 C 22.160133,31.978069 26.997745,27.140456 26.997745,27.140456 C 18.528582,18.264221 13.291696,25.230495 11.500037,31.436501 z"
             style="fill:#404040;"/>
          </a>
         </g>
        </svg>
</svg>
