<?xml version="1.0" encoding="UTF-8" standalone="no"?>
<!DOCTYPE svg PUBLIC "-//W3C//DTD SVG 1.1//EN"
 "http://www.w3.org/Graphics/SVG/1.1/DTD/svg11.dtd">
<!-- Generated by graphviz version 2.40.1 (20161225.0304)
 -->
<!-- Title: mom_surface_forcing_mct::apply_force_adjustments Pages: 1 -->
<svg width="323pt" height="50pt"
 viewBox="0.00 0.00 323.00 50.00" xmlns="http://www.w3.org/2000/svg" xmlns:xlink="http://www.w3.org/1999/xlink">
<g id="graph0" class="graph" transform="scale(1 1) rotate(0) translate(4 46)">
<title>mom_surface_forcing_mct::apply_force_adjustments</title>
<polygon fill="#ffffff" stroke="transparent" points="-4,4 -4,-46 319,-46 319,4 -4,4"/>
<!-- Node1 -->
<g id="node1" class="node">
<title>Node1</title>
<g id="a_node1"><a xlink:title="Adds mechanical forcing adjustments obtained via data_override Component name is &#39;OCN&#39; Available adju...">
<polygon fill="#bfbfbf" stroke="#000000" points="154,-6 154,-36 315,-36 315,-6 154,-6"/>
<text text-anchor="start" x="162" y="-24" font-family="Helvetica,sans-Serif" font-size="10.00" fill="#000000">mom_surface_forcing</text>
<text text-anchor="middle" x="234.5" y="-13" font-family="Helvetica,sans-Serif" font-size="10.00" fill="#000000">_mct::apply_force_adjustments</text>
</a>
</g>
</g>
<!-- Node2 -->
<g id="node2" class="node">
<title>Node2</title>
<g id="a_node2"><a xlink:href="namespacemom__surface__forcing__mct.html#a054e7ffa4c10fa5643ce9ad896c15fa7" target="_top" xlink:title="This subroutine translates the Ice_ocean_boundary_type into a MOM mechanical forcing type,...">
<polygon fill="#ffffff" stroke="#000000" points="0,-.5 0,-41.5 118,-41.5 118,-.5 0,-.5"/>
<text text-anchor="start" x="8" y="-29.5" font-family="Helvetica,sans-Serif" font-size="10.00" fill="#000000">mom_surface_forcing</text>
<text text-anchor="start" x="8" y="-18.5" font-family="Helvetica,sans-Serif" font-size="10.00" fill="#000000">_mct::convert_iob_to</text>
<text text-anchor="middle" x="59" y="-7.5" font-family="Helvetica,sans-Serif" font-size="10.00" fill="#000000">_forces</text>
</a>
</g>
</g>
<!-- Node1&#45;&gt;Node2 -->
<g id="edge1" class="edge">
<title>Node1&#45;&gt;Node2</title>
<path fill="none" stroke="#191970" d="M143.7302,-21C135.0301,-21 126.3696,-21 118.0914,-21"/>
<polygon fill="#191970" stroke="#191970" points="143.9411,-24.5001 153.9411,-21 143.941,-17.5001 143.9411,-24.5001"/>
</g>
</g>
</svg>
