<?xml version="1.0" encoding="UTF-8" standalone="no"?>
<!DOCTYPE svg PUBLIC "-//W3C//DTD SVG 1.1//EN"
 "http://www.w3.org/Graphics/SVG/1.1/DTD/svg11.dtd">
<!-- Generated by graphviz version 2.40.1 (20161225.0304)
 -->
<!-- Title: baroclinic_zone_initialization::bcz_params Pages: 1 -->
<svg width="787pt" height="50pt"
 viewBox="0.00 0.00 787.00 50.00" xmlns="http://www.w3.org/2000/svg" xmlns:xlink="http://www.w3.org/1999/xlink">
<g id="graph0" class="graph" transform="scale(1 1) rotate(0) translate(4 46)">
<title>baroclinic_zone_initialization::bcz_params</title>
<polygon fill="#ffffff" stroke="transparent" points="-4,4 -4,-46 783,-46 783,4 -4,4"/>
<!-- Node1 -->
<g id="node1" class="node">
<title>Node1</title>
<g id="a_node1"><a xlink:title="Reads the parameters unique to this module.">
<polygon fill="#bfbfbf" stroke="#000000" points="628,-6 628,-36 779,-36 779,-6 628,-6"/>
<text text-anchor="start" x="636" y="-24" font-family="Helvetica,sans-Serif" font-size="10.00" fill="#000000">baroclinic_zone_initialization</text>
<text text-anchor="middle" x="703.5" y="-13" font-family="Helvetica,sans-Serif" font-size="10.00" fill="#000000">::bcz_params</text>
</a>
</g>
</g>
<!-- Node2 -->
<g id="node2" class="node">
<title>Node2</title>
<g id="a_node2"><a xlink:href="namespacebaroclinic__zone__initialization.html#a00eea273e33b70e67bc8df9a5e2b8793" target="_top" xlink:title="Initialization of temperature and salinity with the baroclinic zone initial conditions.">
<polygon fill="#ffffff" stroke="#000000" points="415,-.5 415,-41.5 592,-41.5 592,-.5 415,-.5"/>
<text text-anchor="start" x="423" y="-29.5" font-family="Helvetica,sans-Serif" font-size="10.00" fill="#000000">baroclinic_zone_initialization</text>
<text text-anchor="start" x="423" y="-18.5" font-family="Helvetica,sans-Serif" font-size="10.00" fill="#000000">::baroclinic_zone_init_temperature</text>
<text text-anchor="middle" x="503.5" y="-7.5" font-family="Helvetica,sans-Serif" font-size="10.00" fill="#000000">_salinity</text>
</a>
</g>
</g>
<!-- Node1&#45;&gt;Node2 -->
<g id="edge1" class="edge">
<title>Node1&#45;&gt;Node2</title>
<path fill="none" stroke="#191970" d="M617.7155,-21C609.3063,-21 600.7602,-21 592.3216,-21"/>
<polygon fill="#191970" stroke="#191970" points="617.8886,-24.5001 627.8886,-21 617.8885,-17.5001 617.8886,-24.5001"/>
</g>
<!-- Node3 -->
<g id="node3" class="node">
<title>Node3</title>
<g id="a_node3"><a xlink:href="namespacemom__state__initialization.html#a81503d4f1855cb185f122d6314e4f06c" target="_top" xlink:title="Initialize temporally evolving fields, either as initial conditions or by reading them from a restart...">
<polygon fill="#ffffff" stroke="#000000" points="250,-6 250,-36 379,-36 379,-6 250,-6"/>
<text text-anchor="start" x="258" y="-24" font-family="Helvetica,sans-Serif" font-size="10.00" fill="#000000">mom_state_initialization</text>
<text text-anchor="middle" x="314.5" y="-13" font-family="Helvetica,sans-Serif" font-size="10.00" fill="#000000">::mom_initialize_state</text>
</a>
</g>
</g>
<!-- Node2&#45;&gt;Node3 -->
<g id="edge2" class="edge">
<title>Node2&#45;&gt;Node3</title>
<path fill="none" stroke="#191970" d="M404.6829,-21C396.0596,-21 387.4843,-21 379.2451,-21"/>
<polygon fill="#191970" stroke="#191970" points="404.8107,-24.5001 414.8107,-21 404.8107,-17.5001 404.8107,-24.5001"/>
</g>
<!-- Node4 -->
<g id="node4" class="node">
<title>Node4</title>
<g id="a_node4"><a xlink:href="namespacemom.html#a96708b16215666edbfa5b46228f3a200" target="_top" xlink:title="Initialize MOM, including memory allocation, setting up parameters and diagnostics,...">
<polygon fill="#ffffff" stroke="#000000" points="104,-11.5 104,-30.5 214,-30.5 214,-11.5 104,-11.5"/>
<text text-anchor="middle" x="159" y="-18.5" font-family="Helvetica,sans-Serif" font-size="10.00" fill="#000000">mom::initialize_mom</text>
</a>
</g>
</g>
<!-- Node3&#45;&gt;Node4 -->
<g id="edge3" class="edge">
<title>Node3&#45;&gt;Node4</title>
<path fill="none" stroke="#191970" d="M239.8331,-21C231.2119,-21 222.5401,-21 214.2425,-21"/>
<polygon fill="#191970" stroke="#191970" points="239.9049,-24.5001 249.9049,-21 239.9049,-17.5001 239.9049,-24.5001"/>
</g>
<!-- Node5 -->
<g id="node5" class="node">
<title>Node5</title>
<g id="a_node5"><a xlink:href="MOM__driver_8F90.html#a08fffeb2d8e8acbf9ed4609be6d258c6" target="_top" xlink:title=" ">
<polygon fill="#ffffff" stroke="#000000" points="0,-11.5 0,-30.5 68,-30.5 68,-11.5 0,-11.5"/>
<text text-anchor="middle" x="34" y="-18.5" font-family="Helvetica,sans-Serif" font-size="10.00" fill="#000000">mom_main</text>
</a>
</g>
</g>
<!-- Node4&#45;&gt;Node5 -->
<g id="edge4" class="edge">
<title>Node4&#45;&gt;Node5</title>
<path fill="none" stroke="#191970" d="M93.7848,-21C84.8995,-21 76.0876,-21 68.0691,-21"/>
<polygon fill="#191970" stroke="#191970" points="93.8094,-24.5001 103.8093,-21 93.8093,-17.5001 93.8094,-24.5001"/>
</g>
</g>
</svg>
