<?xml version="1.0" encoding="UTF-8" standalone="no"?>
<!DOCTYPE svg PUBLIC "-//W3C//DTD SVG 1.1//EN"
 "http://www.w3.org/Graphics/SVG/1.1/DTD/svg11.dtd">
<!-- Generated by graphviz version 2.40.1 (20161225.0304)
 -->
<!-- Title: mom_opacity::sw_pen_frac_morel Pages: 1 -->
<svg width="454pt" height="39pt"
 viewBox="0.00 0.00 454.00 39.00" xmlns="http://www.w3.org/2000/svg" xmlns:xlink="http://www.w3.org/1999/xlink">
<g id="graph0" class="graph" transform="scale(1 1) rotate(0) translate(4 35)">
<title>mom_opacity::sw_pen_frac_morel</title>
<polygon fill="#ffffff" stroke="transparent" points="-4,4 -4,-35 450,-35 450,4 -4,4"/>
<!-- Node1 -->
<g id="node1" class="node">
<title>Node1</title>
<g id="a_node1"><a xlink:title="This sets the penetrating shortwave fraction according to the scheme proposed by Morel and Antoine (1...">
<polygon fill="#bfbfbf" stroke="#000000" points="326,-.5 326,-30.5 446,-30.5 446,-.5 326,-.5"/>
<text text-anchor="start" x="334" y="-18.5" font-family="Helvetica,sans-Serif" font-size="10.00" fill="#000000">mom_opacity::sw_pen</text>
<text text-anchor="middle" x="386" y="-7.5" font-family="Helvetica,sans-Serif" font-size="10.00" fill="#000000">_frac_morel</text>
</a>
</g>
</g>
<!-- Node2 -->
<g id="node2" class="node">
<title>Node2</title>
<g id="a_node2"><a xlink:href="namespacemom__opacity.html#ad99a489a9081744a17f88d984f0d128d" target="_top" xlink:title="This sets the &quot;blue&quot; band opacity based on chloophyll A concencentrations The red portion is lumped i...">
<polygon fill="#ffffff" stroke="#000000" points="173,-.5 173,-30.5 290,-30.5 290,-.5 173,-.5"/>
<text text-anchor="start" x="181" y="-18.5" font-family="Helvetica,sans-Serif" font-size="10.00" fill="#000000">mom_opacity::opacity</text>
<text text-anchor="middle" x="231.5" y="-7.5" font-family="Helvetica,sans-Serif" font-size="10.00" fill="#000000">_from_chl</text>
</a>
</g>
</g>
<!-- Node1&#45;&gt;Node2 -->
<g id="edge1" class="edge">
<title>Node1&#45;&gt;Node2</title>
<path fill="none" stroke="#191970" d="M315.5742,-15.5C307.1038,-15.5 298.5231,-15.5 290.2438,-15.5"/>
<polygon fill="#191970" stroke="#191970" points="315.8239,-19.0001 325.8239,-15.5 315.8238,-12.0001 315.8239,-19.0001"/>
</g>
<!-- Node3 -->
<g id="node3" class="node">
<title>Node3</title>
<g id="a_node3"><a xlink:href="namespacemom__opacity.html#a675243222a55e7091e5e597f9c0a9b24" target="_top" xlink:title="This sets the opacity of sea water based based on one of several different schemes.">
<polygon fill="#ffffff" stroke="#000000" points="0,-6 0,-25 137,-25 137,-6 0,-6"/>
<text text-anchor="middle" x="68.5" y="-13" font-family="Helvetica,sans-Serif" font-size="10.00" fill="#000000">mom_opacity::set_opacity</text>
</a>
</g>
</g>
<!-- Node2&#45;&gt;Node3 -->
<g id="edge2" class="edge">
<title>Node2&#45;&gt;Node3</title>
<path fill="none" stroke="#191970" d="M162.5503,-15.5C154.1739,-15.5 145.6162,-15.5 137.2428,-15.5"/>
<polygon fill="#191970" stroke="#191970" points="162.6533,-19.0001 172.6533,-15.5 162.6532,-12.0001 162.6533,-19.0001"/>
</g>
</g>
</svg>
