<?xml version="1.0" encoding="UTF-8" standalone="no"?>
<!DOCTYPE svg PUBLIC "-//W3C//DTD SVG 1.1//EN"
 "http://www.w3.org/Graphics/SVG/1.1/DTD/svg11.dtd">
<!-- Generated by graphviz version 2.40.1 (20161225.0304)
 -->
<!-- Title: mom_open_boundary::open_boundary_end Pages: 1 -->
<svg width="643pt" height="39pt"
 viewBox="0.00 0.00 643.00 39.00" xmlns="http://www.w3.org/2000/svg" xmlns:xlink="http://www.w3.org/1999/xlink">
<g id="graph0" class="graph" transform="scale(1 1) rotate(0) translate(4 35)">
<title>mom_open_boundary::open_boundary_end</title>
<polygon fill="#ffffff" stroke="transparent" points="-4,4 -4,-35 639,-35 639,4 -4,4"/>
<!-- Node1 -->
<g id="node1" class="node">
<title>Node1</title>
<g id="a_node1"><a xlink:title="Close open boundary data.">
<polygon fill="#bfbfbf" stroke="#000000" points="0,-.5 0,-30.5 116,-30.5 116,-.5 0,-.5"/>
<text text-anchor="start" x="8" y="-18.5" font-family="Helvetica,sans-Serif" font-size="10.00" fill="#000000">mom_open_boundary::</text>
<text text-anchor="middle" x="58" y="-7.5" font-family="Helvetica,sans-Serif" font-size="10.00" fill="#000000">open_boundary_end</text>
</a>
</g>
</g>
<!-- Node2 -->
<g id="node2" class="node">
<title>Node2</title>
<g id="a_node2"><a xlink:href="namespacemom__open__boundary.html#a709a33b9e33b5689d5ca73349ed51fb6" target="_top" xlink:title="Deallocate open boundary data.">
<polygon fill="#ffffff" stroke="#000000" points="152,-.5 152,-30.5 271,-30.5 271,-.5 152,-.5"/>
<text text-anchor="start" x="160" y="-18.5" font-family="Helvetica,sans-Serif" font-size="10.00" fill="#000000">mom_open_boundary::</text>
<text text-anchor="middle" x="211.5" y="-7.5" font-family="Helvetica,sans-Serif" font-size="10.00" fill="#000000">open_boundary_dealloc</text>
</a>
</g>
</g>
<!-- Node1&#45;&gt;Node2 -->
<g id="edge1" class="edge">
<title>Node1&#45;&gt;Node2</title>
<path fill="none" stroke="#191970" d="M116.0318,-15.5C124.4527,-15.5 133.1939,-15.5 141.8151,-15.5"/>
<polygon fill="#191970" stroke="#191970" points="141.8542,-19.0001 151.8542,-15.5 141.8542,-12.0001 141.8542,-19.0001"/>
</g>
<!-- Node3 -->
<g id="node3" class="node">
<title>Node3</title>
<g id="a_node3"><a xlink:href="namespacemom__open__boundary.html#a5d71c596c3bd7d773a39f5c63d5389ac" target="_top" xlink:title="Deallocate segment data fields.">
<polygon fill="#ffffff" stroke="#000000" points="307,-.5 307,-30.5 456,-30.5 456,-.5 307,-.5"/>
<text text-anchor="start" x="315" y="-18.5" font-family="Helvetica,sans-Serif" font-size="10.00" fill="#000000">mom_open_boundary::</text>
<text text-anchor="middle" x="381.5" y="-7.5" font-family="Helvetica,sans-Serif" font-size="10.00" fill="#000000">deallocate_obc_segment_data</text>
</a>
</g>
</g>
<!-- Node2&#45;&gt;Node3 -->
<g id="edge2" class="edge">
<title>Node2&#45;&gt;Node3</title>
<path fill="none" stroke="#191970" d="M271.4356,-15.5C279.6806,-15.5 288.2711,-15.5 296.8568,-15.5"/>
<polygon fill="#191970" stroke="#191970" points="296.9124,-19.0001 306.9123,-15.5 296.9123,-12.0001 296.9124,-19.0001"/>
</g>
<!-- Node4 -->
<g id="node4" class="node">
<title>Node4</title>
<g id="a_node4"><a xlink:href="namespacemom__open__boundary.html#a71194a8dc156fea37aab6539cc124086" target="_top" xlink:title="Clean up the segment tracer registry.">
<polygon fill="#ffffff" stroke="#000000" points="492,-.5 492,-30.5 635,-30.5 635,-.5 492,-.5"/>
<text text-anchor="start" x="500" y="-18.5" font-family="Helvetica,sans-Serif" font-size="10.00" fill="#000000">mom_open_boundary::</text>
<text text-anchor="middle" x="563.5" y="-7.5" font-family="Helvetica,sans-Serif" font-size="10.00" fill="#000000">segment_tracer_registry_end</text>
</a>
</g>
</g>
<!-- Node3&#45;&gt;Node4 -->
<g id="edge3" class="edge">
<title>Node3&#45;&gt;Node4</title>
<path fill="none" stroke="#191970" d="M456.0515,-15.5C464.4264,-15.5 472.9936,-15.5 481.4565,-15.5"/>
<polygon fill="#191970" stroke="#191970" points="481.7076,-19.0001 491.7076,-15.5 481.7076,-12.0001 481.7076,-19.0001"/>
</g>
</g>
</svg>
