<?xml version="1.0" encoding="UTF-8" standalone="no"?>
<!DOCTYPE svg PUBLIC "-//W3C//DTD SVG 1.1//EN"
 "http://www.w3.org/Graphics/SVG/1.1/DTD/svg11.dtd">
<!-- Generated by graphviz version 2.40.1 (20161225.0304)
 -->
<!-- Title: mom_lateral_mixing_coeffs::varmix_init Pages: 1 -->
<!--zoomable 156 -->
<svg id="main" version="1.1" xmlns="http://www.w3.org/2000/svg" xmlns:xlink="http://www.w3.org/1999/xlink" xml:space="preserve" onload="init(evt)">
<style type="text/css"><![CDATA[
.edge:hover path { stroke: red; }
.edge:hover polygon { stroke: red; fill: red; }
]]></style>
<script type="text/javascript"><![CDATA[
var edges = document.getElementsByTagName('g');
if (edges && edges.length) {
  for (var i=0;i<edges.length;i++) {
    if (edges[i].id.substr(0,4)=='edge') {
      edges[i].setAttribute('class','edge');
    }
  }
}
]]></script>
        <defs>
                <circle id="rim" cx="0" cy="0" r="7"/>
                <circle id="rim2" cx="0" cy="0" r="3.5"/>
                <g id="zoomPlus">
                        <use xlink:href="#rim" fill="#404040">
                                <set attributeName="fill" to="#808080" begin="zoomplus.mouseover" end="zoomplus.mouseout"/>
                        </use>
                        <path d="M-4,0h8M0,-4v8" fill="none" stroke="white" stroke-width="1.5" pointer-events="none"/>
                </g>
                <g id="zoomMin">
                        <use xlink:href="#rim" fill="#404040">
                                <set attributeName="fill" to="#808080" begin="zoomminus.mouseover" end="zoomminus.mouseout"/>
                        </use>
                        <path d="M-4,0h8" fill="none" stroke="white" stroke-width="1.5" pointer-events="none"/>
                </g>
                <g id="dirArrow">
                        <path fill="none" stroke="white" stroke-width="1.5" d="M0,-3.0v7 M-2.5,-0.5L0,-3.0L2.5,-0.5"/>
                </g>
               <g id="resetDef">
                       <use xlink:href="#rim2" fill="#404040">
                               <set attributeName="fill" to="#808080" begin="reset.mouseover" end="reset.mouseout"/>
                       </use>
               </g>
        </defs>

<script type="text/javascript">
var viewWidth = 1133;
var viewHeight = 156;
var sectionId = 'dynsection-10';
</script>
<script xlink:href="svgpan.js"/>
<svg id="graph" class="graph">
<g id="viewport">
<title>mom_lateral_mixing_coeffs::varmix_init</title>
<polygon fill="#ffffff" stroke="transparent" points="-4,4 -4,-151.5 1129,-151.5 1129,4 -4,4"/>
<!-- Node1 -->
<g id="node1" class="node">
<title>Node1</title>
<g id="a_node1"><a xlink:title="Initializes the variables mixing coefficients container.">
<polygon fill="#bfbfbf" stroke="#000000" points="0,-88.5 0,-118.5 104,-118.5 104,-88.5 0,-88.5"/>
<text text-anchor="start" x="8" y="-106.5" font-family="Helvetica,sans-Serif" font-size="10.00" fill="#000000">mom_lateral_mixing</text>
<text text-anchor="middle" x="52" y="-95.5" font-family="Helvetica,sans-Serif" font-size="10.00" fill="#000000">_coeffs::varmix_init</text>
</a>
</g>
</g>
<!-- Node2 -->
<g id="node2" class="node">
<title>Node2</title>
<g id="a_node2"><a xlink:href="namespacemom__error__handler.html#a460cfb79a06c29fc249952c2a3710d67" target="_top" xlink:title="This provides a convenient interface for writing an mpp_error message with run&#45;time filter based on a...">
<polygon fill="#ffffff" stroke="#000000" points="873.5,-68.5 873.5,-98.5 979.5,-98.5 979.5,-68.5 873.5,-68.5"/>
<text text-anchor="start" x="881.5" y="-86.5" font-family="Helvetica,sans-Serif" font-size="10.00" fill="#000000">mom_error_handler::</text>
<text text-anchor="middle" x="926.5" y="-75.5" font-family="Helvetica,sans-Serif" font-size="10.00" fill="#000000">mom_error</text>
</a>
</g>
</g>
<!-- Node1&#45;&gt;Node2 -->
<g id="edge1" class="edge">
<title>Node1&#45;&gt;Node2</title>
<path fill="none" stroke="#191970" d="M104.1379,-115.2334C166.7067,-128.2677 274.9607,-147.5 369,-147.5 369,-147.5 369,-147.5 540,-147.5 655.2127,-147.5 787.18,-119.478 863.2838,-100.5182"/>
<polygon fill="#191970" stroke="#191970" points="864.3481,-103.8595 873.1901,-98.0226 862.6381,-97.0716 864.3481,-103.8595"/>
</g>
<!-- Node4 -->
<g id="node4" class="node">
<title>Node4</title>
<g id="a_node4"><a xlink:href="namespacemom__wave__speed.html#a46e21529ec8098b0b19053afa133b971" target="_top" xlink:title="Initialize control structure for MOM_wave_speed.">
<polygon fill="#ffffff" stroke="#000000" points="140,-66.5 140,-96.5 268,-96.5 268,-66.5 140,-66.5"/>
<text text-anchor="start" x="148" y="-84.5" font-family="Helvetica,sans-Serif" font-size="10.00" fill="#000000">mom_wave_speed::wave</text>
<text text-anchor="middle" x="204" y="-73.5" font-family="Helvetica,sans-Serif" font-size="10.00" fill="#000000">_speed_init</text>
</a>
</g>
</g>
<!-- Node1&#45;&gt;Node4 -->
<g id="edge3" class="edge">
<title>Node1&#45;&gt;Node4</title>
<path fill="none" stroke="#191970" d="M104.3098,-95.9288C112.5189,-94.7407 121.1378,-93.4932 129.7272,-92.25"/>
<polygon fill="#191970" stroke="#191970" points="130.3752,-95.6928 139.7707,-90.7963 129.3724,-88.765 130.3752,-95.6928"/>
</g>
<!-- Node3 -->
<g id="node3" class="node">
<title>Node3</title>
<g id="a_node3"><a xlink:href="namespacemom__error__handler.html#ad5f00a53059c72fe2332d1436c80ca71" target="_top" xlink:title="This returns .true. if the current PE is the root PE.">
<polygon fill="#ffffff" stroke="#000000" points="1019,-68.5 1019,-98.5 1125,-98.5 1125,-68.5 1019,-68.5"/>
<text text-anchor="start" x="1027" y="-86.5" font-family="Helvetica,sans-Serif" font-size="10.00" fill="#000000">mom_error_handler::</text>
<text text-anchor="middle" x="1072" y="-75.5" font-family="Helvetica,sans-Serif" font-size="10.00" fill="#000000">is_root_pe</text>
</a>
</g>
</g>
<!-- Node2&#45;&gt;Node3 -->
<g id="edge2" class="edge">
<title>Node2&#45;&gt;Node3</title>
<path fill="none" stroke="#191970" d="M979.8526,-83.5C989.1442,-83.5 998.8912,-83.5 1008.4246,-83.5"/>
<polygon fill="#191970" stroke="#191970" points="1008.6538,-87.0001 1018.6538,-83.5 1008.6538,-80.0001 1008.6538,-87.0001"/>
</g>
<!-- Node4&#45;&gt;Node2 -->
<g id="edge9" class="edge">
<title>Node4&#45;&gt;Node2</title>
<path fill="none" stroke="#191970" d="M268.2282,-80.5729C322.1024,-79.8438 401.0722,-78.8887 470,-78.5 532.2212,-78.1491 547.7797,-78.0086 610,-78.5 697.7129,-79.1928 799.0864,-80.9654 862.9881,-82.202"/>
<polygon fill="#191970" stroke="#191970" points="863.2367,-85.7074 873.3031,-82.4033 863.3733,-78.7087 863.2367,-85.7074"/>
</g>
<!-- Node5 -->
<g id="node5" class="node">
<title>Node5</title>
<g id="a_node5"><a xlink:href="namespacemom__remapping.html#a81211827af45207130d25cae520b55e5" target="_top" xlink:title="Constructor for remapping control structure.">
<polygon fill="#ffffff" stroke="#000000" points="304,-.5 304,-30.5 434,-30.5 434,-.5 304,-.5"/>
<text text-anchor="start" x="312" y="-18.5" font-family="Helvetica,sans-Serif" font-size="10.00" fill="#000000">mom_remapping::initialize</text>
<text text-anchor="middle" x="369" y="-7.5" font-family="Helvetica,sans-Serif" font-size="10.00" fill="#000000">_remapping</text>
</a>
</g>
</g>
<!-- Node4&#45;&gt;Node5 -->
<g id="edge4" class="edge">
<title>Node4&#45;&gt;Node5</title>
<path fill="none" stroke="#191970" d="M241.8543,-66.3583C265.6455,-56.8418 296.5252,-44.4899 321.8947,-34.3421"/>
<polygon fill="#191970" stroke="#191970" points="323.3369,-37.5349 331.3218,-30.5713 320.7371,-31.0356 323.3369,-37.5349"/>
</g>
<!-- Node9 -->
<g id="node9" class="node">
<title>Node9</title>
<g id="a_node9"><a xlink:href="namespacemom__wave__speed.html#a035c9e3306d6b21809e240a5b24a2db0" target="_top" xlink:title="Sets internal parameters for MOM_wave_speed.">
<polygon fill="#ffffff" stroke="#000000" points="476,-88.5 476,-118.5 604,-118.5 604,-88.5 476,-88.5"/>
<text text-anchor="start" x="484" y="-106.5" font-family="Helvetica,sans-Serif" font-size="10.00" fill="#000000">mom_wave_speed::wave</text>
<text text-anchor="middle" x="540" y="-95.5" font-family="Helvetica,sans-Serif" font-size="10.00" fill="#000000">_speed_set_param</text>
</a>
</g>
</g>
<!-- Node4&#45;&gt;Node9 -->
<g id="edge10" class="edge">
<title>Node4&#45;&gt;Node9</title>
<path fill="none" stroke="#191970" d="M268.3866,-85.7158C324.768,-89.4074 406.6933,-94.7716 465.8097,-98.6423"/>
<polygon fill="#191970" stroke="#191970" points="465.6239,-102.1375 475.8312,-99.2985 466.0813,-95.1525 465.6239,-102.1375"/>
</g>
<!-- Node6 -->
<g id="node6" class="node">
<title>Node6</title>
<g id="a_node6"><a xlink:href="namespacemom__remapping.html#a50e96a4a1083bb1fae3ca0130b6a2c11" target="_top" xlink:title="Set parameters within remapping object.">
<polygon fill="#ffffff" stroke="#000000" points="470,-.5 470,-30.5 610,-30.5 610,-.5 470,-.5"/>
<text text-anchor="start" x="478" y="-18.5" font-family="Helvetica,sans-Serif" font-size="10.00" fill="#000000">mom_remapping::remapping</text>
<text text-anchor="middle" x="540" y="-7.5" font-family="Helvetica,sans-Serif" font-size="10.00" fill="#000000">_set_param</text>
</a>
</g>
</g>
<!-- Node5&#45;&gt;Node6 -->
<g id="edge5" class="edge">
<title>Node5&#45;&gt;Node6</title>
<path fill="none" stroke="#191970" d="M434.1356,-15.5C442.5475,-15.5 451.2387,-15.5 459.8571,-15.5"/>
<polygon fill="#191970" stroke="#191970" points="459.9197,-19.0001 469.9197,-15.5 459.9196,-12.0001 459.9197,-19.0001"/>
</g>
<!-- Node7 -->
<g id="node7" class="node">
<title>Node7</title>
<g id="a_node7"><a xlink:href="namespacemom__remapping.html#a41a89ac62578250500b7a450d5fdfae7" target="_top" xlink:title="Changes the method of reconstruction Use this routine to parse a string parameter specifying the reco...">
<polygon fill="#ffffff" stroke="#000000" points="646,-9 646,-28 834,-28 834,-9 646,-9"/>
<text text-anchor="middle" x="740" y="-16" font-family="Helvetica,sans-Serif" font-size="10.00" fill="#000000">mom_remapping::setreconstructiontype</text>
</a>
</g>
</g>
<!-- Node6&#45;&gt;Node7 -->
<g id="edge6" class="edge">
<title>Node6&#45;&gt;Node7</title>
<path fill="none" stroke="#191970" d="M610.2313,-16.5535C618.483,-16.6772 627.0322,-16.8055 635.6246,-16.9344"/>
<polygon fill="#191970" stroke="#191970" points="635.6644,-20.4353 645.7158,-17.0857 635.7695,-13.4361 635.6644,-20.4353"/>
</g>
<!-- Node7&#45;&gt;Node2 -->
<g id="edge7" class="edge">
<title>Node7&#45;&gt;Node2</title>
<path fill="none" stroke="#191970" d="M776.8993,-28.0872C794.353,-32.8789 815.3973,-39.0293 834,-45.5 850.1594,-51.1208 867.5849,-58.0453 882.9071,-64.4367"/>
<polygon fill="#191970" stroke="#191970" points="881.5711,-67.6718 892.1454,-68.331 884.2902,-61.2214 881.5711,-67.6718"/>
</g>
<!-- Node8 -->
<g id="node8" class="node">
<title>Node8</title>
<g id="a_node8"><a xlink:href="namespacemom__string__functions.html#aca148baf726de2f028b7e7baad3c85d4" target="_top" xlink:title="Return a string in which all uppercase letters have been replaced by their lowercase counterparts.">
<polygon fill="#ffffff" stroke="#000000" points="870,-3.5 870,-33.5 983,-33.5 983,-3.5 870,-3.5"/>
<text text-anchor="start" x="878" y="-21.5" font-family="Helvetica,sans-Serif" font-size="10.00" fill="#000000">mom_string_functions</text>
<text text-anchor="middle" x="926.5" y="-10.5" font-family="Helvetica,sans-Serif" font-size="10.00" fill="#000000">::uppercase</text>
</a>
</g>
</g>
<!-- Node7&#45;&gt;Node8 -->
<g id="edge8" class="edge">
<title>Node7&#45;&gt;Node8</title>
<path fill="none" stroke="#191970" d="M834.0696,-18.5C842.7581,-18.5 851.4372,-18.5 859.805,-18.5"/>
<polygon fill="#191970" stroke="#191970" points="859.8373,-22.0001 869.8372,-18.5 859.8372,-15.0001 859.8373,-22.0001"/>
</g>
<!-- Node9&#45;&gt;Node2 -->
<g id="edge11" class="edge">
<title>Node9&#45;&gt;Node2</title>
<path fill="none" stroke="#191970" d="M604.2565,-100.175C676.0683,-96.4589 791.6157,-90.4798 863.0841,-86.7815"/>
<polygon fill="#191970" stroke="#191970" points="863.4926,-90.2652 873.2983,-86.253 863.1308,-83.2745 863.4926,-90.2652"/>
</g>
</g>
</svg>
        <g id="navigator" transform="translate(0 0)" fill="#404254">
                <rect fill="#f2f5e9" fill-opacity="0.5" stroke="#606060" stroke-width=".5" x="0" y="0" width="60" height="60"/>
                <use id="zoomplus" xlink:href="#zoomPlus" x="17" y="9" onmousedown="handleZoom(evt,'in')"/>
                <use id="zoomminus" xlink:href="#zoomMin" x="42" y="9" onmousedown="handleZoom(evt,'out')"/>
                <use id="reset" xlink:href="#resetDef" x="30" y="36" onmousedown="handleReset()"/>
                <g id="arrowUp" xlink:href="#dirArrow" transform="translate(30 24)" onmousedown="handlePan(0,-1)">
                  <use xlink:href="#rim" fill="#404040">
                        <set attributeName="fill" to="#808080" begin="arrowUp.mouseover" end="arrowUp.mouseout"/>
                  </use>
                  <path fill="none" stroke="white" stroke-width="1.5" d="M0,-3.0v7 M-2.5,-0.5L0,-3.0L2.5,-0.5"/>
                </g>
                <g id="arrowRight" xlink:href="#dirArrow" transform="rotate(90) translate(36 -43)" onmousedown="handlePan(1,0)">
                  <use xlink:href="#rim" fill="#404040">
                        <set attributeName="fill" to="#808080" begin="arrowRight.mouseover" end="arrowRight.mouseout"/>
                  </use>
                  <path fill="none" stroke="white" stroke-width="1.5" d="M0,-3.0v7 M-2.5,-0.5L0,-3.0L2.5,-0.5"/>
                </g>
                <g id="arrowDown" xlink:href="#dirArrow" transform="rotate(180) translate(-30 -48)" onmousedown="handlePan(0,1)">
                  <use xlink:href="#rim" fill="#404040">
                        <set attributeName="fill" to="#808080" begin="arrowDown.mouseover" end="arrowDown.mouseout"/>
                  </use>
                  <path fill="none" stroke="white" stroke-width="1.5" d="M0,-3.0v7 M-2.5,-0.5L0,-3.0L2.5,-0.5"/>
                </g>
                <g id="arrowLeft" xlink:href="#dirArrow" transform="rotate(270) translate(-36 17)" onmousedown="handlePan(-1,0)">
                  <use xlink:href="#rim" fill="#404040">
                        <set attributeName="fill" to="#808080" begin="arrowLeft.mouseover" end="arrowLeft.mouseout"/>
                  </use>
                  <path fill="none" stroke="white" stroke-width="1.5" d="M0,-3.0v7 M-2.5,-0.5L0,-3.0L2.5,-0.5"/>
                </g>
        </g>
        <svg viewBox="0 0 15 15" width="100%" height="30px" preserveAspectRatio="xMaxYMin meet">
         <g id="arrow_out" transform="scale(0.3 0.3)">
          <a xlink:href="namespacemom__lateral__mixing__coeffs_a1070a864ca570c00f483a8617afca133_cgraph_org.svg" target="_base">
           <rect id="button" ry="5" rx="5" y="6" x="6" height="38" width="38"
                fill="#f2f5e9" fill-opacity="0.5" stroke="#606060" stroke-width="1.0"/>
           <path id="arrow"
             d="M 11.500037,31.436501 C 11.940474,20.09759 22.043105,11.32322 32.158766,21.979434 L 37.068811,17.246167 C 37.068811,17.246167 37.088388,32 37.088388,32 L 22.160133,31.978069 C 22.160133,31.978069 26.997745,27.140456 26.997745,27.140456 C 18.528582,18.264221 13.291696,25.230495 11.500037,31.436501 z"
             style="fill:#404040;"/>
          </a>
         </g>
        </svg>
</svg>
