<?xml version="1.0" encoding="UTF-8" standalone="no"?>
<!DOCTYPE svg PUBLIC "-//W3C//DTD SVG 1.1//EN"
 "http://www.w3.org/Graphics/SVG/1.1/DTD/svg11.dtd">
<!-- Generated by graphviz version 2.40.1 (20161225.0304)
 -->
<!-- Title: mom_ice_shelf::shelf_calc_flux Pages: 1 -->
<!--zoomable 418 -->
<svg id="main" version="1.1" xmlns="http://www.w3.org/2000/svg" xmlns:xlink="http://www.w3.org/1999/xlink" xml:space="preserve" onload="init(evt)">
<style type="text/css"><![CDATA[
.edge:hover path { stroke: red; }
.edge:hover polygon { stroke: red; fill: red; }
]]></style>
<script type="text/javascript"><![CDATA[
var edges = document.getElementsByTagName('g');
if (edges && edges.length) {
  for (var i=0;i<edges.length;i++) {
    if (edges[i].id.substr(0,4)=='edge') {
      edges[i].setAttribute('class','edge');
    }
  }
}
]]></script>
        <defs>
                <circle id="rim" cx="0" cy="0" r="7"/>
                <circle id="rim2" cx="0" cy="0" r="3.5"/>
                <g id="zoomPlus">
                        <use xlink:href="#rim" fill="#404040">
                                <set attributeName="fill" to="#808080" begin="zoomplus.mouseover" end="zoomplus.mouseout"/>
                        </use>
                        <path d="M-4,0h8M0,-4v8" fill="none" stroke="white" stroke-width="1.5" pointer-events="none"/>
                </g>
                <g id="zoomMin">
                        <use xlink:href="#rim" fill="#404040">
                                <set attributeName="fill" to="#808080" begin="zoomminus.mouseover" end="zoomminus.mouseout"/>
                        </use>
                        <path d="M-4,0h8" fill="none" stroke="white" stroke-width="1.5" pointer-events="none"/>
                </g>
                <g id="dirArrow">
                        <path fill="none" stroke="white" stroke-width="1.5" d="M0,-3.0v7 M-2.5,-0.5L0,-3.0L2.5,-0.5"/>
                </g>
               <g id="resetDef">
                       <use xlink:href="#rim2" fill="#404040">
                               <set attributeName="fill" to="#808080" begin="reset.mouseover" end="reset.mouseout"/>
                       </use>
               </g>
        </defs>

<script type="text/javascript">
var viewWidth = 721;
var viewHeight = 418;
var sectionId = 'dynsection-14';
</script>
<script xlink:href="svgpan.js"/>
<svg id="graph" class="graph">
<g id="viewport">
<title>mom_ice_shelf::shelf_calc_flux</title>
<polygon fill="#ffffff" stroke="transparent" points="-4,4 -4,-414.3282 717,-414.3282 717,4 -4,4"/>
<!-- Node1 -->
<g id="node1" class="node">
<title>Node1</title>
<g id="a_node1"><a xlink:title="Calculates fluxes between the ocean and ice&#45;shelf using the three&#45;equations formulation (optional to ...">
<polygon fill="#bfbfbf" stroke="#000000" points="0,-147.5 0,-177.5 110,-177.5 110,-147.5 0,-147.5"/>
<text text-anchor="start" x="8" y="-165.5" font-family="Helvetica,sans-Serif" font-size="10.00" fill="#000000">mom_ice_shelf::shelf</text>
<text text-anchor="middle" x="55" y="-154.5" font-family="Helvetica,sans-Serif" font-size="10.00" fill="#000000">_calc_flux</text>
</a>
</g>
</g>
<!-- Node2 -->
<g id="node2" class="node">
<title>Node2</title>
<g id="a_node2"><a xlink:href="namespacemom__ice__shelf.html#ac8c626ae15bc80493e6bfa3fb9a6d01e" target="_top" xlink:title="Updates surface fluxes that are influenced by sub&#45;ice&#45;shelf melting.">
<polygon fill="#ffffff" stroke="#000000" points="154,-311.5 154,-341.5 258,-341.5 258,-311.5 154,-311.5"/>
<text text-anchor="start" x="162" y="-329.5" font-family="Helvetica,sans-Serif" font-size="10.00" fill="#000000">mom_ice_shelf::add</text>
<text text-anchor="middle" x="206" y="-318.5" font-family="Helvetica,sans-Serif" font-size="10.00" fill="#000000">_shelf_flux</text>
</a>
</g>
</g>
<!-- Node1&#45;&gt;Node2 -->
<g id="edge1" class="edge">
<title>Node1&#45;&gt;Node2</title>
<path fill="none" stroke="#191970" d="M68.9351,-177.6348C95.5662,-206.5586 153.8181,-269.8256 185.1201,-303.8225"/>
<polygon fill="#191970" stroke="#191970" points="182.7503,-306.4159 192.0986,-311.4018 187.8999,-301.6744 182.7503,-306.4159"/>
</g>
<!-- Node4 -->
<g id="node4" class="node">
<title>Node4</title>
<g id="a_node4"><a xlink:href="namespacemom__error__handler.html#a460cfb79a06c29fc249952c2a3710d67" target="_top" xlink:title="This provides a convenient interface for writing an mpp_error message with run&#45;time filter based on a...">
<polygon fill="#ffffff" stroke="#000000" points="465,-267.5 465,-297.5 571,-297.5 571,-267.5 465,-267.5"/>
<text text-anchor="start" x="473" y="-285.5" font-family="Helvetica,sans-Serif" font-size="10.00" fill="#000000">mom_error_handler::</text>
<text text-anchor="middle" x="518" y="-274.5" font-family="Helvetica,sans-Serif" font-size="10.00" fill="#000000">mom_error</text>
</a>
</g>
</g>
<!-- Node1&#45;&gt;Node4 -->
<g id="edge14" class="edge">
<title>Node1&#45;&gt;Node4</title>
<path fill="none" stroke="#191970" d="M81.7297,-177.6129C99.478,-187.0929 123.5569,-198.9141 146,-206.5 251.4162,-242.1314 379.5622,-263.818 454.6235,-274.457"/>
<polygon fill="#191970" stroke="#191970" points="454.4669,-277.969 464.8547,-275.8852 455.4347,-271.0362 454.4669,-277.969"/>
</g>
<!-- Node8 -->
<g id="node8" class="node">
<title>Node8</title>
<g id="a_node8"><a xlink:href="namespacemom__ice__shelf.html#a0274b25df07d5fa712d038c31f921cbc" target="_top" xlink:title="This subroutine adds the mechanical forcing fields and perhaps shelf areas, based on the ice state in...">
<polygon fill="#ffffff" stroke="#000000" points="313.5,-185.5 313.5,-215.5 417.5,-215.5 417.5,-185.5 313.5,-185.5"/>
<text text-anchor="start" x="321.5" y="-203.5" font-family="Helvetica,sans-Serif" font-size="10.00" fill="#000000">mom_ice_shelf::add</text>
<text text-anchor="middle" x="365.5" y="-192.5" font-family="Helvetica,sans-Serif" font-size="10.00" fill="#000000">_shelf_forces</text>
</a>
</g>
</g>
<!-- Node1&#45;&gt;Node8 -->
<g id="edge9" class="edge">
<title>Node1&#45;&gt;Node8</title>
<path fill="none" stroke="#191970" d="M105.1658,-177.5931C118.3418,-181.0429 132.6137,-184.329 146,-186.5 198.6279,-195.0352 259.1429,-198.4246 303.2865,-199.7424"/>
<polygon fill="#191970" stroke="#191970" points="303.2013,-203.2413 313.2927,-200.0141 303.3914,-196.2439 303.2013,-203.2413"/>
</g>
<!-- Node9 -->
<g id="node9" class="node">
<title>Node9</title>
<g id="a_node9"><a xlink:href="namespacemom__ice__shelf.html#a48e3e45926bb7fb3a0a964d4d8a369ce" target="_top" xlink:title="Changes the thickness (mass) of the ice shelf based on sub&#45;ice&#45;shelf melting.">
<polygon fill="#ffffff" stroke="#000000" points="146,-147.5 146,-177.5 266,-177.5 266,-147.5 146,-147.5"/>
<text text-anchor="start" x="154" y="-165.5" font-family="Helvetica,sans-Serif" font-size="10.00" fill="#000000">mom_ice_shelf::change</text>
<text text-anchor="middle" x="206" y="-154.5" font-family="Helvetica,sans-Serif" font-size="10.00" fill="#000000">_thickness_using_melt</text>
</a>
</g>
</g>
<!-- Node1&#45;&gt;Node9 -->
<g id="edge11" class="edge">
<title>Node1&#45;&gt;Node9</title>
<path fill="none" stroke="#191970" d="M110.3694,-162.5C118.5675,-162.5 127.1072,-162.5 135.5618,-162.5"/>
<polygon fill="#191970" stroke="#191970" points="135.8039,-166.0001 145.8038,-162.5 135.8038,-159.0001 135.8039,-166.0001"/>
</g>
<!-- Node10 -->
<g id="node10" class="node">
<title>Node10</title>
<g id="a_node10"><a xlink:href="namespacemom__diag__mediator.html#a1761df399ba39742e34ab989469da0f2" target="_top" xlink:title="Call this subroutine to avoid averaging any offered fields.">
<polygon fill="#ffffff" stroke="#000000" points="151,-98.5 151,-128.5 261,-128.5 261,-98.5 151,-98.5"/>
<text text-anchor="start" x="159" y="-116.5" font-family="Helvetica,sans-Serif" font-size="10.00" fill="#000000">mom_diag_mediator::</text>
<text text-anchor="middle" x="206" y="-105.5" font-family="Helvetica,sans-Serif" font-size="10.00" fill="#000000">disable_averaging</text>
</a>
</g>
</g>
<!-- Node1&#45;&gt;Node10 -->
<g id="edge12" class="edge">
<title>Node1&#45;&gt;Node10</title>
<path fill="none" stroke="#191970" d="M101.5371,-147.3986C116.8222,-142.4385 133.9741,-136.8726 149.8924,-131.7071"/>
<polygon fill="#191970" stroke="#191970" points="151.1852,-134.9673 159.6166,-128.5516 149.0245,-128.3091 151.1852,-134.9673"/>
</g>
<!-- Node11 -->
<g id="node11" class="node">
<title>Node11</title>
<g id="a_node11"><a xlink:href="namespacemom__diag__mediator.html#a91244f765f2964dfb11f8787f65042f1" target="_top" xlink:title="This subroutine enables the accumulation of time averages over the specified time interval.">
<polygon fill="#ffffff" stroke="#000000" points="151,-49.5 151,-79.5 261,-79.5 261,-49.5 151,-49.5"/>
<text text-anchor="start" x="159" y="-67.5" font-family="Helvetica,sans-Serif" font-size="10.00" fill="#000000">mom_diag_mediator::</text>
<text text-anchor="middle" x="206" y="-56.5" font-family="Helvetica,sans-Serif" font-size="10.00" fill="#000000">enable_averaging</text>
</a>
</g>
</g>
<!-- Node1&#45;&gt;Node11 -->
<g id="edge13" class="edge">
<title>Node1&#45;&gt;Node11</title>
<path fill="none" stroke="#191970" d="M70.6576,-147.2569C87.9635,-131.0373 117.2138,-105.429 146,-88.5 148.67,-86.9298 151.462,-85.4191 154.3186,-83.9734"/>
<polygon fill="#191970" stroke="#191970" points="156.0507,-87.0258 163.5917,-79.5838 153.0557,-80.6989 156.0507,-87.0258"/>
</g>
<!-- Node12 -->
<g id="node12" class="node">
<title>Node12</title>
<g id="a_node12"><a xlink:href="namespacemom__ice__shelf.html#af3b6307aa3522a6b6738f31e232ad2a5" target="_top" xlink:title="Updates the ice shelf mass using data from a file.">
<polygon fill="#ffffff" stroke="#000000" points="147,-.5 147,-30.5 265,-30.5 265,-.5 147,-.5"/>
<text text-anchor="start" x="155" y="-18.5" font-family="Helvetica,sans-Serif" font-size="10.00" fill="#000000">mom_ice_shelf::update</text>
<text text-anchor="middle" x="206" y="-7.5" font-family="Helvetica,sans-Serif" font-size="10.00" fill="#000000">_shelf_mass</text>
</a>
</g>
</g>
<!-- Node1&#45;&gt;Node12 -->
<g id="edge15" class="edge">
<title>Node1&#45;&gt;Node12</title>
<path fill="none" stroke="#191970" d="M62.6979,-147.1233C76.2439,-121.4883 106.6727,-69.8441 146,-39.5 147.7682,-38.1357 149.6241,-36.8385 151.5436,-35.6062"/>
<polygon fill="#191970" stroke="#191970" points="153.3417,-38.6099 160.2901,-30.6117 149.8706,-32.5311 153.3417,-38.6099"/>
</g>
<!-- Node3 -->
<g id="node3" class="node">
<title>Node3</title>
<g id="a_node3"><a xlink:href="namespacemom__ice__shelf.html#aca1d1c1db015f270ce1b1f93d16dea91" target="_top" xlink:title="This subroutine adds the ice shelf pressure to the fluxes type.">
<polygon fill="#ffffff" stroke="#000000" points="313.5,-311.5 313.5,-341.5 417.5,-341.5 417.5,-311.5 313.5,-311.5"/>
<text text-anchor="start" x="321.5" y="-329.5" font-family="Helvetica,sans-Serif" font-size="10.00" fill="#000000">mom_ice_shelf::add</text>
<text text-anchor="middle" x="365.5" y="-318.5" font-family="Helvetica,sans-Serif" font-size="10.00" fill="#000000">_shelf_pressure</text>
</a>
</g>
</g>
<!-- Node2&#45;&gt;Node3 -->
<g id="edge2" class="edge">
<title>Node2&#45;&gt;Node3</title>
<path fill="none" stroke="#191970" d="M258.2263,-326.5C272.6208,-326.5 288.379,-326.5 303.2784,-326.5"/>
<polygon fill="#191970" stroke="#191970" points="303.429,-330.0001 313.4289,-326.5 303.4289,-323.0001 303.429,-330.0001"/>
</g>
<!-- Node2&#45;&gt;Node4 -->
<g id="edge5" class="edge">
<title>Node2&#45;&gt;Node4</title>
<path fill="none" stroke="#191970" d="M258.0086,-311.9616C272.185,-308.4204 287.6045,-304.9511 302,-302.5 353.0404,-293.8093 411.5544,-288.6849 454.7951,-285.8028"/>
<polygon fill="#191970" stroke="#191970" points="455.1345,-289.2883 464.8886,-285.1522 454.6841,-282.3028 455.1345,-289.2883"/>
</g>
<!-- Node6 -->
<g id="node6" class="node">
<title>Node6</title>
<g id="a_node6"><a xlink:href="namespacemom__error__handler.html#a1c462df7b61f1296407b4af51dfeceab" target="_top" xlink:title="This provides a convenient interface for writing an informative comment.">
<polygon fill="#ffffff" stroke="#000000" points="465,-360.5 465,-390.5 571,-390.5 571,-360.5 465,-360.5"/>
<text text-anchor="start" x="473" y="-378.5" font-family="Helvetica,sans-Serif" font-size="10.00" fill="#000000">mom_error_handler::</text>
<text text-anchor="middle" x="518" y="-367.5" font-family="Helvetica,sans-Serif" font-size="10.00" fill="#000000">mom_mesg</text>
</a>
</g>
</g>
<!-- Node2&#45;&gt;Node6 -->
<g id="edge6" class="edge">
<title>Node2&#45;&gt;Node6</title>
<path fill="none" stroke="#191970" d="M219.4569,-341.7189C236.5472,-359.7765 267.9381,-388.8957 302,-400.5 356.4825,-419.0613 422.6863,-406.6451 467.3236,-393.5667"/>
<polygon fill="#191970" stroke="#191970" points="468.5195,-396.8614 477.067,-390.6011 466.4811,-390.1647 468.5195,-396.8614"/>
</g>
<!-- Node7 -->
<g id="node7" class="node">
<title>Node7</title>
<g id="a_node7"><a xlink:href="namespacemom__time__manager.html#ae2d8736d03ab62310f32ddf01e44a961" target="_top" xlink:title="This is an alternate implementation of the FMS function real_to_time_type that is accurate over a lar...">
<polygon fill="#ffffff" stroke="#000000" points="302,-360.5 302,-390.5 429,-390.5 429,-360.5 302,-360.5"/>
<text text-anchor="start" x="310" y="-378.5" font-family="Helvetica,sans-Serif" font-size="10.00" fill="#000000">mom_time_manager::real</text>
<text text-anchor="middle" x="365.5" y="-367.5" font-family="Helvetica,sans-Serif" font-size="10.00" fill="#000000">_to_time</text>
</a>
</g>
</g>
<!-- Node2&#45;&gt;Node7 -->
<g id="edge8" class="edge">
<title>Node2&#45;&gt;Node7</title>
<path fill="none" stroke="#191970" d="M255.1567,-341.6014C271.4546,-346.6083 289.7617,-352.2324 306.7095,-357.439"/>
<polygon fill="#191970" stroke="#191970" points="305.9186,-360.8574 316.5056,-360.4484 307.9743,-354.166 305.9186,-360.8574"/>
</g>
<!-- Node3&#45;&gt;Node4 -->
<g id="edge3" class="edge">
<title>Node3&#45;&gt;Node4</title>
<path fill="none" stroke="#191970" d="M417.5553,-311.4808C430.0006,-307.89 443.4053,-304.0224 456.2411,-300.319"/>
<polygon fill="#191970" stroke="#191970" points="457.2827,-303.6613 465.9205,-297.5262 455.3422,-296.9356 457.2827,-303.6613"/>
</g>
<!-- Node5 -->
<g id="node5" class="node">
<title>Node5</title>
<g id="a_node5"><a xlink:href="namespacemom__error__handler.html#ad5f00a53059c72fe2332d1436c80ca71" target="_top" xlink:title="This returns .true. if the current PE is the root PE.">
<polygon fill="#ffffff" stroke="#000000" points="607,-291.5 607,-321.5 713,-321.5 713,-291.5 607,-291.5"/>
<text text-anchor="start" x="615" y="-309.5" font-family="Helvetica,sans-Serif" font-size="10.00" fill="#000000">mom_error_handler::</text>
<text text-anchor="middle" x="660" y="-298.5" font-family="Helvetica,sans-Serif" font-size="10.00" fill="#000000">is_root_pe</text>
</a>
</g>
</g>
<!-- Node4&#45;&gt;Node5 -->
<g id="edge4" class="edge">
<title>Node4&#45;&gt;Node5</title>
<path fill="none" stroke="#191970" d="M571.2796,-291.505C579.651,-292.9199 588.3736,-294.3941 596.94,-295.842"/>
<polygon fill="#191970" stroke="#191970" points="596.4506,-299.3088 606.8941,-297.5244 597.6172,-292.4067 596.4506,-299.3088"/>
</g>
<!-- Node6&#45;&gt;Node5 -->
<g id="edge7" class="edge">
<title>Node6&#45;&gt;Node5</title>
<path fill="none" stroke="#191970" d="M549.1625,-360.3577C569.8788,-350.2913 597.2853,-336.974 619.6622,-326.1008"/>
<polygon fill="#191970" stroke="#191970" points="621.4455,-329.1256 628.9102,-321.607 618.3861,-322.8295 621.4455,-329.1256"/>
</g>
<!-- Node8&#45;&gt;Node4 -->
<g id="edge10" class="edge">
<title>Node8&#45;&gt;Node4</title>
<path fill="none" stroke="#191970" d="M398.728,-215.5294C408.5621,-220.1566 419.2924,-225.3835 429,-230.5 447.7005,-240.3564 468.0925,-252.1883 484.6335,-262.0741"/>
<polygon fill="#191970" stroke="#191970" points="483.018,-265.1867 493.3915,-267.341 486.6256,-259.1879 483.018,-265.1867"/>
</g>
</g>
</svg>
        <g id="navigator" transform="translate(0 0)" fill="#404254">
                <rect fill="#f2f5e9" fill-opacity="0.5" stroke="#606060" stroke-width=".5" x="0" y="0" width="60" height="60"/>
                <use id="zoomplus" xlink:href="#zoomPlus" x="17" y="9" onmousedown="handleZoom(evt,'in')"/>
                <use id="zoomminus" xlink:href="#zoomMin" x="42" y="9" onmousedown="handleZoom(evt,'out')"/>
                <use id="reset" xlink:href="#resetDef" x="30" y="36" onmousedown="handleReset()"/>
                <g id="arrowUp" xlink:href="#dirArrow" transform="translate(30 24)" onmousedown="handlePan(0,-1)">
                  <use xlink:href="#rim" fill="#404040">
                        <set attributeName="fill" to="#808080" begin="arrowUp.mouseover" end="arrowUp.mouseout"/>
                  </use>
                  <path fill="none" stroke="white" stroke-width="1.5" d="M0,-3.0v7 M-2.5,-0.5L0,-3.0L2.5,-0.5"/>
                </g>
                <g id="arrowRight" xlink:href="#dirArrow" transform="rotate(90) translate(36 -43)" onmousedown="handlePan(1,0)">
                  <use xlink:href="#rim" fill="#404040">
                        <set attributeName="fill" to="#808080" begin="arrowRight.mouseover" end="arrowRight.mouseout"/>
                  </use>
                  <path fill="none" stroke="white" stroke-width="1.5" d="M0,-3.0v7 M-2.5,-0.5L0,-3.0L2.5,-0.5"/>
                </g>
                <g id="arrowDown" xlink:href="#dirArrow" transform="rotate(180) translate(-30 -48)" onmousedown="handlePan(0,1)">
                  <use xlink:href="#rim" fill="#404040">
                        <set attributeName="fill" to="#808080" begin="arrowDown.mouseover" end="arrowDown.mouseout"/>
                  </use>
                  <path fill="none" stroke="white" stroke-width="1.5" d="M0,-3.0v7 M-2.5,-0.5L0,-3.0L2.5,-0.5"/>
                </g>
                <g id="arrowLeft" xlink:href="#dirArrow" transform="rotate(270) translate(-36 17)" onmousedown="handlePan(-1,0)">
                  <use xlink:href="#rim" fill="#404040">
                        <set attributeName="fill" to="#808080" begin="arrowLeft.mouseover" end="arrowLeft.mouseout"/>
                  </use>
                  <path fill="none" stroke="white" stroke-width="1.5" d="M0,-3.0v7 M-2.5,-0.5L0,-3.0L2.5,-0.5"/>
                </g>
        </g>
        <svg viewBox="0 0 15 15" width="100%" height="30px" preserveAspectRatio="xMaxYMin meet">
         <g id="arrow_out" transform="scale(0.3 0.3)">
          <a xlink:href="namespacemom__ice__shelf_a84aff10af35c11912502a9cd7834dd50_cgraph_org.svg" target="_base">
           <rect id="button" ry="5" rx="5" y="6" x="6" height="38" width="38"
                fill="#f2f5e9" fill-opacity="0.5" stroke="#606060" stroke-width="1.0"/>
           <path id="arrow"
             d="M 11.500037,31.436501 C 11.940474,20.09759 22.043105,11.32322 32.158766,21.979434 L 37.068811,17.246167 C 37.068811,17.246167 37.088388,32 37.088388,32 L 22.160133,31.978069 C 22.160133,31.978069 26.997745,27.140456 26.997745,27.140456 C 18.528582,18.264221 13.291696,25.230495 11.500037,31.436501 z"
             style="fill:#404040;"/>
          </a>
         </g>
        </svg>
</svg>
