<?xml version="1.0" encoding="UTF-8" standalone="no"?>
<!DOCTYPE svg PUBLIC "-//W3C//DTD SVG 1.1//EN"
 "http://www.w3.org/Graphics/SVG/1.1/DTD/svg11.dtd">
<!-- Generated by graphviz version 2.40.1 (20161225.0304)
 -->
<!-- Title: mom_variables::mom_thermovar_chksum Pages: 1 -->
<svg width="405pt" height="137pt"
 viewBox="0.00 0.00 405.00 137.00" xmlns="http://www.w3.org/2000/svg" xmlns:xlink="http://www.w3.org/1999/xlink">
<g id="graph0" class="graph" transform="scale(1 1) rotate(0) translate(4 133)">
<title>mom_variables::mom_thermovar_chksum</title>
<polygon fill="#ffffff" stroke="transparent" points="-4,4 -4,-133 401,-133 401,4 -4,4"/>
<!-- Node1 -->
<g id="node1" class="node">
<title>Node1</title>
<g id="a_node1"><a xlink:title="Diagnostic checksums on various elements of a thermo_var_ptrs type for debugging.">
<polygon fill="#bfbfbf" stroke="#000000" points="287,-49.5 287,-79.5 397,-79.5 397,-49.5 287,-49.5"/>
<text text-anchor="start" x="295" y="-67.5" font-family="Helvetica,sans-Serif" font-size="10.00" fill="#000000">mom_variables::mom</text>
<text text-anchor="middle" x="342" y="-56.5" font-family="Helvetica,sans-Serif" font-size="10.00" fill="#000000">_thermovar_chksum</text>
</a>
</g>
</g>
<!-- Node2 -->
<g id="node2" class="node">
<title>Node2</title>
<g id="a_node2"><a xlink:href="namespacemom__diabatic__driver.html#ae57c48925de75712384e859a851c8c40" target="_top" xlink:title="This subroutine imposes the diapycnal mass fluxes and the accompanying diapycnal advection of momentu...">
<polygon fill="#ffffff" stroke="#000000" points="143.5,-98.5 143.5,-128.5 250.5,-128.5 250.5,-98.5 143.5,-98.5"/>
<text text-anchor="start" x="151.5" y="-116.5" font-family="Helvetica,sans-Serif" font-size="10.00" fill="#000000">mom_diabatic_driver</text>
<text text-anchor="middle" x="197" y="-105.5" font-family="Helvetica,sans-Serif" font-size="10.00" fill="#000000">::diabatic_ale</text>
</a>
</g>
</g>
<!-- Node1&#45;&gt;Node2 -->
<g id="edge1" class="edge">
<title>Node1&#45;&gt;Node2</title>
<path fill="none" stroke="#191970" d="M287.5817,-82.8896C272.4842,-87.9916 256.2692,-93.4711 241.79,-98.3641"/>
<polygon fill="#191970" stroke="#191970" points="288.9589,-86.1187 297.3121,-79.6014 286.7178,-79.4872 288.9589,-86.1187"/>
</g>
<!-- Node4 -->
<g id="node4" class="node">
<title>Node4</title>
<g id="a_node4"><a xlink:href="namespacemom__diabatic__driver.html#a598d99106680c83e410a0a51a59588ea" target="_top" xlink:title="Applies diabatic forcing and diapycnal mixing of temperature, salinity and other tracers for use with...">
<polygon fill="#ffffff" stroke="#000000" points="143,-49.5 143,-79.5 251,-79.5 251,-49.5 143,-49.5"/>
<text text-anchor="start" x="151" y="-67.5" font-family="Helvetica,sans-Serif" font-size="10.00" fill="#000000">mom_diabatic_driver</text>
<text text-anchor="middle" x="197" y="-56.5" font-family="Helvetica,sans-Serif" font-size="10.00" fill="#000000">::diabatic_ale_legacy</text>
</a>
</g>
</g>
<!-- Node1&#45;&gt;Node4 -->
<g id="edge3" class="edge">
<title>Node1&#45;&gt;Node4</title>
<path fill="none" stroke="#191970" d="M276.5076,-64.5C268.0172,-64.5 259.3974,-64.5 251.1199,-64.5"/>
<polygon fill="#191970" stroke="#191970" points="276.7681,-68.0001 286.7681,-64.5 276.768,-61.0001 276.7681,-68.0001"/>
</g>
<!-- Node5 -->
<g id="node5" class="node">
<title>Node5</title>
<g id="a_node5"><a xlink:href="namespacemom__diabatic__driver.html#a71d8d849db16be4b87c2650b49f01c82" target="_top" xlink:title="Imposes the diapycnal mass fluxes and the accompanying diapycnal advection of momentum and tracers us...">
<polygon fill="#ffffff" stroke="#000000" points="143.5,-.5 143.5,-30.5 250.5,-30.5 250.5,-.5 143.5,-.5"/>
<text text-anchor="start" x="151.5" y="-18.5" font-family="Helvetica,sans-Serif" font-size="10.00" fill="#000000">mom_diabatic_driver</text>
<text text-anchor="middle" x="197" y="-7.5" font-family="Helvetica,sans-Serif" font-size="10.00" fill="#000000">::layered_diabatic</text>
</a>
</g>
</g>
<!-- Node1&#45;&gt;Node5 -->
<g id="edge5" class="edge">
<title>Node1&#45;&gt;Node5</title>
<path fill="none" stroke="#191970" d="M287.5817,-46.1104C272.4842,-41.0084 256.2692,-35.5289 241.79,-30.6359"/>
<polygon fill="#191970" stroke="#191970" points="286.7178,-49.5128 297.3121,-49.3986 288.9589,-42.8813 286.7178,-49.5128"/>
</g>
<!-- Node3 -->
<g id="node3" class="node">
<title>Node3</title>
<g id="a_node3"><a xlink:href="namespacemom__diabatic__driver.html#a9005de9f3ad26b32de53e3cd9826b9b9" target="_top" xlink:title="This subroutine imposes the diapycnal mass fluxes and the accompanying diapycnal advection of momentu...">
<polygon fill="#ffffff" stroke="#000000" points="0,-49.5 0,-79.5 107,-79.5 107,-49.5 0,-49.5"/>
<text text-anchor="start" x="8" y="-67.5" font-family="Helvetica,sans-Serif" font-size="10.00" fill="#000000">mom_diabatic_driver</text>
<text text-anchor="middle" x="53.5" y="-56.5" font-family="Helvetica,sans-Serif" font-size="10.00" fill="#000000">::diabatic</text>
</a>
</g>
</g>
<!-- Node2&#45;&gt;Node3 -->
<g id="edge2" class="edge">
<title>Node2&#45;&gt;Node3</title>
<path fill="none" stroke="#191970" d="M143.1446,-95.1104C128.2033,-90.0084 112.1561,-84.5289 97.8266,-79.6359"/>
<polygon fill="#191970" stroke="#191970" points="142.1798,-98.4793 152.7744,-98.3986 144.4419,-91.8548 142.1798,-98.4793"/>
</g>
<!-- Node4&#45;&gt;Node3 -->
<g id="edge4" class="edge">
<title>Node4&#45;&gt;Node3</title>
<path fill="none" stroke="#191970" d="M132.5691,-64.5C124.1423,-64.5 115.5794,-64.5 107.3519,-64.5"/>
<polygon fill="#191970" stroke="#191970" points="132.7488,-68.0001 142.7488,-64.5 132.7488,-61.0001 132.7488,-68.0001"/>
</g>
<!-- Node5&#45;&gt;Node3 -->
<g id="edge6" class="edge">
<title>Node5&#45;&gt;Node3</title>
<path fill="none" stroke="#191970" d="M143.1446,-33.8896C128.2033,-38.9916 112.1561,-44.4711 97.8266,-49.3641"/>
<polygon fill="#191970" stroke="#191970" points="144.4419,-37.1452 152.7744,-30.6014 142.1798,-30.5207 144.4419,-37.1452"/>
</g>
</g>
</svg>
