<?xml version="1.0" encoding="UTF-8" standalone="no"?>
<!DOCTYPE svg PUBLIC "-//W3C//DTD SVG 1.1//EN"
 "http://www.w3.org/Graphics/SVG/1.1/DTD/svg11.dtd">
<!-- Generated by graphviz version 2.40.1 (20161225.0304)
 -->
<!-- Title: mom_marine_ice::iceberg_fluxes Pages: 1 -->
<svg width="305pt" height="88pt"
 viewBox="0.00 0.00 305.00 88.00" xmlns="http://www.w3.org/2000/svg" xmlns:xlink="http://www.w3.org/1999/xlink">
<g id="graph0" class="graph" transform="scale(1 1) rotate(0) translate(4 84)">
<title>mom_marine_ice::iceberg_fluxes</title>
<polygon fill="#ffffff" stroke="transparent" points="-4,4 -4,-84 301,-84 301,4 -4,4"/>
<!-- Node1 -->
<g id="node1" class="node">
<title>Node1</title>
<g id="a_node1"><a xlink:title="iceberg_fluxes adds ice&#45;area&#45;coverage and modifies various thermodynamic fluxes due to the presence o...">
<polygon fill="#bfbfbf" stroke="#000000" points="169,-24.5 169,-54.5 297,-54.5 297,-24.5 169,-24.5"/>
<text text-anchor="start" x="177" y="-42.5" font-family="Helvetica,sans-Serif" font-size="10.00" fill="#000000">mom_marine_ice::iceberg</text>
<text text-anchor="middle" x="233" y="-31.5" font-family="Helvetica,sans-Serif" font-size="10.00" fill="#000000">_fluxes</text>
</a>
</g>
</g>
<!-- Node2 -->
<g id="node2" class="node">
<title>Node2</title>
<g id="a_node2"><a xlink:href="namespacemom__ocean__model__mct.html#a422ba42ca07c0bf28ec5113aba4f1e96" target="_top" xlink:title="update_ocean_model uses the forcing in Ice_ocean_boundary to advance the ocean model&#39;s state from the...">
<polygon fill="#ffffff" stroke="#000000" points="5,-49.5 5,-79.5 128,-79.5 128,-49.5 5,-49.5"/>
<text text-anchor="start" x="13" y="-67.5" font-family="Helvetica,sans-Serif" font-size="10.00" fill="#000000">mom_ocean_model_mct</text>
<text text-anchor="middle" x="66.5" y="-56.5" font-family="Helvetica,sans-Serif" font-size="10.00" fill="#000000">::update_ocean_model</text>
</a>
</g>
</g>
<!-- Node1&#45;&gt;Node2 -->
<g id="edge1" class="edge">
<title>Node1&#45;&gt;Node2</title>
<path fill="none" stroke="#191970" d="M158.571,-50.6755C148.4339,-52.1976 138.1203,-53.7462 128.2406,-55.2296"/>
<polygon fill="#191970" stroke="#191970" points="159.2573,-54.1118 168.6268,-49.1657 158.2179,-47.1894 159.2573,-54.1118"/>
</g>
<!-- Node3 -->
<g id="node3" class="node">
<title>Node3</title>
<g id="a_node3"><a xlink:href="namespacemom__ocean__model__nuopc.html#a02a87b4944febcc6828c55e8e4375e62" target="_top" xlink:title="update_ocean_model uses the forcing in Ice_ocean_boundary to advance the ocean model&#39;s state from the...">
<polygon fill="#ffffff" stroke="#000000" points="0,-.5 0,-30.5 133,-30.5 133,-.5 0,-.5"/>
<text text-anchor="start" x="8" y="-18.5" font-family="Helvetica,sans-Serif" font-size="10.00" fill="#000000">mom_ocean_model_nuopc</text>
<text text-anchor="middle" x="66.5" y="-7.5" font-family="Helvetica,sans-Serif" font-size="10.00" fill="#000000">::update_ocean_model</text>
</a>
</g>
</g>
<!-- Node1&#45;&gt;Node3 -->
<g id="edge2" class="edge">
<title>Node1&#45;&gt;Node3</title>
<path fill="none" stroke="#191970" d="M158.7196,-28.7929C150.2122,-27.5666 141.5785,-26.3221 133.1793,-25.1114"/>
<polygon fill="#191970" stroke="#191970" points="158.2297,-32.2584 168.6268,-30.221 159.2284,-25.33 158.2297,-32.2584"/>
</g>
</g>
</svg>
