<?xml version="1.0" encoding="UTF-8" standalone="no"?>
<!DOCTYPE svg PUBLIC "-//W3C//DTD SVG 1.1//EN"
 "http://www.w3.org/Graphics/SVG/1.1/DTD/svg11.dtd">
<!-- Generated by graphviz version 2.40.1 (20161225.0304)
 -->
<!-- Title: mom_bkgnd_mixing::bkgnd_mixing_init Pages: 1 -->
<svg width="600pt" height="61pt"
 viewBox="0.00 0.00 600.00 61.00" xmlns="http://www.w3.org/2000/svg" xmlns:xlink="http://www.w3.org/1999/xlink">
<g id="graph0" class="graph" transform="scale(1 1) rotate(0) translate(4 57)">
<title>mom_bkgnd_mixing::bkgnd_mixing_init</title>
<polygon fill="#ffffff" stroke="transparent" points="-4,4 -4,-57 596,-57 596,4 -4,4"/>
<!-- Node1 -->
<g id="node1" class="node">
<title>Node1</title>
<g id="a_node1"><a xlink:title="Initialize the background mixing routine.">
<polygon fill="#bfbfbf" stroke="#000000" points="0,-.5 0,-30.5 136,-30.5 136,-.5 0,-.5"/>
<text text-anchor="start" x="8" y="-18.5" font-family="Helvetica,sans-Serif" font-size="10.00" fill="#000000">mom_bkgnd_mixing::bkgnd</text>
<text text-anchor="middle" x="68" y="-7.5" font-family="Helvetica,sans-Serif" font-size="10.00" fill="#000000">_mixing_init</text>
</a>
</g>
</g>
<!-- Node2 -->
<g id="node2" class="node">
<title>Node2</title>
<g id="a_node2"><a xlink:href="namespacemom__bkgnd__mixing.html#a829d5b6f715c06b6566a49271d4a7217" target="_top" xlink:title="Sets CSbkgnd_scheme_str to check whether multiple background diffusivity schemes are activated....">
<polygon fill="#ffffff" stroke="#000000" points="172,-22.5 172,-52.5 308,-52.5 308,-22.5 172,-22.5"/>
<text text-anchor="start" x="180" y="-40.5" font-family="Helvetica,sans-Serif" font-size="10.00" fill="#000000">mom_bkgnd_mixing::check</text>
<text text-anchor="middle" x="240" y="-29.5" font-family="Helvetica,sans-Serif" font-size="10.00" fill="#000000">_bkgnd_scheme</text>
</a>
</g>
</g>
<!-- Node1&#45;&gt;Node2 -->
<g id="edge1" class="edge">
<title>Node1&#45;&gt;Node2</title>
<path fill="none" stroke="#191970" d="M136.4732,-24.2582C144.7318,-25.3145 153.2157,-26.3997 161.6024,-27.4724"/>
<polygon fill="#191970" stroke="#191970" points="161.3991,-30.9748 171.7624,-28.7719 162.2873,-24.0314 161.3991,-30.9748"/>
</g>
<!-- Node3 -->
<g id="node3" class="node">
<title>Node3</title>
<g id="a_node3"><a xlink:href="namespacemom__error__handler.html#a460cfb79a06c29fc249952c2a3710d67" target="_top" xlink:title="This provides a convenient interface for writing an mpp_error message with run&#45;time filter based on a...">
<polygon fill="#ffffff" stroke="#000000" points="344,-.5 344,-30.5 450,-30.5 450,-.5 344,-.5"/>
<text text-anchor="start" x="352" y="-18.5" font-family="Helvetica,sans-Serif" font-size="10.00" fill="#000000">mom_error_handler::</text>
<text text-anchor="middle" x="397" y="-7.5" font-family="Helvetica,sans-Serif" font-size="10.00" fill="#000000">mom_error</text>
</a>
</g>
</g>
<!-- Node1&#45;&gt;Node3 -->
<g id="edge4" class="edge">
<title>Node1&#45;&gt;Node3</title>
<path fill="none" stroke="#191970" d="M136.2473,-14C148.1643,-13.7917 160.4428,-13.6111 172,-13.5 232.4417,-12.9189 247.5594,-12.821 308,-13.5 316.3308,-13.5936 325.0995,-13.7365 333.7522,-13.9037"/>
<polygon fill="#191970" stroke="#191970" points="333.7537,-17.4043 343.8232,-14.1097 333.897,-10.4058 333.7537,-17.4043"/>
</g>
<!-- Node2&#45;&gt;Node3 -->
<g id="edge2" class="edge">
<title>Node2&#45;&gt;Node3</title>
<path fill="none" stroke="#191970" d="M308.4058,-27.9145C316.8654,-26.7291 325.484,-25.5214 333.8598,-24.3477"/>
<polygon fill="#191970" stroke="#191970" points="334.5115,-27.7906 343.9291,-22.9367 333.5401,-20.8584 334.5115,-27.7906"/>
</g>
<!-- Node4 -->
<g id="node4" class="node">
<title>Node4</title>
<g id="a_node4"><a xlink:href="namespacemom__error__handler.html#ad5f00a53059c72fe2332d1436c80ca71" target="_top" xlink:title="This returns .true. if the current PE is the root PE.">
<polygon fill="#ffffff" stroke="#000000" points="486,-.5 486,-30.5 592,-30.5 592,-.5 486,-.5"/>
<text text-anchor="start" x="494" y="-18.5" font-family="Helvetica,sans-Serif" font-size="10.00" fill="#000000">mom_error_handler::</text>
<text text-anchor="middle" x="539" y="-7.5" font-family="Helvetica,sans-Serif" font-size="10.00" fill="#000000">is_root_pe</text>
</a>
</g>
</g>
<!-- Node3&#45;&gt;Node4 -->
<g id="edge3" class="edge">
<title>Node3&#45;&gt;Node4</title>
<path fill="none" stroke="#191970" d="M450.2796,-15.5C458.56,-15.5 467.184,-15.5 475.6606,-15.5"/>
<polygon fill="#191970" stroke="#191970" points="475.8941,-19.0001 485.8941,-15.5 475.8941,-12.0001 475.8941,-19.0001"/>
</g>
</g>
</svg>
