<?xml version="1.0" encoding="UTF-8" standalone="no"?>
<!DOCTYPE svg PUBLIC "-//W3C//DTD SVG 1.1//EN"
 "http://www.w3.org/Graphics/SVG/1.1/DTD/svg11.dtd">
<!-- Generated by graphviz version 2.40.1 (20161225.0304)
 -->
<!-- Title: user_shelf_init::user_init_ice_thickness Pages: 1 -->
<svg width="423pt" height="88pt"
 viewBox="0.00 0.00 423.00 88.00" xmlns="http://www.w3.org/2000/svg" xmlns:xlink="http://www.w3.org/1999/xlink">
<g id="graph0" class="graph" transform="scale(1 1) rotate(0) translate(4 84)">
<title>user_shelf_init::user_init_ice_thickness</title>
<polygon fill="#ffffff" stroke="transparent" points="-4,4 -4,-84 419,-84 419,4 -4,4"/>
<!-- Node1 -->
<g id="node1" class="node">
<title>Node1</title>
<g id="a_node1"><a xlink:title="This subroutine updates the ice shelf thickness, as specified by user&#45;provided code.">
<polygon fill="#bfbfbf" stroke="#000000" points="0,-24.5 0,-54.5 110,-54.5 110,-24.5 0,-24.5"/>
<text text-anchor="start" x="8" y="-42.5" font-family="Helvetica,sans-Serif" font-size="10.00" fill="#000000">user_shelf_init::user</text>
<text text-anchor="middle" x="55" y="-31.5" font-family="Helvetica,sans-Serif" font-size="10.00" fill="#000000">_init_ice_thickness</text>
</a>
</g>
</g>
<!-- Node2 -->
<g id="node2" class="node">
<title>Node2</title>
<g id="a_node2"><a xlink:href="namespaceuser__shelf__init.html#abfa7467860df5279c0c9f95d79cb51cf" target="_top" xlink:title="This subroutine sets up the initial mass and area covered by the ice shelf, based on user&#45;provided co...">
<polygon fill="#ffffff" stroke="#000000" points="146,-24.5 146,-54.5 265,-54.5 265,-24.5 146,-24.5"/>
<text text-anchor="start" x="154" y="-42.5" font-family="Helvetica,sans-Serif" font-size="10.00" fill="#000000">user_shelf_init::user</text>
<text text-anchor="middle" x="205.5" y="-31.5" font-family="Helvetica,sans-Serif" font-size="10.00" fill="#000000">_initialize_shelf_mass</text>
</a>
</g>
</g>
<!-- Node1&#45;&gt;Node2 -->
<g id="edge1" class="edge">
<title>Node1&#45;&gt;Node2</title>
<path fill="none" stroke="#191970" d="M110.1861,-39.5C118.4166,-39.5 126.9927,-39.5 135.4796,-39.5"/>
<polygon fill="#191970" stroke="#191970" points="135.7584,-43.0001 145.7583,-39.5 135.7583,-36.0001 135.7584,-43.0001"/>
</g>
<!-- Node3 -->
<g id="node3" class="node">
<title>Node3</title>
<g id="a_node3"><a xlink:href="namespaceuser__shelf__init.html#abd99438d24c4a57aa3fbab3b067a7c81" target="_top" xlink:title="This subroutine updates the ice shelf mass, as specified by user&#45;provided code.">
<polygon fill="#ffffff" stroke="#000000" points="301,-49.5 301,-79.5 415,-79.5 415,-49.5 301,-49.5"/>
<text text-anchor="start" x="309" y="-67.5" font-family="Helvetica,sans-Serif" font-size="10.00" fill="#000000">user_shelf_init::user</text>
<text text-anchor="middle" x="358" y="-56.5" font-family="Helvetica,sans-Serif" font-size="10.00" fill="#000000">_update_shelf_mass</text>
</a>
</g>
</g>
<!-- Node2&#45;&gt;Node3 -->
<g id="edge2" class="edge">
<title>Node2&#45;&gt;Node3</title>
<path fill="none" stroke="#191970" d="M265.3343,-49.3089C273.731,-50.6854 282.4064,-52.1076 290.9267,-53.5044"/>
<polygon fill="#191970" stroke="#191970" points="290.3971,-56.9642 300.8316,-55.1281 291.5296,-50.0564 290.3971,-56.9642"/>
</g>
<!-- Node4 -->
<g id="node4" class="node">
<title>Node4</title>
<g id="a_node4"><a xlink:href="namespaceuser__shelf__init.html#a04dc4958214e8b07da385f8be785d706" target="_top" xlink:title="This subroutine writes out the user ice shelf code version number to the model log.">
<polygon fill="#ffffff" stroke="#000000" points="302,-.5 302,-30.5 414,-30.5 414,-.5 302,-.5"/>
<text text-anchor="start" x="310" y="-18.5" font-family="Helvetica,sans-Serif" font-size="10.00" fill="#000000">user_shelf_init::write</text>
<text text-anchor="middle" x="358" y="-7.5" font-family="Helvetica,sans-Serif" font-size="10.00" fill="#000000">_user_log</text>
</a>
</g>
</g>
<!-- Node2&#45;&gt;Node4 -->
<g id="edge3" class="edge">
<title>Node2&#45;&gt;Node4</title>
<path fill="none" stroke="#191970" d="M265.3343,-30.0834C274.0648,-28.7095 283.0966,-27.2881 291.9421,-25.896"/>
<polygon fill="#191970" stroke="#191970" points="292.4895,-29.353 301.8237,-24.3409 291.4012,-22.4381 292.4895,-29.353"/>
</g>
</g>
</svg>
