<?xml version="1.0" encoding="UTF-8" standalone="no"?>
<!DOCTYPE svg PUBLIC "-//W3C//DTD SVG 1.1//EN"
 "http://www.w3.org/Graphics/SVG/1.1/DTD/svg11.dtd">
<!-- Generated by graphviz version 2.40.1 (20161225.0304)
 -->
<!-- Title: mom_thickness_diffuse::thickness_diffuse_full Pages: 1 -->
<svg width="426pt" height="137pt"
 viewBox="0.00 0.00 426.00 137.00" xmlns="http://www.w3.org/2000/svg" xmlns:xlink="http://www.w3.org/1999/xlink">
<g id="graph0" class="graph" transform="scale(1 1) rotate(0) translate(4 133)">
<title>mom_thickness_diffuse::thickness_diffuse_full</title>
<polygon fill="#ffffff" stroke="transparent" points="-4,4 -4,-133 422,-133 422,4 -4,4"/>
<!-- Node1 -->
<g id="node1" class="node">
<title>Node1</title>
<g id="a_node1"><a xlink:title="Calculates parameterized layer transports for use in the continuity equation. Fluxes are limited to g...">
<polygon fill="#bfbfbf" stroke="#000000" points="0,-49.5 0,-79.5 120,-79.5 120,-49.5 0,-49.5"/>
<text text-anchor="start" x="8" y="-67.5" font-family="Helvetica,sans-Serif" font-size="10.00" fill="#000000">mom_thickness_diffuse</text>
<text text-anchor="middle" x="60" y="-56.5" font-family="Helvetica,sans-Serif" font-size="10.00" fill="#000000">::thickness_diffuse_full</text>
</a>
</g>
</g>
<!-- Node2 -->
<g id="node2" class="node">
<title>Node2</title>
<g id="a_node2"><a xlink:href="namespacemom__error__handler.html#a460cfb79a06c29fc249952c2a3710d67" target="_top" xlink:title="This provides a convenient interface for writing an mpp_error message with run&#45;time filter based on a...">
<polygon fill="#ffffff" stroke="#000000" points="163,-98.5 163,-128.5 269,-128.5 269,-98.5 163,-98.5"/>
<text text-anchor="start" x="171" y="-116.5" font-family="Helvetica,sans-Serif" font-size="10.00" fill="#000000">mom_error_handler::</text>
<text text-anchor="middle" x="216" y="-105.5" font-family="Helvetica,sans-Serif" font-size="10.00" fill="#000000">mom_error</text>
</a>
</g>
</g>
<!-- Node1&#45;&gt;Node2 -->
<g id="edge1" class="edge">
<title>Node1&#45;&gt;Node2</title>
<path fill="none" stroke="#191970" d="M108.0781,-79.6014C124.0183,-84.6083 141.9237,-90.2324 158.4996,-95.439"/>
<polygon fill="#191970" stroke="#191970" points="157.4914,-98.7908 168.0807,-98.4484 159.5891,-92.1125 157.4914,-98.7908"/>
</g>
<!-- Node4 -->
<g id="node4" class="node">
<title>Node4</title>
<g id="a_node4"><a xlink:href="namespacemom__thickness__diffuse.html#a52d5fe57d53414fdc05f669723c9774e" target="_top" xlink:title="Tridiagonal solver for streamfunction at interfaces.">
<polygon fill="#ffffff" stroke="#000000" points="156,-49.5 156,-79.5 276,-79.5 276,-49.5 156,-49.5"/>
<text text-anchor="start" x="164" y="-67.5" font-family="Helvetica,sans-Serif" font-size="10.00" fill="#000000">mom_thickness_diffuse</text>
<text text-anchor="middle" x="216" y="-56.5" font-family="Helvetica,sans-Serif" font-size="10.00" fill="#000000">::streamfn_solver</text>
</a>
</g>
</g>
<!-- Node1&#45;&gt;Node4 -->
<g id="edge3" class="edge">
<title>Node1&#45;&gt;Node4</title>
<path fill="none" stroke="#191970" d="M120.3137,-64.5C128.6036,-64.5 137.1748,-64.5 145.6255,-64.5"/>
<polygon fill="#191970" stroke="#191970" points="145.8468,-68.0001 155.8467,-64.5 145.8467,-61.0001 145.8468,-68.0001"/>
</g>
<!-- Node5 -->
<g id="node5" class="node">
<title>Node5</title>
<g id="a_node5"><a xlink:href="namespacemom__isopycnal__slopes.html#a34691482caaff356da3c5182657dba0d" target="_top" xlink:title="Returns tracer arrays (nominally T and S) with massless layers filled with sensible values,...">
<polygon fill="#ffffff" stroke="#000000" points="156.5,-.5 156.5,-30.5 275.5,-30.5 275.5,-.5 156.5,-.5"/>
<text text-anchor="start" x="164.5" y="-18.5" font-family="Helvetica,sans-Serif" font-size="10.00" fill="#000000">mom_isopycnal_slopes</text>
<text text-anchor="middle" x="216" y="-7.5" font-family="Helvetica,sans-Serif" font-size="10.00" fill="#000000">::vert_fill_ts</text>
</a>
</g>
</g>
<!-- Node1&#45;&gt;Node5 -->
<g id="edge4" class="edge">
<title>Node1&#45;&gt;Node5</title>
<path fill="none" stroke="#191970" d="M108.0781,-49.3986C124.0183,-44.3917 141.9237,-38.7676 158.4996,-33.561"/>
<polygon fill="#191970" stroke="#191970" points="159.5891,-36.8875 168.0807,-30.5516 157.4914,-30.2092 159.5891,-36.8875"/>
</g>
<!-- Node3 -->
<g id="node3" class="node">
<title>Node3</title>
<g id="a_node3"><a xlink:href="namespacemom__error__handler.html#ad5f00a53059c72fe2332d1436c80ca71" target="_top" xlink:title="This returns .true. if the current PE is the root PE.">
<polygon fill="#ffffff" stroke="#000000" points="312,-98.5 312,-128.5 418,-128.5 418,-98.5 312,-98.5"/>
<text text-anchor="start" x="320" y="-116.5" font-family="Helvetica,sans-Serif" font-size="10.00" fill="#000000">mom_error_handler::</text>
<text text-anchor="middle" x="365" y="-105.5" font-family="Helvetica,sans-Serif" font-size="10.00" fill="#000000">is_root_pe</text>
</a>
</g>
</g>
<!-- Node2&#45;&gt;Node3 -->
<g id="edge2" class="edge">
<title>Node2&#45;&gt;Node3</title>
<path fill="none" stroke="#191970" d="M269.3716,-113.5C279.8128,-113.5 290.8577,-113.5 301.5886,-113.5"/>
<polygon fill="#191970" stroke="#191970" points="301.7508,-117.0001 311.7508,-113.5 301.7508,-110.0001 301.7508,-117.0001"/>
</g>
</g>
</svg>
