<?xml version="1.0" encoding="UTF-8" standalone="no"?>
<!DOCTYPE svg PUBLIC "-//W3C//DTD SVG 1.1//EN"
 "http://www.w3.org/Graphics/SVG/1.1/DTD/svg11.dtd">
<!-- Generated by graphviz version 2.40.1 (20161225.0304)
 -->
<!-- Title: coord_rho::old_inflate_layers_1d Pages: 1 -->
<svg width="451pt" height="137pt"
 viewBox="0.00 0.00 451.00 137.00" xmlns="http://www.w3.org/2000/svg" xmlns:xlink="http://www.w3.org/1999/xlink">
<g id="graph0" class="graph" transform="scale(1 1) rotate(0) translate(4 133)">
<title>coord_rho::old_inflate_layers_1d</title>
<polygon fill="#ffffff" stroke="transparent" points="-4,4 -4,-133 447,-133 447,4 -4,4"/>
<!-- Node1 -->
<g id="node1" class="node">
<title>Node1</title>
<g id="a_node1"><a xlink:title="Inflate vanished layers to finite (nonzero) width.">
<polygon fill="#bfbfbf" stroke="#000000" points="324,-49.5 324,-79.5 443,-79.5 443,-49.5 324,-49.5"/>
<text text-anchor="start" x="332" y="-67.5" font-family="Helvetica,sans-Serif" font-size="10.00" fill="#000000">coord_rho::old_inflate</text>
<text text-anchor="middle" x="383.5" y="-56.5" font-family="Helvetica,sans-Serif" font-size="10.00" fill="#000000">_layers_1d</text>
</a>
</g>
</g>
<!-- Node2 -->
<g id="node2" class="node">
<title>Node2</title>
<g id="a_node2"><a xlink:href="namespacecoord__rho.html#ac3f19bfa0e6b622cdf045c348ec4d183" target="_top" xlink:title="Build a rho coordinate column.">
<polygon fill="#ffffff" stroke="#000000" points="168.5,-98.5 168.5,-128.5 281.5,-128.5 281.5,-98.5 168.5,-98.5"/>
<text text-anchor="start" x="176.5" y="-116.5" font-family="Helvetica,sans-Serif" font-size="10.00" fill="#000000">coord_rho::build_rho</text>
<text text-anchor="middle" x="225" y="-105.5" font-family="Helvetica,sans-Serif" font-size="10.00" fill="#000000">_column</text>
</a>
</g>
</g>
<!-- Node1&#45;&gt;Node2 -->
<g id="edge1" class="edge">
<title>Node1&#45;&gt;Node2</title>
<path fill="none" stroke="#191970" d="M324.9103,-82.6129C308.0598,-87.8222 289.8696,-93.4457 273.6872,-98.4484"/>
<polygon fill="#191970" stroke="#191970" points="326.1314,-85.8989 334.6515,-79.6014 324.0638,-79.2112 326.1314,-85.8989"/>
</g>
<!-- Node4 -->
<g id="node4" class="node">
<title>Node4</title>
<g id="a_node4"><a xlink:href="namespacecoord__rho.html#aa5b249b62eabf07cdc7f02649f029cae" target="_top" xlink:title="Iteratively build a rho coordinate column.">
<polygon fill="#ffffff" stroke="#000000" points="168.5,-49.5 168.5,-79.5 281.5,-79.5 281.5,-49.5 168.5,-49.5"/>
<text text-anchor="start" x="176.5" y="-67.5" font-family="Helvetica,sans-Serif" font-size="10.00" fill="#000000">coord_rho::build_rho</text>
<text text-anchor="middle" x="225" y="-56.5" font-family="Helvetica,sans-Serif" font-size="10.00" fill="#000000">_column_iteratively</text>
</a>
</g>
</g>
<!-- Node1&#45;&gt;Node4 -->
<g id="edge3" class="edge">
<title>Node1&#45;&gt;Node4</title>
<path fill="none" stroke="#191970" d="M313.4578,-64.5C302.8038,-64.5 291.9248,-64.5 281.605,-64.5"/>
<polygon fill="#191970" stroke="#191970" points="313.578,-68.0001 323.5779,-64.5 313.5779,-61.0001 313.578,-68.0001"/>
</g>
<!-- Node5 -->
<g id="node5" class="node">
<title>Node5</title>
<g id="a_node5"><a xlink:href="namespacemom__regridding.html#aeb36a31003c4887ea1af82c11c627f2f" target="_top" xlink:title=" ">
<polygon fill="#ffffff" stroke="#000000" points="162,-.5 162,-30.5 288,-30.5 288,-.5 162,-.5"/>
<text text-anchor="start" x="170" y="-18.5" font-family="Helvetica,sans-Serif" font-size="10.00" fill="#000000">mom_regridding::inflate</text>
<text text-anchor="middle" x="225" y="-7.5" font-family="Helvetica,sans-Serif" font-size="10.00" fill="#000000">_vanished_layers_old</text>
</a>
</g>
</g>
<!-- Node1&#45;&gt;Node5 -->
<g id="edge4" class="edge">
<title>Node1&#45;&gt;Node5</title>
<path fill="none" stroke="#191970" d="M324.9103,-46.3871C308.0598,-41.1778 289.8696,-35.5543 273.6872,-30.5516"/>
<polygon fill="#191970" stroke="#191970" points="324.0638,-49.7888 334.6515,-49.3986 326.1314,-43.1011 324.0638,-49.7888"/>
</g>
<!-- Node3 -->
<g id="node3" class="node">
<title>Node3</title>
<g id="a_node3"><a xlink:href="namespacemom__diag__remap.html#a1951a63528283e209401e317872f650b" target="_top" xlink:title="Build/update target vertical grids for diagnostic remapping.">
<polygon fill="#ffffff" stroke="#000000" points="0,-98.5 0,-128.5 126,-128.5 126,-98.5 0,-98.5"/>
<text text-anchor="start" x="8" y="-116.5" font-family="Helvetica,sans-Serif" font-size="10.00" fill="#000000">mom_diag_remap::diag</text>
<text text-anchor="middle" x="63" y="-105.5" font-family="Helvetica,sans-Serif" font-size="10.00" fill="#000000">_remap_update</text>
</a>
</g>
</g>
<!-- Node2&#45;&gt;Node3 -->
<g id="edge2" class="edge">
<title>Node2&#45;&gt;Node3</title>
<path fill="none" stroke="#191970" d="M158.3098,-113.5C147.7143,-113.5 136.7815,-113.5 126.2678,-113.5"/>
<polygon fill="#191970" stroke="#191970" points="158.3403,-117.0001 168.3403,-113.5 158.3402,-110.0001 158.3403,-117.0001"/>
</g>
</g>
</svg>
