<?xml version="1.0" encoding="UTF-8" standalone="no"?>
<!DOCTYPE svg PUBLIC "-//W3C//DTD SVG 1.1//EN"
 "http://www.w3.org/Graphics/SVG/1.1/DTD/svg11.dtd">
<!-- Generated by graphviz version 2.40.1 (20161225.0304)
 -->
<!-- Title: mom_pressureforce_mont::pressureforce_mont_nonbouss Pages: 1 -->
<svg width="802pt" height="253pt"
 viewBox="0.00 0.00 802.00 253.00" xmlns="http://www.w3.org/2000/svg" xmlns:xlink="http://www.w3.org/1999/xlink">
<g id="graph0" class="graph" transform="scale(1 1) rotate(0) translate(4 249)">
<title>mom_pressureforce_mont::pressureforce_mont_nonbouss</title>
<polygon fill="#ffffff" stroke="transparent" points="-4,4 -4,-249 798,-249 798,4 -4,4"/>
<!-- Node1 -->
<g id="node1" class="node">
<title>Node1</title>
<g id="a_node1"><a xlink:title="Non&#45;Boussinesq Montgomery&#45;potential form of pressure gradient.">
<polygon fill="#bfbfbf" stroke="#000000" points="0,-82.5 0,-112.5 156,-112.5 156,-82.5 0,-82.5"/>
<text text-anchor="start" x="8" y="-100.5" font-family="Helvetica,sans-Serif" font-size="10.00" fill="#000000">mom_pressureforce_mont</text>
<text text-anchor="middle" x="78" y="-89.5" font-family="Helvetica,sans-Serif" font-size="10.00" fill="#000000">::pressureforce_mont_nonbouss</text>
</a>
</g>
</g>
<!-- Node2 -->
<g id="node2" class="node">
<title>Node2</title>
<g id="a_node2"><a xlink:href="namespacemom__tidal__forcing.html#a9614ae35fac1d880d5daacbd60f3d47a" target="_top" xlink:title="This subroutine calculates the geopotential anomalies that drive the tides, including self&#45;attraction...">
<polygon fill="#ffffff" stroke="#000000" points="206,-175.5 206,-205.5 308,-205.5 308,-175.5 206,-175.5"/>
<text text-anchor="start" x="214" y="-193.5" font-family="Helvetica,sans-Serif" font-size="10.00" fill="#000000">mom_tidal_forcing::</text>
<text text-anchor="middle" x="257" y="-182.5" font-family="Helvetica,sans-Serif" font-size="10.00" fill="#000000">calc_tidal_forcing</text>
</a>
</g>
</g>
<!-- Node1&#45;&gt;Node2 -->
<g id="edge1" class="edge">
<title>Node1&#45;&gt;Node2</title>
<path fill="none" stroke="#191970" d="M100.0022,-112.5538C122.4588,-127.4968 158.6534,-150.4332 192,-166.5 195.7185,-168.2916 199.6079,-170.0341 203.5556,-171.7085"/>
<polygon fill="#191970" stroke="#191970" points="202.2382,-174.951 212.8197,-175.4827 204.8793,-168.4684 202.2382,-174.951"/>
</g>
<!-- Node3 -->
<g id="node3" class="node">
<title>Node3</title>
<g id="a_node3"><a xlink:href="namespacemom__eos.html#a792633967cd29eb6155762b557f35959" target="_top" xlink:title="Calls the appropriate subroutine to alculate analytical and nearly&#45;analytical integrals in pressure a...">
<polygon fill="#ffffff" stroke="#000000" points="199.5,-126.5 199.5,-156.5 314.5,-156.5 314.5,-126.5 199.5,-126.5"/>
<text text-anchor="start" x="207.5" y="-144.5" font-family="Helvetica,sans-Serif" font-size="10.00" fill="#000000">mom_eos::int_specific</text>
<text text-anchor="middle" x="257" y="-133.5" font-family="Helvetica,sans-Serif" font-size="10.00" fill="#000000">_vol_dp</text>
</a>
</g>
</g>
<!-- Node1&#45;&gt;Node3 -->
<g id="edge2" class="edge">
<title>Node1&#45;&gt;Node3</title>
<path fill="none" stroke="#191970" d="M139.101,-112.5192C155.2883,-116.4982 172.8582,-120.8171 189.3702,-124.8759"/>
<polygon fill="#191970" stroke="#191970" points="188.9463,-128.3758 199.4927,-127.3641 190.6173,-121.5782 188.9463,-128.3758"/>
</g>
<!-- Node5 -->
<g id="node5" class="node">
<title>Node5</title>
<g id="a_node5"><a xlink:href="namespacemom__error__handler.html#a460cfb79a06c29fc249952c2a3710d67" target="_top" xlink:title="This provides a convenient interface for writing an mpp_error message with run&#45;time filter based on a...">
<polygon fill="#ffffff" stroke="#000000" points="546,-126.5 546,-156.5 652,-156.5 652,-126.5 546,-126.5"/>
<text text-anchor="start" x="554" y="-144.5" font-family="Helvetica,sans-Serif" font-size="10.00" fill="#000000">mom_error_handler::</text>
<text text-anchor="middle" x="599" y="-133.5" font-family="Helvetica,sans-Serif" font-size="10.00" fill="#000000">mom_error</text>
</a>
</g>
</g>
<!-- Node1&#45;&gt;Node5 -->
<g id="edge8" class="edge">
<title>Node1&#45;&gt;Node5</title>
<path fill="none" stroke="#191970" d="M156.1585,-96.0449C243.0825,-95.6013 387.4139,-98.3668 510,-117.5 520.1851,-119.0897 530.8794,-121.3989 541.1818,-123.9648"/>
<polygon fill="#191970" stroke="#191970" points="540.3514,-127.3652 550.9099,-126.4885 542.1093,-120.5895 540.3514,-127.3652"/>
</g>
<!-- Node8 -->
<g id="node8" class="node">
<title>Node8</title>
<g id="a_node8"><a xlink:href="namespacemom__eos.html#aee169aee0e4cbed420782d772282bb69" target="_top" xlink:title="Returns true if the equation of state is compressible (i.e. has pressure dependence)">
<polygon fill="#ffffff" stroke="#000000" points="358,-50 358,-69 510,-69 510,-50 358,-50"/>
<text text-anchor="middle" x="434" y="-57" font-family="Helvetica,sans-Serif" font-size="10.00" fill="#000000">mom_eos::query_compressible</text>
</a>
</g>
</g>
<!-- Node1&#45;&gt;Node8 -->
<g id="edge9" class="edge">
<title>Node1&#45;&gt;Node8</title>
<path fill="none" stroke="#191970" d="M156.16,-87.6565C168.1579,-86.2163 180.4061,-84.7866 192,-83.5 243.7016,-77.7624 301.6928,-71.9884 347.9434,-67.542"/>
<polygon fill="#191970" stroke="#191970" points="348.3071,-71.0233 357.9276,-66.5853 347.6393,-64.0552 348.3071,-71.0233"/>
</g>
<!-- Node9 -->
<g id="node9" class="node">
<title>Node9</title>
<g id="a_node9"><a xlink:href="namespacemom__pressureforce__mont.html#a297cdf6e4eb83d250444c5f527a8a232" target="_top" xlink:title="Determines the partial derivative of the acceleration due to pressure forces with the column mass.">
<polygon fill="#ffffff" stroke="#000000" points="192,-.5 192,-30.5 322,-30.5 322,-.5 192,-.5"/>
<text text-anchor="start" x="200" y="-18.5" font-family="Helvetica,sans-Serif" font-size="10.00" fill="#000000">mom_pressureforce_mont</text>
<text text-anchor="middle" x="257" y="-7.5" font-family="Helvetica,sans-Serif" font-size="10.00" fill="#000000">::set_pbce_nonbouss</text>
</a>
</g>
</g>
<!-- Node1&#45;&gt;Node9 -->
<g id="edge11" class="edge">
<title>Node1&#45;&gt;Node9</title>
<path fill="none" stroke="#191970" d="M110.8314,-82.4599C140.0094,-69.0935 182.8381,-49.4736 214.5998,-34.9236"/>
<polygon fill="#191970" stroke="#191970" points="216.4404,-37.9302 224.0742,-30.5833 213.525,-31.5662 216.4404,-37.9302"/>
</g>
<!-- Node4 -->
<g id="node4" class="node">
<title>Node4</title>
<g id="a_node4"><a xlink:href="namespacemom__eos.html#a4f39721f1e17a9a94c5eba3e8fcf0fa3" target="_top" xlink:title="This subroutine calculates integrals of specific volume anomalies in pressure across layers,...">
<polygon fill="#ffffff" stroke="#000000" points="374,-214.5 374,-244.5 494,-244.5 494,-214.5 374,-214.5"/>
<text text-anchor="start" x="382" y="-232.5" font-family="Helvetica,sans-Serif" font-size="10.00" fill="#000000">mom_eos::int_spec_vol</text>
<text text-anchor="middle" x="434" y="-221.5" font-family="Helvetica,sans-Serif" font-size="10.00" fill="#000000">_dp_generic</text>
</a>
</g>
</g>
<!-- Node3&#45;&gt;Node4 -->
<g id="edge3" class="edge">
<title>Node3&#45;&gt;Node4</title>
<path fill="none" stroke="#191970" d="M302.8036,-156.6049C309.4417,-159.5047 316.0384,-162.8074 322,-166.5 340.4522,-177.9292 339.5982,-187.9898 358,-199.5 364.2838,-203.4305 371.1685,-207.0062 378.147,-210.2083"/>
<polygon fill="#191970" stroke="#191970" points="377.1068,-213.5722 387.6737,-214.3415 379.8929,-207.1505 377.1068,-213.5722"/>
</g>
<!-- Node3&#45;&gt;Node5 -->
<g id="edge7" class="edge">
<title>Node3&#45;&gt;Node5</title>
<path fill="none" stroke="#191970" d="M307.4149,-156.5264C323.4349,-160.6115 341.3241,-164.4668 358,-166.5 425.059,-174.676 443.0767,-175.7209 510,-166.5 521.4362,-164.9243 533.4722,-162.2604 544.8679,-159.2441"/>
<polygon fill="#191970" stroke="#191970" points="545.9854,-162.5664 554.6865,-156.5214 544.1148,-155.821 545.9854,-162.5664"/>
</g>
<!-- Node7 -->
<g id="node7" class="node">
<title>Node7</title>
<g id="a_node7"><a xlink:href="namespacemom__eos__linear.html#ac9a31e315e6cb02f8f270de7c877f688" target="_top" xlink:title="Calculates analytical and nearly&#45;analytical integrals in pressure across layers of geopotential anoma...">
<polygon fill="#ffffff" stroke="#000000" points="381.5,-126.5 381.5,-156.5 486.5,-156.5 486.5,-126.5 381.5,-126.5"/>
<text text-anchor="start" x="389.5" y="-144.5" font-family="Helvetica,sans-Serif" font-size="10.00" fill="#000000">mom_eos_linear::int</text>
<text text-anchor="middle" x="434" y="-133.5" font-family="Helvetica,sans-Serif" font-size="10.00" fill="#000000">_spec_vol_dp_linear</text>
</a>
</g>
</g>
<!-- Node3&#45;&gt;Node7 -->
<g id="edge6" class="edge">
<title>Node3&#45;&gt;Node7</title>
<path fill="none" stroke="#191970" d="M314.9564,-141.5C332.9909,-141.5 352.9541,-141.5 371.2972,-141.5"/>
<polygon fill="#191970" stroke="#191970" points="371.2986,-145.0001 381.2986,-141.5 371.2986,-138.0001 371.2986,-145.0001"/>
</g>
<!-- Node4&#45;&gt;Node5 -->
<g id="edge4" class="edge">
<title>Node4&#45;&gt;Node5</title>
<path fill="none" stroke="#191970" d="M476.4848,-214.4754C487.5913,-210.0777 499.4132,-204.9681 510,-199.5 530.9309,-188.6892 553.132,-174.2269 570.1248,-162.4485"/>
<polygon fill="#191970" stroke="#191970" points="572.3285,-165.1778 578.5019,-156.5674 568.3064,-159.4487 572.3285,-165.1778"/>
</g>
<!-- Node6 -->
<g id="node6" class="node">
<title>Node6</title>
<g id="a_node6"><a xlink:href="namespacemom__error__handler.html#ad5f00a53059c72fe2332d1436c80ca71" target="_top" xlink:title="This returns .true. if the current PE is the root PE.">
<polygon fill="#ffffff" stroke="#000000" points="688,-126.5 688,-156.5 794,-156.5 794,-126.5 688,-126.5"/>
<text text-anchor="start" x="696" y="-144.5" font-family="Helvetica,sans-Serif" font-size="10.00" fill="#000000">mom_error_handler::</text>
<text text-anchor="middle" x="741" y="-133.5" font-family="Helvetica,sans-Serif" font-size="10.00" fill="#000000">is_root_pe</text>
</a>
</g>
</g>
<!-- Node5&#45;&gt;Node6 -->
<g id="edge5" class="edge">
<title>Node5&#45;&gt;Node6</title>
<path fill="none" stroke="#191970" d="M652.2796,-141.5C660.56,-141.5 669.184,-141.5 677.6606,-141.5"/>
<polygon fill="#191970" stroke="#191970" points="677.8941,-145.0001 687.8941,-141.5 677.8941,-138.0001 677.8941,-145.0001"/>
</g>
<!-- Node8&#45;&gt;Node5 -->
<g id="edge10" class="edge">
<title>Node8&#45;&gt;Node5</title>
<path fill="none" stroke="#191970" d="M471.1063,-69.0171C483.731,-72.8275 497.7415,-77.7032 510,-83.5 531.5807,-93.7051 554.0909,-108.418 571.0736,-120.4714"/>
<polygon fill="#191970" stroke="#191970" points="569.2598,-123.4787 579.4165,-126.4942 573.3571,-117.8031 569.2598,-123.4787"/>
</g>
</g>
</svg>
