<?xml version="1.0" encoding="UTF-8" standalone="no"?>
<!DOCTYPE svg PUBLIC "-//W3C//DTD SVG 1.1//EN"
 "http://www.w3.org/Graphics/SVG/1.1/DTD/svg11.dtd">
<!-- Generated by graphviz version 2.40.1 (20161225.0304)
 -->
<!-- Title: mom_tracer_diabatic::tracer_vertdiff Pages: 1 -->
<!--zoomable 723 -->
<svg id="main" version="1.1" xmlns="http://www.w3.org/2000/svg" xmlns:xlink="http://www.w3.org/1999/xlink" xml:space="preserve" onload="init(evt)">
<style type="text/css"><![CDATA[
.edge:hover path { stroke: red; }
.edge:hover polygon { stroke: red; fill: red; }
]]></style>
<script type="text/javascript"><![CDATA[
var edges = document.getElementsByTagName('g');
if (edges && edges.length) {
  for (var i=0;i<edges.length;i++) {
    if (edges[i].id.substr(0,4)=='edge') {
      edges[i].setAttribute('class','edge');
    }
  }
}
]]></script>
        <defs>
                <circle id="rim" cx="0" cy="0" r="7"/>
                <circle id="rim2" cx="0" cy="0" r="3.5"/>
                <g id="zoomPlus">
                        <use xlink:href="#rim" fill="#404040">
                                <set attributeName="fill" to="#808080" begin="zoomplus.mouseover" end="zoomplus.mouseout"/>
                        </use>
                        <path d="M-4,0h8M0,-4v8" fill="none" stroke="white" stroke-width="1.5" pointer-events="none"/>
                </g>
                <g id="zoomMin">
                        <use xlink:href="#rim" fill="#404040">
                                <set attributeName="fill" to="#808080" begin="zoomminus.mouseover" end="zoomminus.mouseout"/>
                        </use>
                        <path d="M-4,0h8" fill="none" stroke="white" stroke-width="1.5" pointer-events="none"/>
                </g>
                <g id="dirArrow">
                        <path fill="none" stroke="white" stroke-width="1.5" d="M0,-3.0v7 M-2.5,-0.5L0,-3.0L2.5,-0.5"/>
                </g>
               <g id="resetDef">
                       <use xlink:href="#rim2" fill="#404040">
                               <set attributeName="fill" to="#808080" begin="reset.mouseover" end="reset.mouseout"/>
                       </use>
               </g>
        </defs>

<script type="text/javascript">
var viewWidth = 437;
var viewHeight = 723;
var sectionId = 'dynsection-3';
</script>
<script xlink:href="svgpan.js"/>
<svg id="graph" class="graph">
<g id="viewport">
<title>mom_tracer_diabatic::tracer_vertdiff</title>
<polygon fill="#ffffff" stroke="transparent" points="-4,4 -4,-718.5 433,-718.5 433,4 -4,4"/>
<!-- Node1 -->
<g id="node1" class="node">
<title>Node1</title>
<g id="a_node1"><a xlink:title="This subroutine solves a tridiagonal equation for the final tracer concentrations after the dual&#45;entr...">
<polygon fill="#bfbfbf" stroke="#000000" points="322,-339.5 322,-369.5 429,-369.5 429,-339.5 322,-339.5"/>
<text text-anchor="start" x="330" y="-357.5" font-family="Helvetica,sans-Serif" font-size="10.00" fill="#000000">mom_tracer_diabatic</text>
<text text-anchor="middle" x="375.5" y="-346.5" font-family="Helvetica,sans-Serif" font-size="10.00" fill="#000000">::tracer_vertdiff</text>
</a>
</g>
</g>
<!-- Node2 -->
<g id="node2" class="node">
<title>Node2</title>
<g id="a_node2"><a xlink:href="namespaceadvection__test__tracer.html#a475d1016ef9ccf0151bc3b40ccd89931" target="_top" xlink:title="Applies diapycnal diffusion and any other column tracer physics or chemistry to the tracers from this...">
<polygon fill="#ffffff" stroke="#000000" points="156.5,-673 156.5,-714 272.5,-714 272.5,-673 156.5,-673"/>
<text text-anchor="start" x="164.5" y="-702" font-family="Helvetica,sans-Serif" font-size="10.00" fill="#000000">advection_test_tracer</text>
<text text-anchor="start" x="164.5" y="-691" font-family="Helvetica,sans-Serif" font-size="10.00" fill="#000000">::advection_test_tracer</text>
<text text-anchor="middle" x="214.5" y="-680" font-family="Helvetica,sans-Serif" font-size="10.00" fill="#000000">_column_physics</text>
</a>
</g>
</g>
<!-- Node1&#45;&gt;Node2 -->
<g id="edge1" class="edge">
<title>Node1&#45;&gt;Node2</title>
<path fill="none" stroke="#191970" d="M371.1406,-379.4056C359.2291,-444.9833 324.4466,-620.3419 286,-663.5 282.1497,-667.8222 277.5755,-671.5388 272.6294,-674.7313"/>
<polygon fill="#191970" stroke="#191970" points="374.5939,-379.9767 372.914,-369.5159 367.7038,-378.7411 374.5939,-379.9767"/>
</g>
<!-- Node3 -->
<g id="node3" class="node">
<title>Node3</title>
<g id="a_node3"><a xlink:href="namespaceboundary__impulse__tracer.html#ae5c5e088ee2daf72dfec738fb0d6e1a6" target="_top" xlink:title="Apply source or sink at boundary and do vertical diffusion.">
<polygon fill="#ffffff" stroke="#000000" points="149,-613 149,-654 280,-654 280,-613 149,-613"/>
<text text-anchor="start" x="157" y="-642" font-family="Helvetica,sans-Serif" font-size="10.00" fill="#000000">boundary_impulse_tracer</text>
<text text-anchor="start" x="157" y="-631" font-family="Helvetica,sans-Serif" font-size="10.00" fill="#000000">::boundary_impulse_tracer</text>
<text text-anchor="middle" x="214.5" y="-620" font-family="Helvetica,sans-Serif" font-size="10.00" fill="#000000">_column_physics</text>
</a>
</g>
</g>
<!-- Node1&#45;&gt;Node3 -->
<g id="edge2" class="edge">
<title>Node1&#45;&gt;Node3</title>
<path fill="none" stroke="#191970" d="M373.1173,-379.6347C367.176,-428.8502 347.4455,-538.7594 286,-603.5 282.6639,-607.015 278.8521,-610.1347 274.7644,-612.9008"/>
<polygon fill="#191970" stroke="#191970" points="376.6114,-379.8816 374.2408,-369.5554 369.6544,-379.1061 376.6114,-379.8816"/>
</g>
<!-- Node4 -->
<g id="node4" class="node">
<title>Node4</title>
<g id="a_node4"><a xlink:href="namespacemom__diabatic__driver.html#ae57c48925de75712384e859a851c8c40" target="_top" xlink:title="This subroutine imposes the diapycnal mass fluxes and the accompanying diapycnal advection of momentu...">
<polygon fill="#ffffff" stroke="#000000" points="161,-563.5 161,-593.5 268,-593.5 268,-563.5 161,-563.5"/>
<text text-anchor="start" x="169" y="-581.5" font-family="Helvetica,sans-Serif" font-size="10.00" fill="#000000">mom_diabatic_driver</text>
<text text-anchor="middle" x="214.5" y="-570.5" font-family="Helvetica,sans-Serif" font-size="10.00" fill="#000000">::diabatic_ale</text>
</a>
</g>
</g>
<!-- Node1&#45;&gt;Node4 -->
<g id="edge3" class="edge">
<title>Node1&#45;&gt;Node4</title>
<path fill="none" stroke="#191970" d="M371.0088,-379.6995C362.2038,-421.8285 338.7356,-506.6433 286,-554.5 280.7639,-559.2516 274.5555,-563.0666 268.0178,-566.1285"/>
<polygon fill="#191970" stroke="#191970" points="374.4756,-380.2099 372.9845,-369.7205 367.6089,-378.8503 374.4756,-380.2099"/>
</g>
<!-- Node6 -->
<g id="node6" class="node">
<title>Node6</title>
<g id="a_node6"><a xlink:href="namespacemom__diabatic__driver.html#a598d99106680c83e410a0a51a59588ea" target="_top" xlink:title="Applies diabatic forcing and diapycnal mixing of temperature, salinity and other tracers for use with...">
<polygon fill="#ffffff" stroke="#000000" points="160.5,-514.5 160.5,-544.5 268.5,-544.5 268.5,-514.5 160.5,-514.5"/>
<text text-anchor="start" x="168.5" y="-532.5" font-family="Helvetica,sans-Serif" font-size="10.00" fill="#000000">mom_diabatic_driver</text>
<text text-anchor="middle" x="214.5" y="-521.5" font-family="Helvetica,sans-Serif" font-size="10.00" fill="#000000">::diabatic_ale_legacy</text>
</a>
</g>
</g>
<!-- Node1&#45;&gt;Node6 -->
<g id="edge5" class="edge">
<title>Node1&#45;&gt;Node6</title>
<path fill="none" stroke="#191970" d="M367.1157,-379.236C354.59,-412.5759 327.8819,-471.6457 286,-505.5 280.8066,-509.6979 274.8448,-513.1758 268.6268,-516.0538"/>
<polygon fill="#191970" stroke="#191970" points="370.429,-380.3657 370.5487,-369.7715 363.8485,-377.9787 370.429,-380.3657"/>
</g>
<!-- Node7 -->
<g id="node7" class="node">
<title>Node7</title>
<g id="a_node7"><a xlink:href="namespacedome__tracer.html#afcf9c716f103f76a5013ebdf53571920" target="_top" xlink:title="This subroutine applies diapycnal diffusion and any other column tracer physics or chemistry to the t...">
<polygon fill="#ffffff" stroke="#000000" points="149,-465.5 149,-495.5 280,-495.5 280,-465.5 149,-465.5"/>
<text text-anchor="start" x="157" y="-483.5" font-family="Helvetica,sans-Serif" font-size="10.00" fill="#000000">dome_tracer::dome_tracer</text>
<text text-anchor="middle" x="214.5" y="-472.5" font-family="Helvetica,sans-Serif" font-size="10.00" fill="#000000">_column_physics</text>
</a>
</g>
</g>
<!-- Node1&#45;&gt;Node7 -->
<g id="edge7" class="edge">
<title>Node1&#45;&gt;Node7</title>
<path fill="none" stroke="#191970" d="M360.357,-378.0541C344.4244,-401.0844 317.3386,-435.6433 286,-456.5 280.8768,-459.9096 275.2247,-462.8763 269.4107,-465.4476"/>
<polygon fill="#191970" stroke="#191970" points="363.4026,-379.7979 366.0961,-369.5511 357.6006,-375.8817 363.4026,-379.7979"/>
</g>
<!-- Node8 -->
<g id="node8" class="node">
<title>Node8</title>
<g id="a_node8"><a xlink:href="namespaceregional__dyes.html#ae9a84fcf1505f825e711c1fc9bc86c70" target="_top" xlink:title="This subroutine applies diapycnal diffusion and any other column tracer physics or chemistry to the t...">
<polygon fill="#ffffff" stroke="#000000" points="153.5,-416.5 153.5,-446.5 275.5,-446.5 275.5,-416.5 153.5,-416.5"/>
<text text-anchor="start" x="161.5" y="-434.5" font-family="Helvetica,sans-Serif" font-size="10.00" fill="#000000">regional_dyes::dye</text>
<text text-anchor="middle" x="214.5" y="-423.5" font-family="Helvetica,sans-Serif" font-size="10.00" fill="#000000">_tracer_column_physics</text>
</a>
</g>
</g>
<!-- Node1&#45;&gt;Node8 -->
<g id="edge8" class="edge">
<title>Node1&#45;&gt;Node8</title>
<path fill="none" stroke="#191970" d="M344.2133,-375.2363C327.4178,-385.7939 306.0888,-398.3051 286,-407.5 278.9755,-410.7152 271.3911,-413.7232 263.8779,-416.4487"/>
<polygon fill="#191970" stroke="#191970" points="346.4925,-377.934 353.0412,-369.6054 342.728,-372.0323 346.4925,-377.934"/>
</g>
<!-- Node9 -->
<g id="node9" class="node">
<title>Node9</title>
<g id="a_node9"><a xlink:href="namespacedyed__obc__tracer.html#a7c9e4c1789bdcebd4f0fa1380eb6df3e" target="_top" xlink:title="This subroutine applies diapycnal diffusion and any other column tracer physics or chemistry to the t...">
<polygon fill="#ffffff" stroke="#000000" points="143,-367.5 143,-397.5 286,-397.5 286,-367.5 143,-367.5"/>
<text text-anchor="start" x="151" y="-385.5" font-family="Helvetica,sans-Serif" font-size="10.00" fill="#000000">dyed_obc_tracer::dyed</text>
<text text-anchor="middle" x="214.5" y="-374.5" font-family="Helvetica,sans-Serif" font-size="10.00" fill="#000000">_obc_tracer_column_physics</text>
</a>
</g>
</g>
<!-- Node1&#45;&gt;Node9 -->
<g id="edge9" class="edge">
<title>Node1&#45;&gt;Node9</title>
<path fill="none" stroke="#191970" d="M311.7947,-365.5792C303.3938,-367.0402 294.7374,-368.5457 286.214,-370.028"/>
<polygon fill="#191970" stroke="#191970" points="312.6369,-368.9853 321.8893,-363.8236 311.4375,-362.0888 312.6369,-368.9853"/>
</g>
<!-- Node10 -->
<g id="node10" class="node">
<title>Node10</title>
<g id="a_node10"><a xlink:href="namespaceideal__age__example.html#a6c2fb023e159a153d56220585b57ceb5" target="_top" xlink:title="Applies diapycnal diffusion, aging and regeneration at the surface to the ideal age tracers.">
<polygon fill="#ffffff" stroke="#000000" points="152,-307 152,-348 277,-348 277,-307 152,-307"/>
<text text-anchor="start" x="160" y="-336" font-family="Helvetica,sans-Serif" font-size="10.00" fill="#000000">ideal_age_example::</text>
<text text-anchor="start" x="160" y="-325" font-family="Helvetica,sans-Serif" font-size="10.00" fill="#000000">ideal_age_tracer_column</text>
<text text-anchor="middle" x="214.5" y="-314" font-family="Helvetica,sans-Serif" font-size="10.00" fill="#000000">_physics</text>
</a>
</g>
</g>
<!-- Node1&#45;&gt;Node10 -->
<g id="edge10" class="edge">
<title>Node1&#45;&gt;Node10</title>
<path fill="none" stroke="#191970" d="M311.9542,-343.8433C300.4794,-341.9189 288.5232,-339.9138 277.0763,-337.9942"/>
<polygon fill="#191970" stroke="#191970" points="311.4481,-347.3072 321.8893,-345.5094 312.606,-340.4036 311.4481,-347.3072"/>
</g>
<!-- Node11 -->
<g id="node11" class="node">
<title>Node11</title>
<g id="a_node11"><a xlink:href="namespaceisomip__tracer.html#a7f06ffe89c033074c6b9bd7f375f6dd5" target="_top" xlink:title="This subroutine applies diapycnal diffusion, including the surface boundary conditions and any other ...">
<polygon fill="#ffffff" stroke="#000000" points="153.5,-257.5 153.5,-287.5 275.5,-287.5 275.5,-257.5 153.5,-257.5"/>
<text text-anchor="start" x="161.5" y="-275.5" font-family="Helvetica,sans-Serif" font-size="10.00" fill="#000000">isomip_tracer::isomip</text>
<text text-anchor="middle" x="214.5" y="-264.5" font-family="Helvetica,sans-Serif" font-size="10.00" fill="#000000">_tracer_column_physics</text>
</a>
</g>
</g>
<!-- Node1&#45;&gt;Node11 -->
<g id="edge11" class="edge">
<title>Node1&#45;&gt;Node11</title>
<path fill="none" stroke="#191970" d="M346.5547,-333.6471C329.4969,-321.984 307.1707,-307.7717 286,-297.5 278.5464,-293.8836 270.4312,-290.5331 262.4314,-287.5367"/>
<polygon fill="#191970" stroke="#191970" points="344.7493,-336.6544 354.9606,-339.4794 348.7398,-330.9032 344.7493,-336.6544"/>
</g>
<!-- Node12 -->
<g id="node12" class="node">
<title>Node12</title>
<g id="a_node12"><a xlink:href="namespacemom__diabatic__driver.html#a71d8d849db16be4b87c2650b49f01c82" target="_top" xlink:title="Imposes the diapycnal mass fluxes and the accompanying diapycnal advection of momentum and tracers us...">
<polygon fill="#ffffff" stroke="#000000" points="161,-208.5 161,-238.5 268,-238.5 268,-208.5 161,-208.5"/>
<text text-anchor="start" x="169" y="-226.5" font-family="Helvetica,sans-Serif" font-size="10.00" fill="#000000">mom_diabatic_driver</text>
<text text-anchor="middle" x="214.5" y="-215.5" font-family="Helvetica,sans-Serif" font-size="10.00" fill="#000000">::layered_diabatic</text>
</a>
</g>
</g>
<!-- Node1&#45;&gt;Node12 -->
<g id="edge12" class="edge">
<title>Node1&#45;&gt;Node12</title>
<path fill="none" stroke="#191970" d="M360.9794,-330.7971C345.2331,-306.919 318.0147,-270.5428 286,-248.5 280.4762,-244.6967 274.3155,-241.4166 267.991,-238.6021"/>
<polygon fill="#191970" stroke="#191970" points="358.084,-332.7655 366.4388,-339.2807 363.9705,-328.9774 358.084,-332.7655"/>
</g>
<!-- Node13 -->
<g id="node13" class="node">
<title>Node13</title>
<g id="a_node13"><a xlink:href="namespacemom__ocmip2__cfc.html#aebc84df12994a1f74d181ab54e380878" target="_top" xlink:title="This subroutine applies diapycnal diffusion, souces and sinks and any other column tracer physics or ...">
<polygon fill="#ffffff" stroke="#000000" points="149,-159.5 149,-189.5 280,-189.5 280,-159.5 149,-159.5"/>
<text text-anchor="start" x="157" y="-177.5" font-family="Helvetica,sans-Serif" font-size="10.00" fill="#000000">mom_ocmip2_cfc::ocmip2</text>
<text text-anchor="middle" x="214.5" y="-166.5" font-family="Helvetica,sans-Serif" font-size="10.00" fill="#000000">_cfc_column_physics</text>
</a>
</g>
</g>
<!-- Node1&#45;&gt;Node13 -->
<g id="edge14" class="edge">
<title>Node1&#45;&gt;Node13</title>
<path fill="none" stroke="#191970" d="M367.4226,-329.7115C355.1146,-295.6788 328.5068,-234.708 286,-199.5 281.3415,-195.6414 276.0485,-192.3623 270.4996,-189.579"/>
<polygon fill="#191970" stroke="#191970" points="364.1864,-331.0611 370.785,-339.3502 370.7958,-328.7554 364.1864,-331.0611"/>
</g>
<!-- Node14 -->
<g id="node14" class="node">
<title>Node14</title>
<g id="a_node14"><a xlink:href="namespaceoil__tracer.html#a2e5cd83c5d5a92a7774d7e6bda53c646" target="_top" xlink:title="Apply sources, sinks, diapycnal mixing and rising motions to the oil tracers.">
<polygon fill="#ffffff" stroke="#000000" points="163.5,-110.5 163.5,-140.5 265.5,-140.5 265.5,-110.5 163.5,-110.5"/>
<text text-anchor="start" x="171.5" y="-128.5" font-family="Helvetica,sans-Serif" font-size="10.00" fill="#000000">oil_tracer::oil_tracer</text>
<text text-anchor="middle" x="214.5" y="-117.5" font-family="Helvetica,sans-Serif" font-size="10.00" fill="#000000">_column_physics</text>
</a>
</g>
</g>
<!-- Node1&#45;&gt;Node14 -->
<g id="edge15" class="edge">
<title>Node1&#45;&gt;Node14</title>
<path fill="none" stroke="#191970" d="M371.2127,-329.4637C362.6288,-286.8171 339.3738,-199.9108 286,-150.5 280.1136,-145.0506 272.9728,-140.7788 265.5096,-137.4327"/>
<polygon fill="#191970" stroke="#191970" points="367.7776,-330.1351 373.0884,-339.3028 374.6538,-328.8242 367.7776,-330.1351"/>
</g>
<!-- Node15 -->
<g id="node15" class="node">
<title>Node15</title>
<g id="a_node15"><a xlink:href="namespacepseudo__salt__tracer.html#a7c534dce5f33ab195485552f63cff657" target="_top" xlink:title="Apply sources, sinks and diapycnal diffusion to the tracers in this package.">
<polygon fill="#ffffff" stroke="#000000" points="162,-50 162,-91 267,-91 267,-50 162,-50"/>
<text text-anchor="start" x="170" y="-79" font-family="Helvetica,sans-Serif" font-size="10.00" fill="#000000">pseudo_salt_tracer</text>
<text text-anchor="start" x="170" y="-68" font-family="Helvetica,sans-Serif" font-size="10.00" fill="#000000">::pseudo_salt_tracer</text>
<text text-anchor="middle" x="214.5" y="-57" font-family="Helvetica,sans-Serif" font-size="10.00" fill="#000000">_column_physics</text>
</a>
</g>
</g>
<!-- Node1&#45;&gt;Node15 -->
<g id="edge16" class="edge">
<title>Node1&#45;&gt;Node15</title>
<path fill="none" stroke="#191970" d="M373.1728,-329.0322C367.3297,-279.1508 347.7643,-167.6859 286,-101.5 280.6461,-95.7628 274.0481,-91.0341 267.0445,-87.1513"/>
<polygon fill="#191970" stroke="#191970" points="369.7224,-329.6802 374.2754,-339.2468 376.6819,-328.9289 369.7224,-329.6802"/>
</g>
<!-- Node16 -->
<g id="node16" class="node">
<title>Node16</title>
<g id="a_node16"><a xlink:href="namespacergc__tracer.html#ad4ef1aeae0c30402bc2e4d0a2ec248c2" target="_top" xlink:title="This subroutine applies diapycnal diffusion and any other column tracer physics or chemistry to the t...">
<polygon fill="#ffffff" stroke="#000000" points="159.5,-.5 159.5,-30.5 269.5,-30.5 269.5,-.5 159.5,-.5"/>
<text text-anchor="start" x="167.5" y="-18.5" font-family="Helvetica,sans-Serif" font-size="10.00" fill="#000000">rgc_tracer::rgc_tracer</text>
<text text-anchor="middle" x="214.5" y="-7.5" font-family="Helvetica,sans-Serif" font-size="10.00" fill="#000000">_column_physics</text>
</a>
</g>
</g>
<!-- Node1&#45;&gt;Node16 -->
<g id="edge17" class="edge">
<title>Node1&#45;&gt;Node16</title>
<path fill="none" stroke="#191970" d="M371.3385,-329.062C359.9182,-262.1021 326.2458,-83.1801 286,-40.5 281.3989,-35.6206 275.7934,-31.6932 269.7663,-28.532"/>
<polygon fill="#191970" stroke="#191970" points="367.9268,-329.8798 373.0362,-339.1612 374.8299,-328.7193 367.9268,-329.8798"/>
</g>
<!-- Node5 -->
<g id="node5" class="node">
<title>Node5</title>
<g id="a_node5"><a xlink:href="namespacemom__diabatic__driver.html#a9005de9f3ad26b32de53e3cd9826b9b9" target="_top" xlink:title="This subroutine imposes the diapycnal mass fluxes and the accompanying diapycnal advection of momentu...">
<polygon fill="#ffffff" stroke="#000000" points="0,-514.5 0,-544.5 107,-544.5 107,-514.5 0,-514.5"/>
<text text-anchor="start" x="8" y="-532.5" font-family="Helvetica,sans-Serif" font-size="10.00" fill="#000000">mom_diabatic_driver</text>
<text text-anchor="middle" x="53.5" y="-521.5" font-family="Helvetica,sans-Serif" font-size="10.00" fill="#000000">::diabatic</text>
</a>
</g>
</g>
<!-- Node4&#45;&gt;Node5 -->
<g id="edge4" class="edge">
<title>Node4&#45;&gt;Node5</title>
<path fill="none" stroke="#191970" d="M154.9861,-560.3871C137.8699,-555.1778 119.3928,-549.5543 102.9552,-544.5516"/>
<polygon fill="#191970" stroke="#191970" points="154.2951,-563.8352 164.881,-563.3986 156.3333,-557.1385 154.2951,-563.8352"/>
</g>
<!-- Node6&#45;&gt;Node5 -->
<g id="edge6" class="edge">
<title>Node6&#45;&gt;Node5</title>
<path fill="none" stroke="#191970" d="M150.1989,-529.5C135.9231,-529.5 120.9383,-529.5 107.1421,-529.5"/>
<polygon fill="#191970" stroke="#191970" points="150.4415,-533.0001 160.4414,-529.5 150.4414,-526.0001 150.4415,-533.0001"/>
</g>
<!-- Node12&#45;&gt;Node5 -->
<g id="edge13" class="edge">
<title>Node12&#45;&gt;Node5</title>
<path fill="none" stroke="#191970" d="M151.8878,-241.112C148.6772,-243.2937 145.6786,-245.7453 143,-248.5 104.3625,-288.2354 67.0651,-461.7372 56.4752,-514.3327"/>
<polygon fill="#191970" stroke="#191970" points="153.9095,-243.9858 160.8076,-235.9442 150.4003,-237.9289 153.9095,-243.9858"/>
</g>
</g>
</svg>
        <g id="navigator" transform="translate(0 0)" fill="#404254">
                <rect fill="#f2f5e9" fill-opacity="0.5" stroke="#606060" stroke-width=".5" x="0" y="0" width="60" height="60"/>
                <use id="zoomplus" xlink:href="#zoomPlus" x="17" y="9" onmousedown="handleZoom(evt,'in')"/>
                <use id="zoomminus" xlink:href="#zoomMin" x="42" y="9" onmousedown="handleZoom(evt,'out')"/>
                <use id="reset" xlink:href="#resetDef" x="30" y="36" onmousedown="handleReset()"/>
                <g id="arrowUp" xlink:href="#dirArrow" transform="translate(30 24)" onmousedown="handlePan(0,-1)">
                  <use xlink:href="#rim" fill="#404040">
                        <set attributeName="fill" to="#808080" begin="arrowUp.mouseover" end="arrowUp.mouseout"/>
                  </use>
                  <path fill="none" stroke="white" stroke-width="1.5" d="M0,-3.0v7 M-2.5,-0.5L0,-3.0L2.5,-0.5"/>
                </g>
                <g id="arrowRight" xlink:href="#dirArrow" transform="rotate(90) translate(36 -43)" onmousedown="handlePan(1,0)">
                  <use xlink:href="#rim" fill="#404040">
                        <set attributeName="fill" to="#808080" begin="arrowRight.mouseover" end="arrowRight.mouseout"/>
                  </use>
                  <path fill="none" stroke="white" stroke-width="1.5" d="M0,-3.0v7 M-2.5,-0.5L0,-3.0L2.5,-0.5"/>
                </g>
                <g id="arrowDown" xlink:href="#dirArrow" transform="rotate(180) translate(-30 -48)" onmousedown="handlePan(0,1)">
                  <use xlink:href="#rim" fill="#404040">
                        <set attributeName="fill" to="#808080" begin="arrowDown.mouseover" end="arrowDown.mouseout"/>
                  </use>
                  <path fill="none" stroke="white" stroke-width="1.5" d="M0,-3.0v7 M-2.5,-0.5L0,-3.0L2.5,-0.5"/>
                </g>
                <g id="arrowLeft" xlink:href="#dirArrow" transform="rotate(270) translate(-36 17)" onmousedown="handlePan(-1,0)">
                  <use xlink:href="#rim" fill="#404040">
                        <set attributeName="fill" to="#808080" begin="arrowLeft.mouseover" end="arrowLeft.mouseout"/>
                  </use>
                  <path fill="none" stroke="white" stroke-width="1.5" d="M0,-3.0v7 M-2.5,-0.5L0,-3.0L2.5,-0.5"/>
                </g>
        </g>
        <svg viewBox="0 0 15 15" width="100%" height="30px" preserveAspectRatio="xMaxYMin meet">
         <g id="arrow_out" transform="scale(0.3 0.3)">
          <a xlink:href="namespacemom__tracer__diabatic_ac5d57973547cc4ed3a89808d3910943e_icgraph_org.svg" target="_base">
           <rect id="button" ry="5" rx="5" y="6" x="6" height="38" width="38"
                fill="#f2f5e9" fill-opacity="0.5" stroke="#606060" stroke-width="1.0"/>
           <path id="arrow"
             d="M 11.500037,31.436501 C 11.940474,20.09759 22.043105,11.32322 32.158766,21.979434 L 37.068811,17.246167 C 37.068811,17.246167 37.088388,32 37.088388,32 L 22.160133,31.978069 C 22.160133,31.978069 26.997745,27.140456 26.997745,27.140456 C 18.528582,18.264221 13.291696,25.230495 11.500037,31.436501 z"
             style="fill:#404040;"/>
          </a>
         </g>
        </svg>
</svg>
