<?xml version="1.0" encoding="UTF-8" standalone="no"?>
<!DOCTYPE svg PUBLIC "-//W3C//DTD SVG 1.1//EN"
 "http://www.w3.org/Graphics/SVG/1.1/DTD/svg11.dtd">
<!-- Generated by graphviz version 2.40.1 (20161225.0304)
 -->
<!-- Title: mom_tracer_z_init::find_overlap Pages: 1 -->
<svg width="588pt" height="149pt"
 viewBox="0.00 0.00 588.00 149.00" xmlns="http://www.w3.org/2000/svg" xmlns:xlink="http://www.w3.org/1999/xlink">
<g id="graph0" class="graph" transform="scale(1 1) rotate(0) translate(4 145)">
<title>mom_tracer_z_init::find_overlap</title>
<polygon fill="#ffffff" stroke="transparent" points="-4,4 -4,-145 584,-145 584,4 -4,4"/>
<!-- Node1 -->
<g id="node1" class="node">
<title>Node1</title>
<g id="a_node1"><a xlink:title="Determines the layers bounded by interfaces e that overlap with the depth range between Z_top and Z_b...">
<polygon fill="#bfbfbf" stroke="#000000" points="472,-55.5 472,-85.5 580,-85.5 580,-55.5 472,-55.5"/>
<text text-anchor="start" x="480" y="-73.5" font-family="Helvetica,sans-Serif" font-size="10.00" fill="#000000">mom_tracer_z_init::</text>
<text text-anchor="middle" x="526" y="-62.5" font-family="Helvetica,sans-Serif" font-size="10.00" fill="#000000">find_overlap</text>
</a>
</g>
</g>
<!-- Node2 -->
<g id="node2" class="node">
<title>Node2</title>
<g id="a_node2"><a xlink:href="namespacemom__tracer__z__init.html#aef33387149983391f1ea92bad7344360" target="_top" xlink:title="This function initializes a tracer by reading a Z&#45;space file, returning .true. if this appears to hav...">
<polygon fill="#ffffff" stroke="#000000" points="328,-55.5 328,-85.5 436,-85.5 436,-55.5 328,-55.5"/>
<text text-anchor="start" x="336" y="-73.5" font-family="Helvetica,sans-Serif" font-size="10.00" fill="#000000">mom_tracer_z_init::</text>
<text text-anchor="middle" x="382" y="-62.5" font-family="Helvetica,sans-Serif" font-size="10.00" fill="#000000">tracer_z_init</text>
</a>
</g>
</g>
<!-- Node1&#45;&gt;Node2 -->
<g id="edge1" class="edge">
<title>Node1&#45;&gt;Node2</title>
<path fill="none" stroke="#191970" d="M461.7298,-70.5C453.2496,-70.5 444.6246,-70.5 436.3328,-70.5"/>
<polygon fill="#191970" stroke="#191970" points="461.9701,-74.0001 471.97,-70.5 461.97,-67.0001 461.9701,-74.0001"/>
</g>
<!-- Node3 -->
<g id="node3" class="node">
<title>Node3</title>
<g id="a_node3"><a xlink:href="namespacemom__ocmip2__cfc.html#a293cd355bf164bfd6bbe2cda4b00ad12" target="_top" xlink:title="This subroutine initializes a tracer array.">
<polygon fill="#ffffff" stroke="#000000" points="176,-110.5 176,-140.5 292,-140.5 292,-110.5 176,-110.5"/>
<text text-anchor="start" x="184" y="-128.5" font-family="Helvetica,sans-Serif" font-size="10.00" fill="#000000">mom_ocmip2_cfc::init</text>
<text text-anchor="middle" x="234" y="-117.5" font-family="Helvetica,sans-Serif" font-size="10.00" fill="#000000">_tracer_cfc</text>
</a>
</g>
</g>
<!-- Node2&#45;&gt;Node3 -->
<g id="edge2" class="edge">
<title>Node2&#45;&gt;Node3</title>
<path fill="none" stroke="#191970" d="M331.9895,-89.085C313.2326,-96.0555 292.1699,-103.8828 274.3928,-110.4892"/>
<polygon fill="#191970" stroke="#191970" points="333.4039,-92.2933 341.5583,-85.529 330.9654,-85.7317 333.4039,-92.2933"/>
</g>
<!-- Node5 -->
<g id="node5" class="node">
<title>Node5</title>
<g id="a_node5"><a xlink:href="namespaceideal__age__example.html#ae8c12d0128c24a491f7af62d4dd6ec5d" target="_top" xlink:title="Sets the ideal age traces to their initial values and sets up the tracer output.">
<polygon fill="#ffffff" stroke="#000000" points="177.5,-50 177.5,-91 290.5,-91 290.5,-50 177.5,-50"/>
<text text-anchor="start" x="185.5" y="-79" font-family="Helvetica,sans-Serif" font-size="10.00" fill="#000000">ideal_age_example::</text>
<text text-anchor="start" x="185.5" y="-68" font-family="Helvetica,sans-Serif" font-size="10.00" fill="#000000">initialize_ideal_age</text>
<text text-anchor="middle" x="234" y="-57" font-family="Helvetica,sans-Serif" font-size="10.00" fill="#000000">_tracer</text>
</a>
</g>
</g>
<!-- Node2&#45;&gt;Node5 -->
<g id="edge4" class="edge">
<title>Node2&#45;&gt;Node5</title>
<path fill="none" stroke="#191970" d="M317.7102,-70.5C308.7365,-70.5 299.569,-70.5 290.7478,-70.5"/>
<polygon fill="#191970" stroke="#191970" points="317.7307,-74.0001 327.7307,-70.5 317.7306,-67.0001 317.7307,-74.0001"/>
</g>
<!-- Node6 -->
<g id="node6" class="node">
<title>Node6</title>
<g id="a_node6"><a xlink:href="namespaceoil__tracer.html#a3cb362789ef0ea593f8b7de22016a92e" target="_top" xlink:title="Initialize the oil tracers and set up tracer output.">
<polygon fill="#ffffff" stroke="#000000" points="182.5,-.5 182.5,-30.5 285.5,-30.5 285.5,-.5 182.5,-.5"/>
<text text-anchor="start" x="190.5" y="-18.5" font-family="Helvetica,sans-Serif" font-size="10.00" fill="#000000">oil_tracer::initialize</text>
<text text-anchor="middle" x="234" y="-7.5" font-family="Helvetica,sans-Serif" font-size="10.00" fill="#000000">_oil_tracer</text>
</a>
</g>
</g>
<!-- Node2&#45;&gt;Node6 -->
<g id="edge5" class="edge">
<title>Node2&#45;&gt;Node6</title>
<path fill="none" stroke="#191970" d="M331.9895,-51.915C313.2326,-44.9445 292.1699,-37.1172 274.3928,-30.5108"/>
<polygon fill="#191970" stroke="#191970" points="330.9654,-55.2683 341.5583,-55.471 333.4039,-48.7067 330.9654,-55.2683"/>
</g>
<!-- Node4 -->
<g id="node4" class="node">
<title>Node4</title>
<g id="a_node4"><a xlink:href="namespacemom__ocmip2__cfc.html#aaaa0b7695728d3761d5f25688838f5fc" target="_top" xlink:title="Initialize the OCMP2 CFC tracer fields and set up the tracer output.">
<polygon fill="#ffffff" stroke="#000000" points="0,-110.5 0,-140.5 140,-140.5 140,-110.5 0,-110.5"/>
<text text-anchor="start" x="8" y="-128.5" font-family="Helvetica,sans-Serif" font-size="10.00" fill="#000000">mom_ocmip2_cfc::initialize</text>
<text text-anchor="middle" x="70" y="-117.5" font-family="Helvetica,sans-Serif" font-size="10.00" fill="#000000">_ocmip2_cfc</text>
</a>
</g>
</g>
<!-- Node3&#45;&gt;Node4 -->
<g id="edge3" class="edge">
<title>Node3&#45;&gt;Node4</title>
<path fill="none" stroke="#191970" d="M165.5917,-125.5C157.1902,-125.5 148.5929,-125.5 140.1659,-125.5"/>
<polygon fill="#191970" stroke="#191970" points="165.718,-129.0001 175.718,-125.5 165.7179,-122.0001 165.718,-129.0001"/>
</g>
</g>
</svg>
