<?xml version="1.0" encoding="UTF-8" standalone="no"?>
<!DOCTYPE svg PUBLIC "-//W3C//DTD SVG 1.1//EN"
 "http://www.w3.org/Graphics/SVG/1.1/DTD/svg11.dtd">
<!-- Generated by graphviz version 2.40.1 (20161225.0304)
 -->
<!-- Title: mom_mixed_layer_restrat::mixedlayer_restrat Pages: 1 -->
<!--zoomable 110 -->
<svg id="main" version="1.1" xmlns="http://www.w3.org/2000/svg" xmlns:xlink="http://www.w3.org/1999/xlink" xml:space="preserve" onload="init(evt)">
<style type="text/css"><![CDATA[
.edge:hover path { stroke: red; }
.edge:hover polygon { stroke: red; fill: red; }
]]></style>
<script type="text/javascript"><![CDATA[
var edges = document.getElementsByTagName('g');
if (edges && edges.length) {
  for (var i=0;i<edges.length;i++) {
    if (edges[i].id.substr(0,4)=='edge') {
      edges[i].setAttribute('class','edge');
    }
  }
}
]]></script>
        <defs>
                <circle id="rim" cx="0" cy="0" r="7"/>
                <circle id="rim2" cx="0" cy="0" r="3.5"/>
                <g id="zoomPlus">
                        <use xlink:href="#rim" fill="#404040">
                                <set attributeName="fill" to="#808080" begin="zoomplus.mouseover" end="zoomplus.mouseout"/>
                        </use>
                        <path d="M-4,0h8M0,-4v8" fill="none" stroke="white" stroke-width="1.5" pointer-events="none"/>
                </g>
                <g id="zoomMin">
                        <use xlink:href="#rim" fill="#404040">
                                <set attributeName="fill" to="#808080" begin="zoomminus.mouseover" end="zoomminus.mouseout"/>
                        </use>
                        <path d="M-4,0h8" fill="none" stroke="white" stroke-width="1.5" pointer-events="none"/>
                </g>
                <g id="dirArrow">
                        <path fill="none" stroke="white" stroke-width="1.5" d="M0,-3.0v7 M-2.5,-0.5L0,-3.0L2.5,-0.5"/>
                </g>
               <g id="resetDef">
                       <use xlink:href="#rim2" fill="#404040">
                               <set attributeName="fill" to="#808080" begin="reset.mouseover" end="reset.mouseout"/>
                       </use>
               </g>
        </defs>

<script type="text/javascript">
var viewWidth = 812;
var viewHeight = 110;
var sectionId = 'dynsection-0';
</script>
<script xlink:href="svgpan.js"/>
<svg id="graph" class="graph">
<g id="viewport">
<title>mom_mixed_layer_restrat::mixedlayer_restrat</title>
<polygon fill="#ffffff" stroke="transparent" points="-4,4 -4,-105.6587 808,-105.6587 808,4 -4,4"/>
<!-- Node1 -->
<g id="node1" class="node">
<title>Node1</title>
<g id="a_node1"><a xlink:title="Driver for the mixed&#45;layer restratification parameterization. The code branches between two different...">
<polygon fill="#bfbfbf" stroke="#000000" points="0,-14.7239 0,-44.7239 139,-44.7239 139,-14.7239 0,-14.7239"/>
<text text-anchor="start" x="8" y="-32.7239" font-family="Helvetica,sans-Serif" font-size="10.00" fill="#000000">mom_mixed_layer_restrat</text>
<text text-anchor="middle" x="69.5" y="-21.7239" font-family="Helvetica,sans-Serif" font-size="10.00" fill="#000000">::mixedlayer_restrat</text>
</a>
</g>
</g>
<!-- Node2 -->
<g id="node2" class="node">
<title>Node2</title>
<g id="a_node2"><a xlink:href="namespacemom__mixed__layer__restrat.html#ac01281bf39b6fa7e469919c30c26aedb" target="_top" xlink:title="Calculates a restratifying flow assuming a 2&#45;layer bulk mixed layer.">
<polygon fill="#ffffff" stroke="#000000" points="181,-63.7239 181,-93.7239 320,-93.7239 320,-63.7239 181,-63.7239"/>
<text text-anchor="start" x="189" y="-81.7239" font-family="Helvetica,sans-Serif" font-size="10.00" fill="#000000">mom_mixed_layer_restrat</text>
<text text-anchor="middle" x="250.5" y="-70.7239" font-family="Helvetica,sans-Serif" font-size="10.00" fill="#000000">::mixedlayer_restrat_bml</text>
</a>
</g>
</g>
<!-- Node1&#45;&gt;Node2 -->
<g id="edge1" class="edge">
<title>Node1&#45;&gt;Node2</title>
<path fill="none" stroke="#191970" d="M125.2829,-44.8253C144.2098,-49.9492 165.5245,-55.7195 185.1303,-61.0271"/>
<polygon fill="#191970" stroke="#191970" points="184.3342,-64.4375 194.9013,-63.6723 186.1634,-57.6807 184.3342,-64.4375"/>
</g>
<!-- Node4 -->
<g id="node4" class="node">
<title>Node4</title>
<g id="a_node4"><a xlink:href="namespacemom__error__handler.html#a460cfb79a06c29fc249952c2a3710d67" target="_top" xlink:title="This provides a convenient interface for writing an mpp_error message with run&#45;time filter based on a...">
<polygon fill="#ffffff" stroke="#000000" points="538,-30.7239 538,-60.7239 653,-60.7239 653,-30.7239 538,-30.7239"/>
<text text-anchor="start" x="546" y="-48.7239" font-family="Helvetica,sans-Serif" font-size="10.00" fill="#000000">mom_error_handler::</text>
<text text-anchor="middle" x="595.5" y="-37.7239" font-family="Helvetica,sans-Serif" font-size="10.00" fill="#000000">mom_error</text>
</a>
</g>
</g>
<!-- Node1&#45;&gt;Node4 -->
<g id="edge9" class="edge">
<title>Node1&#45;&gt;Node4</title>
<path fill="none" stroke="#191970" d="M122.1996,-14.696C138.9352,-10.6108 157.6128,-6.7558 175,-4.7239 299.4392,9.8187 445.019,-13.2968 528.1317,-30.2925"/>
<polygon fill="#191970" stroke="#191970" points="527.4493,-33.7254 537.9521,-32.3318 528.8727,-26.8716 527.4493,-33.7254"/>
</g>
<!-- Node6 -->
<g id="node6" class="node">
<title>Node6</title>
<g id="a_node6"><a xlink:href="namespacemom__mixed__layer__restrat.html#a9c6bee98536870b0b6c2bd317c00c684" target="_top" xlink:title="Calculates a restratifying flow in the mixed layer.">
<polygon fill="#ffffff" stroke="#000000" points="175,-14.7239 175,-44.7239 326,-44.7239 326,-14.7239 175,-14.7239"/>
<text text-anchor="start" x="183" y="-32.7239" font-family="Helvetica,sans-Serif" font-size="10.00" fill="#000000">mom_mixed_layer_restrat</text>
<text text-anchor="middle" x="250.5" y="-21.7239" font-family="Helvetica,sans-Serif" font-size="10.00" fill="#000000">::mixedlayer_restrat_general</text>
</a>
</g>
</g>
<!-- Node1&#45;&gt;Node6 -->
<g id="edge6" class="edge">
<title>Node1&#45;&gt;Node6</title>
<path fill="none" stroke="#191970" d="M139.2204,-29.7239C147.595,-29.7239 156.2206,-29.7239 164.7888,-29.7239"/>
<polygon fill="#191970" stroke="#191970" points="164.8023,-33.224 174.8023,-29.7239 164.8022,-26.224 164.8023,-33.224"/>
</g>
<!-- Node3 -->
<g id="node3" class="node">
<title>Node3</title>
<g id="a_node3"><a xlink:href="namespacemom__diag__mediator.html#a2e9db121a293f242f5a42e9d16d0d2e4" target="_top" xlink:title="Build/update vertical grids for diagnostic remapping.">
<polygon fill="#ffffff" stroke="#000000" points="362,-52.7239 362,-82.7239 502,-82.7239 502,-52.7239 362,-52.7239"/>
<text text-anchor="start" x="370" y="-70.7239" font-family="Helvetica,sans-Serif" font-size="10.00" fill="#000000">mom_diag_mediator::</text>
<text text-anchor="middle" x="432" y="-59.7239" font-family="Helvetica,sans-Serif" font-size="10.00" fill="#000000">diag_update_remap_grids</text>
</a>
</g>
</g>
<!-- Node2&#45;&gt;Node3 -->
<g id="edge2" class="edge">
<title>Node2&#45;&gt;Node3</title>
<path fill="none" stroke="#191970" d="M320.1536,-74.5025C330.5323,-73.8734 341.3009,-73.2208 351.8743,-72.58"/>
<polygon fill="#191970" stroke="#191970" points="352.1629,-76.069 361.9329,-71.9704 351.7394,-69.0818 352.1629,-76.069"/>
</g>
<!-- Node2&#45;&gt;Node4 -->
<g id="edge5" class="edge">
<title>Node2&#45;&gt;Node4</title>
<path fill="none" stroke="#191970" d="M320.026,-93.1487C371.0554,-101.2012 441.6851,-107.0303 502,-92.7239 523.9782,-87.5107 546.6619,-76.2756 564.1819,-66.0974"/>
<polygon fill="#191970" stroke="#191970" points="566.0627,-69.0507 572.8419,-60.9087 562.4649,-63.046 566.0627,-69.0507"/>
</g>
<!-- Node3&#45;&gt;Node4 -->
<g id="edge3" class="edge">
<title>Node3&#45;&gt;Node4</title>
<path fill="none" stroke="#191970" d="M502.2876,-58.2662C510.7175,-57.1319 519.3133,-55.9753 527.7069,-54.8459"/>
<polygon fill="#191970" stroke="#191970" points="528.3762,-58.2875 537.8201,-53.4851 527.4426,-51.35 528.3762,-58.2875"/>
</g>
<!-- Node5 -->
<g id="node5" class="node">
<title>Node5</title>
<g id="a_node5"><a xlink:href="namespacemom__error__handler.html#ad5f00a53059c72fe2332d1436c80ca71" target="_top" xlink:title="This returns .true. if the current PE is the root PE.">
<polygon fill="#ffffff" stroke="#000000" points="689,-30.7239 689,-60.7239 804,-60.7239 804,-30.7239 689,-30.7239"/>
<text text-anchor="start" x="697" y="-48.7239" font-family="Helvetica,sans-Serif" font-size="10.00" fill="#000000">mom_error_handler::</text>
<text text-anchor="middle" x="746.5" y="-37.7239" font-family="Helvetica,sans-Serif" font-size="10.00" fill="#000000">is_root_pe</text>
</a>
</g>
</g>
<!-- Node4&#45;&gt;Node5 -->
<g id="edge4" class="edge">
<title>Node4&#45;&gt;Node5</title>
<path fill="none" stroke="#191970" d="M653.0174,-45.7239C661.4639,-45.7239 670.2292,-45.7239 678.8561,-45.7239"/>
<polygon fill="#191970" stroke="#191970" points="678.8926,-49.224 688.8925,-45.7239 678.8925,-42.224 678.8926,-49.224"/>
</g>
<!-- Node6&#45;&gt;Node3 -->
<g id="edge7" class="edge">
<title>Node6&#45;&gt;Node3</title>
<path fill="none" stroke="#191970" d="M322.2336,-44.7425C332.0432,-46.7963 342.1631,-48.9151 352.1067,-50.9969"/>
<polygon fill="#191970" stroke="#191970" points="351.4684,-54.4391 361.9734,-53.0627 352.9029,-47.5876 351.4684,-54.4391"/>
</g>
<!-- Node6&#45;&gt;Node4 -->
<g id="edge8" class="edge">
<title>Node6&#45;&gt;Node4</title>
<path fill="none" stroke="#191970" d="M326.2117,-33.2351C386.37,-36.0251 469.7489,-39.8919 527.7291,-42.5809"/>
<polygon fill="#191970" stroke="#191970" points="527.7361,-46.0849 537.8876,-43.052 528.0605,-39.0924 527.7361,-46.0849"/>
</g>
</g>
</svg>
        <g id="navigator" transform="translate(0 0)" fill="#404254">
                <rect fill="#f2f5e9" fill-opacity="0.5" stroke="#606060" stroke-width=".5" x="0" y="0" width="60" height="60"/>
                <use id="zoomplus" xlink:href="#zoomPlus" x="17" y="9" onmousedown="handleZoom(evt,'in')"/>
                <use id="zoomminus" xlink:href="#zoomMin" x="42" y="9" onmousedown="handleZoom(evt,'out')"/>
                <use id="reset" xlink:href="#resetDef" x="30" y="36" onmousedown="handleReset()"/>
                <g id="arrowUp" xlink:href="#dirArrow" transform="translate(30 24)" onmousedown="handlePan(0,-1)">
                  <use xlink:href="#rim" fill="#404040">
                        <set attributeName="fill" to="#808080" begin="arrowUp.mouseover" end="arrowUp.mouseout"/>
                  </use>
                  <path fill="none" stroke="white" stroke-width="1.5" d="M0,-3.0v7 M-2.5,-0.5L0,-3.0L2.5,-0.5"/>
                </g>
                <g id="arrowRight" xlink:href="#dirArrow" transform="rotate(90) translate(36 -43)" onmousedown="handlePan(1,0)">
                  <use xlink:href="#rim" fill="#404040">
                        <set attributeName="fill" to="#808080" begin="arrowRight.mouseover" end="arrowRight.mouseout"/>
                  </use>
                  <path fill="none" stroke="white" stroke-width="1.5" d="M0,-3.0v7 M-2.5,-0.5L0,-3.0L2.5,-0.5"/>
                </g>
                <g id="arrowDown" xlink:href="#dirArrow" transform="rotate(180) translate(-30 -48)" onmousedown="handlePan(0,1)">
                  <use xlink:href="#rim" fill="#404040">
                        <set attributeName="fill" to="#808080" begin="arrowDown.mouseover" end="arrowDown.mouseout"/>
                  </use>
                  <path fill="none" stroke="white" stroke-width="1.5" d="M0,-3.0v7 M-2.5,-0.5L0,-3.0L2.5,-0.5"/>
                </g>
                <g id="arrowLeft" xlink:href="#dirArrow" transform="rotate(270) translate(-36 17)" onmousedown="handlePan(-1,0)">
                  <use xlink:href="#rim" fill="#404040">
                        <set attributeName="fill" to="#808080" begin="arrowLeft.mouseover" end="arrowLeft.mouseout"/>
                  </use>
                  <path fill="none" stroke="white" stroke-width="1.5" d="M0,-3.0v7 M-2.5,-0.5L0,-3.0L2.5,-0.5"/>
                </g>
        </g>
        <svg viewBox="0 0 15 15" width="100%" height="30px" preserveAspectRatio="xMaxYMin meet">
         <g id="arrow_out" transform="scale(0.3 0.3)">
          <a xlink:href="namespacemom__mixed__layer__restrat_a9dfb1879cd5a1ef890f3fc329f961ea0_cgraph_org.svg" target="_base">
           <rect id="button" ry="5" rx="5" y="6" x="6" height="38" width="38"
                fill="#f2f5e9" fill-opacity="0.5" stroke="#606060" stroke-width="1.0"/>
           <path id="arrow"
             d="M 11.500037,31.436501 C 11.940474,20.09759 22.043105,11.32322 32.158766,21.979434 L 37.068811,17.246167 C 37.068811,17.246167 37.088388,32 37.088388,32 L 22.160133,31.978069 C 22.160133,31.978069 26.997745,27.140456 26.997745,27.140456 C 18.528582,18.264221 13.291696,25.230495 11.500037,31.436501 z"
             style="fill:#404040;"/>
          </a>
         </g>
        </svg>
</svg>
