<?xml version="1.0" encoding="UTF-8" standalone="no"?>
<!DOCTYPE svg PUBLIC "-//W3C//DTD SVG 1.1//EN"
 "http://www.w3.org/Graphics/SVG/1.1/DTD/svg11.dtd">
<!-- Generated by graphviz version 2.40.1 (20161225.0304)
 -->
<!-- Title: mom_document::doc_param_int_array Pages: 1 -->
<svg width="951pt" height="274pt"
 viewBox="0.00 0.00 951.00 274.04" xmlns="http://www.w3.org/2000/svg" xmlns:xlink="http://www.w3.org/1999/xlink">
<g id="graph0" class="graph" transform="scale(1 1) rotate(0) translate(4 270.0384)">
<title>mom_document::doc_param_int_array</title>
<polygon fill="#ffffff" stroke="transparent" points="-4,4 -4,-270.0384 947,-270.0384 947,4 -4,4"/>
<!-- Node1 -->
<g id="node1" class="node">
<title>Node1</title>
<g id="a_node1"><a xlink:title="This subroutine handles parameter documentation for arrays of integers.">
<polygon fill="#bfbfbf" stroke="#000000" points="0,-134.5384 0,-164.5384 149,-164.5384 149,-134.5384 0,-134.5384"/>
<text text-anchor="start" x="8" y="-152.5384" font-family="Helvetica,sans-Serif" font-size="10.00" fill="#000000">mom_document::doc_param</text>
<text text-anchor="middle" x="74.5" y="-141.5384" font-family="Helvetica,sans-Serif" font-size="10.00" fill="#000000">_int_array</text>
</a>
</g>
</g>
<!-- Node2 -->
<g id="node2" class="node">
<title>Node2</title>
<g id="a_node2"><a xlink:href="namespacemom__document.html#aadc9c21a3f71a85107454b8080d6ec5c" target="_top" xlink:title="This function returns a string for formatted parameter assignment.">
<polygon fill="#ffffff" stroke="#000000" points="223,-235.5384 223,-265.5384 348,-265.5384 348,-235.5384 223,-235.5384"/>
<text text-anchor="start" x="231" y="-253.5384" font-family="Helvetica,sans-Serif" font-size="10.00" fill="#000000">mom_document::define</text>
<text text-anchor="middle" x="285.5" y="-242.5384" font-family="Helvetica,sans-Serif" font-size="10.00" fill="#000000">_string</text>
</a>
</g>
</g>
<!-- Node1&#45;&gt;Node2 -->
<g id="edge1" class="edge">
<title>Node1&#45;&gt;Node2</title>
<path fill="none" stroke="#191970" d="M92.0512,-164.6117C112.891,-181.7651 149.3337,-209.4761 185,-225.5384 193.9142,-229.5528 203.5756,-232.9898 213.2647,-235.9135"/>
<polygon fill="#191970" stroke="#191970" points="212.36,-239.295 222.9363,-238.6685 214.2778,-232.5628 212.36,-239.295"/>
</g>
<!-- Node3 -->
<g id="node3" class="node">
<title>Node3</title>
<g id="a_node3"><a xlink:href="namespacemom__document.html#a546c1393f07adc49a43fe5f6af171730" target="_top" xlink:title="This function returns a string with an integer formatted like &#39;(I)&#39;.">
<polygon fill="#ffffff" stroke="#000000" points="216,-197.0384 216,-216.0384 355,-216.0384 355,-197.0384 216,-197.0384"/>
<text text-anchor="middle" x="285.5" y="-204.0384" font-family="Helvetica,sans-Serif" font-size="10.00" fill="#000000">mom_document::int_string</text>
</a>
</g>
</g>
<!-- Node1&#45;&gt;Node3 -->
<g id="edge2" class="edge">
<title>Node1&#45;&gt;Node3</title>
<path fill="none" stroke="#191970" d="M122.7431,-164.5821C142.0356,-170.4314 164.5034,-177.035 185,-182.5384 200.633,-186.7358 217.7316,-190.956 233.3204,-194.6615"/>
<polygon fill="#191970" stroke="#191970" points="232.7797,-198.1298 243.3159,-197.0167 234.3852,-191.3164 232.7797,-198.1298"/>
</g>
<!-- Node4 -->
<g id="node4" class="node">
<title>Node4</title>
<g id="a_node4"><a xlink:href="namespacemom__error__handler.html#ad5f00a53059c72fe2332d1436c80ca71" target="_top" xlink:title="This returns .true. if the current PE is the root PE.">
<polygon fill="#ffffff" stroke="#000000" points="828,-77.5384 828,-107.5384 943,-107.5384 943,-77.5384 828,-77.5384"/>
<text text-anchor="start" x="836" y="-95.5384" font-family="Helvetica,sans-Serif" font-size="10.00" fill="#000000">mom_error_handler::</text>
<text text-anchor="middle" x="885.5" y="-84.5384" font-family="Helvetica,sans-Serif" font-size="10.00" fill="#000000">is_root_pe</text>
</a>
</g>
</g>
<!-- Node1&#45;&gt;Node4 -->
<g id="edge3" class="edge">
<title>Node1&#45;&gt;Node4</title>
<path fill="none" stroke="#191970" d="M149.0426,-154.9285C257.6624,-161.5633 465.6108,-169.6586 641,-149.5384 705.2103,-142.1723 777.0678,-124.2154 826.1702,-110.4082"/>
<polygon fill="#191970" stroke="#191970" points="827.3227,-113.7193 835.9847,-107.6184 825.4088,-106.986 827.3227,-113.7193"/>
</g>
<!-- Node5 -->
<g id="node5" class="node">
<title>Node5</title>
<g id="a_node5"><a xlink:href="namespacemom__document.html#aa23ed2e58e74e88a71de374685ee11ec" target="_top" xlink:title="Returns true if documentation has already been written.">
<polygon fill="#ffffff" stroke="#000000" points="422,-121.0384 422,-140.0384 641,-140.0384 641,-121.0384 422,-121.0384"/>
<text text-anchor="middle" x="531.5" y="-128.0384" font-family="Helvetica,sans-Serif" font-size="10.00" fill="#000000">mom_document::mesghasbeendocumented</text>
</a>
</g>
</g>
<!-- Node1&#45;&gt;Node5 -->
<g id="edge4" class="edge">
<title>Node1&#45;&gt;Node5</title>
<path fill="none" stroke="#191970" d="M149.1971,-146.4328C220.3294,-143.4754 328.5774,-138.975 411.7529,-135.5169"/>
<polygon fill="#191970" stroke="#191970" points="411.9218,-139.013 421.7677,-135.1005 411.631,-132.019 411.9218,-139.013"/>
</g>
<!-- Node7 -->
<g id="node7" class="node">
<title>Node7</title>
<g id="a_node7"><a xlink:href="namespacemom__document.html#aab976b6c6c9c01833438d217fca228a4" target="_top" xlink:title="This subroutine allocates and populates a structure that controls where the documentation occurs and ...">
<polygon fill="#ffffff" stroke="#000000" points="226,-71.5384 226,-101.5384 345,-101.5384 345,-71.5384 226,-71.5384"/>
<text text-anchor="start" x="234" y="-89.5384" font-family="Helvetica,sans-Serif" font-size="10.00" fill="#000000">mom_document::open</text>
<text text-anchor="middle" x="285.5" y="-78.5384" font-family="Helvetica,sans-Serif" font-size="10.00" fill="#000000">_doc_file</text>
</a>
</g>
</g>
<!-- Node1&#45;&gt;Node7 -->
<g id="edge7" class="edge">
<title>Node1&#45;&gt;Node7</title>
<path fill="none" stroke="#191970" d="M124.7717,-134.5283C155.0394,-125.4911 193.7533,-113.9319 225.6016,-104.4227"/>
<polygon fill="#191970" stroke="#191970" points="226.6676,-107.7572 235.2482,-101.5425 224.6648,-101.0498 226.6676,-107.7572"/>
</g>
<!-- Node9 -->
<g id="node9" class="node">
<title>Node9</title>
<g id="a_node9"><a xlink:href="namespacemom__document.html#a249e7992a57539508d07c71c6fcabaeb" target="_top" xlink:title="This subroutine writes out the message and description to the documetation files.">
<polygon fill="#ffffff" stroke="#000000" points="185,-33.0384 185,-52.0384 386,-52.0384 386,-33.0384 185,-33.0384"/>
<text text-anchor="middle" x="285.5" y="-40.0384" font-family="Helvetica,sans-Serif" font-size="10.00" fill="#000000">mom_document::writemessageanddesc</text>
</a>
</g>
</g>
<!-- Node1&#45;&gt;Node9 -->
<g id="edge12" class="edge">
<title>Node1&#45;&gt;Node9</title>
<path fill="none" stroke="#191970" d="M89.0312,-134.2902C108.8047,-114.5072 146.1914,-80.4169 185,-62.5384 191.554,-59.519 198.5543,-56.9544 205.6947,-54.7761"/>
<polygon fill="#191970" stroke="#191970" points="206.8008,-58.1012 215.4899,-52.0389 204.9168,-51.3595 206.8008,-58.1012"/>
</g>
<!-- Node6 -->
<g id="node6" class="node">
<title>Node6</title>
<g id="a_node6"><a xlink:href="namespacemom__error__handler.html#a460cfb79a06c29fc249952c2a3710d67" target="_top" xlink:title="This provides a convenient interface for writing an mpp_error message with run&#45;time filter based on a...">
<polygon fill="#ffffff" stroke="#000000" points="677,-77.5384 677,-107.5384 792,-107.5384 792,-77.5384 677,-77.5384"/>
<text text-anchor="start" x="685" y="-95.5384" font-family="Helvetica,sans-Serif" font-size="10.00" fill="#000000">mom_error_handler::</text>
<text text-anchor="middle" x="734.5" y="-84.5384" font-family="Helvetica,sans-Serif" font-size="10.00" fill="#000000">mom_error</text>
</a>
</g>
</g>
<!-- Node5&#45;&gt;Node6 -->
<g id="edge5" class="edge">
<title>Node5&#45;&gt;Node6</title>
<path fill="none" stroke="#191970" d="M582.4634,-120.9984C607.986,-116.2208 639.2321,-110.3718 666.7454,-105.2215"/>
<polygon fill="#191970" stroke="#191970" points="667.5102,-108.6392 676.6954,-103.3589 666.2222,-101.7587 667.5102,-108.6392"/>
</g>
<!-- Node6&#45;&gt;Node4 -->
<g id="edge6" class="edge">
<title>Node6&#45;&gt;Node4</title>
<path fill="none" stroke="#191970" d="M792.0174,-92.5384C800.4639,-92.5384 809.2292,-92.5384 817.8561,-92.5384"/>
<polygon fill="#191970" stroke="#191970" points="817.8926,-96.0385 827.8925,-92.5384 817.8925,-89.0385 817.8926,-96.0385"/>
</g>
<!-- Node7&#45;&gt;Node4 -->
<g id="edge10" class="edge">
<title>Node7&#45;&gt;Node4</title>
<path fill="none" stroke="#191970" d="M345.0057,-77.4966C359.0364,-73.8318 373.5279,-68.7035 386,-61.5384 405.8945,-50.1091 400.8633,-33.4636 422,-24.5384 569.2351,37.6332 763.5436,-35.7128 845.8984,-73.1576"/>
<polygon fill="#191970" stroke="#191970" points="844.8299,-76.5193 855.3759,-77.5346 847.7648,-70.1643 844.8299,-76.5193"/>
</g>
<!-- Node7&#45;&gt;Node6 -->
<g id="edge11" class="edge">
<title>Node7&#45;&gt;Node6</title>
<path fill="none" stroke="#191970" d="M345.1237,-87.3351C428.4188,-88.4482 579.2011,-90.4631 666.68,-91.6321"/>
<polygon fill="#191970" stroke="#191970" points="666.7191,-95.1328 676.765,-91.7668 666.8127,-88.1334 666.7191,-95.1328"/>
</g>
<!-- Node8 -->
<g id="node8" class="node">
<title>Node8</title>
<g id="a_node8"><a xlink:href="namespacemom__document.html#a5f2661445a72a7d0f774677e91366db5" target="_top" xlink:title="Find an unused unit number, returning &gt;0 if found, and triggering a FATAL error if not.">
<polygon fill="#ffffff" stroke="#000000" points="472,-33.5384 472,-63.5384 591,-63.5384 591,-33.5384 472,-33.5384"/>
<text text-anchor="start" x="480" y="-51.5384" font-family="Helvetica,sans-Serif" font-size="10.00" fill="#000000">mom_document::find</text>
<text text-anchor="middle" x="531.5" y="-40.5384" font-family="Helvetica,sans-Serif" font-size="10.00" fill="#000000">_unused_unit_number</text>
</a>
</g>
</g>
<!-- Node7&#45;&gt;Node8 -->
<g id="edge8" class="edge">
<title>Node7&#45;&gt;Node8</title>
<path fill="none" stroke="#191970" d="M345.0497,-77.3396C380.1433,-71.9187 424.7263,-65.0319 461.4965,-59.3519"/>
<polygon fill="#191970" stroke="#191970" points="462.2976,-62.7698 471.646,-57.7841 461.2289,-55.8518 462.2976,-62.7698"/>
</g>
<!-- Node8&#45;&gt;Node6 -->
<g id="edge9" class="edge">
<title>Node8&#45;&gt;Node6</title>
<path fill="none" stroke="#191970" d="M591.0351,-61.4425C614.7875,-66.5908 642.2612,-72.5457 666.77,-77.858"/>
<polygon fill="#191970" stroke="#191970" points="666.1995,-81.3155 676.714,-80.0133 667.6824,-74.4744 666.1995,-81.3155"/>
</g>
</g>
</svg>
