<?xml version="1.0" encoding="UTF-8" standalone="no"?>
<!DOCTYPE svg PUBLIC "-//W3C//DTD SVG 1.1//EN"
 "http://www.w3.org/Graphics/SVG/1.1/DTD/svg11.dtd">
<!-- Generated by graphviz version 2.40.1 (20161225.0304)
 -->
<!-- Title: mom_checksums::is_nan_0d Pages: 1 -->
<svg width="332pt" height="104pt"
 viewBox="0.00 0.00 332.00 104.00" xmlns="http://www.w3.org/2000/svg" xmlns:xlink="http://www.w3.org/1999/xlink">
<g id="graph0" class="graph" transform="scale(1 1) rotate(0) translate(4 100)">
<title>mom_checksums::is_nan_0d</title>
<polygon fill="#ffffff" stroke="transparent" points="-4,4 -4,-100 328,-100 328,4 -4,4"/>
<!-- Node1 -->
<g id="node1" class="node">
<title>Node1</title>
<g id="a_node1"><a xlink:title="This function returns .true. if x is a NaN, and .false. otherwise.">
<polygon fill="#bfbfbf" stroke="#000000" points="180,-38.5 180,-57.5 324,-57.5 324,-38.5 180,-38.5"/>
<text text-anchor="middle" x="252" y="-45.5" font-family="Helvetica,sans-Serif" font-size="10.00" fill="#000000">mom_checksums::is_nan_0d</text>
</a>
</g>
</g>
<!-- Node2 -->
<g id="node2" class="node">
<title>Node2</title>
<g id="a_node2"><a xlink:href="namespacemom__checksums.html#a2ae26d49eb294b8b0e6872cc1642eb4b" target="_top" xlink:title="Returns .true. if any element of x is a NaN, and .false. otherwise.">
<polygon fill="#ffffff" stroke="#000000" points="0,-76.5 0,-95.5 144,-95.5 144,-76.5 0,-76.5"/>
<text text-anchor="middle" x="72" y="-83.5" font-family="Helvetica,sans-Serif" font-size="10.00" fill="#000000">mom_checksums::is_nan_1d</text>
</a>
</g>
</g>
<!-- Node1&#45;&gt;Node2 -->
<g id="edge1" class="edge">
<title>Node1&#45;&gt;Node2</title>
<path fill="none" stroke="#191970" d="M196.669,-59.681C171.1426,-65.0699 141.2239,-71.3861 117.095,-76.4799"/>
<polygon fill="#191970" stroke="#191970" points="197.517,-63.0792 206.5784,-57.589 196.0711,-56.2301 197.517,-63.0792"/>
</g>
<!-- Node3 -->
<g id="node3" class="node">
<title>Node3</title>
<g id="a_node3"><a xlink:href="namespacemom__checksums.html#ae5399b160c30b9e0d9a806af7e322f8e" target="_top" xlink:title="Returns .true. if any element of x is a NaN, and .false. otherwise.">
<polygon fill="#ffffff" stroke="#000000" points="0,-38.5 0,-57.5 144,-57.5 144,-38.5 0,-38.5"/>
<text text-anchor="middle" x="72" y="-45.5" font-family="Helvetica,sans-Serif" font-size="10.00" fill="#000000">mom_checksums::is_nan_2d</text>
</a>
</g>
</g>
<!-- Node1&#45;&gt;Node3 -->
<g id="edge2" class="edge">
<title>Node1&#45;&gt;Node3</title>
<path fill="none" stroke="#191970" d="M169.5609,-48C161.0936,-48 152.5364,-48 144.1919,-48"/>
<polygon fill="#191970" stroke="#191970" points="169.8243,-51.5001 179.8243,-48 169.8242,-44.5001 169.8243,-51.5001"/>
</g>
<!-- Node4 -->
<g id="node4" class="node">
<title>Node4</title>
<g id="a_node4"><a xlink:href="namespacemom__checksums.html#a1cfab80ba102a9eb5b77d6c5db2a298a" target="_top" xlink:title="Returns .true. if any element of x is a NaN, and .false. otherwise.">
<polygon fill="#ffffff" stroke="#000000" points="0,-.5 0,-19.5 144,-19.5 144,-.5 0,-.5"/>
<text text-anchor="middle" x="72" y="-7.5" font-family="Helvetica,sans-Serif" font-size="10.00" fill="#000000">mom_checksums::is_nan_3d</text>
</a>
</g>
</g>
<!-- Node1&#45;&gt;Node4 -->
<g id="edge3" class="edge">
<title>Node1&#45;&gt;Node4</title>
<path fill="none" stroke="#191970" d="M196.669,-36.319C171.1426,-30.9301 141.2239,-24.6139 117.095,-19.5201"/>
<polygon fill="#191970" stroke="#191970" points="196.0711,-39.7699 206.5784,-38.411 197.517,-32.9208 196.0711,-39.7699"/>
</g>
</g>
</svg>
