<?xml version="1.0" encoding="UTF-8" standalone="no"?>
<!DOCTYPE svg PUBLIC "-//W3C//DTD SVG 1.1//EN"
 "http://www.w3.org/Graphics/SVG/1.1/DTD/svg11.dtd">
<!-- Generated by graphviz version 2.40.1 (20161225.0304)
 -->
<!-- Title: mom_ice_shelf_dynamics::cg_action_subgrid_basal Pages: 1 -->
<!--zoomable 149 -->
<svg id="main" version="1.1" xmlns="http://www.w3.org/2000/svg" xmlns:xlink="http://www.w3.org/1999/xlink" xml:space="preserve" onload="init(evt)">
<style type="text/css"><![CDATA[
.edge:hover path { stroke: red; }
.edge:hover polygon { stroke: red; fill: red; }
]]></style>
<script type="text/javascript"><![CDATA[
var edges = document.getElementsByTagName('g');
if (edges && edges.length) {
  for (var i=0;i<edges.length;i++) {
    if (edges[i].id.substr(0,4)=='edge') {
      edges[i].setAttribute('class','edge');
    }
  }
}
]]></script>
        <defs>
                <circle id="rim" cx="0" cy="0" r="7"/>
                <circle id="rim2" cx="0" cy="0" r="3.5"/>
                <g id="zoomPlus">
                        <use xlink:href="#rim" fill="#404040">
                                <set attributeName="fill" to="#808080" begin="zoomplus.mouseover" end="zoomplus.mouseout"/>
                        </use>
                        <path d="M-4,0h8M0,-4v8" fill="none" stroke="white" stroke-width="1.5" pointer-events="none"/>
                </g>
                <g id="zoomMin">
                        <use xlink:href="#rim" fill="#404040">
                                <set attributeName="fill" to="#808080" begin="zoomminus.mouseover" end="zoomminus.mouseout"/>
                        </use>
                        <path d="M-4,0h8" fill="none" stroke="white" stroke-width="1.5" pointer-events="none"/>
                </g>
                <g id="dirArrow">
                        <path fill="none" stroke="white" stroke-width="1.5" d="M0,-3.0v7 M-2.5,-0.5L0,-3.0L2.5,-0.5"/>
                </g>
               <g id="resetDef">
                       <use xlink:href="#rim2" fill="#404040">
                               <set attributeName="fill" to="#808080" begin="reset.mouseover" end="reset.mouseout"/>
                       </use>
               </g>
        </defs>

<script type="text/javascript">
var viewWidth = 802;
var viewHeight = 149;
var sectionId = 'dynsection-10';
</script>
<script xlink:href="svgpan.js"/>
<svg id="graph" class="graph">
<g id="viewport">
<title>mom_ice_shelf_dynamics::cg_action_subgrid_basal</title>
<polygon fill="#ffffff" stroke="transparent" points="-4,4 -4,-144.5 798,-144.5 798,4 -4,4"/>
<!-- Node1 -->
<g id="node1" class="node">
<title>Node1</title>
<g id="a_node1"><a xlink:title=" ">
<polygon fill="#bfbfbf" stroke="#000000" points="664,-48.5 664,-78.5 794,-78.5 794,-48.5 664,-48.5"/>
<text text-anchor="start" x="672" y="-66.5" font-family="Helvetica,sans-Serif" font-size="10.00" fill="#000000">mom_ice_shelf_dynamics</text>
<text text-anchor="middle" x="729" y="-55.5" font-family="Helvetica,sans-Serif" font-size="10.00" fill="#000000">::cg_action_subgrid_basal</text>
</a>
</g>
</g>
<!-- Node2 -->
<g id="node2" class="node">
<title>Node2</title>
<g id="a_node2"><a xlink:href="namespacemom__ice__shelf__dynamics.html#a80832e49ec6ba0f5061a95dfad0275b8" target="_top" xlink:title=" ">
<polygon fill="#ffffff" stroke="#000000" points="498,-73.5 498,-103.5 628,-103.5 628,-73.5 498,-73.5"/>
<text text-anchor="start" x="506" y="-91.5" font-family="Helvetica,sans-Serif" font-size="10.00" fill="#000000">mom_ice_shelf_dynamics</text>
<text text-anchor="middle" x="563" y="-80.5" font-family="Helvetica,sans-Serif" font-size="10.00" fill="#000000">::apply_boundary_values</text>
</a>
</g>
</g>
<!-- Node1&#45;&gt;Node2 -->
<g id="edge1" class="edge">
<title>Node1&#45;&gt;Node2</title>
<path fill="none" stroke="#191970" d="M653.8862,-74.8123C645.3193,-76.1025 636.6393,-77.4097 628.2158,-78.6783"/>
<polygon fill="#191970" stroke="#191970" points="654.5016,-78.2592 663.8688,-73.3089 653.4591,-71.3373 654.5016,-78.2592"/>
</g>
<!-- Node8 -->
<g id="node8" class="node">
<title>Node8</title>
<g id="a_node8"><a xlink:href="namespacemom__ice__shelf__dynamics.html#ad0df9a4e6af446d7fab86850cc5d464e" target="_top" xlink:title=" ">
<polygon fill="#ffffff" stroke="#000000" points="498,-24.5 498,-54.5 628,-54.5 628,-24.5 498,-24.5"/>
<text text-anchor="start" x="506" y="-42.5" font-family="Helvetica,sans-Serif" font-size="10.00" fill="#000000">mom_ice_shelf_dynamics</text>
<text text-anchor="middle" x="563" y="-31.5" font-family="Helvetica,sans-Serif" font-size="10.00" fill="#000000">::cg_action</text>
</a>
</g>
</g>
<!-- Node1&#45;&gt;Node8 -->
<g id="edge8" class="edge">
<title>Node1&#45;&gt;Node8</title>
<path fill="none" stroke="#191970" d="M653.8862,-52.6402C645.3193,-51.4016 636.6393,-50.1466 628.2158,-48.9288"/>
<polygon fill="#191970" stroke="#191970" points="653.4709,-56.1164 663.8688,-54.0834 654.4726,-49.1885 653.4709,-56.1164"/>
</g>
<!-- Node3 -->
<g id="node3" class="node">
<title>Node3</title>
<g id="a_node3"><a xlink:href="namespacemom__ice__shelf__dynamics.html#ad90fe54af0b51e4b6e6adf069c7155ec" target="_top" xlink:title=" ">
<polygon fill="#ffffff" stroke="#000000" points="332,-49.5 332,-79.5 462,-79.5 462,-49.5 332,-49.5"/>
<text text-anchor="start" x="340" y="-67.5" font-family="Helvetica,sans-Serif" font-size="10.00" fill="#000000">mom_ice_shelf_dynamics</text>
<text text-anchor="middle" x="397" y="-56.5" font-family="Helvetica,sans-Serif" font-size="10.00" fill="#000000">::ice_shelf_solve_inner</text>
</a>
</g>
</g>
<!-- Node2&#45;&gt;Node3 -->
<g id="edge2" class="edge">
<title>Node2&#45;&gt;Node3</title>
<path fill="none" stroke="#191970" d="M487.8862,-77.6402C479.3193,-76.4016 470.6393,-75.1466 462.2158,-73.9288"/>
<polygon fill="#191970" stroke="#191970" points="487.4709,-81.1164 497.8688,-79.0834 488.4726,-74.1885 487.4709,-81.1164"/>
</g>
<!-- Node4 -->
<g id="node4" class="node">
<title>Node4</title>
<g id="a_node4"><a xlink:href="namespacemom__ice__shelf__dynamics.html#a4401e1ab9adde64c413a355641dc570b" target="_top" xlink:title=" ">
<polygon fill="#ffffff" stroke="#000000" points="166,-49.5 166,-79.5 296,-79.5 296,-49.5 166,-49.5"/>
<text text-anchor="start" x="174" y="-67.5" font-family="Helvetica,sans-Serif" font-size="10.00" fill="#000000">mom_ice_shelf_dynamics</text>
<text text-anchor="middle" x="231" y="-56.5" font-family="Helvetica,sans-Serif" font-size="10.00" fill="#000000">::ice_shelf_solve_outer</text>
</a>
</g>
</g>
<!-- Node2&#45;&gt;Node4 -->
<g id="edge7" class="edge">
<title>Node2&#45;&gt;Node4</title>
<path fill="none" stroke="#191970" d="M487.495,-93.5873C442.2339,-95.455 383.6298,-95.7948 332,-89.5 315.3241,-87.4668 297.4349,-83.6115 281.4149,-79.5264"/>
<polygon fill="#191970" stroke="#191970" points="487.6926,-97.082 497.5265,-93.1395 487.3804,-90.089 487.6926,-97.082"/>
</g>
<!-- Node3&#45;&gt;Node4 -->
<g id="edge3" class="edge">
<title>Node3&#45;&gt;Node4</title>
<path fill="none" stroke="#191970" d="M321.6068,-64.5C313.1306,-64.5 304.5478,-64.5 296.2158,-64.5"/>
<polygon fill="#191970" stroke="#191970" points="321.8689,-68.0001 331.8688,-64.5 321.8688,-61.0001 321.8689,-68.0001"/>
</g>
<!-- Node5 -->
<g id="node5" class="node">
<title>Node5</title>
<g id="a_node5"><a xlink:href="namespacemom__ice__shelf__dynamics.html#a65c987944c65ba5ab4c88ce809698a88" target="_top" xlink:title=" ">
<polygon fill="#ffffff" stroke="#000000" points="0,-99 0,-140 130,-140 130,-99 0,-99"/>
<text text-anchor="start" x="8" y="-128" font-family="Helvetica,sans-Serif" font-size="10.00" fill="#000000">mom_ice_shelf_dynamics</text>
<text text-anchor="start" x="8" y="-117" font-family="Helvetica,sans-Serif" font-size="10.00" fill="#000000">::initialize_diagnostic</text>
<text text-anchor="middle" x="65" y="-106" font-family="Helvetica,sans-Serif" font-size="10.00" fill="#000000">_fields</text>
</a>
</g>
</g>
<!-- Node4&#45;&gt;Node5 -->
<g id="edge4" class="edge">
<title>Node4&#45;&gt;Node5</title>
<path fill="none" stroke="#191970" d="M176.0909,-82.6928C160.4018,-87.891 143.1946,-93.5922 127.1074,-98.9223"/>
<polygon fill="#191970" stroke="#191970" points="177.248,-85.9966 185.6398,-79.529 175.0464,-79.3518 177.248,-85.9966"/>
</g>
<!-- Node6 -->
<g id="node6" class="node">
<title>Node6</title>
<g id="a_node6"><a xlink:href="namespacemom__ice__shelf__dynamics.html#a214304391d90b046fd3756249be46afb" target="_top" xlink:title="Initializes shelf model data, parameters and diagnostics.">
<polygon fill="#ffffff" stroke="#000000" points="0,-49.5 0,-79.5 130,-79.5 130,-49.5 0,-49.5"/>
<text text-anchor="start" x="8" y="-67.5" font-family="Helvetica,sans-Serif" font-size="10.00" fill="#000000">mom_ice_shelf_dynamics</text>
<text text-anchor="middle" x="65" y="-56.5" font-family="Helvetica,sans-Serif" font-size="10.00" fill="#000000">::initialize_ice_shelf_dyn</text>
</a>
</g>
</g>
<!-- Node4&#45;&gt;Node6 -->
<g id="edge5" class="edge">
<title>Node4&#45;&gt;Node6</title>
<path fill="none" stroke="#191970" d="M155.6068,-64.5C147.1306,-64.5 138.5478,-64.5 130.2158,-64.5"/>
<polygon fill="#191970" stroke="#191970" points="155.8689,-68.0001 165.8688,-64.5 155.8688,-61.0001 155.8689,-68.0001"/>
</g>
<!-- Node7 -->
<g id="node7" class="node">
<title>Node7</title>
<g id="a_node7"><a xlink:href="namespacemom__ice__shelf__dynamics.html#adb908b77efa101749be0be069916139c" target="_top" xlink:title="This subroutine updates the ice shelf velocities, mass, stresses and properties due to the ice shelf ...">
<polygon fill="#ffffff" stroke="#000000" points="0,-.5 0,-30.5 130,-30.5 130,-.5 0,-.5"/>
<text text-anchor="start" x="8" y="-18.5" font-family="Helvetica,sans-Serif" font-size="10.00" fill="#000000">mom_ice_shelf_dynamics</text>
<text text-anchor="middle" x="65" y="-7.5" font-family="Helvetica,sans-Serif" font-size="10.00" fill="#000000">::update_ice_shelf</text>
</a>
</g>
</g>
<!-- Node4&#45;&gt;Node7 -->
<g id="edge6" class="edge">
<title>Node4&#45;&gt;Node7</title>
<path fill="none" stroke="#191970" d="M170.1323,-46.533C152.3463,-41.283 133.0976,-35.6011 115.9911,-30.5516"/>
<polygon fill="#191970" stroke="#191970" points="169.2582,-49.9243 179.84,-49.3986 171.24,-43.2106 169.2582,-49.9243"/>
</g>
<!-- Node8&#45;&gt;Node3 -->
<g id="edge9" class="edge">
<title>Node8&#45;&gt;Node3</title>
<path fill="none" stroke="#191970" d="M487.8862,-50.8123C479.3193,-52.1025 470.6393,-53.4097 462.2158,-54.6783"/>
<polygon fill="#191970" stroke="#191970" points="488.5016,-54.2592 497.8688,-49.3089 487.4591,-47.3373 488.5016,-54.2592"/>
</g>
<!-- Node8&#45;&gt;Node4 -->
<g id="edge10" class="edge">
<title>Node8&#45;&gt;Node4</title>
<path fill="none" stroke="#191970" d="M487.4946,-34.9029C442.2334,-33.2884 383.6293,-33.2052 332,-39.5 315.3241,-41.5332 297.4349,-45.3885 281.4149,-49.4736"/>
<polygon fill="#191970" stroke="#191970" points="487.3976,-38.4016 497.5262,-35.2933 487.67,-31.4069 487.3976,-38.4016"/>
</g>
</g>
</svg>
        <g id="navigator" transform="translate(0 0)" fill="#404254">
                <rect fill="#f2f5e9" fill-opacity="0.5" stroke="#606060" stroke-width=".5" x="0" y="0" width="60" height="60"/>
                <use id="zoomplus" xlink:href="#zoomPlus" x="17" y="9" onmousedown="handleZoom(evt,'in')"/>
                <use id="zoomminus" xlink:href="#zoomMin" x="42" y="9" onmousedown="handleZoom(evt,'out')"/>
                <use id="reset" xlink:href="#resetDef" x="30" y="36" onmousedown="handleReset()"/>
                <g id="arrowUp" xlink:href="#dirArrow" transform="translate(30 24)" onmousedown="handlePan(0,-1)">
                  <use xlink:href="#rim" fill="#404040">
                        <set attributeName="fill" to="#808080" begin="arrowUp.mouseover" end="arrowUp.mouseout"/>
                  </use>
                  <path fill="none" stroke="white" stroke-width="1.5" d="M0,-3.0v7 M-2.5,-0.5L0,-3.0L2.5,-0.5"/>
                </g>
                <g id="arrowRight" xlink:href="#dirArrow" transform="rotate(90) translate(36 -43)" onmousedown="handlePan(1,0)">
                  <use xlink:href="#rim" fill="#404040">
                        <set attributeName="fill" to="#808080" begin="arrowRight.mouseover" end="arrowRight.mouseout"/>
                  </use>
                  <path fill="none" stroke="white" stroke-width="1.5" d="M0,-3.0v7 M-2.5,-0.5L0,-3.0L2.5,-0.5"/>
                </g>
                <g id="arrowDown" xlink:href="#dirArrow" transform="rotate(180) translate(-30 -48)" onmousedown="handlePan(0,1)">
                  <use xlink:href="#rim" fill="#404040">
                        <set attributeName="fill" to="#808080" begin="arrowDown.mouseover" end="arrowDown.mouseout"/>
                  </use>
                  <path fill="none" stroke="white" stroke-width="1.5" d="M0,-3.0v7 M-2.5,-0.5L0,-3.0L2.5,-0.5"/>
                </g>
                <g id="arrowLeft" xlink:href="#dirArrow" transform="rotate(270) translate(-36 17)" onmousedown="handlePan(-1,0)">
                  <use xlink:href="#rim" fill="#404040">
                        <set attributeName="fill" to="#808080" begin="arrowLeft.mouseover" end="arrowLeft.mouseout"/>
                  </use>
                  <path fill="none" stroke="white" stroke-width="1.5" d="M0,-3.0v7 M-2.5,-0.5L0,-3.0L2.5,-0.5"/>
                </g>
        </g>
        <svg viewBox="0 0 15 15" width="100%" height="30px" preserveAspectRatio="xMaxYMin meet">
         <g id="arrow_out" transform="scale(0.3 0.3)">
          <a xlink:href="namespacemom__ice__shelf__dynamics_a34bac8fd815ba44183f74a75ea3067bb_icgraph_org.svg" target="_base">
           <rect id="button" ry="5" rx="5" y="6" x="6" height="38" width="38"
                fill="#f2f5e9" fill-opacity="0.5" stroke="#606060" stroke-width="1.0"/>
           <path id="arrow"
             d="M 11.500037,31.436501 C 11.940474,20.09759 22.043105,11.32322 32.158766,21.979434 L 37.068811,17.246167 C 37.068811,17.246167 37.088388,32 37.088388,32 L 22.160133,31.978069 C 22.160133,31.978069 26.997745,27.140456 26.997745,27.140456 C 18.528582,18.264221 13.291696,25.230495 11.500037,31.436501 z"
             style="fill:#404040;"/>
          </a>
         </g>
        </svg>
</svg>
