<?xml version="1.0" encoding="UTF-8" standalone="no"?>
<!DOCTYPE svg PUBLIC "-//W3C//DTD SVG 1.1//EN"
 "http://www.w3.org/Graphics/SVG/1.1/DTD/svg11.dtd">
<!-- Generated by graphviz version 2.40.1 (20161225.0304)
 -->
<!-- Title: mom_meke::meke_lengthscales_0d Pages: 1 -->
<svg width="970pt" height="66pt"
 viewBox="0.00 0.00 970.00 66.00" xmlns="http://www.w3.org/2000/svg" xmlns:xlink="http://www.w3.org/1999/xlink">
<g id="graph0" class="graph" transform="scale(1 1) rotate(0) translate(4 62)">
<title>mom_meke::meke_lengthscales_0d</title>
<polygon fill="#ffffff" stroke="transparent" points="-4,4 -4,-62 966,-62 966,4 -4,4"/>
<!-- Node1 -->
<g id="node1" class="node">
<title>Node1</title>
<g id="a_node1"><a xlink:title="Calculates the eddy mixing length scale and &#160;and &#160;functions that are ratios of either bottom or barot...">
<polygon fill="#bfbfbf" stroke="#000000" points="789,-19.5 789,-38.5 962,-38.5 962,-19.5 789,-19.5"/>
<text text-anchor="middle" x="875.5" y="-26.5" font-family="Helvetica,sans-Serif" font-size="10.00" fill="#000000">mom_meke::meke_lengthscales_0d</text>
</a>
</g>
</g>
<!-- Node2 -->
<g id="node2" class="node">
<title>Node2</title>
<g id="a_node2"><a xlink:href="namespacemom__meke.html#a0ef9a8bcdf705b544db9b8c28a5e6a56" target="_top" xlink:title="Calculates the equilibrium solutino where the source depends only on MEKE diffusivity and there is no...">
<polygon fill="#ffffff" stroke="#000000" points="599.5,-38.5 599.5,-57.5 748.5,-57.5 748.5,-38.5 599.5,-38.5"/>
<text text-anchor="middle" x="674" y="-45.5" font-family="Helvetica,sans-Serif" font-size="10.00" fill="#000000">mom_meke::meke_equilibrium</text>
</a>
</g>
</g>
<!-- Node1&#45;&gt;Node2 -->
<g id="edge1" class="edge">
<title>Node1&#45;&gt;Node2</title>
<path fill="none" stroke="#191970" d="M778.7476,-38.1231C768.5854,-39.0813 758.3688,-40.0446 748.5123,-40.974"/>
<polygon fill="#191970" stroke="#191970" points="779.2492,-41.5914 788.8765,-37.168 778.592,-34.6223 779.2492,-41.5914"/>
</g>
<!-- Node7 -->
<g id="node7" class="node">
<title>Node7</title>
<g id="a_node7"><a xlink:href="namespacemom__meke.html#a8180d5d0cacf48bcbdffead9e6a06efd" target="_top" xlink:title="Calculates the eddy mixing length scale and &#160;and &#160;functions that are ratios of either bottom or barot...">
<polygon fill="#ffffff" stroke="#000000" points="595,-.5 595,-19.5 753,-19.5 753,-.5 595,-.5"/>
<text text-anchor="middle" x="674" y="-7.5" font-family="Helvetica,sans-Serif" font-size="10.00" fill="#000000">mom_meke::meke_lengthscales</text>
</a>
</g>
</g>
<!-- Node1&#45;&gt;Node7 -->
<g id="edge6" class="edge">
<title>Node1&#45;&gt;Node7</title>
<path fill="none" stroke="#191970" d="M778.8384,-19.8855C770.2592,-19.0765 761.6404,-18.2639 753.2314,-17.471"/>
<polygon fill="#191970" stroke="#191970" points="778.592,-23.3777 788.8765,-20.832 779.2492,-16.4086 778.592,-23.3777"/>
</g>
<!-- Node3 -->
<g id="node3" class="node">
<title>Node3</title>
<g id="a_node3"><a xlink:href="namespacemom__meke.html#a5f752f097ddeba7071e1703110e51bc2" target="_top" xlink:title="Integrates forward&#45;in&#45;time the MEKE eddy energy equation. See MEKE equations.">
<polygon fill="#ffffff" stroke="#000000" points="400,-19.5 400,-38.5 559,-38.5 559,-19.5 400,-19.5"/>
<text text-anchor="middle" x="479.5" y="-26.5" font-family="Helvetica,sans-Serif" font-size="10.00" fill="#000000">mom_meke::step_forward_meke</text>
</a>
</g>
</g>
<!-- Node2&#45;&gt;Node3 -->
<g id="edge2" class="edge">
<title>Node2&#45;&gt;Node3</title>
<path fill="none" stroke="#191970" d="M589.3812,-39.7339C579.3276,-38.7518 569.0908,-37.7518 559.1104,-36.7768"/>
<polygon fill="#191970" stroke="#191970" points="589.0645,-43.2195 599.3575,-40.7084 589.7452,-36.2527 589.0645,-43.2195"/>
</g>
<!-- Node4 -->
<g id="node4" class="node">
<title>Node4</title>
<g id="a_node4"><a xlink:href="namespacemom.html#a42ee7e91ffcf1340679e29ab28d9b41d" target="_top" xlink:title="Time step the ocean dynamics, including the momentum and continuity equations.">
<polygon fill="#ffffff" stroke="#000000" points="227,-19.5 227,-38.5 364,-38.5 364,-19.5 227,-19.5"/>
<text text-anchor="middle" x="295.5" y="-26.5" font-family="Helvetica,sans-Serif" font-size="10.00" fill="#000000">mom::step_mom_dynamics</text>
</a>
</g>
</g>
<!-- Node3&#45;&gt;Node4 -->
<g id="edge3" class="edge">
<title>Node3&#45;&gt;Node4</title>
<path fill="none" stroke="#191970" d="M389.7364,-29C381.0824,-29 372.4019,-29 364.0015,-29"/>
<polygon fill="#191970" stroke="#191970" points="389.8651,-32.5001 399.8651,-29 389.865,-25.5001 389.8651,-32.5001"/>
</g>
<!-- Node5 -->
<g id="node5" class="node">
<title>Node5</title>
<g id="a_node5"><a xlink:href="namespacemom.html#ad55f786e26bcd3445a7224f2fad54f7e" target="_top" xlink:title="This subroutine orchestrates the time stepping of MOM. The adiabatic dynamics are stepped by calls to...">
<polygon fill="#ffffff" stroke="#000000" points="101,-19.5 101,-38.5 191,-38.5 191,-19.5 101,-19.5"/>
<text text-anchor="middle" x="146" y="-26.5" font-family="Helvetica,sans-Serif" font-size="10.00" fill="#000000">mom::step_mom</text>
</a>
</g>
</g>
<!-- Node4&#45;&gt;Node5 -->
<g id="edge4" class="edge">
<title>Node4&#45;&gt;Node5</title>
<path fill="none" stroke="#191970" d="M216.62,-29C207.8886,-29 199.2327,-29 191.1306,-29"/>
<polygon fill="#191970" stroke="#191970" points="216.8758,-32.5001 226.8757,-29 216.8757,-25.5001 216.8758,-32.5001"/>
</g>
<!-- Node6 -->
<g id="node6" class="node">
<title>Node6</title>
<g id="a_node6"><a xlink:href="MOM__driver_8F90.html#a08fffeb2d8e8acbf9ed4609be6d258c6" target="_top" xlink:title=" ">
<polygon fill="#ffffff" stroke="#000000" points="0,-19.5 0,-38.5 65,-38.5 65,-19.5 0,-19.5"/>
<text text-anchor="middle" x="32.5" y="-26.5" font-family="Helvetica,sans-Serif" font-size="10.00" fill="#000000">mom_main</text>
</a>
</g>
</g>
<!-- Node5&#45;&gt;Node6 -->
<g id="edge5" class="edge">
<title>Node5&#45;&gt;Node6</title>
<path fill="none" stroke="#191970" d="M90.6826,-29C81.9915,-29 73.2555,-29 65.2908,-29"/>
<polygon fill="#191970" stroke="#191970" points="90.8157,-32.5001 100.8157,-29 90.8156,-25.5001 90.8157,-32.5001"/>
</g>
<!-- Node7&#45;&gt;Node3 -->
<g id="edge7" class="edge">
<title>Node7&#45;&gt;Node3</title>
<path fill="none" stroke="#191970" d="M584.8794,-18.7059C576.3053,-19.5434 567.6465,-20.3893 559.1718,-21.2172"/>
<polygon fill="#191970" stroke="#191970" points="585.2771,-22.1838 594.8894,-17.728 584.5965,-15.2169 585.2771,-22.1838"/>
</g>
</g>
</svg>
