<?xml version="1.0" encoding="UTF-8" standalone="no"?>
<!DOCTYPE svg PUBLIC "-//W3C//DTD SVG 1.1//EN"
 "http://www.w3.org/Graphics/SVG/1.1/DTD/svg11.dtd">
<!-- Generated by graphviz version 2.40.1 (20161225.0304)
 -->
<!-- Title: mom_ale::ale_regrid_accelerated Pages: 1 -->
<!--zoomable 176 -->
<svg id="main" version="1.1" xmlns="http://www.w3.org/2000/svg" xmlns:xlink="http://www.w3.org/1999/xlink" xml:space="preserve" onload="init(evt)">
<style type="text/css"><![CDATA[
.edge:hover path { stroke: red; }
.edge:hover polygon { stroke: red; fill: red; }
]]></style>
<script type="text/javascript"><![CDATA[
var edges = document.getElementsByTagName('g');
if (edges && edges.length) {
  for (var i=0;i<edges.length;i++) {
    if (edges[i].id.substr(0,4)=='edge') {
      edges[i].setAttribute('class','edge');
    }
  }
}
]]></script>
        <defs>
                <circle id="rim" cx="0" cy="0" r="7"/>
                <circle id="rim2" cx="0" cy="0" r="3.5"/>
                <g id="zoomPlus">
                        <use xlink:href="#rim" fill="#404040">
                                <set attributeName="fill" to="#808080" begin="zoomplus.mouseover" end="zoomplus.mouseout"/>
                        </use>
                        <path d="M-4,0h8M0,-4v8" fill="none" stroke="white" stroke-width="1.5" pointer-events="none"/>
                </g>
                <g id="zoomMin">
                        <use xlink:href="#rim" fill="#404040">
                                <set attributeName="fill" to="#808080" begin="zoomminus.mouseover" end="zoomminus.mouseout"/>
                        </use>
                        <path d="M-4,0h8" fill="none" stroke="white" stroke-width="1.5" pointer-events="none"/>
                </g>
                <g id="dirArrow">
                        <path fill="none" stroke="white" stroke-width="1.5" d="M0,-3.0v7 M-2.5,-0.5L0,-3.0L2.5,-0.5"/>
                </g>
               <g id="resetDef">
                       <use xlink:href="#rim2" fill="#404040">
                               <set attributeName="fill" to="#808080" begin="reset.mouseover" end="reset.mouseout"/>
                       </use>
               </g>
        </defs>

<script type="text/javascript">
var viewWidth = 621;
var viewHeight = 176;
var sectionId = 'dynsection-14';
</script>
<script xlink:href="svgpan.js"/>
<svg id="graph" class="graph">
<g id="viewport">
<title>mom_ale::ale_regrid_accelerated</title>
<polygon fill="#ffffff" stroke="transparent" points="-4,4 -4,-172 617,-172 617,4 -4,4"/>
<!-- Node1 -->
<g id="node1" class="node">
<title>Node1</title>
<g id="a_node1"><a xlink:title="For a state&#45;based coordinate, accelerate the process of regridding by repeatedly applying the grid ca...">
<polygon fill="#bfbfbf" stroke="#000000" points="0,-93.5 0,-123.5 112,-123.5 112,-93.5 0,-93.5"/>
<text text-anchor="start" x="8" y="-111.5" font-family="Helvetica,sans-Serif" font-size="10.00" fill="#000000">mom_ale::ale_regrid</text>
<text text-anchor="middle" x="56" y="-100.5" font-family="Helvetica,sans-Serif" font-size="10.00" fill="#000000">_accelerated</text>
</a>
</g>
</g>
<!-- Node2 -->
<g id="node2" class="node">
<title>Node2</title>
<g id="a_node2"><a xlink:href="namespacemom__ale.html#aa892ad9bccb3137ea1f662b317be2611" target="_top" xlink:title="Updates the weights for time filtering the new grid generated in regridding.">
<polygon fill="#ffffff" stroke="#000000" points="171.5,-137.5 171.5,-167.5 287.5,-167.5 287.5,-137.5 171.5,-137.5"/>
<text text-anchor="start" x="179.5" y="-155.5" font-family="Helvetica,sans-Serif" font-size="10.00" fill="#000000">mom_ale::ale_update</text>
<text text-anchor="middle" x="229.5" y="-144.5" font-family="Helvetica,sans-Serif" font-size="10.00" fill="#000000">_regrid_weights</text>
</a>
</g>
</g>
<!-- Node1&#45;&gt;Node2 -->
<g id="edge1" class="edge">
<title>Node1&#45;&gt;Node2</title>
<path fill="none" stroke="#191970" d="M112.3305,-122.7855C127.9811,-126.7546 145.1442,-131.1072 161.3916,-135.2276"/>
<polygon fill="#191970" stroke="#191970" points="160.8144,-138.6919 171.3679,-137.7576 162.5352,-131.9067 160.8144,-138.6919"/>
</g>
<!-- Node3 -->
<g id="node3" class="node">
<title>Node3</title>
<g id="a_node3"><a xlink:href="namespacemom__domains.html#aac3bc012a8c214cbd73bb00668ff165e" target="_top" xlink:title="do_group_pass carries out a group halo update.">
<polygon fill="#ffffff" stroke="#000000" points="148,-99 148,-118 311,-118 311,-99 148,-99"/>
<text text-anchor="middle" x="229.5" y="-106" font-family="Helvetica,sans-Serif" font-size="10.00" fill="#000000">mom_domains::do_group_pass</text>
</a>
</g>
</g>
<!-- Node1&#45;&gt;Node3 -->
<g id="edge2" class="edge">
<title>Node1&#45;&gt;Node3</title>
<path fill="none" stroke="#191970" d="M112.3305,-108.5C120.5091,-108.5 129.1007,-108.5 137.7588,-108.5"/>
<polygon fill="#191970" stroke="#191970" points="137.9326,-112.0001 147.9325,-108.5 137.9325,-105.0001 137.9326,-112.0001"/>
</g>
<!-- Node4 -->
<g id="node4" class="node">
<title>Node4</title>
<g id="a_node4"><a xlink:href="namespacemom__ale.html#af95685cdfb7505b09300795da2336dbe" target="_top" xlink:title="This routine takes care of remapping all variable between the old and the new grids....">
<polygon fill="#ffffff" stroke="#000000" points="174.5,-49.5 174.5,-79.5 284.5,-79.5 284.5,-49.5 174.5,-49.5"/>
<text text-anchor="start" x="182.5" y="-67.5" font-family="Helvetica,sans-Serif" font-size="10.00" fill="#000000">mom_ale::remap_all</text>
<text text-anchor="middle" x="229.5" y="-56.5" font-family="Helvetica,sans-Serif" font-size="10.00" fill="#000000">_state_vars</text>
</a>
</g>
</g>
<!-- Node1&#45;&gt;Node4 -->
<g id="edge3" class="edge">
<title>Node1&#45;&gt;Node4</title>
<path fill="none" stroke="#191970" d="M112.3305,-94.2145C128.9559,-89.9982 147.2881,-85.3491 164.4163,-81.0054"/>
<polygon fill="#191970" stroke="#191970" points="165.5072,-84.3396 174.34,-78.4887 163.7864,-77.5544 165.5072,-84.3396"/>
</g>
<!-- Node5 -->
<g id="node5" class="node">
<title>Node5</title>
<g id="a_node5"><a xlink:href="namespacemom__error__handler.html#a9cda07a87815f0e5594066162b4345c3" target="_top" xlink:title="Writes a message about entering a subroutine if call tree reporting is active.">
<polygon fill="#ffffff" stroke="#000000" points="347,-98.5 347,-128.5 462,-128.5 462,-98.5 347,-98.5"/>
<text text-anchor="start" x="355" y="-116.5" font-family="Helvetica,sans-Serif" font-size="10.00" fill="#000000">mom_error_handler::</text>
<text text-anchor="middle" x="404.5" y="-105.5" font-family="Helvetica,sans-Serif" font-size="10.00" fill="#000000">calltree_enter</text>
</a>
</g>
</g>
<!-- Node4&#45;&gt;Node5 -->
<g id="edge4" class="edge">
<title>Node4&#45;&gt;Node5</title>
<path fill="none" stroke="#191970" d="M283.4337,-79.6014C301.6496,-84.7019 322.1532,-90.4429 341.0374,-95.7305"/>
<polygon fill="#191970" stroke="#191970" points="340.171,-99.1224 350.7444,-98.4484 342.0585,-92.3817 340.171,-99.1224"/>
</g>
<!-- Node7 -->
<g id="node7" class="node">
<title>Node7</title>
<g id="a_node7"><a xlink:href="namespacemom__error__handler.html#a88ea67781e2ed9b73ab7eac8ea5e8578" target="_top" xlink:title="Writes a message about leaving a subroutine if call tree reporting is active.">
<polygon fill="#ffffff" stroke="#000000" points="347,-49.5 347,-79.5 462,-79.5 462,-49.5 347,-49.5"/>
<text text-anchor="start" x="355" y="-67.5" font-family="Helvetica,sans-Serif" font-size="10.00" fill="#000000">mom_error_handler::</text>
<text text-anchor="middle" x="404.5" y="-56.5" font-family="Helvetica,sans-Serif" font-size="10.00" fill="#000000">calltree_leave</text>
</a>
</g>
</g>
<!-- Node4&#45;&gt;Node7 -->
<g id="edge6" class="edge">
<title>Node4&#45;&gt;Node7</title>
<path fill="none" stroke="#191970" d="M284.8711,-64.5C301.2073,-64.5 319.2786,-64.5 336.3207,-64.5"/>
<polygon fill="#191970" stroke="#191970" points="336.7742,-68.0001 346.7741,-64.5 336.7741,-61.0001 336.7742,-68.0001"/>
</g>
<!-- Node8 -->
<g id="node8" class="node">
<title>Node8</title>
<g id="a_node8"><a xlink:href="namespacemom__error__handler.html#a34a02e601a60f03cb97a72fe25a32853" target="_top" xlink:title="Writes a message about reaching a milestone if call tree reporting is active.">
<polygon fill="#ffffff" stroke="#000000" points="347,-.5 347,-30.5 462,-30.5 462,-.5 347,-.5"/>
<text text-anchor="start" x="355" y="-18.5" font-family="Helvetica,sans-Serif" font-size="10.00" fill="#000000">mom_error_handler::</text>
<text text-anchor="middle" x="404.5" y="-7.5" font-family="Helvetica,sans-Serif" font-size="10.00" fill="#000000">calltree_waypoint</text>
</a>
</g>
</g>
<!-- Node4&#45;&gt;Node8 -->
<g id="edge8" class="edge">
<title>Node4&#45;&gt;Node8</title>
<path fill="none" stroke="#191970" d="M283.4337,-49.3986C301.6496,-44.2981 322.1532,-38.5571 341.0374,-33.2695"/>
<polygon fill="#191970" stroke="#191970" points="342.0585,-36.6183 350.7444,-30.5516 340.171,-29.8776 342.0585,-36.6183"/>
</g>
<!-- Node6 -->
<g id="node6" class="node">
<title>Node6</title>
<g id="a_node6"><a xlink:href="namespacemom__error__handler.html#ad5f00a53059c72fe2332d1436c80ca71" target="_top" xlink:title="This returns .true. if the current PE is the root PE.">
<polygon fill="#ffffff" stroke="#000000" points="498,-49.5 498,-79.5 613,-79.5 613,-49.5 498,-49.5"/>
<text text-anchor="start" x="506" y="-67.5" font-family="Helvetica,sans-Serif" font-size="10.00" fill="#000000">mom_error_handler::</text>
<text text-anchor="middle" x="555.5" y="-56.5" font-family="Helvetica,sans-Serif" font-size="10.00" fill="#000000">is_root_pe</text>
</a>
</g>
</g>
<!-- Node5&#45;&gt;Node6 -->
<g id="edge5" class="edge">
<title>Node5&#45;&gt;Node6</title>
<path fill="none" stroke="#191970" d="M451.0371,-98.3986C466.3222,-93.4385 483.4741,-87.8726 499.3924,-82.7071"/>
<polygon fill="#191970" stroke="#191970" points="500.6852,-85.9673 509.1166,-79.5516 498.5245,-79.3091 500.6852,-85.9673"/>
</g>
<!-- Node7&#45;&gt;Node6 -->
<g id="edge7" class="edge">
<title>Node7&#45;&gt;Node6</title>
<path fill="none" stroke="#191970" d="M462.0174,-64.5C470.4639,-64.5 479.2292,-64.5 487.8561,-64.5"/>
<polygon fill="#191970" stroke="#191970" points="487.8926,-68.0001 497.8925,-64.5 487.8925,-61.0001 487.8926,-68.0001"/>
</g>
<!-- Node8&#45;&gt;Node6 -->
<g id="edge9" class="edge">
<title>Node8&#45;&gt;Node6</title>
<path fill="none" stroke="#191970" d="M451.0371,-30.6014C466.3222,-35.5615 483.4741,-41.1274 499.3924,-46.2929"/>
<polygon fill="#191970" stroke="#191970" points="498.5245,-49.6909 509.1166,-49.4484 500.6852,-43.0327 498.5245,-49.6909"/>
</g>
</g>
</svg>
        <g id="navigator" transform="translate(0 0)" fill="#404254">
                <rect fill="#f2f5e9" fill-opacity="0.5" stroke="#606060" stroke-width=".5" x="0" y="0" width="60" height="60"/>
                <use id="zoomplus" xlink:href="#zoomPlus" x="17" y="9" onmousedown="handleZoom(evt,'in')"/>
                <use id="zoomminus" xlink:href="#zoomMin" x="42" y="9" onmousedown="handleZoom(evt,'out')"/>
                <use id="reset" xlink:href="#resetDef" x="30" y="36" onmousedown="handleReset()"/>
                <g id="arrowUp" xlink:href="#dirArrow" transform="translate(30 24)" onmousedown="handlePan(0,-1)">
                  <use xlink:href="#rim" fill="#404040">
                        <set attributeName="fill" to="#808080" begin="arrowUp.mouseover" end="arrowUp.mouseout"/>
                  </use>
                  <path fill="none" stroke="white" stroke-width="1.5" d="M0,-3.0v7 M-2.5,-0.5L0,-3.0L2.5,-0.5"/>
                </g>
                <g id="arrowRight" xlink:href="#dirArrow" transform="rotate(90) translate(36 -43)" onmousedown="handlePan(1,0)">
                  <use xlink:href="#rim" fill="#404040">
                        <set attributeName="fill" to="#808080" begin="arrowRight.mouseover" end="arrowRight.mouseout"/>
                  </use>
                  <path fill="none" stroke="white" stroke-width="1.5" d="M0,-3.0v7 M-2.5,-0.5L0,-3.0L2.5,-0.5"/>
                </g>
                <g id="arrowDown" xlink:href="#dirArrow" transform="rotate(180) translate(-30 -48)" onmousedown="handlePan(0,1)">
                  <use xlink:href="#rim" fill="#404040">
                        <set attributeName="fill" to="#808080" begin="arrowDown.mouseover" end="arrowDown.mouseout"/>
                  </use>
                  <path fill="none" stroke="white" stroke-width="1.5" d="M0,-3.0v7 M-2.5,-0.5L0,-3.0L2.5,-0.5"/>
                </g>
                <g id="arrowLeft" xlink:href="#dirArrow" transform="rotate(270) translate(-36 17)" onmousedown="handlePan(-1,0)">
                  <use xlink:href="#rim" fill="#404040">
                        <set attributeName="fill" to="#808080" begin="arrowLeft.mouseover" end="arrowLeft.mouseout"/>
                  </use>
                  <path fill="none" stroke="white" stroke-width="1.5" d="M0,-3.0v7 M-2.5,-0.5L0,-3.0L2.5,-0.5"/>
                </g>
        </g>
        <svg viewBox="0 0 15 15" width="100%" height="30px" preserveAspectRatio="xMaxYMin meet">
         <g id="arrow_out" transform="scale(0.3 0.3)">
          <a xlink:href="namespacemom__ale_aaa82975639f59d30c233567cd9ef19c7_cgraph_org.svg" target="_base">
           <rect id="button" ry="5" rx="5" y="6" x="6" height="38" width="38"
                fill="#f2f5e9" fill-opacity="0.5" stroke="#606060" stroke-width="1.0"/>
           <path id="arrow"
             d="M 11.500037,31.436501 C 11.940474,20.09759 22.043105,11.32322 32.158766,21.979434 L 37.068811,17.246167 C 37.068811,17.246167 37.088388,32 37.088388,32 L 22.160133,31.978069 C 22.160133,31.978069 26.997745,27.140456 26.997745,27.140456 C 18.528582,18.264221 13.291696,25.230495 11.500037,31.436501 z"
             style="fill:#404040;"/>
          </a>
         </g>
        </svg>
</svg>
