<?xml version="1.0" encoding="UTF-8" standalone="no"?>
<!DOCTYPE svg PUBLIC "-//W3C//DTD SVG 1.1//EN"
 "http://www.w3.org/Graphics/SVG/1.1/DTD/svg11.dtd">
<!-- Generated by graphviz version 2.40.1 (20161225.0304)
 -->
<!-- Title: mom_domains::get_global_shape Pages: 1 -->
<svg width="706pt" height="104pt"
 viewBox="0.00 0.00 706.00 104.00" xmlns="http://www.w3.org/2000/svg" xmlns:xlink="http://www.w3.org/1999/xlink">
<g id="graph0" class="graph" transform="scale(1 1) rotate(0) translate(4 100)">
<title>mom_domains::get_global_shape</title>
<polygon fill="#ffffff" stroke="transparent" points="-4,4 -4,-100 702,-100 702,4 -4,4"/>
<!-- Node1 -->
<g id="node1" class="node">
<title>Node1</title>
<g id="a_node1"><a xlink:title="Returns the global shape of h&#45;point arrays.">
<polygon fill="#bfbfbf" stroke="#000000" points="560,-33 560,-63 698,-63 698,-33 560,-33"/>
<text text-anchor="start" x="568" y="-51" font-family="Helvetica,sans-Serif" font-size="10.00" fill="#000000">mom_domains::get_global</text>
<text text-anchor="middle" x="629" y="-40" font-family="Helvetica,sans-Serif" font-size="10.00" fill="#000000">_shape</text>
</a>
</g>
</g>
<!-- Node2 -->
<g id="node2" class="node">
<title>Node2</title>
<g id="a_node2"><a xlink:href="namespacemom__grid.html#a1cee4daea572d4efd1565b24ca652a2d" target="_top" xlink:title="Return global shape of horizontal grid.">
<polygon fill="#ffffff" stroke="#000000" points="408,-33 408,-63 524,-63 524,-33 408,-33"/>
<text text-anchor="start" x="416" y="-51" font-family="Helvetica,sans-Serif" font-size="10.00" fill="#000000">mom_grid::get_global</text>
<text text-anchor="middle" x="466" y="-40" font-family="Helvetica,sans-Serif" font-size="10.00" fill="#000000">_grid_size</text>
</a>
</g>
</g>
<!-- Node1&#45;&gt;Node2 -->
<g id="edge1" class="edge">
<title>Node1&#45;&gt;Node2</title>
<path fill="none" stroke="#191970" d="M549.7813,-48C541.1512,-48 532.487,-48 524.1762,-48"/>
<polygon fill="#191970" stroke="#191970" points="549.8734,-51.5001 559.8733,-48 549.8733,-44.5001 549.8734,-51.5001"/>
</g>
<!-- Node3 -->
<g id="node3" class="node">
<title>Node3</title>
<g id="a_node3"><a xlink:href="namespacemom__cap__mod.html#a11baa4d10abcce4225eb074a2c23e398" target="_top" xlink:title="Called by NUOPC to realize import and export fields. &quot;Realizing&quot; a field means that its grid has been...">
<polygon fill="#ffffff" stroke="#000000" points="199,-76.5 199,-95.5 361,-95.5 361,-76.5 199,-76.5"/>
<text text-anchor="middle" x="280" y="-83.5" font-family="Helvetica,sans-Serif" font-size="10.00" fill="#000000">mom_cap_mod::initializerealize</text>
</a>
</g>
</g>
<!-- Node2&#45;&gt;Node3 -->
<g id="edge2" class="edge">
<title>Node2&#45;&gt;Node3</title>
<path fill="none" stroke="#191970" d="M397.9388,-61.905C374.2865,-66.7372 348.3103,-72.0441 326.771,-76.4446"/>
<polygon fill="#191970" stroke="#191970" points="398.8165,-65.298 407.9135,-59.8671 397.4153,-58.4397 398.8165,-65.298"/>
</g>
<!-- Node5 -->
<g id="node5" class="node">
<title>Node5</title>
<g id="a_node5"><a xlink:href="namespaceocn__comp__mct.html#adfe794cbbae40df4bdb9fcec95d4ff9c" target="_top" xlink:title="This subroutine initializes MOM6.">
<polygon fill="#ffffff" stroke="#000000" points="0,-19.5 0,-38.5 152,-38.5 152,-19.5 0,-19.5"/>
<text text-anchor="middle" x="76" y="-26.5" font-family="Helvetica,sans-Serif" font-size="10.00" fill="#000000">ocn_comp_mct::ocn_init_mct</text>
</a>
</g>
</g>
<!-- Node2&#45;&gt;Node5 -->
<g id="edge4" class="edge">
<title>Node2&#45;&gt;Node5</title>
<path fill="none" stroke="#191970" d="M397.3434,-44.6552C328.7149,-41.3118 223.4238,-36.1822 152.2378,-32.7141"/>
<polygon fill="#191970" stroke="#191970" points="397.4546,-48.1647 407.6131,-45.1555 397.7952,-41.173 397.4546,-48.1647"/>
</g>
<!-- Node6 -->
<g id="node6" class="node">
<title>Node6</title>
<g id="a_node6"><a xlink:href="namespaceocn__comp__mct.html#a0e04efafcf563e7c1565dddaabd0dc6b" target="_top" xlink:title="Sets mct global segment maps for the MOM decomposition.">
<polygon fill="#ffffff" stroke="#000000" points="188,-.5 188,-19.5 372,-19.5 372,-.5 188,-.5"/>
<text text-anchor="middle" x="280" y="-7.5" font-family="Helvetica,sans-Serif" font-size="10.00" fill="#000000">ocn_comp_mct::ocn_setgsmap_mct</text>
</a>
</g>
</g>
<!-- Node2&#45;&gt;Node6 -->
<g id="edge5" class="edge">
<title>Node2&#45;&gt;Node6</title>
<path fill="none" stroke="#191970" d="M397.9388,-34.095C374.2865,-29.2628 348.3103,-23.9559 326.771,-19.5554"/>
<polygon fill="#191970" stroke="#191970" points="397.4153,-37.5603 407.9135,-36.1329 398.8165,-30.702 397.4153,-37.5603"/>
</g>
<!-- Node4 -->
<g id="node4" class="node">
<title>Node4</title>
<g id="a_node4"><a xlink:href="namespacemom__cap__mod.html#ae0439afc4c901d9850515768bdaaed09" target="_top" xlink:title="NUOPC SetService method is the only public entry point. SetServices registers all of the user&#45;provide...">
<polygon fill="#ffffff" stroke="#000000" points="3,-76.5 3,-95.5 149,-95.5 149,-76.5 3,-76.5"/>
<text text-anchor="middle" x="76" y="-83.5" font-family="Helvetica,sans-Serif" font-size="10.00" fill="#000000">mom_cap_mod::setservices</text>
</a>
</g>
</g>
<!-- Node3&#45;&gt;Node4 -->
<g id="edge3" class="edge">
<title>Node3&#45;&gt;Node4</title>
<path fill="none" stroke="#191970" d="M188.6888,-86C175.4003,-86 161.8672,-86 149.005,-86"/>
<polygon fill="#191970" stroke="#191970" points="188.7877,-89.5001 198.7876,-86 188.7876,-82.5001 188.7877,-89.5001"/>
</g>
<!-- Node6&#45;&gt;Node5 -->
<g id="edge6" class="edge">
<title>Node6&#45;&gt;Node5</title>
<path fill="none" stroke="#191970" d="M177.7521,-19.5231C169.1405,-20.3251 160.5313,-21.127 152.17,-21.9057"/>
<polygon fill="#191970" stroke="#191970" points="178.2154,-22.9952 187.8477,-18.5828 177.5662,-16.0253 178.2154,-22.9952"/>
</g>
</g>
</svg>
