<?xml version="1.0" encoding="UTF-8" standalone="no"?>
<!DOCTYPE svg PUBLIC "-//W3C//DTD SVG 1.1//EN"
 "http://www.w3.org/Graphics/SVG/1.1/DTD/svg11.dtd">
<!-- Generated by graphviz version 2.40.1 (20161225.0304)
 -->
<!-- Title: ocn_comp_mct::ocn_setgsmap_mct Pages: 1 -->
<svg width="518pt" height="88pt"
 viewBox="0.00 0.00 518.00 88.00" xmlns="http://www.w3.org/2000/svg" xmlns:xlink="http://www.w3.org/1999/xlink">
<g id="graph0" class="graph" transform="scale(1 1) rotate(0) translate(4 84)">
<title>ocn_comp_mct::ocn_setgsmap_mct</title>
<polygon fill="#ffffff" stroke="transparent" points="-4,4 -4,-84 514,-84 514,4 -4,4"/>
<!-- Node1 -->
<g id="node1" class="node">
<title>Node1</title>
<g id="a_node1"><a xlink:title="Sets mct global segment maps for the MOM decomposition.">
<polygon fill="#bfbfbf" stroke="#000000" points="0,-30 0,-49 184,-49 184,-30 0,-30"/>
<text text-anchor="middle" x="92" y="-37" font-family="Helvetica,sans-Serif" font-size="10.00" fill="#000000">ocn_comp_mct::ocn_setgsmap_mct</text>
</a>
</g>
</g>
<!-- Node2 -->
<g id="node2" class="node">
<title>Node2</title>
<g id="a_node2"><a xlink:href="namespacemom__grid.html#a1cee4daea572d4efd1565b24ca652a2d" target="_top" xlink:title="Return global shape of horizontal grid.">
<polygon fill="#ffffff" stroke="#000000" points="220,-49.5 220,-79.5 336,-79.5 336,-49.5 220,-49.5"/>
<text text-anchor="start" x="228" y="-67.5" font-family="Helvetica,sans-Serif" font-size="10.00" fill="#000000">mom_grid::get_global</text>
<text text-anchor="middle" x="278" y="-56.5" font-family="Helvetica,sans-Serif" font-size="10.00" fill="#000000">_grid_size</text>
</a>
</g>
</g>
<!-- Node1&#45;&gt;Node2 -->
<g id="edge1" class="edge">
<title>Node1&#45;&gt;Node2</title>
<path fill="none" stroke="#191970" d="M162.8492,-49.0227C178.1139,-51.0745 194.224,-53.2398 209.4011,-55.2797"/>
<polygon fill="#191970" stroke="#191970" points="209.3603,-58.8056 219.7374,-56.669 210.2928,-51.868 209.3603,-58.8056"/>
</g>
<!-- Node4 -->
<g id="node4" class="node">
<title>Node4</title>
<g id="a_node4"><a xlink:href="namespacemom__error__handler.html#a460cfb79a06c29fc249952c2a3710d67" target="_top" xlink:title="This provides a convenient interface for writing an mpp_error message with run&#45;time filter based on a...">
<polygon fill="#ffffff" stroke="#000000" points="220.5,-.5 220.5,-30.5 335.5,-30.5 335.5,-.5 220.5,-.5"/>
<text text-anchor="start" x="228.5" y="-18.5" font-family="Helvetica,sans-Serif" font-size="10.00" fill="#000000">mom_error_handler::</text>
<text text-anchor="middle" x="278" y="-7.5" font-family="Helvetica,sans-Serif" font-size="10.00" fill="#000000">mom_error</text>
</a>
</g>
</g>
<!-- Node1&#45;&gt;Node4 -->
<g id="edge3" class="edge">
<title>Node1&#45;&gt;Node4</title>
<path fill="none" stroke="#191970" d="M165.7793,-29.9801C180.3886,-28.095 195.6595,-26.1246 210.0637,-24.266"/>
<polygon fill="#191970" stroke="#191970" points="210.9072,-27.6862 220.3771,-22.9352 210.0114,-20.7438 210.9072,-27.6862"/>
</g>
<!-- Node3 -->
<g id="node3" class="node">
<title>Node3</title>
<g id="a_node3"><a xlink:href="namespacemom__domains.html#abc0b09896aa9f5b4c795f85c813aa59f" target="_top" xlink:title="Returns the global shape of h&#45;point arrays.">
<polygon fill="#ffffff" stroke="#000000" points="372,-49.5 372,-79.5 510,-79.5 510,-49.5 372,-49.5"/>
<text text-anchor="start" x="380" y="-67.5" font-family="Helvetica,sans-Serif" font-size="10.00" fill="#000000">mom_domains::get_global</text>
<text text-anchor="middle" x="441" y="-56.5" font-family="Helvetica,sans-Serif" font-size="10.00" fill="#000000">_shape</text>
</a>
</g>
</g>
<!-- Node2&#45;&gt;Node3 -->
<g id="edge2" class="edge">
<title>Node2&#45;&gt;Node3</title>
<path fill="none" stroke="#191970" d="M336.3863,-64.5C344.6592,-64.5 353.2785,-64.5 361.8627,-64.5"/>
<polygon fill="#191970" stroke="#191970" points="361.9011,-68.0001 371.901,-64.5 361.901,-61.0001 361.9011,-68.0001"/>
</g>
<!-- Node5 -->
<g id="node5" class="node">
<title>Node5</title>
<g id="a_node5"><a xlink:href="namespacemom__error__handler.html#ad5f00a53059c72fe2332d1436c80ca71" target="_top" xlink:title="This returns .true. if the current PE is the root PE.">
<polygon fill="#ffffff" stroke="#000000" points="383.5,-.5 383.5,-30.5 498.5,-30.5 498.5,-.5 383.5,-.5"/>
<text text-anchor="start" x="391.5" y="-18.5" font-family="Helvetica,sans-Serif" font-size="10.00" fill="#000000">mom_error_handler::</text>
<text text-anchor="middle" x="441" y="-7.5" font-family="Helvetica,sans-Serif" font-size="10.00" fill="#000000">is_root_pe</text>
</a>
</g>
</g>
<!-- Node4&#45;&gt;Node5 -->
<g id="edge4" class="edge">
<title>Node4&#45;&gt;Node5</title>
<path fill="none" stroke="#191970" d="M335.9267,-15.5C347.9368,-15.5 360.6942,-15.5 373.0265,-15.5"/>
<polygon fill="#191970" stroke="#191970" points="373.2599,-19.0001 383.2599,-15.5 373.2598,-12.0001 373.2599,-19.0001"/>
</g>
</g>
</svg>
