<?xml version="1.0" encoding="UTF-8" standalone="no"?>
<!DOCTYPE svg PUBLIC "-//W3C//DTD SVG 1.1//EN"
 "http://www.w3.org/Graphics/SVG/1.1/DTD/svg11.dtd">
<!-- Generated by graphviz version 2.40.1 (20161225.0304)
 -->
<!-- Title: mom_offline_main::offline_transport_init Pages: 1 -->
<svg width="446pt" height="186pt"
 viewBox="0.00 0.00 446.00 186.00" xmlns="http://www.w3.org/2000/svg" xmlns:xlink="http://www.w3.org/1999/xlink">
<g id="graph0" class="graph" transform="scale(1 1) rotate(0) translate(4 182)">
<title>mom_offline_main::offline_transport_init</title>
<polygon fill="#ffffff" stroke="transparent" points="-4,4 -4,-182 442,-182 442,4 -4,4"/>
<!-- Node1 -->
<g id="node1" class="node">
<title>Node1</title>
<g id="a_node1"><a xlink:title="Initializes the control structure for offline transport and reads in some of the.">
<polygon fill="#bfbfbf" stroke="#000000" points="0,-73.5 0,-103.5 128,-103.5 128,-73.5 0,-73.5"/>
<text text-anchor="start" x="8" y="-91.5" font-family="Helvetica,sans-Serif" font-size="10.00" fill="#000000">mom_offline_main::offline</text>
<text text-anchor="middle" x="64" y="-80.5" font-family="Helvetica,sans-Serif" font-size="10.00" fill="#000000">_transport_init</text>
</a>
</g>
</g>
<!-- Node2 -->
<g id="node2" class="node">
<title>Node2</title>
<g id="a_node2"><a xlink:href="namespacemom__error__handler.html#a9cda07a87815f0e5594066162b4345c3" target="_top" xlink:title="Writes a message about entering a subroutine if call tree reporting is active.">
<polygon fill="#ffffff" stroke="#000000" points="177,-147.5 177,-177.5 283,-177.5 283,-147.5 177,-147.5"/>
<text text-anchor="start" x="185" y="-165.5" font-family="Helvetica,sans-Serif" font-size="10.00" fill="#000000">mom_error_handler::</text>
<text text-anchor="middle" x="230" y="-154.5" font-family="Helvetica,sans-Serif" font-size="10.00" fill="#000000">calltree_enter</text>
</a>
</g>
</g>
<!-- Node1&#45;&gt;Node2 -->
<g id="edge1" class="edge">
<title>Node1&#45;&gt;Node2</title>
<path fill="none" stroke="#191970" d="M92.0396,-103.6049C111.8636,-114.0147 139.2152,-127.8393 164,-138.5 168.1441,-140.2825 172.469,-142.0511 176.8358,-143.7726"/>
<polygon fill="#191970" stroke="#191970" points="175.8188,-147.1313 186.4088,-147.453 178.3308,-140.5975 175.8188,-147.1313"/>
</g>
<!-- Node4 -->
<g id="node4" class="node">
<title>Node4</title>
<g id="a_node4"><a xlink:href="namespacemom__error__handler.html#a88ea67781e2ed9b73ab7eac8ea5e8578" target="_top" xlink:title="Writes a message about leaving a subroutine if call tree reporting is active.">
<polygon fill="#ffffff" stroke="#000000" points="177,-98.5 177,-128.5 283,-128.5 283,-98.5 177,-98.5"/>
<text text-anchor="start" x="185" y="-116.5" font-family="Helvetica,sans-Serif" font-size="10.00" fill="#000000">mom_error_handler::</text>
<text text-anchor="middle" x="230" y="-105.5" font-family="Helvetica,sans-Serif" font-size="10.00" fill="#000000">calltree_leave</text>
</a>
</g>
</g>
<!-- Node1&#45;&gt;Node4 -->
<g id="edge3" class="edge">
<title>Node1&#45;&gt;Node4</title>
<path fill="none" stroke="#191970" d="M128.1799,-98.1657C140.8502,-100.0738 154.1381,-102.075 166.7765,-103.9784"/>
<polygon fill="#191970" stroke="#191970" points="166.339,-107.4519 176.7487,-105.4802 167.3815,-100.5299 166.339,-107.4519"/>
</g>
<!-- Node5 -->
<g id="node5" class="node">
<title>Node5</title>
<g id="a_node5"><a xlink:href="namespacemom__diabatic__driver.html#a5ad8cfe1e5f0bf6c89b44e6bbbf2a685" target="_top" xlink:title="Returns pointers or values of members within the diabatic_CS type. For extensibility,...">
<polygon fill="#ffffff" stroke="#000000" points="164,-49.5 164,-79.5 296,-79.5 296,-49.5 164,-49.5"/>
<text text-anchor="start" x="172" y="-67.5" font-family="Helvetica,sans-Serif" font-size="10.00" fill="#000000">mom_diabatic_driver</text>
<text text-anchor="middle" x="230" y="-56.5" font-family="Helvetica,sans-Serif" font-size="10.00" fill="#000000">::extract_diabatic_member</text>
</a>
</g>
</g>
<!-- Node1&#45;&gt;Node5 -->
<g id="edge5" class="edge">
<title>Node1&#45;&gt;Node5</title>
<path fill="none" stroke="#191970" d="M128.1799,-79.221C136.5736,-78.0074 145.2383,-76.7547 153.8056,-75.5161"/>
<polygon fill="#191970" stroke="#191970" points="154.3999,-78.9666 163.7961,-74.0716 153.3982,-72.0387 154.3999,-78.9666"/>
</g>
<!-- Node6 -->
<g id="node6" class="node">
<title>Node6</title>
<g id="a_node6"><a xlink:href="namespacemom__offline__main.html#abc6fd7e877d8e70014cbad2d4e3f11c5" target="_top" xlink:title="Coordinates the allocation and reading in all time levels of uh, vh, hend, temp, and salt from files....">
<polygon fill="#ffffff" stroke="#000000" points="169.5,-.5 169.5,-30.5 290.5,-30.5 290.5,-.5 169.5,-.5"/>
<text text-anchor="start" x="177.5" y="-18.5" font-family="Helvetica,sans-Serif" font-size="10.00" fill="#000000">mom_offline_main::read</text>
<text text-anchor="middle" x="230" y="-7.5" font-family="Helvetica,sans-Serif" font-size="10.00" fill="#000000">_all_input</text>
</a>
</g>
</g>
<!-- Node1&#45;&gt;Node6 -->
<g id="edge6" class="edge">
<title>Node1&#45;&gt;Node6</title>
<path fill="none" stroke="#191970" d="M93.8868,-73.329C113.6012,-63.5273 140.1035,-50.7389 164,-40.5 168.8042,-38.4416 173.8398,-36.375 178.8963,-34.3602"/>
<polygon fill="#191970" stroke="#191970" points="180.5548,-37.4696 188.5908,-30.565 178.003,-30.9513 180.5548,-37.4696"/>
</g>
<!-- Node3 -->
<g id="node3" class="node">
<title>Node3</title>
<g id="a_node3"><a xlink:href="namespacemom__error__handler.html#ad5f00a53059c72fe2332d1436c80ca71" target="_top" xlink:title="This returns .true. if the current PE is the root PE.">
<polygon fill="#ffffff" stroke="#000000" points="332,-122.5 332,-152.5 438,-152.5 438,-122.5 332,-122.5"/>
<text text-anchor="start" x="340" y="-140.5" font-family="Helvetica,sans-Serif" font-size="10.00" fill="#000000">mom_error_handler::</text>
<text text-anchor="middle" x="385" y="-129.5" font-family="Helvetica,sans-Serif" font-size="10.00" fill="#000000">is_root_pe</text>
</a>
</g>
</g>
<!-- Node2&#45;&gt;Node3 -->
<g id="edge2" class="edge">
<title>Node2&#45;&gt;Node3</title>
<path fill="none" stroke="#191970" d="M283.3422,-153.8964C295.7108,-151.9015 308.9916,-149.7594 321.7399,-147.7032"/>
<polygon fill="#191970" stroke="#191970" points="322.5071,-151.1248 331.8221,-146.0771 321.3924,-144.2141 322.5071,-151.1248"/>
</g>
<!-- Node4&#45;&gt;Node3 -->
<g id="edge4" class="edge">
<title>Node4&#45;&gt;Node3</title>
<path fill="none" stroke="#191970" d="M283.3422,-121.7594C295.7108,-123.6746 308.9916,-125.731 321.7399,-127.7049"/>
<polygon fill="#191970" stroke="#191970" points="321.4043,-131.1946 331.8221,-129.266 322.4755,-124.277 321.4043,-131.1946"/>
</g>
</g>
</svg>
