<?xml version="1.0" encoding="UTF-8" standalone="no"?>
<!DOCTYPE svg PUBLIC "-//W3C//DTD SVG 1.1//EN"
 "http://www.w3.org/Graphics/SVG/1.1/DTD/svg11.dtd">
<!-- Generated by graphviz version 2.40.1 (20161225.0304)
 -->
<!-- Title: regrid_interp::interpolation_scheme Pages: 1 -->
<!--zoomable 88 -->
<svg id="main" version="1.1" xmlns="http://www.w3.org/2000/svg" xmlns:xlink="http://www.w3.org/1999/xlink" xml:space="preserve" onload="init(evt)">
<style type="text/css"><![CDATA[
.edge:hover path { stroke: red; }
.edge:hover polygon { stroke: red; fill: red; }
]]></style>
<script type="text/javascript"><![CDATA[
var edges = document.getElementsByTagName('g');
if (edges && edges.length) {
  for (var i=0;i<edges.length;i++) {
    if (edges[i].id.substr(0,4)=='edge') {
      edges[i].setAttribute('class','edge');
    }
  }
}
]]></script>
        <defs>
                <circle id="rim" cx="0" cy="0" r="7"/>
                <circle id="rim2" cx="0" cy="0" r="3.5"/>
                <g id="zoomPlus">
                        <use xlink:href="#rim" fill="#404040">
                                <set attributeName="fill" to="#808080" begin="zoomplus.mouseover" end="zoomplus.mouseout"/>
                        </use>
                        <path d="M-4,0h8M0,-4v8" fill="none" stroke="white" stroke-width="1.5" pointer-events="none"/>
                </g>
                <g id="zoomMin">
                        <use xlink:href="#rim" fill="#404040">
                                <set attributeName="fill" to="#808080" begin="zoomminus.mouseover" end="zoomminus.mouseout"/>
                        </use>
                        <path d="M-4,0h8" fill="none" stroke="white" stroke-width="1.5" pointer-events="none"/>
                </g>
                <g id="dirArrow">
                        <path fill="none" stroke="white" stroke-width="1.5" d="M0,-3.0v7 M-2.5,-0.5L0,-3.0L2.5,-0.5"/>
                </g>
               <g id="resetDef">
                       <use xlink:href="#rim2" fill="#404040">
                               <set attributeName="fill" to="#808080" begin="reset.mouseover" end="reset.mouseout"/>
                       </use>
               </g>
        </defs>

<script type="text/javascript">
var viewWidth = 565;
var viewHeight = 88;
var sectionId = 'dynsection-7';
</script>
<script xlink:href="svgpan.js"/>
<svg id="graph" class="graph">
<g id="viewport">
<title>regrid_interp::interpolation_scheme</title>
<polygon fill="#ffffff" stroke="transparent" points="-4,4 -4,-84 561,-84 561,4 -4,4"/>
<!-- Node1 -->
<g id="node1" class="node">
<title>Node1</title>
<g id="a_node1"><a xlink:title="Numeric value of interpolation_scheme corresponding to scheme name.">
<polygon fill="#bfbfbf" stroke="#000000" points="429,-24.5 429,-54.5 557,-54.5 557,-24.5 429,-24.5"/>
<text text-anchor="start" x="437" y="-42.5" font-family="Helvetica,sans-Serif" font-size="10.00" fill="#000000">regrid_interp::interpolation</text>
<text text-anchor="middle" x="493" y="-31.5" font-family="Helvetica,sans-Serif" font-size="10.00" fill="#000000">_scheme</text>
</a>
</g>
</g>
<!-- Node2 -->
<g id="node2" class="node">
<title>Node2</title>
<g id="a_node2"><a xlink:href="namespaceregrid__interp.html#ae77f3027ed51829db5d4ed6dbc744550" target="_top" xlink:title="Store the interpolation_scheme value in the interp_CS based on the input string.">
<polygon fill="#ffffff" stroke="#000000" points="304,-24.5 304,-54.5 393,-54.5 393,-24.5 304,-24.5"/>
<text text-anchor="start" x="312" y="-42.5" font-family="Helvetica,sans-Serif" font-size="10.00" fill="#000000">regrid_interp::set</text>
<text text-anchor="middle" x="348.5" y="-31.5" font-family="Helvetica,sans-Serif" font-size="10.00" fill="#000000">_interp_scheme</text>
</a>
</g>
</g>
<!-- Node1&#45;&gt;Node2 -->
<g id="edge1" class="edge">
<title>Node1&#45;&gt;Node2</title>
<path fill="none" stroke="#191970" d="M418.5617,-39.5C409.849,-39.5 401.1788,-39.5 393.0585,-39.5"/>
<polygon fill="#191970" stroke="#191970" points="418.7787,-43.0001 428.7787,-39.5 418.7787,-36.0001 418.7787,-43.0001"/>
</g>
<!-- Node3 -->
<g id="node3" class="node">
<title>Node3</title>
<g id="a_node3"><a xlink:href="namespacemom__regridding.html#a92ee618890e604fd9730bce53c9d313f" target="_top" xlink:title="Can be used to set any of the parameters for MOM_regridding.">
<polygon fill="#ffffff" stroke="#000000" points="163,-24.5 163,-54.5 268,-54.5 268,-24.5 163,-24.5"/>
<text text-anchor="start" x="171" y="-42.5" font-family="Helvetica,sans-Serif" font-size="10.00" fill="#000000">mom_regridding::set</text>
<text text-anchor="middle" x="215.5" y="-31.5" font-family="Helvetica,sans-Serif" font-size="10.00" fill="#000000">_regrid_params</text>
</a>
</g>
</g>
<!-- Node2&#45;&gt;Node3 -->
<g id="edge2" class="edge">
<title>Node2&#45;&gt;Node3</title>
<path fill="none" stroke="#191970" d="M293.6897,-39.5C285.2283,-39.5 276.5063,-39.5 268.095,-39.5"/>
<polygon fill="#191970" stroke="#191970" points="293.843,-43.0001 303.8429,-39.5 293.8429,-36.0001 293.843,-43.0001"/>
</g>
<!-- Node4 -->
<g id="node4" class="node">
<title>Node4</title>
<g id="a_node4"><a xlink:href="namespacemom__oda__driver__mod.html#aaaf67b8d0e0db3ba3dfe09e24d2b8b24" target="_top" xlink:title="initialize First_guess (prior) and Analysis grid information for all ensemble members">
<polygon fill="#ffffff" stroke="#000000" points="7,-49.5 7,-79.5 120,-79.5 120,-49.5 7,-49.5"/>
<text text-anchor="start" x="15" y="-67.5" font-family="Helvetica,sans-Serif" font-size="10.00" fill="#000000">mom_oda_driver_mod</text>
<text text-anchor="middle" x="63.5" y="-56.5" font-family="Helvetica,sans-Serif" font-size="10.00" fill="#000000">::init_oda</text>
</a>
</g>
</g>
<!-- Node3&#45;&gt;Node4 -->
<g id="edge3" class="edge">
<title>Node3&#45;&gt;Node4</title>
<path fill="none" stroke="#191970" d="M152.5643,-49.8513C141.7792,-51.6251 130.6321,-53.4585 120.0275,-55.2027"/>
<polygon fill="#191970" stroke="#191970" points="153.465,-53.2502 162.7644,-48.1736 152.3289,-46.343 153.465,-53.2502"/>
</g>
<!-- Node5 -->
<g id="node5" class="node">
<title>Node5</title>
<g id="a_node5"><a xlink:href="namespacemom__regridding.html#a8c91ba68f0906e1fc76b7008caf6288e" target="_top" xlink:title="Initialization and configures a regridding control structure based on customizable run&#45;time parameter...">
<polygon fill="#ffffff" stroke="#000000" points="0,-.5 0,-30.5 127,-30.5 127,-.5 0,-.5"/>
<text text-anchor="start" x="8" y="-18.5" font-family="Helvetica,sans-Serif" font-size="10.00" fill="#000000">mom_regridding::initialize</text>
<text text-anchor="middle" x="63.5" y="-7.5" font-family="Helvetica,sans-Serif" font-size="10.00" fill="#000000">_regridding</text>
</a>
</g>
</g>
<!-- Node3&#45;&gt;Node5 -->
<g id="edge4" class="edge">
<title>Node3&#45;&gt;Node5</title>
<path fill="none" stroke="#191970" d="M152.6327,-29.5736C144.2127,-28.2441 135.5708,-26.8796 127.1377,-25.5481"/>
<polygon fill="#191970" stroke="#191970" points="152.3408,-33.0708 162.7644,-31.1733 153.4326,-26.1564 152.3408,-33.0708"/>
</g>
</g>
</svg>
        <g id="navigator" transform="translate(0 0)" fill="#404254">
                <rect fill="#f2f5e9" fill-opacity="0.5" stroke="#606060" stroke-width=".5" x="0" y="0" width="60" height="60"/>
                <use id="zoomplus" xlink:href="#zoomPlus" x="17" y="9" onmousedown="handleZoom(evt,'in')"/>
                <use id="zoomminus" xlink:href="#zoomMin" x="42" y="9" onmousedown="handleZoom(evt,'out')"/>
                <use id="reset" xlink:href="#resetDef" x="30" y="36" onmousedown="handleReset()"/>
                <g id="arrowUp" xlink:href="#dirArrow" transform="translate(30 24)" onmousedown="handlePan(0,-1)">
                  <use xlink:href="#rim" fill="#404040">
                        <set attributeName="fill" to="#808080" begin="arrowUp.mouseover" end="arrowUp.mouseout"/>
                  </use>
                  <path fill="none" stroke="white" stroke-width="1.5" d="M0,-3.0v7 M-2.5,-0.5L0,-3.0L2.5,-0.5"/>
                </g>
                <g id="arrowRight" xlink:href="#dirArrow" transform="rotate(90) translate(36 -43)" onmousedown="handlePan(1,0)">
                  <use xlink:href="#rim" fill="#404040">
                        <set attributeName="fill" to="#808080" begin="arrowRight.mouseover" end="arrowRight.mouseout"/>
                  </use>
                  <path fill="none" stroke="white" stroke-width="1.5" d="M0,-3.0v7 M-2.5,-0.5L0,-3.0L2.5,-0.5"/>
                </g>
                <g id="arrowDown" xlink:href="#dirArrow" transform="rotate(180) translate(-30 -48)" onmousedown="handlePan(0,1)">
                  <use xlink:href="#rim" fill="#404040">
                        <set attributeName="fill" to="#808080" begin="arrowDown.mouseover" end="arrowDown.mouseout"/>
                  </use>
                  <path fill="none" stroke="white" stroke-width="1.5" d="M0,-3.0v7 M-2.5,-0.5L0,-3.0L2.5,-0.5"/>
                </g>
                <g id="arrowLeft" xlink:href="#dirArrow" transform="rotate(270) translate(-36 17)" onmousedown="handlePan(-1,0)">
                  <use xlink:href="#rim" fill="#404040">
                        <set attributeName="fill" to="#808080" begin="arrowLeft.mouseover" end="arrowLeft.mouseout"/>
                  </use>
                  <path fill="none" stroke="white" stroke-width="1.5" d="M0,-3.0v7 M-2.5,-0.5L0,-3.0L2.5,-0.5"/>
                </g>
        </g>
        <svg viewBox="0 0 15 15" width="100%" height="30px" preserveAspectRatio="xMaxYMin meet">
         <g id="arrow_out" transform="scale(0.3 0.3)">
          <a xlink:href="namespaceregrid__interp_ab4d21d91c26022a3e79268be4fe14d44_icgraph_org.svg" target="_base">
           <rect id="button" ry="5" rx="5" y="6" x="6" height="38" width="38"
                fill="#f2f5e9" fill-opacity="0.5" stroke="#606060" stroke-width="1.0"/>
           <path id="arrow"
             d="M 11.500037,31.436501 C 11.940474,20.09759 22.043105,11.32322 32.158766,21.979434 L 37.068811,17.246167 C 37.068811,17.246167 37.088388,32 37.088388,32 L 22.160133,31.978069 C 22.160133,31.978069 26.997745,27.140456 26.997745,27.140456 C 18.528582,18.264221 13.291696,25.230495 11.500037,31.436501 z"
             style="fill:#404040;"/>
          </a>
         </g>
        </svg>
</svg>
