<?xml version="1.0" encoding="UTF-8" standalone="no"?>
<!DOCTYPE svg PUBLIC "-//W3C//DTD SVG 1.1//EN"
 "http://www.w3.org/Graphics/SVG/1.1/DTD/svg11.dtd">
<!-- Generated by graphviz version 2.40.1 (20161225.0304)
 -->
<!-- Title: mom_barotropic::find_vhbt Pages: 1 -->
<svg width="467pt" height="56pt"
 viewBox="0.00 0.00 467.00 55.50" xmlns="http://www.w3.org/2000/svg" xmlns:xlink="http://www.w3.org/1999/xlink">
<g id="graph0" class="graph" transform="scale(1 1) rotate(0) translate(4 51.5)">
<title>mom_barotropic::find_vhbt</title>
<polygon fill="#ffffff" stroke="transparent" points="-4,4 -4,-51.5 463,-51.5 463,4 -4,4"/>
<!-- Node1 -->
<g id="node1" class="node">
<title>Node1</title>
<g id="a_node1"><a xlink:title="The function find_vhbt determines the meridional transport for a given velocity.">
<polygon fill="#bfbfbf" stroke="#000000" points="319,-.5 319,-19.5 459,-19.5 459,-.5 319,-.5"/>
<text text-anchor="middle" x="389" y="-7.5" font-family="Helvetica,sans-Serif" font-size="10.00" fill="#000000">mom_barotropic::find_vhbt</text>
</a>
</g>
</g>
<!-- Node2 -->
<g id="node2" class="node">
<title>Node2</title>
<g id="a_node2"><a xlink:href="namespacemom__barotropic.html#a1f34ad960c893916f0703db07badc57c" target="_top" xlink:title="The following 4 subroutines apply the open boundary conditions. This subroutine applies the open boun...">
<polygon fill="#ffffff" stroke="#000000" points="161,-17 161,-47 283,-47 283,-17 161,-17"/>
<text text-anchor="start" x="169" y="-35" font-family="Helvetica,sans-Serif" font-size="10.00" fill="#000000">mom_barotropic::apply</text>
<text text-anchor="middle" x="222" y="-24" font-family="Helvetica,sans-Serif" font-size="10.00" fill="#000000">_velocity_obcs</text>
</a>
</g>
</g>
<!-- Node1&#45;&gt;Node2 -->
<g id="edge1" class="edge">
<title>Node1&#45;&gt;Node2</title>
<path fill="none" stroke="#191970" d="M308.6696,-20.5824C300.1227,-21.7084 291.5315,-22.8402 283.2549,-23.9305"/>
<polygon fill="#191970" stroke="#191970" points="309.2038,-24.0424 318.661,-19.2662 308.2895,-17.1024 309.2038,-24.0424"/>
</g>
<!-- Node3 -->
<g id="node3" class="node">
<title>Node3</title>
<g id="a_node3"><a xlink:href="namespacemom__barotropic.html#a1468df372a5d1dcb95e0b35d782895de" target="_top" xlink:title="This subroutine time steps the barotropic equations explicitly. For gravity waves,...">
<polygon fill="#ffffff" stroke="#000000" points="0,-.5 0,-19.5 125,-19.5 125,-.5 0,-.5"/>
<text text-anchor="middle" x="62.5" y="-7.5" font-family="Helvetica,sans-Serif" font-size="10.00" fill="#000000">mom_barotropic::btstep</text>
</a>
</g>
</g>
<!-- Node1&#45;&gt;Node3 -->
<g id="edge3" class="edge">
<title>Node1&#45;&gt;Node3</title>
<path fill="none" stroke="#191970" d="M308.7157,-8.3254C300.0363,-8.192 291.3341,-8.0786 283,-8 228.7802,-7.4885 215.2194,-7.4496 161,-8 149.3697,-8.1181 136.9682,-8.3145 125.0258,-8.5394"/>
<polygon fill="#191970" stroke="#191970" points="308.815,-11.8274 318.8705,-8.4903 308.9287,-4.8283 308.815,-11.8274"/>
</g>
<!-- Node2&#45;&gt;Node3 -->
<g id="edge2" class="edge">
<title>Node2&#45;&gt;Node3</title>
<path fill="none" stroke="#191970" d="M150.8214,-22.1823C142.2575,-21.001 133.5603,-19.8014 125.1309,-18.6387"/>
<polygon fill="#191970" stroke="#191970" points="150.4048,-25.6579 160.7893,-23.5571 151.3613,-18.7235 150.4048,-25.6579"/>
</g>
</g>
</svg>
