<?xml version="1.0" encoding="UTF-8" standalone="no"?>
<!DOCTYPE svg PUBLIC "-//W3C//DTD SVG 1.1//EN"
 "http://www.w3.org/Graphics/SVG/1.1/DTD/svg11.dtd">
<!-- Generated by graphviz version 2.40.1 (20161225.0304)
 -->
<!-- Title: mom::step_mom_thermo Pages: 1 -->
<!--zoomable 252 -->
<svg id="main" version="1.1" xmlns="http://www.w3.org/2000/svg" xmlns:xlink="http://www.w3.org/1999/xlink" xml:space="preserve" onload="init(evt)">
<style type="text/css"><![CDATA[
.edge:hover path { stroke: red; }
.edge:hover polygon { stroke: red; fill: red; }
]]></style>
<script type="text/javascript"><![CDATA[
var edges = document.getElementsByTagName('g');
if (edges && edges.length) {
  for (var i=0;i<edges.length;i++) {
    if (edges[i].id.substr(0,4)=='edge') {
      edges[i].setAttribute('class','edge');
    }
  }
}
]]></script>
        <defs>
                <circle id="rim" cx="0" cy="0" r="7"/>
                <circle id="rim2" cx="0" cy="0" r="3.5"/>
                <g id="zoomPlus">
                        <use xlink:href="#rim" fill="#404040">
                                <set attributeName="fill" to="#808080" begin="zoomplus.mouseover" end="zoomplus.mouseout"/>
                        </use>
                        <path d="M-4,0h8M0,-4v8" fill="none" stroke="white" stroke-width="1.5" pointer-events="none"/>
                </g>
                <g id="zoomMin">
                        <use xlink:href="#rim" fill="#404040">
                                <set attributeName="fill" to="#808080" begin="zoomminus.mouseover" end="zoomminus.mouseout"/>
                        </use>
                        <path d="M-4,0h8" fill="none" stroke="white" stroke-width="1.5" pointer-events="none"/>
                </g>
                <g id="dirArrow">
                        <path fill="none" stroke="white" stroke-width="1.5" d="M0,-3.0v7 M-2.5,-0.5L0,-3.0L2.5,-0.5"/>
                </g>
               <g id="resetDef">
                       <use xlink:href="#rim2" fill="#404040">
                               <set attributeName="fill" to="#808080" begin="reset.mouseover" end="reset.mouseout"/>
                       </use>
               </g>
        </defs>

<script type="text/javascript">
var viewWidth = 765;
var viewHeight = 252;
var sectionId = 'dynsection-22';
</script>
<script xlink:href="svgpan.js"/>
<svg id="graph" class="graph">
<g id="viewport">
<title>mom::step_mom_thermo</title>
<polygon fill="#ffffff" stroke="transparent" points="-4,4 -4,-248 761,-248 761,4 -4,4"/>
<!-- Node1 -->
<g id="node1" class="node">
<title>Node1</title>
<g id="a_node1"><a xlink:title="MOM_step_thermo orchestrates the thermodynamic time stepping and vertical remapping,...">
<polygon fill="#bfbfbf" stroke="#000000" points="0,-107 0,-126 125,-126 125,-107 0,-107"/>
<text text-anchor="middle" x="62.5" y="-114" font-family="Helvetica,sans-Serif" font-size="10.00" fill="#000000">mom::step_mom_thermo</text>
</a>
</g>
</g>
<!-- Node2 -->
<g id="node2" class="node">
<title>Node2</title>
<g id="a_node2"><a xlink:href="namespacemom__diabatic__driver.html#aef60aa7bfe62f65408c7005b6cb613e8" target="_top" xlink:title="Routine called for adiabatic physics.">
<polygon fill="#ffffff" stroke="#000000" points="182.5,-213.5 182.5,-243.5 289.5,-243.5 289.5,-213.5 182.5,-213.5"/>
<text text-anchor="start" x="190.5" y="-231.5" font-family="Helvetica,sans-Serif" font-size="10.00" fill="#000000">mom_diabatic_driver</text>
<text text-anchor="middle" x="236" y="-220.5" font-family="Helvetica,sans-Serif" font-size="10.00" fill="#000000">::adiabatic</text>
</a>
</g>
</g>
<!-- Node1&#45;&gt;Node2 -->
<g id="edge1" class="edge">
<title>Node1&#45;&gt;Node2</title>
<path fill="none" stroke="#191970" d="M70.7242,-126.1522C86.4833,-144.0725 122.7791,-182.6451 161,-204.5 164.8423,-206.697 168.9122,-208.7222 173.0908,-210.5839"/>
<polygon fill="#191970" stroke="#191970" points="171.7863,-213.8318 182.3659,-214.4014 174.4507,-207.3586 171.7863,-213.8318"/>
</g>
<!-- Node6 -->
<g id="node6" class="node">
<title>Node6</title>
<g id="a_node6"><a xlink:href="namespacemom__oda__driver__mod.html#a1591229c657f196c97b87b77ca4378a6" target="_top" xlink:title="Apply increments to tracers.">
<polygon fill="#ffffff" stroke="#000000" points="161,-164.5 161,-194.5 311,-194.5 311,-164.5 161,-164.5"/>
<text text-anchor="start" x="169" y="-182.5" font-family="Helvetica,sans-Serif" font-size="10.00" fill="#000000">mom_oda_driver_mod</text>
<text text-anchor="middle" x="236" y="-171.5" font-family="Helvetica,sans-Serif" font-size="10.00" fill="#000000">::apply_oda_tracer_increments</text>
</a>
</g>
</g>
<!-- Node1&#45;&gt;Node6 -->
<g id="edge5" class="edge">
<title>Node1&#45;&gt;Node6</title>
<path fill="none" stroke="#191970" d="M88.8509,-126.0683C114.2802,-135.302 153.4556,-149.5271 184.9928,-160.9787"/>
<polygon fill="#191970" stroke="#191970" points="183.9172,-164.3116 194.5113,-164.435 186.3064,-157.732 183.9172,-164.3116"/>
</g>
<!-- Node7 -->
<g id="node7" class="node">
<title>Node7</title>
<g id="a_node7"><a xlink:href="namespacemom__error__handler.html#a9cda07a87815f0e5594066162b4345c3" target="_top" xlink:title="Writes a message about entering a subroutine if call tree reporting is active.">
<polygon fill="#ffffff" stroke="#000000" points="357,-126.5 357,-156.5 463,-156.5 463,-126.5 357,-126.5"/>
<text text-anchor="start" x="365" y="-144.5" font-family="Helvetica,sans-Serif" font-size="10.00" fill="#000000">mom_error_handler::</text>
<text text-anchor="middle" x="410" y="-133.5" font-family="Helvetica,sans-Serif" font-size="10.00" fill="#000000">calltree_enter</text>
</a>
</g>
</g>
<!-- Node1&#45;&gt;Node7 -->
<g id="edge6" class="edge">
<title>Node1&#45;&gt;Node7</title>
<path fill="none" stroke="#191970" d="M125.0274,-120.9984C187.6839,-125.506 283.6305,-132.4087 346.5955,-136.9385"/>
<polygon fill="#191970" stroke="#191970" points="346.5679,-140.4455 356.7933,-137.6722 347.0702,-133.4635 346.5679,-140.4455"/>
</g>
<!-- Node8 -->
<g id="node8" class="node">
<title>Node8</title>
<g id="a_node8"><a xlink:href="namespacemom__error__handler.html#a88ea67781e2ed9b73ab7eac8ea5e8578" target="_top" xlink:title="Writes a message about leaving a subroutine if call tree reporting is active.">
<polygon fill="#ffffff" stroke="#000000" points="509,-82.5 509,-112.5 615,-112.5 615,-82.5 509,-82.5"/>
<text text-anchor="start" x="517" y="-100.5" font-family="Helvetica,sans-Serif" font-size="10.00" fill="#000000">mom_error_handler::</text>
<text text-anchor="middle" x="562" y="-89.5" font-family="Helvetica,sans-Serif" font-size="10.00" fill="#000000">calltree_leave</text>
</a>
</g>
</g>
<!-- Node1&#45;&gt;Node8 -->
<g id="edge8" class="edge">
<title>Node1&#45;&gt;Node8</title>
<path fill="none" stroke="#191970" d="M125.004,-114.1225C220.7281,-110.4813 402.6281,-103.5622 498.78,-99.9048"/>
<polygon fill="#191970" stroke="#191970" points="499.0809,-103.3959 508.9406,-99.5183 498.8148,-96.401 499.0809,-103.3959"/>
</g>
<!-- Node9 -->
<g id="node9" class="node">
<title>Node9</title>
<g id="a_node9"><a xlink:href="namespacemom__error__handler.html#a34a02e601a60f03cb97a72fe25a32853" target="_top" xlink:title="Writes a message about reaching a milestone if call tree reporting is active.">
<polygon fill="#ffffff" stroke="#000000" points="357,-38.5 357,-68.5 463,-68.5 463,-38.5 357,-38.5"/>
<text text-anchor="start" x="365" y="-56.5" font-family="Helvetica,sans-Serif" font-size="10.00" fill="#000000">mom_error_handler::</text>
<text text-anchor="middle" x="410" y="-45.5" font-family="Helvetica,sans-Serif" font-size="10.00" fill="#000000">calltree_waypoint</text>
</a>
</g>
</g>
<!-- Node1&#45;&gt;Node9 -->
<g id="edge10" class="edge">
<title>Node1&#45;&gt;Node9</title>
<path fill="none" stroke="#191970" d="M86.3978,-106.9679C106.1081,-99.4792 134.961,-89.3663 161,-83.5 223.1921,-69.4889 295.6934,-61.6914 346.3687,-57.5831"/>
<polygon fill="#191970" stroke="#191970" points="346.8258,-61.0581 356.521,-56.7858 346.2776,-54.0796 346.8258,-61.0581"/>
</g>
<!-- Node10 -->
<g id="node10" class="node">
<title>Node10</title>
<g id="a_node10"><a xlink:href="namespacemom__forcing__type.html#a1c4ecd1a779a55e9304b0997088a4815" target="_top" xlink:title="Write out chksums for thermodynamic fluxes.">
<polygon fill="#ffffff" stroke="#000000" points="173.5,-.5 173.5,-30.5 298.5,-30.5 298.5,-.5 173.5,-.5"/>
<text text-anchor="start" x="181.5" y="-18.5" font-family="Helvetica,sans-Serif" font-size="10.00" fill="#000000">mom_forcing_type::mom</text>
<text text-anchor="middle" x="236" y="-7.5" font-family="Helvetica,sans-Serif" font-size="10.00" fill="#000000">_forcing_chksum</text>
</a>
</g>
</g>
<!-- Node1&#45;&gt;Node10 -->
<g id="edge12" class="edge">
<title>Node1&#45;&gt;Node10</title>
<path fill="none" stroke="#191970" d="M74.0047,-106.7642C91.7769,-92.0687 127.3774,-63.9788 161,-45.5 168.1647,-41.5623 175.9556,-37.8623 183.7159,-34.4959"/>
<polygon fill="#191970" stroke="#191970" points="185.2475,-37.6492 193.1225,-30.5616 182.5464,-31.1913 185.2475,-37.6492"/>
</g>
<!-- Node3 -->
<g id="node3" class="node">
<title>Node3</title>
<g id="a_node3"><a xlink:href="namespacemom__tracer__flow__control.html#ae4af301529462d180014b52d0ceea67c" target="_top" xlink:title="This subroutine calls all registered tracer column physics subroutines.">
<polygon fill="#ffffff" stroke="#000000" points="347,-194.5 347,-224.5 473,-224.5 473,-194.5 347,-194.5"/>
<text text-anchor="start" x="355" y="-212.5" font-family="Helvetica,sans-Serif" font-size="10.00" fill="#000000">mom_tracer_flow_control</text>
<text text-anchor="middle" x="410" y="-201.5" font-family="Helvetica,sans-Serif" font-size="10.00" fill="#000000">::call_tracer_column_fns</text>
</a>
</g>
</g>
<!-- Node2&#45;&gt;Node3 -->
<g id="edge2" class="edge">
<title>Node2&#45;&gt;Node3</title>
<path fill="none" stroke="#191970" d="M289.6255,-222.6443C304.4515,-221.0254 320.8017,-219.24 336.5452,-217.5209"/>
<polygon fill="#191970" stroke="#191970" points="337.2202,-220.9681 346.7812,-216.4032 336.4603,-214.0095 337.2202,-220.9681"/>
</g>
<!-- Node4 -->
<g id="node4" class="node">
<title>Node4</title>
<g id="a_node4"><a xlink:href="namespacemom__error__handler.html#a460cfb79a06c29fc249952c2a3710d67" target="_top" xlink:title="This provides a convenient interface for writing an mpp_error message with run&#45;time filter based on a...">
<polygon fill="#ffffff" stroke="#000000" points="509,-172.5 509,-202.5 615,-202.5 615,-172.5 509,-172.5"/>
<text text-anchor="start" x="517" y="-190.5" font-family="Helvetica,sans-Serif" font-size="10.00" fill="#000000">mom_error_handler::</text>
<text text-anchor="middle" x="562" y="-179.5" font-family="Helvetica,sans-Serif" font-size="10.00" fill="#000000">mom_error</text>
</a>
</g>
</g>
<!-- Node3&#45;&gt;Node4 -->
<g id="edge3" class="edge">
<title>Node3&#45;&gt;Node4</title>
<path fill="none" stroke="#191970" d="M473.1412,-200.3611C481.7005,-199.1223 490.484,-197.851 499.0401,-196.6126"/>
<polygon fill="#191970" stroke="#191970" points="499.5573,-200.0743 508.9528,-195.1779 498.5546,-193.1465 499.5573,-200.0743"/>
</g>
<!-- Node5 -->
<g id="node5" class="node">
<title>Node5</title>
<g id="a_node5"><a xlink:href="namespacemom__error__handler.html#ad5f00a53059c72fe2332d1436c80ca71" target="_top" xlink:title="This returns .true. if the current PE is the root PE.">
<polygon fill="#ffffff" stroke="#000000" points="651,-104.5 651,-134.5 757,-134.5 757,-104.5 651,-104.5"/>
<text text-anchor="start" x="659" y="-122.5" font-family="Helvetica,sans-Serif" font-size="10.00" fill="#000000">mom_error_handler::</text>
<text text-anchor="middle" x="704" y="-111.5" font-family="Helvetica,sans-Serif" font-size="10.00" fill="#000000">is_root_pe</text>
</a>
</g>
</g>
<!-- Node4&#45;&gt;Node5 -->
<g id="edge4" class="edge">
<title>Node4&#45;&gt;Node5</title>
<path fill="none" stroke="#191970" d="M593.5144,-172.4086C614.1047,-162.5484 641.1914,-149.5773 663.3917,-138.9462"/>
<polygon fill="#191970" stroke="#191970" points="665.0662,-142.025 672.5737,-134.5492 662.0428,-135.7116 665.0662,-142.025"/>
</g>
<!-- Node7&#45;&gt;Node5 -->
<g id="edge7" class="edge">
<title>Node7&#45;&gt;Node5</title>
<path fill="none" stroke="#191970" d="M463.2412,-137.516C513.0385,-133.7896 587.4727,-128.2197 640.3785,-124.2608"/>
<polygon fill="#191970" stroke="#191970" points="640.9481,-127.7281 650.659,-123.4915 640.4256,-120.7476 640.9481,-127.7281"/>
</g>
<!-- Node8&#45;&gt;Node5 -->
<g id="edge9" class="edge">
<title>Node8&#45;&gt;Node5</title>
<path fill="none" stroke="#191970" d="M615.2796,-105.7546C623.651,-107.0516 632.3736,-108.4029 640.94,-109.7301"/>
<polygon fill="#191970" stroke="#191970" points="640.4761,-113.1999 650.8941,-111.2723 641.5479,-106.2825 640.4761,-113.1999"/>
</g>
<!-- Node9&#45;&gt;Node5 -->
<g id="edge11" class="edge">
<title>Node9&#45;&gt;Node5</title>
<path fill="none" stroke="#191970" d="M463.3166,-52.7677C505.338,-53.5332 564.9817,-57.6206 615,-72.5 635.2078,-78.5114 656.1373,-89.2967 672.6194,-99.0205"/>
<polygon fill="#191970" stroke="#191970" points="670.9203,-102.0834 681.2857,-104.2764 674.5502,-96.0981 670.9203,-102.0834"/>
</g>
</g>
</svg>
        <g id="navigator" transform="translate(0 0)" fill="#404254">
                <rect fill="#f2f5e9" fill-opacity="0.5" stroke="#606060" stroke-width=".5" x="0" y="0" width="60" height="60"/>
                <use id="zoomplus" xlink:href="#zoomPlus" x="17" y="9" onmousedown="handleZoom(evt,'in')"/>
                <use id="zoomminus" xlink:href="#zoomMin" x="42" y="9" onmousedown="handleZoom(evt,'out')"/>
                <use id="reset" xlink:href="#resetDef" x="30" y="36" onmousedown="handleReset()"/>
                <g id="arrowUp" xlink:href="#dirArrow" transform="translate(30 24)" onmousedown="handlePan(0,-1)">
                  <use xlink:href="#rim" fill="#404040">
                        <set attributeName="fill" to="#808080" begin="arrowUp.mouseover" end="arrowUp.mouseout"/>
                  </use>
                  <path fill="none" stroke="white" stroke-width="1.5" d="M0,-3.0v7 M-2.5,-0.5L0,-3.0L2.5,-0.5"/>
                </g>
                <g id="arrowRight" xlink:href="#dirArrow" transform="rotate(90) translate(36 -43)" onmousedown="handlePan(1,0)">
                  <use xlink:href="#rim" fill="#404040">
                        <set attributeName="fill" to="#808080" begin="arrowRight.mouseover" end="arrowRight.mouseout"/>
                  </use>
                  <path fill="none" stroke="white" stroke-width="1.5" d="M0,-3.0v7 M-2.5,-0.5L0,-3.0L2.5,-0.5"/>
                </g>
                <g id="arrowDown" xlink:href="#dirArrow" transform="rotate(180) translate(-30 -48)" onmousedown="handlePan(0,1)">
                  <use xlink:href="#rim" fill="#404040">
                        <set attributeName="fill" to="#808080" begin="arrowDown.mouseover" end="arrowDown.mouseout"/>
                  </use>
                  <path fill="none" stroke="white" stroke-width="1.5" d="M0,-3.0v7 M-2.5,-0.5L0,-3.0L2.5,-0.5"/>
                </g>
                <g id="arrowLeft" xlink:href="#dirArrow" transform="rotate(270) translate(-36 17)" onmousedown="handlePan(-1,0)">
                  <use xlink:href="#rim" fill="#404040">
                        <set attributeName="fill" to="#808080" begin="arrowLeft.mouseover" end="arrowLeft.mouseout"/>
                  </use>
                  <path fill="none" stroke="white" stroke-width="1.5" d="M0,-3.0v7 M-2.5,-0.5L0,-3.0L2.5,-0.5"/>
                </g>
        </g>
        <svg viewBox="0 0 15 15" width="100%" height="30px" preserveAspectRatio="xMaxYMin meet">
         <g id="arrow_out" transform="scale(0.3 0.3)">
          <a xlink:href="namespacemom_a1a81ea749a309f10f5c3c7a17efa3606_cgraph_org.svg" target="_base">
           <rect id="button" ry="5" rx="5" y="6" x="6" height="38" width="38"
                fill="#f2f5e9" fill-opacity="0.5" stroke="#606060" stroke-width="1.0"/>
           <path id="arrow"
             d="M 11.500037,31.436501 C 11.940474,20.09759 22.043105,11.32322 32.158766,21.979434 L 37.068811,17.246167 C 37.068811,17.246167 37.088388,32 37.088388,32 L 22.160133,31.978069 C 22.160133,31.978069 26.997745,27.140456 26.997745,27.140456 C 18.528582,18.264221 13.291696,25.230495 11.500037,31.436501 z"
             style="fill:#404040;"/>
          </a>
         </g>
        </svg>
</svg>
