<?xml version="1.0" encoding="UTF-8" standalone="no"?>
<!DOCTYPE svg PUBLIC "-//W3C//DTD SVG 1.1//EN"
 "http://www.w3.org/Graphics/SVG/1.1/DTD/svg11.dtd">
<!-- Generated by graphviz version 2.40.1 (20161225.0304)
 -->
<!-- Title: mom_open_boundary::setup_u_point_obc Pages: 1 -->
<svg width="773pt" height="204pt"
 viewBox="0.00 0.00 773.00 203.50" xmlns="http://www.w3.org/2000/svg" xmlns:xlink="http://www.w3.org/1999/xlink">
<g id="graph0" class="graph" transform="scale(1 1) rotate(0) translate(4 199.5)">
<title>mom_open_boundary::setup_u_point_obc</title>
<polygon fill="#ffffff" stroke="transparent" points="-4,4 -4,-199.5 769,-199.5 769,4 -4,4"/>
<!-- Node1 -->
<g id="node1" class="node">
<title>Node1</title>
<g id="a_node1"><a xlink:title="Parse an OBC_SEGMENT_%%% string starting with &quot;I=&quot; and configure placement and type of OBC accordingl...">
<polygon fill="#bfbfbf" stroke="#000000" points="0,-99 0,-129 123,-129 123,-99 0,-99"/>
<text text-anchor="start" x="8" y="-117" font-family="Helvetica,sans-Serif" font-size="10.00" fill="#000000">mom_open_boundary::</text>
<text text-anchor="middle" x="61.5" y="-106" font-family="Helvetica,sans-Serif" font-size="10.00" fill="#000000">setup_u_point_obc</text>
</a>
</g>
</g>
<!-- Node2 -->
<g id="node2" class="node">
<title>Node2</title>
<g id="a_node2"><a xlink:href="namespacemom__open__boundary.html#aa7f532a65dd8ae4db981f2ef4791fc56" target="_top" xlink:title="Allocate segment data fields.">
<polygon fill="#ffffff" stroke="#000000" points="159,-165 159,-195 308,-195 308,-165 159,-165"/>
<text text-anchor="start" x="167" y="-183" font-family="Helvetica,sans-Serif" font-size="10.00" fill="#000000">mom_open_boundary::</text>
<text text-anchor="middle" x="233.5" y="-172" font-family="Helvetica,sans-Serif" font-size="10.00" fill="#000000">allocate_obc_segment_data</text>
</a>
</g>
</g>
<!-- Node1&#45;&gt;Node2 -->
<g id="edge1" class="edge">
<title>Node1&#45;&gt;Node2</title>
<path fill="none" stroke="#191970" d="M100.9603,-129.1417C125.87,-138.7001 158.2342,-151.1189 184.7455,-161.2919"/>
<polygon fill="#191970" stroke="#191970" points="183.6332,-164.6138 194.2233,-164.9287 186.141,-158.0785 183.6332,-164.6138"/>
</g>
<!-- Node3 -->
<g id="node3" class="node">
<title>Node3</title>
<g id="a_node3"><a xlink:href="namespacemom__error__handler.html#a460cfb79a06c29fc249952c2a3710d67" target="_top" xlink:title="This provides a convenient interface for writing an mpp_error message with run&#45;time filter based on a...">
<polygon fill="#ffffff" stroke="#000000" points="499,-83 499,-113 614,-113 614,-83 499,-83"/>
<text text-anchor="start" x="507" y="-101" font-family="Helvetica,sans-Serif" font-size="10.00" fill="#000000">mom_error_handler::</text>
<text text-anchor="middle" x="556.5" y="-90" font-family="Helvetica,sans-Serif" font-size="10.00" fill="#000000">mom_error</text>
</a>
</g>
</g>
<!-- Node1&#45;&gt;Node3 -->
<g id="edge2" class="edge">
<title>Node1&#45;&gt;Node3</title>
<path fill="none" stroke="#191970" d="M123.1266,-116.1835C135.0282,-116.5239 147.4008,-116.8216 159,-117 294.1419,-119.0786 328.3225,-120.3854 463,-109 471.3112,-108.2974 480.0243,-107.4378 488.6487,-106.5117"/>
<polygon fill="#191970" stroke="#191970" points="489.1485,-109.9779 498.703,-105.3995 488.3788,-103.0203 489.1485,-109.9779"/>
</g>
<!-- Node5 -->
<g id="node5" class="node">
<title>Node5</title>
<g id="a_node5"><a xlink:href="namespacemom__open__boundary.html#a0eb361009a2dddf3ad9a24d0d7223898" target="_top" xlink:title="Parse an OBC_SEGMENT_%%% string.">
<polygon fill="#ffffff" stroke="#000000" points="172,-77 172,-107 295,-107 295,-77 172,-77"/>
<text text-anchor="start" x="180" y="-95" font-family="Helvetica,sans-Serif" font-size="10.00" fill="#000000">mom_open_boundary::</text>
<text text-anchor="middle" x="233.5" y="-84" font-family="Helvetica,sans-Serif" font-size="10.00" fill="#000000">parse_segment_str</text>
</a>
</g>
</g>
<!-- Node1&#45;&gt;Node5 -->
<g id="edge4" class="edge">
<title>Node1&#45;&gt;Node5</title>
<path fill="none" stroke="#191970" d="M123.1101,-106.1196C135.5841,-104.5241 148.8043,-102.8332 161.5968,-101.1969"/>
<polygon fill="#191970" stroke="#191970" points="162.2668,-104.6398 171.7419,-99.8993 161.3787,-97.6964 162.2668,-104.6398"/>
</g>
<!-- Node8 -->
<g id="node8" class="node">
<title>Node8</title>
<g id="a_node8"><a xlink:href="namespacemom__open__boundary.html#ac357a1fb341db3aaffdfeca2eacab60b" target="_top" xlink:title="Define indices for segment and store in hor_index_type using global segment bounds corresponding to q...">
<polygon fill="#ffffff" stroke="#000000" points="169.5,-28 169.5,-58 297.5,-58 297.5,-28 169.5,-28"/>
<text text-anchor="start" x="177.5" y="-46" font-family="Helvetica,sans-Serif" font-size="10.00" fill="#000000">mom_open_boundary::</text>
<text text-anchor="middle" x="233.5" y="-35" font-family="Helvetica,sans-Serif" font-size="10.00" fill="#000000">setup_segment_indices</text>
</a>
</g>
</g>
<!-- Node1&#45;&gt;Node8 -->
<g id="edge9" class="edge">
<title>Node1&#45;&gt;Node8</title>
<path fill="none" stroke="#191970" d="M90.9705,-98.9907C110.1076,-89.521 135.7305,-77.3561 159,-68 164.5141,-65.7829 170.3089,-63.5964 176.1291,-61.4944"/>
<polygon fill="#191970" stroke="#191970" points="177.6373,-64.6738 185.903,-58.046 175.3082,-58.0726 177.6373,-64.6738"/>
</g>
<!-- Node4 -->
<g id="node4" class="node">
<title>Node4</title>
<g id="a_node4"><a xlink:href="namespacemom__error__handler.html#ad5f00a53059c72fe2332d1436c80ca71" target="_top" xlink:title="This returns .true. if the current PE is the root PE.">
<polygon fill="#ffffff" stroke="#000000" points="650,-83 650,-113 765,-113 765,-83 650,-83"/>
<text text-anchor="start" x="658" y="-101" font-family="Helvetica,sans-Serif" font-size="10.00" fill="#000000">mom_error_handler::</text>
<text text-anchor="middle" x="707.5" y="-90" font-family="Helvetica,sans-Serif" font-size="10.00" fill="#000000">is_root_pe</text>
</a>
</g>
</g>
<!-- Node3&#45;&gt;Node4 -->
<g id="edge3" class="edge">
<title>Node3&#45;&gt;Node4</title>
<path fill="none" stroke="#191970" d="M614.0174,-98C622.4639,-98 631.2292,-98 639.8561,-98"/>
<polygon fill="#191970" stroke="#191970" points="639.8926,-101.5001 649.8925,-98 639.8925,-94.5001 639.8926,-101.5001"/>
</g>
<!-- Node5&#45;&gt;Node3 -->
<g id="edge8" class="edge">
<title>Node5&#45;&gt;Node3</title>
<path fill="none" stroke="#191970" d="M295.0141,-93.1427C350.3551,-94.1707 431.5201,-95.6784 488.7116,-96.7408"/>
<polygon fill="#191970" stroke="#191970" points="488.6798,-100.2407 498.7432,-96.9271 488.8099,-93.2419 488.6798,-100.2407"/>
</g>
<!-- Node6 -->
<g id="node6" class="node">
<title>Node6</title>
<g id="a_node6"><a xlink:href="namespacemom__string__functions.html#aad76dee92b69dab4488da049fe11cdb8" target="_top" xlink:title="Returns the string corresponding to the nth word in the argument or &quot;&quot; if the string is not long enou...">
<polygon fill="#ffffff" stroke="#000000" points="344,-39 344,-69 463,-69 463,-39 344,-39"/>
<text text-anchor="start" x="352" y="-57" font-family="Helvetica,sans-Serif" font-size="10.00" fill="#000000">mom_string_functions</text>
<text text-anchor="middle" x="403.5" y="-46" font-family="Helvetica,sans-Serif" font-size="10.00" fill="#000000">::extract_word</text>
</a>
</g>
</g>
<!-- Node5&#45;&gt;Node6 -->
<g id="edge5" class="edge">
<title>Node5&#45;&gt;Node6</title>
<path fill="none" stroke="#191970" d="M295.3548,-78.1736C307.8648,-75.3773 321.0989,-72.4191 333.8557,-69.5676"/>
<polygon fill="#191970" stroke="#191970" points="334.9655,-72.9059 343.9611,-67.3087 333.4384,-66.0745 334.9655,-72.9059"/>
</g>
<!-- Node7 -->
<g id="node7" class="node">
<title>Node7</title>
<g id="a_node7"><a xlink:href="MOM__open__boundary_8F90.html#a0793b1a5746e6ead6bff50c3a52cae90" target="_top" xlink:title=" ">
<polygon fill="#ffffff" stroke="#000000" points="353,-.5 353,-19.5 454,-19.5 454,-.5 353,-.5"/>
<text text-anchor="middle" x="403.5" y="-7.5" font-family="Helvetica,sans-Serif" font-size="10.00" fill="#000000">interpret_int_expr</text>
</a>
</g>
</g>
<!-- Node5&#45;&gt;Node7 -->
<g id="edge6" class="edge">
<title>Node5&#45;&gt;Node7</title>
<path fill="none" stroke="#191970" d="M288.6352,-76.9467C295.3956,-74.1147 302.02,-70.8169 308,-67 327.6103,-54.4832 324.2984,-41.3726 344,-29 347.3145,-26.9185 350.8772,-25.0462 354.5521,-23.3656"/>
<polygon fill="#191970" stroke="#191970" points="355.9061,-26.5933 363.8409,-19.5727 353.2598,-20.1128 355.9061,-26.5933"/>
</g>
<!-- Node7&#45;&gt;Node3 -->
<g id="edge7" class="edge">
<title>Node7&#45;&gt;Node3</title>
<path fill="none" stroke="#191970" d="M439.8109,-19.5132C447.6524,-22.136 455.758,-25.2992 463,-29 488.2373,-41.8968 513.9329,-61.4179 531.9837,-76.4092"/>
<polygon fill="#191970" stroke="#191970" points="529.813,-79.1572 539.7102,-82.9382 534.3311,-73.8105 529.813,-79.1572"/>
</g>
</g>
</svg>
