<?xml version="1.0" encoding="UTF-8" standalone="no"?>
<!DOCTYPE svg PUBLIC "-//W3C//DTD SVG 1.1//EN"
 "http://www.w3.org/Graphics/SVG/1.1/DTD/svg11.dtd">
<!-- Generated by graphviz version 2.40.1 (20161225.0304)
 -->
<!-- Title: mom_pressureforce_blk_afv::pressureforce_blk_afv_nonbouss Pages: 1 -->
<svg width="319pt" height="50pt"
 viewBox="0.00 0.00 319.00 50.00" xmlns="http://www.w3.org/2000/svg" xmlns:xlink="http://www.w3.org/1999/xlink">
<g id="graph0" class="graph" transform="scale(1 1) rotate(0) translate(4 46)">
<title>mom_pressureforce_blk_afv::pressureforce_blk_afv_nonbouss</title>
<polygon fill="#ffffff" stroke="transparent" points="-4,4 -4,-46 315,-46 315,4 -4,4"/>
<!-- Node1 -->
<g id="node1" class="node">
<title>Node1</title>
<g id="a_node1"><a xlink:title="Non&#45;Boussinesq analytically&#45;integrated finite volume form of pressure gradient.">
<polygon fill="#bfbfbf" stroke="#000000" points="182,-.5 182,-41.5 311,-41.5 311,-.5 182,-.5"/>
<text text-anchor="start" x="190" y="-29.5" font-family="Helvetica,sans-Serif" font-size="10.00" fill="#000000">mom_pressureforce_blk</text>
<text text-anchor="start" x="190" y="-18.5" font-family="Helvetica,sans-Serif" font-size="10.00" fill="#000000">_afv::pressureforce_blk</text>
<text text-anchor="middle" x="246.5" y="-7.5" font-family="Helvetica,sans-Serif" font-size="10.00" fill="#000000">_afv_nonbouss</text>
</a>
</g>
</g>
<!-- Node2 -->
<g id="node2" class="node">
<title>Node2</title>
<g id="a_node2"><a xlink:href="namespacemom__pressureforce__blk__afv.html#aca748df88aad5adfb7df53de1760e955" target="_top" xlink:title="Thin interface between the model and the Boussinesq and non&#45;Boussinesq pressure force routines.">
<polygon fill="#ffffff" stroke="#000000" points="0,-6 0,-36 146,-36 146,-6 0,-6"/>
<text text-anchor="start" x="8" y="-24" font-family="Helvetica,sans-Serif" font-size="10.00" fill="#000000">mom_pressureforce_blk</text>
<text text-anchor="middle" x="73" y="-13" font-family="Helvetica,sans-Serif" font-size="10.00" fill="#000000">_afv::pressureforce_blk_afv</text>
</a>
</g>
</g>
<!-- Node1&#45;&gt;Node2 -->
<g id="edge1" class="edge">
<title>Node1&#45;&gt;Node2</title>
<path fill="none" stroke="#191970" d="M171.6645,-21C163.1963,-21 154.5737,-21 146.1278,-21"/>
<polygon fill="#191970" stroke="#191970" points="171.895,-24.5001 181.895,-21 171.895,-17.5001 171.895,-24.5001"/>
</g>
</g>
</svg>
