<?xml version="1.0" encoding="UTF-8" standalone="no"?>
<!DOCTYPE svg PUBLIC "-//W3C//DTD SVG 1.1//EN"
 "http://www.w3.org/Graphics/SVG/1.1/DTD/svg11.dtd">
<!-- Generated by graphviz version 2.40.1 (20161225.0304)
 -->
<!-- Title: mom_ice_shelf_dynamics::update_ice_shelf Pages: 1 -->
<!--zoomable 805 -->
<svg id="main" version="1.1" xmlns="http://www.w3.org/2000/svg" xmlns:xlink="http://www.w3.org/1999/xlink" xml:space="preserve" onload="init(evt)">
<style type="text/css"><![CDATA[
.edge:hover path { stroke: red; }
.edge:hover polygon { stroke: red; fill: red; }
]]></style>
<script type="text/javascript"><![CDATA[
var edges = document.getElementsByTagName('g');
if (edges && edges.length) {
  for (var i=0;i<edges.length;i++) {
    if (edges[i].id.substr(0,4)=='edge') {
      edges[i].setAttribute('class','edge');
    }
  }
}
]]></script>
        <defs>
                <circle id="rim" cx="0" cy="0" r="7"/>
                <circle id="rim2" cx="0" cy="0" r="3.5"/>
                <g id="zoomPlus">
                        <use xlink:href="#rim" fill="#404040">
                                <set attributeName="fill" to="#808080" begin="zoomplus.mouseover" end="zoomplus.mouseout"/>
                        </use>
                        <path d="M-4,0h8M0,-4v8" fill="none" stroke="white" stroke-width="1.5" pointer-events="none"/>
                </g>
                <g id="zoomMin">
                        <use xlink:href="#rim" fill="#404040">
                                <set attributeName="fill" to="#808080" begin="zoomminus.mouseover" end="zoomminus.mouseout"/>
                        </use>
                        <path d="M-4,0h8" fill="none" stroke="white" stroke-width="1.5" pointer-events="none"/>
                </g>
                <g id="dirArrow">
                        <path fill="none" stroke="white" stroke-width="1.5" d="M0,-3.0v7 M-2.5,-0.5L0,-3.0L2.5,-0.5"/>
                </g>
               <g id="resetDef">
                       <use xlink:href="#rim2" fill="#404040">
                               <set attributeName="fill" to="#808080" begin="reset.mouseover" end="reset.mouseout"/>
                       </use>
               </g>
        </defs>

<script type="text/javascript">
var viewWidth = 1018;
var viewHeight = 805;
var sectionId = 'dynsection-41';
</script>
<script xlink:href="svgpan.js"/>
<svg id="graph" class="graph">
<g id="viewport">
<title>mom_ice_shelf_dynamics::update_ice_shelf</title>
<polygon fill="#ffffff" stroke="transparent" points="-4,4 -4,-801.3195 1014,-801.3195 1014,4 -4,4"/>
<!-- Node1 -->
<g id="node1" class="node">
<title>Node1</title>
<g id="a_node1"><a xlink:title="This subroutine updates the ice shelf velocities, mass, stresses and properties due to the ice shelf ...">
<polygon fill="#bfbfbf" stroke="#000000" points="0,-521.8195 0,-551.8195 130,-551.8195 130,-521.8195 0,-521.8195"/>
<text text-anchor="start" x="8" y="-539.8195" font-family="Helvetica,sans-Serif" font-size="10.00" fill="#000000">mom_ice_shelf_dynamics</text>
<text text-anchor="middle" x="65" y="-528.8195" font-family="Helvetica,sans-Serif" font-size="10.00" fill="#000000">::update_ice_shelf</text>
</a>
</g>
</g>
<!-- Node2 -->
<g id="node2" class="node">
<title>Node2</title>
<g id="a_node2"><a xlink:href="namespacemom__diag__mediator.html#a1761df399ba39742e34ab989469da0f2" target="_top" xlink:title="Call this subroutine to avoid averaging any offered fields.">
<polygon fill="#ffffff" stroke="#000000" points="182,-668.8195 182,-698.8195 292,-698.8195 292,-668.8195 182,-668.8195"/>
<text text-anchor="start" x="190" y="-686.8195" font-family="Helvetica,sans-Serif" font-size="10.00" fill="#000000">mom_diag_mediator::</text>
<text text-anchor="middle" x="237" y="-675.8195" font-family="Helvetica,sans-Serif" font-size="10.00" fill="#000000">disable_averaging</text>
</a>
</g>
</g>
<!-- Node1&#45;&gt;Node2 -->
<g id="edge1" class="edge">
<title>Node1&#45;&gt;Node2</title>
<path fill="none" stroke="#191970" d="M73.5468,-551.994C88.8262,-577.7974 123.2634,-630.2902 166,-659.8195 168.1543,-661.3081 170.4087,-662.7109 172.7341,-664.0323"/>
<polygon fill="#191970" stroke="#191970" points="171.493,-667.3275 181.9941,-668.7344 174.6624,-661.086 171.493,-667.3275"/>
</g>
<!-- Node3 -->
<g id="node3" class="node">
<title>Node3</title>
<g id="a_node3"><a xlink:href="namespacemom__diag__mediator.html#a91244f765f2964dfb11f8787f65042f1" target="_top" xlink:title="This subroutine enables the accumulation of time averages over the specified time interval.">
<polygon fill="#ffffff" stroke="#000000" points="182,-619.8195 182,-649.8195 292,-649.8195 292,-619.8195 182,-619.8195"/>
<text text-anchor="start" x="190" y="-637.8195" font-family="Helvetica,sans-Serif" font-size="10.00" fill="#000000">mom_diag_mediator::</text>
<text text-anchor="middle" x="237" y="-626.8195" font-family="Helvetica,sans-Serif" font-size="10.00" fill="#000000">enable_averaging</text>
</a>
</g>
</g>
<!-- Node1&#45;&gt;Node3 -->
<g id="edge2" class="edge">
<title>Node1&#45;&gt;Node3</title>
<path fill="none" stroke="#191970" d="M82.1483,-551.9553C101.4149,-568.3228 134.1722,-594.2842 166,-610.8195 169.4729,-612.6238 173.1099,-614.3354 176.8244,-615.9512"/>
<polygon fill="#191970" stroke="#191970" points="175.5871,-619.2265 186.1681,-619.7685 178.2346,-612.7464 175.5871,-619.2265"/>
</g>
<!-- Node4 -->
<g id="node4" class="node">
<title>Node4</title>
<g id="a_node4"><a xlink:href="namespacemom__ice__shelf__dynamics.html#a00b61e0e4f3a40d2e6d6cb8a5d5b3ada" target="_top" xlink:title="This subroutine takes the velocity (on the Bgrid) and timesteps h_t = &#45; div (uh) once....">
<polygon fill="#ffffff" stroke="#000000" points="172,-521.8195 172,-551.8195 302,-551.8195 302,-521.8195 172,-521.8195"/>
<text text-anchor="start" x="180" y="-539.8195" font-family="Helvetica,sans-Serif" font-size="10.00" fill="#000000">mom_ice_shelf_dynamics</text>
<text text-anchor="middle" x="237" y="-528.8195" font-family="Helvetica,sans-Serif" font-size="10.00" fill="#000000">::ice_shelf_advect</text>
</a>
</g>
</g>
<!-- Node1&#45;&gt;Node4 -->
<g id="edge3" class="edge">
<title>Node1&#45;&gt;Node4</title>
<path fill="none" stroke="#191970" d="M130.0258,-536.8195C140.4071,-536.8195 151.2226,-536.8195 161.8156,-536.8195"/>
<polygon fill="#191970" stroke="#191970" points="161.8823,-540.3196 171.8822,-536.8195 161.8822,-533.3196 161.8823,-540.3196"/>
</g>
<!-- Node14 -->
<g id="node14" class="node">
<title>Node14</title>
<g id="a_node14"><a xlink:href="namespacemom__ice__shelf__dynamics.html#a4401e1ab9adde64c413a355641dc570b" target="_top" xlink:title=" ">
<polygon fill="#ffffff" stroke="#000000" points="172,-265.8195 172,-295.8195 302,-295.8195 302,-265.8195 172,-265.8195"/>
<text text-anchor="start" x="180" y="-283.8195" font-family="Helvetica,sans-Serif" font-size="10.00" fill="#000000">mom_ice_shelf_dynamics</text>
<text text-anchor="middle" x="237" y="-272.8195" font-family="Helvetica,sans-Serif" font-size="10.00" fill="#000000">::ice_shelf_solve_outer</text>
</a>
</g>
</g>
<!-- Node1&#45;&gt;Node14 -->
<g id="edge15" class="edge">
<title>Node1&#45;&gt;Node14</title>
<path fill="none" stroke="#191970" d="M75.2443,-521.5722C104.1034,-478.6192 186.2333,-356.3793 221.0681,-304.5322"/>
<polygon fill="#191970" stroke="#191970" points="224.1376,-306.2394 226.8094,-295.987 218.3273,-302.3355 224.1376,-306.2394"/>
</g>
<!-- Node27 -->
<g id="node27" class="node">
<title>Node27</title>
<g id="a_node27"><a xlink:href="namespacemom__ice__shelf__dynamics.html#aed75a750ef5f5f2ca0d53b3a1d804073" target="_top" xlink:title="This subroutine updates the vertically averaged ice shelf temperature.">
<polygon fill="#ffffff" stroke="#000000" points="172,-570.8195 172,-600.8195 302,-600.8195 302,-570.8195 172,-570.8195"/>
<text text-anchor="start" x="180" y="-588.8195" font-family="Helvetica,sans-Serif" font-size="10.00" fill="#000000">mom_ice_shelf_dynamics</text>
<text text-anchor="middle" x="237" y="-577.8195" font-family="Helvetica,sans-Serif" font-size="10.00" fill="#000000">::ice_shelf_temp</text>
</a>
</g>
</g>
<!-- Node1&#45;&gt;Node27 -->
<g id="edge34" class="edge">
<title>Node1&#45;&gt;Node27</title>
<path fill="none" stroke="#191970" d="M118.0091,-551.921C135.8307,-556.998 155.88,-562.7098 174.3698,-567.9772"/>
<polygon fill="#191970" stroke="#191970" points="173.5896,-571.3941 184.1659,-570.768 175.5075,-564.662 173.5896,-571.3941"/>
</g>
<!-- Node30 -->
<g id="node30" class="node">
<title>Node30</title>
<g id="a_node30"><a xlink:href="namespacemom__ice__shelf__dynamics.html#af4d6d4d402d1660aa068ab12d3a7d745" target="_top" xlink:title=" ">
<polygon fill="#ffffff" stroke="#000000" points="172,-216.8195 172,-246.8195 302,-246.8195 302,-216.8195 172,-216.8195"/>
<text text-anchor="start" x="180" y="-234.8195" font-family="Helvetica,sans-Serif" font-size="10.00" fill="#000000">mom_ice_shelf_dynamics</text>
<text text-anchor="middle" x="237" y="-223.8195" font-family="Helvetica,sans-Serif" font-size="10.00" fill="#000000">::update_od_ffrac</text>
</a>
</g>
</g>
<!-- Node1&#45;&gt;Node30 -->
<g id="edge39" class="edge">
<title>Node1&#45;&gt;Node30</title>
<path fill="none" stroke="#191970" d="M66.0338,-521.6875C70.0043,-475.3686 88.2378,-333.9905 166,-256.8195 167.4609,-255.3697 169.0109,-254.0036 170.6333,-252.7165"/>
<polygon fill="#191970" stroke="#191970" points="172.9213,-255.3961 179.2733,-246.9166 169.0198,-249.5842 172.9213,-255.3961"/>
</g>
<!-- Node31 -->
<g id="node31" class="node">
<title>Node31</title>
<g id="a_node31"><a xlink:href="namespacemom__ice__shelf__dynamics.html#a4f860e8b97ca0400263678b1470c3e20" target="_top" xlink:title=" ">
<polygon fill="#ffffff" stroke="#000000" points="166,-167.8195 166,-197.8195 308,-197.8195 308,-167.8195 166,-167.8195"/>
<text text-anchor="start" x="174" y="-185.8195" font-family="Helvetica,sans-Serif" font-size="10.00" fill="#000000">mom_ice_shelf_dynamics</text>
<text text-anchor="middle" x="237" y="-174.8195" font-family="Helvetica,sans-Serif" font-size="10.00" fill="#000000">::update_od_ffrac_uncoupled</text>
</a>
</g>
</g>
<!-- Node1&#45;&gt;Node31 -->
<g id="edge40" class="edge">
<title>Node1&#45;&gt;Node31</title>
<path fill="none" stroke="#191970" d="M67.8044,-521.5472C78.7972,-463.1797 120.5849,-255.1216 166,-207.8195 167.3915,-206.3702 168.872,-205.0047 170.4258,-203.7184"/>
<polygon fill="#191970" stroke="#191970" points="172.5337,-206.5154 178.7322,-197.9229 168.5283,-200.7746 172.5337,-206.5154"/>
</g>
<!-- Node5 -->
<g id="node5" class="node">
<title>Node5</title>
<g id="a_node5"><a xlink:href="namespacemom__ice__shelf__dynamics.html#a5c1d3896958689e3bd2086b539d2b3bc" target="_top" xlink:title=" ">
<polygon fill="#ffffff" stroke="#000000" points="358,-570.8195 358,-600.8195 488,-600.8195 488,-570.8195 358,-570.8195"/>
<text text-anchor="start" x="366" y="-588.8195" font-family="Helvetica,sans-Serif" font-size="10.00" fill="#000000">mom_ice_shelf_dynamics</text>
<text text-anchor="middle" x="423" y="-577.8195" font-family="Helvetica,sans-Serif" font-size="10.00" fill="#000000">::calve_to_mask</text>
</a>
</g>
</g>
<!-- Node4&#45;&gt;Node5 -->
<g id="edge4" class="edge">
<title>Node4&#45;&gt;Node5</title>
<path fill="none" stroke="#191970" d="M294.0702,-551.8542C313.7092,-557.0279 335.8742,-562.8671 356.2168,-568.2261"/>
<polygon fill="#191970" stroke="#191970" points="355.476,-571.6503 366.0377,-570.8134 357.2593,-564.8813 355.476,-571.6503"/>
</g>
<!-- Node6 -->
<g id="node6" class="node">
<title>Node6</title>
<g id="a_node6"><a xlink:href="namespacemom__ice__shelf__dynamics.html#a6dd0f5659b10ce490b8074fa7b1e7ef1" target="_top" xlink:title=" ">
<polygon fill="#ffffff" stroke="#000000" points="346,-472.8195 346,-502.8195 500,-502.8195 500,-472.8195 346,-472.8195"/>
<text text-anchor="start" x="354" y="-490.8195" font-family="Helvetica,sans-Serif" font-size="10.00" fill="#000000">mom_ice_shelf_dynamics</text>
<text text-anchor="middle" x="423" y="-479.8195" font-family="Helvetica,sans-Serif" font-size="10.00" fill="#000000">::ice_shelf_advect_thickness_x</text>
</a>
</g>
</g>
<!-- Node4&#45;&gt;Node6 -->
<g id="edge5" class="edge">
<title>Node4&#45;&gt;Node6</title>
<path fill="none" stroke="#191970" d="M294.0702,-521.7849C313.7092,-516.6112 335.8742,-510.772 356.2168,-505.413"/>
<polygon fill="#191970" stroke="#191970" points="357.2593,-508.7578 366.0377,-502.8257 355.476,-501.9888 357.2593,-508.7578"/>
</g>
<!-- Node8 -->
<g id="node8" class="node">
<title>Node8</title>
<g id="a_node8"><a xlink:href="namespacemom__ice__shelf__dynamics.html#a6deb62e779d364f4031c4dc514606042" target="_top" xlink:title=" ">
<polygon fill="#ffffff" stroke="#000000" points="346,-668.8195 346,-698.8195 500,-698.8195 500,-668.8195 346,-668.8195"/>
<text text-anchor="start" x="354" y="-686.8195" font-family="Helvetica,sans-Serif" font-size="10.00" fill="#000000">mom_ice_shelf_dynamics</text>
<text text-anchor="middle" x="423" y="-675.8195" font-family="Helvetica,sans-Serif" font-size="10.00" fill="#000000">::ice_shelf_advect_thickness_y</text>
</a>
</g>
</g>
<!-- Node4&#45;&gt;Node8 -->
<g id="edge7" class="edge">
<title>Node4&#45;&gt;Node8</title>
<path fill="none" stroke="#191970" d="M294.703,-551.9405C299.5567,-554.7019 304.0929,-557.9647 308,-561.8195 341.0313,-594.4082 310.2659,-627.9589 344,-659.8195 345.1398,-660.896 346.3264,-661.9244 347.5538,-662.9067"/>
<polygon fill="#191970" stroke="#191970" points="345.9373,-666.0389 356.1809,-668.7445 349.8604,-660.2414 345.9373,-666.0389"/>
</g>
<!-- Node9 -->
<g id="node9" class="node">
<title>Node9</title>
<g id="a_node9"><a xlink:href="namespacemom__ice__shelf__dynamics.html#a71ba9a76c9d137d14964cebc7c835b5a" target="_top" xlink:title="Apply a very simple calving law using a minimum thickness rule.">
<polygon fill="#ffffff" stroke="#000000" points="344,-521.8195 344,-551.8195 502,-551.8195 502,-521.8195 344,-521.8195"/>
<text text-anchor="start" x="352" y="-539.8195" font-family="Helvetica,sans-Serif" font-size="10.00" fill="#000000">mom_ice_shelf_dynamics</text>
<text text-anchor="middle" x="423" y="-528.8195" font-family="Helvetica,sans-Serif" font-size="10.00" fill="#000000">::ice_shelf_min_thickness_calve</text>
</a>
</g>
</g>
<!-- Node4&#45;&gt;Node9 -->
<g id="edge9" class="edge">
<title>Node4&#45;&gt;Node9</title>
<path fill="none" stroke="#191970" d="M302.0538,-536.8195C312.2949,-536.8195 323.0344,-536.8195 333.7086,-536.8195"/>
<polygon fill="#191970" stroke="#191970" points="333.9044,-540.3196 343.9043,-536.8195 333.9043,-533.3196 333.9044,-540.3196"/>
</g>
<!-- Node10 -->
<g id="node10" class="node">
<title>Node10</title>
<g id="a_node10"><a xlink:href="namespacemom__ice__shelf__dynamics.html#aa83d53e0d36750d4ed2c7a9f0b6d491d" target="_top" xlink:title=" ">
<polygon fill="#ffffff" stroke="#000000" points="358,-423.8195 358,-453.8195 488,-453.8195 488,-423.8195 358,-423.8195"/>
<text text-anchor="start" x="366" y="-441.8195" font-family="Helvetica,sans-Serif" font-size="10.00" fill="#000000">mom_ice_shelf_dynamics</text>
<text text-anchor="middle" x="423" y="-430.8195" font-family="Helvetica,sans-Serif" font-size="10.00" fill="#000000">::shelf_advance_front</text>
</a>
</g>
</g>
<!-- Node4&#45;&gt;Node10 -->
<g id="edge10" class="edge">
<title>Node4&#45;&gt;Node10</title>
<path fill="none" stroke="#191970" d="M255.6743,-521.5607C276.2485,-505.3706 310.8332,-479.9473 344,-463.8195 348.6513,-461.5578 353.5544,-459.4382 358.5467,-457.4655"/>
<polygon fill="#191970" stroke="#191970" points="360.0715,-460.6322 368.2145,-453.8541 357.622,-454.0748 360.0715,-460.6322"/>
</g>
<!-- Node13 -->
<g id="node13" class="node">
<title>Node13</title>
<g id="a_node13"><a xlink:href="namespacemom__ice__shelf__dynamics.html#a4f87da4ad4dafef238d6f55a4c0d9d8d" target="_top" xlink:title=" ">
<polygon fill="#ffffff" stroke="#000000" points="358,-619.8195 358,-649.8195 488,-649.8195 488,-619.8195 358,-619.8195"/>
<text text-anchor="start" x="366" y="-637.8195" font-family="Helvetica,sans-Serif" font-size="10.00" fill="#000000">mom_ice_shelf_dynamics</text>
<text text-anchor="middle" x="423" y="-626.8195" font-family="Helvetica,sans-Serif" font-size="10.00" fill="#000000">::update_velocity_masks</text>
</a>
</g>
</g>
<!-- Node4&#45;&gt;Node13 -->
<g id="edge14" class="edge">
<title>Node4&#45;&gt;Node13</title>
<path fill="none" stroke="#191970" d="M291.1018,-551.9432C297.0795,-554.7372 302.8557,-558.0065 308,-561.8195 329.71,-577.9114 321.9443,-595.2049 344,-610.8195 346.0985,-612.3052 348.2908,-613.7005 350.5535,-615.0109"/>
<polygon fill="#191970" stroke="#191970" points="349.0864,-618.1921 359.5797,-619.6548 352.2889,-611.9676 349.0864,-618.1921"/>
</g>
<!-- Node7 -->
<g id="node7" class="node">
<title>Node7</title>
<g id="a_node7"><a xlink:href="namespacemom__ice__shelf__dynamics.html#a0e3d8eb91b7cbea4bb6b5063f5b1aada" target="_top" xlink:title="used for flux limiting in advective subroutines Van Leer limiter (source: Wikipedia)">
<polygon fill="#ffffff" stroke="#000000" points="538,-692.8195 538,-722.8195 668,-722.8195 668,-692.8195 538,-692.8195"/>
<text text-anchor="start" x="546" y="-710.8195" font-family="Helvetica,sans-Serif" font-size="10.00" fill="#000000">mom_ice_shelf_dynamics</text>
<text text-anchor="middle" x="603" y="-699.8195" font-family="Helvetica,sans-Serif" font-size="10.00" fill="#000000">::slope_limiter</text>
</a>
</g>
</g>
<!-- Node6&#45;&gt;Node7 -->
<g id="edge6" class="edge">
<title>Node6&#45;&gt;Node7</title>
<path fill="none" stroke="#191970" d="M486.6283,-502.8648C492.1456,-505.6415 497.3776,-508.9286 502,-512.8195 556.4692,-558.6693 585.2158,-641.3916 596.7831,-682.7938"/>
<polygon fill="#191970" stroke="#191970" points="593.4464,-683.864 599.419,-692.6149 600.2072,-682.0494 593.4464,-683.864"/>
</g>
<!-- Node8&#45;&gt;Node7 -->
<g id="edge8" class="edge">
<title>Node8&#45;&gt;Node7</title>
<path fill="none" stroke="#191970" d="M500.1195,-694.1021C509.2709,-695.3223 518.6037,-696.5667 527.7288,-697.7834"/>
<polygon fill="#191970" stroke="#191970" points="527.5476,-701.2901 537.9224,-699.1425 528.4728,-694.3515 527.5476,-701.2901"/>
</g>
<!-- Node11 -->
<g id="node11" class="node">
<title>Node11</title>
<g id="a_node11"><a xlink:href="namespacemom__error__handler.html#ad5f00a53059c72fe2332d1436c80ca71" target="_top" xlink:title="This returns .true. if the current PE is the root PE.">
<polygon fill="#ffffff" stroke="#000000" points="721,-407.8195 721,-437.8195 827,-437.8195 827,-407.8195 721,-407.8195"/>
<text text-anchor="start" x="729" y="-425.8195" font-family="Helvetica,sans-Serif" font-size="10.00" fill="#000000">mom_error_handler::</text>
<text text-anchor="middle" x="774" y="-414.8195" font-family="Helvetica,sans-Serif" font-size="10.00" fill="#000000">is_root_pe</text>
</a>
</g>
</g>
<!-- Node10&#45;&gt;Node11 -->
<g id="edge11" class="edge">
<title>Node10&#45;&gt;Node11</title>
<path fill="none" stroke="#191970" d="M488.1978,-435.8476C551.7682,-432.9498 647.8094,-428.5718 710.7175,-425.7042"/>
<polygon fill="#191970" stroke="#191970" points="711.0742,-429.1917 720.9044,-425.2399 710.7553,-422.1989 711.0742,-429.1917"/>
</g>
<!-- Node12 -->
<g id="node12" class="node">
<title>Node12</title>
<g id="a_node12"><a xlink:href="namespacemom__error__handler.html#a1c462df7b61f1296407b4af51dfeceab" target="_top" xlink:title="This provides a convenient interface for writing an informative comment.">
<polygon fill="#ffffff" stroke="#000000" points="550,-385.8195 550,-415.8195 656,-415.8195 656,-385.8195 550,-385.8195"/>
<text text-anchor="start" x="558" y="-403.8195" font-family="Helvetica,sans-Serif" font-size="10.00" fill="#000000">mom_error_handler::</text>
<text text-anchor="middle" x="603" y="-392.8195" font-family="Helvetica,sans-Serif" font-size="10.00" fill="#000000">mom_mesg</text>
</a>
</g>
</g>
<!-- Node10&#45;&gt;Node12 -->
<g id="edge12" class="edge">
<title>Node10&#45;&gt;Node12</title>
<path fill="none" stroke="#191970" d="M488.2386,-425.0469C504.9857,-421.5115 522.9731,-417.7141 539.6243,-414.1989"/>
<polygon fill="#191970" stroke="#191970" points="540.735,-417.5416 549.7963,-412.0514 539.289,-410.6926 540.735,-417.5416"/>
</g>
<!-- Node12&#45;&gt;Node11 -->
<g id="edge13" class="edge">
<title>Node12&#45;&gt;Node11</title>
<path fill="none" stroke="#191970" d="M656.1681,-407.6599C673.4595,-409.8845 692.8199,-412.3753 710.7721,-414.685"/>
<polygon fill="#191970" stroke="#191970" points="710.4999,-418.1787 720.8648,-415.9834 711.3932,-411.2359 710.4999,-418.1787"/>
</g>
<!-- Node14&#45;&gt;Node12 -->
<g id="edge33" class="edge">
<title>Node14&#45;&gt;Node12</title>
<path fill="none" stroke="#191970" d="M249.6978,-296.0264C268.0943,-316.8778 304.3274,-353.703 344,-370.8195 406.7666,-397.8999 485.6104,-403.4701 539.7208,-403.4845"/>
<polygon fill="#191970" stroke="#191970" points="539.8854,-406.9836 549.8637,-403.4223 539.8424,-399.9838 539.8854,-406.9836"/>
</g>
<!-- Node15 -->
<g id="node15" class="node">
<title>Node15</title>
<g id="a_node15"><a xlink:href="namespacemom__ice__shelf__dynamics.html#a80832e49ec6ba0f5061a95dfad0275b8" target="_top" xlink:title=" ">
<polygon fill="#ffffff" stroke="#000000" points="538,-102.8195 538,-132.8195 668,-132.8195 668,-102.8195 538,-102.8195"/>
<text text-anchor="start" x="546" y="-120.8195" font-family="Helvetica,sans-Serif" font-size="10.00" fill="#000000">mom_ice_shelf_dynamics</text>
<text text-anchor="middle" x="603" y="-109.8195" font-family="Helvetica,sans-Serif" font-size="10.00" fill="#000000">::apply_boundary_values</text>
</a>
</g>
</g>
<!-- Node14&#45;&gt;Node15 -->
<g id="edge16" class="edge">
<title>Node14&#45;&gt;Node15</title>
<path fill="none" stroke="#191970" d="M297.0213,-265.6211C301.0404,-263.1211 304.7677,-260.2097 308,-256.8195 348.1893,-214.6672 298.3975,-167.0467 344,-130.8195 396.7929,-88.8803 476.4531,-91.5606 533.4795,-101.0085"/>
<polygon fill="#191970" stroke="#191970" points="533.0399,-104.4849 543.4959,-102.7753 534.2559,-97.5913 533.0399,-104.4849"/>
</g>
<!-- Node16 -->
<g id="node16" class="node">
<title>Node16</title>
<g id="a_node16"><a xlink:href="namespacemom__ice__shelf__dynamics.html#a257855320072cd237f07d325331e4ecf" target="_top" xlink:title="This subroutine calculates the gradients of bilinear basis elements that that are centered at the ver...">
<polygon fill="#ffffff" stroke="#000000" points="709,-102.8195 709,-132.8195 839,-132.8195 839,-102.8195 709,-102.8195"/>
<text text-anchor="start" x="717" y="-120.8195" font-family="Helvetica,sans-Serif" font-size="10.00" fill="#000000">mom_ice_shelf_dynamics</text>
<text text-anchor="middle" x="774" y="-109.8195" font-family="Helvetica,sans-Serif" font-size="10.00" fill="#000000">::bilinear_shape_functions</text>
</a>
</g>
</g>
<!-- Node14&#45;&gt;Node16 -->
<g id="edge20" class="edge">
<title>Node14&#45;&gt;Node16</title>
<path fill="none" stroke="#191970" d="M257.8511,-295.941C278.539,-309.9378 311.7355,-329.7617 344,-337.8195 412.1297,-354.8344 435.7988,-361.241 502,-337.8195 614.8897,-297.8801 715.2298,-188.9668 755.39,-141.0123"/>
<polygon fill="#191970" stroke="#191970" points="758.2885,-142.9993 761.9626,-133.0619 752.8934,-138.5391 758.2885,-142.9993"/>
</g>
<!-- Node19 -->
<g id="node19" class="node">
<title>Node19</title>
<g id="a_node19"><a xlink:href="namespacemom__ice__shelf__dynamics.html#ad57b8fb98fdef287509cea5d1ef25c2e" target="_top" xlink:title=" ">
<polygon fill="#ffffff" stroke="#000000" points="358,-287.3195 358,-328.3195 488,-328.3195 488,-287.3195 358,-287.3195"/>
<text text-anchor="start" x="366" y="-316.3195" font-family="Helvetica,sans-Serif" font-size="10.00" fill="#000000">mom_ice_shelf_dynamics</text>
<text text-anchor="start" x="366" y="-305.3195" font-family="Helvetica,sans-Serif" font-size="10.00" fill="#000000">::bilinear_shape_functions</text>
<text text-anchor="middle" x="423" y="-294.3195" font-family="Helvetica,sans-Serif" font-size="10.00" fill="#000000">_subgrid</text>
</a>
</g>
</g>
<!-- Node14&#45;&gt;Node19 -->
<g id="edge21" class="edge">
<title>Node14&#45;&gt;Node19</title>
<path fill="none" stroke="#191970" d="M302.0538,-290.2628C316.9207,-292.4209 332.8379,-294.7315 348.0811,-296.9442"/>
<polygon fill="#191970" stroke="#191970" points="347.5839,-300.4086 357.983,-298.3816 348.5895,-293.4812 347.5839,-300.4086"/>
</g>
<!-- Node20 -->
<g id="node20" class="node">
<title>Node20</title>
<g id="a_node20"><a xlink:href="namespacemom__ice__shelf__dynamics.html#ae9c409260aebab7242cf508c396c89b8" target="_top" xlink:title=" ">
<polygon fill="#ffffff" stroke="#000000" points="356.5,-237.8195 356.5,-267.8195 489.5,-267.8195 489.5,-237.8195 356.5,-237.8195"/>
<text text-anchor="start" x="364.5" y="-255.8195" font-family="Helvetica,sans-Serif" font-size="10.00" fill="#000000">mom_ice_shelf_dynamics</text>
<text text-anchor="middle" x="423" y="-244.8195" font-family="Helvetica,sans-Serif" font-size="10.00" fill="#000000">::calc_shelf_driving_stress</text>
</a>
</g>
</g>
<!-- Node14&#45;&gt;Node20 -->
<g id="edge22" class="edge">
<title>Node14&#45;&gt;Node20</title>
<path fill="none" stroke="#191970" d="M302.0538,-271.0265C316.3535,-268.8739 331.625,-266.5749 346.3337,-264.3607"/>
<polygon fill="#191970" stroke="#191970" points="347.0404,-267.7939 356.4079,-262.8442 345.9983,-260.8718 347.0404,-267.7939"/>
</g>
<!-- Node21 -->
<g id="node21" class="node">
<title>Node21</title>
<g id="a_node21"><a xlink:href="namespacemom__ice__shelf__dynamics.html#ad6231edc6ae3c63008992a4cb0baec33" target="_top" xlink:title="Update depth integrated viscosity, based on horizontal strain rates, and also update the nonlinear pa...">
<polygon fill="#ffffff" stroke="#000000" points="358,-188.8195 358,-218.8195 488,-218.8195 488,-188.8195 358,-188.8195"/>
<text text-anchor="start" x="366" y="-206.8195" font-family="Helvetica,sans-Serif" font-size="10.00" fill="#000000">mom_ice_shelf_dynamics</text>
<text text-anchor="middle" x="423" y="-195.8195" font-family="Helvetica,sans-Serif" font-size="10.00" fill="#000000">::calc_shelf_visc</text>
</a>
</g>
</g>
<!-- Node14&#45;&gt;Node21 -->
<g id="edge23" class="edge">
<title>Node14&#45;&gt;Node21</title>
<path fill="none" stroke="#191970" d="M288.2974,-265.7897C295.0757,-263.1401 301.8121,-260.148 308,-256.8195 325.8511,-247.2174 326.0562,-238.2473 344,-228.8195 348.2344,-226.5948 352.7015,-224.5262 357.2694,-222.6108"/>
<polygon fill="#191970" stroke="#191970" points="358.7143,-225.8037 366.7452,-218.8932 356.1577,-219.2873 358.7143,-225.8037"/>
</g>
<!-- Node22 -->
<g id="node22" class="node">
<title>Node22</title>
<g id="a_node22"><a xlink:href="namespacemom__ice__shelf__dynamics.html#ad0df9a4e6af446d7fab86850cc5d464e" target="_top" xlink:title=" ">
<polygon fill="#ffffff" stroke="#000000" points="538,-4.8195 538,-34.8195 668,-34.8195 668,-4.8195 538,-4.8195"/>
<text text-anchor="start" x="546" y="-22.8195" font-family="Helvetica,sans-Serif" font-size="10.00" fill="#000000">mom_ice_shelf_dynamics</text>
<text text-anchor="middle" x="603" y="-11.8195" font-family="Helvetica,sans-Serif" font-size="10.00" fill="#000000">::cg_action</text>
</a>
</g>
</g>
<!-- Node14&#45;&gt;Node22 -->
<g id="edge24" class="edge">
<title>Node14&#45;&gt;Node22</title>
<path fill="none" stroke="#191970" d="M297.7805,-265.7949C301.5753,-263.2547 305.0476,-260.2869 308,-256.8195 370.8122,-183.0531 272.7683,-107.4923 344,-41.8195 392.5132,2.9077 470.1037,3.7181 527.728,-3.8118"/>
<polygon fill="#191970" stroke="#191970" points="527.4888,-7.3128 537.881,-5.2506 528.4711,-.382 527.4888,-7.3128"/>
</g>
<!-- Node23 -->
<g id="node23" class="node">
<title>Node23</title>
<g id="a_node23"><a xlink:href="namespacemom__ice__shelf__dynamics.html#ad90fe54af0b51e4b6e6adf069c7155ec" target="_top" xlink:title=" ">
<polygon fill="#ffffff" stroke="#000000" points="358,-51.8195 358,-81.8195 488,-81.8195 488,-51.8195 358,-51.8195"/>
<text text-anchor="start" x="366" y="-69.8195" font-family="Helvetica,sans-Serif" font-size="10.00" fill="#000000">mom_ice_shelf_dynamics</text>
<text text-anchor="middle" x="423" y="-58.8195" font-family="Helvetica,sans-Serif" font-size="10.00" fill="#000000">::ice_shelf_solve_inner</text>
</a>
</g>
</g>
<!-- Node14&#45;&gt;Node23 -->
<g id="edge26" class="edge">
<title>Node14&#45;&gt;Node23</title>
<path fill="none" stroke="#191970" d="M297.5683,-265.609C301.4114,-263.1112 304.9526,-260.2038 308,-256.8195 356.7739,-202.6541 296.2352,-151.8769 344,-96.8195 347.0569,-93.2959 350.5733,-90.1847 354.3877,-87.4379"/>
<polygon fill="#191970" stroke="#191970" points="356.5079,-90.2411 363.1517,-81.9882 352.8114,-84.2966 356.5079,-90.2411"/>
</g>
<!-- Node26 -->
<g id="node26" class="node">
<title>Node26</title>
<g id="a_node26"><a xlink:href="namespacemom__ice__shelf__dynamics.html#a92ddf971169ef3b1e28c6dde0f3a66f2" target="_top" xlink:title="Interpolate the ice shelf thickness from tracer point to nodal points, subject to a mask.">
<polygon fill="#ffffff" stroke="#000000" points="358,-139.8195 358,-169.8195 488,-169.8195 488,-139.8195 358,-139.8195"/>
<text text-anchor="start" x="366" y="-157.8195" font-family="Helvetica,sans-Serif" font-size="10.00" fill="#000000">mom_ice_shelf_dynamics</text>
<text text-anchor="middle" x="423" y="-146.8195" font-family="Helvetica,sans-Serif" font-size="10.00" fill="#000000">::interpolate_h_to_b</text>
</a>
</g>
</g>
<!-- Node14&#45;&gt;Node26 -->
<g id="edge32" class="edge">
<title>Node14&#45;&gt;Node26</title>
<path fill="none" stroke="#191970" d="M295.0562,-265.8046C299.7202,-263.2606 304.1207,-260.2892 308,-256.8195 336.1582,-231.6347 315.5977,-204.7288 344,-179.8195 345.94,-178.1181 347.996,-176.5324 350.1423,-175.0545"/>
<polygon fill="#191970" stroke="#191970" points="352.0251,-178.0067 358.8131,-169.872 348.4338,-171.9981 352.0251,-178.0067"/>
</g>
<!-- Node15&#45;&gt;Node16 -->
<g id="edge17" class="edge">
<title>Node15&#45;&gt;Node16</title>
<path fill="none" stroke="#191970" d="M668.1356,-117.8195C678.1167,-117.8195 688.4909,-117.8195 698.67,-117.8195"/>
<polygon fill="#191970" stroke="#191970" points="698.7624,-121.3196 708.7624,-117.8195 698.7624,-114.3196 698.7624,-121.3196"/>
</g>
<!-- Node18 -->
<g id="node18" class="node">
<title>Node18</title>
<g id="a_node18"><a xlink:href="namespacemom__ice__shelf__dynamics.html#a34bac8fd815ba44183f74a75ea3067bb" target="_top" xlink:title=" ">
<polygon fill="#ffffff" stroke="#000000" points="709,-4.8195 709,-34.8195 839,-34.8195 839,-4.8195 709,-4.8195"/>
<text text-anchor="start" x="717" y="-22.8195" font-family="Helvetica,sans-Serif" font-size="10.00" fill="#000000">mom_ice_shelf_dynamics</text>
<text text-anchor="middle" x="774" y="-11.8195" font-family="Helvetica,sans-Serif" font-size="10.00" fill="#000000">::cg_action_subgrid_basal</text>
</a>
</g>
</g>
<!-- Node15&#45;&gt;Node18 -->
<g id="edge19" class="edge">
<title>Node15&#45;&gt;Node18</title>
<path fill="none" stroke="#191970" d="M653.2335,-102.7932C658.4613,-100.2171 663.4999,-97.2422 668,-93.8195 689.7952,-77.2425 682.0123,-60.1403 704,-43.8195 706.0309,-42.312 708.1635,-40.8944 710.3701,-39.5619"/>
<polygon fill="#191970" stroke="#191970" points="712.0301,-42.6432 719.1892,-34.8331 708.7222,-36.4741 712.0301,-42.6432"/>
</g>
<!-- Node17 -->
<g id="node17" class="node">
<title>Node17</title>
<g id="a_node17"><a xlink:href="namespacemom__ice__shelf__dynamics.html#a44ac16282b7667409d32e7eb3e667822" target="_top" xlink:title="Calculate area of quadrilateral.">
<polygon fill="#ffffff" stroke="#000000" points="880,-102.8195 880,-132.8195 1010,-132.8195 1010,-102.8195 880,-102.8195"/>
<text text-anchor="start" x="888" y="-120.8195" font-family="Helvetica,sans-Serif" font-size="10.00" fill="#000000">mom_ice_shelf_dynamics</text>
<text text-anchor="middle" x="945" y="-109.8195" font-family="Helvetica,sans-Serif" font-size="10.00" fill="#000000">::quad_area</text>
</a>
</g>
</g>
<!-- Node16&#45;&gt;Node17 -->
<g id="edge18" class="edge">
<title>Node16&#45;&gt;Node17</title>
<path fill="none" stroke="#191970" d="M839.1356,-117.8195C849.1167,-117.8195 859.4909,-117.8195 869.67,-117.8195"/>
<polygon fill="#191970" stroke="#191970" points="869.7624,-121.3196 879.7624,-117.8195 869.7624,-114.3196 869.7624,-121.3196"/>
</g>
<!-- Node22&#45;&gt;Node18 -->
<g id="edge25" class="edge">
<title>Node22&#45;&gt;Node18</title>
<path fill="none" stroke="#191970" d="M668.1356,-19.8195C678.1167,-19.8195 688.4909,-19.8195 698.67,-19.8195"/>
<polygon fill="#191970" stroke="#191970" points="698.7624,-23.3196 708.7624,-19.8195 698.7624,-16.3196 698.7624,-23.3196"/>
</g>
<!-- Node23&#45;&gt;Node15 -->
<g id="edge27" class="edge">
<title>Node23&#45;&gt;Node15</title>
<path fill="none" stroke="#191970" d="M476.0324,-81.8454C496.1753,-87.5526 519.3085,-94.1069 540.264,-100.0444"/>
<polygon fill="#191970" stroke="#191970" points="539.4605,-103.4544 550.0359,-102.813 541.3688,-96.7195 539.4605,-103.4544"/>
</g>
<!-- Node23&#45;&gt;Node22 -->
<g id="edge28" class="edge">
<title>Node23&#45;&gt;Node22</title>
<path fill="none" stroke="#191970" d="M480.448,-51.8192C497.9839,-47.2404 517.4252,-42.1641 535.5602,-37.4288"/>
<polygon fill="#191970" stroke="#191970" points="536.689,-40.7515 545.4804,-34.8386 534.9205,-33.9786 536.689,-40.7515"/>
</g>
<!-- Node24 -->
<g id="node24" class="node">
<title>Node24</title>
<g id="a_node24"><a xlink:href="namespacemom__ice__shelf__dynamics.html#af47f38c9ad80827fa68290fde53cbd7e" target="_top" xlink:title="returns the diagonal entries of the matrix for a Jacobi preconditioning">
<polygon fill="#ffffff" stroke="#000000" points="538,-53.8195 538,-83.8195 668,-83.8195 668,-53.8195 538,-53.8195"/>
<text text-anchor="start" x="546" y="-71.8195" font-family="Helvetica,sans-Serif" font-size="10.00" fill="#000000">mom_ice_shelf_dynamics</text>
<text text-anchor="middle" x="603" y="-60.8195" font-family="Helvetica,sans-Serif" font-size="10.00" fill="#000000">::matrix_diagonal</text>
</a>
</g>
</g>
<!-- Node23&#45;&gt;Node24 -->
<g id="edge29" class="edge">
<title>Node23&#45;&gt;Node24</title>
<path fill="none" stroke="#191970" d="M488.2386,-67.5444C501.0202,-67.6864 514.5242,-67.8365 527.6053,-67.9818"/>
<polygon fill="#191970" stroke="#191970" points="527.9453,-71.4857 537.9836,-68.0971 528.0231,-64.4862 527.9453,-71.4857"/>
</g>
<!-- Node24&#45;&gt;Node16 -->
<g id="edge30" class="edge">
<title>Node24&#45;&gt;Node16</title>
<path fill="none" stroke="#191970" d="M655.7009,-83.921C673.4189,-88.998 693.3517,-94.7098 711.734,-99.9772"/>
<polygon fill="#191970" stroke="#191970" points="710.8958,-103.3779 721.4731,-102.768 712.8241,-96.6487 710.8958,-103.3779"/>
</g>
<!-- Node25 -->
<g id="node25" class="node">
<title>Node25</title>
<g id="a_node25"><a xlink:href="namespacemom__ice__shelf__dynamics.html#afd4f2ba56c579a806aaa7e55a4caf392" target="_top" xlink:title=" ">
<polygon fill="#ffffff" stroke="#000000" points="704,-53.8195 704,-83.8195 844,-83.8195 844,-53.8195 704,-53.8195"/>
<text text-anchor="start" x="712" y="-71.8195" font-family="Helvetica,sans-Serif" font-size="10.00" fill="#000000">mom_ice_shelf_dynamics</text>
<text text-anchor="middle" x="774" y="-60.8195" font-family="Helvetica,sans-Serif" font-size="10.00" fill="#000000">::cg_diagonal_subgrid_basal</text>
</a>
</g>
</g>
<!-- Node24&#45;&gt;Node25 -->
<g id="edge31" class="edge">
<title>Node24&#45;&gt;Node25</title>
<path fill="none" stroke="#191970" d="M668.1356,-68.8195C676.5475,-68.8195 685.2387,-68.8195 693.8571,-68.8195"/>
<polygon fill="#191970" stroke="#191970" points="693.9197,-72.3196 703.9197,-68.8195 693.9196,-65.3196 693.9197,-72.3196"/>
</g>
<!-- Node28 -->
<g id="node28" class="node">
<title>Node28</title>
<g id="a_node28"><a xlink:href="namespacemom__ice__shelf__dynamics.html#a35d04c53a336a68833557924e6f90e3a" target="_top" xlink:title=" ">
<polygon fill="#ffffff" stroke="#000000" points="356,-766.8195 356,-796.8195 490,-796.8195 490,-766.8195 356,-766.8195"/>
<text text-anchor="start" x="364" y="-784.8195" font-family="Helvetica,sans-Serif" font-size="10.00" fill="#000000">mom_ice_shelf_dynamics</text>
<text text-anchor="middle" x="423" y="-773.8195" font-family="Helvetica,sans-Serif" font-size="10.00" fill="#000000">::ice_shelf_advect_temp_x</text>
</a>
</g>
</g>
<!-- Node27&#45;&gt;Node28 -->
<g id="edge35" class="edge">
<title>Node27&#45;&gt;Node28</title>
<path fill="none" stroke="#191970" d="M295.845,-600.9064C300.3434,-603.6726 304.49,-606.946 308,-610.8195 353.1665,-660.6636 297.7573,-708.9723 344,-757.8195 345.0778,-758.9581 346.2078,-760.0432 347.3834,-761.0772"/>
<polygon fill="#191970" stroke="#191970" points="345.6,-764.1091 355.7376,-767.1883 349.7329,-758.4594 345.6,-764.1091"/>
</g>
<!-- Node29 -->
<g id="node29" class="node">
<title>Node29</title>
<g id="a_node29"><a xlink:href="namespacemom__ice__shelf__dynamics.html#a210fb4837553eca5fc60c86367bbad26" target="_top" xlink:title=" ">
<polygon fill="#ffffff" stroke="#000000" points="356,-717.8195 356,-747.8195 490,-747.8195 490,-717.8195 356,-717.8195"/>
<text text-anchor="start" x="364" y="-735.8195" font-family="Helvetica,sans-Serif" font-size="10.00" fill="#000000">mom_ice_shelf_dynamics</text>
<text text-anchor="middle" x="423" y="-724.8195" font-family="Helvetica,sans-Serif" font-size="10.00" fill="#000000">::ice_shelf_advect_temp_y</text>
</a>
</g>
</g>
<!-- Node27&#45;&gt;Node29 -->
<g id="edge37" class="edge">
<title>Node27&#45;&gt;Node29</title>
<path fill="none" stroke="#191970" d="M294.703,-600.9405C299.5567,-603.7019 304.0929,-606.9647 308,-610.8195 341.0313,-643.4082 310.2659,-676.9589 344,-708.8195 345.1398,-709.896 346.3264,-710.9244 347.5538,-711.9067"/>
<polygon fill="#191970" stroke="#191970" points="345.9373,-715.0389 356.1809,-717.7445 349.8604,-709.2414 345.9373,-715.0389"/>
</g>
<!-- Node28&#45;&gt;Node7 -->
<g id="edge36" class="edge">
<title>Node28&#45;&gt;Node7</title>
<path fill="none" stroke="#191970" d="M476.9548,-766.7288C485.4172,-763.9898 494.0044,-760.9881 502,-757.8195 524.0405,-749.085 547.8442,-737.4171 566.804,-727.5496"/>
<polygon fill="#191970" stroke="#191970" points="568.4745,-730.6257 575.6935,-722.8709 565.2142,-724.4312 568.4745,-730.6257"/>
</g>
<!-- Node29&#45;&gt;Node7 -->
<g id="edge38" class="edge">
<title>Node29&#45;&gt;Node7</title>
<path fill="none" stroke="#191970" d="M490.0254,-723.5105C502.3291,-721.8016 515.2468,-720.0075 527.772,-718.2679"/>
<polygon fill="#191970" stroke="#191970" points="528.2902,-721.7296 537.7136,-716.8871 527.3272,-714.7961 528.2902,-721.7296"/>
</g>
</g>
</svg>
        <g id="navigator" transform="translate(0 0)" fill="#404254">
                <rect fill="#f2f5e9" fill-opacity="0.5" stroke="#606060" stroke-width=".5" x="0" y="0" width="60" height="60"/>
                <use id="zoomplus" xlink:href="#zoomPlus" x="17" y="9" onmousedown="handleZoom(evt,'in')"/>
                <use id="zoomminus" xlink:href="#zoomMin" x="42" y="9" onmousedown="handleZoom(evt,'out')"/>
                <use id="reset" xlink:href="#resetDef" x="30" y="36" onmousedown="handleReset()"/>
                <g id="arrowUp" xlink:href="#dirArrow" transform="translate(30 24)" onmousedown="handlePan(0,-1)">
                  <use xlink:href="#rim" fill="#404040">
                        <set attributeName="fill" to="#808080" begin="arrowUp.mouseover" end="arrowUp.mouseout"/>
                  </use>
                  <path fill="none" stroke="white" stroke-width="1.5" d="M0,-3.0v7 M-2.5,-0.5L0,-3.0L2.5,-0.5"/>
                </g>
                <g id="arrowRight" xlink:href="#dirArrow" transform="rotate(90) translate(36 -43)" onmousedown="handlePan(1,0)">
                  <use xlink:href="#rim" fill="#404040">
                        <set attributeName="fill" to="#808080" begin="arrowRight.mouseover" end="arrowRight.mouseout"/>
                  </use>
                  <path fill="none" stroke="white" stroke-width="1.5" d="M0,-3.0v7 M-2.5,-0.5L0,-3.0L2.5,-0.5"/>
                </g>
                <g id="arrowDown" xlink:href="#dirArrow" transform="rotate(180) translate(-30 -48)" onmousedown="handlePan(0,1)">
                  <use xlink:href="#rim" fill="#404040">
                        <set attributeName="fill" to="#808080" begin="arrowDown.mouseover" end="arrowDown.mouseout"/>
                  </use>
                  <path fill="none" stroke="white" stroke-width="1.5" d="M0,-3.0v7 M-2.5,-0.5L0,-3.0L2.5,-0.5"/>
                </g>
                <g id="arrowLeft" xlink:href="#dirArrow" transform="rotate(270) translate(-36 17)" onmousedown="handlePan(-1,0)">
                  <use xlink:href="#rim" fill="#404040">
                        <set attributeName="fill" to="#808080" begin="arrowLeft.mouseover" end="arrowLeft.mouseout"/>
                  </use>
                  <path fill="none" stroke="white" stroke-width="1.5" d="M0,-3.0v7 M-2.5,-0.5L0,-3.0L2.5,-0.5"/>
                </g>
        </g>
        <svg viewBox="0 0 15 15" width="100%" height="30px" preserveAspectRatio="xMaxYMin meet">
         <g id="arrow_out" transform="scale(0.3 0.3)">
          <a xlink:href="namespacemom__ice__shelf__dynamics_adb908b77efa101749be0be069916139c_cgraph_org.svg" target="_base">
           <rect id="button" ry="5" rx="5" y="6" x="6" height="38" width="38"
                fill="#f2f5e9" fill-opacity="0.5" stroke="#606060" stroke-width="1.0"/>
           <path id="arrow"
             d="M 11.500037,31.436501 C 11.940474,20.09759 22.043105,11.32322 32.158766,21.979434 L 37.068811,17.246167 C 37.068811,17.246167 37.088388,32 37.088388,32 L 22.160133,31.978069 C 22.160133,31.978069 26.997745,27.140456 26.997745,27.140456 C 18.528582,18.264221 13.291696,25.230495 11.500037,31.436501 z"
             style="fill:#404040;"/>
          </a>
         </g>
        </svg>
</svg>
