<?xml version="1.0" encoding="UTF-8" standalone="no"?>
<!DOCTYPE svg PUBLIC "-//W3C//DTD SVG 1.1//EN"
 "http://www.w3.org/Graphics/SVG/1.1/DTD/svg11.dtd">
<!-- Generated by graphviz version 2.40.1 (20161225.0304)
 -->
<!-- Title: mom_file_parser::get_variable_line Pages: 1 -->
<svg width="432pt" height="382pt"
 viewBox="0.00 0.00 432.00 382.00" xmlns="http://www.w3.org/2000/svg" xmlns:xlink="http://www.w3.org/1999/xlink">
<g id="graph0" class="graph" transform="scale(1 1) rotate(0) translate(4 378)">
<title>mom_file_parser::get_variable_line</title>
<polygon fill="#ffffff" stroke="transparent" points="-4,4 -4,-378 428,-378 428,4 -4,4"/>
<!-- Node1 -->
<g id="node1" class="node">
<title>Node1</title>
<g id="a_node1"><a xlink:title="This subtoutine extracts the contents of lines in the param_file_type that refer to a named parameter...">
<polygon fill="#bfbfbf" stroke="#000000" points="309,-171.5 309,-201.5 424,-201.5 424,-171.5 309,-171.5"/>
<text text-anchor="start" x="317" y="-189.5" font-family="Helvetica,sans-Serif" font-size="10.00" fill="#000000">mom_file_parser::get</text>
<text text-anchor="middle" x="366.5" y="-178.5" font-family="Helvetica,sans-Serif" font-size="10.00" fill="#000000">_variable_line</text>
</a>
</g>
</g>
<!-- Node2 -->
<g id="node2" class="node">
<title>Node2</title>
<g id="a_node2"><a xlink:href="namespacemom__file__parser.html#a14c84db15e417656105f7303ad0ac2a2" target="_top" xlink:title="This subroutine reads the value of a character string model parameter from a parameter file.">
<polygon fill="#ffffff" stroke="#000000" points="151,-343.5 151,-373.5 273,-373.5 273,-343.5 151,-343.5"/>
<text text-anchor="start" x="159" y="-361.5" font-family="Helvetica,sans-Serif" font-size="10.00" fill="#000000">mom_file_parser::read</text>
<text text-anchor="middle" x="212" y="-350.5" font-family="Helvetica,sans-Serif" font-size="10.00" fill="#000000">_param_char</text>
</a>
</g>
</g>
<!-- Node1&#45;&gt;Node2 -->
<g id="edge1" class="edge">
<title>Node1&#45;&gt;Node2</title>
<path fill="none" stroke="#191970" d="M356.6637,-211.3619C342.645,-243.8515 313.9958,-300.589 273,-334.5 268.8785,-337.9092 264.2142,-340.8756 259.3454,-343.4468"/>
<polygon fill="#191970" stroke="#191970" points="360.0649,-212.3009 360.6983,-201.725 353.6079,-209.5976 360.0649,-212.3009"/>
</g>
<!-- Node4 -->
<g id="node4" class="node">
<title>Node4</title>
<g id="a_node4"><a xlink:href="namespacemom__file__parser.html#a67808253e247b2542d0810e7c7f598f4" target="_top" xlink:title="This subroutine reads the values of an array of character string model parameters from a parameter fi...">
<polygon fill="#ffffff" stroke="#000000" points="151,-294.5 151,-324.5 273,-324.5 273,-294.5 151,-294.5"/>
<text text-anchor="start" x="159" y="-312.5" font-family="Helvetica,sans-Serif" font-size="10.00" fill="#000000">mom_file_parser::read</text>
<text text-anchor="middle" x="212" y="-301.5" font-family="Helvetica,sans-Serif" font-size="10.00" fill="#000000">_param_char_array</text>
</a>
</g>
</g>
<!-- Node1&#45;&gt;Node4 -->
<g id="edge3" class="edge">
<title>Node1&#45;&gt;Node4</title>
<path fill="none" stroke="#191970" d="M349.4975,-209.7101C332.3179,-231.7636 303.9511,-264.5786 273,-285.5 268.0972,-288.8141 262.6693,-291.772 257.1319,-294.3818"/>
<polygon fill="#191970" stroke="#191970" points="352.4413,-211.6219 355.7274,-201.5496 346.8773,-207.3742 352.4413,-211.6219"/>
</g>
<!-- Node6 -->
<g id="node6" class="node">
<title>Node6</title>
<g id="a_node6"><a xlink:href="namespacemom__file__parser.html#a28352549cebdb1f8ed8db3655258d502" target="_top" xlink:title="This subroutine reads the value of an integer model parameter from a parameter file.">
<polygon fill="#ffffff" stroke="#000000" points="151,-245.5 151,-275.5 273,-275.5 273,-245.5 151,-245.5"/>
<text text-anchor="start" x="159" y="-263.5" font-family="Helvetica,sans-Serif" font-size="10.00" fill="#000000">mom_file_parser::read</text>
<text text-anchor="middle" x="212" y="-252.5" font-family="Helvetica,sans-Serif" font-size="10.00" fill="#000000">_param_int</text>
</a>
</g>
</g>
<!-- Node1&#45;&gt;Node6 -->
<g id="edge5" class="edge">
<title>Node1&#45;&gt;Node6</title>
<path fill="none" stroke="#191970" d="M331.1538,-206.6542C313.8621,-216.1896 292.597,-227.4422 273,-236.5 266.3885,-239.5558 259.2703,-242.5837 252.3119,-245.4067"/>
<polygon fill="#191970" stroke="#191970" points="333.2779,-209.4778 340.3157,-201.5583 329.8753,-203.3604 333.2779,-209.4778"/>
</g>
<!-- Node8 -->
<g id="node8" class="node">
<title>Node8</title>
<g id="a_node8"><a xlink:href="namespacemom__file__parser.html#a9f3cacd113743a19df607293b6c30ec7" target="_top" xlink:title="This subroutine reads the values of an array of integer model parameters from a parameter file.">
<polygon fill="#ffffff" stroke="#000000" points="151,-196.5 151,-226.5 273,-226.5 273,-196.5 151,-196.5"/>
<text text-anchor="start" x="159" y="-214.5" font-family="Helvetica,sans-Serif" font-size="10.00" fill="#000000">mom_file_parser::read</text>
<text text-anchor="middle" x="212" y="-203.5" font-family="Helvetica,sans-Serif" font-size="10.00" fill="#000000">_param_int_array</text>
</a>
</g>
</g>
<!-- Node1&#45;&gt;Node8 -->
<g id="edge7" class="edge">
<title>Node1&#45;&gt;Node8</title>
<path fill="none" stroke="#191970" d="M298.9983,-197.4226C290.4181,-198.811 281.6749,-200.2257 273.2012,-201.5969"/>
<polygon fill="#191970" stroke="#191970" points="299.6574,-200.8616 308.9699,-195.8091 298.5392,-193.9514 299.6574,-200.8616"/>
</g>
<!-- Node10 -->
<g id="node10" class="node">
<title>Node10</title>
<g id="a_node10"><a xlink:href="namespacemom__file__parser.html#ae12cfb8a4de90b0454683ba5810c79a2" target="_top" xlink:title="This subroutine reads the value of a logical model parameter from a parameter file.">
<polygon fill="#ffffff" stroke="#000000" points="151,-147.5 151,-177.5 273,-177.5 273,-147.5 151,-147.5"/>
<text text-anchor="start" x="159" y="-165.5" font-family="Helvetica,sans-Serif" font-size="10.00" fill="#000000">mom_file_parser::read</text>
<text text-anchor="middle" x="212" y="-154.5" font-family="Helvetica,sans-Serif" font-size="10.00" fill="#000000">_param_logical</text>
</a>
</g>
</g>
<!-- Node1&#45;&gt;Node10 -->
<g id="edge9" class="edge">
<title>Node1&#45;&gt;Node10</title>
<path fill="none" stroke="#191970" d="M298.9983,-176.0143C290.4181,-174.6815 281.6749,-173.3233 273.2012,-172.007"/>
<polygon fill="#191970" stroke="#191970" points="298.5511,-179.4867 308.9699,-177.5633 299.6257,-172.5697 298.5511,-179.4867"/>
</g>
<!-- Node12 -->
<g id="node12" class="node">
<title>Node12</title>
<g id="a_node12"><a xlink:href="namespacemom__file__parser.html#a95b28c92ef3603d3fb20b0a6d133d4ad" target="_top" xlink:title="This subroutine reads the value of a real model parameter from a parameter file.">
<polygon fill="#ffffff" stroke="#000000" points="151,-98.5 151,-128.5 273,-128.5 273,-98.5 151,-98.5"/>
<text text-anchor="start" x="159" y="-116.5" font-family="Helvetica,sans-Serif" font-size="10.00" fill="#000000">mom_file_parser::read</text>
<text text-anchor="middle" x="212" y="-105.5" font-family="Helvetica,sans-Serif" font-size="10.00" fill="#000000">_param_real</text>
</a>
</g>
</g>
<!-- Node1&#45;&gt;Node12 -->
<g id="edge11" class="edge">
<title>Node1&#45;&gt;Node12</title>
<path fill="none" stroke="#191970" d="M329.508,-166.5885C312.4675,-157.6552 291.878,-147.1949 273,-138.5 265.7231,-135.1484 257.865,-131.7605 250.2874,-128.6067"/>
<polygon fill="#191970" stroke="#191970" points="328.0987,-169.8022 338.5764,-171.3734 331.3654,-163.6111 328.0987,-169.8022"/>
</g>
<!-- Node14 -->
<g id="node14" class="node">
<title>Node14</title>
<g id="a_node14"><a xlink:href="namespacemom__file__parser.html#ae85623b4210b35c5e583d48ff536d596" target="_top" xlink:title="This subroutine reads the values of an array of real model parameters from a parameter file.">
<polygon fill="#ffffff" stroke="#000000" points="151,-49.5 151,-79.5 273,-79.5 273,-49.5 151,-49.5"/>
<text text-anchor="start" x="159" y="-67.5" font-family="Helvetica,sans-Serif" font-size="10.00" fill="#000000">mom_file_parser::read</text>
<text text-anchor="middle" x="212" y="-56.5" font-family="Helvetica,sans-Serif" font-size="10.00" fill="#000000">_param_real_array</text>
</a>
</g>
</g>
<!-- Node1&#45;&gt;Node14 -->
<g id="edge13" class="edge">
<title>Node1&#45;&gt;Node14</title>
<path fill="none" stroke="#191970" d="M349.0441,-163.5115C331.717,-141.9919 303.4107,-110.1431 273,-89.5 267.5077,-85.7717 261.3729,-82.4496 255.1687,-79.5409"/>
<polygon fill="#191970" stroke="#191970" points="346.3976,-165.8077 355.3431,-171.4849 351.8904,-161.4684 346.3976,-165.8077"/>
</g>
<!-- Node16 -->
<g id="node16" class="node">
<title>Node16</title>
<g id="a_node16"><a xlink:href="namespacemom__file__parser.html#a799f1d8af038c5a64b7496018f03b590" target="_top" xlink:title="This subroutine reads the value of a time_type model parameter from a parameter file.">
<polygon fill="#ffffff" stroke="#000000" points="151,-.5 151,-30.5 273,-30.5 273,-.5 151,-.5"/>
<text text-anchor="start" x="159" y="-18.5" font-family="Helvetica,sans-Serif" font-size="10.00" fill="#000000">mom_file_parser::read</text>
<text text-anchor="middle" x="212" y="-7.5" font-family="Helvetica,sans-Serif" font-size="10.00" fill="#000000">_param_time</text>
</a>
</g>
</g>
<!-- Node1&#45;&gt;Node16 -->
<g id="edge15" class="edge">
<title>Node1&#45;&gt;Node16</title>
<path fill="none" stroke="#191970" d="M356.2844,-161.5658C342.0128,-129.5332 313.2581,-74.0714 273,-40.5 268.4292,-36.6884 263.1985,-33.3938 257.7645,-30.5634"/>
<polygon fill="#191970" stroke="#191970" points="353.2206,-163.2987 360.4053,-171.0853 359.6445,-160.5178 353.2206,-163.2987"/>
</g>
<!-- Node3 -->
<g id="node3" class="node">
<title>Node3</title>
<g id="a_node3"><a xlink:href="namespacemom__file__parser.html#ad4bee0d73cd5df0bb017180f354f514b" target="_top" xlink:title="This subroutine reads the value of a character string model parameter from a parameter file and logs ...">
<polygon fill="#ffffff" stroke="#000000" points="0,-343.5 0,-373.5 115,-373.5 115,-343.5 0,-343.5"/>
<text text-anchor="start" x="8" y="-361.5" font-family="Helvetica,sans-Serif" font-size="10.00" fill="#000000">mom_file_parser::get</text>
<text text-anchor="middle" x="57.5" y="-350.5" font-family="Helvetica,sans-Serif" font-size="10.00" fill="#000000">_param_char</text>
</a>
</g>
</g>
<!-- Node2&#45;&gt;Node3 -->
<g id="edge2" class="edge">
<title>Node2&#45;&gt;Node3</title>
<path fill="none" stroke="#191970" d="M140.8748,-358.5C132.2404,-358.5 123.5034,-358.5 115.0987,-358.5"/>
<polygon fill="#191970" stroke="#191970" points="140.9375,-362.0001 150.9375,-358.5 140.9375,-355.0001 140.9375,-362.0001"/>
</g>
<!-- Node5 -->
<g id="node5" class="node">
<title>Node5</title>
<g id="a_node5"><a xlink:href="namespacemom__file__parser.html#aa3f8a251fb4f7bbae28b136ebc17a8f3" target="_top" xlink:title="This subroutine reads the values of an array of character string model parameters from a parameter fi...">
<polygon fill="#ffffff" stroke="#000000" points="0,-294.5 0,-324.5 115,-324.5 115,-294.5 0,-294.5"/>
<text text-anchor="start" x="8" y="-312.5" font-family="Helvetica,sans-Serif" font-size="10.00" fill="#000000">mom_file_parser::get</text>
<text text-anchor="middle" x="57.5" y="-301.5" font-family="Helvetica,sans-Serif" font-size="10.00" fill="#000000">_param_char_array</text>
</a>
</g>
</g>
<!-- Node4&#45;&gt;Node5 -->
<g id="edge4" class="edge">
<title>Node4&#45;&gt;Node5</title>
<path fill="none" stroke="#191970" d="M140.8748,-309.5C132.2404,-309.5 123.5034,-309.5 115.0987,-309.5"/>
<polygon fill="#191970" stroke="#191970" points="140.9375,-313.0001 150.9375,-309.5 140.9375,-306.0001 140.9375,-313.0001"/>
</g>
<!-- Node7 -->
<g id="node7" class="node">
<title>Node7</title>
<g id="a_node7"><a xlink:href="namespacemom__file__parser.html#ac9428b418b2382019d418c0e30c97734" target="_top" xlink:title="This subroutine reads the value of an integer model parameter from a parameter file and logs it in do...">
<polygon fill="#ffffff" stroke="#000000" points="0,-245.5 0,-275.5 115,-275.5 115,-245.5 0,-245.5"/>
<text text-anchor="start" x="8" y="-263.5" font-family="Helvetica,sans-Serif" font-size="10.00" fill="#000000">mom_file_parser::get</text>
<text text-anchor="middle" x="57.5" y="-252.5" font-family="Helvetica,sans-Serif" font-size="10.00" fill="#000000">_param_int</text>
</a>
</g>
</g>
<!-- Node6&#45;&gt;Node7 -->
<g id="edge6" class="edge">
<title>Node6&#45;&gt;Node7</title>
<path fill="none" stroke="#191970" d="M140.8748,-260.5C132.2404,-260.5 123.5034,-260.5 115.0987,-260.5"/>
<polygon fill="#191970" stroke="#191970" points="140.9375,-264.0001 150.9375,-260.5 140.9375,-257.0001 140.9375,-264.0001"/>
</g>
<!-- Node9 -->
<g id="node9" class="node">
<title>Node9</title>
<g id="a_node9"><a xlink:href="namespacemom__file__parser.html#a07b858dc2b7ce18929501b4738e96c3a" target="_top" xlink:title="This subroutine reads the values of an array of integer model parameters from a parameter file and lo...">
<polygon fill="#ffffff" stroke="#000000" points="0,-196.5 0,-226.5 115,-226.5 115,-196.5 0,-196.5"/>
<text text-anchor="start" x="8" y="-214.5" font-family="Helvetica,sans-Serif" font-size="10.00" fill="#000000">mom_file_parser::get</text>
<text text-anchor="middle" x="57.5" y="-203.5" font-family="Helvetica,sans-Serif" font-size="10.00" fill="#000000">_param_int_array</text>
</a>
</g>
</g>
<!-- Node8&#45;&gt;Node9 -->
<g id="edge8" class="edge">
<title>Node8&#45;&gt;Node9</title>
<path fill="none" stroke="#191970" d="M140.8748,-211.5C132.2404,-211.5 123.5034,-211.5 115.0987,-211.5"/>
<polygon fill="#191970" stroke="#191970" points="140.9375,-215.0001 150.9375,-211.5 140.9375,-208.0001 140.9375,-215.0001"/>
</g>
<!-- Node11 -->
<g id="node11" class="node">
<title>Node11</title>
<g id="a_node11"><a xlink:href="namespacemom__file__parser.html#a470b3af82a8b146f375e4ca13c58e70f" target="_top" xlink:title="This subroutine reads the value of a logical model parameter from a parameter file and logs it in doc...">
<polygon fill="#ffffff" stroke="#000000" points="0,-147.5 0,-177.5 115,-177.5 115,-147.5 0,-147.5"/>
<text text-anchor="start" x="8" y="-165.5" font-family="Helvetica,sans-Serif" font-size="10.00" fill="#000000">mom_file_parser::get</text>
<text text-anchor="middle" x="57.5" y="-154.5" font-family="Helvetica,sans-Serif" font-size="10.00" fill="#000000">_param_logical</text>
</a>
</g>
</g>
<!-- Node10&#45;&gt;Node11 -->
<g id="edge10" class="edge">
<title>Node10&#45;&gt;Node11</title>
<path fill="none" stroke="#191970" d="M140.8748,-162.5C132.2404,-162.5 123.5034,-162.5 115.0987,-162.5"/>
<polygon fill="#191970" stroke="#191970" points="140.9375,-166.0001 150.9375,-162.5 140.9375,-159.0001 140.9375,-166.0001"/>
</g>
<!-- Node13 -->
<g id="node13" class="node">
<title>Node13</title>
<g id="a_node13"><a xlink:href="namespacemom__file__parser.html#a2d6fb93c7802322c2ed145413aacaf30" target="_top" xlink:title="This subroutine reads the value of a real model parameter from a parameter file and logs it in docume...">
<polygon fill="#ffffff" stroke="#000000" points="0,-98.5 0,-128.5 115,-128.5 115,-98.5 0,-98.5"/>
<text text-anchor="start" x="8" y="-116.5" font-family="Helvetica,sans-Serif" font-size="10.00" fill="#000000">mom_file_parser::get</text>
<text text-anchor="middle" x="57.5" y="-105.5" font-family="Helvetica,sans-Serif" font-size="10.00" fill="#000000">_param_real</text>
</a>
</g>
</g>
<!-- Node12&#45;&gt;Node13 -->
<g id="edge12" class="edge">
<title>Node12&#45;&gt;Node13</title>
<path fill="none" stroke="#191970" d="M140.8748,-113.5C132.2404,-113.5 123.5034,-113.5 115.0987,-113.5"/>
<polygon fill="#191970" stroke="#191970" points="140.9375,-117.0001 150.9375,-113.5 140.9375,-110.0001 140.9375,-117.0001"/>
</g>
<!-- Node15 -->
<g id="node15" class="node">
<title>Node15</title>
<g id="a_node15"><a xlink:href="namespacemom__file__parser.html#abe46596750cd8d85531be8aaf030c73e" target="_top" xlink:title="This subroutine reads the values of an array of real model parameters from a parameter file and logs ...">
<polygon fill="#ffffff" stroke="#000000" points="0,-49.5 0,-79.5 115,-79.5 115,-49.5 0,-49.5"/>
<text text-anchor="start" x="8" y="-67.5" font-family="Helvetica,sans-Serif" font-size="10.00" fill="#000000">mom_file_parser::get</text>
<text text-anchor="middle" x="57.5" y="-56.5" font-family="Helvetica,sans-Serif" font-size="10.00" fill="#000000">_param_real_array</text>
</a>
</g>
</g>
<!-- Node14&#45;&gt;Node15 -->
<g id="edge14" class="edge">
<title>Node14&#45;&gt;Node15</title>
<path fill="none" stroke="#191970" d="M140.8748,-64.5C132.2404,-64.5 123.5034,-64.5 115.0987,-64.5"/>
<polygon fill="#191970" stroke="#191970" points="140.9375,-68.0001 150.9375,-64.5 140.9375,-61.0001 140.9375,-68.0001"/>
</g>
<!-- Node17 -->
<g id="node17" class="node">
<title>Node17</title>
<g id="a_node17"><a xlink:href="namespacemom__file__parser.html#ab433eff650ddf3ce82d97f1c8432b6a8" target="_top" xlink:title="This subroutine reads the value of a time&#45;type model parameter from a parameter file and logs it in d...">
<polygon fill="#ffffff" stroke="#000000" points="0,-.5 0,-30.5 115,-30.5 115,-.5 0,-.5"/>
<text text-anchor="start" x="8" y="-18.5" font-family="Helvetica,sans-Serif" font-size="10.00" fill="#000000">mom_file_parser::get</text>
<text text-anchor="middle" x="57.5" y="-7.5" font-family="Helvetica,sans-Serif" font-size="10.00" fill="#000000">_param_time</text>
</a>
</g>
</g>
<!-- Node16&#45;&gt;Node17 -->
<g id="edge16" class="edge">
<title>Node16&#45;&gt;Node17</title>
<path fill="none" stroke="#191970" d="M140.8748,-15.5C132.2404,-15.5 123.5034,-15.5 115.0987,-15.5"/>
<polygon fill="#191970" stroke="#191970" points="140.9375,-19.0001 150.9375,-15.5 140.9375,-12.0001 140.9375,-19.0001"/>
</g>
</g>
</svg>
