<?xml version="1.0" encoding="UTF-8" standalone="no"?>
<!DOCTYPE svg PUBLIC "-//W3C//DTD SVG 1.1//EN"
 "http://www.w3.org/Graphics/SVG/1.1/DTD/svg11.dtd">
<!-- Generated by graphviz version 2.40.1 (20161225.0304)
 -->
<!-- Title: mom_offline_main::offline_transport_init Pages: 1 -->
<svg width="469pt" height="186pt"
 viewBox="0.00 0.00 469.00 186.00" xmlns="http://www.w3.org/2000/svg" xmlns:xlink="http://www.w3.org/1999/xlink">
<g id="graph0" class="graph" transform="scale(1 1) rotate(0) translate(4 182)">
<title>mom_offline_main::offline_transport_init</title>
<polygon fill="#ffffff" stroke="transparent" points="-4,4 -4,-182 465,-182 465,4 -4,4"/>
<!-- Node1 -->
<g id="node1" class="node">
<title>Node1</title>
<g id="a_node1"><a xlink:title="Initializes the control structure for offline transport and reads in some of the.">
<polygon fill="#bfbfbf" stroke="#000000" points="0,-73.5 0,-103.5 135,-103.5 135,-73.5 0,-73.5"/>
<text text-anchor="start" x="8" y="-91.5" font-family="Helvetica,sans-Serif" font-size="10.00" fill="#000000">mom_offline_main::offline</text>
<text text-anchor="middle" x="67.5" y="-80.5" font-family="Helvetica,sans-Serif" font-size="10.00" fill="#000000">_transport_init</text>
</a>
</g>
</g>
<!-- Node2 -->
<g id="node2" class="node">
<title>Node2</title>
<g id="a_node2"><a xlink:href="namespacemom__error__handler.html#a9cda07a87815f0e5594066162b4345c3" target="_top" xlink:title="Writes a message about entering a subroutine if call tree reporting is active.">
<polygon fill="#ffffff" stroke="#000000" points="183,-147.5 183,-177.5 298,-177.5 298,-147.5 183,-147.5"/>
<text text-anchor="start" x="191" y="-165.5" font-family="Helvetica,sans-Serif" font-size="10.00" fill="#000000">mom_error_handler::</text>
<text text-anchor="middle" x="240.5" y="-154.5" font-family="Helvetica,sans-Serif" font-size="10.00" fill="#000000">calltree_enter</text>
</a>
</g>
</g>
<!-- Node1&#45;&gt;Node2 -->
<g id="edge1" class="edge">
<title>Node1&#45;&gt;Node2</title>
<path fill="none" stroke="#191970" d="M96.5274,-103.6566C117.0482,-114.09 145.3579,-127.9217 171,-138.5 175.4141,-140.321 180.0221,-142.1222 184.6731,-143.8706"/>
<polygon fill="#191970" stroke="#191970" points="183.6382,-147.2189 194.2319,-147.3745 186.0475,-140.6466 183.6382,-147.2189"/>
</g>
<!-- Node4 -->
<g id="node4" class="node">
<title>Node4</title>
<g id="a_node4"><a xlink:href="namespacemom__error__handler.html#a88ea67781e2ed9b73ab7eac8ea5e8578" target="_top" xlink:title="Writes a message about leaving a subroutine if call tree reporting is active.">
<polygon fill="#ffffff" stroke="#000000" points="183,-98.5 183,-128.5 298,-128.5 298,-98.5 183,-98.5"/>
<text text-anchor="start" x="191" y="-116.5" font-family="Helvetica,sans-Serif" font-size="10.00" fill="#000000">mom_error_handler::</text>
<text text-anchor="middle" x="240.5" y="-105.5" font-family="Helvetica,sans-Serif" font-size="10.00" fill="#000000">calltree_leave</text>
</a>
</g>
</g>
<!-- Node1&#45;&gt;Node4 -->
<g id="edge3" class="edge">
<title>Node1&#45;&gt;Node4</title>
<path fill="none" stroke="#191970" d="M135.3776,-98.3089C147.6541,-100.083 160.456,-101.9329 172.7294,-103.7066"/>
<polygon fill="#191970" stroke="#191970" points="172.4938,-107.2088 182.8916,-105.1751 173.495,-100.2808 172.4938,-107.2088"/>
</g>
<!-- Node5 -->
<g id="node5" class="node">
<title>Node5</title>
<g id="a_node5"><a xlink:href="namespacemom__diabatic__driver.html#a89d71204e03c56940387511357dac3bd" target="_top" xlink:title="Returns pointers or values of members within the diabatic_CS type. For extensibility,...">
<polygon fill="#ffffff" stroke="#000000" points="171,-49.5 171,-79.5 310,-79.5 310,-49.5 171,-49.5"/>
<text text-anchor="start" x="179" y="-67.5" font-family="Helvetica,sans-Serif" font-size="10.00" fill="#000000">mom_diabatic_driver</text>
<text text-anchor="middle" x="240.5" y="-56.5" font-family="Helvetica,sans-Serif" font-size="10.00" fill="#000000">::extract_diabatic_member</text>
</a>
</g>
</g>
<!-- Node1&#45;&gt;Node5 -->
<g id="edge5" class="edge">
<title>Node1&#45;&gt;Node5</title>
<path fill="none" stroke="#191970" d="M135.3776,-79.0834C143.7464,-77.9225 152.3592,-76.7276 160.8824,-75.5452"/>
<polygon fill="#191970" stroke="#191970" points="161.4025,-79.0067 170.8266,-74.1657 160.4405,-72.0731 161.4025,-79.0067"/>
</g>
<!-- Node6 -->
<g id="node6" class="node">
<title>Node6</title>
<g id="a_node6"><a xlink:href="namespacemom__offline__main.html#abc6fd7e877d8e70014cbad2d4e3f11c5" target="_top" xlink:title="Coordinates the allocation and reading in all time levels of uh, vh, hend, temp, and salt from files....">
<polygon fill="#ffffff" stroke="#000000" points="176.5,-.5 176.5,-30.5 304.5,-30.5 304.5,-.5 176.5,-.5"/>
<text text-anchor="start" x="184.5" y="-18.5" font-family="Helvetica,sans-Serif" font-size="10.00" fill="#000000">mom_offline_main::read</text>
<text text-anchor="middle" x="240.5" y="-7.5" font-family="Helvetica,sans-Serif" font-size="10.00" fill="#000000">_all_input</text>
</a>
</g>
</g>
<!-- Node1&#45;&gt;Node6 -->
<g id="edge6" class="edge">
<title>Node1&#45;&gt;Node6</title>
<path fill="none" stroke="#191970" d="M97.9799,-73.4942C118.4297,-63.6429 146.0828,-50.7357 171,-40.5 176.319,-38.315 181.9071,-36.1284 187.5068,-34.0078"/>
<polygon fill="#191970" stroke="#191970" points="188.7452,-37.2815 196.8963,-30.5132 186.3035,-30.7212 188.7452,-37.2815"/>
</g>
<!-- Node3 -->
<g id="node3" class="node">
<title>Node3</title>
<g id="a_node3"><a xlink:href="namespacemom__error__handler.html#ad5f00a53059c72fe2332d1436c80ca71" target="_top" xlink:title="This returns .true. if the current PE is the root PE.">
<polygon fill="#ffffff" stroke="#000000" points="346,-122.5 346,-152.5 461,-152.5 461,-122.5 346,-122.5"/>
<text text-anchor="start" x="354" y="-140.5" font-family="Helvetica,sans-Serif" font-size="10.00" fill="#000000">mom_error_handler::</text>
<text text-anchor="middle" x="403.5" y="-129.5" font-family="Helvetica,sans-Serif" font-size="10.00" fill="#000000">is_root_pe</text>
</a>
</g>
</g>
<!-- Node2&#45;&gt;Node3 -->
<g id="edge2" class="edge">
<title>Node2&#45;&gt;Node3</title>
<path fill="none" stroke="#191970" d="M298.4267,-153.6155C310.4368,-151.7735 323.1942,-149.8168 335.5265,-147.9254"/>
<polygon fill="#191970" stroke="#191970" points="336.4061,-151.3315 345.7599,-146.3558 335.3448,-144.4124 336.4061,-151.3315"/>
</g>
<!-- Node4&#45;&gt;Node3 -->
<g id="edge4" class="edge">
<title>Node4&#45;&gt;Node3</title>
<path fill="none" stroke="#191970" d="M298.4267,-122.0291C310.4368,-123.7974 323.1942,-125.6758 335.5265,-127.4916"/>
<polygon fill="#191970" stroke="#191970" points="335.3567,-131.0043 345.7599,-128.9984 336.3764,-124.079 335.3567,-131.0043"/>
</g>
</g>
</svg>
