<?xml version="1.0" encoding="UTF-8" standalone="no"?>
<!DOCTYPE svg PUBLIC "-//W3C//DTD SVG 1.1//EN"
 "http://www.w3.org/Graphics/SVG/1.1/DTD/svg11.dtd">
<!-- Generated by graphviz version 2.40.1 (20161225.0304)
 -->
<!-- Title: mom_ale::pressure_gradient_plm Pages: 1 -->
<svg width="327pt" height="88pt"
 viewBox="0.00 0.00 327.00 88.00" xmlns="http://www.w3.org/2000/svg" xmlns:xlink="http://www.w3.org/1999/xlink">
<g id="graph0" class="graph" transform="scale(1 1) rotate(0) translate(4 84)">
<title>mom_ale::pressure_gradient_plm</title>
<polygon fill="#ffffff" stroke="transparent" points="-4,4 -4,-84 323,-84 323,4 -4,4"/>
<!-- Node1 -->
<g id="node1" class="node">
<title>Node1</title>
<g id="a_node1"><a xlink:title="Use plm reconstruction for pressure gradient (determine edge values) By using a PLM (limited piecewis...">
<polygon fill="#bfbfbf" stroke="#000000" points="0,-30 0,-49 161,-49 161,-30 0,-30"/>
<text text-anchor="middle" x="80.5" y="-37" font-family="Helvetica,sans-Serif" font-size="10.00" fill="#000000">mom_ale::pressure_gradient_plm</text>
</a>
</g>
</g>
<!-- Node2 -->
<g id="node2" class="node">
<title>Node2</title>
<g id="a_node2"><a xlink:href="namespaceplm__functions.html#a7e6d6acb77747f967174265a1bf45784" target="_top" xlink:title="Reconstruction by linear polynomials within boundary cells.">
<polygon fill="#ffffff" stroke="#000000" points="197,-49.5 197,-79.5 319,-79.5 319,-49.5 197,-49.5"/>
<text text-anchor="start" x="205" y="-67.5" font-family="Helvetica,sans-Serif" font-size="10.00" fill="#000000">plm_functions::plm</text>
<text text-anchor="middle" x="258" y="-56.5" font-family="Helvetica,sans-Serif" font-size="10.00" fill="#000000">_boundary_extrapolation</text>
</a>
</g>
</g>
<!-- Node1&#45;&gt;Node2 -->
<g id="edge1" class="edge">
<title>Node1&#45;&gt;Node2</title>
<path fill="none" stroke="#191970" d="M148.1115,-49.0227C160.7896,-50.8084 174.0788,-52.6801 186.8603,-54.4803"/>
<polygon fill="#191970" stroke="#191970" points="186.5901,-57.9767 196.9806,-55.9057 187.5665,-51.0451 186.5901,-57.9767"/>
</g>
<!-- Node3 -->
<g id="node3" class="node">
<title>Node3</title>
<g id="a_node3"><a xlink:href="namespaceplm__functions.html#afc5335533d6ae9896bf0d869fa5a25e9" target="_top" xlink:title="Reconstruction by linear polynomials within each cell.">
<polygon fill="#ffffff" stroke="#000000" points="208.5,-.5 208.5,-30.5 307.5,-30.5 307.5,-.5 208.5,-.5"/>
<text text-anchor="start" x="216.5" y="-18.5" font-family="Helvetica,sans-Serif" font-size="10.00" fill="#000000">plm_functions::plm</text>
<text text-anchor="middle" x="258" y="-7.5" font-family="Helvetica,sans-Serif" font-size="10.00" fill="#000000">_reconstruction</text>
</a>
</g>
</g>
<!-- Node1&#45;&gt;Node3 -->
<g id="edge2" class="edge">
<title>Node1&#45;&gt;Node3</title>
<path fill="none" stroke="#191970" d="M150.9076,-29.9801C166.5575,-27.8641 183.0031,-25.6404 198.181,-23.5882"/>
<polygon fill="#191970" stroke="#191970" points="199.0201,-27.0067 208.461,-22.1982 198.0821,-20.0698 199.0201,-27.0067"/>
</g>
</g>
</svg>
