<?xml version="1.0" encoding="UTF-8" standalone="no"?>
<!DOCTYPE svg PUBLIC "-//W3C//DTD SVG 1.1//EN"
 "http://www.w3.org/Graphics/SVG/1.1/DTD/svg11.dtd">
<!-- Generated by graphviz version 2.40.1 (20161225.0304)
 -->
<!-- Title: circle_obcs_initialization::circle_obcs_initialize_thickness Pages: 1 -->
<svg width="414pt" height="50pt"
 viewBox="0.00 0.00 414.00 50.00" xmlns="http://www.w3.org/2000/svg" xmlns:xlink="http://www.w3.org/1999/xlink">
<g id="graph0" class="graph" transform="scale(1 1) rotate(0) translate(4 46)">
<title>circle_obcs_initialization::circle_obcs_initialize_thickness</title>
<polygon fill="#ffffff" stroke="transparent" points="-4,4 -4,-46 410,-46 410,4 -4,4"/>
<!-- Node1 -->
<g id="node1" class="node">
<title>Node1</title>
<g id="a_node1"><a xlink:title="This subroutine initializes layer thicknesses for the circle_obcs experiment.">
<polygon fill="#bfbfbf" stroke="#000000" points="0,-.5 0,-41.5 122,-41.5 122,-.5 0,-.5"/>
<text text-anchor="start" x="8" y="-29.5" font-family="Helvetica,sans-Serif" font-size="10.00" fill="#000000">circle_obcs_initialization</text>
<text text-anchor="start" x="8" y="-18.5" font-family="Helvetica,sans-Serif" font-size="10.00" fill="#000000">::circle_obcs_initialize</text>
<text text-anchor="middle" x="61" y="-7.5" font-family="Helvetica,sans-Serif" font-size="10.00" fill="#000000">_thickness</text>
</a>
</g>
</g>
<!-- Node2 -->
<g id="node2" class="node">
<title>Node2</title>
<g id="a_node2"><a xlink:href="namespacemom__error__handler.html#a1c462df7b61f1296407b4af51dfeceab" target="_top" xlink:title="This provides a convenient interface for writing an informative comment.">
<polygon fill="#ffffff" stroke="#000000" points="158,-6 158,-36 264,-36 264,-6 158,-6"/>
<text text-anchor="start" x="166" y="-24" font-family="Helvetica,sans-Serif" font-size="10.00" fill="#000000">mom_error_handler::</text>
<text text-anchor="middle" x="211" y="-13" font-family="Helvetica,sans-Serif" font-size="10.00" fill="#000000">mom_mesg</text>
</a>
</g>
</g>
<!-- Node1&#45;&gt;Node2 -->
<g id="edge1" class="edge">
<title>Node1&#45;&gt;Node2</title>
<path fill="none" stroke="#191970" d="M122.0107,-21C130.4297,-21 139.0925,-21 147.5542,-21"/>
<polygon fill="#191970" stroke="#191970" points="147.7461,-24.5001 157.7461,-21 147.7461,-17.5001 147.7461,-24.5001"/>
</g>
<!-- Node3 -->
<g id="node3" class="node">
<title>Node3</title>
<g id="a_node3"><a xlink:href="namespacemom__error__handler.html#ad5f00a53059c72fe2332d1436c80ca71" target="_top" xlink:title="This returns .true. if the current PE is the root PE.">
<polygon fill="#ffffff" stroke="#000000" points="300,-6 300,-36 406,-36 406,-6 300,-6"/>
<text text-anchor="start" x="308" y="-24" font-family="Helvetica,sans-Serif" font-size="10.00" fill="#000000">mom_error_handler::</text>
<text text-anchor="middle" x="353" y="-13" font-family="Helvetica,sans-Serif" font-size="10.00" fill="#000000">is_root_pe</text>
</a>
</g>
</g>
<!-- Node2&#45;&gt;Node3 -->
<g id="edge2" class="edge">
<title>Node2&#45;&gt;Node3</title>
<path fill="none" stroke="#191970" d="M264.2796,-21C272.56,-21 281.184,-21 289.6606,-21"/>
<polygon fill="#191970" stroke="#191970" points="289.8941,-24.5001 299.8941,-21 289.8941,-17.5001 289.8941,-24.5001"/>
</g>
</g>
</svg>
