<?xml version="1.0" encoding="UTF-8" standalone="no"?>
<!DOCTYPE svg PUBLIC "-//W3C//DTD SVG 1.1//EN"
 "http://www.w3.org/Graphics/SVG/1.1/DTD/svg11.dtd">
<!-- Generated by graphviz version 2.40.1 (20161225.0304)
 -->
<!-- Title: mom_continuity_ppm::ratio_max Pages: 1 -->
<svg width="417pt" height="88pt"
 viewBox="0.00 0.00 417.00 88.00" xmlns="http://www.w3.org/2000/svg" xmlns:xlink="http://www.w3.org/1999/xlink">
<g id="graph0" class="graph" transform="scale(1 1) rotate(0) translate(4 84)">
<title>mom_continuity_ppm::ratio_max</title>
<polygon fill="#ffffff" stroke="transparent" points="-4,4 -4,-84 413,-84 413,4 -4,4"/>
<!-- Node1 -->
<g id="node1" class="node">
<title>Node1</title>
<g id="a_node1"><a xlink:title="Return the maximum ratio of a/b or maxrat.">
<polygon fill="#bfbfbf" stroke="#000000" points="299,-24.5 299,-54.5 409,-54.5 409,-24.5 299,-24.5"/>
<text text-anchor="start" x="307" y="-42.5" font-family="Helvetica,sans-Serif" font-size="10.00" fill="#000000">mom_continuity_ppm</text>
<text text-anchor="middle" x="354" y="-31.5" font-family="Helvetica,sans-Serif" font-size="10.00" fill="#000000">::ratio_max</text>
</a>
</g>
</g>
<!-- Node2 -->
<g id="node2" class="node">
<title>Node2</title>
<g id="a_node2"><a xlink:href="namespacemom__continuity__ppm.html#ae64c4b7cd1756aa3c121fbcf637d5cae" target="_top" xlink:title="Calculates the mass or volume fluxes through the meridional faces, and other related quantities.">
<polygon fill="#ffffff" stroke="#000000" points="146,-49.5 146,-79.5 263,-79.5 263,-49.5 146,-49.5"/>
<text text-anchor="start" x="154" y="-67.5" font-family="Helvetica,sans-Serif" font-size="10.00" fill="#000000">mom_continuity_ppm</text>
<text text-anchor="middle" x="204.5" y="-56.5" font-family="Helvetica,sans-Serif" font-size="10.00" fill="#000000">::meridional_mass_flux</text>
</a>
</g>
</g>
<!-- Node1&#45;&gt;Node2 -->
<g id="edge1" class="edge">
<title>Node1&#45;&gt;Node2</title>
<path fill="none" stroke="#191970" d="M288.7976,-50.4034C280.2239,-51.8371 271.4799,-53.2994 263.0266,-54.7129"/>
<polygon fill="#191970" stroke="#191970" points="289.4707,-53.8395 298.7565,-48.738 288.3161,-46.9354 289.4707,-53.8395"/>
</g>
<!-- Node4 -->
<g id="node4" class="node">
<title>Node4</title>
<g id="a_node4"><a xlink:href="namespacemom__continuity__ppm.html#a5f5d6764ed315043d3b91b209db5c0a0" target="_top" xlink:title="Calculates the mass or volume fluxes through the zonal faces, and other related quantities.">
<polygon fill="#ffffff" stroke="#000000" points="149.5,-.5 149.5,-30.5 259.5,-30.5 259.5,-.5 149.5,-.5"/>
<text text-anchor="start" x="157.5" y="-18.5" font-family="Helvetica,sans-Serif" font-size="10.00" fill="#000000">mom_continuity_ppm</text>
<text text-anchor="middle" x="204.5" y="-7.5" font-family="Helvetica,sans-Serif" font-size="10.00" fill="#000000">::zonal_mass_flux</text>
</a>
</g>
</g>
<!-- Node1&#45;&gt;Node4 -->
<g id="edge3" class="edge">
<title>Node1&#45;&gt;Node4</title>
<path fill="none" stroke="#191970" d="M288.7137,-29.0193C278.9739,-27.4557 269.0162,-25.8571 259.5165,-24.3321"/>
<polygon fill="#191970" stroke="#191970" points="288.3281,-32.5021 298.7565,-30.6315 289.4377,-25.5906 288.3281,-32.5021"/>
</g>
<!-- Node3 -->
<g id="node3" class="node">
<title>Node3</title>
<g id="a_node3"><a xlink:href="namespacemom__continuity__ppm.html#a665851a49a4bde77b4ef5e25332947f6" target="_top" xlink:title="Time steps the layer thicknesses, using a monotonically limit, directionally split PPM scheme,...">
<polygon fill="#ffffff" stroke="#000000" points="0,-24.5 0,-54.5 110,-54.5 110,-24.5 0,-24.5"/>
<text text-anchor="start" x="8" y="-42.5" font-family="Helvetica,sans-Serif" font-size="10.00" fill="#000000">mom_continuity_ppm</text>
<text text-anchor="middle" x="55" y="-31.5" font-family="Helvetica,sans-Serif" font-size="10.00" fill="#000000">::continuity_ppm</text>
</a>
</g>
</g>
<!-- Node2&#45;&gt;Node3 -->
<g id="edge2" class="edge">
<title>Node2&#45;&gt;Node3</title>
<path fill="none" stroke="#191970" d="M135.7985,-53.0115C127.1765,-51.5696 118.4464,-50.1098 110.0711,-48.7092"/>
<polygon fill="#191970" stroke="#191970" points="135.4024,-56.4937 145.8427,-54.6911 136.557,-49.5896 135.4024,-56.4937"/>
</g>
<!-- Node4&#45;&gt;Node3 -->
<g id="edge4" class="edge">
<title>Node4&#45;&gt;Node3</title>
<path fill="none" stroke="#191970" d="M139.2137,-25.9807C129.4739,-27.5443 119.5162,-29.1429 110.0165,-30.6679"/>
<polygon fill="#191970" stroke="#191970" points="139.9377,-29.4094 149.2565,-24.3685 138.8281,-22.4979 139.9377,-29.4094"/>
</g>
</g>
</svg>
