<?xml version="1.0" encoding="UTF-8" standalone="no"?>
<!DOCTYPE svg PUBLIC "-//W3C//DTD SVG 1.1//EN"
 "http://www.w3.org/Graphics/SVG/1.1/DTD/svg11.dtd">
<!-- Generated by graphviz version 2.40.1 (20161225.0304)
 -->
<!-- Title: mom_domains::mom_domains_init Pages: 1 -->
<svg width="467pt" height="137pt"
 viewBox="0.00 0.00 467.00 137.00" xmlns="http://www.w3.org/2000/svg" xmlns:xlink="http://www.w3.org/1999/xlink">
<g id="graph0" class="graph" transform="scale(1 1) rotate(0) translate(4 133)">
<title>mom_domains::mom_domains_init</title>
<polygon fill="#ffffff" stroke="transparent" points="-4,4 -4,-133 463,-133 463,4 -4,4"/>
<!-- Node1 -->
<g id="node1" class="node">
<title>Node1</title>
<g id="a_node1"><a xlink:title="MOM_domains_init initalizes a MOM_domain_type variable, based on the information read in from a param...">
<polygon fill="#bfbfbf" stroke="#000000" points="0,-55 0,-74 168,-74 168,-55 0,-55"/>
<text text-anchor="middle" x="84" y="-62" font-family="Helvetica,sans-Serif" font-size="10.00" fill="#000000">mom_domains::mom_domains_init</text>
</a>
</g>
</g>
<!-- Node2 -->
<g id="node2" class="node">
<title>Node2</title>
<g id="a_node2"><a xlink:href="namespacemom__error__handler.html#a460cfb79a06c29fc249952c2a3710d67" target="_top" xlink:title="This provides a convenient interface for writing an mpp_error message with run&#45;time filter based on a...">
<polygon fill="#ffffff" stroke="#000000" points="207.5,-98.5 207.5,-128.5 313.5,-128.5 313.5,-98.5 207.5,-98.5"/>
<text text-anchor="start" x="215.5" y="-116.5" font-family="Helvetica,sans-Serif" font-size="10.00" fill="#000000">mom_error_handler::</text>
<text text-anchor="middle" x="260.5" y="-105.5" font-family="Helvetica,sans-Serif" font-size="10.00" fill="#000000">mom_error</text>
</a>
</g>
</g>
<!-- Node1&#45;&gt;Node2 -->
<g id="edge1" class="edge">
<title>Node1&#45;&gt;Node2</title>
<path fill="none" stroke="#191970" d="M118.45,-74.064C140.9659,-80.3149 171.0375,-88.6634 197.7141,-96.0694"/>
<polygon fill="#191970" stroke="#191970" points="196.7966,-99.4469 207.3684,-98.7496 198.6691,-92.702 196.7966,-99.4469"/>
</g>
<!-- Node4 -->
<g id="node4" class="node">
<title>Node4</title>
<g id="a_node4"><a xlink:href="namespacemom__error__handler.html#a1c462df7b61f1296407b4af51dfeceab" target="_top" xlink:title="This provides a convenient interface for writing an informative comment.">
<polygon fill="#ffffff" stroke="#000000" points="207.5,-49.5 207.5,-79.5 313.5,-79.5 313.5,-49.5 207.5,-49.5"/>
<text text-anchor="start" x="215.5" y="-67.5" font-family="Helvetica,sans-Serif" font-size="10.00" fill="#000000">mom_error_handler::</text>
<text text-anchor="middle" x="260.5" y="-56.5" font-family="Helvetica,sans-Serif" font-size="10.00" fill="#000000">mom_mesg</text>
</a>
</g>
</g>
<!-- Node1&#45;&gt;Node4 -->
<g id="edge3" class="edge">
<title>Node1&#45;&gt;Node4</title>
<path fill="none" stroke="#191970" d="M168.1146,-64.5C177.8952,-64.5 187.7436,-64.5 197.178,-64.5"/>
<polygon fill="#191970" stroke="#191970" points="197.23,-68.0001 207.23,-64.5 197.2299,-61.0001 197.23,-68.0001"/>
</g>
<!-- Node5 -->
<g id="node5" class="node">
<title>Node5</title>
<g id="a_node5"><a xlink:href="namespacemom__string__functions.html#af18b819f6c6a917c57b9690d0580f642" target="_top" xlink:title="Returns a directory name that is terminated with a &quot;/&quot; or &quot;./&quot; if the argument is an empty string.">
<polygon fill="#ffffff" stroke="#000000" points="204,-.5 204,-30.5 317,-30.5 317,-.5 204,-.5"/>
<text text-anchor="start" x="212" y="-18.5" font-family="Helvetica,sans-Serif" font-size="10.00" fill="#000000">mom_string_functions</text>
<text text-anchor="middle" x="260.5" y="-7.5" font-family="Helvetica,sans-Serif" font-size="10.00" fill="#000000">::slasher</text>
</a>
</g>
</g>
<!-- Node1&#45;&gt;Node5 -->
<g id="edge5" class="edge">
<title>Node1&#45;&gt;Node5</title>
<path fill="none" stroke="#191970" d="M118.45,-54.936C140.6003,-48.7866 170.0629,-40.6072 196.4119,-33.2922"/>
<polygon fill="#191970" stroke="#191970" points="197.637,-36.5845 206.3362,-30.537 195.7644,-29.8396 197.637,-36.5845"/>
</g>
<!-- Node3 -->
<g id="node3" class="node">
<title>Node3</title>
<g id="a_node3"><a xlink:href="namespacemom__error__handler.html#ad5f00a53059c72fe2332d1436c80ca71" target="_top" xlink:title="This returns .true. if the current PE is the root PE.">
<polygon fill="#ffffff" stroke="#000000" points="353,-73.5 353,-103.5 459,-103.5 459,-73.5 353,-73.5"/>
<text text-anchor="start" x="361" y="-91.5" font-family="Helvetica,sans-Serif" font-size="10.00" fill="#000000">mom_error_handler::</text>
<text text-anchor="middle" x="406" y="-80.5" font-family="Helvetica,sans-Serif" font-size="10.00" fill="#000000">is_root_pe</text>
</a>
</g>
</g>
<!-- Node2&#45;&gt;Node3 -->
<g id="edge2" class="edge">
<title>Node2&#45;&gt;Node3</title>
<path fill="none" stroke="#191970" d="M313.8526,-104.3329C323.243,-102.7194 333.0986,-101.026 342.7287,-99.3714"/>
<polygon fill="#191970" stroke="#191970" points="343.3909,-102.8089 352.6538,-97.666 342.2055,-95.91 343.3909,-102.8089"/>
</g>
<!-- Node4&#45;&gt;Node3 -->
<g id="edge4" class="edge">
<title>Node4&#45;&gt;Node3</title>
<path fill="none" stroke="#191970" d="M313.8526,-73.3004C323.243,-74.8494 333.0986,-76.475 342.7287,-78.0635"/>
<polygon fill="#191970" stroke="#191970" points="342.2175,-81.5264 352.6538,-79.7006 343.3568,-74.6197 342.2175,-81.5264"/>
</g>
</g>
</svg>
