<?xml version="1.0" encoding="UTF-8" standalone="no"?>
<!DOCTYPE svg PUBLIC "-//W3C//DTD SVG 1.1//EN"
 "http://www.w3.org/Graphics/SVG/1.1/DTD/svg11.dtd">
<!-- Generated by graphviz version 2.40.1 (20161225.0304)
 -->
<!-- Title: mom_diag_mediator::query_averaging_enabled Pages: 1 -->
<!--zoomable 321 -->
<svg id="main" version="1.1" xmlns="http://www.w3.org/2000/svg" xmlns:xlink="http://www.w3.org/1999/xlink" xml:space="preserve" onload="init(evt)">
<style type="text/css"><![CDATA[
.edge:hover path { stroke: red; }
.edge:hover polygon { stroke: red; fill: red; }
]]></style>
<script type="text/javascript"><![CDATA[
var edges = document.getElementsByTagName('g');
if (edges && edges.length) {
  for (var i=0;i<edges.length;i++) {
    if (edges[i].id.substr(0,4)=='edge') {
      edges[i].setAttribute('class','edge');
    }
  }
}
]]></script>
        <defs>
                <circle id="rim" cx="0" cy="0" r="7"/>
                <circle id="rim2" cx="0" cy="0" r="3.5"/>
                <g id="zoomPlus">
                        <use xlink:href="#rim" fill="#404040">
                                <set attributeName="fill" to="#808080" begin="zoomplus.mouseover" end="zoomplus.mouseout"/>
                        </use>
                        <path d="M-4,0h8M0,-4v8" fill="none" stroke="white" stroke-width="1.5" pointer-events="none"/>
                </g>
                <g id="zoomMin">
                        <use xlink:href="#rim" fill="#404040">
                                <set attributeName="fill" to="#808080" begin="zoomminus.mouseover" end="zoomminus.mouseout"/>
                        </use>
                        <path d="M-4,0h8" fill="none" stroke="white" stroke-width="1.5" pointer-events="none"/>
                </g>
                <g id="dirArrow">
                        <path fill="none" stroke="white" stroke-width="1.5" d="M0,-3.0v7 M-2.5,-0.5L0,-3.0L2.5,-0.5"/>
                </g>
               <g id="resetDef">
                       <use xlink:href="#rim2" fill="#404040">
                               <set attributeName="fill" to="#808080" begin="reset.mouseover" end="reset.mouseout"/>
                       </use>
               </g>
        </defs>

<script type="text/javascript">
var viewWidth = 1014;
var viewHeight = 321;
var sectionId = 'dynsection-54';
</script>
<script xlink:href="svgpan.js"/>
<svg id="graph" class="graph">
<g id="viewport">
<title>mom_diag_mediator::query_averaging_enabled</title>
<polygon fill="#ffffff" stroke="transparent" points="-4,4 -4,-316.5 1010,-316.5 1010,4 -4,4"/>
<!-- Node1 -->
<g id="node1" class="node">
<title>Node1</title>
<g id="a_node1"><a xlink:title="Call this subroutine to determine whether the averaging is currently enabled. .true....">
<polygon fill="#bfbfbf" stroke="#000000" points="866,-179 866,-209 1006,-209 1006,-179 866,-179"/>
<text text-anchor="start" x="874" y="-197" font-family="Helvetica,sans-Serif" font-size="10.00" fill="#000000">mom_diag_mediator::</text>
<text text-anchor="middle" x="936" y="-186" font-family="Helvetica,sans-Serif" font-size="10.00" fill="#000000">query_averaging_enabled</text>
</a>
</g>
</g>
<!-- Node2 -->
<g id="node2" class="node">
<title>Node2</title>
<g id="a_node2"><a xlink:href="namespacemom__lateral__mixing__coeffs.html#a8652c5651033573cfd6f09b789d64713" target="_top" xlink:title="Calculates and stores the non&#45;dimensional resolution functions.">
<polygon fill="#ffffff" stroke="#000000" points="365.5,-183.5 365.5,-224.5 475.5,-224.5 475.5,-183.5 365.5,-183.5"/>
<text text-anchor="start" x="373.5" y="-212.5" font-family="Helvetica,sans-Serif" font-size="10.00" fill="#000000">mom_lateral_mixing</text>
<text text-anchor="start" x="373.5" y="-201.5" font-family="Helvetica,sans-Serif" font-size="10.00" fill="#000000">_coeffs::calc_resoln</text>
<text text-anchor="middle" x="420.5" y="-190.5" font-family="Helvetica,sans-Serif" font-size="10.00" fill="#000000">_function</text>
</a>
</g>
</g>
<!-- Node1&#45;&gt;Node2 -->
<g id="edge1" class="edge">
<title>Node1&#45;&gt;Node2</title>
<path fill="none" stroke="#191970" d="M855.6511,-195.5587C750.0162,-197.6078 567.1705,-201.1548 475.8037,-202.9272"/>
<polygon fill="#191970" stroke="#191970" points="856.0107,-199.0524 865.9409,-195.3591 855.8749,-192.0538 856.0107,-199.0524"/>
</g>
<!-- Node8 -->
<g id="node8" class="node">
<title>Node8</title>
<g id="a_node8"><a xlink:href="namespacemom__lateral__mixing__coeffs.html#a90d17b7e05aab37752c8d9061de29170" target="_top" xlink:title="Calculates and stores functions of isopycnal slopes, e.g. Sx, Sy, S*N, mostly used in the Visbeck et ...">
<polygon fill="#ffffff" stroke="#000000" points="534.5,-.5 534.5,-41.5 644.5,-41.5 644.5,-.5 534.5,-.5"/>
<text text-anchor="start" x="542.5" y="-29.5" font-family="Helvetica,sans-Serif" font-size="10.00" fill="#000000">mom_lateral_mixing</text>
<text text-anchor="start" x="542.5" y="-18.5" font-family="Helvetica,sans-Serif" font-size="10.00" fill="#000000">_coeffs::calc_slope</text>
<text text-anchor="middle" x="589.5" y="-7.5" font-family="Helvetica,sans-Serif" font-size="10.00" fill="#000000">_functions</text>
</a>
</g>
</g>
<!-- Node1&#45;&gt;Node8 -->
<g id="edge8" class="edge">
<title>Node1&#45;&gt;Node8</title>
<path fill="none" stroke="#191970" d="M906.0134,-173.3734C885.2712,-159.6721 856.703,-141.8993 830,-129 771.6357,-100.8062 749.711,-110.3871 693,-79 675.2652,-69.1846 674.3894,-61.4151 657,-51 651.4992,-47.7054 645.5721,-44.5533 639.5953,-41.6138"/>
<polygon fill="#191970" stroke="#191970" points="904.1353,-176.3279 914.3954,-178.97 908.0224,-170.5063 904.1353,-176.3279"/>
</g>
<!-- Node9 -->
<g id="node9" class="node">
<title>Node9</title>
<g id="a_node9"><a xlink:href="namespacemom__lateral__mixing__coeffs.html#ae7965329069235d5ae10f0700504ce20" target="_top" xlink:title="Calculates factors used when setting diffusivity coefficients similar to Visbeck et al.">
<polygon fill="#ffffff" stroke="#000000" points="704,-28.5 704,-69.5 819,-69.5 819,-28.5 704,-28.5"/>
<text text-anchor="start" x="712" y="-57.5" font-family="Helvetica,sans-Serif" font-size="10.00" fill="#000000">mom_lateral_mixing</text>
<text text-anchor="start" x="712" y="-46.5" font-family="Helvetica,sans-Serif" font-size="10.00" fill="#000000">_coeffs::calc_visbeck</text>
<text text-anchor="middle" x="761.5" y="-35.5" font-family="Helvetica,sans-Serif" font-size="10.00" fill="#000000">_coeffs</text>
</a>
</g>
</g>
<!-- Node1&#45;&gt;Node9 -->
<g id="edge9" class="edge">
<title>Node1&#45;&gt;Node9</title>
<path fill="none" stroke="#191970" d="M915.1291,-171.3774C894.5702,-149.7276 861.7218,-116.7911 830,-92 819.8216,-84.0454 808.1121,-76.2547 797.2866,-69.5375"/>
<polygon fill="#191970" stroke="#191970" points="912.7198,-173.9243 922.1225,-178.807 917.8169,-169.1264 912.7198,-173.9243"/>
</g>
<!-- Node10 -->
<g id="node10" class="node">
<title>Node10</title>
<g id="a_node10"><a xlink:href="namespacemom__forcing__type.html#a44a9dacaf67968ab9a0e625c4d890680" target="_top" xlink:title="Offer buoyancy forcing fields for diagnostics for those fields registered as part of register_forcing...">
<polygon fill="#ffffff" stroke="#000000" points="179,-282 179,-312 319,-312 319,-282 179,-282"/>
<text text-anchor="start" x="187" y="-300" font-family="Helvetica,sans-Serif" font-size="10.00" fill="#000000">mom_forcing_type::forcing</text>
<text text-anchor="middle" x="249" y="-289" font-family="Helvetica,sans-Serif" font-size="10.00" fill="#000000">_diagnostics</text>
</a>
</g>
</g>
<!-- Node1&#45;&gt;Node10 -->
<g id="edge11" class="edge">
<title>Node1&#45;&gt;Node10</title>
<path fill="none" stroke="#191970" d="M889.7515,-212.6567C871.4149,-219.3867 849.9736,-226.4396 830,-231 648.6377,-272.4088 429.2174,-288.3534 319.1543,-294.0716"/>
<polygon fill="#191970" stroke="#191970" points="891.174,-215.8614 899.3107,-209.0758 888.7184,-209.3063 891.174,-215.8614"/>
</g>
<!-- Node11 -->
<g id="node11" class="node">
<title>Node11</title>
<g id="a_node11"><a xlink:href="namespacemom__forcing__type.html#a82044f26f452bedcb3fce9a02a636934" target="_top" xlink:title="Offer mechanical forcing fields for diagnostics for those fields registered as part of register_forci...">
<polygon fill="#ffffff" stroke="#000000" points="182,-233 182,-263 316,-263 316,-233 182,-233"/>
<text text-anchor="start" x="190" y="-251" font-family="Helvetica,sans-Serif" font-size="10.00" fill="#000000">mom_forcing_type::mech</text>
<text text-anchor="middle" x="249" y="-240" font-family="Helvetica,sans-Serif" font-size="10.00" fill="#000000">_forcing_diags</text>
</a>
</g>
</g>
<!-- Node1&#45;&gt;Node11 -->
<g id="edge15" class="edge">
<title>Node1&#45;&gt;Node11</title>
<path fill="none" stroke="#191970" d="M855.8207,-207.6601C847.1214,-208.903 838.3858,-210.0493 830,-211 644.7085,-232.0073 424.7184,-241.9528 316.2873,-245.8696"/>
<polygon fill="#191970" stroke="#191970" points="856.6095,-211.0818 865.9931,-206.1626 855.5899,-204.1564 856.6095,-211.0818"/>
</g>
<!-- Node12 -->
<g id="node12" class="node">
<title>Node12</title>
<g id="a_node12"><a xlink:href="namespacemom__opacity.html#aefadc7465f74c0cab731cf1adf5f3a57" target="_top" xlink:title="This sets the opacity of sea water based based on one of several different schemes.">
<polygon fill="#ffffff" stroke="#000000" points="693,-138.5 693,-157.5 830,-157.5 830,-138.5 693,-138.5"/>
<text text-anchor="middle" x="761.5" y="-145.5" font-family="Helvetica,sans-Serif" font-size="10.00" fill="#000000">mom_opacity::set_opacity</text>
</a>
</g>
</g>
<!-- Node1&#45;&gt;Node12 -->
<g id="edge19" class="edge">
<title>Node1&#45;&gt;Node12</title>
<path fill="none" stroke="#191970" d="M868.9807,-176.333C844.7186,-169.9373 818.2476,-162.9592 797.6466,-157.5286"/>
<polygon fill="#191970" stroke="#191970" points="868.3003,-179.7732 878.8622,-178.9379 870.0847,-173.0044 868.3003,-179.7732"/>
</g>
<!-- Node3 -->
<g id="node3" class="node">
<title>Node3</title>
<g id="a_node3"><a xlink:href="namespacemom.html#a972730596703580d4646320f2c9085a5" target="_top" xlink:title="This subroutine orchestrates the time stepping of MOM. The adiabatic dynamics are stepped by calls to...">
<polygon fill="#ffffff" stroke="#000000" points="203,-156.5 203,-175.5 295,-175.5 295,-156.5 203,-156.5"/>
<text text-anchor="middle" x="249" y="-163.5" font-family="Helvetica,sans-Serif" font-size="10.00" fill="#000000">mom::step_mom</text>
</a>
</g>
</g>
<!-- Node2&#45;&gt;Node3 -->
<g id="edge2" class="edge">
<title>Node2&#45;&gt;Node3</title>
<path fill="none" stroke="#191970" d="M355.3945,-189.5743C334.2327,-184.8854 311.2875,-179.8013 292.1418,-175.5591"/>
<polygon fill="#191970" stroke="#191970" points="354.7719,-193.0212 365.2923,-191.7674 356.2863,-186.1869 354.7719,-193.0212"/>
</g>
<!-- Node5 -->
<g id="node5" class="node">
<title>Node5</title>
<g id="a_node5"><a xlink:href="namespacemom.html#ade4f7557fcda73ffc12284d3cecf4182" target="_top" xlink:title="step_offline is the main driver for running tracers offline in MOM6. This has been primarily develope...">
<polygon fill="#ffffff" stroke="#000000" points="200,-194.5 200,-213.5 298,-213.5 298,-194.5 200,-194.5"/>
<text text-anchor="middle" x="249" y="-201.5" font-family="Helvetica,sans-Serif" font-size="10.00" fill="#000000">mom::step_offline</text>
</a>
</g>
</g>
<!-- Node2&#45;&gt;Node5 -->
<g id="edge4" class="edge">
<title>Node2&#45;&gt;Node5</title>
<path fill="none" stroke="#191970" d="M355.2176,-204C336.2331,-204 315.8271,-204 298.0248,-204"/>
<polygon fill="#191970" stroke="#191970" points="355.2923,-207.5001 365.2923,-204 355.2923,-200.5001 355.2923,-207.5001"/>
</g>
<!-- Node4 -->
<g id="node4" class="node">
<title>Node4</title>
<g id="a_node4"><a xlink:href="MOM__driver_8F90.html#a08fffeb2d8e8acbf9ed4609be6d258c6" target="_top" xlink:title=" ">
<polygon fill="#ffffff" stroke="#000000" points="37.5,-194.5 37.5,-213.5 105.5,-213.5 105.5,-194.5 37.5,-194.5"/>
<text text-anchor="middle" x="71.5" y="-201.5" font-family="Helvetica,sans-Serif" font-size="10.00" fill="#000000">mom_main</text>
</a>
</g>
</g>
<!-- Node3&#45;&gt;Node4 -->
<g id="edge3" class="edge">
<title>Node3&#45;&gt;Node4</title>
<path fill="none" stroke="#191970" d="M194.2392,-177.7234C165.3128,-183.9161 130.7118,-191.3237 105.6318,-196.6929"/>
<polygon fill="#191970" stroke="#191970" points="195.1635,-181.1049 204.2093,-175.589 193.6981,-174.26 195.1635,-181.1049"/>
</g>
<!-- Node5&#45;&gt;Node4 -->
<g id="edge5" class="edge">
<title>Node5&#45;&gt;Node4</title>
<path fill="none" stroke="#191970" d="M189.4832,-204C161.5424,-204 129.25,-204 105.5203,-204"/>
<polygon fill="#191970" stroke="#191970" points="189.5564,-207.5001 199.5564,-204 189.5563,-200.5001 189.5564,-207.5001"/>
</g>
<!-- Node6 -->
<g id="node6" class="node">
<title>Node6</title>
<g id="a_node6"><a xlink:href="namespacemom__ocean__model__mct.html#a422ba42ca07c0bf28ec5113aba4f1e96" target="_top" xlink:title="update_ocean_model uses the forcing in Ice_ocean_boundary to advance the ocean model&#39;s state from the...">
<polygon fill="#ffffff" stroke="#000000" points="6,-233 6,-263 137,-263 137,-233 6,-233"/>
<text text-anchor="start" x="14" y="-251" font-family="Helvetica,sans-Serif" font-size="10.00" fill="#000000">mom_ocean_model_mct</text>
<text text-anchor="middle" x="71.5" y="-240" font-family="Helvetica,sans-Serif" font-size="10.00" fill="#000000">::update_ocean_model</text>
</a>
</g>
</g>
<!-- Node5&#45;&gt;Node6 -->
<g id="edge6" class="edge">
<title>Node5&#45;&gt;Node6</title>
<path fill="none" stroke="#191970" d="M200.7723,-215.955C179.6573,-221.1892 154.6455,-227.3893 132.275,-232.9346"/>
<polygon fill="#191970" stroke="#191970" points="201.6211,-219.3507 210.4851,-213.5473 199.9368,-212.5563 201.6211,-219.3507"/>
</g>
<!-- Node7 -->
<g id="node7" class="node">
<title>Node7</title>
<g id="a_node7"><a xlink:href="namespacemom__ocean__model__nuopc.html#a02a87b4944febcc6828c55e8e4375e62" target="_top" xlink:title="update_ocean_model uses the forcing in Ice_ocean_boundary to advance the ocean model&#39;s state from the...">
<polygon fill="#ffffff" stroke="#000000" points="0,-282 0,-312 143,-312 143,-282 0,-282"/>
<text text-anchor="start" x="8" y="-300" font-family="Helvetica,sans-Serif" font-size="10.00" fill="#000000">mom_ocean_model_nuopc</text>
<text text-anchor="middle" x="71.5" y="-289" font-family="Helvetica,sans-Serif" font-size="10.00" fill="#000000">::update_ocean_model</text>
</a>
</g>
</g>
<!-- Node5&#45;&gt;Node7 -->
<g id="edge7" class="edge">
<title>Node5&#45;&gt;Node7</title>
<path fill="none" stroke="#191970" d="M190.2474,-217.5413C186.2971,-219.4231 182.5019,-221.5643 179,-224 156.8151,-239.4306 164.8277,-257.0682 143,-273 138.3464,-276.3966 133.1804,-279.3346 127.8154,-281.8713"/>
<polygon fill="#191970" stroke="#191970" points="191.8006,-220.6857 199.6812,-213.6042 189.1046,-214.2257 191.8006,-220.6857"/>
</g>
<!-- Node9&#45;&gt;Node8 -->
<g id="edge10" class="edge">
<title>Node9&#45;&gt;Node8</title>
<path fill="none" stroke="#191970" d="M693.7734,-37.9747C677.5288,-35.3303 660.3722,-32.5373 644.7695,-29.9974"/>
<polygon fill="#191970" stroke="#191970" points="693.3155,-41.4462 703.748,-39.5985 694.4403,-34.5371 693.3155,-41.4462"/>
</g>
<!-- Node10&#45;&gt;Node4 -->
<g id="edge12" class="edge">
<title>Node10&#45;&gt;Node4</title>
<path fill="none" stroke="#191970" d="M185.3885,-277.2327C183.1768,-275.907 181.0382,-274.4977 179,-273 157.2238,-256.9979 165.2276,-239.369 143,-224 131.9738,-216.3761 118.1061,-211.6458 105.5254,-208.7163"/>
<polygon fill="#191970" stroke="#191970" points="183.7517,-280.3263 194.2228,-281.9409 187.044,-274.1489 183.7517,-280.3263"/>
</g>
<!-- Node10&#45;&gt;Node6 -->
<g id="edge13" class="edge">
<title>Node10&#45;&gt;Node6</title>
<path fill="none" stroke="#191970" d="M184.4434,-279.1788C165.2788,-273.8882 144.4845,-268.1478 126.0236,-263.0516"/>
<polygon fill="#191970" stroke="#191970" points="183.725,-282.6113 194.2958,-281.8986 185.5877,-275.8637 183.725,-282.6113"/>
</g>
<!-- Node10&#45;&gt;Node7 -->
<g id="edge14" class="edge">
<title>Node10&#45;&gt;Node7</title>
<path fill="none" stroke="#191970" d="M168.5866,-297C160.116,-297 151.5431,-297 143.1804,-297"/>
<polygon fill="#191970" stroke="#191970" points="168.8473,-300.5001 178.8473,-297 168.8473,-293.5001 168.8473,-300.5001"/>
</g>
<!-- Node11&#45;&gt;Node4 -->
<g id="edge16" class="edge">
<title>Node11&#45;&gt;Node4</title>
<path fill="none" stroke="#191970" d="M178.554,-230.5373C153.4818,-224.3222 126.372,-217.6021 105.7065,-212.4794"/>
<polygon fill="#191970" stroke="#191970" points="177.8626,-233.9718 188.411,-232.9808 179.5469,-227.1775 177.8626,-233.9718"/>
</g>
<!-- Node11&#45;&gt;Node6 -->
<g id="edge17" class="edge">
<title>Node11&#45;&gt;Node6</title>
<path fill="none" stroke="#191970" d="M171.8439,-248C160.3058,-248 148.5018,-248 137.2299,-248"/>
<polygon fill="#191970" stroke="#191970" points="171.8949,-251.5001 181.8949,-248 171.8948,-244.5001 171.8949,-251.5001"/>
</g>
<!-- Node11&#45;&gt;Node7 -->
<g id="edge18" class="edge">
<title>Node11&#45;&gt;Node7</title>
<path fill="none" stroke="#191970" d="M184.4434,-265.8212C165.2788,-271.1118 144.4845,-276.8522 126.0236,-281.9484"/>
<polygon fill="#191970" stroke="#191970" points="185.5877,-269.1363 194.2958,-263.1014 183.725,-262.3887 185.5877,-269.1363"/>
</g>
<!-- Node13 -->
<g id="node13" class="node">
<title>Node13</title>
<g id="a_node13"><a xlink:href="namespacemom__diabatic__driver.html#a9005de9f3ad26b32de53e3cd9826b9b9" target="_top" xlink:title="This subroutine imposes the diapycnal mass fluxes and the accompanying diapycnal advection of momentu...">
<polygon fill="#ffffff" stroke="#000000" points="532.5,-159 532.5,-189 646.5,-189 646.5,-159 532.5,-159"/>
<text text-anchor="start" x="540.5" y="-177" font-family="Helvetica,sans-Serif" font-size="10.00" fill="#000000">mom_diabatic_driver</text>
<text text-anchor="middle" x="589.5" y="-166" font-family="Helvetica,sans-Serif" font-size="10.00" fill="#000000">::diabatic</text>
</a>
</g>
</g>
<!-- Node12&#45;&gt;Node13 -->
<g id="edge20" class="edge">
<title>Node12&#45;&gt;Node13</title>
<path fill="none" stroke="#191970" d="M688.3614,-159.0558C674.3914,-161.1676 659.9581,-163.3494 646.5812,-165.3714"/>
<polygon fill="#191970" stroke="#191970" points="689.0657,-162.4892 698.4302,-157.5338 688.0194,-155.5679 689.0657,-162.4892"/>
</g>
<!-- Node14 -->
<g id="node14" class="node">
<title>Node14</title>
<g id="a_node14"><a xlink:href="namespacemom__diabatic__driver.html#a9cdc6d13fb212778da2d58f286528fde" target="_top" xlink:title="Imposes the diapycnal mass fluxes and the accompanying diapycnal advection of momentum and tracers us...">
<polygon fill="#ffffff" stroke="#000000" points="532.5,-110 532.5,-140 646.5,-140 646.5,-110 532.5,-110"/>
<text text-anchor="start" x="540.5" y="-128" font-family="Helvetica,sans-Serif" font-size="10.00" fill="#000000">mom_diabatic_driver</text>
<text text-anchor="middle" x="589.5" y="-117" font-family="Helvetica,sans-Serif" font-size="10.00" fill="#000000">::legacy_diabatic</text>
</a>
</g>
</g>
<!-- Node12&#45;&gt;Node14 -->
<g id="edge21" class="edge">
<title>Node12&#45;&gt;Node14</title>
<path fill="none" stroke="#191970" d="M682.4492,-137.4293C670.3691,-135.8139 658.105,-134.1739 646.6186,-132.6379"/>
<polygon fill="#191970" stroke="#191970" points="682.1564,-140.9212 692.5321,-138.7775 683.0842,-133.9829 682.1564,-140.9212"/>
</g>
<!-- Node16 -->
<g id="node16" class="node">
<title>Node16</title>
<g id="a_node16"><a xlink:href="namespacemom__offline__main.html#aaef35c02f93931567c41ae8bc0544bdd" target="_top" xlink:title="The vertical/diabatic driver for offline tracers. First the eatr/ebtr associated with the interpolate...">
<polygon fill="#ffffff" stroke="#000000" points="522,-61 522,-91 657,-91 657,-61 522,-61"/>
<text text-anchor="start" x="530" y="-79" font-family="Helvetica,sans-Serif" font-size="10.00" fill="#000000">mom_offline_main::offline</text>
<text text-anchor="middle" x="589.5" y="-68" font-family="Helvetica,sans-Serif" font-size="10.00" fill="#000000">_diabatic_ale</text>
</a>
</g>
</g>
<!-- Node12&#45;&gt;Node16 -->
<g id="edge24" class="edge">
<title>Node12&#45;&gt;Node16</title>
<path fill="none" stroke="#191970" d="M727.1964,-134.7421C716.1778,-130.2808 703.9845,-125.1288 693,-120 676.6072,-112.346 673.5181,-108.3798 657,-101 649.2414,-97.5337 640.8419,-94.1449 632.6896,-91.0371"/>
<polygon fill="#191970" stroke="#191970" points="725.9324,-138.006 736.5172,-138.4669 728.53,-131.5058 725.9324,-138.006"/>
</g>
<!-- Node15 -->
<g id="node15" class="node">
<title>Node15</title>
<g id="a_node15"><a xlink:href="namespacemom.html#a1a81ea749a309f10f5c3c7a17efa3606" target="_top" xlink:title="MOM_step_thermo orchestrates the thermodynamic time stepping and vertical remapping,...">
<polygon fill="#ffffff" stroke="#000000" points="355,-129.5 355,-148.5 486,-148.5 486,-129.5 355,-129.5"/>
<text text-anchor="middle" x="420.5" y="-136.5" font-family="Helvetica,sans-Serif" font-size="10.00" fill="#000000">mom::step_mom_thermo</text>
</a>
</g>
</g>
<!-- Node14&#45;&gt;Node15 -->
<g id="edge22" class="edge">
<title>Node14&#45;&gt;Node15</title>
<path fill="none" stroke="#191970" d="M522.027,-130.5895C510.1905,-131.57 497.8891,-132.5891 486.1044,-133.5653"/>
<polygon fill="#191970" stroke="#191970" points="522.6074,-134.0535 532.2843,-129.7398 522.0295,-127.0774 522.6074,-134.0535"/>
</g>
<!-- Node15&#45;&gt;Node3 -->
<g id="edge23" class="edge">
<title>Node15&#45;&gt;Node3</title>
<path fill="none" stroke="#191970" d="M350.1567,-150.0745C331.6168,-152.9933 312.0834,-156.0685 295.1783,-158.7299"/>
<polygon fill="#191970" stroke="#191970" points="350.7015,-153.5319 360.0355,-148.5192 349.6128,-146.617 350.7015,-153.5319"/>
</g>
</g>
</svg>
        <g id="navigator" transform="translate(0 0)" fill="#404254">
                <rect fill="#f2f5e9" fill-opacity="0.5" stroke="#606060" stroke-width=".5" x="0" y="0" width="60" height="60"/>
                <use id="zoomplus" xlink:href="#zoomPlus" x="17" y="9" onmousedown="handleZoom(evt,'in')"/>
                <use id="zoomminus" xlink:href="#zoomMin" x="42" y="9" onmousedown="handleZoom(evt,'out')"/>
                <use id="reset" xlink:href="#resetDef" x="30" y="36" onmousedown="handleReset()"/>
                <g id="arrowUp" xlink:href="#dirArrow" transform="translate(30 24)" onmousedown="handlePan(0,-1)">
                  <use xlink:href="#rim" fill="#404040">
                        <set attributeName="fill" to="#808080" begin="arrowUp.mouseover" end="arrowUp.mouseout"/>
                  </use>
                  <path fill="none" stroke="white" stroke-width="1.5" d="M0,-3.0v7 M-2.5,-0.5L0,-3.0L2.5,-0.5"/>
                </g>
                <g id="arrowRight" xlink:href="#dirArrow" transform="rotate(90) translate(36 -43)" onmousedown="handlePan(1,0)">
                  <use xlink:href="#rim" fill="#404040">
                        <set attributeName="fill" to="#808080" begin="arrowRight.mouseover" end="arrowRight.mouseout"/>
                  </use>
                  <path fill="none" stroke="white" stroke-width="1.5" d="M0,-3.0v7 M-2.5,-0.5L0,-3.0L2.5,-0.5"/>
                </g>
                <g id="arrowDown" xlink:href="#dirArrow" transform="rotate(180) translate(-30 -48)" onmousedown="handlePan(0,1)">
                  <use xlink:href="#rim" fill="#404040">
                        <set attributeName="fill" to="#808080" begin="arrowDown.mouseover" end="arrowDown.mouseout"/>
                  </use>
                  <path fill="none" stroke="white" stroke-width="1.5" d="M0,-3.0v7 M-2.5,-0.5L0,-3.0L2.5,-0.5"/>
                </g>
                <g id="arrowLeft" xlink:href="#dirArrow" transform="rotate(270) translate(-36 17)" onmousedown="handlePan(-1,0)">
                  <use xlink:href="#rim" fill="#404040">
                        <set attributeName="fill" to="#808080" begin="arrowLeft.mouseover" end="arrowLeft.mouseout"/>
                  </use>
                  <path fill="none" stroke="white" stroke-width="1.5" d="M0,-3.0v7 M-2.5,-0.5L0,-3.0L2.5,-0.5"/>
                </g>
        </g>
        <svg viewBox="0 0 15 15" width="100%" height="30px" preserveAspectRatio="xMaxYMin meet">
         <g id="arrow_out" transform="scale(0.3 0.3)">
          <a xlink:href="namespacemom__diag__mediator_a0be5d1cbc6c6f8f63950ce7d9bc6455a_icgraph_org.svg" target="_base">
           <rect id="button" ry="5" rx="5" y="6" x="6" height="38" width="38"
                fill="#f2f5e9" fill-opacity="0.5" stroke="#606060" stroke-width="1.0"/>
           <path id="arrow"
             d="M 11.500037,31.436501 C 11.940474,20.09759 22.043105,11.32322 32.158766,21.979434 L 37.068811,17.246167 C 37.068811,17.246167 37.088388,32 37.088388,32 L 22.160133,31.978069 C 22.160133,31.978069 26.997745,27.140456 26.997745,27.140456 C 18.528582,18.264221 13.291696,25.230495 11.500037,31.436501 z"
             style="fill:#404040;"/>
          </a>
         </g>
        </svg>
</svg>
