<?xml version="1.0" encoding="UTF-8" standalone="no"?>
<!DOCTYPE svg PUBLIC "-//W3C//DTD SVG 1.1//EN"
 "http://www.w3.org/Graphics/SVG/1.1/DTD/svg11.dtd">
<!-- Generated by graphviz version 2.40.1 (20161225.0304)
 -->
<!-- Title: mom_document::doc_module Pages: 1 -->
<svg width="811pt" height="103pt"
 viewBox="0.00 0.00 811.00 102.50" xmlns="http://www.w3.org/2000/svg" xmlns:xlink="http://www.w3.org/1999/xlink">
<g id="graph0" class="graph" transform="scale(1 1) rotate(0) translate(4 98.5)">
<title>mom_document::doc_module</title>
<polygon fill="#ffffff" stroke="transparent" points="-4,4 -4,-98.5 807,-98.5 807,4 -4,4"/>
<!-- Node1 -->
<g id="node1" class="node">
<title>Node1</title>
<g id="a_node1"><a xlink:title="This subroutine handles the module documentation.">
<polygon fill="#bfbfbf" stroke="#000000" points="0,-44.5 0,-63.5 145,-63.5 145,-44.5 0,-44.5"/>
<text text-anchor="middle" x="72.5" y="-51.5" font-family="Helvetica,sans-Serif" font-size="10.00" fill="#000000">mom_document::doc_module</text>
</a>
</g>
</g>
<!-- Node2 -->
<g id="node2" class="node">
<title>Node2</title>
<g id="a_node2"><a xlink:href="namespacemom__error__handler.html#ad5f00a53059c72fe2332d1436c80ca71" target="_top" xlink:title="This returns .true. if the current PE is the root PE.">
<polygon fill="#ffffff" stroke="#000000" points="697,-64 697,-94 803,-94 803,-64 697,-64"/>
<text text-anchor="start" x="705" y="-82" font-family="Helvetica,sans-Serif" font-size="10.00" fill="#000000">mom_error_handler::</text>
<text text-anchor="middle" x="750" y="-71" font-family="Helvetica,sans-Serif" font-size="10.00" fill="#000000">is_root_pe</text>
</a>
</g>
</g>
<!-- Node1&#45;&gt;Node2 -->
<g id="edge1" class="edge">
<title>Node1&#45;&gt;Node2</title>
<path fill="none" stroke="#191970" d="M105.8986,-63.6143C127.1907,-69.264 155.4794,-75.8903 181,-79 363.444,-101.2307 581.2435,-91.148 686.6402,-83.9787"/>
<polygon fill="#191970" stroke="#191970" points="687.0565,-87.4583 696.7898,-83.2735 686.5712,-80.4751 687.0565,-87.4583"/>
</g>
<!-- Node3 -->
<g id="node3" class="node">
<title>Node3</title>
<g id="a_node3"><a xlink:href="namespacemom__document.html#aab976b6c6c9c01833438d217fca228a4" target="_top" xlink:title="This subroutine allocates and populates a structure that controls where the documentation occurs and ...">
<polygon fill="#ffffff" stroke="#000000" points="219.5,-39 219.5,-69 332.5,-69 332.5,-39 219.5,-39"/>
<text text-anchor="start" x="227.5" y="-57" font-family="Helvetica,sans-Serif" font-size="10.00" fill="#000000">mom_document::open</text>
<text text-anchor="middle" x="276" y="-46" font-family="Helvetica,sans-Serif" font-size="10.00" fill="#000000">_doc_file</text>
</a>
</g>
</g>
<!-- Node1&#45;&gt;Node3 -->
<g id="edge2" class="edge">
<title>Node1&#45;&gt;Node3</title>
<path fill="none" stroke="#191970" d="M145.1063,-54C166.0029,-54 188.6905,-54 209.2168,-54"/>
<polygon fill="#191970" stroke="#191970" points="209.4164,-57.5001 219.4163,-54 209.4163,-50.5001 209.4164,-57.5001"/>
</g>
<!-- Node6 -->
<g id="node6" class="node">
<title>Node6</title>
<g id="a_node6"><a xlink:href="namespacemom__document.html#a249e7992a57539508d07c71c6fcabaeb" target="_top" xlink:title="This subroutine writes out the message and description to the documetation files.">
<polygon fill="#ffffff" stroke="#000000" points="181,-.5 181,-19.5 371,-19.5 371,-.5 181,-.5"/>
<text text-anchor="middle" x="276" y="-7.5" font-family="Helvetica,sans-Serif" font-size="10.00" fill="#000000">mom_document::writemessageanddesc</text>
</a>
</g>
</g>
<!-- Node1&#45;&gt;Node6 -->
<g id="edge8" class="edge">
<title>Node1&#45;&gt;Node6</title>
<path fill="none" stroke="#191970" d="M114.9896,-44.4962C135.0064,-40.046 159.2192,-34.7015 181,-30 193.6099,-27.2781 207.1716,-24.396 219.9887,-21.6928"/>
<polygon fill="#191970" stroke="#191970" points="221.0111,-25.0544 230.0758,-19.5697 219.5693,-18.2044 221.0111,-25.0544"/>
</g>
<!-- Node3&#45;&gt;Node2 -->
<g id="edge6" class="edge">
<title>Node3&#45;&gt;Node2</title>
<path fill="none" stroke="#191970" d="M332.7047,-56.9908C421.7614,-61.6878 593.8229,-70.7628 686.7602,-75.6646"/>
<polygon fill="#191970" stroke="#191970" points="686.6995,-79.1661 696.87,-76.1978 687.0683,-72.1759 686.6995,-79.1661"/>
</g>
<!-- Node4 -->
<g id="node4" class="node">
<title>Node4</title>
<g id="a_node4"><a xlink:href="namespacemom__document.html#a5f2661445a72a7d0f774677e91366db5" target="_top" xlink:title="Find an unused unit number, returning &gt;0 if found, and triggering a FATAL error if not.">
<polygon fill="#ffffff" stroke="#000000" points="407,-20 407,-50 519,-50 519,-20 407,-20"/>
<text text-anchor="start" x="415" y="-38" font-family="Helvetica,sans-Serif" font-size="10.00" fill="#000000">mom_document::find</text>
<text text-anchor="middle" x="463" y="-27" font-family="Helvetica,sans-Serif" font-size="10.00" fill="#000000">_unused_unit_number</text>
</a>
</g>
</g>
<!-- Node3&#45;&gt;Node4 -->
<g id="edge3" class="edge">
<title>Node3&#45;&gt;Node4</title>
<path fill="none" stroke="#191970" d="M332.6136,-48.2478C352.8451,-46.1922 375.8206,-43.8578 396.7891,-41.7273"/>
<polygon fill="#191970" stroke="#191970" points="397.3058,-45.1929 406.9008,-40.6999 396.5982,-38.2288 397.3058,-45.1929"/>
</g>
<!-- Node5 -->
<g id="node5" class="node">
<title>Node5</title>
<g id="a_node5"><a xlink:href="namespacemom__error__handler.html#a460cfb79a06c29fc249952c2a3710d67" target="_top" xlink:title="This provides a convenient interface for writing an mpp_error message with run&#45;time filter based on a...">
<polygon fill="#ffffff" stroke="#000000" points="555,-20 555,-50 661,-50 661,-20 555,-20"/>
<text text-anchor="start" x="563" y="-38" font-family="Helvetica,sans-Serif" font-size="10.00" fill="#000000">mom_error_handler::</text>
<text text-anchor="middle" x="608" y="-27" font-family="Helvetica,sans-Serif" font-size="10.00" fill="#000000">mom_error</text>
</a>
</g>
</g>
<!-- Node3&#45;&gt;Node5 -->
<g id="edge7" class="edge">
<title>Node3&#45;&gt;Node5</title>
<path fill="none" stroke="#191970" d="M332.6896,-41.3481C345.4685,-37.8737 358.8431,-33.7358 371,-29 387.8577,-22.4329 389.439,-14.3498 407,-10 455.3176,1.9682 469.6881,-3.2057 519,-10 530.4362,-11.5757 542.4722,-14.2396 553.8679,-17.2559"/>
<polygon fill="#191970" stroke="#191970" points="553.1148,-20.679 563.6865,-19.9786 554.9854,-13.9336 553.1148,-20.679"/>
</g>
<!-- Node4&#45;&gt;Node5 -->
<g id="edge4" class="edge">
<title>Node4&#45;&gt;Node5</title>
<path fill="none" stroke="#191970" d="M519.0608,-35C527.446,-35 536.141,-35 544.6642,-35"/>
<polygon fill="#191970" stroke="#191970" points="544.9431,-38.5001 554.9431,-35 544.9431,-31.5001 544.9431,-38.5001"/>
</g>
<!-- Node5&#45;&gt;Node2 -->
<g id="edge5" class="edge">
<title>Node5&#45;&gt;Node2</title>
<path fill="none" stroke="#191970" d="M656.4712,-50.0192C667.7696,-53.5202 679.9172,-57.2842 691.5951,-60.9027"/>
<polygon fill="#191970" stroke="#191970" points="690.6773,-64.2824 701.2652,-63.8991 692.7491,-57.596 690.6773,-64.2824"/>
</g>
</g>
</svg>
