<?xml version="1.0" encoding="UTF-8" standalone="no"?>
<!DOCTYPE svg PUBLIC "-//W3C//DTD SVG 1.1//EN"
 "http://www.w3.org/Graphics/SVG/1.1/DTD/svg11.dtd">
<!-- Generated by graphviz version 2.40.1 (20161225.0304)
 -->
<!-- Title: mom_file_parser::get_param_time Pages: 1 -->
<!--zoomable 154 -->
<svg id="main" version="1.1" xmlns="http://www.w3.org/2000/svg" xmlns:xlink="http://www.w3.org/1999/xlink" xml:space="preserve" onload="init(evt)">
<style type="text/css"><![CDATA[
.edge:hover path { stroke: red; }
.edge:hover polygon { stroke: red; fill: red; }
]]></style>
<script type="text/javascript"><![CDATA[
var edges = document.getElementsByTagName('g');
if (edges && edges.length) {
  for (var i=0;i<edges.length;i++) {
    if (edges[i].id.substr(0,4)=='edge') {
      edges[i].setAttribute('class','edge');
    }
  }
}
]]></script>
        <defs>
                <circle id="rim" cx="0" cy="0" r="7"/>
                <circle id="rim2" cx="0" cy="0" r="3.5"/>
                <g id="zoomPlus">
                        <use xlink:href="#rim" fill="#404040">
                                <set attributeName="fill" to="#808080" begin="zoomplus.mouseover" end="zoomplus.mouseout"/>
                        </use>
                        <path d="M-4,0h8M0,-4v8" fill="none" stroke="white" stroke-width="1.5" pointer-events="none"/>
                </g>
                <g id="zoomMin">
                        <use xlink:href="#rim" fill="#404040">
                                <set attributeName="fill" to="#808080" begin="zoomminus.mouseover" end="zoomminus.mouseout"/>
                        </use>
                        <path d="M-4,0h8" fill="none" stroke="white" stroke-width="1.5" pointer-events="none"/>
                </g>
                <g id="dirArrow">
                        <path fill="none" stroke="white" stroke-width="1.5" d="M0,-3.0v7 M-2.5,-0.5L0,-3.0L2.5,-0.5"/>
                </g>
               <g id="resetDef">
                       <use xlink:href="#rim2" fill="#404040">
                               <set attributeName="fill" to="#808080" begin="reset.mouseover" end="reset.mouseout"/>
                       </use>
               </g>
        </defs>

<script type="text/javascript">
var viewWidth = 735;
var viewHeight = 154;
var sectionId = 'dynsection-14';
</script>
<script xlink:href="svgpan.js"/>
<svg id="graph" class="graph">
<g id="viewport">
<title>mom_file_parser::get_param_time</title>
<polygon fill="#ffffff" stroke="transparent" points="-4,4 -4,-149.5 731,-149.5 731,4 -4,4"/>
<!-- Node1 -->
<g id="node1" class="node">
<title>Node1</title>
<g id="a_node1"><a xlink:title="This subroutine reads the value of a time&#45;type model parameter from a parameter file and logs it in d...">
<polygon fill="#bfbfbf" stroke="#000000" points="0,-76 0,-106 115,-106 115,-76 0,-76"/>
<text text-anchor="start" x="8" y="-94" font-family="Helvetica,sans-Serif" font-size="10.00" fill="#000000">mom_file_parser::get</text>
<text text-anchor="middle" x="57.5" y="-83" font-family="Helvetica,sans-Serif" font-size="10.00" fill="#000000">_param_time</text>
</a>
</g>
</g>
<!-- Node2 -->
<g id="node2" class="node">
<title>Node2</title>
<g id="a_node2"><a xlink:href="namespacemom__file__parser.html#abe5d3b5e2a4c8aeb0603c9162d7e1858" target="_top" xlink:title="This subroutine writes the value of a time&#45;type parameter to a log file, along with its name and the ...">
<polygon fill="#ffffff" stroke="#000000" points="155,-101 155,-131 269,-131 269,-101 155,-101"/>
<text text-anchor="start" x="163" y="-119" font-family="Helvetica,sans-Serif" font-size="10.00" fill="#000000">mom_file_parser::log</text>
<text text-anchor="middle" x="212" y="-108" font-family="Helvetica,sans-Serif" font-size="10.00" fill="#000000">_param_time</text>
</a>
</g>
</g>
<!-- Node1&#45;&gt;Node2 -->
<g id="edge1" class="edge">
<title>Node1&#45;&gt;Node2</title>
<path fill="none" stroke="#191970" d="M115.0301,-100.3091C124.8106,-101.8917 135.0431,-103.5474 145.0414,-105.1653"/>
<polygon fill="#191970" stroke="#191970" points="144.5056,-108.624 154.9363,-106.7664 145.6238,-101.7139 144.5056,-108.624"/>
</g>
<!-- Node4 -->
<g id="node4" class="node">
<title>Node4</title>
<g id="a_node4"><a xlink:href="namespacemom__file__parser.html#a799f1d8af038c5a64b7496018f03b590" target="_top" xlink:title="This subroutine reads the value of a time_type model parameter from a parameter file.">
<polygon fill="#ffffff" stroke="#000000" points="151,-52 151,-82 273,-82 273,-52 151,-52"/>
<text text-anchor="start" x="159" y="-70" font-family="Helvetica,sans-Serif" font-size="10.00" fill="#000000">mom_file_parser::read</text>
<text text-anchor="middle" x="212" y="-59" font-family="Helvetica,sans-Serif" font-size="10.00" fill="#000000">_param_time</text>
</a>
</g>
</g>
<!-- Node1&#45;&gt;Node4 -->
<g id="edge3" class="edge">
<title>Node1&#45;&gt;Node4</title>
<path fill="none" stroke="#191970" d="M115.0301,-82.0633C123.4165,-80.7605 132.1351,-79.4062 140.7535,-78.0674"/>
<polygon fill="#191970" stroke="#191970" points="141.4546,-81.5006 150.7988,-76.507 140.3801,-74.5835 141.4546,-81.5006"/>
</g>
<!-- Node3 -->
<g id="node3" class="node">
<title>Node3</title>
<g id="a_node3"><a xlink:href="namespacemom__file__parser.html#a4e4202d8779a697aff0f521104e38786" target="_top" xlink:title="This function converts a date into a string, valid with ticks and for dates up to year 99,...">
<polygon fill="#ffffff" stroke="#000000" points="309,-101 309,-131 444,-131 444,-101 309,-101"/>
<text text-anchor="start" x="317" y="-119" font-family="Helvetica,sans-Serif" font-size="10.00" fill="#000000">mom_file_parser::convert</text>
<text text-anchor="middle" x="376.5" y="-108" font-family="Helvetica,sans-Serif" font-size="10.00" fill="#000000">_date_to_string</text>
</a>
</g>
</g>
<!-- Node2&#45;&gt;Node3 -->
<g id="edge2" class="edge">
<title>Node2&#45;&gt;Node3</title>
<path fill="none" stroke="#191970" d="M269.0725,-116C278.5768,-116 288.5775,-116 298.4957,-116"/>
<polygon fill="#191970" stroke="#191970" points="298.7774,-119.5001 308.7773,-116 298.7773,-112.5001 298.7774,-119.5001"/>
</g>
<!-- Node5 -->
<g id="node5" class="node">
<title>Node5</title>
<g id="a_node5"><a xlink:href="namespacemom__file__parser.html#af883df6020543889b25986d6ee9701f7" target="_top" xlink:title="This subtoutine extracts the contents of lines in the param_file_type that refer to a named parameter...">
<polygon fill="#ffffff" stroke="#000000" points="319,-52 319,-82 434,-82 434,-52 319,-52"/>
<text text-anchor="start" x="327" y="-70" font-family="Helvetica,sans-Serif" font-size="10.00" fill="#000000">mom_file_parser::get</text>
<text text-anchor="middle" x="376.5" y="-59" font-family="Helvetica,sans-Serif" font-size="10.00" fill="#000000">_variable_line</text>
</a>
</g>
</g>
<!-- Node4&#45;&gt;Node5 -->
<g id="edge4" class="edge">
<title>Node4&#45;&gt;Node5</title>
<path fill="none" stroke="#191970" d="M273.2537,-67C284.7699,-67 296.8746,-67 308.5797,-67"/>
<polygon fill="#191970" stroke="#191970" points="308.7384,-70.5001 318.7384,-67 308.7383,-63.5001 308.7384,-70.5001"/>
</g>
<!-- Node6 -->
<g id="node6" class="node">
<title>Node6</title>
<g id="a_node6"><a xlink:href="namespacemom__file__parser.html#a7803aabff129cc7f56d4516bc24613f0" target="_top" xlink:title="Record that a line has been used to set a parameter.">
<polygon fill="#ffffff" stroke="#000000" points="545,-115 545,-145 662,-145 662,-115 545,-115"/>
<text text-anchor="start" x="553" y="-133" font-family="Helvetica,sans-Serif" font-size="10.00" fill="#000000">mom_file_parser::flag</text>
<text text-anchor="middle" x="603.5" y="-122" font-family="Helvetica,sans-Serif" font-size="10.00" fill="#000000">_line_as_read</text>
</a>
</g>
</g>
<!-- Node5&#45;&gt;Node6 -->
<g id="edge5" class="edge">
<title>Node5&#45;&gt;Node6</title>
<path fill="none" stroke="#191970" d="M416.982,-82.024C444.5753,-92.2381 476.6962,-104.065 480,-105 497.6714,-110.0012 517.0343,-114.4109 535.0789,-118.0791"/>
<polygon fill="#191970" stroke="#191970" points="534.4585,-121.5242 544.9488,-120.0398 535.8225,-114.6583 534.4585,-121.5242"/>
</g>
<!-- Node7 -->
<g id="node7" class="node">
<title>Node7</title>
<g id="a_node7"><a xlink:href="namespacemom__file__parser.html#a0c9bb1e76b09bc09bae5402e63bd0f99" target="_top" xlink:title="Returns true if an override warning has been issued for the variable varName.">
<polygon fill="#ffffff" stroke="#000000" points="480,-76.5 480,-95.5 727,-95.5 727,-76.5 480,-76.5"/>
<text text-anchor="middle" x="603.5" y="-83.5" font-family="Helvetica,sans-Serif" font-size="10.00" fill="#000000">mom_file_parser::overridewarninghasbeenissued</text>
</a>
</g>
</g>
<!-- Node5&#45;&gt;Node7 -->
<g id="edge6" class="edge">
<title>Node5&#45;&gt;Node7</title>
<path fill="none" stroke="#191970" d="M434.0751,-71.8191C448.0824,-72.9915 463.6046,-74.2907 479.4031,-75.613"/>
<polygon fill="#191970" stroke="#191970" points="479.5545,-79.1379 489.8117,-76.4842 480.1385,-72.1623 479.5545,-79.1379"/>
</g>
<!-- Node8 -->
<g id="node8" class="node">
<title>Node8</title>
<g id="a_node8"><a xlink:href="namespacemom__file__parser.html#a73b11b969d303b1fc0ba5235c812fd05" target="_top" xlink:title="Truncates block name (shallower level of parameter block)">
<polygon fill="#ffffff" stroke="#000000" points="521.5,-38.5 521.5,-57.5 685.5,-57.5 685.5,-38.5 521.5,-38.5"/>
<text text-anchor="middle" x="603.5" y="-45.5" font-family="Helvetica,sans-Serif" font-size="10.00" fill="#000000">mom_file_parser::popblocklevel</text>
</a>
</g>
</g>
<!-- Node5&#45;&gt;Node8 -->
<g id="edge7" class="edge">
<title>Node5&#45;&gt;Node8</title>
<path fill="none" stroke="#191970" d="M434.0751,-62.1809C457.3825,-60.2301 484.8846,-57.9282 510.8743,-55.7528"/>
<polygon fill="#191970" stroke="#191970" points="511.4577,-59.2163 521.1309,-54.8943 510.8738,-52.2407 511.4577,-59.2163"/>
</g>
<!-- Node9 -->
<g id="node9" class="node">
<title>Node9</title>
<g id="a_node9"><a xlink:href="namespacemom__file__parser.html#a58777b0faf747d59a793b4e238919dc6" target="_top" xlink:title="Extends block name (deeper level of parameter block)">
<polygon fill="#ffffff" stroke="#000000" points="519.5,-.5 519.5,-19.5 687.5,-19.5 687.5,-.5 519.5,-.5"/>
<text text-anchor="middle" x="603.5" y="-7.5" font-family="Helvetica,sans-Serif" font-size="10.00" fill="#000000">mom_file_parser::pushblocklevel</text>
</a>
</g>
</g>
<!-- Node5&#45;&gt;Node9 -->
<g id="edge8" class="edge">
<title>Node5&#45;&gt;Node9</title>
<path fill="none" stroke="#191970" d="M412.3425,-51.8349C432.0143,-44.0249 457.0157,-34.9242 480,-29 491.488,-26.039 503.7037,-23.4759 515.812,-21.276"/>
<polygon fill="#191970" stroke="#191970" points="516.6879,-24.6763 525.9393,-19.5127 515.4871,-17.78 516.6879,-24.6763"/>
</g>
</g>
</svg>
        <g id="navigator" transform="translate(0 0)" fill="#404254">
                <rect fill="#f2f5e9" fill-opacity="0.5" stroke="#606060" stroke-width=".5" x="0" y="0" width="60" height="60"/>
                <use id="zoomplus" xlink:href="#zoomPlus" x="17" y="9" onmousedown="handleZoom(evt,'in')"/>
                <use id="zoomminus" xlink:href="#zoomMin" x="42" y="9" onmousedown="handleZoom(evt,'out')"/>
                <use id="reset" xlink:href="#resetDef" x="30" y="36" onmousedown="handleReset()"/>
                <g id="arrowUp" xlink:href="#dirArrow" transform="translate(30 24)" onmousedown="handlePan(0,-1)">
                  <use xlink:href="#rim" fill="#404040">
                        <set attributeName="fill" to="#808080" begin="arrowUp.mouseover" end="arrowUp.mouseout"/>
                  </use>
                  <path fill="none" stroke="white" stroke-width="1.5" d="M0,-3.0v7 M-2.5,-0.5L0,-3.0L2.5,-0.5"/>
                </g>
                <g id="arrowRight" xlink:href="#dirArrow" transform="rotate(90) translate(36 -43)" onmousedown="handlePan(1,0)">
                  <use xlink:href="#rim" fill="#404040">
                        <set attributeName="fill" to="#808080" begin="arrowRight.mouseover" end="arrowRight.mouseout"/>
                  </use>
                  <path fill="none" stroke="white" stroke-width="1.5" d="M0,-3.0v7 M-2.5,-0.5L0,-3.0L2.5,-0.5"/>
                </g>
                <g id="arrowDown" xlink:href="#dirArrow" transform="rotate(180) translate(-30 -48)" onmousedown="handlePan(0,1)">
                  <use xlink:href="#rim" fill="#404040">
                        <set attributeName="fill" to="#808080" begin="arrowDown.mouseover" end="arrowDown.mouseout"/>
                  </use>
                  <path fill="none" stroke="white" stroke-width="1.5" d="M0,-3.0v7 M-2.5,-0.5L0,-3.0L2.5,-0.5"/>
                </g>
                <g id="arrowLeft" xlink:href="#dirArrow" transform="rotate(270) translate(-36 17)" onmousedown="handlePan(-1,0)">
                  <use xlink:href="#rim" fill="#404040">
                        <set attributeName="fill" to="#808080" begin="arrowLeft.mouseover" end="arrowLeft.mouseout"/>
                  </use>
                  <path fill="none" stroke="white" stroke-width="1.5" d="M0,-3.0v7 M-2.5,-0.5L0,-3.0L2.5,-0.5"/>
                </g>
        </g>
        <svg viewBox="0 0 15 15" width="100%" height="30px" preserveAspectRatio="xMaxYMin meet">
         <g id="arrow_out" transform="scale(0.3 0.3)">
          <a xlink:href="namespacemom__file__parser_ab433eff650ddf3ce82d97f1c8432b6a8_cgraph_org.svg" target="_base">
           <rect id="button" ry="5" rx="5" y="6" x="6" height="38" width="38"
                fill="#f2f5e9" fill-opacity="0.5" stroke="#606060" stroke-width="1.0"/>
           <path id="arrow"
             d="M 11.500037,31.436501 C 11.940474,20.09759 22.043105,11.32322 32.158766,21.979434 L 37.068811,17.246167 C 37.068811,17.246167 37.088388,32 37.088388,32 L 22.160133,31.978069 C 22.160133,31.978069 26.997745,27.140456 26.997745,27.140456 C 18.528582,18.264221 13.291696,25.230495 11.500037,31.436501 z"
             style="fill:#404040;"/>
          </a>
         </g>
        </svg>
</svg>
