<?xml version="1.0" encoding="UTF-8" standalone="no"?>
<!DOCTYPE svg PUBLIC "-//W3C//DTD SVG 1.1//EN"
 "http://www.w3.org/Graphics/SVG/1.1/DTD/svg11.dtd">
<!-- Generated by graphviz version 2.40.1 (20161225.0304)
 -->
<!-- Title: mom_time_manager::real_to_time Pages: 1 -->
<!--zoomable 264 -->
<svg id="main" version="1.1" xmlns="http://www.w3.org/2000/svg" xmlns:xlink="http://www.w3.org/1999/xlink" xml:space="preserve" onload="init(evt)">
<style type="text/css"><![CDATA[
.edge:hover path { stroke: red; }
.edge:hover polygon { stroke: red; fill: red; }
]]></style>
<script type="text/javascript"><![CDATA[
var edges = document.getElementsByTagName('g');
if (edges && edges.length) {
  for (var i=0;i<edges.length;i++) {
    if (edges[i].id.substr(0,4)=='edge') {
      edges[i].setAttribute('class','edge');
    }
  }
}
]]></script>
        <defs>
                <circle id="rim" cx="0" cy="0" r="7"/>
                <circle id="rim2" cx="0" cy="0" r="3.5"/>
                <g id="zoomPlus">
                        <use xlink:href="#rim" fill="#404040">
                                <set attributeName="fill" to="#808080" begin="zoomplus.mouseover" end="zoomplus.mouseout"/>
                        </use>
                        <path d="M-4,0h8M0,-4v8" fill="none" stroke="white" stroke-width="1.5" pointer-events="none"/>
                </g>
                <g id="zoomMin">
                        <use xlink:href="#rim" fill="#404040">
                                <set attributeName="fill" to="#808080" begin="zoomminus.mouseover" end="zoomminus.mouseout"/>
                        </use>
                        <path d="M-4,0h8" fill="none" stroke="white" stroke-width="1.5" pointer-events="none"/>
                </g>
                <g id="dirArrow">
                        <path fill="none" stroke="white" stroke-width="1.5" d="M0,-3.0v7 M-2.5,-0.5L0,-3.0L2.5,-0.5"/>
                </g>
               <g id="resetDef">
                       <use xlink:href="#rim2" fill="#404040">
                               <set attributeName="fill" to="#808080" begin="reset.mouseover" end="reset.mouseout"/>
                       </use>
               </g>
        </defs>

<script type="text/javascript">
var viewWidth = 541;
var viewHeight = 264;
var sectionId = 'dynsection-0';
</script>
<script xlink:href="svgpan.js"/>
<svg id="graph" class="graph">
<g id="viewport">
<title>mom_time_manager::real_to_time</title>
<polygon fill="#ffffff" stroke="transparent" points="-4,4 -4,-260 537,-260 537,4 -4,4"/>
<!-- Node1 -->
<g id="node1" class="node">
<title>Node1</title>
<g id="a_node1"><a xlink:title="This is an alternate implementation of the FMS function real_to_time_type that is accurate over a lar...">
<polygon fill="#bfbfbf" stroke="#000000" points="406,-115.5 406,-145.5 533,-145.5 533,-115.5 406,-115.5"/>
<text text-anchor="start" x="414" y="-133.5" font-family="Helvetica,sans-Serif" font-size="10.00" fill="#000000">mom_time_manager::real</text>
<text text-anchor="middle" x="469.5" y="-122.5" font-family="Helvetica,sans-Serif" font-size="10.00" fill="#000000">_to_time</text>
</a>
</g>
</g>
<!-- Node2 -->
<g id="node2" class="node">
<title>Node2</title>
<g id="a_node2"><a xlink:href="namespacemom__ice__shelf.html#ac8c626ae15bc80493e6bfa3fb9a6d01e" target="_top" xlink:title="Updates surface fluxes that are influenced by sub&#45;ice&#45;shelf melting.">
<polygon fill="#ffffff" stroke="#000000" points="256.5,-225.5 256.5,-255.5 360.5,-255.5 360.5,-225.5 256.5,-225.5"/>
<text text-anchor="start" x="264.5" y="-243.5" font-family="Helvetica,sans-Serif" font-size="10.00" fill="#000000">mom_ice_shelf::add</text>
<text text-anchor="middle" x="308.5" y="-232.5" font-family="Helvetica,sans-Serif" font-size="10.00" fill="#000000">_shelf_flux</text>
</a>
</g>
</g>
<!-- Node1&#45;&gt;Node2 -->
<g id="edge1" class="edge">
<title>Node1&#45;&gt;Node2</title>
<path fill="none" stroke="#191970" d="M445.6192,-152.2411C426.1476,-169.3259 397.4686,-193.0668 370,-210.5 361.4744,-215.9109 351.8302,-221.0359 342.7503,-225.4685"/>
<polygon fill="#191970" stroke="#191970" points="447.9568,-154.8462 453.1159,-145.5923 443.312,-149.6091 447.9568,-154.8462"/>
</g>
<!-- Node4 -->
<g id="node4" class="node">
<title>Node4</title>
<g id="a_node4"><a xlink:href="MOM__driver_8F90.html#a08fffeb2d8e8acbf9ed4609be6d258c6" target="_top" xlink:title=" ">
<polygon fill="#ffffff" stroke="#000000" points="0,-209 0,-228 65,-228 65,-209 0,-209"/>
<text text-anchor="middle" x="32.5" y="-216" font-family="Helvetica,sans-Serif" font-size="10.00" fill="#000000">mom_main</text>
</a>
</g>
</g>
<!-- Node1&#45;&gt;Node4 -->
<g id="edge7" class="edge">
<title>Node1&#45;&gt;Node4</title>
<path fill="none" stroke="#191970" d="M433.9699,-150.1935C415.4334,-159.6148 392.0714,-170.1909 370,-176.5 313.0863,-192.7689 138.2977,-209.3172 65.1854,-215.7278"/>
<polygon fill="#191970" stroke="#191970" points="435.6615,-153.2589 442.9224,-145.5433 432.4348,-147.0469 435.6615,-153.2589"/>
</g>
<!-- Node5 -->
<g id="node5" class="node">
<title>Node5</title>
<g id="a_node5"><a xlink:href="namespacemom__controlled__forcing.html#a3428c4ca0349d4aad6f5523ffa45f39f" target="_top" xlink:title="This subroutine calls any of the other subroutines in this file that are needed to specify the curren...">
<polygon fill="#ffffff" stroke="#000000" points="248.5,-137.5 248.5,-167.5 368.5,-167.5 368.5,-137.5 248.5,-137.5"/>
<text text-anchor="start" x="256.5" y="-155.5" font-family="Helvetica,sans-Serif" font-size="10.00" fill="#000000">mom_controlled_forcing</text>
<text text-anchor="middle" x="308.5" y="-144.5" font-family="Helvetica,sans-Serif" font-size="10.00" fill="#000000">::apply_ctrl_forcing</text>
</a>
</g>
</g>
<!-- Node1&#45;&gt;Node5 -->
<g id="edge4" class="edge">
<title>Node1&#45;&gt;Node5</title>
<path fill="none" stroke="#191970" d="M395.6758,-140.5878C386.5828,-141.8303 377.3754,-143.0885 368.522,-144.2982"/>
<polygon fill="#191970" stroke="#191970" points="396.4345,-144.0167 405.8685,-139.195 395.4867,-137.0812 396.4345,-144.0167"/>
</g>
<!-- Node6 -->
<g id="node6" class="node">
<title>Node6</title>
<g id="a_node6"><a xlink:href="namespacemom__barotropic.html#a1468df372a5d1dcb95e0b35d782895de" target="_top" xlink:title="This subroutine time steps the barotropic equations explicitly. For gravity waves,...">
<polygon fill="#ffffff" stroke="#000000" points="249,-99 249,-118 368,-118 368,-99 249,-99"/>
<text text-anchor="middle" x="308.5" y="-106" font-family="Helvetica,sans-Serif" font-size="10.00" fill="#000000">mom_barotropic::btstep</text>
</a>
</g>
</g>
<!-- Node1&#45;&gt;Node6 -->
<g id="edge5" class="edge">
<title>Node1&#45;&gt;Node6</title>
<path fill="none" stroke="#191970" d="M395.8266,-120.4328C386.5059,-119.1592 377.0622,-117.8687 368.0002,-116.6305"/>
<polygon fill="#191970" stroke="#191970" points="395.4867,-123.9188 405.8685,-121.805 396.4345,-116.9833 395.4867,-123.9188"/>
</g>
<!-- Node7 -->
<g id="node7" class="node">
<title>Node7</title>
<g id="a_node7"><a xlink:href="namespacemom__diabatic__driver.html#a9005de9f3ad26b32de53e3cd9826b9b9" target="_top" xlink:title="This subroutine imposes the diapycnal mass fluxes and the accompanying diapycnal advection of momentu...">
<polygon fill="#ffffff" stroke="#000000" points="255,-49.5 255,-79.5 362,-79.5 362,-49.5 255,-49.5"/>
<text text-anchor="start" x="263" y="-67.5" font-family="Helvetica,sans-Serif" font-size="10.00" fill="#000000">mom_diabatic_driver</text>
<text text-anchor="middle" x="308.5" y="-56.5" font-family="Helvetica,sans-Serif" font-size="10.00" fill="#000000">::diabatic</text>
</a>
</g>
</g>
<!-- Node1&#45;&gt;Node7 -->
<g id="edge6" class="edge">
<title>Node1&#45;&gt;Node7</title>
<path fill="none" stroke="#191970" d="M423.523,-111.5013C406.692,-104.5605 387.4898,-96.6582 370,-89.5 362.1066,-86.2694 353.6378,-82.8176 345.5859,-79.5423"/>
<polygon fill="#191970" stroke="#191970" points="422.5489,-114.8856 433.128,-115.464 425.2187,-108.4147 422.5489,-114.8856"/>
</g>
<!-- Node8 -->
<g id="node8" class="node">
<title>Node8</title>
<g id="a_node8"><a xlink:href="namespacemom__dynamics__unsplit.html#ab72d911d187f9247b6cc72d87e815370" target="_top" xlink:title="Step the MOM6 dynamics using an unsplit mixed 2nd order (for continuity) and 3rd order (for the invis...">
<polygon fill="#ffffff" stroke="#000000" points="247,-.5 247,-30.5 370,-30.5 370,-.5 247,-.5"/>
<text text-anchor="start" x="255" y="-18.5" font-family="Helvetica,sans-Serif" font-size="10.00" fill="#000000">mom_dynamics_unsplit</text>
<text text-anchor="middle" x="308.5" y="-7.5" font-family="Helvetica,sans-Serif" font-size="10.00" fill="#000000">::step_mom_dyn_unsplit</text>
</a>
</g>
</g>
<!-- Node1&#45;&gt;Node8 -->
<g id="edge8" class="edge">
<title>Node1&#45;&gt;Node8</title>
<path fill="none" stroke="#191970" d="M449.4595,-107.9336C430.5911,-87.7897 400.7097,-58.6014 370,-39.5 364.7446,-36.2311 358.9699,-33.2735 353.1288,-30.6411"/>
<polygon fill="#191970" stroke="#191970" points="447.018,-110.449 456.3675,-115.4327 452.1665,-105.7063 447.018,-110.449"/>
</g>
<!-- Node3 -->
<g id="node3" class="node">
<title>Node3</title>
<g id="a_node3"><a xlink:href="namespacemom__ice__shelf.html#a84aff10af35c11912502a9cd7834dd50" target="_top" xlink:title="Calculates fluxes between the ocean and ice&#45;shelf using the three&#45;equations formulation (optional to ...">
<polygon fill="#ffffff" stroke="#000000" points="101,-225.5 101,-255.5 211,-255.5 211,-225.5 101,-225.5"/>
<text text-anchor="start" x="109" y="-243.5" font-family="Helvetica,sans-Serif" font-size="10.00" fill="#000000">mom_ice_shelf::shelf</text>
<text text-anchor="middle" x="156" y="-232.5" font-family="Helvetica,sans-Serif" font-size="10.00" fill="#000000">_calc_flux</text>
</a>
</g>
</g>
<!-- Node2&#45;&gt;Node3 -->
<g id="edge2" class="edge">
<title>Node2&#45;&gt;Node3</title>
<path fill="none" stroke="#191970" d="M246.3591,-240.5C234.7167,-240.5 222.6195,-240.5 211.2051,-240.5"/>
<polygon fill="#191970" stroke="#191970" points="246.4447,-244.0001 256.4447,-240.5 246.4446,-237.0001 246.4447,-244.0001"/>
</g>
<!-- Node3&#45;&gt;Node4 -->
<g id="edge3" class="edge">
<title>Node3&#45;&gt;Node4</title>
<path fill="none" stroke="#191970" d="M90.7048,-228.8685C81.808,-227.2836 73.0096,-225.7163 65.0516,-224.2987"/>
<polygon fill="#191970" stroke="#191970" points="90.2931,-232.3502 100.752,-230.6582 91.5208,-225.4586 90.2931,-232.3502"/>
</g>
</g>
</svg>
        <g id="navigator" transform="translate(0 0)" fill="#404254">
                <rect fill="#f2f5e9" fill-opacity="0.5" stroke="#606060" stroke-width=".5" x="0" y="0" width="60" height="60"/>
                <use id="zoomplus" xlink:href="#zoomPlus" x="17" y="9" onmousedown="handleZoom(evt,'in')"/>
                <use id="zoomminus" xlink:href="#zoomMin" x="42" y="9" onmousedown="handleZoom(evt,'out')"/>
                <use id="reset" xlink:href="#resetDef" x="30" y="36" onmousedown="handleReset()"/>
                <g id="arrowUp" xlink:href="#dirArrow" transform="translate(30 24)" onmousedown="handlePan(0,-1)">
                  <use xlink:href="#rim" fill="#404040">
                        <set attributeName="fill" to="#808080" begin="arrowUp.mouseover" end="arrowUp.mouseout"/>
                  </use>
                  <path fill="none" stroke="white" stroke-width="1.5" d="M0,-3.0v7 M-2.5,-0.5L0,-3.0L2.5,-0.5"/>
                </g>
                <g id="arrowRight" xlink:href="#dirArrow" transform="rotate(90) translate(36 -43)" onmousedown="handlePan(1,0)">
                  <use xlink:href="#rim" fill="#404040">
                        <set attributeName="fill" to="#808080" begin="arrowRight.mouseover" end="arrowRight.mouseout"/>
                  </use>
                  <path fill="none" stroke="white" stroke-width="1.5" d="M0,-3.0v7 M-2.5,-0.5L0,-3.0L2.5,-0.5"/>
                </g>
                <g id="arrowDown" xlink:href="#dirArrow" transform="rotate(180) translate(-30 -48)" onmousedown="handlePan(0,1)">
                  <use xlink:href="#rim" fill="#404040">
                        <set attributeName="fill" to="#808080" begin="arrowDown.mouseover" end="arrowDown.mouseout"/>
                  </use>
                  <path fill="none" stroke="white" stroke-width="1.5" d="M0,-3.0v7 M-2.5,-0.5L0,-3.0L2.5,-0.5"/>
                </g>
                <g id="arrowLeft" xlink:href="#dirArrow" transform="rotate(270) translate(-36 17)" onmousedown="handlePan(-1,0)">
                  <use xlink:href="#rim" fill="#404040">
                        <set attributeName="fill" to="#808080" begin="arrowLeft.mouseover" end="arrowLeft.mouseout"/>
                  </use>
                  <path fill="none" stroke="white" stroke-width="1.5" d="M0,-3.0v7 M-2.5,-0.5L0,-3.0L2.5,-0.5"/>
                </g>
        </g>
        <svg viewBox="0 0 15 15" width="100%" height="30px" preserveAspectRatio="xMaxYMin meet">
         <g id="arrow_out" transform="scale(0.3 0.3)">
          <a xlink:href="namespacemom__time__manager_ae2d8736d03ab62310f32ddf01e44a961_icgraph_org.svg" target="_base">
           <rect id="button" ry="5" rx="5" y="6" x="6" height="38" width="38"
                fill="#f2f5e9" fill-opacity="0.5" stroke="#606060" stroke-width="1.0"/>
           <path id="arrow"
             d="M 11.500037,31.436501 C 11.940474,20.09759 22.043105,11.32322 32.158766,21.979434 L 37.068811,17.246167 C 37.068811,17.246167 37.088388,32 37.088388,32 L 22.160133,31.978069 C 22.160133,31.978069 26.997745,27.140456 26.997745,27.140456 C 18.528582,18.264221 13.291696,25.230495 11.500037,31.436501 z"
             style="fill:#404040;"/>
          </a>
         </g>
        </svg>
</svg>
