<?xml version="1.0" encoding="UTF-8" standalone="no"?>
<!DOCTYPE svg PUBLIC "-//W3C//DTD SVG 1.1//EN"
 "http://www.w3.org/Graphics/SVG/1.1/DTD/svg11.dtd">
<!-- Generated by graphviz version 2.40.1 (20161225.0304)
 -->
<!-- Title: idealized_hurricane::idealized_hurricane_wind_forcing Pages: 1 -->
<svg width="481pt" height="100pt"
 viewBox="0.00 0.00 481.00 99.50" xmlns="http://www.w3.org/2000/svg" xmlns:xlink="http://www.w3.org/1999/xlink">
<g id="graph0" class="graph" transform="scale(1 1) rotate(0) translate(4 95.5)">
<title>idealized_hurricane::idealized_hurricane_wind_forcing</title>
<polygon fill="#ffffff" stroke="transparent" points="-4,4 -4,-95.5 477,-95.5 477,4 -4,4"/>
<!-- Node1 -->
<g id="node1" class="node">
<title>Node1</title>
<g id="a_node1"><a xlink:title="Computes the surface wind for the idealized hurricane test cases.">
<polygon fill="#bfbfbf" stroke="#000000" points="0,-27.5 0,-68.5 113,-68.5 113,-27.5 0,-27.5"/>
<text text-anchor="start" x="8" y="-56.5" font-family="Helvetica,sans-Serif" font-size="10.00" fill="#000000">idealized_hurricane</text>
<text text-anchor="start" x="8" y="-45.5" font-family="Helvetica,sans-Serif" font-size="10.00" fill="#000000">::idealized_hurricane</text>
<text text-anchor="middle" x="56.5" y="-34.5" font-family="Helvetica,sans-Serif" font-size="10.00" fill="#000000">_wind_forcing</text>
</a>
</g>
</g>
<!-- Node2 -->
<g id="node2" class="node">
<title>Node2</title>
<g id="a_node2"><a xlink:href="namespacemom__forcing__type.html#a7a9bb1457a8615a3e0b6e38f8d3e32bf" target="_top" xlink:title="Conditionally allocate fields within the mechanical forcing type.">
<polygon fill="#ffffff" stroke="#000000" points="149,-61 149,-91 294,-91 294,-61 149,-61"/>
<text text-anchor="start" x="157" y="-79" font-family="Helvetica,sans-Serif" font-size="10.00" fill="#000000">mom_forcing_type::allocate</text>
<text text-anchor="middle" x="221.5" y="-68" font-family="Helvetica,sans-Serif" font-size="10.00" fill="#000000">_mech_forcing</text>
</a>
</g>
</g>
<!-- Node1&#45;&gt;Node2 -->
<g id="edge1" class="edge">
<title>Node1&#45;&gt;Node2</title>
<path fill="none" stroke="#191970" d="M113.2836,-57.636C121.5249,-59.0345 130.1465,-60.4976 138.7715,-61.9612"/>
<polygon fill="#191970" stroke="#191970" points="138.4307,-65.4534 148.8754,-63.6758 139.6019,-58.552 138.4307,-65.4534"/>
</g>
<!-- Node4 -->
<g id="node4" class="node">
<title>Node4</title>
<g id="a_node4"><a xlink:href="namespaceidealized__hurricane.html#a4caf0cd155a00343c47472cf3682db2a" target="_top" xlink:title="Calculate the wind speed at a location as a function of time.">
<polygon fill="#ffffff" stroke="#000000" points="165,-.5 165,-41.5 278,-41.5 278,-.5 165,-.5"/>
<text text-anchor="start" x="173" y="-29.5" font-family="Helvetica,sans-Serif" font-size="10.00" fill="#000000">idealized_hurricane</text>
<text text-anchor="start" x="173" y="-18.5" font-family="Helvetica,sans-Serif" font-size="10.00" fill="#000000">::idealized_hurricane</text>
<text text-anchor="middle" x="221.5" y="-7.5" font-family="Helvetica,sans-Serif" font-size="10.00" fill="#000000">_wind_profile</text>
</a>
</g>
</g>
<!-- Node1&#45;&gt;Node4 -->
<g id="edge3" class="edge">
<title>Node1&#45;&gt;Node4</title>
<path fill="none" stroke="#191970" d="M113.2836,-38.7081C126.711,-36.5109 141.1481,-34.1485 154.9642,-31.8877"/>
<polygon fill="#191970" stroke="#191970" points="155.5878,-35.3323 164.8913,-30.2632 154.4573,-28.4241 155.5878,-35.3323"/>
</g>
<!-- Node3 -->
<g id="node3" class="node">
<title>Node3</title>
<g id="a_node3"><a xlink:href="namespacemom__forcing__type.html#aa9a495456715378fe3dd5fb2bd21eec8" target="_top" xlink:title="Allocates and zeroes&#45;out array.">
<polygon fill="#ffffff" stroke="#000000" points="330,-66.5 330,-85.5 473,-85.5 473,-66.5 330,-66.5"/>
<text text-anchor="middle" x="401.5" y="-73.5" font-family="Helvetica,sans-Serif" font-size="10.00" fill="#000000">mom_forcing_type::myalloc</text>
</a>
</g>
</g>
<!-- Node2&#45;&gt;Node3 -->
<g id="edge2" class="edge">
<title>Node2&#45;&gt;Node3</title>
<path fill="none" stroke="#191970" d="M294.194,-76C302.6797,-76 311.3787,-76 319.9737,-76"/>
<polygon fill="#191970" stroke="#191970" points="319.9967,-79.5001 329.9966,-76 319.9966,-72.5001 319.9967,-79.5001"/>
</g>
</g>
</svg>
