<?xml version="1.0" encoding="UTF-8" standalone="no"?>
<!DOCTYPE svg PUBLIC "-//W3C//DTD SVG 1.1//EN"
 "http://www.w3.org/Graphics/SVG/1.1/DTD/svg11.dtd">
<!-- Generated by graphviz version 2.40.1 (20161225.0304)
 -->
<!-- Title: isomip_tracer::isomip_tracer_column_physics Pages: 1 -->
<svg width="608pt" height="88pt"
 viewBox="0.00 0.00 608.00 88.00" xmlns="http://www.w3.org/2000/svg" xmlns:xlink="http://www.w3.org/1999/xlink">
<g id="graph0" class="graph" transform="scale(1 1) rotate(0) translate(4 84)">
<title>isomip_tracer::isomip_tracer_column_physics</title>
<polygon fill="#ffffff" stroke="transparent" points="-4,4 -4,-84 604,-84 604,4 -4,4"/>
<!-- Node1 -->
<g id="node1" class="node">
<title>Node1</title>
<g id="a_node1"><a xlink:title="This subroutine applies diapycnal diffusion, including the surface boundary conditions and any other ...">
<polygon fill="#bfbfbf" stroke="#000000" points="0,-24.5 0,-54.5 122,-54.5 122,-24.5 0,-24.5"/>
<text text-anchor="start" x="8" y="-42.5" font-family="Helvetica,sans-Serif" font-size="10.00" fill="#000000">isomip_tracer::isomip</text>
<text text-anchor="middle" x="61" y="-31.5" font-family="Helvetica,sans-Serif" font-size="10.00" fill="#000000">_tracer_column_physics</text>
</a>
</g>
</g>
<!-- Node2 -->
<g id="node2" class="node">
<title>Node2</title>
<g id="a_node2"><a xlink:href="namespacemom__tracer__diabatic.html#ad4d3d4de0f2b84c15bccc5eb2f767df3" target="_top" xlink:title="This routine is modeled after applyBoundaryFluxesInOut in MOM_diabatic_aux.F90 NOTE: Please note that...">
<polygon fill="#ffffff" stroke="#000000" points="158,-49.5 158,-79.5 316,-79.5 316,-49.5 158,-49.5"/>
<text text-anchor="start" x="166" y="-67.5" font-family="Helvetica,sans-Serif" font-size="10.00" fill="#000000">mom_tracer_diabatic</text>
<text text-anchor="middle" x="237" y="-56.5" font-family="Helvetica,sans-Serif" font-size="10.00" fill="#000000">::applytracerboundaryfluxesinout</text>
</a>
</g>
</g>
<!-- Node1&#45;&gt;Node2 -->
<g id="edge1" class="edge">
<title>Node1&#45;&gt;Node2</title>
<path fill="none" stroke="#191970" d="M122.0623,-48.1736C130.3401,-49.3494 138.9697,-50.5752 147.6172,-51.8036"/>
<polygon fill="#191970" stroke="#191970" points="147.3639,-55.3027 157.7568,-53.2439 148.3484,-48.3722 147.3639,-55.3027"/>
</g>
<!-- Node5 -->
<g id="node5" class="node">
<title>Node5</title>
<g id="a_node5"><a xlink:href="namespacemom__tracer__diabatic.html#ac5d57973547cc4ed3a89808d3910943e" target="_top" xlink:title="This subroutine solves a tridiagonal equation for the final tracer concentrations after the dual&#45;entr...">
<polygon fill="#ffffff" stroke="#000000" points="183.5,-.5 183.5,-30.5 290.5,-30.5 290.5,-.5 183.5,-.5"/>
<text text-anchor="start" x="191.5" y="-18.5" font-family="Helvetica,sans-Serif" font-size="10.00" fill="#000000">mom_tracer_diabatic</text>
<text text-anchor="middle" x="237" y="-7.5" font-family="Helvetica,sans-Serif" font-size="10.00" fill="#000000">::tracer_vertdiff</text>
</a>
</g>
</g>
<!-- Node1&#45;&gt;Node5 -->
<g id="edge4" class="edge">
<title>Node1&#45;&gt;Node5</title>
<path fill="none" stroke="#191970" d="M122.0623,-31.1733C138.5883,-28.9198 156.517,-26.4749 173.1897,-24.2014"/>
<polygon fill="#191970" stroke="#191970" points="173.9494,-27.6303 183.3848,-22.8112 173.0035,-20.6945 173.9494,-27.6303"/>
</g>
<!-- Node3 -->
<g id="node3" class="node">
<title>Node3</title>
<g id="a_node3"><a xlink:href="namespacemom__error__handler.html#a460cfb79a06c29fc249952c2a3710d67" target="_top" xlink:title="This provides a convenient interface for writing an mpp_error message with run&#45;time filter based on a...">
<polygon fill="#ffffff" stroke="#000000" points="352,-24.5 352,-54.5 458,-54.5 458,-24.5 352,-24.5"/>
<text text-anchor="start" x="360" y="-42.5" font-family="Helvetica,sans-Serif" font-size="10.00" fill="#000000">mom_error_handler::</text>
<text text-anchor="middle" x="405" y="-31.5" font-family="Helvetica,sans-Serif" font-size="10.00" fill="#000000">mom_error</text>
</a>
</g>
</g>
<!-- Node2&#45;&gt;Node3 -->
<g id="edge2" class="edge">
<title>Node2&#45;&gt;Node3</title>
<path fill="none" stroke="#191970" d="M316.0806,-52.732C324.6723,-51.4535 333.3328,-50.1648 341.701,-48.9195"/>
<polygon fill="#191970" stroke="#191970" points="342.3633,-52.3596 351.7392,-47.4257 341.3329,-45.4358 342.3633,-52.3596"/>
</g>
<!-- Node4 -->
<g id="node4" class="node">
<title>Node4</title>
<g id="a_node4"><a xlink:href="namespacemom__error__handler.html#ad5f00a53059c72fe2332d1436c80ca71" target="_top" xlink:title="This returns .true. if the current PE is the root PE.">
<polygon fill="#ffffff" stroke="#000000" points="494,-24.5 494,-54.5 600,-54.5 600,-24.5 494,-24.5"/>
<text text-anchor="start" x="502" y="-42.5" font-family="Helvetica,sans-Serif" font-size="10.00" fill="#000000">mom_error_handler::</text>
<text text-anchor="middle" x="547" y="-31.5" font-family="Helvetica,sans-Serif" font-size="10.00" fill="#000000">is_root_pe</text>
</a>
</g>
</g>
<!-- Node3&#45;&gt;Node4 -->
<g id="edge3" class="edge">
<title>Node3&#45;&gt;Node4</title>
<path fill="none" stroke="#191970" d="M458.2796,-39.5C466.56,-39.5 475.184,-39.5 483.6606,-39.5"/>
<polygon fill="#191970" stroke="#191970" points="483.8941,-43.0001 493.8941,-39.5 483.8941,-36.0001 483.8941,-43.0001"/>
</g>
<!-- Node5&#45;&gt;Node3 -->
<g id="edge5" class="edge">
<title>Node5&#45;&gt;Node3</title>
<path fill="none" stroke="#191970" d="M290.6182,-23.1597C306.8409,-25.4773 324.8109,-28.0444 341.609,-30.4441"/>
<polygon fill="#191970" stroke="#191970" points="341.4961,-33.9635 351.8906,-31.9129 342.4861,-27.0338 341.4961,-33.9635"/>
</g>
</g>
</svg>
