<?xml version="1.0" encoding="UTF-8" standalone="no"?>
<!DOCTYPE svg PUBLIC "-//W3C//DTD SVG 1.1//EN"
 "http://www.w3.org/Graphics/SVG/1.1/DTD/svg11.dtd">
<!-- Generated by graphviz version 2.40.1 (20161225.0304)
 -->
<!-- Title: mom_entrain_diffusive::entrainment_diffusive Pages: 1 -->
<svg width="861pt" height="319pt"
 viewBox="0.00 0.00 861.00 318.50" xmlns="http://www.w3.org/2000/svg" xmlns:xlink="http://www.w3.org/1999/xlink">
<g id="graph0" class="graph" transform="scale(1 1) rotate(0) translate(4 314.5)">
<title>mom_entrain_diffusive::entrainment_diffusive</title>
<polygon fill="#ffffff" stroke="transparent" points="-4,4 -4,-314.5 857,-314.5 857,4 -4,4"/>
<!-- Node1 -->
<g id="node1" class="node">
<title>Node1</title>
<g id="a_node1"><a xlink:title="This subroutine calculates ea and eb, the rates at which a layer entrains from the layers above and b...">
<polygon fill="#bfbfbf" stroke="#000000" points="0,-153.5 0,-183.5 116,-183.5 116,-153.5 0,-153.5"/>
<text text-anchor="start" x="8" y="-171.5" font-family="Helvetica,sans-Serif" font-size="10.00" fill="#000000">mom_entrain_diffusive</text>
<text text-anchor="middle" x="58" y="-160.5" font-family="Helvetica,sans-Serif" font-size="10.00" fill="#000000">::entrainment_diffusive</text>
</a>
</g>
</g>
<!-- Node2 -->
<g id="node2" class="node">
<title>Node2</title>
<g id="a_node2"><a xlink:href="namespacemom__entrain__diffusive.html#aa2d2f462912ba1e201b1b73e62a905f3" target="_top" xlink:title="This subroutine determines the reference density difference between the bottommost buffer layer and t...">
<polygon fill="#ffffff" stroke="#000000" points="454,-169.5 454,-199.5 569,-199.5 569,-169.5 454,-169.5"/>
<text text-anchor="start" x="462" y="-187.5" font-family="Helvetica,sans-Serif" font-size="10.00" fill="#000000">mom_entrain_diffusive</text>
<text text-anchor="middle" x="511.5" y="-176.5" font-family="Helvetica,sans-Serif" font-size="10.00" fill="#000000">::determine_dskb</text>
</a>
</g>
</g>
<!-- Node1&#45;&gt;Node2 -->
<g id="edge1" class="edge">
<title>Node1&#45;&gt;Node2</title>
<path fill="none" stroke="#191970" d="M116.1632,-167.0693C128.0202,-166.832 140.4112,-166.6233 152,-166.5 203.1082,-165.9564 215.9234,-164.6224 267,-166.5 326.7629,-168.6969 394.5765,-173.9045 443.6007,-178.1562"/>
<polygon fill="#191970" stroke="#191970" points="443.4996,-181.6607 453.7671,-179.0475 444.111,-174.6874 443.4996,-181.6607"/>
</g>
<!-- Node3 -->
<g id="node3" class="node">
<title>Node3</title>
<g id="a_node3"><a xlink:href="namespacemom__error__handler.html#a460cfb79a06c29fc249952c2a3710d67" target="_top" xlink:title="This provides a convenient interface for writing an mpp_error message with run&#45;time filter based on a...">
<polygon fill="#ffffff" stroke="#000000" points="605,-210.5 605,-240.5 711,-240.5 711,-210.5 605,-210.5"/>
<text text-anchor="start" x="613" y="-228.5" font-family="Helvetica,sans-Serif" font-size="10.00" fill="#000000">mom_error_handler::</text>
<text text-anchor="middle" x="658" y="-217.5" font-family="Helvetica,sans-Serif" font-size="10.00" fill="#000000">mom_error</text>
</a>
</g>
</g>
<!-- Node1&#45;&gt;Node3 -->
<g id="edge14" class="edge">
<title>Node1&#45;&gt;Node3</title>
<path fill="none" stroke="#191970" d="M73.4394,-183.6223C90.9151,-199.7253 121.0052,-224.5073 152,-236.5 302.1345,-294.5911 496.5345,-263.9019 594.9488,-241.7526"/>
<polygon fill="#191970" stroke="#191970" points="595.7795,-245.153 604.7432,-239.5047 594.2136,-238.3304 595.7795,-245.153"/>
</g>
<!-- Node4 -->
<g id="node4" class="node">
<title>Node4</title>
<g id="a_node4"><a xlink:href="namespacemom__error__handler.html#ad5f00a53059c72fe2332d1436c80ca71" target="_top" xlink:title="This returns .true. if the current PE is the root PE.">
<polygon fill="#ffffff" stroke="#000000" points="747,-232.5 747,-262.5 853,-262.5 853,-232.5 747,-232.5"/>
<text text-anchor="start" x="755" y="-250.5" font-family="Helvetica,sans-Serif" font-size="10.00" fill="#000000">mom_error_handler::</text>
<text text-anchor="middle" x="800" y="-239.5" font-family="Helvetica,sans-Serif" font-size="10.00" fill="#000000">is_root_pe</text>
</a>
</g>
</g>
<!-- Node1&#45;&gt;Node4 -->
<g id="edge13" class="edge">
<title>Node1&#45;&gt;Node4</title>
<path fill="none" stroke="#191970" d="M68.5381,-183.6482C84.1918,-204.9401 115.6764,-243.3628 152,-263.5 235.0792,-309.5576 265.5081,-310.5 360.5,-310.5 360.5,-310.5 360.5,-310.5 511.5,-310.5 596.0687,-310.5 691.4379,-284.3421 748.5754,-265.7367"/>
<polygon fill="#191970" stroke="#191970" points="749.7015,-269.0508 758.0984,-262.5901 747.5052,-262.4043 749.7015,-269.0508"/>
</g>
<!-- Node5 -->
<g id="node5" class="node">
<title>Node5</title>
<g id="a_node5"><a xlink:href="namespacemom__entrain__diffusive.html#a541b3aadc418110f7359b0ae401e4e78" target="_top" xlink:title="This subroutine determines the entrainment from above by the top interior layer (labeled kb elsewhere...">
<polygon fill="#ffffff" stroke="#000000" points="303,-87.5 303,-117.5 418,-117.5 418,-87.5 303,-87.5"/>
<text text-anchor="start" x="311" y="-105.5" font-family="Helvetica,sans-Serif" font-size="10.00" fill="#000000">mom_entrain_diffusive</text>
<text text-anchor="middle" x="360.5" y="-94.5" font-family="Helvetica,sans-Serif" font-size="10.00" fill="#000000">::determine_ea_kb</text>
</a>
</g>
</g>
<!-- Node1&#45;&gt;Node5 -->
<g id="edge4" class="edge">
<title>Node1&#45;&gt;Node5</title>
<path fill="none" stroke="#191970" d="M91.7782,-153.4632C109.4159,-146.1534 131.535,-137.82 152,-132.5 198.1702,-120.4978 251.4238,-112.9378 292.5543,-108.4092"/>
<polygon fill="#191970" stroke="#191970" points="293.1662,-111.8639 302.7383,-107.3223 292.4233,-104.9034 293.1662,-111.8639"/>
</g>
<!-- Node6 -->
<g id="node6" class="node">
<title>Node6</title>
<g id="a_node6"><a xlink:href="namespacemom__entrain__diffusive.html#adce1b1ba57f5245f1eda57e7a254d4df" target="_top" xlink:title="Given an entrainment from below for layer kb, determine a consistent entrainment from above,...">
<polygon fill="#ffffff" stroke="#000000" points="152,-175.5 152,-205.5 267,-205.5 267,-175.5 152,-175.5"/>
<text text-anchor="start" x="160" y="-193.5" font-family="Helvetica,sans-Serif" font-size="10.00" fill="#000000">mom_entrain_diffusive</text>
<text text-anchor="middle" x="209.5" y="-182.5" font-family="Helvetica,sans-Serif" font-size="10.00" fill="#000000">::f_kb_to_ea_kb</text>
</a>
</g>
</g>
<!-- Node1&#45;&gt;Node6 -->
<g id="edge7" class="edge">
<title>Node1&#45;&gt;Node6</title>
<path fill="none" stroke="#191970" d="M116.1406,-176.9429C124.5372,-178.1622 133.2395,-179.4259 141.8029,-180.6694"/>
<polygon fill="#191970" stroke="#191970" points="141.3659,-184.1426 151.7651,-182.1161 142.3719,-177.2152 141.3659,-184.1426"/>
</g>
<!-- Node7 -->
<g id="node7" class="node">
<title>Node7</title>
<g id="a_node7"><a xlink:href="namespacemom__entrain__diffusive.html#ae45dbf976314c3a9e278ebcebedab109" target="_top" xlink:title="Maximize F = ent*ds_kb*I_dSkbp1 in the range min_ent &lt; ent &lt; max_ent.">
<polygon fill="#ffffff" stroke="#000000" points="303,-213.5 303,-243.5 418,-243.5 418,-213.5 303,-213.5"/>
<text text-anchor="start" x="311" y="-231.5" font-family="Helvetica,sans-Serif" font-size="10.00" fill="#000000">mom_entrain_diffusive</text>
<text text-anchor="middle" x="360.5" y="-220.5" font-family="Helvetica,sans-Serif" font-size="10.00" fill="#000000">::find_maxf_kb</text>
</a>
</g>
</g>
<!-- Node1&#45;&gt;Node7 -->
<g id="edge12" class="edge">
<title>Node1&#45;&gt;Node7</title>
<path fill="none" stroke="#191970" d="M81.6651,-183.695C100.0585,-194.653 126.6294,-208.6704 152,-215.5 197.8453,-227.8412 251.3233,-230.9602 292.6402,-231.0617"/>
<polygon fill="#191970" stroke="#191970" points="292.8827,-234.561 302.8705,-231.0262 292.8584,-227.561 292.8827,-234.561"/>
</g>
<!-- Node8 -->
<g id="node8" class="node">
<title>Node8</title>
<g id="a_node8"><a xlink:href="namespacemom__entrain__diffusive.html#a13bbe9f35e3198470100375d9d016b7a" target="_top" xlink:title="This subroutine calculates the actual entrainments (ea and eb) and the amount of surface forcing that...">
<polygon fill="#ffffff" stroke="#000000" points="152,-49.5 152,-79.5 267,-79.5 267,-49.5 152,-49.5"/>
<text text-anchor="start" x="160" y="-67.5" font-family="Helvetica,sans-Serif" font-size="10.00" fill="#000000">mom_entrain_diffusive</text>
<text text-anchor="middle" x="209.5" y="-56.5" font-family="Helvetica,sans-Serif" font-size="10.00" fill="#000000">::f_to_ent</text>
</a>
</g>
</g>
<!-- Node1&#45;&gt;Node8 -->
<g id="edge11" class="edge">
<title>Node1&#45;&gt;Node8</title>
<path fill="none" stroke="#191970" d="M75.2848,-153.2842C93.6069,-137.5483 123.7438,-112.7671 152,-94.5 157.3986,-91.0099 163.2492,-87.5843 169.0817,-84.3682"/>
<polygon fill="#191970" stroke="#191970" points="170.9991,-87.3118 178.1644,-79.5073 167.6961,-81.14 170.9991,-87.3118"/>
</g>
<!-- Node9 -->
<g id="node9" class="node">
<title>Node9</title>
<g id="a_node9"><a xlink:href="namespacemom__entrain__diffusive.html#a363a25e7823043bb028e920e359733b0" target="_top" xlink:title="This subroutine sets the average entrainment across each of the interfaces between buffer layers with...">
<polygon fill="#ffffff" stroke="#000000" points="152,-.5 152,-30.5 267,-30.5 267,-.5 152,-.5"/>
<text text-anchor="start" x="160" y="-18.5" font-family="Helvetica,sans-Serif" font-size="10.00" fill="#000000">mom_entrain_diffusive</text>
<text text-anchor="middle" x="209.5" y="-7.5" font-family="Helvetica,sans-Serif" font-size="10.00" fill="#000000">::set_ent_bl</text>
</a>
</g>
</g>
<!-- Node1&#45;&gt;Node9 -->
<g id="edge15" class="edge">
<title>Node1&#45;&gt;Node9</title>
<path fill="none" stroke="#191970" d="M65.4984,-153.2853C79.2466,-126.7988 110.8913,-71.9512 152,-39.5 153.592,-38.2433 155.2592,-37.0419 156.9822,-35.8945"/>
<polygon fill="#191970" stroke="#191970" points="159.1298,-38.6916 165.9703,-30.601 155.5775,-32.6599 159.1298,-38.6916"/>
</g>
<!-- Node2&#45;&gt;Node3 -->
<g id="edge2" class="edge">
<title>Node2&#45;&gt;Node3</title>
<path fill="none" stroke="#191970" d="M565.2193,-199.5341C574.8963,-202.2423 585.0639,-205.0878 594.9766,-207.862"/>
<polygon fill="#191970" stroke="#191970" points="594.2034,-211.2801 604.7767,-210.6047 596.09,-204.5391 594.2034,-211.2801"/>
</g>
<!-- Node3&#45;&gt;Node4 -->
<g id="edge3" class="edge">
<title>Node3&#45;&gt;Node4</title>
<path fill="none" stroke="#191970" d="M711.2796,-233.7546C719.651,-235.0516 728.3736,-236.4029 736.94,-237.7301"/>
<polygon fill="#191970" stroke="#191970" points="736.4761,-241.1999 746.8941,-239.2723 737.5479,-234.2825 736.4761,-241.1999"/>
</g>
<!-- Node5&#45;&gt;Node2 -->
<g id="edge5" class="edge">
<title>Node5&#45;&gt;Node2</title>
<path fill="none" stroke="#191970" d="M389.8314,-117.6115C398.8897,-122.3298 408.8807,-127.5863 418,-132.5 437.0393,-142.7588 458.1019,-154.4429 475.4085,-164.1336"/>
<polygon fill="#191970" stroke="#191970" points="474.1664,-167.4499 484.6002,-169.2904 477.5915,-161.345 474.1664,-167.4499"/>
</g>
<!-- Node5&#45;&gt;Node3 -->
<g id="edge6" class="edge">
<title>Node5&#45;&gt;Node3</title>
<path fill="none" stroke="#191970" d="M418.2444,-112.7356C461.2541,-121.7259 520.6451,-137.0788 569,-160.5 592.5294,-171.8967 616.2964,-189.6453 633.344,-203.7183"/>
<polygon fill="#191970" stroke="#191970" points="631.2396,-206.5219 641.1426,-210.2877 635.7494,-201.1682 631.2396,-206.5219"/>
</g>
<!-- Node6&#45;&gt;Node2 -->
<g id="edge8" class="edge">
<title>Node6&#45;&gt;Node2</title>
<path fill="none" stroke="#191970" d="M267.0147,-189.3573C317.418,-188.3559 390.7322,-186.8994 443.9212,-185.8426"/>
<polygon fill="#191970" stroke="#191970" points="444.0143,-189.3416 453.9428,-185.6435 443.8752,-182.3429 444.0143,-189.3416"/>
</g>
<!-- Node6&#45;&gt;Node7 -->
<g id="edge9" class="edge">
<title>Node6&#45;&gt;Node7</title>
<path fill="none" stroke="#191970" d="M267.0174,-204.9746C275.5557,-207.1233 284.4197,-209.354 293.1374,-211.5478"/>
<polygon fill="#191970" stroke="#191970" points="292.3407,-214.9564 302.8925,-214.0028 294.0491,-208.168 292.3407,-214.9564"/>
</g>
<!-- Node7&#45;&gt;Node2 -->
<g id="edge10" class="edge">
<title>Node7&#45;&gt;Node2</title>
<path fill="none" stroke="#191970" d="M412.0433,-213.4808C424.2454,-209.9252 437.3788,-206.0982 449.9746,-202.4279"/>
<polygon fill="#191970" stroke="#191970" points="451.3113,-205.6841 459.9328,-199.5262 449.3529,-198.9636 451.3113,-205.6841"/>
</g>
</g>
</svg>
