<?xml version="1.0" encoding="UTF-8" standalone="no"?>
<!DOCTYPE svg PUBLIC "-//W3C//DTD SVG 1.1//EN"
 "http://www.w3.org/Graphics/SVG/1.1/DTD/svg11.dtd">
<!-- Generated by graphviz version 2.40.1 (20161225.0304)
 -->
<!-- Title: mom_diag_remap::vertically_interpolate_diag_field Pages: 1 -->
<svg width="577pt" height="88pt"
 viewBox="0.00 0.00 577.00 88.00" xmlns="http://www.w3.org/2000/svg" xmlns:xlink="http://www.w3.org/1999/xlink">
<g id="graph0" class="graph" transform="scale(1 1) rotate(0) translate(4 84)">
<title>mom_diag_remap::vertically_interpolate_diag_field</title>
<polygon fill="#ffffff" stroke="transparent" points="-4,4 -4,-84 573,-84 573,4 -4,4"/>
<!-- Node1 -->
<g id="node1" class="node">
<title>Node1</title>
<g id="a_node1"><a xlink:title="Vertically interpolate diagnostic field to alternative vertical grid.">
<polygon fill="#bfbfbf" stroke="#000000" points="0,-24.5 0,-54.5 139,-54.5 139,-24.5 0,-24.5"/>
<text text-anchor="start" x="8" y="-42.5" font-family="Helvetica,sans-Serif" font-size="10.00" fill="#000000">mom_diag_remap::vertically</text>
<text text-anchor="middle" x="69.5" y="-31.5" font-family="Helvetica,sans-Serif" font-size="10.00" fill="#000000">_interpolate_diag_field</text>
</a>
</g>
</g>
<!-- Node2 -->
<g id="node2" class="node">
<title>Node2</title>
<g id="a_node2"><a xlink:href="namespacemom__error__handler.html#a33bcd190d460095104954f2e654f9fe6" target="_top" xlink:title="Issues a FATAL error if the assertion fails, i.e. the first argument is false.">
<polygon fill="#ffffff" stroke="#000000" points="177,-49.5 177,-79.5 283,-79.5 283,-49.5 177,-49.5"/>
<text text-anchor="start" x="185" y="-67.5" font-family="Helvetica,sans-Serif" font-size="10.00" fill="#000000">mom_error_handler::</text>
<text text-anchor="middle" x="230" y="-56.5" font-family="Helvetica,sans-Serif" font-size="10.00" fill="#000000">assert</text>
</a>
</g>
</g>
<!-- Node1&#45;&gt;Node2 -->
<g id="edge1" class="edge">
<title>Node1&#45;&gt;Node2</title>
<path fill="none" stroke="#191970" d="M139.4307,-50.3926C148.5145,-51.8076 157.7776,-53.2504 166.7441,-54.6471"/>
<polygon fill="#191970" stroke="#191970" points="166.2965,-58.1195 176.7161,-56.2003 167.3739,-51.2029 166.2965,-58.1195"/>
</g>
<!-- Node5 -->
<g id="node5" class="node">
<title>Node5</title>
<g id="a_node5"><a xlink:href="namespacemom__diag__vkernels.html#a4f42f472a725a147f8d97a68b2028c5b" target="_top" xlink:title="Linearly interpolate interface data, u_src, from grid h_src to a grid h_dest.">
<polygon fill="#ffffff" stroke="#000000" points="175,-.5 175,-30.5 285,-30.5 285,-.5 175,-.5"/>
<text text-anchor="start" x="183" y="-18.5" font-family="Helvetica,sans-Serif" font-size="10.00" fill="#000000">mom_diag_vkernels::</text>
<text text-anchor="middle" x="230" y="-7.5" font-family="Helvetica,sans-Serif" font-size="10.00" fill="#000000">interpolate_column</text>
</a>
</g>
</g>
<!-- Node1&#45;&gt;Node5 -->
<g id="edge4" class="edge">
<title>Node1&#45;&gt;Node5</title>
<path fill="none" stroke="#191970" d="M139.4307,-29.0431C147.8387,-27.7858 156.4003,-26.5056 164.7381,-25.2588"/>
<polygon fill="#191970" stroke="#191970" points="165.3996,-28.6989 174.772,-23.7584 164.3643,-21.7758 165.3996,-28.6989"/>
</g>
<!-- Node3 -->
<g id="node3" class="node">
<title>Node3</title>
<g id="a_node3"><a xlink:href="namespacemom__error__handler.html#a460cfb79a06c29fc249952c2a3710d67" target="_top" xlink:title="This provides a convenient interface for writing an mpp_error message with run&#45;time filter based on a...">
<polygon fill="#ffffff" stroke="#000000" points="321,-49.5 321,-79.5 427,-79.5 427,-49.5 321,-49.5"/>
<text text-anchor="start" x="329" y="-67.5" font-family="Helvetica,sans-Serif" font-size="10.00" fill="#000000">mom_error_handler::</text>
<text text-anchor="middle" x="374" y="-56.5" font-family="Helvetica,sans-Serif" font-size="10.00" fill="#000000">mom_error</text>
</a>
</g>
</g>
<!-- Node2&#45;&gt;Node3 -->
<g id="edge2" class="edge">
<title>Node2&#45;&gt;Node3</title>
<path fill="none" stroke="#191970" d="M283.2112,-64.5C292.0591,-64.5 301.3142,-64.5 310.389,-64.5"/>
<polygon fill="#191970" stroke="#191970" points="310.5268,-68.0001 320.5268,-64.5 310.5268,-61.0001 310.5268,-68.0001"/>
</g>
<!-- Node4 -->
<g id="node4" class="node">
<title>Node4</title>
<g id="a_node4"><a xlink:href="namespacemom__error__handler.html#ad5f00a53059c72fe2332d1436c80ca71" target="_top" xlink:title="This returns .true. if the current PE is the root PE.">
<polygon fill="#ffffff" stroke="#000000" points="463,-49.5 463,-79.5 569,-79.5 569,-49.5 463,-49.5"/>
<text text-anchor="start" x="471" y="-67.5" font-family="Helvetica,sans-Serif" font-size="10.00" fill="#000000">mom_error_handler::</text>
<text text-anchor="middle" x="516" y="-56.5" font-family="Helvetica,sans-Serif" font-size="10.00" fill="#000000">is_root_pe</text>
</a>
</g>
</g>
<!-- Node3&#45;&gt;Node4 -->
<g id="edge3" class="edge">
<title>Node3&#45;&gt;Node4</title>
<path fill="none" stroke="#191970" d="M427.2796,-64.5C435.56,-64.5 444.184,-64.5 452.6606,-64.5"/>
<polygon fill="#191970" stroke="#191970" points="452.8941,-68.0001 462.8941,-64.5 452.8941,-61.0001 452.8941,-68.0001"/>
</g>
</g>
</svg>
