<?xml version="1.0" encoding="UTF-8" standalone="no"?>
<!DOCTYPE svg PUBLIC "-//W3C//DTD SVG 1.1//EN"
 "http://www.w3.org/Graphics/SVG/1.1/DTD/svg11.dtd">
<!-- Generated by graphviz version 2.40.1 (20161225.0304)
 -->
<!-- Title: regrid_consts::coordinateunitss Pages: 1 -->
<svg width="675pt" height="88pt"
 viewBox="0.00 0.00 675.00 88.00" xmlns="http://www.w3.org/2000/svg" xmlns:xlink="http://www.w3.org/1999/xlink">
<g id="graph0" class="graph" transform="scale(1 1) rotate(0) translate(4 84)">
<title>regrid_consts::coordinateunitss</title>
<polygon fill="#ffffff" stroke="transparent" points="-4,4 -4,-84 671,-84 671,4 -4,4"/>
<!-- Node1 -->
<g id="node1" class="node">
<title>Node1</title>
<g id="a_node1"><a xlink:title="Returns a string with the coordinate units associated with the string defining the coordinate mode.">
<polygon fill="#bfbfbf" stroke="#000000" points="0,-36 0,-55 163,-55 163,-36 0,-36"/>
<text text-anchor="middle" x="81.5" y="-43" font-family="Helvetica,sans-Serif" font-size="10.00" fill="#000000">regrid_consts::coordinateunitss</text>
</a>
</g>
</g>
<!-- Node2 -->
<g id="node2" class="node">
<title>Node2</title>
<g id="a_node2"><a xlink:href="namespaceregrid__consts.html#a06ccba5b7b038bed853606a315df306a" target="_top" xlink:title="Parse a string parameter specifying the coordinate mode and return the appropriate enumerated integer...">
<polygon fill="#ffffff" stroke="#000000" points="199,-17 199,-36 361,-36 361,-17 199,-17"/>
<text text-anchor="middle" x="280" y="-24" font-family="Helvetica,sans-Serif" font-size="10.00" fill="#000000">regrid_consts::coordinatemode</text>
</a>
</g>
</g>
<!-- Node1&#45;&gt;Node2 -->
<g id="edge1" class="edge">
<title>Node1&#45;&gt;Node2</title>
<path fill="none" stroke="#191970" d="M163.0969,-37.6897C171.5511,-36.8805 180.182,-36.0544 188.7333,-35.2359"/>
<polygon fill="#191970" stroke="#191970" points="189.0989,-38.7169 198.7199,-34.28 188.4319,-31.7488 189.0989,-38.7169"/>
</g>
<!-- Node6 -->
<g id="node6" class="node">
<title>Node6</title>
<g id="a_node6"><a xlink:href="namespaceregrid__consts.html#a66013f9050702cc9015336389c311a4b" target="_top" xlink:title="Returns a string with the coordinate units associated with the enumerated integer,...">
<polygon fill="#ffffff" stroke="#000000" points="200,-55 200,-74 360,-74 360,-55 200,-55"/>
<text text-anchor="middle" x="280" y="-62" font-family="Helvetica,sans-Serif" font-size="10.00" fill="#000000">regrid_consts::coordinateunitsi</text>
</a>
</g>
</g>
<!-- Node1&#45;&gt;Node6 -->
<g id="edge5" class="edge">
<title>Node1&#45;&gt;Node6</title>
<path fill="none" stroke="#191970" d="M163.0969,-53.3103C171.8761,-54.1506 180.8458,-55.0092 189.7191,-55.8585"/>
<polygon fill="#191970" stroke="#191970" points="189.393,-59.3432 199.681,-56.812 190.06,-52.375 189.393,-59.3432"/>
</g>
<!-- Node3 -->
<g id="node3" class="node">
<title>Node3</title>
<g id="a_node3"><a xlink:href="namespacemom__error__handler.html#a460cfb79a06c29fc249952c2a3710d67" target="_top" xlink:title="This provides a convenient interface for writing an mpp_error message with run&#45;time filter based on a...">
<polygon fill="#ffffff" stroke="#000000" points="399,-49.5 399,-79.5 514,-79.5 514,-49.5 399,-49.5"/>
<text text-anchor="start" x="407" y="-67.5" font-family="Helvetica,sans-Serif" font-size="10.00" fill="#000000">mom_error_handler::</text>
<text text-anchor="middle" x="456.5" y="-56.5" font-family="Helvetica,sans-Serif" font-size="10.00" fill="#000000">mom_error</text>
</a>
</g>
</g>
<!-- Node2&#45;&gt;Node3 -->
<g id="edge2" class="edge">
<title>Node2&#45;&gt;Node3</title>
<path fill="none" stroke="#191970" d="M324.5384,-36.089C344.11,-40.3027 367.519,-45.3426 389.1504,-49.9998"/>
<polygon fill="#191970" stroke="#191970" points="388.4312,-53.4251 398.9439,-52.1083 389.9046,-46.5819 388.4312,-53.4251"/>
</g>
<!-- Node5 -->
<g id="node5" class="node">
<title>Node5</title>
<g id="a_node5"><a xlink:href="namespacemom__string__functions.html#aca148baf726de2f028b7e7baad3c85d4" target="_top" xlink:title="Return a string in which all uppercase letters have been replaced by their lowercase counterparts.">
<polygon fill="#ffffff" stroke="#000000" points="397,-.5 397,-30.5 516,-30.5 516,-.5 397,-.5"/>
<text text-anchor="start" x="405" y="-18.5" font-family="Helvetica,sans-Serif" font-size="10.00" fill="#000000">mom_string_functions</text>
<text text-anchor="middle" x="456.5" y="-7.5" font-family="Helvetica,sans-Serif" font-size="10.00" fill="#000000">::uppercase</text>
</a>
</g>
</g>
<!-- Node2&#45;&gt;Node5 -->
<g id="edge4" class="edge">
<title>Node2&#45;&gt;Node5</title>
<path fill="none" stroke="#191970" d="M361.018,-21.4507C369.5868,-20.9167 378.2471,-20.3769 386.673,-19.8518"/>
<polygon fill="#191970" stroke="#191970" points="387.0496,-23.3352 396.8125,-19.2199 386.6141,-16.3488 387.0496,-23.3352"/>
</g>
<!-- Node4 -->
<g id="node4" class="node">
<title>Node4</title>
<g id="a_node4"><a xlink:href="namespacemom__error__handler.html#ad5f00a53059c72fe2332d1436c80ca71" target="_top" xlink:title="This returns .true. if the current PE is the root PE.">
<polygon fill="#ffffff" stroke="#000000" points="552,-49.5 552,-79.5 667,-79.5 667,-49.5 552,-49.5"/>
<text text-anchor="start" x="560" y="-67.5" font-family="Helvetica,sans-Serif" font-size="10.00" fill="#000000">mom_error_handler::</text>
<text text-anchor="middle" x="609.5" y="-56.5" font-family="Helvetica,sans-Serif" font-size="10.00" fill="#000000">is_root_pe</text>
</a>
</g>
</g>
<!-- Node3&#45;&gt;Node4 -->
<g id="edge3" class="edge">
<title>Node3&#45;&gt;Node4</title>
<path fill="none" stroke="#191970" d="M514.3427,-64.5C523.2579,-64.5 532.5331,-64.5 541.6427,-64.5"/>
<polygon fill="#191970" stroke="#191970" points="541.8293,-68.0001 551.8293,-64.5 541.8293,-61.0001 541.8293,-68.0001"/>
</g>
<!-- Node6&#45;&gt;Node3 -->
<g id="edge6" class="edge">
<title>Node6&#45;&gt;Node3</title>
<path fill="none" stroke="#191970" d="M360.2449,-64.5C369.8081,-64.5 379.4977,-64.5 388.8596,-64.5"/>
<polygon fill="#191970" stroke="#191970" points="388.8681,-68.0001 398.8681,-64.5 388.868,-61.0001 388.8681,-68.0001"/>
</g>
</g>
</svg>
