<?xml version="1.0" encoding="UTF-8" standalone="no"?>
<!DOCTYPE svg PUBLIC "-//W3C//DTD SVG 1.1//EN"
 "http://www.w3.org/Graphics/SVG/1.1/DTD/svg11.dtd">
<!-- Generated by graphviz version 2.40.1 (20161225.0304)
 -->
<!-- Title: mom_cvmix_shear::cvmix_shear_is_used Pages: 1 -->
<svg width="555pt" height="88pt"
 viewBox="0.00 0.00 555.00 88.00" xmlns="http://www.w3.org/2000/svg" xmlns:xlink="http://www.w3.org/1999/xlink">
<g id="graph0" class="graph" transform="scale(1 1) rotate(0) translate(4 84)">
<title>mom_cvmix_shear::cvmix_shear_is_used</title>
<polygon fill="#ffffff" stroke="transparent" points="-4,4 -4,-84 551,-84 551,4 -4,4"/>
<!-- Node1 -->
<g id="node1" class="node">
<title>Node1</title>
<g id="a_node1"><a xlink:title="Reads the parameters &quot;LMD94&quot; and &quot;PP81&quot; and returns state. This function allows other modules to know...">
<polygon fill="#bfbfbf" stroke="#000000" points="412,-24.5 412,-54.5 547,-54.5 547,-24.5 412,-24.5"/>
<text text-anchor="start" x="420" y="-42.5" font-family="Helvetica,sans-Serif" font-size="10.00" fill="#000000">mom_cvmix_shear::cvmix</text>
<text text-anchor="middle" x="479.5" y="-31.5" font-family="Helvetica,sans-Serif" font-size="10.00" fill="#000000">_shear_is_used</text>
</a>
</g>
</g>
<!-- Node2 -->
<g id="node2" class="node">
<title>Node2</title>
<g id="a_node2"><a xlink:href="namespacemom__diabatic__driver.html#a51d273bae7e5d2217fa5498620532888" target="_top" xlink:title="This routine initializes the diabatic driver module.">
<polygon fill="#ffffff" stroke="#000000" points="256,-49.5 256,-79.5 370,-79.5 370,-49.5 256,-49.5"/>
<text text-anchor="start" x="264" y="-67.5" font-family="Helvetica,sans-Serif" font-size="10.00" fill="#000000">mom_diabatic_driver</text>
<text text-anchor="middle" x="313" y="-56.5" font-family="Helvetica,sans-Serif" font-size="10.00" fill="#000000">::diabatic_driver_init</text>
</a>
</g>
</g>
<!-- Node1&#45;&gt;Node2 -->
<g id="edge1" class="edge">
<title>Node1&#45;&gt;Node2</title>
<path fill="none" stroke="#191970" d="M401.6224,-51.1933C390.9684,-52.793 380.1965,-54.4104 370.0087,-55.9401"/>
<polygon fill="#191970" stroke="#191970" points="402.4087,-54.6146 411.7781,-49.6685 401.3692,-47.6922 402.4087,-54.6146"/>
</g>
<!-- Node3 -->
<g id="node3" class="node">
<title>Node3</title>
<g id="a_node3"><a xlink:href="namespacemom__set__visc.html#ae2d9d9f74c1e9aec56257cfad372b0fd" target="_top" xlink:title="Register any fields associated with the vertvisc_type.">
<polygon fill="#ffffff" stroke="#000000" points="250,-.5 250,-30.5 376,-30.5 376,-.5 250,-.5"/>
<text text-anchor="start" x="258" y="-18.5" font-family="Helvetica,sans-Serif" font-size="10.00" fill="#000000">mom_set_visc::set_visc</text>
<text text-anchor="middle" x="313" y="-7.5" font-family="Helvetica,sans-Serif" font-size="10.00" fill="#000000">_register_restarts</text>
</a>
</g>
</g>
<!-- Node1&#45;&gt;Node3 -->
<g id="edge2" class="edge">
<title>Node1&#45;&gt;Node3</title>
<path fill="none" stroke="#191970" d="M401.7465,-28.2923C393.1516,-27.0534 384.4782,-25.8032 376.0949,-24.5948"/>
<polygon fill="#191970" stroke="#191970" points="401.381,-31.7757 411.7781,-29.7383 402.3797,-24.8473 401.381,-31.7757"/>
</g>
<!-- Node4 -->
<g id="node4" class="node">
<title>Node4</title>
<g id="a_node4"><a xlink:href="namespacemom.html#a96708b16215666edbfa5b46228f3a200" target="_top" xlink:title="Initialize MOM, including memory allocation, setting up parameters and diagnostics,...">
<polygon fill="#ffffff" stroke="#000000" points="104,-6 104,-25 214,-25 214,-6 104,-6"/>
<text text-anchor="middle" x="159" y="-13" font-family="Helvetica,sans-Serif" font-size="10.00" fill="#000000">mom::initialize_mom</text>
</a>
</g>
</g>
<!-- Node3&#45;&gt;Node4 -->
<g id="edge3" class="edge">
<title>Node3&#45;&gt;Node4</title>
<path fill="none" stroke="#191970" d="M239.8845,-15.5C231.2903,-15.5 222.6314,-15.5 214.3375,-15.5"/>
<polygon fill="#191970" stroke="#191970" points="239.918,-19.0001 249.918,-15.5 239.9179,-12.0001 239.918,-19.0001"/>
</g>
<!-- Node5 -->
<g id="node5" class="node">
<title>Node5</title>
<g id="a_node5"><a xlink:href="MOM__driver_8F90.html#a08fffeb2d8e8acbf9ed4609be6d258c6" target="_top" xlink:title=" ">
<polygon fill="#ffffff" stroke="#000000" points="0,-6 0,-25 68,-25 68,-6 0,-6"/>
<text text-anchor="middle" x="34" y="-13" font-family="Helvetica,sans-Serif" font-size="10.00" fill="#000000">mom_main</text>
</a>
</g>
</g>
<!-- Node4&#45;&gt;Node5 -->
<g id="edge4" class="edge">
<title>Node4&#45;&gt;Node5</title>
<path fill="none" stroke="#191970" d="M93.7848,-15.5C84.8995,-15.5 76.0876,-15.5 68.0691,-15.5"/>
<polygon fill="#191970" stroke="#191970" points="93.8094,-19.0001 103.8093,-15.5 93.8093,-12.0001 93.8094,-19.0001"/>
</g>
</g>
</svg>
