<?xml version="1.0" encoding="UTF-8" standalone="no"?>
<!DOCTYPE svg PUBLIC "-//W3C//DTD SVG 1.1//EN"
 "http://www.w3.org/Graphics/SVG/1.1/DTD/svg11.dtd">
<!-- Generated by graphviz version 2.40.1 (20161225.0304)
 -->
<!-- Title: mom_energetic_pbl::epbl_column Pages: 1 -->
<svg width="612pt" height="235pt"
 viewBox="0.00 0.00 612.00 235.00" xmlns="http://www.w3.org/2000/svg" xmlns:xlink="http://www.w3.org/1999/xlink">
<g id="graph0" class="graph" transform="scale(1 1) rotate(0) translate(4 231)">
<title>mom_energetic_pbl::epbl_column</title>
<polygon fill="#ffffff" stroke="transparent" points="-4,4 -4,-231 608,-231 608,4 -4,4"/>
<!-- Node1 -->
<g id="node1" class="node">
<title>Node1</title>
<g id="a_node1"><a xlink:title="This subroutine determines the diffusivities from the integrated energetics mixed layer model for a s...">
<polygon fill="#bfbfbf" stroke="#000000" points="0,-98.5 0,-128.5 113,-128.5 113,-98.5 0,-98.5"/>
<text text-anchor="start" x="8" y="-116.5" font-family="Helvetica,sans-Serif" font-size="10.00" fill="#000000">mom_energetic_pbl::</text>
<text text-anchor="middle" x="56.5" y="-105.5" font-family="Helvetica,sans-Serif" font-size="10.00" fill="#000000">epbl_column</text>
</a>
</g>
</g>
<!-- Node2 -->
<g id="node2" class="node">
<title>Node2</title>
<g id="a_node2"><a xlink:href="namespacemom__energetic__pbl.html#a7686c6a30a476068859f7a2a30e652df" target="_top" xlink:title="This subroutine finds the Mstar value for ePBL.">
<polygon fill="#ffffff" stroke="#000000" points="153.5,-196.5 153.5,-226.5 266.5,-226.5 266.5,-196.5 153.5,-196.5"/>
<text text-anchor="start" x="161.5" y="-214.5" font-family="Helvetica,sans-Serif" font-size="10.00" fill="#000000">mom_energetic_pbl::</text>
<text text-anchor="middle" x="210" y="-203.5" font-family="Helvetica,sans-Serif" font-size="10.00" fill="#000000">find_mstar</text>
</a>
</g>
</g>
<!-- Node1&#45;&gt;Node2 -->
<g id="edge1" class="edge">
<title>Node1&#45;&gt;Node2</title>
<path fill="none" stroke="#191970" d="M72.4435,-128.7548C90.0585,-144.9845 119.8112,-170.6014 149,-187.5 151.807,-189.1251 154.745,-190.6858 157.75,-192.1763"/>
<polygon fill="#191970" stroke="#191970" points="156.3591,-195.3893 166.9026,-196.4314 159.3102,-189.0418 156.3591,-195.3893"/>
</g>
<!-- Node4 -->
<g id="node4" class="node">
<title>Node4</title>
<g id="a_node4"><a xlink:href="namespacemom__energetic__pbl.html#ab0d988822a378f674d3b7e0ee2534c74" target="_top" xlink:title="This subroutine calculates the change in potential energy and or derivatives for several changes in a...">
<polygon fill="#ffffff" stroke="#000000" points="153.5,-147.5 153.5,-177.5 266.5,-177.5 266.5,-147.5 153.5,-147.5"/>
<text text-anchor="start" x="161.5" y="-165.5" font-family="Helvetica,sans-Serif" font-size="10.00" fill="#000000">mom_energetic_pbl::</text>
<text text-anchor="middle" x="210" y="-154.5" font-family="Helvetica,sans-Serif" font-size="10.00" fill="#000000">find_pe_chg</text>
</a>
</g>
</g>
<!-- Node1&#45;&gt;Node4 -->
<g id="edge3" class="edge">
<title>Node1&#45;&gt;Node4</title>
<path fill="none" stroke="#191970" d="M103.8076,-128.6014C119.3458,-133.5615 136.7816,-139.1274 152.9634,-144.2929"/>
<polygon fill="#191970" stroke="#191970" points="152.2579,-147.7416 162.8486,-147.4484 154.3866,-141.0731 152.2579,-147.7416"/>
</g>
<!-- Node5 -->
<g id="node5" class="node">
<title>Node5</title>
<g id="a_node5"><a xlink:href="namespacemom__energetic__pbl.html#a3eb660658d0677c55c6187dcf4a180b5" target="_top" xlink:title="This subroutine calculates the change in potential energy and or derivatives for several changes in a...">
<polygon fill="#ffffff" stroke="#000000" points="153.5,-98.5 153.5,-128.5 266.5,-128.5 266.5,-98.5 153.5,-98.5"/>
<text text-anchor="start" x="161.5" y="-116.5" font-family="Helvetica,sans-Serif" font-size="10.00" fill="#000000">mom_energetic_pbl::</text>
<text text-anchor="middle" x="210" y="-105.5" font-family="Helvetica,sans-Serif" font-size="10.00" fill="#000000">find_pe_chg_orig</text>
</a>
</g>
</g>
<!-- Node1&#45;&gt;Node5 -->
<g id="edge4" class="edge">
<title>Node1&#45;&gt;Node5</title>
<path fill="none" stroke="#191970" d="M113.2216,-113.5C122.9195,-113.5 133.0762,-113.5 143.011,-113.5"/>
<polygon fill="#191970" stroke="#191970" points="143.2554,-117.0001 153.2554,-113.5 143.2554,-110.0001 143.2554,-117.0001"/>
</g>
<!-- Node6 -->
<g id="node6" class="node">
<title>Node6</title>
<g id="a_node6"><a xlink:href="namespacemom__wave__interface.html#aa07c73f561840851981d6a013423dd6e" target="_top" xlink:title="Interface to get Langmuir number based on options stored in wave structure.">
<polygon fill="#ffffff" stroke="#000000" points="149,-49.5 149,-79.5 271,-79.5 271,-49.5 149,-49.5"/>
<text text-anchor="start" x="157" y="-67.5" font-family="Helvetica,sans-Serif" font-size="10.00" fill="#000000">mom_wave_interface</text>
<text text-anchor="middle" x="210" y="-56.5" font-family="Helvetica,sans-Serif" font-size="10.00" fill="#000000">::get_langmuir_number</text>
</a>
</g>
</g>
<!-- Node1&#45;&gt;Node6 -->
<g id="edge5" class="edge">
<title>Node1&#45;&gt;Node6</title>
<path fill="none" stroke="#191970" d="M103.8076,-98.3986C119.3458,-93.4385 136.7816,-87.8726 152.9634,-82.7071"/>
<polygon fill="#191970" stroke="#191970" points="154.3866,-85.9269 162.8486,-79.5516 152.2579,-79.2584 154.3866,-85.9269"/>
</g>
<!-- Node11 -->
<g id="node11" class="node">
<title>Node11</title>
<g id="a_node11"><a xlink:href="namespacemom__error__handler.html#a460cfb79a06c29fc249952c2a3710d67" target="_top" xlink:title="This provides a convenient interface for writing an mpp_error message with run&#45;time filter based on a...">
<polygon fill="#ffffff" stroke="#000000" points="319.5,-.5 319.5,-30.5 434.5,-30.5 434.5,-.5 319.5,-.5"/>
<text text-anchor="start" x="327.5" y="-18.5" font-family="Helvetica,sans-Serif" font-size="10.00" fill="#000000">mom_error_handler::</text>
<text text-anchor="middle" x="377" y="-7.5" font-family="Helvetica,sans-Serif" font-size="10.00" fill="#000000">mom_error</text>
</a>
</g>
</g>
<!-- Node1&#45;&gt;Node11 -->
<g id="edge12" class="edge">
<title>Node1&#45;&gt;Node11</title>
<path fill="none" stroke="#191970" d="M70.1494,-98.2456C86.837,-80.7267 116.8515,-52.7076 149,-39.5 199.9346,-18.5744 262.406,-13.2568 309.0687,-12.7888"/>
<polygon fill="#191970" stroke="#191970" points="309.0844,-16.2889 319.0742,-12.7599 309.0641,-9.2889 309.0844,-16.2889"/>
</g>
<!-- Node3 -->
<g id="node3" class="node">
<title>Node3</title>
<g id="a_node3"><a xlink:href="namespacemom__energetic__pbl.html#a6c4810c93427881cc393b255774735e0" target="_top" xlink:title="This subroutine modifies the Mstar value if the Langmuir number is present.">
<polygon fill="#ffffff" stroke="#000000" points="320.5,-196.5 320.5,-226.5 433.5,-226.5 433.5,-196.5 320.5,-196.5"/>
<text text-anchor="start" x="328.5" y="-214.5" font-family="Helvetica,sans-Serif" font-size="10.00" fill="#000000">mom_energetic_pbl::</text>
<text text-anchor="middle" x="377" y="-203.5" font-family="Helvetica,sans-Serif" font-size="10.00" fill="#000000">mstar_langmuir</text>
</a>
</g>
</g>
<!-- Node2&#45;&gt;Node3 -->
<g id="edge2" class="edge">
<title>Node2&#45;&gt;Node3</title>
<path fill="none" stroke="#191970" d="M266.5386,-211.5C280.4728,-211.5 295.5293,-211.5 309.9097,-211.5"/>
<polygon fill="#191970" stroke="#191970" points="310.2357,-215.0001 320.2357,-211.5 310.2356,-208.0001 310.2357,-215.0001"/>
</g>
<!-- Node7 -->
<g id="node7" class="node">
<title>Node7</title>
<g id="a_node7"><a xlink:href="namespacemom__wave__interface.html#a5ebd32de10bed6d66c0a95a4a15cc81a" target="_top" xlink:title="Get SL averaged Stokes drift from the banded Spectrum method.">
<polygon fill="#ffffff" stroke="#000000" points="315,-147.5 315,-177.5 439,-177.5 439,-147.5 315,-147.5"/>
<text text-anchor="start" x="323" y="-165.5" font-family="Helvetica,sans-Serif" font-size="10.00" fill="#000000">mom_wave_interface</text>
<text text-anchor="middle" x="377" y="-154.5" font-family="Helvetica,sans-Serif" font-size="10.00" fill="#000000">::get_sl_average_band</text>
</a>
</g>
</g>
<!-- Node6&#45;&gt;Node7 -->
<g id="edge6" class="edge">
<title>Node6&#45;&gt;Node7</title>
<path fill="none" stroke="#191970" d="M254.9045,-79.5264C260.599,-82.3841 266.1292,-85.6958 271,-89.5 292.2976,-106.1338 285.2238,-122.4979 307,-138.5 309.0382,-139.9977 311.1768,-141.407 313.3885,-142.7327"/>
<polygon fill="#191970" stroke="#191970" points="311.7517,-145.8263 322.2228,-147.4409 315.044,-139.6489 311.7517,-145.8263"/>
</g>
<!-- Node8 -->
<g id="node8" class="node">
<title>Node8</title>
<g id="a_node8"><a xlink:href="namespacemom__wave__interface.html#ae631a776ca48a5b8be572bed00e6f5c1" target="_top" xlink:title="Get SL Averaged Stokes drift from a Stokes drift Profile.">
<polygon fill="#ffffff" stroke="#000000" points="317.5,-98.5 317.5,-128.5 436.5,-128.5 436.5,-98.5 317.5,-98.5"/>
<text text-anchor="start" x="325.5" y="-116.5" font-family="Helvetica,sans-Serif" font-size="10.00" fill="#000000">mom_wave_interface</text>
<text text-anchor="middle" x="377" y="-105.5" font-family="Helvetica,sans-Serif" font-size="10.00" fill="#000000">::get_sl_average_prof</text>
</a>
</g>
</g>
<!-- Node6&#45;&gt;Node8 -->
<g id="edge7" class="edge">
<title>Node6&#45;&gt;Node8</title>
<path fill="none" stroke="#191970" d="M261.4682,-79.6014C278.6919,-84.6551 298.0588,-90.3376 315.9422,-95.5848"/>
<polygon fill="#191970" stroke="#191970" points="315.1209,-98.9913 325.7018,-98.4484 317.0917,-92.2745 315.1209,-98.9913"/>
</g>
<!-- Node9 -->
<g id="node9" class="node">
<title>Node9</title>
<g id="a_node9"><a xlink:href="namespacemom__wave__interface.html#a42ca9104192ff12c44c28b705d137eb9" target="_top" xlink:title="Get SL averaged Stokes drift from Li/FK 17 method.">
<polygon fill="#ffffff" stroke="#000000" points="307,-49.5 307,-79.5 447,-79.5 447,-49.5 307,-49.5"/>
<text text-anchor="start" x="315" y="-67.5" font-family="Helvetica,sans-Serif" font-size="10.00" fill="#000000">mom_wave_interface</text>
<text text-anchor="middle" x="377" y="-56.5" font-family="Helvetica,sans-Serif" font-size="10.00" fill="#000000">::get_stokessl_lifoxkemper</text>
</a>
</g>
</g>
<!-- Node6&#45;&gt;Node9 -->
<g id="edge8" class="edge">
<title>Node6&#45;&gt;Node9</title>
<path fill="none" stroke="#191970" d="M271.2364,-64.5C279.5329,-64.5 288.1459,-64.5 296.7136,-64.5"/>
<polygon fill="#191970" stroke="#191970" points="296.729,-68.0001 306.729,-64.5 296.729,-61.0001 296.729,-68.0001"/>
</g>
<!-- Node6&#45;&gt;Node11 -->
<g id="edge10" class="edge">
<title>Node6&#45;&gt;Node11</title>
<path fill="none" stroke="#191970" d="M261.4682,-49.3986C278.6919,-44.3449 298.0588,-38.6624 315.9422,-33.4152"/>
<polygon fill="#191970" stroke="#191970" points="317.0917,-36.7255 325.7018,-30.5516 315.1209,-30.0087 317.0917,-36.7255"/>
</g>
<!-- Node10 -->
<g id="node10" class="node">
<title>Node10</title>
<g id="a_node10"><a xlink:href="namespacemom__wave__interface.html#ae771d75c78a0370ad163edd5b1c19965" target="_top" xlink:title="Computes wind speed from ustar_air based on COARE 3.5 Cd relationship Probably doesn&#39;t belong in this...">
<polygon fill="#ffffff" stroke="#000000" points="483,-49.5 483,-79.5 604,-79.5 604,-49.5 483,-49.5"/>
<text text-anchor="start" x="491" y="-67.5" font-family="Helvetica,sans-Serif" font-size="10.00" fill="#000000">mom_wave_interface</text>
<text text-anchor="middle" x="543.5" y="-56.5" font-family="Helvetica,sans-Serif" font-size="10.00" fill="#000000">::ust_2_u10_coare3p5</text>
</a>
</g>
</g>
<!-- Node9&#45;&gt;Node10 -->
<g id="edge9" class="edge">
<title>Node9&#45;&gt;Node10</title>
<path fill="none" stroke="#191970" d="M447.1284,-64.5C455.595,-64.5 464.2474,-64.5 472.7232,-64.5"/>
<polygon fill="#191970" stroke="#191970" points="472.95,-68.0001 482.95,-64.5 472.9499,-61.0001 472.95,-68.0001"/>
</g>
<!-- Node12 -->
<g id="node12" class="node">
<title>Node12</title>
<g id="a_node12"><a xlink:href="namespacemom__error__handler.html#ad5f00a53059c72fe2332d1436c80ca71" target="_top" xlink:title="This returns .true. if the current PE is the root PE.">
<polygon fill="#ffffff" stroke="#000000" points="486,-.5 486,-30.5 601,-30.5 601,-.5 486,-.5"/>
<text text-anchor="start" x="494" y="-18.5" font-family="Helvetica,sans-Serif" font-size="10.00" fill="#000000">mom_error_handler::</text>
<text text-anchor="middle" x="543.5" y="-7.5" font-family="Helvetica,sans-Serif" font-size="10.00" fill="#000000">is_root_pe</text>
</a>
</g>
</g>
<!-- Node11&#45;&gt;Node12 -->
<g id="edge11" class="edge">
<title>Node11&#45;&gt;Node12</title>
<path fill="none" stroke="#191970" d="M434.7663,-15.5C447.9392,-15.5 462.0542,-15.5 475.6067,-15.5"/>
<polygon fill="#191970" stroke="#191970" points="475.8358,-19.0001 485.8358,-15.5 475.8357,-12.0001 475.8358,-19.0001"/>
</g>
</g>
</svg>
