<?xml version="1.0" encoding="UTF-8" standalone="no"?>
<!DOCTYPE svg PUBLIC "-//W3C//DTD SVG 1.1//EN"
 "http://www.w3.org/Graphics/SVG/1.1/DTD/svg11.dtd">
<!-- Generated by graphviz version 2.40.1 (20161225.0304)
 -->
<!-- Title: mom_wave_speed::wave_speeds Pages: 1 -->
<svg width="605pt" height="53pt"
 viewBox="0.00 0.00 605.00 52.50" xmlns="http://www.w3.org/2000/svg" xmlns:xlink="http://www.w3.org/1999/xlink">
<g id="graph0" class="graph" transform="scale(1 1) rotate(0) translate(4 48.5)">
<title>mom_wave_speed::wave_speeds</title>
<polygon fill="#ffffff" stroke="transparent" points="-4,4 -4,-48.5 601,-48.5 601,4 -4,4"/>
<!-- Node1 -->
<g id="node1" class="node">
<title>Node1</title>
<g id="a_node1"><a xlink:title="Calculates the wave speeds for the first few barolinic modes.">
<polygon fill="#bfbfbf" stroke="#000000" points="0,-14 0,-44 128,-44 128,-14 0,-14"/>
<text text-anchor="start" x="8" y="-32" font-family="Helvetica,sans-Serif" font-size="10.00" fill="#000000">mom_wave_speed::wave</text>
<text text-anchor="middle" x="64" y="-21" font-family="Helvetica,sans-Serif" font-size="10.00" fill="#000000">_speeds</text>
</a>
</g>
</g>
<!-- Node2 -->
<g id="node2" class="node">
<title>Node2</title>
<g id="a_node2"><a xlink:href="namespacemom__error__handler.html#a460cfb79a06c29fc249952c2a3710d67" target="_top" xlink:title="This provides a convenient interface for writing an mpp_error message with run&#45;time filter based on a...">
<polygon fill="#ffffff" stroke="#000000" points="349,-14 349,-44 455,-44 455,-14 349,-14"/>
<text text-anchor="start" x="357" y="-32" font-family="Helvetica,sans-Serif" font-size="10.00" fill="#000000">mom_error_handler::</text>
<text text-anchor="middle" x="402" y="-21" font-family="Helvetica,sans-Serif" font-size="10.00" fill="#000000">mom_error</text>
</a>
</g>
</g>
<!-- Node1&#45;&gt;Node2 -->
<g id="edge1" class="edge">
<title>Node1&#45;&gt;Node2</title>
<path fill="none" stroke="#191970" d="M128.3708,-29C188.846,-29 278.7907,-29 338.8615,-29"/>
<polygon fill="#191970" stroke="#191970" points="338.9756,-32.5001 348.9756,-29 338.9755,-25.5001 338.9756,-32.5001"/>
</g>
<!-- Node4 -->
<g id="node4" class="node">
<title>Node4</title>
<g id="a_node4"><a xlink:href="namespacemom__wave__speed.html#a5079e31d32604f816bcf78f5d7086682" target="_top" xlink:title="Calculate the determinant of a tridiagonal matrix with diagonals a,b&#45;lam,c and its derivative with la...">
<polygon fill="#ffffff" stroke="#000000" points="164,-.5 164,-19.5 313,-19.5 313,-.5 164,-.5"/>
<text text-anchor="middle" x="238.5" y="-7.5" font-family="Helvetica,sans-Serif" font-size="10.00" fill="#000000">mom_wave_speed::tridiag_det</text>
</a>
</g>
</g>
<!-- Node1&#45;&gt;Node4 -->
<g id="edge3" class="edge">
<title>Node1&#45;&gt;Node4</title>
<path fill="none" stroke="#191970" d="M128.4816,-21.9791C136.7855,-21.0749 145.3854,-20.1386 153.9505,-19.206"/>
<polygon fill="#191970" stroke="#191970" points="154.407,-22.677 163.9694,-18.1151 153.6492,-15.7182 154.407,-22.677"/>
</g>
<!-- Node3 -->
<g id="node3" class="node">
<title>Node3</title>
<g id="a_node3"><a xlink:href="namespacemom__error__handler.html#ad5f00a53059c72fe2332d1436c80ca71" target="_top" xlink:title="This returns .true. if the current PE is the root PE.">
<polygon fill="#ffffff" stroke="#000000" points="491,-14 491,-44 597,-44 597,-14 491,-14"/>
<text text-anchor="start" x="499" y="-32" font-family="Helvetica,sans-Serif" font-size="10.00" fill="#000000">mom_error_handler::</text>
<text text-anchor="middle" x="544" y="-21" font-family="Helvetica,sans-Serif" font-size="10.00" fill="#000000">is_root_pe</text>
</a>
</g>
</g>
<!-- Node2&#45;&gt;Node3 -->
<g id="edge2" class="edge">
<title>Node2&#45;&gt;Node3</title>
<path fill="none" stroke="#191970" d="M455.2796,-29C463.56,-29 472.184,-29 480.6606,-29"/>
<polygon fill="#191970" stroke="#191970" points="480.8941,-32.5001 490.8941,-29 480.8941,-25.5001 480.8941,-32.5001"/>
</g>
<!-- Node4&#45;&gt;Node2 -->
<g id="edge4" class="edge">
<title>Node4&#45;&gt;Node2</title>
<path fill="none" stroke="#191970" d="M313.0732,-18.666C321.5756,-19.654 330.1824,-20.6542 338.5218,-21.6233"/>
<polygon fill="#191970" stroke="#191970" points="338.1993,-25.1093 348.5365,-22.7871 339.0074,-18.1561 338.1993,-25.1093"/>
</g>
</g>
</svg>
