<?xml version="1.0" encoding="UTF-8" standalone="no"?>
<!DOCTYPE svg PUBLIC "-//W3C//DTD SVG 1.1//EN"
 "http://www.w3.org/Graphics/SVG/1.1/DTD/svg11.dtd">
<!-- Generated by graphviz version 2.40.1 (20161225.0304)
 -->
<!-- Title: rossby_front_2d_initialization::rossby_front_initialize_temperature_salinity Pages: 1 -->
<svg width="563pt" height="50pt"
 viewBox="0.00 0.00 563.00 50.00" xmlns="http://www.w3.org/2000/svg" xmlns:xlink="http://www.w3.org/1999/xlink">
<g id="graph0" class="graph" transform="scale(1 1) rotate(0) translate(4 46)">
<title>rossby_front_2d_initialization::rossby_front_initialize_temperature_salinity</title>
<polygon fill="#ffffff" stroke="transparent" points="-4,4 -4,-46 559,-46 559,4 -4,4"/>
<!-- Node1 -->
<g id="node1" class="node">
<title>Node1</title>
<g id="a_node1"><a xlink:title="Initialization of temperature and salinity in the Rossby front test.">
<polygon fill="#bfbfbf" stroke="#000000" points="0,-.5 0,-41.5 154,-41.5 154,-.5 0,-.5"/>
<text text-anchor="start" x="8" y="-29.5" font-family="Helvetica,sans-Serif" font-size="10.00" fill="#000000">rossby_front_2d_initialization</text>
<text text-anchor="start" x="8" y="-18.5" font-family="Helvetica,sans-Serif" font-size="10.00" fill="#000000">::rossby_front_initialize</text>
<text text-anchor="middle" x="77" y="-7.5" font-family="Helvetica,sans-Serif" font-size="10.00" fill="#000000">_temperature_salinity</text>
</a>
</g>
</g>
<!-- Node2 -->
<g id="node2" class="node">
<title>Node2</title>
<g id="a_node2"><a xlink:href="namespacerossby__front__2d__initialization.html#aa10adb0378184432ecaa78eb339c6c5a" target="_top" xlink:title="Analytic prescription of mixed layer depth in 2d Rossby front test, in the same units as Gmax_depth.">
<polygon fill="#ffffff" stroke="#000000" points="190,-11.5 190,-30.5 365,-30.5 365,-11.5 190,-11.5"/>
<text text-anchor="middle" x="277.5" y="-18.5" font-family="Helvetica,sans-Serif" font-size="10.00" fill="#000000">rossby_front_2d_initialization::hml</text>
</a>
</g>
</g>
<!-- Node1&#45;&gt;Node2 -->
<g id="edge1" class="edge">
<title>Node1&#45;&gt;Node2</title>
<path fill="none" stroke="#191970" d="M154.2317,-21C162.6364,-21 171.2693,-21 179.8763,-21"/>
<polygon fill="#191970" stroke="#191970" points="179.9532,-24.5001 189.9531,-21 179.9531,-17.5001 179.9532,-24.5001"/>
</g>
<!-- Node3 -->
<g id="node3" class="node">
<title>Node3</title>
<g id="a_node3"><a xlink:href="namespacerossby__front__2d__initialization.html#a15a0b752df24fbae7deabe844a418239" target="_top" xlink:title="Pseudo coordinate across domain used by Hml() and dTdy() returns a coordinate from &#45;PI/2 ....">
<polygon fill="#ffffff" stroke="#000000" points="401,-6 401,-36 555,-36 555,-6 401,-6"/>
<text text-anchor="start" x="409" y="-24" font-family="Helvetica,sans-Serif" font-size="10.00" fill="#000000">rossby_front_2d_initialization</text>
<text text-anchor="middle" x="478" y="-13" font-family="Helvetica,sans-Serif" font-size="10.00" fill="#000000">::ypseudo</text>
</a>
</g>
</g>
<!-- Node2&#45;&gt;Node3 -->
<g id="edge2" class="edge">
<title>Node2&#45;&gt;Node3</title>
<path fill="none" stroke="#191970" d="M365.1505,-21C373.6159,-21 382.203,-21 390.6652,-21"/>
<polygon fill="#191970" stroke="#191970" points="390.9088,-24.5001 400.9088,-21 390.9088,-17.5001 390.9088,-24.5001"/>
</g>
</g>
</svg>
