<?xml version="1.0" encoding="UTF-8" standalone="no"?>
<!DOCTYPE svg PUBLIC "-//W3C//DTD SVG 1.1//EN"
 "http://www.w3.org/Graphics/SVG/1.1/DTD/svg11.dtd">
<!-- Generated by graphviz version 2.40.1 (20161225.0304)
 -->
<!-- Title: regrid_interp::interpolation_scheme Pages: 1 -->
<svg width="599pt" height="88pt"
 viewBox="0.00 0.00 599.00 88.00" xmlns="http://www.w3.org/2000/svg" xmlns:xlink="http://www.w3.org/1999/xlink">
<g id="graph0" class="graph" transform="scale(1 1) rotate(0) translate(4 84)">
<title>regrid_interp::interpolation_scheme</title>
<polygon fill="#ffffff" stroke="transparent" points="-4,4 -4,-84 595,-84 595,4 -4,4"/>
<!-- Node1 -->
<g id="node1" class="node">
<title>Node1</title>
<g id="a_node1"><a xlink:title="Numeric value of interpolation_scheme corresponding to scheme name.">
<polygon fill="#bfbfbf" stroke="#000000" points="451,-24.5 451,-54.5 591,-54.5 591,-24.5 451,-24.5"/>
<text text-anchor="start" x="459" y="-42.5" font-family="Helvetica,sans-Serif" font-size="10.00" fill="#000000">regrid_interp::interpolation</text>
<text text-anchor="middle" x="521" y="-31.5" font-family="Helvetica,sans-Serif" font-size="10.00" fill="#000000">_scheme</text>
</a>
</g>
</g>
<!-- Node2 -->
<g id="node2" class="node">
<title>Node2</title>
<g id="a_node2"><a xlink:href="namespaceregrid__interp.html#ae77f3027ed51829db5d4ed6dbc744550" target="_top" xlink:title="Store the interpolation_scheme value in the interp_CS based on the input string.">
<polygon fill="#ffffff" stroke="#000000" points="319,-24.5 319,-54.5 415,-54.5 415,-24.5 319,-24.5"/>
<text text-anchor="start" x="327" y="-42.5" font-family="Helvetica,sans-Serif" font-size="10.00" fill="#000000">regrid_interp::set</text>
<text text-anchor="middle" x="367" y="-31.5" font-family="Helvetica,sans-Serif" font-size="10.00" fill="#000000">_interp_scheme</text>
</a>
</g>
</g>
<!-- Node1&#45;&gt;Node2 -->
<g id="edge1" class="edge">
<title>Node1&#45;&gt;Node2</title>
<path fill="none" stroke="#191970" d="M440.5597,-39.5C431.871,-39.5 423.2408,-39.5 415.1129,-39.5"/>
<polygon fill="#191970" stroke="#191970" points="440.7599,-43.0001 450.7598,-39.5 440.7598,-36.0001 440.7599,-43.0001"/>
</g>
<!-- Node3 -->
<g id="node3" class="node">
<title>Node3</title>
<g id="a_node3"><a xlink:href="namespacemom__regridding.html#a92ee618890e604fd9730bce53c9d313f" target="_top" xlink:title="Can be used to set any of the parameters for MOM_regridding.">
<polygon fill="#ffffff" stroke="#000000" points="171,-24.5 171,-54.5 283,-54.5 283,-24.5 171,-24.5"/>
<text text-anchor="start" x="179" y="-42.5" font-family="Helvetica,sans-Serif" font-size="10.00" fill="#000000">mom_regridding::set</text>
<text text-anchor="middle" x="227" y="-31.5" font-family="Helvetica,sans-Serif" font-size="10.00" fill="#000000">_regrid_params</text>
</a>
</g>
</g>
<!-- Node2&#45;&gt;Node3 -->
<g id="edge2" class="edge">
<title>Node2&#45;&gt;Node3</title>
<path fill="none" stroke="#191970" d="M308.7616,-39.5C300.3943,-39.5 291.7963,-39.5 283.4642,-39.5"/>
<polygon fill="#191970" stroke="#191970" points="308.82,-43.0001 318.8199,-39.5 308.8199,-36.0001 308.82,-43.0001"/>
</g>
<!-- Node4 -->
<g id="node4" class="node">
<title>Node4</title>
<g id="a_node4"><a xlink:href="namespacemom__oda__driver__mod.html#aaaf67b8d0e0db3ba3dfe09e24d2b8b24" target="_top" xlink:title="initialize First_guess (prior) and Analysis grid information for all ensemble members">
<polygon fill="#ffffff" stroke="#000000" points="6.5,-49.5 6.5,-79.5 128.5,-79.5 128.5,-49.5 6.5,-49.5"/>
<text text-anchor="start" x="14.5" y="-67.5" font-family="Helvetica,sans-Serif" font-size="10.00" fill="#000000">mom_oda_driver_mod</text>
<text text-anchor="middle" x="67.5" y="-56.5" font-family="Helvetica,sans-Serif" font-size="10.00" fill="#000000">::init_oda</text>
</a>
</g>
</g>
<!-- Node3&#45;&gt;Node4 -->
<g id="edge3" class="edge">
<title>Node3&#45;&gt;Node4</title>
<path fill="none" stroke="#191970" d="M160.7096,-49.8903C150.0889,-51.555 139.1402,-53.2711 128.6466,-54.9159"/>
<polygon fill="#191970" stroke="#191970" points="161.4289,-53.3204 170.7663,-48.3141 160.3449,-46.4049 161.4289,-53.3204"/>
</g>
<!-- Node5 -->
<g id="node5" class="node">
<title>Node5</title>
<g id="a_node5"><a xlink:href="namespacemom__regridding.html#a8c91ba68f0906e1fc76b7008caf6288e" target="_top" xlink:title="Initialization and configures a regridding control structure based on customizable run&#45;time parameter...">
<polygon fill="#ffffff" stroke="#000000" points="0,-.5 0,-30.5 135,-30.5 135,-.5 0,-.5"/>
<text text-anchor="start" x="8" y="-18.5" font-family="Helvetica,sans-Serif" font-size="10.00" fill="#000000">mom_regridding::initialize</text>
<text text-anchor="middle" x="67.5" y="-7.5" font-family="Helvetica,sans-Serif" font-size="10.00" fill="#000000">_regridding</text>
</a>
</g>
</g>
<!-- Node3&#45;&gt;Node5 -->
<g id="edge4" class="edge">
<title>Node3&#45;&gt;Node5</title>
<path fill="none" stroke="#191970" d="M160.6577,-29.5175C152.2663,-28.2548 143.6711,-26.9615 135.258,-25.6956"/>
<polygon fill="#191970" stroke="#191970" points="160.3568,-33.0115 170.7663,-31.0385 161.3984,-26.0894 160.3568,-33.0115"/>
</g>
</g>
</svg>
