<?xml version="1.0" encoding="UTF-8" standalone="no"?>
<!DOCTYPE svg PUBLIC "-//W3C//DTD SVG 1.1//EN"
 "http://www.w3.org/Graphics/SVG/1.1/DTD/svg11.dtd">
<!-- Generated by graphviz version 2.40.1 (20161225.0304)
 -->
<!-- Title: mom_diabatic_driver::diabatic_driver_init Pages: 1 -->
<!--zoomable 564 -->
<svg id="main" version="1.1" xmlns="http://www.w3.org/2000/svg" xmlns:xlink="http://www.w3.org/1999/xlink" xml:space="preserve" onload="init(evt)">
<style type="text/css"><![CDATA[
.edge:hover path { stroke: red; }
.edge:hover polygon { stroke: red; fill: red; }
]]></style>
<script type="text/javascript"><![CDATA[
var edges = document.getElementsByTagName('g');
if (edges && edges.length) {
  for (var i=0;i<edges.length;i++) {
    if (edges[i].id.substr(0,4)=='edge') {
      edges[i].setAttribute('class','edge');
    }
  }
}
]]></script>
        <defs>
                <circle id="rim" cx="0" cy="0" r="7"/>
                <circle id="rim2" cx="0" cy="0" r="3.5"/>
                <g id="zoomPlus">
                        <use xlink:href="#rim" fill="#404040">
                                <set attributeName="fill" to="#808080" begin="zoomplus.mouseover" end="zoomplus.mouseout"/>
                        </use>
                        <path d="M-4,0h8M0,-4v8" fill="none" stroke="white" stroke-width="1.5" pointer-events="none"/>
                </g>
                <g id="zoomMin">
                        <use xlink:href="#rim" fill="#404040">
                                <set attributeName="fill" to="#808080" begin="zoomminus.mouseover" end="zoomminus.mouseout"/>
                        </use>
                        <path d="M-4,0h8" fill="none" stroke="white" stroke-width="1.5" pointer-events="none"/>
                </g>
                <g id="dirArrow">
                        <path fill="none" stroke="white" stroke-width="1.5" d="M0,-3.0v7 M-2.5,-0.5L0,-3.0L2.5,-0.5"/>
                </g>
               <g id="resetDef">
                       <use xlink:href="#rim2" fill="#404040">
                               <set attributeName="fill" to="#808080" begin="reset.mouseover" end="reset.mouseout"/>
                       </use>
               </g>
        </defs>

<script type="text/javascript">
var viewWidth = 1063;
var viewHeight = 564;
var sectionId = 'dynsection-10';
</script>
<script xlink:href="svgpan.js"/>
<svg id="graph" class="graph">
<g id="viewport">
<title>mom_diabatic_driver::diabatic_driver_init</title>
<polygon fill="#ffffff" stroke="transparent" points="-4,4 -4,-560 1059,-560 1059,4 -4,4"/>
<!-- Node1 -->
<g id="node1" class="node">
<title>Node1</title>
<g id="a_node1"><a xlink:title="This routine initializes the diabatic driver module.">
<polygon fill="#bfbfbf" stroke="#000000" points="0,-161.5 0,-191.5 107,-191.5 107,-161.5 0,-161.5"/>
<text text-anchor="start" x="8" y="-179.5" font-family="Helvetica,sans-Serif" font-size="10.00" fill="#000000">mom_diabatic_driver</text>
<text text-anchor="middle" x="53.5" y="-168.5" font-family="Helvetica,sans-Serif" font-size="10.00" fill="#000000">::diabatic_driver_init</text>
</a>
</g>
</g>
<!-- Node2 -->
<g id="node2" class="node">
<title>Node2</title>
<g id="a_node2"><a xlink:href="namespacemom__bulk__mixed__layer.html#a14f3b36851c81d60fb31ff86870a7d54" target="_top" xlink:title="This subroutine initializes the MOM bulk mixed layer module.">
<polygon fill="#ffffff" stroke="#000000" points="343,-98.5 343,-128.5 462,-128.5 462,-98.5 343,-98.5"/>
<text text-anchor="start" x="351" y="-116.5" font-family="Helvetica,sans-Serif" font-size="10.00" fill="#000000">mom_bulk_mixed_layer</text>
<text text-anchor="middle" x="402.5" y="-105.5" font-family="Helvetica,sans-Serif" font-size="10.00" fill="#000000">::bulkmixedlayer_init</text>
</a>
</g>
</g>
<!-- Node1&#45;&gt;Node2 -->
<g id="edge1" class="edge">
<title>Node1&#45;&gt;Node2</title>
<path fill="none" stroke="#191970" d="M107.1848,-185.0127C159.7285,-191.1591 241.2328,-194.7926 307,-171.5 326.1068,-164.733 325.8698,-154.336 343,-143.5 348.5178,-140.0096 354.4945,-136.6002 360.4596,-133.4056"/>
<polygon fill="#191970" stroke="#191970" points="362.4921,-136.2941 369.7562,-128.5816 359.268,-130.0808 362.4921,-136.2941"/>
</g>
<!-- Node5 -->
<g id="node5" class="node">
<title>Node5</title>
<g id="a_node5"><a xlink:href="namespacemom__cvmix__ddiff.html#a8f7ea8f60fe6775caadf68b29108b064" target="_top" xlink:title="Reads the parameter &quot;USE_CVMIX_DDIFF&quot; and returns state. This function allows other modules to know w...">
<polygon fill="#ffffff" stroke="#000000" points="162,-98.5 162,-128.5 288,-128.5 288,-98.5 162,-98.5"/>
<text text-anchor="start" x="170" y="-116.5" font-family="Helvetica,sans-Serif" font-size="10.00" fill="#000000">mom_cvmix_ddiff::cvmix</text>
<text text-anchor="middle" x="225" y="-105.5" font-family="Helvetica,sans-Serif" font-size="10.00" fill="#000000">_ddiff_is_used</text>
</a>
</g>
</g>
<!-- Node1&#45;&gt;Node5 -->
<g id="edge4" class="edge">
<title>Node1&#45;&gt;Node5</title>
<path fill="none" stroke="#191970" d="M94.4831,-161.3643C109.7145,-155.7455 127.1437,-149.3238 143,-143.5 153.0285,-139.8167 163.7501,-135.8877 174.023,-132.1275"/>
<polygon fill="#191970" stroke="#191970" points="175.5093,-135.3107 183.6977,-128.5876 173.1039,-128.7369 175.5093,-135.3107"/>
</g>
<!-- Node6 -->
<g id="node6" class="node">
<title>Node6</title>
<g id="a_node6"><a xlink:href="namespacemom__cvmix__shear.html#aa8084ded891a4e6e33ceeec0f240233f" target="_top" xlink:title="Reads the parameters &quot;LMD94&quot; and &quot;PP81&quot; and returns state. This function allows other modules to know...">
<polygon fill="#ffffff" stroke="#000000" points="159.5,-49.5 159.5,-79.5 290.5,-79.5 290.5,-49.5 159.5,-49.5"/>
<text text-anchor="start" x="167.5" y="-67.5" font-family="Helvetica,sans-Serif" font-size="10.00" fill="#000000">mom_cvmix_shear::cvmix</text>
<text text-anchor="middle" x="225" y="-56.5" font-family="Helvetica,sans-Serif" font-size="10.00" fill="#000000">_shear_is_used</text>
</a>
</g>
</g>
<!-- Node1&#45;&gt;Node6 -->
<g id="edge5" class="edge">
<title>Node1&#45;&gt;Node6</title>
<path fill="none" stroke="#191970" d="M64.8332,-161.4435C80.3658,-141.8393 110.1137,-107.8057 143,-88.5 145.9681,-86.7576 149.0719,-85.1338 152.2622,-83.6216"/>
<polygon fill="#191970" stroke="#191970" points="153.6546,-86.8328 161.442,-79.649 150.8744,-80.4085 153.6546,-86.8328"/>
</g>
<!-- Node7 -->
<g id="node7" class="node">
<title>Node7</title>
<g id="a_node7"><a xlink:href="namespacemom__geothermal.html#aaddc9edf4f1c558e9cf2e41134526f08" target="_top" xlink:title="Initialize parameters and allocate memory associated with the geothermal heating module.">
<polygon fill="#ffffff" stroke="#000000" points="143,-224 143,-243 307,-243 307,-224 143,-224"/>
<text text-anchor="middle" x="225" y="-231" font-family="Helvetica,sans-Serif" font-size="10.00" fill="#000000">mom_geothermal::geothermal_init</text>
</a>
</g>
</g>
<!-- Node1&#45;&gt;Node7 -->
<g id="edge6" class="edge">
<title>Node1&#45;&gt;Node7</title>
<path fill="none" stroke="#191970" d="M92.5051,-191.5418C108.1216,-197.3908 126.3312,-203.9948 143,-209.5 155.2254,-213.5377 168.587,-217.5963 180.9091,-221.1975"/>
<polygon fill="#191970" stroke="#191970" points="179.948,-224.563 190.5267,-223.9785 181.8924,-217.8384 179.948,-224.563"/>
</g>
<!-- Node8 -->
<g id="node8" class="node">
<title>Node8</title>
<g id="a_node8"><a xlink:href="namespacemom__verticalgrid.html#a1eea13d63bdc910462ffba406d32fe04" target="_top" xlink:title="Returns the model&#39;s thickness units, usually m or kg/m^2.">
<polygon fill="#ffffff" stroke="#000000" points="347.5,-267.5 347.5,-297.5 457.5,-297.5 457.5,-267.5 347.5,-267.5"/>
<text text-anchor="start" x="355.5" y="-285.5" font-family="Helvetica,sans-Serif" font-size="10.00" fill="#000000">mom_verticalgrid::get</text>
<text text-anchor="middle" x="402.5" y="-274.5" font-family="Helvetica,sans-Serif" font-size="10.00" fill="#000000">_thickness_units</text>
</a>
</g>
</g>
<!-- Node1&#45;&gt;Node8 -->
<g id="edge19" class="edge">
<title>Node1&#45;&gt;Node8</title>
<path fill="none" stroke="#191970" d="M66.2529,-191.7963C82.1749,-209.7144 111.2122,-238.701 143,-252.5 205.1414,-279.4755 283.1143,-285.185 337.2871,-285.2613"/>
<polygon fill="#191970" stroke="#191970" points="337.4719,-288.7605 347.4541,-285.2101 337.4365,-281.7606 337.4719,-288.7605"/>
</g>
<!-- Node16 -->
<g id="node16" class="node">
<title>Node16</title>
<g id="a_node16"><a xlink:href="namespacemom__internal__tides.html#a48431ac355c6fa3de7548bfdec620eb0" target="_top" xlink:title="This subroutine initializes the internal tides module.">
<polygon fill="#ffffff" stroke="#000000" points="502.5,-432.5 502.5,-462.5 603.5,-462.5 603.5,-432.5 502.5,-432.5"/>
<text text-anchor="start" x="510.5" y="-450.5" font-family="Helvetica,sans-Serif" font-size="10.00" fill="#000000">mom_internal_tides</text>
<text text-anchor="middle" x="553" y="-439.5" font-family="Helvetica,sans-Serif" font-size="10.00" fill="#000000">::internal_tides_init</text>
</a>
</g>
</g>
<!-- Node1&#45;&gt;Node16 -->
<g id="edge20" class="edge">
<title>Node1&#45;&gt;Node16</title>
<path fill="none" stroke="#191970" d="M62.7077,-191.5117C77.2286,-214.0739 107.4796,-256.813 143,-282.5 253.5296,-362.4308 408.2637,-410.9172 492.5081,-433.0859"/>
<polygon fill="#191970" stroke="#191970" points="491.866,-436.5352 502.4246,-435.6593 493.6244,-429.7596 491.866,-436.5352"/>
</g>
<!-- Node21 -->
<g id="node21" class="node">
<title>Node21</title>
<g id="a_node21"><a xlink:href="namespacemom__kappa__shear.html#ac7859c609e462000ca8fd763d68d141e" target="_top" xlink:title="This function indicates to other modules whether the Jackson et al shear mixing parameterization will...">
<polygon fill="#ffffff" stroke="#000000" points="159.5,-.5 159.5,-30.5 290.5,-30.5 290.5,-.5 159.5,-.5"/>
<text text-anchor="start" x="167.5" y="-18.5" font-family="Helvetica,sans-Serif" font-size="10.00" fill="#000000">mom_kappa_shear::kappa</text>
<text text-anchor="middle" x="225" y="-7.5" font-family="Helvetica,sans-Serif" font-size="10.00" fill="#000000">_shear_is_used</text>
</a>
</g>
</g>
<!-- Node1&#45;&gt;Node21 -->
<g id="edge29" class="edge">
<title>Node1&#45;&gt;Node21</title>
<path fill="none" stroke="#191970" d="M59.2711,-161.1888C70.7543,-132.8159 99.1961,-72.0067 143,-39.5 145.3451,-37.7597 147.8145,-36.1451 150.3752,-34.6472"/>
<polygon fill="#191970" stroke="#191970" points="152.1083,-37.6914 159.3852,-29.9909 148.8945,-31.4727 152.1083,-37.6914"/>
</g>
<!-- Node22 -->
<g id="node22" class="node">
<title>Node22</title>
<g id="a_node22"><a xlink:href="namespacemom__regularize__layers.html#a7f5b60398ab6cb0dd38cdc3b3053091e" target="_top" xlink:title="Initializes the regularize_layers control structure.">
<polygon fill="#ffffff" stroke="#000000" points="344,-49.5 344,-79.5 461,-79.5 461,-49.5 344,-49.5"/>
<text text-anchor="start" x="352" y="-67.5" font-family="Helvetica,sans-Serif" font-size="10.00" fill="#000000">mom_regularize_layers</text>
<text text-anchor="middle" x="402.5" y="-56.5" font-family="Helvetica,sans-Serif" font-size="10.00" fill="#000000">::regularize_layers_init</text>
</a>
</g>
</g>
<!-- Node1&#45;&gt;Node22 -->
<g id="edge30" class="edge">
<title>Node1&#45;&gt;Node22</title>
<path fill="none" stroke="#191970" d="M107.1712,-173.0484C171.3747,-168.1 274.2993,-157.3205 307,-137.5 330.1099,-123.4927 321.6563,-105.0746 343,-88.5 344.6165,-87.2447 346.3075,-86.0459 348.054,-84.902"/>
<polygon fill="#191970" stroke="#191970" points="350.258,-87.6705 357.1605,-79.6327 346.7521,-81.6117 350.258,-87.6705"/>
</g>
<!-- Node3 -->
<g id="node3" class="node">
<title>Node3</title>
<g id="a_node3"><a xlink:href="namespacemom__error__handler.html#a460cfb79a06c29fc249952c2a3710d67" target="_top" xlink:title="This provides a convenient interface for writing an mpp_error message with run&#45;time filter based on a...">
<polygon fill="#ffffff" stroke="#000000" points="798.5,-257.5 798.5,-287.5 904.5,-287.5 904.5,-257.5 798.5,-257.5"/>
<text text-anchor="start" x="806.5" y="-275.5" font-family="Helvetica,sans-Serif" font-size="10.00" fill="#000000">mom_error_handler::</text>
<text text-anchor="middle" x="851.5" y="-264.5" font-family="Helvetica,sans-Serif" font-size="10.00" fill="#000000">mom_error</text>
</a>
</g>
</g>
<!-- Node2&#45;&gt;Node3 -->
<g id="edge2" class="edge">
<title>Node2&#45;&gt;Node3</title>
<path fill="none" stroke="#191970" d="M462.1295,-102.9777C535.7005,-93.1194 662.2824,-86.5886 754,-137.5 798.2498,-162.0626 827.5732,-216.158 841.6929,-247.9114"/>
<polygon fill="#191970" stroke="#191970" points="838.5892,-249.5549 845.7426,-257.3702 845.0242,-246.7997 838.5892,-249.5549"/>
</g>
<!-- Node4 -->
<g id="node4" class="node">
<title>Node4</title>
<g id="a_node4"><a xlink:href="namespacemom__error__handler.html#ad5f00a53059c72fe2332d1436c80ca71" target="_top" xlink:title="This returns .true. if the current PE is the root PE.">
<polygon fill="#ffffff" stroke="#000000" points="949,-350.5 949,-380.5 1055,-380.5 1055,-350.5 949,-350.5"/>
<text text-anchor="start" x="957" y="-368.5" font-family="Helvetica,sans-Serif" font-size="10.00" fill="#000000">mom_error_handler::</text>
<text text-anchor="middle" x="1002" y="-357.5" font-family="Helvetica,sans-Serif" font-size="10.00" fill="#000000">is_root_pe</text>
</a>
</g>
</g>
<!-- Node3&#45;&gt;Node4 -->
<g id="edge3" class="edge">
<title>Node3&#45;&gt;Node4</title>
<path fill="none" stroke="#191970" d="M876.0154,-287.649C901.2687,-303.2541 940.7913,-327.6767 968.8284,-345.0019"/>
<polygon fill="#191970" stroke="#191970" points="967.1484,-348.0781 977.4951,-350.3574 970.8281,-342.1233 967.1484,-348.0781"/>
</g>
<!-- Node7&#45;&gt;Node3 -->
<g id="edge8" class="edge">
<title>Node7&#45;&gt;Node3</title>
<path fill="none" stroke="#191970" d="M250.5368,-223.9699C328.7608,-196.3053 570.8636,-122.1059 754,-189.5 786.271,-201.3757 815.1414,-229.2043 832.9382,-249.3707"/>
<polygon fill="#191970" stroke="#191970" points="830.483,-251.8849 839.6435,-257.2081 835.802,-247.3342 830.483,-251.8849"/>
</g>
<!-- Node7&#45;&gt;Node8 -->
<g id="edge7" class="edge">
<title>Node7&#45;&gt;Node8</title>
<path fill="none" stroke="#191970" d="M259.6452,-243.064C281.921,-249.2134 311.5505,-257.3928 338.0488,-264.7078"/>
<polygon fill="#191970" stroke="#191970" points="337.4585,-268.1757 348.0294,-267.463 339.3213,-261.4281 337.4585,-268.1757"/>
</g>
<!-- Node9 -->
<g id="node9" class="node">
<title>Node9</title>
<g id="a_node9"><a xlink:href="namespacemom__diag__mediator.html#a87fa69b9e2ba3205756d93e1e13e1dc7" target="_top" xlink:title="Registers a static diagnostic, returning an integer handle.">
<polygon fill="#ffffff" stroke="#000000" points="347.5,-218.5 347.5,-248.5 457.5,-248.5 457.5,-218.5 347.5,-218.5"/>
<text text-anchor="start" x="355.5" y="-236.5" font-family="Helvetica,sans-Serif" font-size="10.00" fill="#000000">mom_diag_mediator::</text>
<text text-anchor="middle" x="402.5" y="-225.5" font-family="Helvetica,sans-Serif" font-size="10.00" fill="#000000">register_static_field</text>
</a>
</g>
</g>
<!-- Node7&#45;&gt;Node9 -->
<g id="edge9" class="edge">
<title>Node7&#45;&gt;Node9</title>
<path fill="none" stroke="#191970" d="M307.2549,-233.5C317.3507,-233.5 327.5592,-233.5 337.3541,-233.5"/>
<polygon fill="#191970" stroke="#191970" points="337.3896,-237.0001 347.3896,-233.5 337.3895,-230.0001 337.3896,-237.0001"/>
</g>
<!-- Node9&#45;&gt;Node4 -->
<g id="edge16" class="edge">
<title>Node9&#45;&gt;Node4</title>
<path fill="none" stroke="#191970" d="M449.4461,-248.6673C454.0549,-251.4397 458.3623,-254.6921 462,-258.5 494.052,-292.0522 460.1892,-329.6033 498,-356.5 633.4395,-452.845 845.3217,-411.1876 945.6741,-383.2656"/>
<polygon fill="#191970" stroke="#191970" points="946.6569,-386.625 955.3213,-380.5275 944.7456,-379.8909 946.6569,-386.625"/>
</g>
<!-- Node10 -->
<g id="node10" class="node">
<title>Node10</title>
<g id="a_node10"><a xlink:href="namespacemom__diag__mediator.html#a1b0bed2113a0c268eafd1bafbb48bd4f" target="_top" xlink:title="Make a new diagnostic. Either use memory which is in the array of &#39;primary&#39; diagnostics,...">
<polygon fill="#ffffff" stroke="#000000" points="498,-267.5 498,-297.5 608,-297.5 608,-267.5 498,-267.5"/>
<text text-anchor="start" x="506" y="-285.5" font-family="Helvetica,sans-Serif" font-size="10.00" fill="#000000">mom_diag_mediator::</text>
<text text-anchor="middle" x="553" y="-274.5" font-family="Helvetica,sans-Serif" font-size="10.00" fill="#000000">alloc_diag_with_id</text>
</a>
</g>
</g>
<!-- Node9&#45;&gt;Node10 -->
<g id="edge10" class="edge">
<title>Node9&#45;&gt;Node10</title>
<path fill="none" stroke="#191970" d="M448.883,-248.6014C464.1175,-253.5615 481.2126,-259.1274 497.0781,-264.2929"/>
<polygon fill="#191970" stroke="#191970" points="496.1779,-267.6805 506.7702,-267.4484 498.345,-261.0244 496.1779,-267.6805"/>
</g>
<!-- Node11 -->
<g id="node11" class="node">
<title>Node11</title>
<g id="a_node11"><a xlink:href="namespacemom__error__handler.html#a33bcd190d460095104954f2e654f9fe6" target="_top" xlink:title="Issues a FATAL error if the assertion fails, i.e. the first argument is false.">
<polygon fill="#ffffff" stroke="#000000" points="646,-199.5 646,-229.5 752,-229.5 752,-199.5 646,-199.5"/>
<text text-anchor="start" x="654" y="-217.5" font-family="Helvetica,sans-Serif" font-size="10.00" fill="#000000">mom_error_handler::</text>
<text text-anchor="middle" x="699" y="-206.5" font-family="Helvetica,sans-Serif" font-size="10.00" fill="#000000">assert</text>
</a>
</g>
</g>
<!-- Node9&#45;&gt;Node11 -->
<g id="edge11" class="edge">
<title>Node9&#45;&gt;Node11</title>
<path fill="none" stroke="#191970" d="M452.6146,-218.4448C467.1196,-214.7605 483.0699,-211.3473 498,-209.5 543.8904,-203.8219 596.1082,-205.359 635.8174,-208.1645"/>
<polygon fill="#191970" stroke="#191970" points="635.6562,-211.6622 645.8906,-208.922 636.1813,-204.6819 635.6562,-211.6622"/>
</g>
<!-- Node12 -->
<g id="node12" class="node">
<title>Node12</title>
<g id="a_node12"><a xlink:href="namespacemom__diag__mediator.html#a3f7442639213320f7429e2288a79fda2" target="_top" xlink:title="Returns a new diagnostic id, it may be necessary to expand the diagnostics array.">
<polygon fill="#ffffff" stroke="#000000" points="498,-218.5 498,-248.5 608,-248.5 608,-218.5 498,-218.5"/>
<text text-anchor="start" x="506" y="-236.5" font-family="Helvetica,sans-Serif" font-size="10.00" fill="#000000">mom_diag_mediator::</text>
<text text-anchor="middle" x="553" y="-225.5" font-family="Helvetica,sans-Serif" font-size="10.00" fill="#000000">get_new_diag_id</text>
</a>
</g>
</g>
<!-- Node9&#45;&gt;Node12 -->
<g id="edge13" class="edge">
<title>Node9&#45;&gt;Node12</title>
<path fill="none" stroke="#191970" d="M457.6861,-233.5C467.3992,-233.5 477.5934,-233.5 487.5545,-233.5"/>
<polygon fill="#191970" stroke="#191970" points="487.8206,-237.0001 497.8206,-233.5 487.8206,-230.0001 487.8206,-237.0001"/>
</g>
<!-- Node14 -->
<g id="node14" class="node">
<title>Node14</title>
<g id="a_node14"><a xlink:href="namespacemom__diag__mediator.html#a65fe8d329cf5dbfd08c98874a7a64407" target="_top" xlink:title="Log a diagnostic to the available diagnostics file.">
<polygon fill="#ffffff" stroke="#000000" points="498,-316.5 498,-346.5 608,-346.5 608,-316.5 498,-316.5"/>
<text text-anchor="start" x="506" y="-334.5" font-family="Helvetica,sans-Serif" font-size="10.00" fill="#000000">mom_diag_mediator::</text>
<text text-anchor="middle" x="553" y="-323.5" font-family="Helvetica,sans-Serif" font-size="10.00" fill="#000000">log_available_diag</text>
</a>
</g>
</g>
<!-- Node9&#45;&gt;Node14 -->
<g id="edge17" class="edge">
<title>Node9&#45;&gt;Node14</title>
<path fill="none" stroke="#191970" d="M446.2985,-248.6366C451.8533,-251.4772 457.248,-254.7547 462,-258.5 483.2241,-275.2275 476.8909,-290.6276 498,-307.5 499.5564,-308.744 501.1872,-309.9361 502.8726,-311.0771"/>
<polygon fill="#191970" stroke="#191970" points="501.2889,-314.2087 511.6631,-316.3598 504.8947,-308.2088 501.2889,-314.2087"/>
</g>
<!-- Node11&#45;&gt;Node3 -->
<g id="edge12" class="edge">
<title>Node11&#45;&gt;Node3</title>
<path fill="none" stroke="#191970" d="M738.6695,-229.5874C758.1732,-237.0052 781.8616,-246.0146 802.4883,-253.8595"/>
<polygon fill="#191970" stroke="#191970" points="801.4381,-257.2046 812.0291,-257.4881 803.9265,-250.6618 801.4381,-257.2046"/>
</g>
<!-- Node12&#45;&gt;Node11 -->
<g id="edge14" class="edge">
<title>Node12&#45;&gt;Node11</title>
<path fill="none" stroke="#191970" d="M608.1963,-226.3169C617.1143,-225.1564 626.4098,-223.9467 635.505,-222.763"/>
<polygon fill="#191970" stroke="#191970" points="636.1933,-226.2031 645.658,-221.4418 635.2899,-219.2616 636.1933,-226.2031"/>
</g>
<!-- Node13 -->
<g id="node13" class="node">
<title>Node13</title>
<g id="a_node13"><a xlink:href="namespacemom__diag__mediator.html#a883862f004e30bbc5211f38635511ba0" target="_top" xlink:title="Initializes a diag_type (used after allocating new memory)">
<polygon fill="#ffffff" stroke="#000000" points="644,-248.5 644,-278.5 754,-278.5 754,-248.5 644,-248.5"/>
<text text-anchor="start" x="652" y="-266.5" font-family="Helvetica,sans-Serif" font-size="10.00" fill="#000000">mom_diag_mediator::</text>
<text text-anchor="middle" x="699" y="-255.5" font-family="Helvetica,sans-Serif" font-size="10.00" fill="#000000">initialize_diag_type</text>
</a>
</g>
</g>
<!-- Node12&#45;&gt;Node13 -->
<g id="edge15" class="edge">
<title>Node12&#45;&gt;Node13</title>
<path fill="none" stroke="#191970" d="M608.1963,-244.8417C616.5541,-246.5591 625.2434,-248.3445 633.7888,-250.1004"/>
<polygon fill="#191970" stroke="#191970" points="633.2258,-253.5578 643.7256,-252.1422 634.6347,-246.7011 633.2258,-253.5578"/>
</g>
<!-- Node15 -->
<g id="node15" class="node">
<title>Node15</title>
<g id="a_node15"><a xlink:href="namespacemom__diag__mediator.html#ae002ca447acba252bf7bdc042e75a01e" target="_top" xlink:title="Describe an option setting in the diagnostic files.">
<polygon fill="#ffffff" stroke="#000000" points="644,-306.5 644,-336.5 754,-336.5 754,-306.5 644,-306.5"/>
<text text-anchor="start" x="652" y="-324.5" font-family="Helvetica,sans-Serif" font-size="10.00" fill="#000000">mom_diag_mediator::</text>
<text text-anchor="middle" x="699" y="-313.5" font-family="Helvetica,sans-Serif" font-size="10.00" fill="#000000">describe_option</text>
</a>
</g>
</g>
<!-- Node14&#45;&gt;Node15 -->
<g id="edge18" class="edge">
<title>Node14&#45;&gt;Node15</title>
<path fill="none" stroke="#191970" d="M608.1963,-327.7194C616.4633,-327.1532 625.0546,-326.5648 633.5101,-325.9856"/>
<polygon fill="#191970" stroke="#191970" points="633.9882,-329.4612 643.7256,-325.2859 633.5098,-322.4775 633.9882,-329.4612"/>
</g>
<!-- Node16&#45;&gt;Node3 -->
<g id="edge24" class="edge">
<title>Node16&#45;&gt;Node3</title>
<path fill="none" stroke="#191970" d="M587.8217,-432.3685C628.7461,-414.0532 698.1563,-381.3114 754,-346.5 779.4483,-330.6362 806.4672,-309.776 825.5923,-294.2481"/>
<polygon fill="#191970" stroke="#191970" points="828.0187,-296.7848 833.5335,-287.7384 823.581,-291.3712 828.0187,-296.7848"/>
</g>
<!-- Node17 -->
<g id="node17" class="node">
<title>Node17</title>
<g id="a_node17"><a xlink:href="namespacemom__diag__mediator.html#ab9f767ec24a860cb71cae264560272a8" target="_top" xlink:title="Defines a group of &quot;axes&quot; from list of handles.">
<polygon fill="#ffffff" stroke="#000000" points="644,-481.5 644,-511.5 754,-511.5 754,-481.5 644,-481.5"/>
<text text-anchor="start" x="652" y="-499.5" font-family="Helvetica,sans-Serif" font-size="10.00" fill="#000000">mom_diag_mediator::</text>
<text text-anchor="middle" x="699" y="-488.5" font-family="Helvetica,sans-Serif" font-size="10.00" fill="#000000">define_axes_group</text>
</a>
</g>
</g>
<!-- Node16&#45;&gt;Node17 -->
<g id="edge21" class="edge">
<title>Node16&#45;&gt;Node17</title>
<path fill="none" stroke="#191970" d="M597.9961,-462.6014C612.6357,-467.5147 629.0463,-473.0224 644.3143,-478.1466"/>
<polygon fill="#191970" stroke="#191970" points="643.5585,-481.5847 654.1524,-481.4484 645.7858,-474.9485 643.5585,-481.5847"/>
</g>
<!-- Node19 -->
<g id="node19" class="node">
<title>Node19</title>
<g id="a_node19"><a xlink:href="namespacemom__error__handler.html#a1c462df7b61f1296407b4af51dfeceab" target="_top" xlink:title="This provides a convenient interface for writing an informative comment.">
<polygon fill="#ffffff" stroke="#000000" points="798.5,-525.5 798.5,-555.5 904.5,-555.5 904.5,-525.5 798.5,-525.5"/>
<text text-anchor="start" x="806.5" y="-543.5" font-family="Helvetica,sans-Serif" font-size="10.00" fill="#000000">mom_error_handler::</text>
<text text-anchor="middle" x="851.5" y="-532.5" font-family="Helvetica,sans-Serif" font-size="10.00" fill="#000000">mom_mesg</text>
</a>
</g>
</g>
<!-- Node16&#45;&gt;Node19 -->
<g id="edge25" class="edge">
<title>Node16&#45;&gt;Node19</title>
<path fill="none" stroke="#191970" d="M566.056,-462.5191C582.3329,-480.0892 611.9434,-508.4345 644,-521.5 689.8026,-540.1681 745.8694,-544.3151 788.1711,-544.1271"/>
<polygon fill="#191970" stroke="#191970" points="788.3859,-547.6247 798.3406,-543.9978 788.2969,-540.6253 788.3859,-547.6247"/>
</g>
<!-- Node20 -->
<g id="node20" class="node">
<title>Node20</title>
<g id="a_node20"><a xlink:href="namespacemom__wave__structure.html#a4dc27a0fbdbb402b9f4def03f70cfba2" target="_top" xlink:title="Allocate memory associated with the wave structure module and read parameters.">
<polygon fill="#ffffff" stroke="#000000" points="644,-432.5 644,-462.5 754,-462.5 754,-432.5 644,-432.5"/>
<text text-anchor="start" x="652" y="-450.5" font-family="Helvetica,sans-Serif" font-size="10.00" fill="#000000">mom_wave_structure</text>
<text text-anchor="middle" x="699" y="-439.5" font-family="Helvetica,sans-Serif" font-size="10.00" fill="#000000">::wave_structure_init</text>
</a>
</g>
</g>
<!-- Node16&#45;&gt;Node20 -->
<g id="edge27" class="edge">
<title>Node16&#45;&gt;Node20</title>
<path fill="none" stroke="#191970" d="M603.654,-447.5C613.4136,-447.5 623.763,-447.5 633.9064,-447.5"/>
<polygon fill="#191970" stroke="#191970" points="633.9516,-451.0001 643.9516,-447.5 633.9515,-444.0001 633.9516,-451.0001"/>
</g>
<!-- Node17&#45;&gt;Node3 -->
<g id="edge23" class="edge">
<title>Node17&#45;&gt;Node3</title>
<path fill="none" stroke="#191970" d="M742.0516,-481.4056C746.3749,-478.842 750.4655,-475.8886 754,-472.5 806.0715,-422.5779 834.0561,-339.064 845.3866,-297.5315"/>
<polygon fill="#191970" stroke="#191970" points="848.8163,-298.2507 847.9718,-287.6896 842.046,-296.4723 848.8163,-298.2507"/>
</g>
<!-- Node18 -->
<g id="node18" class="node">
<title>Node18</title>
<g id="a_node18"><a xlink:href="namespacemom__diag__mediator.html#a82d9bb70db16b1113304936c82d40e82" target="_top" xlink:title="Convert the first n elements (up to 3) of an integer array to an underscore delimited string.">
<polygon fill="#ffffff" stroke="#000000" points="790,-487 790,-506 913,-506 913,-487 790,-487"/>
<text text-anchor="middle" x="851.5" y="-494" font-family="Helvetica,sans-Serif" font-size="10.00" fill="#000000">mom_diag_mediator::i2s</text>
</a>
</g>
</g>
<!-- Node17&#45;&gt;Node18 -->
<g id="edge22" class="edge">
<title>Node17&#45;&gt;Node18</title>
<path fill="none" stroke="#191970" d="M754.056,-496.5C762.3956,-496.5 771.1027,-496.5 779.7329,-496.5"/>
<polygon fill="#191970" stroke="#191970" points="779.8022,-500.0001 789.8021,-496.5 779.8021,-493.0001 779.8022,-500.0001"/>
</g>
<!-- Node19&#45;&gt;Node4 -->
<g id="edge26" class="edge">
<title>Node19&#45;&gt;Node4</title>
<path fill="none" stroke="#191970" d="M898.0797,-525.4581C903.4242,-522.6336 908.545,-519.3346 913,-515.5 953.1748,-480.9199 980.0217,-423.4931 992.9827,-390.6346"/>
<polygon fill="#191970" stroke="#191970" points="996.4061,-391.4803 996.7022,-380.8896 989.8663,-388.9841 996.4061,-391.4803"/>
</g>
<!-- Node20&#45;&gt;Node3 -->
<g id="edge28" class="edge">
<title>Node20&#45;&gt;Node3</title>
<path fill="none" stroke="#191970" d="M732.6995,-432.4466C740.1745,-428.2322 747.7297,-423.2148 754,-417.5 792.8434,-382.0975 823.7668,-328.2027 839.6997,-297.0596"/>
<polygon fill="#191970" stroke="#191970" points="842.9885,-298.3086 844.337,-287.7999 836.7295,-295.174 842.9885,-298.3086"/>
</g>
<!-- Node22&#45;&gt;Node3 -->
<g id="edge31" class="edge">
<title>Node22&#45;&gt;Node3</title>
<path fill="none" stroke="#191970" d="M461.0548,-54.6637C535.5079,-45.3974 665.0501,-40.4467 754,-98.5 807.5239,-133.4324 834.551,-208.4454 845.4656,-247.5829"/>
<polygon fill="#191970" stroke="#191970" points="842.1192,-248.6184 848.0694,-257.3846 848.8846,-246.8212 842.1192,-248.6184"/>
</g>
</g>
</svg>
        <g id="navigator" transform="translate(0 0)" fill="#404254">
                <rect fill="#f2f5e9" fill-opacity="0.5" stroke="#606060" stroke-width=".5" x="0" y="0" width="60" height="60"/>
                <use id="zoomplus" xlink:href="#zoomPlus" x="17" y="9" onmousedown="handleZoom(evt,'in')"/>
                <use id="zoomminus" xlink:href="#zoomMin" x="42" y="9" onmousedown="handleZoom(evt,'out')"/>
                <use id="reset" xlink:href="#resetDef" x="30" y="36" onmousedown="handleReset()"/>
                <g id="arrowUp" xlink:href="#dirArrow" transform="translate(30 24)" onmousedown="handlePan(0,-1)">
                  <use xlink:href="#rim" fill="#404040">
                        <set attributeName="fill" to="#808080" begin="arrowUp.mouseover" end="arrowUp.mouseout"/>
                  </use>
                  <path fill="none" stroke="white" stroke-width="1.5" d="M0,-3.0v7 M-2.5,-0.5L0,-3.0L2.5,-0.5"/>
                </g>
                <g id="arrowRight" xlink:href="#dirArrow" transform="rotate(90) translate(36 -43)" onmousedown="handlePan(1,0)">
                  <use xlink:href="#rim" fill="#404040">
                        <set attributeName="fill" to="#808080" begin="arrowRight.mouseover" end="arrowRight.mouseout"/>
                  </use>
                  <path fill="none" stroke="white" stroke-width="1.5" d="M0,-3.0v7 M-2.5,-0.5L0,-3.0L2.5,-0.5"/>
                </g>
                <g id="arrowDown" xlink:href="#dirArrow" transform="rotate(180) translate(-30 -48)" onmousedown="handlePan(0,1)">
                  <use xlink:href="#rim" fill="#404040">
                        <set attributeName="fill" to="#808080" begin="arrowDown.mouseover" end="arrowDown.mouseout"/>
                  </use>
                  <path fill="none" stroke="white" stroke-width="1.5" d="M0,-3.0v7 M-2.5,-0.5L0,-3.0L2.5,-0.5"/>
                </g>
                <g id="arrowLeft" xlink:href="#dirArrow" transform="rotate(270) translate(-36 17)" onmousedown="handlePan(-1,0)">
                  <use xlink:href="#rim" fill="#404040">
                        <set attributeName="fill" to="#808080" begin="arrowLeft.mouseover" end="arrowLeft.mouseout"/>
                  </use>
                  <path fill="none" stroke="white" stroke-width="1.5" d="M0,-3.0v7 M-2.5,-0.5L0,-3.0L2.5,-0.5"/>
                </g>
        </g>
        <svg viewBox="0 0 15 15" width="100%" height="30px" preserveAspectRatio="xMaxYMin meet">
         <g id="arrow_out" transform="scale(0.3 0.3)">
          <a xlink:href="namespacemom__diabatic__driver_a51d273bae7e5d2217fa5498620532888_cgraph_org.svg" target="_base">
           <rect id="button" ry="5" rx="5" y="6" x="6" height="38" width="38"
                fill="#f2f5e9" fill-opacity="0.5" stroke="#606060" stroke-width="1.0"/>
           <path id="arrow"
             d="M 11.500037,31.436501 C 11.940474,20.09759 22.043105,11.32322 32.158766,21.979434 L 37.068811,17.246167 C 37.068811,17.246167 37.088388,32 37.088388,32 L 22.160133,31.978069 C 22.160133,31.978069 26.997745,27.140456 26.997745,27.140456 C 18.528582,18.264221 13.291696,25.230495 11.500037,31.436501 z"
             style="fill:#404040;"/>
          </a>
         </g>
        </svg>
</svg>
