<?xml version="1.0" encoding="UTF-8" standalone="no"?>
<!DOCTYPE svg PUBLIC "-//W3C//DTD SVG 1.1//EN"
 "http://www.w3.org/Graphics/SVG/1.1/DTD/svg11.dtd">
<!-- Generated by graphviz version 2.40.1 (20161225.0304)
 -->
<!-- Title: mom_set_visc::set_visc_register_restarts Pages: 1 -->
<svg width="311pt" height="186pt"
 viewBox="0.00 0.00 311.00 186.00" xmlns="http://www.w3.org/2000/svg" xmlns:xlink="http://www.w3.org/1999/xlink">
<g id="graph0" class="graph" transform="scale(1 1) rotate(0) translate(4 182)">
<title>mom_set_visc::set_visc_register_restarts</title>
<polygon fill="#ffffff" stroke="transparent" points="-4,4 -4,-182 307,-182 307,4 -4,4"/>
<!-- Node1 -->
<g id="node1" class="node">
<title>Node1</title>
<g id="a_node1"><a xlink:title="Register any fields associated with the vertvisc_type.">
<polygon fill="#bfbfbf" stroke="#000000" points="0,-73.5 0,-103.5 126,-103.5 126,-73.5 0,-73.5"/>
<text text-anchor="start" x="8" y="-91.5" font-family="Helvetica,sans-Serif" font-size="10.00" fill="#000000">mom_set_visc::set_visc</text>
<text text-anchor="middle" x="63" y="-80.5" font-family="Helvetica,sans-Serif" font-size="10.00" fill="#000000">_register_restarts</text>
</a>
</g>
</g>
<!-- Node2 -->
<g id="node2" class="node">
<title>Node2</title>
<g id="a_node2"><a xlink:href="namespacemom__cvmix__conv.html#a5e741c84ad14fae3e5801d00a9867bba" target="_top" xlink:title="Reads the parameter &quot;USE_CVMix_CONVECTION&quot; and returns state. This function allows other modules to k...">
<polygon fill="#ffffff" stroke="#000000" points="167,-147.5 167,-177.5 298,-177.5 298,-147.5 167,-147.5"/>
<text text-anchor="start" x="175" y="-165.5" font-family="Helvetica,sans-Serif" font-size="10.00" fill="#000000">mom_cvmix_conv::cvmix</text>
<text text-anchor="middle" x="232.5" y="-154.5" font-family="Helvetica,sans-Serif" font-size="10.00" fill="#000000">_conv_is_used</text>
</a>
</g>
</g>
<!-- Node1&#45;&gt;Node2 -->
<g id="edge1" class="edge">
<title>Node1&#45;&gt;Node2</title>
<path fill="none" stroke="#191970" d="M90.2519,-103.5606C109.8704,-114.0802 137.1487,-128.0545 162,-138.5 166.3878,-140.3443 170.9715,-142.1544 175.604,-143.9021"/>
<polygon fill="#191970" stroke="#191970" points="174.5405,-147.2399 185.1342,-147.3927 176.948,-140.6669 174.5405,-147.2399"/>
</g>
<!-- Node3 -->
<g id="node3" class="node">
<title>Node3</title>
<g id="a_node3"><a xlink:href="namespacemom__cvmix__shear.html#aa8084ded891a4e6e33ceeec0f240233f" target="_top" xlink:title="Reads the parameters &quot;LMD94&quot; and &quot;PP81&quot; and returns state. This function allows other modules to know...">
<polygon fill="#ffffff" stroke="#000000" points="165,-98.5 165,-128.5 300,-128.5 300,-98.5 165,-98.5"/>
<text text-anchor="start" x="173" y="-116.5" font-family="Helvetica,sans-Serif" font-size="10.00" fill="#000000">mom_cvmix_shear::cvmix</text>
<text text-anchor="middle" x="232.5" y="-105.5" font-family="Helvetica,sans-Serif" font-size="10.00" fill="#000000">_shear_is_used</text>
</a>
</g>
</g>
<!-- Node1&#45;&gt;Node3 -->
<g id="edge2" class="edge">
<title>Node1&#45;&gt;Node3</title>
<path fill="none" stroke="#191970" d="M126.1155,-97.8091C135.4764,-99.1897 145.2147,-100.6261 154.8305,-102.0443"/>
<polygon fill="#191970" stroke="#191970" points="154.3823,-105.516 164.786,-103.5127 155.4037,-98.5909 154.3823,-105.516"/>
</g>
<!-- Node4 -->
<g id="node4" class="node">
<title>Node4</title>
<g id="a_node4"><a xlink:href="namespacemom__kappa__shear.html#ad4d87b0928aea195213e682b493eb555" target="_top" xlink:title="This function indicates to other modules whether the Jackson et al shear mixing parameterization will...">
<polygon fill="#ffffff" stroke="#000000" points="162,-49.5 162,-79.5 303,-79.5 303,-49.5 162,-49.5"/>
<text text-anchor="start" x="170" y="-67.5" font-family="Helvetica,sans-Serif" font-size="10.00" fill="#000000">mom_kappa_shear::kappa</text>
<text text-anchor="middle" x="232.5" y="-56.5" font-family="Helvetica,sans-Serif" font-size="10.00" fill="#000000">_shear_at_vertex</text>
</a>
</g>
</g>
<!-- Node1&#45;&gt;Node4 -->
<g id="edge3" class="edge">
<title>Node1&#45;&gt;Node4</title>
<path fill="none" stroke="#191970" d="M126.1155,-79.5633C134.5043,-78.3755 143.1961,-77.1448 151.8313,-75.9221"/>
<polygon fill="#191970" stroke="#191970" points="152.5102,-79.361 161.9207,-74.4935 151.5288,-72.4301 152.5102,-79.361"/>
</g>
<!-- Node5 -->
<g id="node5" class="node">
<title>Node5</title>
<g id="a_node5"><a xlink:href="namespacemom__kappa__shear.html#ac7859c609e462000ca8fd763d68d141e" target="_top" xlink:title="This function indicates to other modules whether the Jackson et al shear mixing parameterization will...">
<polygon fill="#ffffff" stroke="#000000" points="162,-.5 162,-30.5 303,-30.5 303,-.5 162,-.5"/>
<text text-anchor="start" x="170" y="-18.5" font-family="Helvetica,sans-Serif" font-size="10.00" fill="#000000">mom_kappa_shear::kappa</text>
<text text-anchor="middle" x="232.5" y="-7.5" font-family="Helvetica,sans-Serif" font-size="10.00" fill="#000000">_shear_is_used</text>
</a>
</g>
</g>
<!-- Node1&#45;&gt;Node5 -->
<g id="edge4" class="edge">
<title>Node1&#45;&gt;Node5</title>
<path fill="none" stroke="#191970" d="M92.0675,-73.3541C111.5914,-63.4435 138.0339,-50.5231 162,-40.5 167.0918,-38.3705 172.4361,-36.259 177.8086,-34.2183"/>
<polygon fill="#191970" stroke="#191970" points="179.3058,-37.3959 187.4612,-30.6327 176.8683,-30.8339 179.3058,-37.3959"/>
</g>
</g>
</svg>
