<?xml version="1.0" encoding="UTF-8" standalone="no"?>
<!DOCTYPE svg PUBLIC "-//W3C//DTD SVG 1.1//EN"
 "http://www.w3.org/Graphics/SVG/1.1/DTD/svg11.dtd">
<!-- Generated by graphviz version 2.40.1 (20161225.0304)
 -->
<!-- Title: mom_lateral_mixing_coeffs::calc_slope_functions Pages: 1 -->
<!--zoomable 221 -->
<svg id="main" version="1.1" xmlns="http://www.w3.org/2000/svg" xmlns:xlink="http://www.w3.org/1999/xlink" xml:space="preserve" onload="init(evt)">
<style type="text/css"><![CDATA[
.edge:hover path { stroke: red; }
.edge:hover polygon { stroke: red; fill: red; }
]]></style>
<script type="text/javascript"><![CDATA[
var edges = document.getElementsByTagName('g');
if (edges && edges.length) {
  for (var i=0;i<edges.length;i++) {
    if (edges[i].id.substr(0,4)=='edge') {
      edges[i].setAttribute('class','edge');
    }
  }
}
]]></script>
        <defs>
                <circle id="rim" cx="0" cy="0" r="7"/>
                <circle id="rim2" cx="0" cy="0" r="3.5"/>
                <g id="zoomPlus">
                        <use xlink:href="#rim" fill="#404040">
                                <set attributeName="fill" to="#808080" begin="zoomplus.mouseover" end="zoomplus.mouseout"/>
                        </use>
                        <path d="M-4,0h8M0,-4v8" fill="none" stroke="white" stroke-width="1.5" pointer-events="none"/>
                </g>
                <g id="zoomMin">
                        <use xlink:href="#rim" fill="#404040">
                                <set attributeName="fill" to="#808080" begin="zoomminus.mouseover" end="zoomminus.mouseout"/>
                        </use>
                        <path d="M-4,0h8" fill="none" stroke="white" stroke-width="1.5" pointer-events="none"/>
                </g>
                <g id="dirArrow">
                        <path fill="none" stroke="white" stroke-width="1.5" d="M0,-3.0v7 M-2.5,-0.5L0,-3.0L2.5,-0.5"/>
                </g>
               <g id="resetDef">
                       <use xlink:href="#rim2" fill="#404040">
                               <set attributeName="fill" to="#808080" begin="reset.mouseover" end="reset.mouseout"/>
                       </use>
               </g>
        </defs>

<script type="text/javascript">
var viewWidth = 575;
var viewHeight = 221;
var sectionId = 'dynsection-5';
</script>
<script xlink:href="svgpan.js"/>
<svg id="graph" class="graph">
<g id="viewport">
<title>mom_lateral_mixing_coeffs::calc_slope_functions</title>
<polygon fill="#ffffff" stroke="transparent" points="-4,4 -4,-216.9794 571,-216.9794 571,4 -4,4"/>
<!-- Node1 -->
<g id="node1" class="node">
<title>Node1</title>
<g id="a_node1"><a xlink:title="Calculates and stores functions of isopycnal slopes, e.g. Sx, Sy, S*N, mostly used in the Visbeck et ...">
<polygon fill="#bfbfbf" stroke="#000000" points="0,-72.9794 0,-113.9794 104,-113.9794 104,-72.9794 0,-72.9794"/>
<text text-anchor="start" x="8" y="-101.9794" font-family="Helvetica,sans-Serif" font-size="10.00" fill="#000000">mom_lateral_mixing</text>
<text text-anchor="start" x="8" y="-90.9794" font-family="Helvetica,sans-Serif" font-size="10.00" fill="#000000">_coeffs::calc_slope</text>
<text text-anchor="middle" x="52" y="-79.9794" font-family="Helvetica,sans-Serif" font-size="10.00" fill="#000000">_functions</text>
</a>
</g>
</g>
<!-- Node2 -->
<g id="node2" class="node">
<title>Node2</title>
<g id="a_node2"><a xlink:href="namespacemom__isopycnal__slopes.html#a08dfdd6e2381a4865d94fb4a91f1d878" target="_top" xlink:title="Calculate isopycnal slopes, and optionally return N2 used in calculation.">
<polygon fill="#ffffff" stroke="#000000" points="140,-182.4794 140,-212.4794 262,-212.4794 262,-182.4794 140,-182.4794"/>
<text text-anchor="start" x="148" y="-200.4794" font-family="Helvetica,sans-Serif" font-size="10.00" fill="#000000">mom_isopycnal_slopes</text>
<text text-anchor="middle" x="201" y="-189.4794" font-family="Helvetica,sans-Serif" font-size="10.00" fill="#000000">::calc_isoneutral_slopes</text>
</a>
</g>
</g>
<!-- Node1&#45;&gt;Node2 -->
<g id="edge1" class="edge">
<title>Node1&#45;&gt;Node2</title>
<path fill="none" stroke="#191970" d="M71.0142,-114.1331C87.8403,-131.4798 113.7379,-156.0049 140,-172.4794 143.0904,-174.418 146.3569,-176.2615 149.7078,-178.0034"/>
<polygon fill="#191970" stroke="#191970" points="148.187,-181.1557 158.7117,-182.3728 151.2432,-174.858 148.187,-181.1557"/>
</g>
<!-- Node4 -->
<g id="node4" class="node">
<title>Node4</title>
<g id="a_node4"><a xlink:href="namespacemom__lateral__mixing__coeffs.html#a3f7e0a64d372dd88b62fdb13be319c39" target="_top" xlink:title="The original calc_slope_function() that calculated slopes using interface positions only,...">
<polygon fill="#ffffff" stroke="#000000" points="140,-121.9794 140,-162.9794 262,-162.9794 262,-121.9794 140,-121.9794"/>
<text text-anchor="start" x="148" y="-150.9794" font-family="Helvetica,sans-Serif" font-size="10.00" fill="#000000">mom_lateral_mixing</text>
<text text-anchor="start" x="148" y="-139.9794" font-family="Helvetica,sans-Serif" font-size="10.00" fill="#000000">_coeffs::calc_slope</text>
<text text-anchor="middle" x="201" y="-128.9794" font-family="Helvetica,sans-Serif" font-size="10.00" fill="#000000">_functions_using_just_e</text>
</a>
</g>
</g>
<!-- Node1&#45;&gt;Node4 -->
<g id="edge3" class="edge">
<title>Node1&#45;&gt;Node4</title>
<path fill="none" stroke="#191970" d="M104.113,-110.6172C112.6178,-113.4141 121.5517,-116.3521 130.4117,-119.2658"/>
<polygon fill="#191970" stroke="#191970" points="129.3799,-122.6108 139.9728,-122.41 131.5667,-115.9611 129.3799,-122.6108"/>
</g>
<!-- Node5 -->
<g id="node5" class="node">
<title>Node5</title>
<g id="a_node5"><a xlink:href="namespacemom__error__handler.html#a460cfb79a06c29fc249952c2a3710d67" target="_top" xlink:title="This provides a convenient interface for writing an mpp_error message with run&#45;time filter based on a...">
<polygon fill="#ffffff" stroke="#000000" points="308.5,-78.4794 308.5,-108.4794 414.5,-108.4794 414.5,-78.4794 308.5,-78.4794"/>
<text text-anchor="start" x="316.5" y="-96.4794" font-family="Helvetica,sans-Serif" font-size="10.00" fill="#000000">mom_error_handler::</text>
<text text-anchor="middle" x="361.5" y="-85.4794" font-family="Helvetica,sans-Serif" font-size="10.00" fill="#000000">mom_error</text>
</a>
</g>
</g>
<!-- Node1&#45;&gt;Node5 -->
<g id="edge9" class="edge">
<title>Node1&#45;&gt;Node5</title>
<path fill="none" stroke="#191970" d="M104.1525,-93.4794C157.7021,-93.4794 241.0831,-93.4794 298.3371,-93.4794"/>
<polygon fill="#191970" stroke="#191970" points="298.3552,-96.9795 308.3552,-93.4794 298.3552,-89.9795 298.3552,-96.9795"/>
</g>
<!-- Node7 -->
<g id="node7" class="node">
<title>Node7</title>
<g id="a_node7"><a xlink:href="namespacemom__lateral__mixing__coeffs.html#ad2745021399a967976092a9ae4702d9b" target="_top" xlink:title="Calculates factors used when setting diffusivity coefficients similar to Visbeck et al.">
<polygon fill="#ffffff" stroke="#000000" points="145,-23.9794 145,-64.9794 257,-64.9794 257,-23.9794 145,-23.9794"/>
<text text-anchor="start" x="153" y="-52.9794" font-family="Helvetica,sans-Serif" font-size="10.00" fill="#000000">mom_lateral_mixing</text>
<text text-anchor="start" x="153" y="-41.9794" font-family="Helvetica,sans-Serif" font-size="10.00" fill="#000000">_coeffs::calc_visbeck</text>
<text text-anchor="middle" x="201" y="-30.9794" font-family="Helvetica,sans-Serif" font-size="10.00" fill="#000000">_coeffs</text>
</a>
</g>
</g>
<!-- Node1&#45;&gt;Node7 -->
<g id="edge6" class="edge">
<title>Node1&#45;&gt;Node7</title>
<path fill="none" stroke="#191970" d="M104.113,-76.3416C114.2005,-73.0242 124.8917,-69.5083 135.3471,-66.0699"/>
<polygon fill="#191970" stroke="#191970" points="136.4525,-69.3909 144.8586,-62.942 134.2657,-62.7412 136.4525,-69.3909"/>
</g>
<!-- Node8 -->
<g id="node8" class="node">
<title>Node8</title>
<g id="a_node8"><a xlink:href="namespacemom__diag__mediator.html#a0be5d1cbc6c6f8f63950ce7d9bc6455a" target="_top" xlink:title="Call this subroutine to determine whether the averaging is currently enabled. .true....">
<polygon fill="#ffffff" stroke="#000000" points="298,-5.4794 298,-35.4794 425,-35.4794 425,-5.4794 298,-5.4794"/>
<text text-anchor="start" x="306" y="-23.4794" font-family="Helvetica,sans-Serif" font-size="10.00" fill="#000000">mom_diag_mediator::</text>
<text text-anchor="middle" x="361.5" y="-12.4794" font-family="Helvetica,sans-Serif" font-size="10.00" fill="#000000">query_averaging_enabled</text>
</a>
</g>
</g>
<!-- Node1&#45;&gt;Node8 -->
<g id="edge10" class="edge">
<title>Node1&#45;&gt;Node8</title>
<path fill="none" stroke="#191970" d="M67.4966,-72.7128C83.286,-53.4554 109.7071,-26.082 140,-14.4794 186.8258,3.4556 243.3914,1.5713 287.6388,-4.5993"/>
<polygon fill="#191970" stroke="#191970" points="287.336,-8.0929 297.744,-6.112 288.3724,-1.17 287.336,-8.0929"/>
</g>
<!-- Node3 -->
<g id="node3" class="node">
<title>Node3</title>
<g id="a_node3"><a xlink:href="namespacemom__isopycnal__slopes.html#a34691482caaff356da3c5182657dba0d" target="_top" xlink:title="Returns tracer arrays (nominally T and S) with massless layers filled with sensible values,...">
<polygon fill="#ffffff" stroke="#000000" points="302,-182.4794 302,-212.4794 421,-212.4794 421,-182.4794 302,-182.4794"/>
<text text-anchor="start" x="310" y="-200.4794" font-family="Helvetica,sans-Serif" font-size="10.00" fill="#000000">mom_isopycnal_slopes</text>
<text text-anchor="middle" x="361.5" y="-189.4794" font-family="Helvetica,sans-Serif" font-size="10.00" fill="#000000">::vert_fill_ts</text>
</a>
</g>
</g>
<!-- Node2&#45;&gt;Node3 -->
<g id="edge2" class="edge">
<title>Node2&#45;&gt;Node3</title>
<path fill="none" stroke="#191970" d="M262.136,-197.4794C271.8012,-197.4794 281.859,-197.4794 291.7034,-197.4794"/>
<polygon fill="#191970" stroke="#191970" points="291.8596,-200.9795 301.8596,-197.4794 291.8596,-193.9795 291.8596,-200.9795"/>
</g>
<!-- Node4&#45;&gt;Node5 -->
<g id="edge4" class="edge">
<title>Node4&#45;&gt;Node5</title>
<path fill="none" stroke="#191970" d="M262.136,-123.8148C275.3371,-119.7846 289.2708,-115.5307 302.3925,-111.5247"/>
<polygon fill="#191970" stroke="#191970" points="303.7006,-114.7848 312.2429,-108.5174 301.6566,-108.0899 303.7006,-114.7848"/>
</g>
<!-- Node6 -->
<g id="node6" class="node">
<title>Node6</title>
<g id="a_node6"><a xlink:href="namespacemom__error__handler.html#ad5f00a53059c72fe2332d1436c80ca71" target="_top" xlink:title="This returns .true. if the current PE is the root PE.">
<polygon fill="#ffffff" stroke="#000000" points="461,-78.4794 461,-108.4794 567,-108.4794 567,-78.4794 461,-78.4794"/>
<text text-anchor="start" x="469" y="-96.4794" font-family="Helvetica,sans-Serif" font-size="10.00" fill="#000000">mom_error_handler::</text>
<text text-anchor="middle" x="514" y="-85.4794" font-family="Helvetica,sans-Serif" font-size="10.00" fill="#000000">is_root_pe</text>
</a>
</g>
</g>
<!-- Node5&#45;&gt;Node6 -->
<g id="edge5" class="edge">
<title>Node5&#45;&gt;Node6</title>
<path fill="none" stroke="#191970" d="M414.8371,-93.4794C426.3963,-93.4794 438.7299,-93.4794 450.6322,-93.4794"/>
<polygon fill="#191970" stroke="#191970" points="450.9506,-96.9795 460.9505,-93.4794 450.9505,-89.9795 450.9506,-96.9795"/>
</g>
<!-- Node7&#45;&gt;Node5 -->
<g id="edge7" class="edge">
<title>Node7&#45;&gt;Node5</title>
<path fill="none" stroke="#191970" d="M257.1351,-61.6172C271.8918,-66.1224 287.8478,-70.9937 302.7383,-75.5397"/>
<polygon fill="#191970" stroke="#191970" points="301.76,-78.9004 312.3462,-78.4729 303.804,-72.2055 301.76,-78.9004"/>
</g>
<!-- Node7&#45;&gt;Node8 -->
<g id="edge8" class="edge">
<title>Node7&#45;&gt;Node8</title>
<path fill="none" stroke="#191970" d="M257.1351,-36.0853C267.1368,-34.5898 277.6893,-33.0118 288.0877,-31.4569"/>
<polygon fill="#191970" stroke="#191970" points="288.6145,-34.9171 297.9869,-29.9767 287.5792,-27.9941 288.6145,-34.9171"/>
</g>
</g>
</svg>
        <g id="navigator" transform="translate(0 0)" fill="#404254">
                <rect fill="#f2f5e9" fill-opacity="0.5" stroke="#606060" stroke-width=".5" x="0" y="0" width="60" height="60"/>
                <use id="zoomplus" xlink:href="#zoomPlus" x="17" y="9" onmousedown="handleZoom(evt,'in')"/>
                <use id="zoomminus" xlink:href="#zoomMin" x="42" y="9" onmousedown="handleZoom(evt,'out')"/>
                <use id="reset" xlink:href="#resetDef" x="30" y="36" onmousedown="handleReset()"/>
                <g id="arrowUp" xlink:href="#dirArrow" transform="translate(30 24)" onmousedown="handlePan(0,-1)">
                  <use xlink:href="#rim" fill="#404040">
                        <set attributeName="fill" to="#808080" begin="arrowUp.mouseover" end="arrowUp.mouseout"/>
                  </use>
                  <path fill="none" stroke="white" stroke-width="1.5" d="M0,-3.0v7 M-2.5,-0.5L0,-3.0L2.5,-0.5"/>
                </g>
                <g id="arrowRight" xlink:href="#dirArrow" transform="rotate(90) translate(36 -43)" onmousedown="handlePan(1,0)">
                  <use xlink:href="#rim" fill="#404040">
                        <set attributeName="fill" to="#808080" begin="arrowRight.mouseover" end="arrowRight.mouseout"/>
                  </use>
                  <path fill="none" stroke="white" stroke-width="1.5" d="M0,-3.0v7 M-2.5,-0.5L0,-3.0L2.5,-0.5"/>
                </g>
                <g id="arrowDown" xlink:href="#dirArrow" transform="rotate(180) translate(-30 -48)" onmousedown="handlePan(0,1)">
                  <use xlink:href="#rim" fill="#404040">
                        <set attributeName="fill" to="#808080" begin="arrowDown.mouseover" end="arrowDown.mouseout"/>
                  </use>
                  <path fill="none" stroke="white" stroke-width="1.5" d="M0,-3.0v7 M-2.5,-0.5L0,-3.0L2.5,-0.5"/>
                </g>
                <g id="arrowLeft" xlink:href="#dirArrow" transform="rotate(270) translate(-36 17)" onmousedown="handlePan(-1,0)">
                  <use xlink:href="#rim" fill="#404040">
                        <set attributeName="fill" to="#808080" begin="arrowLeft.mouseover" end="arrowLeft.mouseout"/>
                  </use>
                  <path fill="none" stroke="white" stroke-width="1.5" d="M0,-3.0v7 M-2.5,-0.5L0,-3.0L2.5,-0.5"/>
                </g>
        </g>
        <svg viewBox="0 0 15 15" width="100%" height="30px" preserveAspectRatio="xMaxYMin meet">
         <g id="arrow_out" transform="scale(0.3 0.3)">
          <a xlink:href="namespacemom__lateral__mixing__coeffs_a90d17b7e05aab37752c8d9061de29170_cgraph_org.svg" target="_base">
           <rect id="button" ry="5" rx="5" y="6" x="6" height="38" width="38"
                fill="#f2f5e9" fill-opacity="0.5" stroke="#606060" stroke-width="1.0"/>
           <path id="arrow"
             d="M 11.500037,31.436501 C 11.940474,20.09759 22.043105,11.32322 32.158766,21.979434 L 37.068811,17.246167 C 37.068811,17.246167 37.088388,32 37.088388,32 L 22.160133,31.978069 C 22.160133,31.978069 26.997745,27.140456 26.997745,27.140456 C 18.528582,18.264221 13.291696,25.230495 11.500037,31.436501 z"
             style="fill:#404040;"/>
          </a>
         </g>
        </svg>
</svg>
