<?xml version="1.0" encoding="UTF-8" standalone="no"?>
<!DOCTYPE svg PUBLIC "-//W3C//DTD SVG 1.1//EN"
 "http://www.w3.org/Graphics/SVG/1.1/DTD/svg11.dtd">
<!-- Generated by graphviz version 2.40.1 (20161225.0304)
 -->
<!-- Title: mom_set_visc::set_viscous_ml Pages: 1 -->
<svg width="374pt" height="137pt"
 viewBox="0.00 0.00 374.00 137.00" xmlns="http://www.w3.org/2000/svg" xmlns:xlink="http://www.w3.org/1999/xlink">
<g id="graph0" class="graph" transform="scale(1 1) rotate(0) translate(4 133)">
<title>mom_set_visc::set_viscous_ml</title>
<polygon fill="#ffffff" stroke="transparent" points="-4,4 -4,-133 370,-133 370,4 -4,4"/>
<!-- Node1 -->
<g id="node1" class="node">
<title>Node1</title>
<g id="a_node1"><a xlink:title="Calculates the thickness of the surface boundary layer for applying an elevated viscosity.">
<polygon fill="#bfbfbf" stroke="#000000" points="207,-55 207,-74 366,-74 366,-55 207,-55"/>
<text text-anchor="middle" x="286.5" y="-62" font-family="Helvetica,sans-Serif" font-size="10.00" fill="#000000">mom_set_visc::set_viscous_ml</text>
</a>
</g>
</g>
<!-- Node2 -->
<g id="node2" class="node">
<title>Node2</title>
<g id="a_node2"><a xlink:href="namespacemom__dynamics__split__rk2.html#a976e700971f232fc11bc69b31d611c32" target="_top" xlink:title="RK2 splitting for time stepping MOM adiabatic dynamics.">
<polygon fill="#ffffff" stroke="#000000" points="5.5,-98.5 5.5,-128.5 165.5,-128.5 165.5,-98.5 5.5,-98.5"/>
<text text-anchor="start" x="13.5" y="-116.5" font-family="Helvetica,sans-Serif" font-size="10.00" fill="#000000">mom_dynamics_split</text>
<text text-anchor="middle" x="85.5" y="-105.5" font-family="Helvetica,sans-Serif" font-size="10.00" fill="#000000">_rk2::step_mom_dyn_split_rk2</text>
</a>
</g>
</g>
<!-- Node1&#45;&gt;Node2 -->
<g id="edge1" class="edge">
<title>Node1&#45;&gt;Node2</title>
<path fill="none" stroke="#191970" d="M237.2173,-76.5142C210.0584,-83.135 176.089,-91.4161 147.1822,-98.463"/>
<polygon fill="#191970" stroke="#191970" points="238.3815,-79.833 247.268,-74.064 236.7236,-73.0321 238.3815,-79.833"/>
</g>
<!-- Node3 -->
<g id="node3" class="node">
<title>Node3</title>
<g id="a_node3"><a xlink:href="namespacemom__dynamics__unsplit.html#ab72d911d187f9247b6cc72d87e815370" target="_top" xlink:title="Step the MOM6 dynamics using an unsplit mixed 2nd order (for continuity) and 3rd order (for the invis...">
<polygon fill="#ffffff" stroke="#000000" points="21,-49.5 21,-79.5 150,-79.5 150,-49.5 21,-49.5"/>
<text text-anchor="start" x="29" y="-67.5" font-family="Helvetica,sans-Serif" font-size="10.00" fill="#000000">mom_dynamics_unsplit</text>
<text text-anchor="middle" x="85.5" y="-56.5" font-family="Helvetica,sans-Serif" font-size="10.00" fill="#000000">::step_mom_dyn_unsplit</text>
</a>
</g>
</g>
<!-- Node1&#45;&gt;Node3 -->
<g id="edge2" class="edge">
<title>Node1&#45;&gt;Node3</title>
<path fill="none" stroke="#191970" d="M196.5858,-64.5C180.9872,-64.5 165.0446,-64.5 150.2836,-64.5"/>
<polygon fill="#191970" stroke="#191970" points="196.7708,-68.0001 206.7708,-64.5 196.7708,-61.0001 196.7708,-68.0001"/>
</g>
<!-- Node4 -->
<g id="node4" class="node">
<title>Node4</title>
<g id="a_node4"><a xlink:href="namespacemom__dynamics__unsplit__rk2.html#a25424d65cc3339442e528c0a92b173a3" target="_top" xlink:title="Step the MOM6 dynamics using an unsplit quasi&#45;2nd order Runge&#45;Kutta scheme.">
<polygon fill="#ffffff" stroke="#000000" points="0,-.5 0,-30.5 171,-30.5 171,-.5 0,-.5"/>
<text text-anchor="start" x="8" y="-18.5" font-family="Helvetica,sans-Serif" font-size="10.00" fill="#000000">mom_dynamics_unsplit</text>
<text text-anchor="middle" x="85.5" y="-7.5" font-family="Helvetica,sans-Serif" font-size="10.00" fill="#000000">_rk2::step_mom_dyn_unsplit_rk2</text>
</a>
</g>
</g>
<!-- Node1&#45;&gt;Node4 -->
<g id="edge3" class="edge">
<title>Node1&#45;&gt;Node4</title>
<path fill="none" stroke="#191970" d="M237.2173,-52.4858C210.0584,-45.865 176.089,-37.5839 147.1822,-30.537"/>
<polygon fill="#191970" stroke="#191970" points="236.7236,-55.9679 247.268,-54.936 238.3815,-49.167 236.7236,-55.9679"/>
</g>
</g>
</svg>
