<?xml version="1.0" encoding="UTF-8" standalone="no"?>
<!DOCTYPE svg PUBLIC "-//W3C//DTD SVG 1.1//EN"
 "http://www.w3.org/Graphics/SVG/1.1/DTD/svg11.dtd">
<!-- Generated by graphviz version 2.40.1 (20161225.0304)
 -->
<!-- Title: mom_document::writemessageanddesc Pages: 1 -->
<!--zoomable 492 -->
<svg id="main" version="1.1" xmlns="http://www.w3.org/2000/svg" xmlns:xlink="http://www.w3.org/1999/xlink" xml:space="preserve" onload="init(evt)">
<style type="text/css"><![CDATA[
.edge:hover path { stroke: red; }
.edge:hover polygon { stroke: red; fill: red; }
]]></style>
<script type="text/javascript"><![CDATA[
var edges = document.getElementsByTagName('g');
if (edges && edges.length) {
  for (var i=0;i<edges.length;i++) {
    if (edges[i].id.substr(0,4)=='edge') {
      edges[i].setAttribute('class','edge');
    }
  }
}
]]></script>
        <defs>
                <circle id="rim" cx="0" cy="0" r="7"/>
                <circle id="rim2" cx="0" cy="0" r="3.5"/>
                <g id="zoomPlus">
                        <use xlink:href="#rim" fill="#404040">
                                <set attributeName="fill" to="#808080" begin="zoomplus.mouseover" end="zoomplus.mouseout"/>
                        </use>
                        <path d="M-4,0h8M0,-4v8" fill="none" stroke="white" stroke-width="1.5" pointer-events="none"/>
                </g>
                <g id="zoomMin">
                        <use xlink:href="#rim" fill="#404040">
                                <set attributeName="fill" to="#808080" begin="zoomminus.mouseover" end="zoomminus.mouseout"/>
                        </use>
                        <path d="M-4,0h8" fill="none" stroke="white" stroke-width="1.5" pointer-events="none"/>
                </g>
                <g id="dirArrow">
                        <path fill="none" stroke="white" stroke-width="1.5" d="M0,-3.0v7 M-2.5,-0.5L0,-3.0L2.5,-0.5"/>
                </g>
               <g id="resetDef">
                       <use xlink:href="#rim2" fill="#404040">
                               <set attributeName="fill" to="#808080" begin="reset.mouseover" end="reset.mouseout"/>
                       </use>
               </g>
        </defs>

<script type="text/javascript">
var viewWidth = 401;
var viewHeight = 492;
var sectionId = 'dynsection-28';
</script>
<script xlink:href="svgpan.js"/>
<svg id="graph" class="graph">
<g id="viewport">
<title>mom_document::writemessageanddesc</title>
<polygon fill="#ffffff" stroke="transparent" points="-4,4 -4,-488 397,-488 397,4 -4,4"/>
<!-- Node1 -->
<g id="node1" class="node">
<title>Node1</title>
<g id="a_node1"><a xlink:title="This subroutine writes out the message and description to the documetation files.">
<polygon fill="#bfbfbf" stroke="#000000" points="203,-243.5 203,-262.5 393,-262.5 393,-243.5 203,-243.5"/>
<text text-anchor="middle" x="298" y="-250.5" font-family="Helvetica,sans-Serif" font-size="10.00" fill="#000000">mom_document::writemessageanddesc</text>
</a>
</g>
</g>
<!-- Node2 -->
<g id="node2" class="node">
<title>Node2</title>
<g id="a_node2"><a xlink:href="namespacemom__document.html#a058916aee316efa7a6484b3bb1d3f3df" target="_top" xlink:title="This subroutine handles documentation for closing a parameter block.">
<polygon fill="#ffffff" stroke="#000000" points="3.5,-464.5 3.5,-483.5 163.5,-483.5 163.5,-464.5 3.5,-464.5"/>
<text text-anchor="middle" x="83.5" y="-471.5" font-family="Helvetica,sans-Serif" font-size="10.00" fill="#000000">mom_document::doc_closeblock</text>
</a>
</g>
</g>
<!-- Node1&#45;&gt;Node2 -->
<g id="edge1" class="edge">
<title>Node1&#45;&gt;Node2</title>
<path fill="none" stroke="#191970" d="M291.1754,-272.5044C275.8456,-313.3016 234.6356,-407.7684 167,-455 161.5149,-458.8304 155.378,-461.9013 148.9881,-464.3612"/>
<polygon fill="#191970" stroke="#191970" points="294.5308,-273.519 294.6655,-262.925 287.9537,-271.1227 294.5308,-273.519"/>
</g>
<!-- Node3 -->
<g id="node3" class="node">
<title>Node3</title>
<g id="a_node3"><a xlink:href="namespacemom__document.html#a29ab772c411aedcc137942020c1ee042" target="_top" xlink:title="This subroutine handles the module documentation.">
<polygon fill="#ffffff" stroke="#000000" points="11,-426.5 11,-445.5 156,-445.5 156,-426.5 11,-426.5"/>
<text text-anchor="middle" x="83.5" y="-433.5" font-family="Helvetica,sans-Serif" font-size="10.00" fill="#000000">mom_document::doc_module</text>
</a>
</g>
</g>
<!-- Node1&#45;&gt;Node3 -->
<g id="edge2" class="edge">
<title>Node1&#45;&gt;Node3</title>
<path fill="none" stroke="#191970" d="M288.6565,-271.6304C270.3417,-306.1267 226.2823,-379.8109 167,-417 160.8289,-420.8713 153.961,-423.9567 146.8892,-426.4152"/>
<polygon fill="#191970" stroke="#191970" points="291.8253,-273.1224 293.3175,-262.6332 285.6098,-269.9025 291.8253,-273.1224"/>
</g>
<!-- Node4 -->
<g id="node4" class="node">
<title>Node4</title>
<g id="a_node4"><a xlink:href="namespacemom__document.html#ada55c6a65638e04d2b550f419aafa929" target="_top" xlink:title="This subroutine handles documentation for opening a parameter block.">
<polygon fill="#ffffff" stroke="#000000" points="4.5,-388.5 4.5,-407.5 162.5,-407.5 162.5,-388.5 4.5,-388.5"/>
<text text-anchor="middle" x="83.5" y="-395.5" font-family="Helvetica,sans-Serif" font-size="10.00" fill="#000000">mom_document::doc_openblock</text>
</a>
</g>
</g>
<!-- Node1&#45;&gt;Node4 -->
<g id="edge3" class="edge">
<title>Node1&#45;&gt;Node4</title>
<path fill="none" stroke="#191970" d="M284.8949,-270.7156C263.4557,-298.3532 218.1193,-351.4149 167,-379 159.804,-382.8831 151.8458,-385.9747 143.7851,-388.4357"/>
<polygon fill="#191970" stroke="#191970" points="287.7236,-272.778 290.993,-262.7002 282.1526,-268.5395 287.7236,-272.778"/>
</g>
<!-- Node5 -->
<g id="node5" class="node">
<title>Node5</title>
<g id="a_node5"><a xlink:href="namespacemom__document.html#a229adca02cf2d0a89aa8f6d04eb9f4a9" target="_top" xlink:title="This subroutine handles parameter documentation for character strings.">
<polygon fill="#ffffff" stroke="#000000" points="1.5,-350.5 1.5,-369.5 165.5,-369.5 165.5,-350.5 1.5,-350.5"/>
<text text-anchor="middle" x="83.5" y="-357.5" font-family="Helvetica,sans-Serif" font-size="10.00" fill="#000000">mom_document::doc_param_char</text>
</a>
</g>
</g>
<!-- Node1&#45;&gt;Node5 -->
<g id="edge4" class="edge">
<title>Node1&#45;&gt;Node5</title>
<path fill="none" stroke="#191970" d="M279.1906,-268.9494C254.859,-288.7657 210.4257,-322.2483 167,-341 158.1282,-344.831 148.3785,-347.9414 138.7686,-350.4503"/>
<polygon fill="#191970" stroke="#191970" points="281.4464,-271.6257 286.924,-262.5567 276.9865,-266.2304 281.4464,-271.6257"/>
</g>
<!-- Node6 -->
<g id="node6" class="node">
<title>Node6</title>
<g id="a_node6"><a xlink:href="namespacemom__document.html#a73f11af8cd30ba919e5ed656939d602b" target="_top" xlink:title="This subroutine handles parameter documentation for integers.">
<polygon fill="#ffffff" stroke="#000000" points="5.5,-312.5 5.5,-331.5 161.5,-331.5 161.5,-312.5 5.5,-312.5"/>
<text text-anchor="middle" x="83.5" y="-319.5" font-family="Helvetica,sans-Serif" font-size="10.00" fill="#000000">mom_document::doc_param_int</text>
</a>
</g>
</g>
<!-- Node1&#45;&gt;Node6 -->
<g id="edge5" class="edge">
<title>Node1&#45;&gt;Node6</title>
<path fill="none" stroke="#191970" d="M266.1806,-266.5926C239.9194,-277.4577 201.4996,-292.5478 167,-303 155.3327,-306.5348 142.5727,-309.7545 130.617,-312.4983"/>
<polygon fill="#191970" stroke="#191970" points="267.7366,-269.7358 275.6167,-262.6537 265.0401,-263.276 267.7366,-269.7358"/>
</g>
<!-- Node7 -->
<g id="node7" class="node">
<title>Node7</title>
<g id="a_node7"><a xlink:href="namespacemom__document.html#a4a7bc631327cb9b529c2bb0e1595a914" target="_top" xlink:title="This subroutine handles parameter documentation for arrays of integers.">
<polygon fill="#ffffff" stroke="#000000" points="13.5,-263 13.5,-293 153.5,-293 153.5,-263 13.5,-263"/>
<text text-anchor="start" x="21.5" y="-281" font-family="Helvetica,sans-Serif" font-size="10.00" fill="#000000">mom_document::doc_param</text>
<text text-anchor="middle" x="83.5" y="-270" font-family="Helvetica,sans-Serif" font-size="10.00" fill="#000000">_int_array</text>
</a>
</g>
</g>
<!-- Node1&#45;&gt;Node7 -->
<g id="edge6" class="edge">
<title>Node1&#45;&gt;Node7</title>
<path fill="none" stroke="#191970" d="M206.0622,-263.7154C188.5492,-265.7565 170.4801,-267.8625 153.7748,-269.8095"/>
<polygon fill="#191970" stroke="#191970" points="206.7673,-267.157 216.2948,-262.5227 205.9569,-260.204 206.7673,-267.157"/>
</g>
<!-- Node8 -->
<g id="node8" class="node">
<title>Node8</title>
<g id="a_node8"><a xlink:href="namespacemom__document.html#ac2c836b7249384e076d12f62d5e5c1c4" target="_top" xlink:title="This subroutine handles parameter documentation for logicals.">
<polygon fill="#ffffff" stroke="#000000" points="13.5,-214 13.5,-244 153.5,-244 153.5,-214 13.5,-214"/>
<text text-anchor="start" x="21.5" y="-232" font-family="Helvetica,sans-Serif" font-size="10.00" fill="#000000">mom_document::doc_param</text>
<text text-anchor="middle" x="83.5" y="-221" font-family="Helvetica,sans-Serif" font-size="10.00" fill="#000000">_logical</text>
</a>
</g>
</g>
<!-- Node1&#45;&gt;Node8 -->
<g id="edge7" class="edge">
<title>Node1&#45;&gt;Node8</title>
<path fill="none" stroke="#191970" d="M202.7058,-242.3377C186.2057,-240.4915 169.3233,-238.6026 153.6472,-236.8486"/>
<polygon fill="#191970" stroke="#191970" points="202.5886,-245.8464 212.9158,-243.4801 203.3671,-238.8898 202.5886,-245.8464"/>
</g>
<!-- Node9 -->
<g id="node9" class="node">
<title>Node9</title>
<g id="a_node9"><a xlink:href="namespacemom__document.html#a32807c0c2fe23659ceae07dd92816151" target="_top" xlink:title="This subroutine handles parameter documentation for arrays of logicals.">
<polygon fill="#ffffff" stroke="#000000" points="13.5,-165 13.5,-195 153.5,-195 153.5,-165 13.5,-165"/>
<text text-anchor="start" x="21.5" y="-183" font-family="Helvetica,sans-Serif" font-size="10.00" fill="#000000">mom_document::doc_param</text>
<text text-anchor="middle" x="83.5" y="-172" font-family="Helvetica,sans-Serif" font-size="10.00" fill="#000000">_logical_array</text>
</a>
</g>
</g>
<!-- Node1&#45;&gt;Node9 -->
<g id="edge8" class="edge">
<title>Node1&#45;&gt;Node9</title>
<path fill="none" stroke="#191970" d="M263.5292,-239.7239C237.2269,-229.7513 200.0161,-215.9802 167,-205 156.9487,-201.6572 146.151,-198.2733 135.7667,-195.1207"/>
<polygon fill="#191970" stroke="#191970" points="262.4533,-243.0593 273.0443,-243.3463 264.9439,-236.5173 262.4533,-243.0593"/>
</g>
<!-- Node10 -->
<g id="node10" class="node">
<title>Node10</title>
<g id="a_node10"><a xlink:href="namespacemom__document.html#ab6438889d6e98b10d8c42d5ff6b00ef8" target="_top" xlink:title="This subroutine handles parameter documentation with no value.">
<polygon fill="#ffffff" stroke="#000000" points="0,-126.5 0,-145.5 167,-145.5 167,-126.5 0,-126.5"/>
<text text-anchor="middle" x="83.5" y="-133.5" font-family="Helvetica,sans-Serif" font-size="10.00" fill="#000000">mom_document::doc_param_none</text>
</a>
</g>
</g>
<!-- Node1&#45;&gt;Node10 -->
<g id="edge9" class="edge">
<title>Node1&#45;&gt;Node10</title>
<path fill="none" stroke="#191970" d="M280.5695,-236.419C256.7883,-214.7109 211.9699,-176.9641 167,-156 157.8128,-151.7171 147.6148,-148.2983 137.5913,-145.5869"/>
<polygon fill="#191970" stroke="#191970" points="278.3574,-239.1409 288.0696,-243.3747 283.1174,-234.0084 278.3574,-239.1409"/>
</g>
<!-- Node11 -->
<g id="node11" class="node">
<title>Node11</title>
<g id="a_node11"><a xlink:href="namespacemom__document.html#a350768d3604d8071328248457cff3b7c" target="_top" xlink:title="This subroutine handles parameter documentation for reals.">
<polygon fill="#ffffff" stroke="#000000" points="3,-88.5 3,-107.5 164,-107.5 164,-88.5 3,-88.5"/>
<text text-anchor="middle" x="83.5" y="-95.5" font-family="Helvetica,sans-Serif" font-size="10.00" fill="#000000">mom_document::doc_param_real</text>
</a>
</g>
</g>
<!-- Node1&#45;&gt;Node11 -->
<g id="edge10" class="edge">
<title>Node1&#45;&gt;Node11</title>
<path fill="none" stroke="#191970" d="M285.8439,-234.7233C265.136,-205.1134 220.0661,-146.9573 167,-117 160.1383,-113.1264 152.5388,-110.0423 144.8012,-107.5869"/>
<polygon fill="#191970" stroke="#191970" points="283.1528,-236.9882 291.6905,-243.262 288.9286,-233.0334 283.1528,-236.9882"/>
</g>
<!-- Node12 -->
<g id="node12" class="node">
<title>Node12</title>
<g id="a_node12"><a xlink:href="namespacemom__document.html#ae4b7c9070b5a4be36cb73f173fa82acd" target="_top" xlink:title="This subroutine handles parameter documentation for arrays of reals.">
<polygon fill="#ffffff" stroke="#000000" points="13.5,-39 13.5,-69 153.5,-69 153.5,-39 13.5,-39"/>
<text text-anchor="start" x="21.5" y="-57" font-family="Helvetica,sans-Serif" font-size="10.00" fill="#000000">mom_document::doc_param</text>
<text text-anchor="middle" x="83.5" y="-46" font-family="Helvetica,sans-Serif" font-size="10.00" fill="#000000">_real_array</text>
</a>
</g>
</g>
<!-- Node1&#45;&gt;Node12 -->
<g id="edge11" class="edge">
<title>Node1&#45;&gt;Node12</title>
<path fill="none" stroke="#191970" d="M288.9724,-234.1231C270.9139,-198.3827 226.8778,-120.688 167,-79 161.4115,-75.1092 155.2076,-71.8137 148.7774,-69.0246"/>
<polygon fill="#191970" stroke="#191970" points="285.9884,-235.9856 293.551,-243.4057 292.2663,-232.8891 285.9884,-235.9856"/>
</g>
<!-- Node13 -->
<g id="node13" class="node">
<title>Node13</title>
<g id="a_node13"><a xlink:href="namespacemom__document.html#ad177f77e0339348bdce9602dac1fc6db" target="_top" xlink:title="This subroutine handles parameter documentation for time&#45;type variables.">
<polygon fill="#ffffff" stroke="#000000" points="1.5,-.5 1.5,-19.5 165.5,-19.5 165.5,-.5 1.5,-.5"/>
<text text-anchor="middle" x="83.5" y="-7.5" font-family="Helvetica,sans-Serif" font-size="10.00" fill="#000000">mom_document::doc_param_time</text>
</a>
</g>
</g>
<!-- Node1&#45;&gt;Node13 -->
<g id="edge12" class="edge">
<title>Node1&#45;&gt;Node13</title>
<path fill="none" stroke="#191970" d="M292.3069,-233.3583C278.5491,-189.5383 239.1875,-83.453 167,-30 161.1299,-25.6533 154.4478,-22.2379 147.4796,-19.5565"/>
<polygon fill="#191970" stroke="#191970" points="289.0059,-234.5336 295.2574,-243.0875 295.7046,-232.5021 289.0059,-234.5336"/>
</g>
</g>
</svg>
        <g id="navigator" transform="translate(0 0)" fill="#404254">
                <rect fill="#f2f5e9" fill-opacity="0.5" stroke="#606060" stroke-width=".5" x="0" y="0" width="60" height="60"/>
                <use id="zoomplus" xlink:href="#zoomPlus" x="17" y="9" onmousedown="handleZoom(evt,'in')"/>
                <use id="zoomminus" xlink:href="#zoomMin" x="42" y="9" onmousedown="handleZoom(evt,'out')"/>
                <use id="reset" xlink:href="#resetDef" x="30" y="36" onmousedown="handleReset()"/>
                <g id="arrowUp" xlink:href="#dirArrow" transform="translate(30 24)" onmousedown="handlePan(0,-1)">
                  <use xlink:href="#rim" fill="#404040">
                        <set attributeName="fill" to="#808080" begin="arrowUp.mouseover" end="arrowUp.mouseout"/>
                  </use>
                  <path fill="none" stroke="white" stroke-width="1.5" d="M0,-3.0v7 M-2.5,-0.5L0,-3.0L2.5,-0.5"/>
                </g>
                <g id="arrowRight" xlink:href="#dirArrow" transform="rotate(90) translate(36 -43)" onmousedown="handlePan(1,0)">
                  <use xlink:href="#rim" fill="#404040">
                        <set attributeName="fill" to="#808080" begin="arrowRight.mouseover" end="arrowRight.mouseout"/>
                  </use>
                  <path fill="none" stroke="white" stroke-width="1.5" d="M0,-3.0v7 M-2.5,-0.5L0,-3.0L2.5,-0.5"/>
                </g>
                <g id="arrowDown" xlink:href="#dirArrow" transform="rotate(180) translate(-30 -48)" onmousedown="handlePan(0,1)">
                  <use xlink:href="#rim" fill="#404040">
                        <set attributeName="fill" to="#808080" begin="arrowDown.mouseover" end="arrowDown.mouseout"/>
                  </use>
                  <path fill="none" stroke="white" stroke-width="1.5" d="M0,-3.0v7 M-2.5,-0.5L0,-3.0L2.5,-0.5"/>
                </g>
                <g id="arrowLeft" xlink:href="#dirArrow" transform="rotate(270) translate(-36 17)" onmousedown="handlePan(-1,0)">
                  <use xlink:href="#rim" fill="#404040">
                        <set attributeName="fill" to="#808080" begin="arrowLeft.mouseover" end="arrowLeft.mouseout"/>
                  </use>
                  <path fill="none" stroke="white" stroke-width="1.5" d="M0,-3.0v7 M-2.5,-0.5L0,-3.0L2.5,-0.5"/>
                </g>
        </g>
        <svg viewBox="0 0 15 15" width="100%" height="30px" preserveAspectRatio="xMaxYMin meet">
         <g id="arrow_out" transform="scale(0.3 0.3)">
          <a xlink:href="namespacemom__document_a249e7992a57539508d07c71c6fcabaeb_icgraph_org.svg" target="_base">
           <rect id="button" ry="5" rx="5" y="6" x="6" height="38" width="38"
                fill="#f2f5e9" fill-opacity="0.5" stroke="#606060" stroke-width="1.0"/>
           <path id="arrow"
             d="M 11.500037,31.436501 C 11.940474,20.09759 22.043105,11.32322 32.158766,21.979434 L 37.068811,17.246167 C 37.068811,17.246167 37.088388,32 37.088388,32 L 22.160133,31.978069 C 22.160133,31.978069 26.997745,27.140456 26.997745,27.140456 C 18.528582,18.264221 13.291696,25.230495 11.500037,31.436501 z"
             style="fill:#404040;"/>
          </a>
         </g>
        </svg>
</svg>
