<?xml version="1.0" encoding="UTF-8" standalone="no"?>
<!DOCTYPE svg PUBLIC "-//W3C//DTD SVG 1.1//EN"
 "http://www.w3.org/Graphics/SVG/1.1/DTD/svg11.dtd">
<!-- Generated by graphviz version 2.40.1 (20161225.0304)
 -->
<!-- Title: mom_regridding::set_regrid_max_thickness Pages: 1 -->
<svg width="574pt" height="88pt"
 viewBox="0.00 0.00 574.00 88.00" xmlns="http://www.w3.org/2000/svg" xmlns:xlink="http://www.w3.org/1999/xlink">
<g id="graph0" class="graph" transform="scale(1 1) rotate(0) translate(4 84)">
<title>mom_regridding::set_regrid_max_thickness</title>
<polygon fill="#ffffff" stroke="transparent" points="-4,4 -4,-84 570,-84 570,4 -4,4"/>
<!-- Node1 -->
<g id="node1" class="node">
<title>Node1</title>
<g id="a_node1"><a xlink:title="Set maximum layer thicknesses based on a vector of input values.">
<polygon fill="#bfbfbf" stroke="#000000" points="0,-24.5 0,-54.5 117,-54.5 117,-24.5 0,-24.5"/>
<text text-anchor="start" x="8" y="-42.5" font-family="Helvetica,sans-Serif" font-size="10.00" fill="#000000">mom_regridding::set</text>
<text text-anchor="middle" x="58.5" y="-31.5" font-family="Helvetica,sans-Serif" font-size="10.00" fill="#000000">_regrid_max_thickness</text>
</a>
</g>
</g>
<!-- Node2 -->
<g id="node2" class="node">
<title>Node2</title>
<g id="a_node2"><a xlink:href="namespacecoord__hycom.html#af1b6262578c0ae1b48d576c9e43712f4" target="_top" xlink:title="This subroutine can be used to set the parameters for the coord_hycom module.">
<polygon fill="#ffffff" stroke="#000000" points="153,-49.5 153,-79.5 282,-79.5 282,-49.5 153,-49.5"/>
<text text-anchor="start" x="161" y="-67.5" font-family="Helvetica,sans-Serif" font-size="10.00" fill="#000000">coord_hycom::set_hycom</text>
<text text-anchor="middle" x="217.5" y="-56.5" font-family="Helvetica,sans-Serif" font-size="10.00" fill="#000000">_params</text>
</a>
</g>
</g>
<!-- Node1&#45;&gt;Node2 -->
<g id="edge1" class="edge">
<title>Node1&#45;&gt;Node2</title>
<path fill="none" stroke="#191970" d="M117.254,-48.738C125.5834,-50.0477 134.2394,-51.4087 142.8203,-52.7579"/>
<polygon fill="#191970" stroke="#191970" points="142.4126,-56.2367 152.8349,-54.3325 143.4999,-49.3217 142.4126,-56.2367"/>
</g>
<!-- Node5 -->
<g id="node5" class="node">
<title>Node5</title>
<g id="a_node5"><a xlink:href="namespacecoord__slight.html#a5ffc8589603f020d1d5af03cfd308154" target="_top" xlink:title="This subroutine can be used to set the parameters for the coord_slight module.">
<polygon fill="#ffffff" stroke="#000000" points="159,-.5 159,-30.5 276,-30.5 276,-.5 159,-.5"/>
<text text-anchor="start" x="167" y="-18.5" font-family="Helvetica,sans-Serif" font-size="10.00" fill="#000000">coord_slight::set_slight</text>
<text text-anchor="middle" x="217.5" y="-7.5" font-family="Helvetica,sans-Serif" font-size="10.00" fill="#000000">_params</text>
</a>
</g>
</g>
<!-- Node1&#45;&gt;Node5 -->
<g id="edge4" class="edge">
<title>Node1&#45;&gt;Node5</title>
<path fill="none" stroke="#191970" d="M117.254,-30.6315C127.5779,-29.0731 138.4037,-27.4391 148.9662,-25.8447"/>
<polygon fill="#191970" stroke="#191970" points="149.6219,-29.2855 158.9875,-24.3321 148.5771,-22.3639 149.6219,-29.2855"/>
</g>
<!-- Node3 -->
<g id="node3" class="node">
<title>Node3</title>
<g id="a_node3"><a xlink:href="namespacemom__error__handler.html#a460cfb79a06c29fc249952c2a3710d67" target="_top" xlink:title="This provides a convenient interface for writing an mpp_error message with run&#45;time filter based on a...">
<polygon fill="#ffffff" stroke="#000000" points="318,-24.5 318,-54.5 424,-54.5 424,-24.5 318,-24.5"/>
<text text-anchor="start" x="326" y="-42.5" font-family="Helvetica,sans-Serif" font-size="10.00" fill="#000000">mom_error_handler::</text>
<text text-anchor="middle" x="371" y="-31.5" font-family="Helvetica,sans-Serif" font-size="10.00" fill="#000000">mom_error</text>
</a>
</g>
</g>
<!-- Node2&#45;&gt;Node3 -->
<g id="edge2" class="edge">
<title>Node2&#45;&gt;Node3</title>
<path fill="none" stroke="#191970" d="M282.1529,-53.9702C290.541,-52.6041 299.1268,-51.2057 307.4959,-49.8427"/>
<polygon fill="#191970" stroke="#191970" points="308.2617,-53.2642 317.569,-48.2021 307.1364,-46.3552 308.2617,-53.2642"/>
</g>
<!-- Node4 -->
<g id="node4" class="node">
<title>Node4</title>
<g id="a_node4"><a xlink:href="namespacemom__error__handler.html#ad5f00a53059c72fe2332d1436c80ca71" target="_top" xlink:title="This returns .true. if the current PE is the root PE.">
<polygon fill="#ffffff" stroke="#000000" points="460,-24.5 460,-54.5 566,-54.5 566,-24.5 460,-24.5"/>
<text text-anchor="start" x="468" y="-42.5" font-family="Helvetica,sans-Serif" font-size="10.00" fill="#000000">mom_error_handler::</text>
<text text-anchor="middle" x="513" y="-31.5" font-family="Helvetica,sans-Serif" font-size="10.00" fill="#000000">is_root_pe</text>
</a>
</g>
</g>
<!-- Node3&#45;&gt;Node4 -->
<g id="edge3" class="edge">
<title>Node3&#45;&gt;Node4</title>
<path fill="none" stroke="#191970" d="M424.2796,-39.5C432.56,-39.5 441.184,-39.5 449.6606,-39.5"/>
<polygon fill="#191970" stroke="#191970" points="449.8941,-43.0001 459.8941,-39.5 449.8941,-36.0001 449.8941,-43.0001"/>
</g>
<!-- Node5&#45;&gt;Node3 -->
<g id="edge5" class="edge">
<title>Node5&#45;&gt;Node3</title>
<path fill="none" stroke="#191970" d="M276.4081,-24.7104C286.5537,-26.2967 297.1396,-27.9518 307.4022,-29.5564"/>
<polygon fill="#191970" stroke="#191970" points="307.108,-33.0528 317.5286,-31.1397 308.1894,-26.1368 307.108,-33.0528"/>
</g>
</g>
</svg>
