<?xml version="1.0" encoding="UTF-8" standalone="no"?>
<!DOCTYPE svg PUBLIC "-//W3C//DTD SVG 1.1//EN"
 "http://www.w3.org/Graphics/SVG/1.1/DTD/svg11.dtd">
<!-- Generated by graphviz version 2.40.1 (20161225.0304)
 -->
<!-- Title: mom_offline_main::offline_fw_fluxes_into_ocean Pages: 1 -->
<svg width="616pt" height="88pt"
 viewBox="0.00 0.00 616.00 88.00" xmlns="http://www.w3.org/2000/svg" xmlns:xlink="http://www.w3.org/1999/xlink">
<g id="graph0" class="graph" transform="scale(1 1) rotate(0) translate(4 84)">
<title>mom_offline_main::offline_fw_fluxes_into_ocean</title>
<polygon fill="#ffffff" stroke="transparent" points="-4,4 -4,-84 612,-84 612,4 -4,4"/>
<!-- Node1 -->
<g id="node1" class="node">
<title>Node1</title>
<g id="a_node1"><a xlink:title="Apply positive freshwater fluxes (into the ocean) and update netMassOut with only the negative (out o...">
<polygon fill="#bfbfbf" stroke="#000000" points="0,-24.5 0,-54.5 128,-54.5 128,-24.5 0,-24.5"/>
<text text-anchor="start" x="8" y="-42.5" font-family="Helvetica,sans-Serif" font-size="10.00" fill="#000000">mom_offline_main::offline</text>
<text text-anchor="middle" x="64" y="-31.5" font-family="Helvetica,sans-Serif" font-size="10.00" fill="#000000">_fw_fluxes_into_ocean</text>
</a>
</g>
</g>
<!-- Node2 -->
<g id="node2" class="node">
<title>Node2</title>
<g id="a_node2"><a xlink:href="namespacemom__tracer__diabatic.html#ad4d3d4de0f2b84c15bccc5eb2f767df3" target="_top" xlink:title="This routine is modeled after applyBoundaryFluxesInOut in MOM_diabatic_aux.F90 NOTE: Please note that...">
<polygon fill="#ffffff" stroke="#000000" points="164,-47.5 164,-77.5 322,-77.5 322,-47.5 164,-47.5"/>
<text text-anchor="start" x="172" y="-65.5" font-family="Helvetica,sans-Serif" font-size="10.00" fill="#000000">mom_tracer_diabatic</text>
<text text-anchor="middle" x="243" y="-54.5" font-family="Helvetica,sans-Serif" font-size="10.00" fill="#000000">::applytracerboundaryfluxesinout</text>
</a>
</g>
</g>
<!-- Node1&#45;&gt;Node2 -->
<g id="edge1" class="edge">
<title>Node1&#45;&gt;Node2</title>
<path fill="none" stroke="#191970" d="M128.1175,-47.7386C136.4093,-48.804 145.018,-49.9101 153.6251,-51.0161"/>
<polygon fill="#191970" stroke="#191970" points="153.3448,-54.5088 163.7094,-52.3118 154.237,-47.5658 153.3448,-54.5088"/>
</g>
<!-- Node5 -->
<g id="node5" class="node">
<title>Node5</title>
<g id="a_node5"><a xlink:href="namespacemom__tracer__registry.html#a86cd924ede0ff77b15065f5b3bd2cb29" target="_top" xlink:title="Calculates and prints the global inventory of all tracers in the registry.">
<polygon fill="#ffffff" stroke="#000000" points="358,-.5 358,-30.5 466,-30.5 466,-.5 358,-.5"/>
<text text-anchor="start" x="366" y="-18.5" font-family="Helvetica,sans-Serif" font-size="10.00" fill="#000000">mom_tracer_registry</text>
<text text-anchor="middle" x="412" y="-7.5" font-family="Helvetica,sans-Serif" font-size="10.00" fill="#000000">::mom_tracer_chkinv</text>
</a>
</g>
</g>
<!-- Node1&#45;&gt;Node5 -->
<g id="edge4" class="edge">
<title>Node1&#45;&gt;Node5</title>
<path fill="none" stroke="#191970" d="M128.2341,-35.0701C190.7419,-30.7592 285.1932,-24.2453 347.7175,-19.9333"/>
<polygon fill="#191970" stroke="#191970" points="348.1164,-23.4142 357.8518,-19.2344 347.6347,-16.4308 348.1164,-23.4142"/>
</g>
<!-- Node3 -->
<g id="node3" class="node">
<title>Node3</title>
<g id="a_node3"><a xlink:href="namespacemom__error__handler.html#a460cfb79a06c29fc249952c2a3710d67" target="_top" xlink:title="This provides a convenient interface for writing an mpp_error message with run&#45;time filter based on a...">
<polygon fill="#ffffff" stroke="#000000" points="359,-49.5 359,-79.5 465,-79.5 465,-49.5 359,-49.5"/>
<text text-anchor="start" x="367" y="-67.5" font-family="Helvetica,sans-Serif" font-size="10.00" fill="#000000">mom_error_handler::</text>
<text text-anchor="middle" x="412" y="-56.5" font-family="Helvetica,sans-Serif" font-size="10.00" fill="#000000">mom_error</text>
</a>
</g>
</g>
<!-- Node2&#45;&gt;Node3 -->
<g id="edge2" class="edge">
<title>Node2&#45;&gt;Node3</title>
<path fill="none" stroke="#191970" d="M322.0571,-63.4356C330.8517,-63.5397 339.7253,-63.6447 348.2947,-63.7461"/>
<polygon fill="#191970" stroke="#191970" points="348.5301,-67.249 358.5709,-63.8677 348.613,-60.2495 348.5301,-67.249"/>
</g>
<!-- Node4 -->
<g id="node4" class="node">
<title>Node4</title>
<g id="a_node4"><a xlink:href="namespacemom__error__handler.html#ad5f00a53059c72fe2332d1436c80ca71" target="_top" xlink:title="This returns .true. if the current PE is the root PE.">
<polygon fill="#ffffff" stroke="#000000" points="502,-24.5 502,-54.5 608,-54.5 608,-24.5 502,-24.5"/>
<text text-anchor="start" x="510" y="-42.5" font-family="Helvetica,sans-Serif" font-size="10.00" fill="#000000">mom_error_handler::</text>
<text text-anchor="middle" x="555" y="-31.5" font-family="Helvetica,sans-Serif" font-size="10.00" fill="#000000">is_root_pe</text>
</a>
</g>
</g>
<!-- Node3&#45;&gt;Node4 -->
<g id="edge3" class="edge">
<title>Node3&#45;&gt;Node4</title>
<path fill="none" stroke="#191970" d="M465.2479,-55.1909C473.9022,-53.6779 482.9387,-52.0981 491.8027,-50.5485"/>
<polygon fill="#191970" stroke="#191970" points="492.4598,-53.9868 501.7076,-48.8169 491.2542,-47.0914 492.4598,-53.9868"/>
</g>
<!-- Node5&#45;&gt;Node4 -->
<g id="edge5" class="edge">
<title>Node5&#45;&gt;Node4</title>
<path fill="none" stroke="#191970" d="M466.0622,-24.5734C474.4756,-25.9854 483.2321,-27.455 491.8259,-28.8973"/>
<polygon fill="#191970" stroke="#191970" points="491.3678,-32.3694 501.8092,-30.5729 492.5265,-25.4659 491.3678,-32.3694"/>
</g>
</g>
</svg>
