<?xml version="1.0" encoding="UTF-8" standalone="no"?>
<!DOCTYPE svg PUBLIC "-//W3C//DTD SVG 1.1//EN"
 "http://www.w3.org/Graphics/SVG/1.1/DTD/svg11.dtd">
<!-- Generated by graphviz version 2.40.1 (20161225.0304)
 -->
<!-- Title: mom_restart::restart_files_exist Pages: 1 -->
<svg width="598pt" height="83pt"
 viewBox="0.00 0.00 598.00 83.00" xmlns="http://www.w3.org/2000/svg" xmlns:xlink="http://www.w3.org/1999/xlink">
<g id="graph0" class="graph" transform="scale(1 1) rotate(0) translate(4 79)">
<title>mom_restart::restart_files_exist</title>
<polygon fill="#ffffff" stroke="transparent" points="-4,4 -4,-79 594,-79 594,4 -4,4"/>
<!-- Node1 -->
<g id="node1" class="node">
<title>Node1</title>
<g id="a_node1"><a xlink:title="restart_files_exist determines whether any restart files exist.">
<polygon fill="#bfbfbf" stroke="#000000" points="0,-22.5 0,-52.5 111,-52.5 111,-22.5 0,-22.5"/>
<text text-anchor="start" x="8" y="-40.5" font-family="Helvetica,sans-Serif" font-size="10.00" fill="#000000">mom_restart::restart</text>
<text text-anchor="middle" x="55.5" y="-29.5" font-family="Helvetica,sans-Serif" font-size="10.00" fill="#000000">_files_exist</text>
</a>
</g>
</g>
<!-- Node2 -->
<g id="node2" class="node">
<title>Node2</title>
<g id="a_node2"><a xlink:href="namespacemom__error__handler.html#a460cfb79a06c29fc249952c2a3710d67" target="_top" xlink:title="This provides a convenient interface for writing an mpp_error message with run&#45;time filter based on a...">
<polygon fill="#ffffff" stroke="#000000" points="324,-44.5 324,-74.5 439,-74.5 439,-44.5 324,-44.5"/>
<text text-anchor="start" x="332" y="-62.5" font-family="Helvetica,sans-Serif" font-size="10.00" fill="#000000">mom_error_handler::</text>
<text text-anchor="middle" x="381.5" y="-51.5" font-family="Helvetica,sans-Serif" font-size="10.00" fill="#000000">mom_error</text>
</a>
</g>
</g>
<!-- Node1&#45;&gt;Node2 -->
<g id="edge1" class="edge">
<title>Node1&#45;&gt;Node2</title>
<path fill="none" stroke="#191970" d="M111.171,-41.2569C167.2134,-45.0389 253.7274,-50.8773 313.7282,-54.9264"/>
<polygon fill="#191970" stroke="#191970" points="313.6513,-58.4291 323.8643,-55.6105 314.1227,-51.445 313.6513,-58.4291"/>
</g>
<!-- Node4 -->
<g id="node4" class="node">
<title>Node4</title>
<g id="a_node4"><a xlink:href="namespacemom__restart.html#aa4e2dbb538be7a86468409131316da96" target="_top" xlink:title="open_restart_units determines the number of existing restart files and optionally opens them and retu...">
<polygon fill="#ffffff" stroke="#000000" points="147,-.5 147,-30.5 288,-30.5 288,-.5 147,-.5"/>
<text text-anchor="start" x="155" y="-18.5" font-family="Helvetica,sans-Serif" font-size="10.00" fill="#000000">mom_restart::open_restart</text>
<text text-anchor="middle" x="217.5" y="-7.5" font-family="Helvetica,sans-Serif" font-size="10.00" fill="#000000">_units</text>
</a>
</g>
</g>
<!-- Node1&#45;&gt;Node4 -->
<g id="edge3" class="edge">
<title>Node1&#45;&gt;Node4</title>
<path fill="none" stroke="#191970" d="M111.2512,-29.9288C119.4742,-28.8122 128.0828,-27.6431 136.6887,-26.4744"/>
<polygon fill="#191970" stroke="#191970" points="137.3286,-29.9197 146.7666,-25.1058 136.3866,-22.9834 137.3286,-29.9197"/>
</g>
<!-- Node3 -->
<g id="node3" class="node">
<title>Node3</title>
<g id="a_node3"><a xlink:href="namespacemom__error__handler.html#ad5f00a53059c72fe2332d1436c80ca71" target="_top" xlink:title="This returns .true. if the current PE is the root PE.">
<polygon fill="#ffffff" stroke="#000000" points="475,-22.5 475,-52.5 590,-52.5 590,-22.5 475,-22.5"/>
<text text-anchor="start" x="483" y="-40.5" font-family="Helvetica,sans-Serif" font-size="10.00" fill="#000000">mom_error_handler::</text>
<text text-anchor="middle" x="532.5" y="-29.5" font-family="Helvetica,sans-Serif" font-size="10.00" fill="#000000">is_root_pe</text>
</a>
</g>
</g>
<!-- Node2&#45;&gt;Node3 -->
<g id="edge2" class="edge">
<title>Node2&#45;&gt;Node3</title>
<path fill="none" stroke="#191970" d="M439.0174,-51.12C447.4639,-49.8894 456.2292,-48.6123 464.8561,-47.3554"/>
<polygon fill="#191970" stroke="#191970" points="465.5016,-50.7984 474.8925,-45.8931 464.4924,-43.8715 465.5016,-50.7984"/>
</g>
<!-- Node4&#45;&gt;Node2 -->
<g id="edge5" class="edge">
<title>Node4&#45;&gt;Node2</title>
<path fill="none" stroke="#191970" d="M273.4808,-30.5192C286.9958,-34.1452 301.5629,-38.0534 315.4897,-41.7899"/>
<polygon fill="#191970" stroke="#191970" points="314.9278,-45.2629 325.4932,-44.4738 316.7418,-38.502 314.9278,-45.2629"/>
</g>
<!-- Node4&#45;&gt;Node3 -->
<g id="edge4" class="edge">
<title>Node4&#45;&gt;Node3</title>
<path fill="none" stroke="#191970" d="M288.1921,-20.4372C340.9941,-24.125 412.7259,-29.1348 464.7951,-32.7714"/>
<polygon fill="#191970" stroke="#191970" points="464.7157,-36.2743 474.9353,-33.4796 465.2035,-29.2913 464.7157,-36.2743"/>
</g>
</g>
</svg>
