<?xml version="1.0" encoding="UTF-8" standalone="no"?>
<!DOCTYPE svg PUBLIC "-//W3C//DTD SVG 1.1//EN"
 "http://www.w3.org/Graphics/SVG/1.1/DTD/svg11.dtd">
<!-- Generated by graphviz version 2.40.1 (20161225.0304)
 -->
<!-- Title: regrid_edge_slopes::edge_slopes_implicit_h5 Pages: 1 -->
<svg width="576pt" height="137pt"
 viewBox="0.00 0.00 576.00 137.00" xmlns="http://www.w3.org/2000/svg" xmlns:xlink="http://www.w3.org/1999/xlink">
<g id="graph0" class="graph" transform="scale(1 1) rotate(0) translate(4 133)">
<title>regrid_edge_slopes::edge_slopes_implicit_h5</title>
<polygon fill="#ffffff" stroke="transparent" points="-4,4 -4,-133 572,-133 572,4 -4,4"/>
<!-- Node1 -->
<g id="node1" class="node">
<title>Node1</title>
<g id="a_node1"><a xlink:title="Compute ih5 edge values (implicit fifth order accurate)">
<polygon fill="#bfbfbf" stroke="#000000" points="0,-49.5 0,-79.5 129,-79.5 129,-49.5 0,-49.5"/>
<text text-anchor="start" x="8" y="-67.5" font-family="Helvetica,sans-Serif" font-size="10.00" fill="#000000">regrid_edge_slopes</text>
<text text-anchor="middle" x="64.5" y="-56.5" font-family="Helvetica,sans-Serif" font-size="10.00" fill="#000000">::edge_slopes_implicit_h5</text>
</a>
</g>
</g>
<!-- Node2 -->
<g id="node2" class="node">
<title>Node2</title>
<g id="a_node2"><a xlink:href="namespacepolynomial__functions.html#adb2b5d18db527314545e8e21638a2872" target="_top" xlink:title="Pointwise evaluation of a polynomial at x.">
<polygon fill="#ffffff" stroke="#000000" points="165,-98.5 165,-128.5 284,-128.5 284,-98.5 165,-98.5"/>
<text text-anchor="start" x="173" y="-116.5" font-family="Helvetica,sans-Serif" font-size="10.00" fill="#000000">polynomial_functions</text>
<text text-anchor="middle" x="224.5" y="-105.5" font-family="Helvetica,sans-Serif" font-size="10.00" fill="#000000">::evaluation_polynomial</text>
</a>
</g>
</g>
<!-- Node1&#45;&gt;Node2 -->
<g id="edge1" class="edge">
<title>Node1&#45;&gt;Node2</title>
<path fill="none" stroke="#191970" d="M113.8108,-79.6014C130.1598,-84.6083 148.5243,-90.2324 165.5252,-95.439"/>
<polygon fill="#191970" stroke="#191970" points="164.7654,-98.8667 175.352,-98.4484 166.8152,-92.1735 164.7654,-98.8667"/>
</g>
<!-- Node3 -->
<g id="node3" class="node">
<title>Node3</title>
<g id="a_node3"><a xlink:href="namespaceregrid__solvers.html#a8130a338b59de62b00f68da4204568ad" target="_top" xlink:title="Solve the linear system AX = B by Gaussian elimination.">
<polygon fill="#ffffff" stroke="#000000" points="171,-49.5 171,-79.5 278,-79.5 278,-49.5 171,-49.5"/>
<text text-anchor="start" x="179" y="-67.5" font-family="Helvetica,sans-Serif" font-size="10.00" fill="#000000">regrid_solvers::solve</text>
<text text-anchor="middle" x="224.5" y="-56.5" font-family="Helvetica,sans-Serif" font-size="10.00" fill="#000000">_linear_system</text>
</a>
</g>
</g>
<!-- Node1&#45;&gt;Node3 -->
<g id="edge2" class="edge">
<title>Node1&#45;&gt;Node3</title>
<path fill="none" stroke="#191970" d="M129.1169,-64.5C139.5246,-64.5 150.2932,-64.5 160.6818,-64.5"/>
<polygon fill="#191970" stroke="#191970" points="160.9164,-68.0001 170.9164,-64.5 160.9164,-61.0001 160.9164,-68.0001"/>
</g>
<!-- Node6 -->
<g id="node6" class="node">
<title>Node6</title>
<g id="a_node6"><a xlink:href="namespaceregrid__solvers.html#a0d5c3cff8f31429b0a2c6d267e8b345d" target="_top" xlink:title="Solve the tridiagonal system AX = B.">
<polygon fill="#ffffff" stroke="#000000" points="171,-.5 171,-30.5 278,-30.5 278,-.5 171,-.5"/>
<text text-anchor="start" x="179" y="-18.5" font-family="Helvetica,sans-Serif" font-size="10.00" fill="#000000">regrid_solvers::solve</text>
<text text-anchor="middle" x="224.5" y="-7.5" font-family="Helvetica,sans-Serif" font-size="10.00" fill="#000000">_tridiagonal_system</text>
</a>
</g>
</g>
<!-- Node1&#45;&gt;Node6 -->
<g id="edge5" class="edge">
<title>Node1&#45;&gt;Node6</title>
<path fill="none" stroke="#191970" d="M113.8108,-49.3986C130.1598,-44.3917 148.5243,-38.7676 165.5252,-33.561"/>
<polygon fill="#191970" stroke="#191970" points="166.8152,-36.8265 175.352,-30.5516 164.7654,-30.1333 166.8152,-36.8265"/>
</g>
<!-- Node4 -->
<g id="node4" class="node">
<title>Node4</title>
<g id="a_node4"><a xlink:href="namespacemom__error__handler.html#a460cfb79a06c29fc249952c2a3710d67" target="_top" xlink:title="This provides a convenient interface for writing an mpp_error message with run&#45;time filter based on a...">
<polygon fill="#ffffff" stroke="#000000" points="320,-49.5 320,-79.5 426,-79.5 426,-49.5 320,-49.5"/>
<text text-anchor="start" x="328" y="-67.5" font-family="Helvetica,sans-Serif" font-size="10.00" fill="#000000">mom_error_handler::</text>
<text text-anchor="middle" x="373" y="-56.5" font-family="Helvetica,sans-Serif" font-size="10.00" fill="#000000">mom_error</text>
</a>
</g>
</g>
<!-- Node3&#45;&gt;Node4 -->
<g id="edge3" class="edge">
<title>Node3&#45;&gt;Node4</title>
<path fill="none" stroke="#191970" d="M278.1119,-64.5C288.437,-64.5 299.3404,-64.5 309.9331,-64.5"/>
<polygon fill="#191970" stroke="#191970" points="309.9647,-68.0001 319.9647,-64.5 309.9646,-61.0001 309.9647,-68.0001"/>
</g>
<!-- Node5 -->
<g id="node5" class="node">
<title>Node5</title>
<g id="a_node5"><a xlink:href="namespacemom__error__handler.html#ad5f00a53059c72fe2332d1436c80ca71" target="_top" xlink:title="This returns .true. if the current PE is the root PE.">
<polygon fill="#ffffff" stroke="#000000" points="462,-49.5 462,-79.5 568,-79.5 568,-49.5 462,-49.5"/>
<text text-anchor="start" x="470" y="-67.5" font-family="Helvetica,sans-Serif" font-size="10.00" fill="#000000">mom_error_handler::</text>
<text text-anchor="middle" x="515" y="-56.5" font-family="Helvetica,sans-Serif" font-size="10.00" fill="#000000">is_root_pe</text>
</a>
</g>
</g>
<!-- Node4&#45;&gt;Node5 -->
<g id="edge4" class="edge">
<title>Node4&#45;&gt;Node5</title>
<path fill="none" stroke="#191970" d="M426.2796,-64.5C434.56,-64.5 443.184,-64.5 451.6606,-64.5"/>
<polygon fill="#191970" stroke="#191970" points="451.8941,-68.0001 461.8941,-64.5 451.8941,-61.0001 451.8941,-68.0001"/>
</g>
</g>
</svg>
