<?xml version="1.0" encoding="UTF-8" standalone="no"?>
<!DOCTYPE svg PUBLIC "-//W3C//DTD SVG 1.1//EN"
 "http://www.w3.org/Graphics/SVG/1.1/DTD/svg11.dtd">
<!-- Generated by graphviz version 2.40.1 (20161225.0304)
 -->
<!-- Title: mom_kappa_shear::kappa_shear_is_used Pages: 1 -->
<svg width="581pt" height="176pt"
 viewBox="0.00 0.00 581.00 176.00" xmlns="http://www.w3.org/2000/svg" xmlns:xlink="http://www.w3.org/1999/xlink">
<g id="graph0" class="graph" transform="scale(1 1) rotate(0) translate(4 172)">
<title>mom_kappa_shear::kappa_shear_is_used</title>
<polygon fill="#ffffff" stroke="transparent" points="-4,4 -4,-172 577,-172 577,4 -4,4"/>
<!-- Node1 -->
<g id="node1" class="node">
<title>Node1</title>
<g id="a_node1"><a xlink:title="This function indicates to other modules whether the Jackson et al shear mixing parameterization will...">
<polygon fill="#bfbfbf" stroke="#000000" points="432,-66.5 432,-96.5 573,-96.5 573,-66.5 432,-66.5"/>
<text text-anchor="start" x="440" y="-84.5" font-family="Helvetica,sans-Serif" font-size="10.00" fill="#000000">mom_kappa_shear::kappa</text>
<text text-anchor="middle" x="502.5" y="-73.5" font-family="Helvetica,sans-Serif" font-size="10.00" fill="#000000">_shear_is_used</text>
</a>
</g>
</g>
<!-- Node2 -->
<g id="node2" class="node">
<title>Node2</title>
<g id="a_node2"><a xlink:href="namespacemom__cvmix__shear.html#aec86faeb6ba106f8c9584dd3b6368a41" target="_top" xlink:title="Initialized the CVMix internal shear mixing routine.">
<polygon fill="#ffffff" stroke="#000000" points="255.5,-137.5 255.5,-167.5 390.5,-167.5 390.5,-137.5 255.5,-137.5"/>
<text text-anchor="start" x="263.5" y="-155.5" font-family="Helvetica,sans-Serif" font-size="10.00" fill="#000000">mom_cvmix_shear::cvmix</text>
<text text-anchor="middle" x="323" y="-144.5" font-family="Helvetica,sans-Serif" font-size="10.00" fill="#000000">_shear_init</text>
</a>
</g>
</g>
<!-- Node1&#45;&gt;Node2 -->
<g id="edge1" class="edge">
<title>Node1&#45;&gt;Node2</title>
<path fill="none" stroke="#191970" d="M461.4278,-100.7515C441.8107,-109.6555 417.8886,-120.0952 396,-128.5 388.0292,-131.5606 379.4813,-134.591 371.143,-137.4148"/>
<polygon fill="#191970" stroke="#191970" points="463.0451,-103.8606 470.6844,-96.5194 460.1345,-97.4944 463.0451,-103.8606"/>
</g>
<!-- Node3 -->
<g id="node3" class="node">
<title>Node3</title>
<g id="a_node3"><a xlink:href="namespacemom__diabatic__driver.html#a51d273bae7e5d2217fa5498620532888" target="_top" xlink:title="This routine initializes the diabatic driver module.">
<polygon fill="#ffffff" stroke="#000000" points="266,-88.5 266,-118.5 380,-118.5 380,-88.5 266,-88.5"/>
<text text-anchor="start" x="274" y="-106.5" font-family="Helvetica,sans-Serif" font-size="10.00" fill="#000000">mom_diabatic_driver</text>
<text text-anchor="middle" x="323" y="-95.5" font-family="Helvetica,sans-Serif" font-size="10.00" fill="#000000">::diabatic_driver_init</text>
</a>
</g>
</g>
<!-- Node1&#45;&gt;Node3 -->
<g id="edge2" class="edge">
<title>Node1&#45;&gt;Node3</title>
<path fill="none" stroke="#191970" d="M421.6629,-91.4076C407.6228,-93.1284 393.2888,-94.8852 380.0536,-96.5074"/>
<polygon fill="#191970" stroke="#191970" points="422.3146,-94.854 431.8145,-90.1634 421.463,-87.906 422.3146,-94.854"/>
</g>
<!-- Node4 -->
<g id="node4" class="node">
<title>Node4</title>
<g id="a_node4"><a xlink:href="namespacemom__set__visc.html#a2ec9be1a61c7d4a062aab4ff03e3ca29" target="_top" xlink:title="Initializes the MOM_set_visc control structure.">
<polygon fill="#ffffff" stroke="#000000" points="250,-50 250,-69 396,-69 396,-50 250,-50"/>
<text text-anchor="middle" x="323" y="-57" font-family="Helvetica,sans-Serif" font-size="10.00" fill="#000000">mom_set_visc::set_visc_init</text>
</a>
</g>
</g>
<!-- Node1&#45;&gt;Node4 -->
<g id="edge3" class="edge">
<title>Node1&#45;&gt;Node4</title>
<path fill="none" stroke="#191970" d="M421.8756,-71.6185C413.3497,-70.5735 404.7128,-69.5149 396.277,-68.481"/>
<polygon fill="#191970" stroke="#191970" points="421.463,-75.094 431.8145,-72.8366 422.3146,-68.146 421.463,-75.094"/>
</g>
<!-- Node5 -->
<g id="node5" class="node">
<title>Node5</title>
<g id="a_node5"><a xlink:href="namespacemom__set__visc.html#ae2d9d9f74c1e9aec56257cfad372b0fd" target="_top" xlink:title="Register any fields associated with the vertvisc_type.">
<polygon fill="#ffffff" stroke="#000000" points="260,-.5 260,-30.5 386,-30.5 386,-.5 260,-.5"/>
<text text-anchor="start" x="268" y="-18.5" font-family="Helvetica,sans-Serif" font-size="10.00" fill="#000000">mom_set_visc::set_visc</text>
<text text-anchor="middle" x="323" y="-7.5" font-family="Helvetica,sans-Serif" font-size="10.00" fill="#000000">_register_restarts</text>
</a>
</g>
</g>
<!-- Node1&#45;&gt;Node5 -->
<g id="edge4" class="edge">
<title>Node1&#45;&gt;Node5</title>
<path fill="none" stroke="#191970" d="M454.6189,-62.6277C436.3334,-55.5362 415.2556,-47.5009 396,-40.5 386.9353,-37.2043 377.195,-33.7849 367.8763,-30.572"/>
<polygon fill="#191970" stroke="#191970" points="453.5919,-65.9837 464.1805,-66.3483 456.1304,-59.4602 453.5919,-65.9837"/>
</g>
<!-- Node6 -->
<g id="node6" class="node">
<title>Node6</title>
<g id="a_node6"><a xlink:href="namespacemom.html#a96708b16215666edbfa5b46228f3a200" target="_top" xlink:title="Initialize MOM, including memory allocation, setting up parameters and diagnostics,...">
<polygon fill="#ffffff" stroke="#000000" points="104,-6 104,-25 214,-25 214,-6 104,-6"/>
<text text-anchor="middle" x="159" y="-13" font-family="Helvetica,sans-Serif" font-size="10.00" fill="#000000">mom::initialize_mom</text>
</a>
</g>
</g>
<!-- Node5&#45;&gt;Node6 -->
<g id="edge5" class="edge">
<title>Node5&#45;&gt;Node6</title>
<path fill="none" stroke="#191970" d="M249.3141,-15.5C237.5208,-15.5 225.4958,-15.5 214.2282,-15.5"/>
<polygon fill="#191970" stroke="#191970" points="249.5934,-19.0001 259.5933,-15.5 249.5933,-12.0001 249.5934,-19.0001"/>
</g>
<!-- Node7 -->
<g id="node7" class="node">
<title>Node7</title>
<g id="a_node7"><a xlink:href="MOM__driver_8F90.html#a08fffeb2d8e8acbf9ed4609be6d258c6" target="_top" xlink:title=" ">
<polygon fill="#ffffff" stroke="#000000" points="0,-6 0,-25 68,-25 68,-6 0,-6"/>
<text text-anchor="middle" x="34" y="-13" font-family="Helvetica,sans-Serif" font-size="10.00" fill="#000000">mom_main</text>
</a>
</g>
</g>
<!-- Node6&#45;&gt;Node7 -->
<g id="edge6" class="edge">
<title>Node6&#45;&gt;Node7</title>
<path fill="none" stroke="#191970" d="M93.7848,-15.5C84.8995,-15.5 76.0876,-15.5 68.0691,-15.5"/>
<polygon fill="#191970" stroke="#191970" points="93.8094,-19.0001 103.8093,-15.5 93.8093,-12.0001 93.8094,-19.0001"/>
</g>
</g>
</svg>
