<?xml version="1.0" encoding="UTF-8" standalone="no"?>
<!DOCTYPE svg PUBLIC "-//W3C//DTD SVG 1.1//EN"
 "http://www.w3.org/Graphics/SVG/1.1/DTD/svg11.dtd">
<!-- Generated by graphviz version 2.40.1 (20161225.0304)
 -->
<!-- Title: mom_eos::int_specific_vol_dp Pages: 1 -->
<svg width="563pt" height="127pt"
 viewBox="0.00 0.00 563.00 127.00" xmlns="http://www.w3.org/2000/svg" xmlns:xlink="http://www.w3.org/1999/xlink">
<g id="graph0" class="graph" transform="scale(1 1) rotate(0) translate(4 123)">
<title>mom_eos::int_specific_vol_dp</title>
<polygon fill="#ffffff" stroke="transparent" points="-4,4 -4,-123 559,-123 559,4 -4,4"/>
<!-- Node1 -->
<g id="node1" class="node">
<title>Node1</title>
<g id="a_node1"><a xlink:title="Calls the appropriate subroutine to alculate analytical and nearly&#45;analytical integrals in pressure a...">
<polygon fill="#bfbfbf" stroke="#000000" points="0,-44.5 0,-74.5 115,-74.5 115,-44.5 0,-44.5"/>
<text text-anchor="start" x="8" y="-62.5" font-family="Helvetica,sans-Serif" font-size="10.00" fill="#000000">mom_eos::int_specific</text>
<text text-anchor="middle" x="57.5" y="-51.5" font-family="Helvetica,sans-Serif" font-size="10.00" fill="#000000">_vol_dp</text>
</a>
</g>
</g>
<!-- Node2 -->
<g id="node2" class="node">
<title>Node2</title>
<g id="a_node2"><a xlink:href="namespacemom__eos.html#a4f39721f1e17a9a94c5eba3e8fcf0fa3" target="_top" xlink:title="This subroutine calculates integrals of specific volume anomalies in pressure across layers,...">
<polygon fill="#ffffff" stroke="#000000" points="151,-88.5 151,-118.5 271,-118.5 271,-88.5 151,-88.5"/>
<text text-anchor="start" x="159" y="-106.5" font-family="Helvetica,sans-Serif" font-size="10.00" fill="#000000">mom_eos::int_spec_vol</text>
<text text-anchor="middle" x="211" y="-95.5" font-family="Helvetica,sans-Serif" font-size="10.00" fill="#000000">_dp_generic</text>
</a>
</g>
</g>
<!-- Node1&#45;&gt;Node2 -->
<g id="edge1" class="edge">
<title>Node1&#45;&gt;Node2</title>
<path fill="none" stroke="#191970" d="M109.8967,-74.5192C122.4236,-78.11 135.9161,-81.9776 148.8361,-85.681"/>
<polygon fill="#191970" stroke="#191970" points="148.0017,-89.0827 158.579,-88.4738 149.9306,-82.3537 148.0017,-89.0827"/>
</g>
<!-- Node3 -->
<g id="node3" class="node">
<title>Node3</title>
<g id="a_node3"><a xlink:href="namespacemom__error__handler.html#a460cfb79a06c29fc249952c2a3710d67" target="_top" xlink:title="This provides a convenient interface for writing an mpp_error message with run&#45;time filter based on a...">
<polygon fill="#ffffff" stroke="#000000" points="307,-66.5 307,-96.5 413,-96.5 413,-66.5 307,-66.5"/>
<text text-anchor="start" x="315" y="-84.5" font-family="Helvetica,sans-Serif" font-size="10.00" fill="#000000">mom_error_handler::</text>
<text text-anchor="middle" x="360" y="-73.5" font-family="Helvetica,sans-Serif" font-size="10.00" fill="#000000">mom_error</text>
</a>
</g>
</g>
<!-- Node1&#45;&gt;Node3 -->
<g id="edge5" class="edge">
<title>Node1&#45;&gt;Node3</title>
<path fill="none" stroke="#191970" d="M115.11,-63.6898C166.9655,-67.4611 243.0313,-72.9932 296.5975,-76.8889"/>
<polygon fill="#191970" stroke="#191970" points="296.434,-80.3862 306.6615,-77.6208 296.9418,-73.4046 296.434,-80.3862"/>
</g>
<!-- Node5 -->
<g id="node5" class="node">
<title>Node5</title>
<g id="a_node5"><a xlink:href="namespacemom__eos__linear.html#ac9a31e315e6cb02f8f270de7c877f688" target="_top" xlink:title="Calculates analytical and nearly&#45;analytical integrals in pressure across layers of geopotential anoma...">
<polygon fill="#ffffff" stroke="#000000" points="158.5,-.5 158.5,-30.5 263.5,-30.5 263.5,-.5 158.5,-.5"/>
<text text-anchor="start" x="166.5" y="-18.5" font-family="Helvetica,sans-Serif" font-size="10.00" fill="#000000">mom_eos_linear::int</text>
<text text-anchor="middle" x="211" y="-7.5" font-family="Helvetica,sans-Serif" font-size="10.00" fill="#000000">_spec_vol_dp_linear</text>
</a>
</g>
</g>
<!-- Node1&#45;&gt;Node5 -->
<g id="edge4" class="edge">
<title>Node1&#45;&gt;Node5</title>
<path fill="none" stroke="#191970" d="M109.8967,-44.4808C122.4236,-40.89 135.9161,-37.0224 148.8361,-33.319"/>
<polygon fill="#191970" stroke="#191970" points="149.9306,-36.6463 158.579,-30.5262 148.0017,-29.9173 149.9306,-36.6463"/>
</g>
<!-- Node2&#45;&gt;Node3 -->
<g id="edge2" class="edge">
<title>Node2&#45;&gt;Node3</title>
<path fill="none" stroke="#191970" d="M271.1745,-94.6152C279.5579,-93.3774 288.1929,-92.1024 296.6328,-90.8562"/>
<polygon fill="#191970" stroke="#191970" points="297.4194,-94.2781 306.8009,-89.3549 296.3969,-87.3532 297.4194,-94.2781"/>
</g>
<!-- Node4 -->
<g id="node4" class="node">
<title>Node4</title>
<g id="a_node4"><a xlink:href="namespacemom__error__handler.html#ad5f00a53059c72fe2332d1436c80ca71" target="_top" xlink:title="This returns .true. if the current PE is the root PE.">
<polygon fill="#ffffff" stroke="#000000" points="449,-66.5 449,-96.5 555,-96.5 555,-66.5 449,-66.5"/>
<text text-anchor="start" x="457" y="-84.5" font-family="Helvetica,sans-Serif" font-size="10.00" fill="#000000">mom_error_handler::</text>
<text text-anchor="middle" x="502" y="-73.5" font-family="Helvetica,sans-Serif" font-size="10.00" fill="#000000">is_root_pe</text>
</a>
</g>
</g>
<!-- Node3&#45;&gt;Node4 -->
<g id="edge3" class="edge">
<title>Node3&#45;&gt;Node4</title>
<path fill="none" stroke="#191970" d="M413.2796,-81.5C421.56,-81.5 430.184,-81.5 438.6606,-81.5"/>
<polygon fill="#191970" stroke="#191970" points="438.8941,-85.0001 448.8941,-81.5 438.8941,-78.0001 438.8941,-85.0001"/>
</g>
</g>
</svg>
