<?xml version="1.0" encoding="UTF-8" standalone="no"?>
<!DOCTYPE svg PUBLIC "-//W3C//DTD SVG 1.1//EN"
 "http://www.w3.org/Graphics/SVG/1.1/DTD/svg11.dtd">
<!-- Generated by graphviz version 2.40.1 (20161225.0304)
 -->
<!-- Title: rossby_front_2d_initialization::rossby_front_initialize_thickness Pages: 1 -->
<svg width="563pt" height="132pt"
 viewBox="0.00 0.00 563.00 132.00" xmlns="http://www.w3.org/2000/svg" xmlns:xlink="http://www.w3.org/1999/xlink">
<g id="graph0" class="graph" transform="scale(1 1) rotate(0) translate(4 128)">
<title>rossby_front_2d_initialization::rossby_front_initialize_thickness</title>
<polygon fill="#ffffff" stroke="transparent" points="-4,4 -4,-128 559,-128 559,4 -4,4"/>
<!-- Node1 -->
<g id="node1" class="node">
<title>Node1</title>
<g id="a_node1"><a xlink:title="Initialization of thicknesses in 2D Rossby front test.">
<polygon fill="#bfbfbf" stroke="#000000" points="0,-44 0,-85 154,-85 154,-44 0,-44"/>
<text text-anchor="start" x="8" y="-73" font-family="Helvetica,sans-Serif" font-size="10.00" fill="#000000">rossby_front_2d_initialization</text>
<text text-anchor="start" x="8" y="-62" font-family="Helvetica,sans-Serif" font-size="10.00" fill="#000000">::rossby_front_initialize</text>
<text text-anchor="middle" x="77" y="-51" font-family="Helvetica,sans-Serif" font-size="10.00" fill="#000000">_thickness</text>
</a>
</g>
</g>
<!-- Node2 -->
<g id="node2" class="node">
<title>Node2</title>
<g id="a_node2"><a xlink:href="namespacerossby__front__2d__initialization.html#aa10adb0378184432ecaa78eb339c6c5a" target="_top" xlink:title="Analytic prescription of mixed layer depth in 2d Rossby front test, in the same units as Gmax_depth.">
<polygon fill="#ffffff" stroke="#000000" points="190,-99 190,-118 365,-118 365,-99 190,-99"/>
<text text-anchor="middle" x="277.5" y="-106" font-family="Helvetica,sans-Serif" font-size="10.00" fill="#000000">rossby_front_2d_initialization::hml</text>
</a>
</g>
</g>
<!-- Node1&#45;&gt;Node2 -->
<g id="edge1" class="edge">
<title>Node1&#45;&gt;Node2</title>
<path fill="none" stroke="#191970" d="M154.1887,-81.6193C166.1761,-84.2657 178.4204,-86.9619 190,-89.5 200.8118,-91.8698 212.3784,-94.3913 223.4433,-96.7966"/>
<polygon fill="#191970" stroke="#191970" points="222.913,-100.2629 233.428,-98.9652 224.3988,-93.4224 222.913,-100.2629"/>
</g>
<!-- Node4 -->
<g id="node4" class="node">
<title>Node4</title>
<g id="a_node4"><a xlink:href="namespacemom__error__handler.html#a460cfb79a06c29fc249952c2a3710d67" target="_top" xlink:title="This provides a convenient interface for writing an mpp_error message with run&#45;time filter based on a...">
<polygon fill="#ffffff" stroke="#000000" points="220,-49.5 220,-79.5 335,-79.5 335,-49.5 220,-49.5"/>
<text text-anchor="start" x="228" y="-67.5" font-family="Helvetica,sans-Serif" font-size="10.00" fill="#000000">mom_error_handler::</text>
<text text-anchor="middle" x="277.5" y="-56.5" font-family="Helvetica,sans-Serif" font-size="10.00" fill="#000000">mom_error</text>
</a>
</g>
</g>
<!-- Node1&#45;&gt;Node4 -->
<g id="edge3" class="edge">
<title>Node1&#45;&gt;Node4</title>
<path fill="none" stroke="#191970" d="M154.2317,-64.5C172.4907,-64.5 191.8266,-64.5 209.635,-64.5"/>
<polygon fill="#191970" stroke="#191970" points="209.9241,-68.0001 219.9241,-64.5 209.9241,-61.0001 209.9241,-68.0001"/>
</g>
<!-- Node6 -->
<g id="node6" class="node">
<title>Node6</title>
<g id="a_node6"><a xlink:href="namespacemom__error__handler.html#a1c462df7b61f1296407b4af51dfeceab" target="_top" xlink:title="This provides a convenient interface for writing an informative comment.">
<polygon fill="#ffffff" stroke="#000000" points="220,-.5 220,-30.5 335,-30.5 335,-.5 220,-.5"/>
<text text-anchor="start" x="228" y="-18.5" font-family="Helvetica,sans-Serif" font-size="10.00" fill="#000000">mom_error_handler::</text>
<text text-anchor="middle" x="277.5" y="-7.5" font-family="Helvetica,sans-Serif" font-size="10.00" fill="#000000">mom_mesg</text>
</a>
</g>
</g>
<!-- Node1&#45;&gt;Node6 -->
<g id="edge5" class="edge">
<title>Node1&#45;&gt;Node6</title>
<path fill="none" stroke="#191970" d="M154.2317,-45.6254C172.6614,-41.1214 192.1881,-36.3493 210.1339,-31.9635"/>
<polygon fill="#191970" stroke="#191970" points="211.0409,-35.345 219.9241,-29.5709 209.379,-28.5451 211.0409,-35.345"/>
</g>
<!-- Node3 -->
<g id="node3" class="node">
<title>Node3</title>
<g id="a_node3"><a xlink:href="namespacerossby__front__2d__initialization.html#a15a0b752df24fbae7deabe844a418239" target="_top" xlink:title="Pseudo coordinate across domain used by Hml() and dTdy() returns a coordinate from &#45;PI/2 ....">
<polygon fill="#ffffff" stroke="#000000" points="401,-93.5 401,-123.5 555,-123.5 555,-93.5 401,-93.5"/>
<text text-anchor="start" x="409" y="-111.5" font-family="Helvetica,sans-Serif" font-size="10.00" fill="#000000">rossby_front_2d_initialization</text>
<text text-anchor="middle" x="478" y="-100.5" font-family="Helvetica,sans-Serif" font-size="10.00" fill="#000000">::ypseudo</text>
</a>
</g>
</g>
<!-- Node2&#45;&gt;Node3 -->
<g id="edge2" class="edge">
<title>Node2&#45;&gt;Node3</title>
<path fill="none" stroke="#191970" d="M365.1505,-108.5C373.6159,-108.5 382.203,-108.5 390.6652,-108.5"/>
<polygon fill="#191970" stroke="#191970" points="390.9088,-112.0001 400.9088,-108.5 390.9088,-105.0001 390.9088,-112.0001"/>
</g>
<!-- Node5 -->
<g id="node5" class="node">
<title>Node5</title>
<g id="a_node5"><a xlink:href="namespacemom__error__handler.html#ad5f00a53059c72fe2332d1436c80ca71" target="_top" xlink:title="This returns .true. if the current PE is the root PE.">
<polygon fill="#ffffff" stroke="#000000" points="420.5,-22.5 420.5,-52.5 535.5,-52.5 535.5,-22.5 420.5,-22.5"/>
<text text-anchor="start" x="428.5" y="-40.5" font-family="Helvetica,sans-Serif" font-size="10.00" fill="#000000">mom_error_handler::</text>
<text text-anchor="middle" x="478" y="-29.5" font-family="Helvetica,sans-Serif" font-size="10.00" fill="#000000">is_root_pe</text>
</a>
</g>
</g>
<!-- Node4&#45;&gt;Node5 -->
<g id="edge4" class="edge">
<title>Node4&#45;&gt;Node5</title>
<path fill="none" stroke="#191970" d="M335.2239,-56.7267C358.6071,-53.5778 385.7794,-49.9187 410.1049,-46.643"/>
<polygon fill="#191970" stroke="#191970" points="410.893,-50.0685 420.3365,-45.2652 409.9588,-43.1311 410.893,-50.0685"/>
</g>
<!-- Node6&#45;&gt;Node5 -->
<g id="edge6" class="edge">
<title>Node6&#45;&gt;Node5</title>
<path fill="none" stroke="#191970" d="M335.2239,-21.8338C358.6071,-24.3995 385.7794,-27.381 410.1049,-30.0502"/>
<polygon fill="#191970" stroke="#191970" points="410.0143,-33.5612 420.3365,-31.1728 410.7779,-26.6029 410.0143,-33.5612"/>
</g>
</g>
</svg>
