<?xml version="1.0" encoding="UTF-8" standalone="no"?>
<!DOCTYPE svg PUBLIC "-//W3C//DTD SVG 1.1//EN"
 "http://www.w3.org/Graphics/SVG/1.1/DTD/svg11.dtd">
<!-- Generated by graphviz version 2.40.1 (20161225.0304)
 -->
<!-- Title: regrid_consts::coordinatemode Pages: 1 -->
<svg width="449pt" height="88pt"
 viewBox="0.00 0.00 449.00 88.00" xmlns="http://www.w3.org/2000/svg" xmlns:xlink="http://www.w3.org/1999/xlink">
<g id="graph0" class="graph" transform="scale(1 1) rotate(0) translate(4 84)">
<title>regrid_consts::coordinatemode</title>
<polygon fill="#ffffff" stroke="transparent" points="-4,4 -4,-84 445,-84 445,4 -4,4"/>
<!-- Node1 -->
<g id="node1" class="node">
<title>Node1</title>
<g id="a_node1"><a xlink:title="Parse a string parameter specifying the coordinate mode and return the appropriate enumerated integer...">
<polygon fill="#bfbfbf" stroke="#000000" points="0,-30 0,-49 150,-49 150,-30 0,-30"/>
<text text-anchor="middle" x="75" y="-37" font-family="Helvetica,sans-Serif" font-size="10.00" fill="#000000">regrid_consts::coordinatemode</text>
</a>
</g>
</g>
<!-- Node2 -->
<g id="node2" class="node">
<title>Node2</title>
<g id="a_node2"><a xlink:href="namespacemom__error__handler.html#a460cfb79a06c29fc249952c2a3710d67" target="_top" xlink:title="This provides a convenient interface for writing an mpp_error message with run&#45;time filter based on a...">
<polygon fill="#ffffff" stroke="#000000" points="189.5,-49.5 189.5,-79.5 295.5,-79.5 295.5,-49.5 189.5,-49.5"/>
<text text-anchor="start" x="197.5" y="-67.5" font-family="Helvetica,sans-Serif" font-size="10.00" fill="#000000">mom_error_handler::</text>
<text text-anchor="middle" x="242.5" y="-56.5" font-family="Helvetica,sans-Serif" font-size="10.00" fill="#000000">mom_error</text>
</a>
</g>
</g>
<!-- Node1&#45;&gt;Node2 -->
<g id="edge1" class="edge">
<title>Node1&#45;&gt;Node2</title>
<path fill="none" stroke="#191970" d="M138.8024,-49.0227C152.1372,-51.013 166.1883,-53.1102 179.4939,-55.0961"/>
<polygon fill="#191970" stroke="#191970" points="179.0921,-58.5748 189.4993,-56.5894 180.1255,-51.6515 179.0921,-58.5748"/>
</g>
<!-- Node4 -->
<g id="node4" class="node">
<title>Node4</title>
<g id="a_node4"><a xlink:href="namespacemom__string__functions.html#aca148baf726de2f028b7e7baad3c85d4" target="_top" xlink:title="Return a string in which all uppercase letters have been replaced by their lowercase counterparts.">
<polygon fill="#ffffff" stroke="#000000" points="186,-.5 186,-30.5 299,-30.5 299,-.5 186,-.5"/>
<text text-anchor="start" x="194" y="-18.5" font-family="Helvetica,sans-Serif" font-size="10.00" fill="#000000">mom_string_functions</text>
<text text-anchor="middle" x="242.5" y="-7.5" font-family="Helvetica,sans-Serif" font-size="10.00" fill="#000000">::uppercase</text>
</a>
</g>
</g>
<!-- Node1&#45;&gt;Node4 -->
<g id="edge3" class="edge">
<title>Node1&#45;&gt;Node4</title>
<path fill="none" stroke="#191970" d="M141.6817,-29.9456C152.8575,-28.3443 164.4568,-26.6823 175.6372,-25.0803"/>
<polygon fill="#191970" stroke="#191970" points="176.3605,-28.5125 185.7629,-23.6295 175.3676,-21.5833 176.3605,-28.5125"/>
</g>
<!-- Node3 -->
<g id="node3" class="node">
<title>Node3</title>
<g id="a_node3"><a xlink:href="namespacemom__error__handler.html#ad5f00a53059c72fe2332d1436c80ca71" target="_top" xlink:title="This returns .true. if the current PE is the root PE.">
<polygon fill="#ffffff" stroke="#000000" points="335,-49.5 335,-79.5 441,-79.5 441,-49.5 335,-49.5"/>
<text text-anchor="start" x="343" y="-67.5" font-family="Helvetica,sans-Serif" font-size="10.00" fill="#000000">mom_error_handler::</text>
<text text-anchor="middle" x="388" y="-56.5" font-family="Helvetica,sans-Serif" font-size="10.00" fill="#000000">is_root_pe</text>
</a>
</g>
</g>
<!-- Node2&#45;&gt;Node3 -->
<g id="edge2" class="edge">
<title>Node2&#45;&gt;Node3</title>
<path fill="none" stroke="#191970" d="M295.8526,-64.5C305.1442,-64.5 314.8912,-64.5 324.4246,-64.5"/>
<polygon fill="#191970" stroke="#191970" points="324.6538,-68.0001 334.6538,-64.5 324.6538,-61.0001 324.6538,-68.0001"/>
</g>
</g>
</svg>
