<?xml version="1.0" encoding="UTF-8" standalone="no"?>
<!DOCTYPE svg PUBLIC "-//W3C//DTD SVG 1.1//EN"
 "http://www.w3.org/Graphics/SVG/1.1/DTD/svg11.dtd">
<!-- Generated by graphviz version 2.40.1 (20161225.0304)
 -->
<!-- Title: mom_wave_structure::tridiag_solver Pages: 1 -->
<svg width="422pt" height="39pt"
 viewBox="0.00 0.00 422.00 39.00" xmlns="http://www.w3.org/2000/svg" xmlns:xlink="http://www.w3.org/1999/xlink">
<g id="graph0" class="graph" transform="scale(1 1) rotate(0) translate(4 35)">
<title>mom_wave_structure::tridiag_solver</title>
<polygon fill="#ffffff" stroke="transparent" points="-4,4 -4,-35 418,-35 418,4 -4,4"/>
<!-- Node1 -->
<g id="node1" class="node">
<title>Node1</title>
<g id="a_node1"><a xlink:title="Solves a tri&#45;diagonal system Ax=y using either the standard Thomas algorithm (TDMA_T) or its more sta...">
<polygon fill="#bfbfbf" stroke="#000000" points="298,-.5 298,-30.5 414,-30.5 414,-.5 298,-.5"/>
<text text-anchor="start" x="306" y="-18.5" font-family="Helvetica,sans-Serif" font-size="10.00" fill="#000000">mom_wave_structure</text>
<text text-anchor="middle" x="356" y="-7.5" font-family="Helvetica,sans-Serif" font-size="10.00" fill="#000000">::tridiag_solver</text>
</a>
</g>
</g>
<!-- Node2 -->
<g id="node2" class="node">
<title>Node2</title>
<g id="a_node2"><a xlink:href="namespacemom__wave__structure.html#a4e0b6a0e08df15fde4d87030567b6e11" target="_top" xlink:title="This subroutine determines the internal wave velocity structure for any mode.">
<polygon fill="#ffffff" stroke="#000000" points="146,-.5 146,-30.5 262,-30.5 262,-.5 146,-.5"/>
<text text-anchor="start" x="154" y="-18.5" font-family="Helvetica,sans-Serif" font-size="10.00" fill="#000000">mom_wave_structure</text>
<text text-anchor="middle" x="204" y="-7.5" font-family="Helvetica,sans-Serif" font-size="10.00" fill="#000000">::wave_structure</text>
</a>
</g>
</g>
<!-- Node1&#45;&gt;Node2 -->
<g id="edge1" class="edge">
<title>Node1&#45;&gt;Node2</title>
<path fill="none" stroke="#191970" d="M287.4577,-15.5C279.0138,-15.5 270.4459,-15.5 262.1764,-15.5"/>
<polygon fill="#191970" stroke="#191970" points="287.6676,-19.0001 297.6675,-15.5 287.6675,-12.0001 287.6676,-19.0001"/>
</g>
<!-- Node3 -->
<g id="node3" class="node">
<title>Node3</title>
<g id="a_node3"><a xlink:href="namespacemom__internal__tides.html#aeeeea20ff7fe971846b7539d377f4389" target="_top" xlink:title="Calls subroutines in this file that are needed to refract, propagate, and dissipate energy density of...">
<polygon fill="#ffffff" stroke="#000000" points="0,-.5 0,-30.5 110,-30.5 110,-.5 0,-.5"/>
<text text-anchor="start" x="8" y="-18.5" font-family="Helvetica,sans-Serif" font-size="10.00" fill="#000000">mom_internal_tides</text>
<text text-anchor="middle" x="55" y="-7.5" font-family="Helvetica,sans-Serif" font-size="10.00" fill="#000000">::propagate_int_tide</text>
</a>
</g>
</g>
<!-- Node2&#45;&gt;Node3 -->
<g id="edge2" class="edge">
<title>Node2&#45;&gt;Node3</title>
<path fill="none" stroke="#191970" d="M135.929,-15.5C127.31,-15.5 118.5753,-15.5 110.191,-15.5"/>
<polygon fill="#191970" stroke="#191970" points="135.9661,-19.0001 145.9661,-15.5 135.966,-12.0001 135.9661,-19.0001"/>
</g>
</g>
</svg>
