<?xml version="1.0" encoding="UTF-8" standalone="no"?>
<!DOCTYPE svg PUBLIC "-//W3C//DTD SVG 1.1//EN"
 "http://www.w3.org/Graphics/SVG/1.1/DTD/svg11.dtd">
<!-- Generated by graphviz version 2.40.1 (20161225.0304)
 -->
<!-- Title: mom_entrain_diffusive::determine_dskb Pages: 1 -->
<svg width="604pt" height="165pt"
 viewBox="0.00 0.00 604.00 165.00" xmlns="http://www.w3.org/2000/svg" xmlns:xlink="http://www.w3.org/1999/xlink">
<g id="graph0" class="graph" transform="scale(1 1) rotate(0) translate(4 161)">
<title>mom_entrain_diffusive::determine_dskb</title>
<polygon fill="#ffffff" stroke="transparent" points="-4,4 -4,-161 600,-161 600,4 -4,4"/>
<!-- Node1 -->
<g id="node1" class="node">
<title>Node1</title>
<g id="a_node1"><a xlink:title="This subroutine determines the reference density difference between the bottommost buffer layer and t...">
<polygon fill="#bfbfbf" stroke="#000000" points="474,-63.5 474,-93.5 596,-93.5 596,-63.5 474,-63.5"/>
<text text-anchor="start" x="482" y="-81.5" font-family="Helvetica,sans-Serif" font-size="10.00" fill="#000000">mom_entrain_diffusive</text>
<text text-anchor="middle" x="535" y="-70.5" font-family="Helvetica,sans-Serif" font-size="10.00" fill="#000000">::determine_dskb</text>
</a>
</g>
</g>
<!-- Node2 -->
<g id="node2" class="node">
<title>Node2</title>
<g id="a_node2"><a xlink:href="namespacemom__entrain__diffusive.html#a541b3aadc418110f7359b0ae401e4e78" target="_top" xlink:title="This subroutine determines the entrainment from above by the top interior layer (labeled kb elsewhere...">
<polygon fill="#ffffff" stroke="#000000" points="158,-126.5 158,-156.5 280,-156.5 280,-126.5 158,-126.5"/>
<text text-anchor="start" x="166" y="-144.5" font-family="Helvetica,sans-Serif" font-size="10.00" fill="#000000">mom_entrain_diffusive</text>
<text text-anchor="middle" x="219" y="-133.5" font-family="Helvetica,sans-Serif" font-size="10.00" fill="#000000">::determine_ea_kb</text>
</a>
</g>
</g>
<!-- Node1&#45;&gt;Node2 -->
<g id="edge1" class="edge">
<title>Node1&#45;&gt;Node2</title>
<path fill="none" stroke="#191970" d="M486.5329,-97.0246C471.1906,-102.3359 454.0469,-107.7083 438,-111.5 385.5268,-123.8987 324.6856,-131.7243 280.4672,-136.2618"/>
<polygon fill="#191970" stroke="#191970" points="488.0651,-100.1952 496.3252,-93.5603 485.7304,-93.5959 488.0651,-100.1952"/>
</g>
<!-- Node3 -->
<g id="node3" class="node">
<title>Node3</title>
<g id="a_node3"><a xlink:href="namespacemom__entrain__diffusive.html#ae68ab2fa707778de2f92ce179729f2ff" target="_top" xlink:title="This subroutine calculates ea and eb, the rates at which a layer entrains from the layers above and b...">
<polygon fill="#ffffff" stroke="#000000" points="0,-60.5 0,-90.5 122,-90.5 122,-60.5 0,-60.5"/>
<text text-anchor="start" x="8" y="-78.5" font-family="Helvetica,sans-Serif" font-size="10.00" fill="#000000">mom_entrain_diffusive</text>
<text text-anchor="middle" x="61" y="-67.5" font-family="Helvetica,sans-Serif" font-size="10.00" fill="#000000">::entrainment_diffusive</text>
</a>
</g>
</g>
<!-- Node1&#45;&gt;Node3 -->
<g id="edge3" class="edge">
<title>Node1&#45;&gt;Node3</title>
<path fill="none" stroke="#191970" d="M463.7991,-79.318C455.1085,-79.393 446.3521,-79.4569 438,-79.5 313.5564,-80.1414 282.4237,-80.8175 158,-78.5 146.3767,-78.2835 133.9723,-77.9658 122.0523,-77.6171"/>
<polygon fill="#191970" stroke="#191970" points="463.9752,-82.8166 473.9428,-79.2253 463.9112,-75.8169 463.9752,-82.8166"/>
</g>
<!-- Node4 -->
<g id="node4" class="node">
<title>Node4</title>
<g id="a_node4"><a xlink:href="namespacemom__entrain__diffusive.html#adce1b1ba57f5245f1eda57e7a254d4df" target="_top" xlink:title="Given an entrainment from below for layer kb, determine a consistent entrainment from above,...">
<polygon fill="#ffffff" stroke="#000000" points="158,-38.5 158,-68.5 280,-68.5 280,-38.5 158,-38.5"/>
<text text-anchor="start" x="166" y="-56.5" font-family="Helvetica,sans-Serif" font-size="10.00" fill="#000000">mom_entrain_diffusive</text>
<text text-anchor="middle" x="219" y="-45.5" font-family="Helvetica,sans-Serif" font-size="10.00" fill="#000000">::f_kb_to_ea_kb</text>
</a>
</g>
</g>
<!-- Node1&#45;&gt;Node4 -->
<g id="edge4" class="edge">
<title>Node1&#45;&gt;Node4</title>
<path fill="none" stroke="#191970" d="M463.6265,-72.8534C408.3614,-68.4811 332.6299,-62.4897 280.1321,-58.3364"/>
<polygon fill="#191970" stroke="#191970" points="463.4524,-76.3504 473.6973,-73.6501 464.0046,-69.3722 463.4524,-76.3504"/>
</g>
<!-- Node5 -->
<g id="node5" class="node">
<title>Node5</title>
<g id="a_node5"><a xlink:href="namespacemom__entrain__diffusive.html#ae45dbf976314c3a9e278ebcebedab109" target="_top" xlink:title="Maximize F = ent*ds_kb*I_dSkbp1 in the range min_ent &lt; ent &lt; max_ent.">
<polygon fill="#ffffff" stroke="#000000" points="316,-.5 316,-30.5 438,-30.5 438,-.5 316,-.5"/>
<text text-anchor="start" x="324" y="-18.5" font-family="Helvetica,sans-Serif" font-size="10.00" fill="#000000">mom_entrain_diffusive</text>
<text text-anchor="middle" x="377" y="-7.5" font-family="Helvetica,sans-Serif" font-size="10.00" fill="#000000">::find_maxf_kb</text>
</a>
</g>
</g>
<!-- Node1&#45;&gt;Node5 -->
<g id="edge6" class="edge">
<title>Node1&#45;&gt;Node5</title>
<path fill="none" stroke="#191970" d="M487.7942,-59.6774C464.4704,-50.3774 436.7087,-39.3079 414.8096,-30.576"/>
<polygon fill="#191970" stroke="#191970" points="486.5699,-62.9572 497.1551,-63.4099 489.1626,-56.455 486.5699,-62.9572"/>
</g>
<!-- Node2&#45;&gt;Node3 -->
<g id="edge2" class="edge">
<title>Node2&#45;&gt;Node3</title>
<path fill="none" stroke="#191970" d="M173.3913,-122.4483C149.1334,-112.3152 119.7277,-100.0318 97.0797,-90.5713"/>
<polygon fill="#191970" stroke="#191970" points="172.1752,-125.7333 182.7516,-126.3583 174.8734,-119.2742 172.1752,-125.7333"/>
</g>
<!-- Node4&#45;&gt;Node3 -->
<g id="edge5" class="edge">
<title>Node4&#45;&gt;Node3</title>
<path fill="none" stroke="#191970" d="M147.9145,-63.398C139.3268,-64.5937 130.6132,-65.807 122.185,-66.9806"/>
<polygon fill="#191970" stroke="#191970" points="148.4913,-66.8515 157.9131,-62.0058 147.5259,-59.9184 148.4913,-66.8515"/>
</g>
<!-- Node5&#45;&gt;Node3 -->
<g id="edge7" class="edge">
<title>Node5&#45;&gt;Node3</title>
<path fill="none" stroke="#191970" d="M305.418,-12.7615C262.0945,-12.8157 206.1071,-15.9471 158,-28.5 131.9263,-35.3036 104.4941,-49.3242 85.4816,-60.29"/>
<polygon fill="#191970" stroke="#191970" points="305.568,-16.262 315.5828,-12.8045 305.5977,-9.2621 305.568,-16.262"/>
</g>
<!-- Node5&#45;&gt;Node4 -->
<g id="edge8" class="edge">
<title>Node5&#45;&gt;Node4</title>
<path fill="none" stroke="#191970" d="M305.9145,-32.5965C297.3268,-34.6619 288.6132,-36.7576 280.185,-38.7846"/>
<polygon fill="#191970" stroke="#191970" points="307.0088,-35.9332 315.9131,-30.1918 305.3719,-29.1273 307.0088,-35.9332"/>
</g>
</g>
</svg>
