<?xml version="1.0" encoding="UTF-8" standalone="no"?>
<!DOCTYPE svg PUBLIC "-//W3C//DTD SVG 1.1//EN"
 "http://www.w3.org/Graphics/SVG/1.1/DTD/svg11.dtd">
<!-- Generated by graphviz version 2.40.1 (20161225.0304)
 -->
<!-- Title: mom_internal_tides::propagate_y Pages: 1 -->
<!--zoomable 186 -->
<svg id="main" version="1.1" xmlns="http://www.w3.org/2000/svg" xmlns:xlink="http://www.w3.org/1999/xlink" xml:space="preserve" onload="init(evt)">
<style type="text/css"><![CDATA[
.edge:hover path { stroke: red; }
.edge:hover polygon { stroke: red; fill: red; }
]]></style>
<script type="text/javascript"><![CDATA[
var edges = document.getElementsByTagName('g');
if (edges && edges.length) {
  for (var i=0;i<edges.length;i++) {
    if (edges[i].id.substr(0,4)=='edge') {
      edges[i].setAttribute('class','edge');
    }
  }
}
]]></script>
        <defs>
                <circle id="rim" cx="0" cy="0" r="7"/>
                <circle id="rim2" cx="0" cy="0" r="3.5"/>
                <g id="zoomPlus">
                        <use xlink:href="#rim" fill="#404040">
                                <set attributeName="fill" to="#808080" begin="zoomplus.mouseover" end="zoomplus.mouseout"/>
                        </use>
                        <path d="M-4,0h8M0,-4v8" fill="none" stroke="white" stroke-width="1.5" pointer-events="none"/>
                </g>
                <g id="zoomMin">
                        <use xlink:href="#rim" fill="#404040">
                                <set attributeName="fill" to="#808080" begin="zoomminus.mouseover" end="zoomminus.mouseout"/>
                        </use>
                        <path d="M-4,0h8" fill="none" stroke="white" stroke-width="1.5" pointer-events="none"/>
                </g>
                <g id="dirArrow">
                        <path fill="none" stroke="white" stroke-width="1.5" d="M0,-3.0v7 M-2.5,-0.5L0,-3.0L2.5,-0.5"/>
                </g>
               <g id="resetDef">
                       <use xlink:href="#rim2" fill="#404040">
                               <set attributeName="fill" to="#808080" begin="reset.mouseover" end="reset.mouseout"/>
                       </use>
               </g>
        </defs>

<script type="text/javascript">
var viewWidth = 580;
var viewHeight = 186;
var sectionId = 'dynsection-19';
</script>
<script xlink:href="svgpan.js"/>
<svg id="graph" class="graph">
<g id="viewport">
<title>mom_internal_tides::propagate_y</title>
<polygon fill="#ffffff" stroke="transparent" points="-4,4 -4,-182 576,-182 576,4 -4,4"/>
<!-- Node1 -->
<g id="node1" class="node">
<title>Node1</title>
<g id="a_node1"><a xlink:title="Propagates the internal wave energy in the logical y&#45;direction.">
<polygon fill="#bfbfbf" stroke="#000000" points="0,-73.5 0,-103.5 109,-103.5 109,-73.5 0,-73.5"/>
<text text-anchor="start" x="8" y="-91.5" font-family="Helvetica,sans-Serif" font-size="10.00" fill="#000000">mom_internal_tides</text>
<text text-anchor="middle" x="54.5" y="-80.5" font-family="Helvetica,sans-Serif" font-size="10.00" fill="#000000">::propagate_y</text>
</a>
</g>
</g>
<!-- Node2 -->
<g id="node2" class="node">
<title>Node2</title>
<g id="a_node2"><a xlink:href="namespacemom__internal__tides.html#aa1b6ca95d1076457e3b7ca32942be143" target="_top" xlink:title="Evaluates the meridional mass or volume fluxes in a layer.">
<polygon fill="#ffffff" stroke="#000000" points="153,-147.5 153,-177.5 262,-177.5 262,-147.5 153,-147.5"/>
<text text-anchor="start" x="161" y="-165.5" font-family="Helvetica,sans-Serif" font-size="10.00" fill="#000000">mom_internal_tides</text>
<text text-anchor="middle" x="207.5" y="-154.5" font-family="Helvetica,sans-Serif" font-size="10.00" fill="#000000">::merid_flux_en</text>
</a>
</g>
</g>
<!-- Node1&#45;&gt;Node2 -->
<g id="edge1" class="edge">
<title>Node1&#45;&gt;Node2</title>
<path fill="none" stroke="#191970" d="M79.757,-103.6867C97.6432,-114.1339 122.3801,-127.9697 145,-138.5 148.6304,-140.1901 152.4157,-141.8599 156.2484,-143.4844"/>
<polygon fill="#191970" stroke="#191970" points="155.2321,-146.8507 165.8119,-147.4147 157.8929,-140.3762 155.2321,-146.8507"/>
</g>
<!-- Node3 -->
<g id="node3" class="node">
<title>Node3</title>
<g id="a_node3"><a xlink:href="namespacemom__internal__tides.html#a6c3dc6d74dfd6e5b13d5f710899be278" target="_top" xlink:title="Calculates left/right edge valus for PPM reconstruction in y&#45;direction.">
<polygon fill="#ffffff" stroke="#000000" points="145,-98.5 145,-128.5 270,-128.5 270,-98.5 145,-98.5"/>
<text text-anchor="start" x="153" y="-116.5" font-family="Helvetica,sans-Serif" font-size="10.00" fill="#000000">mom_internal_tides</text>
<text text-anchor="middle" x="207.5" y="-105.5" font-family="Helvetica,sans-Serif" font-size="10.00" fill="#000000">::ppm_reconstruction_y</text>
</a>
</g>
</g>
<!-- Node1&#45;&gt;Node3 -->
<g id="edge2" class="edge">
<title>Node1&#45;&gt;Node3</title>
<path fill="none" stroke="#191970" d="M109.3044,-97.455C117.5627,-98.8044 126.1888,-100.2139 134.7521,-101.6131"/>
<polygon fill="#191970" stroke="#191970" points="134.3164,-105.0882 144.7499,-103.2467 135.4453,-98.1798 134.3164,-105.0882"/>
</g>
<!-- Node7 -->
<g id="node7" class="node">
<title>Node7</title>
<g id="a_node7"><a xlink:href="namespacemom__internal__tides.html#a6c622bfe3863b8fcea98c78104477491" target="_top" xlink:title="Reflection of the internal waves at a single frequency.">
<polygon fill="#ffffff" stroke="#000000" points="153,-49.5 153,-79.5 262,-79.5 262,-49.5 153,-49.5"/>
<text text-anchor="start" x="161" y="-67.5" font-family="Helvetica,sans-Serif" font-size="10.00" fill="#000000">mom_internal_tides</text>
<text text-anchor="middle" x="207.5" y="-56.5" font-family="Helvetica,sans-Serif" font-size="10.00" fill="#000000">::reflect</text>
</a>
</g>
</g>
<!-- Node1&#45;&gt;Node7 -->
<g id="edge6" class="edge">
<title>Node1&#45;&gt;Node7</title>
<path fill="none" stroke="#191970" d="M109.3044,-79.9032C120.1364,-78.2041 131.6012,-76.4057 142.7269,-74.6605"/>
<polygon fill="#191970" stroke="#191970" points="143.4845,-78.0845 152.8213,-73.0771 142.3997,-71.1691 143.4845,-78.0845"/>
</g>
<!-- Node8 -->
<g id="node8" class="node">
<title>Node8</title>
<g id="a_node8"><a xlink:href="namespacemom__internal__tides.html#a0a20d26531e245a26385d1c056b6a5b6" target="_top" xlink:title="Moves energy across lines of partial reflection to prevent reflection of energy that is supposed to g...">
<polygon fill="#ffffff" stroke="#000000" points="153,-.5 153,-30.5 262,-30.5 262,-.5 153,-.5"/>
<text text-anchor="start" x="161" y="-18.5" font-family="Helvetica,sans-Serif" font-size="10.00" fill="#000000">mom_internal_tides</text>
<text text-anchor="middle" x="207.5" y="-7.5" font-family="Helvetica,sans-Serif" font-size="10.00" fill="#000000">::teleport</text>
</a>
</g>
</g>
<!-- Node1&#45;&gt;Node8 -->
<g id="edge7" class="edge">
<title>Node1&#45;&gt;Node8</title>
<path fill="none" stroke="#191970" d="M81.0481,-73.4528C98.8857,-63.5839 123.0557,-50.6728 145,-40.5 149.3438,-38.4863 153.898,-36.4769 158.4839,-34.5219"/>
<polygon fill="#191970" stroke="#191970" points="160.0022,-37.681 167.8846,-30.6017 157.3079,-31.2203 160.0022,-37.681"/>
</g>
<!-- Node4 -->
<g id="node4" class="node">
<title>Node4</title>
<g id="a_node4"><a xlink:href="namespacemom__error__handler.html#a460cfb79a06c29fc249952c2a3710d67" target="_top" xlink:title="This provides a convenient interface for writing an mpp_error message with run&#45;time filter based on a...">
<polygon fill="#ffffff" stroke="#000000" points="306,-25.5 306,-55.5 421,-55.5 421,-25.5 306,-25.5"/>
<text text-anchor="start" x="314" y="-43.5" font-family="Helvetica,sans-Serif" font-size="10.00" fill="#000000">mom_error_handler::</text>
<text text-anchor="middle" x="363.5" y="-32.5" font-family="Helvetica,sans-Serif" font-size="10.00" fill="#000000">mom_error</text>
</a>
</g>
</g>
<!-- Node3&#45;&gt;Node4 -->
<g id="edge3" class="edge">
<title>Node3&#45;&gt;Node4</title>
<path fill="none" stroke="#191970" d="M248.7964,-98.4222C255.9266,-95.5975 263.2219,-92.565 270,-89.5 289.3027,-80.7715 310.237,-69.935 327.3939,-60.6739"/>
<polygon fill="#191970" stroke="#191970" points="329.3937,-63.5702 336.5025,-55.7143 326.0463,-57.4225 329.3937,-63.5702"/>
</g>
<!-- Node6 -->
<g id="node6" class="node">
<title>Node6</title>
<g id="a_node6"><a xlink:href="namespacemom__internal__tides.html#a16dd5b071e0fc87eb04c32f602c08aa5" target="_top" xlink:title="Limits the left/right edge values of the PPM reconstruction to give a reconstruction that is positive...">
<polygon fill="#ffffff" stroke="#000000" points="309,-98.5 309,-128.5 418,-128.5 418,-98.5 309,-98.5"/>
<text text-anchor="start" x="317" y="-116.5" font-family="Helvetica,sans-Serif" font-size="10.00" fill="#000000">mom_internal_tides</text>
<text text-anchor="middle" x="363.5" y="-105.5" font-family="Helvetica,sans-Serif" font-size="10.00" fill="#000000">::ppm_limit_pos</text>
</a>
</g>
</g>
<!-- Node3&#45;&gt;Node6 -->
<g id="edge5" class="edge">
<title>Node3&#45;&gt;Node6</title>
<path fill="none" stroke="#191970" d="M270.0523,-113.5C279.5144,-113.5 289.2923,-113.5 298.7988,-113.5"/>
<polygon fill="#191970" stroke="#191970" points="298.9799,-117.0001 308.9798,-113.5 298.9798,-110.0001 298.9799,-117.0001"/>
</g>
<!-- Node5 -->
<g id="node5" class="node">
<title>Node5</title>
<g id="a_node5"><a xlink:href="namespacemom__error__handler.html#ad5f00a53059c72fe2332d1436c80ca71" target="_top" xlink:title="This returns .true. if the current PE is the root PE.">
<polygon fill="#ffffff" stroke="#000000" points="457,-25.5 457,-55.5 572,-55.5 572,-25.5 457,-25.5"/>
<text text-anchor="start" x="465" y="-43.5" font-family="Helvetica,sans-Serif" font-size="10.00" fill="#000000">mom_error_handler::</text>
<text text-anchor="middle" x="514.5" y="-32.5" font-family="Helvetica,sans-Serif" font-size="10.00" fill="#000000">is_root_pe</text>
</a>
</g>
</g>
<!-- Node4&#45;&gt;Node5 -->
<g id="edge4" class="edge">
<title>Node4&#45;&gt;Node5</title>
<path fill="none" stroke="#191970" d="M421.0174,-40.5C429.4639,-40.5 438.2292,-40.5 446.8561,-40.5"/>
<polygon fill="#191970" stroke="#191970" points="446.8926,-44.0001 456.8925,-40.5 446.8925,-37.0001 446.8926,-44.0001"/>
</g>
<!-- Node8&#45;&gt;Node4 -->
<g id="edge8" class="edge">
<title>Node8&#45;&gt;Node4</title>
<path fill="none" stroke="#191970" d="M262.0612,-24.2438C272.8917,-25.9794 284.3869,-27.8216 295.5989,-29.6184"/>
<polygon fill="#191970" stroke="#191970" points="295.361,-33.1249 305.7888,-31.2514 296.4687,-26.2131 295.361,-33.1249"/>
</g>
</g>
</svg>
        <g id="navigator" transform="translate(0 0)" fill="#404254">
                <rect fill="#f2f5e9" fill-opacity="0.5" stroke="#606060" stroke-width=".5" x="0" y="0" width="60" height="60"/>
                <use id="zoomplus" xlink:href="#zoomPlus" x="17" y="9" onmousedown="handleZoom(evt,'in')"/>
                <use id="zoomminus" xlink:href="#zoomMin" x="42" y="9" onmousedown="handleZoom(evt,'out')"/>
                <use id="reset" xlink:href="#resetDef" x="30" y="36" onmousedown="handleReset()"/>
                <g id="arrowUp" xlink:href="#dirArrow" transform="translate(30 24)" onmousedown="handlePan(0,-1)">
                  <use xlink:href="#rim" fill="#404040">
                        <set attributeName="fill" to="#808080" begin="arrowUp.mouseover" end="arrowUp.mouseout"/>
                  </use>
                  <path fill="none" stroke="white" stroke-width="1.5" d="M0,-3.0v7 M-2.5,-0.5L0,-3.0L2.5,-0.5"/>
                </g>
                <g id="arrowRight" xlink:href="#dirArrow" transform="rotate(90) translate(36 -43)" onmousedown="handlePan(1,0)">
                  <use xlink:href="#rim" fill="#404040">
                        <set attributeName="fill" to="#808080" begin="arrowRight.mouseover" end="arrowRight.mouseout"/>
                  </use>
                  <path fill="none" stroke="white" stroke-width="1.5" d="M0,-3.0v7 M-2.5,-0.5L0,-3.0L2.5,-0.5"/>
                </g>
                <g id="arrowDown" xlink:href="#dirArrow" transform="rotate(180) translate(-30 -48)" onmousedown="handlePan(0,1)">
                  <use xlink:href="#rim" fill="#404040">
                        <set attributeName="fill" to="#808080" begin="arrowDown.mouseover" end="arrowDown.mouseout"/>
                  </use>
                  <path fill="none" stroke="white" stroke-width="1.5" d="M0,-3.0v7 M-2.5,-0.5L0,-3.0L2.5,-0.5"/>
                </g>
                <g id="arrowLeft" xlink:href="#dirArrow" transform="rotate(270) translate(-36 17)" onmousedown="handlePan(-1,0)">
                  <use xlink:href="#rim" fill="#404040">
                        <set attributeName="fill" to="#808080" begin="arrowLeft.mouseover" end="arrowLeft.mouseout"/>
                  </use>
                  <path fill="none" stroke="white" stroke-width="1.5" d="M0,-3.0v7 M-2.5,-0.5L0,-3.0L2.5,-0.5"/>
                </g>
        </g>
        <svg viewBox="0 0 15 15" width="100%" height="30px" preserveAspectRatio="xMaxYMin meet">
         <g id="arrow_out" transform="scale(0.3 0.3)">
          <a xlink:href="namespacemom__internal__tides_a7e1558cf7b38648be5da7d18a71eb596_cgraph_org.svg" target="_base">
           <rect id="button" ry="5" rx="5" y="6" x="6" height="38" width="38"
                fill="#f2f5e9" fill-opacity="0.5" stroke="#606060" stroke-width="1.0"/>
           <path id="arrow"
             d="M 11.500037,31.436501 C 11.940474,20.09759 22.043105,11.32322 32.158766,21.979434 L 37.068811,17.246167 C 37.068811,17.246167 37.088388,32 37.088388,32 L 22.160133,31.978069 C 22.160133,31.978069 26.997745,27.140456 26.997745,27.140456 C 18.528582,18.264221 13.291696,25.230495 11.500037,31.436501 z"
             style="fill:#404040;"/>
          </a>
         </g>
        </svg>
</svg>
