<?xml version="1.0" encoding="UTF-8" standalone="no"?>
<!DOCTYPE svg PUBLIC "-//W3C//DTD SVG 1.1//EN"
 "http://www.w3.org/Graphics/SVG/1.1/DTD/svg11.dtd">
<!-- Generated by graphviz version 2.40.1 (20161225.0304)
 -->
<!-- Title: mom_shared_initialization::read_face_length_list Pages: 1 -->
<svg width="302pt" height="39pt"
 viewBox="0.00 0.00 302.00 39.00" xmlns="http://www.w3.org/2000/svg" xmlns:xlink="http://www.w3.org/1999/xlink">
<g id="graph0" class="graph" transform="scale(1 1) rotate(0) translate(4 35)">
<title>mom_shared_initialization::read_face_length_list</title>
<polygon fill="#ffffff" stroke="transparent" points="-4,4 -4,-35 298,-35 298,4 -4,4"/>
<!-- Node1 -->
<g id="node1" class="node">
<title>Node1</title>
<g id="a_node1"><a xlink:title="This subroutine reads and counts the non&#45;blank lines in the face length list file,...">
<polygon fill="#bfbfbf" stroke="#000000" points="0,-.5 0,-30.5 139,-30.5 139,-.5 0,-.5"/>
<text text-anchor="start" x="8" y="-18.5" font-family="Helvetica,sans-Serif" font-size="10.00" fill="#000000">mom_shared_initialization</text>
<text text-anchor="middle" x="69.5" y="-7.5" font-family="Helvetica,sans-Serif" font-size="10.00" fill="#000000">::read_face_length_list</text>
</a>
</g>
</g>
<!-- Node2 -->
<g id="node2" class="node">
<title>Node2</title>
<g id="a_node2"><a xlink:href="namespacemom__string__functions.html#aca148baf726de2f028b7e7baad3c85d4" target="_top" xlink:title="Return a string in which all uppercase letters have been replaced by their lowercase counterparts.">
<polygon fill="#ffffff" stroke="#000000" points="175,-.5 175,-30.5 294,-30.5 294,-.5 175,-.5"/>
<text text-anchor="start" x="183" y="-18.5" font-family="Helvetica,sans-Serif" font-size="10.00" fill="#000000">mom_string_functions</text>
<text text-anchor="middle" x="234.5" y="-7.5" font-family="Helvetica,sans-Serif" font-size="10.00" fill="#000000">::uppercase</text>
</a>
</g>
</g>
<!-- Node1&#45;&gt;Node2 -->
<g id="edge1" class="edge">
<title>Node1&#45;&gt;Node2</title>
<path fill="none" stroke="#191970" d="M139.4749,-15.5C147.8424,-15.5 156.3859,-15.5 164.7502,-15.5"/>
<polygon fill="#191970" stroke="#191970" points="164.8401,-19.0001 174.8401,-15.5 164.8401,-12.0001 164.8401,-19.0001"/>
</g>
</g>
</svg>
