<?xml version="1.0" encoding="UTF-8" standalone="no"?>
<!DOCTYPE svg PUBLIC "-//W3C//DTD SVG 1.1//EN"
 "http://www.w3.org/Graphics/SVG/1.1/DTD/svg11.dtd">
<!-- Generated by graphviz version 2.40.1 (20161225.0304)
 -->
<!-- Title: idealized_hurricane::scm_idealized_hurricane_wind_forcing Pages: 1 -->
<svg width="506pt" height="50pt"
 viewBox="0.00 0.00 506.00 50.00" xmlns="http://www.w3.org/2000/svg" xmlns:xlink="http://www.w3.org/1999/xlink">
<g id="graph0" class="graph" transform="scale(1 1) rotate(0) translate(4 46)">
<title>idealized_hurricane::scm_idealized_hurricane_wind_forcing</title>
<polygon fill="#ffffff" stroke="transparent" points="-4,4 -4,-46 502,-46 502,4 -4,4"/>
<!-- Node1 -->
<g id="node1" class="node">
<title>Node1</title>
<g id="a_node1"><a xlink:title="This subroutine is primarily needed as a legacy for reproducing answers. It is included as an additio...">
<polygon fill="#bfbfbf" stroke="#000000" points="0,-.5 0,-41.5 138,-41.5 138,-.5 0,-.5"/>
<text text-anchor="start" x="8" y="-29.5" font-family="Helvetica,sans-Serif" font-size="10.00" fill="#000000">idealized_hurricane</text>
<text text-anchor="start" x="8" y="-18.5" font-family="Helvetica,sans-Serif" font-size="10.00" fill="#000000">::scm_idealized_hurricane</text>
<text text-anchor="middle" x="69" y="-7.5" font-family="Helvetica,sans-Serif" font-size="10.00" fill="#000000">_wind_forcing</text>
</a>
</g>
</g>
<!-- Node2 -->
<g id="node2" class="node">
<title>Node2</title>
<g id="a_node2"><a xlink:href="namespacemom__forcing__type.html#a7a9bb1457a8615a3e0b6e38f8d3e32bf" target="_top" xlink:title="Conditionally allocate fields within the mechanical forcing type.">
<polygon fill="#ffffff" stroke="#000000" points="174,-6 174,-36 319,-36 319,-6 174,-6"/>
<text text-anchor="start" x="182" y="-24" font-family="Helvetica,sans-Serif" font-size="10.00" fill="#000000">mom_forcing_type::allocate</text>
<text text-anchor="middle" x="246.5" y="-13" font-family="Helvetica,sans-Serif" font-size="10.00" fill="#000000">_mech_forcing</text>
</a>
</g>
</g>
<!-- Node1&#45;&gt;Node2 -->
<g id="edge1" class="edge">
<title>Node1&#45;&gt;Node2</title>
<path fill="none" stroke="#191970" d="M138.1344,-21C146.5301,-21 155.1724,-21 163.7399,-21"/>
<polygon fill="#191970" stroke="#191970" points="163.7438,-24.5001 173.7438,-21 163.7437,-17.5001 163.7438,-24.5001"/>
</g>
<!-- Node3 -->
<g id="node3" class="node">
<title>Node3</title>
<g id="a_node3"><a xlink:href="namespacemom__forcing__type.html#aa9a495456715378fe3dd5fb2bd21eec8" target="_top" xlink:title="Allocates and zeroes&#45;out array.">
<polygon fill="#ffffff" stroke="#000000" points="355,-11.5 355,-30.5 498,-30.5 498,-11.5 355,-11.5"/>
<text text-anchor="middle" x="426.5" y="-18.5" font-family="Helvetica,sans-Serif" font-size="10.00" fill="#000000">mom_forcing_type::myalloc</text>
</a>
</g>
</g>
<!-- Node2&#45;&gt;Node3 -->
<g id="edge2" class="edge">
<title>Node2&#45;&gt;Node3</title>
<path fill="none" stroke="#191970" d="M319.194,-21C327.6797,-21 336.3787,-21 344.9737,-21"/>
<polygon fill="#191970" stroke="#191970" points="344.9967,-24.5001 354.9966,-21 344.9966,-17.5001 344.9967,-24.5001"/>
</g>
</g>
</svg>
