<?xml version="1.0" encoding="UTF-8" standalone="no"?>
<!DOCTYPE svg PUBLIC "-//W3C//DTD SVG 1.1//EN"
 "http://www.w3.org/Graphics/SVG/1.1/DTD/svg11.dtd">
<!-- Generated by graphviz version 2.40.1 (20161225.0304)
 -->
<!-- Title: rossby_front_2d_initialization::rossby_front_initialize_velocity Pages: 1 -->
<svg width="530pt" height="78pt"
 viewBox="0.00 0.00 530.00 77.50" xmlns="http://www.w3.org/2000/svg" xmlns:xlink="http://www.w3.org/1999/xlink">
<g id="graph0" class="graph" transform="scale(1 1) rotate(0) translate(4 73.5)">
<title>rossby_front_2d_initialization::rossby_front_initialize_velocity</title>
<polygon fill="#ffffff" stroke="transparent" points="-4,4 -4,-73.5 526,-73.5 526,4 -4,4"/>
<!-- Node1 -->
<g id="node1" class="node">
<title>Node1</title>
<g id="a_node1"><a xlink:title="Initialization of u and v in the Rossby front test.">
<polygon fill="#bfbfbf" stroke="#000000" points="0,-11.5 0,-52.5 143,-52.5 143,-11.5 0,-11.5"/>
<text text-anchor="start" x="8" y="-40.5" font-family="Helvetica,sans-Serif" font-size="10.00" fill="#000000">rossby_front_2d_initialization</text>
<text text-anchor="start" x="8" y="-29.5" font-family="Helvetica,sans-Serif" font-size="10.00" fill="#000000">::rossby_front_initialize</text>
<text text-anchor="middle" x="71.5" y="-18.5" font-family="Helvetica,sans-Serif" font-size="10.00" fill="#000000">_velocity</text>
</a>
</g>
</g>
<!-- Node2 -->
<g id="node2" class="node">
<title>Node2</title>
<g id="a_node2"><a xlink:href="namespacerossby__front__2d__initialization.html#a587a5f5c3f4694558d3d5206840ccab2" target="_top" xlink:title="Analytic prescription of mixed layer temperature gradient in 2d Rossby front test.">
<polygon fill="#ffffff" stroke="#000000" points="189.5,-39 189.5,-69 332.5,-69 332.5,-39 189.5,-39"/>
<text text-anchor="start" x="197.5" y="-57" font-family="Helvetica,sans-Serif" font-size="10.00" fill="#000000">rossby_front_2d_initialization</text>
<text text-anchor="middle" x="261" y="-46" font-family="Helvetica,sans-Serif" font-size="10.00" fill="#000000">::dtdy</text>
</a>
</g>
</g>
<!-- Node1&#45;&gt;Node2 -->
<g id="edge1" class="edge">
<title>Node1&#45;&gt;Node2</title>
<path fill="none" stroke="#191970" d="M143.1418,-40.3173C154.933,-41.6862 167.2327,-43.1141 179.2482,-44.509"/>
<polygon fill="#191970" stroke="#191970" points="178.9199,-47.9943 189.2569,-45.671 179.7272,-41.041 178.9199,-47.9943"/>
</g>
<!-- Node4 -->
<g id="node4" class="node">
<title>Node4</title>
<g id="a_node4"><a xlink:href="namespacerossby__front__2d__initialization.html#aa10adb0378184432ecaa78eb339c6c5a" target="_top" xlink:title="Analytic prescription of mixed layer depth in 2d Rossby front test, in the same units as Gmax_depth.">
<polygon fill="#ffffff" stroke="#000000" points="179,-.5 179,-19.5 343,-19.5 343,-.5 179,-.5"/>
<text text-anchor="middle" x="261" y="-7.5" font-family="Helvetica,sans-Serif" font-size="10.00" fill="#000000">rossby_front_2d_initialization::hml</text>
</a>
</g>
</g>
<!-- Node1&#45;&gt;Node4 -->
<g id="edge3" class="edge">
<title>Node1&#45;&gt;Node4</title>
<path fill="none" stroke="#191970" d="M143.1418,-23.6827C151.5791,-22.7032 160.2767,-21.6935 168.9442,-20.6872"/>
<polygon fill="#191970" stroke="#191970" points="169.5583,-24.1395 179.0879,-19.5096 168.751,-17.1862 169.5583,-24.1395"/>
</g>
<!-- Node3 -->
<g id="node3" class="node">
<title>Node3</title>
<g id="a_node3"><a xlink:href="namespacerossby__front__2d__initialization.html#a15a0b752df24fbae7deabe844a418239" target="_top" xlink:title="Pseudo coordinate across domain used by Hml() and dTdy() returns a coordinate from &#45;PI/2 ....">
<polygon fill="#ffffff" stroke="#000000" points="379,-17 379,-47 522,-47 522,-17 379,-17"/>
<text text-anchor="start" x="387" y="-35" font-family="Helvetica,sans-Serif" font-size="10.00" fill="#000000">rossby_front_2d_initialization</text>
<text text-anchor="middle" x="450.5" y="-24" font-family="Helvetica,sans-Serif" font-size="10.00" fill="#000000">::ypseudo</text>
</a>
</g>
</g>
<!-- Node2&#45;&gt;Node3 -->
<g id="edge2" class="edge">
<title>Node2&#45;&gt;Node3</title>
<path fill="none" stroke="#191970" d="M332.6418,-45.6827C344.433,-44.3138 356.7327,-42.8859 368.7482,-41.491"/>
<polygon fill="#191970" stroke="#191970" points="369.2272,-44.959 378.7569,-40.329 368.4199,-38.0057 369.2272,-44.959"/>
</g>
<!-- Node4&#45;&gt;Node3 -->
<g id="edge4" class="edge">
<title>Node4&#45;&gt;Node3</title>
<path fill="none" stroke="#191970" d="M343.0153,-19.5216C351.5709,-20.5148 360.2675,-21.5245 368.8194,-22.5173"/>
<polygon fill="#191970" stroke="#191970" points="368.4379,-25.9964 378.7748,-23.6731 369.2452,-19.0431 368.4379,-25.9964"/>
</g>
</g>
</svg>
