<?xml version="1.0" encoding="UTF-8" standalone="no"?>
<!DOCTYPE svg PUBLIC "-//W3C//DTD SVG 1.1//EN"
 "http://www.w3.org/Graphics/SVG/1.1/DTD/svg11.dtd">
<!-- Generated by graphviz version 2.40.1 (20161225.0304)
 -->
<!-- Title: mom_ale_sponge::apply_ale_sponge Pages: 1 -->
<!--zoomable 955 -->
<svg id="main" version="1.1" xmlns="http://www.w3.org/2000/svg" xmlns:xlink="http://www.w3.org/1999/xlink" xml:space="preserve" onload="init(evt)">
<style type="text/css"><![CDATA[
.edge:hover path { stroke: red; }
.edge:hover polygon { stroke: red; fill: red; }
]]></style>
<script type="text/javascript"><![CDATA[
var edges = document.getElementsByTagName('g');
if (edges && edges.length) {
  for (var i=0;i<edges.length;i++) {
    if (edges[i].id.substr(0,4)=='edge') {
      edges[i].setAttribute('class','edge');
    }
  }
}
]]></script>
        <defs>
                <circle id="rim" cx="0" cy="0" r="7"/>
                <circle id="rim2" cx="0" cy="0" r="3.5"/>
                <g id="zoomPlus">
                        <use xlink:href="#rim" fill="#404040">
                                <set attributeName="fill" to="#808080" begin="zoomplus.mouseover" end="zoomplus.mouseout"/>
                        </use>
                        <path d="M-4,0h8M0,-4v8" fill="none" stroke="white" stroke-width="1.5" pointer-events="none"/>
                </g>
                <g id="zoomMin">
                        <use xlink:href="#rim" fill="#404040">
                                <set attributeName="fill" to="#808080" begin="zoomminus.mouseover" end="zoomminus.mouseout"/>
                        </use>
                        <path d="M-4,0h8" fill="none" stroke="white" stroke-width="1.5" pointer-events="none"/>
                </g>
                <g id="dirArrow">
                        <path fill="none" stroke="white" stroke-width="1.5" d="M0,-3.0v7 M-2.5,-0.5L0,-3.0L2.5,-0.5"/>
                </g>
               <g id="resetDef">
                       <use xlink:href="#rim2" fill="#404040">
                               <set attributeName="fill" to="#808080" begin="reset.mouseover" end="reset.mouseout"/>
                       </use>
               </g>
        </defs>

<script type="text/javascript">
var viewWidth = 1159;
var viewHeight = 955;
var sectionId = 'dynsection-0';
</script>
<script xlink:href="svgpan.js"/>
<svg id="graph" class="graph">
<g id="viewport">
<title>mom_ale_sponge::apply_ale_sponge</title>
<polygon fill="#ffffff" stroke="transparent" points="-4,4 -4,-951 1155,-951 1155,4 -4,4"/>
<!-- Node1 -->
<g id="node1" class="node">
<title>Node1</title>
<g id="a_node1"><a xlink:title="This subroutine applies damping to the layers thicknesses, temp, salt and a variety of tracers for ev...">
<polygon fill="#bfbfbf" stroke="#000000" points="0,-854 0,-884 131,-884 131,-854 0,-854"/>
<text text-anchor="start" x="8" y="-872" font-family="Helvetica,sans-Serif" font-size="10.00" fill="#000000">mom_ale_sponge::apply</text>
<text text-anchor="middle" x="65.5" y="-861" font-family="Helvetica,sans-Serif" font-size="10.00" fill="#000000">_ale_sponge</text>
</a>
</g>
</g>
<!-- Node2 -->
<g id="node2" class="node">
<title>Node2</title>
<g id="a_node2"><a xlink:href="namespacemom__error__handler.html#a460cfb79a06c29fc249952c2a3710d67" target="_top" xlink:title="This provides a convenient interface for writing an mpp_error message with run&#45;time filter based on a...">
<polygon fill="#ffffff" stroke="#000000" points="883,-768 883,-798 998,-798 998,-768 883,-768"/>
<text text-anchor="start" x="891" y="-786" font-family="Helvetica,sans-Serif" font-size="10.00" fill="#000000">mom_error_handler::</text>
<text text-anchor="middle" x="940.5" y="-775" font-family="Helvetica,sans-Serif" font-size="10.00" fill="#000000">mom_error</text>
</a>
</g>
</g>
<!-- Node1&#45;&gt;Node2 -->
<g id="edge1" class="edge">
<title>Node1&#45;&gt;Node2</title>
<path fill="none" stroke="#191970" d="M106.0977,-884.0392C171.026,-906.7051 302.672,-947 418,-947 418,-947 418,-947 594.5,-947 709.1927,-947 746.0692,-943.0268 845,-885 878.769,-865.1932 907.9142,-829.8234 924.8453,-806.3839"/>
<polygon fill="#191970" stroke="#191970" points="927.8238,-808.2331 930.7205,-798.0419 922.1008,-804.2024 927.8238,-808.2331"/>
</g>
<!-- Node4 -->
<g id="node4" class="node">
<title>Node4</title>
<g id="a_node4"><a xlink:href="namespacemom__remapping.html#abe4a1d5b1b9f26063a5e4aba5be0b0a5" target="_top" xlink:title="Remaps column of values u0 on grid h0 to grid h1 assuming the top edge is aligned.">
<polygon fill="#ffffff" stroke="#000000" points="167,-772 167,-802 317,-802 317,-772 167,-772"/>
<text text-anchor="start" x="175" y="-790" font-family="Helvetica,sans-Serif" font-size="10.00" fill="#000000">mom_remapping::remapping</text>
<text text-anchor="middle" x="242" y="-779" font-family="Helvetica,sans-Serif" font-size="10.00" fill="#000000">_core_h</text>
</a>
</g>
</g>
<!-- Node1&#45;&gt;Node4 -->
<g id="edge3" class="edge">
<title>Node1&#45;&gt;Node4</title>
<path fill="none" stroke="#191970" d="M97.8728,-853.9599C126.6433,-840.5935 168.8739,-820.9736 200.1919,-806.4236"/>
<polygon fill="#191970" stroke="#191970" points="201.9397,-809.4709 209.534,-802.0833 198.9903,-803.1226 201.9397,-809.4709"/>
</g>
<!-- Node3 -->
<g id="node3" class="node">
<title>Node3</title>
<g id="a_node3"><a xlink:href="namespacemom__error__handler.html#ad5f00a53059c72fe2332d1436c80ca71" target="_top" xlink:title="This returns .true. if the current PE is the root PE.">
<polygon fill="#ffffff" stroke="#000000" points="1036,-768 1036,-798 1151,-798 1151,-768 1036,-768"/>
<text text-anchor="start" x="1044" y="-786" font-family="Helvetica,sans-Serif" font-size="10.00" fill="#000000">mom_error_handler::</text>
<text text-anchor="middle" x="1093.5" y="-775" font-family="Helvetica,sans-Serif" font-size="10.00" fill="#000000">is_root_pe</text>
</a>
</g>
</g>
<!-- Node2&#45;&gt;Node3 -->
<g id="edge2" class="edge">
<title>Node2&#45;&gt;Node3</title>
<path fill="none" stroke="#191970" d="M998.3427,-783C1007.2579,-783 1016.5331,-783 1025.6427,-783"/>
<polygon fill="#191970" stroke="#191970" points="1025.8293,-786.5001 1035.8293,-783 1025.8293,-779.5001 1025.8293,-786.5001"/>
</g>
<!-- Node4&#45;&gt;Node2 -->
<g id="edge40" class="edge">
<title>Node4&#45;&gt;Node2</title>
<path fill="none" stroke="#191970" d="M242.4413,-771.7517C245.8237,-687.3457 274.7687,-276.1371 519,-136 785.3322,16.8184 912.4987,-621.7547 936.3238,-757.9125"/>
<polygon fill="#191970" stroke="#191970" points="932.8874,-758.5819 938.0328,-767.8434 939.786,-757.3947 932.8874,-758.5819"/>
</g>
<!-- Node5 -->
<g id="node5" class="node">
<title>Node5</title>
<g id="a_node5"><a xlink:href="namespacemom__remapping.html#a5bb0006054c9fa4522783aa3f1f500d5" target="_top" xlink:title="Creates polynomial reconstructions of u0 on the source grid h0.">
<polygon fill="#ffffff" stroke="#000000" points="357.5,-430 357.5,-460 478.5,-460 478.5,-430 357.5,-430"/>
<text text-anchor="start" x="365.5" y="-448" font-family="Helvetica,sans-Serif" font-size="10.00" fill="#000000">mom_remapping::build</text>
<text text-anchor="middle" x="418" y="-437" font-family="Helvetica,sans-Serif" font-size="10.00" fill="#000000">_reconstructions_1d</text>
</a>
</g>
</g>
<!-- Node4&#45;&gt;Node5 -->
<g id="edge4" class="edge">
<title>Node4&#45;&gt;Node5</title>
<path fill="none" stroke="#191970" d="M249.7896,-771.8634C277.4987,-718.0196 371.4453,-535.4643 405.5223,-469.2464"/>
<polygon fill="#191970" stroke="#191970" points="408.6369,-470.8431 410.1007,-460.3498 402.4127,-467.6399 408.6369,-470.8431"/>
</g>
<!-- Node24 -->
<g id="node24" class="node">
<title>Node24</title>
<g id="a_node24"><a xlink:href="namespacemom__remapping.html#a1756ab9c7329e586ded97e7270b14d4d" target="_top" xlink:title="Checks that edge values and reconstructions satisfy bounds.">
<polygon fill="#ffffff" stroke="#000000" points="354,-880 354,-910 482,-910 482,-880 354,-880"/>
<text text-anchor="start" x="362" y="-898" font-family="Helvetica,sans-Serif" font-size="10.00" fill="#000000">mom_remapping::check</text>
<text text-anchor="middle" x="418" y="-887" font-family="Helvetica,sans-Serif" font-size="10.00" fill="#000000">_reconstructions_1d</text>
</a>
</g>
</g>
<!-- Node4&#45;&gt;Node24 -->
<g id="edge36" class="edge">
<title>Node4&#45;&gt;Node24</title>
<path fill="none" stroke="#191970" d="M266.472,-802.0169C297.2523,-820.9048 350.2358,-853.4174 384.6893,-874.5593"/>
<polygon fill="#191970" stroke="#191970" points="383.0989,-877.6898 393.4527,-879.9369 386.7601,-871.7236 383.0989,-877.6898"/>
</g>
<!-- Node25 -->
<g id="node25" class="node">
<title>Node25</title>
<g id="a_node25"><a xlink:href="namespacemom__remapping.html#afe0efe65edb680f96fc5efe3d29a9217" target="_top" xlink:title="Measure totals and bounds on source grid.">
<polygon fill="#ffffff" stroke="#000000" points="524.5,-724 524.5,-754 664.5,-754 664.5,-724 524.5,-724"/>
<text text-anchor="start" x="532.5" y="-742" font-family="Helvetica,sans-Serif" font-size="10.00" fill="#000000">mom_remapping::measure</text>
<text text-anchor="middle" x="594.5" y="-731" font-family="Helvetica,sans-Serif" font-size="10.00" fill="#000000">_input_bounds</text>
</a>
</g>
</g>
<!-- Node4&#45;&gt;Node25 -->
<g id="edge38" class="edge">
<title>Node4&#45;&gt;Node25</title>
<path fill="none" stroke="#191970" d="M302.2206,-771.9797C318.612,-768.2908 336.4193,-764.6459 353,-762 406.4715,-753.4673 467.1454,-747.7041 514.301,-744.0807"/>
<polygon fill="#191970" stroke="#191970" points="514.7452,-747.5572 524.4546,-743.3174 514.2204,-740.5769 514.7452,-747.5572"/>
</g>
<!-- Node26 -->
<g id="node26" class="node">
<title>Node26</title>
<g id="a_node26"><a xlink:href="namespacemom__remapping.html#a5453aeefe69feaff159b67f3a4bd2366" target="_top" xlink:title="Measure totals and bounds on destination grid.">
<polygon fill="#ffffff" stroke="#000000" points="524.5,-850 524.5,-880 664.5,-880 664.5,-850 524.5,-850"/>
<text text-anchor="start" x="532.5" y="-868" font-family="Helvetica,sans-Serif" font-size="10.00" fill="#000000">mom_remapping::measure</text>
<text text-anchor="middle" x="594.5" y="-857" font-family="Helvetica,sans-Serif" font-size="10.00" fill="#000000">_output_bounds</text>
</a>
</g>
</g>
<!-- Node4&#45;&gt;Node26 -->
<g id="edge39" class="edge">
<title>Node4&#45;&gt;Node26</title>
<path fill="none" stroke="#191970" d="M309.9655,-802.0392C368.9989,-815.1019 454.4936,-834.0199 516.3422,-847.7055"/>
<polygon fill="#191970" stroke="#191970" points="515.9231,-851.1974 526.4431,-849.9406 517.4355,-844.3627 515.9231,-851.1974"/>
</g>
<!-- Node27 -->
<g id="node27" class="node">
<title>Node27</title>
<g id="a_node27"><a xlink:href="namespacemom__remapping.html#ab933069898cb9de16ec60f175185762e" target="_top" xlink:title="Remaps column of n0 values u0 on grid h0 to grid h1 with n1 cells by calculating the n0+n1+1 sub&#45;inte...">
<polygon fill="#ffffff" stroke="#000000" points="353,-772 353,-802 483,-802 483,-772 353,-772"/>
<text text-anchor="start" x="361" y="-790" font-family="Helvetica,sans-Serif" font-size="10.00" fill="#000000">mom_remapping::remap</text>
<text text-anchor="middle" x="418" y="-779" font-family="Helvetica,sans-Serif" font-size="10.00" fill="#000000">_via_sub_cells</text>
</a>
</g>
</g>
<!-- Node4&#45;&gt;Node27 -->
<g id="edge41" class="edge">
<title>Node4&#45;&gt;Node27</title>
<path fill="none" stroke="#191970" d="M317.1504,-787C325.5861,-787 334.1828,-787 342.6214,-787"/>
<polygon fill="#191970" stroke="#191970" points="342.8148,-790.5001 352.8148,-787 342.8148,-783.5001 342.8148,-790.5001"/>
</g>
<!-- Node5&#45;&gt;Node2 -->
<g id="edge22" class="edge">
<title>Node5&#45;&gt;Node2</title>
<path fill="none" stroke="#191970" d="M468.4149,-429.9736C484.4349,-425.8885 502.3241,-422.0332 519,-420 669.1819,-401.6894 747.1756,-402.5865 845,-518 906.863,-590.9861 929.9476,-707.1901 937.3939,-757.9266"/>
<polygon fill="#191970" stroke="#191970" points="933.9496,-758.57 938.7896,-767.9946 940.8833,-757.6087 933.9496,-758.57"/>
</g>
<!-- Node6 -->
<g id="node6" class="node">
<title>Node6</title>
<g id="a_node6"><a xlink:href="namespaceregrid__edge__slopes.html#a6996158dd53ef77642a39638c49be870" target="_top" xlink:title="Compute ih4 edge slopes (implicit third order accurate) in the same units as h.">
<polygon fill="#ffffff" stroke="#000000" points="526,-479 526,-509 663,-509 663,-479 526,-479"/>
<text text-anchor="start" x="534" y="-497" font-family="Helvetica,sans-Serif" font-size="10.00" fill="#000000">regrid_edge_slopes</text>
<text text-anchor="middle" x="594.5" y="-486" font-family="Helvetica,sans-Serif" font-size="10.00" fill="#000000">::edge_slopes_implicit_h3</text>
</a>
</g>
</g>
<!-- Node5&#45;&gt;Node6 -->
<g id="edge5" class="edge">
<title>Node5&#45;&gt;Node6</title>
<path fill="none" stroke="#191970" d="M472.396,-460.1014C490.7681,-465.2019 511.4474,-470.9429 530.4935,-476.2305"/>
<polygon fill="#191970" stroke="#191970" points="529.7117,-479.6458 540.2836,-478.9484 531.5843,-472.9009 529.7117,-479.6458"/>
</g>
<!-- Node10 -->
<g id="node10" class="node">
<title>Node10</title>
<g id="a_node10"><a xlink:href="namespaceregrid__edge__slopes.html#a8857628ba4234d17cc8a596515f80aa9" target="_top" xlink:title="Compute ih5 edge values (implicit fifth order accurate)">
<polygon fill="#ffffff" stroke="#000000" points="526,-626 526,-656 663,-656 663,-626 526,-626"/>
<text text-anchor="start" x="534" y="-644" font-family="Helvetica,sans-Serif" font-size="10.00" fill="#000000">regrid_edge_slopes</text>
<text text-anchor="middle" x="594.5" y="-633" font-family="Helvetica,sans-Serif" font-size="10.00" fill="#000000">::edge_slopes_implicit_h5</text>
</a>
</g>
</g>
<!-- Node5&#45;&gt;Node10 -->
<g id="edge10" class="edge">
<title>Node5&#45;&gt;Node10</title>
<path fill="none" stroke="#191970" d="M422.7623,-460.0026C434.0251,-493.0942 465.4501,-572.8269 519,-616 521.2674,-617.828 523.6737,-619.5245 526.1807,-621.0988"/>
<polygon fill="#191970" stroke="#191970" points="524.5914,-624.2194 535.0366,-625.9937 527.9777,-618.0929 524.5914,-624.2194"/>
</g>
<!-- Node11 -->
<g id="node11" class="node">
<title>Node11</title>
<g id="a_node11"><a xlink:href="namespaceregrid__edge__values.html#abc05850b69a03244cd7e04e74c48ac92" target="_top" xlink:title="Compute ih4 edge values (implicit fourth order accurate) in the same units as h.">
<polygon fill="#ffffff" stroke="#000000" points="526,-577 526,-607 663,-607 663,-577 526,-577"/>
<text text-anchor="start" x="534" y="-595" font-family="Helvetica,sans-Serif" font-size="10.00" fill="#000000">regrid_edge_values</text>
<text text-anchor="middle" x="594.5" y="-584" font-family="Helvetica,sans-Serif" font-size="10.00" fill="#000000">::edge_values_implicit_h4</text>
</a>
</g>
</g>
<!-- Node5&#45;&gt;Node11 -->
<g id="edge14" class="edge">
<title>Node5&#45;&gt;Node11</title>
<path fill="none" stroke="#191970" d="M426.559,-460.0767C441.8569,-485.7088 476.3211,-537.8314 519,-567 521.8802,-568.9684 524.9272,-570.7918 528.0802,-572.4796"/>
<polygon fill="#191970" stroke="#191970" points="526.669,-575.6849 537.1956,-576.8851 529.715,-569.3824 526.669,-575.6849"/>
</g>
<!-- Node12 -->
<g id="node12" class="node">
<title>Node12</title>
<g id="a_node12"><a xlink:href="namespaceregrid__edge__values.html#ac0bb9fda830d4c93dbebbce14315c222" target="_top" xlink:title="Compute ih6 edge values (implicit sixth order accurate) in the same units as h.">
<polygon fill="#ffffff" stroke="#000000" points="526,-528 526,-558 663,-558 663,-528 526,-528"/>
<text text-anchor="start" x="534" y="-546" font-family="Helvetica,sans-Serif" font-size="10.00" fill="#000000">regrid_edge_values</text>
<text text-anchor="middle" x="594.5" y="-535" font-family="Helvetica,sans-Serif" font-size="10.00" fill="#000000">::edge_values_implicit_h6</text>
</a>
</g>
</g>
<!-- Node5&#45;&gt;Node12 -->
<g id="edge18" class="edge">
<title>Node5&#45;&gt;Node12</title>
<path fill="none" stroke="#191970" d="M435.5177,-460.2472C454.8447,-476.4273 487.4106,-501.8421 519,-518 523.3063,-520.2027 527.8478,-522.2707 532.4796,-524.1996"/>
<polygon fill="#191970" stroke="#191970" points="531.4795,-527.5669 542.067,-527.9621 534.0369,-521.0508 531.4795,-527.5669"/>
</g>
<!-- Node13 -->
<g id="node13" class="node">
<title>Node13</title>
<g id="a_node13"><a xlink:href="namespacepcm__functions.html#acdb73aa523daabff83b15ce04492d70a" target="_top" xlink:title="Reconstruction by constant polynomials within each cell. There is nothing to do but this routine is p...">
<polygon fill="#ffffff" stroke="#000000" points="540.5,-430 540.5,-460 648.5,-460 648.5,-430 540.5,-430"/>
<text text-anchor="start" x="548.5" y="-448" font-family="Helvetica,sans-Serif" font-size="10.00" fill="#000000">pcm_functions::pcm</text>
<text text-anchor="middle" x="594.5" y="-437" font-family="Helvetica,sans-Serif" font-size="10.00" fill="#000000">_reconstruction</text>
</a>
</g>
</g>
<!-- Node5&#45;&gt;Node13 -->
<g id="edge23" class="edge">
<title>Node5&#45;&gt;Node13</title>
<path fill="none" stroke="#191970" d="M478.7413,-445C495.3395,-445 513.3803,-445 530.1713,-445"/>
<polygon fill="#191970" stroke="#191970" points="530.4406,-448.5001 540.4405,-445 530.4405,-441.5001 530.4406,-448.5001"/>
</g>
<!-- Node14 -->
<g id="node14" class="node">
<title>Node14</title>
<g id="a_node14"><a xlink:href="namespaceplm__functions.html#a7e6d6acb77747f967174265a1bf45784" target="_top" xlink:title="Reconstruction by linear polynomials within boundary cells.">
<polygon fill="#ffffff" stroke="#000000" points="527.5,-244 527.5,-274 661.5,-274 661.5,-244 527.5,-244"/>
<text text-anchor="start" x="535.5" y="-262" font-family="Helvetica,sans-Serif" font-size="10.00" fill="#000000">plm_functions::plm</text>
<text text-anchor="middle" x="594.5" y="-251" font-family="Helvetica,sans-Serif" font-size="10.00" fill="#000000">_boundary_extrapolation</text>
</a>
</g>
</g>
<!-- Node5&#45;&gt;Node14 -->
<g id="edge24" class="edge">
<title>Node5&#45;&gt;Node14</title>
<path fill="none" stroke="#191970" d="M423.4056,-429.5354C435.4246,-397.398 467.4413,-323.0599 519,-283 520.809,-281.5944 522.7023,-280.2702 524.6611,-279.0226"/>
<polygon fill="#191970" stroke="#191970" points="526.5841,-281.9577 533.612,-274.0293 523.1738,-275.8445 526.5841,-281.9577"/>
</g>
<!-- Node15 -->
<g id="node15" class="node">
<title>Node15</title>
<g id="a_node15"><a xlink:href="namespaceplm__functions.html#afc5335533d6ae9896bf0d869fa5a25e9" target="_top" xlink:title="Reconstruction by linear polynomials within each cell.">
<polygon fill="#ffffff" stroke="#000000" points="543.5,-195 543.5,-225 645.5,-225 645.5,-195 543.5,-195"/>
<text text-anchor="start" x="551.5" y="-213" font-family="Helvetica,sans-Serif" font-size="10.00" fill="#000000">plm_functions::plm</text>
<text text-anchor="middle" x="594.5" y="-202" font-family="Helvetica,sans-Serif" font-size="10.00" fill="#000000">_reconstruction</text>
</a>
</g>
</g>
<!-- Node5&#45;&gt;Node15 -->
<g id="edge25" class="edge">
<title>Node5&#45;&gt;Node15</title>
<path fill="none" stroke="#191970" d="M420.9503,-429.721C429.2089,-391.0788 456.1927,-288.6508 519,-234 523.4535,-230.1248 528.536,-226.8745 533.9115,-224.1483"/>
<polygon fill="#191970" stroke="#191970" points="535.4543,-227.2928 543.175,-220.0375 532.6149,-220.8945 535.4543,-227.2928"/>
</g>
<!-- Node16 -->
<g id="node16" class="node">
<title>Node16</title>
<g id="a_node16"><a xlink:href="namespaceppm__functions.html#a47eb8faecb5e25f3939cffa57f9b7cff" target="_top" xlink:title="Reconstruction by parabolas within boundary cells.">
<polygon fill="#ffffff" stroke="#000000" points="527.5,-146 527.5,-176 661.5,-176 661.5,-146 527.5,-146"/>
<text text-anchor="start" x="535.5" y="-164" font-family="Helvetica,sans-Serif" font-size="10.00" fill="#000000">ppm_functions::ppm</text>
<text text-anchor="middle" x="594.5" y="-153" font-family="Helvetica,sans-Serif" font-size="10.00" fill="#000000">_boundary_extrapolation</text>
</a>
</g>
</g>
<!-- Node5&#45;&gt;Node16 -->
<g id="edge26" class="edge">
<title>Node5&#45;&gt;Node16</title>
<path fill="none" stroke="#191970" d="M419.3958,-429.8929C424.299,-385.5969 444.696,-254.7825 519,-185 520.1279,-183.9407 521.3025,-182.9282 522.5174,-181.9604"/>
<polygon fill="#191970" stroke="#191970" points="524.7237,-184.694 531.0558,-176.1996 520.8086,-178.8912 524.7237,-184.694"/>
</g>
<!-- Node17 -->
<g id="node17" class="node">
<title>Node17</title>
<g id="a_node17"><a xlink:href="namespaceppm__functions.html#a23d5e557ad48883c77429ee9bff8b052" target="_top" xlink:title="Builds quadratic polynomials coefficients from cell mean and edge values.">
<polygon fill="#ffffff" stroke="#000000" points="539.5,-293 539.5,-323 649.5,-323 649.5,-293 539.5,-293"/>
<text text-anchor="start" x="547.5" y="-311" font-family="Helvetica,sans-Serif" font-size="10.00" fill="#000000">ppm_functions::ppm</text>
<text text-anchor="middle" x="594.5" y="-300" font-family="Helvetica,sans-Serif" font-size="10.00" fill="#000000">_reconstruction</text>
</a>
</g>
</g>
<!-- Node5&#45;&gt;Node17 -->
<g id="edge27" class="edge">
<title>Node5&#45;&gt;Node17</title>
<path fill="none" stroke="#191970" d="M427.5684,-429.8505C443.5897,-405.6871 478.1394,-358.4561 519,-332 522.5069,-329.7294 526.2444,-327.6597 530.1086,-325.7753"/>
<polygon fill="#191970" stroke="#191970" points="531.5764,-328.9532 539.3058,-321.7071 528.7447,-322.5516 531.5764,-328.9532"/>
</g>
<!-- Node21 -->
<g id="node21" class="node">
<title>Node21</title>
<g id="a_node21"><a xlink:href="namespacepqm__functions.html#a51d319371a3999ea40a0d2f940094c78" target="_top" xlink:title="Reconstruction by parabolas within boundary cells.">
<polygon fill="#ffffff" stroke="#000000" points="519,-675 519,-705 670,-705 670,-675 519,-675"/>
<text text-anchor="start" x="527" y="-693" font-family="Helvetica,sans-Serif" font-size="10.00" fill="#000000">pqm_functions::pqm</text>
<text text-anchor="middle" x="594.5" y="-682" font-family="Helvetica,sans-Serif" font-size="10.00" fill="#000000">_boundary_extrapolation_v1</text>
</a>
</g>
</g>
<!-- Node5&#45;&gt;Node21 -->
<g id="edge31" class="edge">
<title>Node5&#45;&gt;Node21</title>
<path fill="none" stroke="#191970" d="M420.6151,-460.003C428.2749,-499.4693 454.3342,-607.1195 519,-665 520.7554,-666.5712 522.6123,-668.0441 524.5492,-669.4247"/>
<polygon fill="#191970" stroke="#191970" points="523.1338,-672.6624 533.4883,-674.906 526.7929,-666.6949 523.1338,-672.6624"/>
</g>
<!-- Node22 -->
<g id="node22" class="node">
<title>Node22</title>
<g id="a_node22"><a xlink:href="namespacepqm__functions.html#af62ea5a0c20bd2e543d0a7b593e98bb7" target="_top" xlink:title="Reconstruction by quartic polynomials within each cell.">
<polygon fill="#ffffff" stroke="#000000" points="539.5,-342 539.5,-372 649.5,-372 649.5,-342 539.5,-342"/>
<text text-anchor="start" x="547.5" y="-360" font-family="Helvetica,sans-Serif" font-size="10.00" fill="#000000">pqm_functions::pqm</text>
<text text-anchor="middle" x="594.5" y="-349" font-family="Helvetica,sans-Serif" font-size="10.00" fill="#000000">_reconstruction</text>
</a>
</g>
</g>
<!-- Node5&#45;&gt;Node22 -->
<g id="edge32" class="edge">
<title>Node5&#45;&gt;Node22</title>
<path fill="none" stroke="#191970" d="M441.964,-429.9372C462.1044,-417.5971 491.8678,-400.0979 519,-387 526.9367,-383.1686 535.4969,-379.4203 543.9035,-375.9428"/>
<polygon fill="#191970" stroke="#191970" points="545.3335,-379.1398 553.288,-372.1416 542.7055,-372.6518 545.3335,-379.1398"/>
</g>
<!-- Node7 -->
<g id="node7" class="node">
<title>Node7</title>
<g id="a_node7"><a xlink:href="namespacepolynomial__functions.html#adb2b5d18db527314545e8e21638a2872" target="_top" xlink:title="Pointwise evaluation of a polynomial at x.">
<polygon fill="#ffffff" stroke="#000000" points="713,-528 713,-558 838,-558 838,-528 713,-528"/>
<text text-anchor="start" x="721" y="-546" font-family="Helvetica,sans-Serif" font-size="10.00" fill="#000000">polynomial_functions</text>
<text text-anchor="middle" x="775.5" y="-535" font-family="Helvetica,sans-Serif" font-size="10.00" fill="#000000">::evaluation_polynomial</text>
</a>
</g>
</g>
<!-- Node6&#45;&gt;Node7 -->
<g id="edge6" class="edge">
<title>Node6&#45;&gt;Node7</title>
<path fill="none" stroke="#191970" d="M650.2829,-509.1014C669.2098,-514.2253 690.5245,-519.9956 710.1303,-525.3032"/>
<polygon fill="#191970" stroke="#191970" points="709.3342,-528.7136 719.9013,-527.9484 711.1634,-521.9568 709.3342,-528.7136"/>
</g>
<!-- Node8 -->
<g id="node8" class="node">
<title>Node8</title>
<g id="a_node8"><a xlink:href="namespaceregrid__solvers.html#a8130a338b59de62b00f68da4204568ad" target="_top" xlink:title="Solve the linear system AX = B by Gaussian elimination.">
<polygon fill="#ffffff" stroke="#000000" points="719,-577 719,-607 832,-607 832,-577 719,-577"/>
<text text-anchor="start" x="727" y="-595" font-family="Helvetica,sans-Serif" font-size="10.00" fill="#000000">regrid_solvers::solve</text>
<text text-anchor="middle" x="775.5" y="-584" font-family="Helvetica,sans-Serif" font-size="10.00" fill="#000000">_linear_system</text>
</a>
</g>
</g>
<!-- Node6&#45;&gt;Node8 -->
<g id="edge7" class="edge">
<title>Node6&#45;&gt;Node8</title>
<path fill="none" stroke="#191970" d="M654.3462,-509.0347C659.8742,-511.5848 665.1951,-514.5518 670,-518 691.955,-533.7559 684.3444,-550.835 706,-567 708.4887,-568.8577 711.1285,-570.5876 713.8685,-572.1974"/>
<polygon fill="#191970" stroke="#191970" points="712.4178,-575.3887 722.8986,-576.9386 715.6719,-569.1911 712.4178,-575.3887"/>
</g>
<!-- Node9 -->
<g id="node9" class="node">
<title>Node9</title>
<g id="a_node9"><a xlink:href="namespaceregrid__solvers.html#a0d5c3cff8f31429b0a2c6d267e8b345d" target="_top" xlink:title="Solve the tridiagonal system AX = B.">
<polygon fill="#ffffff" stroke="#000000" points="719,-626 719,-656 832,-656 832,-626 719,-626"/>
<text text-anchor="start" x="727" y="-644" font-family="Helvetica,sans-Serif" font-size="10.00" fill="#000000">regrid_solvers::solve</text>
<text text-anchor="middle" x="775.5" y="-633" font-family="Helvetica,sans-Serif" font-size="10.00" fill="#000000">_tridiagonal_system</text>
</a>
</g>
</g>
<!-- Node6&#45;&gt;Node9 -->
<g id="edge9" class="edge">
<title>Node6&#45;&gt;Node9</title>
<path fill="none" stroke="#191970" d="M658.0139,-509.1261C662.3576,-511.6424 666.4222,-514.5772 670,-518 703.5288,-550.0766 673.0788,-583.3001 706,-616 707.467,-617.4571 709.0249,-618.8299 710.6565,-620.1231"/>
<polygon fill="#191970" stroke="#191970" points="709.0929,-623.2886 719.3483,-625.949 712.9904,-617.4739 709.0929,-623.2886"/>
</g>
<!-- Node8&#45;&gt;Node2 -->
<g id="edge8" class="edge">
<title>Node8&#45;&gt;Node2</title>
<path fill="none" stroke="#191970" d="M831.3471,-607.1031C836.2272,-609.6352 840.8716,-612.5794 845,-616 891.3467,-654.4011 919.7664,-721.4932 932.5317,-757.8529"/>
<polygon fill="#191970" stroke="#191970" points="929.3323,-759.3171 935.8566,-767.6648 935.962,-757.0705 929.3323,-759.3171"/>
</g>
<!-- Node10&#45;&gt;Node7 -->
<g id="edge11" class="edge">
<title>Node10&#45;&gt;Node7</title>
<path fill="none" stroke="#191970" d="M652.803,-625.8473C658.8835,-623.0722 664.7504,-619.8152 670,-616 691.8602,-600.1128 684.2414,-583.0261 706,-567 707.879,-565.6161 709.844,-564.3074 711.8732,-563.0703"/>
<polygon fill="#191970" stroke="#191970" points="713.9692,-565.9168 721.1136,-558.0932 710.6497,-559.7539 713.9692,-565.9168"/>
</g>
<!-- Node10&#45;&gt;Node8 -->
<g id="edge12" class="edge">
<title>Node10&#45;&gt;Node8</title>
<path fill="none" stroke="#191970" d="M650.2829,-625.8986C669.2098,-620.7747 690.5245,-615.0044 710.1303,-609.6968"/>
<polygon fill="#191970" stroke="#191970" points="711.1634,-613.0432 719.9013,-607.0516 709.3342,-606.2864 711.1634,-613.0432"/>
</g>
<!-- Node10&#45;&gt;Node9 -->
<g id="edge13" class="edge">
<title>Node10&#45;&gt;Node9</title>
<path fill="none" stroke="#191970" d="M663.1864,-641C678.1375,-641 693.9331,-641 708.8054,-641"/>
<polygon fill="#191970" stroke="#191970" points="708.9324,-644.5001 718.9324,-641 708.9324,-637.5001 708.9324,-644.5001"/>
</g>
<!-- Node11&#45;&gt;Node7 -->
<g id="edge15" class="edge">
<title>Node11&#45;&gt;Node7</title>
<path fill="none" stroke="#191970" d="M650.2829,-576.8986C669.2098,-571.7747 690.5245,-566.0044 710.1303,-560.6968"/>
<polygon fill="#191970" stroke="#191970" points="711.1634,-564.0432 719.9013,-558.0516 709.3342,-557.2864 711.1634,-564.0432"/>
</g>
<!-- Node11&#45;&gt;Node8 -->
<g id="edge16" class="edge">
<title>Node11&#45;&gt;Node8</title>
<path fill="none" stroke="#191970" d="M663.1864,-592C678.1375,-592 693.9331,-592 708.8054,-592"/>
<polygon fill="#191970" stroke="#191970" points="708.9324,-595.5001 718.9324,-592 708.9324,-588.5001 708.9324,-595.5001"/>
</g>
<!-- Node11&#45;&gt;Node9 -->
<g id="edge17" class="edge">
<title>Node11&#45;&gt;Node9</title>
<path fill="none" stroke="#191970" d="M650.2829,-607.1014C669.2098,-612.2253 690.5245,-617.9956 710.1303,-623.3032"/>
<polygon fill="#191970" stroke="#191970" points="709.3342,-626.7136 719.9013,-625.9484 711.1634,-619.9568 709.3342,-626.7136"/>
</g>
<!-- Node12&#45;&gt;Node7 -->
<g id="edge19" class="edge">
<title>Node12&#45;&gt;Node7</title>
<path fill="none" stroke="#191970" d="M663.1864,-543C676.049,-543 689.5368,-543 702.5239,-543"/>
<polygon fill="#191970" stroke="#191970" points="702.8105,-546.5001 712.8105,-543 702.8105,-539.5001 702.8105,-546.5001"/>
</g>
<!-- Node12&#45;&gt;Node8 -->
<g id="edge20" class="edge">
<title>Node12&#45;&gt;Node8</title>
<path fill="none" stroke="#191970" d="M650.2829,-558.1014C669.2098,-563.2253 690.5245,-568.9956 710.1303,-574.3032"/>
<polygon fill="#191970" stroke="#191970" points="709.3342,-577.7136 719.9013,-576.9484 711.1634,-570.9568 709.3342,-577.7136"/>
</g>
<!-- Node12&#45;&gt;Node9 -->
<g id="edge21" class="edge">
<title>Node12&#45;&gt;Node9</title>
<path fill="none" stroke="#191970" d="M654.3462,-558.0347C659.8742,-560.5848 665.1951,-563.5518 670,-567 691.955,-582.7559 684.3444,-599.835 706,-616 708.4887,-617.8577 711.1285,-619.5876 713.8685,-621.1974"/>
<polygon fill="#191970" stroke="#191970" points="712.4178,-624.3887 722.8986,-625.9386 715.6719,-618.1911 712.4178,-624.3887"/>
</g>
<!-- Node18 -->
<g id="node18" class="node">
<title>Node18</title>
<g id="a_node18"><a xlink:href="namespaceppm__functions.html#a10ee2c234d48b1d9375bcd7deee7be0c" target="_top" xlink:title="Adjusts edge values using the standard PPM limiter (Colella &amp; Woodward, JCP 1984) after first checkin...">
<polygon fill="#ffffff" stroke="#000000" points="720.5,-9 720.5,-39 830.5,-39 830.5,-9 720.5,-9"/>
<text text-anchor="start" x="728.5" y="-27" font-family="Helvetica,sans-Serif" font-size="10.00" fill="#000000">ppm_functions::ppm</text>
<text text-anchor="middle" x="775.5" y="-16" font-family="Helvetica,sans-Serif" font-size="10.00" fill="#000000">_limiter_standard</text>
</a>
</g>
</g>
<!-- Node17&#45;&gt;Node18 -->
<g id="edge28" class="edge">
<title>Node17&#45;&gt;Node18</title>
<path fill="none" stroke="#191970" d="M649.7209,-297.7807C657.4322,-294.2208 664.5642,-289.4337 670,-283 738.1928,-202.2883 638.3227,-129.1445 706,-48 707.717,-45.9414 709.6199,-44.059 711.6668,-42.3377"/>
<polygon fill="#191970" stroke="#191970" points="713.9386,-45.0228 720.1862,-36.4661 709.9661,-39.2591 713.9386,-45.0228"/>
</g>
<!-- Node19 -->
<g id="node19" class="node">
<title>Node19</title>
<g id="a_node19"><a xlink:href="namespaceregrid__edge__values.html#aa3c7ea104f554d508b69efd860fc6b10" target="_top" xlink:title="Bound edge values by neighboring cell averages.">
<polygon fill="#ffffff" stroke="#000000" points="882.5,-61 882.5,-91 998.5,-91 998.5,-61 882.5,-61"/>
<text text-anchor="start" x="890.5" y="-79" font-family="Helvetica,sans-Serif" font-size="10.00" fill="#000000">regrid_edge_values</text>
<text text-anchor="middle" x="940.5" y="-68" font-family="Helvetica,sans-Serif" font-size="10.00" fill="#000000">::bound_edge_values</text>
</a>
</g>
</g>
<!-- Node18&#45;&gt;Node19 -->
<g id="edge29" class="edge">
<title>Node18&#45;&gt;Node19</title>
<path fill="none" stroke="#191970" d="M823.2248,-39.0406C841.9517,-44.9424 863.6047,-51.7663 883.1692,-57.9321"/>
<polygon fill="#191970" stroke="#191970" points="882.2928,-61.3256 892.8824,-60.9932 884.3969,-54.6492 882.2928,-61.3256"/>
</g>
<!-- Node20 -->
<g id="node20" class="node">
<title>Node20</title>
<g id="a_node20"><a xlink:href="namespaceregrid__edge__values.html#a4a496536a77bef8467c441731619761d" target="_top" xlink:title="Check discontinuous edge values and replace them with their average if not monotonic.">
<polygon fill="#ffffff" stroke="#000000" points="881,-.5 881,-41.5 1000,-41.5 1000,-.5 881,-.5"/>
<text text-anchor="start" x="889" y="-29.5" font-family="Helvetica,sans-Serif" font-size="10.00" fill="#000000">regrid_edge_values</text>
<text text-anchor="start" x="889" y="-18.5" font-family="Helvetica,sans-Serif" font-size="10.00" fill="#000000">::check_discontinuous</text>
<text text-anchor="middle" x="940.5" y="-7.5" font-family="Helvetica,sans-Serif" font-size="10.00" fill="#000000">_edge_values</text>
</a>
</g>
</g>
<!-- Node18&#45;&gt;Node20 -->
<g id="edge30" class="edge">
<title>Node18&#45;&gt;Node20</title>
<path fill="none" stroke="#191970" d="M830.9016,-22.9927C843.659,-22.7607 857.3889,-22.5111 870.6701,-22.2696"/>
<polygon fill="#191970" stroke="#191970" points="870.7806,-25.7683 880.7152,-22.087 870.6532,-18.7695 870.7806,-25.7683"/>
</g>
<!-- Node23 -->
<g id="node23" class="node">
<title>Node23</title>
<g id="a_node23"><a xlink:href="namespacepqm__functions.html#a676b4ee6f9598507052680013b407f47" target="_top" xlink:title="Limit the piecewise quartic method reconstruction.">
<polygon fill="#ffffff" stroke="#000000" points="720.5,-58 720.5,-88 830.5,-88 830.5,-58 720.5,-58"/>
<text text-anchor="start" x="728.5" y="-76" font-family="Helvetica,sans-Serif" font-size="10.00" fill="#000000">pqm_functions::pqm</text>
<text text-anchor="middle" x="775.5" y="-65" font-family="Helvetica,sans-Serif" font-size="10.00" fill="#000000">_limiter</text>
</a>
</g>
</g>
<!-- Node22&#45;&gt;Node23 -->
<g id="edge33" class="edge">
<title>Node22&#45;&gt;Node23</title>
<path fill="none" stroke="#191970" d="M649.6322,-345.0845C657.0762,-341.7443 664.1506,-337.4698 670,-332 739.5473,-266.9664 764.4522,-149.5795 772.2985,-98.2149"/>
<polygon fill="#191970" stroke="#191970" points="775.8053,-98.4171 773.7611,-88.0214 768.8762,-97.4229 775.8053,-98.4171"/>
</g>
<!-- Node23&#45;&gt;Node19 -->
<g id="edge34" class="edge">
<title>Node23&#45;&gt;Node19</title>
<path fill="none" stroke="#191970" d="M830.9016,-74.0073C844.1066,-74.2474 858.3536,-74.5064 872.0664,-74.7558"/>
<polygon fill="#191970" stroke="#191970" points="872.3603,-78.2616 882.4224,-74.944 872.4877,-71.2627 872.3603,-78.2616"/>
</g>
<!-- Node23&#45;&gt;Node20 -->
<g id="edge35" class="edge">
<title>Node23&#45;&gt;Node20</title>
<path fill="none" stroke="#191970" d="M823.2248,-57.9594C838.1216,-53.2647 854.8699,-47.9865 870.9456,-42.9202"/>
<polygon fill="#191970" stroke="#191970" points="872.36,-46.1442 880.8456,-39.8002 870.2559,-39.4679 872.36,-46.1442"/>
</g>
<!-- Node24&#45;&gt;Node2 -->
<g id="edge37" class="edge">
<title>Node24&#45;&gt;Node2</title>
<path fill="none" stroke="#191970" d="M482.259,-900.3532C568.6456,-904.9434 725.2094,-903.9634 845,-851 871.3128,-839.3662 897.6837,-819.8483 916.0264,-804.6995"/>
<polygon fill="#191970" stroke="#191970" points="918.4736,-807.2142 923.8601,-798.0908 913.9599,-801.8638 918.4736,-807.2142"/>
</g>
<!-- Node27&#45;&gt;Node2 -->
<g id="edge46" class="edge">
<title>Node27&#45;&gt;Node2</title>
<path fill="none" stroke="#191970" d="M483.1185,-786.5015C582.696,-785.7392 771.8612,-784.291 872.9025,-783.5175"/>
<polygon fill="#191970" stroke="#191970" points="873.0209,-787.0168 882.9938,-783.4402 872.9673,-780.017 873.0209,-787.0168"/>
</g>
<!-- Node27&#45;&gt;Node25 -->
<g id="edge44" class="edge">
<title>Node27&#45;&gt;Node25</title>
<path fill="none" stroke="#191970" d="M473.3614,-771.9442C491.1861,-767.0967 511.0997,-761.6811 529.5497,-756.6635"/>
<polygon fill="#191970" stroke="#191970" points="530.604,-760.004 539.335,-754.0024 528.767,-753.2494 530.604,-760.004"/>
</g>
<!-- Node27&#45;&gt;Node26 -->
<g id="edge45" class="edge">
<title>Node27&#45;&gt;Node26</title>
<path fill="none" stroke="#191970" d="M448.2582,-802.0163C468.1996,-811.7545 494.9728,-824.5303 519,-835 527.5461,-838.7239 536.7119,-842.5246 545.6078,-846.1143"/>
<polygon fill="#191970" stroke="#191970" points="544.5279,-849.4518 555.1127,-849.913 547.1257,-842.9517 544.5279,-849.4518"/>
</g>
<!-- Node28 -->
<g id="node28" class="node">
<title>Node28</title>
<g id="a_node28"><a xlink:href="namespacemom__remapping.html#a89dde73fbc6eec035c8dabc225a9c210" target="_top" xlink:title="Returns the average value of a reconstruction within a single source cell, i0, between the non&#45;dimens...">
<polygon fill="#ffffff" stroke="#000000" points="706,-812 706,-842 845,-842 845,-812 706,-812"/>
<text text-anchor="start" x="714" y="-830" font-family="Helvetica,sans-Serif" font-size="10.00" fill="#000000">mom_remapping::average</text>
<text text-anchor="middle" x="775.5" y="-819" font-family="Helvetica,sans-Serif" font-size="10.00" fill="#000000">_value_ppoly</text>
</a>
</g>
</g>
<!-- Node27&#45;&gt;Node28 -->
<g id="edge42" class="edge">
<title>Node27&#45;&gt;Node28</title>
<path fill="none" stroke="#191970" d="M483.1553,-794.2901C542.9915,-800.9851 631.8248,-810.9245 695.8535,-818.0885"/>
<polygon fill="#191970" stroke="#191970" points="695.5813,-821.5798 705.9085,-819.2135 696.3597,-814.6232 695.5813,-821.5798"/>
</g>
<!-- Node28&#45;&gt;Node2 -->
<g id="edge43" class="edge">
<title>Node28&#45;&gt;Node2</title>
<path fill="none" stroke="#191970" d="M831.8222,-811.9808C845.4196,-808.3548 860.0754,-804.4466 874.0872,-800.7101"/>
<polygon fill="#191970" stroke="#191970" points="875.3912,-803.9847 884.1517,-798.0262 873.5875,-797.2211 875.3912,-803.9847"/>
</g>
</g>
</svg>
        <g id="navigator" transform="translate(0 0)" fill="#404254">
                <rect fill="#f2f5e9" fill-opacity="0.5" stroke="#606060" stroke-width=".5" x="0" y="0" width="60" height="60"/>
                <use id="zoomplus" xlink:href="#zoomPlus" x="17" y="9" onmousedown="handleZoom(evt,'in')"/>
                <use id="zoomminus" xlink:href="#zoomMin" x="42" y="9" onmousedown="handleZoom(evt,'out')"/>
                <use id="reset" xlink:href="#resetDef" x="30" y="36" onmousedown="handleReset()"/>
                <g id="arrowUp" xlink:href="#dirArrow" transform="translate(30 24)" onmousedown="handlePan(0,-1)">
                  <use xlink:href="#rim" fill="#404040">
                        <set attributeName="fill" to="#808080" begin="arrowUp.mouseover" end="arrowUp.mouseout"/>
                  </use>
                  <path fill="none" stroke="white" stroke-width="1.5" d="M0,-3.0v7 M-2.5,-0.5L0,-3.0L2.5,-0.5"/>
                </g>
                <g id="arrowRight" xlink:href="#dirArrow" transform="rotate(90) translate(36 -43)" onmousedown="handlePan(1,0)">
                  <use xlink:href="#rim" fill="#404040">
                        <set attributeName="fill" to="#808080" begin="arrowRight.mouseover" end="arrowRight.mouseout"/>
                  </use>
                  <path fill="none" stroke="white" stroke-width="1.5" d="M0,-3.0v7 M-2.5,-0.5L0,-3.0L2.5,-0.5"/>
                </g>
                <g id="arrowDown" xlink:href="#dirArrow" transform="rotate(180) translate(-30 -48)" onmousedown="handlePan(0,1)">
                  <use xlink:href="#rim" fill="#404040">
                        <set attributeName="fill" to="#808080" begin="arrowDown.mouseover" end="arrowDown.mouseout"/>
                  </use>
                  <path fill="none" stroke="white" stroke-width="1.5" d="M0,-3.0v7 M-2.5,-0.5L0,-3.0L2.5,-0.5"/>
                </g>
                <g id="arrowLeft" xlink:href="#dirArrow" transform="rotate(270) translate(-36 17)" onmousedown="handlePan(-1,0)">
                  <use xlink:href="#rim" fill="#404040">
                        <set attributeName="fill" to="#808080" begin="arrowLeft.mouseover" end="arrowLeft.mouseout"/>
                  </use>
                  <path fill="none" stroke="white" stroke-width="1.5" d="M0,-3.0v7 M-2.5,-0.5L0,-3.0L2.5,-0.5"/>
                </g>
        </g>
        <svg viewBox="0 0 15 15" width="100%" height="30px" preserveAspectRatio="xMaxYMin meet">
         <g id="arrow_out" transform="scale(0.3 0.3)">
          <a xlink:href="namespacemom__ale__sponge_a1f297a8680a56b92ad1ac4e09f375d05_cgraph_org.svg" target="_base">
           <rect id="button" ry="5" rx="5" y="6" x="6" height="38" width="38"
                fill="#f2f5e9" fill-opacity="0.5" stroke="#606060" stroke-width="1.0"/>
           <path id="arrow"
             d="M 11.500037,31.436501 C 11.940474,20.09759 22.043105,11.32322 32.158766,21.979434 L 37.068811,17.246167 C 37.068811,17.246167 37.088388,32 37.088388,32 L 22.160133,31.978069 C 22.160133,31.978069 26.997745,27.140456 26.997745,27.140456 C 18.528582,18.264221 13.291696,25.230495 11.500037,31.436501 z"
             style="fill:#404040;"/>
          </a>
         </g>
        </svg>
</svg>
