<?xml version="1.0" encoding="UTF-8" standalone="no"?>
<!DOCTYPE svg PUBLIC "-//W3C//DTD SVG 1.1//EN"
 "http://www.w3.org/Graphics/SVG/1.1/DTD/svg11.dtd">
<!-- Generated by graphviz version 2.40.1 (20161225.0304)
 -->
<!-- Title: mom_regridding::build_grid_slight Pages: 1 -->
<svg width="752pt" height="186pt"
 viewBox="0.00 0.00 752.00 186.00" xmlns="http://www.w3.org/2000/svg" xmlns:xlink="http://www.w3.org/1999/xlink">
<g id="graph0" class="graph" transform="scale(1 1) rotate(0) translate(4 182)">
<title>mom_regridding::build_grid_slight</title>
<polygon fill="#ffffff" stroke="transparent" points="-4,4 -4,-182 748,-182 748,4 -4,4"/>
<!-- Node1 -->
<g id="node1" class="node">
<title>Node1</title>
<g id="a_node1"><a xlink:title="Builds a grid that tracks density interfaces for water that is denser than the surface density plus a...">
<polygon fill="#bfbfbf" stroke="#000000" points="0,-81.5 0,-111.5 112,-111.5 112,-81.5 0,-81.5"/>
<text text-anchor="start" x="8" y="-99.5" font-family="Helvetica,sans-Serif" font-size="10.00" fill="#000000">mom_regridding::build</text>
<text text-anchor="middle" x="56" y="-88.5" font-family="Helvetica,sans-Serif" font-size="10.00" fill="#000000">_grid_slight</text>
</a>
</g>
</g>
<!-- Node2 -->
<g id="node2" class="node">
<title>Node2</title>
<g id="a_node2"><a xlink:href="namespacemom__regridding.html#a7752ab22440e0d5f9a0b11d583acb812" target="_top" xlink:title="Adjust dz_Interface to ensure non&#45;negative future thicknesses.">
<polygon fill="#ffffff" stroke="#000000" points="323.5,-147.5 323.5,-177.5 441.5,-177.5 441.5,-147.5 323.5,-147.5"/>
<text text-anchor="start" x="331.5" y="-165.5" font-family="Helvetica,sans-Serif" font-size="10.00" fill="#000000">mom_regridding::adjust</text>
<text text-anchor="middle" x="382.5" y="-154.5" font-family="Helvetica,sans-Serif" font-size="10.00" fill="#000000">_interface_motion</text>
</a>
</g>
</g>
<!-- Node1&#45;&gt;Node2 -->
<g id="edge1" class="edge">
<title>Node1&#45;&gt;Node2</title>
<path fill="none" stroke="#191970" d="M88.5678,-111.5076C105.8816,-118.902 127.7262,-127.3208 148,-132.5 202.6459,-146.46 266.194,-154.0771 313.3416,-158.1385"/>
<polygon fill="#191970" stroke="#191970" points="313.1901,-161.6378 323.4451,-158.9762 313.7686,-154.6618 313.1901,-161.6378"/>
</g>
<!-- Node3 -->
<g id="node3" class="node">
<title>Node3</title>
<g id="a_node3"><a xlink:href="namespacemom__error__handler.html#a460cfb79a06c29fc249952c2a3710d67" target="_top" xlink:title="This provides a convenient interface for writing an mpp_error message with run&#45;time filter based on a...">
<polygon fill="#ffffff" stroke="#000000" points="496,-65.5 496,-95.5 602,-95.5 602,-65.5 496,-65.5"/>
<text text-anchor="start" x="504" y="-83.5" font-family="Helvetica,sans-Serif" font-size="10.00" fill="#000000">mom_error_handler::</text>
<text text-anchor="middle" x="549" y="-72.5" font-family="Helvetica,sans-Serif" font-size="10.00" fill="#000000">mom_error</text>
</a>
</g>
</g>
<!-- Node1&#45;&gt;Node3 -->
<g id="edge10" class="edge">
<title>Node1&#45;&gt;Node3</title>
<path fill="none" stroke="#191970" d="M112.4316,-98.6309C124.1848,-98.9931 136.4954,-99.3125 148,-99.5 286.6938,-101.7607 321.7586,-102.9192 460,-91.5 468.3642,-90.8091 477.1521,-89.9214 485.8145,-88.9505"/>
<polygon fill="#191970" stroke="#191970" points="486.3637,-92.4103 495.8928,-87.7792 485.5555,-85.4571 486.3637,-92.4103"/>
</g>
<!-- Node5 -->
<g id="node5" class="node">
<title>Node5</title>
<g id="a_node5"><a xlink:href="namespacecoord__slight.html#a89d6d137cc90ffddea5cf16b754c6e5b" target="_top" xlink:title="Build a SLight coordinate column.">
<polygon fill="#ffffff" stroke="#000000" points="161,-59.5 161,-89.5 256,-89.5 256,-59.5 161,-59.5"/>
<text text-anchor="start" x="169" y="-77.5" font-family="Helvetica,sans-Serif" font-size="10.00" fill="#000000">coord_slight::build</text>
<text text-anchor="middle" x="208.5" y="-66.5" font-family="Helvetica,sans-Serif" font-size="10.00" fill="#000000">_slight_column</text>
</a>
</g>
</g>
<!-- Node1&#45;&gt;Node5 -->
<g id="edge4" class="edge">
<title>Node1&#45;&gt;Node5</title>
<path fill="none" stroke="#191970" d="M112.3521,-88.3705C124.9386,-86.5548 138.3028,-84.6268 150.9375,-82.8041"/>
<polygon fill="#191970" stroke="#191970" points="151.4874,-86.2611 160.8851,-81.369 150.4878,-79.3328 151.4874,-86.2611"/>
</g>
<!-- Node7 -->
<g id="node7" class="node">
<title>Node7</title>
<g id="a_node7"><a xlink:href="namespacemom__regridding.html#a9dddf53999f90d1a4edc79179c5b5da4" target="_top" xlink:title="Returns the change in interface position motion after filtering and assuming the top and bottom inter...">
<polygon fill="#ffffff" stroke="#000000" points="148,-.5 148,-30.5 269,-30.5 269,-.5 148,-.5"/>
<text text-anchor="start" x="156" y="-18.5" font-family="Helvetica,sans-Serif" font-size="10.00" fill="#000000">mom_regridding::filtered</text>
<text text-anchor="middle" x="208.5" y="-7.5" font-family="Helvetica,sans-Serif" font-size="10.00" fill="#000000">_grid_motion</text>
</a>
</g>
</g>
<!-- Node1&#45;&gt;Node7 -->
<g id="edge8" class="edge">
<title>Node1&#45;&gt;Node7</title>
<path fill="none" stroke="#191970" d="M84.3267,-81.4544C108.7521,-68.4809 144.2108,-49.6471 170.9892,-35.4238"/>
<polygon fill="#191970" stroke="#191970" points="172.877,-38.3842 180.0667,-30.6023 169.5933,-32.2021 172.877,-38.3842"/>
</g>
<!-- Node2&#45;&gt;Node3 -->
<g id="edge2" class="edge">
<title>Node2&#45;&gt;Node3</title>
<path fill="none" stroke="#191970" d="M425.2539,-147.3519C436.6969,-142.9196 448.9522,-137.8238 460,-132.5 479.3153,-123.1922 500.0454,-111.2067 516.6351,-101.0888"/>
<polygon fill="#191970" stroke="#191970" points="518.7165,-103.9172 525.3904,-95.6887 515.0418,-97.9593 518.7165,-103.9172"/>
</g>
<!-- Node4 -->
<g id="node4" class="node">
<title>Node4</title>
<g id="a_node4"><a xlink:href="namespacemom__error__handler.html#ad5f00a53059c72fe2332d1436c80ca71" target="_top" xlink:title="This returns .true. if the current PE is the root PE.">
<polygon fill="#ffffff" stroke="#000000" points="638,-65.5 638,-95.5 744,-95.5 744,-65.5 638,-65.5"/>
<text text-anchor="start" x="646" y="-83.5" font-family="Helvetica,sans-Serif" font-size="10.00" fill="#000000">mom_error_handler::</text>
<text text-anchor="middle" x="691" y="-72.5" font-family="Helvetica,sans-Serif" font-size="10.00" fill="#000000">is_root_pe</text>
</a>
</g>
</g>
<!-- Node3&#45;&gt;Node4 -->
<g id="edge3" class="edge">
<title>Node3&#45;&gt;Node4</title>
<path fill="none" stroke="#191970" d="M602.2796,-80.5C610.56,-80.5 619.184,-80.5 627.6606,-80.5"/>
<polygon fill="#191970" stroke="#191970" points="627.8941,-84.0001 637.8941,-80.5 627.8941,-77.0001 627.8941,-84.0001"/>
</g>
<!-- Node5&#45;&gt;Node3 -->
<g id="edge5" class="edge">
<title>Node5&#45;&gt;Node3</title>
<path fill="none" stroke="#191970" d="M256.2036,-75.3406C316.0549,-76.3952 418.8906,-78.2073 485.3895,-79.3791"/>
<polygon fill="#191970" stroke="#191970" points="485.6779,-82.8846 495.738,-79.5615 485.8013,-75.8857 485.6779,-82.8846"/>
</g>
<!-- Node6 -->
<g id="node6" class="node">
<title>Node6</title>
<g id="a_node6"><a xlink:href="namespacecoord__slight.html#a20af96022abf0d0f4ecb17dde027b2d1" target="_top" xlink:title="Finds the new interface locations in a column of water that match the prescribed target densities.">
<polygon fill="#ffffff" stroke="#000000" points="305,-33 305,-52 460,-52 460,-33 305,-33"/>
<text text-anchor="middle" x="382.5" y="-40" font-family="Helvetica,sans-Serif" font-size="10.00" fill="#000000">coord_slight::rho_interfaces_col</text>
</a>
</g>
</g>
<!-- Node5&#45;&gt;Node6 -->
<g id="edge6" class="edge">
<title>Node5&#45;&gt;Node6</title>
<path fill="none" stroke="#191970" d="M256.0463,-65.7559C276.0251,-62.0816 299.5257,-57.7596 320.812,-53.8449"/>
<polygon fill="#191970" stroke="#191970" points="321.534,-57.2709 330.736,-52.0198 320.2678,-50.3864 321.534,-57.2709"/>
</g>
<!-- Node6&#45;&gt;Node3 -->
<g id="edge7" class="edge">
<title>Node6&#45;&gt;Node3</title>
<path fill="none" stroke="#191970" d="M424.515,-52.089C443.1425,-56.3403 465.455,-61.4327 486.0123,-66.1244"/>
<polygon fill="#191970" stroke="#191970" points="485.4112,-69.5772 495.9393,-68.3901 486.9688,-62.7527 485.4112,-69.5772"/>
</g>
<!-- Node7&#45;&gt;Node3 -->
<g id="edge9" class="edge">
<title>Node7&#45;&gt;Node3</title>
<path fill="none" stroke="#191970" d="M269.1817,-8.5532C321.068,-4.6862 397.0997,-3.9934 460,-23.5 483.4304,-30.7662 506.662,-45.9892 523.5119,-58.8764"/>
<polygon fill="#191970" stroke="#191970" points="521.6913,-61.8984 531.7088,-65.3481 526.0291,-56.4044 521.6913,-61.8984"/>
</g>
</g>
</svg>
