<?xml version="1.0" encoding="UTF-8" standalone="no"?>
<!DOCTYPE svg PUBLIC "-//W3C//DTD SVG 1.1//EN"
 "http://www.w3.org/Graphics/SVG/1.1/DTD/svg11.dtd">
<!-- Generated by graphviz version 2.40.1 (20161225.0304)
 -->
<!-- Title: mom_meke::meke_lengthscales Pages: 1 -->
<svg width="790pt" height="28pt"
 viewBox="0.00 0.00 790.00 28.00" xmlns="http://www.w3.org/2000/svg" xmlns:xlink="http://www.w3.org/1999/xlink">
<g id="graph0" class="graph" transform="scale(1 1) rotate(0) translate(4 24)">
<title>mom_meke::meke_lengthscales</title>
<polygon fill="#ffffff" stroke="transparent" points="-4,4 -4,-24 786,-24 786,4 -4,4"/>
<!-- Node1 -->
<g id="node1" class="node">
<title>Node1</title>
<g id="a_node1"><a xlink:title="Calculates the eddy mixing length scale and &#160;and &#160;functions that are ratios of either bottom or barot...">
<polygon fill="#bfbfbf" stroke="#000000" points="616,-.5 616,-19.5 782,-19.5 782,-.5 616,-.5"/>
<text text-anchor="middle" x="699" y="-7.5" font-family="Helvetica,sans-Serif" font-size="10.00" fill="#000000">mom_meke::meke_lengthscales</text>
</a>
</g>
</g>
<!-- Node2 -->
<g id="node2" class="node">
<title>Node2</title>
<g id="a_node2"><a xlink:href="namespacemom__meke.html#a5f752f097ddeba7071e1703110e51bc2" target="_top" xlink:title="Integrates forward&#45;in&#45;time the MEKE eddy energy equation. See MEKE equations.">
<polygon fill="#ffffff" stroke="#000000" points="411,-.5 411,-19.5 580,-19.5 580,-.5 411,-.5"/>
<text text-anchor="middle" x="495.5" y="-7.5" font-family="Helvetica,sans-Serif" font-size="10.00" fill="#000000">mom_meke::step_forward_meke</text>
</a>
</g>
</g>
<!-- Node1&#45;&gt;Node2 -->
<g id="edge1" class="edge">
<title>Node1&#45;&gt;Node2</title>
<path fill="none" stroke="#191970" d="M605.667,-10C597.204,-10 588.6629,-10 580.2799,-10"/>
<polygon fill="#191970" stroke="#191970" points="605.9353,-13.5001 615.9352,-10 605.9352,-6.5001 605.9353,-13.5001"/>
</g>
<!-- Node3 -->
<g id="node3" class="node">
<title>Node3</title>
<g id="a_node3"><a xlink:href="namespacemom.html#a42ee7e91ffcf1340679e29ab28d9b41d" target="_top" xlink:title="Time step the ocean dynamics, including the momentum and continuity equations.">
<polygon fill="#ffffff" stroke="#000000" points="232,-.5 232,-19.5 375,-19.5 375,-.5 232,-.5"/>
<text text-anchor="middle" x="303.5" y="-7.5" font-family="Helvetica,sans-Serif" font-size="10.00" fill="#000000">mom::step_mom_dynamics</text>
</a>
</g>
</g>
<!-- Node2&#45;&gt;Node3 -->
<g id="edge2" class="edge">
<title>Node2&#45;&gt;Node3</title>
<path fill="none" stroke="#191970" d="M400.6868,-10C392.115,-10 383.5306,-10 375.207,-10"/>
<polygon fill="#191970" stroke="#191970" points="400.7271,-13.5001 410.7271,-10 400.7271,-6.5001 400.7271,-13.5001"/>
</g>
<!-- Node4 -->
<g id="node4" class="node">
<title>Node4</title>
<g id="a_node4"><a xlink:href="namespacemom.html#a972730596703580d4646320f2c9085a5" target="_top" xlink:title="This subroutine orchestrates the time stepping of MOM. The adiabatic dynamics are stepped by calls to...">
<polygon fill="#ffffff" stroke="#000000" points="104,-.5 104,-19.5 196,-19.5 196,-.5 104,-.5"/>
<text text-anchor="middle" x="150" y="-7.5" font-family="Helvetica,sans-Serif" font-size="10.00" fill="#000000">mom::step_mom</text>
</a>
</g>
</g>
<!-- Node3&#45;&gt;Node4 -->
<g id="edge3" class="edge">
<title>Node3&#45;&gt;Node4</title>
<path fill="none" stroke="#191970" d="M221.5429,-10C212.908,-10 204.3614,-10 196.343,-10"/>
<polygon fill="#191970" stroke="#191970" points="221.6938,-13.5001 231.6937,-10 221.6937,-6.5001 221.6938,-13.5001"/>
</g>
<!-- Node5 -->
<g id="node5" class="node">
<title>Node5</title>
<g id="a_node5"><a xlink:href="MOM__driver_8F90.html#a08fffeb2d8e8acbf9ed4609be6d258c6" target="_top" xlink:title=" ">
<polygon fill="#ffffff" stroke="#000000" points="0,-.5 0,-19.5 68,-19.5 68,-.5 0,-.5"/>
<text text-anchor="middle" x="34" y="-7.5" font-family="Helvetica,sans-Serif" font-size="10.00" fill="#000000">mom_main</text>
</a>
</g>
</g>
<!-- Node4&#45;&gt;Node5 -->
<g id="edge4" class="edge">
<title>Node4&#45;&gt;Node5</title>
<path fill="none" stroke="#191970" d="M93.6813,-10C84.9846,-10 76.2375,-10 68.2229,-10"/>
<polygon fill="#191970" stroke="#191970" points="93.8205,-13.5001 103.8204,-10 93.8204,-6.5001 93.8205,-13.5001"/>
</g>
</g>
</svg>
