<?xml version="1.0" encoding="UTF-8" standalone="no"?>
<!DOCTYPE svg PUBLIC "-//W3C//DTD SVG 1.1//EN"
 "http://www.w3.org/Graphics/SVG/1.1/DTD/svg11.dtd">
<!-- Generated by graphviz version 2.40.1 (20161225.0304)
 -->
<!-- Title: mom_regridding::get_sigma_cs Pages: 1 -->
<svg width="267pt" height="39pt"
 viewBox="0.00 0.00 267.00 39.00" xmlns="http://www.w3.org/2000/svg" xmlns:xlink="http://www.w3.org/1999/xlink">
<g id="graph0" class="graph" transform="scale(1 1) rotate(0) translate(4 35)">
<title>mom_regridding::get_sigma_cs</title>
<polygon fill="#ffffff" stroke="transparent" points="-4,4 -4,-35 263,-35 263,4 -4,4"/>
<!-- Node1 -->
<g id="node1" class="node">
<title>Node1</title>
<g id="a_node1"><a xlink:title="This returns a copy of the sigma_CS stored in the regridding control structure.">
<polygon fill="#bfbfbf" stroke="#000000" points="154,-.5 154,-30.5 259,-30.5 259,-.5 154,-.5"/>
<text text-anchor="start" x="162" y="-18.5" font-family="Helvetica,sans-Serif" font-size="10.00" fill="#000000">mom_regridding::get</text>
<text text-anchor="middle" x="206.5" y="-7.5" font-family="Helvetica,sans-Serif" font-size="10.00" fill="#000000">_sigma_cs</text>
</a>
</g>
</g>
<!-- Node2 -->
<g id="node2" class="node">
<title>Node2</title>
<g id="a_node2"><a xlink:href="namespacemom__diag__remap.html#a1951a63528283e209401e317872f650b" target="_top" xlink:title="Build/update target vertical grids for diagnostic remapping.">
<polygon fill="#ffffff" stroke="#000000" points="0,-.5 0,-30.5 118,-30.5 118,-.5 0,-.5"/>
<text text-anchor="start" x="8" y="-18.5" font-family="Helvetica,sans-Serif" font-size="10.00" fill="#000000">mom_diag_remap::diag</text>
<text text-anchor="middle" x="59" y="-7.5" font-family="Helvetica,sans-Serif" font-size="10.00" fill="#000000">_remap_update</text>
</a>
</g>
</g>
<!-- Node1&#45;&gt;Node2 -->
<g id="edge1" class="edge">
<title>Node1&#45;&gt;Node2</title>
<path fill="none" stroke="#191970" d="M143.5466,-15.5C135.1485,-15.5 126.5594,-15.5 118.2278,-15.5"/>
<polygon fill="#191970" stroke="#191970" points="143.6658,-19.0001 153.6657,-15.5 143.6657,-12.0001 143.6658,-19.0001"/>
</g>
</g>
</svg>
