<?xml version="1.0" encoding="UTF-8" standalone="no"?>
<!DOCTYPE svg PUBLIC "-//W3C//DTD SVG 1.1//EN"
 "http://www.w3.org/Graphics/SVG/1.1/DTD/svg11.dtd">
<!-- Generated by graphviz version 2.40.1 (20161225.0304)
 -->
<!-- Title: dyed_obcs_initialization::dyed_obcs_set_obc_data Pages: 1 -->
<svg width="507pt" height="88pt"
 viewBox="0.00 0.00 507.00 88.00" xmlns="http://www.w3.org/2000/svg" xmlns:xlink="http://www.w3.org/1999/xlink">
<g id="graph0" class="graph" transform="scale(1 1) rotate(0) translate(4 84)">
<title>dyed_obcs_initialization::dyed_obcs_set_obc_data</title>
<polygon fill="#ffffff" stroke="transparent" points="-4,4 -4,-84 503,-84 503,4 -4,4"/>
<!-- Node1 -->
<g id="node1" class="node">
<title>Node1</title>
<g id="a_node1"><a xlink:title="This subroutine sets the dye properties at open boundary conditions.">
<polygon fill="#bfbfbf" stroke="#000000" points="0,-24.5 0,-54.5 142,-54.5 142,-24.5 0,-24.5"/>
<text text-anchor="start" x="8" y="-42.5" font-family="Helvetica,sans-Serif" font-size="10.00" fill="#000000">dyed_obcs_initialization</text>
<text text-anchor="middle" x="71" y="-31.5" font-family="Helvetica,sans-Serif" font-size="10.00" fill="#000000">::dyed_obcs_set_obc_data</text>
</a>
</g>
</g>
<!-- Node2 -->
<g id="node2" class="node">
<title>Node2</title>
<g id="a_node2"><a xlink:href="namespacemom__error__handler.html#a460cfb79a06c29fc249952c2a3710d67" target="_top" xlink:title="This provides a convenient interface for writing an mpp_error message with run&#45;time filter based on a...">
<polygon fill="#ffffff" stroke="#000000" points="187,-49.5 187,-79.5 302,-79.5 302,-49.5 187,-49.5"/>
<text text-anchor="start" x="195" y="-67.5" font-family="Helvetica,sans-Serif" font-size="10.00" fill="#000000">mom_error_handler::</text>
<text text-anchor="middle" x="244.5" y="-56.5" font-family="Helvetica,sans-Serif" font-size="10.00" fill="#000000">mom_error</text>
</a>
</g>
</g>
<!-- Node1&#45;&gt;Node2 -->
<g id="edge1" class="edge">
<title>Node1&#45;&gt;Node2</title>
<path fill="none" stroke="#191970" d="M142.0697,-49.7406C153.4619,-51.3821 165.2274,-53.0774 176.5445,-54.7081"/>
<polygon fill="#191970" stroke="#191970" points="176.3912,-58.2221 186.7882,-56.1842 177.3896,-51.2937 176.3912,-58.2221"/>
</g>
<!-- Node4 -->
<g id="node4" class="node">
<title>Node4</title>
<g id="a_node4"><a xlink:href="namespacemom__open__boundary.html#a5d5843dd1a4e1475f69b5eb2c5b0197d" target="_top" xlink:title=" ">
<polygon fill="#ffffff" stroke="#000000" points="178,-.5 178,-30.5 311,-30.5 311,-.5 178,-.5"/>
<text text-anchor="start" x="186" y="-18.5" font-family="Helvetica,sans-Serif" font-size="10.00" fill="#000000">mom_open_boundary::</text>
<text text-anchor="middle" x="244.5" y="-7.5" font-family="Helvetica,sans-Serif" font-size="10.00" fill="#000000">register_segment_tracer</text>
</a>
</g>
</g>
<!-- Node1&#45;&gt;Node4 -->
<g id="edge3" class="edge">
<title>Node1&#45;&gt;Node4</title>
<path fill="none" stroke="#191970" d="M142.0697,-29.669C150.5448,-28.4967 159.2264,-27.2958 167.7764,-26.1131"/>
<polygon fill="#191970" stroke="#191970" points="168.3064,-29.5732 177.7325,-24.7358 167.3472,-22.6392 168.3064,-29.5732"/>
</g>
<!-- Node3 -->
<g id="node3" class="node">
<title>Node3</title>
<g id="a_node3"><a xlink:href="namespacemom__error__handler.html#ad5f00a53059c72fe2332d1436c80ca71" target="_top" xlink:title="This returns .true. if the current PE is the root PE.">
<polygon fill="#ffffff" stroke="#000000" points="365.5,-49.5 365.5,-79.5 480.5,-79.5 480.5,-49.5 365.5,-49.5"/>
<text text-anchor="start" x="373.5" y="-67.5" font-family="Helvetica,sans-Serif" font-size="10.00" fill="#000000">mom_error_handler::</text>
<text text-anchor="middle" x="423" y="-56.5" font-family="Helvetica,sans-Serif" font-size="10.00" fill="#000000">is_root_pe</text>
</a>
</g>
</g>
<!-- Node2&#45;&gt;Node3 -->
<g id="edge2" class="edge">
<title>Node2&#45;&gt;Node3</title>
<path fill="none" stroke="#191970" d="M302.4538,-64.5C319.3031,-64.5 337.8562,-64.5 355.2508,-64.5"/>
<polygon fill="#191970" stroke="#191970" points="355.337,-68.0001 365.3369,-64.5 355.3369,-61.0001 355.337,-68.0001"/>
</g>
<!-- Node5 -->
<g id="node5" class="node">
<title>Node5</title>
<g id="a_node5"><a xlink:href="namespacemom__open__boundary.html#adcd9637c6cc17658fe064ce1dc1011bf" target="_top" xlink:title="Initialize the segment tracer registry.">
<polygon fill="#ffffff" stroke="#000000" points="347,-.5 347,-30.5 499,-30.5 499,-.5 347,-.5"/>
<text text-anchor="start" x="355" y="-18.5" font-family="Helvetica,sans-Serif" font-size="10.00" fill="#000000">mom_open_boundary::</text>
<text text-anchor="middle" x="423" y="-7.5" font-family="Helvetica,sans-Serif" font-size="10.00" fill="#000000">segment_tracer_registry_init</text>
</a>
</g>
</g>
<!-- Node4&#45;&gt;Node5 -->
<g id="edge4" class="edge">
<title>Node4&#45;&gt;Node5</title>
<path fill="none" stroke="#191970" d="M311.2206,-15.5C319.548,-15.5 328.1552,-15.5 336.7259,-15.5"/>
<polygon fill="#191970" stroke="#191970" points="336.7513,-19.0001 346.7513,-15.5 336.7513,-12.0001 336.7513,-19.0001"/>
</g>
</g>
</svg>
