<?xml version="1.0" encoding="UTF-8" standalone="no"?>
<!DOCTYPE svg PUBLIC "-//W3C//DTD SVG 1.1//EN"
 "http://www.w3.org/Graphics/SVG/1.1/DTD/svg11.dtd">
<!-- Generated by graphviz version 2.40.1 (20161225.0304)
 -->
<!-- Title: external_gwave_initialization::external_gwave_initialize_thickness Pages: 1 -->
<svg width="433pt" height="50pt"
 viewBox="0.00 0.00 433.00 50.00" xmlns="http://www.w3.org/2000/svg" xmlns:xlink="http://www.w3.org/1999/xlink">
<g id="graph0" class="graph" transform="scale(1 1) rotate(0) translate(4 46)">
<title>external_gwave_initialization::external_gwave_initialize_thickness</title>
<polygon fill="#ffffff" stroke="transparent" points="-4,4 -4,-46 429,-46 429,4 -4,4"/>
<!-- Node1 -->
<g id="node1" class="node">
<title>Node1</title>
<g id="a_node1"><a xlink:title="This subroutine initializes layer thicknesses for the external_gwave experiment.">
<polygon fill="#bfbfbf" stroke="#000000" points="0,-.5 0,-41.5 141,-41.5 141,-.5 0,-.5"/>
<text text-anchor="start" x="8" y="-29.5" font-family="Helvetica,sans-Serif" font-size="10.00" fill="#000000">external_gwave_initialization</text>
<text text-anchor="start" x="8" y="-18.5" font-family="Helvetica,sans-Serif" font-size="10.00" fill="#000000">::external_gwave_initialize</text>
<text text-anchor="middle" x="70.5" y="-7.5" font-family="Helvetica,sans-Serif" font-size="10.00" fill="#000000">_thickness</text>
</a>
</g>
</g>
<!-- Node2 -->
<g id="node2" class="node">
<title>Node2</title>
<g id="a_node2"><a xlink:href="namespacemom__error__handler.html#a1c462df7b61f1296407b4af51dfeceab" target="_top" xlink:title="This provides a convenient interface for writing an informative comment.">
<polygon fill="#ffffff" stroke="#000000" points="177,-6 177,-36 283,-36 283,-6 177,-6"/>
<text text-anchor="start" x="185" y="-24" font-family="Helvetica,sans-Serif" font-size="10.00" fill="#000000">mom_error_handler::</text>
<text text-anchor="middle" x="230" y="-13" font-family="Helvetica,sans-Serif" font-size="10.00" fill="#000000">mom_mesg</text>
</a>
</g>
</g>
<!-- Node1&#45;&gt;Node2 -->
<g id="edge1" class="edge">
<title>Node1&#45;&gt;Node2</title>
<path fill="none" stroke="#191970" d="M141.3879,-21C149.6949,-21 158.1318,-21 166.332,-21"/>
<polygon fill="#191970" stroke="#191970" points="166.5648,-24.5001 176.5648,-21 166.5647,-17.5001 166.5648,-24.5001"/>
</g>
<!-- Node3 -->
<g id="node3" class="node">
<title>Node3</title>
<g id="a_node3"><a xlink:href="namespacemom__error__handler.html#ad5f00a53059c72fe2332d1436c80ca71" target="_top" xlink:title="This returns .true. if the current PE is the root PE.">
<polygon fill="#ffffff" stroke="#000000" points="319,-6 319,-36 425,-36 425,-6 319,-6"/>
<text text-anchor="start" x="327" y="-24" font-family="Helvetica,sans-Serif" font-size="10.00" fill="#000000">mom_error_handler::</text>
<text text-anchor="middle" x="372" y="-13" font-family="Helvetica,sans-Serif" font-size="10.00" fill="#000000">is_root_pe</text>
</a>
</g>
</g>
<!-- Node2&#45;&gt;Node3 -->
<g id="edge2" class="edge">
<title>Node2&#45;&gt;Node3</title>
<path fill="none" stroke="#191970" d="M283.2796,-21C291.56,-21 300.184,-21 308.6606,-21"/>
<polygon fill="#191970" stroke="#191970" points="308.8941,-24.5001 318.8941,-21 308.8941,-17.5001 308.8941,-24.5001"/>
</g>
</g>
</svg>
