<?xml version="1.0" encoding="UTF-8" standalone="no"?>
<!DOCTYPE svg PUBLIC "-//W3C//DTD SVG 1.1//EN"
 "http://www.w3.org/Graphics/SVG/1.1/DTD/svg11.dtd">
<!-- Generated by graphviz version 2.40.1 (20161225.0304)
 -->
<!-- Title: mom_tidal_forcing::find_in_files Pages: 1 -->
<svg width="403pt" height="160pt"
 viewBox="0.00 0.00 403.00 160.00" xmlns="http://www.w3.org/2000/svg" xmlns:xlink="http://www.w3.org/1999/xlink">
<g id="graph0" class="graph" transform="scale(1 1) rotate(0) translate(4 156)">
<title>mom_tidal_forcing::find_in_files</title>
<polygon fill="#ffffff" stroke="transparent" points="-4,4 -4,-156 399,-156 399,4 -4,4"/>
<!-- Node1 -->
<g id="node1" class="node">
<title>Node1</title>
<g id="a_node1"><a xlink:title="This subroutine finds a named variable in a list of files and reads its values into a domain&#45;decompos...">
<polygon fill="#bfbfbf" stroke="#000000" points="293,-61 293,-91 395,-91 395,-61 293,-61"/>
<text text-anchor="start" x="301" y="-79" font-family="Helvetica,sans-Serif" font-size="10.00" fill="#000000">mom_tidal_forcing::</text>
<text text-anchor="middle" x="344" y="-68" font-family="Helvetica,sans-Serif" font-size="10.00" fill="#000000">find_in_files</text>
</a>
</g>
</g>
<!-- Node2 -->
<g id="node2" class="node">
<title>Node2</title>
<g id="a_node2"><a xlink:href="namespacemom__tidal__forcing.html#aee336a2affeebc78b75845bc6f78a320" target="_top" xlink:title="This subroutine allocates space for the static variables used by this module. The metrics may be effe...">
<polygon fill="#ffffff" stroke="#000000" points="155,-61 155,-91 257,-91 257,-61 155,-61"/>
<text text-anchor="start" x="163" y="-79" font-family="Helvetica,sans-Serif" font-size="10.00" fill="#000000">mom_tidal_forcing::</text>
<text text-anchor="middle" x="206" y="-68" font-family="Helvetica,sans-Serif" font-size="10.00" fill="#000000">tidal_forcing_init</text>
</a>
</g>
</g>
<!-- Node1&#45;&gt;Node2 -->
<g id="edge1" class="edge">
<title>Node1&#45;&gt;Node2</title>
<path fill="none" stroke="#191970" d="M282.5043,-76C274.128,-76 265.6023,-76 257.429,-76"/>
<polygon fill="#191970" stroke="#191970" points="282.6139,-79.5001 292.6139,-76 282.6139,-72.5001 282.6139,-79.5001"/>
</g>
<!-- Node3 -->
<g id="node3" class="node">
<title>Node3</title>
<g id="a_node3"><a xlink:href="namespacemom__dynamics__split__rk2.html#aa9a0a027754d3ca2d49f3993bc64b1b7" target="_top" xlink:title="This subroutine initializes all of the variables that are used by this dynamic core,...">
<polygon fill="#ffffff" stroke="#000000" points="5,-110.5 5,-151.5 114,-151.5 114,-110.5 5,-110.5"/>
<text text-anchor="start" x="13" y="-139.5" font-family="Helvetica,sans-Serif" font-size="10.00" fill="#000000">mom_dynamics_split</text>
<text text-anchor="start" x="13" y="-128.5" font-family="Helvetica,sans-Serif" font-size="10.00" fill="#000000">_rk2::initialize_dyn</text>
<text text-anchor="middle" x="59.5" y="-117.5" font-family="Helvetica,sans-Serif" font-size="10.00" fill="#000000">_split_rk2</text>
</a>
</g>
</g>
<!-- Node2&#45;&gt;Node3 -->
<g id="edge2" class="edge">
<title>Node2&#45;&gt;Node3</title>
<path fill="none" stroke="#191970" d="M156.3099,-94.655C142.7087,-99.7612 127.8947,-105.3228 114.0382,-110.5249"/>
<polygon fill="#191970" stroke="#191970" points="157.8364,-97.8205 165.9682,-91.029 155.3761,-91.2671 157.8364,-97.8205"/>
</g>
<!-- Node4 -->
<g id="node4" class="node">
<title>Node4</title>
<g id="a_node4"><a xlink:href="namespacemom__dynamics__unsplit.html#a60f13a45463d31749046a7908a5a589e" target="_top" xlink:title="Initialize parameters and allocate memory associated with the unsplit dynamics module.">
<polygon fill="#ffffff" stroke="#000000" points="0,-61 0,-91 119,-91 119,-61 0,-61"/>
<text text-anchor="start" x="8" y="-79" font-family="Helvetica,sans-Serif" font-size="10.00" fill="#000000">mom_dynamics_unsplit</text>
<text text-anchor="middle" x="59.5" y="-68" font-family="Helvetica,sans-Serif" font-size="10.00" fill="#000000">::initialize_dyn_unsplit</text>
</a>
</g>
</g>
<!-- Node2&#45;&gt;Node4 -->
<g id="edge3" class="edge">
<title>Node2&#45;&gt;Node4</title>
<path fill="none" stroke="#191970" d="M144.6473,-76C136.243,-76 127.624,-76 119.2489,-76"/>
<polygon fill="#191970" stroke="#191970" points="144.7614,-79.5001 154.7614,-76 144.7614,-72.5001 144.7614,-79.5001"/>
</g>
<!-- Node5 -->
<g id="node5" class="node">
<title>Node5</title>
<g id="a_node5"><a xlink:href="namespacemom__dynamics__unsplit__rk2.html#a1e1bea48a35b64c87b5b9d0965378592" target="_top" xlink:title="Initialize parameters and allocate memory associated with the unsplit RK2 dynamics module.">
<polygon fill="#ffffff" stroke="#000000" points="0,-.5 0,-41.5 119,-41.5 119,-.5 0,-.5"/>
<text text-anchor="start" x="8" y="-29.5" font-family="Helvetica,sans-Serif" font-size="10.00" fill="#000000">mom_dynamics_unsplit</text>
<text text-anchor="start" x="8" y="-18.5" font-family="Helvetica,sans-Serif" font-size="10.00" fill="#000000">_rk2::initialize_dyn</text>
<text text-anchor="middle" x="59.5" y="-7.5" font-family="Helvetica,sans-Serif" font-size="10.00" fill="#000000">_unsplit_rk2</text>
</a>
</g>
</g>
<!-- Node2&#45;&gt;Node5 -->
<g id="edge4" class="edge">
<title>Node2&#45;&gt;Node5</title>
<path fill="none" stroke="#191970" d="M156.3623,-57.3647C142.8362,-52.2866 128.1073,-46.757 114.3116,-41.5777"/>
<polygon fill="#191970" stroke="#191970" points="155.3761,-60.7329 165.9682,-60.971 157.8364,-54.1795 155.3761,-60.7329"/>
</g>
</g>
</svg>
