<?xml version="1.0" encoding="UTF-8" standalone="no"?>
<!DOCTYPE svg PUBLIC "-//W3C//DTD SVG 1.1//EN"
 "http://www.w3.org/Graphics/SVG/1.1/DTD/svg11.dtd">
<!-- Generated by graphviz version 2.40.1 (20161225.0304)
 -->
<!-- Title: mom_error_handler::assert Pages: 1 -->
<!--zoomable 1016 -->
<svg id="main" version="1.1" xmlns="http://www.w3.org/2000/svg" xmlns:xlink="http://www.w3.org/1999/xlink" xml:space="preserve" onload="init(evt)">
<style type="text/css"><![CDATA[
.edge:hover path { stroke: red; }
.edge:hover polygon { stroke: red; fill: red; }
]]></style>
<script type="text/javascript"><![CDATA[
var edges = document.getElementsByTagName('g');
if (edges && edges.length) {
  for (var i=0;i<edges.length;i++) {
    if (edges[i].id.substr(0,4)=='edge') {
      edges[i].setAttribute('class','edge');
    }
  }
}
]]></script>
        <defs>
                <circle id="rim" cx="0" cy="0" r="7"/>
                <circle id="rim2" cx="0" cy="0" r="3.5"/>
                <g id="zoomPlus">
                        <use xlink:href="#rim" fill="#404040">
                                <set attributeName="fill" to="#808080" begin="zoomplus.mouseover" end="zoomplus.mouseout"/>
                        </use>
                        <path d="M-4,0h8M0,-4v8" fill="none" stroke="white" stroke-width="1.5" pointer-events="none"/>
                </g>
                <g id="zoomMin">
                        <use xlink:href="#rim" fill="#404040">
                                <set attributeName="fill" to="#808080" begin="zoomminus.mouseover" end="zoomminus.mouseout"/>
                        </use>
                        <path d="M-4,0h8" fill="none" stroke="white" stroke-width="1.5" pointer-events="none"/>
                </g>
                <g id="dirArrow">
                        <path fill="none" stroke="white" stroke-width="1.5" d="M0,-3.0v7 M-2.5,-0.5L0,-3.0L2.5,-0.5"/>
                </g>
               <g id="resetDef">
                       <use xlink:href="#rim2" fill="#404040">
                               <set attributeName="fill" to="#808080" begin="reset.mouseover" end="reset.mouseout"/>
                       </use>
               </g>
        </defs>

<script type="text/javascript">
var viewWidth = 1143;
var viewHeight = 1016;
var sectionId = 'dynsection-1';
</script>
<script xlink:href="svgpan.js"/>
<svg id="graph" class="graph">
<g id="viewport">
<title>mom_error_handler::assert</title>
<polygon fill="#ffffff" stroke="transparent" points="-4,4 -4,-1011.5 1139,-1011.5 1139,4 -4,4"/>
<!-- Node1 -->
<g id="node1" class="node">
<title>Node1</title>
<g id="a_node1"><a xlink:title="Issues a FATAL error if the assertion fails, i.e. the first argument is false.">
<polygon fill="#bfbfbf" stroke="#000000" points="1029,-372.5 1029,-402.5 1135,-402.5 1135,-372.5 1029,-372.5"/>
<text text-anchor="start" x="1037" y="-390.5" font-family="Helvetica,sans-Serif" font-size="10.00" fill="#000000">mom_error_handler::</text>
<text text-anchor="middle" x="1082" y="-379.5" font-family="Helvetica,sans-Serif" font-size="10.00" fill="#000000">assert</text>
</a>
</g>
</g>
<!-- Node2 -->
<g id="node2" class="node">
<title>Node2</title>
<g id="a_node2"><a xlink:href="namespacemom__diag__mediator.html#a8415b33a337b1fbc7535688eca85ab37" target="_top" xlink:title="Create a diagnostic type and attached to list.">
<polygon fill="#ffffff" stroke="#000000" points="698,-713.5 698,-743.5 808,-743.5 808,-713.5 698,-713.5"/>
<text text-anchor="start" x="706" y="-731.5" font-family="Helvetica,sans-Serif" font-size="10.00" fill="#000000">mom_diag_mediator::</text>
<text text-anchor="middle" x="753" y="-720.5" font-family="Helvetica,sans-Serif" font-size="10.00" fill="#000000">add_diag_to_list</text>
</a>
</g>
</g>
<!-- Node1&#45;&gt;Node2 -->
<g id="edge1" class="edge">
<title>Node1&#45;&gt;Node2</title>
<path fill="none" stroke="#191970" d="M1078.4689,-413.0845C1068.52,-481.2151 1038.0205,-664.4508 993,-702.5 942.0246,-745.582 861.5966,-745.1252 808.0852,-738.6265"/>
<polygon fill="#191970" stroke="#191970" points="1081.9857,-413.2162 1079.9384,-402.8211 1075.0563,-412.2241 1081.9857,-413.2162"/>
</g>
<!-- Node18 -->
<g id="node18" class="node">
<title>Node18</title>
<g id="a_node18"><a xlink:href="namespacemom__diag__remap.html#a5b0f7f8140918d3567bcc568cda0932e" target="_top" xlink:title="Calculate masks for target grid.">
<polygon fill="#ffffff" stroke="#000000" points="859.5,-547.5 859.5,-577.5 977.5,-577.5 977.5,-547.5 859.5,-547.5"/>
<text text-anchor="start" x="867.5" y="-565.5" font-family="Helvetica,sans-Serif" font-size="10.00" fill="#000000">mom_diag_remap::diag</text>
<text text-anchor="middle" x="918.5" y="-554.5" font-family="Helvetica,sans-Serif" font-size="10.00" fill="#000000">_remap_calc_hmask</text>
</a>
</g>
</g>
<!-- Node1&#45;&gt;Node18 -->
<g id="edge17" class="edge">
<title>Node1&#45;&gt;Node18</title>
<path fill="none" stroke="#191970" d="M1073.7596,-412.3088C1061.4158,-445.7327 1034.9854,-504.8989 993,-538.5 988.3319,-542.2359 983.0676,-545.3966 977.5501,-548.0694"/>
<polygon fill="#191970" stroke="#191970" points="1077.0814,-413.4138 1077.1398,-402.8191 1070.4872,-411.0649 1077.0814,-413.4138"/>
</g>
<!-- Node19 -->
<g id="node19" class="node">
<title>Node19</title>
<g id="a_node19"><a xlink:href="namespacemom__diag__remap.html#ac004e8411a2391dd4fff667714d7a539" target="_top" xlink:title="Remap diagnostic field to alternative vertical grid.">
<polygon fill="#ffffff" stroke="#000000" points="859.5,-498.5 859.5,-528.5 977.5,-528.5 977.5,-498.5 859.5,-498.5"/>
<text text-anchor="start" x="867.5" y="-516.5" font-family="Helvetica,sans-Serif" font-size="10.00" fill="#000000">mom_diag_remap::diag</text>
<text text-anchor="middle" x="918.5" y="-505.5" font-family="Helvetica,sans-Serif" font-size="10.00" fill="#000000">_remap_do_remap</text>
</a>
</g>
</g>
<!-- Node1&#45;&gt;Node19 -->
<g id="edge18" class="edge">
<title>Node1&#45;&gt;Node19</title>
<path fill="none" stroke="#191970" d="M1065.0991,-410.9751C1048.7143,-432.3164 1022.12,-463.4486 993,-483.5 984.5018,-489.3517 974.6916,-494.3271 965.038,-498.4438"/>
<polygon fill="#191970" stroke="#191970" points="1068.0588,-412.8626 1071.27,-402.7661 1062.4635,-408.6564 1068.0588,-412.8626"/>
</g>
<!-- Node20 -->
<g id="node20" class="node">
<title>Node20</title>
<g id="a_node20"><a xlink:href="namespacemom__diag__mediator.html#a3f7442639213320f7429e2288a79fda2" target="_top" xlink:title="Returns a new diagnostic id, it may be necessary to expand the diagnostics array.">
<polygon fill="#ffffff" stroke="#000000" points="863.5,-635.5 863.5,-665.5 973.5,-665.5 973.5,-635.5 863.5,-635.5"/>
<text text-anchor="start" x="871.5" y="-653.5" font-family="Helvetica,sans-Serif" font-size="10.00" fill="#000000">mom_diag_mediator::</text>
<text text-anchor="middle" x="918.5" y="-642.5" font-family="Helvetica,sans-Serif" font-size="10.00" fill="#000000">get_new_diag_id</text>
</a>
</g>
</g>
<!-- Node1&#45;&gt;Node20 -->
<g id="edge19" class="edge">
<title>Node1&#45;&gt;Node20</title>
<path fill="none" stroke="#191970" d="M1079.0279,-412.7118C1072.2136,-459.6753 1051.289,-561.1553 993,-620.5 987.04,-626.568 979.6903,-631.4475 971.9517,-635.3605"/>
<polygon fill="#191970" stroke="#191970" points="1082.5347,-412.8966 1080.4067,-402.5177 1075.5978,-411.9583 1082.5347,-412.8966"/>
</g>
<!-- Node21 -->
<g id="node21" class="node">
<title>Node21</title>
<g id="a_node21"><a xlink:href="namespacemom__diag__mediator.html#afb4254e1cfbbcfc43028f14915173f80" target="_top" xlink:title=" ">
<polygon fill="#ffffff" stroke="#000000" points="698,-657.5 698,-687.5 808,-687.5 808,-657.5 698,-657.5"/>
<text text-anchor="start" x="706" y="-675.5" font-family="Helvetica,sans-Serif" font-size="10.00" fill="#000000">mom_diag_mediator::</text>
<text text-anchor="middle" x="753" y="-664.5" font-family="Helvetica,sans-Serif" font-size="10.00" fill="#000000">register_scalar_field</text>
</a>
</g>
</g>
<!-- Node1&#45;&gt;Node21 -->
<g id="edge37" class="edge">
<title>Node1&#45;&gt;Node21</title>
<path fill="none" stroke="#191970" d="M1078.0445,-412.8745C1067.4547,-477.1538 1036.2955,-643.5638 993,-675.5 935.9923,-717.5508 848.863,-702.4299 796.7565,-687.525"/>
<polygon fill="#191970" stroke="#191970" points="1081.534,-413.2202 1079.6743,-402.7899 1074.6236,-412.1034 1081.534,-413.2202"/>
</g>
<!-- Node22 -->
<g id="node22" class="node">
<title>Node22</title>
<g id="a_node22"><a xlink:href="namespacemom__diag__mediator.html#a87fa69b9e2ba3205756d93e1e13e1dc7" target="_top" xlink:title="Registers a static diagnostic, returning an integer handle.">
<polygon fill="#ffffff" stroke="#000000" points="698,-594.5 698,-624.5 808,-624.5 808,-594.5 698,-594.5"/>
<text text-anchor="start" x="706" y="-612.5" font-family="Helvetica,sans-Serif" font-size="10.00" fill="#000000">mom_diag_mediator::</text>
<text text-anchor="middle" x="753" y="-601.5" font-family="Helvetica,sans-Serif" font-size="10.00" fill="#000000">register_static_field</text>
</a>
</g>
</g>
<!-- Node1&#45;&gt;Node22 -->
<g id="edge38" class="edge">
<title>Node1&#45;&gt;Node22</title>
<path fill="none" stroke="#191970" d="M1078.8986,-412.8408C1072.0687,-456.6032 1051.382,-545.6652 993,-587.5 939.3477,-625.9455 860.6859,-625.3637 808.2094,-619.2543"/>
<polygon fill="#191970" stroke="#191970" points="1082.391,-413.1436 1080.351,-402.7471 1075.4623,-412.1466 1082.391,-413.1436"/>
</g>
<!-- Node25 -->
<g id="node25" class="node">
<title>Node25</title>
<g id="a_node25"><a xlink:href="namespacemom__diag__remap.html#abefc54b57db0b1d275dfd5e0e757ee32" target="_top" xlink:title="Horizontally average field.">
<polygon fill="#ffffff" stroke="#000000" points="844,-372.5 844,-402.5 993,-402.5 993,-372.5 844,-372.5"/>
<text text-anchor="start" x="852" y="-390.5" font-family="Helvetica,sans-Serif" font-size="10.00" fill="#000000">mom_diag_remap::horizontally</text>
<text text-anchor="middle" x="918.5" y="-379.5" font-family="Helvetica,sans-Serif" font-size="10.00" fill="#000000">_average_diag_field</text>
</a>
</g>
</g>
<!-- Node1&#45;&gt;Node25 -->
<g id="edge25" class="edge">
<title>Node1&#45;&gt;Node25</title>
<path fill="none" stroke="#191970" d="M1018.8641,-387.5C1010.4905,-387.5 1001.8417,-387.5 993.2951,-387.5"/>
<polygon fill="#191970" stroke="#191970" points="1018.9163,-391.0001 1028.9162,-387.5 1018.9162,-384.0001 1018.9163,-391.0001"/>
</g>
<!-- Node26 -->
<g id="node26" class="node">
<title>Node26</title>
<g id="a_node26"><a xlink:href="namespacemom__diag__mediator.html#ab41a1779c5edb50aa7256477cef952ae" target="_top" xlink:title="Post the horizontally area&#45;averaged diagnostic.">
<polygon fill="#ffffff" stroke="#000000" points="698,-391.5 698,-421.5 808,-421.5 808,-391.5 698,-391.5"/>
<text text-anchor="start" x="706" y="-409.5" font-family="Helvetica,sans-Serif" font-size="10.00" fill="#000000">mom_diag_mediator::</text>
<text text-anchor="middle" x="753" y="-398.5" font-family="Helvetica,sans-Serif" font-size="10.00" fill="#000000">post_xy_average</text>
</a>
</g>
</g>
<!-- Node1&#45;&gt;Node26 -->
<g id="edge36" class="edge">
<title>Node1&#45;&gt;Node26</title>
<path fill="none" stroke="#191970" d="M1027.8679,-405.2441C1016.4722,-408.2604 1004.4362,-410.9243 993,-412.5 930.0334,-421.1757 856.9186,-417.386 808.0908,-412.9035"/>
<polygon fill="#191970" stroke="#191970" points="1028.9854,-408.5664 1037.6865,-402.5214 1027.1148,-401.821 1028.9854,-408.5664"/>
</g>
<!-- Node27 -->
<g id="node27" class="node">
<title>Node27</title>
<g id="a_node27"><a xlink:href="namespacemom__diag__mediator.html#ae11cae949c3f8cf68d2c70f656aa9c54" target="_top" xlink:title="Make a real 3&#45;d array diagnostic available for averaging or output using a diag_type instead of an in...">
<polygon fill="#ffffff" stroke="#000000" points="525,-391.5 525,-421.5 635,-421.5 635,-391.5 525,-391.5"/>
<text text-anchor="start" x="533" y="-409.5" font-family="Helvetica,sans-Serif" font-size="10.00" fill="#000000">mom_diag_mediator::</text>
<text text-anchor="middle" x="580" y="-398.5" font-family="Helvetica,sans-Serif" font-size="10.00" fill="#000000">post_data_3d_low</text>
</a>
</g>
</g>
<!-- Node1&#45;&gt;Node27 -->
<g id="edge35" class="edge">
<title>Node1&#45;&gt;Node27</title>
<path fill="none" stroke="#191970" d="M1025.658,-369.9182C1014.9161,-367.2489 1003.6889,-364.9159 993,-363.5 865.2569,-346.5784 714.5501,-374.2519 635.2282,-392.4941"/>
<polygon fill="#191970" stroke="#191970" points="1024.7975,-373.3108 1035.3571,-372.4474 1026.5639,-366.5373 1024.7975,-373.3108"/>
</g>
<!-- Node28 -->
<g id="node28" class="node">
<title>Node28</title>
<g id="a_node28"><a xlink:href="namespacemom__diag__mediator.html#a70116fa6034dcf977a8bdcb4d81f9207" target="_top" xlink:title="Make a real 3&#45;d array diagnostic available for averaging or output.">
<polygon fill="#ffffff" stroke="#000000" points="352,-423.5 352,-453.5 462,-453.5 462,-423.5 352,-423.5"/>
<text text-anchor="start" x="360" y="-441.5" font-family="Helvetica,sans-Serif" font-size="10.00" fill="#000000">mom_diag_mediator::</text>
<text text-anchor="middle" x="407" y="-430.5" font-family="Helvetica,sans-Serif" font-size="10.00" fill="#000000">post_data_3d</text>
</a>
</g>
</g>
<!-- Node1&#45;&gt;Node28 -->
<g id="edge34" class="edge">
<title>Node1&#45;&gt;Node28</title>
<path fill="none" stroke="#191970" d="M1047.5486,-407.4344C1031.5166,-415.6296 1011.8558,-424.1967 993,-428.5 802.0395,-472.0814 566.9216,-455.7748 462.0304,-445.0037"/>
<polygon fill="#191970" stroke="#191970" points="1049.3279,-410.4529 1056.5352,-402.6872 1046.0583,-404.2634 1049.3279,-410.4529"/>
</g>
<!-- Node29 -->
<g id="node29" class="node">
<title>Node29</title>
<g id="a_node29"><a xlink:href="namespacemom__diag__mediator.html#ab98d892c30de2ee865416e519eacfd79" target="_top" xlink:title="Make a real scalar diagnostic available for averaging or output.">
<polygon fill="#ffffff" stroke="#000000" points="863.5,-284.5 863.5,-314.5 973.5,-314.5 973.5,-284.5 863.5,-284.5"/>
<text text-anchor="start" x="871.5" y="-302.5" font-family="Helvetica,sans-Serif" font-size="10.00" fill="#000000">mom_diag_mediator::</text>
<text text-anchor="middle" x="918.5" y="-291.5" font-family="Helvetica,sans-Serif" font-size="10.00" fill="#000000">post_data_0d</text>
</a>
</g>
</g>
<!-- Node1&#45;&gt;Node29 -->
<g id="edge29" class="edge">
<title>Node1&#45;&gt;Node29</title>
<path fill="none" stroke="#191970" d="M1053.0968,-366.6055C1036.0948,-354.8449 1013.8937,-340.3825 993,-329.5 982.6122,-324.0895 971.0203,-318.9997 960.1328,-314.6026"/>
<polygon fill="#191970" stroke="#191970" points="1051.2806,-369.6065 1061.4794,-372.476 1055.296,-363.8727 1051.2806,-369.6065"/>
</g>
<!-- Node30 -->
<g id="node30" class="node">
<title>Node30</title>
<g id="a_node30"><a xlink:href="namespacemom__diag__mediator.html#ab5b75b68fa1742ce312c371f4b2c6ac1" target="_top" xlink:title="Make a real 1&#45;d array diagnostic available for averaging or output.">
<polygon fill="#ffffff" stroke="#000000" points="863.5,-235.5 863.5,-265.5 973.5,-265.5 973.5,-235.5 863.5,-235.5"/>
<text text-anchor="start" x="871.5" y="-253.5" font-family="Helvetica,sans-Serif" font-size="10.00" fill="#000000">mom_diag_mediator::</text>
<text text-anchor="middle" x="918.5" y="-242.5" font-family="Helvetica,sans-Serif" font-size="10.00" fill="#000000">post_data_1d_k</text>
</a>
</g>
</g>
<!-- Node1&#45;&gt;Node30 -->
<g id="edge30" class="edge">
<title>Node1&#45;&gt;Node30</title>
<path fill="none" stroke="#191970" d="M1068.464,-363.1712C1053.2158,-337.8681 1026.1775,-298.7649 993,-275.5 987.0798,-271.3486 980.4177,-267.8446 973.5747,-264.8979"/>
<polygon fill="#191970" stroke="#191970" points="1065.6409,-365.2761 1073.7189,-372.1314 1071.679,-361.7348 1065.6409,-365.2761"/>
</g>
<!-- Node31 -->
<g id="node31" class="node">
<title>Node31</title>
<g id="a_node31"><a xlink:href="namespacemom__diag__mediator.html#a2b87038d2cfd2f6709ecb9f4481e0e75" target="_top" xlink:title="Make a real 2&#45;d array diagnostic available for averaging or output.">
<polygon fill="#ffffff" stroke="#000000" points="698,-164.5 698,-194.5 808,-194.5 808,-164.5 698,-164.5"/>
<text text-anchor="start" x="706" y="-182.5" font-family="Helvetica,sans-Serif" font-size="10.00" fill="#000000">mom_diag_mediator::</text>
<text text-anchor="middle" x="753" y="-171.5" font-family="Helvetica,sans-Serif" font-size="10.00" fill="#000000">post_data_2d</text>
</a>
</g>
</g>
<!-- Node1&#45;&gt;Node31 -->
<g id="edge31" class="edge">
<title>Node1&#45;&gt;Node31</title>
<path fill="none" stroke="#191970" d="M1079.9905,-362.1819C1074.7963,-315.9203 1056.4857,-218.6239 993,-176.5 935.3617,-138.256 851.56,-150.8711 799.7608,-164.4679"/>
<polygon fill="#191970" stroke="#191970" points="1076.5217,-362.6691 1081.0034,-372.2694 1083.4867,-361.9697 1076.5217,-362.6691"/>
</g>
<!-- Node32 -->
<g id="node32" class="node">
<title>Node32</title>
<g id="a_node32"><a xlink:href="namespacemom__diag__mediator.html#a633c4a461809f5843ac522616db8f382" target="_top" xlink:title="Make a real 2&#45;d array diagnostic available for averaging or output using a diag_type instead of an in...">
<polygon fill="#ffffff" stroke="#000000" points="863.5,-186.5 863.5,-216.5 973.5,-216.5 973.5,-186.5 863.5,-186.5"/>
<text text-anchor="start" x="871.5" y="-204.5" font-family="Helvetica,sans-Serif" font-size="10.00" fill="#000000">mom_diag_mediator::</text>
<text text-anchor="middle" x="918.5" y="-193.5" font-family="Helvetica,sans-Serif" font-size="10.00" fill="#000000">post_data_2d_low</text>
</a>
</g>
</g>
<!-- Node1&#45;&gt;Node32 -->
<g id="edge32" class="edge">
<title>Node1&#45;&gt;Node32</title>
<path fill="none" stroke="#191970" d="M1074.7697,-362.4515C1063.2486,-326.9163 1037.3741,-262.1264 993,-225.5 987.2361,-220.7425 980.5101,-216.9214 973.5015,-213.854"/>
<polygon fill="#191970" stroke="#191970" points="1071.4487,-363.5589 1077.766,-372.0644 1078.1316,-361.4759 1071.4487,-363.5589"/>
</g>
<!-- Node33 -->
<g id="node33" class="node">
<title>Node33</title>
<g id="a_node33"><a xlink:href="namespacemom__diag__mediator.html#a19d8a5e2782eb57ab3d7824028fafd56" target="_top" xlink:title="set_masks_for_axes sets up the 2d and 3d masks for diagnostics using the current grid recorded after ...">
<polygon fill="#ffffff" stroke="#000000" points="863.5,-98.5 863.5,-128.5 973.5,-128.5 973.5,-98.5 863.5,-98.5"/>
<text text-anchor="start" x="871.5" y="-116.5" font-family="Helvetica,sans-Serif" font-size="10.00" fill="#000000">mom_diag_mediator::</text>
<text text-anchor="middle" x="918.5" y="-105.5" font-family="Helvetica,sans-Serif" font-size="10.00" fill="#000000">set_masks_for_axes</text>
</a>
</g>
</g>
<!-- Node1&#45;&gt;Node33 -->
<g id="edge39" class="edge">
<title>Node1&#45;&gt;Node33</title>
<path fill="none" stroke="#191970" d="M1079.5558,-362.4395C1073.5401,-313.8988 1053.7743,-206.3175 993,-143.5 987.086,-137.3872 979.7604,-132.4841 972.0318,-128.5615"/>
<polygon fill="#191970" stroke="#191970" points="1076.0808,-362.8584 1080.6965,-372.3949 1083.0353,-362.0615 1076.0808,-362.8584"/>
</g>
<!-- Node34 -->
<g id="node34" class="node">
<title>Node34</title>
<g id="a_node34"><a xlink:href="namespacemom__diag__remap.html#a1cca70d5101d28badb1ea1608c72191f" target="_top" xlink:title="Vertically interpolate diagnostic field to alternative vertical grid.">
<polygon fill="#ffffff" stroke="#000000" points="849,-49.5 849,-79.5 988,-79.5 988,-49.5 849,-49.5"/>
<text text-anchor="start" x="857" y="-67.5" font-family="Helvetica,sans-Serif" font-size="10.00" fill="#000000">mom_diag_remap::vertically</text>
<text text-anchor="middle" x="918.5" y="-56.5" font-family="Helvetica,sans-Serif" font-size="10.00" fill="#000000">_interpolate_diag_field</text>
</a>
</g>
</g>
<!-- Node1&#45;&gt;Node34 -->
<g id="edge40" class="edge">
<title>Node1&#45;&gt;Node34</title>
<path fill="none" stroke="#191970" d="M1077.6179,-362.3755C1065.8907,-297.8173 1032.0179,-128.3995 993,-88.5 989.6748,-85.0996 985.8662,-82.1804 981.7687,-79.6744"/>
<polygon fill="#191970" stroke="#191970" points="1074.2196,-363.2551 1079.4275,-372.4816 1081.11,-362.0212 1074.2196,-363.2551"/>
</g>
<!-- Node35 -->
<g id="node35" class="node">
<title>Node35</title>
<g id="a_node35"><a xlink:href="namespacemom__diag__remap.html#a123c7b7093ec2c3c304024184c3c7287" target="_top" xlink:title="Vertically re&#45;grid an already vertically&#45;integrated diagnostic field to alternative vertical grid.">
<polygon fill="#ffffff" stroke="#000000" points="849,-.5 849,-30.5 988,-30.5 988,-.5 849,-.5"/>
<text text-anchor="start" x="857" y="-18.5" font-family="Helvetica,sans-Serif" font-size="10.00" fill="#000000">mom_diag_remap::vertically</text>
<text text-anchor="middle" x="918.5" y="-7.5" font-family="Helvetica,sans-Serif" font-size="10.00" fill="#000000">_reintegrate_diag_field</text>
</a>
</g>
</g>
<!-- Node1&#45;&gt;Node35 -->
<g id="edge41" class="edge">
<title>Node1&#45;&gt;Node35</title>
<path fill="none" stroke="#191970" d="M1078.72,-362.1763C1068.932,-290.2981 1037.804,-87.1367 993,-39.5 989.7416,-36.0356 985.9816,-33.0698 981.9181,-30.5312"/>
<polygon fill="#191970" stroke="#191970" points="1075.2618,-362.722 1080.0577,-372.1692 1082.1999,-361.7932 1075.2618,-362.722"/>
</g>
<!-- Node3 -->
<g id="node3" class="node">
<title>Node3</title>
<g id="a_node3"><a xlink:href="namespacemom__diag__mediator.html#ae50b35cba800ac5fd8975929fd2b9f4a" target="_top" xlink:title="Returns True if either the native or CMOr version of the diagnostic were registered....">
<polygon fill="#ffffff" stroke="#000000" points="525,-708 525,-749 635,-749 635,-708 525,-708"/>
<text text-anchor="start" x="533" y="-737" font-family="Helvetica,sans-Serif" font-size="10.00" fill="#000000">mom_diag_mediator::</text>
<text text-anchor="start" x="533" y="-726" font-family="Helvetica,sans-Serif" font-size="10.00" fill="#000000">register_diag_field</text>
<text text-anchor="middle" x="580" y="-715" font-family="Helvetica,sans-Serif" font-size="10.00" fill="#000000">_expand_cmor</text>
</a>
</g>
</g>
<!-- Node2&#45;&gt;Node3 -->
<g id="edge2" class="edge">
<title>Node2&#45;&gt;Node3</title>
<path fill="none" stroke="#191970" d="M687.7696,-728.5C670.4818,-728.5 651.9855,-728.5 635.2828,-728.5"/>
<polygon fill="#191970" stroke="#191970" points="687.7861,-732.0001 697.7861,-728.5 687.786,-725.0001 687.7861,-732.0001"/>
</g>
<!-- Node4 -->
<g id="node4" class="node">
<title>Node4</title>
<g id="a_node4"><a xlink:href="namespacemom__diag__mediator.html#ada491446bf7216fe101e6b0f6ed551e1" target="_top" xlink:title="Returns the &quot;diag_mediator&quot; handle for a group (native, CMOR, z&#45;coord, ...) of diagnostics derived fr...">
<polygon fill="#ffffff" stroke="#000000" points="352,-713.5 352,-743.5 462,-743.5 462,-713.5 352,-713.5"/>
<text text-anchor="start" x="360" y="-731.5" font-family="Helvetica,sans-Serif" font-size="10.00" fill="#000000">mom_diag_mediator::</text>
<text text-anchor="middle" x="407" y="-720.5" font-family="Helvetica,sans-Serif" font-size="10.00" fill="#000000">register_diag_field</text>
</a>
</g>
</g>
<!-- Node3&#45;&gt;Node4 -->
<g id="edge3" class="edge">
<title>Node3&#45;&gt;Node4</title>
<path fill="none" stroke="#191970" d="M514.7696,-728.5C497.4818,-728.5 478.9855,-728.5 462.2828,-728.5"/>
<polygon fill="#191970" stroke="#191970" points="514.7861,-732.0001 524.7861,-728.5 514.786,-725.0001 514.7861,-732.0001"/>
</g>
<!-- Node5 -->
<g id="node5" class="node">
<title>Node5</title>
<g id="a_node5"><a xlink:href="namespacemom__coriolisadv.html#ae021ac8de3b3510ca4552314ec9e1a9a" target="_top" xlink:title="Initializes the control structure for coriolisadv_cs.">
<polygon fill="#ffffff" stroke="#000000" points="155,-922 155,-941 316,-941 316,-922 155,-922"/>
<text text-anchor="middle" x="235.5" y="-929" font-family="Helvetica,sans-Serif" font-size="10.00" fill="#000000">mom_coriolisadv::coriolisadv_init</text>
</a>
</g>
</g>
<!-- Node4&#45;&gt;Node5 -->
<g id="edge4" class="edge">
<title>Node4&#45;&gt;Node5</title>
<path fill="none" stroke="#191970" d="M401.7985,-753.619C392.1597,-793.6229 367.6195,-871.4659 316,-912.5 311.1665,-916.3423 305.6855,-919.4299 299.911,-921.908"/>
<polygon fill="#191970" stroke="#191970" points="405.2659,-754.1562 404.0833,-743.6276 398.4421,-752.5957 405.2659,-754.1562"/>
</g>
<!-- Node9 -->
<g id="node9" class="node">
<title>Node9</title>
<g id="a_node9"><a xlink:href="namespacemom__diapyc__energy__req.html#a63b127bfd78461d8df3449591792b224" target="_top" xlink:title="Initialize parameters and allocate memory associated with the diapycnal energy requirement module.">
<polygon fill="#ffffff" stroke="#000000" points="173,-872.5 173,-902.5 298,-902.5 298,-872.5 173,-872.5"/>
<text text-anchor="start" x="181" y="-890.5" font-family="Helvetica,sans-Serif" font-size="10.00" fill="#000000">mom_diapyc_energy_req</text>
<text text-anchor="middle" x="235.5" y="-879.5" font-family="Helvetica,sans-Serif" font-size="10.00" fill="#000000">::diapyc_energy_req_init</text>
</a>
</g>
</g>
<!-- Node4&#45;&gt;Node9 -->
<g id="edge8" class="edge">
<title>Node4&#45;&gt;Node9</title>
<path fill="none" stroke="#191970" d="M396.8116,-753.0033C382.9487,-783.3701 355.2902,-834.6288 316,-863.5 310.5941,-867.4724 304.5318,-870.7921 298.2235,-873.5654"/>
<polygon fill="#191970" stroke="#191970" points="400.1402,-754.1299 400.9809,-743.5685 393.7375,-751.3005 400.1402,-754.1299"/>
</g>
<!-- Node10 -->
<g id="node10" class="node">
<title>Node10</title>
<g id="a_node10"><a xlink:href="namespacemom__int__tide__input.html#a134b589adde1907265c096afdb9a23b8" target="_top" xlink:title="Initializes the data related to the internal tide input module.">
<polygon fill="#ffffff" stroke="#000000" points="185,-823.5 185,-853.5 286,-853.5 286,-823.5 185,-823.5"/>
<text text-anchor="start" x="193" y="-841.5" font-family="Helvetica,sans-Serif" font-size="10.00" fill="#000000">mom_int_tide_input</text>
<text text-anchor="middle" x="235.5" y="-830.5" font-family="Helvetica,sans-Serif" font-size="10.00" fill="#000000">::int_tide_input_init</text>
</a>
</g>
</g>
<!-- Node4&#45;&gt;Node10 -->
<g id="edge9" class="edge">
<title>Node4&#45;&gt;Node10</title>
<path fill="none" stroke="#191970" d="M388.0047,-751.2513C370.9479,-770.345 344.2979,-797.0633 316,-813.5 306.8889,-818.7922 296.5351,-823.085 286.3583,-826.5221"/>
<polygon fill="#191970" stroke="#191970" points="390.7579,-753.4198 394.7043,-743.5874 385.4876,-748.8128 390.7579,-753.4198"/>
</g>
<!-- Node11 -->
<g id="node11" class="node">
<title>Node11</title>
<g id="a_node11"><a xlink:href="namespacemom__cvmix__kpp.html#ada767f6da63b74348a7461eb1d12c5d6" target="_top" xlink:title="Initialize the CVMix KPP module and set up diagnostics Returns True if KPP is to be used,...">
<polygon fill="#ffffff" stroke="#000000" points="170,-785 170,-804 301,-804 301,-785 170,-785"/>
<text text-anchor="middle" x="235.5" y="-792" font-family="Helvetica,sans-Serif" font-size="10.00" fill="#000000">mom_cvmix_kpp::kpp_init</text>
</a>
</g>
</g>
<!-- Node4&#45;&gt;Node11 -->
<g id="edge10" class="edge">
<title>Node4&#45;&gt;Node11</title>
<path fill="none" stroke="#191970" d="M373.0272,-748.5724C356.2964,-757.7953 335.5592,-768.2656 316,-775.5 306.0337,-779.1862 295.1028,-782.3289 284.5977,-784.9344"/>
<polygon fill="#191970" stroke="#191970" points="374.8696,-751.552 381.8769,-743.6054 371.4435,-745.4477 374.8696,-751.552"/>
</g>
<!-- Node12 -->
<g id="node12" class="node">
<title>Node12</title>
<g id="a_node12"><a xlink:href="namespacemom__diag__mediator.html#a21267e25d12fa3e5d2540d2a299d2d2c" target="_top" xlink:title="Registers a diagnostic using the information encapsulated in the vardesc type argument and returns an...">
<polygon fill="#ffffff" stroke="#000000" points="180.5,-735.5 180.5,-765.5 290.5,-765.5 290.5,-735.5 180.5,-735.5"/>
<text text-anchor="start" x="188.5" y="-753.5" font-family="Helvetica,sans-Serif" font-size="10.00" fill="#000000">mom_diag_mediator::</text>
<text text-anchor="middle" x="235.5" y="-742.5" font-family="Helvetica,sans-Serif" font-size="10.00" fill="#000000">ocean_register_diag</text>
</a>
</g>
</g>
<!-- Node4&#45;&gt;Node12 -->
<g id="edge11" class="edge">
<title>Node4&#45;&gt;Node12</title>
<path fill="none" stroke="#191970" d="M341.5025,-736.902C324.7084,-739.0564 306.8151,-741.3517 290.6043,-743.4312"/>
<polygon fill="#191970" stroke="#191970" points="342.3189,-740.326 351.7923,-735.582 341.4282,-733.3829 342.3189,-740.326"/>
</g>
<!-- Node13 -->
<g id="node13" class="node">
<title>Node13</title>
<g id="a_node13"><a xlink:href="namespacemom__opacity.html#a39fce7bd33a469e3e9fe7cfeb51825b5" target="_top" xlink:title="This routine initalizes the opacity module, including an optics_type.">
<polygon fill="#ffffff" stroke="#000000" points="170,-697 170,-716 301,-716 301,-697 170,-697"/>
<text text-anchor="middle" x="235.5" y="-704" font-family="Helvetica,sans-Serif" font-size="10.00" fill="#000000">mom_opacity::opacity_init</text>
</a>
</g>
</g>
<!-- Node4&#45;&gt;Node13 -->
<g id="edge12" class="edge">
<title>Node4&#45;&gt;Node13</title>
<path fill="none" stroke="#191970" d="M341.7639,-720.1315C328.4407,-718.4224 314.4156,-716.6233 301.0805,-714.9127"/>
<polygon fill="#191970" stroke="#191970" points="341.4282,-723.6171 351.7923,-721.418 342.3189,-716.674 341.4282,-723.6171"/>
</g>
<!-- Node14 -->
<g id="node14" class="node">
<title>Node14</title>
<g id="a_node14"><a xlink:href="namespacemom__diag__mediator.html#a820eb49d3acf041c630ce1373bef799e" target="_top" xlink:title="Sets a handle inside diagnostics mediator to associate 3d cell measures.">
<polygon fill="#ffffff" stroke="#000000" points="179.5,-647.5 179.5,-677.5 291.5,-677.5 291.5,-647.5 179.5,-647.5"/>
<text text-anchor="start" x="187.5" y="-665.5" font-family="Helvetica,sans-Serif" font-size="10.00" fill="#000000">mom_diag_mediator::</text>
<text text-anchor="middle" x="235.5" y="-654.5" font-family="Helvetica,sans-Serif" font-size="10.00" fill="#000000">register_cell_measure</text>
</a>
</g>
</g>
<!-- Node4&#45;&gt;Node14 -->
<g id="edge13" class="edge">
<title>Node4&#45;&gt;Node14</title>
<path fill="none" stroke="#191970" d="M366.4572,-708.9549C350.8609,-701.7755 332.7734,-693.856 316,-687.5 306.8313,-684.0257 296.9479,-680.6576 287.3518,-677.578"/>
<polygon fill="#191970" stroke="#191970" points="365.2691,-712.2624 375.8121,-713.3088 368.2228,-705.916 365.2691,-712.2624"/>
</g>
<!-- Node15 -->
<g id="node15" class="node">
<title>Node15</title>
<g id="a_node15"><a xlink:href="namespacemom__offline__main.html#a0adf88ec8f84684573c1bafd91b22cf6" target="_top" xlink:title="Initialize additional diagnostics required for offline tracer transport.">
<polygon fill="#ffffff" stroke="#000000" points="168.5,-598.5 168.5,-628.5 302.5,-628.5 302.5,-598.5 168.5,-598.5"/>
<text text-anchor="start" x="176.5" y="-616.5" font-family="Helvetica,sans-Serif" font-size="10.00" fill="#000000">mom_offline_main::register</text>
<text text-anchor="middle" x="235.5" y="-605.5" font-family="Helvetica,sans-Serif" font-size="10.00" fill="#000000">_diags_offline_transport</text>
</a>
</g>
</g>
<!-- Node4&#45;&gt;Node15 -->
<g id="edge14" class="edge">
<title>Node4&#45;&gt;Node15</title>
<path fill="none" stroke="#191970" d="M389.0838,-705.3324C372.2452,-685.0281 345.3048,-656.0859 316,-638.5 309.6005,-634.6596 302.5559,-631.3572 295.3772,-628.5308"/>
<polygon fill="#191970" stroke="#191970" points="386.4311,-707.6181 395.4483,-713.1807 391.8681,-703.2091 386.4311,-707.6181"/>
</g>
<!-- Node16 -->
<g id="node16" class="node">
<title>Node16</title>
<g id="a_node16"><a xlink:href="namespacemom__set__diffusivity.html#a99cccff4bd9b753e86e50f1a188c3283" target="_top" xlink:title=" ">
<polygon fill="#ffffff" stroke="#000000" points="183.5,-549.5 183.5,-579.5 287.5,-579.5 287.5,-549.5 183.5,-549.5"/>
<text text-anchor="start" x="191.5" y="-567.5" font-family="Helvetica,sans-Serif" font-size="10.00" fill="#000000">mom_set_diffusivity</text>
<text text-anchor="middle" x="235.5" y="-556.5" font-family="Helvetica,sans-Serif" font-size="10.00" fill="#000000">::set_diffusivity_init</text>
</a>
</g>
</g>
<!-- Node4&#45;&gt;Node16 -->
<g id="edge15" class="edge">
<title>Node4&#45;&gt;Node16</title>
<path fill="none" stroke="#191970" d="M392.622,-704.6699C369.7821,-667.112 326.6947,-597.565 316,-589.5 307.7042,-583.244 297.818,-578.5352 287.8616,-574.9965"/>
<polygon fill="#191970" stroke="#191970" points="389.7821,-706.7369 397.9604,-713.4724 395.7674,-703.107 389.7821,-706.7369"/>
</g>
<!-- Node17 -->
<g id="node17" class="node">
<title>Node17</title>
<g id="a_node17"><a xlink:href="namespacemom__tracer__hor__diff.html#a87eed0408da0c4732372732b34451b73" target="_top" xlink:title="Initialize lateral tracer diffusion module.">
<polygon fill="#ffffff" stroke="#000000" points="182.5,-500.5 182.5,-530.5 288.5,-530.5 288.5,-500.5 182.5,-500.5"/>
<text text-anchor="start" x="190.5" y="-518.5" font-family="Helvetica,sans-Serif" font-size="10.00" fill="#000000">mom_tracer_hor_diff</text>
<text text-anchor="middle" x="235.5" y="-507.5" font-family="Helvetica,sans-Serif" font-size="10.00" fill="#000000">::tracer_hor_diff_init</text>
</a>
</g>
</g>
<!-- Node4&#45;&gt;Node17 -->
<g id="edge16" class="edge">
<title>Node4&#45;&gt;Node17</title>
<path fill="none" stroke="#191970" d="M391.6951,-704.8385C379.9861,-686.1767 363.8843,-659.2556 352,-634.5 332.6389,-594.1697 348.6393,-571.0951 316,-540.5 308.3127,-533.2941 298.5818,-528.164 288.5649,-524.5121"/>
<polygon fill="#191970" stroke="#191970" points="388.7426,-706.7182 397.0525,-713.2906 394.6549,-702.9706 388.7426,-706.7182"/>
</g>
<!-- Node6 -->
<g id="node6" class="node">
<title>Node6</title>
<g id="a_node6"><a xlink:href="namespacemom__dynamics__split__rk2.html#aa9a0a027754d3ca2d49f3993bc64b1b7" target="_top" xlink:title="This subroutine initializes all of the variables that are used by this dynamic core,...">
<polygon fill="#ffffff" stroke="#000000" points="5,-966 5,-1007 114,-1007 114,-966 5,-966"/>
<text text-anchor="start" x="13" y="-995" font-family="Helvetica,sans-Serif" font-size="10.00" fill="#000000">mom_dynamics_split</text>
<text text-anchor="start" x="13" y="-984" font-family="Helvetica,sans-Serif" font-size="10.00" fill="#000000">_rk2::initialize_dyn</text>
<text text-anchor="middle" x="59.5" y="-973" font-family="Helvetica,sans-Serif" font-size="10.00" fill="#000000">_split_rk2</text>
</a>
</g>
</g>
<!-- Node5&#45;&gt;Node6 -->
<g id="edge5" class="edge">
<title>Node5&#45;&gt;Node6</title>
<path fill="none" stroke="#191970" d="M195.0228,-944.1491C171.0738,-951.6332 140.4168,-961.2135 114.3205,-969.3686"/>
<polygon fill="#191970" stroke="#191970" points="196.3423,-947.4038 204.8431,-941.0803 194.2543,-940.7224 196.3423,-947.4038"/>
</g>
<!-- Node7 -->
<g id="node7" class="node">
<title>Node7</title>
<g id="a_node7"><a xlink:href="namespacemom__dynamics__unsplit.html#a60f13a45463d31749046a7908a5a589e" target="_top" xlink:title="Initialize parameters and allocate memory associated with the unsplit dynamics module.">
<polygon fill="#ffffff" stroke="#000000" points="0,-916.5 0,-946.5 119,-946.5 119,-916.5 0,-916.5"/>
<text text-anchor="start" x="8" y="-934.5" font-family="Helvetica,sans-Serif" font-size="10.00" fill="#000000">mom_dynamics_unsplit</text>
<text text-anchor="middle" x="59.5" y="-923.5" font-family="Helvetica,sans-Serif" font-size="10.00" fill="#000000">::initialize_dyn_unsplit</text>
</a>
</g>
</g>
<!-- Node5&#45;&gt;Node7 -->
<g id="edge6" class="edge">
<title>Node5&#45;&gt;Node7</title>
<path fill="none" stroke="#191970" d="M144.7869,-931.5C136.1102,-931.5 127.4687,-931.5 119.2002,-931.5"/>
<polygon fill="#191970" stroke="#191970" points="144.9686,-935.0001 154.9686,-931.5 144.9685,-928.0001 144.9686,-935.0001"/>
</g>
<!-- Node8 -->
<g id="node8" class="node">
<title>Node8</title>
<g id="a_node8"><a xlink:href="namespacemom__dynamics__unsplit__rk2.html#a1e1bea48a35b64c87b5b9d0965378592" target="_top" xlink:title="Initialize parameters and allocate memory associated with the unsplit RK2 dynamics module.">
<polygon fill="#ffffff" stroke="#000000" points="0,-856 0,-897 119,-897 119,-856 0,-856"/>
<text text-anchor="start" x="8" y="-885" font-family="Helvetica,sans-Serif" font-size="10.00" fill="#000000">mom_dynamics_unsplit</text>
<text text-anchor="start" x="8" y="-874" font-family="Helvetica,sans-Serif" font-size="10.00" fill="#000000">_rk2::initialize_dyn</text>
<text text-anchor="middle" x="59.5" y="-863" font-family="Helvetica,sans-Serif" font-size="10.00" fill="#000000">_unsplit_rk2</text>
</a>
</g>
</g>
<!-- Node5&#45;&gt;Node8 -->
<g id="edge7" class="edge">
<title>Node5&#45;&gt;Node8</title>
<path fill="none" stroke="#191970" d="M180.5364,-919.5261C171.9399,-917.3665 163.1936,-914.9999 155,-912.5 140.4252,-908.0531 124.8652,-902.5312 110.6269,-897.1584"/>
<polygon fill="#191970" stroke="#191970" points="179.9723,-922.9911 190.517,-921.9619 181.6319,-916.1907 179.9723,-922.9911"/>
</g>
<!-- Node20&#45;&gt;Node2 -->
<g id="edge20" class="edge">
<title>Node20&#45;&gt;Node2</title>
<path fill="none" stroke="#191970" d="M877.2911,-669.9217C848.7822,-683.3579 811.3914,-700.9802 785.094,-713.3741"/>
<polygon fill="#191970" stroke="#191970" points="879.0364,-672.9685 886.5899,-665.5392 876.0521,-666.6365 879.0364,-672.9685"/>
</g>
<!-- Node20&#45;&gt;Node21 -->
<g id="edge21" class="edge">
<title>Node20&#45;&gt;Node21</title>
<path fill="none" stroke="#191970" d="M853.2168,-659.1781C838.3013,-661.1609 822.5925,-663.249 808.1504,-665.1688"/>
<polygon fill="#191970" stroke="#191970" points="853.9393,-662.613 863.3909,-657.8257 853.0169,-655.674 853.9393,-662.613"/>
</g>
<!-- Node20&#45;&gt;Node22 -->
<g id="edge22" class="edge">
<title>Node20&#45;&gt;Node22</title>
<path fill="none" stroke="#191970" d="M853.6469,-634.4337C838.6035,-630.7069 822.7314,-626.7748 808.1504,-623.1626"/>
<polygon fill="#191970" stroke="#191970" points="852.8427,-637.8402 863.3909,-636.8476 854.526,-631.0456 852.8427,-637.8402"/>
</g>
<!-- Node23 -->
<g id="node23" class="node">
<title>Node23</title>
<g id="a_node23"><a xlink:href="namespacemom__geothermal.html#aaddc9edf4f1c558e9cf2e41134526f08" target="_top" xlink:title="Initialize parameters and allocate memory associated with the geothermal heating module.">
<polygon fill="#ffffff" stroke="#000000" points="498,-600 498,-619 662,-619 662,-600 498,-600"/>
<text text-anchor="middle" x="580" y="-607" font-family="Helvetica,sans-Serif" font-size="10.00" fill="#000000">mom_geothermal::geothermal_init</text>
</a>
</g>
</g>
<!-- Node22&#45;&gt;Node23 -->
<g id="edge23" class="edge">
<title>Node22&#45;&gt;Node23</title>
<path fill="none" stroke="#191970" d="M687.7384,-609.5C679.3673,-609.5 670.7134,-609.5 662.1173,-609.5"/>
<polygon fill="#191970" stroke="#191970" points="687.7861,-613.0001 697.7861,-609.5 687.786,-606.0001 687.7861,-613.0001"/>
</g>
<!-- Node24 -->
<g id="node24" class="node">
<title>Node24</title>
<g id="a_node24"><a xlink:href="namespacemom__diabatic__driver.html#a51d273bae7e5d2217fa5498620532888" target="_top" xlink:title="This routine initializes the diabatic driver module.">
<polygon fill="#ffffff" stroke="#000000" points="353.5,-594.5 353.5,-624.5 460.5,-624.5 460.5,-594.5 353.5,-594.5"/>
<text text-anchor="start" x="361.5" y="-612.5" font-family="Helvetica,sans-Serif" font-size="10.00" fill="#000000">mom_diabatic_driver</text>
<text text-anchor="middle" x="407" y="-601.5" font-family="Helvetica,sans-Serif" font-size="10.00" fill="#000000">::diabatic_driver_init</text>
</a>
</g>
</g>
<!-- Node23&#45;&gt;Node24 -->
<g id="edge24" class="edge">
<title>Node23&#45;&gt;Node24</title>
<path fill="none" stroke="#191970" d="M487.7967,-609.5C478.585,-609.5 469.4599,-609.5 460.8417,-609.5"/>
<polygon fill="#191970" stroke="#191970" points="487.8066,-613.0001 497.8065,-609.5 487.8065,-606.0001 487.8066,-613.0001"/>
</g>
<!-- Node25&#45;&gt;Node26 -->
<g id="edge26" class="edge">
<title>Node25&#45;&gt;Node26</title>
<path fill="none" stroke="#191970" d="M833.8132,-397.2224C825.1438,-398.2176 816.5027,-399.2097 808.2709,-400.1547"/>
<polygon fill="#191970" stroke="#191970" points="834.445,-400.6729 843.9806,-396.0551 833.6466,-393.7186 834.445,-400.6729"/>
</g>
<!-- Node26&#45;&gt;Node27 -->
<g id="edge27" class="edge">
<title>Node26&#45;&gt;Node27</title>
<path fill="none" stroke="#191970" d="M687.7696,-406.5C670.4818,-406.5 651.9855,-406.5 635.2828,-406.5"/>
<polygon fill="#191970" stroke="#191970" points="687.7861,-410.0001 697.7861,-406.5 687.786,-403.0001 687.7861,-410.0001"/>
</g>
<!-- Node27&#45;&gt;Node28 -->
<g id="edge28" class="edge">
<title>Node27&#45;&gt;Node28</title>
<path fill="none" stroke="#191970" d="M514.7696,-418.5657C497.4818,-421.7635 478.9855,-425.1848 462.2828,-428.2743"/>
<polygon fill="#191970" stroke="#191970" points="515.5895,-421.9735 524.7861,-416.713 514.3162,-415.0903 515.5895,-421.9735"/>
</g>
<!-- Node32&#45;&gt;Node31 -->
<g id="edge33" class="edge">
<title>Node32&#45;&gt;Node31</title>
<path fill="none" stroke="#191970" d="M853.2168,-192.8219C838.3013,-190.8391 822.5925,-188.751 808.1504,-186.8312"/>
<polygon fill="#191970" stroke="#191970" points="853.0169,-196.326 863.3909,-194.1743 853.9393,-189.387 853.0169,-196.326"/>
</g>
</g>
</svg>
        <g id="navigator" transform="translate(0 0)" fill="#404254">
                <rect fill="#f2f5e9" fill-opacity="0.5" stroke="#606060" stroke-width=".5" x="0" y="0" width="60" height="60"/>
                <use id="zoomplus" xlink:href="#zoomPlus" x="17" y="9" onmousedown="handleZoom(evt,'in')"/>
                <use id="zoomminus" xlink:href="#zoomMin" x="42" y="9" onmousedown="handleZoom(evt,'out')"/>
                <use id="reset" xlink:href="#resetDef" x="30" y="36" onmousedown="handleReset()"/>
                <g id="arrowUp" xlink:href="#dirArrow" transform="translate(30 24)" onmousedown="handlePan(0,-1)">
                  <use xlink:href="#rim" fill="#404040">
                        <set attributeName="fill" to="#808080" begin="arrowUp.mouseover" end="arrowUp.mouseout"/>
                  </use>
                  <path fill="none" stroke="white" stroke-width="1.5" d="M0,-3.0v7 M-2.5,-0.5L0,-3.0L2.5,-0.5"/>
                </g>
                <g id="arrowRight" xlink:href="#dirArrow" transform="rotate(90) translate(36 -43)" onmousedown="handlePan(1,0)">
                  <use xlink:href="#rim" fill="#404040">
                        <set attributeName="fill" to="#808080" begin="arrowRight.mouseover" end="arrowRight.mouseout"/>
                  </use>
                  <path fill="none" stroke="white" stroke-width="1.5" d="M0,-3.0v7 M-2.5,-0.5L0,-3.0L2.5,-0.5"/>
                </g>
                <g id="arrowDown" xlink:href="#dirArrow" transform="rotate(180) translate(-30 -48)" onmousedown="handlePan(0,1)">
                  <use xlink:href="#rim" fill="#404040">
                        <set attributeName="fill" to="#808080" begin="arrowDown.mouseover" end="arrowDown.mouseout"/>
                  </use>
                  <path fill="none" stroke="white" stroke-width="1.5" d="M0,-3.0v7 M-2.5,-0.5L0,-3.0L2.5,-0.5"/>
                </g>
                <g id="arrowLeft" xlink:href="#dirArrow" transform="rotate(270) translate(-36 17)" onmousedown="handlePan(-1,0)">
                  <use xlink:href="#rim" fill="#404040">
                        <set attributeName="fill" to="#808080" begin="arrowLeft.mouseover" end="arrowLeft.mouseout"/>
                  </use>
                  <path fill="none" stroke="white" stroke-width="1.5" d="M0,-3.0v7 M-2.5,-0.5L0,-3.0L2.5,-0.5"/>
                </g>
        </g>
        <svg viewBox="0 0 15 15" width="100%" height="30px" preserveAspectRatio="xMaxYMin meet">
         <g id="arrow_out" transform="scale(0.3 0.3)">
          <a xlink:href="namespacemom__error__handler_a33bcd190d460095104954f2e654f9fe6_icgraph_org.svg" target="_base">
           <rect id="button" ry="5" rx="5" y="6" x="6" height="38" width="38"
                fill="#f2f5e9" fill-opacity="0.5" stroke="#606060" stroke-width="1.0"/>
           <path id="arrow"
             d="M 11.500037,31.436501 C 11.940474,20.09759 22.043105,11.32322 32.158766,21.979434 L 37.068811,17.246167 C 37.068811,17.246167 37.088388,32 37.088388,32 L 22.160133,31.978069 C 22.160133,31.978069 26.997745,27.140456 26.997745,27.140456 C 18.528582,18.264221 13.291696,25.230495 11.500037,31.436501 z"
             style="fill:#404040;"/>
          </a>
         </g>
        </svg>
</svg>
