<?xml version="1.0" encoding="UTF-8" standalone="no"?>
<!DOCTYPE svg PUBLIC "-//W3C//DTD SVG 1.1//EN"
 "http://www.w3.org/Graphics/SVG/1.1/DTD/svg11.dtd">
<!-- Generated by graphviz version 2.40.1 (20161225.0304)
 -->
<!-- Title: mom_cap_methods::mom_import Pages: 1 -->
<svg width="317pt" height="39pt"
 viewBox="0.00 0.00 317.00 39.00" xmlns="http://www.w3.org/2000/svg" xmlns:xlink="http://www.w3.org/1999/xlink">
<g id="graph0" class="graph" transform="scale(1 1) rotate(0) translate(4 35)">
<title>mom_cap_methods::mom_import</title>
<polygon fill="#ffffff" stroke="transparent" points="-4,4 -4,-35 313,-35 313,4 -4,4"/>
<!-- Node1 -->
<g id="node1" class="node">
<title>Node1</title>
<g id="a_node1"><a xlink:title="This function has a few purposes: (1) it imports surface fluxes using data from the mediator; and (2)...">
<polygon fill="#bfbfbf" stroke="#000000" points="0,-.5 0,-30.5 136,-30.5 136,-.5 0,-.5"/>
<text text-anchor="start" x="8" y="-18.5" font-family="Helvetica,sans-Serif" font-size="10.00" fill="#000000">mom_cap_methods::mom</text>
<text text-anchor="middle" x="68" y="-7.5" font-family="Helvetica,sans-Serif" font-size="10.00" fill="#000000">_import</text>
</a>
</g>
</g>
<!-- Node2 -->
<g id="node2" class="node">
<title>Node2</title>
<g id="a_node2"><a xlink:href="namespacemom__cap__methods.html#a8ee41efd82bbc3d8fd44b962a9cab231" target="_top" xlink:title="Map import state field to output array.">
<polygon fill="#ffffff" stroke="#000000" points="172,-.5 172,-30.5 309,-30.5 309,-.5 172,-.5"/>
<text text-anchor="start" x="180" y="-18.5" font-family="Helvetica,sans-Serif" font-size="10.00" fill="#000000">mom_cap_methods::state</text>
<text text-anchor="middle" x="240.5" y="-7.5" font-family="Helvetica,sans-Serif" font-size="10.00" fill="#000000">_getimport</text>
</a>
</g>
</g>
<!-- Node1&#45;&gt;Node2 -->
<g id="edge1" class="edge">
<title>Node1&#45;&gt;Node2</title>
<path fill="none" stroke="#191970" d="M136.1766,-15.5C144.6374,-15.5 153.3413,-15.5 161.9423,-15.5"/>
<polygon fill="#191970" stroke="#191970" points="161.9711,-19.0001 171.9711,-15.5 161.9711,-12.0001 161.9711,-19.0001"/>
</g>
</g>
</svg>
