<?xml version="1.0" encoding="UTF-8" standalone="no"?>
<!DOCTYPE svg PUBLIC "-//W3C//DTD SVG 1.1//EN"
 "http://www.w3.org/Graphics/SVG/1.1/DTD/svg11.dtd">
<!-- Generated by graphviz version 2.40.1 (20161225.0304)
 -->
<!-- Title: mom_write_cputime::write_cputime Pages: 1 -->
<svg width="424pt" height="61pt"
 viewBox="0.00 0.00 424.00 61.00" xmlns="http://www.w3.org/2000/svg" xmlns:xlink="http://www.w3.org/1999/xlink">
<g id="graph0" class="graph" transform="scale(1 1) rotate(0) translate(4 57)">
<title>mom_write_cputime::write_cputime</title>
<polygon fill="#ffffff" stroke="transparent" points="-4,4 -4,-57 420,-57 420,4 -4,4"/>
<!-- Node1 -->
<g id="node1" class="node">
<title>Node1</title>
<g id="a_node1"><a xlink:title="This subroutine assesses how much CPU time the model has taken and determines how long the model shou...">
<polygon fill="#bfbfbf" stroke="#000000" points="0,-22.5 0,-52.5 114,-52.5 114,-22.5 0,-22.5"/>
<text text-anchor="start" x="8" y="-40.5" font-family="Helvetica,sans-Serif" font-size="10.00" fill="#000000">mom_write_cputime::</text>
<text text-anchor="middle" x="57" y="-29.5" font-family="Helvetica,sans-Serif" font-size="10.00" fill="#000000">write_cputime</text>
</a>
</g>
</g>
<!-- Node2 -->
<g id="node2" class="node">
<title>Node2</title>
<g id="a_node2"><a xlink:href="namespacemom__error__handler.html#ad5f00a53059c72fe2332d1436c80ca71" target="_top" xlink:title="This returns .true. if the current PE is the root PE.">
<polygon fill="#ffffff" stroke="#000000" points="301,-22.5 301,-52.5 416,-52.5 416,-22.5 301,-22.5"/>
<text text-anchor="start" x="309" y="-40.5" font-family="Helvetica,sans-Serif" font-size="10.00" fill="#000000">mom_error_handler::</text>
<text text-anchor="middle" x="358.5" y="-29.5" font-family="Helvetica,sans-Serif" font-size="10.00" fill="#000000">is_root_pe</text>
</a>
</g>
</g>
<!-- Node1&#45;&gt;Node2 -->
<g id="edge1" class="edge">
<title>Node1&#45;&gt;Node2</title>
<path fill="none" stroke="#191970" d="M114.0452,-39.6309C125.9261,-39.9931 138.3705,-40.3125 150,-40.5 201.1045,-41.3241 213.8955,-41.3196 265,-40.5 273.2869,-40.3671 281.9854,-40.168 290.602,-39.9343"/>
<polygon fill="#191970" stroke="#191970" points="290.7546,-43.4314 300.65,-39.646 290.5538,-36.4343 290.7546,-43.4314"/>
</g>
<!-- Node3 -->
<g id="node3" class="node">
<title>Node3</title>
<g id="a_node3"><a xlink:href="namespacemom__error__handler.html#a460cfb79a06c29fc249952c2a3710d67" target="_top" xlink:title="This provides a convenient interface for writing an mpp_error message with run&#45;time filter based on a...">
<polygon fill="#ffffff" stroke="#000000" points="150,-.5 150,-30.5 265,-30.5 265,-.5 150,-.5"/>
<text text-anchor="start" x="158" y="-18.5" font-family="Helvetica,sans-Serif" font-size="10.00" fill="#000000">mom_error_handler::</text>
<text text-anchor="middle" x="207.5" y="-7.5" font-family="Helvetica,sans-Serif" font-size="10.00" fill="#000000">mom_error</text>
</a>
</g>
</g>
<!-- Node1&#45;&gt;Node3 -->
<g id="edge2" class="edge">
<title>Node1&#45;&gt;Node3</title>
<path fill="none" stroke="#191970" d="M114.3269,-29.12C122.6857,-27.8981 131.3578,-26.6304 139.8972,-25.3821"/>
<polygon fill="#191970" stroke="#191970" points="140.4454,-28.8393 149.8339,-23.9296 139.4328,-21.9129 140.4454,-28.8393"/>
</g>
<!-- Node3&#45;&gt;Node2 -->
<g id="edge3" class="edge">
<title>Node3&#45;&gt;Node2</title>
<path fill="none" stroke="#191970" d="M265.0174,-23.88C273.4639,-25.1106 282.2292,-26.3877 290.8561,-27.6446"/>
<polygon fill="#191970" stroke="#191970" points="290.4924,-31.1285 300.8925,-29.1069 291.5016,-24.2016 290.4924,-31.1285"/>
</g>
</g>
</svg>
