<?xml version="1.0" encoding="UTF-8" standalone="no"?>
<!DOCTYPE svg PUBLIC "-//W3C//DTD SVG 1.1//EN"
 "http://www.w3.org/Graphics/SVG/1.1/DTD/svg11.dtd">
<!-- Generated by graphviz version 2.40.1 (20161225.0304)
 -->
<!-- Title: mom_sum_output::get_depth_list_checksums Pages: 1 -->
<svg width="1003pt" height="83pt"
 viewBox="0.00 0.00 1003.00 83.00" xmlns="http://www.w3.org/2000/svg" xmlns:xlink="http://www.w3.org/1999/xlink">
<g id="graph0" class="graph" transform="scale(1 1) rotate(0) translate(4 79)">
<title>mom_sum_output::get_depth_list_checksums</title>
<polygon fill="#ffffff" stroke="transparent" points="-4,4 -4,-79 999,-79 999,4 -4,4"/>
<!-- Node1 -->
<g id="node1" class="node">
<title>Node1</title>
<g id="a_node1"><a xlink:title="Return the checksums required to verify DEPTH_LIST_FILE contents.">
<polygon fill="#bfbfbf" stroke="#000000" points="876,-22.5 876,-52.5 995,-52.5 995,-22.5 876,-22.5"/>
<text text-anchor="start" x="884" y="-40.5" font-family="Helvetica,sans-Serif" font-size="10.00" fill="#000000">mom_sum_output::get</text>
<text text-anchor="middle" x="935.5" y="-29.5" font-family="Helvetica,sans-Serif" font-size="10.00" fill="#000000">_depth_list_checksums</text>
</a>
</g>
</g>
<!-- Node2 -->
<g id="node2" class="node">
<title>Node2</title>
<g id="a_node2"><a xlink:href="namespacemom__sum__output.html#a4f45b1c7dbff4fe064e102ccb2967daf" target="_top" xlink:title="This subroutine reads in the depth list to the specified file and allocates and sets up CSDL and CSli...">
<polygon fill="#ffffff" stroke="#000000" points="563,-44.5 563,-74.5 682,-74.5 682,-44.5 563,-44.5"/>
<text text-anchor="start" x="571" y="-62.5" font-family="Helvetica,sans-Serif" font-size="10.00" fill="#000000">mom_sum_output::read</text>
<text text-anchor="middle" x="622.5" y="-51.5" font-family="Helvetica,sans-Serif" font-size="10.00" fill="#000000">_depth_list</text>
</a>
</g>
</g>
<!-- Node1&#45;&gt;Node2 -->
<g id="edge1" class="edge">
<title>Node1&#45;&gt;Node2</title>
<path fill="none" stroke="#191970" d="M865.8496,-42.3956C810.7076,-46.2714 734.5147,-51.6268 682.1536,-55.3071"/>
<polygon fill="#191970" stroke="#191970" points="866.1604,-45.8824 875.8904,-41.6898 865.6695,-38.8997 866.1604,-45.8824"/>
</g>
<!-- Node7 -->
<g id="node7" class="node">
<title>Node7</title>
<g id="a_node7"><a xlink:href="namespacemom__sum__output.html#a955e777980a668bfc611c78de5de1895" target="_top" xlink:title="This subroutine writes out the depth list to the specified file.">
<polygon fill="#ffffff" stroke="#000000" points="718,-.5 718,-30.5 840,-30.5 840,-.5 718,-.5"/>
<text text-anchor="start" x="726" y="-18.5" font-family="Helvetica,sans-Serif" font-size="10.00" fill="#000000">mom_sum_output::write</text>
<text text-anchor="middle" x="779" y="-7.5" font-family="Helvetica,sans-Serif" font-size="10.00" fill="#000000">_depth_list</text>
</a>
</g>
</g>
<!-- Node1&#45;&gt;Node7 -->
<g id="edge6" class="edge">
<title>Node1&#45;&gt;Node7</title>
<path fill="none" stroke="#191970" d="M865.8597,-27.7103C857.2405,-26.4987 848.4803,-25.2672 840.0042,-24.0757"/>
<polygon fill="#191970" stroke="#191970" points="865.4977,-31.1938 875.8876,-29.12 866.4722,-24.2619 865.4977,-31.1938"/>
</g>
<!-- Node3 -->
<g id="node3" class="node">
<title>Node3</title>
<g id="a_node3"><a xlink:href="namespacemom__sum__output.html#a53d3dcd50cba41760dd8713228785a8d" target="_top" xlink:title="This subroutine sets up an ordered list of depths, along with the cross sectional areas at each depth...">
<polygon fill="#ffffff" stroke="#000000" points="402,-22.5 402,-52.5 527,-52.5 527,-22.5 402,-22.5"/>
<text text-anchor="start" x="410" y="-40.5" font-family="Helvetica,sans-Serif" font-size="10.00" fill="#000000">mom_sum_output::depth</text>
<text text-anchor="middle" x="464.5" y="-29.5" font-family="Helvetica,sans-Serif" font-size="10.00" fill="#000000">_list_setup</text>
</a>
</g>
</g>
<!-- Node2&#45;&gt;Node3 -->
<g id="edge2" class="edge">
<title>Node2&#45;&gt;Node3</title>
<path fill="none" stroke="#191970" d="M552.844,-49.8011C544.3128,-48.6132 535.6341,-47.4047 527.2135,-46.2323"/>
<polygon fill="#191970" stroke="#191970" points="552.3798,-53.2701 562.767,-51.1827 553.3452,-46.337 552.3798,-53.2701"/>
</g>
<!-- Node4 -->
<g id="node4" class="node">
<title>Node4</title>
<g id="a_node4"><a xlink:href="namespacemom__sum__output.html#a05003e74cbb39fbdf760d23617390445" target="_top" xlink:title="MOM_sum_output_init initializes the parameters and settings for the MOM_sum_output module.">
<polygon fill="#ffffff" stroke="#000000" points="244,-22.5 244,-52.5 366,-52.5 366,-22.5 244,-22.5"/>
<text text-anchor="start" x="252" y="-40.5" font-family="Helvetica,sans-Serif" font-size="10.00" fill="#000000">mom_sum_output::mom</text>
<text text-anchor="middle" x="305" y="-29.5" font-family="Helvetica,sans-Serif" font-size="10.00" fill="#000000">_sum_output_init</text>
</a>
</g>
</g>
<!-- Node3&#45;&gt;Node4 -->
<g id="edge3" class="edge">
<title>Node3&#45;&gt;Node4</title>
<path fill="none" stroke="#191970" d="M391.8778,-37.5C383.2595,-37.5 374.5293,-37.5 366.0941,-37.5"/>
<polygon fill="#191970" stroke="#191970" points="391.9192,-41.0001 401.9192,-37.5 391.9191,-34.0001 391.9192,-41.0001"/>
</g>
<!-- Node5 -->
<g id="node5" class="node">
<title>Node5</title>
<g id="a_node5"><a xlink:href="namespacemom.html#a96708b16215666edbfa5b46228f3a200" target="_top" xlink:title="Initialize MOM, including memory allocation, setting up parameters and diagnostics,...">
<polygon fill="#ffffff" stroke="#000000" points="101,-28 101,-47 208,-47 208,-28 101,-28"/>
<text text-anchor="middle" x="154.5" y="-35" font-family="Helvetica,sans-Serif" font-size="10.00" fill="#000000">mom::initialize_mom</text>
</a>
</g>
</g>
<!-- Node4&#45;&gt;Node5 -->
<g id="edge4" class="edge">
<title>Node4&#45;&gt;Node5</title>
<path fill="none" stroke="#191970" d="M233.5343,-37.5C225.0802,-37.5 216.5623,-37.5 208.4089,-37.5"/>
<polygon fill="#191970" stroke="#191970" points="233.7859,-41.0001 243.7859,-37.5 233.7859,-34.0001 233.7859,-41.0001"/>
</g>
<!-- Node6 -->
<g id="node6" class="node">
<title>Node6</title>
<g id="a_node6"><a xlink:href="MOM__driver_8F90.html#a08fffeb2d8e8acbf9ed4609be6d258c6" target="_top" xlink:title=" ">
<polygon fill="#ffffff" stroke="#000000" points="0,-28 0,-47 65,-47 65,-28 0,-28"/>
<text text-anchor="middle" x="32.5" y="-35" font-family="Helvetica,sans-Serif" font-size="10.00" fill="#000000">mom_main</text>
</a>
</g>
</g>
<!-- Node5&#45;&gt;Node6 -->
<g id="edge5" class="edge">
<title>Node5&#45;&gt;Node6</title>
<path fill="none" stroke="#191970" d="M90.9603,-37.5C82.0691,-37.5 73.2499,-37.5 65.2602,-37.5"/>
<polygon fill="#191970" stroke="#191970" points="90.9891,-41.0001 100.989,-37.5 90.989,-34.0001 90.9891,-41.0001"/>
</g>
<!-- Node7&#45;&gt;Node2 -->
<g id="edge8" class="edge">
<title>Node7&#45;&gt;Node2</title>
<path fill="none" stroke="#191970" d="M715.6467,-33.3118C702.475,-37.015 688.7185,-40.8827 675.9455,-44.4738"/>
<polygon fill="#191970" stroke="#191970" points="716.8999,-36.5952 725.5793,-30.5192 715.0052,-29.8565 716.8999,-36.5952"/>
</g>
<!-- Node7&#45;&gt;Node3 -->
<g id="edge7" class="edge">
<title>Node7&#45;&gt;Node3</title>
<path fill="none" stroke="#191970" d="M707.7423,-20.4846C653.4171,-24.2848 579.3184,-29.4682 527.2255,-33.1122"/>
<polygon fill="#191970" stroke="#191970" points="708.257,-23.9573 717.9883,-19.7679 707.7684,-16.9743 708.257,-23.9573"/>
</g>
</g>
</svg>
