<?xml version="1.0" encoding="UTF-8" standalone="no"?>
<!DOCTYPE svg PUBLIC "-//W3C//DTD SVG 1.1//EN"
 "http://www.w3.org/Graphics/SVG/1.1/DTD/svg11.dtd">
<!-- Generated by graphviz version 2.40.1 (20161225.0304)
 -->
<!-- Title: mom_continuity_ppm::zonal_face_thickness Pages: 1 -->
<svg width="417pt" height="39pt"
 viewBox="0.00 0.00 417.00 39.00" xmlns="http://www.w3.org/2000/svg" xmlns:xlink="http://www.w3.org/1999/xlink">
<g id="graph0" class="graph" transform="scale(1 1) rotate(0) translate(4 35)">
<title>mom_continuity_ppm::zonal_face_thickness</title>
<polygon fill="#ffffff" stroke="transparent" points="-4,4 -4,-35 413,-35 413,4 -4,4"/>
<!-- Node1 -->
<g id="node1" class="node">
<title>Node1</title>
<g id="a_node1"><a xlink:title="Sets the effective interface thickness at each zonal velocity point.">
<polygon fill="#bfbfbf" stroke="#000000" points="292,-.5 292,-30.5 409,-30.5 409,-.5 292,-.5"/>
<text text-anchor="start" x="300" y="-18.5" font-family="Helvetica,sans-Serif" font-size="10.00" fill="#000000">mom_continuity_ppm</text>
<text text-anchor="middle" x="350.5" y="-7.5" font-family="Helvetica,sans-Serif" font-size="10.00" fill="#000000">::zonal_face_thickness</text>
</a>
</g>
</g>
<!-- Node2 -->
<g id="node2" class="node">
<title>Node2</title>
<g id="a_node2"><a xlink:href="namespacemom__continuity__ppm.html#a5f5d6764ed315043d3b91b209db5c0a0" target="_top" xlink:title="Calculates the mass or volume fluxes through the zonal faces, and other related quantities.">
<polygon fill="#ffffff" stroke="#000000" points="146,-.5 146,-30.5 256,-30.5 256,-.5 146,-.5"/>
<text text-anchor="start" x="154" y="-18.5" font-family="Helvetica,sans-Serif" font-size="10.00" fill="#000000">mom_continuity_ppm</text>
<text text-anchor="middle" x="201" y="-7.5" font-family="Helvetica,sans-Serif" font-size="10.00" fill="#000000">::zonal_mass_flux</text>
</a>
</g>
</g>
<!-- Node1&#45;&gt;Node2 -->
<g id="edge1" class="edge">
<title>Node1&#45;&gt;Node2</title>
<path fill="none" stroke="#191970" d="M281.7985,-15.5C273.1765,-15.5 264.4464,-15.5 256.0711,-15.5"/>
<polygon fill="#191970" stroke="#191970" points="281.8428,-19.0001 291.8427,-15.5 281.8427,-12.0001 281.8428,-19.0001"/>
</g>
<!-- Node3 -->
<g id="node3" class="node">
<title>Node3</title>
<g id="a_node3"><a xlink:href="namespacemom__continuity__ppm.html#a665851a49a4bde77b4ef5e25332947f6" target="_top" xlink:title="Time steps the layer thicknesses, using a monotonically limit, directionally split PPM scheme,...">
<polygon fill="#ffffff" stroke="#000000" points="0,-.5 0,-30.5 110,-30.5 110,-.5 0,-.5"/>
<text text-anchor="start" x="8" y="-18.5" font-family="Helvetica,sans-Serif" font-size="10.00" fill="#000000">mom_continuity_ppm</text>
<text text-anchor="middle" x="55" y="-7.5" font-family="Helvetica,sans-Serif" font-size="10.00" fill="#000000">::continuity_ppm</text>
</a>
</g>
</g>
<!-- Node2&#45;&gt;Node3 -->
<g id="edge2" class="edge">
<title>Node2&#45;&gt;Node3</title>
<path fill="none" stroke="#191970" d="M135.5899,-15.5C127.1353,-15.5 118.5433,-15.5 110.2744,-15.5"/>
<polygon fill="#191970" stroke="#191970" points="135.8037,-19.0001 145.8037,-15.5 135.8036,-12.0001 135.8037,-19.0001"/>
</g>
</g>
</svg>
