<?xml version="1.0" encoding="UTF-8" standalone="no"?>
<!DOCTYPE svg PUBLIC "-//W3C//DTD SVG 1.1//EN"
 "http://www.w3.org/Graphics/SVG/1.1/DTD/svg11.dtd">
<!-- Generated by graphviz version 2.40.1 (20161225.0304)
 -->
<!-- Title: dyed_channel_initialization::register_dyed_channel_obc Pages: 1 -->
<svg width="478pt" height="88pt"
 viewBox="0.00 0.00 478.00 88.00" xmlns="http://www.w3.org/2000/svg" xmlns:xlink="http://www.w3.org/1999/xlink">
<g id="graph0" class="graph" transform="scale(1 1) rotate(0) translate(4 84)">
<title>dyed_channel_initialization::register_dyed_channel_obc</title>
<polygon fill="#ffffff" stroke="transparent" points="-4,4 -4,-84 474,-84 474,4 -4,4"/>
<!-- Node1 -->
<g id="node1" class="node">
<title>Node1</title>
<g id="a_node1"><a xlink:title="Add dyed channel to OBC registry.">
<polygon fill="#bfbfbf" stroke="#000000" points="0,-24.5 0,-54.5 152,-54.5 152,-24.5 0,-24.5"/>
<text text-anchor="start" x="8" y="-42.5" font-family="Helvetica,sans-Serif" font-size="10.00" fill="#000000">dyed_channel_initialization</text>
<text text-anchor="middle" x="76" y="-31.5" font-family="Helvetica,sans-Serif" font-size="10.00" fill="#000000">::register_dyed_channel_obc</text>
</a>
</g>
</g>
<!-- Node2 -->
<g id="node2" class="node">
<title>Node2</title>
<g id="a_node2"><a xlink:href="namespacemom__error__handler.html#a460cfb79a06c29fc249952c2a3710d67" target="_top" xlink:title="This provides a convenient interface for writing an mpp_error message with run&#45;time filter based on a...">
<polygon fill="#ffffff" stroke="#000000" points="192,-49.5 192,-79.5 307,-79.5 307,-49.5 192,-49.5"/>
<text text-anchor="start" x="200" y="-67.5" font-family="Helvetica,sans-Serif" font-size="10.00" fill="#000000">mom_error_handler::</text>
<text text-anchor="middle" x="249.5" y="-56.5" font-family="Helvetica,sans-Serif" font-size="10.00" fill="#000000">mom_error</text>
</a>
</g>
</g>
<!-- Node1&#45;&gt;Node2 -->
<g id="edge1" class="edge">
<title>Node1&#45;&gt;Node2</title>
<path fill="none" stroke="#191970" d="M152.0996,-50.4654C162.0333,-51.8967 172.156,-53.3553 181.9363,-54.7646"/>
<polygon fill="#191970" stroke="#191970" points="181.5851,-58.2501 191.9821,-56.2121 182.5835,-51.3216 181.5851,-58.2501"/>
</g>
<!-- Node4 -->
<g id="node4" class="node">
<title>Node4</title>
<g id="a_node4"><a xlink:href="namespacemom__open__boundary.html#a8e0e22d829c122134f039228c6f1c7fb" target="_top" xlink:title="register open boundary objects for boundary updates.">
<polygon fill="#ffffff" stroke="#000000" points="188,-.5 188,-30.5 311,-30.5 311,-.5 188,-.5"/>
<text text-anchor="start" x="196" y="-18.5" font-family="Helvetica,sans-Serif" font-size="10.00" fill="#000000">mom_open_boundary::</text>
<text text-anchor="middle" x="249.5" y="-7.5" font-family="Helvetica,sans-Serif" font-size="10.00" fill="#000000">register_obc</text>
</a>
</g>
</g>
<!-- Node1&#45;&gt;Node4 -->
<g id="edge3" class="edge">
<title>Node1&#45;&gt;Node4</title>
<path fill="none" stroke="#191970" d="M152.0996,-28.9733C160.5793,-27.8003 169.1968,-26.6082 177.6215,-25.4429"/>
<polygon fill="#191970" stroke="#191970" points="178.3537,-28.875 187.7798,-24.0377 177.3945,-21.941 178.3537,-28.875"/>
</g>
<!-- Node3 -->
<g id="node3" class="node">
<title>Node3</title>
<g id="a_node3"><a xlink:href="namespacemom__error__handler.html#ad5f00a53059c72fe2332d1436c80ca71" target="_top" xlink:title="This returns .true. if the current PE is the root PE.">
<polygon fill="#ffffff" stroke="#000000" points="351,-49.5 351,-79.5 466,-79.5 466,-49.5 351,-49.5"/>
<text text-anchor="start" x="359" y="-67.5" font-family="Helvetica,sans-Serif" font-size="10.00" fill="#000000">mom_error_handler::</text>
<text text-anchor="middle" x="408.5" y="-56.5" font-family="Helvetica,sans-Serif" font-size="10.00" fill="#000000">is_root_pe</text>
</a>
</g>
</g>
<!-- Node2&#45;&gt;Node3 -->
<g id="edge2" class="edge">
<title>Node2&#45;&gt;Node3</title>
<path fill="none" stroke="#191970" d="M307.3524,-64.5C318.2296,-64.5 329.692,-64.5 340.8369,-64.5"/>
<polygon fill="#191970" stroke="#191970" points="340.9569,-68.0001 350.9569,-64.5 340.9568,-61.0001 340.9569,-68.0001"/>
</g>
<!-- Node5 -->
<g id="node5" class="node">
<title>Node5</title>
<g id="a_node5"><a xlink:href="namespacemom__open__boundary.html#a0a6e28bbfec6ab82bfe2fd2848902945" target="_top" xlink:title="This routine include declares and sets the variable &quot;version&quot;.">
<polygon fill="#ffffff" stroke="#000000" points="347,-.5 347,-30.5 470,-30.5 470,-.5 347,-.5"/>
<text text-anchor="start" x="355" y="-18.5" font-family="Helvetica,sans-Serif" font-size="10.00" fill="#000000">mom_open_boundary::</text>
<text text-anchor="middle" x="408.5" y="-7.5" font-family="Helvetica,sans-Serif" font-size="10.00" fill="#000000">obc_registry_init</text>
</a>
</g>
</g>
<!-- Node4&#45;&gt;Node5 -->
<g id="edge4" class="edge">
<title>Node4&#45;&gt;Node5</title>
<path fill="none" stroke="#191970" d="M311.4288,-15.5C319.6737,-15.5 328.1839,-15.5 336.5803,-15.5"/>
<polygon fill="#191970" stroke="#191970" points="336.7402,-19.0001 346.7402,-15.5 336.7401,-12.0001 336.7402,-19.0001"/>
</g>
</g>
</svg>
