<?xml version="1.0" encoding="UTF-8" standalone="no"?>
<!DOCTYPE svg PUBLIC "-//W3C//DTD SVG 1.1//EN"
 "http://www.w3.org/Graphics/SVG/1.1/DTD/svg11.dtd">
<!-- Generated by graphviz version 2.40.1 (20161225.0304)
 -->
<!-- Title: mom_lateral_boundary_diffusion::test_layer_fluxes Pages: 1 -->
<svg width="675pt" height="50pt"
 viewBox="0.00 0.00 675.00 50.00" xmlns="http://www.w3.org/2000/svg" xmlns:xlink="http://www.w3.org/1999/xlink">
<g id="graph0" class="graph" transform="scale(1 1) rotate(0) translate(4 46)">
<title>mom_lateral_boundary_diffusion::test_layer_fluxes</title>
<polygon fill="#ffffff" stroke="transparent" points="-4,4 -4,-46 671,-46 671,4 -4,4"/>
<!-- Node1 -->
<g id="node1" class="node">
<title>Node1</title>
<g id="a_node1"><a xlink:title="Returns true if output of near&#45;boundary unit tests does not match correct computed values and conditi...">
<polygon fill="#bfbfbf" stroke="#000000" points="552,-.5 552,-41.5 667,-41.5 667,-.5 552,-.5"/>
<text text-anchor="start" x="560" y="-29.5" font-family="Helvetica,sans-Serif" font-size="10.00" fill="#000000">mom_lateral_boundary</text>
<text text-anchor="start" x="560" y="-18.5" font-family="Helvetica,sans-Serif" font-size="10.00" fill="#000000">_diffusion::test_layer</text>
<text text-anchor="middle" x="609.5" y="-7.5" font-family="Helvetica,sans-Serif" font-size="10.00" fill="#000000">_fluxes</text>
</a>
</g>
</g>
<!-- Node2 -->
<g id="node2" class="node">
<title>Node2</title>
<g id="a_node2"><a xlink:href="namespacemom__lateral__boundary__diffusion.html#a5590830aab282e34bcd5d4df052d4578" target="_top" xlink:title="Unit tests for near&#45;boundary horizontal mixing.">
<polygon fill="#ffffff" stroke="#000000" points="388,-.5 388,-41.5 516,-41.5 516,-.5 388,-.5"/>
<text text-anchor="start" x="396" y="-29.5" font-family="Helvetica,sans-Serif" font-size="10.00" fill="#000000">mom_lateral_boundary</text>
<text text-anchor="start" x="396" y="-18.5" font-family="Helvetica,sans-Serif" font-size="10.00" fill="#000000">_diffusion::near_boundary</text>
<text text-anchor="middle" x="452" y="-7.5" font-family="Helvetica,sans-Serif" font-size="10.00" fill="#000000">_unit_tests</text>
</a>
</g>
</g>
<!-- Node1&#45;&gt;Node2 -->
<g id="edge1" class="edge">
<title>Node1&#45;&gt;Node2</title>
<path fill="none" stroke="#191970" d="M541.5602,-21C533.1181,-21 524.5071,-21 516.1252,-21"/>
<polygon fill="#191970" stroke="#191970" points="541.7472,-24.5001 551.7471,-21 541.7471,-17.5001 541.7472,-24.5001"/>
</g>
<!-- Node3 -->
<g id="node3" class="node">
<title>Node3</title>
<g id="a_node3"><a xlink:href="namespacemom__unit__tests.html#a57645db02bc734c32de50d028ef906ac" target="_top" xlink:title="Calls unit tests for other modules. Note that if a unit test returns true, a FATAL error is triggered...">
<polygon fill="#ffffff" stroke="#000000" points="244,-6 244,-36 352,-36 352,-6 244,-6"/>
<text text-anchor="start" x="252" y="-24" font-family="Helvetica,sans-Serif" font-size="10.00" fill="#000000">mom_unit_tests::unit</text>
<text text-anchor="middle" x="298" y="-13" font-family="Helvetica,sans-Serif" font-size="10.00" fill="#000000">_tests</text>
</a>
</g>
</g>
<!-- Node2&#45;&gt;Node3 -->
<g id="edge2" class="edge">
<title>Node2&#45;&gt;Node3</title>
<path fill="none" stroke="#191970" d="M377.3601,-21C368.9421,-21 360.4865,-21 352.3962,-21"/>
<polygon fill="#191970" stroke="#191970" points="377.5825,-24.5001 387.5824,-21 377.5824,-17.5001 377.5825,-24.5001"/>
</g>
<!-- Node4 -->
<g id="node4" class="node">
<title>Node4</title>
<g id="a_node4"><a xlink:href="namespacemom.html#a96708b16215666edbfa5b46228f3a200" target="_top" xlink:title="Initialize MOM, including memory allocation, setting up parameters and diagnostics,...">
<polygon fill="#ffffff" stroke="#000000" points="101,-11.5 101,-30.5 208,-30.5 208,-11.5 101,-11.5"/>
<text text-anchor="middle" x="154.5" y="-18.5" font-family="Helvetica,sans-Serif" font-size="10.00" fill="#000000">mom::initialize_mom</text>
</a>
</g>
</g>
<!-- Node3&#45;&gt;Node4 -->
<g id="edge3" class="edge">
<title>Node3&#45;&gt;Node4</title>
<path fill="none" stroke="#191970" d="M233.5691,-21C225.1423,-21 216.5794,-21 208.3519,-21"/>
<polygon fill="#191970" stroke="#191970" points="233.7488,-24.5001 243.7488,-21 233.7488,-17.5001 233.7488,-24.5001"/>
</g>
<!-- Node5 -->
<g id="node5" class="node">
<title>Node5</title>
<g id="a_node5"><a xlink:href="MOM__driver_8F90.html#a08fffeb2d8e8acbf9ed4609be6d258c6" target="_top" xlink:title=" ">
<polygon fill="#ffffff" stroke="#000000" points="0,-11.5 0,-30.5 65,-30.5 65,-11.5 0,-11.5"/>
<text text-anchor="middle" x="32.5" y="-18.5" font-family="Helvetica,sans-Serif" font-size="10.00" fill="#000000">mom_main</text>
</a>
</g>
</g>
<!-- Node4&#45;&gt;Node5 -->
<g id="edge4" class="edge">
<title>Node4&#45;&gt;Node5</title>
<path fill="none" stroke="#191970" d="M90.9603,-21C82.0691,-21 73.2499,-21 65.2602,-21"/>
<polygon fill="#191970" stroke="#191970" points="90.9891,-24.5001 100.989,-21 90.989,-17.5001 90.9891,-24.5001"/>
</g>
</g>
</svg>
