<?xml version="1.0" encoding="UTF-8" standalone="no"?>
<!DOCTYPE svg PUBLIC "-//W3C//DTD SVG 1.1//EN"
 "http://www.w3.org/Graphics/SVG/1.1/DTD/svg11.dtd">
<!-- Generated by graphviz version 2.40.1 (20161225.0304)
 -->
<!-- Title: mom_file_parser::read_param_logical Pages: 1 -->
<svg width="529pt" height="154pt"
 viewBox="0.00 0.00 529.00 153.50" xmlns="http://www.w3.org/2000/svg" xmlns:xlink="http://www.w3.org/1999/xlink">
<g id="graph0" class="graph" transform="scale(1 1) rotate(0) translate(4 149.5)">
<title>mom_file_parser::read_param_logical</title>
<polygon fill="#ffffff" stroke="transparent" points="-4,4 -4,-149.5 525,-149.5 525,4 -4,4"/>
<!-- Node1 -->
<g id="node1" class="node">
<title>Node1</title>
<g id="a_node1"><a xlink:title="This subroutine reads the value of a logical model parameter from a parameter file.">
<polygon fill="#bfbfbf" stroke="#000000" points="0,-52 0,-82 113,-82 113,-52 0,-52"/>
<text text-anchor="start" x="8" y="-70" font-family="Helvetica,sans-Serif" font-size="10.00" fill="#000000">mom_file_parser::read</text>
<text text-anchor="middle" x="56.5" y="-59" font-family="Helvetica,sans-Serif" font-size="10.00" fill="#000000">_param_logical</text>
</a>
</g>
</g>
<!-- Node2 -->
<g id="node2" class="node">
<title>Node2</title>
<g id="a_node2"><a xlink:href="namespacemom__file__parser.html#af883df6020543889b25986d6ee9701f7" target="_top" xlink:title="This subtoutine extracts the contents of lines in the param_file_type that refer to a named parameter...">
<polygon fill="#ffffff" stroke="#000000" points="149,-52 149,-82 257,-82 257,-52 149,-52"/>
<text text-anchor="start" x="157" y="-70" font-family="Helvetica,sans-Serif" font-size="10.00" fill="#000000">mom_file_parser::get</text>
<text text-anchor="middle" x="203" y="-59" font-family="Helvetica,sans-Serif" font-size="10.00" fill="#000000">_variable_line</text>
</a>
</g>
</g>
<!-- Node1&#45;&gt;Node2 -->
<g id="edge1" class="edge">
<title>Node1&#45;&gt;Node2</title>
<path fill="none" stroke="#191970" d="M113.1407,-67C121.4982,-67 130.1602,-67 138.6598,-67"/>
<polygon fill="#191970" stroke="#191970" points="138.9154,-70.5001 148.9154,-67 138.9154,-63.5001 138.9154,-70.5001"/>
</g>
<!-- Node3 -->
<g id="node3" class="node">
<title>Node3</title>
<g id="a_node3"><a xlink:href="namespacemom__file__parser.html#a7803aabff129cc7f56d4516bc24613f0" target="_top" xlink:title="Record that a line has been used to set a parameter.">
<polygon fill="#ffffff" stroke="#000000" points="352,-115 352,-145 462,-145 462,-115 352,-115"/>
<text text-anchor="start" x="360" y="-133" font-family="Helvetica,sans-Serif" font-size="10.00" fill="#000000">mom_file_parser::flag</text>
<text text-anchor="middle" x="407" y="-122" font-family="Helvetica,sans-Serif" font-size="10.00" fill="#000000">_line_as_read</text>
</a>
</g>
</g>
<!-- Node2&#45;&gt;Node3 -->
<g id="edge2" class="edge">
<title>Node2&#45;&gt;Node3</title>
<path fill="none" stroke="#191970" d="M234.9525,-82.1838C251.9154,-89.8091 273.2798,-98.7331 293,-105 308.6716,-109.9803 325.8638,-114.3154 342.0375,-117.9139"/>
<polygon fill="#191970" stroke="#191970" points="341.4397,-121.3654 351.9536,-120.0584 342.9195,-114.5236 341.4397,-121.3654"/>
</g>
<!-- Node4 -->
<g id="node4" class="node">
<title>Node4</title>
<g id="a_node4"><a xlink:href="namespacemom__file__parser.html#a0c9bb1e76b09bc09bae5402e63bd0f99" target="_top" xlink:title="Returns true if an override warning has been issued for the variable varName.">
<polygon fill="#ffffff" stroke="#000000" points="293,-76.5 293,-95.5 521,-95.5 521,-76.5 293,-76.5"/>
<text text-anchor="middle" x="407" y="-83.5" font-family="Helvetica,sans-Serif" font-size="10.00" fill="#000000">mom_file_parser::overridewarninghasbeenissued</text>
</a>
</g>
</g>
<!-- Node2&#45;&gt;Node4 -->
<g id="edge3" class="edge">
<title>Node2&#45;&gt;Node4</title>
<path fill="none" stroke="#191970" d="M257.1327,-72.0418C268.8905,-73.1369 281.7457,-74.3342 294.8264,-75.5525"/>
<polygon fill="#191970" stroke="#191970" points="294.5772,-79.0443 304.8588,-76.4868 295.2265,-72.0745 294.5772,-79.0443"/>
</g>
<!-- Node5 -->
<g id="node5" class="node">
<title>Node5</title>
<g id="a_node5"><a xlink:href="namespacemom__file__parser.html#a73b11b969d303b1fc0ba5235c812fd05" target="_top" xlink:title="Truncates block name (shallower level of parameter block)">
<polygon fill="#ffffff" stroke="#000000" points="330,-38.5 330,-57.5 484,-57.5 484,-38.5 330,-38.5"/>
<text text-anchor="middle" x="407" y="-45.5" font-family="Helvetica,sans-Serif" font-size="10.00" fill="#000000">mom_file_parser::popblocklevel</text>
</a>
</g>
</g>
<!-- Node2&#45;&gt;Node5 -->
<g id="edge4" class="edge">
<title>Node2&#45;&gt;Node5</title>
<path fill="none" stroke="#191970" d="M257.1327,-61.9582C276.3919,-60.1645 298.5958,-58.0965 319.9116,-56.1112"/>
<polygon fill="#191970" stroke="#191970" points="320.3247,-59.5879 329.957,-55.1756 319.6755,-52.6181 320.3247,-59.5879"/>
</g>
<!-- Node6 -->
<g id="node6" class="node">
<title>Node6</title>
<g id="a_node6"><a xlink:href="namespacemom__file__parser.html#a58777b0faf747d59a793b4e238919dc6" target="_top" xlink:title="Extends block name (deeper level of parameter block)">
<polygon fill="#ffffff" stroke="#000000" points="327.5,-.5 327.5,-19.5 486.5,-19.5 486.5,-.5 327.5,-.5"/>
<text text-anchor="middle" x="407" y="-7.5" font-family="Helvetica,sans-Serif" font-size="10.00" fill="#000000">mom_file_parser::pushblocklevel</text>
</a>
</g>
</g>
<!-- Node2&#45;&gt;Node6 -->
<g id="edge5" class="edge">
<title>Node2&#45;&gt;Node6</title>
<path fill="none" stroke="#191970" d="M233.5864,-51.9721C250.7037,-44.1048 272.6386,-34.9065 293,-29 302.9302,-26.1194 313.4818,-23.6287 324.0023,-21.4875"/>
<polygon fill="#191970" stroke="#191970" points="324.9059,-24.8777 334.0582,-19.5405 323.5751,-18.0053 324.9059,-24.8777"/>
</g>
</g>
</svg>
