<?xml version="1.0" encoding="UTF-8" standalone="no"?>
<!DOCTYPE svg PUBLIC "-//W3C//DTD SVG 1.1//EN"
 "http://www.w3.org/Graphics/SVG/1.1/DTD/svg11.dtd">
<!-- Generated by graphviz version 2.40.1 (20161225.0304)
 -->
<!-- Title: mom_document::doc_param_int Pages: 1 -->
<!--zoomable 274 -->
<svg id="main" version="1.1" xmlns="http://www.w3.org/2000/svg" xmlns:xlink="http://www.w3.org/1999/xlink" xml:space="preserve" onload="init(evt)">
<style type="text/css"><![CDATA[
.edge:hover path { stroke: red; }
.edge:hover polygon { stroke: red; fill: red; }
]]></style>
<script type="text/javascript"><![CDATA[
var edges = document.getElementsByTagName('g');
if (edges && edges.length) {
  for (var i=0;i<edges.length;i++) {
    if (edges[i].id.substr(0,4)=='edge') {
      edges[i].setAttribute('class','edge');
    }
  }
}
]]></script>
        <defs>
                <circle id="rim" cx="0" cy="0" r="7"/>
                <circle id="rim2" cx="0" cy="0" r="3.5"/>
                <g id="zoomPlus">
                        <use xlink:href="#rim" fill="#404040">
                                <set attributeName="fill" to="#808080" begin="zoomplus.mouseover" end="zoomplus.mouseout"/>
                        </use>
                        <path d="M-4,0h8M0,-4v8" fill="none" stroke="white" stroke-width="1.5" pointer-events="none"/>
                </g>
                <g id="zoomMin">
                        <use xlink:href="#rim" fill="#404040">
                                <set attributeName="fill" to="#808080" begin="zoomminus.mouseover" end="zoomminus.mouseout"/>
                        </use>
                        <path d="M-4,0h8" fill="none" stroke="white" stroke-width="1.5" pointer-events="none"/>
                </g>
                <g id="dirArrow">
                        <path fill="none" stroke="white" stroke-width="1.5" d="M0,-3.0v7 M-2.5,-0.5L0,-3.0L2.5,-0.5"/>
                </g>
               <g id="resetDef">
                       <use xlink:href="#rim2" fill="#404040">
                               <set attributeName="fill" to="#808080" begin="reset.mouseover" end="reset.mouseout"/>
                       </use>
               </g>
        </defs>

<script type="text/javascript">
var viewWidth = 968;
var viewHeight = 274;
var sectionId = 'dynsection-6';
</script>
<script xlink:href="svgpan.js"/>
<svg id="graph" class="graph">
<g id="viewport">
<title>mom_document::doc_param_int</title>
<polygon fill="#ffffff" stroke="transparent" points="-4,4 -4,-270.0384 964,-270.0384 964,4 -4,4"/>
<!-- Node1 -->
<g id="node1" class="node">
<title>Node1</title>
<g id="a_node1"><a xlink:title="This subroutine handles parameter documentation for integers.">
<polygon fill="#bfbfbf" stroke="#000000" points="0,-140.0384 0,-159.0384 166,-159.0384 166,-140.0384 0,-140.0384"/>
<text text-anchor="middle" x="83" y="-147.0384" font-family="Helvetica,sans-Serif" font-size="10.00" fill="#000000">mom_document::doc_param_int</text>
</a>
</g>
</g>
<!-- Node2 -->
<g id="node2" class="node">
<title>Node2</title>
<g id="a_node2"><a xlink:href="namespacemom__document.html#aadc9c21a3f71a85107454b8080d6ec5c" target="_top" xlink:title="This function returns a string for formatted parameter assignment.">
<polygon fill="#ffffff" stroke="#000000" points="240,-235.5384 240,-265.5384 365,-265.5384 365,-235.5384 240,-235.5384"/>
<text text-anchor="start" x="248" y="-253.5384" font-family="Helvetica,sans-Serif" font-size="10.00" fill="#000000">mom_document::define</text>
<text text-anchor="middle" x="302.5" y="-242.5384" font-family="Helvetica,sans-Serif" font-size="10.00" fill="#000000">_string</text>
</a>
</g>
</g>
<!-- Node1&#45;&gt;Node2 -->
<g id="edge1" class="edge">
<title>Node1&#45;&gt;Node2</title>
<path fill="none" stroke="#191970" d="M95.0968,-159.1792C115.8022,-175.2248 159.8875,-207.4307 202,-225.5384 210.8265,-229.3336 220.3472,-232.6337 229.8876,-235.48"/>
<polygon fill="#191970" stroke="#191970" points="229.2336,-238.9322 239.8086,-238.2837 231.1373,-232.1961 229.2336,-238.9322"/>
</g>
<!-- Node3 -->
<g id="node3" class="node">
<title>Node3</title>
<g id="a_node3"><a xlink:href="namespacemom__document.html#a546c1393f07adc49a43fe5f6af171730" target="_top" xlink:title="This function returns a string with an integer formatted like &#39;(I)&#39;.">
<polygon fill="#ffffff" stroke="#000000" points="233,-197.0384 233,-216.0384 372,-216.0384 372,-197.0384 233,-197.0384"/>
<text text-anchor="middle" x="302.5" y="-204.0384" font-family="Helvetica,sans-Serif" font-size="10.00" fill="#000000">mom_document::int_string</text>
</a>
</g>
</g>
<!-- Node1&#45;&gt;Node3 -->
<g id="edge2" class="edge">
<title>Node1&#45;&gt;Node3</title>
<path fill="none" stroke="#191970" d="M116.2551,-159.1066C140.0715,-165.8743 172.9363,-175.0408 202,-182.5384 217.8161,-186.6184 235.0954,-190.8323 250.7962,-194.5686"/>
<polygon fill="#191970" stroke="#191970" points="250.3174,-198.0519 260.8547,-196.9488 251.9294,-191.2401 250.3174,-198.0519"/>
</g>
<!-- Node4 -->
<g id="node4" class="node">
<title>Node4</title>
<g id="a_node4"><a xlink:href="namespacemom__error__handler.html#ad5f00a53059c72fe2332d1436c80ca71" target="_top" xlink:title="This returns .true. if the current PE is the root PE.">
<polygon fill="#ffffff" stroke="#000000" points="845,-77.5384 845,-107.5384 960,-107.5384 960,-77.5384 845,-77.5384"/>
<text text-anchor="start" x="853" y="-95.5384" font-family="Helvetica,sans-Serif" font-size="10.00" fill="#000000">mom_error_handler::</text>
<text text-anchor="middle" x="902.5" y="-84.5384" font-family="Helvetica,sans-Serif" font-size="10.00" fill="#000000">is_root_pe</text>
</a>
</g>
</g>
<!-- Node1&#45;&gt;Node4 -->
<g id="edge3" class="edge">
<title>Node1&#45;&gt;Node4</title>
<path fill="none" stroke="#191970" d="M166.1802,-155.4614C278.3011,-162.0957 483.9462,-169.5054 658,-149.5384 722.2103,-142.1723 794.0678,-124.2154 843.1702,-110.4082"/>
<polygon fill="#191970" stroke="#191970" points="844.3227,-113.7193 852.9847,-107.6184 842.4088,-106.986 844.3227,-113.7193"/>
</g>
<!-- Node5 -->
<g id="node5" class="node">
<title>Node5</title>
<g id="a_node5"><a xlink:href="namespacemom__document.html#aa23ed2e58e74e88a71de374685ee11ec" target="_top" xlink:title="Returns true if documentation has already been written.">
<polygon fill="#ffffff" stroke="#000000" points="439,-121.0384 439,-140.0384 658,-140.0384 658,-121.0384 439,-121.0384"/>
<text text-anchor="middle" x="548.5" y="-128.0384" font-family="Helvetica,sans-Serif" font-size="10.00" fill="#000000">mom_document::mesghasbeendocumented</text>
</a>
</g>
</g>
<!-- Node1&#45;&gt;Node5 -->
<g id="edge4" class="edge">
<title>Node1&#45;&gt;Node5</title>
<path fill="none" stroke="#191970" d="M166.2221,-146.1415C239.2752,-143.1598 346.4097,-138.7869 428.6893,-135.4286"/>
<polygon fill="#191970" stroke="#191970" points="429.0018,-138.9188 438.8507,-135.0138 428.7162,-131.9247 429.0018,-138.9188"/>
</g>
<!-- Node7 -->
<g id="node7" class="node">
<title>Node7</title>
<g id="a_node7"><a xlink:href="namespacemom__document.html#aab976b6c6c9c01833438d217fca228a4" target="_top" xlink:title="This subroutine allocates and populates a structure that controls where the documentation occurs and ...">
<polygon fill="#ffffff" stroke="#000000" points="243,-71.5384 243,-101.5384 362,-101.5384 362,-71.5384 243,-71.5384"/>
<text text-anchor="start" x="251" y="-89.5384" font-family="Helvetica,sans-Serif" font-size="10.00" fill="#000000">mom_document::open</text>
<text text-anchor="middle" x="302.5" y="-78.5384" font-family="Helvetica,sans-Serif" font-size="10.00" fill="#000000">_doc_file</text>
</a>
</g>
</g>
<!-- Node1&#45;&gt;Node7 -->
<g id="edge7" class="edge">
<title>Node1&#45;&gt;Node7</title>
<path fill="none" stroke="#191970" d="M116.3373,-139.97C149.1327,-130.5572 199.9998,-115.9576 240.2799,-104.3965"/>
<polygon fill="#191970" stroke="#191970" points="241.3651,-107.7264 250.0115,-101.6034 239.4339,-100.9981 241.3651,-107.7264"/>
</g>
<!-- Node9 -->
<g id="node9" class="node">
<title>Node9</title>
<g id="a_node9"><a xlink:href="namespacemom__document.html#a249e7992a57539508d07c71c6fcabaeb" target="_top" xlink:title="This subroutine writes out the message and description to the documetation files.">
<polygon fill="#ffffff" stroke="#000000" points="202,-33.0384 202,-52.0384 403,-52.0384 403,-33.0384 202,-33.0384"/>
<text text-anchor="middle" x="302.5" y="-40.0384" font-family="Helvetica,sans-Serif" font-size="10.00" fill="#000000">mom_document::writemessageanddesc</text>
</a>
</g>
</g>
<!-- Node1&#45;&gt;Node9 -->
<g id="edge12" class="edge">
<title>Node1&#45;&gt;Node9</title>
<path fill="none" stroke="#191970" d="M92.8572,-139.9338C112.1053,-121.7635 156.7771,-82.4017 202,-62.5384 208.9084,-59.5039 216.2864,-56.926 223.7887,-54.7366"/>
<polygon fill="#191970" stroke="#191970" points="224.9439,-58.0505 233.6938,-52.0765 223.1282,-51.29 224.9439,-58.0505"/>
</g>
<!-- Node6 -->
<g id="node6" class="node">
<title>Node6</title>
<g id="a_node6"><a xlink:href="namespacemom__error__handler.html#a460cfb79a06c29fc249952c2a3710d67" target="_top" xlink:title="This provides a convenient interface for writing an mpp_error message with run&#45;time filter based on a...">
<polygon fill="#ffffff" stroke="#000000" points="694,-77.5384 694,-107.5384 809,-107.5384 809,-77.5384 694,-77.5384"/>
<text text-anchor="start" x="702" y="-95.5384" font-family="Helvetica,sans-Serif" font-size="10.00" fill="#000000">mom_error_handler::</text>
<text text-anchor="middle" x="751.5" y="-84.5384" font-family="Helvetica,sans-Serif" font-size="10.00" fill="#000000">mom_error</text>
</a>
</g>
</g>
<!-- Node5&#45;&gt;Node6 -->
<g id="edge5" class="edge">
<title>Node5&#45;&gt;Node6</title>
<path fill="none" stroke="#191970" d="M599.4634,-120.9984C624.986,-116.2208 656.2321,-110.3718 683.7454,-105.2215"/>
<polygon fill="#191970" stroke="#191970" points="684.5102,-108.6392 693.6954,-103.3589 683.2222,-101.7587 684.5102,-108.6392"/>
</g>
<!-- Node6&#45;&gt;Node4 -->
<g id="edge6" class="edge">
<title>Node6&#45;&gt;Node4</title>
<path fill="none" stroke="#191970" d="M809.0174,-92.5384C817.4639,-92.5384 826.2292,-92.5384 834.8561,-92.5384"/>
<polygon fill="#191970" stroke="#191970" points="834.8926,-96.0385 844.8925,-92.5384 834.8925,-89.0385 834.8926,-96.0385"/>
</g>
<!-- Node7&#45;&gt;Node4 -->
<g id="edge10" class="edge">
<title>Node7&#45;&gt;Node4</title>
<path fill="none" stroke="#191970" d="M362.0057,-77.4966C376.0364,-73.8318 390.5279,-68.7035 403,-61.5384 422.8945,-50.1091 417.8633,-33.4636 439,-24.5384 586.2351,37.6332 780.5436,-35.7128 862.8984,-73.1576"/>
<polygon fill="#191970" stroke="#191970" points="861.8299,-76.5193 872.3759,-77.5346 864.7648,-70.1643 861.8299,-76.5193"/>
</g>
<!-- Node7&#45;&gt;Node6 -->
<g id="edge11" class="edge">
<title>Node7&#45;&gt;Node6</title>
<path fill="none" stroke="#191970" d="M362.1237,-87.3351C445.4188,-88.4482 596.2011,-90.4631 683.68,-91.6321"/>
<polygon fill="#191970" stroke="#191970" points="683.7191,-95.1328 693.765,-91.7668 683.8127,-88.1334 683.7191,-95.1328"/>
</g>
<!-- Node8 -->
<g id="node8" class="node">
<title>Node8</title>
<g id="a_node8"><a xlink:href="namespacemom__document.html#a5f2661445a72a7d0f774677e91366db5" target="_top" xlink:title="Find an unused unit number, returning &gt;0 if found, and triggering a FATAL error if not.">
<polygon fill="#ffffff" stroke="#000000" points="489,-33.5384 489,-63.5384 608,-63.5384 608,-33.5384 489,-33.5384"/>
<text text-anchor="start" x="497" y="-51.5384" font-family="Helvetica,sans-Serif" font-size="10.00" fill="#000000">mom_document::find</text>
<text text-anchor="middle" x="548.5" y="-40.5384" font-family="Helvetica,sans-Serif" font-size="10.00" fill="#000000">_unused_unit_number</text>
</a>
</g>
</g>
<!-- Node7&#45;&gt;Node8 -->
<g id="edge8" class="edge">
<title>Node7&#45;&gt;Node8</title>
<path fill="none" stroke="#191970" d="M362.0497,-77.3396C397.1433,-71.9187 441.7263,-65.0319 478.4965,-59.3519"/>
<polygon fill="#191970" stroke="#191970" points="479.2976,-62.7698 488.646,-57.7841 478.2289,-55.8518 479.2976,-62.7698"/>
</g>
<!-- Node8&#45;&gt;Node6 -->
<g id="edge9" class="edge">
<title>Node8&#45;&gt;Node6</title>
<path fill="none" stroke="#191970" d="M608.0351,-61.4425C631.7875,-66.5908 659.2612,-72.5457 683.77,-77.858"/>
<polygon fill="#191970" stroke="#191970" points="683.1995,-81.3155 693.714,-80.0133 684.6824,-74.4744 683.1995,-81.3155"/>
</g>
</g>
</svg>
        <g id="navigator" transform="translate(0 0)" fill="#404254">
                <rect fill="#f2f5e9" fill-opacity="0.5" stroke="#606060" stroke-width=".5" x="0" y="0" width="60" height="60"/>
                <use id="zoomplus" xlink:href="#zoomPlus" x="17" y="9" onmousedown="handleZoom(evt,'in')"/>
                <use id="zoomminus" xlink:href="#zoomMin" x="42" y="9" onmousedown="handleZoom(evt,'out')"/>
                <use id="reset" xlink:href="#resetDef" x="30" y="36" onmousedown="handleReset()"/>
                <g id="arrowUp" xlink:href="#dirArrow" transform="translate(30 24)" onmousedown="handlePan(0,-1)">
                  <use xlink:href="#rim" fill="#404040">
                        <set attributeName="fill" to="#808080" begin="arrowUp.mouseover" end="arrowUp.mouseout"/>
                  </use>
                  <path fill="none" stroke="white" stroke-width="1.5" d="M0,-3.0v7 M-2.5,-0.5L0,-3.0L2.5,-0.5"/>
                </g>
                <g id="arrowRight" xlink:href="#dirArrow" transform="rotate(90) translate(36 -43)" onmousedown="handlePan(1,0)">
                  <use xlink:href="#rim" fill="#404040">
                        <set attributeName="fill" to="#808080" begin="arrowRight.mouseover" end="arrowRight.mouseout"/>
                  </use>
                  <path fill="none" stroke="white" stroke-width="1.5" d="M0,-3.0v7 M-2.5,-0.5L0,-3.0L2.5,-0.5"/>
                </g>
                <g id="arrowDown" xlink:href="#dirArrow" transform="rotate(180) translate(-30 -48)" onmousedown="handlePan(0,1)">
                  <use xlink:href="#rim" fill="#404040">
                        <set attributeName="fill" to="#808080" begin="arrowDown.mouseover" end="arrowDown.mouseout"/>
                  </use>
                  <path fill="none" stroke="white" stroke-width="1.5" d="M0,-3.0v7 M-2.5,-0.5L0,-3.0L2.5,-0.5"/>
                </g>
                <g id="arrowLeft" xlink:href="#dirArrow" transform="rotate(270) translate(-36 17)" onmousedown="handlePan(-1,0)">
                  <use xlink:href="#rim" fill="#404040">
                        <set attributeName="fill" to="#808080" begin="arrowLeft.mouseover" end="arrowLeft.mouseout"/>
                  </use>
                  <path fill="none" stroke="white" stroke-width="1.5" d="M0,-3.0v7 M-2.5,-0.5L0,-3.0L2.5,-0.5"/>
                </g>
        </g>
        <svg viewBox="0 0 15 15" width="100%" height="30px" preserveAspectRatio="xMaxYMin meet">
         <g id="arrow_out" transform="scale(0.3 0.3)">
          <a xlink:href="namespacemom__document_a73f11af8cd30ba919e5ed656939d602b_cgraph_org.svg" target="_base">
           <rect id="button" ry="5" rx="5" y="6" x="6" height="38" width="38"
                fill="#f2f5e9" fill-opacity="0.5" stroke="#606060" stroke-width="1.0"/>
           <path id="arrow"
             d="M 11.500037,31.436501 C 11.940474,20.09759 22.043105,11.32322 32.158766,21.979434 L 37.068811,17.246167 C 37.068811,17.246167 37.088388,32 37.088388,32 L 22.160133,31.978069 C 22.160133,31.978069 26.997745,27.140456 26.997745,27.140456 C 18.528582,18.264221 13.291696,25.230495 11.500037,31.436501 z"
             style="fill:#404040;"/>
          </a>
         </g>
        </svg>
</svg>
