<?xml version="1.0" encoding="UTF-8" standalone="no"?>
<!DOCTYPE svg PUBLIC "-//W3C//DTD SVG 1.1//EN"
 "http://www.w3.org/Graphics/SVG/1.1/DTD/svg11.dtd">
<!-- Generated by graphviz version 2.40.1 (20161225.0304)
 -->
<!-- Title: mom_offline_main::offline_advection_ale Pages: 1 -->
<svg width="833pt" height="444pt"
 viewBox="0.00 0.00 833.00 444.39" xmlns="http://www.w3.org/2000/svg" xmlns:xlink="http://www.w3.org/1999/xlink">
<g id="graph0" class="graph" transform="scale(1 1) rotate(0) translate(4 440.3905)">
<title>mom_offline_main::offline_advection_ale</title>
<polygon fill="#ffffff" stroke="transparent" points="-4,4 -4,-440.3905 829,-440.3905 829,4 -4,4"/>
<!-- Node1 -->
<g id="node1" class="node">
<title>Node1</title>
<g id="a_node1"><a xlink:title="3D advection is done by doing flux&#45;limited nonlinear horizontal advection interspersed with an ALE re...">
<polygon fill="#bfbfbf" stroke="#000000" points="0,-117.9668 0,-147.9668 135,-147.9668 135,-117.9668 0,-117.9668"/>
<text text-anchor="start" x="8" y="-135.9668" font-family="Helvetica,sans-Serif" font-size="10.00" fill="#000000">mom_offline_main::offline</text>
<text text-anchor="middle" x="67.5" y="-124.9668" font-family="Helvetica,sans-Serif" font-size="10.00" fill="#000000">_advection_ale</text>
</a>
</g>
</g>
<!-- Node2 -->
<g id="node2" class="node">
<title>Node2</title>
<g id="a_node2"><a xlink:href="namespacemom__tracer__advect.html#a28a6e28170a8d4f34337a1a202e0d902" target="_top" xlink:title="This routine time steps the tracer concentration using a monotonic, conservative, weakly diffusive sc...">
<polygon fill="#ffffff" stroke="#000000" points="190,-328.9668 190,-358.9668 305,-358.9668 305,-328.9668 190,-328.9668"/>
<text text-anchor="start" x="198" y="-346.9668" font-family="Helvetica,sans-Serif" font-size="10.00" fill="#000000">mom_tracer_advect::</text>
<text text-anchor="middle" x="247.5" y="-335.9668" font-family="Helvetica,sans-Serif" font-size="10.00" fill="#000000">advect_tracer</text>
</a>
</g>
</g>
<!-- Node1&#45;&gt;Node2 -->
<g id="edge1" class="edge">
<title>Node1&#45;&gt;Node2</title>
<path fill="none" stroke="#191970" d="M80.4452,-148.1414C111.6457,-184.7154 191.1424,-277.9032 228.0842,-321.2071"/>
<polygon fill="#191970" stroke="#191970" points="225.5193,-323.5934 234.6721,-328.9297 230.8448,-319.0503 225.5193,-323.5934"/>
</g>
<!-- Node8 -->
<g id="node8" class="node">
<title>Node8</title>
<g id="a_node8"><a xlink:href="namespacemom__ale.html#a5a39781fe9a087c4ab8b4b2ea86ef05c" target="_top" xlink:title="Takes care of (1) building a new grid and (2) remapping all variables between the old grid and the ne...">
<polygon fill="#ffffff" stroke="#000000" points="177,-145.4668 177,-164.4668 318,-164.4668 318,-145.4668 177,-145.4668"/>
<text text-anchor="middle" x="247.5" y="-152.4668" font-family="Helvetica,sans-Serif" font-size="10.00" fill="#000000">mom_ale::ale_main_offline</text>
</a>
</g>
</g>
<!-- Node1&#45;&gt;Node8 -->
<g id="edge7" class="edge">
<title>Node1&#45;&gt;Node8</title>
<path fill="none" stroke="#191970" d="M135.0375,-141.2214C145.3943,-142.4872 156.1751,-143.8049 166.7821,-145.1013"/>
<polygon fill="#191970" stroke="#191970" points="166.5281,-148.5962 176.8789,-146.3354 167.3774,-141.6479 166.5281,-148.5962"/>
</g>
<!-- Node15 -->
<g id="node15" class="node">
<title>Node15</title>
<g id="a_node15"><a xlink:href="namespacemom__tracer__registry.html#a86cd924ede0ff77b15065f5b3bd2cb29" target="_top" xlink:title="Calculates and prints the global inventory of all tracers in the registry.">
<polygon fill="#ffffff" stroke="#000000" points="190.5,-95.9668 190.5,-125.9668 304.5,-125.9668 304.5,-95.9668 190.5,-95.9668"/>
<text text-anchor="start" x="198.5" y="-113.9668" font-family="Helvetica,sans-Serif" font-size="10.00" fill="#000000">mom_tracer_registry</text>
<text text-anchor="middle" x="247.5" y="-102.9668" font-family="Helvetica,sans-Serif" font-size="10.00" fill="#000000">::mom_tracer_chkinv</text>
</a>
</g>
</g>
<!-- Node1&#45;&gt;Node15 -->
<g id="edge20" class="edge">
<title>Node1&#45;&gt;Node15</title>
<path fill="none" stroke="#191970" d="M135.0375,-124.7122C149.8701,-122.8994 165.5724,-120.9802 180.3882,-119.1694"/>
<polygon fill="#191970" stroke="#191970" points="180.9807,-122.6231 190.4822,-117.9357 180.1314,-115.6748 180.9807,-122.6231"/>
</g>
<!-- Node16 -->
<g id="node16" class="node">
<title>Node16</title>
<g id="a_node16"><a xlink:href="namespacemom__offline__main.html#a713ee3448313842b0f07a5a750a01c60" target="_top" xlink:title="Sums any non&#45;negligible remaining transport to check for advection convergence.">
<polygon fill="#ffffff" stroke="#000000" points="171,-46.9668 171,-76.9668 324,-76.9668 324,-46.9668 171,-46.9668"/>
<text text-anchor="start" x="179" y="-64.9668" font-family="Helvetica,sans-Serif" font-size="10.00" fill="#000000">mom_offline_main::remaining</text>
<text text-anchor="middle" x="247.5" y="-53.9668" font-family="Helvetica,sans-Serif" font-size="10.00" fill="#000000">_transport_sum</text>
</a>
</g>
</g>
<!-- Node1&#45;&gt;Node16 -->
<g id="edge22" class="edge">
<title>Node1&#45;&gt;Node16</title>
<path fill="none" stroke="#191970" d="M99.3138,-117.8133C119.607,-108.4011 146.5894,-96.3518 171,-86.9668 176.8199,-84.7293 182.9353,-82.5122 189.0664,-80.3764"/>
<polygon fill="#191970" stroke="#191970" points="190.3413,-83.6395 198.6737,-77.0957 188.0792,-77.0151 190.3413,-83.6395"/>
</g>
<!-- Node3 -->
<g id="node3" class="node">
<title>Node3</title>
<g id="a_node3"><a xlink:href="namespacemom__tracer__advect.html#a07f6e664b3346db7f9ddbcd4b4d6c8f4" target="_top" xlink:title="This subroutine does 1&#45;d flux&#45;form advection in the zonal direction using a monotonic piecewise linea...">
<polygon fill="#ffffff" stroke="#000000" points="384,-377.9668 384,-407.9668 499,-407.9668 499,-377.9668 384,-377.9668"/>
<text text-anchor="start" x="392" y="-395.9668" font-family="Helvetica,sans-Serif" font-size="10.00" fill="#000000">mom_tracer_advect::</text>
<text text-anchor="middle" x="441.5" y="-384.9668" font-family="Helvetica,sans-Serif" font-size="10.00" fill="#000000">advect_x</text>
</a>
</g>
</g>
<!-- Node2&#45;&gt;Node3 -->
<g id="edge2" class="edge">
<title>Node2&#45;&gt;Node3</title>
<path fill="none" stroke="#191970" d="M305.1811,-358.5358C326.7803,-363.9912 351.5104,-370.2375 373.925,-375.8989"/>
<polygon fill="#191970" stroke="#191970" points="373.1535,-379.3139 383.7061,-378.3694 374.8677,-372.527 373.1535,-379.3139"/>
</g>
<!-- Node4 -->
<g id="node4" class="node">
<title>Node4</title>
<g id="a_node4"><a xlink:href="namespacemom__tracer__advect.html#a20a82831fad6aa07cb946aeadbbfdda9" target="_top" xlink:title="This subroutine does 1&#45;d flux&#45;form advection using a monotonic piecewise linear scheme.">
<polygon fill="#ffffff" stroke="#000000" points="384,-328.9668 384,-358.9668 499,-358.9668 499,-328.9668 384,-328.9668"/>
<text text-anchor="start" x="392" y="-346.9668" font-family="Helvetica,sans-Serif" font-size="10.00" fill="#000000">mom_tracer_advect::</text>
<text text-anchor="middle" x="441.5" y="-335.9668" font-family="Helvetica,sans-Serif" font-size="10.00" fill="#000000">advect_y</text>
</a>
</g>
</g>
<!-- Node2&#45;&gt;Node4 -->
<g id="edge3" class="edge">
<title>Node2&#45;&gt;Node4</title>
<path fill="none" stroke="#191970" d="M305.1811,-343.9668C326.6835,-343.9668 351.2887,-343.9668 373.6233,-343.9668"/>
<polygon fill="#191970" stroke="#191970" points="373.7061,-347.4669 383.7061,-343.9668 373.7061,-340.4669 373.7061,-347.4669"/>
</g>
<!-- Node5 -->
<g id="node5" class="node">
<title>Node5</title>
<g id="a_node5"><a xlink:href="namespacemom__domains.html#aac3bc012a8c214cbd73bb00668ff165e" target="_top" xlink:title="do_group_pass carries out a group halo update.">
<polygon fill="#ffffff" stroke="#000000" points="360,-290.4668 360,-309.4668 523,-309.4668 523,-290.4668 360,-290.4668"/>
<text text-anchor="middle" x="441.5" y="-297.4668" font-family="Helvetica,sans-Serif" font-size="10.00" fill="#000000">mom_domains::do_group_pass</text>
</a>
</g>
</g>
<!-- Node2&#45;&gt;Node5 -->
<g id="edge4" class="edge">
<title>Node2&#45;&gt;Node5</title>
<path fill="none" stroke="#191970" d="M305.1811,-330.8845C331.9024,-324.824 363.4156,-317.6767 389.4081,-311.7815"/>
<polygon fill="#191970" stroke="#191970" points="390.465,-315.1307 399.4432,-309.5055 388.9167,-308.3041 390.465,-315.1307"/>
</g>
<!-- Node6 -->
<g id="node6" class="node">
<title>Node6</title>
<g id="a_node6"><a xlink:href="namespacemom__error__handler.html#a460cfb79a06c29fc249952c2a3710d67" target="_top" xlink:title="This provides a convenient interface for writing an mpp_error message with run&#45;time filter based on a...">
<polygon fill="#ffffff" stroke="#000000" points="559,-311.9668 559,-341.9668 674,-341.9668 674,-311.9668 559,-311.9668"/>
<text text-anchor="start" x="567" y="-329.9668" font-family="Helvetica,sans-Serif" font-size="10.00" fill="#000000">mom_error_handler::</text>
<text text-anchor="middle" x="616.5" y="-318.9668" font-family="Helvetica,sans-Serif" font-size="10.00" fill="#000000">mom_error</text>
</a>
</g>
</g>
<!-- Node2&#45;&gt;Node6 -->
<g id="edge5" class="edge">
<title>Node2&#45;&gt;Node6</title>
<path fill="none" stroke="#191970" d="M263.8056,-359.2314C284.3733,-377.3351 321.7037,-406.5007 360,-417.9668 429.4005,-438.7458 455.8838,-445.2361 523,-417.9668 556.3474,-404.4178 584.3213,-372.6267 600.7438,-350.4608"/>
<polygon fill="#191970" stroke="#191970" points="603.6782,-352.3746 606.6587,-342.2076 597.9885,-348.2969 603.6782,-352.3746"/>
</g>
<!-- Node7 -->
<g id="node7" class="node">
<title>Node7</title>
<g id="a_node7"><a xlink:href="namespacemom__error__handler.html#ad5f00a53059c72fe2332d1436c80ca71" target="_top" xlink:title="This returns .true. if the current PE is the root PE.">
<polygon fill="#ffffff" stroke="#000000" points="710,-103.9668 710,-133.9668 825,-133.9668 825,-103.9668 710,-103.9668"/>
<text text-anchor="start" x="718" y="-121.9668" font-family="Helvetica,sans-Serif" font-size="10.00" fill="#000000">mom_error_handler::</text>
<text text-anchor="middle" x="767.5" y="-110.9668" font-family="Helvetica,sans-Serif" font-size="10.00" fill="#000000">is_root_pe</text>
</a>
</g>
</g>
<!-- Node6&#45;&gt;Node7 -->
<g id="edge6" class="edge">
<title>Node6&#45;&gt;Node7</title>
<path fill="none" stroke="#191970" d="M627.6034,-311.6721C653.7918,-275.598 719.5464,-185.0222 750.6689,-142.1513"/>
<polygon fill="#191970" stroke="#191970" points="753.5415,-144.1521 756.584,-134.0035 747.8768,-140.0397 753.5415,-144.1521"/>
</g>
<!-- Node9 -->
<g id="node9" class="node">
<title>Node9</title>
<g id="a_node9"><a xlink:href="namespacemom__ale.html#aa892ad9bccb3137ea1f662b317be2611" target="_top" xlink:title="Updates the weights for time filtering the new grid generated in regridding.">
<polygon fill="#ffffff" stroke="#000000" points="383.5,-202.9668 383.5,-232.9668 499.5,-232.9668 499.5,-202.9668 383.5,-202.9668"/>
<text text-anchor="start" x="391.5" y="-220.9668" font-family="Helvetica,sans-Serif" font-size="10.00" fill="#000000">mom_ale::ale_update</text>
<text text-anchor="middle" x="441.5" y="-209.9668" font-family="Helvetica,sans-Serif" font-size="10.00" fill="#000000">_regrid_weights</text>
</a>
</g>
</g>
<!-- Node8&#45;&gt;Node9 -->
<g id="edge8" class="edge">
<title>Node8&#45;&gt;Node9</title>
<path fill="none" stroke="#191970" d="M275.1679,-164.5541C297.8963,-172.3714 330.9594,-183.6101 360,-192.9668 366.973,-195.2135 374.2966,-197.526 381.5743,-199.7949"/>
<polygon fill="#191970" stroke="#191970" points="380.8451,-203.2331 391.433,-202.8516 382.9181,-196.5471 380.8451,-203.2331"/>
</g>
<!-- Node10 -->
<g id="node10" class="node">
<title>Node10</title>
<g id="a_node10"><a xlink:href="namespacemom__error__handler.html#a9cda07a87815f0e5594066162b4345c3" target="_top" xlink:title="Writes a message about entering a subroutine if call tree reporting is active.">
<polygon fill="#ffffff" stroke="#000000" points="559,-152.9668 559,-182.9668 674,-182.9668 674,-152.9668 559,-152.9668"/>
<text text-anchor="start" x="567" y="-170.9668" font-family="Helvetica,sans-Serif" font-size="10.00" fill="#000000">mom_error_handler::</text>
<text text-anchor="middle" x="616.5" y="-159.9668" font-family="Helvetica,sans-Serif" font-size="10.00" fill="#000000">calltree_enter</text>
</a>
</g>
</g>
<!-- Node8&#45;&gt;Node10 -->
<g id="edge9" class="edge">
<title>Node8&#45;&gt;Node10</title>
<path fill="none" stroke="#191970" d="M255.5704,-164.5931C272.5159,-183.9595 314.0508,-227.1303 360,-242.9668 428.4907,-266.5723 454.655,-266.991 523,-242.9668 552.5463,-232.5809 579.6676,-208.4854 597.0036,-190.3893"/>
<polygon fill="#191970" stroke="#191970" points="599.5715,-192.7675 603.8127,-183.0586 594.4426,-188.0036 599.5715,-192.7675"/>
</g>
<!-- Node11 -->
<g id="node11" class="node">
<title>Node11</title>
<g id="a_node11"><a xlink:href="namespacemom__error__handler.html#a88ea67781e2ed9b73ab7eac8ea5e8578" target="_top" xlink:title="Writes a message about leaving a subroutine if call tree reporting is active.">
<polygon fill="#ffffff" stroke="#000000" points="559,-103.9668 559,-133.9668 674,-133.9668 674,-103.9668 559,-103.9668"/>
<text text-anchor="start" x="567" y="-121.9668" font-family="Helvetica,sans-Serif" font-size="10.00" fill="#000000">mom_error_handler::</text>
<text text-anchor="middle" x="616.5" y="-110.9668" font-family="Helvetica,sans-Serif" font-size="10.00" fill="#000000">calltree_leave</text>
</a>
</g>
</g>
<!-- Node8&#45;&gt;Node11 -->
<g id="edge11" class="edge">
<title>Node8&#45;&gt;Node11</title>
<path fill="none" stroke="#191970" d="M318.2103,-148.0683C384.5565,-141.5955 483.1104,-131.9804 548.5458,-125.5965"/>
<polygon fill="#191970" stroke="#191970" points="549.1406,-129.0552 558.7535,-124.6006 548.4608,-122.0883 549.1406,-129.0552"/>
</g>
<!-- Node12 -->
<g id="node12" class="node">
<title>Node12</title>
<g id="a_node12"><a xlink:href="namespacemom__error__handler.html#a34a02e601a60f03cb97a72fe25a32853" target="_top" xlink:title="Writes a message about reaching a milestone if call tree reporting is active.">
<polygon fill="#ffffff" stroke="#000000" points="559,-54.9668 559,-84.9668 674,-84.9668 674,-54.9668 559,-54.9668"/>
<text text-anchor="start" x="567" y="-72.9668" font-family="Helvetica,sans-Serif" font-size="10.00" fill="#000000">mom_error_handler::</text>
<text text-anchor="middle" x="616.5" y="-61.9668" font-family="Helvetica,sans-Serif" font-size="10.00" fill="#000000">calltree_waypoint</text>
</a>
</g>
</g>
<!-- Node8&#45;&gt;Node12 -->
<g id="edge13" class="edge">
<title>Node8&#45;&gt;Node12</title>
<path fill="none" stroke="#191970" d="M307.4671,-145.415C313.3945,-142.9423 319.0412,-139.8446 324,-135.9668 350.9377,-114.9016 330.7039,-85.6055 360,-67.9668 419.0816,-32.3949 500.5459,-40.5917 555.6929,-52.6205"/>
<polygon fill="#191970" stroke="#191970" points="555.144,-56.0852 565.6725,-54.9014 556.7038,-49.2612 555.144,-56.0852"/>
</g>
<!-- Node13 -->
<g id="node13" class="node">
<title>Node13</title>
<g id="a_node13"><a xlink:href="namespacemom__ale.html#a9b511a4b61f92b735cef1129dff14bcb" target="_top" xlink:title="Check grid for negative thicknesses.">
<polygon fill="#ffffff" stroke="#000000" points="383.5,-164.4668 383.5,-183.4668 499.5,-183.4668 499.5,-164.4668 383.5,-164.4668"/>
<text text-anchor="middle" x="441.5" y="-171.4668" font-family="Helvetica,sans-Serif" font-size="10.00" fill="#000000">mom_ale::check_grid</text>
</a>
</g>
</g>
<!-- Node8&#45;&gt;Node13 -->
<g id="edge15" class="edge">
<title>Node8&#45;&gt;Node13</title>
<path fill="none" stroke="#191970" d="M318.0872,-161.88C336.1028,-163.6444 355.4341,-165.5377 373.3262,-167.29"/>
<polygon fill="#191970" stroke="#191970" points="373.0925,-170.7838 383.386,-168.2752 373.7748,-163.8171 373.0925,-170.7838"/>
</g>
<!-- Node14 -->
<g id="node14" class="node">
<title>Node14</title>
<g id="a_node14"><a xlink:href="namespacemom__ale.html#af95685cdfb7505b09300795da2336dbe" target="_top" xlink:title="This routine takes care of remapping all variable between the old and the new grids....">
<polygon fill="#ffffff" stroke="#000000" points="386.5,-76.9668 386.5,-106.9668 496.5,-106.9668 496.5,-76.9668 386.5,-76.9668"/>
<text text-anchor="start" x="394.5" y="-94.9668" font-family="Helvetica,sans-Serif" font-size="10.00" fill="#000000">mom_ale::remap_all</text>
<text text-anchor="middle" x="441.5" y="-83.9668" font-family="Helvetica,sans-Serif" font-size="10.00" fill="#000000">_state_vars</text>
</a>
</g>
</g>
<!-- Node8&#45;&gt;Node14 -->
<g id="edge16" class="edge">
<title>Node8&#45;&gt;Node14</title>
<path fill="none" stroke="#191970" d="M290.2568,-145.3686C301.3255,-142.6057 313.1733,-139.4011 324,-135.9668 340.3638,-130.7761 343.9441,-128.0433 360,-121.9668 369.8313,-118.2461 380.3524,-114.3269 390.4585,-110.5933"/>
<polygon fill="#191970" stroke="#191970" points="391.8115,-113.8249 399.9846,-107.0831 389.3912,-107.2566 391.8115,-113.8249"/>
</g>
<!-- Node10&#45;&gt;Node7 -->
<g id="edge10" class="edge">
<title>Node10&#45;&gt;Node7</title>
<path fill="none" stroke="#191970" d="M663.0371,-152.8654C678.3222,-147.9053 695.4741,-142.3395 711.3924,-137.1739"/>
<polygon fill="#191970" stroke="#191970" points="712.6852,-140.4342 721.1166,-134.0184 710.5245,-133.7759 712.6852,-140.4342"/>
</g>
<!-- Node11&#45;&gt;Node7 -->
<g id="edge12" class="edge">
<title>Node11&#45;&gt;Node7</title>
<path fill="none" stroke="#191970" d="M674.0174,-118.9668C682.4639,-118.9668 691.2292,-118.9668 699.8561,-118.9668"/>
<polygon fill="#191970" stroke="#191970" points="699.8926,-122.4669 709.8925,-118.9668 699.8925,-115.4669 699.8926,-122.4669"/>
</g>
<!-- Node12&#45;&gt;Node7 -->
<g id="edge14" class="edge">
<title>Node12&#45;&gt;Node7</title>
<path fill="none" stroke="#191970" d="M663.0371,-85.0683C678.3222,-90.0283 695.4741,-95.5942 711.3924,-100.7597"/>
<polygon fill="#191970" stroke="#191970" points="710.5245,-104.1577 721.1166,-103.9152 712.6852,-97.4995 710.5245,-104.1577"/>
</g>
<!-- Node14&#45;&gt;Node10 -->
<g id="edge17" class="edge">
<title>Node14&#45;&gt;Node10</title>
<path fill="none" stroke="#191970" d="M475.0984,-107.0626C498.5522,-117.5448 530.6158,-131.764 559,-143.9668 562.8012,-145.601 566.7502,-147.2827 570.7179,-148.9611"/>
<polygon fill="#191970" stroke="#191970" points="569.3746,-152.193 579.9492,-152.8478 572.0909,-145.7415 569.3746,-152.193"/>
</g>
<!-- Node14&#45;&gt;Node11 -->
<g id="edge18" class="edge">
<title>Node14&#45;&gt;Node11</title>
<path fill="none" stroke="#191970" d="M496.8711,-100.5098C513.3614,-103.054 531.6197,-105.871 548.8028,-108.5221"/>
<polygon fill="#191970" stroke="#191970" points="548.3574,-111.9947 558.7741,-110.0605 549.4248,-105.0766 548.3574,-111.9947"/>
</g>
<!-- Node14&#45;&gt;Node12 -->
<g id="edge19" class="edge">
<title>Node14&#45;&gt;Node12</title>
<path fill="none" stroke="#191970" d="M496.8711,-85.0059C513.3614,-82.9328 531.6197,-80.6375 548.8028,-78.4773"/>
<polygon fill="#191970" stroke="#191970" points="549.2888,-81.9439 558.7741,-77.2238 548.4156,-74.9985 549.2888,-81.9439"/>
</g>
<!-- Node15&#45;&gt;Node7 -->
<g id="edge21" class="edge">
<title>Node15&#45;&gt;Node7</title>
<path fill="none" stroke="#191970" d="M304.5559,-97.4981C311.4258,-94.6188 318.0908,-91.1468 324,-86.9668 345.7706,-71.5671 336.1486,-50.8925 360,-38.9668 484.8533,23.4598 543.0947,2.5021 674,-45.9668 702.4713,-56.5086 729.158,-79.1175 746.6737,-96.3995"/>
<polygon fill="#191970" stroke="#191970" points="744.5432,-99.225 754.0496,-103.9026 749.5351,-94.3177 744.5432,-99.225"/>
</g>
</g>
</svg>
