<?xml version="1.0" encoding="UTF-8" standalone="no"?>
<!DOCTYPE svg PUBLIC "-//W3C//DTD SVG 1.1//EN"
 "http://www.w3.org/Graphics/SVG/1.1/DTD/svg11.dtd">
<!-- Generated by graphviz version 2.40.1 (20161225.0304)
 -->
<!-- Title: mom_diag_mediator::downsample_diag_indices_get Pages: 1 -->
<svg width="352pt" height="88pt"
 viewBox="0.00 0.00 352.00 88.00" xmlns="http://www.w3.org/2000/svg" xmlns:xlink="http://www.w3.org/1999/xlink">
<g id="graph0" class="graph" transform="scale(1 1) rotate(0) translate(4 84)">
<title>mom_diag_mediator::downsample_diag_indices_get</title>
<polygon fill="#ffffff" stroke="transparent" points="-4,4 -4,-84 348,-84 348,4 -4,4"/>
<!-- Node1 -->
<g id="node1" class="node">
<title>Node1</title>
<g id="a_node1"><a xlink:title="Get the diagnostics&#45;compute indices (to be passed to send_data) based on the shape of the diag field ...">
<polygon fill="#bfbfbf" stroke="#000000" points="182,-24.5 182,-54.5 344,-54.5 344,-24.5 182,-24.5"/>
<text text-anchor="start" x="190" y="-42.5" font-family="Helvetica,sans-Serif" font-size="10.00" fill="#000000">mom_diag_mediator::</text>
<text text-anchor="middle" x="263" y="-31.5" font-family="Helvetica,sans-Serif" font-size="10.00" fill="#000000">downsample_diag_indices_get</text>
</a>
</g>
</g>
<!-- Node2 -->
<g id="node2" class="node">
<title>Node2</title>
<g id="a_node2"><a xlink:href="namespacemom__diag__mediator.html#ac19dd9879fd5c480c4bd27d6e7b8c0cf" target="_top" xlink:title="This subroutine allocates and computes a downsampled array from an input array It also determines the...">
<polygon fill="#ffffff" stroke="#000000" points="0,-49.5 0,-79.5 146,-79.5 146,-49.5 0,-49.5"/>
<text text-anchor="start" x="8" y="-67.5" font-family="Helvetica,sans-Serif" font-size="10.00" fill="#000000">mom_diag_mediator::</text>
<text text-anchor="middle" x="73" y="-56.5" font-family="Helvetica,sans-Serif" font-size="10.00" fill="#000000">downsample_diag_field_2d</text>
</a>
</g>
</g>
<!-- Node1&#45;&gt;Node2 -->
<g id="edge1" class="edge">
<title>Node1&#45;&gt;Node2</title>
<path fill="none" stroke="#191970" d="M171.7763,-51.5031C163.1457,-52.6387 154.4734,-53.7798 146.045,-54.8888"/>
<polygon fill="#191970" stroke="#191970" points="172.4139,-54.9495 181.8718,-50.1748 171.5006,-48.0093 172.4139,-54.9495"/>
</g>
<!-- Node3 -->
<g id="node3" class="node">
<title>Node3</title>
<g id="a_node3"><a xlink:href="namespacemom__diag__mediator.html#a30395d7b955b819afa3942700dedead1" target="_top" xlink:title="This subroutine allocates and computes a downsampled array from an input array It also determines the...">
<polygon fill="#ffffff" stroke="#000000" points="0,-.5 0,-30.5 146,-30.5 146,-.5 0,-.5"/>
<text text-anchor="start" x="8" y="-18.5" font-family="Helvetica,sans-Serif" font-size="10.00" fill="#000000">mom_diag_mediator::</text>
<text text-anchor="middle" x="73" y="-7.5" font-family="Helvetica,sans-Serif" font-size="10.00" fill="#000000">downsample_diag_field_3d</text>
</a>
</g>
</g>
<!-- Node1&#45;&gt;Node3 -->
<g id="edge2" class="edge">
<title>Node1&#45;&gt;Node3</title>
<path fill="none" stroke="#191970" d="M171.7763,-27.977C163.1457,-26.8868 154.4734,-25.7914 146.045,-24.7267"/>
<polygon fill="#191970" stroke="#191970" points="171.512,-31.4713 181.8718,-29.2522 172.3893,-24.5265 171.512,-31.4713"/>
</g>
</g>
</svg>
