<?xml version="1.0" encoding="UTF-8" standalone="no"?>
<!DOCTYPE svg PUBLIC "-//W3C//DTD SVG 1.1//EN"
 "http://www.w3.org/Graphics/SVG/1.1/DTD/svg11.dtd">
<!-- Generated by graphviz version 2.40.1 (20161225.0304)
 -->
<!-- Title: mom_document::doc_subroutine Pages: 1 -->
<!--zoomable 100 -->
<svg id="main" version="1.1" xmlns="http://www.w3.org/2000/svg" xmlns:xlink="http://www.w3.org/1999/xlink" xml:space="preserve" onload="init(evt)">
<style type="text/css"><![CDATA[
.edge:hover path { stroke: red; }
.edge:hover polygon { stroke: red; fill: red; }
]]></style>
<script type="text/javascript"><![CDATA[
var edges = document.getElementsByTagName('g');
if (edges && edges.length) {
  for (var i=0;i<edges.length;i++) {
    if (edges[i].id.substr(0,4)=='edge') {
      edges[i].setAttribute('class','edge');
    }
  }
}
]]></script>
        <defs>
                <circle id="rim" cx="0" cy="0" r="7"/>
                <circle id="rim2" cx="0" cy="0" r="3.5"/>
                <g id="zoomPlus">
                        <use xlink:href="#rim" fill="#404040">
                                <set attributeName="fill" to="#808080" begin="zoomplus.mouseover" end="zoomplus.mouseout"/>
                        </use>
                        <path d="M-4,0h8M0,-4v8" fill="none" stroke="white" stroke-width="1.5" pointer-events="none"/>
                </g>
                <g id="zoomMin">
                        <use xlink:href="#rim" fill="#404040">
                                <set attributeName="fill" to="#808080" begin="zoomminus.mouseover" end="zoomminus.mouseout"/>
                        </use>
                        <path d="M-4,0h8" fill="none" stroke="white" stroke-width="1.5" pointer-events="none"/>
                </g>
                <g id="dirArrow">
                        <path fill="none" stroke="white" stroke-width="1.5" d="M0,-3.0v7 M-2.5,-0.5L0,-3.0L2.5,-0.5"/>
                </g>
               <g id="resetDef">
                       <use xlink:href="#rim2" fill="#404040">
                               <set attributeName="fill" to="#808080" begin="reset.mouseover" end="reset.mouseout"/>
                       </use>
               </g>
        </defs>

<script type="text/javascript">
var viewWidth = 787;
var viewHeight = 100;
var sectionId = 'dynsection-14';
</script>
<script xlink:href="svgpan.js"/>
<svg id="graph" class="graph">
<g id="viewport">
<title>mom_document::doc_subroutine</title>
<polygon fill="#ffffff" stroke="transparent" points="-4,4 -4,-95.6093 783,-95.6093 783,4 -4,4"/>
<!-- Node1 -->
<g id="node1" class="node">
<title>Node1</title>
<g id="a_node1"><a xlink:title="This subroutine handles the subroutine documentation.">
<polygon fill="#bfbfbf" stroke="#000000" points="0,-63.6093 0,-82.6093 167,-82.6093 167,-63.6093 0,-63.6093"/>
<text text-anchor="middle" x="83.5" y="-70.6093" font-family="Helvetica,sans-Serif" font-size="10.00" fill="#000000">mom_document::doc_subroutine</text>
</a>
</g>
</g>
<!-- Node2 -->
<g id="node2" class="node">
<title>Node2</title>
<g id="a_node2"><a xlink:href="namespacemom__error__handler.html#ad5f00a53059c72fe2332d1436c80ca71" target="_top" xlink:title="This returns .true. if the current PE is the root PE.">
<polygon fill="#ffffff" stroke="#000000" points="664,-61.1093 664,-91.1093 779,-91.1093 779,-61.1093 664,-61.1093"/>
<text text-anchor="start" x="672" y="-79.1093" font-family="Helvetica,sans-Serif" font-size="10.00" fill="#000000">mom_error_handler::</text>
<text text-anchor="middle" x="721.5" y="-68.1093" font-family="Helvetica,sans-Serif" font-size="10.00" fill="#000000">is_root_pe</text>
</a>
</g>
</g>
<!-- Node1&#45;&gt;Node2 -->
<g id="edge1" class="edge">
<title>Node1&#45;&gt;Node2</title>
<path fill="none" stroke="#191970" d="M167.0722,-75.2685C179.1273,-75.5622 191.3812,-75.851 203,-76.1093 391.8611,-80.3076 439.1893,-88.1612 628,-82.1093 636.2965,-81.8434 645.0007,-81.445 653.6204,-80.9777"/>
<polygon fill="#191970" stroke="#191970" points="653.8878,-84.4682 663.6709,-80.4011 653.4869,-77.4797 653.8878,-84.4682"/>
</g>
<!-- Node3 -->
<g id="node3" class="node">
<title>Node3</title>
<g id="a_node3"><a xlink:href="namespacemom__document.html#aab976b6c6c9c01833438d217fca228a4" target="_top" xlink:title="This subroutine allocates and populates a structure that controls where the documentation occurs and ...">
<polygon fill="#ffffff" stroke="#000000" points="203,-36.1093 203,-66.1093 322,-66.1093 322,-36.1093 203,-36.1093"/>
<text text-anchor="start" x="211" y="-54.1093" font-family="Helvetica,sans-Serif" font-size="10.00" fill="#000000">mom_document::open</text>
<text text-anchor="middle" x="262.5" y="-43.1093" font-family="Helvetica,sans-Serif" font-size="10.00" fill="#000000">_doc_file</text>
</a>
</g>
</g>
<!-- Node1&#45;&gt;Node3 -->
<g id="edge2" class="edge">
<title>Node1&#45;&gt;Node3</title>
<path fill="none" stroke="#191970" d="M160.9709,-63.5877C171.6397,-62.2765 182.5408,-60.9367 193.0528,-59.6447"/>
<polygon fill="#191970" stroke="#191970" points="193.4934,-63.117 202.9918,-58.4231 192.6395,-56.1692 193.4934,-63.117"/>
</g>
<!-- Node3&#45;&gt;Node2 -->
<g id="edge6" class="edge">
<title>Node3&#45;&gt;Node2</title>
<path fill="none" stroke="#191970" d="M322.098,-54.9507C333.9895,-55.6898 346.3904,-56.4412 358,-57.1093 460.9762,-63.0352 580.4092,-69.1284 653.4519,-72.7666"/>
<polygon fill="#191970" stroke="#191970" points="653.7231,-76.2843 663.8846,-73.2852 654.0707,-69.2929 653.7231,-76.2843"/>
</g>
<!-- Node4 -->
<g id="node4" class="node">
<title>Node4</title>
<g id="a_node4"><a xlink:href="namespacemom__document.html#a5f2661445a72a7d0f774677e91366db5" target="_top" xlink:title="Find an unused unit number, returning &gt;0 if found, and triggering a FATAL error if not.">
<polygon fill="#ffffff" stroke="#000000" points="358,-17.1093 358,-47.1093 477,-47.1093 477,-17.1093 358,-17.1093"/>
<text text-anchor="start" x="366" y="-35.1093" font-family="Helvetica,sans-Serif" font-size="10.00" fill="#000000">mom_document::find</text>
<text text-anchor="middle" x="417.5" y="-24.1093" font-family="Helvetica,sans-Serif" font-size="10.00" fill="#000000">_unused_unit_number</text>
</a>
</g>
</g>
<!-- Node3&#45;&gt;Node4 -->
<g id="edge3" class="edge">
<title>Node3&#45;&gt;Node4</title>
<path fill="none" stroke="#191970" d="M322.427,-43.7634C330.8155,-42.7351 339.494,-41.6713 348.0406,-40.6237"/>
<polygon fill="#191970" stroke="#191970" points="348.4879,-44.0951 357.9877,-39.4043 347.6361,-37.1471 348.4879,-44.0951"/>
</g>
<!-- Node5 -->
<g id="node5" class="node">
<title>Node5</title>
<g id="a_node5"><a xlink:href="namespacemom__error__handler.html#a460cfb79a06c29fc249952c2a3710d67" target="_top" xlink:title="This provides a convenient interface for writing an mpp_error message with run&#45;time filter based on a...">
<polygon fill="#ffffff" stroke="#000000" points="513,-17.1093 513,-47.1093 628,-47.1093 628,-17.1093 513,-17.1093"/>
<text text-anchor="start" x="521" y="-35.1093" font-family="Helvetica,sans-Serif" font-size="10.00" fill="#000000">mom_error_handler::</text>
<text text-anchor="middle" x="570.5" y="-24.1093" font-family="Helvetica,sans-Serif" font-size="10.00" fill="#000000">mom_error</text>
</a>
</g>
</g>
<!-- Node3&#45;&gt;Node5 -->
<g id="edge7" class="edge">
<title>Node3&#45;&gt;Node5</title>
<path fill="none" stroke="#191970" d="M287.3839,-36.0075C306.0657,-25.5923 332.6796,-12.6618 358,-7.1093 409.6613,4.2195 424.5618,-.2198 477,-7.1093 489.1043,-8.6996 501.8693,-11.4009 513.945,-14.4546"/>
<polygon fill="#191970" stroke="#191970" points="513.3343,-17.9133 523.8968,-17.0858 515.1237,-11.1459 513.3343,-17.9133"/>
</g>
<!-- Node4&#45;&gt;Node5 -->
<g id="edge4" class="edge">
<title>Node4&#45;&gt;Node5</title>
<path fill="none" stroke="#191970" d="M477.0919,-32.1093C485.4432,-32.1093 494.0774,-32.1093 502.569,-32.1093"/>
<polygon fill="#191970" stroke="#191970" points="502.8276,-35.6094 512.8276,-32.1093 502.8276,-28.6094 502.8276,-35.6094"/>
</g>
<!-- Node5&#45;&gt;Node2 -->
<g id="edge5" class="edge">
<title>Node5&#45;&gt;Node2</title>
<path fill="none" stroke="#191970" d="M622.0433,-47.1285C634.2454,-50.6841 647.3788,-54.5111 659.9746,-58.1813"/>
<polygon fill="#191970" stroke="#191970" points="659.3529,-61.6457 669.9328,-61.0831 661.3113,-54.9252 659.3529,-61.6457"/>
</g>
</g>
</svg>
        <g id="navigator" transform="translate(0 0)" fill="#404254">
                <rect fill="#f2f5e9" fill-opacity="0.5" stroke="#606060" stroke-width=".5" x="0" y="0" width="60" height="60"/>
                <use id="zoomplus" xlink:href="#zoomPlus" x="17" y="9" onmousedown="handleZoom(evt,'in')"/>
                <use id="zoomminus" xlink:href="#zoomMin" x="42" y="9" onmousedown="handleZoom(evt,'out')"/>
                <use id="reset" xlink:href="#resetDef" x="30" y="36" onmousedown="handleReset()"/>
                <g id="arrowUp" xlink:href="#dirArrow" transform="translate(30 24)" onmousedown="handlePan(0,-1)">
                  <use xlink:href="#rim" fill="#404040">
                        <set attributeName="fill" to="#808080" begin="arrowUp.mouseover" end="arrowUp.mouseout"/>
                  </use>
                  <path fill="none" stroke="white" stroke-width="1.5" d="M0,-3.0v7 M-2.5,-0.5L0,-3.0L2.5,-0.5"/>
                </g>
                <g id="arrowRight" xlink:href="#dirArrow" transform="rotate(90) translate(36 -43)" onmousedown="handlePan(1,0)">
                  <use xlink:href="#rim" fill="#404040">
                        <set attributeName="fill" to="#808080" begin="arrowRight.mouseover" end="arrowRight.mouseout"/>
                  </use>
                  <path fill="none" stroke="white" stroke-width="1.5" d="M0,-3.0v7 M-2.5,-0.5L0,-3.0L2.5,-0.5"/>
                </g>
                <g id="arrowDown" xlink:href="#dirArrow" transform="rotate(180) translate(-30 -48)" onmousedown="handlePan(0,1)">
                  <use xlink:href="#rim" fill="#404040">
                        <set attributeName="fill" to="#808080" begin="arrowDown.mouseover" end="arrowDown.mouseout"/>
                  </use>
                  <path fill="none" stroke="white" stroke-width="1.5" d="M0,-3.0v7 M-2.5,-0.5L0,-3.0L2.5,-0.5"/>
                </g>
                <g id="arrowLeft" xlink:href="#dirArrow" transform="rotate(270) translate(-36 17)" onmousedown="handlePan(-1,0)">
                  <use xlink:href="#rim" fill="#404040">
                        <set attributeName="fill" to="#808080" begin="arrowLeft.mouseover" end="arrowLeft.mouseout"/>
                  </use>
                  <path fill="none" stroke="white" stroke-width="1.5" d="M0,-3.0v7 M-2.5,-0.5L0,-3.0L2.5,-0.5"/>
                </g>
        </g>
        <svg viewBox="0 0 15 15" width="100%" height="30px" preserveAspectRatio="xMaxYMin meet">
         <g id="arrow_out" transform="scale(0.3 0.3)">
          <a xlink:href="namespacemom__document_ab7020ae92729a51ce8915cd1f080bb14_cgraph_org.svg" target="_base">
           <rect id="button" ry="5" rx="5" y="6" x="6" height="38" width="38"
                fill="#f2f5e9" fill-opacity="0.5" stroke="#606060" stroke-width="1.0"/>
           <path id="arrow"
             d="M 11.500037,31.436501 C 11.940474,20.09759 22.043105,11.32322 32.158766,21.979434 L 37.068811,17.246167 C 37.068811,17.246167 37.088388,32 37.088388,32 L 22.160133,31.978069 C 22.160133,31.978069 26.997745,27.140456 26.997745,27.140456 C 18.528582,18.264221 13.291696,25.230495 11.500037,31.436501 z"
             style="fill:#404040;"/>
          </a>
         </g>
        </svg>
</svg>
