<?xml version="1.0" encoding="UTF-8" standalone="no"?>
<!DOCTYPE svg PUBLIC "-//W3C//DTD SVG 1.1//EN"
 "http://www.w3.org/Graphics/SVG/1.1/DTD/svg11.dtd">
<!-- Generated by graphviz version 2.40.1 (20161225.0304)
 -->
<!-- Title: mom_checksum_packages::mom_state_stats Pages: 1 -->
<svg width="451pt" height="155pt"
 viewBox="0.00 0.00 451.00 155.33" xmlns="http://www.w3.org/2000/svg" xmlns:xlink="http://www.w3.org/1999/xlink">
<g id="graph0" class="graph" transform="scale(1 1) rotate(0) translate(4 151.3315)">
<title>mom_checksum_packages::mom_state_stats</title>
<polygon fill="#ffffff" stroke="transparent" points="-4,4 -4,-151.3315 447,-151.3315 447,4 -4,4"/>
<!-- Node1 -->
<g id="node1" class="node">
<title>Node1</title>
<g id="a_node1"><a xlink:title="Monitor and write out statistics for the model&#39;s state variables.">
<polygon fill="#bfbfbf" stroke="#000000" points="300,-73.5 300,-103.5 443,-103.5 443,-73.5 300,-73.5"/>
<text text-anchor="start" x="308" y="-91.5" font-family="Helvetica,sans-Serif" font-size="10.00" fill="#000000">mom_checksum_packages</text>
<text text-anchor="middle" x="371.5" y="-80.5" font-family="Helvetica,sans-Serif" font-size="10.00" fill="#000000">::mom_state_stats</text>
</a>
</g>
</g>
<!-- Node2 -->
<g id="node2" class="node">
<title>Node2</title>
<g id="a_node2"><a xlink:href="namespacemom__diabatic__driver.html#a9005de9f3ad26b32de53e3cd9826b9b9" target="_top" xlink:title="This subroutine imposes the diapycnal mass fluxes and the accompanying diapycnal advection of momentu...">
<polygon fill="#ffffff" stroke="#000000" points="0,-73.5 0,-103.5 114,-103.5 114,-73.5 0,-73.5"/>
<text text-anchor="start" x="8" y="-91.5" font-family="Helvetica,sans-Serif" font-size="10.00" fill="#000000">mom_diabatic_driver</text>
<text text-anchor="middle" x="57" y="-80.5" font-family="Helvetica,sans-Serif" font-size="10.00" fill="#000000">::diabatic</text>
</a>
</g>
</g>
<!-- Node1&#45;&gt;Node2 -->
<g id="edge1" class="edge">
<title>Node1&#45;&gt;Node2</title>
<path fill="none" stroke="#191970" d="M338.0342,-108.6942C317.4727,-119.9025 290.1424,-132.7178 264,-138.5 214.529,-149.4421 199.1333,-150.8706 150,-138.5 123.3351,-131.7864 95.9891,-115.7742 77.9148,-103.6651"/>
<polygon fill="#191970" stroke="#191970" points="339.9601,-111.6273 346.9764,-103.6886 336.5409,-105.5191 339.9601,-111.6273"/>
</g>
<!-- Node3 -->
<g id="node3" class="node">
<title>Node3</title>
<g id="a_node3"><a xlink:href="namespacemom__diabatic__driver.html#ae57c48925de75712384e859a851c8c40" target="_top" xlink:title="This subroutine imposes the diapycnal mass fluxes and the accompanying diapycnal advection of momentu...">
<polygon fill="#ffffff" stroke="#000000" points="150,-98.5 150,-128.5 264,-128.5 264,-98.5 150,-98.5"/>
<text text-anchor="start" x="158" y="-116.5" font-family="Helvetica,sans-Serif" font-size="10.00" fill="#000000">mom_diabatic_driver</text>
<text text-anchor="middle" x="207" y="-105.5" font-family="Helvetica,sans-Serif" font-size="10.00" fill="#000000">::diabatic_ale</text>
</a>
</g>
</g>
<!-- Node1&#45;&gt;Node3 -->
<g id="edge2" class="edge">
<title>Node1&#45;&gt;Node3</title>
<path fill="none" stroke="#191970" d="M289.6963,-100.9322C281.0448,-102.247 272.3867,-103.5628 264.1049,-104.8214"/>
<polygon fill="#191970" stroke="#191970" points="290.4659,-104.3555 299.8264,-99.3926 289.4141,-97.435 290.4659,-104.3555"/>
</g>
<!-- Node4 -->
<g id="node4" class="node">
<title>Node4</title>
<g id="a_node4"><a xlink:href="namespacemom__diabatic__driver.html#a598d99106680c83e410a0a51a59588ea" target="_top" xlink:title="Applies diabatic forcing and diapycnal mixing of temperature, salinity and other tracers for use with...">
<polygon fill="#ffffff" stroke="#000000" points="150,-49.5 150,-79.5 264,-79.5 264,-49.5 150,-49.5"/>
<text text-anchor="start" x="158" y="-67.5" font-family="Helvetica,sans-Serif" font-size="10.00" fill="#000000">mom_diabatic_driver</text>
<text text-anchor="middle" x="207" y="-56.5" font-family="Helvetica,sans-Serif" font-size="10.00" fill="#000000">::diabatic_ale_legacy</text>
</a>
</g>
</g>
<!-- Node1&#45;&gt;Node4 -->
<g id="edge4" class="edge">
<title>Node1&#45;&gt;Node4</title>
<path fill="none" stroke="#191970" d="M289.6963,-76.5651C281.0448,-75.3029 272.3867,-74.0397 264.1049,-72.8314"/>
<polygon fill="#191970" stroke="#191970" points="289.4259,-80.0626 299.8264,-78.0431 290.4365,-73.136 289.4259,-80.0626"/>
</g>
<!-- Node5 -->
<g id="node5" class="node">
<title>Node5</title>
<g id="a_node5"><a xlink:href="namespacemom__diabatic__driver.html#a71d8d849db16be4b87c2650b49f01c82" target="_top" xlink:title="Imposes the diapycnal mass fluxes and the accompanying diapycnal advection of momentum and tracers us...">
<polygon fill="#ffffff" stroke="#000000" points="150,-.5 150,-30.5 264,-30.5 264,-.5 150,-.5"/>
<text text-anchor="start" x="158" y="-18.5" font-family="Helvetica,sans-Serif" font-size="10.00" fill="#000000">mom_diabatic_driver</text>
<text text-anchor="middle" x="207" y="-7.5" font-family="Helvetica,sans-Serif" font-size="10.00" fill="#000000">::layered_diabatic</text>
</a>
</g>
</g>
<!-- Node1&#45;&gt;Node5 -->
<g id="edge6" class="edge">
<title>Node1&#45;&gt;Node5</title>
<path fill="none" stroke="#191970" d="M328.3427,-69.1516C308.7221,-60.3754 285.2022,-49.883 264,-40.5 256.6878,-37.264 248.8401,-33.8099 241.3777,-30.5341"/>
<polygon fill="#191970" stroke="#191970" points="327.0767,-72.4195 337.6341,-73.3096 329.9361,-66.0301 327.0767,-72.4195"/>
</g>
<!-- Node3&#45;&gt;Node2 -->
<g id="edge3" class="edge">
<title>Node3&#45;&gt;Node2</title>
<path fill="none" stroke="#191970" d="M139.9668,-102.3278C131.4595,-100.9099 122.8139,-99.469 114.4745,-98.0791"/>
<polygon fill="#191970" stroke="#191970" points="139.4242,-105.7856 149.8635,-103.9773 140.575,-98.8808 139.4242,-105.7856"/>
</g>
<!-- Node4&#45;&gt;Node2 -->
<g id="edge5" class="edge">
<title>Node4&#45;&gt;Node2</title>
<path fill="none" stroke="#191970" d="M139.9668,-75.2253C131.4595,-76.5865 122.8139,-77.9698 114.4745,-79.3041"/>
<polygon fill="#191970" stroke="#191970" points="140.5421,-78.6779 149.8635,-73.6418 139.4361,-71.7658 140.5421,-78.6779"/>
</g>
<!-- Node5&#45;&gt;Node2 -->
<g id="edge7" class="edge">
<title>Node5&#45;&gt;Node2</title>
<path fill="none" stroke="#191970" d="M162.3944,-34.7405C158.1889,-36.6517 154.0037,-38.5911 150,-40.5 128.0229,-50.9782 103.5723,-63.6384 85.2591,-73.3254"/>
<polygon fill="#191970" stroke="#191970" points="163.8791,-37.9106 171.5711,-30.6247 161.0144,-31.5236 163.8791,-37.9106"/>
</g>
</g>
</svg>
