<?xml version="1.0" encoding="UTF-8" standalone="no"?>
<!DOCTYPE svg PUBLIC "-//W3C//DTD SVG 1.1//EN"
 "http://www.w3.org/Graphics/SVG/1.1/DTD/svg11.dtd">
<!-- Generated by graphviz version 2.40.1 (20161225.0304)
 -->
<!-- Title: mom_eos_wright::calculate_density_derivs_array_wright Pages: 1 -->
<svg width="335pt" height="39pt"
 viewBox="0.00 0.00 335.00 39.00" xmlns="http://www.w3.org/2000/svg" xmlns:xlink="http://www.w3.org/1999/xlink">
<g id="graph0" class="graph" transform="scale(1 1) rotate(0) translate(4 35)">
<title>mom_eos_wright::calculate_density_derivs_array_wright</title>
<polygon fill="#ffffff" stroke="transparent" points="-4,4 -4,-35 331,-35 331,4 -4,4"/>
<!-- Node1 -->
<g id="node1" class="node">
<title>Node1</title>
<g id="a_node1"><a xlink:title="For a given thermodynamic state, return the thermal/haline expansion coefficients.">
<polygon fill="#bfbfbf" stroke="#000000" points="184,-.5 184,-30.5 327,-30.5 327,-.5 184,-.5"/>
<text text-anchor="start" x="192" y="-18.5" font-family="Helvetica,sans-Serif" font-size="10.00" fill="#000000">mom_eos_wright::calculate</text>
<text text-anchor="middle" x="255.5" y="-7.5" font-family="Helvetica,sans-Serif" font-size="10.00" fill="#000000">_density_derivs_array_wright</text>
</a>
</g>
</g>
<!-- Node2 -->
<g id="node2" class="node">
<title>Node2</title>
<g id="a_node2"><a xlink:href="namespacemom__eos__wright.html#a8264a21fbe5809d5290ea388e0b2e64f" target="_top" xlink:title="The scalar version of calculate_density_derivs which promotes scalar inputs to a 1&#45;element array and ...">
<polygon fill="#ffffff" stroke="#000000" points="0,-.5 0,-30.5 148,-30.5 148,-.5 0,-.5"/>
<text text-anchor="start" x="8" y="-18.5" font-family="Helvetica,sans-Serif" font-size="10.00" fill="#000000">mom_eos_wright::calculate</text>
<text text-anchor="middle" x="74" y="-7.5" font-family="Helvetica,sans-Serif" font-size="10.00" fill="#000000">_density_derivs_scalar_wright</text>
</a>
</g>
</g>
<!-- Node1&#45;&gt;Node2 -->
<g id="edge1" class="edge">
<title>Node1&#45;&gt;Node2</title>
<path fill="none" stroke="#191970" d="M173.5364,-15.5C165.0917,-15.5 156.5446,-15.5 148.1912,-15.5"/>
<polygon fill="#191970" stroke="#191970" points="173.7664,-19.0001 183.7664,-15.5 173.7664,-12.0001 173.7664,-19.0001"/>
</g>
</g>
</svg>
