<?xml version="1.0" encoding="UTF-8" standalone="no"?>
<!DOCTYPE svg PUBLIC "-//W3C//DTD SVG 1.1//EN"
 "http://www.w3.org/Graphics/SVG/1.1/DTD/svg11.dtd">
<!-- Generated by graphviz version 2.40.1 (20161225.0304)
 -->
<!-- Title: mom_diag_mediator::post_data_3d Pages: 1 -->
<svg width="1021pt" height="270pt"
 viewBox="0.00 0.00 1021.00 269.50" xmlns="http://www.w3.org/2000/svg" xmlns:xlink="http://www.w3.org/1999/xlink">
<g id="graph0" class="graph" transform="scale(1 1) rotate(0) translate(4 265.5)">
<title>mom_diag_mediator::post_data_3d</title>
<polygon fill="#ffffff" stroke="transparent" points="-4,4 -4,-265.5 1017,-265.5 1017,4 -4,4"/>
<!-- Node1 -->
<g id="node1" class="node">
<title>Node1</title>
<g id="a_node1"><a xlink:title="Make a real 3&#45;d array diagnostic available for averaging or output.">
<polygon fill="#bfbfbf" stroke="#000000" points="0,-208.5 0,-238.5 110,-238.5 110,-208.5 0,-208.5"/>
<text text-anchor="start" x="8" y="-226.5" font-family="Helvetica,sans-Serif" font-size="10.00" fill="#000000">mom_diag_mediator::</text>
<text text-anchor="middle" x="55" y="-215.5" font-family="Helvetica,sans-Serif" font-size="10.00" fill="#000000">post_data_3d</text>
</a>
</g>
</g>
<!-- Node2 -->
<g id="node2" class="node">
<title>Node2</title>
<g id="a_node2"><a xlink:href="namespacemom__error__handler.html#a33bcd190d460095104954f2e654f9fe6" target="_top" xlink:title="Issues a FATAL error if the assertion fails, i.e. the first argument is false.">
<polygon fill="#ffffff" stroke="#000000" points="623,-132.5 623,-162.5 729,-162.5 729,-132.5 623,-132.5"/>
<text text-anchor="start" x="631" y="-150.5" font-family="Helvetica,sans-Serif" font-size="10.00" fill="#000000">mom_error_handler::</text>
<text text-anchor="middle" x="676" y="-139.5" font-family="Helvetica,sans-Serif" font-size="10.00" fill="#000000">assert</text>
</a>
</g>
</g>
<!-- Node1&#45;&gt;Node2 -->
<g id="edge1" class="edge">
<title>Node1&#45;&gt;Node2</title>
<path fill="none" stroke="#191970" d="M110.1066,-220.4782C207.0867,-214.5891 414.3506,-199.4467 587,-169.5 595.341,-168.0532 604.0579,-166.258 612.6343,-164.3215"/>
<polygon fill="#191970" stroke="#191970" points="613.6632,-167.6756 622.6069,-161.9958 612.0733,-160.8585 613.6632,-167.6756"/>
</g>
<!-- Node3 -->
<g id="node3" class="node">
<title>Node3</title>
<g id="a_node3"><a xlink:href="namespacemom__error__handler.html#a460cfb79a06c29fc249952c2a3710d67" target="_top" xlink:title="This provides a convenient interface for writing an mpp_error message with run&#45;time filter based on a...">
<polygon fill="#ffffff" stroke="#000000" points="765,-88.5 765,-118.5 871,-118.5 871,-88.5 765,-88.5"/>
<text text-anchor="start" x="773" y="-106.5" font-family="Helvetica,sans-Serif" font-size="10.00" fill="#000000">mom_error_handler::</text>
<text text-anchor="middle" x="818" y="-95.5" font-family="Helvetica,sans-Serif" font-size="10.00" fill="#000000">mom_error</text>
</a>
</g>
</g>
<!-- Node1&#45;&gt;Node3 -->
<g id="edge4" class="edge">
<title>Node1&#45;&gt;Node3</title>
<path fill="none" stroke="#191970" d="M110.1571,-235.0044C168.6629,-246.1888 263.9269,-261.5 347,-261.5 347,-261.5 347,-261.5 512.5,-261.5 629.5851,-261.5 746.5388,-168.8039 794.8704,-125.4134"/>
<polygon fill="#191970" stroke="#191970" points="797.2587,-127.9724 802.2925,-118.6497 792.5437,-122.7985 797.2587,-127.9724"/>
</g>
<!-- Node5 -->
<g id="node5" class="node">
<title>Node5</title>
<g id="a_node5"><a xlink:href="namespacemom__diag__mediator.html#ae11cae949c3f8cf68d2c70f656aa9c54" target="_top" xlink:title="Make a real 3&#45;d array diagnostic available for averaging or output using a diag_type instead of an in...">
<polygon fill="#ffffff" stroke="#000000" points="146,-107.5 146,-137.5 256,-137.5 256,-107.5 146,-107.5"/>
<text text-anchor="start" x="154" y="-125.5" font-family="Helvetica,sans-Serif" font-size="10.00" fill="#000000">mom_diag_mediator::</text>
<text text-anchor="middle" x="201" y="-114.5" font-family="Helvetica,sans-Serif" font-size="10.00" fill="#000000">post_data_3d_low</text>
</a>
</g>
</g>
<!-- Node1&#45;&gt;Node5 -->
<g id="edge5" class="edge">
<title>Node1&#45;&gt;Node5</title>
<path fill="none" stroke="#191970" d="M76.8577,-208.3793C101.8013,-191.1238 142.7542,-162.7933 170.752,-143.425"/>
<polygon fill="#191970" stroke="#191970" points="172.7602,-146.2917 178.9929,-137.7241 168.7777,-140.5349 172.7602,-146.2917"/>
</g>
<!-- Node2&#45;&gt;Node3 -->
<g id="edge2" class="edge">
<title>Node2&#45;&gt;Node3</title>
<path fill="none" stroke="#191970" d="M724.4712,-132.4808C735.7696,-128.9798 747.9172,-125.2158 759.5951,-121.5973"/>
<polygon fill="#191970" stroke="#191970" points="760.7491,-124.904 769.2652,-118.6009 758.6773,-118.2176 760.7491,-124.904"/>
</g>
<!-- Node4 -->
<g id="node4" class="node">
<title>Node4</title>
<g id="a_node4"><a xlink:href="namespacemom__error__handler.html#ad5f00a53059c72fe2332d1436c80ca71" target="_top" xlink:title="This returns .true. if the current PE is the root PE.">
<polygon fill="#ffffff" stroke="#000000" points="907,-88.5 907,-118.5 1013,-118.5 1013,-88.5 907,-88.5"/>
<text text-anchor="start" x="915" y="-106.5" font-family="Helvetica,sans-Serif" font-size="10.00" fill="#000000">mom_error_handler::</text>
<text text-anchor="middle" x="960" y="-95.5" font-family="Helvetica,sans-Serif" font-size="10.00" fill="#000000">is_root_pe</text>
</a>
</g>
</g>
<!-- Node3&#45;&gt;Node4 -->
<g id="edge3" class="edge">
<title>Node3&#45;&gt;Node4</title>
<path fill="none" stroke="#191970" d="M871.2796,-103.5C879.56,-103.5 888.184,-103.5 896.6606,-103.5"/>
<polygon fill="#191970" stroke="#191970" points="896.8941,-107.0001 906.8941,-103.5 896.8941,-100.0001 896.8941,-107.0001"/>
</g>
<!-- Node5&#45;&gt;Node2 -->
<g id="edge6" class="edge">
<title>Node5&#45;&gt;Node2</title>
<path fill="none" stroke="#191970" d="M246.8061,-137.591C261.1169,-141.6245 277.069,-145.4343 292,-147.5 403.9512,-162.9888 536.0251,-157.9638 612.4774,-152.8018"/>
<polygon fill="#191970" stroke="#191970" points="613.1563,-156.263 622.8881,-152.0747 612.6685,-149.28 613.1563,-156.263"/>
</g>
<!-- Node5&#45;&gt;Node3 -->
<g id="edge9" class="edge">
<title>Node5&#45;&gt;Node3</title>
<path fill="none" stroke="#191970" d="M253.6776,-107.4443C266.1723,-104.1969 279.5022,-100.9944 292,-98.5 420.8703,-72.7787 455.7788,-71.42 587,-78.5 643.9203,-81.5711 708.3875,-88.8694 754.7258,-94.7922"/>
<polygon fill="#191970" stroke="#191970" points="754.5511,-98.2987 764.9174,-96.11 755.4488,-91.3564 754.5511,-98.2987"/>
</g>
<!-- Node6 -->
<g id="node6" class="node">
<title>Node6</title>
<g id="a_node6"><a xlink:href="namespacemom__diag__mediator.html#a640ec8fac9bad1d0af6f737d7e816403" target="_top" xlink:title="This subroutine allocates and computes a down sampled 3d array given an input array The down sample m...">
<polygon fill="#ffffff" stroke="#000000" points="457.5,-.5 457.5,-30.5 567.5,-30.5 567.5,-.5 457.5,-.5"/>
<text text-anchor="start" x="465.5" y="-18.5" font-family="Helvetica,sans-Serif" font-size="10.00" fill="#000000">mom_diag_mediator::</text>
<text text-anchor="middle" x="512.5" y="-7.5" font-family="Helvetica,sans-Serif" font-size="10.00" fill="#000000">downsample_field_3d</text>
</a>
</g>
</g>
<!-- Node5&#45;&gt;Node6 -->
<g id="edge7" class="edge">
<title>Node5&#45;&gt;Node6</title>
<path fill="none" stroke="#191970" d="M213.7416,-107.4297C229.9272,-89.4116 259.6684,-59.8896 292,-45.5 341.0573,-23.6664 401.8417,-16.6978 447.159,-14.8888"/>
<polygon fill="#191970" stroke="#191970" points="447.2832,-18.3867 457.1639,-14.5627 447.0551,-11.3904 447.2832,-18.3867"/>
</g>
<!-- Node7 -->
<g id="node7" class="node">
<title>Node7</title>
<g id="a_node7"><a xlink:href="namespacemom__diag__mediator.html#ab41a1779c5edb50aa7256477cef952ae" target="_top" xlink:title="Post the horizontally area&#45;averaged diagnostic.">
<polygon fill="#ffffff" stroke="#000000" points="292,-107.5 292,-137.5 402,-137.5 402,-107.5 292,-107.5"/>
<text text-anchor="start" x="300" y="-125.5" font-family="Helvetica,sans-Serif" font-size="10.00" fill="#000000">mom_diag_mediator::</text>
<text text-anchor="middle" x="347" y="-114.5" font-family="Helvetica,sans-Serif" font-size="10.00" fill="#000000">post_xy_average</text>
</a>
</g>
</g>
<!-- Node5&#45;&gt;Node7 -->
<g id="edge10" class="edge">
<title>Node5&#45;&gt;Node7</title>
<path fill="none" stroke="#191970" d="M256.1963,-122.5C264.4633,-122.5 273.0546,-122.5 281.5101,-122.5"/>
<polygon fill="#191970" stroke="#191970" points="281.7256,-126.0001 291.7256,-122.5 281.7256,-119.0001 281.7256,-126.0001"/>
</g>
<!-- Node6&#45;&gt;Node3 -->
<g id="edge8" class="edge">
<title>Node6&#45;&gt;Node3</title>
<path fill="none" stroke="#191970" d="M567.951,-16.5406C612.6858,-18.9331 676.5709,-25.9076 729,-45.5 751.9501,-54.0763 775.0474,-69.3699 791.9592,-82.1"/>
<polygon fill="#191970" stroke="#191970" points="790.1532,-85.1276 800.2056,-88.4741 794.4341,-79.5892 790.1532,-85.1276"/>
</g>
<!-- Node7&#45;&gt;Node2 -->
<g id="edge11" class="edge">
<title>Node7&#45;&gt;Node2</title>
<path fill="none" stroke="#191970" d="M402.0672,-126.6844C460.1692,-131.0995 551.6052,-138.0475 612.6566,-142.6867"/>
<polygon fill="#191970" stroke="#191970" points="612.6984,-146.1999 622.9349,-143.4677 613.2289,-139.22 612.6984,-146.1999"/>
</g>
<!-- Node8 -->
<g id="node8" class="node">
<title>Node8</title>
<g id="a_node8"><a xlink:href="namespacemom__diag__remap.html#abefc54b57db0b1d275dfd5e0e757ee32" target="_top" xlink:title="Horizontally average field.">
<polygon fill="#ffffff" stroke="#000000" points="438,-88.5 438,-118.5 587,-118.5 587,-88.5 438,-88.5"/>
<text text-anchor="start" x="446" y="-106.5" font-family="Helvetica,sans-Serif" font-size="10.00" fill="#000000">mom_diag_remap::horizontally</text>
<text text-anchor="middle" x="512.5" y="-95.5" font-family="Helvetica,sans-Serif" font-size="10.00" fill="#000000">_average_diag_field</text>
</a>
</g>
</g>
<!-- Node7&#45;&gt;Node8 -->
<g id="edge12" class="edge">
<title>Node7&#45;&gt;Node8</title>
<path fill="none" stroke="#191970" d="M402.1091,-116.1733C410.3545,-115.2267 419.0135,-114.2326 427.7027,-113.235"/>
<polygon fill="#191970" stroke="#191970" points="428.3583,-116.6829 437.8938,-112.0651 427.5598,-109.7285 428.3583,-116.6829"/>
</g>
<!-- Node8&#45;&gt;Node2 -->
<g id="edge13" class="edge">
<title>Node8&#45;&gt;Node2</title>
<path fill="none" stroke="#191970" d="M568.3101,-118.5192C582.6664,-122.3827 598.2133,-126.5666 612.9103,-130.5217"/>
<polygon fill="#191970" stroke="#191970" points="612.3582,-133.9976 622.9242,-133.2166 614.1773,-127.2381 612.3582,-133.9976"/>
</g>
</g>
</svg>
