<?xml version="1.0" encoding="UTF-8" standalone="no"?>
<!DOCTYPE svg PUBLIC "-//W3C//DTD SVG 1.1//EN"
 "http://www.w3.org/Graphics/SVG/1.1/DTD/svg11.dtd">
<!-- Generated by graphviz version 2.40.1 (20161225.0304)
 -->
<!-- Title: mom_dynamics_unsplit_rk2::step_mom_dyn_unsplit_rk2 Pages: 1 -->
<svg width="690pt" height="553pt"
 viewBox="0.00 0.00 690.00 552.50" xmlns="http://www.w3.org/2000/svg" xmlns:xlink="http://www.w3.org/1999/xlink">
<g id="graph0" class="graph" transform="scale(1 1) rotate(0) translate(4 548.5)">
<title>mom_dynamics_unsplit_rk2::step_mom_dyn_unsplit_rk2</title>
<polygon fill="#ffffff" stroke="transparent" points="-4,4 -4,-548.5 686,-548.5 686,4 -4,4"/>
<!-- Node1 -->
<g id="node1" class="node">
<title>Node1</title>
<g id="a_node1"><a xlink:title="Step the MOM6 dynamics using an unsplit quasi&#45;2nd order Runge&#45;Kutta scheme.">
<polygon fill="#bfbfbf" stroke="#000000" points="0,-220.5 0,-250.5 161,-250.5 161,-220.5 0,-220.5"/>
<text text-anchor="start" x="8" y="-238.5" font-family="Helvetica,sans-Serif" font-size="10.00" fill="#000000">mom_dynamics_unsplit</text>
<text text-anchor="middle" x="80.5" y="-227.5" font-family="Helvetica,sans-Serif" font-size="10.00" fill="#000000">_rk2::step_mom_dyn_unsplit_rk2</text>
</a>
</g>
</g>
<!-- Node2 -->
<g id="node2" class="node">
<title>Node2</title>
<g id="a_node2"><a xlink:href="namespacemom__continuity.html#af5199f6dd73755cc33c133723339a0ff" target="_top" xlink:title="Time steps the layer thicknesses, using a monotonically limited, directionally split PPM scheme,...">
<polygon fill="#ffffff" stroke="#000000" points="212,-333 212,-352 346,-352 346,-333 212,-333"/>
<text text-anchor="middle" x="279" y="-340" font-family="Helvetica,sans-Serif" font-size="10.00" fill="#000000">mom_continuity::continuity</text>
</a>
</g>
</g>
<!-- Node1&#45;&gt;Node2 -->
<g id="edge1" class="edge">
<title>Node1&#45;&gt;Node2</title>
<path fill="none" stroke="#191970" d="M96.0402,-250.7127C117.1308,-270.4898 156.8164,-304.7143 197,-323.5 202.258,-325.9581 207.8583,-328.1108 213.5682,-329.9937"/>
<polygon fill="#191970" stroke="#191970" points="212.6549,-333.374 223.2398,-332.9141 214.6784,-326.6728 212.6549,-333.374"/>
</g>
<!-- Node5 -->
<g id="node5" class="node">
<title>Node5</title>
<g id="a_node5"><a xlink:href="namespacemom__coriolisadv.html#ac677e9d644c881b7e8ce6413aa5450cd" target="_top" xlink:title="Calculates the Coriolis and momentum advection contributions to the acceleration.">
<polygon fill="#ffffff" stroke="#000000" points="210,-421 210,-440 348,-440 348,-421 210,-421"/>
<text text-anchor="middle" x="279" y="-428" font-family="Helvetica,sans-Serif" font-size="10.00" fill="#000000">mom_coriolisadv::coradcalc</text>
</a>
</g>
</g>
<!-- Node1&#45;&gt;Node5 -->
<g id="edge4" class="edge">
<title>Node1&#45;&gt;Node5</title>
<path fill="none" stroke="#191970" d="M85.9439,-250.5641C99.1849,-284.9522 136.4995,-369.4951 197,-411.5 199.7609,-413.4168 202.6875,-415.1426 205.7279,-416.6962"/>
<polygon fill="#191970" stroke="#191970" points="204.5771,-420.0142 215.1382,-420.8591 207.4091,-413.6127 204.5771,-420.0142"/>
</g>
<!-- Node7 -->
<g id="node7" class="node">
<title>Node7</title>
<g id="a_node7"><a xlink:href="namespacemom__hor__visc.html#a0c594d881fa7f6be08c7ae63da94f5ed" target="_top" xlink:title="Calculates the acceleration due to the horizontal viscosity.">
<polygon fill="#ffffff" stroke="#000000" points="215,-371.5 215,-401.5 343,-401.5 343,-371.5 215,-371.5"/>
<text text-anchor="start" x="223" y="-389.5" font-family="Helvetica,sans-Serif" font-size="10.00" fill="#000000">mom_hor_visc::horizontal</text>
<text text-anchor="middle" x="279" y="-378.5" font-family="Helvetica,sans-Serif" font-size="10.00" fill="#000000">_viscosity</text>
</a>
</g>
</g>
<!-- Node1&#45;&gt;Node7 -->
<g id="edge7" class="edge">
<title>Node1&#45;&gt;Node7</title>
<path fill="none" stroke="#191970" d="M90.4608,-250.7256C108.5327,-277.1606 149.3,-331.5786 197,-361.5 200.3785,-363.6193 203.9482,-365.5688 207.632,-367.3609"/>
<polygon fill="#191970" stroke="#191970" points="206.4192,-370.6516 216.9802,-371.4983 209.2523,-364.2505 206.4192,-370.6516"/>
</g>
<!-- Node11 -->
<g id="node11" class="node">
<title>Node11</title>
<g id="a_node11"><a xlink:href="namespacemom__checksum__packages.html#ab65c45c111975e2804be7a008e3c17c7" target="_top" xlink:title="Write out chksums for the model&#39;s accelerations.">
<polygon fill="#ffffff" stroke="#000000" points="211,-147.5 211,-177.5 347,-177.5 347,-147.5 211,-147.5"/>
<text text-anchor="start" x="219" y="-165.5" font-family="Helvetica,sans-Serif" font-size="10.00" fill="#000000">mom_checksum_packages</text>
<text text-anchor="middle" x="279" y="-154.5" font-family="Helvetica,sans-Serif" font-size="10.00" fill="#000000">::mom_accel_chksum</text>
</a>
</g>
</g>
<!-- Node1&#45;&gt;Node11 -->
<g id="edge12" class="edge">
<title>Node1&#45;&gt;Node11</title>
<path fill="none" stroke="#191970" d="M113.5011,-220.4389C136.6144,-210.1831 168.3647,-196.6756 197,-186.5 202.7787,-184.4465 208.8295,-182.4304 214.914,-180.493"/>
<polygon fill="#191970" stroke="#191970" points="215.9604,-183.833 224.4686,-177.5195 213.8803,-177.1492 215.9604,-183.833"/>
</g>
<!-- Node12 -->
<g id="node12" class="node">
<title>Node12</title>
<g id="a_node12"><a xlink:href="namespacemom__open__boundary.html#a9d48e6925d93fa98cbf5bb73903f94be" target="_top" xlink:title="Applies zero values to 3d u,v fields on OBC segments.">
<polygon fill="#ffffff" stroke="#000000" points="197,-98.5 197,-128.5 361,-128.5 361,-98.5 197,-98.5"/>
<text text-anchor="start" x="205" y="-116.5" font-family="Helvetica,sans-Serif" font-size="10.00" fill="#000000">mom_open_boundary::</text>
<text text-anchor="middle" x="279" y="-105.5" font-family="Helvetica,sans-Serif" font-size="10.00" fill="#000000">open_boundary_zero_normal_flow</text>
</a>
</g>
</g>
<!-- Node1&#45;&gt;Node12 -->
<g id="edge13" class="edge">
<title>Node1&#45;&gt;Node12</title>
<path fill="none" stroke="#191970" d="M94.4617,-220.3016C114.9587,-198.8582 155.3026,-159.8507 197,-137.5 200.4318,-135.6605 204.022,-133.9458 207.702,-132.3499"/>
<polygon fill="#191970" stroke="#191970" points="209.0165,-135.5938 216.9955,-128.6234 206.4112,-129.0966 209.0165,-135.5938"/>
</g>
<!-- Node13 -->
<g id="node13" class="node">
<title>Node13</title>
<g id="a_node13"><a xlink:href="namespacemom__pressureforce.html#ab8f34ea530e5a436a4d1967a562394bd" target="_top" xlink:title="A thin layer between the model and the Boussinesq and non&#45;Boussinesq pressure force routines.">
<polygon fill="#ffffff" stroke="#000000" points="224.5,-49.5 224.5,-79.5 333.5,-79.5 333.5,-49.5 224.5,-49.5"/>
<text text-anchor="start" x="232.5" y="-67.5" font-family="Helvetica,sans-Serif" font-size="10.00" fill="#000000">mom_pressureforce::</text>
<text text-anchor="middle" x="279" y="-56.5" font-family="Helvetica,sans-Serif" font-size="10.00" fill="#000000">pressureforce</text>
</a>
</g>
</g>
<!-- Node1&#45;&gt;Node13 -->
<g id="edge14" class="edge">
<title>Node1&#45;&gt;Node13</title>
<path fill="none" stroke="#191970" d="M88.2203,-220.4802C104.3048,-190.6953 144.331,-123.9699 197,-88.5 202.5385,-84.7701 208.6646,-81.6099 215.0005,-78.9343"/>
<polygon fill="#191970" stroke="#191970" points="216.2947,-82.1867 224.3895,-75.3511 213.7987,-75.6468 216.2947,-82.1867"/>
</g>
<!-- Node14 -->
<g id="node14" class="node">
<title>Node14</title>
<g id="a_node14"><a xlink:href="namespacemom__set__visc.html#aba41cd4f8baa1cda9036d97087ce8a22" target="_top" xlink:title="Calculates the thickness of the surface boundary layer for applying an elevated viscosity.">
<polygon fill="#ffffff" stroke="#000000" points="201.5,-295 201.5,-314 356.5,-314 356.5,-295 201.5,-295"/>
<text text-anchor="middle" x="279" y="-302" font-family="Helvetica,sans-Serif" font-size="10.00" fill="#000000">mom_set_visc::set_viscous_ml</text>
</a>
</g>
</g>
<!-- Node1&#45;&gt;Node14 -->
<g id="edge15" class="edge">
<title>Node1&#45;&gt;Node14</title>
<path fill="none" stroke="#191970" d="M111.562,-250.6269C134.703,-261.4512 167.2989,-275.771 197,-285.5 204.7996,-288.0549 213.1238,-290.4032 221.3669,-292.5127"/>
<polygon fill="#191970" stroke="#191970" points="220.7942,-295.9761 231.3407,-294.9652 222.4657,-289.1786 220.7942,-295.9761"/>
</g>
<!-- Node17 -->
<g id="node17" class="node">
<title>Node17</title>
<g id="a_node17"><a xlink:href="namespacemom__boundary__update.html#a7c2a0d48706fa7b58ce1f584ff0c5d4f" target="_top" xlink:title="Calls appropriate routine to update the open boundary conditions.">
<polygon fill="#ffffff" stroke="#000000" points="220,-.5 220,-30.5 338,-30.5 338,-.5 220,-.5"/>
<text text-anchor="start" x="228" y="-18.5" font-family="Helvetica,sans-Serif" font-size="10.00" fill="#000000">mom_boundary_update</text>
<text text-anchor="middle" x="279" y="-7.5" font-family="Helvetica,sans-Serif" font-size="10.00" fill="#000000">::update_obc_data</text>
</a>
</g>
</g>
<!-- Node1&#45;&gt;Node17 -->
<g id="edge19" class="edge">
<title>Node1&#45;&gt;Node17</title>
<path fill="none" stroke="#191970" d="M85.1577,-220.38C97.2743,-183.6002 133.3432,-88.8658 197,-39.5 201.1429,-36.2872 205.7048,-33.5041 210.4911,-31.0932"/>
<polygon fill="#191970" stroke="#191970" points="212.2052,-34.1615 219.9209,-26.9007 209.3614,-27.7652 212.2052,-34.1615"/>
</g>
<!-- Node18 -->
<g id="node18" class="node">
<title>Node18</title>
<g id="a_node18"><a xlink:href="namespacemom__vert__friction.html#a8f1a390fa24fbe985068fed9ac26873c" target="_top" xlink:title="Perform a fully implicit vertical diffusion of momentum. Stress top and bottom boundary conditions ar...">
<polygon fill="#ffffff" stroke="#000000" points="228.5,-245.5 228.5,-275.5 329.5,-275.5 329.5,-245.5 228.5,-245.5"/>
<text text-anchor="start" x="236.5" y="-263.5" font-family="Helvetica,sans-Serif" font-size="10.00" fill="#000000">mom_vert_friction::</text>
<text text-anchor="middle" x="279" y="-252.5" font-family="Helvetica,sans-Serif" font-size="10.00" fill="#000000">vertvisc</text>
</a>
</g>
</g>
<!-- Node1&#45;&gt;Node18 -->
<g id="edge20" class="edge">
<title>Node1&#45;&gt;Node18</title>
<path fill="none" stroke="#191970" d="M161.2375,-245.6685C180.2582,-248.064 200.2192,-250.578 218.1913,-252.8415"/>
<polygon fill="#191970" stroke="#191970" points="217.8766,-256.3294 228.2356,-254.1065 218.7514,-249.3843 217.8766,-256.3294"/>
</g>
<!-- Node20 -->
<g id="node20" class="node">
<title>Node20</title>
<g id="a_node20"><a xlink:href="namespacemom__vert__friction.html#ac281f6595593b33436594112785e982b" target="_top" xlink:title="Calculate the coupling coefficients (CSa_u and CSa_v) and effective layer thicknesses (CSh_u and CSh_...">
<polygon fill="#ffffff" stroke="#000000" points="228.5,-196.5 228.5,-226.5 329.5,-226.5 329.5,-196.5 228.5,-196.5"/>
<text text-anchor="start" x="236.5" y="-214.5" font-family="Helvetica,sans-Serif" font-size="10.00" fill="#000000">mom_vert_friction::</text>
<text text-anchor="middle" x="279" y="-203.5" font-family="Helvetica,sans-Serif" font-size="10.00" fill="#000000">vertvisc_coef</text>
</a>
</g>
</g>
<!-- Node1&#45;&gt;Node20 -->
<g id="edge23" class="edge">
<title>Node1&#45;&gt;Node20</title>
<path fill="none" stroke="#191970" d="M161.2375,-225.7383C180.2582,-223.4386 200.2192,-221.0251 218.1913,-218.8522"/>
<polygon fill="#191970" stroke="#191970" points="218.7281,-222.3129 228.2356,-217.6378 217.8878,-215.3635 218.7281,-222.3129"/>
</g>
<!-- Node3 -->
<g id="node3" class="node">
<title>Node3</title>
<g id="a_node3"><a xlink:href="namespacemom__error__handler.html#a460cfb79a06c29fc249952c2a3710d67" target="_top" xlink:title="This provides a convenient interface for writing an mpp_error message with run&#45;time filter based on a...">
<polygon fill="#ffffff" stroke="#000000" points="415.5,-327.5 415.5,-357.5 521.5,-357.5 521.5,-327.5 415.5,-327.5"/>
<text text-anchor="start" x="423.5" y="-345.5" font-family="Helvetica,sans-Serif" font-size="10.00" fill="#000000">mom_error_handler::</text>
<text text-anchor="middle" x="468.5" y="-334.5" font-family="Helvetica,sans-Serif" font-size="10.00" fill="#000000">mom_error</text>
</a>
</g>
</g>
<!-- Node2&#45;&gt;Node3 -->
<g id="edge2" class="edge">
<title>Node2&#45;&gt;Node3</title>
<path fill="none" stroke="#191970" d="M346.0773,-342.5C365.3007,-342.5 386.1901,-342.5 405.1799,-342.5"/>
<polygon fill="#191970" stroke="#191970" points="405.2139,-346.0001 415.2138,-342.5 405.2138,-339.0001 405.2139,-346.0001"/>
</g>
<!-- Node4 -->
<g id="node4" class="node">
<title>Node4</title>
<g id="a_node4"><a xlink:href="namespacemom__error__handler.html#ad5f00a53059c72fe2332d1436c80ca71" target="_top" xlink:title="This returns .true. if the current PE is the root PE.">
<polygon fill="#ffffff" stroke="#000000" points="576,-327.5 576,-357.5 682,-357.5 682,-327.5 576,-327.5"/>
<text text-anchor="start" x="584" y="-345.5" font-family="Helvetica,sans-Serif" font-size="10.00" fill="#000000">mom_error_handler::</text>
<text text-anchor="middle" x="629" y="-334.5" font-family="Helvetica,sans-Serif" font-size="10.00" fill="#000000">is_root_pe</text>
</a>
</g>
</g>
<!-- Node3&#45;&gt;Node4 -->
<g id="edge3" class="edge">
<title>Node3&#45;&gt;Node4</title>
<path fill="none" stroke="#191970" d="M521.9442,-342.5C535.8864,-342.5 551.0481,-342.5 565.4578,-342.5"/>
<polygon fill="#191970" stroke="#191970" points="565.7892,-346.0001 575.7892,-342.5 565.7892,-339.0001 565.7892,-346.0001"/>
</g>
<!-- Node5&#45;&gt;Node3 -->
<g id="edge6" class="edge">
<title>Node5&#45;&gt;Node3</title>
<path fill="none" stroke="#191970" d="M340.7849,-420.8871C347.8864,-418.4349 354.7954,-415.3587 361,-411.5 382.456,-398.1562 376.3003,-381.9894 397,-367.5 399.8885,-365.4781 402.9563,-363.6054 406.1341,-361.873"/>
<polygon fill="#191970" stroke="#191970" points="407.8943,-364.9078 415.3237,-357.3544 404.8055,-358.6261 407.8943,-364.9078"/>
</g>
<!-- Node6 -->
<g id="node6" class="node">
<title>Node6</title>
<g id="a_node6"><a xlink:href="namespacemom__coriolisadv.html#a87e4a437552052fa238260442af19868" target="_top" xlink:title="Calculates the acceleration due to the gradient of kinetic energy.">
<polygon fill="#ffffff" stroke="#000000" points="406,-525 406,-544 531,-544 531,-525 406,-525"/>
<text text-anchor="middle" x="468.5" y="-532" font-family="Helvetica,sans-Serif" font-size="10.00" fill="#000000">mom_coriolisadv::gradke</text>
</a>
</g>
</g>
<!-- Node5&#45;&gt;Node6 -->
<g id="edge5" class="edge">
<title>Node5&#45;&gt;Node6</title>
<path fill="none" stroke="#191970" d="M289.5284,-440.1674C309.1795,-457.7097 353.4109,-494.8731 397,-515.5 402.0067,-517.8692 407.3556,-519.9794 412.7893,-521.8506"/>
<polygon fill="#191970" stroke="#191970" points="412.0157,-525.277 422.6059,-524.9649 414.1325,-518.6047 412.0157,-525.277"/>
</g>
<!-- Node7&#45;&gt;Node3 -->
<g id="edge10" class="edge">
<title>Node7&#45;&gt;Node3</title>
<path fill="none" stroke="#191970" d="M343.1561,-371.6036C363.2723,-366.9328 385.4496,-361.7835 405.4861,-357.1312"/>
<polygon fill="#191970" stroke="#191970" points="406.4888,-360.4916 415.4381,-354.8204 404.9056,-353.673 406.4888,-360.4916"/>
</g>
<!-- Node8 -->
<g id="node8" class="node">
<title>Node8</title>
<g id="a_node8"><a xlink:href="namespacemom__barotropic.html#aa059fdf7e6002b13d942f96ef17a5db6" target="_top" xlink:title="Copies ubtav and vbtav from private type into arrays.">
<polygon fill="#ffffff" stroke="#000000" points="401,-475.5 401,-505.5 536,-505.5 536,-475.5 401,-475.5"/>
<text text-anchor="start" x="409" y="-493.5" font-family="Helvetica,sans-Serif" font-size="10.00" fill="#000000">mom_barotropic::barotropic</text>
<text text-anchor="middle" x="468.5" y="-482.5" font-family="Helvetica,sans-Serif" font-size="10.00" fill="#000000">_get_tav</text>
</a>
</g>
</g>
<!-- Node7&#45;&gt;Node8 -->
<g id="edge8" class="edge">
<title>Node7&#45;&gt;Node8</title>
<path fill="none" stroke="#191970" d="M343.3363,-401.3099C349.6068,-404.14 355.6255,-407.5038 361,-411.5 384.147,-428.7109 374.2057,-447.8246 397,-465.5 399.4161,-467.3735 401.9831,-469.113 404.6537,-470.7272"/>
<polygon fill="#191970" stroke="#191970" points="403.0115,-473.818 413.4772,-475.4674 406.3243,-467.6516 403.0115,-473.818"/>
</g>
<!-- Node9 -->
<g id="node9" class="node">
<title>Node9</title>
<g id="a_node9"><a xlink:href="namespacemom__lateral__mixing__coeffs.html#a212e9e850d4db8f321e0398f4090fee0" target="_top" xlink:title="Calculates the Leith Laplacian and bi&#45;harmonic viscosity coefficients.">
<polygon fill="#ffffff" stroke="#000000" points="412.5,-415 412.5,-456 524.5,-456 524.5,-415 412.5,-415"/>
<text text-anchor="start" x="420.5" y="-444" font-family="Helvetica,sans-Serif" font-size="10.00" fill="#000000">mom_lateral_mixing</text>
<text text-anchor="start" x="420.5" y="-433" font-family="Helvetica,sans-Serif" font-size="10.00" fill="#000000">_coeffs::calc_qg_leith</text>
<text text-anchor="middle" x="468.5" y="-422" font-family="Helvetica,sans-Serif" font-size="10.00" fill="#000000">_viscosity</text>
</a>
</g>
</g>
<!-- Node7&#45;&gt;Node9 -->
<g id="edge9" class="edge">
<title>Node7&#45;&gt;Node9</title>
<path fill="none" stroke="#191970" d="M337.1441,-401.5346C357.8071,-406.8776 381.2148,-412.9302 402.4878,-418.4309"/>
<polygon fill="#191970" stroke="#191970" points="401.8571,-421.8829 412.4149,-420.9978 403.6095,-415.1057 401.8571,-421.8829"/>
</g>
<!-- Node10 -->
<g id="node10" class="node">
<title>Node10</title>
<g id="a_node10"><a xlink:href="namespacemom__hor__visc.html#a686fed1d7dd5311ab016b6f637aa7304" target="_top" xlink:title="Apply a 1&#45;1&#45;4&#45;1&#45;1 Laplacian filter one time on GME diffusive flux to reduce any horizontal two&#45;grid&#45;p...">
<polygon fill="#ffffff" stroke="#000000" points="397,-377 397,-396 540,-396 540,-377 397,-377"/>
<text text-anchor="middle" x="468.5" y="-384" font-family="Helvetica,sans-Serif" font-size="10.00" fill="#000000">mom_hor_visc::smooth_gme</text>
</a>
</g>
</g>
<!-- Node7&#45;&gt;Node10 -->
<g id="edge11" class="edge">
<title>Node7&#45;&gt;Node10</title>
<path fill="none" stroke="#191970" d="M343.1561,-386.5C357.2019,-386.5 372.2526,-386.5 386.8777,-386.5"/>
<polygon fill="#191970" stroke="#191970" points="386.9173,-390.0001 396.9173,-386.5 386.9172,-383.0001 386.9173,-390.0001"/>
</g>
<!-- Node14&#45;&gt;Node3 -->
<g id="edge16" class="edge">
<title>Node14&#45;&gt;Node3</title>
<path fill="none" stroke="#191970" d="M326.8189,-314.089C350.6305,-318.8639 379.7326,-324.6997 405.3531,-329.8373"/>
<polygon fill="#191970" stroke="#191970" points="404.8584,-333.3077 415.3514,-331.8422 406.2347,-326.4443 404.8584,-333.3077"/>
</g>
<!-- Node15 -->
<g id="node15" class="node">
<title>Node15</title>
<g id="a_node15"><a xlink:href="namespacemom__set__visc.html#a46583b82467e74d8654c3c0a037a25cd" target="_top" xlink:title="This subroutine finds a thickness&#45;weighted value of u at the v&#45;points.">
<polygon fill="#ffffff" stroke="#000000" points="401.5,-251 401.5,-270 535.5,-270 535.5,-251 401.5,-251"/>
<text text-anchor="middle" x="468.5" y="-258" font-family="Helvetica,sans-Serif" font-size="10.00" fill="#000000">mom_set_visc::set_u_at_v</text>
</a>
</g>
</g>
<!-- Node14&#45;&gt;Node15 -->
<g id="edge17" class="edge">
<title>Node14&#45;&gt;Node15</title>
<path fill="none" stroke="#191970" d="M320.2964,-294.9382C333.32,-291.9208 347.7617,-288.5731 361,-285.5 379.4973,-281.2062 399.7831,-276.4903 417.7009,-272.3226"/>
<polygon fill="#191970" stroke="#191970" points="418.7174,-275.6797 427.6643,-270.0048 417.1313,-268.8617 418.7174,-275.6797"/>
</g>
<!-- Node16 -->
<g id="node16" class="node">
<title>Node16</title>
<g id="a_node16"><a xlink:href="namespacemom__set__visc.html#a0356a4e81cca9f7f31bbf87c717a6600" target="_top" xlink:title="This subroutine finds a thickness&#45;weighted value of v at the u&#45;points.">
<polygon fill="#ffffff" stroke="#000000" points="401.5,-289 401.5,-308 535.5,-308 535.5,-289 401.5,-289"/>
<text text-anchor="middle" x="468.5" y="-296" font-family="Helvetica,sans-Serif" font-size="10.00" fill="#000000">mom_set_visc::set_v_at_u</text>
</a>
</g>
</g>
<!-- Node14&#45;&gt;Node16 -->
<g id="edge18" class="edge">
<title>Node14&#45;&gt;Node16</title>
<path fill="none" stroke="#191970" d="M356.6237,-302.0423C367.9709,-301.683 379.6571,-301.313 391.0018,-300.9538"/>
<polygon fill="#191970" stroke="#191970" points="391.4207,-304.4424 401.3049,-300.6275 391.1991,-297.4459 391.4207,-304.4424"/>
</g>
<!-- Node18&#45;&gt;Node3 -->
<g id="edge21" class="edge">
<title>Node18&#45;&gt;Node3</title>
<path fill="none" stroke="#191970" d="M329.842,-272.2698C340.4912,-275.7488 351.395,-280.1111 361,-285.5 379.6696,-295.9745 378.5459,-306.6502 397,-317.5 400.5708,-319.5994 404.3455,-321.5607 408.2197,-323.3861"/>
<polygon fill="#191970" stroke="#191970" points="406.8267,-326.5969 417.3911,-327.3996 409.6331,-320.1841 406.8267,-326.5969"/>
</g>
<!-- Node19 -->
<g id="node19" class="node">
<title>Node19</title>
<g id="a_node19"><a xlink:href="namespacemom__vert__friction.html#ac14bc439f3b7ae3000fa9883c95ebfe2" target="_top" xlink:title="Velocity components which exceed a threshold for physically reasonable values are truncated....">
<polygon fill="#ffffff" stroke="#000000" points="418,-201.5 418,-231.5 519,-231.5 519,-201.5 418,-201.5"/>
<text text-anchor="start" x="426" y="-219.5" font-family="Helvetica,sans-Serif" font-size="10.00" fill="#000000">mom_vert_friction::</text>
<text text-anchor="middle" x="468.5" y="-208.5" font-family="Helvetica,sans-Serif" font-size="10.00" fill="#000000">vertvisc_limit_vel</text>
</a>
</g>
</g>
<!-- Node18&#45;&gt;Node19 -->
<g id="edge22" class="edge">
<title>Node18&#45;&gt;Node19</title>
<path fill="none" stroke="#191970" d="M329.7825,-248.7088C353.8821,-243.1131 382.8578,-236.3853 408.0804,-230.5288"/>
<polygon fill="#191970" stroke="#191970" points="408.9569,-233.9185 417.9062,-228.2474 407.3736,-227.0999 408.9569,-233.9185"/>
</g>
<!-- Node20&#45;&gt;Node3 -->
<g id="edge25" class="edge">
<title>Node20&#45;&gt;Node3</title>
<path fill="none" stroke="#191970" d="M329.7634,-219.6549C341.0135,-223.3468 352.1936,-228.7097 361,-236.5 390.5071,-262.6024 368.0267,-290.8064 397,-317.5 399.9089,-320.18 403.1213,-322.5754 406.5257,-324.716"/>
<polygon fill="#191970" stroke="#191970" points="404.8676,-327.7984 415.3201,-329.5293 408.2284,-321.6579 404.8676,-327.7984"/>
</g>
<!-- Node21 -->
<g id="node21" class="node">
<title>Node21</title>
<g id="a_node21"><a xlink:href="namespacemom__vert__friction.html#aa9e6f1f0d75a54d85b0d0cdad874b41f" target="_top" xlink:title="Calculate the &#39;coupling coefficient&#39; (a_cpl) at the interfaces. If BOTTOMDRAGLAW is defined,...">
<polygon fill="#ffffff" stroke="#000000" points="418,-152.5 418,-182.5 519,-182.5 519,-152.5 418,-152.5"/>
<text text-anchor="start" x="426" y="-170.5" font-family="Helvetica,sans-Serif" font-size="10.00" fill="#000000">mom_vert_friction::</text>
<text text-anchor="middle" x="468.5" y="-159.5" font-family="Helvetica,sans-Serif" font-size="10.00" fill="#000000">find_coupling_coef</text>
</a>
</g>
</g>
<!-- Node20&#45;&gt;Node21 -->
<g id="edge24" class="edge">
<title>Node20&#45;&gt;Node21</title>
<path fill="none" stroke="#191970" d="M329.7825,-199.7088C353.8821,-194.1131 382.8578,-187.3853 408.0804,-181.5288"/>
<polygon fill="#191970" stroke="#191970" points="408.9569,-184.9185 417.9062,-179.2474 407.3736,-178.0999 408.9569,-184.9185"/>
</g>
</g>
</svg>
