<?xml version="1.0" encoding="UTF-8" standalone="no"?>
<!DOCTYPE svg PUBLIC "-//W3C//DTD SVG 1.1//EN"
 "http://www.w3.org/Graphics/SVG/1.1/DTD/svg11.dtd">
<!-- Generated by graphviz version 2.40.1 (20161225.0304)
 -->
<!-- Title: mom_continuity_ppm::continuity_ppm Pages: 1 -->
<svg width="727pt" height="523pt"
 viewBox="0.00 0.00 727.00 523.21" xmlns="http://www.w3.org/2000/svg" xmlns:xlink="http://www.w3.org/1999/xlink">
<g id="graph0" class="graph" transform="scale(1 1) rotate(0) translate(4 519.213)">
<title>mom_continuity_ppm::continuity_ppm</title>
<polygon fill="#ffffff" stroke="transparent" points="-4,4 -4,-519.213 723,-519.213 723,4 -4,4"/>
<!-- Node1 -->
<g id="node1" class="node">
<title>Node1</title>
<g id="a_node1"><a xlink:title="Time steps the layer thicknesses, using a monotonically limit, directionally split PPM scheme,...">
<polygon fill="#bfbfbf" stroke="#000000" points="0,-173.5 0,-203.5 110,-203.5 110,-173.5 0,-173.5"/>
<text text-anchor="start" x="8" y="-191.5" font-family="Helvetica,sans-Serif" font-size="10.00" fill="#000000">mom_continuity_ppm</text>
<text text-anchor="middle" x="55" y="-180.5" font-family="Helvetica,sans-Serif" font-size="10.00" fill="#000000">::continuity_ppm</text>
</a>
</g>
</g>
<!-- Node2 -->
<g id="node2" class="node">
<title>Node2</title>
<g id="a_node2"><a xlink:href="namespacemom__continuity__ppm.html#ae64c4b7cd1756aa3c121fbcf637d5cae" target="_top" xlink:title="Calculates the mass or volume fluxes through the meridional faces, and other related quantities.">
<polygon fill="#ffffff" stroke="#000000" points="146,-359.5 146,-389.5 263,-389.5 263,-359.5 146,-359.5"/>
<text text-anchor="start" x="154" y="-377.5" font-family="Helvetica,sans-Serif" font-size="10.00" fill="#000000">mom_continuity_ppm</text>
<text text-anchor="middle" x="204.5" y="-366.5" font-family="Helvetica,sans-Serif" font-size="10.00" fill="#000000">::meridional_mass_flux</text>
</a>
</g>
</g>
<!-- Node1&#45;&gt;Node2 -->
<g id="edge1" class="edge">
<title>Node1&#45;&gt;Node2</title>
<path fill="none" stroke="#191970" d="M67.2342,-203.7212C93.3619,-236.2278 154.7541,-312.6088 185.8092,-351.246"/>
<polygon fill="#191970" stroke="#191970" points="183.3135,-353.7277 192.3064,-359.3294 188.7696,-349.3423 183.3135,-353.7277"/>
</g>
<!-- Node7 -->
<g id="node7" class="node">
<title>Node7</title>
<g id="a_node7"><a xlink:href="namespacemom__error__handler.html#a460cfb79a06c29fc249952c2a3710d67" target="_top" xlink:title="This provides a convenient interface for writing an mpp_error message with run&#45;time filter based on a...">
<polygon fill="#ffffff" stroke="#000000" points="460.5,-217.5 460.5,-247.5 566.5,-247.5 566.5,-217.5 460.5,-217.5"/>
<text text-anchor="start" x="468.5" y="-235.5" font-family="Helvetica,sans-Serif" font-size="10.00" fill="#000000">mom_error_handler::</text>
<text text-anchor="middle" x="513.5" y="-224.5" font-family="Helvetica,sans-Serif" font-size="10.00" fill="#000000">mom_error</text>
</a>
</g>
</g>
<!-- Node1&#45;&gt;Node7 -->
<g id="edge15" class="edge">
<title>Node1&#45;&gt;Node7</title>
<path fill="none" stroke="#191970" d="M110.0675,-188.2728C181.4839,-188.7224 309.7329,-192.0678 418,-208.5 428.87,-210.1498 440.3056,-212.4853 451.3367,-215.058"/>
<polygon fill="#191970" stroke="#191970" points="450.7831,-218.5249 461.3257,-217.4744 452.429,-211.7212 450.7831,-218.5249"/>
</g>
<!-- Node13 -->
<g id="node13" class="node">
<title>Node13</title>
<g id="a_node13"><a xlink:href="namespacemom__continuity__ppm.html#a5f5d6764ed315043d3b91b209db5c0a0" target="_top" xlink:title="Calculates the mass or volume fluxes through the zonal faces, and other related quantities.">
<polygon fill="#ffffff" stroke="#000000" points="149.5,-129.5 149.5,-159.5 259.5,-159.5 259.5,-129.5 149.5,-129.5"/>
<text text-anchor="start" x="157.5" y="-147.5" font-family="Helvetica,sans-Serif" font-size="10.00" fill="#000000">mom_continuity_ppm</text>
<text text-anchor="middle" x="204.5" y="-136.5" font-family="Helvetica,sans-Serif" font-size="10.00" fill="#000000">::zonal_mass_flux</text>
</a>
</g>
</g>
<!-- Node1&#45;&gt;Node13 -->
<g id="edge16" class="edge">
<title>Node1&#45;&gt;Node13</title>
<path fill="none" stroke="#191970" d="M106.0313,-173.4808C118.1122,-169.9252 131.1151,-166.0982 143.5858,-162.4279"/>
<polygon fill="#191970" stroke="#191970" points="144.8401,-165.7073 153.4451,-159.5262 142.8637,-158.9921 144.8401,-165.7073"/>
</g>
<!-- Node3 -->
<g id="node3" class="node">
<title>Node3</title>
<g id="a_node3"><a xlink:href="namespacemom__continuity__ppm.html#a293f7ab5bfd8f3f6a5a50903b05b6411" target="_top" xlink:title="Sets the effective interface thickness at each meridional velocity point.">
<polygon fill="#ffffff" stroke="#000000" points="299.5,-452.5 299.5,-482.5 417.5,-482.5 417.5,-452.5 299.5,-452.5"/>
<text text-anchor="start" x="307.5" y="-470.5" font-family="Helvetica,sans-Serif" font-size="10.00" fill="#000000">mom_continuity_ppm</text>
<text text-anchor="middle" x="358.5" y="-459.5" font-family="Helvetica,sans-Serif" font-size="10.00" fill="#000000">::merid_face_thickness</text>
</a>
</g>
</g>
<!-- Node2&#45;&gt;Node3 -->
<g id="edge2" class="edge">
<title>Node2&#45;&gt;Node3</title>
<path fill="none" stroke="#191970" d="M222.4135,-389.6736C240.7759,-404.7096 270.5866,-427.7169 299,-443.5 301.8725,-445.0956 304.873,-446.6421 307.934,-448.1298"/>
<polygon fill="#191970" stroke="#191970" points="306.6829,-451.4068 317.2305,-452.406 309.6081,-445.0473 306.6829,-451.4068"/>
</g>
<!-- Node4 -->
<g id="node4" class="node">
<title>Node4</title>
<g id="a_node4"><a xlink:href="namespacemom__continuity__ppm.html#ac00aefda40cb9e22013e99cad342bb63" target="_top" xlink:title="Evaluates the meridional mass or volume fluxes in a layer.">
<polygon fill="#ffffff" stroke="#000000" points="609,-428.5 609,-458.5 719,-458.5 719,-428.5 609,-428.5"/>
<text text-anchor="start" x="617" y="-446.5" font-family="Helvetica,sans-Serif" font-size="10.00" fill="#000000">mom_continuity_ppm</text>
<text text-anchor="middle" x="664" y="-435.5" font-family="Helvetica,sans-Serif" font-size="10.00" fill="#000000">::merid_flux_layer</text>
</a>
</g>
</g>
<!-- Node2&#45;&gt;Node4 -->
<g id="edge3" class="edge">
<title>Node2&#45;&gt;Node4</title>
<path fill="none" stroke="#191970" d="M211.1414,-389.6802C223.7675,-416.3681 254.049,-470.9097 299,-492.5 407.7126,-544.7154 554.3843,-493.3804 624.0548,-462.7441"/>
<polygon fill="#191970" stroke="#191970" points="625.6693,-465.856 633.3626,-458.5715 622.8058,-459.4685 625.6693,-465.856"/>
</g>
<!-- Node5 -->
<g id="node5" class="node">
<title>Node5</title>
<g id="a_node5"><a xlink:href="namespacemom__continuity__ppm.html#a6deb1b7de418a17cacd60dabc262ba29" target="_top" xlink:title="Returns the barotropic velocity adjustment that gives the desired barotropic (layer&#45;summed) transport...">
<polygon fill="#ffffff" stroke="#000000" points="454,-384.5 454,-414.5 573,-414.5 573,-384.5 454,-384.5"/>
<text text-anchor="start" x="462" y="-402.5" font-family="Helvetica,sans-Serif" font-size="10.00" fill="#000000">mom_continuity_ppm</text>
<text text-anchor="middle" x="513.5" y="-391.5" font-family="Helvetica,sans-Serif" font-size="10.00" fill="#000000">::meridional_flux_adjust</text>
</a>
</g>
</g>
<!-- Node2&#45;&gt;Node5 -->
<g id="edge4" class="edge">
<title>Node2&#45;&gt;Node5</title>
<path fill="none" stroke="#191970" d="M263.3479,-379.2612C314.6726,-383.4136 389.2157,-389.4446 443.5722,-393.8424"/>
<polygon fill="#191970" stroke="#191970" points="443.569,-397.3535 453.8187,-394.6714 444.1336,-390.3763 443.569,-397.3535"/>
</g>
<!-- Node6 -->
<g id="node6" class="node">
<title>Node6</title>
<g id="a_node6"><a xlink:href="namespacemom__continuity__ppm.html#af71fa5f7f4b849ec735e2049df2d0693" target="_top" xlink:title="Calculates left/right edge values for PPM reconstruction.">
<polygon fill="#ffffff" stroke="#000000" points="299,-315.5 299,-345.5 418,-345.5 418,-315.5 299,-315.5"/>
<text text-anchor="start" x="307" y="-333.5" font-family="Helvetica,sans-Serif" font-size="10.00" fill="#000000">mom_continuity_ppm</text>
<text text-anchor="middle" x="358.5" y="-322.5" font-family="Helvetica,sans-Serif" font-size="10.00" fill="#000000">::ppm_reconstruction_y</text>
</a>
</g>
</g>
<!-- Node2&#45;&gt;Node6 -->
<g id="edge6" class="edge">
<title>Node2&#45;&gt;Node6</title>
<path fill="none" stroke="#191970" d="M257.0673,-359.4808C269.6351,-355.89 283.1716,-352.0224 296.1336,-348.319"/>
<polygon fill="#191970" stroke="#191970" points="297.2546,-351.6388 305.9083,-345.5262 295.3315,-344.9082 297.2546,-351.6388"/>
</g>
<!-- Node11 -->
<g id="node11" class="node">
<title>Node11</title>
<g id="a_node11"><a xlink:href="namespacemom__continuity__ppm.html#adf02002cf5951d7610b8643d2d401585" target="_top" xlink:title="Return the maximum ratio of a/b or maxrat.">
<polygon fill="#ffffff" stroke="#000000" points="303.5,-266.5 303.5,-296.5 413.5,-296.5 413.5,-266.5 303.5,-266.5"/>
<text text-anchor="start" x="311.5" y="-284.5" font-family="Helvetica,sans-Serif" font-size="10.00" fill="#000000">mom_continuity_ppm</text>
<text text-anchor="middle" x="358.5" y="-273.5" font-family="Helvetica,sans-Serif" font-size="10.00" fill="#000000">::ratio_max</text>
</a>
</g>
</g>
<!-- Node2&#45;&gt;Node11 -->
<g id="edge11" class="edge">
<title>Node2&#45;&gt;Node11</title>
<path fill="none" stroke="#191970" d="M222.8452,-359.3765C241.2999,-344.6368 270.964,-322.21 299,-306.5 302.4746,-304.553 306.1314,-302.6647 309.853,-300.8563"/>
<polygon fill="#191970" stroke="#191970" points="311.5689,-303.9187 319.1699,-296.5379 308.6252,-297.5677 311.5689,-303.9187"/>
</g>
<!-- Node12 -->
<g id="node12" class="node">
<title>Node12</title>
<g id="a_node12"><a xlink:href="namespacemom__continuity__ppm.html#a77c6806e82a3634fff7b7480f77c2f02" target="_top" xlink:title="Sets of a structure that describes the meridional barotropic volume or mass fluxes as a function of b...">
<polygon fill="#ffffff" stroke="#000000" points="303.5,-403.5 303.5,-433.5 413.5,-433.5 413.5,-403.5 303.5,-403.5"/>
<text text-anchor="start" x="311.5" y="-421.5" font-family="Helvetica,sans-Serif" font-size="10.00" fill="#000000">mom_continuity_ppm</text>
<text text-anchor="middle" x="358.5" y="-410.5" font-family="Helvetica,sans-Serif" font-size="10.00" fill="#000000">::set_merid_bt_cont</text>
</a>
</g>
</g>
<!-- Node2&#45;&gt;Node12 -->
<g id="edge12" class="edge">
<title>Node2&#45;&gt;Node12</title>
<path fill="none" stroke="#191970" d="M257.0673,-389.5192C269.6351,-393.11 283.1716,-396.9776 296.1336,-400.681"/>
<polygon fill="#191970" stroke="#191970" points="295.3315,-404.0918 305.9083,-403.4738 297.2546,-397.3612 295.3315,-404.0918"/>
</g>
<!-- Node5&#45;&gt;Node4 -->
<g id="edge5" class="edge">
<title>Node5&#45;&gt;Node4</title>
<path fill="none" stroke="#191970" d="M564.8726,-414.5192C577.0343,-418.0748 590.1243,-421.9018 602.6783,-425.5721"/>
<polygon fill="#191970" stroke="#191970" points="602.0232,-429.027 612.6035,-428.4738 603.9875,-422.3082 602.0232,-429.027"/>
</g>
<!-- Node6&#45;&gt;Node7 -->
<g id="edge7" class="edge">
<title>Node6&#45;&gt;Node7</title>
<path fill="none" stroke="#191970" d="M403.8395,-315.3673C408.8489,-312.7929 413.6893,-309.8475 418,-306.5 439.3437,-289.9254 432.7759,-274.2275 454,-257.5 456.079,-255.8615 458.281,-254.3124 460.5657,-252.8503"/>
<polygon fill="#191970" stroke="#191970" points="462.7511,-255.633 469.7015,-247.6366 459.2815,-249.5534 462.7511,-255.633"/>
</g>
<!-- Node9 -->
<g id="node9" class="node">
<title>Node9</title>
<g id="a_node9"><a xlink:href="namespacemom__continuity__ppm.html#ab03786fff2550dd61282356608fc1352" target="_top" xlink:title="This subroutine limits the left/right edge values of the PPM reconstruction according to the monotoni...">
<polygon fill="#ffffff" stroke="#000000" points="458.5,-315.5 458.5,-345.5 568.5,-345.5 568.5,-315.5 458.5,-315.5"/>
<text text-anchor="start" x="466.5" y="-333.5" font-family="Helvetica,sans-Serif" font-size="10.00" fill="#000000">mom_continuity_ppm</text>
<text text-anchor="middle" x="513.5" y="-322.5" font-family="Helvetica,sans-Serif" font-size="10.00" fill="#000000">::ppm_limit_cw84</text>
</a>
</g>
</g>
<!-- Node6&#45;&gt;Node9 -->
<g id="edge9" class="edge">
<title>Node6&#45;&gt;Node9</title>
<path fill="none" stroke="#191970" d="M418.427,-330.5C428.1639,-330.5 438.2915,-330.5 448.15,-330.5"/>
<polygon fill="#191970" stroke="#191970" points="448.2987,-334.0001 458.2986,-330.5 448.2986,-327.0001 448.2987,-334.0001"/>
</g>
<!-- Node10 -->
<g id="node10" class="node">
<title>Node10</title>
<g id="a_node10"><a xlink:href="namespacemom__continuity__ppm.html#a870edb0c5b2cb0464899430b6651260c" target="_top" xlink:title="This subroutine limits the left/right edge values of the PPM reconstruction to give a reconstruction ...">
<polygon fill="#ffffff" stroke="#000000" points="458.5,-266.5 458.5,-296.5 568.5,-296.5 568.5,-266.5 458.5,-266.5"/>
<text text-anchor="start" x="466.5" y="-284.5" font-family="Helvetica,sans-Serif" font-size="10.00" fill="#000000">mom_continuity_ppm</text>
<text text-anchor="middle" x="513.5" y="-273.5" font-family="Helvetica,sans-Serif" font-size="10.00" fill="#000000">::ppm_limit_pos</text>
</a>
</g>
</g>
<!-- Node6&#45;&gt;Node10 -->
<g id="edge10" class="edge">
<title>Node6&#45;&gt;Node10</title>
<path fill="none" stroke="#191970" d="M406.2699,-315.3986C421.9599,-310.4385 439.5662,-304.8726 455.9061,-299.7071"/>
<polygon fill="#191970" stroke="#191970" points="457.408,-302.9031 465.8879,-296.5516 455.298,-296.2287 457.408,-302.9031"/>
</g>
<!-- Node8 -->
<g id="node8" class="node">
<title>Node8</title>
<g id="a_node8"><a xlink:href="namespacemom__error__handler.html#ad5f00a53059c72fe2332d1436c80ca71" target="_top" xlink:title="This returns .true. if the current PE is the root PE.">
<polygon fill="#ffffff" stroke="#000000" points="611,-217.5 611,-247.5 717,-247.5 717,-217.5 611,-217.5"/>
<text text-anchor="start" x="619" y="-235.5" font-family="Helvetica,sans-Serif" font-size="10.00" fill="#000000">mom_error_handler::</text>
<text text-anchor="middle" x="664" y="-224.5" font-family="Helvetica,sans-Serif" font-size="10.00" fill="#000000">is_root_pe</text>
</a>
</g>
</g>
<!-- Node7&#45;&gt;Node8 -->
<g id="edge8" class="edge">
<title>Node7&#45;&gt;Node8</title>
<path fill="none" stroke="#191970" d="M566.5607,-232.5C577.5756,-232.5 589.2872,-232.5 600.6294,-232.5"/>
<polygon fill="#191970" stroke="#191970" points="600.9112,-236.0001 610.9112,-232.5 600.9112,-229.0001 600.9112,-236.0001"/>
</g>
<!-- Node12&#45;&gt;Node4 -->
<g id="edge13" class="edge">
<title>Node12&#45;&gt;Node4</title>
<path fill="none" stroke="#191970" d="M413.8237,-423.0273C465.8655,-427.286 543.802,-433.6638 598.8329,-438.1672"/>
<polygon fill="#191970" stroke="#191970" points="598.5782,-441.6579 608.8304,-438.9853 599.1492,-434.6813 598.5782,-441.6579"/>
</g>
<!-- Node12&#45;&gt;Node5 -->
<g id="edge14" class="edge">
<title>Node12&#45;&gt;Node5</title>
<path fill="none" stroke="#191970" d="M413.5836,-411.7478C423.3728,-410.5479 433.684,-409.2839 443.8152,-408.042"/>
<polygon fill="#191970" stroke="#191970" points="444.3606,-411.5014 453.8605,-406.8107 443.5089,-404.5534 444.3606,-411.5014"/>
</g>
<!-- Node13&#45;&gt;Node11 -->
<g id="edge21" class="edge">
<title>Node13&#45;&gt;Node11</title>
<path fill="none" stroke="#191970" d="M213.6901,-159.719C228.7756,-183.5542 260.9456,-229.8204 299,-257.5 300.8663,-258.8575 302.8202,-260.1524 304.8354,-261.3861"/>
<polygon fill="#191970" stroke="#191970" points="303.5307,-264.6625 313.981,-266.4062 306.899,-258.5262 303.5307,-264.6625"/>
</g>
<!-- Node14 -->
<g id="node14" class="node">
<title>Node14</title>
<g id="a_node14"><a xlink:href="namespacemom__continuity__ppm.html#a9a7eac2a9b17d0e9ee9ca0a27d2f8fb6" target="_top" xlink:title="Calculates left/right edge values for PPM reconstruction.">
<polygon fill="#ffffff" stroke="#000000" points="299,-217.5 299,-247.5 418,-247.5 418,-217.5 299,-217.5"/>
<text text-anchor="start" x="307" y="-235.5" font-family="Helvetica,sans-Serif" font-size="10.00" fill="#000000">mom_continuity_ppm</text>
<text text-anchor="middle" x="358.5" y="-224.5" font-family="Helvetica,sans-Serif" font-size="10.00" fill="#000000">::ppm_reconstruction_x</text>
</a>
</g>
</g>
<!-- Node13&#45;&gt;Node14 -->
<g id="edge17" class="edge">
<title>Node13&#45;&gt;Node14</title>
<path fill="none" stroke="#191970" d="M230.9735,-159.6277C256.5038,-174.2165 295.302,-196.3869 323.3988,-212.4422"/>
<polygon fill="#191970" stroke="#191970" points="321.6957,-215.5001 332.1147,-217.4227 325.1687,-209.4224 321.6957,-215.5001"/>
</g>
<!-- Node15 -->
<g id="node15" class="node">
<title>Node15</title>
<g id="a_node15"><a xlink:href="namespacemom__continuity__ppm.html#a30e5aef71acbeef6afe5f6cf1ea30dcc" target="_top" xlink:title="Sets a structure that describes the zonal barotropic volume or mass fluxes as a function of barotropi...">
<polygon fill="#ffffff" stroke="#000000" points="303.5,-41.5 303.5,-71.5 413.5,-71.5 413.5,-41.5 303.5,-41.5"/>
<text text-anchor="start" x="311.5" y="-59.5" font-family="Helvetica,sans-Serif" font-size="10.00" fill="#000000">mom_continuity_ppm</text>
<text text-anchor="middle" x="358.5" y="-48.5" font-family="Helvetica,sans-Serif" font-size="10.00" fill="#000000">::set_zonal_bt_cont</text>
</a>
</g>
</g>
<!-- Node13&#45;&gt;Node15 -->
<g id="edge22" class="edge">
<title>Node13&#45;&gt;Node15</title>
<path fill="none" stroke="#191970" d="M227.8657,-129.4057C246.7955,-117.3612 274.2862,-100.283 299,-86.5 305.1095,-83.0927 311.6525,-79.6213 318.0833,-76.3061"/>
<polygon fill="#191970" stroke="#191970" points="320.0353,-79.24 327.3614,-71.5864 316.8614,-73.0009 320.0353,-79.24"/>
</g>
<!-- Node16 -->
<g id="node16" class="node">
<title>Node16</title>
<g id="a_node16"><a xlink:href="namespacemom__continuity__ppm.html#afad3f82b9824a13d3fe8792496e9b769" target="_top" xlink:title="Returns the barotropic velocity adjustment that gives the desired barotropic (layer&#45;summed) transport...">
<polygon fill="#ffffff" stroke="#000000" points="458.5,-.5 458.5,-30.5 568.5,-30.5 568.5,-.5 458.5,-.5"/>
<text text-anchor="start" x="466.5" y="-18.5" font-family="Helvetica,sans-Serif" font-size="10.00" fill="#000000">mom_continuity_ppm</text>
<text text-anchor="middle" x="513.5" y="-7.5" font-family="Helvetica,sans-Serif" font-size="10.00" fill="#000000">::zonal_flux_adjust</text>
</a>
</g>
</g>
<!-- Node13&#45;&gt;Node16 -->
<g id="edge27" class="edge">
<title>Node13&#45;&gt;Node16</title>
<path fill="none" stroke="#191970" d="M211.9075,-129.4657C225.314,-104.1091 256.23,-53.4623 299,-31.5 344.9199,-7.9203 403.7904,-5.1401 448.2368,-7.5724"/>
<polygon fill="#191970" stroke="#191970" points="448.1421,-11.0735 458.3477,-8.2283 448.5953,-4.0882 448.1421,-11.0735"/>
</g>
<!-- Node17 -->
<g id="node17" class="node">
<title>Node17</title>
<g id="a_node17"><a xlink:href="namespacemom__continuity__ppm.html#a713196d0cfe6cb4cc8a91239a8dba02d" target="_top" xlink:title="Evaluates the zonal mass or volume fluxes in a layer.">
<polygon fill="#ffffff" stroke="#000000" points="609,-44.5 609,-74.5 719,-74.5 719,-44.5 609,-44.5"/>
<text text-anchor="start" x="617" y="-62.5" font-family="Helvetica,sans-Serif" font-size="10.00" fill="#000000">mom_continuity_ppm</text>
<text text-anchor="middle" x="664" y="-51.5" font-family="Helvetica,sans-Serif" font-size="10.00" fill="#000000">::zonal_flux_layer</text>
</a>
</g>
</g>
<!-- Node13&#45;&gt;Node17 -->
<g id="edge28" class="edge">
<title>Node13&#45;&gt;Node17</title>
<path fill="none" stroke="#191970" d="M259.7866,-129.6395C272.6133,-126.4201 286.2448,-123.1807 299,-120.5 403.185,-98.6038 525.4232,-79.496 598.6916,-68.7409"/>
<polygon fill="#191970" stroke="#191970" points="599.309,-72.1879 608.6981,-67.2793 598.2973,-65.2614 599.309,-72.1879"/>
</g>
<!-- Node18 -->
<g id="node18" class="node">
<title>Node18</title>
<g id="a_node18"><a xlink:href="namespacemom__continuity__ppm.html#a9e76825c96ffca1ae0e84469ab46029b" target="_top" xlink:title="Sets the effective interface thickness at each zonal velocity point.">
<polygon fill="#ffffff" stroke="#000000" points="300,-129.5 300,-159.5 417,-159.5 417,-129.5 300,-129.5"/>
<text text-anchor="start" x="308" y="-147.5" font-family="Helvetica,sans-Serif" font-size="10.00" fill="#000000">mom_continuity_ppm</text>
<text text-anchor="middle" x="358.5" y="-136.5" font-family="Helvetica,sans-Serif" font-size="10.00" fill="#000000">::zonal_face_thickness</text>
</a>
</g>
</g>
<!-- Node13&#45;&gt;Node18 -->
<g id="edge26" class="edge">
<title>Node13&#45;&gt;Node18</title>
<path fill="none" stroke="#191970" d="M259.6626,-144.5C269.4367,-144.5 279.7226,-144.5 289.8157,-144.5"/>
<polygon fill="#191970" stroke="#191970" points="289.8185,-148.0001 299.8184,-144.5 289.8184,-141.0001 289.8185,-148.0001"/>
</g>
<!-- Node14&#45;&gt;Node7 -->
<g id="edge18" class="edge">
<title>Node14&#45;&gt;Node7</title>
<path fill="none" stroke="#191970" d="M418.427,-232.5C428.7776,-232.5 439.5695,-232.5 450.0105,-232.5"/>
<polygon fill="#191970" stroke="#191970" points="450.3052,-236.0001 460.3052,-232.5 450.3052,-229.0001 450.3052,-236.0001"/>
</g>
<!-- Node14&#45;&gt;Node9 -->
<g id="edge19" class="edge">
<title>Node14&#45;&gt;Node9</title>
<path fill="none" stroke="#191970" d="M402.2985,-247.6366C407.8533,-250.4772 413.248,-253.7547 418,-257.5 439.2241,-274.2275 432.6563,-289.9254 454,-306.5 455.6165,-307.7553 457.3075,-308.9541 459.054,-310.098"/>
<polygon fill="#191970" stroke="#191970" points="457.7521,-313.3883 468.1605,-315.3673 461.258,-307.3295 457.7521,-313.3883"/>
</g>
<!-- Node14&#45;&gt;Node10 -->
<g id="edge20" class="edge">
<title>Node14&#45;&gt;Node10</title>
<path fill="none" stroke="#191970" d="M406.2699,-247.6014C421.9599,-252.5615 439.5662,-258.1274 455.9061,-263.2929"/>
<polygon fill="#191970" stroke="#191970" points="455.298,-266.7713 465.8879,-266.4484 457.408,-260.0969 455.298,-266.7713"/>
</g>
<!-- Node15&#45;&gt;Node16 -->
<g id="edge23" class="edge">
<title>Node15&#45;&gt;Node16</title>
<path fill="none" stroke="#191970" d="M413.5836,-41.9295C424.9363,-38.9265 436.9912,-35.7378 448.6531,-32.653"/>
<polygon fill="#191970" stroke="#191970" points="449.5603,-36.0335 458.3328,-30.0926 447.7702,-29.2663 449.5603,-36.0335"/>
</g>
<!-- Node15&#45;&gt;Node17 -->
<g id="edge25" class="edge">
<title>Node15&#45;&gt;Node17</title>
<path fill="none" stroke="#191970" d="M413.8237,-57.0433C465.7575,-57.5533 543.4787,-58.3165 598.4901,-58.8567"/>
<polygon fill="#191970" stroke="#191970" points="598.7965,-62.3598 608.8304,-58.9582 598.8653,-55.3601 598.7965,-62.3598"/>
</g>
<!-- Node16&#45;&gt;Node17 -->
<g id="edge24" class="edge">
<title>Node16&#45;&gt;Node17</title>
<path fill="none" stroke="#191970" d="M564.8726,-30.5192C577.0343,-34.0748 590.1243,-37.9018 602.6783,-41.5721"/>
<polygon fill="#191970" stroke="#191970" points="602.0232,-45.027 612.6035,-44.4738 603.9875,-38.3082 602.0232,-45.027"/>
</g>
</g>
</svg>
