<?xml version="1.0" encoding="UTF-8" standalone="no"?>
<!DOCTYPE svg PUBLIC "-//W3C//DTD SVG 1.1//EN"
 "http://www.w3.org/Graphics/SVG/1.1/DTD/svg11.dtd">
<!-- Generated by graphviz version 2.40.1 (20161225.0304)
 -->
<!-- Title: mom_diag_mediator::i2s Pages: 1 -->
<!--zoomable 127 -->
<svg id="main" version="1.1" xmlns="http://www.w3.org/2000/svg" xmlns:xlink="http://www.w3.org/1999/xlink" xml:space="preserve" onload="init(evt)">
<style type="text/css"><![CDATA[
.edge:hover path { stroke: red; }
.edge:hover polygon { stroke: red; fill: red; }
]]></style>
<script type="text/javascript"><![CDATA[
var edges = document.getElementsByTagName('g');
if (edges && edges.length) {
  for (var i=0;i<edges.length;i++) {
    if (edges[i].id.substr(0,4)=='edge') {
      edges[i].setAttribute('class','edge');
    }
  }
}
]]></script>
        <defs>
                <circle id="rim" cx="0" cy="0" r="7"/>
                <circle id="rim2" cx="0" cy="0" r="3.5"/>
                <g id="zoomPlus">
                        <use xlink:href="#rim" fill="#404040">
                                <set attributeName="fill" to="#808080" begin="zoomplus.mouseover" end="zoomplus.mouseout"/>
                        </use>
                        <path d="M-4,0h8M0,-4v8" fill="none" stroke="white" stroke-width="1.5" pointer-events="none"/>
                </g>
                <g id="zoomMin">
                        <use xlink:href="#rim" fill="#404040">
                                <set attributeName="fill" to="#808080" begin="zoomminus.mouseover" end="zoomminus.mouseout"/>
                        </use>
                        <path d="M-4,0h8" fill="none" stroke="white" stroke-width="1.5" pointer-events="none"/>
                </g>
                <g id="dirArrow">
                        <path fill="none" stroke="white" stroke-width="1.5" d="M0,-3.0v7 M-2.5,-0.5L0,-3.0L2.5,-0.5"/>
                </g>
               <g id="resetDef">
                       <use xlink:href="#rim2" fill="#404040">
                               <set attributeName="fill" to="#808080" begin="reset.mouseover" end="reset.mouseout"/>
                       </use>
               </g>
        </defs>

<script type="text/javascript">
var viewWidth = 787;
var viewHeight = 127;
var sectionId = 'dynsection-39';
</script>
<script xlink:href="svgpan.js"/>
<svg id="graph" class="graph">
<g id="viewport">
<title>mom_diag_mediator::i2s</title>
<polygon fill="#ffffff" stroke="transparent" points="-4,4 -4,-123 783,-123 783,4 -4,4"/>
<!-- Node1 -->
<g id="node1" class="node">
<title>Node1</title>
<g id="a_node1"><a xlink:title="Convert the first n elements (up to 3) of an integer array to an underscore delimited string.">
<polygon fill="#bfbfbf" stroke="#000000" points="648,-30 648,-49 779,-49 779,-30 648,-30"/>
<text text-anchor="middle" x="713.5" y="-37" font-family="Helvetica,sans-Serif" font-size="10.00" fill="#000000">mom_diag_mediator::i2s</text>
</a>
</g>
</g>
<!-- Node2 -->
<g id="node2" class="node">
<title>Node2</title>
<g id="a_node2"><a xlink:href="namespacemom__diag__mediator.html#ab9f767ec24a860cb71cae264560272a8" target="_top" xlink:title="Defines a group of &quot;axes&quot; from list of handles.">
<polygon fill="#ffffff" stroke="#000000" points="481,-49.5 481,-79.5 598,-79.5 598,-49.5 481,-49.5"/>
<text text-anchor="start" x="489" y="-67.5" font-family="Helvetica,sans-Serif" font-size="10.00" fill="#000000">mom_diag_mediator::</text>
<text text-anchor="middle" x="539.5" y="-56.5" font-family="Helvetica,sans-Serif" font-size="10.00" fill="#000000">define_axes_group</text>
</a>
</g>
</g>
<!-- Node1&#45;&gt;Node2 -->
<g id="edge1" class="edge">
<title>Node1&#45;&gt;Node2</title>
<path fill="none" stroke="#191970" d="M637.6973,-50.3912C624.4769,-52.2907 610.9056,-54.2406 598.2322,-56.0615"/>
<polygon fill="#191970" stroke="#191970" points="638.3175,-53.8381 647.7181,-48.9514 637.3219,-46.9093 638.3175,-53.8381"/>
</g>
<!-- Node7 -->
<g id="node7" class="node">
<title>Node7</title>
<g id="a_node7"><a xlink:href="namespacemom__diag__mediator.html#a51129041d5b42f6546c087111465f639" target="_top" xlink:title="Defines a group of downsampled &quot;axes&quot; from list of handles.">
<polygon fill="#ffffff" stroke="#000000" points="467,-.5 467,-30.5 612,-30.5 612,-.5 467,-.5"/>
<text text-anchor="start" x="475" y="-18.5" font-family="Helvetica,sans-Serif" font-size="10.00" fill="#000000">mom_diag_mediator::</text>
<text text-anchor="middle" x="539.5" y="-7.5" font-family="Helvetica,sans-Serif" font-size="10.00" fill="#000000">define_axes_group_dsamp</text>
</a>
</g>
</g>
<!-- Node1&#45;&gt;Node7 -->
<g id="edge6" class="edge">
<title>Node1&#45;&gt;Node7</title>
<path fill="none" stroke="#191970" d="M637.7848,-29.0565C629.2482,-27.8791 620.5642,-26.6813 612.0691,-25.5095"/>
<polygon fill="#191970" stroke="#191970" points="637.3336,-32.5273 647.7181,-30.4266 638.2901,-25.593 637.3336,-32.5273"/>
</g>
<!-- Node3 -->
<g id="node3" class="node">
<title>Node3</title>
<g id="a_node3"><a xlink:href="namespacemom__internal__tides.html#a48431ac355c6fa3de7548bfdec620eb0" target="_top" xlink:title="This subroutine initializes the internal tides module.">
<polygon fill="#ffffff" stroke="#000000" points="316.5,-88.5 316.5,-118.5 425.5,-118.5 425.5,-88.5 316.5,-88.5"/>
<text text-anchor="start" x="324.5" y="-106.5" font-family="Helvetica,sans-Serif" font-size="10.00" fill="#000000">mom_internal_tides</text>
<text text-anchor="middle" x="371" y="-95.5" font-family="Helvetica,sans-Serif" font-size="10.00" fill="#000000">::internal_tides_init</text>
</a>
</g>
</g>
<!-- Node2&#45;&gt;Node3 -->
<g id="edge2" class="edge">
<title>Node2&#45;&gt;Node3</title>
<path fill="none" stroke="#191970" d="M470.8083,-80.399C455.7763,-83.8782 440.0598,-87.5158 425.6635,-90.8479"/>
<polygon fill="#191970" stroke="#191970" points="471.6137,-83.8052 480.5669,-78.1403 470.0352,-76.9855 471.6137,-83.8052"/>
</g>
<!-- Node5 -->
<g id="node5" class="node">
<title>Node5</title>
<g id="a_node5"><a xlink:href="namespacemom__diag__mediator.html#a76c9267c7744e3573f78afbaa0b716a5" target="_top" xlink:title="Sets up diagnostics axes.">
<polygon fill="#ffffff" stroke="#000000" points="158,-20.5 158,-50.5 275,-50.5 275,-20.5 158,-20.5"/>
<text text-anchor="start" x="166" y="-38.5" font-family="Helvetica,sans-Serif" font-size="10.00" fill="#000000">mom_diag_mediator::</text>
<text text-anchor="middle" x="216.5" y="-27.5" font-family="Helvetica,sans-Serif" font-size="10.00" fill="#000000">set_axes_info</text>
</a>
</g>
</g>
<!-- Node2&#45;&gt;Node5 -->
<g id="edge4" class="edge">
<title>Node2&#45;&gt;Node5</title>
<path fill="none" stroke="#191970" d="M470.4405,-58.2996C412.3517,-53.0842 330.2073,-45.709 275.2354,-40.7735"/>
<polygon fill="#191970" stroke="#191970" points="470.3594,-61.8063 480.6324,-59.2147 470.9855,-54.8344 470.3594,-61.8063"/>
</g>
<!-- Node4 -->
<g id="node4" class="node">
<title>Node4</title>
<g id="a_node4"><a xlink:href="namespacemom__diabatic__driver.html#a51d273bae7e5d2217fa5498620532888" target="_top" xlink:title="This routine initializes the diabatic driver module.">
<polygon fill="#ffffff" stroke="#000000" points="159.5,-88.5 159.5,-118.5 273.5,-118.5 273.5,-88.5 159.5,-88.5"/>
<text text-anchor="start" x="167.5" y="-106.5" font-family="Helvetica,sans-Serif" font-size="10.00" fill="#000000">mom_diabatic_driver</text>
<text text-anchor="middle" x="216.5" y="-95.5" font-family="Helvetica,sans-Serif" font-size="10.00" fill="#000000">::diabatic_driver_init</text>
</a>
</g>
</g>
<!-- Node3&#45;&gt;Node4 -->
<g id="edge3" class="edge">
<title>Node3&#45;&gt;Node4</title>
<path fill="none" stroke="#191970" d="M305.9194,-103.5C295.1749,-103.5 284.1082,-103.5 273.5791,-103.5"/>
<polygon fill="#191970" stroke="#191970" points="306.0941,-107.0001 316.0941,-103.5 306.094,-100.0001 306.0941,-107.0001"/>
</g>
<!-- Node6 -->
<g id="node6" class="node">
<title>Node6</title>
<g id="a_node6"><a xlink:href="namespacemom__oda__driver__mod.html#aaaf67b8d0e0db3ba3dfe09e24d2b8b24" target="_top" xlink:title="initialize First_guess (prior) and Analysis grid information for all ensemble members">
<polygon fill="#ffffff" stroke="#000000" points="0,-20.5 0,-50.5 122,-50.5 122,-20.5 0,-20.5"/>
<text text-anchor="start" x="8" y="-38.5" font-family="Helvetica,sans-Serif" font-size="10.00" fill="#000000">mom_oda_driver_mod</text>
<text text-anchor="middle" x="61" y="-27.5" font-family="Helvetica,sans-Serif" font-size="10.00" fill="#000000">::init_oda</text>
</a>
</g>
</g>
<!-- Node5&#45;&gt;Node6 -->
<g id="edge5" class="edge">
<title>Node5&#45;&gt;Node6</title>
<path fill="none" stroke="#191970" d="M147.5199,-35.5C139.0852,-35.5 130.5111,-35.5 122.2014,-35.5"/>
<polygon fill="#191970" stroke="#191970" points="147.7122,-39.0001 157.7121,-35.5 147.7121,-32.0001 147.7122,-39.0001"/>
</g>
<!-- Node8 -->
<g id="node8" class="node">
<title>Node8</title>
<g id="a_node8"><a xlink:href="namespacemom__diag__mediator.html#a1abcee77dbc8e8a48f4b48144fc0923c" target="_top" xlink:title=" ">
<polygon fill="#ffffff" stroke="#000000" points="311,-.5 311,-30.5 431,-30.5 431,-.5 311,-.5"/>
<text text-anchor="start" x="319" y="-18.5" font-family="Helvetica,sans-Serif" font-size="10.00" fill="#000000">mom_diag_mediator::</text>
<text text-anchor="middle" x="371" y="-7.5" font-family="Helvetica,sans-Serif" font-size="10.00" fill="#000000">set_axes_info_dsamp</text>
</a>
</g>
</g>
<!-- Node7&#45;&gt;Node8 -->
<g id="edge7" class="edge">
<title>Node7&#45;&gt;Node8</title>
<path fill="none" stroke="#191970" d="M456.5416,-15.5C447.9709,-15.5 439.3823,-15.5 431.1308,-15.5"/>
<polygon fill="#191970" stroke="#191970" points="456.5735,-19.0001 466.5735,-15.5 456.5734,-12.0001 456.5735,-19.0001"/>
</g>
<!-- Node8&#45;&gt;Node5 -->
<g id="edge8" class="edge">
<title>Node8&#45;&gt;Node5</title>
<path fill="none" stroke="#191970" d="M300.8534,-24.5805C292.2924,-25.6887 283.6141,-26.8121 275.2438,-27.8956"/>
<polygon fill="#191970" stroke="#191970" points="301.356,-28.0447 310.8239,-23.2898 300.4573,-21.1026 301.356,-28.0447"/>
</g>
</g>
</svg>
        <g id="navigator" transform="translate(0 0)" fill="#404254">
                <rect fill="#f2f5e9" fill-opacity="0.5" stroke="#606060" stroke-width=".5" x="0" y="0" width="60" height="60"/>
                <use id="zoomplus" xlink:href="#zoomPlus" x="17" y="9" onmousedown="handleZoom(evt,'in')"/>
                <use id="zoomminus" xlink:href="#zoomMin" x="42" y="9" onmousedown="handleZoom(evt,'out')"/>
                <use id="reset" xlink:href="#resetDef" x="30" y="36" onmousedown="handleReset()"/>
                <g id="arrowUp" xlink:href="#dirArrow" transform="translate(30 24)" onmousedown="handlePan(0,-1)">
                  <use xlink:href="#rim" fill="#404040">
                        <set attributeName="fill" to="#808080" begin="arrowUp.mouseover" end="arrowUp.mouseout"/>
                  </use>
                  <path fill="none" stroke="white" stroke-width="1.5" d="M0,-3.0v7 M-2.5,-0.5L0,-3.0L2.5,-0.5"/>
                </g>
                <g id="arrowRight" xlink:href="#dirArrow" transform="rotate(90) translate(36 -43)" onmousedown="handlePan(1,0)">
                  <use xlink:href="#rim" fill="#404040">
                        <set attributeName="fill" to="#808080" begin="arrowRight.mouseover" end="arrowRight.mouseout"/>
                  </use>
                  <path fill="none" stroke="white" stroke-width="1.5" d="M0,-3.0v7 M-2.5,-0.5L0,-3.0L2.5,-0.5"/>
                </g>
                <g id="arrowDown" xlink:href="#dirArrow" transform="rotate(180) translate(-30 -48)" onmousedown="handlePan(0,1)">
                  <use xlink:href="#rim" fill="#404040">
                        <set attributeName="fill" to="#808080" begin="arrowDown.mouseover" end="arrowDown.mouseout"/>
                  </use>
                  <path fill="none" stroke="white" stroke-width="1.5" d="M0,-3.0v7 M-2.5,-0.5L0,-3.0L2.5,-0.5"/>
                </g>
                <g id="arrowLeft" xlink:href="#dirArrow" transform="rotate(270) translate(-36 17)" onmousedown="handlePan(-1,0)">
                  <use xlink:href="#rim" fill="#404040">
                        <set attributeName="fill" to="#808080" begin="arrowLeft.mouseover" end="arrowLeft.mouseout"/>
                  </use>
                  <path fill="none" stroke="white" stroke-width="1.5" d="M0,-3.0v7 M-2.5,-0.5L0,-3.0L2.5,-0.5"/>
                </g>
        </g>
        <svg viewBox="0 0 15 15" width="100%" height="30px" preserveAspectRatio="xMaxYMin meet">
         <g id="arrow_out" transform="scale(0.3 0.3)">
          <a xlink:href="namespacemom__diag__mediator_a82d9bb70db16b1113304936c82d40e82_icgraph_org.svg" target="_base">
           <rect id="button" ry="5" rx="5" y="6" x="6" height="38" width="38"
                fill="#f2f5e9" fill-opacity="0.5" stroke="#606060" stroke-width="1.0"/>
           <path id="arrow"
             d="M 11.500037,31.436501 C 11.940474,20.09759 22.043105,11.32322 32.158766,21.979434 L 37.068811,17.246167 C 37.068811,17.246167 37.088388,32 37.088388,32 L 22.160133,31.978069 C 22.160133,31.978069 26.997745,27.140456 26.997745,27.140456 C 18.528582,18.264221 13.291696,25.230495 11.500037,31.436501 z"
             style="fill:#404040;"/>
          </a>
         </g>
        </svg>
</svg>
