<?xml version="1.0" encoding="UTF-8" standalone="no"?>
<!DOCTYPE svg PUBLIC "-//W3C//DTD SVG 1.1//EN"
 "http://www.w3.org/Graphics/SVG/1.1/DTD/svg11.dtd">
<!-- Generated by graphviz version 2.40.1 (20161225.0304)
 -->
<!-- Title: mom_forcing_type::mech_forcing_diags Pages: 1 -->
<svg width="321pt" height="127pt"
 viewBox="0.00 0.00 321.00 126.50" xmlns="http://www.w3.org/2000/svg" xmlns:xlink="http://www.w3.org/1999/xlink">
<g id="graph0" class="graph" transform="scale(1 1) rotate(0) translate(4 122.5)">
<title>mom_forcing_type::mech_forcing_diags</title>
<polygon fill="#ffffff" stroke="transparent" points="-4,4 -4,-122.5 317,-122.5 317,4 -4,4"/>
<!-- Node1 -->
<g id="node1" class="node">
<title>Node1</title>
<g id="a_node1"><a xlink:title="Offer mechanical forcing fields for diagnostics for those fields registered as part of register_forci...">
<polygon fill="#bfbfbf" stroke="#000000" points="179,-49.5 179,-79.5 313,-79.5 313,-49.5 179,-49.5"/>
<text text-anchor="start" x="187" y="-67.5" font-family="Helvetica,sans-Serif" font-size="10.00" fill="#000000">mom_forcing_type::mech</text>
<text text-anchor="middle" x="246" y="-56.5" font-family="Helvetica,sans-Serif" font-size="10.00" fill="#000000">_forcing_diags</text>
</a>
</g>
</g>
<!-- Node2 -->
<g id="node2" class="node">
<title>Node2</title>
<g id="a_node2"><a xlink:href="MOM__driver_8F90.html#a08fffeb2d8e8acbf9ed4609be6d258c6" target="_top" xlink:title=" ">
<polygon fill="#ffffff" stroke="#000000" points="37.5,-99 37.5,-118 105.5,-118 105.5,-99 37.5,-99"/>
<text text-anchor="middle" x="71.5" y="-106" font-family="Helvetica,sans-Serif" font-size="10.00" fill="#000000">mom_main</text>
</a>
</g>
</g>
<!-- Node1&#45;&gt;Node2 -->
<g id="edge1" class="edge">
<title>Node1&#45;&gt;Node2</title>
<path fill="none" stroke="#191970" d="M176.4912,-82.0266C152.1168,-88.1726 125.8136,-94.8049 105.6318,-99.8937"/>
<polygon fill="#191970" stroke="#191970" points="177.5943,-85.3581 186.4351,-79.5192 175.8828,-78.5705 177.5943,-85.3581"/>
</g>
<!-- Node3 -->
<g id="node3" class="node">
<title>Node3</title>
<g id="a_node3"><a xlink:href="namespacemom__ocean__model__mct.html#a422ba42ca07c0bf28ec5113aba4f1e96" target="_top" xlink:title="update_ocean_model uses the forcing in Ice_ocean_boundary to advance the ocean model&#39;s state from the...">
<polygon fill="#ffffff" stroke="#000000" points="6,-49.5 6,-79.5 137,-79.5 137,-49.5 6,-49.5"/>
<text text-anchor="start" x="14" y="-67.5" font-family="Helvetica,sans-Serif" font-size="10.00" fill="#000000">mom_ocean_model_mct</text>
<text text-anchor="middle" x="71.5" y="-56.5" font-family="Helvetica,sans-Serif" font-size="10.00" fill="#000000">::update_ocean_model</text>
</a>
</g>
</g>
<!-- Node1&#45;&gt;Node3 -->
<g id="edge2" class="edge">
<title>Node1&#45;&gt;Node3</title>
<path fill="none" stroke="#191970" d="M168.2146,-64.5C157.8128,-64.5 147.2293,-64.5 137.0651,-64.5"/>
<polygon fill="#191970" stroke="#191970" points="168.5338,-68.0001 178.5337,-64.5 168.5337,-61.0001 168.5338,-68.0001"/>
</g>
<!-- Node4 -->
<g id="node4" class="node">
<title>Node4</title>
<g id="a_node4"><a xlink:href="namespacemom__ocean__model__nuopc.html#a02a87b4944febcc6828c55e8e4375e62" target="_top" xlink:title="update_ocean_model uses the forcing in Ice_ocean_boundary to advance the ocean model&#39;s state from the...">
<polygon fill="#ffffff" stroke="#000000" points="0,-.5 0,-30.5 143,-30.5 143,-.5 0,-.5"/>
<text text-anchor="start" x="8" y="-18.5" font-family="Helvetica,sans-Serif" font-size="10.00" fill="#000000">mom_ocean_model_nuopc</text>
<text text-anchor="middle" x="71.5" y="-7.5" font-family="Helvetica,sans-Serif" font-size="10.00" fill="#000000">::update_ocean_model</text>
</a>
</g>
</g>
<!-- Node1&#45;&gt;Node4 -->
<g id="edge3" class="edge">
<title>Node1&#45;&gt;Node4</title>
<path fill="none" stroke="#191970" d="M182.5345,-46.6788C163.6938,-41.3882 143.251,-35.6478 125.102,-30.5516"/>
<polygon fill="#191970" stroke="#191970" points="181.6465,-50.0647 192.2204,-49.3986 183.539,-43.3254 181.6465,-50.0647"/>
</g>
</g>
</svg>
