<?xml version="1.0" encoding="UTF-8" standalone="no"?>
<!DOCTYPE svg PUBLIC "-//W3C//DTD SVG 1.1//EN"
 "http://www.w3.org/Graphics/SVG/1.1/DTD/svg11.dtd">
<!-- Generated by graphviz version 2.40.1 (20161225.0304)
 -->
<!-- Title: mom_domains::get_domain_extent Pages: 1 -->
<svg width="741pt" height="125pt"
 viewBox="0.00 0.00 741.00 124.50" xmlns="http://www.w3.org/2000/svg" xmlns:xlink="http://www.w3.org/1999/xlink">
<g id="graph0" class="graph" transform="scale(1 1) rotate(0) translate(4 120.5)">
<title>mom_domains::get_domain_extent</title>
<polygon fill="#ffffff" stroke="transparent" points="-4,4 -4,-120.5 737,-120.5 737,4 -4,4"/>
<!-- Node1 -->
<g id="node1" class="node">
<title>Node1</title>
<g id="a_node1"><a xlink:title="Returns various data that has been stored in a MOM_domain_type.">
<polygon fill="#bfbfbf" stroke="#000000" points="588,-50.5 588,-80.5 733,-80.5 733,-50.5 588,-50.5"/>
<text text-anchor="start" x="596" y="-68.5" font-family="Helvetica,sans-Serif" font-size="10.00" fill="#000000">mom_domains::get_domain</text>
<text text-anchor="middle" x="660.5" y="-57.5" font-family="Helvetica,sans-Serif" font-size="10.00" fill="#000000">_extent</text>
</a>
</g>
</g>
<!-- Node2 -->
<g id="node2" class="node">
<title>Node2</title>
<g id="a_node2"><a xlink:href="namespacemom__hor__index.html#a8e3912351dbf2be2659f3561de341f49" target="_top" xlink:title="Sets various index values in a hor_index_type.">
<polygon fill="#ffffff" stroke="#000000" points="439,-50.5 439,-80.5 552,-80.5 552,-50.5 439,-50.5"/>
<text text-anchor="start" x="447" y="-68.5" font-family="Helvetica,sans-Serif" font-size="10.00" fill="#000000">mom_hor_index::hor</text>
<text text-anchor="middle" x="495.5" y="-57.5" font-family="Helvetica,sans-Serif" font-size="10.00" fill="#000000">_index_init</text>
</a>
</g>
</g>
<!-- Node1&#45;&gt;Node2 -->
<g id="edge1" class="edge">
<title>Node1&#45;&gt;Node2</title>
<path fill="none" stroke="#191970" d="M577.5541,-65.5C568.9388,-65.5 560.3299,-65.5 552.1033,-65.5"/>
<polygon fill="#191970" stroke="#191970" points="577.6483,-69.0001 587.6483,-65.5 577.6483,-62.0001 577.6483,-69.0001"/>
</g>
<!-- Node3 -->
<g id="node3" class="node">
<title>Node3</title>
<g id="a_node3"><a xlink:href="namespacemom__oda__driver__mod.html#aaaf67b8d0e0db3ba3dfe09e24d2b8b24" target="_top" xlink:title="initialize First_guess (prior) and Analysis grid information for all ensemble members">
<polygon fill="#ffffff" stroke="#000000" points="107.5,-49.5 107.5,-79.5 229.5,-79.5 229.5,-49.5 107.5,-49.5"/>
<text text-anchor="start" x="115.5" y="-67.5" font-family="Helvetica,sans-Serif" font-size="10.00" fill="#000000">mom_oda_driver_mod</text>
<text text-anchor="middle" x="168.5" y="-56.5" font-family="Helvetica,sans-Serif" font-size="10.00" fill="#000000">::init_oda</text>
</a>
</g>
</g>
<!-- Node2&#45;&gt;Node3 -->
<g id="edge2" class="edge">
<title>Node2&#45;&gt;Node3</title>
<path fill="none" stroke="#191970" d="M428.6898,-65.2957C370.3221,-65.1172 286.2967,-64.8602 229.6649,-64.687"/>
<polygon fill="#191970" stroke="#191970" points="428.9036,-68.7963 438.9143,-65.327 428.925,-61.7963 428.9036,-68.7963"/>
</g>
<!-- Node4 -->
<g id="node4" class="node">
<title>Node4</title>
<g id="a_node4"><a xlink:href="namespacemom.html#a96708b16215666edbfa5b46228f3a200" target="_top" xlink:title="Initialize MOM, including memory allocation, setting up parameters and diagnostics,...">
<polygon fill="#ffffff" stroke="#000000" points="281,-97 281,-116 391,-116 391,-97 281,-97"/>
<text text-anchor="middle" x="336" y="-104" font-family="Helvetica,sans-Serif" font-size="10.00" fill="#000000">mom::initialize_mom</text>
</a>
</g>
</g>
<!-- Node2&#45;&gt;Node4 -->
<g id="edge3" class="edge">
<title>Node2&#45;&gt;Node4</title>
<path fill="none" stroke="#191970" d="M428.9451,-82.6082C409.8396,-87.5193 389.6949,-92.6976 373.0624,-96.973"/>
<polygon fill="#191970" stroke="#191970" points="430.0034,-85.95 438.8172,-80.0705 428.2606,-79.1704 430.0034,-85.95"/>
</g>
<!-- Node6 -->
<g id="node6" class="node">
<title>Node6</title>
<g id="a_node6"><a xlink:href="namespacemom__grid.html#a1de9705f83b687ad9a711630a95fe52c" target="_top" xlink:title="MOM_grid_init initializes the ocean grid array sizes and grid memory.">
<polygon fill="#ffffff" stroke="#000000" points="269,-18 269,-37 403,-37 403,-18 269,-18"/>
<text text-anchor="middle" x="336" y="-25" font-family="Helvetica,sans-Serif" font-size="10.00" fill="#000000">mom_grid::mom_grid_init</text>
</a>
</g>
</g>
<!-- Node2&#45;&gt;Node6 -->
<g id="edge5" class="edge">
<title>Node2&#45;&gt;Node6</title>
<path fill="none" stroke="#191970" d="M428.9364,-49.6416C410.9369,-45.3533 392.0157,-40.8454 375.9784,-37.0246"/>
<polygon fill="#191970" stroke="#191970" points="428.2782,-53.0827 438.8172,-51.9956 429.9006,-46.2733 428.2782,-53.0827"/>
</g>
<!-- Node5 -->
<g id="node5" class="node">
<title>Node5</title>
<g id="a_node5"><a xlink:href="MOM__driver_8F90.html#a08fffeb2d8e8acbf9ed4609be6d258c6" target="_top" xlink:title=" ">
<polygon fill="#ffffff" stroke="#000000" points="0,-52 0,-71 68,-71 68,-52 0,-52"/>
<text text-anchor="middle" x="34" y="-59" font-family="Helvetica,sans-Serif" font-size="10.00" fill="#000000">mom_main</text>
</a>
</g>
</g>
<!-- Node4&#45;&gt;Node5 -->
<g id="edge4" class="edge">
<title>Node4&#45;&gt;Node5</title>
<path fill="none" stroke="#191970" d="M270.8792,-107.037C223.9337,-106.1447 159.3585,-102.2766 104,-89.5 86.2724,-85.4085 67.1588,-77.5053 53.3907,-71.1359"/>
<polygon fill="#191970" stroke="#191970" points="270.8663,-110.5371 280.9177,-107.1876 270.9714,-103.5379 270.8663,-110.5371"/>
</g>
<!-- Node6&#45;&gt;Node3 -->
<g id="edge6" class="edge">
<title>Node6&#45;&gt;Node3</title>
<path fill="none" stroke="#191970" d="M282.665,-39.2815C265.8437,-42.9972 247.128,-47.1314 229.7973,-50.9597"/>
<polygon fill="#191970" stroke="#191970" points="283.8549,-42.6031 292.8646,-37.0284 282.345,-35.7678 283.8549,-42.6031"/>
</g>
<!-- Node7 -->
<g id="node7" class="node">
<title>Node7</title>
<g id="a_node7"><a xlink:href="namespacemom__ice__shelf.html#a5990f9918493ff4984245eac74e5f4d9" target="_top" xlink:title="Initializes shelf model data, parameters and diagnostics.">
<polygon fill="#ffffff" stroke="#000000" points="104,-.5 104,-30.5 233,-30.5 233,-.5 104,-.5"/>
<text text-anchor="start" x="112" y="-18.5" font-family="Helvetica,sans-Serif" font-size="10.00" fill="#000000">mom_ice_shelf::initialize</text>
<text text-anchor="middle" x="168.5" y="-7.5" font-family="Helvetica,sans-Serif" font-size="10.00" fill="#000000">_ice_shelf</text>
</a>
</g>
</g>
<!-- Node6&#45;&gt;Node7 -->
<g id="edge7" class="edge">
<title>Node6&#45;&gt;Node7</title>
<path fill="none" stroke="#191970" d="M258.8442,-21.9724C250.2776,-21.3587 241.6183,-20.7383 233.228,-20.1372"/>
<polygon fill="#191970" stroke="#191970" points="258.6119,-25.4647 268.8365,-22.6883 259.1122,-18.4826 258.6119,-25.4647"/>
</g>
<!-- Node7&#45;&gt;Node5 -->
<g id="edge8" class="edge">
<title>Node7&#45;&gt;Node5</title>
<path fill="none" stroke="#191970" d="M114.6288,-33.9244C96.624,-40.0821 77.2859,-46.6959 62.0626,-51.9024"/>
<polygon fill="#191970" stroke="#191970" points="116.1304,-37.1099 124.4597,-30.5621 113.8651,-30.4866 116.1304,-37.1099"/>
</g>
</g>
</svg>
