<?xml version="1.0" encoding="UTF-8" standalone="no"?>
<!DOCTYPE svg PUBLIC "-//W3C//DTD SVG 1.1//EN"
 "http://www.w3.org/Graphics/SVG/1.1/DTD/svg11.dtd">
<!-- Generated by graphviz version 2.40.1 (20161225.0304)
 -->
<!-- Title: mom_document::doc_param_real Pages: 1 -->
<svg width="975pt" height="280pt"
 viewBox="0.00 0.00 975.00 279.50" xmlns="http://www.w3.org/2000/svg" xmlns:xlink="http://www.w3.org/1999/xlink">
<g id="graph0" class="graph" transform="scale(1 1) rotate(0) translate(4 275.5)">
<title>mom_document::doc_param_real</title>
<polygon fill="#ffffff" stroke="transparent" points="-4,4 -4,-275.5 971,-275.5 971,4 -4,4"/>
<!-- Node1 -->
<g id="node1" class="node">
<title>Node1</title>
<g id="a_node1"><a xlink:title="This subroutine handles parameter documentation for reals.">
<polygon fill="#bfbfbf" stroke="#000000" points="0,-142.5 0,-161.5 173,-161.5 173,-142.5 0,-142.5"/>
<text text-anchor="middle" x="86.5" y="-149.5" font-family="Helvetica,sans-Serif" font-size="10.00" fill="#000000">mom_document::doc_param_real</text>
</a>
</g>
</g>
<!-- Node2 -->
<g id="node2" class="node">
<title>Node2</title>
<g id="a_node2"><a xlink:href="namespacemom__document.html#aadc9c21a3f71a85107454b8080d6ec5c" target="_top" xlink:title="This function returns a string for formatted parameter assignment.">
<polygon fill="#ffffff" stroke="#000000" points="247,-241 247,-271 372,-271 372,-241 247,-241"/>
<text text-anchor="start" x="255" y="-259" font-family="Helvetica,sans-Serif" font-size="10.00" fill="#000000">mom_document::define</text>
<text text-anchor="middle" x="309.5" y="-248" font-family="Helvetica,sans-Serif" font-size="10.00" fill="#000000">_string</text>
</a>
</g>
</g>
<!-- Node1&#45;&gt;Node2 -->
<g id="edge1" class="edge">
<title>Node1&#45;&gt;Node2</title>
<path fill="none" stroke="#191970" d="M99.8421,-161.6252C121.712,-177.0339 166.9681,-207.3933 209,-226 218.9433,-230.4017 229.7165,-234.3823 240.3913,-237.8988"/>
<polygon fill="#191970" stroke="#191970" points="239.5501,-241.3039 250.1405,-240.9964 241.6699,-234.6325 239.5501,-241.3039"/>
</g>
<!-- Node3 -->
<g id="node3" class="node">
<title>Node3</title>
<g id="a_node3"><a xlink:href="namespacemom__error__handler.html#ad5f00a53059c72fe2332d1436c80ca71" target="_top" xlink:title="This returns .true. if the current PE is the root PE.">
<polygon fill="#ffffff" stroke="#000000" points="852,-121 852,-151 967,-151 967,-121 852,-121"/>
<text text-anchor="start" x="860" y="-139" font-family="Helvetica,sans-Serif" font-size="10.00" fill="#000000">mom_error_handler::</text>
<text text-anchor="middle" x="909.5" y="-128" font-family="Helvetica,sans-Serif" font-size="10.00" fill="#000000">is_root_pe</text>
</a>
</g>
</g>
<!-- Node1&#45;&gt;Node3 -->
<g id="edge2" class="edge">
<title>Node1&#45;&gt;Node3</title>
<path fill="none" stroke="#191970" d="M128.5271,-161.5495C152.0736,-166.5677 182.0406,-172.4058 209,-176 410.0288,-202.801 463.2971,-214.1378 665,-193 729.6849,-186.2212 802.0329,-167.9787 851.1331,-153.9397"/>
<polygon fill="#191970" stroke="#191970" points="852.3063,-157.2439 860.9401,-151.1031 850.3613,-150.5196 852.3063,-157.2439"/>
</g>
<!-- Node4 -->
<g id="node4" class="node">
<title>Node4</title>
<g id="a_node4"><a xlink:href="namespacemom__document.html#aa23ed2e58e74e88a71de374685ee11ec" target="_top" xlink:title="Returns true if documentation has already been written.">
<polygon fill="#ffffff" stroke="#000000" points="446,-164.5 446,-183.5 665,-183.5 665,-164.5 446,-164.5"/>
<text text-anchor="middle" x="555.5" y="-171.5" font-family="Helvetica,sans-Serif" font-size="10.00" fill="#000000">mom_document::mesghasbeendocumented</text>
</a>
</g>
</g>
<!-- Node1&#45;&gt;Node4 -->
<g id="edge3" class="edge">
<title>Node1&#45;&gt;Node4</title>
<path fill="none" stroke="#191970" d="M173.0684,-156.0608C246.8786,-159.5231 353.7374,-164.5357 435.7474,-168.3826"/>
<polygon fill="#191970" stroke="#191970" points="435.7221,-171.8852 445.8751,-168.8577 436.0502,-164.8929 435.7221,-171.8852"/>
</g>
<!-- Node6 -->
<g id="node6" class="node">
<title>Node6</title>
<g id="a_node6"><a xlink:href="namespacemom__document.html#aab976b6c6c9c01833438d217fca228a4" target="_top" xlink:title="This subroutine allocates and populates a structure that controls where the documentation occurs and ...">
<polygon fill="#ffffff" stroke="#000000" points="250,-115 250,-145 369,-145 369,-115 250,-115"/>
<text text-anchor="start" x="258" y="-133" font-family="Helvetica,sans-Serif" font-size="10.00" fill="#000000">mom_document::open</text>
<text text-anchor="middle" x="309.5" y="-122" font-family="Helvetica,sans-Serif" font-size="10.00" fill="#000000">_doc_file</text>
</a>
</g>
</g>
<!-- Node1&#45;&gt;Node6 -->
<g id="edge6" class="edge">
<title>Node1&#45;&gt;Node6</title>
<path fill="none" stroke="#191970" d="M173.0368,-143.4627C195.1314,-141.283 218.6046,-138.9673 239.7395,-136.8822"/>
<polygon fill="#191970" stroke="#191970" points="240.3026,-140.3437 249.9106,-135.8788 239.6153,-133.3775 240.3026,-140.3437"/>
</g>
<!-- Node8 -->
<g id="node8" class="node">
<title>Node8</title>
<g id="a_node8"><a xlink:href="namespacemom__document.html#a966b8926bf40ee436654a0048b2bf42a" target="_top" xlink:title="This function returns a string with a real formatted like &#39;(G)&#39;.">
<polygon fill="#ffffff" stroke="#000000" points="253,-66 253,-96 366,-96 366,-66 253,-66"/>
<text text-anchor="start" x="261" y="-84" font-family="Helvetica,sans-Serif" font-size="10.00" fill="#000000">mom_document::real</text>
<text text-anchor="middle" x="309.5" y="-73" font-family="Helvetica,sans-Serif" font-size="10.00" fill="#000000">_string</text>
</a>
</g>
</g>
<!-- Node1&#45;&gt;Node8 -->
<g id="edge11" class="edge">
<title>Node1&#45;&gt;Node8</title>
<path fill="none" stroke="#191970" d="M109.7055,-142.3691C134.1373,-132.4467 173.8581,-116.9289 209,-106 219.8886,-102.6137 231.5504,-99.3709 242.9339,-96.4082"/>
<polygon fill="#191970" stroke="#191970" points="244.0156,-99.7444 252.8396,-93.8803 242.2847,-92.9618 244.0156,-99.7444"/>
</g>
<!-- Node10 -->
<g id="node10" class="node">
<title>Node10</title>
<g id="a_node10"><a xlink:href="namespacemom__document.html#a249e7992a57539508d07c71c6fcabaeb" target="_top" xlink:title="This subroutine writes out the message and description to the documetation files.">
<polygon fill="#ffffff" stroke="#000000" points="209,-27.5 209,-46.5 410,-46.5 410,-27.5 209,-27.5"/>
<text text-anchor="middle" x="309.5" y="-34.5" font-family="Helvetica,sans-Serif" font-size="10.00" fill="#000000">mom_document::writemessageanddesc</text>
</a>
</g>
</g>
<!-- Node1&#45;&gt;Node10 -->
<g id="edge13" class="edge">
<title>Node1&#45;&gt;Node10</title>
<path fill="none" stroke="#191970" d="M95.5849,-142.2563C114.5846,-122.5267 160.7692,-77.8737 209,-56 214.6247,-53.4491 220.5761,-51.2406 226.6617,-49.3286"/>
<polygon fill="#191970" stroke="#191970" points="227.6604,-52.6834 236.3075,-46.5614 225.73,-45.9548 227.6604,-52.6834"/>
</g>
<!-- Node5 -->
<g id="node5" class="node">
<title>Node5</title>
<g id="a_node5"><a xlink:href="namespacemom__error__handler.html#a460cfb79a06c29fc249952c2a3710d67" target="_top" xlink:title="This provides a convenient interface for writing an mpp_error message with run&#45;time filter based on a...">
<polygon fill="#ffffff" stroke="#000000" points="701,-121 701,-151 816,-151 816,-121 701,-121"/>
<text text-anchor="start" x="709" y="-139" font-family="Helvetica,sans-Serif" font-size="10.00" fill="#000000">mom_error_handler::</text>
<text text-anchor="middle" x="758.5" y="-128" font-family="Helvetica,sans-Serif" font-size="10.00" fill="#000000">mom_error</text>
</a>
</g>
</g>
<!-- Node4&#45;&gt;Node5 -->
<g id="edge4" class="edge">
<title>Node4&#45;&gt;Node5</title>
<path fill="none" stroke="#191970" d="M606.4634,-164.46C631.986,-159.6824 663.2321,-153.8334 690.7454,-148.6831"/>
<polygon fill="#191970" stroke="#191970" points="691.5102,-152.1008 700.6954,-146.8206 690.2222,-145.2204 691.5102,-152.1008"/>
</g>
<!-- Node5&#45;&gt;Node3 -->
<g id="edge5" class="edge">
<title>Node5&#45;&gt;Node3</title>
<path fill="none" stroke="#191970" d="M816.0174,-136C824.4639,-136 833.2292,-136 841.8561,-136"/>
<polygon fill="#191970" stroke="#191970" points="841.8926,-139.5001 851.8925,-136 841.8925,-132.5001 841.8926,-139.5001"/>
</g>
<!-- Node6&#45;&gt;Node3 -->
<g id="edge9" class="edge">
<title>Node6&#45;&gt;Node3</title>
<path fill="none" stroke="#191970" d="M369.0737,-121.0758C383.1024,-117.4074 397.5759,-112.248 410,-105 430.0949,-93.2769 424.6287,-76.1925 446,-67 593.043,-3.7521 787.8465,-78.4816 870.1401,-116.4598"/>
<polygon fill="#191970" stroke="#191970" points="869.0672,-119.8223 879.6074,-120.8974 872.0382,-113.484 869.0672,-119.8223"/>
</g>
<!-- Node6&#45;&gt;Node5 -->
<g id="edge10" class="edge">
<title>Node6&#45;&gt;Node5</title>
<path fill="none" stroke="#191970" d="M369.1237,-130.7968C452.4188,-131.9098 603.2011,-133.9247 690.68,-135.0937"/>
<polygon fill="#191970" stroke="#191970" points="690.7191,-138.5945 700.765,-135.2285 690.8127,-131.5951 690.7191,-138.5945"/>
</g>
<!-- Node7 -->
<g id="node7" class="node">
<title>Node7</title>
<g id="a_node7"><a xlink:href="namespacemom__document.html#a5f2661445a72a7d0f774677e91366db5" target="_top" xlink:title="Find an unused unit number, returning &gt;0 if found, and triggering a FATAL error if not.">
<polygon fill="#ffffff" stroke="#000000" points="496,-77 496,-107 615,-107 615,-77 496,-77"/>
<text text-anchor="start" x="504" y="-95" font-family="Helvetica,sans-Serif" font-size="10.00" fill="#000000">mom_document::find</text>
<text text-anchor="middle" x="555.5" y="-84" font-family="Helvetica,sans-Serif" font-size="10.00" fill="#000000">_unused_unit_number</text>
</a>
</g>
</g>
<!-- Node6&#45;&gt;Node7 -->
<g id="edge7" class="edge">
<title>Node6&#45;&gt;Node7</title>
<path fill="none" stroke="#191970" d="M369.0497,-120.8013C404.1433,-115.3803 448.7263,-108.4935 485.4965,-102.8136"/>
<polygon fill="#191970" stroke="#191970" points="486.2976,-106.2314 495.646,-101.2457 485.2289,-99.3135 486.2976,-106.2314"/>
</g>
<!-- Node7&#45;&gt;Node5 -->
<g id="edge8" class="edge">
<title>Node7&#45;&gt;Node5</title>
<path fill="none" stroke="#191970" d="M615.0351,-104.9042C638.7875,-110.0525 666.2612,-116.0073 690.77,-121.3196"/>
<polygon fill="#191970" stroke="#191970" points="690.1995,-124.7772 700.714,-123.475 691.6824,-117.936 690.1995,-124.7772"/>
</g>
<!-- Node9 -->
<g id="node9" class="node">
<title>Node9</title>
<g id="a_node9"><a xlink:href="namespacemom__document.html#acbd7bf94c8e359a48ace95fe1f3d3bb4" target="_top" xlink:title="This function tests whether a real value is encoded in a string.">
<polygon fill="#ffffff" stroke="#000000" points="454,-.5 454,-19.5 657,-19.5 657,-.5 454,-.5"/>
<text text-anchor="middle" x="555.5" y="-7.5" font-family="Helvetica,sans-Serif" font-size="10.00" fill="#000000">mom_document::testformattedfloatisreal</text>
</a>
</g>
</g>
<!-- Node8&#45;&gt;Node9 -->
<g id="edge12" class="edge">
<title>Node8&#45;&gt;Node9</title>
<path fill="none" stroke="#191970" d="M366.0331,-70.1355C380.6428,-66.4673 396.1499,-61.7935 410,-56 427.2987,-48.764 428.6015,-40.9927 446,-34 458.2313,-29.084 471.6558,-25.0893 484.7859,-21.8725"/>
<polygon fill="#191970" stroke="#191970" points="485.7943,-25.2316 494.7444,-19.5618 484.2121,-18.4127 485.7943,-25.2316"/>
</g>
</g>
</svg>
