<?xml version="1.0" encoding="UTF-8" standalone="no"?>
<!DOCTYPE svg PUBLIC "-//W3C//DTD SVG 1.1//EN"
 "http://www.w3.org/Graphics/SVG/1.1/DTD/svg11.dtd">
<!-- Generated by graphviz version 2.40.1 (20161225.0304)
 -->
<!-- Title: mom_grid::mom_grid_init Pages: 1 -->
<!--zoomable 235 -->
<svg id="main" version="1.1" xmlns="http://www.w3.org/2000/svg" xmlns:xlink="http://www.w3.org/1999/xlink" xml:space="preserve" onload="init(evt)">
<style type="text/css"><![CDATA[
.edge:hover path { stroke: red; }
.edge:hover polygon { stroke: red; fill: red; }
]]></style>
<script type="text/javascript"><![CDATA[
var edges = document.getElementsByTagName('g');
if (edges && edges.length) {
  for (var i=0;i<edges.length;i++) {
    if (edges[i].id.substr(0,4)=='edge') {
      edges[i].setAttribute('class','edge');
    }
  }
}
]]></script>
        <defs>
                <circle id="rim" cx="0" cy="0" r="7"/>
                <circle id="rim2" cx="0" cy="0" r="3.5"/>
                <g id="zoomPlus">
                        <use xlink:href="#rim" fill="#404040">
                                <set attributeName="fill" to="#808080" begin="zoomplus.mouseover" end="zoomplus.mouseout"/>
                        </use>
                        <path d="M-4,0h8M0,-4v8" fill="none" stroke="white" stroke-width="1.5" pointer-events="none"/>
                </g>
                <g id="zoomMin">
                        <use xlink:href="#rim" fill="#404040">
                                <set attributeName="fill" to="#808080" begin="zoomminus.mouseover" end="zoomminus.mouseout"/>
                        </use>
                        <path d="M-4,0h8" fill="none" stroke="white" stroke-width="1.5" pointer-events="none"/>
                </g>
                <g id="dirArrow">
                        <path fill="none" stroke="white" stroke-width="1.5" d="M0,-3.0v7 M-2.5,-0.5L0,-3.0L2.5,-0.5"/>
                </g>
               <g id="resetDef">
                       <use xlink:href="#rim2" fill="#404040">
                               <set attributeName="fill" to="#808080" begin="reset.mouseover" end="reset.mouseout"/>
                       </use>
               </g>
        </defs>

<script type="text/javascript">
var viewWidth = 504;
var viewHeight = 235;
var sectionId = 'dynsection-4';
</script>
<script xlink:href="svgpan.js"/>
<svg id="graph" class="graph">
<g id="viewport">
<title>mom_grid::mom_grid_init</title>
<polygon fill="#ffffff" stroke="transparent" points="-4,4 -4,-231 500,-231 500,4 -4,4"/>
<!-- Node1 -->
<g id="node1" class="node">
<title>Node1</title>
<g id="a_node1"><a xlink:title="MOM_grid_init initializes the ocean grid array sizes and grid memory.">
<polygon fill="#bfbfbf" stroke="#000000" points="0,-104 0,-123 134,-123 134,-104 0,-104"/>
<text text-anchor="middle" x="67" y="-111" font-family="Helvetica,sans-Serif" font-size="10.00" fill="#000000">mom_grid::mom_grid_init</text>
</a>
</g>
</g>
<!-- Node2 -->
<g id="node2" class="node">
<title>Node2</title>
<g id="a_node2"><a xlink:href="namespacemom__grid.html#a4a0b721d65abedfe5208a1e0904cd327" target="_top" xlink:title="Allocate memory used by the ocean_grid_type and related structures.">
<polygon fill="#ffffff" stroke="#000000" points="190.5,-196.5 190.5,-226.5 294.5,-226.5 294.5,-196.5 190.5,-196.5"/>
<text text-anchor="start" x="198.5" y="-214.5" font-family="Helvetica,sans-Serif" font-size="10.00" fill="#000000">mom_grid::allocate</text>
<text text-anchor="middle" x="242.5" y="-203.5" font-family="Helvetica,sans-Serif" font-size="10.00" fill="#000000">_metrics</text>
</a>
</g>
</g>
<!-- Node1&#45;&gt;Node2 -->
<g id="edge1" class="edge">
<title>Node1&#45;&gt;Node2</title>
<path fill="none" stroke="#191970" d="M77.9987,-123.1506C96.079,-138.595 133.7074,-169.0034 170,-187.5 173.5531,-189.3108 177.2721,-191.0275 181.0689,-192.647"/>
<polygon fill="#191970" stroke="#191970" points="180.0327,-196.0022 190.6171,-196.4712 182.6353,-189.504 180.0327,-196.0022"/>
</g>
<!-- Node3 -->
<g id="node3" class="node">
<title>Node3</title>
<g id="a_node3"><a xlink:href="namespacemom__domains.html#a15fdef1c434c81da4d1f5ab3d9234290" target="_top" xlink:title=" ">
<polygon fill="#ffffff" stroke="#000000" points="170,-147.5 170,-177.5 315,-177.5 315,-147.5 170,-147.5"/>
<text text-anchor="start" x="178" y="-165.5" font-family="Helvetica,sans-Serif" font-size="10.00" fill="#000000">mom_domains::get_domain</text>
<text text-anchor="middle" x="242.5" y="-154.5" font-family="Helvetica,sans-Serif" font-size="10.00" fill="#000000">_extent_dsamp2</text>
</a>
</g>
</g>
<!-- Node1&#45;&gt;Node3 -->
<g id="edge2" class="edge">
<title>Node1&#45;&gt;Node3</title>
<path fill="none" stroke="#191970" d="M101.2548,-123.064C123.2796,-129.2134 152.5753,-137.3928 178.775,-144.7078"/>
<polygon fill="#191970" stroke="#191970" points="178.0702,-148.1449 188.6431,-147.463 179.9527,-141.4027 178.0702,-148.1449"/>
</g>
<!-- Node4 -->
<g id="node4" class="node">
<title>Node4</title>
<g id="a_node4"><a xlink:href="namespacemom__hor__index.html#a8e3912351dbf2be2659f3561de341f49" target="_top" xlink:title="Sets various index values in a hor_index_type.">
<polygon fill="#ffffff" stroke="#000000" points="186,-98.5 186,-128.5 299,-128.5 299,-98.5 186,-98.5"/>
<text text-anchor="start" x="194" y="-116.5" font-family="Helvetica,sans-Serif" font-size="10.00" fill="#000000">mom_hor_index::hor</text>
<text text-anchor="middle" x="242.5" y="-105.5" font-family="Helvetica,sans-Serif" font-size="10.00" fill="#000000">_index_init</text>
</a>
</g>
</g>
<!-- Node1&#45;&gt;Node4 -->
<g id="edge3" class="edge">
<title>Node1&#45;&gt;Node4</title>
<path fill="none" stroke="#191970" d="M134.1002,-113.5C147.6717,-113.5 161.9418,-113.5 175.5095,-113.5"/>
<polygon fill="#191970" stroke="#191970" points="175.7247,-117.0001 185.7247,-113.5 175.7247,-110.0001 175.7247,-117.0001"/>
</g>
<!-- Node6 -->
<g id="node6" class="node">
<title>Node6</title>
<g id="a_node6"><a xlink:href="namespacemom__error__handler.html#a460cfb79a06c29fc249952c2a3710d67" target="_top" xlink:title="This provides a convenient interface for writing an mpp_error message with run&#45;time filter based on a...">
<polygon fill="#ffffff" stroke="#000000" points="185,-49.5 185,-79.5 300,-79.5 300,-49.5 185,-49.5"/>
<text text-anchor="start" x="193" y="-67.5" font-family="Helvetica,sans-Serif" font-size="10.00" fill="#000000">mom_error_handler::</text>
<text text-anchor="middle" x="242.5" y="-56.5" font-family="Helvetica,sans-Serif" font-size="10.00" fill="#000000">mom_error</text>
</a>
</g>
</g>
<!-- Node1&#45;&gt;Node6 -->
<g id="edge5" class="edge">
<title>Node1&#45;&gt;Node6</title>
<path fill="none" stroke="#191970" d="M101.2548,-103.936C123.2796,-97.7866 152.5753,-89.6072 178.775,-82.2922"/>
<polygon fill="#191970" stroke="#191970" points="179.9527,-85.5973 188.6431,-79.537 178.0702,-78.8551 179.9527,-85.5973"/>
</g>
<!-- Node8 -->
<g id="node8" class="node">
<title>Node8</title>
<g id="a_node8"><a xlink:href="namespacemom__error__handler.html#a1c462df7b61f1296407b4af51dfeceab" target="_top" xlink:title="This provides a convenient interface for writing an informative comment.">
<polygon fill="#ffffff" stroke="#000000" points="185,-.5 185,-30.5 300,-30.5 300,-.5 185,-.5"/>
<text text-anchor="start" x="193" y="-18.5" font-family="Helvetica,sans-Serif" font-size="10.00" fill="#000000">mom_error_handler::</text>
<text text-anchor="middle" x="242.5" y="-7.5" font-family="Helvetica,sans-Serif" font-size="10.00" fill="#000000">mom_mesg</text>
</a>
</g>
</g>
<!-- Node1&#45;&gt;Node8 -->
<g id="edge7" class="edge">
<title>Node1&#45;&gt;Node8</title>
<path fill="none" stroke="#191970" d="M78.3458,-103.7958C96.6095,-88.5727 134.1235,-58.9191 170,-40.5 174.2195,-38.3337 178.6687,-36.2861 183.2019,-34.3663"/>
<polygon fill="#191970" stroke="#191970" points="184.5984,-37.5773 192.5781,-30.6077 181.9938,-31.0799 184.5984,-37.5773"/>
</g>
<!-- Node5 -->
<g id="node5" class="node">
<title>Node5</title>
<g id="a_node5"><a xlink:href="namespacemom__domains.html#a1f1063ac5a049926d4ad00b43752aee6" target="_top" xlink:title="Returns various data that has been stored in a MOM_domain_type.">
<polygon fill="#ffffff" stroke="#000000" points="351,-98.5 351,-128.5 496,-128.5 496,-98.5 351,-98.5"/>
<text text-anchor="start" x="359" y="-116.5" font-family="Helvetica,sans-Serif" font-size="10.00" fill="#000000">mom_domains::get_domain</text>
<text text-anchor="middle" x="423.5" y="-105.5" font-family="Helvetica,sans-Serif" font-size="10.00" fill="#000000">_extent</text>
</a>
</g>
</g>
<!-- Node4&#45;&gt;Node5 -->
<g id="edge4" class="edge">
<title>Node4&#45;&gt;Node5</title>
<path fill="none" stroke="#191970" d="M299.2729,-113.5C312.4542,-113.5 326.7493,-113.5 340.7924,-113.5"/>
<polygon fill="#191970" stroke="#191970" points="340.9538,-117.0001 350.9538,-113.5 340.9538,-110.0001 340.9538,-117.0001"/>
</g>
<!-- Node7 -->
<g id="node7" class="node">
<title>Node7</title>
<g id="a_node7"><a xlink:href="namespacemom__error__handler.html#ad5f00a53059c72fe2332d1436c80ca71" target="_top" xlink:title="This returns .true. if the current PE is the root PE.">
<polygon fill="#ffffff" stroke="#000000" points="366,-25.5 366,-55.5 481,-55.5 481,-25.5 366,-25.5"/>
<text text-anchor="start" x="374" y="-43.5" font-family="Helvetica,sans-Serif" font-size="10.00" fill="#000000">mom_error_handler::</text>
<text text-anchor="middle" x="423.5" y="-32.5" font-family="Helvetica,sans-Serif" font-size="10.00" fill="#000000">is_root_pe</text>
</a>
</g>
</g>
<!-- Node6&#45;&gt;Node7 -->
<g id="edge6" class="edge">
<title>Node6&#45;&gt;Node7</title>
<path fill="none" stroke="#191970" d="M300.2672,-56.8403C317.9877,-54.4906 337.6434,-51.8843 355.9562,-49.4561"/>
<polygon fill="#191970" stroke="#191970" points="356.5179,-52.9123 365.9711,-48.1281 355.5978,-45.9731 356.5179,-52.9123"/>
</g>
<!-- Node8&#45;&gt;Node7 -->
<g id="edge8" class="edge">
<title>Node8&#45;&gt;Node7</title>
<path fill="none" stroke="#191970" d="M300.2672,-23.4789C317.9877,-25.9265 337.6434,-28.6413 355.9562,-31.1708"/>
<polygon fill="#191970" stroke="#191970" points="355.5862,-34.6528 365.9711,-32.554 356.544,-27.7186 355.5862,-34.6528"/>
</g>
</g>
</svg>
        <g id="navigator" transform="translate(0 0)" fill="#404254">
                <rect fill="#f2f5e9" fill-opacity="0.5" stroke="#606060" stroke-width=".5" x="0" y="0" width="60" height="60"/>
                <use id="zoomplus" xlink:href="#zoomPlus" x="17" y="9" onmousedown="handleZoom(evt,'in')"/>
                <use id="zoomminus" xlink:href="#zoomMin" x="42" y="9" onmousedown="handleZoom(evt,'out')"/>
                <use id="reset" xlink:href="#resetDef" x="30" y="36" onmousedown="handleReset()"/>
                <g id="arrowUp" xlink:href="#dirArrow" transform="translate(30 24)" onmousedown="handlePan(0,-1)">
                  <use xlink:href="#rim" fill="#404040">
                        <set attributeName="fill" to="#808080" begin="arrowUp.mouseover" end="arrowUp.mouseout"/>
                  </use>
                  <path fill="none" stroke="white" stroke-width="1.5" d="M0,-3.0v7 M-2.5,-0.5L0,-3.0L2.5,-0.5"/>
                </g>
                <g id="arrowRight" xlink:href="#dirArrow" transform="rotate(90) translate(36 -43)" onmousedown="handlePan(1,0)">
                  <use xlink:href="#rim" fill="#404040">
                        <set attributeName="fill" to="#808080" begin="arrowRight.mouseover" end="arrowRight.mouseout"/>
                  </use>
                  <path fill="none" stroke="white" stroke-width="1.5" d="M0,-3.0v7 M-2.5,-0.5L0,-3.0L2.5,-0.5"/>
                </g>
                <g id="arrowDown" xlink:href="#dirArrow" transform="rotate(180) translate(-30 -48)" onmousedown="handlePan(0,1)">
                  <use xlink:href="#rim" fill="#404040">
                        <set attributeName="fill" to="#808080" begin="arrowDown.mouseover" end="arrowDown.mouseout"/>
                  </use>
                  <path fill="none" stroke="white" stroke-width="1.5" d="M0,-3.0v7 M-2.5,-0.5L0,-3.0L2.5,-0.5"/>
                </g>
                <g id="arrowLeft" xlink:href="#dirArrow" transform="rotate(270) translate(-36 17)" onmousedown="handlePan(-1,0)">
                  <use xlink:href="#rim" fill="#404040">
                        <set attributeName="fill" to="#808080" begin="arrowLeft.mouseover" end="arrowLeft.mouseout"/>
                  </use>
                  <path fill="none" stroke="white" stroke-width="1.5" d="M0,-3.0v7 M-2.5,-0.5L0,-3.0L2.5,-0.5"/>
                </g>
        </g>
        <svg viewBox="0 0 15 15" width="100%" height="30px" preserveAspectRatio="xMaxYMin meet">
         <g id="arrow_out" transform="scale(0.3 0.3)">
          <a xlink:href="namespacemom__grid_a06d585b4319f18d7d7fac2afceb08205_cgraph_org.svg" target="_base">
           <rect id="button" ry="5" rx="5" y="6" x="6" height="38" width="38"
                fill="#f2f5e9" fill-opacity="0.5" stroke="#606060" stroke-width="1.0"/>
           <path id="arrow"
             d="M 11.500037,31.436501 C 11.940474,20.09759 22.043105,11.32322 32.158766,21.979434 L 37.068811,17.246167 C 37.068811,17.246167 37.088388,32 37.088388,32 L 22.160133,31.978069 C 22.160133,31.978069 26.997745,27.140456 26.997745,27.140456 C 18.528582,18.264221 13.291696,25.230495 11.500037,31.436501 z"
             style="fill:#404040;"/>
          </a>
         </g>
        </svg>
</svg>
