<?xml version="1.0" encoding="UTF-8" standalone="no"?>
<!DOCTYPE svg PUBLIC "-//W3C//DTD SVG 1.1//EN"
 "http://www.w3.org/Graphics/SVG/1.1/DTD/svg11.dtd">
<!-- Generated by graphviz version 2.40.1 (20161225.0304)
 -->
<!-- Title: mom_wave_structure::tridiag_solver Pages: 1 -->
<svg width="402pt" height="39pt"
 viewBox="0.00 0.00 402.00 39.00" xmlns="http://www.w3.org/2000/svg" xmlns:xlink="http://www.w3.org/1999/xlink">
<g id="graph0" class="graph" transform="scale(1 1) rotate(0) translate(4 35)">
<title>mom_wave_structure::tridiag_solver</title>
<polygon fill="#ffffff" stroke="transparent" points="-4,4 -4,-35 398,-35 398,4 -4,4"/>
<!-- Node1 -->
<g id="node1" class="node">
<title>Node1</title>
<g id="a_node1"><a xlink:title="Solves a tri&#45;diagonal system Ax=y using either the standard Thomas algorithm (TDMA_T) or its more sta...">
<polygon fill="#bfbfbf" stroke="#000000" points="284,-.5 284,-30.5 394,-30.5 394,-.5 284,-.5"/>
<text text-anchor="start" x="292" y="-18.5" font-family="Helvetica,sans-Serif" font-size="10.00" fill="#000000">mom_wave_structure</text>
<text text-anchor="middle" x="339" y="-7.5" font-family="Helvetica,sans-Serif" font-size="10.00" fill="#000000">::tridiag_solver</text>
</a>
</g>
</g>
<!-- Node2 -->
<g id="node2" class="node">
<title>Node2</title>
<g id="a_node2"><a xlink:href="namespacemom__wave__structure.html#a4e0b6a0e08df15fde4d87030567b6e11" target="_top" xlink:title="This subroutine determines the internal wave velocity structure for any mode.">
<polygon fill="#ffffff" stroke="#000000" points="138,-.5 138,-30.5 248,-30.5 248,-.5 138,-.5"/>
<text text-anchor="start" x="146" y="-18.5" font-family="Helvetica,sans-Serif" font-size="10.00" fill="#000000">mom_wave_structure</text>
<text text-anchor="middle" x="193" y="-7.5" font-family="Helvetica,sans-Serif" font-size="10.00" fill="#000000">::wave_structure</text>
</a>
</g>
</g>
<!-- Node1&#45;&gt;Node2 -->
<g id="edge1" class="edge">
<title>Node1&#45;&gt;Node2</title>
<path fill="none" stroke="#191970" d="M273.5899,-15.5C265.1353,-15.5 256.5433,-15.5 248.2744,-15.5"/>
<polygon fill="#191970" stroke="#191970" points="273.8037,-19.0001 283.8037,-15.5 273.8036,-12.0001 273.8037,-19.0001"/>
</g>
<!-- Node3 -->
<g id="node3" class="node">
<title>Node3</title>
<g id="a_node3"><a xlink:href="namespacemom__internal__tides.html#aeeeea20ff7fe971846b7539d377f4389" target="_top" xlink:title="Calls subroutines in this file that are needed to refract, propagate, and dissipate energy density of...">
<polygon fill="#ffffff" stroke="#000000" points="0,-.5 0,-30.5 102,-30.5 102,-.5 0,-.5"/>
<text text-anchor="start" x="8" y="-18.5" font-family="Helvetica,sans-Serif" font-size="10.00" fill="#000000">mom_internal_tides</text>
<text text-anchor="middle" x="51" y="-7.5" font-family="Helvetica,sans-Serif" font-size="10.00" fill="#000000">::propagate_int_tide</text>
</a>
</g>
</g>
<!-- Node2&#45;&gt;Node3 -->
<g id="edge2" class="edge">
<title>Node2&#45;&gt;Node3</title>
<path fill="none" stroke="#191970" d="M127.446,-15.5C118.9766,-15.5 110.4033,-15.5 102.212,-15.5"/>
<polygon fill="#191970" stroke="#191970" points="127.6925,-19.0001 137.6925,-15.5 127.6925,-12.0001 127.6925,-19.0001"/>
</g>
</g>
</svg>
