<?xml version="1.0" encoding="UTF-8" standalone="no"?>
<!DOCTYPE svg PUBLIC "-//W3C//DTD SVG 1.1//EN"
 "http://www.w3.org/Graphics/SVG/1.1/DTD/svg11.dtd">
<!-- Generated by graphviz version 2.40.1 (20161225.0304)
 -->
<!-- Title: mom_ocean_model_mct::ocean_model_end Pages: 1 -->
<!--zoomable 274 -->
<svg id="main" version="1.1" xmlns="http://www.w3.org/2000/svg" xmlns:xlink="http://www.w3.org/1999/xlink" xml:space="preserve" onload="init(evt)">
<style type="text/css"><![CDATA[
.edge:hover path { stroke: red; }
.edge:hover polygon { stroke: red; fill: red; }
]]></style>
<script type="text/javascript"><![CDATA[
var edges = document.getElementsByTagName('g');
if (edges && edges.length) {
  for (var i=0;i<edges.length;i++) {
    if (edges[i].id.substr(0,4)=='edge') {
      edges[i].setAttribute('class','edge');
    }
  }
}
]]></script>
        <defs>
                <circle id="rim" cx="0" cy="0" r="7"/>
                <circle id="rim2" cx="0" cy="0" r="3.5"/>
                <g id="zoomPlus">
                        <use xlink:href="#rim" fill="#404040">
                                <set attributeName="fill" to="#808080" begin="zoomplus.mouseover" end="zoomplus.mouseout"/>
                        </use>
                        <path d="M-4,0h8M0,-4v8" fill="none" stroke="white" stroke-width="1.5" pointer-events="none"/>
                </g>
                <g id="zoomMin">
                        <use xlink:href="#rim" fill="#404040">
                                <set attributeName="fill" to="#808080" begin="zoomminus.mouseover" end="zoomminus.mouseout"/>
                        </use>
                        <path d="M-4,0h8" fill="none" stroke="white" stroke-width="1.5" pointer-events="none"/>
                </g>
                <g id="dirArrow">
                        <path fill="none" stroke="white" stroke-width="1.5" d="M0,-3.0v7 M-2.5,-0.5L0,-3.0L2.5,-0.5"/>
                </g>
               <g id="resetDef">
                       <use xlink:href="#rim2" fill="#404040">
                               <set attributeName="fill" to="#808080" begin="reset.mouseover" end="reset.mouseout"/>
                       </use>
               </g>
        </defs>

<script type="text/javascript">
var viewWidth = 1164;
var viewHeight = 274;
var sectionId = 'dynsection-2';
</script>
<script xlink:href="svgpan.js"/>
<svg id="graph" class="graph">
<g id="viewport">
<title>mom_ocean_model_mct::ocean_model_end</title>
<polygon fill="#ffffff" stroke="transparent" points="-4,4 -4,-270 1160,-270 1160,4 -4,4"/>
<!-- Node1 -->
<g id="node1" class="node">
<title>Node1</title>
<g id="a_node1"><a xlink:title="ocean_model_end terminates the model run, saving the ocean state in a restart and deallocating any da...">
<polygon fill="#bfbfbf" stroke="#000000" points="0,-148.5 0,-178.5 131,-178.5 131,-148.5 0,-148.5"/>
<text text-anchor="start" x="8" y="-166.5" font-family="Helvetica,sans-Serif" font-size="10.00" fill="#000000">mom_ocean_model_mct</text>
<text text-anchor="middle" x="65.5" y="-155.5" font-family="Helvetica,sans-Serif" font-size="10.00" fill="#000000">::ocean_model_end</text>
</a>
</g>
</g>
<!-- Node2 -->
<g id="node2" class="node">
<title>Node2</title>
<g id="a_node2"><a xlink:href="namespacemom__diag__mediator.html#a780f8870b442c730208d66d1ff0b4ac0" target="_top" xlink:title=" ">
<polygon fill="#ffffff" stroke="#000000" points="183.5,-221.5 183.5,-251.5 300.5,-251.5 300.5,-221.5 183.5,-221.5"/>
<text text-anchor="start" x="191.5" y="-239.5" font-family="Helvetica,sans-Serif" font-size="10.00" fill="#000000">mom_diag_mediator::</text>
<text text-anchor="middle" x="242" y="-228.5" font-family="Helvetica,sans-Serif" font-size="10.00" fill="#000000">diag_mediator_end</text>
</a>
</g>
</g>
<!-- Node1&#45;&gt;Node2 -->
<g id="edge1" class="edge">
<title>Node1&#45;&gt;Node2</title>
<path fill="none" stroke="#191970" d="M102.0709,-178.6256C129.2862,-189.8818 166.6257,-205.3254 195.8881,-217.4282"/>
<polygon fill="#191970" stroke="#191970" points="194.8974,-220.806 205.4759,-221.3937 197.5728,-214.3374 194.8974,-220.806"/>
</g>
<!-- Node4 -->
<g id="node4" class="node">
<title>Node4</title>
<g id="a_node4"><a xlink:href="namespacemom__ice__shelf.html#a6d0412c7264e0480d5144d26995dd8d3" target="_top" xlink:title="Deallocates all memory associated with this module.">
<polygon fill="#ffffff" stroke="#000000" points="189.5,-148.5 189.5,-178.5 294.5,-178.5 294.5,-148.5 189.5,-148.5"/>
<text text-anchor="start" x="197.5" y="-166.5" font-family="Helvetica,sans-Serif" font-size="10.00" fill="#000000">mom_ice_shelf::ice</text>
<text text-anchor="middle" x="242" y="-155.5" font-family="Helvetica,sans-Serif" font-size="10.00" fill="#000000">_shelf_end</text>
</a>
</g>
</g>
<!-- Node1&#45;&gt;Node4 -->
<g id="edge3" class="edge">
<title>Node1&#45;&gt;Node4</title>
<path fill="none" stroke="#191970" d="M131.2221,-163.5C146.9804,-163.5 163.7657,-163.5 179.3791,-163.5"/>
<polygon fill="#191970" stroke="#191970" points="179.4475,-167.0001 189.4475,-163.5 179.4474,-160.0001 179.4475,-167.0001"/>
</g>
<!-- Node7 -->
<g id="node7" class="node">
<title>Node7</title>
<g id="a_node7"><a xlink:href="namespacemom__ocean__model__mct.html#acf771d5306cc54b49fd8221a38415e07" target="_top" xlink:title="ocean_model_save_restart causes restart files associated with the ocean to be written out.">
<polygon fill="#ffffff" stroke="#000000" points="167,-77.5 167,-107.5 317,-107.5 317,-77.5 167,-77.5"/>
<text text-anchor="start" x="175" y="-95.5" font-family="Helvetica,sans-Serif" font-size="10.00" fill="#000000">mom_ocean_model_mct</text>
<text text-anchor="middle" x="242" y="-84.5" font-family="Helvetica,sans-Serif" font-size="10.00" fill="#000000">::ocean_model_save_restart</text>
</a>
</g>
</g>
<!-- Node1&#45;&gt;Node7 -->
<g id="edge6" class="edge">
<title>Node1&#45;&gt;Node7</title>
<path fill="none" stroke="#191970" d="M102.9311,-148.4427C129.8417,-137.6175 166.3159,-122.9452 195.1588,-111.3427"/>
<polygon fill="#191970" stroke="#191970" points="196.6516,-114.5148 204.6228,-107.5356 194.0391,-108.0205 196.6516,-114.5148"/>
</g>
<!-- Node3 -->
<g id="node3" class="node">
<title>Node3</title>
<g id="a_node3"><a xlink:href="namespacemom__diag__mediator.html#a4f82f684f05d581ea5b62a9c62a54af3" target="_top" xlink:title="Deallocates the fields in the remapping fields container.">
<polygon fill="#ffffff" stroke="#000000" points="360,-235.5 360,-265.5 487,-265.5 487,-235.5 360,-235.5"/>
<text text-anchor="start" x="368" y="-253.5" font-family="Helvetica,sans-Serif" font-size="10.00" fill="#000000">mom_diag_mediator::</text>
<text text-anchor="middle" x="423.5" y="-242.5" font-family="Helvetica,sans-Serif" font-size="10.00" fill="#000000">diag_grid_storage_end</text>
</a>
</g>
</g>
<!-- Node2&#45;&gt;Node3 -->
<g id="edge2" class="edge">
<title>Node2&#45;&gt;Node3</title>
<path fill="none" stroke="#191970" d="M300.6772,-241.0261C316.2871,-242.2301 333.35,-243.5463 349.6578,-244.8042"/>
<polygon fill="#191970" stroke="#191970" points="349.4548,-248.2988 359.6943,-245.5784 349.9932,-241.3196 349.4548,-248.2988"/>
</g>
<!-- Node5 -->
<g id="node5" class="node">
<title>Node5</title>
<g id="a_node5"><a xlink:href="namespacemom__ice__shelf__dynamics.html#a78c690be8b27b627bc228f1aba28164d" target="_top" xlink:title="Deallocates all memory associated with the ice shelf dynamics module.">
<polygon fill="#ffffff" stroke="#000000" points="355,-186.5 355,-216.5 492,-216.5 492,-186.5 355,-186.5"/>
<text text-anchor="start" x="363" y="-204.5" font-family="Helvetica,sans-Serif" font-size="10.00" fill="#000000">mom_ice_shelf_dynamics</text>
<text text-anchor="middle" x="423.5" y="-193.5" font-family="Helvetica,sans-Serif" font-size="10.00" fill="#000000">::ice_shelf_dyn_end</text>
</a>
</g>
</g>
<!-- Node4&#45;&gt;Node5 -->
<g id="edge4" class="edge">
<title>Node4&#45;&gt;Node5</title>
<path fill="none" stroke="#191970" d="M294.9852,-174.5933C310.6418,-177.8713 328.1236,-181.5314 345.0266,-185.0703"/>
<polygon fill="#191970" stroke="#191970" points="344.3887,-188.5126 354.8937,-187.1362 345.8232,-181.6611 344.3887,-188.5126"/>
</g>
<!-- Node6 -->
<g id="node6" class="node">
<title>Node6</title>
<g id="a_node6"><a xlink:href="namespacemom__ice__shelf__state.html#a8b1a83b8efb864a70ef9028b28dc1fcb" target="_top" xlink:title="Deallocates all memory associated with this module.">
<polygon fill="#ffffff" stroke="#000000" points="365.5,-137.5 365.5,-167.5 481.5,-167.5 481.5,-137.5 365.5,-137.5"/>
<text text-anchor="start" x="373.5" y="-155.5" font-family="Helvetica,sans-Serif" font-size="10.00" fill="#000000">mom_ice_shelf_state</text>
<text text-anchor="middle" x="423.5" y="-144.5" font-family="Helvetica,sans-Serif" font-size="10.00" fill="#000000">::ice_shelf_state_end</text>
</a>
</g>
</g>
<!-- Node4&#45;&gt;Node6 -->
<g id="edge5" class="edge">
<title>Node4&#45;&gt;Node6</title>
<path fill="none" stroke="#191970" d="M294.9852,-160.2888C313.7857,-159.1494 335.2181,-157.8504 355.1197,-156.6443"/>
<polygon fill="#191970" stroke="#191970" points="355.5954,-160.1219 365.3653,-156.0233 355.1719,-153.1348 355.5954,-160.1219"/>
</g>
<!-- Node8 -->
<g id="node8" class="node">
<title>Node8</title>
<g id="a_node8"><a xlink:href="namespacemom__surface__forcing__mct.html#a9af7b8d6d5057b4b46597412b2a1e3fe" target="_top" xlink:title="Save any restart files associated with the surface forcing.">
<polygon fill="#ffffff" stroke="#000000" points="353,-88.5 353,-118.5 494,-118.5 494,-88.5 353,-88.5"/>
<text text-anchor="start" x="361" y="-106.5" font-family="Helvetica,sans-Serif" font-size="10.00" fill="#000000">mom_surface_forcing</text>
<text text-anchor="middle" x="423.5" y="-95.5" font-family="Helvetica,sans-Serif" font-size="10.00" fill="#000000">_mct::forcing_save_restart</text>
</a>
</g>
</g>
<!-- Node7&#45;&gt;Node8 -->
<g id="edge7" class="edge">
<title>Node7&#45;&gt;Node8</title>
<path fill="none" stroke="#191970" d="M317.1332,-97.0535C325.5224,-97.562 334.0953,-98.0815 342.5532,-98.5941"/>
<polygon fill="#191970" stroke="#191970" points="342.5995,-102.1033 352.7929,-99.2147 343.023,-95.1161 342.5995,-102.1033"/>
</g>
<!-- Node9 -->
<g id="node9" class="node">
<title>Node9</title>
<g id="a_node9"><a xlink:href="namespacemom__restart.html#ab88b83af8a7dc731b70bc534325ba2b4" target="_top" xlink:title="save_restart saves all registered variables to restart files.">
<polygon fill="#ffffff" stroke="#000000" points="530,-72 530,-91 670,-91 670,-72 530,-72"/>
<text text-anchor="middle" x="600" y="-79" font-family="Helvetica,sans-Serif" font-size="10.00" fill="#000000">mom_restart::save_restart</text>
</a>
</g>
</g>
<!-- Node7&#45;&gt;Node9 -->
<g id="edge15" class="edge">
<title>Node7&#45;&gt;Node9</title>
<path fill="none" stroke="#191970" d="M317.1285,-82.5003C329.1068,-81.2527 341.3782,-80.1782 353,-79.5 415.5602,-75.849 431.3361,-78.9089 494,-79.5 502.3341,-79.5786 511.0363,-79.692 519.7157,-79.8254"/>
<polygon fill="#191970" stroke="#191970" points="519.815,-83.3274 529.8705,-79.9903 519.9287,-76.3283 519.815,-83.3274"/>
</g>
<!-- Node14 -->
<g id="node14" class="node">
<title>Node14</title>
<g id="a_node14"><a xlink:href="namespacemom__ice__shelf.html#a40ae01bbe3155191647f2150903dda69" target="_top" xlink:title="Save the ice shelf restart file.">
<polygon fill="#ffffff" stroke="#000000" points="368.5,-.5 368.5,-30.5 478.5,-30.5 478.5,-.5 368.5,-.5"/>
<text text-anchor="start" x="376.5" y="-18.5" font-family="Helvetica,sans-Serif" font-size="10.00" fill="#000000">mom_ice_shelf::ice</text>
<text text-anchor="middle" x="423.5" y="-7.5" font-family="Helvetica,sans-Serif" font-size="10.00" fill="#000000">_shelf_save_restart</text>
</a>
</g>
</g>
<!-- Node7&#45;&gt;Node14 -->
<g id="edge14" class="edge">
<title>Node7&#45;&gt;Node14</title>
<path fill="none" stroke="#191970" d="M277.4259,-77.4708C306.315,-65.2149 347.2995,-47.8275 378.5069,-34.588"/>
<polygon fill="#191970" stroke="#191970" points="380.0149,-37.7502 387.8538,-30.6226 377.281,-31.3062 380.0149,-37.7502"/>
</g>
<!-- Node8&#45;&gt;Node9 -->
<g id="edge8" class="edge">
<title>Node8&#45;&gt;Node9</title>
<path fill="none" stroke="#191970" d="M494.0184,-94.7102C502.5072,-93.6521 511.2242,-92.5655 519.8376,-91.4919"/>
<polygon fill="#191970" stroke="#191970" points="520.3913,-94.9501 529.8815,-90.24 519.5254,-88.0038 520.3913,-94.9501"/>
</g>
<!-- Node10 -->
<g id="node10" class="node">
<title>Node10</title>
<g id="a_node10"><a xlink:href="namespacemom__restart.html#ac31159d0fec067a0a07ac1ac44a5ff8e" target="_top" xlink:title="Return bounds for computing checksums to store in restart files.">
<polygon fill="#ffffff" stroke="#000000" points="706,-110.5 706,-140.5 854,-140.5 854,-110.5 706,-110.5"/>
<text text-anchor="start" x="714" y="-128.5" font-family="Helvetica,sans-Serif" font-size="10.00" fill="#000000">mom_restart::get_checksum</text>
<text text-anchor="middle" x="780" y="-117.5" font-family="Helvetica,sans-Serif" font-size="10.00" fill="#000000">_loop_ranges</text>
</a>
</g>
</g>
<!-- Node9&#45;&gt;Node10 -->
<g id="edge9" class="edge">
<title>Node9&#45;&gt;Node10</title>
<path fill="none" stroke="#191970" d="M639.0573,-91.0473C659.3232,-96.0012 684.7275,-102.2112 708.3663,-107.9895"/>
<polygon fill="#191970" stroke="#191970" points="707.8239,-111.4599 718.369,-110.4346 709.4861,-104.6601 707.8239,-111.4599"/>
</g>
<!-- Node11 -->
<g id="node11" class="node">
<title>Node11</title>
<g id="a_node11"><a xlink:href="namespacemom__error__handler.html#a460cfb79a06c29fc249952c2a3710d67" target="_top" xlink:title="This provides a convenient interface for writing an mpp_error message with run&#45;time filter based on a...">
<polygon fill="#ffffff" stroke="#000000" points="890,-44.5 890,-74.5 1005,-74.5 1005,-44.5 890,-44.5"/>
<text text-anchor="start" x="898" y="-62.5" font-family="Helvetica,sans-Serif" font-size="10.00" fill="#000000">mom_error_handler::</text>
<text text-anchor="middle" x="947.5" y="-51.5" font-family="Helvetica,sans-Serif" font-size="10.00" fill="#000000">mom_error</text>
</a>
</g>
</g>
<!-- Node9&#45;&gt;Node11 -->
<g id="edge10" class="edge">
<title>Node9&#45;&gt;Node11</title>
<path fill="none" stroke="#191970" d="M670.3218,-77.048C731.4389,-73.1787 819.3999,-67.6099 879.7487,-63.7893"/>
<polygon fill="#191970" stroke="#191970" points="880.1759,-67.2693 889.9347,-63.1444 879.7335,-60.2833 880.1759,-67.2693"/>
</g>
<!-- Node13 -->
<g id="node13" class="node">
<title>Node13</title>
<g id="a_node13"><a xlink:href="namespacemom__restart.html#a4b143fb18dab7c0825e426fbf9532623" target="_top" xlink:title=" ">
<polygon fill="#ffffff" stroke="#000000" points="724.5,-22.5 724.5,-52.5 835.5,-52.5 835.5,-22.5 724.5,-22.5"/>
<text text-anchor="start" x="732.5" y="-40.5" font-family="Helvetica,sans-Serif" font-size="10.00" fill="#000000">mom_restart::restart</text>
<text text-anchor="middle" x="780" y="-29.5" font-family="Helvetica,sans-Serif" font-size="10.00" fill="#000000">_error</text>
</a>
</g>
</g>
<!-- Node9&#45;&gt;Node13 -->
<g id="edge12" class="edge">
<title>Node9&#45;&gt;Node13</title>
<path fill="none" stroke="#191970" d="M639.0573,-71.9527C661.0559,-66.5752 689.1092,-59.7178 714.3865,-53.5388"/>
<polygon fill="#191970" stroke="#191970" points="715.4025,-56.8936 724.2853,-51.1191 713.7402,-50.0938 715.4025,-56.8936"/>
</g>
<!-- Node12 -->
<g id="node12" class="node">
<title>Node12</title>
<g id="a_node12"><a xlink:href="namespacemom__error__handler.html#ad5f00a53059c72fe2332d1436c80ca71" target="_top" xlink:title="This returns .true. if the current PE is the root PE.">
<polygon fill="#ffffff" stroke="#000000" points="1041,-44.5 1041,-74.5 1156,-74.5 1156,-44.5 1041,-44.5"/>
<text text-anchor="start" x="1049" y="-62.5" font-family="Helvetica,sans-Serif" font-size="10.00" fill="#000000">mom_error_handler::</text>
<text text-anchor="middle" x="1098.5" y="-51.5" font-family="Helvetica,sans-Serif" font-size="10.00" fill="#000000">is_root_pe</text>
</a>
</g>
</g>
<!-- Node11&#45;&gt;Node12 -->
<g id="edge11" class="edge">
<title>Node11&#45;&gt;Node12</title>
<path fill="none" stroke="#191970" d="M1005.0174,-59.5C1013.4639,-59.5 1022.2292,-59.5 1030.8561,-59.5"/>
<polygon fill="#191970" stroke="#191970" points="1030.8926,-63.0001 1040.8925,-59.5 1030.8925,-56.0001 1030.8926,-63.0001"/>
</g>
<!-- Node13&#45;&gt;Node11 -->
<g id="edge13" class="edge">
<title>Node13&#45;&gt;Node11</title>
<path fill="none" stroke="#191970" d="M835.7751,-44.8257C849.9253,-46.6842 865.2793,-48.7009 879.9445,-50.627"/>
<polygon fill="#191970" stroke="#191970" points="879.5934,-54.1109 889.964,-51.943 880.505,-47.1705 879.5934,-54.1109"/>
</g>
</g>
</svg>
        <g id="navigator" transform="translate(0 0)" fill="#404254">
                <rect fill="#f2f5e9" fill-opacity="0.5" stroke="#606060" stroke-width=".5" x="0" y="0" width="60" height="60"/>
                <use id="zoomplus" xlink:href="#zoomPlus" x="17" y="9" onmousedown="handleZoom(evt,'in')"/>
                <use id="zoomminus" xlink:href="#zoomMin" x="42" y="9" onmousedown="handleZoom(evt,'out')"/>
                <use id="reset" xlink:href="#resetDef" x="30" y="36" onmousedown="handleReset()"/>
                <g id="arrowUp" xlink:href="#dirArrow" transform="translate(30 24)" onmousedown="handlePan(0,-1)">
                  <use xlink:href="#rim" fill="#404040">
                        <set attributeName="fill" to="#808080" begin="arrowUp.mouseover" end="arrowUp.mouseout"/>
                  </use>
                  <path fill="none" stroke="white" stroke-width="1.5" d="M0,-3.0v7 M-2.5,-0.5L0,-3.0L2.5,-0.5"/>
                </g>
                <g id="arrowRight" xlink:href="#dirArrow" transform="rotate(90) translate(36 -43)" onmousedown="handlePan(1,0)">
                  <use xlink:href="#rim" fill="#404040">
                        <set attributeName="fill" to="#808080" begin="arrowRight.mouseover" end="arrowRight.mouseout"/>
                  </use>
                  <path fill="none" stroke="white" stroke-width="1.5" d="M0,-3.0v7 M-2.5,-0.5L0,-3.0L2.5,-0.5"/>
                </g>
                <g id="arrowDown" xlink:href="#dirArrow" transform="rotate(180) translate(-30 -48)" onmousedown="handlePan(0,1)">
                  <use xlink:href="#rim" fill="#404040">
                        <set attributeName="fill" to="#808080" begin="arrowDown.mouseover" end="arrowDown.mouseout"/>
                  </use>
                  <path fill="none" stroke="white" stroke-width="1.5" d="M0,-3.0v7 M-2.5,-0.5L0,-3.0L2.5,-0.5"/>
                </g>
                <g id="arrowLeft" xlink:href="#dirArrow" transform="rotate(270) translate(-36 17)" onmousedown="handlePan(-1,0)">
                  <use xlink:href="#rim" fill="#404040">
                        <set attributeName="fill" to="#808080" begin="arrowLeft.mouseover" end="arrowLeft.mouseout"/>
                  </use>
                  <path fill="none" stroke="white" stroke-width="1.5" d="M0,-3.0v7 M-2.5,-0.5L0,-3.0L2.5,-0.5"/>
                </g>
        </g>
        <svg viewBox="0 0 15 15" width="100%" height="30px" preserveAspectRatio="xMaxYMin meet">
         <g id="arrow_out" transform="scale(0.3 0.3)">
          <a xlink:href="namespacemom__ocean__model__mct_ae300e0e875156247557b71dd922a4365_cgraph_org.svg" target="_base">
           <rect id="button" ry="5" rx="5" y="6" x="6" height="38" width="38"
                fill="#f2f5e9" fill-opacity="0.5" stroke="#606060" stroke-width="1.0"/>
           <path id="arrow"
             d="M 11.500037,31.436501 C 11.940474,20.09759 22.043105,11.32322 32.158766,21.979434 L 37.068811,17.246167 C 37.068811,17.246167 37.088388,32 37.088388,32 L 22.160133,31.978069 C 22.160133,31.978069 26.997745,27.140456 26.997745,27.140456 C 18.528582,18.264221 13.291696,25.230495 11.500037,31.436501 z"
             style="fill:#404040;"/>
          </a>
         </g>
        </svg>
</svg>
