<?xml version="1.0" encoding="UTF-8" standalone="no"?>
<!DOCTYPE svg PUBLIC "-//W3C//DTD SVG 1.1//EN"
 "http://www.w3.org/Graphics/SVG/1.1/DTD/svg11.dtd">
<!-- Generated by graphviz version 2.40.1 (20161225.0304)
 -->
<!-- Title: mom_cvmix_kpp::kpp_nonlocaltransport_temp Pages: 1 -->
<svg width="442pt" height="137pt"
 viewBox="0.00 0.00 442.00 137.00" xmlns="http://www.w3.org/2000/svg" xmlns:xlink="http://www.w3.org/1999/xlink">
<g id="graph0" class="graph" transform="scale(1 1) rotate(0) translate(4 133)">
<title>mom_cvmix_kpp::kpp_nonlocaltransport_temp</title>
<polygon fill="#ffffff" stroke="transparent" points="-4,4 -4,-133 438,-133 438,4 -4,4"/>
<!-- Node1 -->
<g id="node1" class="node">
<title>Node1</title>
<g id="a_node1"><a xlink:title="Apply KPP non&#45;local transport of surface fluxes for temperature.">
<polygon fill="#bfbfbf" stroke="#000000" points="300,-49.5 300,-79.5 434,-79.5 434,-49.5 300,-49.5"/>
<text text-anchor="start" x="308" y="-67.5" font-family="Helvetica,sans-Serif" font-size="10.00" fill="#000000">mom_cvmix_kpp::kpp</text>
<text text-anchor="middle" x="367" y="-56.5" font-family="Helvetica,sans-Serif" font-size="10.00" fill="#000000">_nonlocaltransport_temp</text>
</a>
</g>
</g>
<!-- Node2 -->
<g id="node2" class="node">
<title>Node2</title>
<g id="a_node2"><a xlink:href="namespacemom__diabatic__driver.html#ae57c48925de75712384e859a851c8c40" target="_top" xlink:title="This subroutine imposes the diapycnal mass fluxes and the accompanying diapycnal advection of momentu...">
<polygon fill="#ffffff" stroke="#000000" points="150,-98.5 150,-128.5 264,-128.5 264,-98.5 150,-98.5"/>
<text text-anchor="start" x="158" y="-116.5" font-family="Helvetica,sans-Serif" font-size="10.00" fill="#000000">mom_diabatic_driver</text>
<text text-anchor="middle" x="207" y="-105.5" font-family="Helvetica,sans-Serif" font-size="10.00" fill="#000000">::diabatic_ale</text>
</a>
</g>
</g>
<!-- Node1&#45;&gt;Node2 -->
<g id="edge1" class="edge">
<title>Node1&#45;&gt;Node2</title>
<path fill="none" stroke="#191970" d="M307.8558,-82.6129C290.8458,-87.8222 272.4835,-93.4457 256.148,-98.4484"/>
<polygon fill="#191970" stroke="#191970" points="309.1524,-85.8763 317.6892,-79.6014 307.1026,-79.1832 309.1524,-85.8763"/>
</g>
<!-- Node4 -->
<g id="node4" class="node">
<title>Node4</title>
<g id="a_node4"><a xlink:href="namespacemom__diabatic__driver.html#a598d99106680c83e410a0a51a59588ea" target="_top" xlink:title="Applies diabatic forcing and diapycnal mixing of temperature, salinity and other tracers for use with...">
<polygon fill="#ffffff" stroke="#000000" points="150,-49.5 150,-79.5 264,-79.5 264,-49.5 150,-49.5"/>
<text text-anchor="start" x="158" y="-67.5" font-family="Helvetica,sans-Serif" font-size="10.00" fill="#000000">mom_diabatic_driver</text>
<text text-anchor="middle" x="207" y="-56.5" font-family="Helvetica,sans-Serif" font-size="10.00" fill="#000000">::diabatic_ale_legacy</text>
</a>
</g>
</g>
<!-- Node1&#45;&gt;Node4 -->
<g id="edge3" class="edge">
<title>Node1&#45;&gt;Node4</title>
<path fill="none" stroke="#191970" d="M289.5997,-64.5C281.0375,-64.5 272.4354,-64.5 264.1865,-64.5"/>
<polygon fill="#191970" stroke="#191970" points="289.6094,-68.0001 299.6093,-64.5 289.6093,-61.0001 289.6094,-68.0001"/>
</g>
<!-- Node5 -->
<g id="node5" class="node">
<title>Node5</title>
<g id="a_node5"><a xlink:href="namespacemom__diabatic__driver.html#a71d8d849db16be4b87c2650b49f01c82" target="_top" xlink:title="Imposes the diapycnal mass fluxes and the accompanying diapycnal advection of momentum and tracers us...">
<polygon fill="#ffffff" stroke="#000000" points="150,-.5 150,-30.5 264,-30.5 264,-.5 150,-.5"/>
<text text-anchor="start" x="158" y="-18.5" font-family="Helvetica,sans-Serif" font-size="10.00" fill="#000000">mom_diabatic_driver</text>
<text text-anchor="middle" x="207" y="-7.5" font-family="Helvetica,sans-Serif" font-size="10.00" fill="#000000">::layered_diabatic</text>
</a>
</g>
</g>
<!-- Node1&#45;&gt;Node5 -->
<g id="edge5" class="edge">
<title>Node1&#45;&gt;Node5</title>
<path fill="none" stroke="#191970" d="M307.8558,-46.3871C290.8458,-41.1778 272.4835,-35.5543 256.148,-30.5516"/>
<polygon fill="#191970" stroke="#191970" points="307.1026,-49.8168 317.6892,-49.3986 309.1524,-43.1237 307.1026,-49.8168"/>
</g>
<!-- Node3 -->
<g id="node3" class="node">
<title>Node3</title>
<g id="a_node3"><a xlink:href="namespacemom__diabatic__driver.html#a9005de9f3ad26b32de53e3cd9826b9b9" target="_top" xlink:title="This subroutine imposes the diapycnal mass fluxes and the accompanying diapycnal advection of momentu...">
<polygon fill="#ffffff" stroke="#000000" points="0,-49.5 0,-79.5 114,-79.5 114,-49.5 0,-49.5"/>
<text text-anchor="start" x="8" y="-67.5" font-family="Helvetica,sans-Serif" font-size="10.00" fill="#000000">mom_diabatic_driver</text>
<text text-anchor="middle" x="57" y="-56.5" font-family="Helvetica,sans-Serif" font-size="10.00" fill="#000000">::diabatic</text>
</a>
</g>
</g>
<!-- Node2&#45;&gt;Node3 -->
<g id="edge2" class="edge">
<title>Node2&#45;&gt;Node3</title>
<path fill="none" stroke="#191970" d="M151.1049,-95.2409C135.2839,-90.0727 118.2477,-84.5076 103.0763,-79.5516"/>
<polygon fill="#191970" stroke="#191970" points="150.1786,-98.6203 160.7711,-98.3986 152.3523,-91.9663 150.1786,-98.6203"/>
</g>
<!-- Node4&#45;&gt;Node3 -->
<g id="edge4" class="edge">
<title>Node4&#45;&gt;Node3</title>
<path fill="none" stroke="#191970" d="M139.6894,-64.5C131.2716,-64.5 122.7232,-64.5 114.4745,-64.5"/>
<polygon fill="#191970" stroke="#191970" points="139.8636,-68.0001 149.8635,-64.5 139.8635,-61.0001 139.8636,-68.0001"/>
</g>
<!-- Node5&#45;&gt;Node3 -->
<g id="edge6" class="edge">
<title>Node5&#45;&gt;Node3</title>
<path fill="none" stroke="#191970" d="M151.1049,-33.7591C135.2839,-38.9273 118.2477,-44.4924 103.0763,-49.4484"/>
<polygon fill="#191970" stroke="#191970" points="152.3523,-37.0337 160.7711,-30.6014 150.1786,-30.3797 152.3523,-37.0337"/>
</g>
</g>
</svg>
