<?xml version="1.0" encoding="UTF-8" standalone="no"?>
<!DOCTYPE svg PUBLIC "-//W3C//DTD SVG 1.1//EN"
 "http://www.w3.org/Graphics/SVG/1.1/DTD/svg11.dtd">
<!-- Generated by graphviz version 2.40.1 (20161225.0304)
 -->
<!-- Title: mom_neutral_diffusion::neutral_surface_flux Pages: 1 -->
<svg width="897pt" height="88pt"
 viewBox="0.00 0.00 897.00 88.00" xmlns="http://www.w3.org/2000/svg" xmlns:xlink="http://www.w3.org/1999/xlink">
<g id="graph0" class="graph" transform="scale(1 1) rotate(0) translate(4 84)">
<title>mom_neutral_diffusion::neutral_surface_flux</title>
<polygon fill="#ffffff" stroke="transparent" points="-4,4 -4,-84 893,-84 893,4 -4,4"/>
<!-- Node1 -->
<g id="node1" class="node">
<title>Node1</title>
<g id="a_node1"><a xlink:title="Returns a single column of neutral diffusion fluxes of a tracer.">
<polygon fill="#bfbfbf" stroke="#000000" points="767,-24.5 767,-54.5 889,-54.5 889,-24.5 767,-24.5"/>
<text text-anchor="start" x="775" y="-42.5" font-family="Helvetica,sans-Serif" font-size="10.00" fill="#000000">mom_neutral_diffusion</text>
<text text-anchor="middle" x="828" y="-31.5" font-family="Helvetica,sans-Serif" font-size="10.00" fill="#000000">::neutral_surface_flux</text>
</a>
</g>
</g>
<!-- Node2 -->
<g id="node2" class="node">
<title>Node2</title>
<g id="a_node2"><a xlink:href="namespacemom__neutral__diffusion.html#a9aaf0988f76c9992d8f1db48ce23bf34" target="_top" xlink:title="Returns true if unit tests of neutral_diffusion functions fail. Otherwise returns false.">
<polygon fill="#ffffff" stroke="#000000" points="582,-49.5 582,-79.5 731,-79.5 731,-49.5 582,-49.5"/>
<text text-anchor="start" x="590" y="-67.5" font-family="Helvetica,sans-Serif" font-size="10.00" fill="#000000">mom_neutral_diffusion</text>
<text text-anchor="middle" x="656.5" y="-56.5" font-family="Helvetica,sans-Serif" font-size="10.00" fill="#000000">::ndiff_unit_tests_continuous</text>
</a>
</g>
</g>
<!-- Node1&#45;&gt;Node2 -->
<g id="edge1" class="edge">
<title>Node1&#45;&gt;Node2</title>
<path fill="none" stroke="#191970" d="M756.5148,-49.9206C748.1789,-51.1357 739.6579,-52.3779 731.279,-53.5993"/>
<polygon fill="#191970" stroke="#191970" points="757.1785,-53.3609 766.569,-48.455 756.1687,-46.4341 757.1785,-53.3609"/>
</g>
<!-- Node7 -->
<g id="node7" class="node">
<title>Node7</title>
<g id="a_node7"><a xlink:href="namespacemom__neutral__diffusion.html#ad048cb54d8df3953db6c565a6fcebfb1" target="_top" xlink:title="Update tracer concentration due to neutral diffusion; layer thickness unchanged by this update.">
<polygon fill="#ffffff" stroke="#000000" points="595.5,-.5 595.5,-30.5 717.5,-30.5 717.5,-.5 595.5,-.5"/>
<text text-anchor="start" x="603.5" y="-18.5" font-family="Helvetica,sans-Serif" font-size="10.00" fill="#000000">mom_neutral_diffusion</text>
<text text-anchor="middle" x="656.5" y="-7.5" font-family="Helvetica,sans-Serif" font-size="10.00" fill="#000000">::neutral_diffusion</text>
</a>
</g>
</g>
<!-- Node1&#45;&gt;Node7 -->
<g id="edge6" class="edge">
<title>Node1&#45;&gt;Node7</title>
<path fill="none" stroke="#191970" d="M756.3323,-29.4707C743.4221,-27.664 730.074,-25.7961 717.5021,-24.0367"/>
<polygon fill="#191970" stroke="#191970" points="756.1804,-32.9835 766.569,-30.9032 757.1506,-26.051 756.1804,-32.9835"/>
</g>
<!-- Node3 -->
<g id="node3" class="node">
<title>Node3</title>
<g id="a_node3"><a xlink:href="namespacemom__neutral__diffusion.html#a6f91c93a6363fb39395796420f25fad2" target="_top" xlink:title="Returns true if unit tests of neutral_diffusion functions fail. Otherwise returns false.">
<polygon fill="#ffffff" stroke="#000000" points="397,-49.5 397,-79.5 546,-79.5 546,-49.5 397,-49.5"/>
<text text-anchor="start" x="405" y="-67.5" font-family="Helvetica,sans-Serif" font-size="10.00" fill="#000000">mom_neutral_diffusion</text>
<text text-anchor="middle" x="471.5" y="-56.5" font-family="Helvetica,sans-Serif" font-size="10.00" fill="#000000">::neutral_diffusion_unit_tests</text>
</a>
</g>
</g>
<!-- Node2&#45;&gt;Node3 -->
<g id="edge2" class="edge">
<title>Node2&#45;&gt;Node3</title>
<path fill="none" stroke="#191970" d="M571.5317,-64.5C563.0744,-64.5 554.5325,-64.5 546.1915,-64.5"/>
<polygon fill="#191970" stroke="#191970" points="571.7867,-68.0001 581.7867,-64.5 571.7866,-61.0001 571.7867,-68.0001"/>
</g>
<!-- Node4 -->
<g id="node4" class="node">
<title>Node4</title>
<g id="a_node4"><a xlink:href="namespacemom__unit__tests.html#a57645db02bc734c32de50d028ef906ac" target="_top" xlink:title="Calls unit tests for other modules. Note that if a unit test returns true, a FATAL error is triggered...">
<polygon fill="#ffffff" stroke="#000000" points="250,-49.5 250,-79.5 361,-79.5 361,-49.5 250,-49.5"/>
<text text-anchor="start" x="258" y="-67.5" font-family="Helvetica,sans-Serif" font-size="10.00" fill="#000000">mom_unit_tests::unit</text>
<text text-anchor="middle" x="305.5" y="-56.5" font-family="Helvetica,sans-Serif" font-size="10.00" fill="#000000">_tests</text>
</a>
</g>
</g>
<!-- Node3&#45;&gt;Node4 -->
<g id="edge3" class="edge">
<title>Node3&#45;&gt;Node4</title>
<path fill="none" stroke="#191970" d="M386.7032,-64.5C378.1315,-64.5 369.5853,-64.5 361.4307,-64.5"/>
<polygon fill="#191970" stroke="#191970" points="386.7555,-68.0001 396.7554,-64.5 386.7554,-61.0001 386.7555,-68.0001"/>
</g>
<!-- Node5 -->
<g id="node5" class="node">
<title>Node5</title>
<g id="a_node5"><a xlink:href="namespacemom.html#a96708b16215666edbfa5b46228f3a200" target="_top" xlink:title="Initialize MOM, including memory allocation, setting up parameters and diagnostics,...">
<polygon fill="#ffffff" stroke="#000000" points="104,-55 104,-74 214,-74 214,-55 104,-55"/>
<text text-anchor="middle" x="159" y="-62" font-family="Helvetica,sans-Serif" font-size="10.00" fill="#000000">mom::initialize_mom</text>
</a>
</g>
</g>
<!-- Node4&#45;&gt;Node5 -->
<g id="edge4" class="edge">
<title>Node4&#45;&gt;Node5</title>
<path fill="none" stroke="#191970" d="M239.4734,-64.5C231.0141,-64.5 222.4251,-64.5 214.1636,-64.5"/>
<polygon fill="#191970" stroke="#191970" points="239.6967,-68.0001 249.6967,-64.5 239.6967,-61.0001 239.6967,-68.0001"/>
</g>
<!-- Node6 -->
<g id="node6" class="node">
<title>Node6</title>
<g id="a_node6"><a xlink:href="MOM__driver_8F90.html#a08fffeb2d8e8acbf9ed4609be6d258c6" target="_top" xlink:title=" ">
<polygon fill="#ffffff" stroke="#000000" points="0,-55 0,-74 68,-74 68,-55 0,-55"/>
<text text-anchor="middle" x="34" y="-62" font-family="Helvetica,sans-Serif" font-size="10.00" fill="#000000">mom_main</text>
</a>
</g>
</g>
<!-- Node5&#45;&gt;Node6 -->
<g id="edge5" class="edge">
<title>Node5&#45;&gt;Node6</title>
<path fill="none" stroke="#191970" d="M93.7848,-64.5C84.8995,-64.5 76.0876,-64.5 68.0691,-64.5"/>
<polygon fill="#191970" stroke="#191970" points="93.8094,-68.0001 103.8093,-64.5 93.8093,-61.0001 93.8094,-68.0001"/>
</g>
<!-- Node8 -->
<g id="node8" class="node">
<title>Node8</title>
<g id="a_node8"><a xlink:href="namespacemom__tracer__hor__diff.html#a069e22612062290389c2630c7f90ede2" target="_top" xlink:title="Compute along&#45;coordinate diffusion of all tracers using the diffusivity in CSKhTr,...">
<polygon fill="#ffffff" stroke="#000000" points="414,-.5 414,-30.5 529,-30.5 529,-.5 414,-.5"/>
<text text-anchor="start" x="422" y="-18.5" font-family="Helvetica,sans-Serif" font-size="10.00" fill="#000000">mom_tracer_hor_diff</text>
<text text-anchor="middle" x="471.5" y="-7.5" font-family="Helvetica,sans-Serif" font-size="10.00" fill="#000000">::tracer_hordiff</text>
</a>
</g>
</g>
<!-- Node7&#45;&gt;Node8 -->
<g id="edge7" class="edge">
<title>Node7&#45;&gt;Node8</title>
<path fill="none" stroke="#191970" d="M585.2311,-15.5C566.646,-15.5 546.8522,-15.5 529.0754,-15.5"/>
<polygon fill="#191970" stroke="#191970" points="585.4114,-19.0001 595.4114,-15.5 585.4113,-12.0001 585.4114,-19.0001"/>
</g>
</g>
</svg>
