<?xml version="1.0" encoding="UTF-8" standalone="no"?>
<!DOCTYPE svg PUBLIC "-//W3C//DTD SVG 1.1//EN"
 "http://www.w3.org/Graphics/SVG/1.1/DTD/svg11.dtd">
<!-- Generated by graphviz version 2.40.1 (20161225.0304)
 -->
<!-- Title: mom_restart::restart_init_end Pages: 1 -->
<svg width="407pt" height="137pt"
 viewBox="0.00 0.00 407.00 137.00" xmlns="http://www.w3.org/2000/svg" xmlns:xlink="http://www.w3.org/1999/xlink">
<g id="graph0" class="graph" transform="scale(1 1) rotate(0) translate(4 133)">
<title>mom_restart::restart_init_end</title>
<polygon fill="#ffffff" stroke="transparent" points="-4,4 -4,-133 403,-133 403,4 -4,4"/>
<!-- Node1 -->
<g id="node1" class="node">
<title>Node1</title>
<g id="a_node1"><a xlink:title="Indicate that all variables have now been registered.">
<polygon fill="#bfbfbf" stroke="#000000" points="288,-49.5 288,-79.5 399,-79.5 399,-49.5 288,-49.5"/>
<text text-anchor="start" x="296" y="-67.5" font-family="Helvetica,sans-Serif" font-size="10.00" fill="#000000">mom_restart::restart</text>
<text text-anchor="middle" x="343.5" y="-56.5" font-family="Helvetica,sans-Serif" font-size="10.00" fill="#000000">_init_end</text>
</a>
</g>
</g>
<!-- Node2 -->
<g id="node2" class="node">
<title>Node2</title>
<g id="a_node2"><a xlink:href="namespacemom__surface__forcing__nuopc.html#a06657bd6f01be304accc1f2e964fefa1" target="_top" xlink:title="Initialize the surface forcing, including setting parameters and allocating permanent memory.">
<polygon fill="#ffffff" stroke="#000000" points="104,-98.5 104,-128.5 252,-128.5 252,-98.5 104,-98.5"/>
<text text-anchor="start" x="112" y="-116.5" font-family="Helvetica,sans-Serif" font-size="10.00" fill="#000000">mom_surface_forcing</text>
<text text-anchor="middle" x="178" y="-105.5" font-family="Helvetica,sans-Serif" font-size="10.00" fill="#000000">_nuopc::surface_forcing_init</text>
</a>
</g>
</g>
<!-- Node1&#45;&gt;Node2 -->
<g id="edge1" class="edge">
<title>Node1&#45;&gt;Node2</title>
<path fill="none" stroke="#191970" d="M282.8156,-82.467C265.0832,-87.717 245.8925,-93.3989 228.8375,-98.4484"/>
<polygon fill="#191970" stroke="#191970" points="283.8992,-85.7964 292.4941,-79.6014 281.9119,-79.0844 283.8992,-85.7964"/>
</g>
<!-- Node3 -->
<g id="node3" class="node">
<title>Node3</title>
<g id="a_node3"><a xlink:href="namespacemom__surface__forcing__mct.html#a9b444c1127c12220af99c66f7d38460d" target="_top" xlink:title="Initialize the surface forcing, including setting parameters and allocating permanent memory.">
<polygon fill="#ffffff" stroke="#000000" points="110,-49.5 110,-79.5 246,-79.5 246,-49.5 110,-49.5"/>
<text text-anchor="start" x="118" y="-67.5" font-family="Helvetica,sans-Serif" font-size="10.00" fill="#000000">mom_surface_forcing</text>
<text text-anchor="middle" x="178" y="-56.5" font-family="Helvetica,sans-Serif" font-size="10.00" fill="#000000">_mct::surface_forcing_init</text>
</a>
</g>
</g>
<!-- Node1&#45;&gt;Node3 -->
<g id="edge2" class="edge">
<title>Node1&#45;&gt;Node3</title>
<path fill="none" stroke="#191970" d="M277.6835,-64.5C267.2865,-64.5 256.517,-64.5 246.0699,-64.5"/>
<polygon fill="#191970" stroke="#191970" points="277.9305,-68.0001 287.9305,-64.5 277.9305,-61.0001 277.9305,-68.0001"/>
</g>
<!-- Node4 -->
<g id="node4" class="node">
<title>Node4</title>
<g id="a_node4"><a xlink:href="namespacemom__surface__forcing.html#a791cb2bd2daa4fd3f036b121995bfb6c" target="_top" xlink:title="Initialize the surface forcing module.">
<polygon fill="#ffffff" stroke="#000000" points="119,-.5 119,-30.5 237,-30.5 237,-.5 119,-.5"/>
<text text-anchor="start" x="127" y="-18.5" font-family="Helvetica,sans-Serif" font-size="10.00" fill="#000000">mom_surface_forcing</text>
<text text-anchor="middle" x="178" y="-7.5" font-family="Helvetica,sans-Serif" font-size="10.00" fill="#000000">::surface_forcing_init</text>
</a>
</g>
</g>
<!-- Node1&#45;&gt;Node4 -->
<g id="edge3" class="edge">
<title>Node1&#45;&gt;Node4</title>
<path fill="none" stroke="#191970" d="M282.8156,-46.533C265.0832,-41.283 245.8925,-35.6011 228.8375,-30.5516"/>
<polygon fill="#191970" stroke="#191970" points="281.9119,-49.9156 292.4941,-49.3986 283.8992,-43.2036 281.9119,-49.9156"/>
</g>
<!-- Node5 -->
<g id="node5" class="node">
<title>Node5</title>
<g id="a_node5"><a xlink:href="MOM__driver_8F90.html#a08fffeb2d8e8acbf9ed4609be6d258c6" target="_top" xlink:title=" ">
<polygon fill="#ffffff" stroke="#000000" points="0,-6 0,-25 68,-25 68,-6 0,-6"/>
<text text-anchor="middle" x="34" y="-13" font-family="Helvetica,sans-Serif" font-size="10.00" fill="#000000">mom_main</text>
</a>
</g>
</g>
<!-- Node4&#45;&gt;Node5 -->
<g id="edge4" class="edge">
<title>Node4&#45;&gt;Node5</title>
<path fill="none" stroke="#191970" d="M108.4379,-15.5C94.4124,-15.5 80.2635,-15.5 68.1231,-15.5"/>
<polygon fill="#191970" stroke="#191970" points="108.5983,-19.0001 118.5983,-15.5 108.5983,-12.0001 108.5983,-19.0001"/>
</g>
</g>
</svg>
