<?xml version="1.0" encoding="UTF-8" standalone="no"?>
<!DOCTYPE svg PUBLIC "-//W3C//DTD SVG 1.1//EN"
 "http://www.w3.org/Graphics/SVG/1.1/DTD/svg11.dtd">
<!-- Generated by graphviz version 2.40.1 (20161225.0304)
 -->
<!-- Title: mom_coms::efp_list_sum_across_pes Pages: 1 -->
<svg width="475pt" height="116pt"
 viewBox="0.00 0.00 475.00 115.50" xmlns="http://www.w3.org/2000/svg" xmlns:xlink="http://www.w3.org/1999/xlink">
<g id="graph0" class="graph" transform="scale(1 1) rotate(0) translate(4 111.5)">
<title>mom_coms::efp_list_sum_across_pes</title>
<polygon fill="#ffffff" stroke="transparent" points="-4,4 -4,-111.5 471,-111.5 471,4 -4,4"/>
<!-- Node1 -->
<g id="node1" class="node">
<title>Node1</title>
<g id="a_node1"><a xlink:title="This subroutine does a sum across PEs of a list of EFP variables, returning the sums in place,...">
<polygon fill="#bfbfbf" stroke="#000000" points="0,-44.5 0,-74.5 108,-74.5 108,-44.5 0,-44.5"/>
<text text-anchor="start" x="8" y="-62.5" font-family="Helvetica,sans-Serif" font-size="10.00" fill="#000000">mom_coms::efp_list</text>
<text text-anchor="middle" x="54" y="-51.5" font-family="Helvetica,sans-Serif" font-size="10.00" fill="#000000">_sum_across_pes</text>
</a>
</g>
</g>
<!-- Node2 -->
<g id="node2" class="node">
<title>Node2</title>
<g id="a_node2"><a xlink:href="namespacemom__coms.html#a3fe107391eb9d2c199eb09e451f4dbb2" target="_top" xlink:title="This subroutine handles carrying of the overflow.">
<polygon fill="#ffffff" stroke="#000000" points="144,-88 144,-107 288,-107 288,-88 144,-88"/>
<text text-anchor="middle" x="216" y="-95" font-family="Helvetica,sans-Serif" font-size="10.00" fill="#000000">mom_coms::carry_overflow</text>
</a>
</g>
</g>
<!-- Node1&#45;&gt;Node2 -->
<g id="edge1" class="edge">
<title>Node1&#45;&gt;Node2</title>
<path fill="none" stroke="#191970" d="M108.3943,-72.2592C126.8529,-76.5889 147.3851,-81.4051 165.5249,-85.6602"/>
<polygon fill="#191970" stroke="#191970" points="164.793,-89.0834 175.328,-87.9597 166.3916,-82.2684 164.793,-89.0834"/>
</g>
<!-- Node3 -->
<g id="node3" class="node">
<title>Node3</title>
<g id="a_node3"><a xlink:href="namespacemom__coms.html#a4aaf51b372bcaf7b46939145577eff92" target="_top" xlink:title="Return the real number that an extended&#45;fixed&#45;point number corresponds with.">
<polygon fill="#ffffff" stroke="#000000" points="152,-50 152,-69 280,-69 280,-50 152,-50"/>
<text text-anchor="middle" x="216" y="-57" font-family="Helvetica,sans-Serif" font-size="10.00" fill="#000000">mom_coms::efp_to_real</text>
</a>
</g>
</g>
<!-- Node1&#45;&gt;Node3 -->
<g id="edge2" class="edge">
<title>Node1&#45;&gt;Node3</title>
<path fill="none" stroke="#191970" d="M108.3943,-59.5C119.0914,-59.5 130.485,-59.5 141.7057,-59.5"/>
<polygon fill="#191970" stroke="#191970" points="141.937,-63.0001 151.937,-59.5 141.9369,-56.0001 141.937,-63.0001"/>
</g>
<!-- Node6 -->
<g id="node6" class="node">
<title>Node6</title>
<g id="a_node6"><a xlink:href="namespacemom__error__handler.html#a460cfb79a06c29fc249952c2a3710d67" target="_top" xlink:title="This provides a convenient interface for writing an mpp_error message with run&#45;time filter based on a...">
<polygon fill="#ffffff" stroke="#000000" points="158.5,-.5 158.5,-30.5 273.5,-30.5 273.5,-.5 158.5,-.5"/>
<text text-anchor="start" x="166.5" y="-18.5" font-family="Helvetica,sans-Serif" font-size="10.00" fill="#000000">mom_error_handler::</text>
<text text-anchor="middle" x="216" y="-7.5" font-family="Helvetica,sans-Serif" font-size="10.00" fill="#000000">mom_error</text>
</a>
</g>
</g>
<!-- Node1&#45;&gt;Node6 -->
<g id="edge5" class="edge">
<title>Node1&#45;&gt;Node6</title>
<path fill="none" stroke="#191970" d="M108.3943,-44.7262C122.0616,-41.0141 136.8657,-36.9933 150.9937,-33.156"/>
<polygon fill="#191970" stroke="#191970" points="151.9114,-36.5337 160.6444,-30.5349 150.0766,-29.7784 151.9114,-36.5337"/>
</g>
<!-- Node4 -->
<g id="node4" class="node">
<title>Node4</title>
<g id="a_node4"><a xlink:href="namespacemom__coms.html#a24ac5b7cc37b1498f23b61eea03fb8c3" target="_top" xlink:title="Convert the array of integers that constitute an extended&#45;fixed&#45;point representation into a real numb...">
<polygon fill="#ffffff" stroke="#000000" points="330.5,-88 330.5,-107 460.5,-107 460.5,-88 330.5,-88"/>
<text text-anchor="middle" x="395.5" y="-95" font-family="Helvetica,sans-Serif" font-size="10.00" fill="#000000">mom_coms::ints_to_real</text>
</a>
</g>
</g>
<!-- Node3&#45;&gt;Node4 -->
<g id="edge3" class="edge">
<title>Node3&#45;&gt;Node4</title>
<path fill="none" stroke="#191970" d="M261.2954,-69.089C285.4092,-74.1939 315.2508,-80.5113 340.6666,-85.8918"/>
<polygon fill="#191970" stroke="#191970" points="340.0222,-89.3329 350.5303,-87.9799 341.472,-82.4847 340.0222,-89.3329"/>
</g>
<!-- Node5 -->
<g id="node5" class="node">
<title>Node5</title>
<g id="a_node5"><a xlink:href="namespacemom__coms.html#ab8feff19e782af36bb7ccccd5ba9eddc" target="_top" xlink:title="This subroutine carries the overflow, and then makes sure that all integers are of the same sign as t...">
<polygon fill="#ffffff" stroke="#000000" points="324,-50 324,-69 467,-69 467,-50 324,-50"/>
<text text-anchor="middle" x="395.5" y="-57" font-family="Helvetica,sans-Serif" font-size="10.00" fill="#000000">mom_coms::regularize_ints</text>
</a>
</g>
</g>
<!-- Node3&#45;&gt;Node5 -->
<g id="edge4" class="edge">
<title>Node3&#45;&gt;Node5</title>
<path fill="none" stroke="#191970" d="M280.0434,-59.5C290.9125,-59.5 302.3309,-59.5 313.5838,-59.5"/>
<polygon fill="#191970" stroke="#191970" points="313.8511,-63.0001 323.8511,-59.5 313.851,-56.0001 313.8511,-63.0001"/>
</g>
<!-- Node7 -->
<g id="node7" class="node">
<title>Node7</title>
<g id="a_node7"><a xlink:href="namespacemom__error__handler.html#ad5f00a53059c72fe2332d1436c80ca71" target="_top" xlink:title="This returns .true. if the current PE is the root PE.">
<polygon fill="#ffffff" stroke="#000000" points="338,-.5 338,-30.5 453,-30.5 453,-.5 338,-.5"/>
<text text-anchor="start" x="346" y="-18.5" font-family="Helvetica,sans-Serif" font-size="10.00" fill="#000000">mom_error_handler::</text>
<text text-anchor="middle" x="395.5" y="-7.5" font-family="Helvetica,sans-Serif" font-size="10.00" fill="#000000">is_root_pe</text>
</a>
</g>
</g>
<!-- Node6&#45;&gt;Node7 -->
<g id="edge6" class="edge">
<title>Node6&#45;&gt;Node7</title>
<path fill="none" stroke="#191970" d="M273.783,-15.5C290.9176,-15.5 309.8403,-15.5 327.5564,-15.5"/>
<polygon fill="#191970" stroke="#191970" points="327.8253,-19.0001 337.8253,-15.5 327.8253,-12.0001 327.8253,-19.0001"/>
</g>
</g>
</svg>
