<?xml version="1.0" encoding="UTF-8" standalone="no"?>
<!DOCTYPE svg PUBLIC "-//W3C//DTD SVG 1.1//EN"
 "http://www.w3.org/Graphics/SVG/1.1/DTD/svg11.dtd">
<!-- Generated by graphviz version 2.40.1 (20161225.0304)
 -->
<!-- Title: regrid_edge_slopes::edge_slopes_implicit_h3 Pages: 1 -->
<svg width="608pt" height="137pt"
 viewBox="0.00 0.00 608.00 137.00" xmlns="http://www.w3.org/2000/svg" xmlns:xlink="http://www.w3.org/1999/xlink">
<g id="graph0" class="graph" transform="scale(1 1) rotate(0) translate(4 133)">
<title>regrid_edge_slopes::edge_slopes_implicit_h3</title>
<polygon fill="#ffffff" stroke="transparent" points="-4,4 -4,-133 604,-133 604,4 -4,4"/>
<!-- Node1 -->
<g id="node1" class="node">
<title>Node1</title>
<g id="a_node1"><a xlink:title="Compute ih4 edge slopes (implicit third order accurate) in the same units as h.">
<polygon fill="#bfbfbf" stroke="#000000" points="0,-49.5 0,-79.5 137,-79.5 137,-49.5 0,-49.5"/>
<text text-anchor="start" x="8" y="-67.5" font-family="Helvetica,sans-Serif" font-size="10.00" fill="#000000">regrid_edge_slopes</text>
<text text-anchor="middle" x="68.5" y="-56.5" font-family="Helvetica,sans-Serif" font-size="10.00" fill="#000000">::edge_slopes_implicit_h3</text>
</a>
</g>
</g>
<!-- Node2 -->
<g id="node2" class="node">
<title>Node2</title>
<g id="a_node2"><a xlink:href="namespacepolynomial__functions.html#adb2b5d18db527314545e8e21638a2872" target="_top" xlink:title="Pointwise evaluation of a polynomial at x.">
<polygon fill="#ffffff" stroke="#000000" points="173,-98.5 173,-128.5 298,-128.5 298,-98.5 173,-98.5"/>
<text text-anchor="start" x="181" y="-116.5" font-family="Helvetica,sans-Serif" font-size="10.00" fill="#000000">polynomial_functions</text>
<text text-anchor="middle" x="235.5" y="-105.5" font-family="Helvetica,sans-Serif" font-size="10.00" fill="#000000">::evaluation_polynomial</text>
</a>
</g>
</g>
<!-- Node1&#45;&gt;Node2 -->
<g id="edge1" class="edge">
<title>Node1&#45;&gt;Node2</title>
<path fill="none" stroke="#191970" d="M119.9682,-79.6014C137.1919,-84.6551 156.5588,-90.3376 174.4422,-95.5848"/>
<polygon fill="#191970" stroke="#191970" points="173.6209,-98.9913 184.2018,-98.4484 175.5917,-92.2745 173.6209,-98.9913"/>
</g>
<!-- Node3 -->
<g id="node3" class="node">
<title>Node3</title>
<g id="a_node3"><a xlink:href="namespaceregrid__solvers.html#a8130a338b59de62b00f68da4204568ad" target="_top" xlink:title="Solve the linear system AX = B by Gaussian elimination.">
<polygon fill="#ffffff" stroke="#000000" points="179,-49.5 179,-79.5 292,-79.5 292,-49.5 179,-49.5"/>
<text text-anchor="start" x="187" y="-67.5" font-family="Helvetica,sans-Serif" font-size="10.00" fill="#000000">regrid_solvers::solve</text>
<text text-anchor="middle" x="235.5" y="-56.5" font-family="Helvetica,sans-Serif" font-size="10.00" fill="#000000">_linear_system</text>
</a>
</g>
</g>
<!-- Node1&#45;&gt;Node3 -->
<g id="edge2" class="edge">
<title>Node1&#45;&gt;Node3</title>
<path fill="none" stroke="#191970" d="M137.3895,-64.5C147.7669,-64.5 158.455,-64.5 168.7857,-64.5"/>
<polygon fill="#191970" stroke="#191970" points="168.9724,-68.0001 178.9723,-64.5 168.9723,-61.0001 168.9724,-68.0001"/>
</g>
<!-- Node6 -->
<g id="node6" class="node">
<title>Node6</title>
<g id="a_node6"><a xlink:href="namespaceregrid__solvers.html#a0d5c3cff8f31429b0a2c6d267e8b345d" target="_top" xlink:title="Solve the tridiagonal system AX = B.">
<polygon fill="#ffffff" stroke="#000000" points="179,-.5 179,-30.5 292,-30.5 292,-.5 179,-.5"/>
<text text-anchor="start" x="187" y="-18.5" font-family="Helvetica,sans-Serif" font-size="10.00" fill="#000000">regrid_solvers::solve</text>
<text text-anchor="middle" x="235.5" y="-7.5" font-family="Helvetica,sans-Serif" font-size="10.00" fill="#000000">_tridiagonal_system</text>
</a>
</g>
</g>
<!-- Node1&#45;&gt;Node6 -->
<g id="edge5" class="edge">
<title>Node1&#45;&gt;Node6</title>
<path fill="none" stroke="#191970" d="M119.9682,-49.3986C137.1919,-44.3449 156.5588,-38.6624 174.4422,-33.4152"/>
<polygon fill="#191970" stroke="#191970" points="175.5917,-36.7255 184.2018,-30.5516 173.6209,-30.0087 175.5917,-36.7255"/>
</g>
<!-- Node4 -->
<g id="node4" class="node">
<title>Node4</title>
<g id="a_node4"><a xlink:href="namespacemom__error__handler.html#a460cfb79a06c29fc249952c2a3710d67" target="_top" xlink:title="This provides a convenient interface for writing an mpp_error message with run&#45;time filter based on a...">
<polygon fill="#ffffff" stroke="#000000" points="334,-49.5 334,-79.5 449,-79.5 449,-49.5 334,-49.5"/>
<text text-anchor="start" x="342" y="-67.5" font-family="Helvetica,sans-Serif" font-size="10.00" fill="#000000">mom_error_handler::</text>
<text text-anchor="middle" x="391.5" y="-56.5" font-family="Helvetica,sans-Serif" font-size="10.00" fill="#000000">mom_error</text>
</a>
</g>
</g>
<!-- Node3&#45;&gt;Node4 -->
<g id="edge3" class="edge">
<title>Node3&#45;&gt;Node4</title>
<path fill="none" stroke="#191970" d="M292.2609,-64.5C302.5598,-64.5 313.3935,-64.5 323.966,-64.5"/>
<polygon fill="#191970" stroke="#191970" points="323.9965,-68.0001 333.9964,-64.5 323.9964,-61.0001 323.9965,-68.0001"/>
</g>
<!-- Node5 -->
<g id="node5" class="node">
<title>Node5</title>
<g id="a_node5"><a xlink:href="namespacemom__error__handler.html#ad5f00a53059c72fe2332d1436c80ca71" target="_top" xlink:title="This returns .true. if the current PE is the root PE.">
<polygon fill="#ffffff" stroke="#000000" points="485,-49.5 485,-79.5 600,-79.5 600,-49.5 485,-49.5"/>
<text text-anchor="start" x="493" y="-67.5" font-family="Helvetica,sans-Serif" font-size="10.00" fill="#000000">mom_error_handler::</text>
<text text-anchor="middle" x="542.5" y="-56.5" font-family="Helvetica,sans-Serif" font-size="10.00" fill="#000000">is_root_pe</text>
</a>
</g>
</g>
<!-- Node4&#45;&gt;Node5 -->
<g id="edge4" class="edge">
<title>Node4&#45;&gt;Node5</title>
<path fill="none" stroke="#191970" d="M449.0174,-64.5C457.4639,-64.5 466.2292,-64.5 474.8561,-64.5"/>
<polygon fill="#191970" stroke="#191970" points="474.8926,-68.0001 484.8925,-64.5 474.8925,-61.0001 474.8926,-68.0001"/>
</g>
</g>
</svg>
