<?xml version="1.0" encoding="UTF-8" standalone="no"?>
<!DOCTYPE svg PUBLIC "-//W3C//DTD SVG 1.1//EN"
 "http://www.w3.org/Graphics/SVG/1.1/DTD/svg11.dtd">
<!-- Generated by graphviz version 2.40.1 (20161225.0304)
 -->
<!-- Title: mom_ale::ale_regrid_accelerated Pages: 1 -->
<svg width="584pt" height="176pt"
 viewBox="0.00 0.00 584.00 176.00" xmlns="http://www.w3.org/2000/svg" xmlns:xlink="http://www.w3.org/1999/xlink">
<g id="graph0" class="graph" transform="scale(1 1) rotate(0) translate(4 172)">
<title>mom_ale::ale_regrid_accelerated</title>
<polygon fill="#ffffff" stroke="transparent" points="-4,4 -4,-172 580,-172 580,4 -4,4"/>
<!-- Node1 -->
<g id="node1" class="node">
<title>Node1</title>
<g id="a_node1"><a xlink:title="For a state&#45;based coordinate, accelerate the process of regridding by repeatedly applying the grid ca...">
<polygon fill="#bfbfbf" stroke="#000000" points="0,-93.5 0,-123.5 104,-123.5 104,-93.5 0,-93.5"/>
<text text-anchor="start" x="8" y="-111.5" font-family="Helvetica,sans-Serif" font-size="10.00" fill="#000000">mom_ale::ale_regrid</text>
<text text-anchor="middle" x="52" y="-100.5" font-family="Helvetica,sans-Serif" font-size="10.00" fill="#000000">_accelerated</text>
</a>
</g>
</g>
<!-- Node2 -->
<g id="node2" class="node">
<title>Node2</title>
<g id="a_node2"><a xlink:href="namespacemom__ale.html#aa892ad9bccb3137ea1f662b317be2611" target="_top" xlink:title="Updates the weights for time filtering the new grid generated in regridding.">
<polygon fill="#ffffff" stroke="#000000" points="161,-137.5 161,-167.5 271,-167.5 271,-137.5 161,-137.5"/>
<text text-anchor="start" x="169" y="-155.5" font-family="Helvetica,sans-Serif" font-size="10.00" fill="#000000">mom_ale::ale_update</text>
<text text-anchor="middle" x="216" y="-144.5" font-family="Helvetica,sans-Serif" font-size="10.00" fill="#000000">_regrid_weights</text>
</a>
</g>
</g>
<!-- Node1&#45;&gt;Node2 -->
<g id="edge1" class="edge">
<title>Node1&#45;&gt;Node2</title>
<path fill="none" stroke="#191970" d="M104.3415,-122.5428C119.1058,-126.504 135.3527,-130.8629 150.7729,-135"/>
<polygon fill="#191970" stroke="#191970" points="150.1974,-138.4694 160.7628,-137.6803 152.0114,-131.7085 150.1974,-138.4694"/>
</g>
<!-- Node3 -->
<g id="node3" class="node">
<title>Node3</title>
<g id="a_node3"><a xlink:href="namespacemom__domains.html#aac3bc012a8c214cbd73bb00668ff165e" target="_top" xlink:title="do_group_pass carries out a group halo update.">
<polygon fill="#ffffff" stroke="#000000" points="140,-99 140,-118 292,-118 292,-99 140,-99"/>
<text text-anchor="middle" x="216" y="-106" font-family="Helvetica,sans-Serif" font-size="10.00" fill="#000000">mom_domains::do_group_pass</text>
</a>
</g>
</g>
<!-- Node1&#45;&gt;Node3 -->
<g id="edge2" class="edge">
<title>Node1&#45;&gt;Node3</title>
<path fill="none" stroke="#191970" d="M104.3415,-108.5C112.4941,-108.5 121.0988,-108.5 129.7666,-108.5"/>
<polygon fill="#191970" stroke="#191970" points="129.9478,-112.0001 139.9477,-108.5 129.9477,-105.0001 129.9478,-112.0001"/>
</g>
<!-- Node4 -->
<g id="node4" class="node">
<title>Node4</title>
<g id="a_node4"><a xlink:href="namespacemom__ale.html#a7d3dbcb0719a85ea0a907279fd444539" target="_top" xlink:title="This routine takes care of remapping all variable between the old and the new grids....">
<polygon fill="#ffffff" stroke="#000000" points="164,-49.5 164,-79.5 268,-79.5 268,-49.5 164,-49.5"/>
<text text-anchor="start" x="172" y="-67.5" font-family="Helvetica,sans-Serif" font-size="10.00" fill="#000000">mom_ale::remap_all</text>
<text text-anchor="middle" x="216" y="-56.5" font-family="Helvetica,sans-Serif" font-size="10.00" fill="#000000">_state_vars</text>
</a>
</g>
</g>
<!-- Node1&#45;&gt;Node4 -->
<g id="edge3" class="edge">
<title>Node1&#45;&gt;Node4</title>
<path fill="none" stroke="#191970" d="M104.3415,-94.4572C120.1004,-90.2292 137.5482,-85.548 153.8771,-81.1671"/>
<polygon fill="#191970" stroke="#191970" points="155.1229,-84.4567 163.8744,-78.4849 153.3089,-77.6958 155.1229,-84.4567"/>
</g>
<!-- Node5 -->
<g id="node5" class="node">
<title>Node5</title>
<g id="a_node5"><a xlink:href="namespacemom__error__handler.html#a9cda07a87815f0e5594066162b4345c3" target="_top" xlink:title="Writes a message about entering a subroutine if call tree reporting is active.">
<polygon fill="#ffffff" stroke="#000000" points="328,-98.5 328,-128.5 434,-128.5 434,-98.5 328,-98.5"/>
<text text-anchor="start" x="336" y="-116.5" font-family="Helvetica,sans-Serif" font-size="10.00" fill="#000000">mom_error_handler::</text>
<text text-anchor="middle" x="381" y="-105.5" font-family="Helvetica,sans-Serif" font-size="10.00" fill="#000000">calltree_enter</text>
</a>
</g>
</g>
<!-- Node4&#45;&gt;Node5 -->
<g id="edge4" class="edge">
<title>Node4&#45;&gt;Node5</title>
<path fill="none" stroke="#191970" d="M266.8518,-79.6014C283.8692,-84.6551 303.0042,-90.3376 320.6734,-95.5848"/>
<polygon fill="#191970" stroke="#191970" points="319.7335,-98.9567 330.3161,-98.4484 321.7263,-92.2464 319.7335,-98.9567"/>
</g>
<!-- Node7 -->
<g id="node7" class="node">
<title>Node7</title>
<g id="a_node7"><a xlink:href="namespacemom__error__handler.html#a88ea67781e2ed9b73ab7eac8ea5e8578" target="_top" xlink:title="Writes a message about leaving a subroutine if call tree reporting is active.">
<polygon fill="#ffffff" stroke="#000000" points="328,-49.5 328,-79.5 434,-79.5 434,-49.5 328,-49.5"/>
<text text-anchor="start" x="336" y="-67.5" font-family="Helvetica,sans-Serif" font-size="10.00" fill="#000000">mom_error_handler::</text>
<text text-anchor="middle" x="381" y="-56.5" font-family="Helvetica,sans-Serif" font-size="10.00" fill="#000000">calltree_leave</text>
</a>
</g>
</g>
<!-- Node4&#45;&gt;Node7 -->
<g id="edge6" class="edge">
<title>Node4&#45;&gt;Node7</title>
<path fill="none" stroke="#191970" d="M268.207,-64.5C284.0007,-64.5 301.5144,-64.5 317.9382,-64.5"/>
<polygon fill="#191970" stroke="#191970" points="317.9985,-68.0001 327.9985,-64.5 317.9984,-61.0001 317.9985,-68.0001"/>
</g>
<!-- Node8 -->
<g id="node8" class="node">
<title>Node8</title>
<g id="a_node8"><a xlink:href="namespacemom__error__handler.html#a34a02e601a60f03cb97a72fe25a32853" target="_top" xlink:title="Writes a message about reaching a milestone if call tree reporting is active.">
<polygon fill="#ffffff" stroke="#000000" points="328,-.5 328,-30.5 434,-30.5 434,-.5 328,-.5"/>
<text text-anchor="start" x="336" y="-18.5" font-family="Helvetica,sans-Serif" font-size="10.00" fill="#000000">mom_error_handler::</text>
<text text-anchor="middle" x="381" y="-7.5" font-family="Helvetica,sans-Serif" font-size="10.00" fill="#000000">calltree_waypoint</text>
</a>
</g>
</g>
<!-- Node4&#45;&gt;Node8 -->
<g id="edge8" class="edge">
<title>Node4&#45;&gt;Node8</title>
<path fill="none" stroke="#191970" d="M266.8518,-49.3986C283.8692,-44.3449 303.0042,-38.6624 320.6734,-33.4152"/>
<polygon fill="#191970" stroke="#191970" points="321.7263,-36.7536 330.3161,-30.5516 319.7335,-30.0433 321.7263,-36.7536"/>
</g>
<!-- Node6 -->
<g id="node6" class="node">
<title>Node6</title>
<g id="a_node6"><a xlink:href="namespacemom__error__handler.html#ad5f00a53059c72fe2332d1436c80ca71" target="_top" xlink:title="This returns .true. if the current PE is the root PE.">
<polygon fill="#ffffff" stroke="#000000" points="470,-49.5 470,-79.5 576,-79.5 576,-49.5 470,-49.5"/>
<text text-anchor="start" x="478" y="-67.5" font-family="Helvetica,sans-Serif" font-size="10.00" fill="#000000">mom_error_handler::</text>
<text text-anchor="middle" x="523" y="-56.5" font-family="Helvetica,sans-Serif" font-size="10.00" fill="#000000">is_root_pe</text>
</a>
</g>
</g>
<!-- Node5&#45;&gt;Node6 -->
<g id="edge5" class="edge">
<title>Node5&#45;&gt;Node6</title>
<path fill="none" stroke="#191970" d="M424.7634,-98.3986C438.935,-93.5083 454.8131,-88.0293 469.6033,-82.9256"/>
<polygon fill="#191970" stroke="#191970" points="470.8254,-86.2065 479.1367,-79.6359 468.542,-79.5894 470.8254,-86.2065"/>
</g>
<!-- Node7&#45;&gt;Node6 -->
<g id="edge7" class="edge">
<title>Node7&#45;&gt;Node6</title>
<path fill="none" stroke="#191970" d="M434.2796,-64.5C442.56,-64.5 451.184,-64.5 459.6606,-64.5"/>
<polygon fill="#191970" stroke="#191970" points="459.8941,-68.0001 469.8941,-64.5 459.8941,-61.0001 459.8941,-68.0001"/>
</g>
<!-- Node8&#45;&gt;Node6 -->
<g id="edge9" class="edge">
<title>Node8&#45;&gt;Node6</title>
<path fill="none" stroke="#191970" d="M424.7634,-30.6014C438.935,-35.4917 454.8131,-40.9707 469.6033,-46.0744"/>
<polygon fill="#191970" stroke="#191970" points="468.542,-49.4106 479.1367,-49.3641 470.8254,-42.7935 468.542,-49.4106"/>
</g>
</g>
</svg>
