<?xml version="1.0" encoding="UTF-8" standalone="no"?>
<!DOCTYPE svg PUBLIC "-//W3C//DTD SVG 1.1//EN"
 "http://www.w3.org/Graphics/SVG/1.1/DTD/svg11.dtd">
<!-- Generated by graphviz version 2.40.1 (20161225.0304)
 -->
<!-- Title: mom_entrain_diffusive::determine_dskb Pages: 1 -->
<svg width="577pt" height="165pt"
 viewBox="0.00 0.00 577.00 165.00" xmlns="http://www.w3.org/2000/svg" xmlns:xlink="http://www.w3.org/1999/xlink">
<g id="graph0" class="graph" transform="scale(1 1) rotate(0) translate(4 161)">
<title>mom_entrain_diffusive::determine_dskb</title>
<polygon fill="#ffffff" stroke="transparent" points="-4,4 -4,-161 573,-161 573,4 -4,4"/>
<!-- Node1 -->
<g id="node1" class="node">
<title>Node1</title>
<g id="a_node1"><a xlink:title="This subroutine determines the reference density difference between the bottommost buffer layer and t...">
<polygon fill="#bfbfbf" stroke="#000000" points="454,-63.5 454,-93.5 569,-93.5 569,-63.5 454,-63.5"/>
<text text-anchor="start" x="462" y="-81.5" font-family="Helvetica,sans-Serif" font-size="10.00" fill="#000000">mom_entrain_diffusive</text>
<text text-anchor="middle" x="511.5" y="-70.5" font-family="Helvetica,sans-Serif" font-size="10.00" fill="#000000">::determine_dskb</text>
</a>
</g>
</g>
<!-- Node2 -->
<g id="node2" class="node">
<title>Node2</title>
<g id="a_node2"><a xlink:href="namespacemom__entrain__diffusive.html#a541b3aadc418110f7359b0ae401e4e78" target="_top" xlink:title="This subroutine determines the entrainment from above by the top interior layer (labeled kb elsewhere...">
<polygon fill="#ffffff" stroke="#000000" points="152,-126.5 152,-156.5 267,-156.5 267,-126.5 152,-126.5"/>
<text text-anchor="start" x="160" y="-144.5" font-family="Helvetica,sans-Serif" font-size="10.00" fill="#000000">mom_entrain_diffusive</text>
<text text-anchor="middle" x="209.5" y="-133.5" font-family="Helvetica,sans-Serif" font-size="10.00" fill="#000000">::determine_ea_kb</text>
</a>
</g>
</g>
<!-- Node1&#45;&gt;Node2 -->
<g id="edge1" class="edge">
<title>Node1&#45;&gt;Node2</title>
<path fill="none" stroke="#191970" d="M464.8149,-97.0023C450.0276,-102.3126 433.4951,-107.6901 418,-111.5 367.7492,-123.8557 309.3491,-131.718 267.161,-136.2794"/>
<polygon fill="#191970" stroke="#191970" points="466.0695,-100.2702 474.2517,-93.5395 463.658,-93.6986 466.0695,-100.2702"/>
</g>
<!-- Node3 -->
<g id="node3" class="node">
<title>Node3</title>
<g id="a_node3"><a xlink:href="namespacemom__entrain__diffusive.html#ae68ab2fa707778de2f92ce179729f2ff" target="_top" xlink:title="This subroutine calculates ea and eb, the rates at which a layer entrains from the layers above and b...">
<polygon fill="#ffffff" stroke="#000000" points="0,-60.5 0,-90.5 116,-90.5 116,-60.5 0,-60.5"/>
<text text-anchor="start" x="8" y="-78.5" font-family="Helvetica,sans-Serif" font-size="10.00" fill="#000000">mom_entrain_diffusive</text>
<text text-anchor="middle" x="58" y="-67.5" font-family="Helvetica,sans-Serif" font-size="10.00" fill="#000000">::entrainment_diffusive</text>
</a>
</g>
</g>
<!-- Node1&#45;&gt;Node3 -->
<g id="edge3" class="edge">
<title>Node1&#45;&gt;Node3</title>
<path fill="none" stroke="#191970" d="M443.5965,-79.3114C434.9808,-79.3893 426.2841,-79.4557 418,-79.5 299.7786,-80.1322 270.2011,-80.7772 152,-78.5 140.4094,-78.2767 128.0176,-77.9465 116.1604,-77.5859"/>
<polygon fill="#191970" stroke="#191970" points="443.6778,-82.8109 453.6439,-79.2153 443.6108,-75.8112 443.6778,-82.8109"/>
</g>
<!-- Node4 -->
<g id="node4" class="node">
<title>Node4</title>
<g id="a_node4"><a xlink:href="namespacemom__entrain__diffusive.html#adce1b1ba57f5245f1eda57e7a254d4df" target="_top" xlink:title="Given an entrainment from below for layer kb, determine a consistent entrainment from above,...">
<polygon fill="#ffffff" stroke="#000000" points="152,-38.5 152,-68.5 267,-68.5 267,-38.5 152,-38.5"/>
<text text-anchor="start" x="160" y="-56.5" font-family="Helvetica,sans-Serif" font-size="10.00" fill="#000000">mom_entrain_diffusive</text>
<text text-anchor="middle" x="209.5" y="-45.5" font-family="Helvetica,sans-Serif" font-size="10.00" fill="#000000">::f_kb_to_ea_kb</text>
</a>
</g>
</g>
<!-- Node1&#45;&gt;Node4 -->
<g id="edge4" class="edge">
<title>Node1&#45;&gt;Node4</title>
<path fill="none" stroke="#191970" d="M443.966,-72.9094C390.7883,-68.5073 317.4733,-62.4382 267.0572,-58.2647"/>
<polygon fill="#191970" stroke="#191970" points="443.7306,-76.4018 453.9853,-73.7388 444.3081,-69.4257 443.7306,-76.4018"/>
</g>
<!-- Node5 -->
<g id="node5" class="node">
<title>Node5</title>
<g id="a_node5"><a xlink:href="namespacemom__entrain__diffusive.html#ae45dbf976314c3a9e278ebcebedab109" target="_top" xlink:title="Maximize F = ent*ds_kb*I_dSkbp1 in the range min_ent &lt; ent &lt; max_ent.">
<polygon fill="#ffffff" stroke="#000000" points="303,-.5 303,-30.5 418,-30.5 418,-.5 303,-.5"/>
<text text-anchor="start" x="311" y="-18.5" font-family="Helvetica,sans-Serif" font-size="10.00" fill="#000000">mom_entrain_diffusive</text>
<text text-anchor="middle" x="360.5" y="-7.5" font-family="Helvetica,sans-Serif" font-size="10.00" fill="#000000">::find_maxf_kb</text>
</a>
</g>
</g>
<!-- Node1&#45;&gt;Node5 -->
<g id="edge6" class="edge">
<title>Node1&#45;&gt;Node5</title>
<path fill="none" stroke="#191970" d="M466.0882,-59.5533C443.8594,-50.2791 417.4704,-39.2691 396.6345,-30.576"/>
<polygon fill="#191970" stroke="#191970" points="464.7551,-62.7895 475.3317,-63.4099 467.4505,-56.3292 464.7551,-62.7895"/>
</g>
<!-- Node2&#45;&gt;Node3 -->
<g id="edge2" class="edge">
<title>Node2&#45;&gt;Node3</title>
<path fill="none" stroke="#191970" d="M165.4586,-122.3136C142.2583,-112.2066 114.2156,-99.99 92.5954,-90.5713"/>
<polygon fill="#191970" stroke="#191970" points="164.1771,-125.573 174.7428,-126.3583 166.9729,-119.1556 164.1771,-125.573"/>
</g>
<!-- Node4&#45;&gt;Node3 -->
<g id="edge5" class="edge">
<title>Node4&#45;&gt;Node3</title>
<path fill="none" stroke="#191970" d="M141.7965,-63.3315C133.2041,-64.5793 124.472,-65.8473 116.0492,-67.0704"/>
<polygon fill="#191970" stroke="#191970" points="142.399,-66.7808 151.7922,-61.88 141.393,-59.8535 142.399,-66.7808"/>
</g>
<!-- Node5&#45;&gt;Node3 -->
<g id="edge7" class="edge">
<title>Node5&#45;&gt;Node3</title>
<path fill="none" stroke="#191970" d="M292.6402,-12.9383C251.3233,-13.0398 197.8453,-16.1588 152,-28.5 126.6294,-35.3296 100.0585,-49.347 81.6651,-60.305"/>
<polygon fill="#191970" stroke="#191970" points="292.8584,-16.439 302.8705,-12.9738 292.8827,-9.439 292.8584,-16.439"/>
</g>
<!-- Node5&#45;&gt;Node4 -->
<g id="edge8" class="edge">
<title>Node5&#45;&gt;Node4</title>
<path fill="none" stroke="#191970" d="M293.2294,-32.429C284.5127,-34.6226 275.648,-36.8535 267.1075,-39.0028"/>
<polygon fill="#191970" stroke="#191970" points="294.1392,-35.8093 302.9826,-29.9746 292.4308,-29.0209 294.1392,-35.8093"/>
</g>
</g>
</svg>
