<?xml version="1.0" encoding="UTF-8" standalone="no"?>
<!DOCTYPE svg PUBLIC "-//W3C//DTD SVG 1.1//EN"
 "http://www.w3.org/Graphics/SVG/1.1/DTD/svg11.dtd">
<!-- Generated by graphviz version 2.40.1 (20161225.0304)
 -->
<!-- Title: mom_restart::open_restart_units Pages: 1 -->
<svg width="423pt" height="61pt"
 viewBox="0.00 0.00 423.00 61.00" xmlns="http://www.w3.org/2000/svg" xmlns:xlink="http://www.w3.org/1999/xlink">
<g id="graph0" class="graph" transform="scale(1 1) rotate(0) translate(4 57)">
<title>mom_restart::open_restart_units</title>
<polygon fill="#ffffff" stroke="transparent" points="-4,4 -4,-57 419,-57 419,4 -4,4"/>
<!-- Node1 -->
<g id="node1" class="node">
<title>Node1</title>
<g id="a_node1"><a xlink:title="open_restart_units determines the number of existing restart files and optionally opens them and retu...">
<polygon fill="#bfbfbf" stroke="#000000" points="0,-22.5 0,-52.5 131,-52.5 131,-22.5 0,-22.5"/>
<text text-anchor="start" x="8" y="-40.5" font-family="Helvetica,sans-Serif" font-size="10.00" fill="#000000">mom_restart::open_restart</text>
<text text-anchor="middle" x="65.5" y="-29.5" font-family="Helvetica,sans-Serif" font-size="10.00" fill="#000000">_units</text>
</a>
</g>
</g>
<!-- Node2 -->
<g id="node2" class="node">
<title>Node2</title>
<g id="a_node2"><a xlink:href="namespacemom__error__handler.html#ad5f00a53059c72fe2332d1436c80ca71" target="_top" xlink:title="This returns .true. if the current PE is the root PE.">
<polygon fill="#ffffff" stroke="#000000" points="309,-22.5 309,-52.5 415,-52.5 415,-22.5 309,-22.5"/>
<text text-anchor="start" x="317" y="-40.5" font-family="Helvetica,sans-Serif" font-size="10.00" fill="#000000">mom_error_handler::</text>
<text text-anchor="middle" x="362" y="-29.5" font-family="Helvetica,sans-Serif" font-size="10.00" fill="#000000">is_root_pe</text>
</a>
</g>
</g>
<!-- Node1&#45;&gt;Node2 -->
<g id="edge1" class="edge">
<title>Node1&#45;&gt;Node2</title>
<path fill="none" stroke="#191970" d="M131.0138,-39.7206C142.9843,-40.0454 155.366,-40.3281 167,-40.5 214.106,-41.196 225.8956,-41.2937 273,-40.5 281.3328,-40.3596 290.1026,-40.1453 298.7559,-39.8945"/>
<polygon fill="#191970" stroke="#191970" points="298.9394,-43.3906 308.8274,-39.5855 298.7247,-36.3939 298.9394,-43.3906"/>
</g>
<!-- Node3 -->
<g id="node3" class="node">
<title>Node3</title>
<g id="a_node3"><a xlink:href="namespacemom__error__handler.html#a460cfb79a06c29fc249952c2a3710d67" target="_top" xlink:title="This provides a convenient interface for writing an mpp_error message with run&#45;time filter based on a...">
<polygon fill="#ffffff" stroke="#000000" points="167,-.5 167,-30.5 273,-30.5 273,-.5 167,-.5"/>
<text text-anchor="start" x="175" y="-18.5" font-family="Helvetica,sans-Serif" font-size="10.00" fill="#000000">mom_error_handler::</text>
<text text-anchor="middle" x="220" y="-7.5" font-family="Helvetica,sans-Serif" font-size="10.00" fill="#000000">mom_error</text>
</a>
</g>
</g>
<!-- Node1&#45;&gt;Node3 -->
<g id="edge2" class="edge">
<title>Node1&#45;&gt;Node3</title>
<path fill="none" stroke="#191970" d="M131.0219,-28.17C139.4416,-26.9711 148.0517,-25.7451 156.4393,-24.5507"/>
<polygon fill="#191970" stroke="#191970" points="157.1256,-27.9884 166.5323,-23.1135 156.1388,-21.0583 157.1256,-27.9884"/>
</g>
<!-- Node3&#45;&gt;Node2 -->
<g id="edge3" class="edge">
<title>Node3&#45;&gt;Node2</title>
<path fill="none" stroke="#191970" d="M273.2796,-23.7546C281.651,-25.0516 290.3736,-26.4029 298.94,-27.7301"/>
<polygon fill="#191970" stroke="#191970" points="298.4761,-31.1999 308.8941,-29.2723 299.5479,-24.2825 298.4761,-31.1999"/>
</g>
</g>
</svg>
