<?xml version="1.0" encoding="UTF-8" standalone="no"?>
<!DOCTYPE svg PUBLIC "-//W3C//DTD SVG 1.1//EN"
 "http://www.w3.org/Graphics/SVG/1.1/DTD/svg11.dtd">
<!-- Generated by graphviz version 2.40.1 (20161225.0304)
 -->
<!-- Title: mom_mixed_layer_restrat::mixedlayer_restrat_bml Pages: 1 -->
<svg width="625pt" height="61pt"
 viewBox="0.00 0.00 625.00 61.00" xmlns="http://www.w3.org/2000/svg" xmlns:xlink="http://www.w3.org/1999/xlink">
<g id="graph0" class="graph" transform="scale(1 1) rotate(0) translate(4 57)">
<title>mom_mixed_layer_restrat::mixedlayer_restrat_bml</title>
<polygon fill="#ffffff" stroke="transparent" points="-4,4 -4,-57 621,-57 621,4 -4,4"/>
<!-- Node1 -->
<g id="node1" class="node">
<title>Node1</title>
<g id="a_node1"><a xlink:title="Calculates a restratifying flow assuming a 2&#45;layer bulk mixed layer.">
<polygon fill="#bfbfbf" stroke="#000000" points="0,-.5 0,-30.5 139,-30.5 139,-.5 0,-.5"/>
<text text-anchor="start" x="8" y="-18.5" font-family="Helvetica,sans-Serif" font-size="10.00" fill="#000000">mom_mixed_layer_restrat</text>
<text text-anchor="middle" x="69.5" y="-7.5" font-family="Helvetica,sans-Serif" font-size="10.00" fill="#000000">::mixedlayer_restrat_bml</text>
</a>
</g>
</g>
<!-- Node2 -->
<g id="node2" class="node">
<title>Node2</title>
<g id="a_node2"><a xlink:href="namespacemom__diag__mediator.html#a2e9db121a293f242f5a42e9d16d0d2e4" target="_top" xlink:title="Build/update vertical grids for diagnostic remapping.">
<polygon fill="#ffffff" stroke="#000000" points="175,-22.5 175,-52.5 315,-52.5 315,-22.5 175,-22.5"/>
<text text-anchor="start" x="183" y="-40.5" font-family="Helvetica,sans-Serif" font-size="10.00" fill="#000000">mom_diag_mediator::</text>
<text text-anchor="middle" x="245" y="-29.5" font-family="Helvetica,sans-Serif" font-size="10.00" fill="#000000">diag_update_remap_grids</text>
</a>
</g>
</g>
<!-- Node1&#45;&gt;Node2 -->
<g id="edge1" class="edge">
<title>Node1&#45;&gt;Node2</title>
<path fill="none" stroke="#191970" d="M139.1143,-24.2266C147.5748,-25.2872 156.2705,-26.3772 164.8679,-27.455"/>
<polygon fill="#191970" stroke="#191970" points="164.5377,-30.9409 174.8954,-28.712 165.4085,-23.9952 164.5377,-30.9409"/>
</g>
<!-- Node3 -->
<g id="node3" class="node">
<title>Node3</title>
<g id="a_node3"><a xlink:href="namespacemom__error__handler.html#a460cfb79a06c29fc249952c2a3710d67" target="_top" xlink:title="This provides a convenient interface for writing an mpp_error message with run&#45;time filter based on a...">
<polygon fill="#ffffff" stroke="#000000" points="351,-.5 351,-30.5 466,-30.5 466,-.5 351,-.5"/>
<text text-anchor="start" x="359" y="-18.5" font-family="Helvetica,sans-Serif" font-size="10.00" fill="#000000">mom_error_handler::</text>
<text text-anchor="middle" x="408.5" y="-7.5" font-family="Helvetica,sans-Serif" font-size="10.00" fill="#000000">mom_error</text>
</a>
</g>
</g>
<!-- Node1&#45;&gt;Node3 -->
<g id="edge4" class="edge">
<title>Node1&#45;&gt;Node3</title>
<path fill="none" stroke="#191970" d="M139.0151,-13.9951C151.0151,-13.7889 163.3678,-13.6102 175,-13.5 237.2194,-12.9103 252.7813,-12.8346 315,-13.5 323.2851,-13.5886 331.9825,-13.7214 340.5986,-13.8771"/>
<polygon fill="#191970" stroke="#191970" points="340.581,-17.3773 350.6462,-14.0693 340.715,-10.3786 340.581,-17.3773"/>
</g>
<!-- Node2&#45;&gt;Node3 -->
<g id="edge2" class="edge">
<title>Node2&#45;&gt;Node3</title>
<path fill="none" stroke="#191970" d="M315.2876,-28.0423C323.7175,-26.908 332.3133,-25.7514 340.7069,-24.622"/>
<polygon fill="#191970" stroke="#191970" points="341.3762,-28.0636 350.8201,-23.2612 340.4426,-21.1261 341.3762,-28.0636"/>
</g>
<!-- Node4 -->
<g id="node4" class="node">
<title>Node4</title>
<g id="a_node4"><a xlink:href="namespacemom__error__handler.html#ad5f00a53059c72fe2332d1436c80ca71" target="_top" xlink:title="This returns .true. if the current PE is the root PE.">
<polygon fill="#ffffff" stroke="#000000" points="502,-.5 502,-30.5 617,-30.5 617,-.5 502,-.5"/>
<text text-anchor="start" x="510" y="-18.5" font-family="Helvetica,sans-Serif" font-size="10.00" fill="#000000">mom_error_handler::</text>
<text text-anchor="middle" x="559.5" y="-7.5" font-family="Helvetica,sans-Serif" font-size="10.00" fill="#000000">is_root_pe</text>
</a>
</g>
</g>
<!-- Node3&#45;&gt;Node4 -->
<g id="edge3" class="edge">
<title>Node3&#45;&gt;Node4</title>
<path fill="none" stroke="#191970" d="M466.0174,-15.5C474.4639,-15.5 483.2292,-15.5 491.8561,-15.5"/>
<polygon fill="#191970" stroke="#191970" points="491.8926,-19.0001 501.8925,-15.5 491.8925,-12.0001 491.8926,-19.0001"/>
</g>
</g>
</svg>
