<?xml version="1.0" encoding="UTF-8" standalone="no"?>
<!DOCTYPE svg PUBLIC "-//W3C//DTD SVG 1.1//EN"
 "http://www.w3.org/Graphics/SVG/1.1/DTD/svg11.dtd">
<!-- Generated by graphviz version 2.40.1 (20161225.0304)
 -->
<!-- Title: mom_barotropic::set_dtbt Pages: 1 -->
<svg width="342pt" height="78pt"
 viewBox="0.00 0.00 342.00 77.50" xmlns="http://www.w3.org/2000/svg" xmlns:xlink="http://www.w3.org/1999/xlink">
<g id="graph0" class="graph" transform="scale(1 1) rotate(0) translate(4 73.5)">
<title>mom_barotropic::set_dtbt</title>
<polygon fill="#ffffff" stroke="transparent" points="-4,4 -4,-73.5 338,-73.5 338,4 -4,4"/>
<!-- Node1 -->
<g id="node1" class="node">
<title>Node1</title>
<g id="a_node1"><a xlink:title="This subroutine automatically determines an optimal value for dtbt based on some state of the ocean.">
<polygon fill="#bfbfbf" stroke="#000000" points="200,-28 200,-47 334,-47 334,-28 200,-28"/>
<text text-anchor="middle" x="267" y="-35" font-family="Helvetica,sans-Serif" font-size="10.00" fill="#000000">mom_barotropic::set_dtbt</text>
</a>
</g>
</g>
<!-- Node2 -->
<g id="node2" class="node">
<title>Node2</title>
<g id="a_node2"><a xlink:href="namespacemom__barotropic.html#a59244968890766632554a6d271ec4499" target="_top" xlink:title="barotropic_init initializes a number of time&#45;invariant fields used in the barotropic calculation and ...">
<polygon fill="#ffffff" stroke="#000000" points="0,-50 0,-69 164,-69 164,-50 0,-50"/>
<text text-anchor="middle" x="82" y="-57" font-family="Helvetica,sans-Serif" font-size="10.00" fill="#000000">mom_barotropic::barotropic_init</text>
</a>
</g>
</g>
<!-- Node1&#45;&gt;Node2 -->
<g id="edge1" class="edge">
<title>Node1&#45;&gt;Node2</title>
<path fill="none" stroke="#191970" d="M189.7286,-46.689C180.5817,-47.7768 171.2305,-48.8888 162.0462,-49.981"/>
<polygon fill="#191970" stroke="#191970" points="190.4325,-50.1301 199.9492,-45.4736 189.6058,-43.1791 190.4325,-50.1301"/>
</g>
<!-- Node3 -->
<g id="node3" class="node">
<title>Node3</title>
<g id="a_node3"><a xlink:href="namespacemom__dynamics__split__rk2.html#a976e700971f232fc11bc69b31d611c32" target="_top" xlink:title="RK2 splitting for time stepping MOM adiabatic dynamics.">
<polygon fill="#ffffff" stroke="#000000" points="2,-.5 2,-30.5 162,-30.5 162,-.5 2,-.5"/>
<text text-anchor="start" x="10" y="-18.5" font-family="Helvetica,sans-Serif" font-size="10.00" fill="#000000">mom_dynamics_split</text>
<text text-anchor="middle" x="82" y="-7.5" font-family="Helvetica,sans-Serif" font-size="10.00" fill="#000000">_rk2::step_mom_dyn_split_rk2</text>
</a>
</g>
</g>
<!-- Node1&#45;&gt;Node3 -->
<g id="edge2" class="edge">
<title>Node1&#45;&gt;Node3</title>
<path fill="none" stroke="#191970" d="M189.7286,-28.311C180.5817,-27.2232 171.2305,-26.1112 162.0462,-25.019"/>
<polygon fill="#191970" stroke="#191970" points="189.6058,-31.8209 199.9492,-29.5264 190.4325,-24.8699 189.6058,-31.8209"/>
</g>
</g>
</svg>
