<?xml version="1.0" encoding="UTF-8" standalone="no"?>
<!DOCTYPE svg PUBLIC "-//W3C//DTD SVG 1.1//EN"
 "http://www.w3.org/Graphics/SVG/1.1/DTD/svg11.dtd">
<!-- Generated by graphviz version 2.40.1 (20161225.0304)
 -->
<!-- Title: mom_barotropic::barotropic_init Pages: 1 -->
<!--zoomable 257 -->
<svg id="main" version="1.1" xmlns="http://www.w3.org/2000/svg" xmlns:xlink="http://www.w3.org/1999/xlink" xml:space="preserve" onload="init(evt)">
<style type="text/css"><![CDATA[
.edge:hover path { stroke: red; }
.edge:hover polygon { stroke: red; fill: red; }
]]></style>
<script type="text/javascript"><![CDATA[
var edges = document.getElementsByTagName('g');
if (edges && edges.length) {
  for (var i=0;i<edges.length;i++) {
    if (edges[i].id.substr(0,4)=='edge') {
      edges[i].setAttribute('class','edge');
    }
  }
}
]]></script>
        <defs>
                <circle id="rim" cx="0" cy="0" r="7"/>
                <circle id="rim2" cx="0" cy="0" r="3.5"/>
                <g id="zoomPlus">
                        <use xlink:href="#rim" fill="#404040">
                                <set attributeName="fill" to="#808080" begin="zoomplus.mouseover" end="zoomplus.mouseout"/>
                        </use>
                        <path d="M-4,0h8M0,-4v8" fill="none" stroke="white" stroke-width="1.5" pointer-events="none"/>
                </g>
                <g id="zoomMin">
                        <use xlink:href="#rim" fill="#404040">
                                <set attributeName="fill" to="#808080" begin="zoomminus.mouseover" end="zoomminus.mouseout"/>
                        </use>
                        <path d="M-4,0h8" fill="none" stroke="white" stroke-width="1.5" pointer-events="none"/>
                </g>
                <g id="dirArrow">
                        <path fill="none" stroke="white" stroke-width="1.5" d="M0,-3.0v7 M-2.5,-0.5L0,-3.0L2.5,-0.5"/>
                </g>
               <g id="resetDef">
                       <use xlink:href="#rim2" fill="#404040">
                               <set attributeName="fill" to="#808080" begin="reset.mouseover" end="reset.mouseout"/>
                       </use>
               </g>
        </defs>

<script type="text/javascript">
var viewWidth = 655;
var viewHeight = 257;
var sectionId = 'dynsection-5';
</script>
<script xlink:href="svgpan.js"/>
<svg id="graph" class="graph">
<g id="viewport">
<title>mom_barotropic::barotropic_init</title>
<polygon fill="#ffffff" stroke="transparent" points="-4,4 -4,-253 651,-253 651,4 -4,4"/>
<!-- Node1 -->
<g id="node1" class="node">
<title>Node1</title>
<g id="a_node1"><a xlink:title="barotropic_init initializes a number of time&#45;invariant fields used in the barotropic calculation and ...">
<polygon fill="#bfbfbf" stroke="#000000" points="0,-112 0,-131 164,-131 164,-112 0,-112"/>
<text text-anchor="middle" x="82" y="-119" font-family="Helvetica,sans-Serif" font-size="10.00" fill="#000000">mom_barotropic::barotropic_init</text>
</a>
</g>
</g>
<!-- Node2 -->
<g id="node2" class="node">
<title>Node2</title>
<g id="a_node2"><a xlink:href="namespacemom__variables.html#a26d7f4002ba856a1929f5a3962eb0e99" target="_top" xlink:title="Allocates the arrays contained within a BT_cont_type and initializes them to 0.">
<polygon fill="#ffffff" stroke="#000000" points="210.5,-169.5 210.5,-199.5 323.5,-199.5 323.5,-169.5 210.5,-169.5"/>
<text text-anchor="start" x="218.5" y="-187.5" font-family="Helvetica,sans-Serif" font-size="10.00" fill="#000000">mom_variables::alloc</text>
<text text-anchor="middle" x="267" y="-176.5" font-family="Helvetica,sans-Serif" font-size="10.00" fill="#000000">_bt_cont_type</text>
</a>
</g>
</g>
<!-- Node1&#45;&gt;Node2 -->
<g id="edge1" class="edge">
<title>Node1&#45;&gt;Node2</title>
<path fill="none" stroke="#191970" d="M110.0975,-131.0683C137.3292,-140.3418 179.3447,-154.6498 213.0463,-166.1266"/>
<polygon fill="#191970" stroke="#191970" points="212.1669,-169.5244 222.7614,-169.435 214.4235,-162.8981 212.1669,-169.5244"/>
</g>
<!-- Node3 -->
<g id="node3" class="node">
<title>Node3</title>
<g id="a_node3"><a xlink:href="namespacemom__error__handler.html#a460cfb79a06c29fc249952c2a3710d67" target="_top" xlink:title="This provides a convenient interface for writing an mpp_error message with run&#45;time filter based on a...">
<polygon fill="#ffffff" stroke="#000000" points="375.5,-147.5 375.5,-177.5 490.5,-177.5 490.5,-147.5 375.5,-147.5"/>
<text text-anchor="start" x="383.5" y="-165.5" font-family="Helvetica,sans-Serif" font-size="10.00" fill="#000000">mom_error_handler::</text>
<text text-anchor="middle" x="433" y="-154.5" font-family="Helvetica,sans-Serif" font-size="10.00" fill="#000000">mom_error</text>
</a>
</g>
</g>
<!-- Node1&#45;&gt;Node3 -->
<g id="edge7" class="edge">
<title>Node1&#45;&gt;Node3</title>
<path fill="none" stroke="#191970" d="M164.1425,-112.4931C213.8928,-109.2516 278.2897,-109.0076 334,-121.5 351.2655,-125.3716 353.7203,-131.5675 370,-138.5 374.1089,-140.2497 378.3925,-142.011 382.7074,-143.7416"/>
<polygon fill="#191970" stroke="#191970" points="381.5613,-147.0518 392.1481,-147.4645 384.1293,-140.5399 381.5613,-147.0518"/>
</g>
<!-- Node5 -->
<g id="node5" class="node">
<title>Node5</title>
<g id="a_node5"><a xlink:href="namespacemom__barotropic.html#aa60ee766449413de40cdbc19964a6556" target="_top" xlink:title="btcalc calculates the barotropic velocities from the full velocity and thickness fields,...">
<polygon fill="#ffffff" stroke="#000000" points="205,-131 205,-150 329,-150 329,-131 205,-131"/>
<text text-anchor="middle" x="267" y="-138" font-family="Helvetica,sans-Serif" font-size="10.00" fill="#000000">mom_barotropic::btcalc</text>
</a>
</g>
</g>
<!-- Node1&#45;&gt;Node5 -->
<g id="edge4" class="edge">
<title>Node1&#45;&gt;Node5</title>
<path fill="none" stroke="#191970" d="M164.2211,-129.9443C174.3198,-130.9815 184.5841,-132.0357 194.5243,-133.0565"/>
<polygon fill="#191970" stroke="#191970" points="194.4399,-136.5662 204.7452,-134.1063 195.1551,-129.6028 194.4399,-136.5662"/>
</g>
<!-- Node6 -->
<g id="node6" class="node">
<title>Node6</title>
<g id="a_node6"><a xlink:href="namespacemom__barotropic.html#a75ff2563aedd553f2799c1cfc320129e" target="_top" xlink:title="This subroutine determines the open face areas of cells for calculating the barotropic transport.">
<polygon fill="#ffffff" stroke="#000000" points="376,-.5 376,-30.5 490,-30.5 490,-.5 376,-.5"/>
<text text-anchor="start" x="384" y="-18.5" font-family="Helvetica,sans-Serif" font-size="10.00" fill="#000000">mom_barotropic::find</text>
<text text-anchor="middle" x="433" y="-7.5" font-family="Helvetica,sans-Serif" font-size="10.00" fill="#000000">_face_areas</text>
</a>
</g>
</g>
<!-- Node1&#45;&gt;Node6 -->
<g id="edge6" class="edge">
<title>Node1&#45;&gt;Node6</title>
<path fill="none" stroke="#191970" d="M93.1275,-111.8538C113.0389,-95.1934 156.7396,-61.2973 200,-45.5 253.538,-25.9497 318.0563,-18.8041 365.6133,-16.3459"/>
<polygon fill="#191970" stroke="#191970" points="365.9683,-19.8334 375.7968,-15.8775 365.6465,-12.8408 365.9683,-19.8334"/>
</g>
<!-- Node7 -->
<g id="node7" class="node">
<title>Node7</title>
<g id="a_node7"><a xlink:href="namespacemom__error__handler.html#a1c462df7b61f1296407b4af51dfeceab" target="_top" xlink:title="This provides a convenient interface for writing an informative comment.">
<polygon fill="#ffffff" stroke="#000000" points="209.5,-218.5 209.5,-248.5 324.5,-248.5 324.5,-218.5 209.5,-218.5"/>
<text text-anchor="start" x="217.5" y="-236.5" font-family="Helvetica,sans-Serif" font-size="10.00" fill="#000000">mom_error_handler::</text>
<text text-anchor="middle" x="267" y="-225.5" font-family="Helvetica,sans-Serif" font-size="10.00" fill="#000000">mom_mesg</text>
</a>
</g>
</g>
<!-- Node1&#45;&gt;Node7 -->
<g id="edge8" class="edge">
<title>Node1&#45;&gt;Node7</title>
<path fill="none" stroke="#191970" d="M92.6398,-131.1761C112.472,-148.7969 156.9869,-186.4259 200,-209.5 203.2392,-211.2376 206.6303,-212.8955 210.0944,-214.4687"/>
<polygon fill="#191970" stroke="#191970" points="208.8087,-217.7254 219.38,-218.432 211.5566,-211.2873 208.8087,-217.7254"/>
</g>
<!-- Node8 -->
<g id="node8" class="node">
<title>Node8</title>
<g id="a_node8"><a xlink:href="namespacemom__barotropic.html#a486257b675aa4e81c2d1634b5288a67f" target="_top" xlink:title="This subroutine automatically determines an optimal value for dtbt based on some state of the ocean.">
<polygon fill="#ffffff" stroke="#000000" points="200,-55 200,-74 334,-74 334,-55 200,-55"/>
<text text-anchor="middle" x="267" y="-62" font-family="Helvetica,sans-Serif" font-size="10.00" fill="#000000">mom_barotropic::set_dtbt</text>
</a>
</g>
</g>
<!-- Node1&#45;&gt;Node8 -->
<g id="edge10" class="edge">
<title>Node1&#45;&gt;Node8</title>
<path fill="none" stroke="#191970" d="M112.9648,-111.9595C144.0466,-102.3829 192.093,-87.5795 226.2535,-77.0543"/>
<polygon fill="#191970" stroke="#191970" points="227.4081,-80.361 235.9341,-74.0716 225.3469,-73.6714 227.4081,-80.361"/>
</g>
<!-- Node2&#45;&gt;Node3 -->
<g id="edge2" class="edge">
<title>Node2&#45;&gt;Node3</title>
<path fill="none" stroke="#191970" d="M323.6635,-176.9904C337.1166,-175.2074 351.5995,-173.288 365.4832,-171.448"/>
<polygon fill="#191970" stroke="#191970" points="366.01,-174.9089 375.4635,-170.1253 365.0903,-167.9696 366.01,-174.9089"/>
</g>
<!-- Node4 -->
<g id="node4" class="node">
<title>Node4</title>
<g id="a_node4"><a xlink:href="namespacemom__error__handler.html#ad5f00a53059c72fe2332d1436c80ca71" target="_top" xlink:title="This returns .true. if the current PE is the root PE.">
<polygon fill="#ffffff" stroke="#000000" points="532,-175.5 532,-205.5 647,-205.5 647,-175.5 532,-175.5"/>
<text text-anchor="start" x="540" y="-193.5" font-family="Helvetica,sans-Serif" font-size="10.00" fill="#000000">mom_error_handler::</text>
<text text-anchor="middle" x="589.5" y="-182.5" font-family="Helvetica,sans-Serif" font-size="10.00" fill="#000000">is_root_pe</text>
</a>
</g>
</g>
<!-- Node3&#45;&gt;Node4 -->
<g id="edge3" class="edge">
<title>Node3&#45;&gt;Node4</title>
<path fill="none" stroke="#191970" d="M490.8302,-172.8466C500.9918,-174.6647 511.6474,-176.5711 522.0438,-178.4312"/>
<polygon fill="#191970" stroke="#191970" points="521.4474,-181.88 531.9075,-180.1959 522.6803,-174.9894 521.4474,-181.88"/>
</g>
<!-- Node5&#45;&gt;Node3 -->
<g id="edge5" class="edge">
<title>Node5&#45;&gt;Node3</title>
<path fill="none" stroke="#191970" d="M329.2846,-148.7546C340.954,-150.3011 353.207,-151.925 365.0383,-153.493"/>
<polygon fill="#191970" stroke="#191970" points="364.9285,-157.009 375.3016,-154.8532 365.8482,-150.0697 364.9285,-157.009"/>
</g>
<!-- Node7&#45;&gt;Node4 -->
<g id="edge9" class="edge">
<title>Node7&#45;&gt;Node4</title>
<path fill="none" stroke="#191970" d="M324.6565,-225.8125C379.862,-218.4517 463.1602,-207.3453 521.5612,-199.5585"/>
<polygon fill="#191970" stroke="#191970" points="522.3502,-202.9844 531.7999,-198.1934 521.425,-196.0458 522.3502,-202.9844"/>
</g>
<!-- Node8&#45;&gt;Node3 -->
<g id="edge13" class="edge">
<title>Node8&#45;&gt;Node3</title>
<path fill="none" stroke="#191970" d="M306.2139,-74.1164C315.8842,-77.6401 325.8073,-82.3315 334,-88.5 355.8756,-104.9707 348.2903,-121.8112 370,-138.5 371.8095,-139.891 373.7088,-141.2093 375.6739,-142.458"/>
<polygon fill="#191970" stroke="#191970" points="374.203,-145.6462 384.6352,-147.4959 377.6334,-139.5444 374.203,-145.6462"/>
</g>
<!-- Node8&#45;&gt;Node6 -->
<g id="edge12" class="edge">
<title>Node8&#45;&gt;Node6</title>
<path fill="none" stroke="#191970" d="M299.4005,-54.936C320.1414,-48.8137 347.699,-40.6792 372.3968,-33.3889"/>
<polygon fill="#191970" stroke="#191970" points="373.4584,-36.7249 382.0584,-30.537 371.4767,-30.0113 373.4584,-36.7249"/>
</g>
<!-- Node9 -->
<g id="node9" class="node">
<title>Node9</title>
<g id="a_node9"><a xlink:href="namespacemom__barotropic.html#a69af48d24759b679d0431f09dc9da503" target="_top" xlink:title="This subroutine uses the BTCL types to find typical or maximum face areas, which can then be used for...">
<polygon fill="#ffffff" stroke="#000000" points="374.5,-49.5 374.5,-79.5 491.5,-79.5 491.5,-49.5 374.5,-49.5"/>
<text text-anchor="start" x="382.5" y="-67.5" font-family="Helvetica,sans-Serif" font-size="10.00" fill="#000000">mom_barotropic::bt</text>
<text text-anchor="middle" x="433" y="-56.5" font-family="Helvetica,sans-Serif" font-size="10.00" fill="#000000">_cont_to_face_areas</text>
</a>
</g>
</g>
<!-- Node8&#45;&gt;Node9 -->
<g id="edge11" class="edge">
<title>Node8&#45;&gt;Node9</title>
<path fill="none" stroke="#191970" d="M334.0401,-64.5C343.9241,-64.5 354.1219,-64.5 364.044,-64.5"/>
<polygon fill="#191970" stroke="#191970" points="364.2593,-68.0001 374.2593,-64.5 364.2592,-61.0001 364.2593,-68.0001"/>
</g>
<!-- Node10 -->
<g id="node10" class="node">
<title>Node10</title>
<g id="a_node10"><a xlink:href="namespacemom__tidal__forcing.html#a0a1564c68489a35802c626a07f4629d7" target="_top" xlink:title="This subroutine calculates returns the partial derivative of the local geopotential height with the i...">
<polygon fill="#ffffff" stroke="#000000" points="370,-98.5 370,-128.5 496,-128.5 496,-98.5 370,-98.5"/>
<text text-anchor="start" x="378" y="-116.5" font-family="Helvetica,sans-Serif" font-size="10.00" fill="#000000">mom_tidal_forcing::</text>
<text text-anchor="middle" x="433" y="-105.5" font-family="Helvetica,sans-Serif" font-size="10.00" fill="#000000">tidal_forcing_sensitivity</text>
</a>
</g>
</g>
<!-- Node8&#45;&gt;Node10 -->
<g id="edge14" class="edge">
<title>Node8&#45;&gt;Node10</title>
<path fill="none" stroke="#191970" d="M299.4005,-74.064C320.1414,-80.1863 347.699,-88.3208 372.3968,-95.6111"/>
<polygon fill="#191970" stroke="#191970" points="371.4767,-98.9887 382.0584,-98.463 373.4584,-92.2751 371.4767,-98.9887"/>
</g>
</g>
</svg>
        <g id="navigator" transform="translate(0 0)" fill="#404254">
                <rect fill="#f2f5e9" fill-opacity="0.5" stroke="#606060" stroke-width=".5" x="0" y="0" width="60" height="60"/>
                <use id="zoomplus" xlink:href="#zoomPlus" x="17" y="9" onmousedown="handleZoom(evt,'in')"/>
                <use id="zoomminus" xlink:href="#zoomMin" x="42" y="9" onmousedown="handleZoom(evt,'out')"/>
                <use id="reset" xlink:href="#resetDef" x="30" y="36" onmousedown="handleReset()"/>
                <g id="arrowUp" xlink:href="#dirArrow" transform="translate(30 24)" onmousedown="handlePan(0,-1)">
                  <use xlink:href="#rim" fill="#404040">
                        <set attributeName="fill" to="#808080" begin="arrowUp.mouseover" end="arrowUp.mouseout"/>
                  </use>
                  <path fill="none" stroke="white" stroke-width="1.5" d="M0,-3.0v7 M-2.5,-0.5L0,-3.0L2.5,-0.5"/>
                </g>
                <g id="arrowRight" xlink:href="#dirArrow" transform="rotate(90) translate(36 -43)" onmousedown="handlePan(1,0)">
                  <use xlink:href="#rim" fill="#404040">
                        <set attributeName="fill" to="#808080" begin="arrowRight.mouseover" end="arrowRight.mouseout"/>
                  </use>
                  <path fill="none" stroke="white" stroke-width="1.5" d="M0,-3.0v7 M-2.5,-0.5L0,-3.0L2.5,-0.5"/>
                </g>
                <g id="arrowDown" xlink:href="#dirArrow" transform="rotate(180) translate(-30 -48)" onmousedown="handlePan(0,1)">
                  <use xlink:href="#rim" fill="#404040">
                        <set attributeName="fill" to="#808080" begin="arrowDown.mouseover" end="arrowDown.mouseout"/>
                  </use>
                  <path fill="none" stroke="white" stroke-width="1.5" d="M0,-3.0v7 M-2.5,-0.5L0,-3.0L2.5,-0.5"/>
                </g>
                <g id="arrowLeft" xlink:href="#dirArrow" transform="rotate(270) translate(-36 17)" onmousedown="handlePan(-1,0)">
                  <use xlink:href="#rim" fill="#404040">
                        <set attributeName="fill" to="#808080" begin="arrowLeft.mouseover" end="arrowLeft.mouseout"/>
                  </use>
                  <path fill="none" stroke="white" stroke-width="1.5" d="M0,-3.0v7 M-2.5,-0.5L0,-3.0L2.5,-0.5"/>
                </g>
        </g>
        <svg viewBox="0 0 15 15" width="100%" height="30px" preserveAspectRatio="xMaxYMin meet">
         <g id="arrow_out" transform="scale(0.3 0.3)">
          <a xlink:href="namespacemom__barotropic_a59244968890766632554a6d271ec4499_cgraph_org.svg" target="_base">
           <rect id="button" ry="5" rx="5" y="6" x="6" height="38" width="38"
                fill="#f2f5e9" fill-opacity="0.5" stroke="#606060" stroke-width="1.0"/>
           <path id="arrow"
             d="M 11.500037,31.436501 C 11.940474,20.09759 22.043105,11.32322 32.158766,21.979434 L 37.068811,17.246167 C 37.068811,17.246167 37.088388,32 37.088388,32 L 22.160133,31.978069 C 22.160133,31.978069 26.997745,27.140456 26.997745,27.140456 C 18.528582,18.264221 13.291696,25.230495 11.500037,31.436501 z"
             style="fill:#404040;"/>
          </a>
         </g>
        </svg>
</svg>
