<?xml version="1.0" encoding="UTF-8" standalone="no"?>
<!DOCTYPE svg PUBLIC "-//W3C//DTD SVG 1.1//EN"
 "http://www.w3.org/Graphics/SVG/1.1/DTD/svg11.dtd">
<!-- Generated by graphviz version 2.40.1 (20161225.0304)
 -->
<!-- Title: mom_restart::restart_end Pages: 1 -->
<!--zoomable 137 -->
<svg id="main" version="1.1" xmlns="http://www.w3.org/2000/svg" xmlns:xlink="http://www.w3.org/1999/xlink" xml:space="preserve" onload="init(evt)">
<style type="text/css"><![CDATA[
.edge:hover path { stroke: red; }
.edge:hover polygon { stroke: red; fill: red; }
]]></style>
<script type="text/javascript"><![CDATA[
var edges = document.getElementsByTagName('g');
if (edges && edges.length) {
  for (var i=0;i<edges.length;i++) {
    if (edges[i].id.substr(0,4)=='edge') {
      edges[i].setAttribute('class','edge');
    }
  }
}
]]></script>
        <defs>
                <circle id="rim" cx="0" cy="0" r="7"/>
                <circle id="rim2" cx="0" cy="0" r="3.5"/>
                <g id="zoomPlus">
                        <use xlink:href="#rim" fill="#404040">
                                <set attributeName="fill" to="#808080" begin="zoomplus.mouseover" end="zoomplus.mouseout"/>
                        </use>
                        <path d="M-4,0h8M0,-4v8" fill="none" stroke="white" stroke-width="1.5" pointer-events="none"/>
                </g>
                <g id="zoomMin">
                        <use xlink:href="#rim" fill="#404040">
                                <set attributeName="fill" to="#808080" begin="zoomminus.mouseover" end="zoomminus.mouseout"/>
                        </use>
                        <path d="M-4,0h8" fill="none" stroke="white" stroke-width="1.5" pointer-events="none"/>
                </g>
                <g id="dirArrow">
                        <path fill="none" stroke="white" stroke-width="1.5" d="M0,-3.0v7 M-2.5,-0.5L0,-3.0L2.5,-0.5"/>
                </g>
               <g id="resetDef">
                       <use xlink:href="#rim2" fill="#404040">
                               <set attributeName="fill" to="#808080" begin="reset.mouseover" end="reset.mouseout"/>
                       </use>
               </g>
        </defs>

<script type="text/javascript">
var viewWidth = 578;
var viewHeight = 137;
var sectionId = 'dynsection-35';
</script>
<script xlink:href="svgpan.js"/>
<svg id="graph" class="graph">
<g id="viewport">
<title>mom_restart::restart_end</title>
<polygon fill="#ffffff" stroke="transparent" points="-4,4 -4,-133 574,-133 574,4 -4,4"/>
<!-- Node1 -->
<g id="node1" class="node">
<title>Node1</title>
<g id="a_node1"><a xlink:title="Deallocate memory associated with a MOM_restart_CS variable.">
<polygon fill="#bfbfbf" stroke="#000000" points="435,-55 435,-74 570,-74 570,-55 435,-55"/>
<text text-anchor="middle" x="502.5" y="-62" font-family="Helvetica,sans-Serif" font-size="10.00" fill="#000000">mom_restart::restart_end</text>
</a>
</g>
</g>
<!-- Node2 -->
<g id="node2" class="node">
<title>Node2</title>
<g id="a_node2"><a xlink:href="namespacemom__restart.html#a304183ab574d06ac810b41b1e82eb89c" target="_top" xlink:title="Indicate that all variables have now been registered.">
<polygon fill="#ffffff" stroke="#000000" points="288,-49.5 288,-79.5 399,-79.5 399,-49.5 288,-49.5"/>
<text text-anchor="start" x="296" y="-67.5" font-family="Helvetica,sans-Serif" font-size="10.00" fill="#000000">mom_restart::restart</text>
<text text-anchor="middle" x="343.5" y="-56.5" font-family="Helvetica,sans-Serif" font-size="10.00" fill="#000000">_init_end</text>
</a>
</g>
</g>
<!-- Node1&#45;&gt;Node2 -->
<g id="edge1" class="edge">
<title>Node1&#45;&gt;Node2</title>
<path fill="none" stroke="#191970" d="M424.579,-64.5C416.0054,-64.5 407.4073,-64.5 399.1838,-64.5"/>
<polygon fill="#191970" stroke="#191970" points="424.6085,-68.0001 434.6085,-64.5 424.6085,-61.0001 424.6085,-68.0001"/>
</g>
<!-- Node3 -->
<g id="node3" class="node">
<title>Node3</title>
<g id="a_node3"><a xlink:href="namespacemom__surface__forcing__mct.html#a9b444c1127c12220af99c66f7d38460d" target="_top" xlink:title="Initialize the surface forcing, including setting parameters and allocating permanent memory.">
<polygon fill="#ffffff" stroke="#000000" points="110,-98.5 110,-128.5 246,-128.5 246,-98.5 110,-98.5"/>
<text text-anchor="start" x="118" y="-116.5" font-family="Helvetica,sans-Serif" font-size="10.00" fill="#000000">mom_surface_forcing</text>
<text text-anchor="middle" x="178" y="-105.5" font-family="Helvetica,sans-Serif" font-size="10.00" fill="#000000">_mct::surface_forcing_init</text>
</a>
</g>
</g>
<!-- Node2&#45;&gt;Node3 -->
<g id="edge2" class="edge">
<title>Node2&#45;&gt;Node3</title>
<path fill="none" stroke="#191970" d="M282.8156,-82.467C265.0832,-87.717 245.8925,-93.3989 228.8375,-98.4484"/>
<polygon fill="#191970" stroke="#191970" points="283.8992,-85.7964 292.4941,-79.6014 281.9119,-79.0844 283.8992,-85.7964"/>
</g>
<!-- Node4 -->
<g id="node4" class="node">
<title>Node4</title>
<g id="a_node4"><a xlink:href="namespacemom__surface__forcing__nuopc.html#a06657bd6f01be304accc1f2e964fefa1" target="_top" xlink:title="Initialize the surface forcing, including setting parameters and allocating permanent memory.">
<polygon fill="#ffffff" stroke="#000000" points="104,-49.5 104,-79.5 252,-79.5 252,-49.5 104,-49.5"/>
<text text-anchor="start" x="112" y="-67.5" font-family="Helvetica,sans-Serif" font-size="10.00" fill="#000000">mom_surface_forcing</text>
<text text-anchor="middle" x="178" y="-56.5" font-family="Helvetica,sans-Serif" font-size="10.00" fill="#000000">_nuopc::surface_forcing_init</text>
</a>
</g>
</g>
<!-- Node2&#45;&gt;Node4 -->
<g id="edge3" class="edge">
<title>Node2&#45;&gt;Node4</title>
<path fill="none" stroke="#191970" d="M277.8243,-64.5C269.4189,-64.5 260.7678,-64.5 252.2385,-64.5"/>
<polygon fill="#191970" stroke="#191970" points="277.9305,-68.0001 287.9305,-64.5 277.9305,-61.0001 277.9305,-68.0001"/>
</g>
<!-- Node5 -->
<g id="node5" class="node">
<title>Node5</title>
<g id="a_node5"><a xlink:href="namespacemom__surface__forcing.html#a791cb2bd2daa4fd3f036b121995bfb6c" target="_top" xlink:title="Initialize the surface forcing module.">
<polygon fill="#ffffff" stroke="#000000" points="119,-.5 119,-30.5 237,-30.5 237,-.5 119,-.5"/>
<text text-anchor="start" x="127" y="-18.5" font-family="Helvetica,sans-Serif" font-size="10.00" fill="#000000">mom_surface_forcing</text>
<text text-anchor="middle" x="178" y="-7.5" font-family="Helvetica,sans-Serif" font-size="10.00" fill="#000000">::surface_forcing_init</text>
</a>
</g>
</g>
<!-- Node2&#45;&gt;Node5 -->
<g id="edge4" class="edge">
<title>Node2&#45;&gt;Node5</title>
<path fill="none" stroke="#191970" d="M282.8156,-46.533C265.0832,-41.283 245.8925,-35.6011 228.8375,-30.5516"/>
<polygon fill="#191970" stroke="#191970" points="281.9119,-49.9156 292.4941,-49.3986 283.8992,-43.2036 281.9119,-49.9156"/>
</g>
<!-- Node6 -->
<g id="node6" class="node">
<title>Node6</title>
<g id="a_node6"><a xlink:href="MOM__driver_8F90.html#a08fffeb2d8e8acbf9ed4609be6d258c6" target="_top" xlink:title=" ">
<polygon fill="#ffffff" stroke="#000000" points="0,-6 0,-25 68,-25 68,-6 0,-6"/>
<text text-anchor="middle" x="34" y="-13" font-family="Helvetica,sans-Serif" font-size="10.00" fill="#000000">mom_main</text>
</a>
</g>
</g>
<!-- Node5&#45;&gt;Node6 -->
<g id="edge5" class="edge">
<title>Node5&#45;&gt;Node6</title>
<path fill="none" stroke="#191970" d="M108.4379,-15.5C94.4124,-15.5 80.2635,-15.5 68.1231,-15.5"/>
<polygon fill="#191970" stroke="#191970" points="108.5983,-19.0001 118.5983,-15.5 108.5983,-12.0001 108.5983,-19.0001"/>
</g>
</g>
</svg>
        <g id="navigator" transform="translate(0 0)" fill="#404254">
                <rect fill="#f2f5e9" fill-opacity="0.5" stroke="#606060" stroke-width=".5" x="0" y="0" width="60" height="60"/>
                <use id="zoomplus" xlink:href="#zoomPlus" x="17" y="9" onmousedown="handleZoom(evt,'in')"/>
                <use id="zoomminus" xlink:href="#zoomMin" x="42" y="9" onmousedown="handleZoom(evt,'out')"/>
                <use id="reset" xlink:href="#resetDef" x="30" y="36" onmousedown="handleReset()"/>
                <g id="arrowUp" xlink:href="#dirArrow" transform="translate(30 24)" onmousedown="handlePan(0,-1)">
                  <use xlink:href="#rim" fill="#404040">
                        <set attributeName="fill" to="#808080" begin="arrowUp.mouseover" end="arrowUp.mouseout"/>
                  </use>
                  <path fill="none" stroke="white" stroke-width="1.5" d="M0,-3.0v7 M-2.5,-0.5L0,-3.0L2.5,-0.5"/>
                </g>
                <g id="arrowRight" xlink:href="#dirArrow" transform="rotate(90) translate(36 -43)" onmousedown="handlePan(1,0)">
                  <use xlink:href="#rim" fill="#404040">
                        <set attributeName="fill" to="#808080" begin="arrowRight.mouseover" end="arrowRight.mouseout"/>
                  </use>
                  <path fill="none" stroke="white" stroke-width="1.5" d="M0,-3.0v7 M-2.5,-0.5L0,-3.0L2.5,-0.5"/>
                </g>
                <g id="arrowDown" xlink:href="#dirArrow" transform="rotate(180) translate(-30 -48)" onmousedown="handlePan(0,1)">
                  <use xlink:href="#rim" fill="#404040">
                        <set attributeName="fill" to="#808080" begin="arrowDown.mouseover" end="arrowDown.mouseout"/>
                  </use>
                  <path fill="none" stroke="white" stroke-width="1.5" d="M0,-3.0v7 M-2.5,-0.5L0,-3.0L2.5,-0.5"/>
                </g>
                <g id="arrowLeft" xlink:href="#dirArrow" transform="rotate(270) translate(-36 17)" onmousedown="handlePan(-1,0)">
                  <use xlink:href="#rim" fill="#404040">
                        <set attributeName="fill" to="#808080" begin="arrowLeft.mouseover" end="arrowLeft.mouseout"/>
                  </use>
                  <path fill="none" stroke="white" stroke-width="1.5" d="M0,-3.0v7 M-2.5,-0.5L0,-3.0L2.5,-0.5"/>
                </g>
        </g>
        <svg viewBox="0 0 15 15" width="100%" height="30px" preserveAspectRatio="xMaxYMin meet">
         <g id="arrow_out" transform="scale(0.3 0.3)">
          <a xlink:href="namespacemom__restart_ab1ebc8fc62c81dd175b09d376ca2a564_icgraph_org.svg" target="_base">
           <rect id="button" ry="5" rx="5" y="6" x="6" height="38" width="38"
                fill="#f2f5e9" fill-opacity="0.5" stroke="#606060" stroke-width="1.0"/>
           <path id="arrow"
             d="M 11.500037,31.436501 C 11.940474,20.09759 22.043105,11.32322 32.158766,21.979434 L 37.068811,17.246167 C 37.068811,17.246167 37.088388,32 37.088388,32 L 22.160133,31.978069 C 22.160133,31.978069 26.997745,27.140456 26.997745,27.140456 C 18.528582,18.264221 13.291696,25.230495 11.500037,31.436501 z"
             style="fill:#404040;"/>
          </a>
         </g>
        </svg>
</svg>
