<?xml version="1.0" encoding="UTF-8" standalone="no"?>
<!DOCTYPE svg PUBLIC "-//W3C//DTD SVG 1.1//EN"
 "http://www.w3.org/Graphics/SVG/1.1/DTD/svg11.dtd">
<!-- Generated by graphviz version 2.40.1 (20161225.0304)
 -->
<!-- Title: ocn_cap_methods::ocn_export Pages: 1 -->
<svg width="322pt" height="66pt"
 viewBox="0.00 0.00 322.00 66.00" xmlns="http://www.w3.org/2000/svg" xmlns:xlink="http://www.w3.org/1999/xlink">
<g id="graph0" class="graph" transform="scale(1 1) rotate(0) translate(4 62)">
<title>ocn_cap_methods::ocn_export</title>
<polygon fill="#ffffff" stroke="transparent" points="-4,4 -4,-62 318,-62 318,4 -4,4"/>
<!-- Node1 -->
<g id="node1" class="node">
<title>Node1</title>
<g id="a_node1"><a xlink:title="Maps outgoing ocean data to MCT attribute vector real array.">
<polygon fill="#bfbfbf" stroke="#000000" points="189,-14 189,-44 314,-44 314,-14 189,-14"/>
<text text-anchor="start" x="197" y="-32" font-family="Helvetica,sans-Serif" font-size="10.00" fill="#000000">ocn_cap_methods::ocn</text>
<text text-anchor="middle" x="251.5" y="-21" font-family="Helvetica,sans-Serif" font-size="10.00" fill="#000000">_export</text>
</a>
</g>
</g>
<!-- Node2 -->
<g id="node2" class="node">
<title>Node2</title>
<g id="a_node2"><a xlink:href="namespaceocn__comp__mct.html#adfe794cbbae40df4bdb9fcec95d4ff9c" target="_top" xlink:title="This subroutine initializes MOM6.">
<polygon fill="#ffffff" stroke="#000000" points=".5,-38.5 .5,-57.5 152.5,-57.5 152.5,-38.5 .5,-38.5"/>
<text text-anchor="middle" x="76.5" y="-45.5" font-family="Helvetica,sans-Serif" font-size="10.00" fill="#000000">ocn_comp_mct::ocn_init_mct</text>
</a>
</g>
</g>
<!-- Node1&#45;&gt;Node2 -->
<g id="edge1" class="edge">
<title>Node1&#45;&gt;Node2</title>
<path fill="none" stroke="#191970" d="M178.7514,-36.8984C170.0826,-37.8396 161.2149,-38.8024 152.502,-39.7484"/>
<polygon fill="#191970" stroke="#191970" points="179.2515,-40.3648 188.8153,-35.8058 178.4959,-33.4057 179.2515,-40.3648"/>
</g>
<!-- Node3 -->
<g id="node3" class="node">
<title>Node3</title>
<g id="a_node3"><a xlink:href="namespaceocn__comp__mct.html#a958c09d3b1e3569c07e0f29127b6819e" target="_top" xlink:title="Step forward ocean model for coupling interval.">
<polygon fill="#ffffff" stroke="#000000" points="0,-.5 0,-19.5 153,-19.5 153,-.5 0,-.5"/>
<text text-anchor="middle" x="76.5" y="-7.5" font-family="Helvetica,sans-Serif" font-size="10.00" fill="#000000">ocn_comp_mct::ocn_run_mct</text>
</a>
</g>
</g>
<!-- Node1&#45;&gt;Node3 -->
<g id="edge2" class="edge">
<title>Node1&#45;&gt;Node3</title>
<path fill="none" stroke="#191970" d="M178.6431,-21.0898C170.2098,-20.1742 161.5897,-19.2383 153.1084,-18.3175"/>
<polygon fill="#191970" stroke="#191970" points="178.4959,-24.5943 188.8153,-22.1942 179.2515,-17.6352 178.4959,-24.5943"/>
</g>
</g>
</svg>
