<?xml version="1.0" encoding="UTF-8" standalone="no"?>
<!DOCTYPE svg PUBLIC "-//W3C//DTD SVG 1.1//EN"
 "http://www.w3.org/Graphics/SVG/1.1/DTD/svg11.dtd">
<!-- Generated by graphviz version 2.40.1 (20161225.0304)
 -->
<!-- Title: mom_domains::get_domain_extent_dsamp2 Pages: 1 -->
<svg width="592pt" height="88pt"
 viewBox="0.00 0.00 592.00 88.00" xmlns="http://www.w3.org/2000/svg" xmlns:xlink="http://www.w3.org/1999/xlink">
<g id="graph0" class="graph" transform="scale(1 1) rotate(0) translate(4 84)">
<title>mom_domains::get_domain_extent_dsamp2</title>
<polygon fill="#ffffff" stroke="transparent" points="-4,4 -4,-84 588,-84 588,4 -4,4"/>
<!-- Node1 -->
<g id="node1" class="node">
<title>Node1</title>
<g id="a_node1"><a xlink:title=" ">
<polygon fill="#bfbfbf" stroke="#000000" points="439,-24.5 439,-54.5 584,-54.5 584,-24.5 439,-24.5"/>
<text text-anchor="start" x="447" y="-42.5" font-family="Helvetica,sans-Serif" font-size="10.00" fill="#000000">mom_domains::get_domain</text>
<text text-anchor="middle" x="511.5" y="-31.5" font-family="Helvetica,sans-Serif" font-size="10.00" fill="#000000">_extent_dsamp2</text>
</a>
</g>
</g>
<!-- Node2 -->
<g id="node2" class="node">
<title>Node2</title>
<g id="a_node2"><a xlink:href="namespacemom__grid.html#a06d585b4319f18d7d7fac2afceb08205" target="_top" xlink:title="MOM_grid_init initializes the ocean grid array sizes and grid memory.">
<polygon fill="#ffffff" stroke="#000000" points="269,-30 269,-49 403,-49 403,-30 269,-30"/>
<text text-anchor="middle" x="336" y="-37" font-family="Helvetica,sans-Serif" font-size="10.00" fill="#000000">mom_grid::mom_grid_init</text>
</a>
</g>
</g>
<!-- Node1&#45;&gt;Node2 -->
<g id="edge1" class="edge">
<title>Node1&#45;&gt;Node2</title>
<path fill="none" stroke="#191970" d="M428.8357,-39.5C420.2624,-39.5 411.624,-39.5 403.2496,-39.5"/>
<polygon fill="#191970" stroke="#191970" points="428.8506,-43.0001 438.8506,-39.5 428.8506,-36.0001 428.8506,-43.0001"/>
</g>
<!-- Node3 -->
<g id="node3" class="node">
<title>Node3</title>
<g id="a_node3"><a xlink:href="namespacemom__oda__driver__mod.html#aaaf67b8d0e0db3ba3dfe09e24d2b8b24" target="_top" xlink:title="initialize First_guess (prior) and Analysis grid information for all ensemble members">
<polygon fill="#ffffff" stroke="#000000" points="107.5,-49.5 107.5,-79.5 229.5,-79.5 229.5,-49.5 107.5,-49.5"/>
<text text-anchor="start" x="115.5" y="-67.5" font-family="Helvetica,sans-Serif" font-size="10.00" fill="#000000">mom_oda_driver_mod</text>
<text text-anchor="middle" x="168.5" y="-56.5" font-family="Helvetica,sans-Serif" font-size="10.00" fill="#000000">::init_oda</text>
</a>
</g>
</g>
<!-- Node2&#45;&gt;Node3 -->
<g id="edge2" class="edge">
<title>Node2&#45;&gt;Node3</title>
<path fill="none" stroke="#191970" d="M262.274,-50.5039C251.3745,-52.1307 240.2451,-53.7918 229.6388,-55.3748"/>
<polygon fill="#191970" stroke="#191970" points="262.8239,-53.9607 272.1976,-49.0227 261.7905,-47.0374 262.8239,-53.9607"/>
</g>
<!-- Node4 -->
<g id="node4" class="node">
<title>Node4</title>
<g id="a_node4"><a xlink:href="namespacemom__ice__shelf.html#a5990f9918493ff4984245eac74e5f4d9" target="_top" xlink:title="Initializes shelf model data, parameters and diagnostics.">
<polygon fill="#ffffff" stroke="#000000" points="104,-.5 104,-30.5 233,-30.5 233,-.5 104,-.5"/>
<text text-anchor="start" x="112" y="-18.5" font-family="Helvetica,sans-Serif" font-size="10.00" fill="#000000">mom_ice_shelf::initialize</text>
<text text-anchor="middle" x="168.5" y="-7.5" font-family="Helvetica,sans-Serif" font-size="10.00" fill="#000000">_ice_shelf</text>
</a>
</g>
</g>
<!-- Node2&#45;&gt;Node4 -->
<g id="edge3" class="edge">
<title>Node2&#45;&gt;Node4</title>
<path fill="none" stroke="#191970" d="M259.1424,-28.4876C250.4152,-27.2371 241.5875,-25.9722 233.0418,-24.7478"/>
<polygon fill="#191970" stroke="#191970" points="258.9229,-31.9918 269.3183,-29.9456 259.9158,-25.0626 258.9229,-31.9918"/>
</g>
<!-- Node5 -->
<g id="node5" class="node">
<title>Node5</title>
<g id="a_node5"><a xlink:href="MOM__driver_8F90.html#a08fffeb2d8e8acbf9ed4609be6d258c6" target="_top" xlink:title=" ">
<polygon fill="#ffffff" stroke="#000000" points="0,-6 0,-25 68,-25 68,-6 0,-6"/>
<text text-anchor="middle" x="34" y="-13" font-family="Helvetica,sans-Serif" font-size="10.00" fill="#000000">mom_main</text>
</a>
</g>
</g>
<!-- Node4&#45;&gt;Node5 -->
<g id="edge4" class="edge">
<title>Node4&#45;&gt;Node5</title>
<path fill="none" stroke="#191970" d="M93.5943,-15.5C84.7579,-15.5 76.1,-15.5 68.2418,-15.5"/>
<polygon fill="#191970" stroke="#191970" points="93.6139,-19.0001 103.6138,-15.5 93.6138,-12.0001 93.6139,-19.0001"/>
</g>
</g>
</svg>
