<?xml version="1.0" encoding="UTF-8" standalone="no"?>
<!DOCTYPE svg PUBLIC "-//W3C//DTD SVG 1.1//EN"
 "http://www.w3.org/Graphics/SVG/1.1/DTD/svg11.dtd">
<!-- Generated by graphviz version 2.40.1 (20161225.0304)
 -->
<!-- Title: mom_coms::increment_ints Pages: 1 -->
<svg width="318pt" height="165pt"
 viewBox="0.00 0.00 318.00 164.50" xmlns="http://www.w3.org/2000/svg" xmlns:xlink="http://www.w3.org/1999/xlink">
<g id="graph0" class="graph" transform="scale(1 1) rotate(0) translate(4 160.5)">
<title>mom_coms::increment_ints</title>
<polygon fill="#ffffff" stroke="transparent" points="-4,4 -4,-160.5 314,-160.5 314,4 -4,4"/>
<!-- Node1 -->
<g id="node1" class="node">
<title>Node1</title>
<g id="a_node1"><a xlink:title="Increment an array of integers that constitutes an extended&#45;fixed&#45;point representation with a another...">
<polygon fill="#bfbfbf" stroke="#000000" points="167,-77 167,-96 310,-96 310,-77 167,-77"/>
<text text-anchor="middle" x="238.5" y="-84" font-family="Helvetica,sans-Serif" font-size="10.00" fill="#000000">mom_coms::increment_ints</text>
</a>
</g>
</g>
<!-- Node2 -->
<g id="node2" class="node">
<title>Node2</title>
<g id="a_node2"><a xlink:href="namespacemom__coms.html#ac9cda4ec7606fa2e47d79d759d9e6694" target="_top" xlink:title="Subract one extended&#45;fixed&#45;point number from another.">
<polygon fill="#ffffff" stroke="#000000" points="4.5,-137 4.5,-156 126.5,-156 126.5,-137 4.5,-137"/>
<text text-anchor="middle" x="65.5" y="-144" font-family="Helvetica,sans-Serif" font-size="10.00" fill="#000000">mom_coms::efp_minus</text>
</a>
</g>
</g>
<!-- Node1&#45;&gt;Node2 -->
<g id="edge1" class="edge">
<title>Node1&#45;&gt;Node2</title>
<path fill="none" stroke="#191970" d="M205.7272,-99.8011C184.562,-108.1915 156.3425,-119.0075 131,-127.5 121.1205,-130.8107 110.2934,-134.0904 100.3376,-136.9692"/>
<polygon fill="#191970" stroke="#191970" points="207.2221,-102.9731 215.2128,-96.0161 204.6278,-96.4715 207.2221,-102.9731"/>
</g>
<!-- Node3 -->
<g id="node3" class="node">
<title>Node3</title>
<g id="a_node3"><a xlink:href="namespacemom__coms.html#abfb8af92b0a6ee8b7f5d8391f6893977" target="_top" xlink:title="Add two extended&#45;fixed&#45;point numbers.">
<polygon fill="#ffffff" stroke="#000000" points="8.5,-99 8.5,-118 122.5,-118 122.5,-99 8.5,-99"/>
<text text-anchor="middle" x="65.5" y="-106" font-family="Helvetica,sans-Serif" font-size="10.00" fill="#000000">mom_coms::efp_plus</text>
</a>
</g>
</g>
<!-- Node1&#45;&gt;Node3 -->
<g id="edge2" class="edge">
<title>Node1&#45;&gt;Node3</title>
<path fill="none" stroke="#191970" d="M156.7686,-96.8936C145.199,-98.3649 133.5153,-99.8507 122.5488,-101.2452"/>
<polygon fill="#191970" stroke="#191970" points="157.4069,-100.3407 166.8855,-95.607 156.5238,-93.3966 157.4069,-100.3407"/>
</g>
<!-- Node4 -->
<g id="node4" class="node">
<title>Node4</title>
<g id="a_node4"><a xlink:href="namespacemom__coms.html#a99e145acc9227dad1bddc6cf211e4daf" target="_top" xlink:title="This subroutine uses a conversion to an integer representation of real numbers to give an order&#45;invar...">
<polygon fill="#ffffff" stroke="#000000" points="0,-49.5 0,-79.5 131,-79.5 131,-49.5 0,-49.5"/>
<text text-anchor="start" x="8" y="-67.5" font-family="Helvetica,sans-Serif" font-size="10.00" fill="#000000">mom_coms::reproducing</text>
<text text-anchor="middle" x="65.5" y="-56.5" font-family="Helvetica,sans-Serif" font-size="10.00" fill="#000000">_sum_2d</text>
</a>
</g>
</g>
<!-- Node1&#45;&gt;Node4 -->
<g id="edge3" class="edge">
<title>Node1&#45;&gt;Node4</title>
<path fill="none" stroke="#191970" d="M156.8545,-76.1173C148.2673,-75.0253 139.616,-73.9252 131.2407,-72.8601"/>
<polygon fill="#191970" stroke="#191970" points="156.5238,-79.6034 166.8855,-77.393 157.4069,-72.6593 156.5238,-79.6034"/>
</g>
<!-- Node5 -->
<g id="node5" class="node">
<title>Node5</title>
<g id="a_node5"><a xlink:href="namespacemom__coms.html#aa21533e0badf43b331b5f7a9730c005f" target="_top" xlink:title="This subroutine uses a conversion to an integer representation of real numbers to give an order&#45;invar...">
<polygon fill="#ffffff" stroke="#000000" points="0,-.5 0,-30.5 131,-30.5 131,-.5 0,-.5"/>
<text text-anchor="start" x="8" y="-18.5" font-family="Helvetica,sans-Serif" font-size="10.00" fill="#000000">mom_coms::reproducing</text>
<text text-anchor="middle" x="65.5" y="-7.5" font-family="Helvetica,sans-Serif" font-size="10.00" fill="#000000">_sum_3d</text>
</a>
</g>
</g>
<!-- Node1&#45;&gt;Node5 -->
<g id="edge4" class="edge">
<title>Node1&#45;&gt;Node5</title>
<path fill="none" stroke="#191970" d="M207.5338,-72.8633C186.1288,-63.5321 156.9469,-50.9983 131,-40.5 122.8762,-37.213 114.1408,-33.7975 105.7806,-30.5856"/>
<polygon fill="#191970" stroke="#191970" points="206.2171,-76.1074 216.7818,-76.9064 209.0212,-69.6936 206.2171,-76.1074"/>
</g>
</g>
</svg>
