<?xml version="1.0" encoding="UTF-8" standalone="no"?>
<!DOCTYPE svg PUBLIC "-//W3C//DTD SVG 1.1//EN"
 "http://www.w3.org/Graphics/SVG/1.1/DTD/svg11.dtd">
<!-- Generated by graphviz version 2.40.1 (20161225.0304)
 -->
<!-- Title: mom_eos::calculate_specific_vol_derivs Pages: 1 -->
<svg width="706pt" height="78pt"
 viewBox="0.00 0.00 706.00 77.50" xmlns="http://www.w3.org/2000/svg" xmlns:xlink="http://www.w3.org/1999/xlink">
<g id="graph0" class="graph" transform="scale(1 1) rotate(0) translate(4 73.5)">
<title>mom_eos::calculate_specific_vol_derivs</title>
<polygon fill="#ffffff" stroke="transparent" points="-4,4 -4,-73.5 702,-73.5 702,4 -4,4"/>
<!-- Node1 -->
<g id="node1" class="node">
<title>Node1</title>
<g id="a_node1"><a xlink:title="Calls the appropriate subroutine to calculate specific volume derivatives for an array.">
<polygon fill="#bfbfbf" stroke="#000000" points="586,-22.5 586,-52.5 698,-52.5 698,-22.5 586,-22.5"/>
<text text-anchor="start" x="594" y="-40.5" font-family="Helvetica,sans-Serif" font-size="10.00" fill="#000000">mom_eos::calculate</text>
<text text-anchor="middle" x="642" y="-29.5" font-family="Helvetica,sans-Serif" font-size="10.00" fill="#000000">_specific_vol_derivs</text>
</a>
</g>
</g>
<!-- Node2 -->
<g id="node2" class="node">
<title>Node2</title>
<g id="a_node2"><a xlink:href="namespacemom__diabatic__aux.html#ae7a279c765fa370c302532c13a1adaca" target="_top" xlink:title="Update the thickness, temperature, and salinity due to thermodynamic boundary forcing (contained in f...">
<polygon fill="#ffffff" stroke="#000000" points="323,-50 323,-69 550,-69 550,-50 323,-50"/>
<text text-anchor="middle" x="436.5" y="-57" font-family="Helvetica,sans-Serif" font-size="10.00" fill="#000000">mom_diabatic_aux::applyboundaryfluxesinout</text>
</a>
</g>
</g>
<!-- Node1&#45;&gt;Node2 -->
<g id="edge1" class="edge">
<title>Node1&#45;&gt;Node2</title>
<path fill="none" stroke="#191970" d="M575.5562,-44.6132C559.5733,-46.3243 542.2455,-48.1793 525.4214,-49.9804"/>
<polygon fill="#191970" stroke="#191970" points="576.2756,-48.0563 585.8462,-43.5116 575.5304,-41.096 576.2756,-48.0563"/>
</g>
<!-- Node3 -->
<g id="node3" class="node">
<title>Node3</title>
<g id="a_node3"><a xlink:href="namespacemom__diapyc__energy__req.html#aca27fbd2a716b8565b0b754a417479d5" target="_top" xlink:title="This subroutine uses a substantially refactored tridiagonal equation for diapycnal mixing of temperat...">
<polygon fill="#ffffff" stroke="#000000" points="368,-.5 368,-30.5 505,-30.5 505,-.5 368,-.5"/>
<text text-anchor="start" x="376" y="-18.5" font-family="Helvetica,sans-Serif" font-size="10.00" fill="#000000">mom_diapyc_energy_req</text>
<text text-anchor="middle" x="436.5" y="-7.5" font-family="Helvetica,sans-Serif" font-size="10.00" fill="#000000">::diapyc_energy_req_calc</text>
</a>
</g>
</g>
<!-- Node1&#45;&gt;Node3 -->
<g id="edge2" class="edge">
<title>Node1&#45;&gt;Node3</title>
<path fill="none" stroke="#191970" d="M575.6754,-30.3996C553.0849,-27.9811 527.796,-25.2738 505.0356,-22.8371"/>
<polygon fill="#191970" stroke="#191970" points="575.5304,-33.904 585.8462,-31.4884 576.2756,-26.9437 575.5304,-33.904"/>
</g>
<!-- Node4 -->
<g id="node4" class="node">
<title>Node4</title>
<g id="a_node4"><a xlink:href="namespacemom__diapyc__energy__req.html#a0bf0dd1f3ae4f7f66fb000322f18064e" target="_top" xlink:title="This subroutine helps test the accuracy of the diapycnal mixing energy requirement code by writing di...">
<polygon fill="#ffffff" stroke="#000000" points="150,-.5 150,-30.5 287,-30.5 287,-.5 150,-.5"/>
<text text-anchor="start" x="158" y="-18.5" font-family="Helvetica,sans-Serif" font-size="10.00" fill="#000000">mom_diapyc_energy_req</text>
<text text-anchor="middle" x="218.5" y="-7.5" font-family="Helvetica,sans-Serif" font-size="10.00" fill="#000000">::diapyc_energy_req_test</text>
</a>
</g>
</g>
<!-- Node3&#45;&gt;Node4 -->
<g id="edge3" class="edge">
<title>Node3&#45;&gt;Node4</title>
<path fill="none" stroke="#191970" d="M357.7214,-15.5C334.6442,-15.5 309.6045,-15.5 287.2065,-15.5"/>
<polygon fill="#191970" stroke="#191970" points="357.8227,-19.0001 367.8227,-15.5 357.8226,-12.0001 357.8227,-19.0001"/>
</g>
<!-- Node5 -->
<g id="node5" class="node">
<title>Node5</title>
<g id="a_node5"><a xlink:href="namespacemom__diabatic__driver.html#a9005de9f3ad26b32de53e3cd9826b9b9" target="_top" xlink:title="This subroutine imposes the diapycnal mass fluxes and the accompanying diapycnal advection of momentu...">
<polygon fill="#ffffff" stroke="#000000" points="0,-.5 0,-30.5 114,-30.5 114,-.5 0,-.5"/>
<text text-anchor="start" x="8" y="-18.5" font-family="Helvetica,sans-Serif" font-size="10.00" fill="#000000">mom_diabatic_driver</text>
<text text-anchor="middle" x="57" y="-7.5" font-family="Helvetica,sans-Serif" font-size="10.00" fill="#000000">::diabatic</text>
</a>
</g>
</g>
<!-- Node4&#45;&gt;Node5 -->
<g id="edge4" class="edge">
<title>Node4&#45;&gt;Node5</title>
<path fill="none" stroke="#191970" d="M139.4999,-15.5C130.9161,-15.5 122.3061,-15.5 114.0578,-15.5"/>
<polygon fill="#191970" stroke="#191970" points="139.541,-19.0001 149.541,-15.5 139.541,-12.0001 139.541,-19.0001"/>
</g>
</g>
</svg>
