<?xml version="1.0" encoding="UTF-8" standalone="no"?>
<!DOCTYPE svg PUBLIC "-//W3C//DTD SVG 1.1//EN"
 "http://www.w3.org/Graphics/SVG/1.1/DTD/svg11.dtd">
<!-- Generated by graphviz version 2.40.1 (20161225.0304)
 -->
<!-- Title: mom_checksums::chk_sum_msg_nsew Pages: 1 -->
<svg width="491pt" height="318pt"
 viewBox="0.00 0.00 491.00 317.50" xmlns="http://www.w3.org/2000/svg" xmlns:xlink="http://www.w3.org/1999/xlink">
<g id="graph0" class="graph" transform="scale(1 1) rotate(0) translate(4 313.5)">
<title>mom_checksums::chk_sum_msg_nsew</title>
<polygon fill="#ffffff" stroke="transparent" points="-4,4 -4,-313.5 487,-313.5 487,4 -4,4"/>
<!-- Node1 -->
<g id="node1" class="node">
<title>Node1</title>
<g id="a_node1"><a xlink:title="Write a message including checksums of non&#45;shifted and laterally shifted arrays.">
<polygon fill="#bfbfbf" stroke="#000000" points="367,-128 367,-158 483,-158 483,-128 367,-128"/>
<text text-anchor="start" x="375" y="-146" font-family="Helvetica,sans-Serif" font-size="10.00" fill="#000000">mom_checksums::chk</text>
<text text-anchor="middle" x="425" y="-135" font-family="Helvetica,sans-Serif" font-size="10.00" fill="#000000">_sum_msg_nsew</text>
</a>
</g>
</g>
<!-- Node2 -->
<g id="node2" class="node">
<title>Node2</title>
<g id="a_node2"><a xlink:href="namespacemom__checksums.html#a49d2774940029da8ff95cf4c9cf578fd" target="_top" xlink:title="Checksums a 2d array staggered at corner points.">
<polygon fill="#ffffff" stroke="#000000" points="170,-277.5 170,-296.5 331,-296.5 331,-277.5 170,-277.5"/>
<text text-anchor="middle" x="250.5" y="-284.5" font-family="Helvetica,sans-Serif" font-size="10.00" fill="#000000">mom_checksums::chksum_b_2d</text>
</a>
</g>
</g>
<!-- Node1&#45;&gt;Node2 -->
<g id="edge1" class="edge">
<title>Node1&#45;&gt;Node2</title>
<path fill="none" stroke="#191970" d="M411.5817,-166.8607C395.6064,-193.2196 366.5641,-235.2074 331,-260 319.9958,-267.6713 306.6431,-273.3004 294.002,-277.3699"/>
<polygon fill="#191970" stroke="#191970" points="414.6002,-168.6322 416.6767,-158.2428 408.5745,-165.0697 414.6002,-168.6322"/>
</g>
<!-- Node4 -->
<g id="node4" class="node">
<title>Node4</title>
<g id="a_node4"><a xlink:href="namespacemom__checksums.html#a4f6f9fc4c335aa2c0e4457a236d49b14" target="_top" xlink:title="Checksums a 3d array staggered at corner points.">
<polygon fill="#ffffff" stroke="#000000" points="170,-231.5 170,-250.5 331,-250.5 331,-231.5 170,-231.5"/>
<text text-anchor="middle" x="250.5" y="-238.5" font-family="Helvetica,sans-Serif" font-size="10.00" fill="#000000">mom_checksums::chksum_b_3d</text>
</a>
</g>
</g>
<!-- Node1&#45;&gt;Node4 -->
<g id="edge3" class="edge">
<title>Node1&#45;&gt;Node4</title>
<path fill="none" stroke="#191970" d="M402.8385,-165.4097C384.8955,-182.3745 358.2125,-205.0623 331,-219 320.8128,-224.2177 309.247,-228.3101 298.1235,-231.475"/>
<polygon fill="#191970" stroke="#191970" points="405.6767,-167.5345 410.4381,-158.0698 400.8137,-162.4995 405.6767,-167.5345"/>
</g>
<!-- Node6 -->
<g id="node6" class="node">
<title>Node6</title>
<g id="a_node6"><a xlink:href="namespacemom__checksums.html#afa9bfb664bf3ee16447d4ebff9b78ea8" target="_top" xlink:title="Checksums a 2d array staggered at tracer points.">
<polygon fill="#ffffff" stroke="#000000" points="170,-190.5 170,-209.5 331,-209.5 331,-190.5 170,-190.5"/>
<text text-anchor="middle" x="250.5" y="-197.5" font-family="Helvetica,sans-Serif" font-size="10.00" fill="#000000">mom_checksums::chksum_h_2d</text>
</a>
</g>
</g>
<!-- Node1&#45;&gt;Node6 -->
<g id="edge5" class="edge">
<title>Node1&#45;&gt;Node6</title>
<path fill="none" stroke="#191970" d="M381.6067,-162.1511C365.8601,-168.6703 347.8083,-175.6533 331,-181 319.9159,-184.5258 307.7869,-187.7226 296.3838,-190.4456"/>
<polygon fill="#191970" stroke="#191970" points="383.2177,-165.2707 391.0815,-158.1706 380.5064,-158.817 383.2177,-165.2707"/>
</g>
<!-- Node8 -->
<g id="node8" class="node">
<title>Node8</title>
<g id="a_node8"><a xlink:href="namespacemom__checksums.html#a656dc8f5cc5bdb1ab2ffbf164cfc4e5c" target="_top" xlink:title="Checksums a 3d array staggered at tracer points.">
<polygon fill="#ffffff" stroke="#000000" points="170,-152.5 170,-171.5 331,-171.5 331,-152.5 170,-152.5"/>
<text text-anchor="middle" x="250.5" y="-159.5" font-family="Helvetica,sans-Serif" font-size="10.00" fill="#000000">mom_checksums::chksum_h_3d</text>
</a>
</g>
</g>
<!-- Node1&#45;&gt;Node8 -->
<g id="edge7" class="edge">
<title>Node1&#45;&gt;Node8</title>
<path fill="none" stroke="#191970" d="M356.752,-150.431C348.3175,-151.3494 339.6341,-152.2949 331.038,-153.2308"/>
<polygon fill="#191970" stroke="#191970" points="357.3317,-153.8887 366.894,-149.3267 356.5739,-146.9298 357.3317,-153.8887"/>
</g>
<!-- Node10 -->
<g id="node10" class="node">
<title>Node10</title>
<g id="a_node10"><a xlink:href="namespacemom__checksums.html#a170da5dcb63242191738bab00ae7a98c" target="_top" xlink:title="Checksums a 2d array staggered at C&#45;grid u points.">
<polygon fill="#ffffff" stroke="#000000" points="170,-114.5 170,-133.5 331,-133.5 331,-114.5 170,-114.5"/>
<text text-anchor="middle" x="250.5" y="-121.5" font-family="Helvetica,sans-Serif" font-size="10.00" fill="#000000">mom_checksums::chksum_u_2d</text>
</a>
</g>
</g>
<!-- Node1&#45;&gt;Node10 -->
<g id="edge9" class="edge">
<title>Node1&#45;&gt;Node10</title>
<path fill="none" stroke="#191970" d="M356.752,-135.569C348.3175,-134.6506 339.6341,-133.7051 331.038,-132.7692"/>
<polygon fill="#191970" stroke="#191970" points="356.5739,-139.0702 366.894,-136.6733 357.3317,-132.1113 356.5739,-139.0702"/>
</g>
<!-- Node12 -->
<g id="node12" class="node">
<title>Node12</title>
<g id="a_node12"><a xlink:href="namespacemom__checksums.html#a002adb81ca40e3604e68c69c470e3a60" target="_top" xlink:title="Checksums a 3d array staggered at C&#45;grid u points.">
<polygon fill="#ffffff" stroke="#000000" points="170,-38.5 170,-57.5 331,-57.5 331,-38.5 170,-38.5"/>
<text text-anchor="middle" x="250.5" y="-45.5" font-family="Helvetica,sans-Serif" font-size="10.00" fill="#000000">mom_checksums::chksum_u_3d</text>
</a>
</g>
</g>
<!-- Node1&#45;&gt;Node12 -->
<g id="edge11" class="edge">
<title>Node1&#45;&gt;Node12</title>
<path fill="none" stroke="#191970" d="M402.9721,-120.3238C385.1021,-103.2133 358.4522,-80.4594 331,-67 323.135,-63.1439 314.4476,-60.0467 305.7762,-57.5657"/>
<polygon fill="#191970" stroke="#191970" points="400.9436,-123.2364 410.5361,-127.7347 405.8425,-118.2362 400.9436,-123.2364"/>
</g>
<!-- Node14 -->
<g id="node14" class="node">
<title>Node14</title>
<g id="a_node14"><a xlink:href="namespacemom__checksums.html#a036af9a886db469fc5ea2af3137b36f6" target="_top" xlink:title="Checksums a 2d array staggered at C&#45;grid v points.">
<polygon fill="#ffffff" stroke="#000000" points="170,-76.5 170,-95.5 331,-95.5 331,-76.5 170,-76.5"/>
<text text-anchor="middle" x="250.5" y="-83.5" font-family="Helvetica,sans-Serif" font-size="10.00" fill="#000000">mom_checksums::chksum_v_2d</text>
</a>
</g>
</g>
<!-- Node1&#45;&gt;Node14 -->
<g id="edge13" class="edge">
<title>Node1&#45;&gt;Node14</title>
<path fill="none" stroke="#191970" d="M381.6067,-123.8489C365.8601,-117.3297 347.8083,-110.3467 331,-105 319.9159,-101.4742 307.7869,-98.2774 296.3838,-95.5544"/>
<polygon fill="#191970" stroke="#191970" points="380.5064,-127.183 391.0815,-127.8294 383.2177,-120.7293 380.5064,-127.183"/>
</g>
<!-- Node15 -->
<g id="node15" class="node">
<title>Node15</title>
<g id="a_node15"><a xlink:href="namespacemom__checksums.html#a3c48ee0130a4658c4c4224cdbe4449b9" target="_top" xlink:title="Checksums a 3d array staggered at C&#45;grid v points.">
<polygon fill="#ffffff" stroke="#000000" points="170,-.5 170,-19.5 331,-19.5 331,-.5 170,-.5"/>
<text text-anchor="middle" x="250.5" y="-7.5" font-family="Helvetica,sans-Serif" font-size="10.00" fill="#000000">mom_checksums::chksum_v_3d</text>
</a>
</g>
</g>
<!-- Node1&#45;&gt;Node15 -->
<g id="edge15" class="edge">
<title>Node1&#45;&gt;Node15</title>
<path fill="none" stroke="#191970" d="M411.6232,-118.8144C395.8278,-92.5788 367.082,-51.447 331,-29 324.7817,-25.1315 317.8461,-22.0503 310.7258,-19.5962"/>
<polygon fill="#191970" stroke="#191970" points="408.7761,-120.8792 416.8462,-127.7439 414.8184,-117.3449 408.7761,-120.8792"/>
</g>
<!-- Node3 -->
<g id="node3" class="node">
<title>Node3</title>
<g id="a_node3"><a xlink:href="namespacemom__checksums.html#acac01c61044b1c7f67392c90b736f77a" target="_top" xlink:title="Checksums on a pair of 2d arrays staggered at q&#45;points.">
<polygon fill="#ffffff" stroke="#000000" points="0,-279 0,-309 134,-309 134,-279 0,-279"/>
<text text-anchor="start" x="8" y="-297" font-family="Helvetica,sans-Serif" font-size="10.00" fill="#000000">mom_checksums::chksum</text>
<text text-anchor="middle" x="67" y="-286" font-family="Helvetica,sans-Serif" font-size="10.00" fill="#000000">_pair_b_2d</text>
</a>
</g>
</g>
<!-- Node2&#45;&gt;Node3 -->
<g id="edge2" class="edge">
<title>Node2&#45;&gt;Node3</title>
<path fill="none" stroke="#191970" d="M159.6457,-290.4658C151.021,-290.7948 142.3858,-291.1242 134.0449,-291.4424"/>
<polygon fill="#191970" stroke="#191970" points="159.8879,-293.9592 169.7472,-290.0805 159.621,-286.9643 159.8879,-293.9592"/>
</g>
<!-- Node5 -->
<g id="node5" class="node">
<title>Node5</title>
<g id="a_node5"><a xlink:href="namespacemom__checksums.html#a5b80a1eab30e07bd0d8ac6756807aac0" target="_top" xlink:title="Checksums on a pair of 3d arrays staggered at q&#45;points.">
<polygon fill="#ffffff" stroke="#000000" points="0,-230 0,-260 134,-260 134,-230 0,-230"/>
<text text-anchor="start" x="8" y="-248" font-family="Helvetica,sans-Serif" font-size="10.00" fill="#000000">mom_checksums::chksum</text>
<text text-anchor="middle" x="67" y="-237" font-family="Helvetica,sans-Serif" font-size="10.00" fill="#000000">_pair_b_3d</text>
</a>
</g>
</g>
<!-- Node4&#45;&gt;Node5 -->
<g id="edge4" class="edge">
<title>Node4&#45;&gt;Node5</title>
<path fill="none" stroke="#191970" d="M159.6457,-242.9805C151.021,-243.1685 142.3858,-243.3567 134.0449,-243.5385"/>
<polygon fill="#191970" stroke="#191970" points="159.8259,-246.4775 169.7472,-242.7603 159.6733,-239.4791 159.8259,-246.4775"/>
</g>
<!-- Node7 -->
<g id="node7" class="node">
<title>Node7</title>
<g id="a_node7"><a xlink:href="namespacemom__checksums.html#a359f5f74582dc1452f249a92e8d0563b" target="_top" xlink:title="Checksums on a pair of 2d arrays staggered at tracer points.">
<polygon fill="#ffffff" stroke="#000000" points="0,-181 0,-211 134,-211 134,-181 0,-181"/>
<text text-anchor="start" x="8" y="-199" font-family="Helvetica,sans-Serif" font-size="10.00" fill="#000000">mom_checksums::chksum</text>
<text text-anchor="middle" x="67" y="-188" font-family="Helvetica,sans-Serif" font-size="10.00" fill="#000000">_pair_h_2d</text>
</a>
</g>
</g>
<!-- Node6&#45;&gt;Node7 -->
<g id="edge6" class="edge">
<title>Node6&#45;&gt;Node7</title>
<path fill="none" stroke="#191970" d="M159.6457,-198.0195C151.021,-197.8315 142.3858,-197.6433 134.0449,-197.4615"/>
<polygon fill="#191970" stroke="#191970" points="159.6733,-201.5209 169.7472,-198.2397 159.8259,-194.5225 159.6733,-201.5209"/>
</g>
<!-- Node9 -->
<g id="node9" class="node">
<title>Node9</title>
<g id="a_node9"><a xlink:href="namespacemom__checksums.html#a56121166371f5d8ada74b74158b4af8d" target="_top" xlink:title="Checksums on a pair of 3d arrays staggered at tracer points.">
<polygon fill="#ffffff" stroke="#000000" points="0,-132 0,-162 134,-162 134,-132 0,-132"/>
<text text-anchor="start" x="8" y="-150" font-family="Helvetica,sans-Serif" font-size="10.00" fill="#000000">mom_checksums::chksum</text>
<text text-anchor="middle" x="67" y="-139" font-family="Helvetica,sans-Serif" font-size="10.00" fill="#000000">_pair_h_3d</text>
</a>
</g>
</g>
<!-- Node8&#45;&gt;Node9 -->
<g id="edge8" class="edge">
<title>Node8&#45;&gt;Node9</title>
<path fill="none" stroke="#191970" d="M159.6457,-154.5732C151.021,-153.8682 142.3858,-153.1623 134.0449,-152.4805"/>
<polygon fill="#191970" stroke="#191970" points="159.4953,-158.0725 169.7472,-155.399 160.0656,-151.0958 159.4953,-158.0725"/>
</g>
<!-- Node11 -->
<g id="node11" class="node">
<title>Node11</title>
<g id="a_node11"><a xlink:href="namespacemom__checksums.html#ae29414a605b6acb789b3abfce920955e" target="_top" xlink:title="Checksums a pair of 2d velocity arrays staggered at C&#45;grid locations.">
<polygon fill="#ffffff" stroke="#000000" points="0,-79 0,-109 134,-109 134,-79 0,-79"/>
<text text-anchor="start" x="8" y="-97" font-family="Helvetica,sans-Serif" font-size="10.00" fill="#000000">mom_checksums::chksum</text>
<text text-anchor="middle" x="67" y="-86" font-family="Helvetica,sans-Serif" font-size="10.00" fill="#000000">_uv_2d</text>
</a>
</g>
</g>
<!-- Node10&#45;&gt;Node11 -->
<g id="edge10" class="edge">
<title>Node10&#45;&gt;Node11</title>
<path fill="none" stroke="#191970" d="M182.0489,-112.8091C166.3761,-110.2468 149.7319,-107.5257 134.116,-104.9726"/>
<polygon fill="#191970" stroke="#191970" points="181.7536,-116.3072 192.1873,-114.4666 182.8831,-109.3989 181.7536,-116.3072"/>
</g>
<!-- Node13 -->
<g id="node13" class="node">
<title>Node13</title>
<g id="a_node13"><a xlink:href="namespacemom__checksums.html#a15b3a92eedc3c63382ae26e985b5d7a9" target="_top" xlink:title="Checksums a pair of 3d velocity arrays staggered at C&#45;grid locations.">
<polygon fill="#ffffff" stroke="#000000" points="0,-13 0,-43 134,-43 134,-13 0,-13"/>
<text text-anchor="start" x="8" y="-31" font-family="Helvetica,sans-Serif" font-size="10.00" fill="#000000">mom_checksums::chksum</text>
<text text-anchor="middle" x="67" y="-20" font-family="Helvetica,sans-Serif" font-size="10.00" fill="#000000">_uv_3d</text>
</a>
</g>
</g>
<!-- Node12&#45;&gt;Node13 -->
<g id="edge12" class="edge">
<title>Node12&#45;&gt;Node13</title>
<path fill="none" stroke="#191970" d="M159.6457,-38.0976C151.021,-37.1576 142.3858,-36.2164 134.0449,-35.3073"/>
<polygon fill="#191970" stroke="#191970" points="159.4268,-41.5944 169.7472,-39.1986 160.1853,-34.6356 159.4268,-41.5944"/>
</g>
<!-- Node14&#45;&gt;Node11 -->
<g id="edge14" class="edge">
<title>Node14&#45;&gt;Node11</title>
<path fill="none" stroke="#191970" d="M159.6457,-89.961C151.021,-90.337 142.3858,-90.7134 134.0449,-91.0771"/>
<polygon fill="#191970" stroke="#191970" points="159.9092,-93.4529 169.7472,-89.5206 159.6042,-86.4595 159.9092,-93.4529"/>
</g>
<!-- Node15&#45;&gt;Node13 -->
<g id="edge16" class="edge">
<title>Node15&#45;&gt;Node13</title>
<path fill="none" stroke="#191970" d="M159.6457,-18.9121C151.021,-19.7582 142.3858,-20.6052 134.0449,-21.4234"/>
<polygon fill="#191970" stroke="#191970" points="160.1367,-22.3809 169.7472,-17.9213 159.4532,-15.4143 160.1367,-22.3809"/>
</g>
</g>
</svg>
