<?xml version="1.0" encoding="UTF-8" standalone="no"?>
<!DOCTYPE svg PUBLIC "-//W3C//DTD SVG 1.1//EN"
 "http://www.w3.org/Graphics/SVG/1.1/DTD/svg11.dtd">
<!-- Generated by graphviz version 2.40.1 (20161225.0304)
 -->
<!-- Title: mom_remapping::integraterecononinterval Pages: 1 -->
<svg width="980pt" height="66pt"
 viewBox="0.00 0.00 980.00 66.00" xmlns="http://www.w3.org/2000/svg" xmlns:xlink="http://www.w3.org/1999/xlink">
<g id="graph0" class="graph" transform="scale(1 1) rotate(0) translate(4 62)">
<title>mom_remapping::integraterecononinterval</title>
<polygon fill="#ffffff" stroke="transparent" points="-4,4 -4,-62 976,-62 976,4 -4,4"/>
<!-- Node1 -->
<g id="node1" class="node">
<title>Node1</title>
<g id="a_node1"><a xlink:title="Integrate the reconstructed column profile over a single cell.">
<polygon fill="#bfbfbf" stroke="#000000" points="774,-19.5 774,-38.5 972,-38.5 972,-19.5 774,-19.5"/>
<text text-anchor="middle" x="873" y="-26.5" font-family="Helvetica,sans-Serif" font-size="10.00" fill="#000000">mom_remapping::integraterecononinterval</text>
</a>
</g>
</g>
<!-- Node2 -->
<g id="node2" class="node">
<title>Node2</title>
<g id="a_node2"><a xlink:href="namespacemom__remapping.html#ad41da2080e01eaed0b189079801b3c9b" target="_top" xlink:title="Remaps column of values u0 on grid h0 to implied grid h1 where the interfaces of h1 differ from those...">
<polygon fill="#ffffff" stroke="#000000" points="572,-38.5 572,-57.5 730,-57.5 730,-38.5 572,-38.5"/>
<text text-anchor="middle" x="651" y="-45.5" font-family="Helvetica,sans-Serif" font-size="10.00" fill="#000000">mom_remapping::remapbydeltaz</text>
</a>
</g>
</g>
<!-- Node1&#45;&gt;Node2 -->
<g id="edge1" class="edge">
<title>Node1&#45;&gt;Node2</title>
<path fill="none" stroke="#191970" d="M763.4283,-38.3778C752.2368,-39.3356 741.026,-40.2951 730.2509,-41.2173"/>
<polygon fill="#191970" stroke="#191970" points="764.0227,-41.8398 773.6877,-37.4997 763.4257,-34.8653 764.0227,-41.8398"/>
</g>
<!-- Node7 -->
<g id="node7" class="node">
<title>Node7</title>
<g id="a_node7"><a xlink:href="namespacemom__remapping.html#add104225e8ea85f4e6a324da6be3dba2" target="_top" xlink:title="Remaps column of values u0 on grid h0 to grid h1 by integrating over the projection of each h1 cell o...">
<polygon fill="#ffffff" stroke="#000000" points="564,-.5 564,-19.5 738,-19.5 738,-.5 564,-.5"/>
<text text-anchor="middle" x="651" y="-7.5" font-family="Helvetica,sans-Serif" font-size="10.00" fill="#000000">mom_remapping::remapbyprojection</text>
</a>
</g>
</g>
<!-- Node1&#45;&gt;Node7 -->
<g id="edge6" class="edge">
<title>Node1&#45;&gt;Node7</title>
<path fill="none" stroke="#191970" d="M763.6241,-19.639C755.0358,-18.904 746.4345,-18.1678 738.026,-17.4482"/>
<polygon fill="#191970" stroke="#191970" points="763.4257,-23.1347 773.6877,-20.5003 764.0227,-16.1602 763.4257,-23.1347"/>
</g>
<!-- Node3 -->
<g id="node3" class="node">
<title>Node3</title>
<g id="a_node3"><a xlink:href="namespacemom__remapping.html#a5849f564453d5ed76fb4feffd41eca26" target="_top" xlink:title="Runs unit tests on remapping functions. Should only be called from a single/root thread Returns True ...">
<polygon fill="#ffffff" stroke="#000000" points="388,-14 388,-44 528,-44 528,-14 388,-14"/>
<text text-anchor="start" x="396" y="-32" font-family="Helvetica,sans-Serif" font-size="10.00" fill="#000000">mom_remapping::remapping</text>
<text text-anchor="middle" x="458" y="-21" font-family="Helvetica,sans-Serif" font-size="10.00" fill="#000000">_unit_tests</text>
</a>
</g>
</g>
<!-- Node2&#45;&gt;Node3 -->
<g id="edge2" class="edge">
<title>Node2&#45;&gt;Node3</title>
<path fill="none" stroke="#191970" d="M561.6967,-39.2085C550.4811,-38.1044 539.1351,-36.9874 528.2693,-35.9177"/>
<polygon fill="#191970" stroke="#191970" points="561.6478,-42.7205 571.9426,-40.2172 562.3337,-35.7542 561.6478,-42.7205"/>
</g>
<!-- Node4 -->
<g id="node4" class="node">
<title>Node4</title>
<g id="a_node4"><a xlink:href="namespacemom__unit__tests.html#a57645db02bc734c32de50d028ef906ac" target="_top" xlink:title="Calls unit tests for other modules. Note that if a unit test returns true, a FATAL error is triggered...">
<polygon fill="#ffffff" stroke="#000000" points="244,-14 244,-44 352,-44 352,-14 244,-14"/>
<text text-anchor="start" x="252" y="-32" font-family="Helvetica,sans-Serif" font-size="10.00" fill="#000000">mom_unit_tests::unit</text>
<text text-anchor="middle" x="298" y="-21" font-family="Helvetica,sans-Serif" font-size="10.00" fill="#000000">_tests</text>
</a>
</g>
</g>
<!-- Node3&#45;&gt;Node4 -->
<g id="edge3" class="edge">
<title>Node3&#45;&gt;Node4</title>
<path fill="none" stroke="#191970" d="M377.7156,-29C369.0879,-29 360.4646,-29 352.2472,-29"/>
<polygon fill="#191970" stroke="#191970" points="377.8217,-32.5001 387.8217,-29 377.8216,-25.5001 377.8217,-32.5001"/>
</g>
<!-- Node5 -->
<g id="node5" class="node">
<title>Node5</title>
<g id="a_node5"><a xlink:href="namespacemom.html#a96708b16215666edbfa5b46228f3a200" target="_top" xlink:title="Initialize MOM, including memory allocation, setting up parameters and diagnostics,...">
<polygon fill="#ffffff" stroke="#000000" points="101,-19.5 101,-38.5 208,-38.5 208,-19.5 101,-19.5"/>
<text text-anchor="middle" x="154.5" y="-26.5" font-family="Helvetica,sans-Serif" font-size="10.00" fill="#000000">mom::initialize_mom</text>
</a>
</g>
</g>
<!-- Node4&#45;&gt;Node5 -->
<g id="edge4" class="edge">
<title>Node4&#45;&gt;Node5</title>
<path fill="none" stroke="#191970" d="M233.5691,-29C225.1423,-29 216.5794,-29 208.3519,-29"/>
<polygon fill="#191970" stroke="#191970" points="233.7488,-32.5001 243.7488,-29 233.7488,-25.5001 233.7488,-32.5001"/>
</g>
<!-- Node6 -->
<g id="node6" class="node">
<title>Node6</title>
<g id="a_node6"><a xlink:href="MOM__driver_8F90.html#a08fffeb2d8e8acbf9ed4609be6d258c6" target="_top" xlink:title=" ">
<polygon fill="#ffffff" stroke="#000000" points="0,-19.5 0,-38.5 65,-38.5 65,-19.5 0,-19.5"/>
<text text-anchor="middle" x="32.5" y="-26.5" font-family="Helvetica,sans-Serif" font-size="10.00" fill="#000000">mom_main</text>
</a>
</g>
</g>
<!-- Node5&#45;&gt;Node6 -->
<g id="edge5" class="edge">
<title>Node5&#45;&gt;Node6</title>
<path fill="none" stroke="#191970" d="M90.9603,-29C82.0691,-29 73.2499,-29 65.2602,-29"/>
<polygon fill="#191970" stroke="#191970" points="90.9891,-32.5001 100.989,-29 90.989,-25.5001 90.9891,-32.5001"/>
</g>
<!-- Node7&#45;&gt;Node3 -->
<g id="edge7" class="edge">
<title>Node7&#45;&gt;Node3</title>
<path fill="none" stroke="#191970" d="M553.673,-19.5814C545.0213,-20.4331 536.3786,-21.284 528.0228,-22.1066"/>
<polygon fill="#191970" stroke="#191970" points="554.2077,-23.0458 563.8167,-18.5828 553.5218,-16.0795 554.2077,-23.0458"/>
</g>
</g>
</svg>
