<?xml version="1.0" encoding="UTF-8" standalone="no"?>
<!DOCTYPE svg PUBLIC "-//W3C//DTD SVG 1.1//EN"
 "http://www.w3.org/Graphics/SVG/1.1/DTD/svg11.dtd">
<!-- Generated by graphviz version 2.40.1 (20161225.0304)
 -->
<!-- Title: mom_coord_initialization::set_coord_to_none Pages: 1 -->
<svg width="443pt" height="88pt"
 viewBox="0.00 0.00 443.00 88.00" xmlns="http://www.w3.org/2000/svg" xmlns:xlink="http://www.w3.org/1999/xlink">
<g id="graph0" class="graph" transform="scale(1 1) rotate(0) translate(4 84)">
<title>mom_coord_initialization::set_coord_to_none</title>
<polygon fill="#ffffff" stroke="transparent" points="-4,4 -4,-84 439,-84 439,4 -4,4"/>
<!-- Node1 -->
<g id="node1" class="node">
<title>Node1</title>
<g id="a_node1"><a xlink:title="Sets Rlay to Rho0 and g_prime to zero except for the free surface. This is for use only in ALE mode w...">
<polygon fill="#bfbfbf" stroke="#000000" points="0,-24.5 0,-54.5 133,-54.5 133,-24.5 0,-24.5"/>
<text text-anchor="start" x="8" y="-42.5" font-family="Helvetica,sans-Serif" font-size="10.00" fill="#000000">mom_coord_initialization</text>
<text text-anchor="middle" x="66.5" y="-31.5" font-family="Helvetica,sans-Serif" font-size="10.00" fill="#000000">::set_coord_to_none</text>
</a>
</g>
</g>
<!-- Node2 -->
<g id="node2" class="node">
<title>Node2</title>
<g id="a_node2"><a xlink:href="namespacemom__error__handler.html#a9cda07a87815f0e5594066162b4345c3" target="_top" xlink:title="Writes a message about entering a subroutine if call tree reporting is active.">
<polygon fill="#ffffff" stroke="#000000" points="169,-49.5 169,-79.5 284,-79.5 284,-49.5 169,-49.5"/>
<text text-anchor="start" x="177" y="-67.5" font-family="Helvetica,sans-Serif" font-size="10.00" fill="#000000">mom_error_handler::</text>
<text text-anchor="middle" x="226.5" y="-56.5" font-family="Helvetica,sans-Serif" font-size="10.00" fill="#000000">calltree_enter</text>
</a>
</g>
</g>
<!-- Node1&#45;&gt;Node2 -->
<g id="edge1" class="edge">
<title>Node1&#45;&gt;Node2</title>
<path fill="none" stroke="#191970" d="M133.4273,-49.9574C141.8287,-51.2701 150.4279,-52.6137 158.8404,-53.9282"/>
<polygon fill="#191970" stroke="#191970" points="158.5631,-57.4272 168.9836,-55.5131 159.6438,-50.5112 158.5631,-57.4272"/>
</g>
<!-- Node4 -->
<g id="node4" class="node">
<title>Node4</title>
<g id="a_node4"><a xlink:href="namespacemom__error__handler.html#a88ea67781e2ed9b73ab7eac8ea5e8578" target="_top" xlink:title="Writes a message about leaving a subroutine if call tree reporting is active.">
<polygon fill="#ffffff" stroke="#000000" points="169,-.5 169,-30.5 284,-30.5 284,-.5 169,-.5"/>
<text text-anchor="start" x="177" y="-18.5" font-family="Helvetica,sans-Serif" font-size="10.00" fill="#000000">mom_error_handler::</text>
<text text-anchor="middle" x="226.5" y="-7.5" font-family="Helvetica,sans-Serif" font-size="10.00" fill="#000000">calltree_leave</text>
</a>
</g>
</g>
<!-- Node1&#45;&gt;Node4 -->
<g id="edge3" class="edge">
<title>Node1&#45;&gt;Node4</title>
<path fill="none" stroke="#191970" d="M133.4273,-29.4609C141.8287,-28.2007 150.4279,-26.9108 158.8404,-25.6489"/>
<polygon fill="#191970" stroke="#191970" points="159.6134,-29.0722 168.9836,-24.1275 158.575,-22.1497 159.6134,-29.0722"/>
</g>
<!-- Node3 -->
<g id="node3" class="node">
<title>Node3</title>
<g id="a_node3"><a xlink:href="namespacemom__error__handler.html#ad5f00a53059c72fe2332d1436c80ca71" target="_top" xlink:title="This returns .true. if the current PE is the root PE.">
<polygon fill="#ffffff" stroke="#000000" points="320,-24.5 320,-54.5 435,-54.5 435,-24.5 320,-24.5"/>
<text text-anchor="start" x="328" y="-42.5" font-family="Helvetica,sans-Serif" font-size="10.00" fill="#000000">mom_error_handler::</text>
<text text-anchor="middle" x="377.5" y="-31.5" font-family="Helvetica,sans-Serif" font-size="10.00" fill="#000000">is_root_pe</text>
</a>
</g>
</g>
<!-- Node2&#45;&gt;Node3 -->
<g id="edge2" class="edge">
<title>Node2&#45;&gt;Node3</title>
<path fill="none" stroke="#191970" d="M284.0174,-54.9773C292.4639,-53.5788 301.2292,-52.1276 309.8561,-50.6993"/>
<polygon fill="#191970" stroke="#191970" points="310.5985,-54.1241 319.8925,-49.0377 309.4551,-47.2181 310.5985,-54.1241"/>
</g>
<!-- Node4&#45;&gt;Node3 -->
<g id="edge4" class="edge">
<title>Node4&#45;&gt;Node3</title>
<path fill="none" stroke="#191970" d="M284.0174,-24.6418C292.4639,-25.9843 301.2292,-27.3775 309.8561,-28.7487"/>
<polygon fill="#191970" stroke="#191970" points="309.4671,-32.2307 319.8925,-30.3438 310.5659,-25.3174 309.4671,-32.2307"/>
</g>
</g>
</svg>
