<?xml version="1.0" encoding="UTF-8" standalone="no"?>
<!DOCTYPE svg PUBLIC "-//W3C//DTD SVG 1.1//EN"
 "http://www.w3.org/Graphics/SVG/1.1/DTD/svg11.dtd">
<!-- Generated by graphviz version 2.40.1 (20161225.0304)
 -->
<!-- Title: mom_offline_main::offline_advection_layer Pages: 1 -->
<svg width="665pt" height="176pt"
 viewBox="0.00 0.00 665.00 176.00" xmlns="http://www.w3.org/2000/svg" xmlns:xlink="http://www.w3.org/1999/xlink">
<g id="graph0" class="graph" transform="scale(1 1) rotate(0) translate(4 172)">
<title>mom_offline_main::offline_advection_layer</title>
<polygon fill="#ffffff" stroke="transparent" points="-4,4 -4,-172 661,-172 661,4 -4,4"/>
<!-- Node1 -->
<g id="node1" class="node">
<title>Node1</title>
<g id="a_node1"><a xlink:title="When in layer mode, 3D horizontal advection using stored mass fluxes must be used....">
<polygon fill="#bfbfbf" stroke="#000000" points="0,-24.5 0,-54.5 135,-54.5 135,-24.5 0,-24.5"/>
<text text-anchor="start" x="8" y="-42.5" font-family="Helvetica,sans-Serif" font-size="10.00" fill="#000000">mom_offline_main::offline</text>
<text text-anchor="middle" x="67.5" y="-31.5" font-family="Helvetica,sans-Serif" font-size="10.00" fill="#000000">_advection_layer</text>
</a>
</g>
</g>
<!-- Node2 -->
<g id="node2" class="node">
<title>Node2</title>
<g id="a_node2"><a xlink:href="namespacemom__tracer__advect.html#a28a6e28170a8d4f34337a1a202e0d902" target="_top" xlink:title="This routine time steps the tracer concentration using a monotonic, conservative, weakly diffusive sc...">
<polygon fill="#ffffff" stroke="#000000" points="181.5,-49.5 181.5,-79.5 296.5,-79.5 296.5,-49.5 181.5,-49.5"/>
<text text-anchor="start" x="189.5" y="-67.5" font-family="Helvetica,sans-Serif" font-size="10.00" fill="#000000">mom_tracer_advect::</text>
<text text-anchor="middle" x="239" y="-56.5" font-family="Helvetica,sans-Serif" font-size="10.00" fill="#000000">advect_tracer</text>
</a>
</g>
</g>
<!-- Node1&#45;&gt;Node2 -->
<g id="edge1" class="edge">
<title>Node1&#45;&gt;Node2</title>
<path fill="none" stroke="#191970" d="M135.2813,-49.3807C147.085,-51.1013 159.3642,-52.8913 171.1691,-54.6121"/>
<polygon fill="#191970" stroke="#191970" points="170.9969,-58.1239 181.3972,-56.1031 172.0067,-51.1971 170.9969,-58.1239"/>
</g>
<!-- Node8 -->
<g id="node8" class="node">
<title>Node8</title>
<g id="a_node8"><a xlink:href="namespacemom__tracer__flow__control.html#a7ab9818c25f7abc0cf44f970b70f003a" target="_top" xlink:title="This subroutine calls all registered tracer column physics subroutines.">
<polygon fill="#ffffff" stroke="#000000" points="171,-.5 171,-30.5 307,-30.5 307,-.5 171,-.5"/>
<text text-anchor="start" x="179" y="-18.5" font-family="Helvetica,sans-Serif" font-size="10.00" fill="#000000">mom_tracer_flow_control</text>
<text text-anchor="middle" x="239" y="-7.5" font-family="Helvetica,sans-Serif" font-size="10.00" fill="#000000">::call_tracer_column_fns</text>
</a>
</g>
</g>
<!-- Node1&#45;&gt;Node8 -->
<g id="edge7" class="edge">
<title>Node1&#45;&gt;Node8</title>
<path fill="none" stroke="#191970" d="M135.2813,-30.0146C143.6932,-28.8374 152.3465,-27.6264 160.8977,-26.4298"/>
<polygon fill="#191970" stroke="#191970" points="161.45,-29.8867 170.8684,-25.0345 160.4798,-22.9542 161.45,-29.8867"/>
</g>
<!-- Node3 -->
<g id="node3" class="node">
<title>Node3</title>
<g id="a_node3"><a xlink:href="namespacemom__tracer__advect.html#a07f6e664b3346db7f9ddbcd4b4d6c8f4" target="_top" xlink:title="This subroutine does 1&#45;d flux&#45;form advection in the zonal direction using a monotonic piecewise linea...">
<polygon fill="#ffffff" stroke="#000000" points="367,-137.5 367,-167.5 482,-167.5 482,-137.5 367,-137.5"/>
<text text-anchor="start" x="375" y="-155.5" font-family="Helvetica,sans-Serif" font-size="10.00" fill="#000000">mom_tracer_advect::</text>
<text text-anchor="middle" x="424.5" y="-144.5" font-family="Helvetica,sans-Serif" font-size="10.00" fill="#000000">advect_x</text>
</a>
</g>
</g>
<!-- Node2&#45;&gt;Node3 -->
<g id="edge2" class="edge">
<title>Node2&#45;&gt;Node3</title>
<path fill="none" stroke="#191970" d="M259.9891,-79.7352C280.3676,-93.9545 312.5948,-114.9576 343,-128.5 347.598,-130.5479 352.4184,-132.4763 357.3201,-134.2807"/>
<polygon fill="#191970" stroke="#191970" points="356.2148,-137.602 366.8096,-137.5965 358.5238,-130.9937 356.2148,-137.602"/>
</g>
<!-- Node4 -->
<g id="node4" class="node">
<title>Node4</title>
<g id="a_node4"><a xlink:href="namespacemom__tracer__advect.html#a20a82831fad6aa07cb946aeadbbfdda9" target="_top" xlink:title="This subroutine does 1&#45;d flux&#45;form advection using a monotonic piecewise linear scheme.">
<polygon fill="#ffffff" stroke="#000000" points="367,-88.5 367,-118.5 482,-118.5 482,-88.5 367,-88.5"/>
<text text-anchor="start" x="375" y="-106.5" font-family="Helvetica,sans-Serif" font-size="10.00" fill="#000000">mom_tracer_advect::</text>
<text text-anchor="middle" x="424.5" y="-95.5" font-family="Helvetica,sans-Serif" font-size="10.00" fill="#000000">advect_y</text>
</a>
</g>
</g>
<!-- Node2&#45;&gt;Node4 -->
<g id="edge3" class="edge">
<title>Node2&#45;&gt;Node4</title>
<path fill="none" stroke="#191970" d="M296.6765,-76.6261C315.7831,-80.6431 337.2184,-85.1497 356.9961,-89.3078"/>
<polygon fill="#191970" stroke="#191970" points="356.353,-92.749 366.8591,-91.3814 357.7932,-85.8988 356.353,-92.749"/>
</g>
<!-- Node5 -->
<g id="node5" class="node">
<title>Node5</title>
<g id="a_node5"><a xlink:href="namespacemom__domains.html#aac3bc012a8c214cbd73bb00668ff165e" target="_top" xlink:title="do_group_pass carries out a group halo update.">
<polygon fill="#ffffff" stroke="#000000" points="343,-50 343,-69 506,-69 506,-50 343,-50"/>
<text text-anchor="middle" x="424.5" y="-57" font-family="Helvetica,sans-Serif" font-size="10.00" fill="#000000">mom_domains::do_group_pass</text>
</a>
</g>
</g>
<!-- Node2&#45;&gt;Node5 -->
<g id="edge4" class="edge">
<title>Node2&#45;&gt;Node5</title>
<path fill="none" stroke="#191970" d="M296.6765,-62.9454C308.0599,-62.6385 320.2698,-62.3094 332.4633,-61.9808"/>
<polygon fill="#191970" stroke="#191970" points="332.7815,-65.4736 342.6835,-61.7053 332.5928,-58.4761 332.7815,-65.4736"/>
</g>
<!-- Node6 -->
<g id="node6" class="node">
<title>Node6</title>
<g id="a_node6"><a xlink:href="namespacemom__error__handler.html#a460cfb79a06c29fc249952c2a3710d67" target="_top" xlink:title="This provides a convenient interface for writing an mpp_error message with run&#45;time filter based on a...">
<polygon fill="#ffffff" stroke="#000000" points="367,-.5 367,-30.5 482,-30.5 482,-.5 367,-.5"/>
<text text-anchor="start" x="375" y="-18.5" font-family="Helvetica,sans-Serif" font-size="10.00" fill="#000000">mom_error_handler::</text>
<text text-anchor="middle" x="424.5" y="-7.5" font-family="Helvetica,sans-Serif" font-size="10.00" fill="#000000">mom_error</text>
</a>
</g>
</g>
<!-- Node2&#45;&gt;Node6 -->
<g id="edge5" class="edge">
<title>Node2&#45;&gt;Node6</title>
<path fill="none" stroke="#191970" d="M295.9168,-49.4654C315.503,-44.2917 337.6084,-38.4525 357.8963,-33.0934"/>
<polygon fill="#191970" stroke="#191970" points="358.9164,-36.4441 367.6909,-30.5062 357.1286,-29.6762 358.9164,-36.4441"/>
</g>
<!-- Node7 -->
<g id="node7" class="node">
<title>Node7</title>
<g id="a_node7"><a xlink:href="namespacemom__error__handler.html#ad5f00a53059c72fe2332d1436c80ca71" target="_top" xlink:title="This returns .true. if the current PE is the root PE.">
<polygon fill="#ffffff" stroke="#000000" points="542,-.5 542,-30.5 657,-30.5 657,-.5 542,-.5"/>
<text text-anchor="start" x="550" y="-18.5" font-family="Helvetica,sans-Serif" font-size="10.00" fill="#000000">mom_error_handler::</text>
<text text-anchor="middle" x="599.5" y="-7.5" font-family="Helvetica,sans-Serif" font-size="10.00" fill="#000000">is_root_pe</text>
</a>
</g>
</g>
<!-- Node6&#45;&gt;Node7 -->
<g id="edge6" class="edge">
<title>Node6&#45;&gt;Node7</title>
<path fill="none" stroke="#191970" d="M482.2865,-15.5C498.1162,-15.5 515.4182,-15.5 531.7514,-15.5"/>
<polygon fill="#191970" stroke="#191970" points="531.7742,-19.0001 541.7741,-15.5 531.7741,-12.0001 531.7742,-19.0001"/>
</g>
<!-- Node8&#45;&gt;Node6 -->
<g id="edge8" class="edge">
<title>Node8&#45;&gt;Node6</title>
<path fill="none" stroke="#191970" d="M307.02,-15.5C323.1361,-15.5 340.3269,-15.5 356.4446,-15.5"/>
<polygon fill="#191970" stroke="#191970" points="356.8592,-19.0001 366.8591,-15.5 356.8591,-12.0001 356.8592,-19.0001"/>
</g>
</g>
</svg>
