<?xml version="1.0" encoding="UTF-8" standalone="no"?>
<!DOCTYPE svg PUBLIC "-//W3C//DTD SVG 1.1//EN"
 "http://www.w3.org/Graphics/SVG/1.1/DTD/svg11.dtd">
<!-- Generated by graphviz version 2.40.1 (20161225.0304)
 -->
<!-- Title: mom_neutral_diffusion::ppm_left_right_edge_values Pages: 1 -->
<svg width="1018pt" height="88pt"
 viewBox="0.00 0.00 1018.00 88.00" xmlns="http://www.w3.org/2000/svg" xmlns:xlink="http://www.w3.org/1999/xlink">
<g id="graph0" class="graph" transform="scale(1 1) rotate(0) translate(4 84)">
<title>mom_neutral_diffusion::ppm_left_right_edge_values</title>
<polygon fill="#ffffff" stroke="transparent" points="-4,4 -4,-84 1014,-84 1014,4 -4,4"/>
<!-- Node1 -->
<g id="node1" class="node">
<title>Node1</title>
<g id="a_node1"><a xlink:title="Discontinuous PPM reconstructions of the left/right edge values within a cell.">
<polygon fill="#bfbfbf" stroke="#000000" points="895,-19 895,-60 1010,-60 1010,-19 895,-19"/>
<text text-anchor="start" x="903" y="-48" font-family="Helvetica,sans-Serif" font-size="10.00" fill="#000000">mom_neutral_diffusion</text>
<text text-anchor="start" x="903" y="-37" font-family="Helvetica,sans-Serif" font-size="10.00" fill="#000000">::ppm_left_right_edge</text>
<text text-anchor="middle" x="952.5" y="-26" font-family="Helvetica,sans-Serif" font-size="10.00" fill="#000000">_values</text>
</a>
</g>
</g>
<!-- Node2 -->
<g id="node2" class="node">
<title>Node2</title>
<g id="a_node2"><a xlink:href="namespacemom__neutral__diffusion.html#aa394289328ee392cdb17000fb6fa90e8" target="_top" xlink:title="Returns a single column of neutral diffusion fluxes of a tracer.">
<polygon fill="#ffffff" stroke="#000000" points="744,-24.5 744,-54.5 859,-54.5 859,-24.5 744,-24.5"/>
<text text-anchor="start" x="752" y="-42.5" font-family="Helvetica,sans-Serif" font-size="10.00" fill="#000000">mom_neutral_diffusion</text>
<text text-anchor="middle" x="801.5" y="-31.5" font-family="Helvetica,sans-Serif" font-size="10.00" fill="#000000">::neutral_surface_flux</text>
</a>
</g>
</g>
<!-- Node1&#45;&gt;Node2 -->
<g id="edge1" class="edge">
<title>Node1&#45;&gt;Node2</title>
<path fill="none" stroke="#191970" d="M884.9481,-39.5C876.3221,-39.5 867.5562,-39.5 859.1075,-39.5"/>
<polygon fill="#191970" stroke="#191970" points="884.9827,-43.0001 894.9826,-39.5 884.9826,-36.0001 884.9827,-43.0001"/>
</g>
<!-- Node3 -->
<g id="node3" class="node">
<title>Node3</title>
<g id="a_node3"><a xlink:href="namespacemom__neutral__diffusion.html#a9aaf0988f76c9992d8f1db48ce23bf34" target="_top" xlink:title="Returns true if unit tests of neutral_diffusion functions fail. Otherwise returns false.">
<polygon fill="#ffffff" stroke="#000000" points="566,-49.5 566,-79.5 708,-79.5 708,-49.5 566,-49.5"/>
<text text-anchor="start" x="574" y="-67.5" font-family="Helvetica,sans-Serif" font-size="10.00" fill="#000000">mom_neutral_diffusion</text>
<text text-anchor="middle" x="637" y="-56.5" font-family="Helvetica,sans-Serif" font-size="10.00" fill="#000000">::ndiff_unit_tests_continuous</text>
</a>
</g>
</g>
<!-- Node2&#45;&gt;Node3 -->
<g id="edge2" class="edge">
<title>Node2&#45;&gt;Node3</title>
<path fill="none" stroke="#191970" d="M734.0463,-49.7513C725.4901,-51.0517 716.713,-52.3856 708.102,-53.6942"/>
<polygon fill="#191970" stroke="#191970" points="734.6053,-53.2066 743.9659,-48.2438 733.5535,-46.2861 734.6053,-53.2066"/>
</g>
<!-- Node8 -->
<g id="node8" class="node">
<title>Node8</title>
<g id="a_node8"><a xlink:href="namespacemom__neutral__diffusion.html#a5469b7be43f8c428f092b58dd5ca41c8" target="_top" xlink:title="Update tracer concentration due to neutral diffusion; layer thickness unchanged by this update.">
<polygon fill="#ffffff" stroke="#000000" points="579.5,-.5 579.5,-30.5 694.5,-30.5 694.5,-.5 579.5,-.5"/>
<text text-anchor="start" x="587.5" y="-18.5" font-family="Helvetica,sans-Serif" font-size="10.00" fill="#000000">mom_neutral_diffusion</text>
<text text-anchor="middle" x="637" y="-7.5" font-family="Helvetica,sans-Serif" font-size="10.00" fill="#000000">::neutral_diffusion</text>
</a>
</g>
</g>
<!-- Node2&#45;&gt;Node8 -->
<g id="edge7" class="edge">
<title>Node2&#45;&gt;Node8</title>
<path fill="none" stroke="#191970" d="M734.0508,-29.6594C720.922,-27.7439 707.2729,-25.7526 694.5016,-23.8893"/>
<polygon fill="#191970" stroke="#191970" points="733.5653,-33.1255 743.9659,-31.106 734.576,-26.1989 733.5653,-33.1255"/>
</g>
<!-- Node4 -->
<g id="node4" class="node">
<title>Node4</title>
<g id="a_node4"><a xlink:href="namespacemom__neutral__diffusion.html#a6f91c93a6363fb39395796420f25fad2" target="_top" xlink:title="Returns true if unit tests of neutral_diffusion functions fail. Otherwise returns false.">
<polygon fill="#ffffff" stroke="#000000" points="388,-49.5 388,-79.5 530,-79.5 530,-49.5 388,-49.5"/>
<text text-anchor="start" x="396" y="-67.5" font-family="Helvetica,sans-Serif" font-size="10.00" fill="#000000">mom_neutral_diffusion</text>
<text text-anchor="middle" x="459" y="-56.5" font-family="Helvetica,sans-Serif" font-size="10.00" fill="#000000">::neutral_diffusion_unit_tests</text>
</a>
</g>
</g>
<!-- Node3&#45;&gt;Node4 -->
<g id="edge3" class="edge">
<title>Node3&#45;&gt;Node4</title>
<path fill="none" stroke="#191970" d="M555.8298,-64.5C547.2112,-64.5 538.494,-64.5 530.0047,-64.5"/>
<polygon fill="#191970" stroke="#191970" points="555.8823,-68.0001 565.8823,-64.5 555.8823,-61.0001 555.8823,-68.0001"/>
</g>
<!-- Node5 -->
<g id="node5" class="node">
<title>Node5</title>
<g id="a_node5"><a xlink:href="namespacemom__unit__tests.html#a57645db02bc734c32de50d028ef906ac" target="_top" xlink:title="Calls unit tests for other modules. Note that if a unit test returns true, a FATAL error is triggered...">
<polygon fill="#ffffff" stroke="#000000" points="244,-49.5 244,-79.5 352,-79.5 352,-49.5 244,-49.5"/>
<text text-anchor="start" x="252" y="-67.5" font-family="Helvetica,sans-Serif" font-size="10.00" fill="#000000">mom_unit_tests::unit</text>
<text text-anchor="middle" x="298" y="-56.5" font-family="Helvetica,sans-Serif" font-size="10.00" fill="#000000">_tests</text>
</a>
</g>
</g>
<!-- Node4&#45;&gt;Node5 -->
<g id="edge4" class="edge">
<title>Node4&#45;&gt;Node5</title>
<path fill="none" stroke="#191970" d="M377.7789,-64.5C369.1289,-64.5 360.49,-64.5 352.2618,-64.5"/>
<polygon fill="#191970" stroke="#191970" points="377.9144,-68.0001 387.9144,-64.5 377.9144,-61.0001 377.9144,-68.0001"/>
</g>
<!-- Node6 -->
<g id="node6" class="node">
<title>Node6</title>
<g id="a_node6"><a xlink:href="namespacemom.html#a96708b16215666edbfa5b46228f3a200" target="_top" xlink:title="Initialize MOM, including memory allocation, setting up parameters and diagnostics,...">
<polygon fill="#ffffff" stroke="#000000" points="101,-55 101,-74 208,-74 208,-55 101,-55"/>
<text text-anchor="middle" x="154.5" y="-62" font-family="Helvetica,sans-Serif" font-size="10.00" fill="#000000">mom::initialize_mom</text>
</a>
</g>
</g>
<!-- Node5&#45;&gt;Node6 -->
<g id="edge5" class="edge">
<title>Node5&#45;&gt;Node6</title>
<path fill="none" stroke="#191970" d="M233.5691,-64.5C225.1423,-64.5 216.5794,-64.5 208.3519,-64.5"/>
<polygon fill="#191970" stroke="#191970" points="233.7488,-68.0001 243.7488,-64.5 233.7488,-61.0001 233.7488,-68.0001"/>
</g>
<!-- Node7 -->
<g id="node7" class="node">
<title>Node7</title>
<g id="a_node7"><a xlink:href="MOM__driver_8F90.html#a08fffeb2d8e8acbf9ed4609be6d258c6" target="_top" xlink:title=" ">
<polygon fill="#ffffff" stroke="#000000" points="0,-55 0,-74 65,-74 65,-55 0,-55"/>
<text text-anchor="middle" x="32.5" y="-62" font-family="Helvetica,sans-Serif" font-size="10.00" fill="#000000">mom_main</text>
</a>
</g>
</g>
<!-- Node6&#45;&gt;Node7 -->
<g id="edge6" class="edge">
<title>Node6&#45;&gt;Node7</title>
<path fill="none" stroke="#191970" d="M90.9603,-64.5C82.0691,-64.5 73.2499,-64.5 65.2602,-64.5"/>
<polygon fill="#191970" stroke="#191970" points="90.9891,-68.0001 100.989,-64.5 90.989,-61.0001 90.9891,-68.0001"/>
</g>
<!-- Node9 -->
<g id="node9" class="node">
<title>Node9</title>
<g id="a_node9"><a xlink:href="namespacemom__tracer__hor__diff.html#a098229e37012e7bd93d13036bfc864ac" target="_top" xlink:title="Compute along&#45;coordinate diffusion of all tracers using the diffusivity in CSKhTr,...">
<polygon fill="#ffffff" stroke="#000000" points="406,-.5 406,-30.5 512,-30.5 512,-.5 406,-.5"/>
<text text-anchor="start" x="414" y="-18.5" font-family="Helvetica,sans-Serif" font-size="10.00" fill="#000000">mom_tracer_hor_diff</text>
<text text-anchor="middle" x="459" y="-7.5" font-family="Helvetica,sans-Serif" font-size="10.00" fill="#000000">::tracer_hordiff</text>
</a>
</g>
</g>
<!-- Node8&#45;&gt;Node9 -->
<g id="edge8" class="edge">
<title>Node8&#45;&gt;Node9</title>
<path fill="none" stroke="#191970" d="M569.1999,-15.5C550.3557,-15.5 530.1652,-15.5 512.2815,-15.5"/>
<polygon fill="#191970" stroke="#191970" points="569.2085,-19.0001 579.2085,-15.5 569.2085,-12.0001 569.2085,-19.0001"/>
</g>
</g>
</svg>
