<?xml version="1.0" encoding="UTF-8" standalone="no"?>
<!DOCTYPE svg PUBLIC "-//W3C//DTD SVG 1.1//EN"
 "http://www.w3.org/Graphics/SVG/1.1/DTD/svg11.dtd">
<!-- Generated by graphviz version 2.40.1 (20161225.0304)
 -->
<!-- Title: mom_regridding::set_regrid_params Pages: 1 -->
<svg width="762pt" height="340pt"
 viewBox="0.00 0.00 762.00 340.00" xmlns="http://www.w3.org/2000/svg" xmlns:xlink="http://www.w3.org/1999/xlink">
<g id="graph0" class="graph" transform="scale(1 1) rotate(0) translate(4 336)">
<title>mom_regridding::set_regrid_params</title>
<polygon fill="#ffffff" stroke="transparent" points="-4,4 -4,-336 758,-336 758,4 -4,4"/>
<!-- Node1 -->
<g id="node1" class="node">
<title>Node1</title>
<g id="a_node1"><a xlink:title="Can be used to set any of the parameters for MOM_regridding.">
<polygon fill="#bfbfbf" stroke="#000000" points="0,-153.5 0,-183.5 112,-183.5 112,-153.5 0,-153.5"/>
<text text-anchor="start" x="8" y="-171.5" font-family="Helvetica,sans-Serif" font-size="10.00" fill="#000000">mom_regridding::set</text>
<text text-anchor="middle" x="56" y="-160.5" font-family="Helvetica,sans-Serif" font-size="10.00" fill="#000000">_regrid_params</text>
</a>
</g>
</g>
<!-- Node2 -->
<g id="node2" class="node">
<title>Node2</title>
<g id="a_node2"><a xlink:href="namespacemom__error__handler.html#a460cfb79a06c29fc249952c2a3710d67" target="_top" xlink:title="This provides a convenient interface for writing an mpp_error message with run&#45;time filter based on a...">
<polygon fill="#ffffff" stroke="#000000" points="486,-142.5 486,-172.5 601,-172.5 601,-142.5 486,-142.5"/>
<text text-anchor="start" x="494" y="-160.5" font-family="Helvetica,sans-Serif" font-size="10.00" fill="#000000">mom_error_handler::</text>
<text text-anchor="middle" x="543.5" y="-149.5" font-family="Helvetica,sans-Serif" font-size="10.00" fill="#000000">mom_error</text>
</a>
</g>
</g>
<!-- Node1&#45;&gt;Node2 -->
<g id="edge1" class="edge">
<title>Node1&#45;&gt;Node2</title>
<path fill="none" stroke="#191970" d="M71.0032,-183.5346C88.0129,-199.4766 117.3807,-223.802 148,-234.5 273.9165,-278.4939 323.3415,-289.9414 448,-242.5 480.2714,-230.2184 508.5873,-201.4749 525.8379,-180.812"/>
<polygon fill="#191970" stroke="#191970" points="528.7537,-182.7725 532.3195,-172.7957 523.3104,-178.3713 528.7537,-182.7725"/>
</g>
<!-- Node4 -->
<g id="node4" class="node">
<title>Node4</title>
<g id="a_node4"><a xlink:href="namespacecoord__adapt.html#a35706e0359c3953aac56b160e48b0ef8" target="_top" xlink:title="This subtroutine can be used to set the parameters for coord_adapt module.">
<polygon fill="#ffffff" stroke="#000000" points="314,-202.5 314,-232.5 442,-232.5 442,-202.5 314,-202.5"/>
<text text-anchor="start" x="322" y="-220.5" font-family="Helvetica,sans-Serif" font-size="10.00" fill="#000000">coord_adapt::set_adapt</text>
<text text-anchor="middle" x="378" y="-209.5" font-family="Helvetica,sans-Serif" font-size="10.00" fill="#000000">_params</text>
</a>
</g>
</g>
<!-- Node1&#45;&gt;Node4 -->
<g id="edge3" class="edge">
<title>Node1&#45;&gt;Node4</title>
<path fill="none" stroke="#191970" d="M78.2739,-183.6209C96.2203,-194.8528 122.5674,-209.2627 148,-215.5 198.8388,-227.9681 257.919,-228.1919 303.4707,-225.4418"/>
<polygon fill="#191970" stroke="#191970" points="303.8186,-228.9264 313.5644,-224.7708 303.3542,-221.9419 303.8186,-228.9264"/>
</g>
<!-- Node5 -->
<g id="node5" class="node">
<title>Node5</title>
<g id="a_node5"><a xlink:href="namespacecoord__hycom.html#af1b6262578c0ae1b48d576c9e43712f4" target="_top" xlink:title="This subroutine can be used to set the parameters for the coord_hycom module.">
<polygon fill="#ffffff" stroke="#000000" points="310,-142.5 310,-172.5 446,-172.5 446,-142.5 310,-142.5"/>
<text text-anchor="start" x="318" y="-160.5" font-family="Helvetica,sans-Serif" font-size="10.00" fill="#000000">coord_hycom::set_hycom</text>
<text text-anchor="middle" x="378" y="-149.5" font-family="Helvetica,sans-Serif" font-size="10.00" fill="#000000">_params</text>
</a>
</g>
</g>
<!-- Node1&#45;&gt;Node5 -->
<g id="edge5" class="edge">
<title>Node1&#45;&gt;Node5</title>
<path fill="none" stroke="#191970" d="M112.0881,-166.5839C164.017,-164.81 241.737,-162.1549 299.7603,-160.1728"/>
<polygon fill="#191970" stroke="#191970" points="300.1142,-163.6628 309.9888,-159.8234 299.8751,-156.6669 300.1142,-163.6628"/>
</g>
<!-- Node6 -->
<g id="node6" class="node">
<title>Node6</title>
<g id="a_node6"><a xlink:href="namespaceregrid__interp.html#a9ed8b5720d74090e95ca0074240a0d8a" target="_top" xlink:title="Store the boundary_extrapolation value in the interp_CS.">
<polygon fill="#ffffff" stroke="#000000" points="162,-175.5 162,-205.5 258,-205.5 258,-175.5 162,-175.5"/>
<text text-anchor="start" x="170" y="-193.5" font-family="Helvetica,sans-Serif" font-size="10.00" fill="#000000">regrid_interp::set</text>
<text text-anchor="middle" x="210" y="-182.5" font-family="Helvetica,sans-Serif" font-size="10.00" fill="#000000">_interp_extrap</text>
</a>
</g>
</g>
<!-- Node1&#45;&gt;Node6 -->
<g id="edge7" class="edge">
<title>Node1&#45;&gt;Node6</title>
<path fill="none" stroke="#191970" d="M112.0332,-176.5047C124.9266,-178.3467 138.669,-180.3099 151.6577,-182.1654"/>
<polygon fill="#191970" stroke="#191970" points="151.4877,-185.6766 161.8822,-183.626 152.4777,-178.7469 151.4877,-185.6766"/>
</g>
<!-- Node7 -->
<g id="node7" class="node">
<title>Node7</title>
<g id="a_node7"><a xlink:href="namespaceregrid__interp.html#ae77f3027ed51829db5d4ed6dbc744550" target="_top" xlink:title="Store the interpolation_scheme value in the interp_CS based on the input string.">
<polygon fill="#ffffff" stroke="#000000" points="162,-.5 162,-30.5 258,-30.5 258,-.5 162,-.5"/>
<text text-anchor="start" x="170" y="-18.5" font-family="Helvetica,sans-Serif" font-size="10.00" fill="#000000">regrid_interp::set</text>
<text text-anchor="middle" x="210" y="-7.5" font-family="Helvetica,sans-Serif" font-size="10.00" fill="#000000">_interp_scheme</text>
</a>
</g>
</g>
<!-- Node1&#45;&gt;Node7 -->
<g id="edge8" class="edge">
<title>Node1&#45;&gt;Node7</title>
<path fill="none" stroke="#191970" d="M63.1687,-153.1697C76.3612,-126.5043 106.9381,-71.3885 148,-39.5 149.7776,-38.1195 151.6442,-36.81 153.5758,-35.5688"/>
<polygon fill="#191970" stroke="#191970" points="155.4269,-38.5426 162.3876,-30.5552 151.9651,-32.4584 155.4269,-38.5426"/>
</g>
<!-- Node10 -->
<g id="node10" class="node">
<title>Node10</title>
<g id="a_node10"><a xlink:href="namespacecoord__sigma.html#aceccbaf232379cea8182c04130c03f5a" target="_top" xlink:title="This subroutine can be used to set the parameters for the coord_sigma module.">
<polygon fill="#ffffff" stroke="#000000" points="313,-93.5 313,-123.5 443,-123.5 443,-93.5 313,-93.5"/>
<text text-anchor="start" x="321" y="-111.5" font-family="Helvetica,sans-Serif" font-size="10.00" fill="#000000">coord_sigma::set_sigma</text>
<text text-anchor="middle" x="378" y="-100.5" font-family="Helvetica,sans-Serif" font-size="10.00" fill="#000000">_params</text>
</a>
</g>
</g>
<!-- Node1&#45;&gt;Node10 -->
<g id="edge12" class="edge">
<title>Node1&#45;&gt;Node10</title>
<path fill="none" stroke="#191970" d="M112.0881,-158.0488C164.9762,-148.1939 244.6169,-133.354 302.9551,-122.4835"/>
<polygon fill="#191970" stroke="#191970" points="303.667,-125.9112 312.8567,-120.6385 302.3847,-119.0296 303.667,-125.9112"/>
</g>
<!-- Node11 -->
<g id="node11" class="node">
<title>Node11</title>
<g id="a_node11"><a xlink:href="namespacecoord__slight.html#a5ffc8589603f020d1d5af03cfd308154" target="_top" xlink:title="This subroutine can be used to set the parameters for the coord_slight module.">
<polygon fill="#ffffff" stroke="#000000" points="148,-49.5 148,-79.5 272,-79.5 272,-49.5 148,-49.5"/>
<text text-anchor="start" x="156" y="-67.5" font-family="Helvetica,sans-Serif" font-size="10.00" fill="#000000">coord_slight::set_slight</text>
<text text-anchor="middle" x="210" y="-56.5" font-family="Helvetica,sans-Serif" font-size="10.00" fill="#000000">_params</text>
</a>
</g>
</g>
<!-- Node1&#45;&gt;Node11 -->
<g id="edge14" class="edge">
<title>Node1&#45;&gt;Node11</title>
<path fill="none" stroke="#191970" d="M72.4237,-153.3693C90.1867,-137.4779 119.7635,-112.3615 148,-94.5 153.7713,-90.8493 160.0531,-87.3344 166.3305,-84.0764"/>
<polygon fill="#191970" stroke="#191970" points="168.091,-87.1092 175.4644,-79.5011 164.9558,-80.8505 168.091,-87.1092"/>
</g>
<!-- Node12 -->
<g id="node12" class="node">
<title>Node12</title>
<g id="a_node12"><a xlink:href="namespacecoord__zlike.html#acb2336ed52c2c3ed2509450c61790753" target="_top" xlink:title="Set parameters in the zlike structure.">
<polygon fill="#ffffff" stroke="#000000" points="152,-301.5 152,-331.5 268,-331.5 268,-301.5 152,-301.5"/>
<text text-anchor="start" x="160" y="-319.5" font-family="Helvetica,sans-Serif" font-size="10.00" fill="#000000">coord_zlike::set_zlike</text>
<text text-anchor="middle" x="210" y="-308.5" font-family="Helvetica,sans-Serif" font-size="10.00" fill="#000000">_params</text>
</a>
</g>
</g>
<!-- Node1&#45;&gt;Node12 -->
<g id="edge16" class="edge">
<title>Node1&#45;&gt;Node12</title>
<path fill="none" stroke="#191970" d="M64.6789,-183.7251C79.2208,-208.123 110.6207,-256.2962 148,-286.5 152.5879,-290.2072 157.7098,-293.5996 162.9894,-296.6609"/>
<polygon fill="#191970" stroke="#191970" points="161.4942,-299.8311 171.9573,-301.4973 164.817,-293.6699 161.4942,-299.8311"/>
</g>
<!-- Node3 -->
<g id="node3" class="node">
<title>Node3</title>
<g id="a_node3"><a xlink:href="namespacemom__error__handler.html#ad5f00a53059c72fe2332d1436c80ca71" target="_top" xlink:title="This returns .true. if the current PE is the root PE.">
<polygon fill="#ffffff" stroke="#000000" points="639,-142.5 639,-172.5 754,-172.5 754,-142.5 639,-142.5"/>
<text text-anchor="start" x="647" y="-160.5" font-family="Helvetica,sans-Serif" font-size="10.00" fill="#000000">mom_error_handler::</text>
<text text-anchor="middle" x="696.5" y="-149.5" font-family="Helvetica,sans-Serif" font-size="10.00" fill="#000000">is_root_pe</text>
</a>
</g>
</g>
<!-- Node2&#45;&gt;Node3 -->
<g id="edge2" class="edge">
<title>Node2&#45;&gt;Node3</title>
<path fill="none" stroke="#191970" d="M601.3427,-157.5C610.2579,-157.5 619.5331,-157.5 628.6427,-157.5"/>
<polygon fill="#191970" stroke="#191970" points="628.8293,-161.0001 638.8293,-157.5 628.8293,-154.0001 628.8293,-161.0001"/>
</g>
<!-- Node4&#45;&gt;Node2 -->
<g id="edge4" class="edge">
<title>Node4&#45;&gt;Node2</title>
<path fill="none" stroke="#191970" d="M419.7626,-202.3595C441.8973,-194.3348 469.2664,-184.4125 492.632,-175.9416"/>
<polygon fill="#191970" stroke="#191970" points="493.8294,-179.2305 502.0377,-172.5317 491.4435,-172.6496 493.8294,-179.2305"/>
</g>
<!-- Node5&#45;&gt;Node2 -->
<g id="edge6" class="edge">
<title>Node5&#45;&gt;Node2</title>
<path fill="none" stroke="#191970" d="M446.2707,-157.5C456.0513,-157.5 466.1104,-157.5 475.8783,-157.5"/>
<polygon fill="#191970" stroke="#191970" points="475.9283,-161.0001 485.9283,-157.5 475.9282,-154.0001 475.9283,-161.0001"/>
</g>
<!-- Node8 -->
<g id="node8" class="node">
<title>Node8</title>
<g id="a_node8"><a xlink:href="namespaceregrid__interp.html#ab4d21d91c26022a3e79268be4fe14d44" target="_top" xlink:title="Numeric value of interpolation_scheme corresponding to scheme name.">
<polygon fill="#ffffff" stroke="#000000" points="308,-3.5 308,-33.5 448,-33.5 448,-3.5 308,-3.5"/>
<text text-anchor="start" x="316" y="-21.5" font-family="Helvetica,sans-Serif" font-size="10.00" fill="#000000">regrid_interp::interpolation</text>
<text text-anchor="middle" x="378" y="-10.5" font-family="Helvetica,sans-Serif" font-size="10.00" fill="#000000">_scheme</text>
</a>
</g>
</g>
<!-- Node7&#45;&gt;Node8 -->
<g id="edge9" class="edge">
<title>Node7&#45;&gt;Node8</title>
<path fill="none" stroke="#191970" d="M258.1421,-16.3597C270.5045,-16.5804 284.1426,-16.824 297.6543,-17.0653"/>
<polygon fill="#191970" stroke="#191970" points="297.8781,-20.5697 307.939,-17.2489 298.0031,-13.5708 297.8781,-20.5697"/>
</g>
<!-- Node8&#45;&gt;Node2 -->
<g id="edge10" class="edge">
<title>Node8&#45;&gt;Node2</title>
<path fill="none" stroke="#191970" d="M418.4678,-33.5711C428.5778,-38.2391 439.0741,-43.9171 448,-50.5 480.1618,-74.2193 509.5331,-110.254 526.9716,-133.8393"/>
<polygon fill="#191970" stroke="#191970" points="524.3455,-136.1797 533.0517,-142.2173 530.0109,-132.0682 524.3455,-136.1797"/>
</g>
<!-- Node9 -->
<g id="node9" class="node">
<title>Node9</title>
<g id="a_node9"><a xlink:href="namespacemom__string__functions.html#aca148baf726de2f028b7e7baad3c85d4" target="_top" xlink:title="Return a string in which all uppercase letters have been replaced by their lowercase counterparts.">
<polygon fill="#ffffff" stroke="#000000" points="484,-3.5 484,-33.5 603,-33.5 603,-3.5 484,-3.5"/>
<text text-anchor="start" x="492" y="-21.5" font-family="Helvetica,sans-Serif" font-size="10.00" fill="#000000">mom_string_functions</text>
<text text-anchor="middle" x="543.5" y="-10.5" font-family="Helvetica,sans-Serif" font-size="10.00" fill="#000000">::uppercase</text>
</a>
</g>
</g>
<!-- Node8&#45;&gt;Node9 -->
<g id="edge11" class="edge">
<title>Node8&#45;&gt;Node9</title>
<path fill="none" stroke="#191970" d="M448.1869,-18.5C456.6424,-18.5 465.2771,-18.5 473.7266,-18.5"/>
<polygon fill="#191970" stroke="#191970" points="473.917,-22.0001 483.917,-18.5 473.9169,-15.0001 473.917,-22.0001"/>
</g>
<!-- Node10&#45;&gt;Node2 -->
<g id="edge13" class="edge">
<title>Node10&#45;&gt;Node2</title>
<path fill="none" stroke="#191970" d="M429.0059,-123.6014C446.0749,-128.6551 465.2679,-134.3376 482.9906,-139.5848"/>
<polygon fill="#191970" stroke="#191970" points="482.0803,-142.9654 492.6625,-142.4484 484.0676,-136.2534 482.0803,-142.9654"/>
</g>
<!-- Node11&#45;&gt;Node2 -->
<g id="edge15" class="edge">
<title>Node11&#45;&gt;Node2</title>
<path fill="none" stroke="#191970" d="M272.022,-60.3505C321.337,-59.2319 391.2293,-62.5953 448,-84.5 476.534,-95.5097 503.6962,-117.8382 521.7058,-134.9178"/>
<polygon fill="#191970" stroke="#191970" points="519.7068,-137.8574 529.3084,-142.3362 524.5955,-132.8473 519.7068,-137.8574"/>
</g>
<!-- Node12&#45;&gt;Node2 -->
<g id="edge17" class="edge">
<title>Node12&#45;&gt;Node2</title>
<path fill="none" stroke="#191970" d="M268.3717,-321.4836C319.2198,-323.0832 393.185,-318.5771 448,-286.5 489.486,-262.2229 518.4244,-212.0912 532.8885,-181.971"/>
<polygon fill="#191970" stroke="#191970" points="536.2069,-183.1345 537.2361,-172.5897 529.8557,-180.1911 536.2069,-183.1345"/>
</g>
</g>
</svg>
