<?xml version="1.0" encoding="UTF-8" standalone="no"?>
<!DOCTYPE svg PUBLIC "-//W3C//DTD SVG 1.1//EN"
 "http://www.w3.org/Graphics/SVG/1.1/DTD/svg11.dtd">
<!-- Generated by graphviz version 2.40.1 (20161225.0304)
 -->
<!-- Title: p3m_functions::monotonize_cubic Pages: 1 -->
<svg width="1233pt" height="137pt"
 viewBox="0.00 0.00 1233.00 137.00" xmlns="http://www.w3.org/2000/svg" xmlns:xlink="http://www.w3.org/1999/xlink">
<g id="graph0" class="graph" transform="scale(1 1) rotate(0) translate(4 133)">
<title>p3m_functions::monotonize_cubic</title>
<polygon fill="#ffffff" stroke="transparent" points="-4,4 -4,-133 1229,-133 1229,4 -4,4"/>
<!-- Node1 -->
<g id="node1" class="node">
<title>Node1</title>
<g id="a_node1"><a xlink:title="Monotonize a cubic curve by modifying the edge slopes.">
<polygon fill="#bfbfbf" stroke="#000000" points="1088,-49.5 1088,-79.5 1225,-79.5 1225,-49.5 1088,-49.5"/>
<text text-anchor="start" x="1096" y="-67.5" font-family="Helvetica,sans-Serif" font-size="10.00" fill="#000000">p3m_functions::monotonize</text>
<text text-anchor="middle" x="1156.5" y="-56.5" font-family="Helvetica,sans-Serif" font-size="10.00" fill="#000000">_cubic</text>
</a>
</g>
</g>
<!-- Node2 -->
<g id="node2" class="node">
<title>Node2</title>
<g id="a_node2"><a xlink:href="namespacep3m__functions.html#a6e82e1b678b123181ea3fde88cd14e3a" target="_top" xlink:title="Calculate the edge values and slopes at boundary cells as part of building a piecewise cubic sub&#45;grid...">
<polygon fill="#ffffff" stroke="#000000" points="789,-74.5 789,-104.5 911,-104.5 911,-74.5 789,-74.5"/>
<text text-anchor="start" x="797" y="-92.5" font-family="Helvetica,sans-Serif" font-size="10.00" fill="#000000">p3m_functions::p3m</text>
<text text-anchor="middle" x="850" y="-81.5" font-family="Helvetica,sans-Serif" font-size="10.00" fill="#000000">_boundary_extrapolation</text>
</a>
</g>
</g>
<!-- Node1&#45;&gt;Node2 -->
<g id="edge1" class="edge">
<title>Node1&#45;&gt;Node2</title>
<path fill="none" stroke="#191970" d="M1077.551,-70.9396C1025.6796,-75.1705 958.8256,-80.6235 911.0278,-84.5222"/>
<polygon fill="#191970" stroke="#191970" points="1078.0331,-74.412 1087.7154,-70.1105 1077.4639,-67.4351 1078.0331,-74.412"/>
</g>
<!-- Node11 -->
<g id="node11" class="node">
<title>Node11</title>
<g id="a_node11"><a xlink:href="namespacep3m__functions.html#ab31ae8429b3676f925ae61510d7f047a" target="_top" xlink:title="Adust a piecewise cubic reconstruction with a limiter that adjusts the edge values and slopes.">
<polygon fill="#ffffff" stroke="#000000" points="947,-27.5 947,-57.5 1052,-57.5 1052,-27.5 947,-27.5"/>
<text text-anchor="start" x="955" y="-45.5" font-family="Helvetica,sans-Serif" font-size="10.00" fill="#000000">p3m_functions::p3m</text>
<text text-anchor="middle" x="999.5" y="-34.5" font-family="Helvetica,sans-Serif" font-size="10.00" fill="#000000">_limiter</text>
</a>
</g>
</g>
<!-- Node1&#45;&gt;Node11 -->
<g id="edge10" class="edge">
<title>Node1&#45;&gt;Node11</title>
<path fill="none" stroke="#191970" d="M1077.5809,-53.4413C1068.9958,-52.2383 1060.4174,-51.0362 1052.2565,-49.8926"/>
<polygon fill="#191970" stroke="#191970" points="1077.2485,-56.9288 1087.6375,-54.8505 1078.22,-49.9965 1077.2485,-56.9288"/>
</g>
<!-- Node3 -->
<g id="node3" class="node">
<title>Node3</title>
<g id="a_node3"><a xlink:href="namespaceregrid__interp.html#a3d1406836d089b4553421776277e1339" target="_top" xlink:title="Builds an interpolated profile for the densities within each grid cell.">
<polygon fill="#ffffff" stroke="#000000" points="635,-49.5 635,-79.5 753,-79.5 753,-49.5 635,-49.5"/>
<text text-anchor="start" x="643" y="-67.5" font-family="Helvetica,sans-Serif" font-size="10.00" fill="#000000">regrid_interp::regridding</text>
<text text-anchor="middle" x="694" y="-56.5" font-family="Helvetica,sans-Serif" font-size="10.00" fill="#000000">_set_ppolys</text>
</a>
</g>
</g>
<!-- Node2&#45;&gt;Node3 -->
<g id="edge2" class="edge">
<title>Node2&#45;&gt;Node3</title>
<path fill="none" stroke="#191970" d="M778.8248,-78.0937C770.2695,-76.7227 761.6038,-75.3339 753.2437,-73.9942"/>
<polygon fill="#191970" stroke="#191970" points="778.3645,-81.5645 788.7924,-79.6911 779.4723,-74.6527 778.3645,-81.5645"/>
</g>
<!-- Node4 -->
<g id="node4" class="node">
<title>Node4</title>
<g id="a_node4"><a xlink:href="namespaceregrid__interp.html#abaef8cc7e1258b61710adbd6fb742122" target="_top" xlink:title="Build a grid by interpolating for target values.">
<polygon fill="#ffffff" stroke="#000000" points="490,-49.5 490,-79.5 599,-79.5 599,-49.5 490,-49.5"/>
<text text-anchor="start" x="498" y="-67.5" font-family="Helvetica,sans-Serif" font-size="10.00" fill="#000000">regrid_interp::build</text>
<text text-anchor="middle" x="544.5" y="-56.5" font-family="Helvetica,sans-Serif" font-size="10.00" fill="#000000">_and_interpolate_grid</text>
</a>
</g>
</g>
<!-- Node3&#45;&gt;Node4 -->
<g id="edge3" class="edge">
<title>Node3&#45;&gt;Node4</title>
<path fill="none" stroke="#191970" d="M624.8963,-64.5C616.3004,-64.5 607.6044,-64.5 599.2664,-64.5"/>
<polygon fill="#191970" stroke="#191970" points="624.9137,-68.0001 634.9136,-64.5 624.9136,-61.0001 624.9137,-68.0001"/>
</g>
<!-- Node5 -->
<g id="node5" class="node">
<title>Node5</title>
<g id="a_node5"><a xlink:href="namespacecoord__hycom.html#aec801ef9df8a887e77b7c1ecf459bd5a" target="_top" xlink:title="Build a HyCOM coordinate column.">
<polygon fill="#ffffff" stroke="#000000" points="351.5,-98.5 351.5,-128.5 452.5,-128.5 452.5,-98.5 351.5,-98.5"/>
<text text-anchor="start" x="359.5" y="-116.5" font-family="Helvetica,sans-Serif" font-size="10.00" fill="#000000">coord_hycom::build</text>
<text text-anchor="middle" x="402" y="-105.5" font-family="Helvetica,sans-Serif" font-size="10.00" fill="#000000">_hycom1_column</text>
</a>
</g>
</g>
<!-- Node4&#45;&gt;Node5 -->
<g id="edge4" class="edge">
<title>Node4&#45;&gt;Node5</title>
<path fill="none" stroke="#191970" d="M491.0199,-82.8896C476.1827,-87.9916 460.2473,-93.4711 446.0177,-98.3641"/>
<polygon fill="#191970" stroke="#191970" points="492.2641,-86.163 500.5825,-79.6014 489.9879,-79.5434 492.2641,-86.163"/>
</g>
<!-- Node8 -->
<g id="node8" class="node">
<title>Node8</title>
<g id="a_node8"><a xlink:href="namespacecoord__rho.html#ac3f19bfa0e6b622cdf045c348ec4d183" target="_top" xlink:title="Build a rho coordinate column.">
<polygon fill="#ffffff" stroke="#000000" points="350,-49.5 350,-79.5 454,-79.5 454,-49.5 350,-49.5"/>
<text text-anchor="start" x="358" y="-67.5" font-family="Helvetica,sans-Serif" font-size="10.00" fill="#000000">coord_rho::build_rho</text>
<text text-anchor="middle" x="402" y="-56.5" font-family="Helvetica,sans-Serif" font-size="10.00" fill="#000000">_column</text>
</a>
</g>
</g>
<!-- Node4&#45;&gt;Node8 -->
<g id="edge7" class="edge">
<title>Node4&#45;&gt;Node8</title>
<path fill="none" stroke="#191970" d="M479.6162,-64.5C471.1812,-64.5 462.6263,-64.5 454.4294,-64.5"/>
<polygon fill="#191970" stroke="#191970" points="479.8134,-68.0001 489.8133,-64.5 479.8133,-61.0001 479.8134,-68.0001"/>
</g>
<!-- Node10 -->
<g id="node10" class="node">
<title>Node10</title>
<g id="a_node10"><a xlink:href="namespacecoord__rho.html#aa5b249b62eabf07cdc7f02649f029cae" target="_top" xlink:title="Iteratively build a rho coordinate column.">
<polygon fill="#ffffff" stroke="#000000" points="350,-.5 350,-30.5 454,-30.5 454,-.5 350,-.5"/>
<text text-anchor="start" x="358" y="-18.5" font-family="Helvetica,sans-Serif" font-size="10.00" fill="#000000">coord_rho::build_rho</text>
<text text-anchor="middle" x="402" y="-7.5" font-family="Helvetica,sans-Serif" font-size="10.00" fill="#000000">_column_iteratively</text>
</a>
</g>
</g>
<!-- Node4&#45;&gt;Node10 -->
<g id="edge9" class="edge">
<title>Node4&#45;&gt;Node10</title>
<path fill="none" stroke="#191970" d="M491.0199,-46.1104C476.1827,-41.0084 460.2473,-35.5289 446.0177,-30.6359"/>
<polygon fill="#191970" stroke="#191970" points="489.9879,-49.4566 500.5825,-49.3986 492.2641,-42.837 489.9879,-49.4566"/>
</g>
<!-- Node6 -->
<g id="node6" class="node">
<title>Node6</title>
<g id="a_node6"><a xlink:href="namespacemom__regridding.html#acbb6035a98bdce7e8d2d5a10174c0e22" target="_top" xlink:title="Builds a simple HyCOM&#45;like grid with the deepest location of potential density interpolated from the ...">
<polygon fill="#ffffff" stroke="#000000" points="199,-98.5 199,-128.5 311,-128.5 311,-98.5 199,-98.5"/>
<text text-anchor="start" x="207" y="-116.5" font-family="Helvetica,sans-Serif" font-size="10.00" fill="#000000">mom_regridding::build</text>
<text text-anchor="middle" x="255" y="-105.5" font-family="Helvetica,sans-Serif" font-size="10.00" fill="#000000">_grid_hycom1</text>
</a>
</g>
</g>
<!-- Node5&#45;&gt;Node6 -->
<g id="edge5" class="edge">
<title>Node5&#45;&gt;Node6</title>
<path fill="none" stroke="#191970" d="M341.2116,-113.5C331.2831,-113.5 321.0355,-113.5 311.2233,-113.5"/>
<polygon fill="#191970" stroke="#191970" points="341.411,-117.0001 351.4109,-113.5 341.4109,-110.0001 341.411,-117.0001"/>
</g>
<!-- Node7 -->
<g id="node7" class="node">
<title>Node7</title>
<g id="a_node7"><a xlink:href="namespacemom__regridding.html#ab354fe3423a39fef6f2b66f409b1682c" target="_top" xlink:title="Dispatching regridding routine for orchestrating regridding &amp; remapping.">
<polygon fill="#ffffff" stroke="#000000" points="0,-104 0,-123 160,-123 160,-104 0,-104"/>
<text text-anchor="middle" x="80" y="-111" font-family="Helvetica,sans-Serif" font-size="10.00" fill="#000000">mom_regridding::regridding_main</text>
</a>
</g>
</g>
<!-- Node6&#45;&gt;Node7 -->
<g id="edge6" class="edge">
<title>Node6&#45;&gt;Node7</title>
<path fill="none" stroke="#191970" d="M188.3962,-113.5C179.155,-113.5 169.5836,-113.5 160.1278,-113.5"/>
<polygon fill="#191970" stroke="#191970" points="188.6657,-117.0001 198.6656,-113.5 188.6656,-110.0001 188.6657,-117.0001"/>
</g>
<!-- Node9 -->
<g id="node9" class="node">
<title>Node9</title>
<g id="a_node9"><a xlink:href="namespacemom__diag__remap.html#a1951a63528283e209401e317872f650b" target="_top" xlink:title="Build/update target vertical grids for diagnostic remapping.">
<polygon fill="#ffffff" stroke="#000000" points="196,-49.5 196,-79.5 314,-79.5 314,-49.5 196,-49.5"/>
<text text-anchor="start" x="204" y="-67.5" font-family="Helvetica,sans-Serif" font-size="10.00" fill="#000000">mom_diag_remap::diag</text>
<text text-anchor="middle" x="255" y="-56.5" font-family="Helvetica,sans-Serif" font-size="10.00" fill="#000000">_remap_update</text>
</a>
</g>
</g>
<!-- Node8&#45;&gt;Node9 -->
<g id="edge8" class="edge">
<title>Node8&#45;&gt;Node9</title>
<path fill="none" stroke="#191970" d="M339.5793,-64.5C331.1267,-64.5 322.474,-64.5 314.0824,-64.5"/>
<polygon fill="#191970" stroke="#191970" points="339.7594,-68.0001 349.7594,-64.5 339.7594,-61.0001 339.7594,-68.0001"/>
</g>
<!-- Node12 -->
<g id="node12" class="node">
<title>Node12</title>
<g id="a_node12"><a xlink:href="namespacep3m__functions.html#af8700cc6f491ea22ec0cff6208dc2483" target="_top" xlink:title="Set up a piecewise cubic interpolation from cell averages and estimated edge slopes and values.">
<polygon fill="#ffffff" stroke="#000000" points="797.5,-25.5 797.5,-55.5 902.5,-55.5 902.5,-25.5 797.5,-25.5"/>
<text text-anchor="start" x="805.5" y="-43.5" font-family="Helvetica,sans-Serif" font-size="10.00" fill="#000000">p3m_functions::p3m</text>
<text text-anchor="middle" x="850" y="-32.5" font-family="Helvetica,sans-Serif" font-size="10.00" fill="#000000">_interpolation</text>
</a>
</g>
</g>
<!-- Node11&#45;&gt;Node12 -->
<g id="edge11" class="edge">
<title>Node11&#45;&gt;Node12</title>
<path fill="none" stroke="#191970" d="M936.5792,-41.6582C925.313,-41.5075 913.679,-41.3519 902.736,-41.2055"/>
<polygon fill="#191970" stroke="#191970" points="936.7459,-45.1607 946.7919,-41.7949 936.8396,-38.1613 936.7459,-45.1607"/>
</g>
<!-- Node12&#45;&gt;Node3 -->
<g id="edge12" class="edge">
<title>Node12&#45;&gt;Node3</title>
<path fill="none" stroke="#191970" d="M787.0652,-50.1823C775.8837,-51.9025 764.2727,-53.6888 753.1993,-55.3924"/>
<polygon fill="#191970" stroke="#191970" points="787.834,-53.6053 797.1855,-48.6253 786.7696,-46.6867 787.834,-53.6053"/>
</g>
</g>
</svg>
