<?xml version="1.0" encoding="UTF-8" standalone="no"?>
<!DOCTYPE svg PUBLIC "-//W3C//DTD SVG 1.1//EN"
 "http://www.w3.org/Graphics/SVG/1.1/DTD/svg11.dtd">
<!-- Generated by graphviz version 2.40.1 (20161225.0304)
 -->
<!-- Title: mom_sponge::apply_sponge Pages: 1 -->
<svg width="592pt" height="137pt"
 viewBox="0.00 0.00 592.00 137.00" xmlns="http://www.w3.org/2000/svg" xmlns:xlink="http://www.w3.org/1999/xlink">
<g id="graph0" class="graph" transform="scale(1 1) rotate(0) translate(4 133)">
<title>mom_sponge::apply_sponge</title>
<polygon fill="#ffffff" stroke="transparent" points="-4,4 -4,-133 588,-133 588,4 -4,4"/>
<!-- Node1 -->
<g id="node1" class="node">
<title>Node1</title>
<g id="a_node1"><a xlink:title="This subroutine applies damping to the layers thicknesses, mixed layer buoyancy, and a variety of tra...">
<polygon fill="#bfbfbf" stroke="#000000" points="0,-79 0,-98 141,-98 141,-79 0,-79"/>
<text text-anchor="middle" x="70.5" y="-86" font-family="Helvetica,sans-Serif" font-size="10.00" fill="#000000">mom_sponge::apply_sponge</text>
</a>
</g>
</g>
<!-- Node2 -->
<g id="node2" class="node">
<title>Node2</title>
<g id="a_node2"><a xlink:href="namespacemom__spatial__means.html#a257babe85df2c4435f119236b94eafe9" target="_top" xlink:title="Determine the global mean of a field along rows of constant i, returning it in a 1&#45;d array using the ...">
<polygon fill="#ffffff" stroke="#000000" points="177,-51.5 177,-81.5 290,-81.5 290,-51.5 177,-51.5"/>
<text text-anchor="start" x="185" y="-69.5" font-family="Helvetica,sans-Serif" font-size="10.00" fill="#000000">mom_spatial_means::</text>
<text text-anchor="middle" x="233.5" y="-58.5" font-family="Helvetica,sans-Serif" font-size="10.00" fill="#000000">global_i_mean</text>
</a>
</g>
</g>
<!-- Node1&#45;&gt;Node2 -->
<g id="edge1" class="edge">
<title>Node1&#45;&gt;Node2</title>
<path fill="none" stroke="#191970" d="M141.0462,-78.9784C149.4875,-77.8391 158.0886,-76.6782 166.4781,-75.5459"/>
<polygon fill="#191970" stroke="#191970" points="167.1397,-78.9884 176.5817,-74.1822 166.2034,-72.0513 167.1397,-78.9884"/>
</g>
<!-- Node3 -->
<g id="node3" class="node">
<title>Node3</title>
<g id="a_node3"><a xlink:href="namespacemom__error__handler.html#a460cfb79a06c29fc249952c2a3710d67" target="_top" xlink:title="This provides a convenient interface for writing an mpp_error message with run&#45;time filter based on a...">
<polygon fill="#ffffff" stroke="#000000" points="331,-98.5 331,-128.5 437,-128.5 437,-98.5 331,-98.5"/>
<text text-anchor="start" x="339" y="-116.5" font-family="Helvetica,sans-Serif" font-size="10.00" fill="#000000">mom_error_handler::</text>
<text text-anchor="middle" x="384" y="-105.5" font-family="Helvetica,sans-Serif" font-size="10.00" fill="#000000">mom_error</text>
</a>
</g>
</g>
<!-- Node1&#45;&gt;Node3 -->
<g id="edge6" class="edge">
<title>Node1&#45;&gt;Node3</title>
<path fill="none" stroke="#191970" d="M141.2464,-94.1417C195.0857,-98.4351 268.5307,-104.2919 320.4956,-108.4359"/>
<polygon fill="#191970" stroke="#191970" points="320.3434,-111.9347 330.5901,-109.2408 320.9,-104.9569 320.3434,-111.9347"/>
</g>
<!-- Node2&#45;&gt;Node3 -->
<g id="edge2" class="edge">
<title>Node2&#45;&gt;Node3</title>
<path fill="none" stroke="#191970" d="M281.5329,-81.5003C295.7876,-85.9519 311.5481,-90.8738 326.3468,-95.4953"/>
<polygon fill="#191970" stroke="#191970" points="325.3185,-98.8408 335.9072,-98.481 327.4052,-92.1591 325.3185,-98.8408"/>
</g>
<!-- Node5 -->
<g id="node5" class="node">
<title>Node5</title>
<g id="a_node5"><a xlink:href="namespacemom__coms.html#addf8caf9a58bed7059b5bb6660d73c4e" target="_top" xlink:title="Returns the status of the module&#39;s error flag.">
<polygon fill="#ffffff" stroke="#000000" points="326,-49.5 326,-79.5 442,-79.5 442,-49.5 326,-49.5"/>
<text text-anchor="start" x="334" y="-67.5" font-family="Helvetica,sans-Serif" font-size="10.00" fill="#000000">mom_coms::query_efp</text>
<text text-anchor="middle" x="384" y="-56.5" font-family="Helvetica,sans-Serif" font-size="10.00" fill="#000000">_overflow_error</text>
</a>
</g>
</g>
<!-- Node2&#45;&gt;Node5 -->
<g id="edge4" class="edge">
<title>Node2&#45;&gt;Node5</title>
<path fill="none" stroke="#191970" d="M290.3976,-65.7439C298.6234,-65.6346 307.1608,-65.5211 315.5831,-65.4092"/>
<polygon fill="#191970" stroke="#191970" points="315.8181,-68.9065 325.7707,-65.2738 315.7251,-61.9071 315.8181,-68.9065"/>
</g>
<!-- Node6 -->
<g id="node6" class="node">
<title>Node6</title>
<g id="a_node6"><a xlink:href="namespacemom__coms.html#a9a44466e43db89b2525996feedd11b7a" target="_top" xlink:title="Reset the module&#39;s error flag to false.">
<polygon fill="#ffffff" stroke="#000000" points="327,-.5 327,-30.5 441,-30.5 441,-.5 327,-.5"/>
<text text-anchor="start" x="335" y="-18.5" font-family="Helvetica,sans-Serif" font-size="10.00" fill="#000000">mom_coms::reset_efp</text>
<text text-anchor="middle" x="384" y="-7.5" font-family="Helvetica,sans-Serif" font-size="10.00" fill="#000000">_overflow_error</text>
</a>
</g>
</g>
<!-- Node2&#45;&gt;Node6 -->
<g id="edge5" class="edge">
<title>Node2&#45;&gt;Node6</title>
<path fill="none" stroke="#191970" d="M277.841,-51.4742C294.1493,-45.9478 312.8018,-39.627 329.8755,-33.8412"/>
<polygon fill="#191970" stroke="#191970" points="331.3685,-37.0308 339.7161,-30.5065 329.1218,-30.4012 331.3685,-37.0308"/>
</g>
<!-- Node4 -->
<g id="node4" class="node">
<title>Node4</title>
<g id="a_node4"><a xlink:href="namespacemom__error__handler.html#ad5f00a53059c72fe2332d1436c80ca71" target="_top" xlink:title="This returns .true. if the current PE is the root PE.">
<polygon fill="#ffffff" stroke="#000000" points="478,-98.5 478,-128.5 584,-128.5 584,-98.5 478,-98.5"/>
<text text-anchor="start" x="486" y="-116.5" font-family="Helvetica,sans-Serif" font-size="10.00" fill="#000000">mom_error_handler::</text>
<text text-anchor="middle" x="531" y="-105.5" font-family="Helvetica,sans-Serif" font-size="10.00" fill="#000000">is_root_pe</text>
</a>
</g>
</g>
<!-- Node3&#45;&gt;Node4 -->
<g id="edge3" class="edge">
<title>Node3&#45;&gt;Node4</title>
<path fill="none" stroke="#191970" d="M437.0704,-113.5C446.9391,-113.5 457.3415,-113.5 467.4854,-113.5"/>
<polygon fill="#191970" stroke="#191970" points="467.5138,-117.0001 477.5138,-113.5 467.5138,-110.0001 467.5138,-117.0001"/>
</g>
</g>
</svg>
