<?xml version="1.0" encoding="UTF-8" standalone="no"?>
<!DOCTYPE svg PUBLIC "-//W3C//DTD SVG 1.1//EN"
 "http://www.w3.org/Graphics/SVG/1.1/DTD/svg11.dtd">
<!-- Generated by graphviz version 2.40.1 (20161225.0304)
 -->
<!-- Title: mom_checksums::chksum_b_3d Pages: 1 -->
<!--zoomable 204 -->
<svg id="main" version="1.1" xmlns="http://www.w3.org/2000/svg" xmlns:xlink="http://www.w3.org/1999/xlink" xml:space="preserve" onload="init(evt)">
<style type="text/css"><![CDATA[
.edge:hover path { stroke: red; }
.edge:hover polygon { stroke: red; fill: red; }
]]></style>
<script type="text/javascript"><![CDATA[
var edges = document.getElementsByTagName('g');
if (edges && edges.length) {
  for (var i=0;i<edges.length;i++) {
    if (edges[i].id.substr(0,4)=='edge') {
      edges[i].setAttribute('class','edge');
    }
  }
}
]]></script>
        <defs>
                <circle id="rim" cx="0" cy="0" r="7"/>
                <circle id="rim2" cx="0" cy="0" r="3.5"/>
                <g id="zoomPlus">
                        <use xlink:href="#rim" fill="#404040">
                                <set attributeName="fill" to="#808080" begin="zoomplus.mouseover" end="zoomplus.mouseout"/>
                        </use>
                        <path d="M-4,0h8M0,-4v8" fill="none" stroke="white" stroke-width="1.5" pointer-events="none"/>
                </g>
                <g id="zoomMin">
                        <use xlink:href="#rim" fill="#404040">
                                <set attributeName="fill" to="#808080" begin="zoomminus.mouseover" end="zoomminus.mouseout"/>
                        </use>
                        <path d="M-4,0h8" fill="none" stroke="white" stroke-width="1.5" pointer-events="none"/>
                </g>
                <g id="dirArrow">
                        <path fill="none" stroke="white" stroke-width="1.5" d="M0,-3.0v7 M-2.5,-0.5L0,-3.0L2.5,-0.5"/>
                </g>
               <g id="resetDef">
                       <use xlink:href="#rim2" fill="#404040">
                               <set attributeName="fill" to="#808080" begin="reset.mouseover" end="reset.mouseout"/>
                       </use>
               </g>
        </defs>

<script type="text/javascript">
var viewWidth = 671;
var viewHeight = 204;
var sectionId = 'dynsection-17';
</script>
<script xlink:href="svgpan.js"/>
<svg id="graph" class="graph">
<g id="viewport">
<title>mom_checksums::chksum_b_3d</title>
<polygon fill="#ffffff" stroke="transparent" points="-4,4 -4,-199.5 667,-199.5 667,4 -4,4"/>
<!-- Node1 -->
<g id="node1" class="node">
<title>Node1</title>
<g id="a_node1"><a xlink:title="Checksums a 3d array staggered at corner points.">
<polygon fill="#bfbfbf" stroke="#000000" points="0,-82.5 0,-101.5 166,-101.5 166,-82.5 0,-82.5"/>
<text text-anchor="middle" x="83" y="-89.5" font-family="Helvetica,sans-Serif" font-size="10.00" fill="#000000">mom_checksums::chksum_b_3d</text>
</a>
</g>
</g>
<!-- Node2 -->
<g id="node2" class="node">
<title>Node2</title>
<g id="a_node2"><a xlink:href="namespacemom__checksums.html#a2bbf928379ba9abdc67a2f6f93ea8c34" target="_top" xlink:title="Write a message including checksums of non&#45;shifted and laterally shifted arrays.">
<polygon fill="#ffffff" stroke="#000000" points="384.5,-165 384.5,-195 502.5,-195 502.5,-165 384.5,-165"/>
<text text-anchor="start" x="392.5" y="-183" font-family="Helvetica,sans-Serif" font-size="10.00" fill="#000000">mom_checksums::chk</text>
<text text-anchor="middle" x="443.5" y="-172" font-family="Helvetica,sans-Serif" font-size="10.00" fill="#000000">_sum_msg_nsew</text>
</a>
</g>
</g>
<!-- Node1&#45;&gt;Node2 -->
<g id="edge1" class="edge">
<title>Node1&#45;&gt;Node2</title>
<path fill="none" stroke="#191970" d="M98.4875,-101.6299C120.5696,-114.8654 162.7816,-138.3586 202,-150 258.5304,-166.7803 325.2049,-174.1806 374.1587,-177.4411"/>
<polygon fill="#191970" stroke="#191970" points="374.1273,-180.9459 384.326,-178.0759 374.5635,-173.9595 374.1273,-180.9459"/>
</g>
<!-- Node3 -->
<g id="node3" class="node">
<title>Node3</title>
<g id="a_node3"><a xlink:href="namespacemom__error__handler.html#ad5f00a53059c72fe2332d1436c80ca71" target="_top" xlink:title="This returns .true. if the current PE is the root PE.">
<polygon fill="#ffffff" stroke="#000000" points="548,-121 548,-151 663,-151 663,-121 548,-121"/>
<text text-anchor="start" x="556" y="-139" font-family="Helvetica,sans-Serif" font-size="10.00" fill="#000000">mom_error_handler::</text>
<text text-anchor="middle" x="605.5" y="-128" font-family="Helvetica,sans-Serif" font-size="10.00" fill="#000000">is_root_pe</text>
</a>
</g>
</g>
<!-- Node1&#45;&gt;Node3 -->
<g id="edge6" class="edge">
<title>Node1&#45;&gt;Node3</title>
<path fill="none" stroke="#191970" d="M120.7876,-101.554C144.05,-107.0313 174.5679,-113.4955 202,-117 319.1724,-131.9689 456.8348,-135.4653 537.2988,-136.1058"/>
<polygon fill="#191970" stroke="#191970" points="537.7608,-139.6089 547.7839,-136.1756 537.8075,-132.609 537.7608,-139.6089"/>
</g>
<!-- Node4 -->
<g id="node4" class="node">
<title>Node4</title>
<g id="a_node4"><a xlink:href="namespacemom__checksums.html#a6400a8423305b77e4aed5d1cb4c24520" target="_top" xlink:title="A wrapper for MOM_error used in the checksum code.">
<polygon fill="#ffffff" stroke="#000000" points="202,-77 202,-107 339,-107 339,-77 202,-77"/>
<text text-anchor="start" x="210" y="-95" font-family="Helvetica,sans-Serif" font-size="10.00" fill="#000000">mom_checksums::chksum</text>
<text text-anchor="middle" x="270.5" y="-84" font-family="Helvetica,sans-Serif" font-size="10.00" fill="#000000">_error</text>
</a>
</g>
</g>
<!-- Node1&#45;&gt;Node4 -->
<g id="edge3" class="edge">
<title>Node1&#45;&gt;Node4</title>
<path fill="none" stroke="#191970" d="M166.059,-92C174.5551,-92 183.1698,-92 191.6192,-92"/>
<polygon fill="#191970" stroke="#191970" points="191.8245,-95.5001 201.8245,-92 191.8244,-88.5001 191.8245,-95.5001"/>
</g>
<!-- Node6 -->
<g id="node6" class="node">
<title>Node6</title>
<g id="a_node6"><a xlink:href="MOM__checksums_8F90.html#a9a7c036cc3f0557b0ca26ff97aa2ad1b" target="_top" xlink:title=" ">
<polygon fill="#ffffff" stroke="#000000" points="246,-38.5 246,-57.5 295,-57.5 295,-38.5 246,-38.5"/>
<text text-anchor="middle" x="270.5" y="-45.5" font-family="Helvetica,sans-Serif" font-size="10.00" fill="#000000">subchk</text>
</a>
</g>
</g>
<!-- Node1&#45;&gt;Node6 -->
<g id="edge7" class="edge">
<title>Node1&#45;&gt;Node6</title>
<path fill="none" stroke="#191970" d="M123.6847,-82.4527C157.166,-74.5957 204.1113,-63.5792 235.8293,-56.1361"/>
<polygon fill="#191970" stroke="#191970" points="237.0247,-59.4507 245.9606,-53.7586 235.4254,-52.6358 237.0247,-59.4507"/>
</g>
<!-- Node8 -->
<g id="node8" class="node">
<title>Node8</title>
<g id="a_node8"><a xlink:href="MOM__checksums_8F90.html#ad399546f73e634377973802b3dc64d28" target="_top" xlink:title=" ">
<polygon fill="#ffffff" stroke="#000000" points="243,-.5 243,-19.5 298,-19.5 298,-.5 243,-.5"/>
<text text-anchor="middle" x="270.5" y="-7.5" font-family="Helvetica,sans-Serif" font-size="10.00" fill="#000000">substats</text>
</a>
</g>
</g>
<!-- Node1&#45;&gt;Node8 -->
<g id="edge9" class="edge">
<title>Node1&#45;&gt;Node8</title>
<path fill="none" stroke="#191970" d="M98.6427,-82.303C120.9092,-68.8332 163.3389,-44.3851 202,-29 211.8041,-25.0985 222.7002,-21.6837 232.8653,-18.8657"/>
<polygon fill="#191970" stroke="#191970" points="233.9516,-22.1987 242.7193,-16.2508 232.1561,-15.4329 233.9516,-22.1987"/>
</g>
<!-- Node2&#45;&gt;Node3 -->
<g id="edge2" class="edge">
<title>Node2&#45;&gt;Node3</title>
<path fill="none" stroke="#191970" d="M498.7981,-164.9808C512.1483,-161.3548 526.5377,-157.4466 540.2947,-153.7101"/>
<polygon fill="#191970" stroke="#191970" points="541.4433,-157.025 550.1762,-151.0262 539.6085,-150.2697 541.4433,-157.025"/>
</g>
<!-- Node5 -->
<g id="node5" class="node">
<title>Node5</title>
<g id="a_node5"><a xlink:href="namespacemom__error__handler.html#a460cfb79a06c29fc249952c2a3710d67" target="_top" xlink:title="This provides a convenient interface for writing an mpp_error message with run&#45;time filter based on a...">
<polygon fill="#ffffff" stroke="#000000" points="386,-77 386,-107 501,-107 501,-77 386,-77"/>
<text text-anchor="start" x="394" y="-95" font-family="Helvetica,sans-Serif" font-size="10.00" fill="#000000">mom_error_handler::</text>
<text text-anchor="middle" x="443.5" y="-84" font-family="Helvetica,sans-Serif" font-size="10.00" fill="#000000">mom_error</text>
</a>
</g>
</g>
<!-- Node4&#45;&gt;Node5 -->
<g id="edge4" class="edge">
<title>Node4&#45;&gt;Node5</title>
<path fill="none" stroke="#191970" d="M339.3713,-92C351.3234,-92 363.7444,-92 375.6684,-92"/>
<polygon fill="#191970" stroke="#191970" points="375.9949,-95.5001 385.9949,-92 375.9949,-88.5001 375.9949,-95.5001"/>
</g>
<!-- Node5&#45;&gt;Node3 -->
<g id="edge5" class="edge">
<title>Node5&#45;&gt;Node3</title>
<path fill="none" stroke="#191970" d="M498.7981,-107.0192C512.1483,-110.6452 526.5377,-114.5534 540.2947,-118.2899"/>
<polygon fill="#191970" stroke="#191970" points="539.6085,-121.7303 550.1762,-120.9738 541.4433,-114.975 539.6085,-121.7303"/>
</g>
<!-- Node7 -->
<g id="node7" class="node">
<title>Node7</title>
<g id="a_node7"><a xlink:href="namespacemom__checksums.html#a13c171528ae5ab341cf75ef302a5b930" target="_top" xlink:title="Does a bitcount of a number by first casting to an integer and then using BTEST to check bit by bit.">
<polygon fill="#ffffff" stroke="#000000" points="375,-38.5 375,-57.5 512,-57.5 512,-38.5 375,-38.5"/>
<text text-anchor="middle" x="443.5" y="-45.5" font-family="Helvetica,sans-Serif" font-size="10.00" fill="#000000">mom_checksums::bitcount</text>
</a>
</g>
</g>
<!-- Node6&#45;&gt;Node7 -->
<g id="edge8" class="edge">
<title>Node6&#45;&gt;Node7</title>
<path fill="none" stroke="#191970" d="M295.2867,-48C313.5164,-48 339.3767,-48 364.4041,-48"/>
<polygon fill="#191970" stroke="#191970" points="364.6793,-51.5001 374.6792,-48 364.6792,-44.5001 364.6793,-51.5001"/>
</g>
</g>
</svg>
        <g id="navigator" transform="translate(0 0)" fill="#404254">
                <rect fill="#f2f5e9" fill-opacity="0.5" stroke="#606060" stroke-width=".5" x="0" y="0" width="60" height="60"/>
                <use id="zoomplus" xlink:href="#zoomPlus" x="17" y="9" onmousedown="handleZoom(evt,'in')"/>
                <use id="zoomminus" xlink:href="#zoomMin" x="42" y="9" onmousedown="handleZoom(evt,'out')"/>
                <use id="reset" xlink:href="#resetDef" x="30" y="36" onmousedown="handleReset()"/>
                <g id="arrowUp" xlink:href="#dirArrow" transform="translate(30 24)" onmousedown="handlePan(0,-1)">
                  <use xlink:href="#rim" fill="#404040">
                        <set attributeName="fill" to="#808080" begin="arrowUp.mouseover" end="arrowUp.mouseout"/>
                  </use>
                  <path fill="none" stroke="white" stroke-width="1.5" d="M0,-3.0v7 M-2.5,-0.5L0,-3.0L2.5,-0.5"/>
                </g>
                <g id="arrowRight" xlink:href="#dirArrow" transform="rotate(90) translate(36 -43)" onmousedown="handlePan(1,0)">
                  <use xlink:href="#rim" fill="#404040">
                        <set attributeName="fill" to="#808080" begin="arrowRight.mouseover" end="arrowRight.mouseout"/>
                  </use>
                  <path fill="none" stroke="white" stroke-width="1.5" d="M0,-3.0v7 M-2.5,-0.5L0,-3.0L2.5,-0.5"/>
                </g>
                <g id="arrowDown" xlink:href="#dirArrow" transform="rotate(180) translate(-30 -48)" onmousedown="handlePan(0,1)">
                  <use xlink:href="#rim" fill="#404040">
                        <set attributeName="fill" to="#808080" begin="arrowDown.mouseover" end="arrowDown.mouseout"/>
                  </use>
                  <path fill="none" stroke="white" stroke-width="1.5" d="M0,-3.0v7 M-2.5,-0.5L0,-3.0L2.5,-0.5"/>
                </g>
                <g id="arrowLeft" xlink:href="#dirArrow" transform="rotate(270) translate(-36 17)" onmousedown="handlePan(-1,0)">
                  <use xlink:href="#rim" fill="#404040">
                        <set attributeName="fill" to="#808080" begin="arrowLeft.mouseover" end="arrowLeft.mouseout"/>
                  </use>
                  <path fill="none" stroke="white" stroke-width="1.5" d="M0,-3.0v7 M-2.5,-0.5L0,-3.0L2.5,-0.5"/>
                </g>
        </g>
        <svg viewBox="0 0 15 15" width="100%" height="30px" preserveAspectRatio="xMaxYMin meet">
         <g id="arrow_out" transform="scale(0.3 0.3)">
          <a xlink:href="namespacemom__checksums_a4f6f9fc4c335aa2c0e4457a236d49b14_cgraph_org.svg" target="_base">
           <rect id="button" ry="5" rx="5" y="6" x="6" height="38" width="38"
                fill="#f2f5e9" fill-opacity="0.5" stroke="#606060" stroke-width="1.0"/>
           <path id="arrow"
             d="M 11.500037,31.436501 C 11.940474,20.09759 22.043105,11.32322 32.158766,21.979434 L 37.068811,17.246167 C 37.068811,17.246167 37.088388,32 37.088388,32 L 22.160133,31.978069 C 22.160133,31.978069 26.997745,27.140456 26.997745,27.140456 C 18.528582,18.264221 13.291696,25.230495 11.500037,31.436501 z"
             style="fill:#404040;"/>
          </a>
         </g>
        </svg>
</svg>
