<?xml version="1.0" encoding="UTF-8" standalone="no"?>
<!DOCTYPE svg PUBLIC "-//W3C//DTD SVG 1.1//EN"
 "http://www.w3.org/Graphics/SVG/1.1/DTD/svg11.dtd">
<!-- Generated by graphviz version 2.40.1 (20161225.0304)
 -->
<!-- Title: mom_shared_initialization::modulo_around_point Pages: 1 -->
<svg width="340pt" height="39pt"
 viewBox="0.00 0.00 340.00 39.00" xmlns="http://www.w3.org/2000/svg" xmlns:xlink="http://www.w3.org/1999/xlink">
<g id="graph0" class="graph" transform="scale(1 1) rotate(0) translate(4 35)">
<title>mom_shared_initialization::modulo_around_point</title>
<polygon fill="#ffffff" stroke="transparent" points="-4,4 -4,-35 336,-35 336,4 -4,4"/>
<!-- Node1 -->
<g id="node1" class="node">
<title>Node1</title>
<g id="a_node1"><a xlink:title="Return the modulo value of x in an interval [xc&#45;(Lx/2) xc+(Lx/2)] If Lx&lt;=0, then it returns x without...">
<polygon fill="#bfbfbf" stroke="#000000" points="193,-.5 193,-30.5 332,-30.5 332,-.5 193,-.5"/>
<text text-anchor="start" x="201" y="-18.5" font-family="Helvetica,sans-Serif" font-size="10.00" fill="#000000">mom_shared_initialization</text>
<text text-anchor="middle" x="262.5" y="-7.5" font-family="Helvetica,sans-Serif" font-size="10.00" fill="#000000">::modulo_around_point</text>
</a>
</g>
</g>
<!-- Node2 -->
<g id="node2" class="node">
<title>Node2</title>
<g id="a_node2"><a xlink:href="namespacemom__shared__initialization.html#acf73ad1980ac8b8253fa085a1d8afc17" target="_top" xlink:title="initialize_grid_rotation_angle initializes the arrays with the sine and cosine of the angle between l...">
<polygon fill="#ffffff" stroke="#000000" points="0,-.5 0,-30.5 157,-30.5 157,-.5 0,-.5"/>
<text text-anchor="start" x="8" y="-18.5" font-family="Helvetica,sans-Serif" font-size="10.00" fill="#000000">mom_shared_initialization</text>
<text text-anchor="middle" x="78.5" y="-7.5" font-family="Helvetica,sans-Serif" font-size="10.00" fill="#000000">::initialize_grid_rotation_angle</text>
</a>
</g>
</g>
<!-- Node1&#45;&gt;Node2 -->
<g id="edge1" class="edge">
<title>Node1&#45;&gt;Node2</title>
<path fill="none" stroke="#191970" d="M182.679,-15.5C174.1954,-15.5 165.5712,-15.5 157.1017,-15.5"/>
<polygon fill="#191970" stroke="#191970" points="182.9375,-19.0001 192.9375,-15.5 182.9375,-12.0001 182.9375,-19.0001"/>
</g>
</g>
</svg>
