<?xml version="1.0" encoding="UTF-8" standalone="no"?>
<!DOCTYPE svg PUBLIC "-//W3C//DTD SVG 1.1//EN"
 "http://www.w3.org/Graphics/SVG/1.1/DTD/svg11.dtd">
<!-- Generated by graphviz version 2.40.1 (20161225.0304)
 -->
<!-- Title: mom_barotropic::find_face_areas Pages: 1 -->
<svg width="469pt" height="94pt"
 viewBox="0.00 0.00 469.00 93.50" xmlns="http://www.w3.org/2000/svg" xmlns:xlink="http://www.w3.org/1999/xlink">
<g id="graph0" class="graph" transform="scale(1 1) rotate(0) translate(4 89.5)">
<title>mom_barotropic::find_face_areas</title>
<polygon fill="#ffffff" stroke="transparent" points="-4,4 -4,-89.5 465,-89.5 465,4 -4,4"/>
<!-- Node1 -->
<g id="node1" class="node">
<title>Node1</title>
<g id="a_node1"><a xlink:title="This subroutine determines the open face areas of cells for calculating the barotropic transport.">
<polygon fill="#bfbfbf" stroke="#000000" points="353,-38.5 353,-68.5 461,-68.5 461,-38.5 353,-38.5"/>
<text text-anchor="start" x="361" y="-56.5" font-family="Helvetica,sans-Serif" font-size="10.00" fill="#000000">mom_barotropic::find</text>
<text text-anchor="middle" x="407" y="-45.5" font-family="Helvetica,sans-Serif" font-size="10.00" fill="#000000">_face_areas</text>
</a>
</g>
</g>
<!-- Node2 -->
<g id="node2" class="node">
<title>Node2</title>
<g id="a_node2"><a xlink:href="namespacemom__barotropic.html#a59244968890766632554a6d271ec4499" target="_top" xlink:title="barotropic_init initializes a number of time&#45;invariant fields used in the barotropic calculation and ...">
<polygon fill="#ffffff" stroke="#000000" points="0,-66 0,-85 153,-85 153,-66 0,-66"/>
<text text-anchor="middle" x="76.5" y="-73" font-family="Helvetica,sans-Serif" font-size="10.00" fill="#000000">mom_barotropic::barotropic_init</text>
</a>
</g>
</g>
<!-- Node1&#45;&gt;Node2 -->
<g id="edge1" class="edge">
<title>Node1&#45;&gt;Node2</title>
<path fill="none" stroke="#191970" d="M342.5845,-68.6843C334.023,-70.2358 325.3281,-71.578 317,-72.5 262.4234,-78.5424 200.4577,-79.1687 153.0945,-78.3489"/>
<polygon fill="#191970" stroke="#191970" points="343.3793,-72.0959 352.5438,-66.7796 342.0643,-65.2205 343.3793,-72.0959"/>
</g>
<!-- Node3 -->
<g id="node3" class="node">
<title>Node3</title>
<g id="a_node3"><a xlink:href="namespacemom__barotropic.html#a1468df372a5d1dcb95e0b35d782895de" target="_top" xlink:title="This subroutine time steps the barotropic equations explicitly. For gravity waves,...">
<polygon fill="#ffffff" stroke="#000000" points="193.5,-44 193.5,-63 312.5,-63 312.5,-44 193.5,-44"/>
<text text-anchor="middle" x="253" y="-51" font-family="Helvetica,sans-Serif" font-size="10.00" fill="#000000">mom_barotropic::btstep</text>
</a>
</g>
</g>
<!-- Node1&#45;&gt;Node3 -->
<g id="edge2" class="edge">
<title>Node1&#45;&gt;Node3</title>
<path fill="none" stroke="#191970" d="M342.4986,-53.5C332.578,-53.5 322.373,-53.5 312.5662,-53.5"/>
<polygon fill="#191970" stroke="#191970" points="342.7054,-57.0001 352.7054,-53.5 342.7053,-50.0001 342.7054,-57.0001"/>
</g>
<!-- Node4 -->
<g id="node4" class="node">
<title>Node4</title>
<g id="a_node4"><a xlink:href="namespacemom__barotropic.html#a486257b675aa4e81c2d1634b5288a67f" target="_top" xlink:title="This subroutine automatically determines an optimal value for dtbt based on some state of the ocean.">
<polygon fill="#ffffff" stroke="#000000" points="189,-6 189,-25 317,-25 317,-6 189,-6"/>
<text text-anchor="middle" x="253" y="-13" font-family="Helvetica,sans-Serif" font-size="10.00" fill="#000000">mom_barotropic::set_dtbt</text>
</a>
</g>
</g>
<!-- Node1&#45;&gt;Node4 -->
<g id="edge3" class="edge">
<title>Node1&#45;&gt;Node4</title>
<path fill="none" stroke="#191970" d="M342.6615,-37.6243C325.3849,-33.3612 307.234,-28.8824 291.8172,-25.0783"/>
<polygon fill="#191970" stroke="#191970" points="342.158,-41.105 352.7054,-40.1026 343.8351,-34.3088 342.158,-41.105"/>
</g>
<!-- Node4&#45;&gt;Node2 -->
<g id="edge4" class="edge">
<title>Node4&#45;&gt;Node2</title>
<path fill="none" stroke="#191970" d="M209.4412,-28.0436C202.5794,-30.1312 195.581,-32.3262 189,-34.5 158.6021,-44.541 124.0655,-57.3384 101.3698,-65.9423"/>
<polygon fill="#191970" stroke="#191970" points="210.7595,-31.3024 219.3323,-25.0769 208.7483,-24.5975 210.7595,-31.3024"/>
</g>
<!-- Node5 -->
<g id="node5" class="node">
<title>Node5</title>
<g id="a_node5"><a xlink:href="namespacemom__dynamics__split__rk2.html#a976e700971f232fc11bc69b31d611c32" target="_top" xlink:title="RK2 splitting for time stepping MOM adiabatic dynamics.">
<polygon fill="#ffffff" stroke="#000000" points="1.5,-.5 1.5,-30.5 151.5,-30.5 151.5,-.5 1.5,-.5"/>
<text text-anchor="start" x="9.5" y="-18.5" font-family="Helvetica,sans-Serif" font-size="10.00" fill="#000000">mom_dynamics_split</text>
<text text-anchor="middle" x="76.5" y="-7.5" font-family="Helvetica,sans-Serif" font-size="10.00" fill="#000000">_rk2::step_mom_dyn_split_rk2</text>
</a>
</g>
</g>
<!-- Node4&#45;&gt;Node5 -->
<g id="edge5" class="edge">
<title>Node4&#45;&gt;Node5</title>
<path fill="none" stroke="#191970" d="M178.5032,-15.5C169.6559,-15.5 160.6196,-15.5 151.7618,-15.5"/>
<polygon fill="#191970" stroke="#191970" points="178.7802,-19.0001 188.7802,-15.5 178.7801,-12.0001 178.7802,-19.0001"/>
</g>
</g>
</svg>
