<?xml version="1.0" encoding="UTF-8" standalone="no"?>
<!DOCTYPE svg PUBLIC "-//W3C//DTD SVG 1.1//EN"
 "http://www.w3.org/Graphics/SVG/1.1/DTD/svg11.dtd">
<!-- Generated by graphviz version 2.40.1 (20161225.0304)
 -->
<!-- Title: mom_open_boundary::parse_segment_str Pages: 1 -->
<svg width="451pt" height="88pt"
 viewBox="0.00 0.00 451.00 88.00" xmlns="http://www.w3.org/2000/svg" xmlns:xlink="http://www.w3.org/1999/xlink">
<g id="graph0" class="graph" transform="scale(1 1) rotate(0) translate(4 84)">
<title>mom_open_boundary::parse_segment_str</title>
<polygon fill="#ffffff" stroke="transparent" points="-4,4 -4,-84 447,-84 447,4 -4,4"/>
<!-- Node1 -->
<g id="node1" class="node">
<title>Node1</title>
<g id="a_node1"><a xlink:title="Parse an OBC_SEGMENT_%%% string.">
<polygon fill="#bfbfbf" stroke="#000000" points="320,-24.5 320,-54.5 443,-54.5 443,-24.5 320,-24.5"/>
<text text-anchor="start" x="328" y="-42.5" font-family="Helvetica,sans-Serif" font-size="10.00" fill="#000000">mom_open_boundary::</text>
<text text-anchor="middle" x="381.5" y="-31.5" font-family="Helvetica,sans-Serif" font-size="10.00" fill="#000000">parse_segment_str</text>
</a>
</g>
</g>
<!-- Node2 -->
<g id="node2" class="node">
<title>Node2</title>
<g id="a_node2"><a xlink:href="namespacemom__open__boundary.html#a7b3c20aa88968da38684e927678fc7da" target="_top" xlink:title="Parse an OBC_SEGMENT_%%% string starting with &quot;I=&quot; and configure placement and type of OBC accordingl...">
<polygon fill="#ffffff" stroke="#000000" points="161,-49.5 161,-79.5 284,-79.5 284,-49.5 161,-49.5"/>
<text text-anchor="start" x="169" y="-67.5" font-family="Helvetica,sans-Serif" font-size="10.00" fill="#000000">mom_open_boundary::</text>
<text text-anchor="middle" x="222.5" y="-56.5" font-family="Helvetica,sans-Serif" font-size="10.00" fill="#000000">setup_u_point_obc</text>
</a>
</g>
</g>
<!-- Node1&#45;&gt;Node2 -->
<g id="edge1" class="edge">
<title>Node1&#45;&gt;Node2</title>
<path fill="none" stroke="#191970" d="M309.685,-50.7917C301.1972,-52.1262 292.5916,-53.4793 284.2598,-54.7893"/>
<polygon fill="#191970" stroke="#191970" points="310.2362,-54.2481 319.5712,-49.2372 309.1489,-47.333 310.2362,-54.2481"/>
</g>
<!-- Node4 -->
<g id="node4" class="node">
<title>Node4</title>
<g id="a_node4"><a xlink:href="namespacemom__open__boundary.html#ad10583c94c54ff4ae52bf7a5eb931b80" target="_top" xlink:title="Parse an OBC_SEGMENT_%%% string starting with &quot;J=&quot; and configure placement and type of OBC accordingl...">
<polygon fill="#ffffff" stroke="#000000" points="161,-.5 161,-30.5 284,-30.5 284,-.5 161,-.5"/>
<text text-anchor="start" x="169" y="-18.5" font-family="Helvetica,sans-Serif" font-size="10.00" fill="#000000">mom_open_boundary::</text>
<text text-anchor="middle" x="222.5" y="-7.5" font-family="Helvetica,sans-Serif" font-size="10.00" fill="#000000">setup_v_point_obc</text>
</a>
</g>
</g>
<!-- Node1&#45;&gt;Node4 -->
<g id="edge3" class="edge">
<title>Node1&#45;&gt;Node4</title>
<path fill="none" stroke="#191970" d="M309.4081,-28.6182C301.0102,-27.3506 292.501,-26.0662 284.2598,-24.8222"/>
<polygon fill="#191970" stroke="#191970" points="309.1608,-32.1204 319.5712,-30.1523 310.2056,-25.1988 309.1608,-32.1204"/>
</g>
<!-- Node3 -->
<g id="node3" class="node">
<title>Node3</title>
<g id="a_node3"><a xlink:href="namespacemom__open__boundary.html#ac94938f1a657896ff03efd3864faa02a" target="_top" xlink:title="Enables OBC module and reads configuration parameters This routine is called from MOM_initialize_fixe...">
<polygon fill="#ffffff" stroke="#000000" points="0,-24.5 0,-54.5 125,-54.5 125,-24.5 0,-24.5"/>
<text text-anchor="start" x="8" y="-42.5" font-family="Helvetica,sans-Serif" font-size="10.00" fill="#000000">mom_open_boundary::</text>
<text text-anchor="middle" x="62.5" y="-31.5" font-family="Helvetica,sans-Serif" font-size="10.00" fill="#000000">open_boundary_config</text>
</a>
</g>
</g>
<!-- Node2&#45;&gt;Node3 -->
<g id="edge2" class="edge">
<title>Node2&#45;&gt;Node3</title>
<path fill="none" stroke="#191970" d="M150.7415,-53.2877C142.2406,-51.9595 133.6143,-50.6116 125.2519,-49.305"/>
<polygon fill="#191970" stroke="#191970" points="150.2194,-56.7485 160.6398,-54.8343 151.3,-49.8325 150.2194,-56.7485"/>
</g>
<!-- Node4&#45;&gt;Node3 -->
<g id="edge4" class="edge">
<title>Node4&#45;&gt;Node3</title>
<path fill="none" stroke="#191970" d="M150.7415,-26.2638C142.2406,-27.5389 133.6143,-28.8329 125.2519,-30.0872"/>
<polygon fill="#191970" stroke="#191970" points="151.2697,-29.7238 160.6398,-24.779 150.2312,-22.8012 151.2697,-29.7238"/>
</g>
</g>
</svg>
