<?xml version="1.0" encoding="UTF-8" standalone="no"?>
<!DOCTYPE svg PUBLIC "-//W3C//DTD SVG 1.1//EN"
 "http://www.w3.org/Graphics/SVG/1.1/DTD/svg11.dtd">
<!-- Generated by graphviz version 2.40.1 (20161225.0304)
 -->
<!-- Title: mom_ale::ale_main Pages: 1 -->
<svg width="593pt" height="292pt"
 viewBox="0.00 0.00 593.00 291.50" xmlns="http://www.w3.org/2000/svg" xmlns:xlink="http://www.w3.org/1999/xlink">
<g id="graph0" class="graph" transform="scale(1 1) rotate(0) translate(4 287.5)">
<title>mom_ale::ale_main</title>
<polygon fill="#ffffff" stroke="transparent" points="-4,4 -4,-287.5 589,-287.5 589,4 -4,4"/>
<!-- Node1 -->
<g id="node1" class="node">
<title>Node1</title>
<g id="a_node1"><a xlink:title="Takes care of (1) building a new grid and (2) remapping all variables between the old grid and the ne...">
<polygon fill="#bfbfbf" stroke="#000000" points="0,-132.5 0,-151.5 107,-151.5 107,-132.5 0,-132.5"/>
<text text-anchor="middle" x="53.5" y="-139.5" font-family="Helvetica,sans-Serif" font-size="10.00" fill="#000000">mom_ale::ale_main</text>
</a>
</g>
</g>
<!-- Node2 -->
<g id="node2" class="node">
<title>Node2</title>
<g id="a_node2"><a xlink:href="namespacemom__ale.html#aa892ad9bccb3137ea1f662b317be2611" target="_top" xlink:title="Updates the weights for time filtering the new grid generated in regridding.">
<polygon fill="#ffffff" stroke="#000000" points="155,-253 155,-283 271,-283 271,-253 155,-253"/>
<text text-anchor="start" x="163" y="-271" font-family="Helvetica,sans-Serif" font-size="10.00" fill="#000000">mom_ale::ale_update</text>
<text text-anchor="middle" x="213" y="-260" font-family="Helvetica,sans-Serif" font-size="10.00" fill="#000000">_regrid_weights</text>
</a>
</g>
</g>
<!-- Node1&#45;&gt;Node2 -->
<g id="edge1" class="edge">
<title>Node1&#45;&gt;Node2</title>
<path fill="none" stroke="#191970" d="M60.3422,-151.6921C74.0844,-170.5563 106.8346,-212.58 143,-238 148.5235,-241.8824 154.6285,-245.4095 160.8632,-248.5687"/>
<polygon fill="#191970" stroke="#191970" points="159.5042,-251.798 170.0382,-252.9325 162.5109,-245.4765 159.5042,-251.798"/>
</g>
<!-- Node3 -->
<g id="node3" class="node">
<title>Node3</title>
<g id="a_node3"><a xlink:href="namespacemom__error__handler.html#a9cda07a87815f0e5594066162b4345c3" target="_top" xlink:title="Writes a message about entering a subroutine if call tree reporting is active.">
<polygon fill="#ffffff" stroke="#000000" points="319,-186 319,-216 434,-216 434,-186 319,-186"/>
<text text-anchor="start" x="327" y="-204" font-family="Helvetica,sans-Serif" font-size="10.00" fill="#000000">mom_error_handler::</text>
<text text-anchor="middle" x="376.5" y="-193" font-family="Helvetica,sans-Serif" font-size="10.00" fill="#000000">calltree_enter</text>
</a>
</g>
</g>
<!-- Node1&#45;&gt;Node3 -->
<g id="edge2" class="edge">
<title>Node1&#45;&gt;Node3</title>
<path fill="none" stroke="#191970" d="M69.6751,-151.5378C87.1206,-161.3067 116.0303,-176.02 143,-183 197.6395,-197.1412 261.6788,-201.239 308.8583,-202.0274"/>
<polygon fill="#191970" stroke="#191970" points="308.9193,-205.5283 318.9611,-202.1501 309.0044,-198.5288 308.9193,-205.5283"/>
</g>
<!-- Node5 -->
<g id="node5" class="node">
<title>Node5</title>
<g id="a_node5"><a xlink:href="namespacemom__error__handler.html#a88ea67781e2ed9b73ab7eac8ea5e8578" target="_top" xlink:title="Writes a message about leaving a subroutine if call tree reporting is active.">
<polygon fill="#ffffff" stroke="#000000" points="319,-137 319,-167 434,-167 434,-137 319,-137"/>
<text text-anchor="start" x="327" y="-155" font-family="Helvetica,sans-Serif" font-size="10.00" fill="#000000">mom_error_handler::</text>
<text text-anchor="middle" x="376.5" y="-144" font-family="Helvetica,sans-Serif" font-size="10.00" fill="#000000">calltree_leave</text>
</a>
</g>
</g>
<!-- Node1&#45;&gt;Node5 -->
<g id="edge4" class="edge">
<title>Node1&#45;&gt;Node5</title>
<path fill="none" stroke="#191970" d="M80.513,-151.6219C98.0641,-157.3527 121.582,-164.0648 143,-167 204.646,-175.4481 220.9745,-171.9437 283,-167 291.3631,-166.3334 300.1074,-165.3365 308.7486,-164.1675"/>
<polygon fill="#191970" stroke="#191970" points="309.4134,-167.6081 318.8162,-162.7256 308.4209,-160.6788 309.4134,-167.6081"/>
</g>
<!-- Node6 -->
<g id="node6" class="node">
<title>Node6</title>
<g id="a_node6"><a xlink:href="namespacemom__error__handler.html#a34a02e601a60f03cb97a72fe25a32853" target="_top" xlink:title="Writes a message about reaching a milestone if call tree reporting is active.">
<polygon fill="#ffffff" stroke="#000000" points="319,-88 319,-118 434,-118 434,-88 319,-88"/>
<text text-anchor="start" x="327" y="-106" font-family="Helvetica,sans-Serif" font-size="10.00" fill="#000000">mom_error_handler::</text>
<text text-anchor="middle" x="376.5" y="-95" font-family="Helvetica,sans-Serif" font-size="10.00" fill="#000000">calltree_waypoint</text>
</a>
</g>
</g>
<!-- Node1&#45;&gt;Node6 -->
<g id="edge6" class="edge">
<title>Node1&#45;&gt;Node6</title>
<path fill="none" stroke="#191970" d="M83.4175,-132.3861C100.6561,-127.2495 122.8404,-121.3169 143,-118 198.2673,-108.9067 261.7374,-105.2573 308.5413,-103.8256"/>
<polygon fill="#191970" stroke="#191970" points="308.6669,-107.3236 318.565,-103.545 308.471,-100.3263 308.6669,-107.3236"/>
</g>
<!-- Node7 -->
<g id="node7" class="node">
<title>Node7</title>
<g id="a_node7"><a xlink:href="namespacemom__ale.html#a9b511a4b61f92b735cef1129dff14bcb" target="_top" xlink:title="Check grid for negative thicknesses.">
<polygon fill="#ffffff" stroke="#000000" points="155,-.5 155,-19.5 271,-19.5 271,-.5 155,-.5"/>
<text text-anchor="middle" x="213" y="-7.5" font-family="Helvetica,sans-Serif" font-size="10.00" fill="#000000">mom_ale::check_grid</text>
</a>
</g>
</g>
<!-- Node1&#45;&gt;Node7 -->
<g id="edge8" class="edge">
<title>Node1&#45;&gt;Node7</title>
<path fill="none" stroke="#191970" d="M58.3033,-132.4283C69.7818,-110.5603 101.0065,-56.6925 143,-29 146.1275,-26.9376 149.4734,-25.098 152.9448,-23.4572"/>
<polygon fill="#191970" stroke="#191970" points="154.4597,-26.6182 162.3628,-19.5618 151.7843,-20.1496 154.4597,-26.6182"/>
</g>
<!-- Node8 -->
<g id="node8" class="node">
<title>Node8</title>
<g id="a_node8"><a xlink:href="namespacemom__diag__mediator.html#a2e9db121a293f242f5a42e9d16d0d2e4" target="_top" xlink:title="Build/update vertical grids for diagnostic remapping.">
<polygon fill="#ffffff" stroke="#000000" points="143,-39 143,-69 283,-69 283,-39 143,-39"/>
<text text-anchor="start" x="151" y="-57" font-family="Helvetica,sans-Serif" font-size="10.00" fill="#000000">mom_diag_mediator::</text>
<text text-anchor="middle" x="213" y="-46" font-family="Helvetica,sans-Serif" font-size="10.00" fill="#000000">diag_update_remap_grids</text>
</a>
</g>
</g>
<!-- Node1&#45;&gt;Node8 -->
<g id="edge9" class="edge">
<title>Node1&#45;&gt;Node8</title>
<path fill="none" stroke="#191970" d="M66.7105,-132.4164C83.7998,-120.2617 114.7362,-99.0736 143,-84 150.1329,-80.1959 157.8515,-76.4977 165.4692,-73.0717"/>
<polygon fill="#191970" stroke="#191970" points="166.9124,-76.2606 174.6648,-69.039 164.1011,-69.85 166.9124,-76.2606"/>
</g>
<!-- Node10 -->
<g id="node10" class="node">
<title>Node10</title>
<g id="a_node10"><a xlink:href="namespacemom__ale.html#af95685cdfb7505b09300795da2336dbe" target="_top" xlink:title="This routine takes care of remapping all variable between the old and the new grids....">
<polygon fill="#ffffff" stroke="#000000" points="158,-127 158,-157 268,-157 268,-127 158,-127"/>
<text text-anchor="start" x="166" y="-145" font-family="Helvetica,sans-Serif" font-size="10.00" fill="#000000">mom_ale::remap_all</text>
<text text-anchor="middle" x="213" y="-134" font-family="Helvetica,sans-Serif" font-size="10.00" fill="#000000">_state_vars</text>
</a>
</g>
</g>
<!-- Node1&#45;&gt;Node10 -->
<g id="edge12" class="edge">
<title>Node1&#45;&gt;Node10</title>
<path fill="none" stroke="#191970" d="M107.0549,-142C120.1082,-142 134.2148,-142 147.7454,-142"/>
<polygon fill="#191970" stroke="#191970" points="147.953,-145.5001 157.953,-142 147.953,-138.5001 147.953,-145.5001"/>
</g>
<!-- Node4 -->
<g id="node4" class="node">
<title>Node4</title>
<g id="a_node4"><a xlink:href="namespacemom__error__handler.html#ad5f00a53059c72fe2332d1436c80ca71" target="_top" xlink:title="This returns .true. if the current PE is the root PE.">
<polygon fill="#ffffff" stroke="#000000" points="470,-112 470,-142 585,-142 585,-112 470,-112"/>
<text text-anchor="start" x="478" y="-130" font-family="Helvetica,sans-Serif" font-size="10.00" fill="#000000">mom_error_handler::</text>
<text text-anchor="middle" x="527.5" y="-119" font-family="Helvetica,sans-Serif" font-size="10.00" fill="#000000">is_root_pe</text>
</a>
</g>
</g>
<!-- Node3&#45;&gt;Node4 -->
<g id="edge3" class="edge">
<title>Node3&#45;&gt;Node4</title>
<path fill="none" stroke="#191970" d="M414.1543,-185.8917C420.815,-183.0469 427.6482,-180.0155 434,-177 453.3625,-167.8078 474.4543,-156.6338 491.6967,-147.1823"/>
<polygon fill="#191970" stroke="#191970" points="493.7813,-150.0294 500.8443,-142.1323 490.3982,-143.9013 493.7813,-150.0294"/>
</g>
<!-- Node5&#45;&gt;Node4 -->
<g id="edge5" class="edge">
<title>Node5&#45;&gt;Node4</title>
<path fill="none" stroke="#191970" d="M434.0174,-142.4773C442.4639,-141.0788 451.2292,-139.6276 459.8561,-138.1993"/>
<polygon fill="#191970" stroke="#191970" points="460.5985,-141.6241 469.8925,-136.5377 459.4551,-134.7181 460.5985,-141.6241"/>
</g>
<!-- Node6&#45;&gt;Node4 -->
<g id="edge7" class="edge">
<title>Node6&#45;&gt;Node4</title>
<path fill="none" stroke="#191970" d="M434.0174,-112.1418C442.4639,-113.4843 451.2292,-114.8775 459.8561,-116.2487"/>
<polygon fill="#191970" stroke="#191970" points="459.4671,-119.7307 469.8925,-117.8438 460.5659,-112.8174 459.4671,-119.7307"/>
</g>
<!-- Node9 -->
<g id="node9" class="node">
<title>Node9</title>
<g id="a_node9"><a xlink:href="namespacemom__error__handler.html#a460cfb79a06c29fc249952c2a3710d67" target="_top" xlink:title="This provides a convenient interface for writing an mpp_error message with run&#45;time filter based on a...">
<polygon fill="#ffffff" stroke="#000000" points="319,-39 319,-69 434,-69 434,-39 319,-39"/>
<text text-anchor="start" x="327" y="-57" font-family="Helvetica,sans-Serif" font-size="10.00" fill="#000000">mom_error_handler::</text>
<text text-anchor="middle" x="376.5" y="-46" font-family="Helvetica,sans-Serif" font-size="10.00" fill="#000000">mom_error</text>
</a>
</g>
</g>
<!-- Node8&#45;&gt;Node9 -->
<g id="edge10" class="edge">
<title>Node8&#45;&gt;Node9</title>
<path fill="none" stroke="#191970" d="M283.2876,-54C291.7175,-54 300.3133,-54 308.7069,-54"/>
<polygon fill="#191970" stroke="#191970" points="308.8201,-57.5001 318.8201,-54 308.82,-50.5001 308.8201,-57.5001"/>
</g>
<!-- Node9&#45;&gt;Node4 -->
<g id="edge11" class="edge">
<title>Node9&#45;&gt;Node4</title>
<path fill="none" stroke="#191970" d="M413.826,-69.0216C420.5857,-71.8999 427.5377,-74.9651 434,-78 453.1752,-87.0053 474.0971,-97.8686 491.2788,-107.0759"/>
<polygon fill="#191970" stroke="#191970" points="489.9416,-110.3313 500.4045,-111.9983 493.2649,-104.1704 489.9416,-110.3313"/>
</g>
<!-- Node10&#45;&gt;Node3 -->
<g id="edge13" class="edge">
<title>Node10&#45;&gt;Node3</title>
<path fill="none" stroke="#191970" d="M254.681,-157.0408C276.2051,-164.8079 302.6526,-174.3517 325.3986,-182.5597"/>
<polygon fill="#191970" stroke="#191970" points="324.3008,-185.8844 334.8951,-185.9866 326.6768,-179.3 324.3008,-185.8844"/>
</g>
<!-- Node10&#45;&gt;Node5 -->
<g id="edge14" class="edge">
<title>Node10&#45;&gt;Node5</title>
<path fill="none" stroke="#191970" d="M268.3536,-145.3855C281.3467,-146.1802 295.3362,-147.0359 308.8015,-147.8594"/>
<polygon fill="#191970" stroke="#191970" points="308.7759,-151.3643 318.971,-148.4814 309.2033,-144.3774 308.7759,-151.3643"/>
</g>
<!-- Node10&#45;&gt;Node6 -->
<g id="edge15" class="edge">
<title>Node10&#45;&gt;Node6</title>
<path fill="none" stroke="#191970" d="M268.3536,-128.7964C281.474,-125.6667 295.6106,-122.2947 309.1973,-119.0538"/>
<polygon fill="#191970" stroke="#191970" points="310.056,-122.4473 318.971,-116.7225 308.4318,-115.6383 310.056,-122.4473"/>
</g>
</g>
</svg>
