<?xml version="1.0" encoding="UTF-8" standalone="no"?>
<!DOCTYPE svg PUBLIC "-//W3C//DTD SVG 1.1//EN"
 "http://www.w3.org/Graphics/SVG/1.1/DTD/svg11.dtd">
<!-- Generated by graphviz version 2.40.1 (20161225.0304)
 -->
<!-- Title: mom_tracer_flow_control::call_tracer_column_fns Pages: 1 -->
<!--zoomable 284 -->
<svg id="main" version="1.1" xmlns="http://www.w3.org/2000/svg" xmlns:xlink="http://www.w3.org/1999/xlink" xml:space="preserve" onload="init(evt)">
<style type="text/css"><![CDATA[
.edge:hover path { stroke: red; }
.edge:hover polygon { stroke: red; fill: red; }
]]></style>
<script type="text/javascript"><![CDATA[
var edges = document.getElementsByTagName('g');
if (edges && edges.length) {
  for (var i=0;i<edges.length;i++) {
    if (edges[i].id.substr(0,4)=='edge') {
      edges[i].setAttribute('class','edge');
    }
  }
}
]]></script>
        <defs>
                <circle id="rim" cx="0" cy="0" r="7"/>
                <circle id="rim2" cx="0" cy="0" r="3.5"/>
                <g id="zoomPlus">
                        <use xlink:href="#rim" fill="#404040">
                                <set attributeName="fill" to="#808080" begin="zoomplus.mouseover" end="zoomplus.mouseout"/>
                        </use>
                        <path d="M-4,0h8M0,-4v8" fill="none" stroke="white" stroke-width="1.5" pointer-events="none"/>
                </g>
                <g id="zoomMin">
                        <use xlink:href="#rim" fill="#404040">
                                <set attributeName="fill" to="#808080" begin="zoomminus.mouseover" end="zoomminus.mouseout"/>
                        </use>
                        <path d="M-4,0h8" fill="none" stroke="white" stroke-width="1.5" pointer-events="none"/>
                </g>
                <g id="dirArrow">
                        <path fill="none" stroke="white" stroke-width="1.5" d="M0,-3.0v7 M-2.5,-0.5L0,-3.0L2.5,-0.5"/>
                </g>
               <g id="resetDef">
                       <use xlink:href="#rim2" fill="#404040">
                               <set attributeName="fill" to="#808080" begin="reset.mouseover" end="reset.mouseout"/>
                       </use>
               </g>
        </defs>

<script type="text/javascript">
var viewWidth = 729;
var viewHeight = 284;
var sectionId = 'dynsection-1';
</script>
<script xlink:href="svgpan.js"/>
<svg id="graph" class="graph">
<g id="viewport">
<title>mom_tracer_flow_control::call_tracer_column_fns</title>
<polygon fill="#ffffff" stroke="transparent" points="-4,4 -4,-280 725,-280 725,4 -4,4"/>
<!-- Node1 -->
<g id="node1" class="node">
<title>Node1</title>
<g id="a_node1"><a xlink:title="This subroutine calls all registered tracer column physics subroutines.">
<polygon fill="#bfbfbf" stroke="#000000" points="595,-122.5 595,-152.5 721,-152.5 721,-122.5 595,-122.5"/>
<text text-anchor="start" x="603" y="-140.5" font-family="Helvetica,sans-Serif" font-size="10.00" fill="#000000">mom_tracer_flow_control</text>
<text text-anchor="middle" x="658" y="-129.5" font-family="Helvetica,sans-Serif" font-size="10.00" fill="#000000">::call_tracer_column_fns</text>
</a>
</g>
</g>
<!-- Node2 -->
<g id="node2" class="node">
<title>Node2</title>
<g id="a_node2"><a xlink:href="namespacemom__diabatic__driver.html#aef60aa7bfe62f65408c7005b6cb613e8" target="_top" xlink:title="Routine called for adiabatic physics.">
<polygon fill="#ffffff" stroke="#000000" points="441.5,-245.5 441.5,-275.5 548.5,-275.5 548.5,-245.5 441.5,-245.5"/>
<text text-anchor="start" x="449.5" y="-263.5" font-family="Helvetica,sans-Serif" font-size="10.00" fill="#000000">mom_diabatic_driver</text>
<text text-anchor="middle" x="495" y="-252.5" font-family="Helvetica,sans-Serif" font-size="10.00" fill="#000000">::adiabatic</text>
</a>
</g>
</g>
<!-- Node1&#45;&gt;Node2 -->
<g id="edge1" class="edge">
<title>Node1&#45;&gt;Node2</title>
<path fill="none" stroke="#191970" d="M640.0304,-160.473C621.7086,-182.5695 591.4374,-215.6131 559,-236.5 553.8119,-239.8407 548.0908,-242.8145 542.2673,-245.4326"/>
<polygon fill="#191970" stroke="#191970" points="642.8495,-162.5539 646.447,-152.5884 637.4202,-158.1354 642.8495,-162.5539"/>
</g>
<!-- Node6 -->
<g id="node6" class="node">
<title>Node6</title>
<g id="a_node6"><a xlink:href="namespacemom__diabatic__driver.html#ae57c48925de75712384e859a851c8c40" target="_top" xlink:title="This subroutine imposes the diapycnal mass fluxes and the accompanying diapycnal advection of momentu...">
<polygon fill="#ffffff" stroke="#000000" points="441.5,-196.5 441.5,-226.5 548.5,-226.5 548.5,-196.5 441.5,-196.5"/>
<text text-anchor="start" x="449.5" y="-214.5" font-family="Helvetica,sans-Serif" font-size="10.00" fill="#000000">mom_diabatic_driver</text>
<text text-anchor="middle" x="495" y="-203.5" font-family="Helvetica,sans-Serif" font-size="10.00" fill="#000000">::diabatic_ale</text>
</a>
</g>
</g>
<!-- Node1&#45;&gt;Node6 -->
<g id="edge5" class="edge">
<title>Node1&#45;&gt;Node6</title>
<path fill="none" stroke="#191970" d="M621.2759,-157.2486C602.8179,-166.865 579.9692,-178.3056 559,-187.5 552.0446,-190.5498 544.5669,-193.5746 537.2627,-196.3965"/>
<polygon fill="#191970" stroke="#191970" points="622.998,-160.2976 630.2251,-152.5504 619.7442,-154.0998 622.998,-160.2976"/>
</g>
<!-- Node8 -->
<g id="node8" class="node">
<title>Node8</title>
<g id="a_node8"><a xlink:href="namespacemom__diabatic__driver.html#a598d99106680c83e410a0a51a59588ea" target="_top" xlink:title="Applies diabatic forcing and diapycnal mixing of temperature, salinity and other tracers for use with...">
<polygon fill="#ffffff" stroke="#000000" points="441,-147.5 441,-177.5 549,-177.5 549,-147.5 441,-147.5"/>
<text text-anchor="start" x="449" y="-165.5" font-family="Helvetica,sans-Serif" font-size="10.00" fill="#000000">mom_diabatic_driver</text>
<text text-anchor="middle" x="495" y="-154.5" font-family="Helvetica,sans-Serif" font-size="10.00" fill="#000000">::diabatic_ale_legacy</text>
</a>
</g>
</g>
<!-- Node1&#45;&gt;Node8 -->
<g id="edge7" class="edge">
<title>Node1&#45;&gt;Node8</title>
<path fill="none" stroke="#191970" d="M584.9388,-148.7057C572.8875,-150.5541 560.5873,-152.4406 549.1077,-154.2013"/>
<polygon fill="#191970" stroke="#191970" points="585.6262,-152.1413 594.9799,-147.1657 584.5649,-145.2222 585.6262,-152.1413"/>
</g>
<!-- Node9 -->
<g id="node9" class="node">
<title>Node9</title>
<g id="a_node9"><a xlink:href="namespacemom__diabatic__driver.html#a71d8d849db16be4b87c2650b49f01c82" target="_top" xlink:title="Imposes the diapycnal mass fluxes and the accompanying diapycnal advection of momentum and tracers us...">
<polygon fill="#ffffff" stroke="#000000" points="441.5,-98.5 441.5,-128.5 548.5,-128.5 548.5,-98.5 441.5,-98.5"/>
<text text-anchor="start" x="449.5" y="-116.5" font-family="Helvetica,sans-Serif" font-size="10.00" fill="#000000">mom_diabatic_driver</text>
<text text-anchor="middle" x="495" y="-105.5" font-family="Helvetica,sans-Serif" font-size="10.00" fill="#000000">::layered_diabatic</text>
</a>
</g>
</g>
<!-- Node1&#45;&gt;Node9 -->
<g id="edge9" class="edge">
<title>Node1&#45;&gt;Node9</title>
<path fill="none" stroke="#191970" d="M584.819,-126.7249C572.6234,-124.9292 560.1767,-123.0966 548.5866,-121.39"/>
<polygon fill="#191970" stroke="#191970" points="584.5767,-130.2269 594.9799,-128.221 585.5965,-123.3015 584.5767,-130.2269"/>
</g>
<!-- Node10 -->
<g id="node10" class="node">
<title>Node10</title>
<g id="a_node10"><a xlink:href="namespacemom__offline__main.html#a887d59c64eb269aad257eacc8cf30444" target="_top" xlink:title="When in layer mode, 3D horizontal advection using stored mass fluxes must be used....">
<polygon fill="#ffffff" stroke="#000000" points="431,-49.5 431,-79.5 559,-79.5 559,-49.5 431,-49.5"/>
<text text-anchor="start" x="439" y="-67.5" font-family="Helvetica,sans-Serif" font-size="10.00" fill="#000000">mom_offline_main::offline</text>
<text text-anchor="middle" x="495" y="-56.5" font-family="Helvetica,sans-Serif" font-size="10.00" fill="#000000">_advection_layer</text>
</a>
</g>
</g>
<!-- Node1&#45;&gt;Node10 -->
<g id="edge11" class="edge">
<title>Node1&#45;&gt;Node10</title>
<path fill="none" stroke="#191970" d="M620.435,-117.7927C602.1098,-108.4668 579.6204,-97.4423 559,-88.5 551.9234,-85.4312 544.3145,-82.3735 536.8997,-79.5191"/>
<polygon fill="#191970" stroke="#191970" points="618.8418,-120.909 629.3374,-122.3558 622.0349,-114.6797 618.8418,-120.909"/>
</g>
<!-- Node14 -->
<g id="node14" class="node">
<title>Node14</title>
<g id="a_node14"><a xlink:href="namespacemom__offline__main.html#aaef35c02f93931567c41ae8bc0544bdd" target="_top" xlink:title="The vertical/diabatic driver for offline tracers. First the eatr/ebtr associated with the interpolate...">
<polygon fill="#ffffff" stroke="#000000" points="431,-.5 431,-30.5 559,-30.5 559,-.5 431,-.5"/>
<text text-anchor="start" x="439" y="-18.5" font-family="Helvetica,sans-Serif" font-size="10.00" fill="#000000">mom_offline_main::offline</text>
<text text-anchor="middle" x="495" y="-7.5" font-family="Helvetica,sans-Serif" font-size="10.00" fill="#000000">_diabatic_ale</text>
</a>
</g>
</g>
<!-- Node1&#45;&gt;Node14 -->
<g id="edge16" class="edge">
<title>Node1&#45;&gt;Node14</title>
<path fill="none" stroke="#191970" d="M639.6736,-114.4019C621.2859,-92.5387 591.146,-60.084 559,-39.5 553.8034,-36.1725 548.0773,-33.2065 542.2512,-30.5925"/>
<polygon fill="#191970" stroke="#191970" points="637.0594,-116.7329 646.1252,-122.2157 642.4573,-112.2761 637.0594,-116.7329"/>
</g>
<!-- Node3 -->
<g id="node3" class="node">
<title>Node3</title>
<g id="a_node3"><a xlink:href="namespacemom.html#a1a81ea749a309f10f5c3c7a17efa3606" target="_top" xlink:title="MOM_step_thermo orchestrates the thermodynamic time stepping and vertical remapping,...">
<polygon fill="#ffffff" stroke="#000000" points="270,-220 270,-239 395,-239 395,-220 270,-220"/>
<text text-anchor="middle" x="332.5" y="-227" font-family="Helvetica,sans-Serif" font-size="10.00" fill="#000000">mom::step_mom_thermo</text>
</a>
</g>
</g>
<!-- Node2&#45;&gt;Node3 -->
<g id="edge2" class="edge">
<title>Node2&#45;&gt;Node3</title>
<path fill="none" stroke="#191970" d="M431.3924,-248.3656C415.1701,-245.2709 397.9619,-241.9881 382.5267,-239.0436"/>
<polygon fill="#191970" stroke="#191970" points="430.8623,-251.8275 441.3411,-250.2635 432.1741,-244.9515 430.8623,-251.8275"/>
</g>
<!-- Node4 -->
<g id="node4" class="node">
<title>Node4</title>
<g id="a_node4"><a xlink:href="namespacemom.html#ad55f786e26bcd3445a7224f2fad54f7e" target="_top" xlink:title="This subroutine orchestrates the time stepping of MOM. The adiabatic dynamics are stepped by calls to...">
<polygon fill="#ffffff" stroke="#000000" points="122.5,-205 122.5,-224 212.5,-224 212.5,-205 122.5,-205"/>
<text text-anchor="middle" x="167.5" y="-212" font-family="Helvetica,sans-Serif" font-size="10.00" fill="#000000">mom::step_mom</text>
</a>
</g>
</g>
<!-- Node3&#45;&gt;Node4 -->
<g id="edge3" class="edge">
<title>Node3&#45;&gt;Node4</title>
<path fill="none" stroke="#191970" d="M259.3213,-222.8474C243.4639,-221.4058 227.1411,-219.9219 212.737,-218.6125"/>
<polygon fill="#191970" stroke="#191970" points="259.374,-226.3665 269.6499,-223.7864 260.0079,-219.3953 259.374,-226.3665"/>
</g>
<!-- Node5 -->
<g id="node5" class="node">
<title>Node5</title>
<g id="a_node5"><a xlink:href="MOM__driver_8F90.html#a08fffeb2d8e8acbf9ed4609be6d258c6" target="_top" xlink:title=" ">
<polygon fill="#ffffff" stroke="#000000" points="0,-182 0,-201 65,-201 65,-182 0,-182"/>
<text text-anchor="middle" x="32.5" y="-189" font-family="Helvetica,sans-Serif" font-size="10.00" fill="#000000">mom_main</text>
</a>
</g>
</g>
<!-- Node4&#45;&gt;Node5 -->
<g id="edge4" class="edge">
<title>Node4&#45;&gt;Node5</title>
<path fill="none" stroke="#191970" d="M111.8878,-205.0253C95.9806,-202.3152 79.164,-199.4502 65.1232,-197.058"/>
<polygon fill="#191970" stroke="#191970" points="111.7256,-208.5481 122.1714,-206.7773 112.9013,-201.6475 111.7256,-208.5481"/>
</g>
<!-- Node7 -->
<g id="node7" class="node">
<title>Node7</title>
<g id="a_node7"><a xlink:href="namespacemom__diabatic__driver.html#a9005de9f3ad26b32de53e3cd9826b9b9" target="_top" xlink:title="This subroutine imposes the diapycnal mass fluxes and the accompanying diapycnal advection of momentu...">
<polygon fill="#ffffff" stroke="#000000" points="279,-147.5 279,-177.5 386,-177.5 386,-147.5 279,-147.5"/>
<text text-anchor="start" x="287" y="-165.5" font-family="Helvetica,sans-Serif" font-size="10.00" fill="#000000">mom_diabatic_driver</text>
<text text-anchor="middle" x="332.5" y="-154.5" font-family="Helvetica,sans-Serif" font-size="10.00" fill="#000000">::diabatic</text>
</a>
</g>
</g>
<!-- Node6&#45;&gt;Node7 -->
<g id="edge6" class="edge">
<title>Node6&#45;&gt;Node7</title>
<path fill="none" stroke="#191970" d="M434.9317,-193.3871C417.6559,-188.1778 399.0067,-182.5543 382.4159,-177.5516"/>
<polygon fill="#191970" stroke="#191970" points="434.334,-196.8625 444.9187,-196.3986 436.355,-190.1605 434.334,-196.8625"/>
</g>
<!-- Node8&#45;&gt;Node7 -->
<g id="edge8" class="edge">
<title>Node8&#45;&gt;Node7</title>
<path fill="none" stroke="#191970" d="M430.7929,-162.5C415.989,-162.5 400.3946,-162.5 386.0973,-162.5"/>
<polygon fill="#191970" stroke="#191970" points="430.8899,-166.0001 440.8899,-162.5 430.8898,-159.0001 430.8899,-166.0001"/>
</g>
<!-- Node9&#45;&gt;Node7 -->
<g id="edge10" class="edge">
<title>Node9&#45;&gt;Node7</title>
<path fill="none" stroke="#191970" d="M434.9317,-131.6129C417.6559,-136.8222 399.0067,-142.4457 382.4159,-147.4484"/>
<polygon fill="#191970" stroke="#191970" points="436.355,-134.8395 444.9187,-128.6014 434.334,-128.1375 436.355,-134.8395"/>
</g>
<!-- Node11 -->
<g id="node11" class="node">
<title>Node11</title>
<g id="a_node11"><a xlink:href="namespacemom.html#ade4f7557fcda73ffc12284d3cecf4182" target="_top" xlink:title="step_offline is the main driver for running tracers offline in MOM6. This has been primarily develope...">
<polygon fill="#ffffff" stroke="#000000" points="285,-71 285,-90 380,-90 380,-71 285,-71"/>
<text text-anchor="middle" x="332.5" y="-78" font-family="Helvetica,sans-Serif" font-size="10.00" fill="#000000">mom::step_offline</text>
</a>
</g>
</g>
<!-- Node10&#45;&gt;Node11 -->
<g id="edge12" class="edge">
<title>Node10&#45;&gt;Node11</title>
<path fill="none" stroke="#191970" d="M420.8052,-71.8053C407.0145,-73.1632 392.9506,-74.5479 380.219,-75.8015"/>
<polygon fill="#191970" stroke="#191970" points="421.1668,-75.2867 430.7757,-70.8236 420.4808,-68.3204 421.1668,-75.2867"/>
</g>
<!-- Node11&#45;&gt;Node5 -->
<g id="edge13" class="edge">
<title>Node11&#45;&gt;Node5</title>
<path fill="none" stroke="#191970" d="M308.494,-95.2953C288.9713,-106.8613 260.427,-122.7311 234,-133.5 176.3533,-156.9908 105.8133,-174.9779 65.3255,-184.3328"/>
<polygon fill="#191970" stroke="#191970" points="310.5334,-98.1533 317.3043,-90.0044 306.9295,-92.1522 310.5334,-98.1533"/>
</g>
<!-- Node12 -->
<g id="node12" class="node">
<title>Node12</title>
<g id="a_node12"><a xlink:href="namespacemom__ocean__model__mct.html#a422ba42ca07c0bf28ec5113aba4f1e96" target="_top" xlink:title="update_ocean_model uses the forcing in Ice_ocean_boundary to advance the ocean model&#39;s state from the...">
<polygon fill="#ffffff" stroke="#000000" points="106,-93.5 106,-123.5 229,-123.5 229,-93.5 106,-93.5"/>
<text text-anchor="start" x="114" y="-111.5" font-family="Helvetica,sans-Serif" font-size="10.00" fill="#000000">mom_ocean_model_mct</text>
<text text-anchor="middle" x="167.5" y="-100.5" font-family="Helvetica,sans-Serif" font-size="10.00" fill="#000000">::update_ocean_model</text>
</a>
</g>
</g>
<!-- Node11&#45;&gt;Node12 -->
<g id="edge14" class="edge">
<title>Node11&#45;&gt;Node12</title>
<path fill="none" stroke="#191970" d="M274.7935,-90.2926C260.0697,-92.7912 244.1844,-95.4869 229.2662,-98.0185"/>
<polygon fill="#191970" stroke="#191970" points="275.5017,-93.7226 284.7752,-88.5988 274.3305,-86.8212 275.5017,-93.7226"/>
</g>
<!-- Node13 -->
<g id="node13" class="node">
<title>Node13</title>
<g id="a_node13"><a xlink:href="namespacemom__ocean__model__nuopc.html#a02a87b4944febcc6828c55e8e4375e62" target="_top" xlink:title="update_ocean_model uses the forcing in Ice_ocean_boundary to advance the ocean model&#39;s state from the...">
<polygon fill="#ffffff" stroke="#000000" points="101,-44.5 101,-74.5 234,-74.5 234,-44.5 101,-44.5"/>
<text text-anchor="start" x="109" y="-62.5" font-family="Helvetica,sans-Serif" font-size="10.00" fill="#000000">mom_ocean_model_nuopc</text>
<text text-anchor="middle" x="167.5" y="-51.5" font-family="Helvetica,sans-Serif" font-size="10.00" fill="#000000">::update_ocean_model</text>
</a>
</g>
</g>
<!-- Node11&#45;&gt;Node13 -->
<g id="edge15" class="edge">
<title>Node11&#45;&gt;Node13</title>
<path fill="none" stroke="#191970" d="M274.5273,-73.1217C261.473,-71.4602 247.5174,-69.684 234.1399,-67.9814"/>
<polygon fill="#191970" stroke="#191970" points="274.4133,-76.6353 284.7752,-74.4259 275.2971,-69.6913 274.4133,-76.6353"/>
</g>
</g>
</svg>
        <g id="navigator" transform="translate(0 0)" fill="#404254">
                <rect fill="#f2f5e9" fill-opacity="0.5" stroke="#606060" stroke-width=".5" x="0" y="0" width="60" height="60"/>
                <use id="zoomplus" xlink:href="#zoomPlus" x="17" y="9" onmousedown="handleZoom(evt,'in')"/>
                <use id="zoomminus" xlink:href="#zoomMin" x="42" y="9" onmousedown="handleZoom(evt,'out')"/>
                <use id="reset" xlink:href="#resetDef" x="30" y="36" onmousedown="handleReset()"/>
                <g id="arrowUp" xlink:href="#dirArrow" transform="translate(30 24)" onmousedown="handlePan(0,-1)">
                  <use xlink:href="#rim" fill="#404040">
                        <set attributeName="fill" to="#808080" begin="arrowUp.mouseover" end="arrowUp.mouseout"/>
                  </use>
                  <path fill="none" stroke="white" stroke-width="1.5" d="M0,-3.0v7 M-2.5,-0.5L0,-3.0L2.5,-0.5"/>
                </g>
                <g id="arrowRight" xlink:href="#dirArrow" transform="rotate(90) translate(36 -43)" onmousedown="handlePan(1,0)">
                  <use xlink:href="#rim" fill="#404040">
                        <set attributeName="fill" to="#808080" begin="arrowRight.mouseover" end="arrowRight.mouseout"/>
                  </use>
                  <path fill="none" stroke="white" stroke-width="1.5" d="M0,-3.0v7 M-2.5,-0.5L0,-3.0L2.5,-0.5"/>
                </g>
                <g id="arrowDown" xlink:href="#dirArrow" transform="rotate(180) translate(-30 -48)" onmousedown="handlePan(0,1)">
                  <use xlink:href="#rim" fill="#404040">
                        <set attributeName="fill" to="#808080" begin="arrowDown.mouseover" end="arrowDown.mouseout"/>
                  </use>
                  <path fill="none" stroke="white" stroke-width="1.5" d="M0,-3.0v7 M-2.5,-0.5L0,-3.0L2.5,-0.5"/>
                </g>
                <g id="arrowLeft" xlink:href="#dirArrow" transform="rotate(270) translate(-36 17)" onmousedown="handlePan(-1,0)">
                  <use xlink:href="#rim" fill="#404040">
                        <set attributeName="fill" to="#808080" begin="arrowLeft.mouseover" end="arrowLeft.mouseout"/>
                  </use>
                  <path fill="none" stroke="white" stroke-width="1.5" d="M0,-3.0v7 M-2.5,-0.5L0,-3.0L2.5,-0.5"/>
                </g>
        </g>
        <svg viewBox="0 0 15 15" width="100%" height="30px" preserveAspectRatio="xMaxYMin meet">
         <g id="arrow_out" transform="scale(0.3 0.3)">
          <a xlink:href="namespacemom__tracer__flow__control_ae4af301529462d180014b52d0ceea67c_icgraph_org.svg" target="_base">
           <rect id="button" ry="5" rx="5" y="6" x="6" height="38" width="38"
                fill="#f2f5e9" fill-opacity="0.5" stroke="#606060" stroke-width="1.0"/>
           <path id="arrow"
             d="M 11.500037,31.436501 C 11.940474,20.09759 22.043105,11.32322 32.158766,21.979434 L 37.068811,17.246167 C 37.068811,17.246167 37.088388,32 37.088388,32 L 22.160133,31.978069 C 22.160133,31.978069 26.997745,27.140456 26.997745,27.140456 C 18.528582,18.264221 13.291696,25.230495 11.500037,31.436501 z"
             style="fill:#404040;"/>
          </a>
         </g>
        </svg>
</svg>
