<?xml version="1.0" encoding="UTF-8" standalone="no"?>
<!DOCTYPE svg PUBLIC "-//W3C//DTD SVG 1.1//EN"
 "http://www.w3.org/Graphics/SVG/1.1/DTD/svg11.dtd">
<!-- Generated by graphviz version 2.40.1 (20161225.0304)
 -->
<!-- Title: mom_domains::get_simple_array_j_ind Pages: 1 -->
<svg width="345pt" height="180pt"
 viewBox="0.00 0.00 345.00 180.00" xmlns="http://www.w3.org/2000/svg" xmlns:xlink="http://www.w3.org/1999/xlink">
<g id="graph0" class="graph" transform="scale(1 1) rotate(0) translate(4 176)">
<title>mom_domains::get_simple_array_j_ind</title>
<polygon fill="#ffffff" stroke="transparent" points="-4,4 -4,-176 341,-176 341,4 -4,4"/>
<!-- Node1 -->
<g id="node1" class="node">
<title>Node1</title>
<g id="a_node1"><a xlink:title="Return the (potentially symmetric) computational domain j&#45;bounds for an array passed without index sp...">
<polygon fill="#bfbfbf" stroke="#000000" points="197,-71 197,-101 337,-101 337,-71 197,-71"/>
<text text-anchor="start" x="205" y="-89" font-family="Helvetica,sans-Serif" font-size="10.00" fill="#000000">mom_domains::get_simple</text>
<text text-anchor="middle" x="267" y="-78" font-family="Helvetica,sans-Serif" font-size="10.00" fill="#000000">_array_j_ind</text>
</a>
</g>
</g>
<!-- Node2 -->
<g id="node2" class="node">
<title>Node2</title>
<g id="a_node2"><a xlink:href="namespacemom__io.html#a4a26da14aed075eb784a5b82f2c6d978" target="_top" xlink:title="This function uses the fms_io function read_data to read a distributed 2&#45;D data field named &quot;fieldnam...">
<polygon fill="#ffffff" stroke="#000000" points="4,-152.5 4,-171.5 157,-171.5 157,-152.5 4,-152.5"/>
<text text-anchor="middle" x="80.5" y="-159.5" font-family="Helvetica,sans-Serif" font-size="10.00" fill="#000000">mom_io::mom_read_data_2d</text>
</a>
</g>
</g>
<!-- Node1&#45;&gt;Node2 -->
<g id="edge1" class="edge">
<title>Node1&#45;&gt;Node2</title>
<path fill="none" stroke="#191970" d="M234.8233,-106.1673C214.3326,-118.277 186.8672,-133.1872 161,-143 151.199,-146.718 140.4418,-149.8606 130.0707,-152.4536"/>
<polygon fill="#191970" stroke="#191970" points="236.6599,-109.1471 243.4341,-101.0009 233.0584,-103.1447 236.6599,-109.1471"/>
</g>
<!-- Node3 -->
<g id="node3" class="node">
<title>Node3</title>
<g id="a_node3"><a xlink:href="namespacemom__io.html#ae4d85b211226c10f44328e1c544a6087" target="_top" xlink:title="This function uses the fms_io function read_data to read a distributed 3&#45;D data field named &quot;fieldnam...">
<polygon fill="#ffffff" stroke="#000000" points="4,-114.5 4,-133.5 157,-133.5 157,-114.5 4,-114.5"/>
<text text-anchor="middle" x="80.5" y="-121.5" font-family="Helvetica,sans-Serif" font-size="10.00" fill="#000000">mom_io::mom_read_data_3d</text>
</a>
</g>
</g>
<!-- Node1&#45;&gt;Node3 -->
<g id="edge2" class="edge">
<title>Node1&#45;&gt;Node3</title>
<path fill="none" stroke="#191970" d="M186.8537,-102.3301C166.5036,-106.4765 145.3039,-110.796 127.2361,-114.4774"/>
<polygon fill="#191970" stroke="#191970" points="187.6582,-105.7381 196.7581,-100.312 186.2606,-98.8791 187.6582,-105.7381"/>
</g>
<!-- Node4 -->
<g id="node4" class="node">
<title>Node4</title>
<g id="a_node4"><a xlink:href="namespacemom__io.html#ae52771cd57953bb7e5f9d38ee9142fca" target="_top" xlink:title="This function uses the fms_io function read_data to read a distributed 4&#45;D data field named &quot;fieldnam...">
<polygon fill="#ffffff" stroke="#000000" points="4,-76.5 4,-95.5 157,-95.5 157,-76.5 4,-76.5"/>
<text text-anchor="middle" x="80.5" y="-83.5" font-family="Helvetica,sans-Serif" font-size="10.00" fill="#000000">mom_io::mom_read_data_4d</text>
</a>
</g>
</g>
<!-- Node1&#45;&gt;Node4 -->
<g id="edge3" class="edge">
<title>Node1&#45;&gt;Node4</title>
<path fill="none" stroke="#191970" d="M186.6687,-86C176.9023,-86 166.9431,-86 157.2309,-86"/>
<polygon fill="#191970" stroke="#191970" points="186.7581,-89.5001 196.7581,-86 186.7581,-82.5001 186.7581,-89.5001"/>
</g>
<!-- Node5 -->
<g id="node5" class="node">
<title>Node5</title>
<g id="a_node5"><a xlink:href="namespacemom__io.html#a5164130471f3bf80cc8657e17b5c08eb" target="_top" xlink:title="This function uses the fms_io function read_data to read a pair of distributed 2&#45;D data fields with n...">
<polygon fill="#ffffff" stroke="#000000" points="0,-38.5 0,-57.5 161,-57.5 161,-38.5 0,-38.5"/>
<text text-anchor="middle" x="80.5" y="-45.5" font-family="Helvetica,sans-Serif" font-size="10.00" fill="#000000">mom_io::mom_read_vector_2d</text>
</a>
</g>
</g>
<!-- Node1&#45;&gt;Node5 -->
<g id="edge4" class="edge">
<title>Node1&#45;&gt;Node5</title>
<path fill="none" stroke="#191970" d="M186.8537,-69.6699C166.5036,-65.5235 145.3039,-61.204 127.2361,-57.5226"/>
<polygon fill="#191970" stroke="#191970" points="186.2606,-73.1209 196.7581,-71.688 187.6582,-66.2619 186.2606,-73.1209"/>
</g>
<!-- Node6 -->
<g id="node6" class="node">
<title>Node6</title>
<g id="a_node6"><a xlink:href="namespacemom__io.html#ac5eac11ba2b78f5d1146f4541d50abd5" target="_top" xlink:title="This function uses the fms_io function read_data to read a pair of distributed 3&#45;D data fields with n...">
<polygon fill="#ffffff" stroke="#000000" points="0,-.5 0,-19.5 161,-19.5 161,-.5 0,-.5"/>
<text text-anchor="middle" x="80.5" y="-7.5" font-family="Helvetica,sans-Serif" font-size="10.00" fill="#000000">mom_io::mom_read_vector_3d</text>
</a>
</g>
</g>
<!-- Node1&#45;&gt;Node6 -->
<g id="edge5" class="edge">
<title>Node1&#45;&gt;Node6</title>
<path fill="none" stroke="#191970" d="M234.8233,-65.8327C214.3326,-53.723 186.8672,-38.8128 161,-29 151.199,-25.282 140.4418,-22.1394 130.0707,-19.5464"/>
<polygon fill="#191970" stroke="#191970" points="233.0584,-68.8553 243.4341,-70.9991 236.6599,-62.8529 233.0584,-68.8553"/>
</g>
</g>
</svg>
