<?xml version="1.0" encoding="UTF-8" standalone="no"?>
<!DOCTYPE svg PUBLIC "-//W3C//DTD SVG 1.1//EN"
 "http://www.w3.org/Graphics/SVG/1.1/DTD/svg11.dtd">
<!-- Generated by graphviz version 2.40.1 (20161225.0304)
 -->
<!-- Title: mom_tracer_registry::register_tracer Pages: 1 -->
<svg width="722pt" height="97pt"
 viewBox="0.00 0.00 722.00 96.58" xmlns="http://www.w3.org/2000/svg" xmlns:xlink="http://www.w3.org/1999/xlink">
<g id="graph0" class="graph" transform="scale(1 1) rotate(0) translate(4 92.577)">
<title>mom_tracer_registry::register_tracer</title>
<polygon fill="#ffffff" stroke="transparent" points="-4,4 -4,-92.577 718,-92.577 718,4 -4,4"/>
<!-- Node1 -->
<g id="node1" class="node">
<title>Node1</title>
<g id="a_node1"><a xlink:title="This subroutine registers a tracer to be advected and laterally diffused.">
<polygon fill="#bfbfbf" stroke="#000000" points="0,-44.5 0,-74.5 106,-74.5 106,-44.5 0,-44.5"/>
<text text-anchor="start" x="8" y="-62.5" font-family="Helvetica,sans-Serif" font-size="10.00" fill="#000000">mom_tracer_registry</text>
<text text-anchor="middle" x="53" y="-51.5" font-family="Helvetica,sans-Serif" font-size="10.00" fill="#000000">::register_tracer</text>
</a>
</g>
</g>
<!-- Node2 -->
<g id="node2" class="node">
<title>Node2</title>
<g id="a_node2"><a xlink:href="namespacemom__error__handler.html#a460cfb79a06c29fc249952c2a3710d67" target="_top" xlink:title="This provides a convenient interface for writing an mpp_error message with run&#45;time filter based on a...">
<polygon fill="#ffffff" stroke="#000000" points="466,-44.5 466,-74.5 572,-74.5 572,-44.5 466,-44.5"/>
<text text-anchor="start" x="474" y="-62.5" font-family="Helvetica,sans-Serif" font-size="10.00" fill="#000000">mom_error_handler::</text>
<text text-anchor="middle" x="519" y="-51.5" font-family="Helvetica,sans-Serif" font-size="10.00" fill="#000000">mom_error</text>
</a>
</g>
</g>
<!-- Node1&#45;&gt;Node2 -->
<g id="edge1" class="edge">
<title>Node1&#45;&gt;Node2</title>
<path fill="none" stroke="#191970" d="M106.3594,-72.7942C118.0312,-75.1674 130.3729,-77.2727 142,-78.5 269.2929,-91.9361 302.7071,-91.9361 430,-78.5 438.357,-77.6179 447.0831,-76.2822 455.6644,-74.7194"/>
<polygon fill="#191970" stroke="#191970" points="456.485,-78.1257 465.6406,-72.7942 455.1585,-71.2525 456.485,-78.1257"/>
</g>
<!-- Node4 -->
<g id="node4" class="node">
<title>Node4</title>
<g id="a_node4"><a xlink:href="namespacemom__io.html#aa583d22dfaf16e3157b2741d838f5240" target="_top" xlink:title="This routine queries vardesc.">
<polygon fill="#ffffff" stroke="#000000" points="142,-50 142,-69 263,-69 263,-50 142,-50"/>
<text text-anchor="middle" x="202.5" y="-57" font-family="Helvetica,sans-Serif" font-size="10.00" fill="#000000">mom_io::query_vardesc</text>
</a>
</g>
</g>
<!-- Node1&#45;&gt;Node4 -->
<g id="edge3" class="edge">
<title>Node1&#45;&gt;Node4</title>
<path fill="none" stroke="#191970" d="M106.1291,-59.5C114.4536,-59.5 123.1695,-59.5 131.8128,-59.5"/>
<polygon fill="#191970" stroke="#191970" points="131.8981,-63.0001 141.898,-59.5 131.898,-56.0001 131.8981,-63.0001"/>
</g>
<!-- Node6 -->
<g id="node6" class="node">
<title>Node6</title>
<g id="a_node6"><a xlink:href="namespacemom__tracer__registry.html#a452937bf1f9d01a47d1a80793e317b33" target="_top" xlink:title="Initialize the tracer registry.">
<polygon fill="#ffffff" stroke="#000000" points="311.5,-.5 311.5,-30.5 417.5,-30.5 417.5,-.5 311.5,-.5"/>
<text text-anchor="start" x="319.5" y="-18.5" font-family="Helvetica,sans-Serif" font-size="10.00" fill="#000000">mom_tracer_registry</text>
<text text-anchor="middle" x="364.5" y="-7.5" font-family="Helvetica,sans-Serif" font-size="10.00" fill="#000000">::tracer_registry_init</text>
</a>
</g>
</g>
<!-- Node1&#45;&gt;Node6 -->
<g id="edge6" class="edge">
<title>Node1&#45;&gt;Node6</title>
<path fill="none" stroke="#191970" d="M106.0186,-47.2874C117.8219,-44.8187 130.3038,-42.4008 142,-40.5 195.3932,-31.8227 256.4855,-25.1919 301.1291,-20.9468"/>
<polygon fill="#191970" stroke="#191970" points="301.621,-24.4161 311.2508,-19.9983 300.9679,-17.4466 301.621,-24.4161"/>
</g>
<!-- Node3 -->
<g id="node3" class="node">
<title>Node3</title>
<g id="a_node3"><a xlink:href="namespacemom__error__handler.html#ad5f00a53059c72fe2332d1436c80ca71" target="_top" xlink:title="This returns .true. if the current PE is the root PE.">
<polygon fill="#ffffff" stroke="#000000" points="608,-22.5 608,-52.5 714,-52.5 714,-22.5 608,-22.5"/>
<text text-anchor="start" x="616" y="-40.5" font-family="Helvetica,sans-Serif" font-size="10.00" fill="#000000">mom_error_handler::</text>
<text text-anchor="middle" x="661" y="-29.5" font-family="Helvetica,sans-Serif" font-size="10.00" fill="#000000">is_root_pe</text>
</a>
</g>
</g>
<!-- Node2&#45;&gt;Node3 -->
<g id="edge2" class="edge">
<title>Node2&#45;&gt;Node3</title>
<path fill="none" stroke="#191970" d="M572.2796,-51.2454C580.651,-49.9484 589.3736,-48.5971 597.94,-47.2699"/>
<polygon fill="#191970" stroke="#191970" points="598.5479,-50.7175 607.8941,-45.7277 597.4761,-43.8001 598.5479,-50.7175"/>
</g>
<!-- Node5 -->
<g id="node5" class="node">
<title>Node5</title>
<g id="a_node5"><a xlink:href="namespacemom__io.html#ac4bc408e8b38dbd669842753f26ebf88" target="_top" xlink:title="Copies a string.">
<polygon fill="#ffffff" stroke="#000000" points="299,-50 299,-69 430,-69 430,-50 299,-50"/>
<text text-anchor="middle" x="364.5" y="-57" font-family="Helvetica,sans-Serif" font-size="10.00" fill="#000000">mom_io::safe_string_copy</text>
</a>
</g>
</g>
<!-- Node4&#45;&gt;Node5 -->
<g id="edge4" class="edge">
<title>Node4&#45;&gt;Node5</title>
<path fill="none" stroke="#191970" d="M263.2837,-59.5C271.5177,-59.5 280.0494,-59.5 288.508,-59.5"/>
<polygon fill="#191970" stroke="#191970" points="288.7644,-63.0001 298.7644,-59.5 288.7644,-56.0001 288.7644,-63.0001"/>
</g>
<!-- Node5&#45;&gt;Node2 -->
<g id="edge5" class="edge">
<title>Node5&#45;&gt;Node2</title>
<path fill="none" stroke="#191970" d="M430.0219,-59.5C438.4416,-59.5 447.0517,-59.5 455.4393,-59.5"/>
<polygon fill="#191970" stroke="#191970" points="455.5324,-63.0001 465.5323,-59.5 455.5323,-56.0001 455.5324,-63.0001"/>
</g>
<!-- Node6&#45;&gt;Node2 -->
<g id="edge8" class="edge">
<title>Node6&#45;&gt;Node2</title>
<path fill="none" stroke="#191970" d="M417.238,-30.5192C429.8465,-34.11 443.427,-37.9776 456.4311,-41.681"/>
<polygon fill="#191970" stroke="#191970" points="455.6613,-45.1009 466.2375,-44.4738 457.5786,-38.3686 455.6613,-45.1009"/>
</g>
<!-- Node6&#45;&gt;Node3 -->
<g id="edge7" class="edge">
<title>Node6&#45;&gt;Node3</title>
<path fill="none" stroke="#191970" d="M417.5083,-19.4332C468.0529,-23.1835 544.2119,-28.8344 597.8702,-32.8158"/>
<polygon fill="#191970" stroke="#191970" points="597.7201,-36.3142 607.9517,-33.5639 598.2381,-29.3334 597.7201,-36.3142"/>
</g>
</g>
</svg>
