<?xml version="1.0" encoding="UTF-8" standalone="no"?>
<!DOCTYPE svg PUBLIC "-//W3C//DTD SVG 1.1//EN"
 "http://www.w3.org/Graphics/SVG/1.1/DTD/svg11.dtd">
<!-- Generated by graphviz version 2.40.1 (20161225.0304)
 -->
<!-- Title: mom_sum_output::get_depth_list_checksums Pages: 1 -->
<!--zoomable 83 -->
<svg id="main" version="1.1" xmlns="http://www.w3.org/2000/svg" xmlns:xlink="http://www.w3.org/1999/xlink" xml:space="preserve" onload="init(evt)">
<style type="text/css"><![CDATA[
.edge:hover path { stroke: red; }
.edge:hover polygon { stroke: red; fill: red; }
]]></style>
<script type="text/javascript"><![CDATA[
var edges = document.getElementsByTagName('g');
if (edges && edges.length) {
  for (var i=0;i<edges.length;i++) {
    if (edges[i].id.substr(0,4)=='edge') {
      edges[i].setAttribute('class','edge');
    }
  }
}
]]></script>
        <defs>
                <circle id="rim" cx="0" cy="0" r="7"/>
                <circle id="rim2" cx="0" cy="0" r="3.5"/>
                <g id="zoomPlus">
                        <use xlink:href="#rim" fill="#404040">
                                <set attributeName="fill" to="#808080" begin="zoomplus.mouseover" end="zoomplus.mouseout"/>
                        </use>
                        <path d="M-4,0h8M0,-4v8" fill="none" stroke="white" stroke-width="1.5" pointer-events="none"/>
                </g>
                <g id="zoomMin">
                        <use xlink:href="#rim" fill="#404040">
                                <set attributeName="fill" to="#808080" begin="zoomminus.mouseover" end="zoomminus.mouseout"/>
                        </use>
                        <path d="M-4,0h8" fill="none" stroke="white" stroke-width="1.5" pointer-events="none"/>
                </g>
                <g id="dirArrow">
                        <path fill="none" stroke="white" stroke-width="1.5" d="M0,-3.0v7 M-2.5,-0.5L0,-3.0L2.5,-0.5"/>
                </g>
               <g id="resetDef">
                       <use xlink:href="#rim2" fill="#404040">
                               <set attributeName="fill" to="#808080" begin="reset.mouseover" end="reset.mouseout"/>
                       </use>
               </g>
        </defs>

<script type="text/javascript">
var viewWidth = 1033;
var viewHeight = 83;
var sectionId = 'dynsection-4';
</script>
<script xlink:href="svgpan.js"/>
<svg id="graph" class="graph">
<g id="viewport">
<title>mom_sum_output::get_depth_list_checksums</title>
<polygon fill="#ffffff" stroke="transparent" points="-4,4 -4,-79 1029,-79 1029,4 -4,4"/>
<!-- Node1 -->
<g id="node1" class="node">
<title>Node1</title>
<g id="a_node1"><a xlink:title="Return the checksums required to verify DEPTH_LIST_FILE contents.">
<polygon fill="#bfbfbf" stroke="#000000" points="899,-22.5 899,-52.5 1025,-52.5 1025,-22.5 899,-22.5"/>
<text text-anchor="start" x="907" y="-40.5" font-family="Helvetica,sans-Serif" font-size="10.00" fill="#000000">mom_sum_output::get</text>
<text text-anchor="middle" x="962" y="-29.5" font-family="Helvetica,sans-Serif" font-size="10.00" fill="#000000">_depth_list_checksums</text>
</a>
</g>
</g>
<!-- Node2 -->
<g id="node2" class="node">
<title>Node2</title>
<g id="a_node2"><a xlink:href="namespacemom__sum__output.html#a4f45b1c7dbff4fe064e102ccb2967daf" target="_top" xlink:title="This subroutine reads in the depth list to the specified file and allocates and sets up CSDL and CSli...">
<polygon fill="#ffffff" stroke="#000000" points="577,-44.5 577,-74.5 702,-74.5 702,-44.5 577,-44.5"/>
<text text-anchor="start" x="585" y="-62.5" font-family="Helvetica,sans-Serif" font-size="10.00" fill="#000000">mom_sum_output::read</text>
<text text-anchor="middle" x="639.5" y="-51.5" font-family="Helvetica,sans-Serif" font-size="10.00" fill="#000000">_depth_list</text>
</a>
</g>
</g>
<!-- Node1&#45;&gt;Node2 -->
<g id="edge1" class="edge">
<title>Node1&#45;&gt;Node2</title>
<path fill="none" stroke="#191970" d="M888.4144,-42.5198C832.1655,-46.3569 755.4695,-51.5889 702.1369,-55.2271"/>
<polygon fill="#191970" stroke="#191970" points="888.9306,-45.9928 898.6692,-41.8202 888.4541,-39.009 888.9306,-45.9928"/>
</g>
<!-- Node7 -->
<g id="node7" class="node">
<title>Node7</title>
<g id="a_node7"><a xlink:href="namespacemom__sum__output.html#a955e777980a668bfc611c78de5de1895" target="_top" xlink:title="This subroutine writes out the depth list to the specified file.">
<polygon fill="#ffffff" stroke="#000000" points="738,-.5 738,-30.5 863,-30.5 863,-.5 738,-.5"/>
<text text-anchor="start" x="746" y="-18.5" font-family="Helvetica,sans-Serif" font-size="10.00" fill="#000000">mom_sum_output::write</text>
<text text-anchor="middle" x="800.5" y="-7.5" font-family="Helvetica,sans-Serif" font-size="10.00" fill="#000000">_depth_list</text>
</a>
</g>
</g>
<!-- Node1&#45;&gt;Node7 -->
<g id="edge6" class="edge">
<title>Node1&#45;&gt;Node7</title>
<path fill="none" stroke="#191970" d="M888.6948,-27.5142C880.1643,-26.3521 871.5221,-25.1748 863.1532,-24.0348"/>
<polygon fill="#191970" stroke="#191970" points="888.2535,-30.9863 898.6344,-28.8682 889.1984,-24.0503 888.2535,-30.9863"/>
</g>
<!-- Node3 -->
<g id="node3" class="node">
<title>Node3</title>
<g id="a_node3"><a xlink:href="namespacemom__sum__output.html#a53d3dcd50cba41760dd8713228785a8d" target="_top" xlink:title="This subroutine sets up an ordered list of depths, along with the cross sectional areas at each depth...">
<polygon fill="#ffffff" stroke="#000000" points="411,-22.5 411,-52.5 541,-52.5 541,-22.5 411,-22.5"/>
<text text-anchor="start" x="419" y="-40.5" font-family="Helvetica,sans-Serif" font-size="10.00" fill="#000000">mom_sum_output::depth</text>
<text text-anchor="middle" x="476" y="-29.5" font-family="Helvetica,sans-Serif" font-size="10.00" fill="#000000">_list_setup</text>
</a>
</g>
</g>
<!-- Node2&#45;&gt;Node3 -->
<g id="edge2" class="edge">
<title>Node2&#45;&gt;Node3</title>
<path fill="none" stroke="#191970" d="M566.7688,-49.7135C558.1906,-48.5593 549.4783,-47.387 541.0159,-46.2483"/>
<polygon fill="#191970" stroke="#191970" points="566.3768,-53.1923 576.7542,-51.0571 567.3103,-46.2548 566.3768,-53.1923"/>
</g>
<!-- Node4 -->
<g id="node4" class="node">
<title>Node4</title>
<g id="a_node4"><a xlink:href="namespacemom__sum__output.html#a05003e74cbb39fbdf760d23617390445" target="_top" xlink:title="MOM_sum_output_init initializes the parameters and settings for the MOM_sum_output module.">
<polygon fill="#ffffff" stroke="#000000" points="250,-22.5 250,-52.5 375,-52.5 375,-22.5 250,-22.5"/>
<text text-anchor="start" x="258" y="-40.5" font-family="Helvetica,sans-Serif" font-size="10.00" fill="#000000">mom_sum_output::mom</text>
<text text-anchor="middle" x="312.5" y="-29.5" font-family="Helvetica,sans-Serif" font-size="10.00" fill="#000000">_sum_output_init</text>
</a>
</g>
</g>
<!-- Node3&#45;&gt;Node4 -->
<g id="edge3" class="edge">
<title>Node3&#45;&gt;Node4</title>
<path fill="none" stroke="#191970" d="M400.9014,-37.5C392.317,-37.5 383.6342,-37.5 375.2348,-37.5"/>
<polygon fill="#191970" stroke="#191970" points="400.9107,-41.0001 410.9107,-37.5 400.9106,-34.0001 400.9107,-41.0001"/>
</g>
<!-- Node5 -->
<g id="node5" class="node">
<title>Node5</title>
<g id="a_node5"><a xlink:href="namespacemom.html#a96708b16215666edbfa5b46228f3a200" target="_top" xlink:title="Initialize MOM, including memory allocation, setting up parameters and diagnostics,...">
<polygon fill="#ffffff" stroke="#000000" points="104,-28 104,-47 214,-47 214,-28 104,-28"/>
<text text-anchor="middle" x="159" y="-35" font-family="Helvetica,sans-Serif" font-size="10.00" fill="#000000">mom::initialize_mom</text>
</a>
</g>
</g>
<!-- Node4&#45;&gt;Node5 -->
<g id="edge4" class="edge">
<title>Node4&#45;&gt;Node5</title>
<path fill="none" stroke="#191970" d="M239.6219,-37.5C231.0556,-37.5 222.4248,-37.5 214.1578,-37.5"/>
<polygon fill="#191970" stroke="#191970" points="239.6228,-41.0001 249.6228,-37.5 239.6227,-34.0001 239.6228,-41.0001"/>
</g>
<!-- Node6 -->
<g id="node6" class="node">
<title>Node6</title>
<g id="a_node6"><a xlink:href="MOM__driver_8F90.html#a08fffeb2d8e8acbf9ed4609be6d258c6" target="_top" xlink:title=" ">
<polygon fill="#ffffff" stroke="#000000" points="0,-28 0,-47 68,-47 68,-28 0,-28"/>
<text text-anchor="middle" x="34" y="-35" font-family="Helvetica,sans-Serif" font-size="10.00" fill="#000000">mom_main</text>
</a>
</g>
</g>
<!-- Node5&#45;&gt;Node6 -->
<g id="edge5" class="edge">
<title>Node5&#45;&gt;Node6</title>
<path fill="none" stroke="#191970" d="M93.7848,-37.5C84.8995,-37.5 76.0876,-37.5 68.0691,-37.5"/>
<polygon fill="#191970" stroke="#191970" points="93.8094,-41.0001 103.8093,-37.5 93.8093,-34.0001 93.8094,-41.0001"/>
</g>
<!-- Node7&#45;&gt;Node2 -->
<g id="edge8" class="edge">
<title>Node7&#45;&gt;Node2</title>
<path fill="none" stroke="#191970" d="M735.7234,-33.2029C722.0522,-36.9392 707.7514,-40.8475 694.4822,-44.4738"/>
<polygon fill="#191970" stroke="#191970" points="736.8197,-36.5317 745.5432,-30.5192 734.9743,-29.7794 736.8197,-36.5317"/>
</g>
<!-- Node7&#45;&gt;Node3 -->
<g id="edge7" class="edge">
<title>Node7&#45;&gt;Node3</title>
<path fill="none" stroke="#191970" d="M727.7332,-20.4333C671.7643,-24.2278 595.1241,-29.4238 541.1552,-33.0827"/>
<polygon fill="#191970" stroke="#191970" points="728.1928,-23.9103 737.9331,-19.7418 727.7193,-16.9263 728.1928,-23.9103"/>
</g>
</g>
</svg>
        <g id="navigator" transform="translate(0 0)" fill="#404254">
                <rect fill="#f2f5e9" fill-opacity="0.5" stroke="#606060" stroke-width=".5" x="0" y="0" width="60" height="60"/>
                <use id="zoomplus" xlink:href="#zoomPlus" x="17" y="9" onmousedown="handleZoom(evt,'in')"/>
                <use id="zoomminus" xlink:href="#zoomMin" x="42" y="9" onmousedown="handleZoom(evt,'out')"/>
                <use id="reset" xlink:href="#resetDef" x="30" y="36" onmousedown="handleReset()"/>
                <g id="arrowUp" xlink:href="#dirArrow" transform="translate(30 24)" onmousedown="handlePan(0,-1)">
                  <use xlink:href="#rim" fill="#404040">
                        <set attributeName="fill" to="#808080" begin="arrowUp.mouseover" end="arrowUp.mouseout"/>
                  </use>
                  <path fill="none" stroke="white" stroke-width="1.5" d="M0,-3.0v7 M-2.5,-0.5L0,-3.0L2.5,-0.5"/>
                </g>
                <g id="arrowRight" xlink:href="#dirArrow" transform="rotate(90) translate(36 -43)" onmousedown="handlePan(1,0)">
                  <use xlink:href="#rim" fill="#404040">
                        <set attributeName="fill" to="#808080" begin="arrowRight.mouseover" end="arrowRight.mouseout"/>
                  </use>
                  <path fill="none" stroke="white" stroke-width="1.5" d="M0,-3.0v7 M-2.5,-0.5L0,-3.0L2.5,-0.5"/>
                </g>
                <g id="arrowDown" xlink:href="#dirArrow" transform="rotate(180) translate(-30 -48)" onmousedown="handlePan(0,1)">
                  <use xlink:href="#rim" fill="#404040">
                        <set attributeName="fill" to="#808080" begin="arrowDown.mouseover" end="arrowDown.mouseout"/>
                  </use>
                  <path fill="none" stroke="white" stroke-width="1.5" d="M0,-3.0v7 M-2.5,-0.5L0,-3.0L2.5,-0.5"/>
                </g>
                <g id="arrowLeft" xlink:href="#dirArrow" transform="rotate(270) translate(-36 17)" onmousedown="handlePan(-1,0)">
                  <use xlink:href="#rim" fill="#404040">
                        <set attributeName="fill" to="#808080" begin="arrowLeft.mouseover" end="arrowLeft.mouseout"/>
                  </use>
                  <path fill="none" stroke="white" stroke-width="1.5" d="M0,-3.0v7 M-2.5,-0.5L0,-3.0L2.5,-0.5"/>
                </g>
        </g>
        <svg viewBox="0 0 15 15" width="100%" height="30px" preserveAspectRatio="xMaxYMin meet">
         <g id="arrow_out" transform="scale(0.3 0.3)">
          <a xlink:href="namespacemom__sum__output_a928dd1160bb6c0033a417c618b9d01ef_icgraph_org.svg" target="_base">
           <rect id="button" ry="5" rx="5" y="6" x="6" height="38" width="38"
                fill="#f2f5e9" fill-opacity="0.5" stroke="#606060" stroke-width="1.0"/>
           <path id="arrow"
             d="M 11.500037,31.436501 C 11.940474,20.09759 22.043105,11.32322 32.158766,21.979434 L 37.068811,17.246167 C 37.068811,17.246167 37.088388,32 37.088388,32 L 22.160133,31.978069 C 22.160133,31.978069 26.997745,27.140456 26.997745,27.140456 C 18.528582,18.264221 13.291696,25.230495 11.500037,31.436501 z"
             style="fill:#404040;"/>
          </a>
         </g>
        </svg>
</svg>
