<?xml version="1.0" encoding="UTF-8" standalone="no"?>
<!DOCTYPE svg PUBLIC "-//W3C//DTD SVG 1.1//EN"
 "http://www.w3.org/Graphics/SVG/1.1/DTD/svg11.dtd">
<!-- Generated by graphviz version 2.40.1 (20161225.0304)
 -->
<!-- Title: mom_eos::evaluate_shape_quadratic Pages: 1 -->
<svg width="488pt" height="39pt"
 viewBox="0.00 0.00 488.00 39.00" xmlns="http://www.w3.org/2000/svg" xmlns:xlink="http://www.w3.org/1999/xlink">
<g id="graph0" class="graph" transform="scale(1 1) rotate(0) translate(4 35)">
<title>mom_eos::evaluate_shape_quadratic</title>
<polygon fill="#ffffff" stroke="transparent" points="-4,4 -4,-35 484,-35 484,4 -4,4"/>
<!-- Node1 -->
<g id="node1" class="node">
<title>Node1</title>
<g id="a_node1"><a xlink:title="Evaluation of the nine quadratic shape fn weights and their gradients at (xi,eta)">
<polygon fill="#bfbfbf" stroke="#000000" points="338,-.5 338,-30.5 480,-30.5 480,-.5 338,-.5"/>
<text text-anchor="start" x="346" y="-18.5" font-family="Helvetica,sans-Serif" font-size="10.00" fill="#000000">mom_eos::evaluate_shape</text>
<text text-anchor="middle" x="409" y="-7.5" font-family="Helvetica,sans-Serif" font-size="10.00" fill="#000000">_quadratic</text>
</a>
</g>
</g>
<!-- Node2 -->
<g id="node2" class="node">
<title>Node2</title>
<g id="a_node2"><a xlink:href="namespacemom__eos.html#ab9ad774110cfa4cb44666592ddcf689c" target="_top" xlink:title="Compute the integral of the quadratic function.">
<polygon fill="#ffffff" stroke="#000000" points="154,-.5 154,-30.5 302,-30.5 302,-.5 154,-.5"/>
<text text-anchor="start" x="162" y="-18.5" font-family="Helvetica,sans-Serif" font-size="10.00" fill="#000000">mom_eos::compute_integral</text>
<text text-anchor="middle" x="228" y="-7.5" font-family="Helvetica,sans-Serif" font-size="10.00" fill="#000000">_quadratic</text>
</a>
</g>
</g>
<!-- Node1&#45;&gt;Node2 -->
<g id="edge1" class="edge">
<title>Node1&#45;&gt;Node2</title>
<path fill="none" stroke="#191970" d="M327.9485,-15.5C319.3388,-15.5 310.6138,-15.5 302.0898,-15.5"/>
<polygon fill="#191970" stroke="#191970" points="327.9835,-19.0001 337.9835,-15.5 327.9835,-12.0001 327.9835,-19.0001"/>
</g>
<!-- Node3 -->
<g id="node3" class="node">
<title>Node3</title>
<g id="a_node3"><a xlink:href="namespacemom__eos.html#a594df0f0a5756c77a5c7e5a5c2e36a20" target="_top" xlink:title="Compute pressure gradient force integrals for the case where T and S are parabolic profiles.">
<polygon fill="#ffffff" stroke="#000000" points="0,-.5 0,-30.5 118,-30.5 118,-.5 0,-.5"/>
<text text-anchor="start" x="8" y="-18.5" font-family="Helvetica,sans-Serif" font-size="10.00" fill="#000000">mom_eos::int_density</text>
<text text-anchor="middle" x="59" y="-7.5" font-family="Helvetica,sans-Serif" font-size="10.00" fill="#000000">_dz_generic_ppm</text>
</a>
</g>
</g>
<!-- Node2&#45;&gt;Node3 -->
<g id="edge2" class="edge">
<title>Node2&#45;&gt;Node3</title>
<path fill="none" stroke="#191970" d="M143.7269,-15.5C135.0632,-15.5 126.3962,-15.5 118.0904,-15.5"/>
<polygon fill="#191970" stroke="#191970" points="143.8742,-19.0001 153.8741,-15.5 143.8741,-12.0001 143.8742,-19.0001"/>
</g>
</g>
</svg>
