<?xml version="1.0" encoding="UTF-8" standalone="no"?>
<!DOCTYPE svg PUBLIC "-//W3C//DTD SVG 1.1//EN"
 "http://www.w3.org/Graphics/SVG/1.1/DTD/svg11.dtd">
<!-- Generated by graphviz version 2.40.1 (20161225.0304)
 -->
<!-- Title: mom_coms::regularize_ints Pages: 1 -->
<svg width="468pt" height="154pt"
 viewBox="0.00 0.00 468.00 154.00" xmlns="http://www.w3.org/2000/svg" xmlns:xlink="http://www.w3.org/1999/xlink">
<g id="graph0" class="graph" transform="scale(1 1) rotate(0) translate(4 150)">
<title>mom_coms::regularize_ints</title>
<polygon fill="#ffffff" stroke="transparent" points="-4,4 -4,-150 464,-150 464,4 -4,4"/>
<!-- Node1 -->
<g id="node1" class="node">
<title>Node1</title>
<g id="a_node1"><a xlink:title="This subroutine carries the overflow, and then makes sure that all integers are of the same sign as t...">
<polygon fill="#bfbfbf" stroke="#000000" points="323,-55 323,-74 460,-74 460,-55 323,-55"/>
<text text-anchor="middle" x="391.5" y="-62" font-family="Helvetica,sans-Serif" font-size="10.00" fill="#000000">mom_coms::regularize_ints</text>
</a>
</g>
</g>
<!-- Node2 -->
<g id="node2" class="node">
<title>Node2</title>
<g id="a_node2"><a xlink:href="namespacemom__coms.html#a4aaf51b372bcaf7b46939145577eff92" target="_top" xlink:title="Return the real number that an extended&#45;fixed&#45;point number corresponds with.">
<polygon fill="#ffffff" stroke="#000000" points="164,-99 164,-118 286,-118 286,-99 164,-99"/>
<text text-anchor="middle" x="225" y="-106" font-family="Helvetica,sans-Serif" font-size="10.00" fill="#000000">mom_coms::efp_to_real</text>
</a>
</g>
</g>
<!-- Node1&#45;&gt;Node2 -->
<g id="edge1" class="edge">
<title>Node1&#45;&gt;Node2</title>
<path fill="none" stroke="#191970" d="M345.5055,-76.6547C318.8625,-83.6955 285.8057,-92.4312 261.0575,-98.9713"/>
<polygon fill="#191970" stroke="#191970" points="346.5981,-79.9862 355.372,-74.0473 344.8096,-73.2185 346.5981,-79.9862"/>
</g>
<!-- Node5 -->
<g id="node5" class="node">
<title>Node5</title>
<g id="a_node5"><a xlink:href="namespacemom__coms.html#a99e145acc9227dad1bddc6cf211e4daf" target="_top" xlink:title="This subroutine uses a conversion to an integer representation of real numbers to give an order&#45;invar...">
<polygon fill="#ffffff" stroke="#000000" points="163,-49.5 163,-79.5 287,-79.5 287,-49.5 163,-49.5"/>
<text text-anchor="start" x="171" y="-67.5" font-family="Helvetica,sans-Serif" font-size="10.00" fill="#000000">mom_coms::reproducing</text>
<text text-anchor="middle" x="225" y="-56.5" font-family="Helvetica,sans-Serif" font-size="10.00" fill="#000000">_sum_2d</text>
</a>
</g>
</g>
<!-- Node1&#45;&gt;Node5 -->
<g id="edge4" class="edge">
<title>Node1&#45;&gt;Node5</title>
<path fill="none" stroke="#191970" d="M312.7661,-64.5C304.1602,-64.5 295.4898,-64.5 287.1242,-64.5"/>
<polygon fill="#191970" stroke="#191970" points="312.8168,-68.0001 322.8168,-64.5 312.8168,-61.0001 312.8168,-68.0001"/>
</g>
<!-- Node6 -->
<g id="node6" class="node">
<title>Node6</title>
<g id="a_node6"><a xlink:href="namespacemom__coms.html#aa21533e0badf43b331b5f7a9730c005f" target="_top" xlink:title="This subroutine uses a conversion to an integer representation of real numbers to give an order&#45;invar...">
<polygon fill="#ffffff" stroke="#000000" points="163,-.5 163,-30.5 287,-30.5 287,-.5 163,-.5"/>
<text text-anchor="start" x="171" y="-18.5" font-family="Helvetica,sans-Serif" font-size="10.00" fill="#000000">mom_coms::reproducing</text>
<text text-anchor="middle" x="225" y="-7.5" font-family="Helvetica,sans-Serif" font-size="10.00" fill="#000000">_sum_3d</text>
</a>
</g>
</g>
<!-- Node1&#45;&gt;Node6 -->
<g id="edge5" class="edge">
<title>Node1&#45;&gt;Node6</title>
<path fill="none" stroke="#191970" d="M349.1816,-52.0459C326.9414,-45.5008 299.5128,-37.4287 276.095,-30.537"/>
<polygon fill="#191970" stroke="#191970" points="348.4205,-55.4703 359.0019,-54.936 350.3968,-48.7551 348.4205,-55.4703"/>
</g>
<!-- Node3 -->
<g id="node3" class="node">
<title>Node3</title>
<g id="a_node3"><a xlink:href="namespacemom__coms.html#a6cbcab29d87b134dcd5c4bdb922b4344" target="_top" xlink:title="This subroutine does a sum across PEs of a list of EFP variables, returning the sums in place,...">
<polygon fill="#ffffff" stroke="#000000" points="11,-115.5 11,-145.5 116,-145.5 116,-115.5 11,-115.5"/>
<text text-anchor="start" x="19" y="-133.5" font-family="Helvetica,sans-Serif" font-size="10.00" fill="#000000">mom_coms::efp_list</text>
<text text-anchor="middle" x="63.5" y="-122.5" font-family="Helvetica,sans-Serif" font-size="10.00" fill="#000000">_sum_across_pes</text>
</a>
</g>
</g>
<!-- Node2&#45;&gt;Node3 -->
<g id="edge2" class="edge">
<title>Node2&#45;&gt;Node3</title>
<path fill="none" stroke="#191970" d="M153.878,-118.1884C141.2109,-119.914 128.2231,-121.6832 116.1856,-123.323"/>
<polygon fill="#191970" stroke="#191970" points="154.5077,-121.6351 163.9438,-116.8173 153.5628,-114.6991 154.5077,-121.6351"/>
</g>
<!-- Node4 -->
<g id="node4" class="node">
<title>Node4</title>
<g id="a_node4"><a xlink:href="namespacemom__coms.html#a8f23ba3eaaf03101afa61c339fac805b" target="_top" xlink:title="Take the difference between two extended&#45;fixed&#45;point numbers (EFP1 &#45; EFP2) and return the result as a...">
<polygon fill="#ffffff" stroke="#000000" points="0,-77 0,-96 127,-96 127,-77 0,-77"/>
<text text-anchor="middle" x="63.5" y="-84" font-family="Helvetica,sans-Serif" font-size="10.00" fill="#000000">mom_coms::efp_real_diff</text>
</a>
</g>
</g>
<!-- Node2&#45;&gt;Node4 -->
<g id="edge3" class="edge">
<title>Node2&#45;&gt;Node4</title>
<path fill="none" stroke="#191970" d="M153.9357,-98.8194C144.9897,-97.6008 135.8829,-96.3602 127.0628,-95.1587"/>
<polygon fill="#191970" stroke="#191970" points="153.5628,-102.3009 163.9438,-100.1827 154.5077,-95.3649 153.5628,-102.3009"/>
</g>
</g>
</svg>
