<?xml version="1.0" encoding="UTF-8" standalone="no"?>
<!DOCTYPE svg PUBLIC "-//W3C//DTD SVG 1.1//EN"
 "http://www.w3.org/Graphics/SVG/1.1/DTD/svg11.dtd">
<!-- Generated by graphviz version 2.40.1 (20161225.0304)
 -->
<!-- Title: mom_eos::eos_init Pages: 1 -->
<svg width="405pt" height="176pt"
 viewBox="0.00 0.00 405.00 175.50" xmlns="http://www.w3.org/2000/svg" xmlns:xlink="http://www.w3.org/1999/xlink">
<g id="graph0" class="graph" transform="scale(1 1) rotate(0) translate(4 171.5)">
<title>mom_eos::eos_init</title>
<polygon fill="#ffffff" stroke="transparent" points="-4,4 -4,-171.5 401,-171.5 401,4 -4,4"/>
<!-- Node1 -->
<g id="node1" class="node">
<title>Node1</title>
<g id="a_node1"><a xlink:title="Initializes EOS_type by allocating and reading parameters.">
<polygon fill="#bfbfbf" stroke="#000000" points="0,-79 0,-98 99,-98 99,-79 0,-79"/>
<text text-anchor="middle" x="49.5" y="-86" font-family="Helvetica,sans-Serif" font-size="10.00" fill="#000000">mom_eos::eos_init</text>
</a>
</g>
</g>
<!-- Node2 -->
<g id="node2" class="node">
<title>Node2</title>
<g id="a_node2"><a xlink:href="namespacemom__eos.html#a1108fb5de7a69d01746df3995f7e3f0d" target="_top" xlink:title="Allocates EOS_type.">
<polygon fill="#ffffff" stroke="#000000" points="135,-148 135,-167 255,-167 255,-148 135,-148"/>
<text text-anchor="middle" x="195" y="-155" font-family="Helvetica,sans-Serif" font-size="10.00" fill="#000000">mom_eos::eos_allocate</text>
</a>
</g>
</g>
<!-- Node1&#45;&gt;Node2 -->
<g id="edge1" class="edge">
<title>Node1&#45;&gt;Node2</title>
<path fill="none" stroke="#191970" d="M63.5038,-98.0064C80.0266,-108.906 108.5977,-126.7752 135,-138.5 139.993,-140.7173 145.3245,-142.7933 150.6717,-144.6985"/>
<polygon fill="#191970" stroke="#191970" points="149.6497,-148.0476 160.244,-147.9373 151.8932,-141.4169 149.6497,-148.0476"/>
</g>
<!-- Node3 -->
<g id="node3" class="node">
<title>Node3</title>
<g id="a_node3"><a xlink:href="namespacemom__error__handler.html#a460cfb79a06c29fc249952c2a3710d67" target="_top" xlink:title="This provides a convenient interface for writing an mpp_error message with run&#45;time filter based on a...">
<polygon fill="#ffffff" stroke="#000000" points="142,-98.5 142,-128.5 248,-128.5 248,-98.5 142,-98.5"/>
<text text-anchor="start" x="150" y="-116.5" font-family="Helvetica,sans-Serif" font-size="10.00" fill="#000000">mom_error_handler::</text>
<text text-anchor="middle" x="195" y="-105.5" font-family="Helvetica,sans-Serif" font-size="10.00" fill="#000000">mom_error</text>
</a>
</g>
</g>
<!-- Node1&#45;&gt;Node3 -->
<g id="edge2" class="edge">
<title>Node1&#45;&gt;Node3</title>
<path fill="none" stroke="#191970" d="M99.1659,-97.0337C109.6919,-98.8422 120.9371,-100.7744 131.886,-102.6557"/>
<polygon fill="#191970" stroke="#191970" points="131.3803,-106.12 141.8286,-104.364 132.5657,-99.2211 131.3803,-106.12"/>
</g>
<!-- Node5 -->
<g id="node5" class="node">
<title>Node5</title>
<g id="a_node5"><a xlink:href="namespacemom__error__handler.html#a1c462df7b61f1296407b4af51dfeceab" target="_top" xlink:title="This provides a convenient interface for writing an informative comment.">
<polygon fill="#ffffff" stroke="#000000" points="142,-49.5 142,-79.5 248,-79.5 248,-49.5 142,-49.5"/>
<text text-anchor="start" x="150" y="-67.5" font-family="Helvetica,sans-Serif" font-size="10.00" fill="#000000">mom_error_handler::</text>
<text text-anchor="middle" x="195" y="-56.5" font-family="Helvetica,sans-Serif" font-size="10.00" fill="#000000">mom_mesg</text>
</a>
</g>
</g>
<!-- Node1&#45;&gt;Node5 -->
<g id="edge4" class="edge">
<title>Node1&#45;&gt;Node5</title>
<path fill="none" stroke="#191970" d="M99.1659,-80.3077C109.6919,-78.5714 120.9371,-76.7166 131.886,-74.9106"/>
<polygon fill="#191970" stroke="#191970" points="132.5316,-78.3515 141.8286,-73.2705 131.3923,-71.4448 132.5316,-78.3515"/>
</g>
<!-- Node6 -->
<g id="node6" class="node">
<title>Node6</title>
<g id="a_node6"><a xlink:href="namespacemom__string__functions.html#aca148baf726de2f028b7e7baad3c85d4" target="_top" xlink:title="Return a string in which all uppercase letters have been replaced by their lowercase counterparts.">
<polygon fill="#ffffff" stroke="#000000" points="138.5,-.5 138.5,-30.5 251.5,-30.5 251.5,-.5 138.5,-.5"/>
<text text-anchor="start" x="146.5" y="-18.5" font-family="Helvetica,sans-Serif" font-size="10.00" fill="#000000">mom_string_functions</text>
<text text-anchor="middle" x="195" y="-7.5" font-family="Helvetica,sans-Serif" font-size="10.00" fill="#000000">::uppercase</text>
</a>
</g>
</g>
<!-- Node1&#45;&gt;Node6 -->
<g id="edge6" class="edge">
<title>Node1&#45;&gt;Node6</title>
<path fill="none" stroke="#191970" d="M65.2759,-78.9082C82.2121,-68.7863 110.0533,-52.6484 135,-40.5 139.0472,-38.5291 143.2899,-36.5655 147.569,-34.6546"/>
<polygon fill="#191970" stroke="#191970" points="149.1641,-37.7774 156.9329,-30.5734 146.3673,-31.3604 149.1641,-37.7774"/>
</g>
<!-- Node4 -->
<g id="node4" class="node">
<title>Node4</title>
<g id="a_node4"><a xlink:href="namespacemom__error__handler.html#ad5f00a53059c72fe2332d1436c80ca71" target="_top" xlink:title="This returns .true. if the current PE is the root PE.">
<polygon fill="#ffffff" stroke="#000000" points="291,-73.5 291,-103.5 397,-103.5 397,-73.5 291,-73.5"/>
<text text-anchor="start" x="299" y="-91.5" font-family="Helvetica,sans-Serif" font-size="10.00" fill="#000000">mom_error_handler::</text>
<text text-anchor="middle" x="344" y="-80.5" font-family="Helvetica,sans-Serif" font-size="10.00" fill="#000000">is_root_pe</text>
</a>
</g>
</g>
<!-- Node3&#45;&gt;Node4 -->
<g id="edge3" class="edge">
<title>Node3&#45;&gt;Node4</title>
<path fill="none" stroke="#191970" d="M248.3716,-104.545C258.8128,-102.7932 269.8577,-100.94 280.5886,-99.1395"/>
<polygon fill="#191970" stroke="#191970" points="281.4678,-102.541 290.7508,-97.4344 280.3095,-95.6375 281.4678,-102.541"/>
</g>
<!-- Node5&#45;&gt;Node4 -->
<g id="edge5" class="edge">
<title>Node5&#45;&gt;Node4</title>
<path fill="none" stroke="#191970" d="M248.3716,-73.0968C258.8128,-74.7786 269.8577,-76.5576 280.5886,-78.2861"/>
<polygon fill="#191970" stroke="#191970" points="280.3214,-81.7881 290.7508,-79.9229 281.4347,-74.8772 280.3214,-81.7881"/>
</g>
</g>
</svg>
