<?xml version="1.0" encoding="UTF-8" standalone="no"?>
<!DOCTYPE svg PUBLIC "-//W3C//DTD SVG 1.1//EN"
 "http://www.w3.org/Graphics/SVG/1.1/DTD/svg11.dtd">
<!-- Generated by graphviz version 2.40.1 (20161225.0304)
 -->
<!-- Title: mom_eos::int_density_dz_generic_ppm Pages: 1 -->
<svg width="488pt" height="137pt"
 viewBox="0.00 0.00 488.00 137.00" xmlns="http://www.w3.org/2000/svg" xmlns:xlink="http://www.w3.org/1999/xlink">
<g id="graph0" class="graph" transform="scale(1 1) rotate(0) translate(4 133)">
<title>mom_eos::int_density_dz_generic_ppm</title>
<polygon fill="#ffffff" stroke="transparent" points="-4,4 -4,-133 484,-133 484,4 -4,4"/>
<!-- Node1 -->
<g id="node1" class="node">
<title>Node1</title>
<g id="a_node1"><a xlink:title="Compute pressure gradient force integrals for the case where T and S are parabolic profiles.">
<polygon fill="#bfbfbf" stroke="#000000" points="0,-24.5 0,-54.5 118,-54.5 118,-24.5 0,-24.5"/>
<text text-anchor="start" x="8" y="-42.5" font-family="Helvetica,sans-Serif" font-size="10.00" fill="#000000">mom_eos::int_density</text>
<text text-anchor="middle" x="59" y="-31.5" font-family="Helvetica,sans-Serif" font-size="10.00" fill="#000000">_dz_generic_ppm</text>
</a>
</g>
</g>
<!-- Node2 -->
<g id="node2" class="node">
<title>Node2</title>
<g id="a_node2"><a xlink:href="namespacemom__eos.html#ab9ad774110cfa4cb44666592ddcf689c" target="_top" xlink:title="Compute the integral of the quadratic function.">
<polygon fill="#ffffff" stroke="#000000" points="154,-49.5 154,-79.5 302,-79.5 302,-49.5 154,-49.5"/>
<text text-anchor="start" x="162" y="-67.5" font-family="Helvetica,sans-Serif" font-size="10.00" fill="#000000">mom_eos::compute_integral</text>
<text text-anchor="middle" x="228" y="-56.5" font-family="Helvetica,sans-Serif" font-size="10.00" fill="#000000">_quadratic</text>
</a>
</g>
</g>
<!-- Node1&#45;&gt;Node2 -->
<g id="edge1" class="edge">
<title>Node1&#45;&gt;Node2</title>
<path fill="none" stroke="#191970" d="M118.108,-48.2438C126.3861,-49.4684 135.0227,-50.746 143.657,-52.0232"/>
<polygon fill="#191970" stroke="#191970" points="143.3658,-55.5182 153.7704,-53.5193 144.3903,-48.5935 143.3658,-55.5182"/>
</g>
<!-- Node5 -->
<g id="node5" class="node">
<title>Node5</title>
<g id="a_node5"><a xlink:href="namespacemom__error__handler.html#a460cfb79a06c29fc249952c2a3710d67" target="_top" xlink:title="This provides a convenient interface for writing an mpp_error message with run&#45;time filter based on a...">
<polygon fill="#ffffff" stroke="#000000" points="170.5,-.5 170.5,-30.5 285.5,-30.5 285.5,-.5 170.5,-.5"/>
<text text-anchor="start" x="178.5" y="-18.5" font-family="Helvetica,sans-Serif" font-size="10.00" fill="#000000">mom_error_handler::</text>
<text text-anchor="middle" x="228" y="-7.5" font-family="Helvetica,sans-Serif" font-size="10.00" fill="#000000">mom_error</text>
</a>
</g>
</g>
<!-- Node1&#45;&gt;Node5 -->
<g id="edge4" class="edge">
<title>Node1&#45;&gt;Node5</title>
<path fill="none" stroke="#191970" d="M118.108,-31.106C131.7418,-29.1698 146.3477,-27.0956 160.315,-25.1121"/>
<polygon fill="#191970" stroke="#191970" points="160.9408,-28.5584 170.3494,-23.6871 159.9566,-21.6279 160.9408,-28.5584"/>
</g>
<!-- Node3 -->
<g id="node3" class="node">
<title>Node3</title>
<g id="a_node3"><a xlink:href="namespacemom__eos.html#ad8afb464fcc660fccfcbd9c06a43f16c" target="_top" xlink:title="Evaluation of the four bilinear shape fn and their gradients at (xi,eta)">
<polygon fill="#ffffff" stroke="#000000" points="338,-98.5 338,-128.5 480,-128.5 480,-98.5 338,-98.5"/>
<text text-anchor="start" x="346" y="-116.5" font-family="Helvetica,sans-Serif" font-size="10.00" fill="#000000">mom_eos::evaluate_shape</text>
<text text-anchor="middle" x="409" y="-105.5" font-family="Helvetica,sans-Serif" font-size="10.00" fill="#000000">_bilinear</text>
</a>
</g>
</g>
<!-- Node2&#45;&gt;Node3 -->
<g id="edge2" class="edge">
<title>Node2&#45;&gt;Node3</title>
<path fill="none" stroke="#191970" d="M283.7829,-79.6014C302.7098,-84.7253 324.0245,-90.4956 343.6303,-95.8032"/>
<polygon fill="#191970" stroke="#191970" points="342.8342,-99.2136 353.4013,-98.4484 344.6634,-92.4568 342.8342,-99.2136"/>
</g>
<!-- Node4 -->
<g id="node4" class="node">
<title>Node4</title>
<g id="a_node4"><a xlink:href="namespacemom__eos.html#a1a3fa05803a4d99491afcb8341949287" target="_top" xlink:title="Evaluation of the nine quadratic shape fn weights and their gradients at (xi,eta)">
<polygon fill="#ffffff" stroke="#000000" points="338,-49.5 338,-79.5 480,-79.5 480,-49.5 338,-49.5"/>
<text text-anchor="start" x="346" y="-67.5" font-family="Helvetica,sans-Serif" font-size="10.00" fill="#000000">mom_eos::evaluate_shape</text>
<text text-anchor="middle" x="409" y="-56.5" font-family="Helvetica,sans-Serif" font-size="10.00" fill="#000000">_quadratic</text>
</a>
</g>
</g>
<!-- Node2&#45;&gt;Node4 -->
<g id="edge3" class="edge">
<title>Node2&#45;&gt;Node4</title>
<path fill="none" stroke="#191970" d="M302.1419,-64.5C310.5402,-64.5 319.1329,-64.5 327.6176,-64.5"/>
<polygon fill="#191970" stroke="#191970" points="327.8933,-68.0001 337.8932,-64.5 327.8932,-61.0001 327.8933,-68.0001"/>
</g>
<!-- Node6 -->
<g id="node6" class="node">
<title>Node6</title>
<g id="a_node6"><a xlink:href="namespacemom__error__handler.html#ad5f00a53059c72fe2332d1436c80ca71" target="_top" xlink:title="This returns .true. if the current PE is the root PE.">
<polygon fill="#ffffff" stroke="#000000" points="351.5,-.5 351.5,-30.5 466.5,-30.5 466.5,-.5 351.5,-.5"/>
<text text-anchor="start" x="359.5" y="-18.5" font-family="Helvetica,sans-Serif" font-size="10.00" fill="#000000">mom_error_handler::</text>
<text text-anchor="middle" x="409" y="-7.5" font-family="Helvetica,sans-Serif" font-size="10.00" fill="#000000">is_root_pe</text>
</a>
</g>
</g>
<!-- Node5&#45;&gt;Node6 -->
<g id="edge5" class="edge">
<title>Node5&#45;&gt;Node6</title>
<path fill="none" stroke="#191970" d="M285.7672,-15.5C303.4877,-15.5 323.1434,-15.5 341.4562,-15.5"/>
<polygon fill="#191970" stroke="#191970" points="341.4711,-19.0001 351.4711,-15.5 341.471,-12.0001 341.4711,-19.0001"/>
</g>
</g>
</svg>
