<?xml version="1.0" encoding="UTF-8" standalone="no"?>
<!DOCTYPE svg PUBLIC "-//W3C//DTD SVG 1.1//EN"
 "http://www.w3.org/Graphics/SVG/1.1/DTD/svg11.dtd">
<!-- Generated by graphviz version 2.40.1 (20161225.0304)
 -->
<!-- Title: mom_pressureforce_blk_afv::pressureforce_blk_afv_nonbouss Pages: 1 -->
<svg width="437pt" height="137pt"
 viewBox="0.00 0.00 437.00 137.00" xmlns="http://www.w3.org/2000/svg" xmlns:xlink="http://www.w3.org/1999/xlink">
<g id="graph0" class="graph" transform="scale(1 1) rotate(0) translate(4 133)">
<title>mom_pressureforce_blk_afv::pressureforce_blk_afv_nonbouss</title>
<polygon fill="#ffffff" stroke="transparent" points="-4,4 -4,-133 433,-133 433,4 -4,4"/>
<!-- Node1 -->
<g id="node1" class="node">
<title>Node1</title>
<g id="a_node1"><a xlink:title="Non&#45;Boussinesq analytically&#45;integrated finite volume form of pressure gradient.">
<polygon fill="#bfbfbf" stroke="#000000" points="0,-44 0,-85 121,-85 121,-44 0,-44"/>
<text text-anchor="start" x="8" y="-73" font-family="Helvetica,sans-Serif" font-size="10.00" fill="#000000">mom_pressureforce_blk</text>
<text text-anchor="start" x="8" y="-62" font-family="Helvetica,sans-Serif" font-size="10.00" fill="#000000">_afv::pressureforce_blk</text>
<text text-anchor="middle" x="60.5" y="-51" font-family="Helvetica,sans-Serif" font-size="10.00" fill="#000000">_afv_nonbouss</text>
</a>
</g>
</g>
<!-- Node2 -->
<g id="node2" class="node">
<title>Node2</title>
<g id="a_node2"><a xlink:href="namespacemom__tidal__forcing.html#a9614ae35fac1d880d5daacbd60f3d47a" target="_top" xlink:title="This subroutine calculates the geopotential anomalies that drive the tides, including self&#45;attraction...">
<polygon fill="#ffffff" stroke="#000000" points="171,-98.5 171,-128.5 273,-128.5 273,-98.5 171,-98.5"/>
<text text-anchor="start" x="179" y="-116.5" font-family="Helvetica,sans-Serif" font-size="10.00" fill="#000000">mom_tidal_forcing::</text>
<text text-anchor="middle" x="222" y="-105.5" font-family="Helvetica,sans-Serif" font-size="10.00" fill="#000000">calc_tidal_forcing</text>
</a>
</g>
</g>
<!-- Node1&#45;&gt;Node2 -->
<g id="edge1" class="edge">
<title>Node1&#45;&gt;Node2</title>
<path fill="none" stroke="#191970" d="M121.0961,-82.8852C134.7085,-87.0153 149.1371,-91.393 162.6961,-95.5069"/>
<polygon fill="#191970" stroke="#191970" points="161.8058,-98.8942 172.3912,-98.4484 163.8382,-92.1958 161.8058,-98.8942"/>
</g>
<!-- Node3 -->
<g id="node3" class="node">
<title>Node3</title>
<g id="a_node3"><a xlink:href="namespacemom__error__handler.html#a460cfb79a06c29fc249952c2a3710d67" target="_top" xlink:title="This provides a convenient interface for writing an mpp_error message with run&#45;time filter based on a...">
<polygon fill="#ffffff" stroke="#000000" points="169,-49.5 169,-79.5 275,-79.5 275,-49.5 169,-49.5"/>
<text text-anchor="start" x="177" y="-67.5" font-family="Helvetica,sans-Serif" font-size="10.00" fill="#000000">mom_error_handler::</text>
<text text-anchor="middle" x="222" y="-56.5" font-family="Helvetica,sans-Serif" font-size="10.00" fill="#000000">mom_error</text>
</a>
</g>
</g>
<!-- Node1&#45;&gt;Node3 -->
<g id="edge2" class="edge">
<title>Node1&#45;&gt;Node3</title>
<path fill="none" stroke="#191970" d="M121.0961,-64.5C133.3331,-64.5 146.2297,-64.5 158.5611,-64.5"/>
<polygon fill="#191970" stroke="#191970" points="158.7597,-68.0001 168.7596,-64.5 158.7596,-61.0001 158.7597,-68.0001"/>
</g>
<!-- Node5 -->
<g id="node5" class="node">
<title>Node5</title>
<g id="a_node5"><a xlink:href="namespacemom__pressureforce__mont.html#a297cdf6e4eb83d250444c5f527a8a232" target="_top" xlink:title="Determines the partial derivative of the acceleration due to pressure forces with the column mass.">
<polygon fill="#ffffff" stroke="#000000" points="157,-.5 157,-30.5 287,-30.5 287,-.5 157,-.5"/>
<text text-anchor="start" x="165" y="-18.5" font-family="Helvetica,sans-Serif" font-size="10.00" fill="#000000">mom_pressureforce_mont</text>
<text text-anchor="middle" x="222" y="-7.5" font-family="Helvetica,sans-Serif" font-size="10.00" fill="#000000">::set_pbce_nonbouss</text>
</a>
</g>
</g>
<!-- Node1&#45;&gt;Node5 -->
<g id="edge4" class="edge">
<title>Node1&#45;&gt;Node5</title>
<path fill="none" stroke="#191970" d="M121.0961,-46.1148C134.7085,-41.9847 149.1371,-37.607 162.6961,-33.4931"/>
<polygon fill="#191970" stroke="#191970" points="163.8382,-36.8042 172.3912,-30.5516 161.8058,-30.1058 163.8382,-36.8042"/>
</g>
<!-- Node4 -->
<g id="node4" class="node">
<title>Node4</title>
<g id="a_node4"><a xlink:href="namespacemom__error__handler.html#ad5f00a53059c72fe2332d1436c80ca71" target="_top" xlink:title="This returns .true. if the current PE is the root PE.">
<polygon fill="#ffffff" stroke="#000000" points="323,-49.5 323,-79.5 429,-79.5 429,-49.5 323,-49.5"/>
<text text-anchor="start" x="331" y="-67.5" font-family="Helvetica,sans-Serif" font-size="10.00" fill="#000000">mom_error_handler::</text>
<text text-anchor="middle" x="376" y="-56.5" font-family="Helvetica,sans-Serif" font-size="10.00" fill="#000000">is_root_pe</text>
</a>
</g>
</g>
<!-- Node3&#45;&gt;Node4 -->
<g id="edge3" class="edge">
<title>Node3&#45;&gt;Node4</title>
<path fill="none" stroke="#191970" d="M275.4295,-64.5C287.4424,-64.5 300.3024,-64.5 312.6756,-64.5"/>
<polygon fill="#191970" stroke="#191970" points="312.9253,-68.0001 322.9253,-64.5 312.9253,-61.0001 312.9253,-68.0001"/>
</g>
</g>
</svg>
