<?xml version="1.0" encoding="UTF-8" standalone="no"?>
<!DOCTYPE svg PUBLIC "-//W3C//DTD SVG 1.1//EN"
 "http://www.w3.org/Graphics/SVG/1.1/DTD/svg11.dtd">
<!-- Generated by graphviz version 2.40.1 (20161225.0304)
 -->
<!-- Title: mom_surface_forcing_mct::convert_iob_to_forces Pages: 1 -->
<svg width="622pt" height="88pt"
 viewBox="0.00 0.00 622.00 88.00" xmlns="http://www.w3.org/2000/svg" xmlns:xlink="http://www.w3.org/1999/xlink">
<g id="graph0" class="graph" transform="scale(1 1) rotate(0) translate(4 84)">
<title>mom_surface_forcing_mct::convert_iob_to_forces</title>
<polygon fill="#ffffff" stroke="transparent" points="-4,4 -4,-84 618,-84 618,4 -4,4"/>
<!-- Node1 -->
<g id="node1" class="node">
<title>Node1</title>
<g id="a_node1"><a xlink:title="This subroutine translates the Ice_ocean_boundary_type into a MOM mechanical forcing type,...">
<polygon fill="#bfbfbf" stroke="#000000" points="0,-19 0,-60 110,-60 110,-19 0,-19"/>
<text text-anchor="start" x="8" y="-48" font-family="Helvetica,sans-Serif" font-size="10.00" fill="#000000">mom_surface_forcing</text>
<text text-anchor="start" x="8" y="-37" font-family="Helvetica,sans-Serif" font-size="10.00" fill="#000000">_mct::convert_iob_to</text>
<text text-anchor="middle" x="55" y="-26" font-family="Helvetica,sans-Serif" font-size="10.00" fill="#000000">_forces</text>
</a>
</g>
</g>
<!-- Node2 -->
<g id="node2" class="node">
<title>Node2</title>
<g id="a_node2"><a xlink:href="namespacemom__forcing__type.html#a7a9bb1457a8615a3e0b6e38f8d3e32bf" target="_top" xlink:title="Conditionally allocate fields within the mechanical forcing type.">
<polygon fill="#ffffff" stroke="#000000" points="154,-49.5 154,-79.5 291,-79.5 291,-49.5 154,-49.5"/>
<text text-anchor="start" x="162" y="-67.5" font-family="Helvetica,sans-Serif" font-size="10.00" fill="#000000">mom_forcing_type::allocate</text>
<text text-anchor="middle" x="222.5" y="-56.5" font-family="Helvetica,sans-Serif" font-size="10.00" fill="#000000">_mech_forcing</text>
</a>
</g>
</g>
<!-- Node1&#45;&gt;Node2 -->
<g id="edge1" class="edge">
<title>Node1&#45;&gt;Node2</title>
<path fill="none" stroke="#191970" d="M110.31,-47.7552C121.0704,-49.3613 132.5416,-51.0734 143.8867,-52.7667"/>
<polygon fill="#191970" stroke="#191970" points="143.3959,-56.2321 153.803,-54.2467 144.4293,-49.3088 143.3959,-56.2321"/>
</g>
<!-- Node4 -->
<g id="node4" class="node">
<title>Node4</title>
<g id="a_node4"><a xlink:href="namespacemom__surface__forcing__mct.html#abff1c938478d1019db4bea94ddc847a9" target="_top" xlink:title="Adds mechanical forcing adjustments obtained via data_override Component name is &#39;OCN&#39; Available adju...">
<polygon fill="#ffffff" stroke="#000000" points="146,-.5 146,-30.5 299,-30.5 299,-.5 146,-.5"/>
<text text-anchor="start" x="154" y="-18.5" font-family="Helvetica,sans-Serif" font-size="10.00" fill="#000000">mom_surface_forcing</text>
<text text-anchor="middle" x="222.5" y="-7.5" font-family="Helvetica,sans-Serif" font-size="10.00" fill="#000000">_mct::apply_force_adjustments</text>
</a>
</g>
</g>
<!-- Node1&#45;&gt;Node4 -->
<g id="edge3" class="edge">
<title>Node1&#45;&gt;Node4</title>
<path fill="none" stroke="#191970" d="M110.31,-31.575C118.4603,-30.4072 127.0185,-29.1809 135.6207,-27.9484"/>
<polygon fill="#191970" stroke="#191970" points="136.315,-31.3847 145.7174,-26.5017 135.3221,-24.4555 136.315,-31.3847"/>
</g>
<!-- Node3 -->
<g id="node3" class="node">
<title>Node3</title>
<g id="a_node3"><a xlink:href="namespacemom__forcing__type.html#aa9a495456715378fe3dd5fb2bd21eec8" target="_top" xlink:title="Allocates and zeroes&#45;out array.">
<polygon fill="#ffffff" stroke="#000000" points="335,-55 335,-74 472,-74 472,-55 335,-55"/>
<text text-anchor="middle" x="403.5" y="-62" font-family="Helvetica,sans-Serif" font-size="10.00" fill="#000000">mom_forcing_type::myalloc</text>
</a>
</g>
</g>
<!-- Node2&#45;&gt;Node3 -->
<g id="edge2" class="edge">
<title>Node2&#45;&gt;Node3</title>
<path fill="none" stroke="#191970" d="M291.1864,-64.5C302.1356,-64.5 313.5378,-64.5 324.6986,-64.5"/>
<polygon fill="#191970" stroke="#191970" points="324.8605,-68.0001 334.8605,-64.5 324.8604,-61.0001 324.8605,-68.0001"/>
</g>
<!-- Node5 -->
<g id="node5" class="node">
<title>Node5</title>
<g id="a_node5"><a xlink:href="namespacemom__error__handler.html#a460cfb79a06c29fc249952c2a3710d67" target="_top" xlink:title="This provides a convenient interface for writing an mpp_error message with run&#45;time filter based on a...">
<polygon fill="#ffffff" stroke="#000000" points="350.5,-.5 350.5,-30.5 456.5,-30.5 456.5,-.5 350.5,-.5"/>
<text text-anchor="start" x="358.5" y="-18.5" font-family="Helvetica,sans-Serif" font-size="10.00" fill="#000000">mom_error_handler::</text>
<text text-anchor="middle" x="403.5" y="-7.5" font-family="Helvetica,sans-Serif" font-size="10.00" fill="#000000">mom_error</text>
</a>
</g>
</g>
<!-- Node4&#45;&gt;Node5 -->
<g id="edge4" class="edge">
<title>Node4&#45;&gt;Node5</title>
<path fill="none" stroke="#191970" d="M299.2603,-15.5C312.8691,-15.5 326.9022,-15.5 340.09,-15.5"/>
<polygon fill="#191970" stroke="#191970" points="340.4609,-19.0001 350.4608,-15.5 340.4608,-12.0001 340.4609,-19.0001"/>
</g>
<!-- Node6 -->
<g id="node6" class="node">
<title>Node6</title>
<g id="a_node6"><a xlink:href="namespacemom__error__handler.html#ad5f00a53059c72fe2332d1436c80ca71" target="_top" xlink:title="This returns .true. if the current PE is the root PE.">
<polygon fill="#ffffff" stroke="#000000" points="508,-.5 508,-30.5 614,-30.5 614,-.5 508,-.5"/>
<text text-anchor="start" x="516" y="-18.5" font-family="Helvetica,sans-Serif" font-size="10.00" fill="#000000">mom_error_handler::</text>
<text text-anchor="middle" x="561" y="-7.5" font-family="Helvetica,sans-Serif" font-size="10.00" fill="#000000">is_root_pe</text>
</a>
</g>
</g>
<!-- Node5&#45;&gt;Node6 -->
<g id="edge5" class="edge">
<title>Node5&#45;&gt;Node6</title>
<path fill="none" stroke="#191970" d="M456.8223,-15.5C469.9074,-15.5 484.0418,-15.5 497.5513,-15.5"/>
<polygon fill="#191970" stroke="#191970" points="497.7326,-19.0001 507.7326,-15.5 497.7326,-12.0001 497.7326,-19.0001"/>
</g>
</g>
</svg>
