<?xml version="1.0" encoding="UTF-8" standalone="no"?>
<!DOCTYPE svg PUBLIC "-//W3C//DTD SVG 1.1//EN"
 "http://www.w3.org/Graphics/SVG/1.1/DTD/svg11.dtd">
<!-- Generated by graphviz version 2.40.1 (20161225.0304)
 -->
<!-- Title: mom_forcing_type::calculatebuoyancyflux2d Pages: 1 -->
<svg width="1003pt" height="83pt"
 viewBox="0.00 0.00 1003.00 83.00" xmlns="http://www.w3.org/2000/svg" xmlns:xlink="http://www.w3.org/1999/xlink">
<g id="graph0" class="graph" transform="scale(1 1) rotate(0) translate(4 79)">
<title>mom_forcing_type::calculatebuoyancyflux2d</title>
<polygon fill="#ffffff" stroke="transparent" points="-4,4 -4,-79 999,-79 999,4 -4,4"/>
<!-- Node1 -->
<g id="node1" class="node">
<title>Node1</title>
<g id="a_node1"><a xlink:title="Calculates surface buoyancy flux by adding up the heat, FW and salt fluxes, for 2d arrays....">
<polygon fill="#bfbfbf" stroke="#000000" points="0,-28 0,-47 221,-47 221,-28 0,-28"/>
<text text-anchor="middle" x="110.5" y="-35" font-family="Helvetica,sans-Serif" font-size="10.00" fill="#000000">mom_forcing_type::calculatebuoyancyflux2d</text>
</a>
</g>
</g>
<!-- Node2 -->
<g id="node2" class="node">
<title>Node2</title>
<g id="a_node2"><a xlink:href="namespacemom__forcing__type.html#ad0077a3179748ec1ff1b81348f4aca92" target="_top" xlink:title="This routine calculates surface buoyancy flux by adding up the heat, FW &amp; salt fluxes....">
<polygon fill="#ffffff" stroke="#000000" points="257,-28 257,-47 478,-47 478,-28 257,-28"/>
<text text-anchor="middle" x="367.5" y="-35" font-family="Helvetica,sans-Serif" font-size="10.00" fill="#000000">mom_forcing_type::calculatebuoyancyflux1d</text>
</a>
</g>
</g>
<!-- Node1&#45;&gt;Node2 -->
<g id="edge1" class="edge">
<title>Node1&#45;&gt;Node2</title>
<path fill="none" stroke="#191970" d="M221.3559,-37.5C229.662,-37.5 238.0684,-37.5 246.4327,-37.5"/>
<polygon fill="#191970" stroke="#191970" points="246.6048,-41.0001 256.6048,-37.5 246.6047,-34.0001 246.6048,-41.0001"/>
</g>
<!-- Node3 -->
<g id="node3" class="node">
<title>Node3</title>
<g id="a_node3"><a xlink:href="namespacemom__forcing__type.html#ae53ab527ce199e239f6079e422ec70c8" target="_top" xlink:title="This subroutine extracts fluxes from the surface fluxes type. It works on a j&#45;row for optimization pu...">
<polygon fill="#ffffff" stroke="#000000" points="514,-50 514,-69 693,-69 693,-50 514,-50"/>
<text text-anchor="middle" x="603.5" y="-57" font-family="Helvetica,sans-Serif" font-size="10.00" fill="#000000">mom_forcing_type::extractfluxes1d</text>
</a>
</g>
</g>
<!-- Node2&#45;&gt;Node3 -->
<g id="edge2" class="edge">
<title>Node2&#45;&gt;Node3</title>
<path fill="none" stroke="#191970" d="M469.6404,-47.0216C480.8949,-48.0707 492.3454,-49.1381 503.5723,-50.1847"/>
<polygon fill="#191970" stroke="#191970" points="503.5261,-53.6955 513.8079,-51.1389 504.1759,-46.7257 503.5261,-53.6955"/>
</g>
<!-- Node6 -->
<g id="node6" class="node">
<title>Node6</title>
<g id="a_node6"><a xlink:href="namespacemom__shortwave__abs.html#a8a1184c3f836d0900dfd5fa587cfb879" target="_top" xlink:title=" ">
<polygon fill="#ffffff" stroke="#000000" points="543,-.5 543,-30.5 664,-30.5 664,-.5 543,-.5"/>
<text text-anchor="start" x="551" y="-18.5" font-family="Helvetica,sans-Serif" font-size="10.00" fill="#000000">mom_shortwave_abs::</text>
<text text-anchor="middle" x="603.5" y="-7.5" font-family="Helvetica,sans-Serif" font-size="10.00" fill="#000000">sumswoverbands</text>
</a>
</g>
</g>
<!-- Node2&#45;&gt;Node6 -->
<g id="edge5" class="edge">
<title>Node2&#45;&gt;Node6</title>
<path fill="none" stroke="#191970" d="M469.6404,-27.9784C490.8569,-26.0006 512.77,-23.9579 532.5687,-22.1122"/>
<polygon fill="#191970" stroke="#191970" points="533.0826,-25.5796 542.7146,-21.1664 532.4328,-18.6098 533.0826,-25.5796"/>
</g>
<!-- Node4 -->
<g id="node4" class="node">
<title>Node4</title>
<g id="a_node4"><a xlink:href="namespacemom__error__handler.html#a460cfb79a06c29fc249952c2a3710d67" target="_top" xlink:title="This provides a convenient interface for writing an mpp_error message with run&#45;time filter based on a...">
<polygon fill="#ffffff" stroke="#000000" points="729,-44.5 729,-74.5 844,-74.5 844,-44.5 729,-44.5"/>
<text text-anchor="start" x="737" y="-62.5" font-family="Helvetica,sans-Serif" font-size="10.00" fill="#000000">mom_error_handler::</text>
<text text-anchor="middle" x="786.5" y="-51.5" font-family="Helvetica,sans-Serif" font-size="10.00" fill="#000000">mom_error</text>
</a>
</g>
</g>
<!-- Node3&#45;&gt;Node4 -->
<g id="edge3" class="edge">
<title>Node3&#45;&gt;Node4</title>
<path fill="none" stroke="#191970" d="M693.1237,-59.5C701.7509,-59.5 710.4005,-59.5 718.7653,-59.5"/>
<polygon fill="#191970" stroke="#191970" points="718.8067,-63.0001 728.8067,-59.5 718.8066,-56.0001 718.8067,-63.0001"/>
</g>
<!-- Node5 -->
<g id="node5" class="node">
<title>Node5</title>
<g id="a_node5"><a xlink:href="namespacemom__error__handler.html#ad5f00a53059c72fe2332d1436c80ca71" target="_top" xlink:title="This returns .true. if the current PE is the root PE.">
<polygon fill="#ffffff" stroke="#000000" points="880,-44.5 880,-74.5 995,-74.5 995,-44.5 880,-44.5"/>
<text text-anchor="start" x="888" y="-62.5" font-family="Helvetica,sans-Serif" font-size="10.00" fill="#000000">mom_error_handler::</text>
<text text-anchor="middle" x="937.5" y="-51.5" font-family="Helvetica,sans-Serif" font-size="10.00" fill="#000000">is_root_pe</text>
</a>
</g>
</g>
<!-- Node4&#45;&gt;Node5 -->
<g id="edge4" class="edge">
<title>Node4&#45;&gt;Node5</title>
<path fill="none" stroke="#191970" d="M844.0174,-59.5C852.4639,-59.5 861.2292,-59.5 869.8561,-59.5"/>
<polygon fill="#191970" stroke="#191970" points="869.8926,-63.0001 879.8925,-59.5 869.8925,-56.0001 869.8926,-63.0001"/>
</g>
</g>
</svg>
