<?xml version="1.0" encoding="UTF-8" standalone="no"?>
<!DOCTYPE svg PUBLIC "-//W3C//DTD SVG 1.1//EN"
 "http://www.w3.org/Graphics/SVG/1.1/DTD/svg11.dtd">
<!-- Generated by graphviz version 2.40.1 (20161225.0304)
 -->
<!-- Title: mom_ice_shelf_dynamics::update_od_ffrac_uncoupled Pages: 1 -->
<svg width="316pt" height="88pt"
 viewBox="0.00 0.00 316.00 88.00" xmlns="http://www.w3.org/2000/svg" xmlns:xlink="http://www.w3.org/1999/xlink">
<g id="graph0" class="graph" transform="scale(1 1) rotate(0) translate(4 84)">
<title>mom_ice_shelf_dynamics::update_od_ffrac_uncoupled</title>
<polygon fill="#ffffff" stroke="transparent" points="-4,4 -4,-84 312,-84 312,4 -4,4"/>
<!-- Node1 -->
<g id="node1" class="node">
<title>Node1</title>
<g id="a_node1"><a xlink:title=" ">
<polygon fill="#bfbfbf" stroke="#000000" points="166,-24.5 166,-54.5 308,-54.5 308,-24.5 166,-24.5"/>
<text text-anchor="start" x="174" y="-42.5" font-family="Helvetica,sans-Serif" font-size="10.00" fill="#000000">mom_ice_shelf_dynamics</text>
<text text-anchor="middle" x="237" y="-31.5" font-family="Helvetica,sans-Serif" font-size="10.00" fill="#000000">::update_od_ffrac_uncoupled</text>
</a>
</g>
</g>
<!-- Node2 -->
<g id="node2" class="node">
<title>Node2</title>
<g id="a_node2"><a xlink:href="namespacemom__ice__shelf__dynamics.html#a214304391d90b046fd3756249be46afb" target="_top" xlink:title="Initializes shelf model data, parameters and diagnostics.">
<polygon fill="#ffffff" stroke="#000000" points="0,-49.5 0,-79.5 130,-79.5 130,-49.5 0,-49.5"/>
<text text-anchor="start" x="8" y="-67.5" font-family="Helvetica,sans-Serif" font-size="10.00" fill="#000000">mom_ice_shelf_dynamics</text>
<text text-anchor="middle" x="65" y="-56.5" font-family="Helvetica,sans-Serif" font-size="10.00" fill="#000000">::initialize_ice_shelf_dyn</text>
</a>
</g>
</g>
<!-- Node1&#45;&gt;Node2 -->
<g id="edge1" class="edge">
<title>Node1&#45;&gt;Node2</title>
<path fill="none" stroke="#191970" d="M155.5924,-51.3325C147.0686,-52.5714 138.4845,-53.8191 130.1762,-55.0267"/>
<polygon fill="#191970" stroke="#191970" points="156.1582,-54.7871 165.5508,-49.8851 155.1513,-47.8599 156.1582,-54.7871"/>
</g>
<!-- Node3 -->
<g id="node3" class="node">
<title>Node3</title>
<g id="a_node3"><a xlink:href="namespacemom__ice__shelf__dynamics.html#adb908b77efa101749be0be069916139c" target="_top" xlink:title="This subroutine updates the ice shelf velocities, mass, stresses and properties due to the ice shelf ...">
<polygon fill="#ffffff" stroke="#000000" points="0,-.5 0,-30.5 130,-30.5 130,-.5 0,-.5"/>
<text text-anchor="start" x="8" y="-18.5" font-family="Helvetica,sans-Serif" font-size="10.00" fill="#000000">mom_ice_shelf_dynamics</text>
<text text-anchor="middle" x="65" y="-7.5" font-family="Helvetica,sans-Serif" font-size="10.00" fill="#000000">::update_ice_shelf</text>
</a>
</g>
</g>
<!-- Node1&#45;&gt;Node3 -->
<g id="edge2" class="edge">
<title>Node1&#45;&gt;Node3</title>
<path fill="none" stroke="#191970" d="M155.5924,-28.1408C147.0686,-26.9514 138.4845,-25.7536 130.1762,-24.5944"/>
<polygon fill="#191970" stroke="#191970" points="155.163,-31.6147 165.5508,-29.5303 156.1304,-24.6819 155.163,-31.6147"/>
</g>
</g>
</svg>
