<?xml version="1.0" encoding="UTF-8" standalone="no"?>
<!DOCTYPE svg PUBLIC "-//W3C//DTD SVG 1.1//EN"
 "http://www.w3.org/Graphics/SVG/1.1/DTD/svg11.dtd">
<!-- Generated by graphviz version 2.40.1 (20161225.0304)
 -->
<!-- Title: mom_document::mesghasbeendocumented Pages: 1 -->
<svg width="417pt" height="378pt"
 viewBox="0.00 0.00 417.00 378.00" xmlns="http://www.w3.org/2000/svg" xmlns:xlink="http://www.w3.org/1999/xlink">
<g id="graph0" class="graph" transform="scale(1 1) rotate(0) translate(4 374)">
<title>mom_document::mesghasbeendocumented</title>
<polygon fill="#ffffff" stroke="transparent" points="-4,4 -4,-374 413,-374 413,4 -4,4"/>
<!-- Node1 -->
<g id="node1" class="node">
<title>Node1</title>
<g id="a_node1"><a xlink:title="Returns true if documentation has already been written.">
<polygon fill="#bfbfbf" stroke="#000000" points="203,-170.5 203,-189.5 409,-189.5 409,-170.5 203,-170.5"/>
<text text-anchor="middle" x="306" y="-177.5" font-family="Helvetica,sans-Serif" font-size="10.00" fill="#000000">mom_document::mesghasbeendocumented</text>
</a>
</g>
</g>
<!-- Node2 -->
<g id="node2" class="node">
<title>Node2</title>
<g id="a_node2"><a xlink:href="namespacemom__document.html#a229adca02cf2d0a89aa8f6d04eb9f4a9" target="_top" xlink:title="This subroutine handles parameter documentation for character strings.">
<polygon fill="#ffffff" stroke="#000000" points="1.5,-350.5 1.5,-369.5 165.5,-369.5 165.5,-350.5 1.5,-350.5"/>
<text text-anchor="middle" x="83.5" y="-357.5" font-family="Helvetica,sans-Serif" font-size="10.00" fill="#000000">mom_document::doc_param_char</text>
</a>
</g>
</g>
<!-- Node1&#45;&gt;Node2 -->
<g id="edge1" class="edge">
<title>Node1&#45;&gt;Node2</title>
<path fill="none" stroke="#191970" d="M295.4014,-198.7693C275.1401,-232.8281 227.4949,-304.6414 167,-341 160.5012,-344.9059 153.2779,-348.0096 145.8765,-350.4757"/>
<polygon fill="#191970" stroke="#191970" points="298.5829,-200.2609 300.5871,-189.8573 292.5326,-196.7404 298.5829,-200.2609"/>
</g>
<!-- Node3 -->
<g id="node3" class="node">
<title>Node3</title>
<g id="a_node3"><a xlink:href="namespacemom__document.html#a73f11af8cd30ba919e5ed656939d602b" target="_top" xlink:title="This subroutine handles parameter documentation for integers.">
<polygon fill="#ffffff" stroke="#000000" points="5.5,-312.5 5.5,-331.5 161.5,-331.5 161.5,-312.5 5.5,-312.5"/>
<text text-anchor="middle" x="83.5" y="-319.5" font-family="Helvetica,sans-Serif" font-size="10.00" fill="#000000">mom_document::doc_param_int</text>
</a>
</g>
</g>
<!-- Node1&#45;&gt;Node3 -->
<g id="edge2" class="edge">
<title>Node1&#45;&gt;Node3</title>
<path fill="none" stroke="#191970" d="M291.404,-197.656C268.0442,-224.6954 219.5161,-276.0542 167,-303 159.4603,-306.8686 151.1386,-309.9564 142.7568,-312.4193"/>
<polygon fill="#191970" stroke="#191970" points="294.2748,-199.6823 298.0771,-189.7933 288.9378,-195.1528 294.2748,-199.6823"/>
</g>
<!-- Node4 -->
<g id="node4" class="node">
<title>Node4</title>
<g id="a_node4"><a xlink:href="namespacemom__document.html#a4a7bc631327cb9b529c2bb0e1595a914" target="_top" xlink:title="This subroutine handles parameter documentation for arrays of integers.">
<polygon fill="#ffffff" stroke="#000000" points="13.5,-263 13.5,-293 153.5,-293 153.5,-263 13.5,-263"/>
<text text-anchor="start" x="21.5" y="-281" font-family="Helvetica,sans-Serif" font-size="10.00" fill="#000000">mom_document::doc_param</text>
<text text-anchor="middle" x="83.5" y="-270" font-family="Helvetica,sans-Serif" font-size="10.00" fill="#000000">_int_array</text>
</a>
</g>
</g>
<!-- Node1&#45;&gt;Node4 -->
<g id="edge3" class="edge">
<title>Node1&#45;&gt;Node4</title>
<path fill="none" stroke="#191970" d="M281.887,-194.8453C254.7412,-211.0753 208.9382,-237.0279 167,-254 159.0303,-257.2253 150.4701,-260.2041 141.9773,-262.8864"/>
<polygon fill="#191970" stroke="#191970" points="283.9218,-197.7052 290.6738,-189.5406 280.304,-191.7126 283.9218,-197.7052"/>
</g>
<!-- Node5 -->
<g id="node5" class="node">
<title>Node5</title>
<g id="a_node5"><a xlink:href="namespacemom__document.html#ac2c836b7249384e076d12f62d5e5c1c4" target="_top" xlink:title="This subroutine handles parameter documentation for logicals.">
<polygon fill="#ffffff" stroke="#000000" points="13.5,-214 13.5,-244 153.5,-244 153.5,-214 13.5,-214"/>
<text text-anchor="start" x="21.5" y="-232" font-family="Helvetica,sans-Serif" font-size="10.00" fill="#000000">mom_document::doc_param</text>
<text text-anchor="middle" x="83.5" y="-221" font-family="Helvetica,sans-Serif" font-size="10.00" fill="#000000">_logical</text>
</a>
</g>
</g>
<!-- Node1&#45;&gt;Node5 -->
<g id="edge4" class="edge">
<title>Node1&#45;&gt;Node5</title>
<path fill="none" stroke="#191970" d="M252.9026,-191.6934C222.6514,-198.3554 184.4202,-206.7749 151.9359,-213.9287"/>
<polygon fill="#191970" stroke="#191970" points="253.8227,-195.0747 262.8359,-189.5058 252.3172,-188.2385 253.8227,-195.0747"/>
</g>
<!-- Node6 -->
<g id="node6" class="node">
<title>Node6</title>
<g id="a_node6"><a xlink:href="namespacemom__document.html#a32807c0c2fe23659ceae07dd92816151" target="_top" xlink:title="This subroutine handles parameter documentation for arrays of logicals.">
<polygon fill="#ffffff" stroke="#000000" points="13.5,-165 13.5,-195 153.5,-195 153.5,-165 13.5,-165"/>
<text text-anchor="start" x="21.5" y="-183" font-family="Helvetica,sans-Serif" font-size="10.00" fill="#000000">mom_document::doc_param</text>
<text text-anchor="middle" x="83.5" y="-172" font-family="Helvetica,sans-Serif" font-size="10.00" fill="#000000">_logical_array</text>
</a>
</g>
</g>
<!-- Node1&#45;&gt;Node6 -->
<g id="edge5" class="edge">
<title>Node1&#45;&gt;Node6</title>
<path fill="none" stroke="#191970" d="M192.6911,-180C179.3453,-180 166.039,-180 153.5407,-180"/>
<polygon fill="#191970" stroke="#191970" points="192.8918,-183.5001 202.8917,-180 192.8917,-176.5001 192.8918,-183.5001"/>
</g>
<!-- Node7 -->
<g id="node7" class="node">
<title>Node7</title>
<g id="a_node7"><a xlink:href="namespacemom__document.html#ab6438889d6e98b10d8c42d5ff6b00ef8" target="_top" xlink:title="This subroutine handles parameter documentation with no value.">
<polygon fill="#ffffff" stroke="#000000" points="0,-126.5 0,-145.5 167,-145.5 167,-126.5 0,-126.5"/>
<text text-anchor="middle" x="83.5" y="-133.5" font-family="Helvetica,sans-Serif" font-size="10.00" fill="#000000">mom_document::doc_param_none</text>
</a>
</g>
</g>
<!-- Node1&#45;&gt;Node7 -->
<g id="edge6" class="edge">
<title>Node1&#45;&gt;Node7</title>
<path fill="none" stroke="#191970" d="M247.8046,-168.4917C211.6669,-161.3454 165.7767,-152.2704 131.685,-145.5287"/>
<polygon fill="#191970" stroke="#191970" points="247.2318,-171.9461 257.7208,-170.4527 248.5898,-165.0791 247.2318,-171.9461"/>
</g>
<!-- Node8 -->
<g id="node8" class="node">
<title>Node8</title>
<g id="a_node8"><a xlink:href="namespacemom__document.html#a350768d3604d8071328248457cff3b7c" target="_top" xlink:title="This subroutine handles parameter documentation for reals.">
<polygon fill="#ffffff" stroke="#000000" points="3,-88.5 3,-107.5 164,-107.5 164,-88.5 3,-88.5"/>
<text text-anchor="middle" x="83.5" y="-95.5" font-family="Helvetica,sans-Serif" font-size="10.00" fill="#000000">mom_document::doc_param_real</text>
</a>
</g>
</g>
<!-- Node1&#45;&gt;Node8 -->
<g id="edge7" class="edge">
<title>Node1&#45;&gt;Node8</title>
<path fill="none" stroke="#191970" d="M279.0319,-165.8026C251.497,-151.7827 207.2079,-130.5318 167,-117 156.1503,-113.3486 144.2732,-110.1748 132.9683,-107.5217"/>
<polygon fill="#191970" stroke="#191970" points="277.545,-168.9736 288.0385,-170.4356 280.747,-162.7489 277.545,-168.9736"/>
</g>
<!-- Node9 -->
<g id="node9" class="node">
<title>Node9</title>
<g id="a_node9"><a xlink:href="namespacemom__document.html#ae4b7c9070b5a4be36cb73f173fa82acd" target="_top" xlink:title="This subroutine handles parameter documentation for arrays of reals.">
<polygon fill="#ffffff" stroke="#000000" points="13.5,-39 13.5,-69 153.5,-69 153.5,-39 13.5,-39"/>
<text text-anchor="start" x="21.5" y="-57" font-family="Helvetica,sans-Serif" font-size="10.00" fill="#000000">mom_document::doc_param</text>
<text text-anchor="middle" x="83.5" y="-46" font-family="Helvetica,sans-Serif" font-size="10.00" fill="#000000">_real_array</text>
</a>
</g>
</g>
<!-- Node1&#45;&gt;Node9 -->
<g id="edge8" class="edge">
<title>Node1&#45;&gt;Node9</title>
<path fill="none" stroke="#191970" d="M287.5865,-163.4334C262.1577,-141.3364 214.0767,-102.3028 167,-79 159.4054,-75.2407 151.1378,-71.9298 142.8551,-69.051"/>
<polygon fill="#191970" stroke="#191970" points="285.4891,-166.2499 295.3076,-170.2307 290.1145,-160.9958 285.4891,-166.2499"/>
</g>
<!-- Node10 -->
<g id="node10" class="node">
<title>Node10</title>
<g id="a_node10"><a xlink:href="namespacemom__document.html#ad177f77e0339348bdce9602dac1fc6db" target="_top" xlink:title="This subroutine handles parameter documentation for time&#45;type variables.">
<polygon fill="#ffffff" stroke="#000000" points="1.5,-.5 1.5,-19.5 165.5,-19.5 165.5,-.5 1.5,-.5"/>
<text text-anchor="middle" x="83.5" y="-7.5" font-family="Helvetica,sans-Serif" font-size="10.00" fill="#000000">mom_document::doc_param_time</text>
</a>
</g>
</g>
<!-- Node1&#45;&gt;Node10 -->
<g id="edge9" class="edge">
<title>Node1&#45;&gt;Node10</title>
<path fill="none" stroke="#191970" d="M294.4594,-161.7226C273.2883,-129.7751 225.0456,-63.9528 167,-30 159.5371,-25.6347 151.1698,-22.2209 142.6909,-19.5514"/>
<polygon fill="#191970" stroke="#191970" points="291.7613,-163.9944 300.1414,-170.477 297.6329,-160.1834 291.7613,-163.9944"/>
</g>
</g>
</svg>
