<?xml version="1.0" encoding="UTF-8" standalone="no"?>
<!DOCTYPE svg PUBLIC "-//W3C//DTD SVG 1.1//EN"
 "http://www.w3.org/Graphics/SVG/1.1/DTD/svg11.dtd">
<!-- Generated by graphviz version 2.40.1 (20161225.0304)
 -->
<!-- Title: mom_surface_forcing_nuopc::convert_iob_to_fluxes Pages: 1 -->
<svg width="327pt" height="88pt"
 viewBox="0.00 0.00 327.00 88.00" xmlns="http://www.w3.org/2000/svg" xmlns:xlink="http://www.w3.org/1999/xlink">
<g id="graph0" class="graph" transform="scale(1 1) rotate(0) translate(4 84)">
<title>mom_surface_forcing_nuopc::convert_iob_to_fluxes</title>
<polygon fill="#ffffff" stroke="transparent" points="-4,4 -4,-84 323,-84 323,4 -4,4"/>
<!-- Node1 -->
<g id="node1" class="node">
<title>Node1</title>
<g id="a_node1"><a xlink:title="This subroutine translates the Ice_ocean_boundary_type into a MOM thermodynamic forcing type,...">
<polygon fill="#bfbfbf" stroke="#000000" points="0,-19 0,-60 118,-60 118,-19 0,-19"/>
<text text-anchor="start" x="8" y="-48" font-family="Helvetica,sans-Serif" font-size="10.00" fill="#000000">mom_surface_forcing</text>
<text text-anchor="start" x="8" y="-37" font-family="Helvetica,sans-Serif" font-size="10.00" fill="#000000">_nuopc::convert_iob</text>
<text text-anchor="middle" x="59" y="-26" font-family="Helvetica,sans-Serif" font-size="10.00" fill="#000000">_to_fluxes</text>
</a>
</g>
</g>
<!-- Node2 -->
<g id="node2" class="node">
<title>Node2</title>
<g id="a_node2"><a xlink:href="namespacemom__spatial__means.html#a7d9711f9d5508ec92838893d260a0eef" target="_top" xlink:title="Adjust 2d array such that area mean is zero without moving the zero contour.">
<polygon fill="#ffffff" stroke="#000000" points="163.5,-49.5 163.5,-79.5 309.5,-79.5 309.5,-49.5 163.5,-49.5"/>
<text text-anchor="start" x="171.5" y="-67.5" font-family="Helvetica,sans-Serif" font-size="10.00" fill="#000000">mom_spatial_means::</text>
<text text-anchor="middle" x="236.5" y="-56.5" font-family="Helvetica,sans-Serif" font-size="10.00" fill="#000000">adjust_area_mean_to_zero</text>
</a>
</g>
</g>
<!-- Node1&#45;&gt;Node2 -->
<g id="edge1" class="edge">
<title>Node1&#45;&gt;Node2</title>
<path fill="none" stroke="#191970" d="M118.1049,-47.8246C129.4505,-49.4226 141.5263,-51.1234 153.4637,-52.8047"/>
<polygon fill="#191970" stroke="#191970" points="153.049,-56.2808 163.4394,-54.2098 154.0253,-49.3492 153.049,-56.2808"/>
</g>
<!-- Node3 -->
<g id="node3" class="node">
<title>Node3</title>
<g id="a_node3"><a xlink:href="namespacemom__surface__forcing__nuopc.html#a9f6c01b7295b315f26827fc63cf8a390" target="_top" xlink:title="Adds thermodynamic flux adjustments obtained via data_override Component name is &#39;OCN&#39; Available adju...">
<polygon fill="#ffffff" stroke="#000000" points="154,-.5 154,-30.5 319,-30.5 319,-.5 154,-.5"/>
<text text-anchor="start" x="162" y="-18.5" font-family="Helvetica,sans-Serif" font-size="10.00" fill="#000000">mom_surface_forcing</text>
<text text-anchor="middle" x="236.5" y="-7.5" font-family="Helvetica,sans-Serif" font-size="10.00" fill="#000000">_nuopc::apply_flux_adjustments</text>
</a>
</g>
</g>
<!-- Node1&#45;&gt;Node3 -->
<g id="edge2" class="edge">
<title>Node1&#45;&gt;Node3</title>
<path fill="none" stroke="#191970" d="M118.1049,-31.5083C126.4581,-30.3789 135.2071,-29.1959 144.0053,-28.0063"/>
<polygon fill="#191970" stroke="#191970" points="144.5002,-31.4713 153.9411,-26.6629 143.5622,-24.5345 144.5002,-31.4713"/>
</g>
</g>
</svg>
