<?xml version="1.0" encoding="UTF-8" standalone="no"?>
<!DOCTYPE svg PUBLIC "-//W3C//DTD SVG 1.1//EN"
 "http://www.w3.org/Graphics/SVG/1.1/DTD/svg11.dtd">
<!-- Generated by graphviz version 2.40.1 (20161225.0304)
 -->
<!-- Title: mom_document::doc_param_real_array Pages: 1 -->
<!--zoomable 345 -->
<svg id="main" version="1.1" xmlns="http://www.w3.org/2000/svg" xmlns:xlink="http://www.w3.org/1999/xlink" xml:space="preserve" onload="init(evt)">
<style type="text/css"><![CDATA[
.edge:hover path { stroke: red; }
.edge:hover polygon { stroke: red; fill: red; }
]]></style>
<script type="text/javascript"><![CDATA[
var edges = document.getElementsByTagName('g');
if (edges && edges.length) {
  for (var i=0;i<edges.length;i++) {
    if (edges[i].id.substr(0,4)=='edge') {
      edges[i].setAttribute('class','edge');
    }
  }
}
]]></script>
        <defs>
                <circle id="rim" cx="0" cy="0" r="7"/>
                <circle id="rim2" cx="0" cy="0" r="3.5"/>
                <g id="zoomPlus">
                        <use xlink:href="#rim" fill="#404040">
                                <set attributeName="fill" to="#808080" begin="zoomplus.mouseover" end="zoomplus.mouseout"/>
                        </use>
                        <path d="M-4,0h8M0,-4v8" fill="none" stroke="white" stroke-width="1.5" pointer-events="none"/>
                </g>
                <g id="zoomMin">
                        <use xlink:href="#rim" fill="#404040">
                                <set attributeName="fill" to="#808080" begin="zoomminus.mouseover" end="zoomminus.mouseout"/>
                        </use>
                        <path d="M-4,0h8" fill="none" stroke="white" stroke-width="1.5" pointer-events="none"/>
                </g>
                <g id="dirArrow">
                        <path fill="none" stroke="white" stroke-width="1.5" d="M0,-3.0v7 M-2.5,-0.5L0,-3.0L2.5,-0.5"/>
                </g>
               <g id="resetDef">
                       <use xlink:href="#rim2" fill="#404040">
                               <set attributeName="fill" to="#808080" begin="reset.mouseover" end="reset.mouseout"/>
                       </use>
               </g>
        </defs>

<script type="text/javascript">
var viewWidth = 986;
var viewHeight = 345;
var sectionId = 'dynsection-12';
</script>
<script xlink:href="svgpan.js"/>
<svg id="graph" class="graph">
<g id="viewport">
<title>mom_document::doc_param_real_array</title>
<polygon fill="#ffffff" stroke="transparent" points="-4,4 -4,-340.5 982,-340.5 982,4 -4,4"/>
<!-- Node1 -->
<g id="node1" class="node">
<title>Node1</title>
<g id="a_node1"><a xlink:title="This subroutine handles parameter documentation for arrays of reals.">
<polygon fill="#bfbfbf" stroke="#000000" points="0,-142 0,-172 140,-172 140,-142 0,-142"/>
<text text-anchor="start" x="8" y="-160" font-family="Helvetica,sans-Serif" font-size="10.00" fill="#000000">mom_document::doc_param</text>
<text text-anchor="middle" x="70" y="-149" font-family="Helvetica,sans-Serif" font-size="10.00" fill="#000000">_real_array</text>
</a>
</g>
</g>
<!-- Node2 -->
<g id="node2" class="node">
<title>Node2</title>
<g id="a_node2"><a xlink:href="namespacemom__document.html#aadc9c21a3f71a85107454b8080d6ec5c" target="_top" xlink:title="This function returns a string for formatted parameter assignment.">
<polygon fill="#ffffff" stroke="#000000" points="211.5,-306 211.5,-336 330.5,-336 330.5,-306 211.5,-306"/>
<text text-anchor="start" x="219.5" y="-324" font-family="Helvetica,sans-Serif" font-size="10.00" fill="#000000">mom_document::define</text>
<text text-anchor="middle" x="271" y="-313" font-family="Helvetica,sans-Serif" font-size="10.00" fill="#000000">_string</text>
</a>
</g>
</g>
<!-- Node1&#45;&gt;Node2 -->
<g id="edge1" class="edge">
<title>Node1&#45;&gt;Node2</title>
<path fill="none" stroke="#191970" d="M78.0101,-172.3089C93.3096,-200.0751 129.3591,-258.8366 176,-291 183.8201,-296.3927 192.6573,-300.8523 201.7153,-304.531"/>
<polygon fill="#191970" stroke="#191970" points="200.609,-307.8541 211.2012,-308.0883 203.0669,-301.2998 200.609,-307.8541"/>
</g>
<!-- Node3 -->
<g id="node3" class="node">
<title>Node3</title>
<g id="a_node3"><a xlink:href="namespacemom__error__handler.html#ad5f00a53059c72fe2332d1436c80ca71" target="_top" xlink:title="This returns .true. if the current PE is the root PE.">
<polygon fill="#ffffff" stroke="#000000" points="872,-186 872,-216 978,-216 978,-186 872,-186"/>
<text text-anchor="start" x="880" y="-204" font-family="Helvetica,sans-Serif" font-size="10.00" fill="#000000">mom_error_handler::</text>
<text text-anchor="middle" x="925" y="-193" font-family="Helvetica,sans-Serif" font-size="10.00" fill="#000000">is_root_pe</text>
</a>
</g>
</g>
<!-- Node1&#45;&gt;Node3 -->
<g id="edge2" class="edge">
<title>Node1&#45;&gt;Node3</title>
<path fill="none" stroke="#191970" d="M93.9223,-172.2256C114.8273,-184.8879 146.3849,-202.4811 176,-213 272.5093,-247.2788 300.0779,-247.9515 402,-258 594.4793,-276.9765 646.7022,-265.6831 836,-226 845.7782,-223.9502 856.0635,-221.419 866.031,-218.7618"/>
<polygon fill="#191970" stroke="#191970" points="867.1381,-222.0877 875.8621,-216.0757 865.2931,-215.3352 867.1381,-222.0877"/>
</g>
<!-- Node4 -->
<g id="node4" class="node">
<title>Node4</title>
<g id="a_node4"><a xlink:href="namespacemom__document.html#aa23ed2e58e74e88a71de374685ee11ec" target="_top" xlink:title="Returns true if documentation has already been written.">
<polygon fill="#ffffff" stroke="#000000" points="402,-229.5 402,-248.5 608,-248.5 608,-229.5 402,-229.5"/>
<text text-anchor="middle" x="505" y="-236.5" font-family="Helvetica,sans-Serif" font-size="10.00" fill="#000000">mom_document::mesghasbeendocumented</text>
</a>
</g>
</g>
<!-- Node1&#45;&gt;Node4 -->
<g id="edge3" class="edge">
<title>Node1&#45;&gt;Node4</title>
<path fill="none" stroke="#191970" d="M130.9591,-172.0381C145.6687,-175.4837 161.3654,-179.0093 176,-182 264.3259,-200.0501 366.7523,-217.2051 433.5518,-227.8913"/>
<polygon fill="#191970" stroke="#191970" points="433.1245,-231.3673 443.5508,-229.4851 434.2264,-224.4546 433.1245,-231.3673"/>
</g>
<!-- Node6 -->
<g id="node6" class="node">
<title>Node6</title>
<g id="a_node6"><a xlink:href="namespacemom__document.html#aab976b6c6c9c01833438d217fca228a4" target="_top" xlink:title="This subroutine allocates and populates a structure that controls where the documentation occurs and ...">
<polygon fill="#ffffff" stroke="#000000" points="214.5,-142 214.5,-172 327.5,-172 327.5,-142 214.5,-142"/>
<text text-anchor="start" x="222.5" y="-160" font-family="Helvetica,sans-Serif" font-size="10.00" fill="#000000">mom_document::open</text>
<text text-anchor="middle" x="271" y="-149" font-family="Helvetica,sans-Serif" font-size="10.00" fill="#000000">_doc_file</text>
</a>
</g>
</g>
<!-- Node1&#45;&gt;Node6 -->
<g id="edge6" class="edge">
<title>Node1&#45;&gt;Node6</title>
<path fill="none" stroke="#191970" d="M140.0179,-157C160.8562,-157 183.6258,-157 204.25,-157"/>
<polygon fill="#191970" stroke="#191970" points="204.5,-160.5001 214.5,-157 204.4999,-153.5001 204.5,-160.5001"/>
</g>
<!-- Node8 -->
<g id="node8" class="node">
<title>Node8</title>
<g id="a_node8"><a xlink:href="namespacemom__document.html#a436486f7289eafc7b4e8ba65812f3459" target="_top" xlink:title="Returns a character string of a comma&#45;separated, compact formatted, reals e.g. &quot;1....">
<polygon fill="#ffffff" stroke="#000000" points="217,-77 217,-107 325,-107 325,-77 217,-77"/>
<text text-anchor="start" x="225" y="-95" font-family="Helvetica,sans-Serif" font-size="10.00" fill="#000000">mom_document::real</text>
<text text-anchor="middle" x="271" y="-84" font-family="Helvetica,sans-Serif" font-size="10.00" fill="#000000">_array_string</text>
</a>
</g>
</g>
<!-- Node1&#45;&gt;Node8 -->
<g id="edge11" class="edge">
<title>Node1&#45;&gt;Node8</title>
<path fill="none" stroke="#191970" d="M116.6187,-141.9243C145.8149,-132.4827 183.6249,-120.2556 214.5187,-110.2651"/>
<polygon fill="#191970" stroke="#191970" points="215.8485,-113.5136 224.2864,-107.1064 213.6946,-106.8532 215.8485,-113.5136"/>
</g>
<!-- Node10 -->
<g id="node10" class="node">
<title>Node10</title>
<g id="a_node10"><a xlink:href="namespacemom__document.html#a966b8926bf40ee436654a0048b2bf42a" target="_top" xlink:title="This function returns a string with a real formatted like &#39;(G)&#39;.">
<polygon fill="#ffffff" stroke="#000000" points="451,-16 451,-46 559,-46 559,-16 451,-16"/>
<text text-anchor="start" x="459" y="-34" font-family="Helvetica,sans-Serif" font-size="10.00" fill="#000000">mom_document::real</text>
<text text-anchor="middle" x="505" y="-23" font-family="Helvetica,sans-Serif" font-size="10.00" fill="#000000">_string</text>
</a>
</g>
</g>
<!-- Node1&#45;&gt;Node10 -->
<g id="edge15" class="edge">
<title>Node1&#45;&gt;Node10</title>
<path fill="none" stroke="#191970" d="M82.5773,-141.944C100.7998,-121.3029 136.6916,-84.8615 176,-68 222.161,-48.199 358.639,-38.1892 440.597,-33.8306"/>
<polygon fill="#191970" stroke="#191970" points="440.9969,-37.3147 450.8025,-33.3021 440.6348,-30.3241 440.9969,-37.3147"/>
</g>
<!-- Node12 -->
<g id="node12" class="node">
<title>Node12</title>
<g id="a_node12"><a xlink:href="namespacemom__document.html#a249e7992a57539508d07c71c6fcabaeb" target="_top" xlink:title="This subroutine writes out the message and description to the documetation files.">
<polygon fill="#ffffff" stroke="#000000" points="176,-.5 176,-19.5 366,-19.5 366,-.5 176,-.5"/>
<text text-anchor="middle" x="271" y="-7.5" font-family="Helvetica,sans-Serif" font-size="10.00" fill="#000000">mom_document::writemessageanddesc</text>
</a>
</g>
</g>
<!-- Node1&#45;&gt;Node12 -->
<g id="edge16" class="edge">
<title>Node1&#45;&gt;Node12</title>
<path fill="none" stroke="#191970" d="M78.6678,-141.8896C94.4993,-115.7016 130.6757,-62.0058 176,-34 183.4653,-29.3872 191.7794,-25.659 200.2972,-22.646"/>
<polygon fill="#191970" stroke="#191970" points="201.5163,-25.9306 209.9662,-19.5392 199.3749,-19.2662 201.5163,-25.9306"/>
</g>
<!-- Node5 -->
<g id="node5" class="node">
<title>Node5</title>
<g id="a_node5"><a xlink:href="namespacemom__error__handler.html#a460cfb79a06c29fc249952c2a3710d67" target="_top" xlink:title="This provides a convenient interface for writing an mpp_error message with run&#45;time filter based on a...">
<polygon fill="#ffffff" stroke="#000000" points="687,-186 687,-216 793,-216 793,-186 687,-186"/>
<text text-anchor="start" x="695" y="-204" font-family="Helvetica,sans-Serif" font-size="10.00" fill="#000000">mom_error_handler::</text>
<text text-anchor="middle" x="740" y="-193" font-family="Helvetica,sans-Serif" font-size="10.00" fill="#000000">mom_error</text>
</a>
</g>
</g>
<!-- Node4&#45;&gt;Node5 -->
<g id="edge4" class="edge">
<title>Node4&#45;&gt;Node5</title>
<path fill="none" stroke="#191970" d="M563.9971,-229.46C598.3982,-223.8973 641.7816,-216.8821 676.8681,-211.2086"/>
<polygon fill="#191970" stroke="#191970" points="677.6863,-214.6218 686.9993,-209.5703 676.5688,-207.7116 677.6863,-214.6218"/>
</g>
<!-- Node5&#45;&gt;Node3 -->
<g id="edge5" class="edge">
<title>Node5&#45;&gt;Node3</title>
<path fill="none" stroke="#191970" d="M793.0136,-201C814.4947,-201 839.4735,-201 861.8843,-201"/>
<polygon fill="#191970" stroke="#191970" points="861.9787,-204.5001 871.9787,-201 861.9786,-197.5001 861.9787,-204.5001"/>
</g>
<!-- Node6&#45;&gt;Node3 -->
<g id="edge9" class="edge">
<title>Node6&#45;&gt;Node3</title>
<path fill="none" stroke="#191970" d="M327.7574,-144.2844C350.6853,-139.7558 377.4765,-135.2279 402,-133 595.0825,-115.459 647.0969,-133.3633 836,-177 844.4968,-178.9628 853.4089,-181.1774 862.1745,-183.4477"/>
<polygon fill="#191970" stroke="#191970" points="861.4177,-186.8676 871.9789,-186.0241 863.1968,-180.0974 861.4177,-186.8676"/>
</g>
<!-- Node6&#45;&gt;Node5 -->
<g id="edge10" class="edge">
<title>Node6&#45;&gt;Node5</title>
<path fill="none" stroke="#191970" d="M327.8079,-169.5405C350.743,-174.158 377.5259,-178.9902 402,-182 497.2962,-193.7193 608.609,-198.2187 676.6899,-199.9405"/>
<polygon fill="#191970" stroke="#191970" points="676.7436,-203.4427 686.8249,-200.1843 676.912,-196.4447 676.7436,-203.4427"/>
</g>
<!-- Node7 -->
<g id="node7" class="node">
<title>Node7</title>
<g id="a_node7"><a xlink:href="namespacemom__document.html#a5f2661445a72a7d0f774677e91366db5" target="_top" xlink:title="Find an unused unit number, returning &gt;0 if found, and triggering a FATAL error if not.">
<polygon fill="#ffffff" stroke="#000000" points="449,-142 449,-172 561,-172 561,-142 449,-142"/>
<text text-anchor="start" x="457" y="-160" font-family="Helvetica,sans-Serif" font-size="10.00" fill="#000000">mom_document::find</text>
<text text-anchor="middle" x="505" y="-149" font-family="Helvetica,sans-Serif" font-size="10.00" fill="#000000">_unused_unit_number</text>
</a>
</g>
</g>
<!-- Node6&#45;&gt;Node7 -->
<g id="edge7" class="edge">
<title>Node6&#45;&gt;Node7</title>
<path fill="none" stroke="#191970" d="M327.6449,-157C361.1301,-157 403.698,-157 438.7366,-157"/>
<polygon fill="#191970" stroke="#191970" points="438.8768,-160.5001 448.8768,-157 438.8767,-153.5001 438.8768,-160.5001"/>
</g>
<!-- Node7&#45;&gt;Node5 -->
<g id="edge8" class="edge">
<title>Node7&#45;&gt;Node5</title>
<path fill="none" stroke="#191970" d="M561.2884,-167.5391C596.1653,-174.0693 641.0249,-182.4685 677.074,-189.2181"/>
<polygon fill="#191970" stroke="#191970" points="676.5191,-192.675 686.9925,-191.0752 677.8074,-185.7945 676.5191,-192.675"/>
</g>
<!-- Node9 -->
<g id="node9" class="node">
<title>Node9</title>
<g id="a_node9"><a xlink:href="namespacemom__document.html#a546c1393f07adc49a43fe5f6af171730" target="_top" xlink:title="This function returns a string with an integer formatted like &#39;(I)&#39;.">
<polygon fill="#ffffff" stroke="#000000" points="439,-65.5 439,-84.5 571,-84.5 571,-65.5 439,-65.5"/>
<text text-anchor="middle" x="505" y="-72.5" font-family="Helvetica,sans-Serif" font-size="10.00" fill="#000000">mom_document::int_string</text>
</a>
</g>
</g>
<!-- Node8&#45;&gt;Node9 -->
<g id="edge12" class="edge">
<title>Node8&#45;&gt;Node9</title>
<path fill="none" stroke="#191970" d="M325.2725,-88.0571C355.9834,-85.826 394.8808,-83.0001 428.6288,-80.5483"/>
<polygon fill="#191970" stroke="#191970" points="429.2022,-84.016 438.9223,-79.8005 428.6949,-77.0344 429.2022,-84.016"/>
</g>
<!-- Node8&#45;&gt;Node10 -->
<g id="edge13" class="edge">
<title>Node8&#45;&gt;Node10</title>
<path fill="none" stroke="#191970" d="M324.4414,-76.9228C348.1544,-70.3338 376.4254,-62.6162 402,-56 414.6345,-52.7314 428.1738,-49.3552 441.1469,-46.1817"/>
<polygon fill="#191970" stroke="#191970" points="442.0442,-49.5655 450.9327,-43.7996 440.3886,-42.7641 442.0442,-49.5655"/>
</g>
<!-- Node11 -->
<g id="node11" class="node">
<title>Node11</title>
<g id="a_node11"><a xlink:href="namespacemom__document.html#acbd7bf94c8e359a48ace95fe1f3d3bb4" target="_top" xlink:title="This function tests whether a real value is encoded in a string.">
<polygon fill="#ffffff" stroke="#000000" points="644,-21.5 644,-40.5 836,-40.5 836,-21.5 644,-21.5"/>
<text text-anchor="middle" x="740" y="-28.5" font-family="Helvetica,sans-Serif" font-size="10.00" fill="#000000">mom_document::testformattedfloatisreal</text>
</a>
</g>
</g>
<!-- Node10&#45;&gt;Node11 -->
<g id="edge14" class="edge">
<title>Node10&#45;&gt;Node11</title>
<path fill="none" stroke="#191970" d="M559.2088,-31C581.3468,-31 607.7571,-31 633.4616,-31"/>
<polygon fill="#191970" stroke="#191970" points="633.649,-34.5001 643.649,-31 633.649,-27.5001 633.649,-34.5001"/>
</g>
</g>
</svg>
        <g id="navigator" transform="translate(0 0)" fill="#404254">
                <rect fill="#f2f5e9" fill-opacity="0.5" stroke="#606060" stroke-width=".5" x="0" y="0" width="60" height="60"/>
                <use id="zoomplus" xlink:href="#zoomPlus" x="17" y="9" onmousedown="handleZoom(evt,'in')"/>
                <use id="zoomminus" xlink:href="#zoomMin" x="42" y="9" onmousedown="handleZoom(evt,'out')"/>
                <use id="reset" xlink:href="#resetDef" x="30" y="36" onmousedown="handleReset()"/>
                <g id="arrowUp" xlink:href="#dirArrow" transform="translate(30 24)" onmousedown="handlePan(0,-1)">
                  <use xlink:href="#rim" fill="#404040">
                        <set attributeName="fill" to="#808080" begin="arrowUp.mouseover" end="arrowUp.mouseout"/>
                  </use>
                  <path fill="none" stroke="white" stroke-width="1.5" d="M0,-3.0v7 M-2.5,-0.5L0,-3.0L2.5,-0.5"/>
                </g>
                <g id="arrowRight" xlink:href="#dirArrow" transform="rotate(90) translate(36 -43)" onmousedown="handlePan(1,0)">
                  <use xlink:href="#rim" fill="#404040">
                        <set attributeName="fill" to="#808080" begin="arrowRight.mouseover" end="arrowRight.mouseout"/>
                  </use>
                  <path fill="none" stroke="white" stroke-width="1.5" d="M0,-3.0v7 M-2.5,-0.5L0,-3.0L2.5,-0.5"/>
                </g>
                <g id="arrowDown" xlink:href="#dirArrow" transform="rotate(180) translate(-30 -48)" onmousedown="handlePan(0,1)">
                  <use xlink:href="#rim" fill="#404040">
                        <set attributeName="fill" to="#808080" begin="arrowDown.mouseover" end="arrowDown.mouseout"/>
                  </use>
                  <path fill="none" stroke="white" stroke-width="1.5" d="M0,-3.0v7 M-2.5,-0.5L0,-3.0L2.5,-0.5"/>
                </g>
                <g id="arrowLeft" xlink:href="#dirArrow" transform="rotate(270) translate(-36 17)" onmousedown="handlePan(-1,0)">
                  <use xlink:href="#rim" fill="#404040">
                        <set attributeName="fill" to="#808080" begin="arrowLeft.mouseover" end="arrowLeft.mouseout"/>
                  </use>
                  <path fill="none" stroke="white" stroke-width="1.5" d="M0,-3.0v7 M-2.5,-0.5L0,-3.0L2.5,-0.5"/>
                </g>
        </g>
        <svg viewBox="0 0 15 15" width="100%" height="30px" preserveAspectRatio="xMaxYMin meet">
         <g id="arrow_out" transform="scale(0.3 0.3)">
          <a xlink:href="namespacemom__document_ae4b7c9070b5a4be36cb73f173fa82acd_cgraph_org.svg" target="_base">
           <rect id="button" ry="5" rx="5" y="6" x="6" height="38" width="38"
                fill="#f2f5e9" fill-opacity="0.5" stroke="#606060" stroke-width="1.0"/>
           <path id="arrow"
             d="M 11.500037,31.436501 C 11.940474,20.09759 22.043105,11.32322 32.158766,21.979434 L 37.068811,17.246167 C 37.068811,17.246167 37.088388,32 37.088388,32 L 22.160133,31.978069 C 22.160133,31.978069 26.997745,27.140456 26.997745,27.140456 C 18.528582,18.264221 13.291696,25.230495 11.500037,31.436501 z"
             style="fill:#404040;"/>
          </a>
         </g>
        </svg>
</svg>
