<?xml version="1.0" encoding="UTF-8" standalone="no"?>
<!DOCTYPE svg PUBLIC "-//W3C//DTD SVG 1.1//EN"
 "http://www.w3.org/Graphics/SVG/1.1/DTD/svg11.dtd">
<!-- Generated by graphviz version 2.40.1 (20161225.0304)
 -->
<!-- Title: mom_regridding::check_grid_column Pages: 1 -->
<svg width="504pt" height="39pt"
 viewBox="0.00 0.00 504.00 39.00" xmlns="http://www.w3.org/2000/svg" xmlns:xlink="http://www.w3.org/1999/xlink">
<g id="graph0" class="graph" transform="scale(1 1) rotate(0) translate(4 35)">
<title>mom_regridding::check_grid_column</title>
<polygon fill="#ffffff" stroke="transparent" points="-4,4 -4,-35 500,-35 500,4 -4,4"/>
<!-- Node1 -->
<g id="node1" class="node">
<title>Node1</title>
<g id="a_node1"><a xlink:title="Check that the total thickness of new and old grids are consistent.">
<polygon fill="#bfbfbf" stroke="#000000" points="371,-.5 371,-30.5 496,-30.5 496,-.5 371,-.5"/>
<text text-anchor="start" x="379" y="-18.5" font-family="Helvetica,sans-Serif" font-size="10.00" fill="#000000">mom_regridding::check</text>
<text text-anchor="middle" x="433.5" y="-7.5" font-family="Helvetica,sans-Serif" font-size="10.00" fill="#000000">_grid_column</text>
</a>
</g>
</g>
<!-- Node2 -->
<g id="node2" class="node">
<title>Node2</title>
<g id="a_node2"><a xlink:href="namespacemom__regridding.html#a810d6a0658d645ac7a9e2b6680ce819c" target="_top" xlink:title="Check that the total thickness of two grids match.">
<polygon fill="#ffffff" stroke="#000000" points="210,-.5 210,-30.5 335,-30.5 335,-.5 210,-.5"/>
<text text-anchor="start" x="218" y="-18.5" font-family="Helvetica,sans-Serif" font-size="10.00" fill="#000000">mom_regridding::check</text>
<text text-anchor="middle" x="272.5" y="-7.5" font-family="Helvetica,sans-Serif" font-size="10.00" fill="#000000">_remapping_grid</text>
</a>
</g>
</g>
<!-- Node1&#45;&gt;Node2 -->
<g id="edge1" class="edge">
<title>Node1&#45;&gt;Node2</title>
<path fill="none" stroke="#191970" d="M360.7816,-15.5C352.1871,-15.5 343.4732,-15.5 335.0367,-15.5"/>
<polygon fill="#191970" stroke="#191970" points="360.7922,-19.0001 370.7922,-15.5 360.7922,-12.0001 360.7922,-19.0001"/>
</g>
<!-- Node3 -->
<g id="node3" class="node">
<title>Node3</title>
<g id="a_node3"><a xlink:href="namespacemom__regridding.html#ab354fe3423a39fef6f2b66f409b1682c" target="_top" xlink:title="Dispatching regridding routine for orchestrating regridding &amp; remapping.">
<polygon fill="#ffffff" stroke="#000000" points="0,-6 0,-25 174,-25 174,-6 0,-6"/>
<text text-anchor="middle" x="87" y="-13" font-family="Helvetica,sans-Serif" font-size="10.00" fill="#000000">mom_regridding::regridding_main</text>
</a>
</g>
</g>
<!-- Node2&#45;&gt;Node3 -->
<g id="edge2" class="edge">
<title>Node2&#45;&gt;Node3</title>
<path fill="none" stroke="#191970" d="M199.8611,-15.5C191.4746,-15.5 182.8577,-15.5 174.3028,-15.5"/>
<polygon fill="#191970" stroke="#191970" points="199.9568,-19.0001 209.9568,-15.5 199.9567,-12.0001 199.9568,-19.0001"/>
</g>
</g>
</svg>
