<?xml version="1.0" encoding="UTF-8" standalone="no"?>
<!DOCTYPE svg PUBLIC "-//W3C//DTD SVG 1.1//EN"
 "http://www.w3.org/Graphics/SVG/1.1/DTD/svg11.dtd">
<!-- Generated by graphviz version 2.40.1 (20161225.0304)
 -->
<!-- Title: mom_remapping::dzfromh1h2 Pages: 1 -->
<!--zoomable 149 -->
<svg id="main" version="1.1" xmlns="http://www.w3.org/2000/svg" xmlns:xlink="http://www.w3.org/1999/xlink" xml:space="preserve" onload="init(evt)">
<style type="text/css"><![CDATA[
.edge:hover path { stroke: red; }
.edge:hover polygon { stroke: red; fill: red; }
]]></style>
<script type="text/javascript"><![CDATA[
var edges = document.getElementsByTagName('g');
if (edges && edges.length) {
  for (var i=0;i<edges.length;i++) {
    if (edges[i].id.substr(0,4)=='edge') {
      edges[i].setAttribute('class','edge');
    }
  }
}
]]></script>
        <defs>
                <circle id="rim" cx="0" cy="0" r="7"/>
                <circle id="rim2" cx="0" cy="0" r="3.5"/>
                <g id="zoomPlus">
                        <use xlink:href="#rim" fill="#404040">
                                <set attributeName="fill" to="#808080" begin="zoomplus.mouseover" end="zoomplus.mouseout"/>
                        </use>
                        <path d="M-4,0h8M0,-4v8" fill="none" stroke="white" stroke-width="1.5" pointer-events="none"/>
                </g>
                <g id="zoomMin">
                        <use xlink:href="#rim" fill="#404040">
                                <set attributeName="fill" to="#808080" begin="zoomminus.mouseover" end="zoomminus.mouseout"/>
                        </use>
                        <path d="M-4,0h8" fill="none" stroke="white" stroke-width="1.5" pointer-events="none"/>
                </g>
                <g id="dirArrow">
                        <path fill="none" stroke="white" stroke-width="1.5" d="M0,-3.0v7 M-2.5,-0.5L0,-3.0L2.5,-0.5"/>
                </g>
               <g id="resetDef">
                       <use xlink:href="#rim2" fill="#404040">
                               <set attributeName="fill" to="#808080" begin="reset.mouseover" end="reset.mouseout"/>
                       </use>
               </g>
        </defs>

<script type="text/javascript">
var viewWidth = 759;
var viewHeight = 149;
var sectionId = 'dynsection-8';
</script>
<script xlink:href="svgpan.js"/>
<svg id="graph" class="graph">
<g id="viewport">
<title>mom_remapping::dzfromh1h2</title>
<polygon fill="#ffffff" stroke="transparent" points="-4,4 -4,-145 755,-145 755,4 -4,4"/>
<!-- Node1 -->
<g id="node1" class="node">
<title>Node1</title>
<g id="a_node1"><a xlink:title="Calculates the change in interface positions based on h1 and h2.">
<polygon fill="#bfbfbf" stroke="#000000" points="605,-33 605,-52 751,-52 751,-33 605,-33"/>
<text text-anchor="middle" x="678" y="-40" font-family="Helvetica,sans-Serif" font-size="10.00" fill="#000000">mom_remapping::dzfromh1h2</text>
</a>
</g>
</g>
<!-- Node2 -->
<g id="node2" class="node">
<title>Node2</title>
<g id="a_node2"><a xlink:href="namespacemom__ale.html#aab30651699eb2cd8dc5a67c8e03474ee" target="_top" xlink:title="Remaps a single scalar between grids described by thicknesses h_src and h_dst. h_dst must be dimensio...">
<polygon fill="#ffffff" stroke="#000000" points="445.5,-55.5 445.5,-85.5 552.5,-85.5 552.5,-55.5 445.5,-55.5"/>
<text text-anchor="start" x="453.5" y="-73.5" font-family="Helvetica,sans-Serif" font-size="10.00" fill="#000000">mom_ale::ale_remap</text>
<text text-anchor="middle" x="499" y="-62.5" font-family="Helvetica,sans-Serif" font-size="10.00" fill="#000000">_scalar</text>
</a>
</g>
</g>
<!-- Node1&#45;&gt;Node2 -->
<g id="edge1" class="edge">
<title>Node1&#45;&gt;Node2</title>
<path fill="none" stroke="#191970" d="M607.2119,-53.573C589.0906,-56.4076 569.8981,-59.4098 552.7884,-62.0862"/>
<polygon fill="#191970" stroke="#191970" points="607.8101,-57.0221 617.149,-52.0186 606.7282,-50.1062 607.8101,-57.0221"/>
</g>
<!-- Node6 -->
<g id="node6" class="node">
<title>Node6</title>
<g id="a_node6"><a xlink:href="namespacemom__remapping.html#a5849f564453d5ed76fb4feffd41eca26" target="_top" xlink:title="Runs unit tests on remapping functions. Should only be called from a single/root thread Returns True ...">
<polygon fill="#ffffff" stroke="#000000" points="429,-3.5 429,-33.5 569,-33.5 569,-3.5 429,-3.5"/>
<text text-anchor="start" x="437" y="-21.5" font-family="Helvetica,sans-Serif" font-size="10.00" fill="#000000">mom_remapping::remapping</text>
<text text-anchor="middle" x="499" y="-10.5" font-family="Helvetica,sans-Serif" font-size="10.00" fill="#000000">_unit_tests</text>
</a>
</g>
</g>
<!-- Node1&#45;&gt;Node6 -->
<g id="edge5" class="edge">
<title>Node1&#45;&gt;Node6</title>
<path fill="none" stroke="#191970" d="M596.9542,-31.6335C587.6362,-30.3842 578.195,-29.1183 569.0393,-27.8907"/>
<polygon fill="#191970" stroke="#191970" points="596.6209,-35.1201 606.9974,-32.9801 597.5512,-28.1822 596.6209,-35.1201"/>
</g>
<!-- Node3 -->
<g id="node3" class="node">
<title>Node3</title>
<g id="a_node3"><a xlink:href="namespacemom__ale.html#ae95451e2fbd4805eec01d00bebb268b4" target="_top" xlink:title="Regrid/remap stored fields used for offline tracer integrations. These input fields are assumed to ha...">
<polygon fill="#ffffff" stroke="#000000" points="277,-110.5 277,-140.5 384,-140.5 384,-110.5 277,-110.5"/>
<text text-anchor="start" x="285" y="-128.5" font-family="Helvetica,sans-Serif" font-size="10.00" fill="#000000">mom_ale::ale_offline</text>
<text text-anchor="middle" x="330.5" y="-117.5" font-family="Helvetica,sans-Serif" font-size="10.00" fill="#000000">_inputs</text>
</a>
</g>
</g>
<!-- Node2&#45;&gt;Node3 -->
<g id="edge2" class="edge">
<title>Node2&#45;&gt;Node3</title>
<path fill="none" stroke="#191970" d="M443.2352,-88.7022C421.5886,-95.7678 397.0986,-103.7616 376.4877,-110.4892"/>
<polygon fill="#191970" stroke="#191970" points="444.5363,-91.9593 452.9566,-85.529 442.3642,-85.3048 444.5363,-91.9593"/>
</g>
<!-- Node5 -->
<g id="node5" class="node">
<title>Node5</title>
<g id="a_node5"><a xlink:href="namespacemom__tracer__initialization__from__z.html#ad1570db6534aa3b22bdc5dffef561458" target="_top" xlink:title="Initializes a tracer from a z&#45;space data file.">
<polygon fill="#ffffff" stroke="#000000" points="268,-50 268,-91 393,-91 393,-50 268,-50"/>
<text text-anchor="start" x="276" y="-79" font-family="Helvetica,sans-Serif" font-size="10.00" fill="#000000">mom_tracer_initialization</text>
<text text-anchor="start" x="276" y="-68" font-family="Helvetica,sans-Serif" font-size="10.00" fill="#000000">_from_z::mom_initialize</text>
<text text-anchor="middle" x="330.5" y="-57" font-family="Helvetica,sans-Serif" font-size="10.00" fill="#000000">_tracer_from_z</text>
</a>
</g>
</g>
<!-- Node2&#45;&gt;Node5 -->
<g id="edge4" class="edge">
<title>Node2&#45;&gt;Node5</title>
<path fill="none" stroke="#191970" d="M434.9284,-70.5C421.2409,-70.5 406.7984,-70.5 393.1646,-70.5"/>
<polygon fill="#191970" stroke="#191970" points="435.2223,-74.0001 445.2223,-70.5 435.2222,-67.0001 435.2223,-74.0001"/>
</g>
<!-- Node4 -->
<g id="node4" class="node">
<title>Node4</title>
<g id="a_node4"><a xlink:href="namespacemom__offline__main.html#a2e59b996b88713928c04f72d57c5a531" target="_top" xlink:title="Update fields used in this round of offline transport. First fields are updated from files or from ar...">
<polygon fill="#ffffff" stroke="#000000" points="101,-110.5 101,-140.5 232,-140.5 232,-110.5 101,-110.5"/>
<text text-anchor="start" x="109" y="-128.5" font-family="Helvetica,sans-Serif" font-size="10.00" fill="#000000">mom_offline_main::update</text>
<text text-anchor="middle" x="166.5" y="-117.5" font-family="Helvetica,sans-Serif" font-size="10.00" fill="#000000">_offline_fields</text>
</a>
</g>
</g>
<!-- Node3&#45;&gt;Node4 -->
<g id="edge3" class="edge">
<title>Node3&#45;&gt;Node4</title>
<path fill="none" stroke="#191970" d="M266.5617,-125.5C255.2361,-125.5 243.4268,-125.5 232.0573,-125.5"/>
<polygon fill="#191970" stroke="#191970" points="266.8003,-129.0001 276.8003,-125.5 266.8002,-122.0001 266.8003,-129.0001"/>
</g>
<!-- Node7 -->
<g id="node7" class="node">
<title>Node7</title>
<g id="a_node7"><a xlink:href="namespacemom__unit__tests.html#a57645db02bc734c32de50d028ef906ac" target="_top" xlink:title="Calls unit tests for other modules. Note that if a unit test returns true, a FATAL error is triggered...">
<polygon fill="#ffffff" stroke="#000000" points="276.5,-.5 276.5,-30.5 384.5,-30.5 384.5,-.5 276.5,-.5"/>
<text text-anchor="start" x="284.5" y="-18.5" font-family="Helvetica,sans-Serif" font-size="10.00" fill="#000000">mom_unit_tests::unit</text>
<text text-anchor="middle" x="330.5" y="-7.5" font-family="Helvetica,sans-Serif" font-size="10.00" fill="#000000">_tests</text>
</a>
</g>
</g>
<!-- Node6&#45;&gt;Node7 -->
<g id="edge6" class="edge">
<title>Node6&#45;&gt;Node7</title>
<path fill="none" stroke="#191970" d="M418.459,-17.066C406.962,-16.8613 395.3726,-16.655 384.5496,-16.4623"/>
<polygon fill="#191970" stroke="#191970" points="418.4564,-20.5664 428.5171,-17.2451 418.5811,-13.5676 418.4564,-20.5664"/>
</g>
<!-- Node8 -->
<g id="node8" class="node">
<title>Node8</title>
<g id="a_node8"><a xlink:href="namespacemom.html#a96708b16215666edbfa5b46228f3a200" target="_top" xlink:title="Initialize MOM, including memory allocation, setting up parameters and diagnostics,...">
<polygon fill="#ffffff" stroke="#000000" points="113,-6 113,-25 220,-25 220,-6 113,-6"/>
<text text-anchor="middle" x="166.5" y="-13" font-family="Helvetica,sans-Serif" font-size="10.00" fill="#000000">mom::initialize_mom</text>
</a>
</g>
</g>
<!-- Node7&#45;&gt;Node8 -->
<g id="edge7" class="edge">
<title>Node7&#45;&gt;Node8</title>
<path fill="none" stroke="#191970" d="M265.9752,-15.5C250.7616,-15.5 234.7064,-15.5 220.0384,-15.5"/>
<polygon fill="#191970" stroke="#191970" points="266.3458,-19.0001 276.3458,-15.5 266.3457,-12.0001 266.3458,-19.0001"/>
</g>
<!-- Node9 -->
<g id="node9" class="node">
<title>Node9</title>
<g id="a_node9"><a xlink:href="MOM__driver_8F90.html#a08fffeb2d8e8acbf9ed4609be6d258c6" target="_top" xlink:title=" ">
<polygon fill="#ffffff" stroke="#000000" points="0,-6 0,-25 65,-25 65,-6 0,-6"/>
<text text-anchor="middle" x="32.5" y="-13" font-family="Helvetica,sans-Serif" font-size="10.00" fill="#000000">mom_main</text>
</a>
</g>
</g>
<!-- Node8&#45;&gt;Node9 -->
<g id="edge8" class="edge">
<title>Node8&#45;&gt;Node9</title>
<path fill="none" stroke="#191970" d="M102.4342,-15.5C89.4616,-15.5 76.342,-15.5 65.0258,-15.5"/>
<polygon fill="#191970" stroke="#191970" points="102.7692,-19.0001 112.7692,-15.5 102.7691,-12.0001 102.7692,-19.0001"/>
</g>
</g>
</svg>
        <g id="navigator" transform="translate(0 0)" fill="#404254">
                <rect fill="#f2f5e9" fill-opacity="0.5" stroke="#606060" stroke-width=".5" x="0" y="0" width="60" height="60"/>
                <use id="zoomplus" xlink:href="#zoomPlus" x="17" y="9" onmousedown="handleZoom(evt,'in')"/>
                <use id="zoomminus" xlink:href="#zoomMin" x="42" y="9" onmousedown="handleZoom(evt,'out')"/>
                <use id="reset" xlink:href="#resetDef" x="30" y="36" onmousedown="handleReset()"/>
                <g id="arrowUp" xlink:href="#dirArrow" transform="translate(30 24)" onmousedown="handlePan(0,-1)">
                  <use xlink:href="#rim" fill="#404040">
                        <set attributeName="fill" to="#808080" begin="arrowUp.mouseover" end="arrowUp.mouseout"/>
                  </use>
                  <path fill="none" stroke="white" stroke-width="1.5" d="M0,-3.0v7 M-2.5,-0.5L0,-3.0L2.5,-0.5"/>
                </g>
                <g id="arrowRight" xlink:href="#dirArrow" transform="rotate(90) translate(36 -43)" onmousedown="handlePan(1,0)">
                  <use xlink:href="#rim" fill="#404040">
                        <set attributeName="fill" to="#808080" begin="arrowRight.mouseover" end="arrowRight.mouseout"/>
                  </use>
                  <path fill="none" stroke="white" stroke-width="1.5" d="M0,-3.0v7 M-2.5,-0.5L0,-3.0L2.5,-0.5"/>
                </g>
                <g id="arrowDown" xlink:href="#dirArrow" transform="rotate(180) translate(-30 -48)" onmousedown="handlePan(0,1)">
                  <use xlink:href="#rim" fill="#404040">
                        <set attributeName="fill" to="#808080" begin="arrowDown.mouseover" end="arrowDown.mouseout"/>
                  </use>
                  <path fill="none" stroke="white" stroke-width="1.5" d="M0,-3.0v7 M-2.5,-0.5L0,-3.0L2.5,-0.5"/>
                </g>
                <g id="arrowLeft" xlink:href="#dirArrow" transform="rotate(270) translate(-36 17)" onmousedown="handlePan(-1,0)">
                  <use xlink:href="#rim" fill="#404040">
                        <set attributeName="fill" to="#808080" begin="arrowLeft.mouseover" end="arrowLeft.mouseout"/>
                  </use>
                  <path fill="none" stroke="white" stroke-width="1.5" d="M0,-3.0v7 M-2.5,-0.5L0,-3.0L2.5,-0.5"/>
                </g>
        </g>
        <svg viewBox="0 0 15 15" width="100%" height="30px" preserveAspectRatio="xMaxYMin meet">
         <g id="arrow_out" transform="scale(0.3 0.3)">
          <a xlink:href="namespacemom__remapping_a494289c324db2496816f2687f4ceea76_icgraph_org.svg" target="_base">
           <rect id="button" ry="5" rx="5" y="6" x="6" height="38" width="38"
                fill="#f2f5e9" fill-opacity="0.5" stroke="#606060" stroke-width="1.0"/>
           <path id="arrow"
             d="M 11.500037,31.436501 C 11.940474,20.09759 22.043105,11.32322 32.158766,21.979434 L 37.068811,17.246167 C 37.068811,17.246167 37.088388,32 37.088388,32 L 22.160133,31.978069 C 22.160133,31.978069 26.997745,27.140456 26.997745,27.140456 C 18.528582,18.264221 13.291696,25.230495 11.500037,31.436501 z"
             style="fill:#404040;"/>
          </a>
         </g>
        </svg>
</svg>
