<?xml version="1.0" encoding="UTF-8" standalone="no"?>
<!DOCTYPE svg PUBLIC "-//W3C//DTD SVG 1.1//EN"
 "http://www.w3.org/Graphics/SVG/1.1/DTD/svg11.dtd">
<!-- Generated by graphviz version 2.40.1 (20161225.0304)
 -->
<!-- Title: mom_restart::restore_state Pages: 1 -->
<svg width="608pt" height="264pt"
 viewBox="0.00 0.00 608.00 264.00" xmlns="http://www.w3.org/2000/svg" xmlns:xlink="http://www.w3.org/1999/xlink">
<g id="graph0" class="graph" transform="scale(1 1) rotate(0) translate(4 260)">
<title>mom_restart::restore_state</title>
<polygon fill="#ffffff" stroke="transparent" points="-4,4 -4,-260 604,-260 604,4 -4,4"/>
<!-- Node1 -->
<g id="node1" class="node">
<title>Node1</title>
<g id="a_node1"><a xlink:title="restore_state reads the model state from previously generated files. All restart variables are read f...">
<polygon fill="#bfbfbf" stroke="#000000" points="0,-115.5 0,-145.5 114,-145.5 114,-115.5 0,-115.5"/>
<text text-anchor="start" x="8" y="-133.5" font-family="Helvetica,sans-Serif" font-size="10.00" fill="#000000">mom_restart::restore</text>
<text text-anchor="middle" x="57" y="-122.5" font-family="Helvetica,sans-Serif" font-size="10.00" fill="#000000">_state</text>
</a>
</g>
</g>
<!-- Node2 -->
<g id="node2" class="node">
<title>Node2</title>
<g id="a_node2"><a xlink:href="namespacemom__restart.html#ac31159d0fec067a0a07ac1ac44a5ff8e" target="_top" xlink:title="Return bounds for computing checksums to store in restart files.">
<polygon fill="#ffffff" stroke="#000000" points="150,-225.5 150,-255.5 298,-255.5 298,-225.5 150,-225.5"/>
<text text-anchor="start" x="158" y="-243.5" font-family="Helvetica,sans-Serif" font-size="10.00" fill="#000000">mom_restart::get_checksum</text>
<text text-anchor="middle" x="224" y="-232.5" font-family="Helvetica,sans-Serif" font-size="10.00" fill="#000000">_loop_ranges</text>
</a>
</g>
</g>
<!-- Node1&#45;&gt;Node2 -->
<g id="edge1" class="edge">
<title>Node1&#45;&gt;Node2</title>
<path fill="none" stroke="#191970" d="M71.5847,-145.7548C88.9486,-163.2361 119.4551,-191.8661 150,-210.5 156.4276,-214.4212 163.4587,-218.0288 170.5479,-221.2796"/>
<polygon fill="#191970" stroke="#191970" points="169.6342,-224.6993 180.1998,-225.487 172.4315,-218.2825 169.6342,-224.6993"/>
</g>
<!-- Node3 -->
<g id="node3" class="node">
<title>Node3</title>
<g id="a_node3"><a xlink:href="namespacemom__error__handler.html#ad5f00a53059c72fe2332d1436c80ca71" target="_top" xlink:title="This returns .true. if the current PE is the root PE.">
<polygon fill="#ffffff" stroke="#000000" points="485,-49.5 485,-79.5 600,-79.5 600,-49.5 485,-49.5"/>
<text text-anchor="start" x="493" y="-67.5" font-family="Helvetica,sans-Serif" font-size="10.00" fill="#000000">mom_error_handler::</text>
<text text-anchor="middle" x="542.5" y="-56.5" font-family="Helvetica,sans-Serif" font-size="10.00" fill="#000000">is_root_pe</text>
</a>
</g>
</g>
<!-- Node1&#45;&gt;Node3 -->
<g id="edge2" class="edge">
<title>Node1&#45;&gt;Node3</title>
<path fill="none" stroke="#191970" d="M79.5251,-145.6839C97.6716,-156.9506 124.3074,-171.3766 150,-177.5 213.9856,-192.75 233.7573,-191.6275 298,-177.5 378.968,-159.6944 465.0511,-112.3568 510.3332,-84.9298"/>
<polygon fill="#191970" stroke="#191970" points="512.3978,-87.7696 519.0961,-79.5609 508.7408,-81.8008 512.3978,-87.7696"/>
</g>
<!-- Node4 -->
<g id="node4" class="node">
<title>Node4</title>
<g id="a_node4"><a xlink:href="namespacemom__string__functions.html#a4d76e9e8c2cd53f210b02006924a9212" target="_top" xlink:title="Return a string in which all uppercase letters have been replaced by their lowercase counterparts.">
<polygon fill="#ffffff" stroke="#000000" points="164.5,-137.5 164.5,-167.5 283.5,-167.5 283.5,-137.5 164.5,-137.5"/>
<text text-anchor="start" x="172.5" y="-155.5" font-family="Helvetica,sans-Serif" font-size="10.00" fill="#000000">mom_string_functions</text>
<text text-anchor="middle" x="224" y="-144.5" font-family="Helvetica,sans-Serif" font-size="10.00" fill="#000000">::lowercase</text>
</a>
</g>
</g>
<!-- Node1&#45;&gt;Node4 -->
<g id="edge3" class="edge">
<title>Node1&#45;&gt;Node4</title>
<path fill="none" stroke="#191970" d="M114.0048,-138.0096C126.9558,-139.7157 140.8554,-141.5468 154.2677,-143.3137"/>
<polygon fill="#191970" stroke="#191970" points="154.0339,-146.8131 164.4054,-144.6492 154.9482,-139.873 154.0339,-146.8131"/>
</g>
<!-- Node5 -->
<g id="node5" class="node">
<title>Node5</title>
<g id="a_node5"><a xlink:href="namespacemom__error__handler.html#a460cfb79a06c29fc249952c2a3710d67" target="_top" xlink:title="This provides a convenient interface for writing an mpp_error message with run&#45;time filter based on a...">
<polygon fill="#ffffff" stroke="#000000" points="334,-49.5 334,-79.5 449,-79.5 449,-49.5 334,-49.5"/>
<text text-anchor="start" x="342" y="-67.5" font-family="Helvetica,sans-Serif" font-size="10.00" fill="#000000">mom_error_handler::</text>
<text text-anchor="middle" x="391.5" y="-56.5" font-family="Helvetica,sans-Serif" font-size="10.00" fill="#000000">mom_error</text>
</a>
</g>
</g>
<!-- Node1&#45;&gt;Node5 -->
<g id="edge4" class="edge">
<title>Node1&#45;&gt;Node5</title>
<path fill="none" stroke="#191970" d="M114.2592,-122.2893C163.2711,-114.8965 235.5948,-103.1205 298,-89.5 308.0769,-87.3006 318.6969,-84.7187 329.0203,-82.064"/>
<polygon fill="#191970" stroke="#191970" points="330.0105,-85.4228 338.7997,-79.5067 328.2395,-78.6506 330.0105,-85.4228"/>
</g>
<!-- Node6 -->
<g id="node6" class="node">
<title>Node6</title>
<g id="a_node6"><a xlink:href="namespacemom__restart.html#aa4e2dbb538be7a86468409131316da96" target="_top" xlink:title="open_restart_units determines the number of existing restart files and optionally opens them and retu...">
<polygon fill="#ffffff" stroke="#000000" points="153.5,-.5 153.5,-30.5 294.5,-30.5 294.5,-.5 153.5,-.5"/>
<text text-anchor="start" x="161.5" y="-18.5" font-family="Helvetica,sans-Serif" font-size="10.00" fill="#000000">mom_restart::open_restart</text>
<text text-anchor="middle" x="224" y="-7.5" font-family="Helvetica,sans-Serif" font-size="10.00" fill="#000000">_units</text>
</a>
</g>
</g>
<!-- Node1&#45;&gt;Node6 -->
<g id="edge6" class="edge">
<title>Node1&#45;&gt;Node6</title>
<path fill="none" stroke="#191970" d="M68.9561,-115.3176C85.2948,-95.5074 116.4257,-60.9648 150,-40.5 153.4195,-38.4157 157.0347,-36.4796 160.7551,-34.6853"/>
<polygon fill="#191970" stroke="#191970" points="162.4439,-37.7652 170.1679,-30.5133 159.6074,-31.3656 162.4439,-37.7652"/>
</g>
<!-- Node7 -->
<g id="node7" class="node">
<title>Node7</title>
<g id="a_node7"><a xlink:href="namespacemom__restart.html#a4b143fb18dab7c0825e426fbf9532623" target="_top" xlink:title=" ">
<polygon fill="#ffffff" stroke="#000000" points="168.5,-49.5 168.5,-79.5 279.5,-79.5 279.5,-49.5 168.5,-49.5"/>
<text text-anchor="start" x="176.5" y="-67.5" font-family="Helvetica,sans-Serif" font-size="10.00" fill="#000000">mom_restart::restart</text>
<text text-anchor="middle" x="224" y="-56.5" font-family="Helvetica,sans-Serif" font-size="10.00" fill="#000000">_error</text>
</a>
</g>
</g>
<!-- Node1&#45;&gt;Node7 -->
<g id="edge9" class="edge">
<title>Node1&#45;&gt;Node7</title>
<path fill="none" stroke="#191970" d="M95.3132,-115.3583C119.3927,-105.8418 150.6467,-93.4899 176.3238,-83.3421"/>
<polygon fill="#191970" stroke="#191970" points="177.8515,-86.5018 185.8651,-79.5713 175.2786,-79.9918 177.8515,-86.5018"/>
</g>
<!-- Node5&#45;&gt;Node3 -->
<g id="edge5" class="edge">
<title>Node5&#45;&gt;Node3</title>
<path fill="none" stroke="#191970" d="M449.0174,-64.5C457.4639,-64.5 466.2292,-64.5 474.8561,-64.5"/>
<polygon fill="#191970" stroke="#191970" points="474.8926,-68.0001 484.8925,-64.5 474.8925,-61.0001 474.8926,-68.0001"/>
</g>
<!-- Node6&#45;&gt;Node3 -->
<g id="edge7" class="edge">
<title>Node6&#45;&gt;Node3</title>
<path fill="none" stroke="#191970" d="M294.5525,-20.775C339.0796,-24.736 397.6773,-31.11 449,-40.5 458.8911,-42.3097 469.2819,-44.5894 479.3948,-47.0195"/>
<polygon fill="#191970" stroke="#191970" points="478.8386,-50.4873 489.3862,-49.4878 480.5175,-43.6916 478.8386,-50.4873"/>
</g>
<!-- Node6&#45;&gt;Node5 -->
<g id="edge8" class="edge">
<title>Node6&#45;&gt;Node5</title>
<path fill="none" stroke="#191970" d="M275.6223,-30.6014C292.8976,-35.6551 312.3225,-41.3376 330.2594,-46.5848"/>
<polygon fill="#191970" stroke="#191970" points="329.4677,-49.9999 340.0482,-49.4484 331.4331,-43.2814 329.4677,-49.9999"/>
</g>
<!-- Node7&#45;&gt;Node5 -->
<g id="edge10" class="edge">
<title>Node7&#45;&gt;Node5</title>
<path fill="none" stroke="#191970" d="M279.7751,-64.5C293.9253,-64.5 309.2793,-64.5 323.9445,-64.5"/>
<polygon fill="#191970" stroke="#191970" points="323.9641,-68.0001 333.964,-64.5 323.964,-61.0001 323.9641,-68.0001"/>
</g>
</g>
</svg>
