<?xml version="1.0" encoding="UTF-8" standalone="no"?>
<!DOCTYPE svg PUBLIC "-//W3C//DTD SVG 1.1//EN"
 "http://www.w3.org/Graphics/SVG/1.1/DTD/svg11.dtd">
<!-- Generated by graphviz version 2.40.1 (20161225.0304)
 -->
<!-- Title: mom_document::open_doc_file Pages: 1 -->
<svg width="584pt" height="99pt"
 viewBox="0.00 0.00 584.00 99.00" xmlns="http://www.w3.org/2000/svg" xmlns:xlink="http://www.w3.org/1999/xlink">
<g id="graph0" class="graph" transform="scale(1 1) rotate(0) translate(4 95)">
<title>mom_document::open_doc_file</title>
<polygon fill="#ffffff" stroke="transparent" points="-4,4 -4,-95 580,-95 580,4 -4,4"/>
<!-- Node1 -->
<g id="node1" class="node">
<title>Node1</title>
<g id="a_node1"><a xlink:title="This subroutine allocates and populates a structure that controls where the documentation occurs and ...">
<polygon fill="#bfbfbf" stroke="#000000" points="0,-16.5 0,-46.5 119,-46.5 119,-16.5 0,-16.5"/>
<text text-anchor="start" x="8" y="-34.5" font-family="Helvetica,sans-Serif" font-size="10.00" fill="#000000">mom_document::open</text>
<text text-anchor="middle" x="59.5" y="-23.5" font-family="Helvetica,sans-Serif" font-size="10.00" fill="#000000">_doc_file</text>
</a>
</g>
</g>
<!-- Node2 -->
<g id="node2" class="node">
<title>Node2</title>
<g id="a_node2"><a xlink:href="namespacemom__document.html#a5f2661445a72a7d0f774677e91366db5" target="_top" xlink:title="Find an unused unit number, returning &gt;0 if found, and triggering a FATAL error if not.">
<polygon fill="#ffffff" stroke="#000000" points="155,-60.5 155,-90.5 274,-90.5 274,-60.5 155,-60.5"/>
<text text-anchor="start" x="163" y="-78.5" font-family="Helvetica,sans-Serif" font-size="10.00" fill="#000000">mom_document::find</text>
<text text-anchor="middle" x="214.5" y="-67.5" font-family="Helvetica,sans-Serif" font-size="10.00" fill="#000000">_unused_unit_number</text>
</a>
</g>
</g>
<!-- Node1&#45;&gt;Node2 -->
<g id="edge1" class="edge">
<title>Node1&#45;&gt;Node2</title>
<path fill="none" stroke="#191970" d="M112.4087,-46.5192C125.058,-50.11 138.6824,-53.9776 151.7287,-57.681"/>
<polygon fill="#191970" stroke="#191970" points="150.9911,-61.1099 161.5668,-60.4738 152.9027,-54.3759 150.9911,-61.1099"/>
</g>
<!-- Node3 -->
<g id="node3" class="node">
<title>Node3</title>
<g id="a_node3"><a xlink:href="namespacemom__error__handler.html#a460cfb79a06c29fc249952c2a3710d67" target="_top" xlink:title="This provides a convenient interface for writing an mpp_error message with run&#45;time filter based on a...">
<polygon fill="#ffffff" stroke="#000000" points="310,-22.5 310,-52.5 425,-52.5 425,-22.5 310,-22.5"/>
<text text-anchor="start" x="318" y="-40.5" font-family="Helvetica,sans-Serif" font-size="10.00" fill="#000000">mom_error_handler::</text>
<text text-anchor="middle" x="367.5" y="-29.5" font-family="Helvetica,sans-Serif" font-size="10.00" fill="#000000">mom_error</text>
</a>
</g>
</g>
<!-- Node1&#45;&gt;Node3 -->
<g id="edge5" class="edge">
<title>Node1&#45;&gt;Node3</title>
<path fill="none" stroke="#191970" d="M119.2507,-32.664C170.9374,-33.6709 245.6392,-35.1261 299.5817,-36.1769"/>
<polygon fill="#191970" stroke="#191970" points="299.6746,-39.6793 309.7409,-36.3748 299.811,-32.6806 299.6746,-39.6793"/>
</g>
<!-- Node4 -->
<g id="node4" class="node">
<title>Node4</title>
<g id="a_node4"><a xlink:href="namespacemom__error__handler.html#ad5f00a53059c72fe2332d1436c80ca71" target="_top" xlink:title="This returns .true. if the current PE is the root PE.">
<polygon fill="#ffffff" stroke="#000000" points="461,-.5 461,-30.5 576,-30.5 576,-.5 461,-.5"/>
<text text-anchor="start" x="469" y="-18.5" font-family="Helvetica,sans-Serif" font-size="10.00" fill="#000000">mom_error_handler::</text>
<text text-anchor="middle" x="518.5" y="-7.5" font-family="Helvetica,sans-Serif" font-size="10.00" fill="#000000">is_root_pe</text>
</a>
</g>
</g>
<!-- Node1&#45;&gt;Node4 -->
<g id="edge4" class="edge">
<title>Node1&#45;&gt;Node4</title>
<path fill="none" stroke="#191970" d="M119.1592,-26.0037C169.871,-21.622 244.6395,-15.8453 310,-13.5 361.0782,-11.6672 373.8918,-12.9535 425,-13.5 433.2851,-13.5886 441.9825,-13.7214 450.5986,-13.8771"/>
<polygon fill="#191970" stroke="#191970" points="450.581,-17.3773 460.6462,-14.0693 450.715,-10.3786 450.581,-17.3773"/>
</g>
<!-- Node2&#45;&gt;Node3 -->
<g id="edge2" class="edge">
<title>Node2&#45;&gt;Node3</title>
<path fill="none" stroke="#191970" d="M274.0919,-60.6994C282.5349,-58.6024 291.2672,-56.4336 299.8489,-54.3022"/>
<polygon fill="#191970" stroke="#191970" points="300.9661,-57.6312 309.8276,-51.8239 299.2788,-50.8376 300.9661,-57.6312"/>
</g>
<!-- Node3&#45;&gt;Node4 -->
<g id="edge3" class="edge">
<title>Node3&#45;&gt;Node4</title>
<path fill="none" stroke="#191970" d="M425.0174,-29.12C433.4639,-27.8894 442.2292,-26.6123 450.8561,-25.3554"/>
<polygon fill="#191970" stroke="#191970" points="451.5016,-28.7984 460.8925,-23.8931 450.4924,-21.8715 451.5016,-28.7984"/>
</g>
</g>
</svg>
