<?xml version="1.0" encoding="UTF-8" standalone="no"?>
<!DOCTYPE svg PUBLIC "-//W3C//DTD SVG 1.1//EN"
 "http://www.w3.org/Graphics/SVG/1.1/DTD/svg11.dtd">
<!-- Generated by graphviz version 2.40.1 (20161225.0304)
 -->
<!-- Title: mom_transcribe_grid::copy_mom_grid_to_dyngrid Pages: 1 -->
<svg width="493pt" height="88pt"
 viewBox="0.00 0.00 493.00 88.00" xmlns="http://www.w3.org/2000/svg" xmlns:xlink="http://www.w3.org/1999/xlink">
<g id="graph0" class="graph" transform="scale(1 1) rotate(0) translate(4 84)">
<title>mom_transcribe_grid::copy_mom_grid_to_dyngrid</title>
<polygon fill="#ffffff" stroke="transparent" points="-4,4 -4,-84 489,-84 489,4 -4,4"/>
<!-- Node1 -->
<g id="node1" class="node">
<title>Node1</title>
<g id="a_node1"><a xlink:title="Copies information from an ocean_grid_type into a dynamic (shared) horizontal grid type.">
<polygon fill="#bfbfbf" stroke="#000000" points="0,-24.5 0,-54.5 152,-54.5 152,-24.5 0,-24.5"/>
<text text-anchor="start" x="8" y="-42.5" font-family="Helvetica,sans-Serif" font-size="10.00" fill="#000000">mom_transcribe_grid</text>
<text text-anchor="middle" x="76" y="-31.5" font-family="Helvetica,sans-Serif" font-size="10.00" fill="#000000">::copy_mom_grid_to_dyngrid</text>
</a>
</g>
</g>
<!-- Node2 -->
<g id="node2" class="node">
<title>Node2</title>
<g id="a_node2"><a xlink:href="namespacemom__error__handler.html#a460cfb79a06c29fc249952c2a3710d67" target="_top" xlink:title="This provides a convenient interface for writing an mpp_error message with run&#45;time filter based on a...">
<polygon fill="#ffffff" stroke="#000000" points="191,-49.5 191,-79.5 306,-79.5 306,-49.5 191,-49.5"/>
<text text-anchor="start" x="199" y="-67.5" font-family="Helvetica,sans-Serif" font-size="10.00" fill="#000000">mom_error_handler::</text>
<text text-anchor="middle" x="248.5" y="-56.5" font-family="Helvetica,sans-Serif" font-size="10.00" fill="#000000">mom_error</text>
</a>
</g>
</g>
<!-- Node1&#45;&gt;Node2 -->
<g id="edge1" class="edge">
<title>Node1&#45;&gt;Node2</title>
<path fill="none" stroke="#191970" d="M152.1631,-50.5381C161.7076,-51.9214 171.4191,-53.3288 180.8214,-54.6915"/>
<polygon fill="#191970" stroke="#191970" points="180.4815,-58.1787 190.8801,-56.1493 181.4856,-51.2511 180.4815,-58.1787"/>
</g>
<!-- Node4 -->
<g id="node4" class="node">
<title>Node4</title>
<g id="a_node4"><a xlink:href="namespacemom__dyn__horgrid.html#a26c1389a380922c7c5d946cff3a9b11a" target="_top" xlink:title="set_derived_dyn_horgrid calculates metric terms that are derived from other metrics.">
<polygon fill="#ffffff" stroke="#000000" points="188,-.5 188,-30.5 309,-30.5 309,-.5 188,-.5"/>
<text text-anchor="start" x="196" y="-18.5" font-family="Helvetica,sans-Serif" font-size="10.00" fill="#000000">mom_dyn_horgrid::set</text>
<text text-anchor="middle" x="248.5" y="-7.5" font-family="Helvetica,sans-Serif" font-size="10.00" fill="#000000">_derived_dyn_horgrid</text>
</a>
</g>
</g>
<!-- Node1&#45;&gt;Node4 -->
<g id="edge3" class="edge">
<title>Node1&#45;&gt;Node4</title>
<path fill="none" stroke="#191970" d="M152.1631,-28.9034C160.633,-27.725 169.2344,-26.5283 177.6346,-25.3595"/>
<polygon fill="#191970" stroke="#191970" points="178.3365,-28.7957 187.7588,-23.951 177.3718,-21.8625 178.3365,-28.7957"/>
</g>
<!-- Node3 -->
<g id="node3" class="node">
<title>Node3</title>
<g id="a_node3"><a xlink:href="namespacemom__error__handler.html#ad5f00a53059c72fe2332d1436c80ca71" target="_top" xlink:title="This returns .true. if the current PE is the root PE.">
<polygon fill="#ffffff" stroke="#000000" points="357.5,-49.5 357.5,-79.5 472.5,-79.5 472.5,-49.5 357.5,-49.5"/>
<text text-anchor="start" x="365.5" y="-67.5" font-family="Helvetica,sans-Serif" font-size="10.00" fill="#000000">mom_error_handler::</text>
<text text-anchor="middle" x="415" y="-56.5" font-family="Helvetica,sans-Serif" font-size="10.00" fill="#000000">is_root_pe</text>
</a>
</g>
</g>
<!-- Node2&#45;&gt;Node3 -->
<g id="edge2" class="edge">
<title>Node2&#45;&gt;Node3</title>
<path fill="none" stroke="#191970" d="M306.2663,-64.5C319.4392,-64.5 333.5542,-64.5 347.1067,-64.5"/>
<polygon fill="#191970" stroke="#191970" points="347.3358,-68.0001 357.3358,-64.5 347.3357,-61.0001 347.3358,-68.0001"/>
</g>
<!-- Node5 -->
<g id="node5" class="node">
<title>Node5</title>
<g id="a_node5"><a xlink:href="namespacemom__dyn__horgrid.html#aa6579f50769698067defbc3c676e0191" target="_top" xlink:title="Adcroft_reciprocal(x) = 1/x for |x|&gt;0 or 0 for x=0.">
<polygon fill="#ffffff" stroke="#000000" points="345,-.5 345,-30.5 485,-30.5 485,-.5 345,-.5"/>
<text text-anchor="start" x="353" y="-18.5" font-family="Helvetica,sans-Serif" font-size="10.00" fill="#000000">mom_dyn_horgrid::adcroft</text>
<text text-anchor="middle" x="415" y="-7.5" font-family="Helvetica,sans-Serif" font-size="10.00" fill="#000000">_reciprocal</text>
</a>
</g>
</g>
<!-- Node4&#45;&gt;Node5 -->
<g id="edge4" class="edge">
<title>Node4&#45;&gt;Node5</title>
<path fill="none" stroke="#191970" d="M309.0813,-15.5C317.4351,-15.5 326.1186,-15.5 334.7587,-15.5"/>
<polygon fill="#191970" stroke="#191970" points="334.8594,-19.0001 344.8593,-15.5 334.8593,-12.0001 334.8594,-19.0001"/>
</g>
</g>
</svg>
