<?xml version="1.0" encoding="UTF-8" standalone="no"?>
<!DOCTYPE svg PUBLIC "-//W3C//DTD SVG 1.1//EN"
 "http://www.w3.org/Graphics/SVG/1.1/DTD/svg11.dtd">
<!-- Generated by graphviz version 2.40.1 (20161225.0304)
 -->
<!-- Title: mom_restart::determine_is_new_run Pages: 1 -->
<svg width="579pt" height="116pt"
 viewBox="0.00 0.00 579.00 115.50" xmlns="http://www.w3.org/2000/svg" xmlns:xlink="http://www.w3.org/1999/xlink">
<g id="graph0" class="graph" transform="scale(1 1) rotate(0) translate(4 111.5)">
<title>mom_restart::determine_is_new_run</title>
<polygon fill="#ffffff" stroke="transparent" points="-4,4 -4,-111.5 575,-111.5 575,4 -4,4"/>
<!-- Node1 -->
<g id="node1" class="node">
<title>Node1</title>
<g id="a_node1"><a xlink:title="determine_is_new_run determines from the value of filename and the existence automatically named rest...">
<polygon fill="#bfbfbf" stroke="#000000" points="0,-44.5 0,-74.5 120,-74.5 120,-44.5 0,-44.5"/>
<text text-anchor="start" x="8" y="-62.5" font-family="Helvetica,sans-Serif" font-size="10.00" fill="#000000">mom_restart::determine</text>
<text text-anchor="middle" x="60" y="-51.5" font-family="Helvetica,sans-Serif" font-size="10.00" fill="#000000">_is_new_run</text>
</a>
</g>
</g>
<!-- Node2 -->
<g id="node2" class="node">
<title>Node2</title>
<g id="a_node2"><a xlink:href="namespacemom__restart.html#a39d14aecb41df2cc730035cca8467f69" target="_top" xlink:title="is_new_run returns whether this is going to be a new run based on the information stored in CS by a p...">
<polygon fill="#ffffff" stroke="#000000" points="158,-88 158,-107 285,-107 285,-88 158,-88"/>
<text text-anchor="middle" x="221.5" y="-95" font-family="Helvetica,sans-Serif" font-size="10.00" fill="#000000">mom_restart::is_new_run</text>
</a>
</g>
</g>
<!-- Node1&#45;&gt;Node2 -->
<g id="edge1" class="edge">
<title>Node1&#45;&gt;Node2</title>
<path fill="none" stroke="#191970" d="M120.1366,-73.6498C136.921,-77.5991 154.9788,-81.8479 171.1363,-85.6497"/>
<polygon fill="#191970" stroke="#191970" points="170.3868,-89.0689 180.9226,-87.9524 171.9901,-82.255 170.3868,-89.0689"/>
</g>
<!-- Node3 -->
<g id="node3" class="node">
<title>Node3</title>
<g id="a_node3"><a xlink:href="namespacemom__error__handler.html#a460cfb79a06c29fc249952c2a3710d67" target="_top" xlink:title="This provides a convenient interface for writing an mpp_error message with run&#45;time filter based on a...">
<polygon fill="#ffffff" stroke="#000000" points="323,-44.5 323,-74.5 429,-74.5 429,-44.5 323,-44.5"/>
<text text-anchor="start" x="331" y="-62.5" font-family="Helvetica,sans-Serif" font-size="10.00" fill="#000000">mom_error_handler::</text>
<text text-anchor="middle" x="376" y="-51.5" font-family="Helvetica,sans-Serif" font-size="10.00" fill="#000000">mom_error</text>
</a>
</g>
</g>
<!-- Node1&#45;&gt;Node3 -->
<g id="edge4" class="edge">
<title>Node1&#45;&gt;Node3</title>
<path fill="none" stroke="#191970" d="M120.181,-59.5C175.3063,-59.5 256.6223,-59.5 312.7069,-59.5"/>
<polygon fill="#191970" stroke="#191970" points="312.8735,-63.0001 322.8735,-59.5 312.8734,-56.0001 312.8735,-63.0001"/>
</g>
<!-- Node5 -->
<g id="node5" class="node">
<title>Node5</title>
<g id="a_node5"><a xlink:href="namespacemom__restart.html#aa4e2dbb538be7a86468409131316da96" target="_top" xlink:title="open_restart_units determines the number of existing restart files and optionally opens them and retu...">
<polygon fill="#ffffff" stroke="#000000" points="156,-.5 156,-30.5 287,-30.5 287,-.5 156,-.5"/>
<text text-anchor="start" x="164" y="-18.5" font-family="Helvetica,sans-Serif" font-size="10.00" fill="#000000">mom_restart::open_restart</text>
<text text-anchor="middle" x="221.5" y="-7.5" font-family="Helvetica,sans-Serif" font-size="10.00" fill="#000000">_units</text>
</a>
</g>
</g>
<!-- Node1&#45;&gt;Node5 -->
<g id="edge5" class="edge">
<title>Node1&#45;&gt;Node5</title>
<path fill="none" stroke="#191970" d="M115.1274,-44.4808C128.4364,-40.8548 142.7814,-36.9466 156.4959,-33.2101"/>
<polygon fill="#191970" stroke="#191970" points="157.6187,-36.5318 166.347,-30.5262 155.7786,-29.778 157.6187,-36.5318"/>
</g>
<!-- Node2&#45;&gt;Node3 -->
<g id="edge2" class="edge">
<title>Node2&#45;&gt;Node3</title>
<path fill="none" stroke="#191970" d="M260.4869,-87.911C276.4017,-83.9967 295.2151,-79.3694 312.9872,-74.9983"/>
<polygon fill="#191970" stroke="#191970" points="313.8538,-78.3895 322.7285,-72.6024 312.1819,-71.5921 313.8538,-78.3895"/>
</g>
<!-- Node4 -->
<g id="node4" class="node">
<title>Node4</title>
<g id="a_node4"><a xlink:href="namespacemom__error__handler.html#ad5f00a53059c72fe2332d1436c80ca71" target="_top" xlink:title="This returns .true. if the current PE is the root PE.">
<polygon fill="#ffffff" stroke="#000000" points="465,-22.5 465,-52.5 571,-52.5 571,-22.5 465,-22.5"/>
<text text-anchor="start" x="473" y="-40.5" font-family="Helvetica,sans-Serif" font-size="10.00" fill="#000000">mom_error_handler::</text>
<text text-anchor="middle" x="518" y="-29.5" font-family="Helvetica,sans-Serif" font-size="10.00" fill="#000000">is_root_pe</text>
</a>
</g>
</g>
<!-- Node3&#45;&gt;Node4 -->
<g id="edge3" class="edge">
<title>Node3&#45;&gt;Node4</title>
<path fill="none" stroke="#191970" d="M429.2796,-51.2454C437.651,-49.9484 446.3736,-48.5971 454.94,-47.2699"/>
<polygon fill="#191970" stroke="#191970" points="455.5479,-50.7175 464.8941,-45.7277 454.4761,-43.8001 455.5479,-50.7175"/>
</g>
<!-- Node5&#45;&gt;Node3 -->
<g id="edge7" class="edge">
<title>Node5&#45;&gt;Node3</title>
<path fill="none" stroke="#191970" d="M274.238,-30.5192C286.8465,-34.11 300.427,-37.9776 313.4311,-41.681"/>
<polygon fill="#191970" stroke="#191970" points="312.6613,-45.1009 323.2375,-44.4738 314.5786,-38.3686 312.6613,-45.1009"/>
</g>
<!-- Node5&#45;&gt;Node4 -->
<g id="edge6" class="edge">
<title>Node5&#45;&gt;Node4</title>
<path fill="none" stroke="#191970" d="M287.303,-20.3825C337.1572,-24.0816 405.2507,-29.1341 454.5248,-32.7902"/>
<polygon fill="#191970" stroke="#191970" points="454.5087,-36.2985 464.7403,-33.5482 455.0268,-29.3177 454.5087,-36.2985"/>
</g>
</g>
</svg>
