<?xml version="1.0" encoding="UTF-8" standalone="no"?>
<!DOCTYPE svg PUBLIC "-//W3C//DTD SVG 1.1//EN"
 "http://www.w3.org/Graphics/SVG/1.1/DTD/svg11.dtd">
<!-- Generated by graphviz version 2.40.1 (20161225.0304)
 -->
<!-- Title: mom_continuity::continuity Pages: 1 -->
<svg width="339pt" height="88pt"
 viewBox="0.00 0.00 339.00 88.00" xmlns="http://www.w3.org/2000/svg" xmlns:xlink="http://www.w3.org/1999/xlink">
<g id="graph0" class="graph" transform="scale(1 1) rotate(0) translate(4 84)">
<title>mom_continuity::continuity</title>
<polygon fill="#ffffff" stroke="transparent" points="-4,4 -4,-84 335,-84 335,4 -4,4"/>
<!-- Node1 -->
<g id="node1" class="node">
<title>Node1</title>
<g id="a_node1"><a xlink:title="Time steps the layer thicknesses, using a monotonically limited, directionally split PPM scheme,...">
<polygon fill="#bfbfbf" stroke="#000000" points="197,-30 197,-49 331,-49 331,-30 197,-30"/>
<text text-anchor="middle" x="264" y="-37" font-family="Helvetica,sans-Serif" font-size="10.00" fill="#000000">mom_continuity::continuity</text>
</a>
</g>
</g>
<!-- Node2 -->
<g id="node2" class="node">
<title>Node2</title>
<g id="a_node2"><a xlink:href="namespacemom__dynamics__unsplit.html#ab72d911d187f9247b6cc72d87e815370" target="_top" xlink:title="Step the MOM6 dynamics using an unsplit mixed 2nd order (for continuity) and 3rd order (for the invis...">
<polygon fill="#ffffff" stroke="#000000" points="19,-49.5 19,-79.5 142,-79.5 142,-49.5 19,-49.5"/>
<text text-anchor="start" x="27" y="-67.5" font-family="Helvetica,sans-Serif" font-size="10.00" fill="#000000">mom_dynamics_unsplit</text>
<text text-anchor="middle" x="80.5" y="-56.5" font-family="Helvetica,sans-Serif" font-size="10.00" fill="#000000">::step_mom_dyn_unsplit</text>
</a>
</g>
</g>
<!-- Node1&#45;&gt;Node2 -->
<g id="edge1" class="edge">
<title>Node1&#45;&gt;Node2</title>
<path fill="none" stroke="#191970" d="M186.7718,-50.0216C171.8866,-52.0495 156.4782,-54.1487 142.1677,-56.0984"/>
<polygon fill="#191970" stroke="#191970" points="187.5374,-53.4497 196.9734,-48.6317 186.5924,-46.5137 187.5374,-53.4497"/>
</g>
<!-- Node3 -->
<g id="node3" class="node">
<title>Node3</title>
<g id="a_node3"><a xlink:href="namespacemom__dynamics__unsplit__rk2.html#a25424d65cc3339442e528c0a92b173a3" target="_top" xlink:title="Step the MOM6 dynamics using an unsplit quasi&#45;2nd order Runge&#45;Kutta scheme.">
<polygon fill="#ffffff" stroke="#000000" points="0,-.5 0,-30.5 161,-30.5 161,-.5 0,-.5"/>
<text text-anchor="start" x="8" y="-18.5" font-family="Helvetica,sans-Serif" font-size="10.00" fill="#000000">mom_dynamics_unsplit</text>
<text text-anchor="middle" x="80.5" y="-7.5" font-family="Helvetica,sans-Serif" font-size="10.00" fill="#000000">_rk2::step_mom_dyn_unsplit_rk2</text>
</a>
</g>
</g>
<!-- Node1&#45;&gt;Node3 -->
<g id="edge2" class="edge">
<title>Node1&#45;&gt;Node3</title>
<path fill="none" stroke="#191970" d="M187.0073,-29.4301C178.4327,-28.3086 169.6815,-27.1641 161.064,-26.037"/>
<polygon fill="#191970" stroke="#191970" points="186.6039,-32.9071 196.9734,-30.7336 187.5117,-25.9662 186.6039,-32.9071"/>
</g>
</g>
</svg>
