<?xml version="1.0" encoding="UTF-8" standalone="no"?>
<!DOCTYPE svg PUBLIC "-//W3C//DTD SVG 1.1//EN"
 "http://www.w3.org/Graphics/SVG/1.1/DTD/svg11.dtd">
<!-- Generated by graphviz version 2.40.1 (20161225.0304)
 -->
<!-- Title: mom_file_parser::overridewarninghasbeenissued Pages: 1 -->
<svg width="673pt" height="382pt"
 viewBox="0.00 0.00 673.00 382.00" xmlns="http://www.w3.org/2000/svg" xmlns:xlink="http://www.w3.org/1999/xlink">
<g id="graph0" class="graph" transform="scale(1 1) rotate(0) translate(4 378)">
<title>mom_file_parser::overridewarninghasbeenissued</title>
<polygon fill="#ffffff" stroke="transparent" points="-4,4 -4,-378 669,-378 669,4 -4,4"/>
<!-- Node1 -->
<g id="node1" class="node">
<title>Node1</title>
<g id="a_node1"><a xlink:title="Returns true if an override warning has been issued for the variable varName.">
<polygon fill="#bfbfbf" stroke="#000000" points="437,-177 437,-196 665,-196 665,-177 437,-177"/>
<text text-anchor="middle" x="551" y="-184" font-family="Helvetica,sans-Serif" font-size="10.00" fill="#000000">mom_file_parser::overridewarninghasbeenissued</text>
</a>
</g>
</g>
<!-- Node2 -->
<g id="node2" class="node">
<title>Node2</title>
<g id="a_node2"><a xlink:href="namespacemom__file__parser.html#af883df6020543889b25986d6ee9701f7" target="_top" xlink:title="This subtoutine extracts the contents of lines in the param_file_type that refer to a named parameter...">
<polygon fill="#ffffff" stroke="#000000" points="293,-171.5 293,-201.5 401,-201.5 401,-171.5 293,-171.5"/>
<text text-anchor="start" x="301" y="-189.5" font-family="Helvetica,sans-Serif" font-size="10.00" fill="#000000">mom_file_parser::get</text>
<text text-anchor="middle" x="347" y="-178.5" font-family="Helvetica,sans-Serif" font-size="10.00" fill="#000000">_variable_line</text>
</a>
</g>
</g>
<!-- Node1&#45;&gt;Node2 -->
<g id="edge1" class="edge">
<title>Node1&#45;&gt;Node2</title>
<path fill="none" stroke="#191970" d="M426.6869,-186.5C417.8278,-186.5 409.2049,-186.5 401.1034,-186.5"/>
<polygon fill="#191970" stroke="#191970" points="426.7743,-190.0001 436.7742,-186.5 426.7742,-183.0001 426.7743,-190.0001"/>
</g>
<!-- Node3 -->
<g id="node3" class="node">
<title>Node3</title>
<g id="a_node3"><a xlink:href="namespacemom__file__parser.html#a14c84db15e417656105f7303ad0ac2a2" target="_top" xlink:title="This subroutine reads the value of a character string model parameter from a parameter file.">
<polygon fill="#ffffff" stroke="#000000" points="144,-343.5 144,-373.5 257,-373.5 257,-343.5 144,-343.5"/>
<text text-anchor="start" x="152" y="-361.5" font-family="Helvetica,sans-Serif" font-size="10.00" fill="#000000">mom_file_parser::read</text>
<text text-anchor="middle" x="200.5" y="-350.5" font-family="Helvetica,sans-Serif" font-size="10.00" fill="#000000">_param_char</text>
</a>
</g>
</g>
<!-- Node2&#45;&gt;Node3 -->
<g id="edge2" class="edge">
<title>Node2&#45;&gt;Node3</title>
<path fill="none" stroke="#191970" d="M337.6387,-211.2043C324.2632,-243.5192 296.8173,-300.0635 257,-334.5 253.1308,-337.8463 248.7262,-340.7815 244.1231,-343.3421"/>
<polygon fill="#191970" stroke="#191970" points="341.0078,-212.2066 341.4849,-201.6225 334.5116,-209.599 341.0078,-212.2066"/>
</g>
<!-- Node5 -->
<g id="node5" class="node">
<title>Node5</title>
<g id="a_node5"><a xlink:href="namespacemom__file__parser.html#a67808253e247b2542d0810e7c7f598f4" target="_top" xlink:title="This subroutine reads the values of an array of character string model parameters from a parameter fi...">
<polygon fill="#ffffff" stroke="#000000" points="144,-294.5 144,-324.5 257,-324.5 257,-294.5 144,-294.5"/>
<text text-anchor="start" x="152" y="-312.5" font-family="Helvetica,sans-Serif" font-size="10.00" fill="#000000">mom_file_parser::read</text>
<text text-anchor="middle" x="200.5" y="-301.5" font-family="Helvetica,sans-Serif" font-size="10.00" fill="#000000">_param_char_array</text>
</a>
</g>
</g>
<!-- Node2&#45;&gt;Node5 -->
<g id="edge4" class="edge">
<title>Node2&#45;&gt;Node5</title>
<path fill="none" stroke="#191970" d="M330.4174,-209.9355C313.8987,-231.8792 286.7638,-264.371 257,-285.5 252.3073,-288.8313 247.0803,-291.8251 241.7534,-294.4755"/>
<polygon fill="#191970" stroke="#191970" points="333.295,-211.9305 336.4158,-201.8057 327.6622,-207.7745 333.295,-211.9305"/>
</g>
<!-- Node7 -->
<g id="node7" class="node">
<title>Node7</title>
<g id="a_node7"><a xlink:href="namespacemom__file__parser.html#a28352549cebdb1f8ed8db3655258d502" target="_top" xlink:title="This subroutine reads the value of an integer model parameter from a parameter file.">
<polygon fill="#ffffff" stroke="#000000" points="144,-245.5 144,-275.5 257,-275.5 257,-245.5 144,-245.5"/>
<text text-anchor="start" x="152" y="-263.5" font-family="Helvetica,sans-Serif" font-size="10.00" fill="#000000">mom_file_parser::read</text>
<text text-anchor="middle" x="200.5" y="-252.5" font-family="Helvetica,sans-Serif" font-size="10.00" fill="#000000">_param_int</text>
</a>
</g>
</g>
<!-- Node2&#45;&gt;Node7 -->
<g id="edge6" class="edge">
<title>Node2&#45;&gt;Node7</title>
<path fill="none" stroke="#191970" d="M312.593,-206.7334C296.0085,-216.1962 275.7006,-227.3651 257,-236.5 250.7757,-239.5405 244.0697,-242.5842 237.5279,-245.4335"/>
<polygon fill="#191970" stroke="#191970" points="314.465,-209.6943 321.3896,-201.6755 310.9758,-203.6259 314.465,-209.6943"/>
</g>
<!-- Node9 -->
<g id="node9" class="node">
<title>Node9</title>
<g id="a_node9"><a xlink:href="namespacemom__file__parser.html#a9f3cacd113743a19df607293b6c30ec7" target="_top" xlink:title="This subroutine reads the values of an array of integer model parameters from a parameter file.">
<polygon fill="#ffffff" stroke="#000000" points="144,-196.5 144,-226.5 257,-226.5 257,-196.5 144,-196.5"/>
<text text-anchor="start" x="152" y="-214.5" font-family="Helvetica,sans-Serif" font-size="10.00" fill="#000000">mom_file_parser::read</text>
<text text-anchor="middle" x="200.5" y="-203.5" font-family="Helvetica,sans-Serif" font-size="10.00" fill="#000000">_param_int_array</text>
</a>
</g>
</g>
<!-- Node2&#45;&gt;Node9 -->
<g id="edge8" class="edge">
<title>Node2&#45;&gt;Node9</title>
<path fill="none" stroke="#191970" d="M282.9651,-197.4275C274.4415,-198.882 265.7489,-200.3654 257.3586,-201.7972"/>
<polygon fill="#191970" stroke="#191970" points="283.5963,-200.8704 292.865,-195.738 282.4187,-193.9702 283.5963,-200.8704"/>
</g>
<!-- Node11 -->
<g id="node11" class="node">
<title>Node11</title>
<g id="a_node11"><a xlink:href="namespacemom__file__parser.html#ae12cfb8a4de90b0454683ba5810c79a2" target="_top" xlink:title="This subroutine reads the value of a logical model parameter from a parameter file.">
<polygon fill="#ffffff" stroke="#000000" points="144,-147.5 144,-177.5 257,-177.5 257,-147.5 144,-147.5"/>
<text text-anchor="start" x="152" y="-165.5" font-family="Helvetica,sans-Serif" font-size="10.00" fill="#000000">mom_file_parser::read</text>
<text text-anchor="middle" x="200.5" y="-154.5" font-family="Helvetica,sans-Serif" font-size="10.00" fill="#000000">_param_logical</text>
</a>
</g>
</g>
<!-- Node2&#45;&gt;Node11 -->
<g id="edge10" class="edge">
<title>Node2&#45;&gt;Node11</title>
<path fill="none" stroke="#191970" d="M282.9651,-176.0096C274.4415,-174.6133 265.7489,-173.1892 257.3586,-171.8147"/>
<polygon fill="#191970" stroke="#191970" points="282.4307,-179.4687 292.865,-177.6315 283.5624,-172.5608 282.4307,-179.4687"/>
</g>
<!-- Node13 -->
<g id="node13" class="node">
<title>Node13</title>
<g id="a_node13"><a xlink:href="namespacemom__file__parser.html#a95b28c92ef3603d3fb20b0a6d133d4ad" target="_top" xlink:title="This subroutine reads the value of a real model parameter from a parameter file.">
<polygon fill="#ffffff" stroke="#000000" points="144,-98.5 144,-128.5 257,-128.5 257,-98.5 144,-98.5"/>
<text text-anchor="start" x="152" y="-116.5" font-family="Helvetica,sans-Serif" font-size="10.00" fill="#000000">mom_file_parser::read</text>
<text text-anchor="middle" x="200.5" y="-105.5" font-family="Helvetica,sans-Serif" font-size="10.00" fill="#000000">_param_real</text>
</a>
</g>
</g>
<!-- Node2&#45;&gt;Node13 -->
<g id="edge12" class="edge">
<title>Node2&#45;&gt;Node13</title>
<path fill="none" stroke="#191970" d="M310.9016,-166.4682C294.5819,-157.6146 274.9661,-147.2512 257,-138.5 250.1533,-135.165 242.7584,-131.7569 235.6461,-128.5728"/>
<polygon fill="#191970" stroke="#191970" points="309.6373,-169.7655 320.0921,-171.483 312.9903,-163.6208 309.6373,-169.7655"/>
</g>
<!-- Node15 -->
<g id="node15" class="node">
<title>Node15</title>
<g id="a_node15"><a xlink:href="namespacemom__file__parser.html#ae85623b4210b35c5e583d48ff536d596" target="_top" xlink:title="This subroutine reads the values of an array of real model parameters from a parameter file.">
<polygon fill="#ffffff" stroke="#000000" points="144,-49.5 144,-79.5 257,-79.5 257,-49.5 144,-49.5"/>
<text text-anchor="start" x="152" y="-67.5" font-family="Helvetica,sans-Serif" font-size="10.00" fill="#000000">mom_file_parser::read</text>
<text text-anchor="middle" x="200.5" y="-56.5" font-family="Helvetica,sans-Serif" font-size="10.00" fill="#000000">_param_real_array</text>
</a>
</g>
</g>
<!-- Node2&#45;&gt;Node15 -->
<g id="edge14" class="edge">
<title>Node2&#45;&gt;Node15</title>
<path fill="none" stroke="#191970" d="M329.7453,-163.0093C313.0618,-141.6057 286.0923,-110.2559 257,-89.5 251.8482,-85.8244 246.07,-82.5152 240.2278,-79.5986"/>
<polygon fill="#191970" stroke="#191970" points="327.1803,-165.4169 336.0341,-171.236 332.7415,-161.1657 327.1803,-165.4169"/>
</g>
<!-- Node17 -->
<g id="node17" class="node">
<title>Node17</title>
<g id="a_node17"><a xlink:href="namespacemom__file__parser.html#a799f1d8af038c5a64b7496018f03b590" target="_top" xlink:title="This subroutine reads the value of a time_type model parameter from a parameter file.">
<polygon fill="#ffffff" stroke="#000000" points="144,-.5 144,-30.5 257,-30.5 257,-.5 144,-.5"/>
<text text-anchor="start" x="152" y="-18.5" font-family="Helvetica,sans-Serif" font-size="10.00" fill="#000000">mom_file_parser::read</text>
<text text-anchor="middle" x="200.5" y="-7.5" font-family="Helvetica,sans-Serif" font-size="10.00" fill="#000000">_param_time</text>
</a>
</g>
</g>
<!-- Node2&#45;&gt;Node17 -->
<g id="edge16" class="edge">
<title>Node2&#45;&gt;Node17</title>
<path fill="none" stroke="#191970" d="M337.2651,-161.7263C323.6344,-129.8678 296.0717,-74.5946 257,-40.5 252.6357,-36.6917 247.5987,-33.3776 242.3669,-30.5188"/>
<polygon fill="#191970" stroke="#191970" points="334.1285,-163.2993 341.198,-171.1907 340.5926,-160.6131 334.1285,-163.2993"/>
</g>
<!-- Node4 -->
<g id="node4" class="node">
<title>Node4</title>
<g id="a_node4"><a xlink:href="namespacemom__file__parser.html#ad4bee0d73cd5df0bb017180f354f514b" target="_top" xlink:title="This subroutine reads the value of a character string model parameter from a parameter file and logs ...">
<polygon fill="#ffffff" stroke="#000000" points="0,-343.5 0,-373.5 108,-373.5 108,-343.5 0,-343.5"/>
<text text-anchor="start" x="8" y="-361.5" font-family="Helvetica,sans-Serif" font-size="10.00" fill="#000000">mom_file_parser::get</text>
<text text-anchor="middle" x="54" y="-350.5" font-family="Helvetica,sans-Serif" font-size="10.00" fill="#000000">_param_char</text>
</a>
</g>
</g>
<!-- Node3&#45;&gt;Node4 -->
<g id="edge3" class="edge">
<title>Node3&#45;&gt;Node4</title>
<path fill="none" stroke="#191970" d="M133.8264,-358.5C125.2074,-358.5 116.466,-358.5 108.0846,-358.5"/>
<polygon fill="#191970" stroke="#191970" points="133.8593,-362.0001 143.8593,-358.5 133.8592,-355.0001 133.8593,-362.0001"/>
</g>
<!-- Node6 -->
<g id="node6" class="node">
<title>Node6</title>
<g id="a_node6"><a xlink:href="namespacemom__file__parser.html#aa3f8a251fb4f7bbae28b136ebc17a8f3" target="_top" xlink:title="This subroutine reads the values of an array of character string model parameters from a parameter fi...">
<polygon fill="#ffffff" stroke="#000000" points="0,-294.5 0,-324.5 108,-324.5 108,-294.5 0,-294.5"/>
<text text-anchor="start" x="8" y="-312.5" font-family="Helvetica,sans-Serif" font-size="10.00" fill="#000000">mom_file_parser::get</text>
<text text-anchor="middle" x="54" y="-301.5" font-family="Helvetica,sans-Serif" font-size="10.00" fill="#000000">_param_char_array</text>
</a>
</g>
</g>
<!-- Node5&#45;&gt;Node6 -->
<g id="edge5" class="edge">
<title>Node5&#45;&gt;Node6</title>
<path fill="none" stroke="#191970" d="M133.8264,-309.5C125.2074,-309.5 116.466,-309.5 108.0846,-309.5"/>
<polygon fill="#191970" stroke="#191970" points="133.8593,-313.0001 143.8593,-309.5 133.8592,-306.0001 133.8593,-313.0001"/>
</g>
<!-- Node8 -->
<g id="node8" class="node">
<title>Node8</title>
<g id="a_node8"><a xlink:href="namespacemom__file__parser.html#ac9428b418b2382019d418c0e30c97734" target="_top" xlink:title="This subroutine reads the value of an integer model parameter from a parameter file and logs it in do...">
<polygon fill="#ffffff" stroke="#000000" points="0,-245.5 0,-275.5 108,-275.5 108,-245.5 0,-245.5"/>
<text text-anchor="start" x="8" y="-263.5" font-family="Helvetica,sans-Serif" font-size="10.00" fill="#000000">mom_file_parser::get</text>
<text text-anchor="middle" x="54" y="-252.5" font-family="Helvetica,sans-Serif" font-size="10.00" fill="#000000">_param_int</text>
</a>
</g>
</g>
<!-- Node7&#45;&gt;Node8 -->
<g id="edge7" class="edge">
<title>Node7&#45;&gt;Node8</title>
<path fill="none" stroke="#191970" d="M133.8264,-260.5C125.2074,-260.5 116.466,-260.5 108.0846,-260.5"/>
<polygon fill="#191970" stroke="#191970" points="133.8593,-264.0001 143.8593,-260.5 133.8592,-257.0001 133.8593,-264.0001"/>
</g>
<!-- Node10 -->
<g id="node10" class="node">
<title>Node10</title>
<g id="a_node10"><a xlink:href="namespacemom__file__parser.html#a07b858dc2b7ce18929501b4738e96c3a" target="_top" xlink:title="This subroutine reads the values of an array of integer model parameters from a parameter file and lo...">
<polygon fill="#ffffff" stroke="#000000" points="0,-196.5 0,-226.5 108,-226.5 108,-196.5 0,-196.5"/>
<text text-anchor="start" x="8" y="-214.5" font-family="Helvetica,sans-Serif" font-size="10.00" fill="#000000">mom_file_parser::get</text>
<text text-anchor="middle" x="54" y="-203.5" font-family="Helvetica,sans-Serif" font-size="10.00" fill="#000000">_param_int_array</text>
</a>
</g>
</g>
<!-- Node9&#45;&gt;Node10 -->
<g id="edge9" class="edge">
<title>Node9&#45;&gt;Node10</title>
<path fill="none" stroke="#191970" d="M133.8264,-211.5C125.2074,-211.5 116.466,-211.5 108.0846,-211.5"/>
<polygon fill="#191970" stroke="#191970" points="133.8593,-215.0001 143.8593,-211.5 133.8592,-208.0001 133.8593,-215.0001"/>
</g>
<!-- Node12 -->
<g id="node12" class="node">
<title>Node12</title>
<g id="a_node12"><a xlink:href="namespacemom__file__parser.html#a470b3af82a8b146f375e4ca13c58e70f" target="_top" xlink:title="This subroutine reads the value of a logical model parameter from a parameter file and logs it in doc...">
<polygon fill="#ffffff" stroke="#000000" points="0,-147.5 0,-177.5 108,-177.5 108,-147.5 0,-147.5"/>
<text text-anchor="start" x="8" y="-165.5" font-family="Helvetica,sans-Serif" font-size="10.00" fill="#000000">mom_file_parser::get</text>
<text text-anchor="middle" x="54" y="-154.5" font-family="Helvetica,sans-Serif" font-size="10.00" fill="#000000">_param_logical</text>
</a>
</g>
</g>
<!-- Node11&#45;&gt;Node12 -->
<g id="edge11" class="edge">
<title>Node11&#45;&gt;Node12</title>
<path fill="none" stroke="#191970" d="M133.8264,-162.5C125.2074,-162.5 116.466,-162.5 108.0846,-162.5"/>
<polygon fill="#191970" stroke="#191970" points="133.8593,-166.0001 143.8593,-162.5 133.8592,-159.0001 133.8593,-166.0001"/>
</g>
<!-- Node14 -->
<g id="node14" class="node">
<title>Node14</title>
<g id="a_node14"><a xlink:href="namespacemom__file__parser.html#a2d6fb93c7802322c2ed145413aacaf30" target="_top" xlink:title="This subroutine reads the value of a real model parameter from a parameter file and logs it in docume...">
<polygon fill="#ffffff" stroke="#000000" points="0,-98.5 0,-128.5 108,-128.5 108,-98.5 0,-98.5"/>
<text text-anchor="start" x="8" y="-116.5" font-family="Helvetica,sans-Serif" font-size="10.00" fill="#000000">mom_file_parser::get</text>
<text text-anchor="middle" x="54" y="-105.5" font-family="Helvetica,sans-Serif" font-size="10.00" fill="#000000">_param_real</text>
</a>
</g>
</g>
<!-- Node13&#45;&gt;Node14 -->
<g id="edge13" class="edge">
<title>Node13&#45;&gt;Node14</title>
<path fill="none" stroke="#191970" d="M133.8264,-113.5C125.2074,-113.5 116.466,-113.5 108.0846,-113.5"/>
<polygon fill="#191970" stroke="#191970" points="133.8593,-117.0001 143.8593,-113.5 133.8592,-110.0001 133.8593,-117.0001"/>
</g>
<!-- Node16 -->
<g id="node16" class="node">
<title>Node16</title>
<g id="a_node16"><a xlink:href="namespacemom__file__parser.html#aaea9c54ad3bb4ad7a6e41a5f9715fb34" target="_top" xlink:title="This subroutine reads the values of an array of real model parameters from a parameter file and logs ...">
<polygon fill="#ffffff" stroke="#000000" points="0,-49.5 0,-79.5 108,-79.5 108,-49.5 0,-49.5"/>
<text text-anchor="start" x="8" y="-67.5" font-family="Helvetica,sans-Serif" font-size="10.00" fill="#000000">mom_file_parser::get</text>
<text text-anchor="middle" x="54" y="-56.5" font-family="Helvetica,sans-Serif" font-size="10.00" fill="#000000">_param_real_array</text>
</a>
</g>
</g>
<!-- Node15&#45;&gt;Node16 -->
<g id="edge15" class="edge">
<title>Node15&#45;&gt;Node16</title>
<path fill="none" stroke="#191970" d="M133.8264,-64.5C125.2074,-64.5 116.466,-64.5 108.0846,-64.5"/>
<polygon fill="#191970" stroke="#191970" points="133.8593,-68.0001 143.8593,-64.5 133.8592,-61.0001 133.8593,-68.0001"/>
</g>
<!-- Node18 -->
<g id="node18" class="node">
<title>Node18</title>
<g id="a_node18"><a xlink:href="namespacemom__file__parser.html#ab433eff650ddf3ce82d97f1c8432b6a8" target="_top" xlink:title="This subroutine reads the value of a time&#45;type model parameter from a parameter file and logs it in d...">
<polygon fill="#ffffff" stroke="#000000" points="0,-.5 0,-30.5 108,-30.5 108,-.5 0,-.5"/>
<text text-anchor="start" x="8" y="-18.5" font-family="Helvetica,sans-Serif" font-size="10.00" fill="#000000">mom_file_parser::get</text>
<text text-anchor="middle" x="54" y="-7.5" font-family="Helvetica,sans-Serif" font-size="10.00" fill="#000000">_param_time</text>
</a>
</g>
</g>
<!-- Node17&#45;&gt;Node18 -->
<g id="edge17" class="edge">
<title>Node17&#45;&gt;Node18</title>
<path fill="none" stroke="#191970" d="M133.8264,-15.5C125.2074,-15.5 116.466,-15.5 108.0846,-15.5"/>
<polygon fill="#191970" stroke="#191970" points="133.8593,-19.0001 143.8593,-15.5 133.8592,-12.0001 133.8593,-19.0001"/>
</g>
</g>
</svg>
