<?xml version="1.0" encoding="UTF-8" standalone="no"?>
<!DOCTYPE svg PUBLIC "-//W3C//DTD SVG 1.1//EN"
 "http://www.w3.org/Graphics/SVG/1.1/DTD/svg11.dtd">
<!-- Generated by graphviz version 2.40.1 (20161225.0304)
 -->
<!-- Title: mom_diagnostics::register_transport_diags Pages: 1 -->
<svg width="285pt" height="39pt"
 viewBox="0.00 0.00 285.00 39.00" xmlns="http://www.w3.org/2000/svg" xmlns:xlink="http://www.w3.org/1999/xlink">
<g id="graph0" class="graph" transform="scale(1 1) rotate(0) translate(4 35)">
<title>mom_diagnostics::register_transport_diags</title>
<polygon fill="#ffffff" stroke="transparent" points="-4,4 -4,-35 281,-35 281,4 -4,4"/>
<!-- Node1 -->
<g id="node1" class="node">
<title>Node1</title>
<g id="a_node1"><a xlink:title="Register certain diagnostics related to transports.">
<polygon fill="#bfbfbf" stroke="#000000" points="0,-.5 0,-30.5 131,-30.5 131,-.5 0,-.5"/>
<text text-anchor="start" x="8" y="-18.5" font-family="Helvetica,sans-Serif" font-size="10.00" fill="#000000">mom_diagnostics::register</text>
<text text-anchor="middle" x="65.5" y="-7.5" font-family="Helvetica,sans-Serif" font-size="10.00" fill="#000000">_transport_diags</text>
</a>
</g>
</g>
<!-- Node2 -->
<g id="node2" class="node">
<title>Node2</title>
<g id="a_node2"><a xlink:href="namespacemom__verticalgrid.html#a1eea13d63bdc910462ffba406d32fe04" target="_top" xlink:title="Returns the model&#39;s thickness units, usually m or kg/m^2.">
<polygon fill="#ffffff" stroke="#000000" points="167,-.5 167,-30.5 277,-30.5 277,-.5 167,-.5"/>
<text text-anchor="start" x="175" y="-18.5" font-family="Helvetica,sans-Serif" font-size="10.00" fill="#000000">mom_verticalgrid::get</text>
<text text-anchor="middle" x="222" y="-7.5" font-family="Helvetica,sans-Serif" font-size="10.00" fill="#000000">_thickness_units</text>
</a>
</g>
</g>
<!-- Node1&#45;&gt;Node2 -->
<g id="edge1" class="edge">
<title>Node1&#45;&gt;Node2</title>
<path fill="none" stroke="#191970" d="M131.4165,-15.5C139.7309,-15.5 148.2359,-15.5 156.5432,-15.5"/>
<polygon fill="#191970" stroke="#191970" points="156.5521,-19.0001 166.5521,-15.5 156.552,-12.0001 156.5521,-19.0001"/>
</g>
</g>
</svg>
