<?xml version="1.0" encoding="UTF-8" standalone="no"?>
<!DOCTYPE svg PUBLIC "-//W3C//DTD SVG 1.1//EN"
 "http://www.w3.org/Graphics/SVG/1.1/DTD/svg11.dtd">
<!-- Generated by graphviz version 2.40.1 (20161225.0304)
 -->
<!-- Title: mom_dyn_horgrid::create_dyn_horgrid Pages: 1 -->
<svg width="385pt" height="78pt"
 viewBox="0.00 0.00 385.00 77.50" xmlns="http://www.w3.org/2000/svg" xmlns:xlink="http://www.w3.org/1999/xlink">
<g id="graph0" class="graph" transform="scale(1 1) rotate(0) translate(4 73.5)">
<title>mom_dyn_horgrid::create_dyn_horgrid</title>
<polygon fill="#ffffff" stroke="transparent" points="-4,4 -4,-73.5 381,-73.5 381,4 -4,4"/>
<!-- Node1 -->
<g id="node1" class="node">
<title>Node1</title>
<g id="a_node1"><a xlink:title="Allocate memory used by the dyn_horgrid_type and related structures.">
<polygon fill="#bfbfbf" stroke="#000000" points="250,-17 250,-47 377,-47 377,-17 250,-17"/>
<text text-anchor="start" x="258" y="-35" font-family="Helvetica,sans-Serif" font-size="10.00" fill="#000000">mom_dyn_horgrid::create</text>
<text text-anchor="middle" x="313.5" y="-24" font-family="Helvetica,sans-Serif" font-size="10.00" fill="#000000">_dyn_horgrid</text>
</a>
</g>
</g>
<!-- Node2 -->
<g id="node2" class="node">
<title>Node2</title>
<g id="a_node2"><a xlink:href="namespacemom__oda__driver__mod.html#aaaf67b8d0e0db3ba3dfe09e24d2b8b24" target="_top" xlink:title="initialize First_guess (prior) and Analysis grid information for all ensemble members">
<polygon fill="#ffffff" stroke="#000000" points="101,-39 101,-69 214,-69 214,-39 101,-39"/>
<text text-anchor="start" x="109" y="-57" font-family="Helvetica,sans-Serif" font-size="10.00" fill="#000000">mom_oda_driver_mod</text>
<text text-anchor="middle" x="157.5" y="-46" font-family="Helvetica,sans-Serif" font-size="10.00" fill="#000000">::init_oda</text>
</a>
</g>
</g>
<!-- Node1&#45;&gt;Node2 -->
<g id="edge1" class="edge">
<title>Node1&#45;&gt;Node2</title>
<path fill="none" stroke="#191970" d="M239.5789,-42.4248C230.9964,-43.6351 222.3479,-44.8548 214.0505,-46.0249"/>
<polygon fill="#191970" stroke="#191970" points="240.1855,-45.8739 249.5987,-41.0117 239.2079,-38.9425 240.1855,-45.8739"/>
</g>
<!-- Node3 -->
<g id="node3" class="node">
<title>Node3</title>
<g id="a_node3"><a xlink:href="namespacemom.html#a96708b16215666edbfa5b46228f3a200" target="_top" xlink:title="Initialize MOM, including memory allocation, setting up parameters and diagnostics,...">
<polygon fill="#ffffff" stroke="#000000" points="104,-.5 104,-19.5 211,-19.5 211,-.5 104,-.5"/>
<text text-anchor="middle" x="157.5" y="-7.5" font-family="Helvetica,sans-Serif" font-size="10.00" fill="#000000">mom::initialize_mom</text>
</a>
</g>
</g>
<!-- Node1&#45;&gt;Node3 -->
<g id="edge2" class="edge">
<title>Node1&#45;&gt;Node3</title>
<path fill="none" stroke="#191970" d="M239.6269,-21.582C230.0052,-20.2251 220.2995,-18.8563 211.0977,-17.5586"/>
<polygon fill="#191970" stroke="#191970" points="239.2079,-25.0575 249.5987,-22.9883 240.1855,-18.1261 239.2079,-25.0575"/>
</g>
<!-- Node4 -->
<g id="node4" class="node">
<title>Node4</title>
<g id="a_node4"><a xlink:href="MOM__driver_8F90.html#a08fffeb2d8e8acbf9ed4609be6d258c6" target="_top" xlink:title=" ">
<polygon fill="#ffffff" stroke="#000000" points="0,-.5 0,-19.5 65,-19.5 65,-.5 0,-.5"/>
<text text-anchor="middle" x="32.5" y="-7.5" font-family="Helvetica,sans-Serif" font-size="10.00" fill="#000000">mom_main</text>
</a>
</g>
</g>
<!-- Node3&#45;&gt;Node4 -->
<g id="edge3" class="edge">
<title>Node3&#45;&gt;Node4</title>
<path fill="none" stroke="#191970" d="M93.5659,-10C83.7581,-10 73.9973,-10 65.2504,-10"/>
<polygon fill="#191970" stroke="#191970" points="93.7633,-13.5001 103.7633,-10 93.7633,-6.5001 93.7633,-13.5001"/>
</g>
</g>
</svg>
