<?xml version="1.0" encoding="UTF-8" standalone="no"?>
<!DOCTYPE svg PUBLIC "-//W3C//DTD SVG 1.1//EN"
 "http://www.w3.org/Graphics/SVG/1.1/DTD/svg11.dtd">
<!-- Generated by graphviz version 2.40.1 (20161225.0304)
 -->
<!-- Title: mom_isopycnal_slopes::calc_isoneutral_slopes Pages: 1 -->
<svg width="298pt" height="39pt"
 viewBox="0.00 0.00 298.00 39.00" xmlns="http://www.w3.org/2000/svg" xmlns:xlink="http://www.w3.org/1999/xlink">
<g id="graph0" class="graph" transform="scale(1 1) rotate(0) translate(4 35)">
<title>mom_isopycnal_slopes::calc_isoneutral_slopes</title>
<polygon fill="#ffffff" stroke="transparent" points="-4,4 -4,-35 294,-35 294,4 -4,4"/>
<!-- Node1 -->
<g id="node1" class="node">
<title>Node1</title>
<g id="a_node1"><a xlink:title="Calculate isopycnal slopes, and optionally return N2 used in calculation.">
<polygon fill="#bfbfbf" stroke="#000000" points="0,-.5 0,-30.5 128,-30.5 128,-.5 0,-.5"/>
<text text-anchor="start" x="8" y="-18.5" font-family="Helvetica,sans-Serif" font-size="10.00" fill="#000000">mom_isopycnal_slopes</text>
<text text-anchor="middle" x="64" y="-7.5" font-family="Helvetica,sans-Serif" font-size="10.00" fill="#000000">::calc_isoneutral_slopes</text>
</a>
</g>
</g>
<!-- Node2 -->
<g id="node2" class="node">
<title>Node2</title>
<g id="a_node2"><a xlink:href="namespacemom__isopycnal__slopes.html#a207a05c673e0501aa4f8265b76b4b3b8" target="_top" xlink:title="Returns tracer arrays (nominally T and S) with massless layers filled with sensible values,...">
<polygon fill="#ffffff" stroke="#000000" points="164,-.5 164,-30.5 290,-30.5 290,-.5 164,-.5"/>
<text text-anchor="start" x="172" y="-18.5" font-family="Helvetica,sans-Serif" font-size="10.00" fill="#000000">mom_isopycnal_slopes</text>
<text text-anchor="middle" x="227" y="-7.5" font-family="Helvetica,sans-Serif" font-size="10.00" fill="#000000">::vert_fill_ts</text>
</a>
</g>
</g>
<!-- Node1&#45;&gt;Node2 -->
<g id="edge1" class="edge">
<title>Node1&#45;&gt;Node2</title>
<path fill="none" stroke="#191970" d="M128.4219,-15.5C136.7095,-15.5 145.2438,-15.5 153.6608,-15.5"/>
<polygon fill="#191970" stroke="#191970" points="153.8451,-19.0001 163.8451,-15.5 153.8451,-12.0001 153.8451,-19.0001"/>
</g>
</g>
</svg>
