<?xml version="1.0" encoding="UTF-8" standalone="no"?>
<!DOCTYPE svg PUBLIC "-//W3C//DTD SVG 1.1//EN"
 "http://www.w3.org/Graphics/SVG/1.1/DTD/svg11.dtd">
<!-- Generated by graphviz version 2.40.1 (20161225.0304)
 -->
<!-- Title: mom_coord_initialization::write_vertgrid_file Pages: 1 -->
<svg width="923pt" height="53pt"
 viewBox="0.00 0.00 923.00 52.50" xmlns="http://www.w3.org/2000/svg" xmlns:xlink="http://www.w3.org/1999/xlink">
<g id="graph0" class="graph" transform="scale(1 1) rotate(0) translate(4 48.5)">
<title>mom_coord_initialization::write_vertgrid_file</title>
<polygon fill="#ffffff" stroke="transparent" points="-4,4 -4,-48.5 919,-48.5 919,4 -4,4"/>
<!-- Node1 -->
<g id="node1" class="node">
<title>Node1</title>
<g id="a_node1"><a xlink:title="Writes out a file containing any available data related to the vertical grid used by the MOM ocean mo...">
<polygon fill="#bfbfbf" stroke="#000000" points="0,-.5 0,-30.5 133,-30.5 133,-.5 0,-.5"/>
<text text-anchor="start" x="8" y="-18.5" font-family="Helvetica,sans-Serif" font-size="10.00" fill="#000000">mom_coord_initialization</text>
<text text-anchor="middle" x="66.5" y="-7.5" font-family="Helvetica,sans-Serif" font-size="10.00" fill="#000000">::write_vertgrid_file</text>
</a>
</g>
</g>
<!-- Node2 -->
<g id="node2" class="node">
<title>Node2</title>
<g id="a_node2"><a xlink:href="namespacemom__io.html#a09be50ad112d6bc134d06d82fcbe1fdc" target="_top" xlink:title="Returns a vardesc type whose elements have been filled with the provided fields. The argument name is...">
<polygon fill="#ffffff" stroke="#000000" points="169,-6 169,-25 270,-25 270,-6 169,-6"/>
<text text-anchor="middle" x="219.5" y="-13" font-family="Helvetica,sans-Serif" font-size="10.00" fill="#000000">mom_io::var_desc</text>
</a>
</g>
</g>
<!-- Node1&#45;&gt;Node2 -->
<g id="edge1" class="edge">
<title>Node1&#45;&gt;Node2</title>
<path fill="none" stroke="#191970" d="M133.1629,-15.5C141.636,-15.5 150.2728,-15.5 158.6481,-15.5"/>
<polygon fill="#191970" stroke="#191970" points="158.706,-19.0001 168.706,-15.5 158.7059,-12.0001 158.706,-19.0001"/>
</g>
<!-- Node3 -->
<g id="node3" class="node">
<title>Node3</title>
<g id="a_node3"><a xlink:href="namespacemom__io.html#a0dff28e4952f43175f84cd9cdcda9837" target="_top" xlink:title="This routine modifies the named elements of a vardesc type. All arguments are optional,...">
<polygon fill="#ffffff" stroke="#000000" points="306,-25 306,-44 438,-44 438,-25 306,-25"/>
<text text-anchor="middle" x="372" y="-32" font-family="Helvetica,sans-Serif" font-size="10.00" fill="#000000">mom_io::modify_vardesc</text>
</a>
</g>
</g>
<!-- Node2&#45;&gt;Node3 -->
<g id="edge2" class="edge">
<title>Node2&#45;&gt;Node3</title>
<path fill="none" stroke="#191970" d="M270.2803,-21.8267C278.5008,-22.8509 287.1674,-23.9307 295.8327,-25.0103"/>
<polygon fill="#191970" stroke="#191970" points="295.6214,-28.511 305.9775,-26.2742 296.4869,-21.5647 295.6214,-28.511"/>
</g>
<!-- Node4 -->
<g id="node4" class="node">
<title>Node4</title>
<g id="a_node4"><a xlink:href="namespacemom__io.html#ac4bc408e8b38dbd669842753f26ebf88" target="_top" xlink:title="Copies a string.">
<polygon fill="#ffffff" stroke="#000000" points="474,-6 474,-25 613,-25 613,-6 474,-6"/>
<text text-anchor="middle" x="543.5" y="-13" font-family="Helvetica,sans-Serif" font-size="10.00" fill="#000000">mom_io::safe_string_copy</text>
</a>
</g>
</g>
<!-- Node2&#45;&gt;Node4 -->
<g id="edge6" class="edge">
<title>Node2&#45;&gt;Node4</title>
<path fill="none" stroke="#191970" d="M270.125,-15.5C321.9446,-15.5 403.2321,-15.5 463.7154,-15.5"/>
<polygon fill="#191970" stroke="#191970" points="463.9939,-19.0001 473.9939,-15.5 463.9938,-12.0001 463.9939,-19.0001"/>
</g>
<!-- Node3&#45;&gt;Node4 -->
<g id="edge3" class="edge">
<title>Node3&#45;&gt;Node4</title>
<path fill="none" stroke="#191970" d="M438.3064,-27.1541C446.7071,-26.2234 455.3707,-25.2636 463.951,-24.313"/>
<polygon fill="#191970" stroke="#191970" points="464.4108,-27.7836 473.9646,-23.2036 463.64,-20.8261 464.4108,-27.7836"/>
</g>
<!-- Node5 -->
<g id="node5" class="node">
<title>Node5</title>
<g id="a_node5"><a xlink:href="namespacemom__error__handler.html#a460cfb79a06c29fc249952c2a3710d67" target="_top" xlink:title="This provides a convenient interface for writing an mpp_error message with run&#45;time filter based on a...">
<polygon fill="#ffffff" stroke="#000000" points="649,-.5 649,-30.5 764,-30.5 764,-.5 649,-.5"/>
<text text-anchor="start" x="657" y="-18.5" font-family="Helvetica,sans-Serif" font-size="10.00" fill="#000000">mom_error_handler::</text>
<text text-anchor="middle" x="706.5" y="-7.5" font-family="Helvetica,sans-Serif" font-size="10.00" fill="#000000">mom_error</text>
</a>
</g>
</g>
<!-- Node4&#45;&gt;Node5 -->
<g id="edge4" class="edge">
<title>Node4&#45;&gt;Node5</title>
<path fill="none" stroke="#191970" d="M613.0995,-15.5C621.5888,-15.5 630.2542,-15.5 638.7164,-15.5"/>
<polygon fill="#191970" stroke="#191970" points="638.9123,-19.0001 648.9123,-15.5 638.9122,-12.0001 638.9123,-19.0001"/>
</g>
<!-- Node6 -->
<g id="node6" class="node">
<title>Node6</title>
<g id="a_node6"><a xlink:href="namespacemom__error__handler.html#ad5f00a53059c72fe2332d1436c80ca71" target="_top" xlink:title="This returns .true. if the current PE is the root PE.">
<polygon fill="#ffffff" stroke="#000000" points="800,-.5 800,-30.5 915,-30.5 915,-.5 800,-.5"/>
<text text-anchor="start" x="808" y="-18.5" font-family="Helvetica,sans-Serif" font-size="10.00" fill="#000000">mom_error_handler::</text>
<text text-anchor="middle" x="857.5" y="-7.5" font-family="Helvetica,sans-Serif" font-size="10.00" fill="#000000">is_root_pe</text>
</a>
</g>
</g>
<!-- Node5&#45;&gt;Node6 -->
<g id="edge5" class="edge">
<title>Node5&#45;&gt;Node6</title>
<path fill="none" stroke="#191970" d="M764.0174,-15.5C772.4639,-15.5 781.2292,-15.5 789.8561,-15.5"/>
<polygon fill="#191970" stroke="#191970" points="789.8926,-19.0001 799.8925,-15.5 789.8925,-12.0001 789.8926,-19.0001"/>
</g>
</g>
</svg>
