<?xml version="1.0" encoding="UTF-8" standalone="no"?>
<!DOCTYPE svg PUBLIC "-//W3C//DTD SVG 1.1//EN"
 "http://www.w3.org/Graphics/SVG/1.1/DTD/svg11.dtd">
<!-- Generated by graphviz version 2.40.1 (20161225.0304)
 -->
<!-- Title: mom_interface_heights::find_eta_3d Pages: 1 -->
<svg width="717pt" height="159pt"
 viewBox="0.00 0.00 717.00 159.25" xmlns="http://www.w3.org/2000/svg" xmlns:xlink="http://www.w3.org/1999/xlink">
<g id="graph0" class="graph" transform="scale(1 1) rotate(0) translate(4 155.2541)">
<title>mom_interface_heights::find_eta_3d</title>
<polygon fill="#ffffff" stroke="transparent" points="-4,4 -4,-155.2541 713,-155.2541 713,4 -4,4"/>
<!-- Node1 -->
<g id="node1" class="node">
<title>Node1</title>
<g id="a_node1"><a xlink:title="Calculates the heights of all interfaces between layers, using the appropriate form for consistency w...">
<polygon fill="#bfbfbf" stroke="#000000" points="0,-10.7541 0,-40.7541 118,-40.7541 118,-10.7541 0,-10.7541"/>
<text text-anchor="start" x="8" y="-28.7541" font-family="Helvetica,sans-Serif" font-size="10.00" fill="#000000">mom_interface_heights</text>
<text text-anchor="middle" x="59" y="-17.7541" font-family="Helvetica,sans-Serif" font-size="10.00" fill="#000000">::find_eta_3d</text>
</a>
</g>
</g>
<!-- Node2 -->
<g id="node2" class="node">
<title>Node2</title>
<g id="a_node2"><a xlink:href="namespacemom__eos.html#a792633967cd29eb6155762b557f35959" target="_top" xlink:title="Calls the appropriate subroutine to alculate analytical and nearly&#45;analytical integrals in pressure a...">
<polygon fill="#ffffff" stroke="#000000" points="154,-54.7541 154,-84.7541 269,-84.7541 269,-54.7541 154,-54.7541"/>
<text text-anchor="start" x="162" y="-72.7541" font-family="Helvetica,sans-Serif" font-size="10.00" fill="#000000">mom_eos::int_specific</text>
<text text-anchor="middle" x="211.5" y="-61.7541" font-family="Helvetica,sans-Serif" font-size="10.00" fill="#000000">_vol_dp</text>
</a>
</g>
</g>
<!-- Node1&#45;&gt;Node2 -->
<g id="edge1" class="edge">
<title>Node1&#45;&gt;Node2</title>
<path fill="none" stroke="#191970" d="M111.0553,-40.7734C123.5006,-44.3642 136.9053,-48.2317 149.7411,-51.9352"/>
<polygon fill="#191970" stroke="#191970" points="148.8422,-55.3185 159.4205,-54.7279 150.7827,-48.5929 148.8422,-55.3185"/>
</g>
<!-- Node4 -->
<g id="node4" class="node">
<title>Node4</title>
<g id="a_node4"><a xlink:href="namespacemom__error__handler.html#a460cfb79a06c29fc249952c2a3710d67" target="_top" xlink:title="This provides a convenient interface for writing an mpp_error message with run&#45;time filter based on a...">
<polygon fill="#ffffff" stroke="#000000" points="461,-76.7541 461,-106.7541 567,-106.7541 567,-76.7541 461,-76.7541"/>
<text text-anchor="start" x="469" y="-94.7541" font-family="Helvetica,sans-Serif" font-size="10.00" fill="#000000">mom_error_handler::</text>
<text text-anchor="middle" x="514" y="-83.7541" font-family="Helvetica,sans-Serif" font-size="10.00" fill="#000000">mom_error</text>
</a>
</g>
</g>
<!-- Node1&#45;&gt;Node4 -->
<g id="edge7" class="edge">
<title>Node1&#45;&gt;Node4</title>
<path fill="none" stroke="#191970" d="M118.2798,-13.511C192.2977,-.8446 321.7432,12.5842 425,-22.7541 451.949,-31.9771 477.0491,-53.0494 493.6769,-69.4972"/>
<polygon fill="#191970" stroke="#191970" points="491.2007,-71.9711 500.6967,-76.6698 496.2035,-67.0749 491.2007,-71.9711"/>
</g>
<!-- Node3 -->
<g id="node3" class="node">
<title>Node3</title>
<g id="a_node3"><a xlink:href="namespacemom__eos.html#a4f39721f1e17a9a94c5eba3e8fcf0fa3" target="_top" xlink:title="This subroutine calculates integrals of specific volume anomalies in pressure across layers,...">
<polygon fill="#ffffff" stroke="#000000" points="305,-120.7541 305,-150.7541 425,-150.7541 425,-120.7541 305,-120.7541"/>
<text text-anchor="start" x="313" y="-138.7541" font-family="Helvetica,sans-Serif" font-size="10.00" fill="#000000">mom_eos::int_spec_vol</text>
<text text-anchor="middle" x="365" y="-127.7541" font-family="Helvetica,sans-Serif" font-size="10.00" fill="#000000">_dp_generic</text>
</a>
</g>
</g>
<!-- Node2&#45;&gt;Node3 -->
<g id="edge2" class="edge">
<title>Node2&#45;&gt;Node3</title>
<path fill="none" stroke="#191970" d="M246.716,-84.8959C268.654,-94.3285 297.0707,-106.5468 320.5528,-116.6433"/>
<polygon fill="#191970" stroke="#191970" points="319.3785,-119.9482 329.9479,-120.6829 322.1436,-113.5174 319.3785,-119.9482"/>
</g>
<!-- Node2&#45;&gt;Node4 -->
<g id="edge6" class="edge">
<title>Node2&#45;&gt;Node4</title>
<path fill="none" stroke="#191970" d="M269.11,-73.944C320.9655,-77.7153 397.0313,-83.2473 450.5975,-87.1431"/>
<polygon fill="#191970" stroke="#191970" points="450.434,-90.6403 460.6615,-87.875 450.9418,-83.6588 450.434,-90.6403"/>
</g>
<!-- Node6 -->
<g id="node6" class="node">
<title>Node6</title>
<g id="a_node6"><a xlink:href="namespacemom__eos__linear.html#ac9a31e315e6cb02f8f270de7c877f688" target="_top" xlink:title="Calculates analytical and nearly&#45;analytical integrals in pressure across layers of geopotential anoma...">
<polygon fill="#ffffff" stroke="#000000" points="312.5,-32.7541 312.5,-62.7541 417.5,-62.7541 417.5,-32.7541 312.5,-32.7541"/>
<text text-anchor="start" x="320.5" y="-50.7541" font-family="Helvetica,sans-Serif" font-size="10.00" fill="#000000">mom_eos_linear::int</text>
<text text-anchor="middle" x="365" y="-39.7541" font-family="Helvetica,sans-Serif" font-size="10.00" fill="#000000">_spec_vol_dp_linear</text>
</a>
</g>
</g>
<!-- Node2&#45;&gt;Node6 -->
<g id="edge5" class="edge">
<title>Node2&#45;&gt;Node6</title>
<path fill="none" stroke="#191970" d="M269.0945,-61.4996C279.9716,-59.9406 291.397,-58.3031 302.4186,-56.7235"/>
<polygon fill="#191970" stroke="#191970" points="302.9974,-60.1764 312.3997,-55.293 302.0042,-53.2472 302.9974,-60.1764"/>
</g>
<!-- Node3&#45;&gt;Node4 -->
<g id="edge3" class="edge">
<title>Node3&#45;&gt;Node4</title>
<path fill="none" stroke="#191970" d="M415.8606,-120.7349C427.9011,-117.1793 440.8606,-113.3524 453.2895,-109.6821"/>
<polygon fill="#191970" stroke="#191970" points="454.5165,-112.9692 463.1158,-106.7803 452.534,-106.2558 454.5165,-112.9692"/>
</g>
<!-- Node5 -->
<g id="node5" class="node">
<title>Node5</title>
<g id="a_node5"><a xlink:href="namespacemom__error__handler.html#ad5f00a53059c72fe2332d1436c80ca71" target="_top" xlink:title="This returns .true. if the current PE is the root PE.">
<polygon fill="#ffffff" stroke="#000000" points="603,-76.7541 603,-106.7541 709,-106.7541 709,-76.7541 603,-76.7541"/>
<text text-anchor="start" x="611" y="-94.7541" font-family="Helvetica,sans-Serif" font-size="10.00" fill="#000000">mom_error_handler::</text>
<text text-anchor="middle" x="656" y="-83.7541" font-family="Helvetica,sans-Serif" font-size="10.00" fill="#000000">is_root_pe</text>
</a>
</g>
</g>
<!-- Node4&#45;&gt;Node5 -->
<g id="edge4" class="edge">
<title>Node4&#45;&gt;Node5</title>
<path fill="none" stroke="#191970" d="M567.2796,-91.7541C575.56,-91.7541 584.184,-91.7541 592.6606,-91.7541"/>
<polygon fill="#191970" stroke="#191970" points="592.8941,-95.2542 602.8941,-91.7541 592.8941,-88.2542 592.8941,-95.2542"/>
</g>
</g>
</svg>
