<?xml version="1.0" encoding="UTF-8" standalone="no"?>
<!DOCTYPE svg PUBLIC "-//W3C//DTD SVG 1.1//EN"
 "http://www.w3.org/Graphics/SVG/1.1/DTD/svg11.dtd">
<!-- Generated by graphviz version 2.40.1 (20161225.0304)
 -->
<!-- Title: mom_wave_speed::wave_speed_init Pages: 1 -->
<svg width="293pt" height="88pt"
 viewBox="0.00 0.00 293.00 88.00" xmlns="http://www.w3.org/2000/svg" xmlns:xlink="http://www.w3.org/1999/xlink">
<g id="graph0" class="graph" transform="scale(1 1) rotate(0) translate(4 84)">
<title>mom_wave_speed::wave_speed_init</title>
<polygon fill="#ffffff" stroke="transparent" points="-4,4 -4,-84 289,-84 289,4 -4,4"/>
<!-- Node1 -->
<g id="node1" class="node">
<title>Node1</title>
<g id="a_node1"><a xlink:title="Initialize control structure for MOM_wave_speed.">
<polygon fill="#bfbfbf" stroke="#000000" points="157,-24.5 157,-54.5 285,-54.5 285,-24.5 157,-24.5"/>
<text text-anchor="start" x="165" y="-42.5" font-family="Helvetica,sans-Serif" font-size="10.00" fill="#000000">mom_wave_speed::wave</text>
<text text-anchor="middle" x="221" y="-31.5" font-family="Helvetica,sans-Serif" font-size="10.00" fill="#000000">_speed_init</text>
</a>
</g>
</g>
<!-- Node2 -->
<g id="node2" class="node">
<title>Node2</title>
<g id="a_node2"><a xlink:href="namespacemom__diagnostics.html#ae8281123dfff124b0a362ea9fd1e0078" target="_top" xlink:title="This subroutine registers various diagnostics and allocates space for fields that other diagnostis de...">
<polygon fill="#ffffff" stroke="#000000" points="0,-49.5 0,-79.5 121,-79.5 121,-49.5 0,-49.5"/>
<text text-anchor="start" x="8" y="-67.5" font-family="Helvetica,sans-Serif" font-size="10.00" fill="#000000">mom_diagnostics::mom</text>
<text text-anchor="middle" x="60.5" y="-56.5" font-family="Helvetica,sans-Serif" font-size="10.00" fill="#000000">_diagnostics_init</text>
</a>
</g>
</g>
<!-- Node1&#45;&gt;Node2 -->
<g id="edge1" class="edge">
<title>Node1&#45;&gt;Node2</title>
<path fill="none" stroke="#191970" d="M146.695,-51.074C138.1656,-52.4026 129.546,-53.7452 121.2246,-55.0413"/>
<polygon fill="#191970" stroke="#191970" points="147.3012,-54.5219 156.6433,-49.5244 146.2237,-47.6053 147.3012,-54.5219"/>
</g>
<!-- Node3 -->
<g id="node3" class="node">
<title>Node3</title>
<g id="a_node3"><a xlink:href="namespacemom__lateral__mixing__coeffs.html#a1070a864ca570c00f483a8617afca133" target="_top" xlink:title="Initializes the variables mixing coefficients container.">
<polygon fill="#ffffff" stroke="#000000" points="8.5,-.5 8.5,-30.5 112.5,-30.5 112.5,-.5 8.5,-.5"/>
<text text-anchor="start" x="16.5" y="-18.5" font-family="Helvetica,sans-Serif" font-size="10.00" fill="#000000">mom_lateral_mixing</text>
<text text-anchor="middle" x="60.5" y="-7.5" font-family="Helvetica,sans-Serif" font-size="10.00" fill="#000000">_coeffs::varmix_init</text>
</a>
</g>
</g>
<!-- Node1&#45;&gt;Node3 -->
<g id="edge2" class="edge">
<title>Node1&#45;&gt;Node3</title>
<path fill="none" stroke="#191970" d="M146.5954,-28.3741C135.0871,-26.6532 123.4177,-24.9082 112.5405,-23.2818"/>
<polygon fill="#191970" stroke="#191970" points="146.2356,-31.8591 156.6433,-29.8766 147.2709,-24.9361 146.2356,-31.8591"/>
</g>
</g>
</svg>
