<?xml version="1.0" encoding="UTF-8" standalone="no"?>
<!DOCTYPE svg PUBLIC "-//W3C//DTD SVG 1.1//EN"
 "http://www.w3.org/Graphics/SVG/1.1/DTD/svg11.dtd">
<!-- Generated by graphviz version 2.40.1 (20161225.0304)
 -->
<!-- Title: mom_regridding::filtered_grid_motion Pages: 1 -->
<svg width="503pt" height="284pt"
 viewBox="0.00 0.00 503.00 284.00" xmlns="http://www.w3.org/2000/svg" xmlns:xlink="http://www.w3.org/1999/xlink">
<g id="graph0" class="graph" transform="scale(1 1) rotate(0) translate(4 280)">
<title>mom_regridding::filtered_grid_motion</title>
<polygon fill="#ffffff" stroke="transparent" points="-4,4 -4,-280 499,-280 499,4 -4,4"/>
<!-- Node1 -->
<g id="node1" class="node">
<title>Node1</title>
<g id="a_node1"><a xlink:title="Returns the change in interface position motion after filtering and assuming the top and bottom inter...">
<polygon fill="#bfbfbf" stroke="#000000" points="365,-122.5 365,-152.5 495,-152.5 495,-122.5 365,-122.5"/>
<text text-anchor="start" x="373" y="-140.5" font-family="Helvetica,sans-Serif" font-size="10.00" fill="#000000">mom_regridding::filtered</text>
<text text-anchor="middle" x="430" y="-129.5" font-family="Helvetica,sans-Serif" font-size="10.00" fill="#000000">_grid_motion</text>
</a>
</g>
</g>
<!-- Node2 -->
<g id="node2" class="node">
<title>Node2</title>
<g id="a_node2"><a xlink:href="namespacemom__regridding.html#a259fcaa5cdd7c8e38406f9bbc01172e1" target="_top" xlink:title="This subroutine builds an adaptive grid that follows density surfaces where possible,...">
<polygon fill="#ffffff" stroke="#000000" points="210,-245.5 210,-275.5 329,-275.5 329,-245.5 210,-245.5"/>
<text text-anchor="start" x="218" y="-263.5" font-family="Helvetica,sans-Serif" font-size="10.00" fill="#000000">mom_regridding::build</text>
<text text-anchor="middle" x="269.5" y="-252.5" font-family="Helvetica,sans-Serif" font-size="10.00" fill="#000000">_grid_adaptive</text>
</a>
</g>
</g>
<!-- Node1&#45;&gt;Node2 -->
<g id="edge1" class="edge">
<title>Node1&#45;&gt;Node2</title>
<path fill="none" stroke="#191970" d="M411.1419,-160.6464C392.2633,-182.5943 361.4293,-215.2812 329,-236.5 323.9669,-239.7932 318.4096,-242.765 312.7734,-245.4044"/>
<polygon fill="#191970" stroke="#191970" points="413.9865,-162.703 417.7703,-152.8068 408.641,-158.1834 413.9865,-162.703"/>
</g>
<!-- Node4 -->
<g id="node4" class="node">
<title>Node4</title>
<g id="a_node4"><a xlink:href="namespacemom__regridding.html#acbb6035a98bdce7e8d2d5a10174c0e22" target="_top" xlink:title="Builds a simple HyCOM&#45;like grid with the deepest location of potential density interpolated from the ...">
<polygon fill="#ffffff" stroke="#000000" points="210,-196.5 210,-226.5 329,-226.5 329,-196.5 210,-196.5"/>
<text text-anchor="start" x="218" y="-214.5" font-family="Helvetica,sans-Serif" font-size="10.00" fill="#000000">mom_regridding::build</text>
<text text-anchor="middle" x="269.5" y="-203.5" font-family="Helvetica,sans-Serif" font-size="10.00" fill="#000000">_grid_hycom1</text>
</a>
</g>
</g>
<!-- Node1&#45;&gt;Node4 -->
<g id="edge3" class="edge">
<title>Node1&#45;&gt;Node4</title>
<path fill="none" stroke="#191970" d="M391.9852,-157.1752C373.1925,-166.6816 350.0763,-178.049 329,-187.5 322.2921,-190.508 315.0882,-193.5602 308.0898,-196.4338"/>
<polygon fill="#191970" stroke="#191970" points="393.7828,-160.1877 401.1094,-152.5345 390.6093,-153.9484 393.7828,-160.1877"/>
</g>
<!-- Node5 -->
<g id="node5" class="node">
<title>Node5</title>
<g id="a_node5"><a xlink:href="namespacemom__regridding.html#a22774f1202d4e7c7c52154bd00206b01" target="_top" xlink:title="Builds a grid that tracks density interfaces for water that is denser than the surface density plus a...">
<polygon fill="#ffffff" stroke="#000000" points="210,-147.5 210,-177.5 329,-177.5 329,-147.5 210,-147.5"/>
<text text-anchor="start" x="218" y="-165.5" font-family="Helvetica,sans-Serif" font-size="10.00" fill="#000000">mom_regridding::build</text>
<text text-anchor="middle" x="269.5" y="-154.5" font-family="Helvetica,sans-Serif" font-size="10.00" fill="#000000">_grid_slight</text>
</a>
</g>
</g>
<!-- Node1&#45;&gt;Node5 -->
<g id="edge5" class="edge">
<title>Node1&#45;&gt;Node5</title>
<path fill="none" stroke="#191970" d="M354.6772,-149.2325C346.0735,-150.5727 337.3939,-151.9246 329.0362,-153.2264"/>
<polygon fill="#191970" stroke="#191970" points="355.3764,-152.6659 364.7185,-147.6685 354.2989,-145.7493 355.3764,-152.6659"/>
</g>
<!-- Node6 -->
<g id="node6" class="node">
<title>Node6</title>
<g id="a_node6"><a xlink:href="namespacemom__regridding.html#a58a19305bbdab26bfa4f336dfac8c4f8" target="_top" xlink:title="This routine builds a new grid based on a given set of target interface densities.">
<polygon fill="#ffffff" stroke="#000000" points="210,-98.5 210,-128.5 329,-128.5 329,-98.5 210,-98.5"/>
<text text-anchor="start" x="218" y="-116.5" font-family="Helvetica,sans-Serif" font-size="10.00" fill="#000000">mom_regridding::build</text>
<text text-anchor="middle" x="269.5" y="-105.5" font-family="Helvetica,sans-Serif" font-size="10.00" fill="#000000">_rho_grid</text>
</a>
</g>
</g>
<!-- Node1&#45;&gt;Node6 -->
<g id="edge7" class="edge">
<title>Node1&#45;&gt;Node6</title>
<path fill="none" stroke="#191970" d="M354.6772,-126.2368C346.0735,-124.9502 337.3939,-123.6524 329.0362,-122.4026"/>
<polygon fill="#191970" stroke="#191970" points="354.3108,-129.7208 364.7185,-127.7383 355.3461,-122.7978 354.3108,-129.7208"/>
</g>
<!-- Node7 -->
<g id="node7" class="node">
<title>Node7</title>
<g id="a_node7"><a xlink:href="namespacemom__regridding.html#a455d807ccfbbfd109be231321bec1038" target="_top" xlink:title="This routine builds a grid based on terrain&#45;following coordinates.">
<polygon fill="#ffffff" stroke="#000000" points="210,-49.5 210,-79.5 329,-79.5 329,-49.5 210,-49.5"/>
<text text-anchor="start" x="218" y="-67.5" font-family="Helvetica,sans-Serif" font-size="10.00" fill="#000000">mom_regridding::build</text>
<text text-anchor="middle" x="269.5" y="-56.5" font-family="Helvetica,sans-Serif" font-size="10.00" fill="#000000">_sigma_grid</text>
</a>
</g>
</g>
<!-- Node1&#45;&gt;Node7 -->
<g id="edge9" class="edge">
<title>Node1&#45;&gt;Node7</title>
<path fill="none" stroke="#191970" d="M390.2022,-118.0691C371.6874,-109.1629 349.3144,-98.5892 329,-89.5 321.6361,-86.2052 313.7079,-82.7862 306.1153,-79.5735"/>
<polygon fill="#191970" stroke="#191970" points="388.7002,-121.2305 399.2275,-122.4253 391.743,-114.9264 388.7002,-121.2305"/>
</g>
<!-- Node8 -->
<g id="node8" class="node">
<title>Node8</title>
<g id="a_node8"><a xlink:href="namespacemom__regridding.html#a55e6873a74355daea004d39c452e0069" target="_top" xlink:title="Builds a z*&#45;ccordinate grid with partial steps (Adcroft and Campin, 2004). z* is defined as z* = (z&#45;e...">
<polygon fill="#ffffff" stroke="#000000" points="210,-.5 210,-30.5 329,-30.5 329,-.5 210,-.5"/>
<text text-anchor="start" x="218" y="-18.5" font-family="Helvetica,sans-Serif" font-size="10.00" fill="#000000">mom_regridding::build</text>
<text text-anchor="middle" x="269.5" y="-7.5" font-family="Helvetica,sans-Serif" font-size="10.00" fill="#000000">_zstar_grid</text>
</a>
</g>
</g>
<!-- Node1&#45;&gt;Node8 -->
<g id="edge11" class="edge">
<title>Node1&#45;&gt;Node8</title>
<path fill="none" stroke="#191970" d="M410.6604,-114.5857C391.6373,-93.1778 360.8859,-61.4584 329,-40.5 323.3821,-36.8074 317.1292,-33.4724 310.8475,-30.5303"/>
<polygon fill="#191970" stroke="#191970" points="408.1375,-117.0176 417.3548,-122.2417 413.4071,-112.4098 408.1375,-117.0176"/>
</g>
<!-- Node3 -->
<g id="node3" class="node">
<title>Node3</title>
<g id="a_node3"><a xlink:href="namespacemom__regridding.html#ab354fe3423a39fef6f2b66f409b1682c" target="_top" xlink:title="Dispatching regridding routine for orchestrating regridding &amp; remapping.">
<polygon fill="#ffffff" stroke="#000000" points="0,-128 0,-147 174,-147 174,-128 0,-128"/>
<text text-anchor="middle" x="87" y="-135" font-family="Helvetica,sans-Serif" font-size="10.00" fill="#000000">mom_regridding::regridding_main</text>
</a>
</g>
</g>
<!-- Node2&#45;&gt;Node3 -->
<g id="edge2" class="edge">
<title>Node2&#45;&gt;Node3</title>
<path fill="none" stroke="#191970" d="M218.2606,-240.993C215.425,-239.5558 212.6525,-238.0561 210,-236.5 163.8952,-209.4521 116.6617,-166.1686 96.7697,-147.0771"/>
<polygon fill="#191970" stroke="#191970" points="216.9283,-244.2348 227.4628,-245.3635 219.9314,-237.9118 216.9283,-244.2348"/>
</g>
<!-- Node4&#45;&gt;Node3 -->
<g id="edge4" class="edge">
<title>Node4&#45;&gt;Node3</title>
<path fill="none" stroke="#191970" d="M222.6886,-192.6319C218.398,-190.8984 214.1184,-189.1677 210,-187.5 175.3873,-173.4842 135.3257,-157.1846 110.5723,-147.1042"/>
<polygon fill="#191970" stroke="#191970" points="221.4576,-195.9094 232.0407,-196.4083 224.0786,-189.4186 221.4576,-195.9094"/>
</g>
<!-- Node5&#45;&gt;Node3 -->
<g id="edge6" class="edge">
<title>Node5&#45;&gt;Node3</title>
<path fill="none" stroke="#191970" d="M199.8273,-152.9558C185.6557,-151.0145 170.7475,-148.9723 156.5791,-147.0314"/>
<polygon fill="#191970" stroke="#191970" points="199.6127,-156.459 209.9952,-154.3487 200.5628,-149.5238 199.6127,-156.459"/>
</g>
<!-- Node6&#45;&gt;Node3 -->
<g id="edge8" class="edge">
<title>Node6&#45;&gt;Node3</title>
<path fill="none" stroke="#191970" d="M200.0035,-122.6393C186.7453,-124.3828 172.8366,-126.2119 159.4877,-127.9674"/>
<polygon fill="#191970" stroke="#191970" points="200.5369,-126.0993 209.9952,-121.3253 199.6242,-119.1591 200.5369,-126.0993"/>
</g>
<!-- Node7&#45;&gt;Node3 -->
<g id="edge10" class="edge">
<title>Node7&#45;&gt;Node3</title>
<path fill="none" stroke="#191970" d="M221.9579,-83.5169C186.2791,-97.7884 138.9282,-116.7287 110.8411,-127.9636"/>
<polygon fill="#191970" stroke="#191970" points="223.701,-86.5893 231.6859,-79.6256 221.1012,-80.0899 223.701,-86.5893"/>
</g>
<!-- Node8&#45;&gt;Node3 -->
<g id="edge12" class="edge">
<title>Node8&#45;&gt;Node3</title>
<path fill="none" stroke="#191970" d="M220.1077,-35.0121C216.633,-36.7613 213.2303,-38.5953 210,-40.5 164.5529,-67.2974 117.3501,-109.1851 97.152,-127.9027"/>
<polygon fill="#191970" stroke="#191970" points="221.878,-38.0458 229.4049,-30.5896 218.8711,-31.7246 221.878,-38.0458"/>
</g>
</g>
</svg>
