<?xml version="1.0" encoding="UTF-8" standalone="no"?>
<!DOCTYPE svg PUBLIC "-//W3C//DTD SVG 1.1//EN"
 "http://www.w3.org/Graphics/SVG/1.1/DTD/svg11.dtd">
<!-- Generated by graphviz version 2.40.1 (20161225.0304)
 -->
<!-- Title: mom_forcing_type::calculatebuoyancyflux1d Pages: 1 -->
<svg width="1035pt" height="88pt"
 viewBox="0.00 0.00 1035.00 88.00" xmlns="http://www.w3.org/2000/svg" xmlns:xlink="http://www.w3.org/1999/xlink">
<g id="graph0" class="graph" transform="scale(1 1) rotate(0) translate(4 84)">
<title>mom_forcing_type::calculatebuoyancyflux1d</title>
<polygon fill="#ffffff" stroke="transparent" points="-4,4 -4,-84 1031,-84 1031,4 -4,4"/>
<!-- Node1 -->
<g id="node1" class="node">
<title>Node1</title>
<g id="a_node1"><a xlink:title="This routine calculates surface buoyancy flux by adding up the heat, FW &amp; salt fluxes....">
<polygon fill="#bfbfbf" stroke="#000000" points="806,-30 806,-49 1027,-49 1027,-30 806,-30"/>
<text text-anchor="middle" x="916.5" y="-37" font-family="Helvetica,sans-Serif" font-size="10.00" fill="#000000">mom_forcing_type::calculatebuoyancyflux1d</text>
</a>
</g>
</g>
<!-- Node2 -->
<g id="node2" class="node">
<title>Node2</title>
<g id="a_node2"><a xlink:href="namespacemom__forcing__type.html#ae84373c4a259bd04330ec673af0fa536" target="_top" xlink:title="Calculates surface buoyancy flux by adding up the heat, FW and salt fluxes, for 2d arrays....">
<polygon fill="#ffffff" stroke="#000000" points="549,-30 549,-49 770,-49 770,-30 549,-30"/>
<text text-anchor="middle" x="659.5" y="-37" font-family="Helvetica,sans-Serif" font-size="10.00" fill="#000000">mom_forcing_type::calculatebuoyancyflux2d</text>
</a>
</g>
</g>
<!-- Node1&#45;&gt;Node2 -->
<g id="edge1" class="edge">
<title>Node1&#45;&gt;Node2</title>
<path fill="none" stroke="#191970" d="M795.4723,-39.5C787.1082,-39.5 778.7017,-39.5 770.3952,-39.5"/>
<polygon fill="#191970" stroke="#191970" points="795.6442,-43.0001 805.6441,-39.5 795.6441,-36.0001 795.6442,-43.0001"/>
</g>
<!-- Node3 -->
<g id="node3" class="node">
<title>Node3</title>
<g id="a_node3"><a xlink:href="namespacemom__diabatic__driver.html#a9005de9f3ad26b32de53e3cd9826b9b9" target="_top" xlink:title="This subroutine imposes the diapycnal mass fluxes and the accompanying diapycnal advection of momentu...">
<polygon fill="#ffffff" stroke="#000000" points="399,-49.5 399,-79.5 513,-79.5 513,-49.5 399,-49.5"/>
<text text-anchor="start" x="407" y="-67.5" font-family="Helvetica,sans-Serif" font-size="10.00" fill="#000000">mom_diabatic_driver</text>
<text text-anchor="middle" x="456" y="-56.5" font-family="Helvetica,sans-Serif" font-size="10.00" fill="#000000">::diabatic</text>
</a>
</g>
</g>
<!-- Node2&#45;&gt;Node3 -->
<g id="edge2" class="edge">
<title>Node2&#45;&gt;Node3</title>
<path fill="none" stroke="#191970" d="M571.9557,-50.2548C552.0129,-52.7048 531.3276,-55.246 513.0456,-57.4919"/>
<polygon fill="#191970" stroke="#191970" points="572.4863,-53.7161 581.9849,-49.0227 571.6327,-46.7683 572.4863,-53.7161"/>
</g>
<!-- Node4 -->
<g id="node4" class="node">
<title>Node4</title>
<g id="a_node4"><a xlink:href="namespacemom__diabatic__driver.html#a9cdc6d13fb212778da2d58f286528fde" target="_top" xlink:title="Imposes the diapycnal mass fluxes and the accompanying diapycnal advection of momentum and tracers us...">
<polygon fill="#ffffff" stroke="#000000" points="399,-.5 399,-30.5 513,-30.5 513,-.5 399,-.5"/>
<text text-anchor="start" x="407" y="-18.5" font-family="Helvetica,sans-Serif" font-size="10.00" fill="#000000">mom_diabatic_driver</text>
<text text-anchor="middle" x="456" y="-7.5" font-family="Helvetica,sans-Serif" font-size="10.00" fill="#000000">::legacy_diabatic</text>
</a>
</g>
</g>
<!-- Node2&#45;&gt;Node4 -->
<g id="edge3" class="edge">
<title>Node2&#45;&gt;Node4</title>
<path fill="none" stroke="#191970" d="M568.6574,-28.7864C549.7651,-26.5583 530.3653,-24.2704 513.1038,-22.2346"/>
<polygon fill="#191970" stroke="#191970" points="568.438,-32.2847 578.7791,-29.9801 569.2579,-25.3329 568.438,-32.2847"/>
</g>
<!-- Node5 -->
<g id="node5" class="node">
<title>Node5</title>
<g id="a_node5"><a xlink:href="namespacemom.html#a1a81ea749a309f10f5c3c7a17efa3606" target="_top" xlink:title="MOM_step_thermo orchestrates the thermodynamic time stepping and vertical remapping,...">
<polygon fill="#ffffff" stroke="#000000" points="232,-6 232,-25 363,-25 363,-6 232,-6"/>
<text text-anchor="middle" x="297.5" y="-13" font-family="Helvetica,sans-Serif" font-size="10.00" fill="#000000">mom::step_mom_thermo</text>
</a>
</g>
</g>
<!-- Node4&#45;&gt;Node5 -->
<g id="edge4" class="edge">
<title>Node4&#45;&gt;Node5</title>
<path fill="none" stroke="#191970" d="M388.6383,-15.5C380.2299,-15.5 371.6388,-15.5 363.2554,-15.5"/>
<polygon fill="#191970" stroke="#191970" points="388.7779,-19.0001 398.7779,-15.5 388.7778,-12.0001 388.7779,-19.0001"/>
</g>
<!-- Node6 -->
<g id="node6" class="node">
<title>Node6</title>
<g id="a_node6"><a xlink:href="namespacemom.html#a972730596703580d4646320f2c9085a5" target="_top" xlink:title="This subroutine orchestrates the time stepping of MOM. The adiabatic dynamics are stepped by calls to...">
<polygon fill="#ffffff" stroke="#000000" points="104,-6 104,-25 196,-25 196,-6 104,-6"/>
<text text-anchor="middle" x="150" y="-13" font-family="Helvetica,sans-Serif" font-size="10.00" fill="#000000">mom::step_mom</text>
</a>
</g>
</g>
<!-- Node5&#45;&gt;Node6 -->
<g id="edge5" class="edge">
<title>Node5&#45;&gt;Node6</title>
<path fill="none" stroke="#191970" d="M221.7772,-15.5C213.1053,-15.5 204.4697,-15.5 196.3505,-15.5"/>
<polygon fill="#191970" stroke="#191970" points="221.9454,-19.0001 231.9454,-15.5 221.9453,-12.0001 221.9454,-19.0001"/>
</g>
<!-- Node7 -->
<g id="node7" class="node">
<title>Node7</title>
<g id="a_node7"><a xlink:href="MOM__driver_8F90.html#a08fffeb2d8e8acbf9ed4609be6d258c6" target="_top" xlink:title=" ">
<polygon fill="#ffffff" stroke="#000000" points="0,-6 0,-25 68,-25 68,-6 0,-6"/>
<text text-anchor="middle" x="34" y="-13" font-family="Helvetica,sans-Serif" font-size="10.00" fill="#000000">mom_main</text>
</a>
</g>
</g>
<!-- Node6&#45;&gt;Node7 -->
<g id="edge6" class="edge">
<title>Node6&#45;&gt;Node7</title>
<path fill="none" stroke="#191970" d="M93.6813,-15.5C84.9846,-15.5 76.2375,-15.5 68.2229,-15.5"/>
<polygon fill="#191970" stroke="#191970" points="93.8205,-19.0001 103.8204,-15.5 93.8204,-12.0001 93.8205,-19.0001"/>
</g>
</g>
</svg>
