<?xml version="1.0" encoding="UTF-8" standalone="no"?>
<!DOCTYPE svg PUBLIC "-//W3C//DTD SVG 1.1//EN"
 "http://www.w3.org/Graphics/SVG/1.1/DTD/svg11.dtd">
<!-- Generated by graphviz version 2.40.1 (20161225.0304)
 -->
<!-- Title: mom_dynamics_split_rk2::register_restarts_dyn_split_rk2 Pages: 1 -->
<svg width="1079pt" height="133pt"
 viewBox="0.00 0.00 1079.00 133.48" xmlns="http://www.w3.org/2000/svg" xmlns:xlink="http://www.w3.org/1999/xlink">
<g id="graph0" class="graph" transform="scale(1 1) rotate(0) translate(4 129.4838)">
<title>mom_dynamics_split_rk2::register_restarts_dyn_split_rk2</title>
<polygon fill="#ffffff" stroke="transparent" points="-4,4 -4,-129.4838 1075,-129.4838 1075,4 -4,4"/>
<!-- Node1 -->
<g id="node1" class="node">
<title>Node1</title>
<g id="a_node1"><a xlink:title="This subroutine sets up any auxiliary restart variables that are specific to the unsplit time steppin...">
<polygon fill="#bfbfbf" stroke="#000000" points="0,-40.4838 0,-81.4838 120,-81.4838 120,-40.4838 0,-40.4838"/>
<text text-anchor="start" x="8" y="-69.4838" font-family="Helvetica,sans-Serif" font-size="10.00" fill="#000000">mom_dynamics_split</text>
<text text-anchor="start" x="8" y="-58.4838" font-family="Helvetica,sans-Serif" font-size="10.00" fill="#000000">_rk2::register_restarts</text>
<text text-anchor="middle" x="60" y="-47.4838" font-family="Helvetica,sans-Serif" font-size="10.00" fill="#000000">_dyn_split_rk2</text>
</a>
</g>
</g>
<!-- Node2 -->
<g id="node2" class="node">
<title>Node2</title>
<g id="a_node2"><a xlink:href="namespacemom__verticalgrid.html#af027c312e660a932b3f430f4c7a9675d" target="_top" xlink:title="Returns the model&#39;s thickness flux units, usually m^3/s or kg/s.">
<polygon fill="#ffffff" stroke="#000000" points="164.5,-94.9838 164.5,-124.9838 280.5,-124.9838 280.5,-94.9838 164.5,-94.9838"/>
<text text-anchor="start" x="172.5" y="-112.9838" font-family="Helvetica,sans-Serif" font-size="10.00" fill="#000000">mom_verticalgrid::get</text>
<text text-anchor="middle" x="222.5" y="-101.9838" font-family="Helvetica,sans-Serif" font-size="10.00" fill="#000000">_flux_units</text>
</a>
</g>
</g>
<!-- Node1&#45;&gt;Node2 -->
<g id="edge1" class="edge">
<title>Node1&#45;&gt;Node2</title>
<path fill="none" stroke="#191970" d="M120.0473,-79.0904C133.943,-83.2805 148.7283,-87.7388 162.6169,-91.9268"/>
<polygon fill="#191970" stroke="#191970" points="161.9613,-95.3847 172.546,-94.9208 163.9822,-88.6827 161.9613,-95.3847"/>
</g>
<!-- Node3 -->
<g id="node3" class="node">
<title>Node3</title>
<g id="a_node3"><a xlink:href="namespacemom__barotropic.html#a28fa2e7600a471735c3b827ac08ed94b" target="_top" xlink:title="This subroutine is used to register any fields from MOM_barotropic.F90 that should be written to or r...">
<polygon fill="#ffffff" stroke="#000000" points="156,-45.9838 156,-75.9838 289,-75.9838 289,-45.9838 156,-45.9838"/>
<text text-anchor="start" x="164" y="-63.9838" font-family="Helvetica,sans-Serif" font-size="10.00" fill="#000000">mom_barotropic::register</text>
<text text-anchor="middle" x="222.5" y="-52.9838" font-family="Helvetica,sans-Serif" font-size="10.00" fill="#000000">_barotropic_restarts</text>
</a>
</g>
</g>
<!-- Node1&#45;&gt;Node3 -->
<g id="edge2" class="edge">
<title>Node1&#45;&gt;Node3</title>
<path fill="none" stroke="#191970" d="M120.0473,-60.9838C128.4301,-60.9838 137.1366,-60.9838 145.7747,-60.9838"/>
<polygon fill="#191970" stroke="#191970" points="145.8601,-64.4839 155.8601,-60.9838 145.8601,-57.4839 145.8601,-64.4839"/>
</g>
<!-- Node6 -->
<g id="node6" class="node">
<title>Node6</title>
<g id="a_node6"><a xlink:href="namespacemom__io.html#a09be50ad112d6bc134d06d82fcbe1fdc" target="_top" xlink:title="Returns a vardesc type whose elements have been filled with the provided fields. The argument name is...">
<polygon fill="#ffffff" stroke="#000000" points="325,-10.4838 325,-29.4838 426,-29.4838 426,-10.4838 325,-10.4838"/>
<text text-anchor="middle" x="375.5" y="-17.4838" font-family="Helvetica,sans-Serif" font-size="10.00" fill="#000000">mom_io::var_desc</text>
</a>
</g>
</g>
<!-- Node1&#45;&gt;Node6 -->
<g id="edge10" class="edge">
<title>Node1&#45;&gt;Node6</title>
<path fill="none" stroke="#191970" d="M120.069,-43.5546C131.897,-40.6304 144.2754,-37.9212 156,-35.9838 209.1594,-27.1997 270.3562,-23.2381 314.6057,-21.4514"/>
<polygon fill="#191970" stroke="#191970" points="314.7654,-24.948 324.6258,-21.0722 314.5006,-17.953 314.7654,-24.948"/>
</g>
<!-- Node4 -->
<g id="node4" class="node">
<title>Node4</title>
<g id="a_node4"><a xlink:href="namespacemom__error__handler.html#a460cfb79a06c29fc249952c2a3710d67" target="_top" xlink:title="This provides a convenient interface for writing an mpp_error message with run&#45;time filter based on a...">
<polygon fill="#ffffff" stroke="#000000" points="805,-26.9838 805,-56.9838 920,-56.9838 920,-26.9838 805,-26.9838"/>
<text text-anchor="start" x="813" y="-44.9838" font-family="Helvetica,sans-Serif" font-size="10.00" fill="#000000">mom_error_handler::</text>
<text text-anchor="middle" x="862.5" y="-33.9838" font-family="Helvetica,sans-Serif" font-size="10.00" fill="#000000">mom_error</text>
</a>
</g>
</g>
<!-- Node3&#45;&gt;Node4 -->
<g id="edge3" class="edge">
<title>Node3&#45;&gt;Node4</title>
<path fill="none" stroke="#191970" d="M289.18,-59.0042C411.7167,-55.3664 671.4313,-47.6562 794.7567,-43.9949"/>
<polygon fill="#191970" stroke="#191970" points="794.9365,-47.4912 804.8282,-43.6959 794.7287,-40.4943 794.9365,-47.4912"/>
</g>
<!-- Node3&#45;&gt;Node6 -->
<g id="edge5" class="edge">
<title>Node3&#45;&gt;Node6</title>
<path fill="none" stroke="#191970" d="M278.6028,-45.9497C295.5532,-41.4075 313.945,-36.4789 330.1049,-32.1485"/>
<polygon fill="#191970" stroke="#191970" points="331.0923,-35.5075 339.8455,-29.5383 329.2803,-28.746 331.0923,-35.5075"/>
</g>
<!-- Node5 -->
<g id="node5" class="node">
<title>Node5</title>
<g id="a_node5"><a xlink:href="namespacemom__error__handler.html#ad5f00a53059c72fe2332d1436c80ca71" target="_top" xlink:title="This returns .true. if the current PE is the root PE.">
<polygon fill="#ffffff" stroke="#000000" points="956,-26.9838 956,-56.9838 1071,-56.9838 1071,-26.9838 956,-26.9838"/>
<text text-anchor="start" x="964" y="-44.9838" font-family="Helvetica,sans-Serif" font-size="10.00" fill="#000000">mom_error_handler::</text>
<text text-anchor="middle" x="1013.5" y="-33.9838" font-family="Helvetica,sans-Serif" font-size="10.00" fill="#000000">is_root_pe</text>
</a>
</g>
</g>
<!-- Node4&#45;&gt;Node5 -->
<g id="edge4" class="edge">
<title>Node4&#45;&gt;Node5</title>
<path fill="none" stroke="#191970" d="M920.0174,-41.9838C928.4639,-41.9838 937.2292,-41.9838 945.8561,-41.9838"/>
<polygon fill="#191970" stroke="#191970" points="945.8926,-45.4839 955.8925,-41.9838 945.8925,-38.4839 945.8926,-45.4839"/>
</g>
<!-- Node7 -->
<g id="node7" class="node">
<title>Node7</title>
<g id="a_node7"><a xlink:href="namespacemom__io.html#a0dff28e4952f43175f84cd9cdcda9837" target="_top" xlink:title="This routine modifies the named elements of a vardesc type. All arguments are optional,...">
<polygon fill="#ffffff" stroke="#000000" points="462,-13.4838 462,-32.4838 594,-32.4838 594,-13.4838 462,-13.4838"/>
<text text-anchor="middle" x="528" y="-20.4838" font-family="Helvetica,sans-Serif" font-size="10.00" fill="#000000">mom_io::modify_vardesc</text>
</a>
</g>
</g>
<!-- Node6&#45;&gt;Node7 -->
<g id="edge6" class="edge">
<title>Node6&#45;&gt;Node7</title>
<path fill="none" stroke="#191970" d="M426.2803,-20.9828C434.5008,-21.1445 443.1674,-21.315 451.8327,-21.4854"/>
<polygon fill="#191970" stroke="#191970" points="451.9105,-24.9876 461.9775,-21.685 452.0483,-17.9889 451.9105,-24.9876"/>
</g>
<!-- Node8 -->
<g id="node8" class="node">
<title>Node8</title>
<g id="a_node8"><a xlink:href="namespacemom__io.html#ac4bc408e8b38dbd669842753f26ebf88" target="_top" xlink:title="Copies a string.">
<polygon fill="#ffffff" stroke="#000000" points="630,-13.4838 630,-32.4838 769,-32.4838 769,-13.4838 630,-13.4838"/>
<text text-anchor="middle" x="699.5" y="-20.4838" font-family="Helvetica,sans-Serif" font-size="10.00" fill="#000000">mom_io::safe_string_copy</text>
</a>
</g>
</g>
<!-- Node6&#45;&gt;Node8 -->
<g id="edge9" class="edge">
<title>Node6&#45;&gt;Node8</title>
<path fill="none" stroke="#191970" d="M418.4028,-10.4463C432.2444,-7.8003 447.7042,-5.2948 462,-3.9838 520.4215,1.3739 535.566,1.236 594,-3.9838 611.1929,-5.5196 629.7761,-8.4366 646.4853,-11.5324"/>
<polygon fill="#191970" stroke="#191970" points="646.1381,-15.0294 656.6178,-13.4722 647.4544,-8.1542 646.1381,-15.0294"/>
</g>
<!-- Node7&#45;&gt;Node8 -->
<g id="edge7" class="edge">
<title>Node7&#45;&gt;Node8</title>
<path fill="none" stroke="#191970" d="M594.3064,-22.9838C602.7071,-22.9838 611.3707,-22.9838 619.951,-22.9838"/>
<polygon fill="#191970" stroke="#191970" points="619.9646,-26.4839 629.9646,-22.9838 619.9645,-19.4839 619.9646,-26.4839"/>
</g>
<!-- Node8&#45;&gt;Node4 -->
<g id="edge8" class="edge">
<title>Node8&#45;&gt;Node4</title>
<path fill="none" stroke="#191970" d="M769.0995,-31.0966C777.5888,-32.0862 786.2542,-33.0963 794.7164,-34.0827"/>
<polygon fill="#191970" stroke="#191970" points="794.5742,-37.5897 804.9123,-35.2711 795.3848,-30.6368 794.5742,-37.5897"/>
</g>
</g>
</svg>
