<?xml version="1.0" encoding="UTF-8" standalone="no"?>
<!DOCTYPE svg PUBLIC "-//W3C//DTD SVG 1.1//EN"
 "http://www.w3.org/Graphics/SVG/1.1/DTD/svg11.dtd">
<!-- Generated by graphviz version 2.40.1 (20161225.0304)
 -->
<!-- Title: mom_string_functions::lowercase Pages: 1 -->
<svg width="749pt" height="433pt"
 viewBox="0.00 0.00 749.00 432.50" xmlns="http://www.w3.org/2000/svg" xmlns:xlink="http://www.w3.org/1999/xlink">
<g id="graph0" class="graph" transform="scale(1 1) rotate(0) translate(4 428.5)">
<title>mom_string_functions::lowercase</title>
<polygon fill="#ffffff" stroke="transparent" points="-4,4 -4,-428.5 745,-428.5 745,4 -4,4"/>
<!-- Node1 -->
<g id="node1" class="node">
<title>Node1</title>
<g id="a_node1"><a xlink:title="Return a string in which all uppercase letters have been replaced by their lowercase counterparts.">
<polygon fill="#bfbfbf" stroke="#000000" points="622,-224.5 622,-254.5 741,-254.5 741,-224.5 622,-224.5"/>
<text text-anchor="start" x="630" y="-242.5" font-family="Helvetica,sans-Serif" font-size="10.00" fill="#000000">mom_string_functions</text>
<text text-anchor="middle" x="681.5" y="-231.5" font-family="Helvetica,sans-Serif" font-size="10.00" fill="#000000">::lowercase</text>
</a>
</g>
</g>
<!-- Node2 -->
<g id="node2" class="node">
<title>Node2</title>
<g id="a_node2"><a xlink:href="namespacemom__io.html#ab4558f715ee39149cfe675832b7fa99d" target="_top" xlink:title="This function returns the CMOR standard name given a CMOR longname, based on the standard pattern of ...">
<polygon fill="#ffffff" stroke="#000000" points="456.5,-405 456.5,-424 584.5,-424 584.5,-405 456.5,-405"/>
<text text-anchor="middle" x="520.5" y="-412" font-family="Helvetica,sans-Serif" font-size="10.00" fill="#000000">mom_io::cmor_long_std</text>
</a>
</g>
</g>
<!-- Node1&#45;&gt;Node2 -->
<g id="edge1" class="edge">
<title>Node1&#45;&gt;Node2</title>
<path fill="none" stroke="#191970" d="M671.9684,-264.0714C657.9285,-297.2216 628.6558,-356.0736 586,-390.5 578.272,-396.7371 568.7745,-401.4409 559.4339,-404.9538"/>
<polygon fill="#191970" stroke="#191970" points="675.2706,-265.2438 675.8345,-254.664 668.796,-262.583 675.2706,-265.2438"/>
</g>
<!-- Node3 -->
<g id="node3" class="node">
<title>Node3</title>
<g id="a_node3"><a xlink:href="namespacemom__tracer__registry.html#ac11b2e622e1faf6667d2203854203643" target="_top" xlink:title="register_tracer_diagnostics does a set of register_diag_field calls for any previously registered in ...">
<polygon fill="#ffffff" stroke="#000000" points="269,-380.5 269,-410.5 419,-410.5 419,-380.5 269,-380.5"/>
<text text-anchor="start" x="277" y="-398.5" font-family="Helvetica,sans-Serif" font-size="10.00" fill="#000000">mom_tracer_registry</text>
<text text-anchor="middle" x="344" y="-387.5" font-family="Helvetica,sans-Serif" font-size="10.00" fill="#000000">::register_tracer_diagnostics</text>
</a>
</g>
</g>
<!-- Node1&#45;&gt;Node3 -->
<g id="edge11" class="edge">
<title>Node1&#45;&gt;Node3</title>
<path fill="none" stroke="#191970" d="M669.0485,-263.8188C653.5576,-291.3857 624.3949,-335.3595 586,-357.5 535.4343,-386.6588 469.5283,-395.4743 419.2655,-397.3785"/>
<polygon fill="#191970" stroke="#191970" points="672.2428,-265.2713 673.9504,-254.815 666.0949,-261.9242 672.2428,-265.2713"/>
</g>
<!-- Node4 -->
<g id="node4" class="node">
<title>Node4</title>
<g id="a_node4"><a xlink:href="namespacemom__diag__remap.html#a0f3324e591a16e1ef6e3fc7b9f800270" target="_top" xlink:title="Configure the vertical axes for a diagnostic remapping control structure. Reads a configuration param...">
<polygon fill="#ffffff" stroke="#000000" points="455,-317.5 455,-347.5 586,-347.5 586,-317.5 455,-317.5"/>
<text text-anchor="start" x="463" y="-335.5" font-family="Helvetica,sans-Serif" font-size="10.00" fill="#000000">mom_diag_remap::diag</text>
<text text-anchor="middle" x="520.5" y="-324.5" font-family="Helvetica,sans-Serif" font-size="10.00" fill="#000000">_remap_configure_axes</text>
</a>
</g>
</g>
<!-- Node1&#45;&gt;Node4 -->
<g id="edge3" class="edge">
<title>Node1&#45;&gt;Node4</title>
<path fill="none" stroke="#191970" d="M655.8693,-261.0069C637.3352,-275.7919 611.2187,-295.0989 586,-308.5 579.9041,-311.7394 573.2755,-314.726 566.6537,-317.4119"/>
<polygon fill="#191970" stroke="#191970" points="658.251,-263.582 663.821,-254.5695 653.8464,-258.1414 658.251,-263.582"/>
</g>
<!-- Node5 -->
<g id="node5" class="node">
<title>Node5</title>
<g id="a_node5"><a xlink:href="namespacemom__oda__driver__mod.html#aaaf67b8d0e0db3ba3dfe09e24d2b8b24" target="_top" xlink:title="initialize First_guess (prior) and Analysis grid information for all ensemble members">
<polygon fill="#ffffff" stroke="#000000" points="459.5,-268.5 459.5,-298.5 581.5,-298.5 581.5,-268.5 459.5,-268.5"/>
<text text-anchor="start" x="467.5" y="-286.5" font-family="Helvetica,sans-Serif" font-size="10.00" fill="#000000">mom_oda_driver_mod</text>
<text text-anchor="middle" x="520.5" y="-275.5" font-family="Helvetica,sans-Serif" font-size="10.00" fill="#000000">::init_oda</text>
</a>
</g>
</g>
<!-- Node1&#45;&gt;Node5 -->
<g id="edge4" class="edge">
<title>Node1&#45;&gt;Node5</title>
<path fill="none" stroke="#191970" d="M616.7234,-257.2029C603.0522,-260.9392 588.7514,-264.8475 575.4822,-268.4738"/>
<polygon fill="#191970" stroke="#191970" points="617.8197,-260.5317 626.5432,-254.5192 615.9743,-253.7794 617.8197,-260.5317"/>
</g>
<!-- Node6 -->
<g id="node6" class="node">
<title>Node6</title>
<g id="a_node6"><a xlink:href="namespacemom__state__initialization.html#a81503d4f1855cb185f122d6314e4f06c" target="_top" xlink:title="Initialize temporally evolving fields, either as initial conditions or by reading them from a restart...">
<polygon fill="#ffffff" stroke="#000000" points="279.5,-235.5 279.5,-265.5 408.5,-265.5 408.5,-235.5 279.5,-235.5"/>
<text text-anchor="start" x="287.5" y="-253.5" font-family="Helvetica,sans-Serif" font-size="10.00" fill="#000000">mom_state_initialization</text>
<text text-anchor="middle" x="344" y="-242.5" font-family="Helvetica,sans-Serif" font-size="10.00" fill="#000000">::mom_initialize_state</text>
</a>
</g>
</g>
<!-- Node1&#45;&gt;Node6 -->
<g id="edge5" class="edge">
<title>Node1&#45;&gt;Node6</title>
<path fill="none" stroke="#191970" d="M611.8505,-241.7701C552.1834,-243.7148 466.9157,-246.4939 408.7177,-248.3907"/>
<polygon fill="#191970" stroke="#191970" points="612.058,-245.2652 621.9387,-241.4413 611.8299,-238.269 612.058,-245.2652"/>
</g>
<!-- Node9 -->
<g id="node9" class="node">
<title>Node9</title>
<g id="a_node9"><a xlink:href="namespacemom__io.html#a79952045e028c6882f5b04ea5a1a83f7" target="_top" xlink:title="This function determines how many time levels a variable has.">
<polygon fill="#ffffff" stroke="#000000" points="455.5,-192 455.5,-211 585.5,-211 585.5,-192 455.5,-192"/>
<text text-anchor="middle" x="520.5" y="-199" font-family="Helvetica,sans-Serif" font-size="10.00" fill="#000000">mom_io::num_timelevels</text>
</a>
</g>
</g>
<!-- Node1&#45;&gt;Node9 -->
<g id="edge8" class="edge">
<title>Node1&#45;&gt;Node9</title>
<path fill="none" stroke="#191970" d="M611.4799,-222.9735C594.2073,-218.8967 576.2798,-214.6654 560.9517,-211.0476"/>
<polygon fill="#191970" stroke="#191970" points="611.0129,-226.4594 621.5495,-225.3502 612.621,-219.6466 611.0129,-226.4594"/>
</g>
<!-- Node11 -->
<g id="node11" class="node">
<title>Node11</title>
<g id="a_node11"><a xlink:href="namespacemom__restart.html#aec60d8a437fc858db4a020f9985b449d" target="_top" xlink:title="restore_state reads the model state from previously generated files. All restart variables are read f...">
<polygon fill="#ffffff" stroke="#000000" points="463.5,-142.5 463.5,-172.5 577.5,-172.5 577.5,-142.5 463.5,-142.5"/>
<text text-anchor="start" x="471.5" y="-160.5" font-family="Helvetica,sans-Serif" font-size="10.00" fill="#000000">mom_restart::restore</text>
<text text-anchor="middle" x="520.5" y="-149.5" font-family="Helvetica,sans-Serif" font-size="10.00" fill="#000000">_state</text>
</a>
</g>
</g>
<!-- Node1&#45;&gt;Node11 -->
<g id="edge12" class="edge">
<title>Node1&#45;&gt;Node11</title>
<path fill="none" stroke="#191970" d="M650.0804,-218.8649C631.8118,-207.3496 608.0987,-193.212 586,-182.5 578.7712,-178.996 570.9161,-175.637 563.2382,-172.5812"/>
<polygon fill="#191970" stroke="#191970" points="648.266,-221.8589 658.5804,-224.2807 652.0275,-215.9554 648.266,-221.8589"/>
</g>
<!-- Node15 -->
<g id="node15" class="node">
<title>Node15</title>
<g id="a_node15"><a xlink:href="namespacemom__tidal__mixing.html#a6278fe41ef74ac23ba02ae1540104c5f" target="_top" xlink:title="Initializes internal tidal dissipation scheme for diapycnal mixing.">
<polygon fill="#ffffff" stroke="#000000" points="458,-93.5 458,-123.5 583,-123.5 583,-93.5 458,-93.5"/>
<text text-anchor="start" x="466" y="-111.5" font-family="Helvetica,sans-Serif" font-size="10.00" fill="#000000">mom_tidal_mixing::tidal</text>
<text text-anchor="middle" x="520.5" y="-100.5" font-family="Helvetica,sans-Serif" font-size="10.00" fill="#000000">_mixing_init</text>
</a>
</g>
</g>
<!-- Node1&#45;&gt;Node15 -->
<g id="edge19" class="edge">
<title>Node1&#45;&gt;Node15</title>
<path fill="none" stroke="#191970" d="M665.8539,-216.0243C648.781,-192.0356 619.3863,-155.1781 586,-132.5 580.9909,-129.0975 575.4398,-126.1086 569.7496,-123.5014"/>
<polygon fill="#191970" stroke="#191970" points="662.9826,-218.0257 671.5709,-224.2298 668.726,-214.0241 662.9826,-218.0257"/>
</g>
<!-- Node16 -->
<g id="node16" class="node">
<title>Node16</title>
<g id="a_node16"><a xlink:href="namespacemom__tracer__registry.html#a67e71e90d3747dd97a917f6541f39b56" target="_top" xlink:title="Find a tracer in the tracer registry by name.">
<polygon fill="#ffffff" stroke="#000000" points="461.5,-22.5 461.5,-52.5 579.5,-52.5 579.5,-22.5 461.5,-22.5"/>
<text text-anchor="start" x="469.5" y="-40.5" font-family="Helvetica,sans-Serif" font-size="10.00" fill="#000000">mom_tracer_registry</text>
<text text-anchor="middle" x="520.5" y="-29.5" font-family="Helvetica,sans-Serif" font-size="10.00" fill="#000000">::tracer_name_lookup</text>
</a>
</g>
</g>
<!-- Node1&#45;&gt;Node16 -->
<g id="edge20" class="edge">
<title>Node1&#45;&gt;Node16</title>
<path fill="none" stroke="#191970" d="M670.5088,-215.1508C654.9835,-182.5745 624.216,-124.2001 586,-83.5 574.6811,-71.4453 559.732,-60.658 546.9734,-52.5647"/>
<polygon fill="#191970" stroke="#191970" points="667.4208,-216.81 674.829,-224.3843 673.7612,-213.8434 667.4208,-216.81"/>
</g>
<!-- Node2&#45;&gt;Node3 -->
<g id="edge2" class="edge">
<title>Node2&#45;&gt;Node3</title>
<path fill="none" stroke="#191970" d="M446.2916,-406.5116C437.3524,-405.5493 428.2159,-404.5657 419.2618,-403.6018"/>
<polygon fill="#191970" stroke="#191970" points="445.963,-409.9963 456.2802,-407.5868 446.7122,-403.0365 445.963,-409.9963"/>
</g>
<!-- Node7 -->
<g id="node7" class="node">
<title>Node7</title>
<g id="a_node7"><a xlink:href="namespacemom.html#a96708b16215666edbfa5b46228f3a200" target="_top" xlink:title="Initialize MOM, including memory allocation, setting up parameters and diagnostics,...">
<polygon fill="#ffffff" stroke="#000000" points="113.5,-235 113.5,-254 223.5,-254 223.5,-235 113.5,-235"/>
<text text-anchor="middle" x="168.5" y="-242" font-family="Helvetica,sans-Serif" font-size="10.00" fill="#000000">mom::initialize_mom</text>
</a>
</g>
</g>
<!-- Node6&#45;&gt;Node7 -->
<g id="edge6" class="edge">
<title>Node6&#45;&gt;Node7</title>
<path fill="none" stroke="#191970" d="M268.7509,-247.9274C253.5811,-247.4088 237.9025,-246.8727 223.5788,-246.383"/>
<polygon fill="#191970" stroke="#191970" points="269.0351,-251.4391 279.1489,-248.2829 269.2744,-244.4431 269.0351,-251.4391"/>
</g>
<!-- Node8 -->
<g id="node8" class="node">
<title>Node8</title>
<g id="a_node8"><a xlink:href="MOM__driver_8F90.html#a08fffeb2d8e8acbf9ed4609be6d258c6" target="_top" xlink:title=" ">
<polygon fill="#ffffff" stroke="#000000" points="0,-192 0,-211 68,-211 68,-192 0,-192"/>
<text text-anchor="middle" x="34" y="-199" font-family="Helvetica,sans-Serif" font-size="10.00" fill="#000000">mom_main</text>
</a>
</g>
</g>
<!-- Node7&#45;&gt;Node8 -->
<g id="edge7" class="edge">
<title>Node7&#45;&gt;Node8</title>
<path fill="none" stroke="#191970" d="M129.0986,-231.9033C108.2195,-225.2282 82.9908,-217.1625 63.7665,-211.0164"/>
<polygon fill="#191970" stroke="#191970" points="128.0592,-235.2454 138.6501,-234.9569 130.1909,-228.5779 128.0592,-235.2454"/>
</g>
<!-- Node10 -->
<g id="node10" class="node">
<title>Node10</title>
<g id="a_node10"><a xlink:href="namespacemom__surface__forcing.html#a791cb2bd2daa4fd3f036b121995bfb6c" target="_top" xlink:title="Initialize the surface forcing module.">
<polygon fill="#ffffff" stroke="#000000" points="285,-186.5 285,-216.5 403,-216.5 403,-186.5 285,-186.5"/>
<text text-anchor="start" x="293" y="-204.5" font-family="Helvetica,sans-Serif" font-size="10.00" fill="#000000">mom_surface_forcing</text>
<text text-anchor="middle" x="344" y="-193.5" font-family="Helvetica,sans-Serif" font-size="10.00" fill="#000000">::surface_forcing_init</text>
</a>
</g>
</g>
<!-- Node9&#45;&gt;Node10 -->
<g id="edge9" class="edge">
<title>Node9&#45;&gt;Node10</title>
<path fill="none" stroke="#191970" d="M445.1469,-201.5C431.0945,-201.5 416.5963,-201.5 403.119,-201.5"/>
<polygon fill="#191970" stroke="#191970" points="445.2794,-205.0001 455.2794,-201.5 445.2793,-198.0001 445.2794,-205.0001"/>
</g>
<!-- Node10&#45;&gt;Node8 -->
<g id="edge10" class="edge">
<title>Node10&#45;&gt;Node8</title>
<path fill="none" stroke="#191970" d="M274.925,-201.5C210.7847,-201.5 117.9462,-201.5 68.3261,-201.5"/>
<polygon fill="#191970" stroke="#191970" points="274.9617,-205.0001 284.9617,-201.5 274.9617,-198.0001 274.9617,-205.0001"/>
</g>
<!-- Node11&#45;&gt;Node6 -->
<g id="edge15" class="edge">
<title>Node11&#45;&gt;Node6</title>
<path fill="none" stroke="#191970" d="M462.9985,-177.3573C460.219,-178.9595 457.5343,-180.6722 455,-182.5 434.5071,-197.2804 439.891,-212.2878 419,-226.5 414.0265,-229.8835 408.547,-232.813 402.8824,-235.3444"/>
<polygon fill="#191970" stroke="#191970" points="464.8714,-180.3284 472.1298,-172.6105 461.6426,-174.1175 464.8714,-180.3284"/>
</g>
<!-- Node11&#45;&gt;Node10 -->
<g id="edge18" class="edge">
<title>Node11&#45;&gt;Node10</title>
<path fill="none" stroke="#191970" d="M453.1055,-174.3009C436.652,-178.4026 419.1725,-182.7601 403.1372,-186.7576"/>
<polygon fill="#191970" stroke="#191970" points="454.3391,-177.6006 463.1955,-171.7855 452.6458,-170.8084 454.3391,-177.6006"/>
</g>
<!-- Node12 -->
<g id="node12" class="node">
<title>Node12</title>
<g id="a_node12"><a xlink:href="namespacemom__ice__shelf.html#a5990f9918493ff4984245eac74e5f4d9" target="_top" xlink:title="Initializes shelf model data, parameters and diagnostics.">
<polygon fill="#ffffff" stroke="#000000" points="104,-142.5 104,-172.5 233,-172.5 233,-142.5 104,-142.5"/>
<text text-anchor="start" x="112" y="-160.5" font-family="Helvetica,sans-Serif" font-size="10.00" fill="#000000">mom_ice_shelf::initialize</text>
<text text-anchor="middle" x="168.5" y="-149.5" font-family="Helvetica,sans-Serif" font-size="10.00" fill="#000000">_ice_shelf</text>
</a>
</g>
</g>
<!-- Node11&#45;&gt;Node12 -->
<g id="edge13" class="edge">
<title>Node11&#45;&gt;Node12</title>
<path fill="none" stroke="#191970" d="M452.8853,-157.5C389.584,-157.5 295.6514,-157.5 233.284,-157.5"/>
<polygon fill="#191970" stroke="#191970" points="453.1617,-161.0001 463.1617,-157.5 453.1617,-154.0001 453.1617,-161.0001"/>
</g>
<!-- Node13 -->
<g id="node13" class="node">
<title>Node13</title>
<g id="a_node13"><a xlink:href="namespacemom__surface__forcing__nuopc.html#a06657bd6f01be304accc1f2e964fefa1" target="_top" xlink:title="Initialize the surface forcing, including setting parameters and allocating permanent memory.">
<polygon fill="#ffffff" stroke="#000000" points="270,-98.5 270,-128.5 418,-128.5 418,-98.5 270,-98.5"/>
<text text-anchor="start" x="278" y="-116.5" font-family="Helvetica,sans-Serif" font-size="10.00" fill="#000000">mom_surface_forcing</text>
<text text-anchor="middle" x="344" y="-105.5" font-family="Helvetica,sans-Serif" font-size="10.00" fill="#000000">_nuopc::surface_forcing_init</text>
</a>
</g>
</g>
<!-- Node11&#45;&gt;Node13 -->
<g id="edge16" class="edge">
<title>Node11&#45;&gt;Node13</title>
<path fill="none" stroke="#191970" d="M453.32,-140.7526C437.2198,-136.7389 420.126,-132.4776 404.3565,-128.5464"/>
<polygon fill="#191970" stroke="#191970" points="452.6458,-144.1916 463.1955,-143.2145 454.3391,-137.3994 452.6458,-144.1916"/>
</g>
<!-- Node14 -->
<g id="node14" class="node">
<title>Node14</title>
<g id="a_node14"><a xlink:href="namespacemom__surface__forcing__mct.html#a9b444c1127c12220af99c66f7d38460d" target="_top" xlink:title="Initialize the surface forcing, including setting parameters and allocating permanent memory.">
<polygon fill="#ffffff" stroke="#000000" points="276,-49.5 276,-79.5 412,-79.5 412,-49.5 276,-49.5"/>
<text text-anchor="start" x="284" y="-67.5" font-family="Helvetica,sans-Serif" font-size="10.00" fill="#000000">mom_surface_forcing</text>
<text text-anchor="middle" x="344" y="-56.5" font-family="Helvetica,sans-Serif" font-size="10.00" fill="#000000">_mct::surface_forcing_init</text>
</a>
</g>
</g>
<!-- Node11&#45;&gt;Node14 -->
<g id="edge17" class="edge">
<title>Node11&#45;&gt;Node14</title>
<path fill="none" stroke="#191970" d="M462.9985,-137.6427C460.219,-136.0405 457.5343,-134.3278 455,-132.5 434.5071,-117.7196 439.891,-102.7122 419,-88.5 414.0265,-85.1165 408.547,-82.187 402.8824,-79.6556"/>
<polygon fill="#191970" stroke="#191970" points="461.6426,-140.8825 472.1298,-142.3895 464.8714,-134.6716 461.6426,-140.8825"/>
</g>
<!-- Node12&#45;&gt;Node8 -->
<g id="edge14" class="edge">
<title>Node12&#45;&gt;Node8</title>
<path fill="none" stroke="#191970" d="M112.7408,-175.7409C95.7589,-181.2963 77.7697,-187.1813 63.2791,-191.9217"/>
<polygon fill="#191970" stroke="#191970" points="114.1728,-178.9551 122.5889,-172.5192 111.9963,-172.302 114.1728,-178.9551"/>
</g>
<!-- Node17 -->
<g id="node17" class="node">
<title>Node17</title>
<g id="a_node17"><a xlink:href="namespacedome__initialization.html#a7f1f259541709210b38665ea779e623c" target="_top" xlink:title="This subroutine sets the properties of flow at open boundary conditions. This particular example is f...">
<polygon fill="#ffffff" stroke="#000000" points="285.5,-.5 285.5,-30.5 402.5,-30.5 402.5,-.5 285.5,-.5"/>
<text text-anchor="start" x="293.5" y="-18.5" font-family="Helvetica,sans-Serif" font-size="10.00" fill="#000000">dome_initialization</text>
<text text-anchor="middle" x="344" y="-7.5" font-family="Helvetica,sans-Serif" font-size="10.00" fill="#000000">::dome_set_obc_data</text>
</a>
</g>
</g>
<!-- Node16&#45;&gt;Node17 -->
<g id="edge21" class="edge">
<title>Node16&#45;&gt;Node17</title>
<path fill="none" stroke="#191970" d="M450.8635,-28.8201C434.8543,-26.8246 417.989,-24.7224 402.5067,-22.7926"/>
<polygon fill="#191970" stroke="#191970" points="450.8809,-32.3493 461.2371,-30.1131 451.7468,-25.403 450.8809,-32.3493"/>
</g>
</g>
</svg>
