<?xml version="1.0" encoding="UTF-8" standalone="no"?>
<!DOCTYPE svg PUBLIC "-//W3C//DTD SVG 1.1//EN"
 "http://www.w3.org/Graphics/SVG/1.1/DTD/svg11.dtd">
<!-- Generated by graphviz version 2.40.1 (20161225.0304)
 -->
<!-- Title: mom_wave_interface::get_langmuir_number Pages: 1 -->
<svg width="443pt" height="186pt"
 viewBox="0.00 0.00 443.00 186.00" xmlns="http://www.w3.org/2000/svg" xmlns:xlink="http://www.w3.org/1999/xlink">
<g id="graph0" class="graph" transform="scale(1 1) rotate(0) translate(4 182)">
<title>mom_wave_interface::get_langmuir_number</title>
<polygon fill="#ffffff" stroke="transparent" points="-4,4 -4,-182 439,-182 439,4 -4,4"/>
<!-- Node1 -->
<g id="node1" class="node">
<title>Node1</title>
<g id="a_node1"><a xlink:title="Interface to get Langmuir number based on options stored in wave structure.">
<polygon fill="#bfbfbf" stroke="#000000" points="0,-73.5 0,-103.5 116,-103.5 116,-73.5 0,-73.5"/>
<text text-anchor="start" x="8" y="-91.5" font-family="Helvetica,sans-Serif" font-size="10.00" fill="#000000">mom_wave_interface</text>
<text text-anchor="middle" x="58" y="-80.5" font-family="Helvetica,sans-Serif" font-size="10.00" fill="#000000">::get_langmuir_number</text>
</a>
</g>
</g>
<!-- Node2 -->
<g id="node2" class="node">
<title>Node2</title>
<g id="a_node2"><a xlink:href="namespacemom__wave__interface.html#a5ebd32de10bed6d66c0a95a4a15cc81a" target="_top" xlink:title="Get SL averaged Stokes drift from the banded Spectrum method.">
<polygon fill="#ffffff" stroke="#000000" points="161.5,-147.5 161.5,-177.5 276.5,-177.5 276.5,-147.5 161.5,-147.5"/>
<text text-anchor="start" x="169.5" y="-165.5" font-family="Helvetica,sans-Serif" font-size="10.00" fill="#000000">mom_wave_interface</text>
<text text-anchor="middle" x="219" y="-154.5" font-family="Helvetica,sans-Serif" font-size="10.00" fill="#000000">::get_sl_average_band</text>
</a>
</g>
</g>
<!-- Node1&#45;&gt;Node2 -->
<g id="edge1" class="edge">
<title>Node1&#45;&gt;Node2</title>
<path fill="none" stroke="#191970" d="M83.832,-103.5472C102.4391,-114.0604 128.3331,-128.0327 152,-138.5 156.0503,-140.2913 160.2799,-142.0516 164.5591,-143.7542"/>
<polygon fill="#191970" stroke="#191970" points="163.3666,-147.0455 173.9561,-147.3796 165.8862,-140.5147 163.3666,-147.0455"/>
</g>
<!-- Node3 -->
<g id="node3" class="node">
<title>Node3</title>
<g id="a_node3"><a xlink:href="namespacemom__wave__interface.html#ae631a776ca48a5b8be572bed00e6f5c1" target="_top" xlink:title="Get SL Averaged Stokes drift from a Stokes drift Profile.">
<polygon fill="#ffffff" stroke="#000000" points="164,-98.5 164,-128.5 274,-128.5 274,-98.5 164,-98.5"/>
<text text-anchor="start" x="172" y="-116.5" font-family="Helvetica,sans-Serif" font-size="10.00" fill="#000000">mom_wave_interface</text>
<text text-anchor="middle" x="219" y="-105.5" font-family="Helvetica,sans-Serif" font-size="10.00" fill="#000000">::get_sl_average_prof</text>
</a>
</g>
</g>
<!-- Node1&#45;&gt;Node3 -->
<g id="edge2" class="edge">
<title>Node1&#45;&gt;Node3</title>
<path fill="none" stroke="#191970" d="M116.1247,-97.5256C128.4201,-99.4348 141.4721,-101.4615 154.0031,-103.4073"/>
<polygon fill="#191970" stroke="#191970" points="153.498,-106.8707 163.9167,-104.9467 154.5722,-99.9536 153.498,-106.8707"/>
</g>
<!-- Node4 -->
<g id="node4" class="node">
<title>Node4</title>
<g id="a_node4"><a xlink:href="namespacemom__wave__interface.html#a42ca9104192ff12c44c28b705d137eb9" target="_top" xlink:title="Get SL averaged Stokes drift from Li/FK 17 method.">
<polygon fill="#ffffff" stroke="#000000" points="152,-49.5 152,-79.5 286,-79.5 286,-49.5 152,-49.5"/>
<text text-anchor="start" x="160" y="-67.5" font-family="Helvetica,sans-Serif" font-size="10.00" fill="#000000">mom_wave_interface</text>
<text text-anchor="middle" x="219" y="-56.5" font-family="Helvetica,sans-Serif" font-size="10.00" fill="#000000">::get_stokessl_lifoxkemper</text>
</a>
</g>
</g>
<!-- Node1&#45;&gt;Node4 -->
<g id="edge3" class="edge">
<title>Node1&#45;&gt;Node4</title>
<path fill="none" stroke="#191970" d="M116.1247,-79.8354C124.476,-78.5905 133.1763,-77.2936 141.8253,-76.0043"/>
<polygon fill="#191970" stroke="#191970" points="142.5564,-79.4341 151.931,-74.4979 141.5242,-72.5106 142.5564,-79.4341"/>
</g>
<!-- Node6 -->
<g id="node6" class="node">
<title>Node6</title>
<g id="a_node6"><a xlink:href="namespacemom__error__handler.html#a460cfb79a06c29fc249952c2a3710d67" target="_top" xlink:title="This provides a convenient interface for writing an mpp_error message with run&#45;time filter based on a...">
<polygon fill="#ffffff" stroke="#000000" points="166,-.5 166,-30.5 272,-30.5 272,-.5 166,-.5"/>
<text text-anchor="start" x="174" y="-18.5" font-family="Helvetica,sans-Serif" font-size="10.00" fill="#000000">mom_error_handler::</text>
<text text-anchor="middle" x="219" y="-7.5" font-family="Helvetica,sans-Serif" font-size="10.00" fill="#000000">mom_error</text>
</a>
</g>
</g>
<!-- Node1&#45;&gt;Node6 -->
<g id="edge5" class="edge">
<title>Node1&#45;&gt;Node6</title>
<path fill="none" stroke="#191970" d="M85.5643,-73.3647C104.0873,-63.4587 129.191,-50.5393 152,-40.5 156.7779,-38.397 161.7938,-36.3104 166.8405,-34.2916"/>
<polygon fill="#191970" stroke="#191970" points="168.4886,-37.4054 176.5293,-30.5062 165.9412,-30.8853 168.4886,-37.4054"/>
</g>
<!-- Node5 -->
<g id="node5" class="node">
<title>Node5</title>
<g id="a_node5"><a xlink:href="namespacemom__wave__interface.html#ae771d75c78a0370ad163edd5b1c19965" target="_top" xlink:title="Computes wind speed from ustar_air based on COARE 3.5 Cd relationship Probably doesn&#39;t belong in this...">
<polygon fill="#ffffff" stroke="#000000" points="322,-49.5 322,-79.5 435,-79.5 435,-49.5 322,-49.5"/>
<text text-anchor="start" x="330" y="-67.5" font-family="Helvetica,sans-Serif" font-size="10.00" fill="#000000">mom_wave_interface</text>
<text text-anchor="middle" x="378.5" y="-56.5" font-family="Helvetica,sans-Serif" font-size="10.00" fill="#000000">::ust_2_u10_coare3p5</text>
</a>
</g>
</g>
<!-- Node4&#45;&gt;Node5 -->
<g id="edge4" class="edge">
<title>Node4&#45;&gt;Node5</title>
<path fill="none" stroke="#191970" d="M286.1801,-64.5C294.6539,-64.5 303.3219,-64.5 311.7884,-64.5"/>
<polygon fill="#191970" stroke="#191970" points="311.9892,-68.0001 321.9892,-64.5 311.9891,-61.0001 311.9892,-68.0001"/>
</g>
<!-- Node7 -->
<g id="node7" class="node">
<title>Node7</title>
<g id="a_node7"><a xlink:href="namespacemom__error__handler.html#ad5f00a53059c72fe2332d1436c80ca71" target="_top" xlink:title="This returns .true. if the current PE is the root PE.">
<polygon fill="#ffffff" stroke="#000000" points="325.5,-.5 325.5,-30.5 431.5,-30.5 431.5,-.5 325.5,-.5"/>
<text text-anchor="start" x="333.5" y="-18.5" font-family="Helvetica,sans-Serif" font-size="10.00" fill="#000000">mom_error_handler::</text>
<text text-anchor="middle" x="378.5" y="-7.5" font-family="Helvetica,sans-Serif" font-size="10.00" fill="#000000">is_root_pe</text>
</a>
</g>
</g>
<!-- Node6&#45;&gt;Node7 -->
<g id="edge6" class="edge">
<title>Node6&#45;&gt;Node7</title>
<path fill="none" stroke="#191970" d="M272.1112,-15.5C285.8936,-15.5 300.8752,-15.5 315.1275,-15.5"/>
<polygon fill="#191970" stroke="#191970" points="315.349,-19.0001 325.349,-15.5 315.3489,-12.0001 315.349,-19.0001"/>
</g>
</g>
</svg>
