<?xml version="1.0" encoding="UTF-8" standalone="no"?>
<!DOCTYPE svg PUBLIC "-//W3C//DTD SVG 1.1//EN"
 "http://www.w3.org/Graphics/SVG/1.1/DTD/svg11.dtd">
<!-- Generated by graphviz version 2.40.1 (20161225.0304)
 -->
<!-- Title: mom_offline_aux::distribute_residual_vh_upwards Pages: 1 -->
<svg width="322pt" height="39pt"
 viewBox="0.00 0.00 322.00 39.00" xmlns="http://www.w3.org/2000/svg" xmlns:xlink="http://www.w3.org/1999/xlink">
<g id="graph0" class="graph" transform="scale(1 1) rotate(0) translate(4 35)">
<title>mom_offline_aux::distribute_residual_vh_upwards</title>
<polygon fill="#ffffff" stroke="transparent" points="-4,4 -4,-35 318,-35 318,4 -4,4"/>
<!-- Node1 -->
<g id="node1" class="node">
<title>Node1</title>
<g id="a_node1"><a xlink:title="In the case where offline advection has failed to converge, redistribute the u&#45;flux into layers above...">
<polygon fill="#bfbfbf" stroke="#000000" points="171,-.5 171,-30.5 314,-30.5 314,-.5 171,-.5"/>
<text text-anchor="start" x="179" y="-18.5" font-family="Helvetica,sans-Serif" font-size="10.00" fill="#000000">mom_offline_aux::distribute</text>
<text text-anchor="middle" x="242.5" y="-7.5" font-family="Helvetica,sans-Serif" font-size="10.00" fill="#000000">_residual_vh_upwards</text>
</a>
</g>
</g>
<!-- Node2 -->
<g id="node2" class="node">
<title>Node2</title>
<g id="a_node2"><a xlink:href="namespacemom__offline__main.html#a312c47e83e64a6bdf064526f77a8a8ec" target="_top" xlink:title="In the case where the main advection routine did not converge, something needs to be done with the re...">
<polygon fill="#ffffff" stroke="#000000" points="0,-.5 0,-30.5 135,-30.5 135,-.5 0,-.5"/>
<text text-anchor="start" x="8" y="-18.5" font-family="Helvetica,sans-Serif" font-size="10.00" fill="#000000">mom_offline_main::offline</text>
<text text-anchor="middle" x="67.5" y="-7.5" font-family="Helvetica,sans-Serif" font-size="10.00" fill="#000000">_redistribute_residual</text>
</a>
</g>
</g>
<!-- Node1&#45;&gt;Node2 -->
<g id="edge1" class="edge">
<title>Node1&#45;&gt;Node2</title>
<path fill="none" stroke="#191970" d="M160.7863,-15.5C152.1963,-15.5 143.5316,-15.5 135.1253,-15.5"/>
<polygon fill="#191970" stroke="#191970" points="160.8159,-19.0001 170.8159,-15.5 160.8158,-12.0001 160.8159,-19.0001"/>
</g>
</g>
</svg>
