<?xml version="1.0" encoding="UTF-8" standalone="no"?>
<!DOCTYPE svg PUBLIC "-//W3C//DTD SVG 1.1//EN"
 "http://www.w3.org/Graphics/SVG/1.1/DTD/svg11.dtd">
<!-- Generated by graphviz version 2.40.1 (20161225.0304)
 -->
<!-- Title: ocn_comp_mct::ocn_run_mct Pages: 1 -->
<svg width="958pt" height="327pt"
 viewBox="0.00 0.00 958.00 326.60" xmlns="http://www.w3.org/2000/svg" xmlns:xlink="http://www.w3.org/1999/xlink">
<g id="graph0" class="graph" transform="scale(1 1) rotate(0) translate(4 322.5969)">
<title>ocn_comp_mct::ocn_run_mct</title>
<polygon fill="#ffffff" stroke="transparent" points="-4,4 -4,-322.5969 954,-322.5969 954,4 -4,4"/>
<!-- Node1 -->
<g id="node1" class="node">
<title>Node1</title>
<g id="a_node1"><a xlink:title="Step forward ocean model for coupling interval.">
<polygon fill="#bfbfbf" stroke="#000000" points="0,-123.5969 0,-142.5969 146,-142.5969 146,-123.5969 0,-123.5969"/>
<text text-anchor="middle" x="73" y="-130.5969" font-family="Helvetica,sans-Serif" font-size="10.00" fill="#000000">ocn_comp_mct::ocn_run_mct</text>
</a>
</g>
</g>
<!-- Node2 -->
<g id="node2" class="node">
<title>Node2</title>
<g id="a_node2"><a xlink:href="namespacemom__surface__forcing__mct.html#a9af7b8d6d5057b4b46597412b2a1e3fe" target="_top" xlink:title="Save any restart files associated with the surface forcing.">
<polygon fill="#ffffff" stroke="#000000" points="185.5,-238.0969 185.5,-268.0969 318.5,-268.0969 318.5,-238.0969 185.5,-238.0969"/>
<text text-anchor="start" x="193.5" y="-256.0969" font-family="Helvetica,sans-Serif" font-size="10.00" fill="#000000">mom_surface_forcing</text>
<text text-anchor="middle" x="252" y="-245.0969" font-family="Helvetica,sans-Serif" font-size="10.00" fill="#000000">_mct::forcing_save_restart</text>
</a>
</g>
</g>
<!-- Node1&#45;&gt;Node2 -->
<g id="edge1" class="edge">
<title>Node1&#45;&gt;Node2</title>
<path fill="none" stroke="#191970" d="M82.7727,-142.8375C101.0019,-160.6063 141.98,-198.6951 182,-223.0969 188.2865,-226.93 195.1503,-230.515 202.0428,-233.7786"/>
<polygon fill="#191970" stroke="#191970" points="200.8549,-237.0828 211.4079,-238.0227 203.7443,-230.707 200.8549,-237.0828"/>
</g>
<!-- Node3 -->
<g id="node3" class="node">
<title>Node3</title>
<g id="a_node3"><a xlink:href="namespacemom__restart.html#ab88b83af8a7dc731b70bc534325ba2b4" target="_top" xlink:title="save_restart saves all registered variables to restart files.">
<polygon fill="#ffffff" stroke="#000000" points="358,-243.5969 358,-262.5969 489,-262.5969 489,-243.5969 358,-243.5969"/>
<text text-anchor="middle" x="423.5" y="-250.5969" font-family="Helvetica,sans-Serif" font-size="10.00" fill="#000000">mom_restart::save_restart</text>
</a>
</g>
</g>
<!-- Node1&#45;&gt;Node3 -->
<g id="edge14" class="edge">
<title>Node1&#45;&gt;Node3</title>
<path fill="none" stroke="#191970" d="M90.719,-142.7093C111.9554,-153.9553 148.8351,-172.6211 182,-185.0969 245.8857,-209.129 322.0487,-229.2192 371.5207,-241.1886"/>
<polygon fill="#191970" stroke="#191970" points="370.8124,-244.6179 381.3528,-243.5455 372.4442,-237.8107 370.8124,-244.6179"/>
</g>
<!-- Node6 -->
<g id="node6" class="node">
<title>Node6</title>
<g id="a_node6"><a xlink:href="namespacemom__error__handler.html#ad5f00a53059c72fe2332d1436c80ca71" target="_top" xlink:title="This returns .true. if the current PE is the root PE.">
<polygon fill="#ffffff" stroke="#000000" points="844,-156.0969 844,-186.0969 950,-186.0969 950,-156.0969 844,-156.0969"/>
<text text-anchor="start" x="852" y="-174.0969" font-family="Helvetica,sans-Serif" font-size="10.00" fill="#000000">mom_error_handler::</text>
<text text-anchor="middle" x="897" y="-163.0969" font-family="Helvetica,sans-Serif" font-size="10.00" fill="#000000">is_root_pe</text>
</a>
</g>
</g>
<!-- Node1&#45;&gt;Node6 -->
<g id="edge10" class="edge">
<title>Node1&#45;&gt;Node6</title>
<path fill="none" stroke="#191970" d="M121.9576,-142.6409C140.6831,-146.0253 162.2752,-149.6074 182,-152.0969 288.8176,-165.5783 315.835,-171.0969 423.5,-171.0969 423.5,-171.0969 423.5,-171.0969 595.5,-171.0969 677.7625,-171.0969 772.6502,-171.0969 833.6595,-171.0969"/>
<polygon fill="#191970" stroke="#191970" points="833.8987,-174.597 843.8987,-171.0969 833.8987,-167.597 833.8987,-174.597"/>
</g>
<!-- Node8 -->
<g id="node8" class="node">
<title>Node8</title>
<g id="a_node8"><a xlink:href="namespaceocn__comp__mct.html#ae6e624e91271864566a8407c61016a6f" target="_top" xlink:title="Returns the CESM run type.">
<polygon fill="#ffffff" stroke="#000000" points="182,-123.5969 182,-142.5969 322,-142.5969 322,-123.5969 182,-123.5969"/>
<text text-anchor="middle" x="252" y="-130.5969" font-family="Helvetica,sans-Serif" font-size="10.00" fill="#000000">ocn_comp_mct::get_runtype</text>
</a>
</g>
</g>
<!-- Node1&#45;&gt;Node8 -->
<g id="edge8" class="edge">
<title>Node1&#45;&gt;Node8</title>
<path fill="none" stroke="#191970" d="M146.0643,-133.0969C154.449,-133.0969 163.033,-133.0969 171.5081,-133.0969"/>
<polygon fill="#191970" stroke="#191970" points="171.7713,-136.597 181.7712,-133.0969 171.7712,-129.597 171.7713,-136.597"/>
</g>
<!-- Node9 -->
<g id="node9" class="node">
<title>Node9</title>
<g id="a_node9"><a xlink:href="namespacemom__ice__shelf.html#a40ae01bbe3155191647f2150903dda69" target="_top" xlink:title="Save the ice shelf restart file.">
<polygon fill="#ffffff" stroke="#000000" points="201,-74.0969 201,-104.0969 303,-104.0969 303,-74.0969 201,-74.0969"/>
<text text-anchor="start" x="209" y="-92.0969" font-family="Helvetica,sans-Serif" font-size="10.00" fill="#000000">mom_ice_shelf::ice</text>
<text text-anchor="middle" x="252" y="-81.0969" font-family="Helvetica,sans-Serif" font-size="10.00" fill="#000000">_shelf_save_restart</text>
</a>
</g>
</g>
<!-- Node1&#45;&gt;Node9 -->
<g id="edge9" class="edge">
<title>Node1&#45;&gt;Node9</title>
<path fill="none" stroke="#191970" d="M111.8403,-123.5495C134.9988,-117.8569 164.9047,-110.5058 191.1403,-104.0568"/>
<polygon fill="#191970" stroke="#191970" points="192.1185,-107.4206 200.994,-101.6347 190.4475,-100.623 192.1185,-107.4206"/>
</g>
<!-- Node10 -->
<g id="node10" class="node">
<title>Node10</title>
<g id="a_node10"><a xlink:href="namespaceocn__cap__methods.html#af39334494fbc687da1569e2975b8d36e" target="_top" xlink:title="Maps outgoing ocean data to MCT attribute vector real array.">
<polygon fill="#ffffff" stroke="#000000" points="193,-25.0969 193,-55.0969 311,-55.0969 311,-25.0969 193,-25.0969"/>
<text text-anchor="start" x="201" y="-43.0969" font-family="Helvetica,sans-Serif" font-size="10.00" fill="#000000">ocn_cap_methods::ocn</text>
<text text-anchor="middle" x="252" y="-32.0969" font-family="Helvetica,sans-Serif" font-size="10.00" fill="#000000">_export</text>
</a>
</g>
</g>
<!-- Node1&#45;&gt;Node10 -->
<g id="edge11" class="edge">
<title>Node1&#45;&gt;Node10</title>
<path fill="none" stroke="#191970" d="M85.8453,-123.5534C105.6612,-109.165 145.249,-81.7285 182,-64.0969 185.779,-62.2839 189.7317,-60.5432 193.7524,-58.8858"/>
<polygon fill="#191970" stroke="#191970" points="195.1778,-62.0864 203.2079,-55.175 192.6205,-55.5702 195.1778,-62.0864"/>
</g>
<!-- Node11 -->
<g id="node11" class="node">
<title>Node11</title>
<g id="a_node11"><a xlink:href="namespaceocn__cap__methods.html#af40ca0e2761f786e1aeb5c7d93b946e9" target="_top" xlink:title="Maps incomping ocean data to MOM6 data structures.">
<polygon fill="#ffffff" stroke="#000000" points="364.5,-47.0969 364.5,-77.0969 482.5,-77.0969 482.5,-47.0969 364.5,-47.0969"/>
<text text-anchor="start" x="372.5" y="-65.0969" font-family="Helvetica,sans-Serif" font-size="10.00" fill="#000000">ocn_cap_methods::ocn</text>
<text text-anchor="middle" x="423.5" y="-54.0969" font-family="Helvetica,sans-Serif" font-size="10.00" fill="#000000">_import</text>
</a>
</g>
</g>
<!-- Node1&#45;&gt;Node11 -->
<g id="edge12" class="edge">
<title>Node1&#45;&gt;Node11</title>
<path fill="none" stroke="#191970" d="M78.2134,-123.2921C91.6099,-99.2942 129.8793,-37.906 182,-15.0969 239.0028,9.8488 261.2347,-1.7108 322,-15.0969 345.7943,-20.3386 370.6462,-31.7321 389.8033,-41.9882"/>
<polygon fill="#191970" stroke="#191970" points="388.2728,-45.1409 398.7207,-46.8997 391.65,-39.0094 388.2728,-45.1409"/>
</g>
<!-- Node2&#45;&gt;Node3 -->
<g id="edge2" class="edge">
<title>Node2&#45;&gt;Node3</title>
<path fill="none" stroke="#191970" d="M318.7975,-253.0969C328.1908,-253.0969 337.9036,-253.0969 347.4538,-253.0969"/>
<polygon fill="#191970" stroke="#191970" points="347.7301,-256.597 357.7301,-253.0969 347.73,-249.597 347.7301,-256.597"/>
</g>
<!-- Node4 -->
<g id="node4" class="node">
<title>Node4</title>
<g id="a_node4"><a xlink:href="namespacemom__restart.html#ac31159d0fec067a0a07ac1ac44a5ff8e" target="_top" xlink:title="Return bounds for computing checksums to store in restart files.">
<polygon fill="#ffffff" stroke="#000000" points="525,-288.0969 525,-318.0969 666,-318.0969 666,-288.0969 525,-288.0969"/>
<text text-anchor="start" x="533" y="-306.0969" font-family="Helvetica,sans-Serif" font-size="10.00" fill="#000000">mom_restart::get_checksum</text>
<text text-anchor="middle" x="595.5" y="-295.0969" font-family="Helvetica,sans-Serif" font-size="10.00" fill="#000000">_loop_ranges</text>
</a>
</g>
</g>
<!-- Node3&#45;&gt;Node4 -->
<g id="edge3" class="edge">
<title>Node3&#45;&gt;Node4</title>
<path fill="none" stroke="#191970" d="M456.2567,-262.6192C478.123,-268.9756 507.5602,-277.533 533.7357,-285.1421"/>
<polygon fill="#191970" stroke="#191970" points="533.0059,-288.5748 543.5854,-288.0054 534.9599,-281.853 533.0059,-288.5748"/>
</g>
<!-- Node5 -->
<g id="node5" class="node">
<title>Node5</title>
<g id="a_node5"><a xlink:href="namespacemom__error__handler.html#a460cfb79a06c29fc249952c2a3710d67" target="_top" xlink:title="This provides a convenient interface for writing an mpp_error message with run&#45;time filter based on a...">
<polygon fill="#ffffff" stroke="#000000" points="702,-200.0969 702,-230.0969 808,-230.0969 808,-200.0969 702,-200.0969"/>
<text text-anchor="start" x="710" y="-218.0969" font-family="Helvetica,sans-Serif" font-size="10.00" fill="#000000">mom_error_handler::</text>
<text text-anchor="middle" x="755" y="-207.0969" font-family="Helvetica,sans-Serif" font-size="10.00" fill="#000000">mom_error</text>
</a>
</g>
</g>
<!-- Node3&#45;&gt;Node5 -->
<g id="edge4" class="edge">
<title>Node3&#45;&gt;Node5</title>
<path fill="none" stroke="#191970" d="M489.0218,-253.474C538.06,-252.8171 606.6196,-249.9052 666,-240.0969 676.79,-238.3146 688.1414,-235.7099 698.9911,-232.8469"/>
<polygon fill="#191970" stroke="#191970" points="700.0653,-236.1816 708.7834,-230.1611 698.2138,-229.4309 700.0653,-236.1816"/>
</g>
<!-- Node7 -->
<g id="node7" class="node">
<title>Node7</title>
<g id="a_node7"><a xlink:href="namespacemom__restart.html#a4b143fb18dab7c0825e426fbf9532623" target="_top" xlink:title=" ">
<polygon fill="#ffffff" stroke="#000000" points="543,-200.0969 543,-230.0969 648,-230.0969 648,-200.0969 543,-200.0969"/>
<text text-anchor="start" x="551" y="-218.0969" font-family="Helvetica,sans-Serif" font-size="10.00" fill="#000000">mom_restart::restart</text>
<text text-anchor="middle" x="595.5" y="-207.0969" font-family="Helvetica,sans-Serif" font-size="10.00" fill="#000000">_error</text>
</a>
</g>
</g>
<!-- Node3&#45;&gt;Node7 -->
<g id="edge6" class="edge">
<title>Node3&#45;&gt;Node7</title>
<path fill="none" stroke="#191970" d="M466.9029,-243.5079C486.9248,-239.0844 511.0678,-233.7505 533.0016,-228.9046"/>
<polygon fill="#191970" stroke="#191970" points="533.8917,-232.2925 542.9012,-226.7175 532.3816,-225.4573 533.8917,-232.2925"/>
</g>
<!-- Node5&#45;&gt;Node6 -->
<g id="edge5" class="edge">
<title>Node5&#45;&gt;Node6</title>
<path fill="none" stroke="#191970" d="M803.4712,-200.0776C814.7696,-196.5767 826.9172,-192.8127 838.5951,-189.1942"/>
<polygon fill="#191970" stroke="#191970" points="839.7491,-192.5008 848.2652,-186.1978 837.6773,-185.8145 839.7491,-192.5008"/>
</g>
<!-- Node7&#45;&gt;Node5 -->
<g id="edge7" class="edge">
<title>Node7&#45;&gt;Node5</title>
<path fill="none" stroke="#191970" d="M648.1683,-215.0969C662.0416,-215.0969 677.1556,-215.0969 691.5322,-215.0969"/>
<polygon fill="#191970" stroke="#191970" points="691.8421,-218.597 701.8421,-215.0969 691.842,-211.597 691.8421,-218.597"/>
</g>
<!-- Node11&#45;&gt;Node6 -->
<g id="edge13" class="edge">
<title>Node11&#45;&gt;Node6</title>
<path fill="none" stroke="#191970" d="M482.5117,-75.6814C572.1189,-96.309 741.7793,-135.365 833.8066,-156.5497"/>
<polygon fill="#191970" stroke="#191970" points="833.2902,-160.0223 843.8206,-158.8549 834.8606,-153.2007 833.2902,-160.0223"/>
</g>
</g>
</svg>
