<?xml version="1.0" encoding="UTF-8" standalone="no"?>
<!DOCTYPE svg PUBLIC "-//W3C//DTD SVG 1.1//EN"
 "http://www.w3.org/Graphics/SVG/1.1/DTD/svg11.dtd">
<!-- Generated by graphviz version 2.40.1 (20161225.0304)
 -->
<!-- Title: mom_eos::eos_init Pages: 1 -->
<svg width="426pt" height="176pt"
 viewBox="0.00 0.00 426.00 175.50" xmlns="http://www.w3.org/2000/svg" xmlns:xlink="http://www.w3.org/1999/xlink">
<g id="graph0" class="graph" transform="scale(1 1) rotate(0) translate(4 171.5)">
<title>mom_eos::eos_init</title>
<polygon fill="#ffffff" stroke="transparent" points="-4,4 -4,-171.5 422,-171.5 422,4 -4,4"/>
<!-- Node1 -->
<g id="node1" class="node">
<title>Node1</title>
<g id="a_node1"><a xlink:title="Initializes EOS_type by allocating and reading parameters.">
<polygon fill="#bfbfbf" stroke="#000000" points="0,-79 0,-98 104,-98 104,-79 0,-79"/>
<text text-anchor="middle" x="52" y="-86" font-family="Helvetica,sans-Serif" font-size="10.00" fill="#000000">mom_eos::eos_init</text>
</a>
</g>
</g>
<!-- Node2 -->
<g id="node2" class="node">
<title>Node2</title>
<g id="a_node2"><a xlink:href="namespacemom__eos.html#a1108fb5de7a69d01746df3995f7e3f0d" target="_top" xlink:title="Allocates EOS_type.">
<polygon fill="#ffffff" stroke="#000000" points="140,-148 140,-167 267,-167 267,-148 140,-148"/>
<text text-anchor="middle" x="203.5" y="-155" font-family="Helvetica,sans-Serif" font-size="10.00" fill="#000000">mom_eos::eos_allocate</text>
</a>
</g>
</g>
<!-- Node1&#45;&gt;Node2 -->
<g id="edge1" class="edge">
<title>Node1&#45;&gt;Node2</title>
<path fill="none" stroke="#191970" d="M66.4229,-98.0518C83.4379,-108.9941 112.8528,-126.9033 140,-138.5 145.3556,-140.7878 151.0753,-142.9136 156.806,-144.852"/>
<polygon fill="#191970" stroke="#191970" points="155.807,-148.2072 166.3983,-147.9329 157.9476,-141.5425 155.807,-148.2072"/>
</g>
<!-- Node3 -->
<g id="node3" class="node">
<title>Node3</title>
<g id="a_node3"><a xlink:href="namespacemom__error__handler.html#a460cfb79a06c29fc249952c2a3710d67" target="_top" xlink:title="This provides a convenient interface for writing an mpp_error message with run&#45;time filter based on a...">
<polygon fill="#ffffff" stroke="#000000" points="146,-98.5 146,-128.5 261,-128.5 261,-98.5 146,-98.5"/>
<text text-anchor="start" x="154" y="-116.5" font-family="Helvetica,sans-Serif" font-size="10.00" fill="#000000">mom_error_handler::</text>
<text text-anchor="middle" x="203.5" y="-105.5" font-family="Helvetica,sans-Serif" font-size="10.00" fill="#000000">mom_error</text>
</a>
</g>
</g>
<!-- Node1&#45;&gt;Node3 -->
<g id="edge2" class="edge">
<title>Node1&#45;&gt;Node3</title>
<path fill="none" stroke="#191970" d="M104.1377,-97.1036C114.3212,-98.784 125.1374,-100.5689 135.7423,-102.3189"/>
<polygon fill="#191970" stroke="#191970" points="135.3811,-105.8065 145.8175,-103.9814 136.5208,-98.8999 135.3811,-105.8065"/>
</g>
<!-- Node5 -->
<g id="node5" class="node">
<title>Node5</title>
<g id="a_node5"><a xlink:href="namespacemom__error__handler.html#a1c462df7b61f1296407b4af51dfeceab" target="_top" xlink:title="This provides a convenient interface for writing an informative comment.">
<polygon fill="#ffffff" stroke="#000000" points="146,-49.5 146,-79.5 261,-79.5 261,-49.5 146,-49.5"/>
<text text-anchor="start" x="154" y="-67.5" font-family="Helvetica,sans-Serif" font-size="10.00" fill="#000000">mom_error_handler::</text>
<text text-anchor="middle" x="203.5" y="-56.5" font-family="Helvetica,sans-Serif" font-size="10.00" fill="#000000">mom_mesg</text>
</a>
</g>
</g>
<!-- Node1&#45;&gt;Node5 -->
<g id="edge4" class="edge">
<title>Node1&#45;&gt;Node5</title>
<path fill="none" stroke="#191970" d="M104.1377,-80.2406C114.3212,-78.6273 125.1374,-76.9139 135.7423,-75.2339"/>
<polygon fill="#191970" stroke="#191970" points="136.4883,-78.6594 145.8175,-73.6378 135.393,-71.7457 136.4883,-78.6594"/>
</g>
<!-- Node6 -->
<g id="node6" class="node">
<title>Node6</title>
<g id="a_node6"><a xlink:href="namespacemom__string__functions.html#aca148baf726de2f028b7e7baad3c85d4" target="_top" xlink:title="Return a string in which all uppercase letters have been replaced by their lowercase counterparts.">
<polygon fill="#ffffff" stroke="#000000" points="144,-.5 144,-30.5 263,-30.5 263,-.5 144,-.5"/>
<text text-anchor="start" x="152" y="-18.5" font-family="Helvetica,sans-Serif" font-size="10.00" fill="#000000">mom_string_functions</text>
<text text-anchor="middle" x="203.5" y="-7.5" font-family="Helvetica,sans-Serif" font-size="10.00" fill="#000000">::uppercase</text>
</a>
</g>
</g>
<!-- Node1&#45;&gt;Node6 -->
<g id="edge6" class="edge">
<title>Node1&#45;&gt;Node6</title>
<path fill="none" stroke="#191970" d="M68.2285,-78.8537C85.6525,-68.6862 114.3017,-52.5106 140,-40.5 144.3336,-38.4746 148.8798,-36.4662 153.4637,-34.5198"/>
<polygon fill="#191970" stroke="#191970" points="154.9687,-37.6849 162.8697,-30.6262 152.2913,-31.2172 154.9687,-37.6849"/>
</g>
<!-- Node4 -->
<g id="node4" class="node">
<title>Node4</title>
<g id="a_node4"><a xlink:href="namespacemom__error__handler.html#ad5f00a53059c72fe2332d1436c80ca71" target="_top" xlink:title="This returns .true. if the current PE is the root PE.">
<polygon fill="#ffffff" stroke="#000000" points="303,-73.5 303,-103.5 418,-103.5 418,-73.5 303,-73.5"/>
<text text-anchor="start" x="311" y="-91.5" font-family="Helvetica,sans-Serif" font-size="10.00" fill="#000000">mom_error_handler::</text>
<text text-anchor="middle" x="360.5" y="-80.5" font-family="Helvetica,sans-Serif" font-size="10.00" fill="#000000">is_root_pe</text>
</a>
</g>
</g>
<!-- Node3&#45;&gt;Node4 -->
<g id="edge3" class="edge">
<title>Node3&#45;&gt;Node4</title>
<path fill="none" stroke="#191970" d="M261.0695,-104.3329C271.4154,-102.6854 282.2846,-100.9547 292.8839,-99.2669"/>
<polygon fill="#191970" stroke="#191970" points="293.6123,-102.6951 302.9374,-97.666 292.5114,-95.7822 293.6123,-102.6951"/>
</g>
<!-- Node5&#45;&gt;Node4 -->
<g id="edge5" class="edge">
<title>Node5&#45;&gt;Node4</title>
<path fill="none" stroke="#191970" d="M261.0695,-73.3004C271.4154,-74.882 282.2846,-76.5435 292.8839,-78.1638"/>
<polygon fill="#191970" stroke="#191970" points="292.5234,-81.6492 302.9374,-79.7006 293.5812,-74.7296 292.5234,-81.6492"/>
</g>
</g>
</svg>
