<?xml version="1.0" encoding="UTF-8" standalone="no"?>
<!DOCTYPE svg PUBLIC "-//W3C//DTD SVG 1.1//EN"
 "http://www.w3.org/Graphics/SVG/1.1/DTD/svg11.dtd">
<!-- Generated by graphviz version 2.40.1 (20161225.0304)
 -->
<!-- Title: mom_regridding::initialize_regridding Pages: 1 -->
<svg width="1023pt" height="849pt"
 viewBox="0.00 0.00 1023.00 849.00" xmlns="http://www.w3.org/2000/svg" xmlns:xlink="http://www.w3.org/1999/xlink">
<g id="graph0" class="graph" transform="scale(1 1) rotate(0) translate(4 845)">
<title>mom_regridding::initialize_regridding</title>
<polygon fill="#ffffff" stroke="transparent" points="-4,4 -4,-845 1019,-845 1019,4 -4,4"/>
<!-- Node1 -->
<g id="node1" class="node">
<title>Node1</title>
<g id="a_node1"><a xlink:title="Initialization and configures a regridding control structure based on customizable run&#45;time parameter...">
<polygon fill="#bfbfbf" stroke="#000000" points="0,-382.5 0,-412.5 127,-412.5 127,-382.5 0,-382.5"/>
<text text-anchor="start" x="8" y="-400.5" font-family="Helvetica,sans-Serif" font-size="10.00" fill="#000000">mom_regridding::initialize</text>
<text text-anchor="middle" x="63.5" y="-389.5" font-family="Helvetica,sans-Serif" font-size="10.00" fill="#000000">_regridding</text>
</a>
</g>
</g>
<!-- Node2 -->
<g id="node2" class="node">
<title>Node2</title>
<g id="a_node2"><a xlink:href="namespacemom__regridding.html#ad4abdb8447ed3f4f769b822a468728b1" target="_top" xlink:title="Do some basic checks on the vertical grid definition file, variable.">
<polygon fill="#ffffff" stroke="#000000" points="169.5,-810.5 169.5,-840.5 287.5,-840.5 287.5,-810.5 169.5,-810.5"/>
<text text-anchor="start" x="177.5" y="-828.5" font-family="Helvetica,sans-Serif" font-size="10.00" fill="#000000">mom_regridding::check</text>
<text text-anchor="middle" x="228.5" y="-817.5" font-family="Helvetica,sans-Serif" font-size="10.00" fill="#000000">_grid_def</text>
</a>
</g>
</g>
<!-- Node1&#45;&gt;Node2 -->
<g id="edge1" class="edge">
<title>Node1&#45;&gt;Node2</title>
<path fill="none" stroke="#191970" d="M65.5043,-412.5901C74.417,-477.7463 112.2578,-734.4108 163,-795.5 165.9107,-799.0043 169.3191,-802.1187 173.0245,-804.8832"/>
<polygon fill="#191970" stroke="#191970" points="171.2365,-807.8951 181.533,-810.3919 175.0409,-802.0191 171.2365,-807.8951"/>
</g>
<!-- Node3 -->
<g id="node3" class="node">
<title>Node3</title>
<g id="a_node3"><a xlink:href="namespacemom__regridding.html#a2becd8126867cdce125b31e07d13065e" target="_top" xlink:title="Parses a string and generates a dz(:) profile that goes like k**power.">
<polygon fill="#ffffff" stroke="#000000" points="577,-610.5 577,-640.5 679,-640.5 679,-610.5 577,-610.5"/>
<text text-anchor="start" x="585" y="-628.5" font-family="Helvetica,sans-Serif" font-size="10.00" fill="#000000">mom_regridding::dz</text>
<text text-anchor="middle" x="628" y="-617.5" font-family="Helvetica,sans-Serif" font-size="10.00" fill="#000000">_function1</text>
</a>
</g>
</g>
<!-- Node1&#45;&gt;Node3 -->
<g id="edge2" class="edge">
<title>Node1&#45;&gt;Node3</title>
<path fill="none" stroke="#191970" d="M91.508,-412.6212C111.2827,-423.1081 138.5124,-437.17 163,-448.5 324.1276,-523.0513 363.4192,-545.8177 532,-601.5 543.215,-605.2043 555.3301,-608.65 567.0528,-611.7087"/>
<polygon fill="#191970" stroke="#191970" points="566.2249,-615.1095 576.7793,-614.1841 567.9515,-608.3257 566.2249,-615.1095"/>
</g>
<!-- Node4 -->
<g id="node4" class="node">
<title>Node4</title>
<g id="a_node4"><a xlink:href="namespacemom__error__handler.html#a460cfb79a06c29fc249952c2a3710d67" target="_top" xlink:title="This provides a convenient interface for writing an mpp_error message with run&#45;time filter based on a...">
<polygon fill="#ffffff" stroke="#000000" points="763.5,-389.5 763.5,-419.5 869.5,-419.5 869.5,-389.5 763.5,-389.5"/>
<text text-anchor="start" x="771.5" y="-407.5" font-family="Helvetica,sans-Serif" font-size="10.00" fill="#000000">mom_error_handler::</text>
<text text-anchor="middle" x="816.5" y="-396.5" font-family="Helvetica,sans-Serif" font-size="10.00" fill="#000000">mom_error</text>
</a>
</g>
</g>
<!-- Node1&#45;&gt;Node4 -->
<g id="edge22" class="edge">
<title>Node1&#45;&gt;Node4</title>
<path fill="none" stroke="#191970" d="M76.7674,-412.7302C94.7749,-432.7268 128.6632,-468.0381 163,-491.5 310.4444,-592.2468 356.5876,-617.0295 532,-650.5 615.8211,-666.4939 653.8407,-699.0742 724,-650.5 761.7979,-624.3309 797.4047,-486.934 810.8495,-429.632"/>
<polygon fill="#191970" stroke="#191970" points="814.3258,-430.1335 813.1676,-419.6021 807.5056,-428.5572 814.3258,-430.1335"/>
</g>
<!-- Node6 -->
<g id="node6" class="node">
<title>Node6</title>
<g id="a_node6"><a xlink:href="namespacemom__string__functions.html#aae12046c1401f23bd7e038655e30654e" target="_top" xlink:title="Returns the integer corresponding to the nth word in the argument.">
<polygon fill="#ffffff" stroke="#000000" points="172,-224.5 172,-254.5 285,-254.5 285,-224.5 172,-224.5"/>
<text text-anchor="start" x="180" y="-242.5" font-family="Helvetica,sans-Serif" font-size="10.00" fill="#000000">mom_string_functions</text>
<text text-anchor="middle" x="228.5" y="-231.5" font-family="Helvetica,sans-Serif" font-size="10.00" fill="#000000">::extract_integer</text>
</a>
</g>
</g>
<!-- Node1&#45;&gt;Node6 -->
<g id="edge5" class="edge">
<title>Node1&#45;&gt;Node6</title>
<path fill="none" stroke="#191970" d="M70.9115,-382.3771C85.0981,-354.913 118.6634,-296.6247 163,-263.5 164.8525,-262.116 166.793,-260.8049 168.7981,-259.5636"/>
<polygon fill="#191970" stroke="#191970" points="170.8437,-262.4337 177.9306,-254.558 167.4792,-256.2953 170.8437,-262.4337"/>
</g>
<!-- Node8 -->
<g id="node8" class="node">
<title>Node8</title>
<g id="a_node8"><a xlink:href="namespacemom__string__functions.html#a2f700337c5cf4e70a48bd0663570484e" target="_top" xlink:title="Returns the real corresponding to the nth word in the argument.">
<polygon fill="#ffffff" stroke="#000000" points="172,-175.5 172,-205.5 285,-205.5 285,-175.5 172,-175.5"/>
<text text-anchor="start" x="180" y="-193.5" font-family="Helvetica,sans-Serif" font-size="10.00" fill="#000000">mom_string_functions</text>
<text text-anchor="middle" x="228.5" y="-182.5" font-family="Helvetica,sans-Serif" font-size="10.00" fill="#000000">::extract_real</text>
</a>
</g>
</g>
<!-- Node1&#45;&gt;Node8 -->
<g id="edge7" class="edge">
<title>Node1&#45;&gt;Node8</title>
<path fill="none" stroke="#191970" d="M67.6846,-382.3651C78.016,-347.7204 107.9711,-261.9912 163,-214.5 164.3552,-213.3304 165.7723,-212.2159 167.2396,-211.1539"/>
<polygon fill="#191970" stroke="#191970" points="169.4723,-213.8868 176.111,-205.6298 165.7721,-207.9446 169.4723,-213.8868"/>
</g>
<!-- Node9 -->
<g id="node9" class="node">
<title>Node9</title>
<g id="a_node9"><a xlink:href="namespacemom__string__functions.html#a7bfdab6bba33230cc94ed625e95022c9" target="_top" xlink:title="Returns the string corresponding to the nth word in the argument or &quot;&quot; if the string is not long enou...">
<polygon fill="#ffffff" stroke="#000000" points="172,-126.5 172,-156.5 285,-156.5 285,-126.5 172,-126.5"/>
<text text-anchor="start" x="180" y="-144.5" font-family="Helvetica,sans-Serif" font-size="10.00" fill="#000000">mom_string_functions</text>
<text text-anchor="middle" x="228.5" y="-133.5" font-family="Helvetica,sans-Serif" font-size="10.00" fill="#000000">::extractword</text>
</a>
</g>
</g>
<!-- Node1&#45;&gt;Node9 -->
<g id="edge9" class="edge">
<title>Node1&#45;&gt;Node9</title>
<path fill="none" stroke="#191970" d="M65.7525,-382.4088C72.6169,-341.6199 96.9863,-228.0461 163,-165.5 164.1264,-164.4328 165.3041,-163.4122 166.5252,-162.4364"/>
<polygon fill="#191970" stroke="#191970" points="168.8022,-165.1221 175.1292,-156.6239 164.8836,-159.3216 168.8022,-165.1221"/>
</g>
<!-- Node10 -->
<g id="node10" class="node">
<title>Node10</title>
<g id="a_node10"><a xlink:href="namespacemom__regridding.html#ad9614000d524a78e043d52f9734314e0" target="_top" xlink:title="Initialize the coordinate resolutions by calling the appropriate initialization routine for the speci...">
<polygon fill="#ffffff" stroke="#000000" points="349,-464 349,-483 477,-483 477,-464 349,-464"/>
<text text-anchor="middle" x="413" y="-471" font-family="Helvetica,sans-Serif" font-size="10.00" fill="#000000">mom_regridding::initcoord</text>
</a>
</g>
</g>
<!-- Node1&#45;&gt;Node10 -->
<g id="edge11" class="edge">
<title>Node1&#45;&gt;Node10</title>
<path fill="none" stroke="#191970" d="M124.4686,-412.5284C137.1846,-415.5722 150.5166,-418.6969 163,-421.5 228.6931,-436.251 304.4296,-451.8015 355.1716,-462.0111"/>
<polygon fill="#191970" stroke="#191970" points="354.4829,-465.4426 364.9763,-463.98 355.8611,-458.5796 354.4829,-465.4426"/>
</g>
<!-- Node16 -->
<g id="node16" class="node">
<title>Node16</title>
<g id="a_node16"><a xlink:href="namespacemom__regridding.html#a64758b08fbd1d2a98d4d7de593fb49be" target="_top" xlink:title="Parses a string and generates a rho_target(:) profile with refined resolution downward and returns th...">
<polygon fill="#ffffff" stroke="#000000" points="176,-77.5 176,-107.5 281,-107.5 281,-77.5 176,-77.5"/>
<text text-anchor="start" x="184" y="-95.5" font-family="Helvetica,sans-Serif" font-size="10.00" fill="#000000">mom_regridding::rho</text>
<text text-anchor="middle" x="228.5" y="-84.5" font-family="Helvetica,sans-Serif" font-size="10.00" fill="#000000">_function1</text>
</a>
</g>
</g>
<!-- Node1&#45;&gt;Node16 -->
<g id="edge23" class="edge">
<title>Node1&#45;&gt;Node16</title>
<path fill="none" stroke="#191970" d="M64.4697,-382.3632C68.2412,-336.0207 85.8433,-194.5027 163,-116.5 164.4053,-115.0793 165.9015,-113.7421 167.4711,-112.4834"/>
<polygon fill="#191970" stroke="#191970" points="169.5231,-115.321 175.8495,-106.8224 165.6041,-109.5209 169.5231,-115.321"/>
</g>
<!-- Node17 -->
<g id="node17" class="node">
<title>Node17</title>
<g id="a_node17"><a xlink:href="namespacemom__regridding.html#aac547ec199090852d539c7aefc44dfa7" target="_top" xlink:title="Set maximum interface depths based on a vector of input values.">
<polygon fill="#ffffff" stroke="#000000" points="176,-382.5 176,-412.5 281,-412.5 281,-382.5 176,-382.5"/>
<text text-anchor="start" x="184" y="-400.5" font-family="Helvetica,sans-Serif" font-size="10.00" fill="#000000">mom_regridding::set</text>
<text text-anchor="middle" x="228.5" y="-389.5" font-family="Helvetica,sans-Serif" font-size="10.00" fill="#000000">_regrid_max_depths</text>
</a>
</g>
</g>
<!-- Node1&#45;&gt;Node17 -->
<g id="edge24" class="edge">
<title>Node1&#45;&gt;Node17</title>
<path fill="none" stroke="#191970" d="M127.2933,-397.5C139.8334,-397.5 152.9822,-397.5 165.4962,-397.5"/>
<polygon fill="#191970" stroke="#191970" points="165.8314,-401.0001 175.8313,-397.5 165.8313,-394.0001 165.8314,-401.0001"/>
</g>
<!-- Node20 -->
<g id="node20" class="node">
<title>Node20</title>
<g id="a_node20"><a xlink:href="namespacemom__regridding.html#ae91ca3f1376b3c72940268b5d9f87bb4" target="_top" xlink:title="Set maximum layer thicknesses based on a vector of input values.">
<polygon fill="#ffffff" stroke="#000000" points="170,-333.5 170,-363.5 287,-363.5 287,-333.5 170,-333.5"/>
<text text-anchor="start" x="178" y="-351.5" font-family="Helvetica,sans-Serif" font-size="10.00" fill="#000000">mom_regridding::set</text>
<text text-anchor="middle" x="228.5" y="-340.5" font-family="Helvetica,sans-Serif" font-size="10.00" fill="#000000">_regrid_max_thickness</text>
</a>
</g>
</g>
<!-- Node1&#45;&gt;Node20 -->
<g id="edge30" class="edge">
<title>Node1&#45;&gt;Node20</title>
<path fill="none" stroke="#191970" d="M114.3518,-382.3986C131.3692,-377.3449 150.5042,-371.6624 168.1734,-366.4152"/>
<polygon fill="#191970" stroke="#191970" points="169.2263,-369.7536 177.8161,-363.5516 167.2335,-363.0433 169.2263,-369.7536"/>
</g>
<!-- Node21 -->
<g id="node21" class="node">
<title>Node21</title>
<g id="a_node21"><a xlink:href="namespacemom__regridding.html#a92ee618890e604fd9730bce53c9d313f" target="_top" xlink:title="Can be used to set any of the parameters for MOM_regridding.">
<polygon fill="#ffffff" stroke="#000000" points="176,-273.5 176,-303.5 281,-303.5 281,-273.5 176,-273.5"/>
<text text-anchor="start" x="184" y="-291.5" font-family="Helvetica,sans-Serif" font-size="10.00" fill="#000000">mom_regridding::set</text>
<text text-anchor="middle" x="228.5" y="-280.5" font-family="Helvetica,sans-Serif" font-size="10.00" fill="#000000">_regrid_params</text>
</a>
</g>
</g>
<!-- Node1&#45;&gt;Node21 -->
<g id="edge33" class="edge">
<title>Node1&#45;&gt;Node21</title>
<path fill="none" stroke="#191970" d="M81.9807,-382.4495C101.5253,-366.8486 133.5468,-342.176 163,-323.5 171.2431,-318.2732 180.3388,-313.077 189.0619,-308.3504"/>
<polygon fill="#191970" stroke="#191970" points="190.7818,-311.3999 197.9662,-303.6131 187.494,-305.2201 190.7818,-311.3999"/>
</g>
<!-- Node29 -->
<g id="node29" class="node">
<title>Node29</title>
<g id="a_node29"><a xlink:href="namespacemom__regridding.html#ae7eade38ab8e2adb0797a7191ddebb18" target="_top" xlink:title="Set target densities based on vector of interface values.">
<polygon fill="#ffffff" stroke="#000000" points="360.5,-772.5 360.5,-802.5 465.5,-802.5 465.5,-772.5 360.5,-772.5"/>
<text text-anchor="start" x="368.5" y="-790.5" font-family="Helvetica,sans-Serif" font-size="10.00" fill="#000000">mom_regridding::set</text>
<text text-anchor="middle" x="413" y="-779.5" font-family="Helvetica,sans-Serif" font-size="10.00" fill="#000000">_target_densities</text>
</a>
</g>
</g>
<!-- Node1&#45;&gt;Node29 -->
<g id="edge48" class="edge">
<title>Node1&#45;&gt;Node29</title>
<path fill="none" stroke="#191970" d="M65.4676,-412.8011C73.8359,-475.3719 108.5523,-710.6738 163,-757.5 214.1698,-801.5072 294.5487,-803.3454 350.294,-797.8718"/>
<polygon fill="#191970" stroke="#191970" points="350.8404,-801.3331 360.4037,-796.7731 350.0841,-794.3741 350.8404,-801.3331"/>
</g>
<!-- Node30 -->
<g id="node30" class="node">
<title>Node30</title>
<g id="a_node30"><a xlink:href="namespacemom__regridding.html#ab6ada39c6f95e652907bab93f9c5a3f1" target="_top" xlink:title="Set target densities based on the old Rlay variable.">
<polygon fill="#ffffff" stroke="#000000" points="163,-28.5 163,-58.5 294,-58.5 294,-28.5 163,-28.5"/>
<text text-anchor="start" x="171" y="-46.5" font-family="Helvetica,sans-Serif" font-size="10.00" fill="#000000">mom_regridding::set</text>
<text text-anchor="middle" x="228.5" y="-35.5" font-family="Helvetica,sans-Serif" font-size="10.00" fill="#000000">_target_densities_from_gv</text>
</a>
</g>
</g>
<!-- Node1&#45;&gt;Node30 -->
<g id="edge50" class="edge">
<title>Node1&#45;&gt;Node30</title>
<path fill="none" stroke="#191970" d="M66.2431,-382.2012C77.0003,-323.7298 117.9367,-115.2737 163,-67.5 163.9115,-66.5337 164.8652,-65.6061 165.8557,-64.7157"/>
<polygon fill="#191970" stroke="#191970" points="168.1508,-67.3706 174.0834,-58.5924 163.9715,-61.755 168.1508,-67.3706"/>
</g>
<!-- Node31 -->
<g id="node31" class="node">
<title>Node31</title>
<g id="a_node31"><a xlink:href="namespacemom__regridding.html#a162e9f816bc892550624d781fdddd6ca" target="_top" xlink:title="Set the fixed resolution data.">
<polygon fill="#ffffff" stroke="#000000" points="532,-736 532,-755 724,-755 724,-736 532,-736"/>
<text text-anchor="middle" x="628" y="-743" font-family="Helvetica,sans-Serif" font-size="10.00" fill="#000000">mom_regridding::setcoordinateresolution</text>
</a>
</g>
</g>
<!-- Node1&#45;&gt;Node31 -->
<g id="edge51" class="edge">
<title>Node1&#45;&gt;Node31</title>
<path fill="none" stroke="#191970" d="M65.957,-412.6076C75.6628,-470.2883 113.2464,-675.3562 163,-714.5 216.6773,-756.7308 401.7962,-756.7428 521.6423,-751.8544"/>
<polygon fill="#191970" stroke="#191970" points="522.1081,-755.3378 531.9501,-751.4154 521.8102,-748.3441 522.1081,-755.3378"/>
</g>
<!-- Node32 -->
<g id="node32" class="node">
<title>Node32</title>
<g id="a_node32"><a xlink:href="namespacemom__regridding.html#a8b3b0c1555006f196d9bb1baededd9e6" target="_top" xlink:title="Return a uniform resolution vector in the units of the coordinate.">
<polygon fill="#ffffff" stroke="#000000" points="330,-696 330,-715 496,-715 496,-696 330,-696"/>
<text text-anchor="middle" x="413" y="-703" font-family="Helvetica,sans-Serif" font-size="10.00" fill="#000000">mom_regridding::uniformresolution</text>
</a>
</g>
</g>
<!-- Node1&#45;&gt;Node32 -->
<g id="edge53" class="edge">
<title>Node1&#45;&gt;Node32</title>
<path fill="none" stroke="#191970" d="M66.6178,-412.8309C77.9136,-466.786 118.3853,-646.533 163,-681.5 217.1144,-723.9125 299.4157,-723.182 354.6486,-716.3656"/>
<polygon fill="#191970" stroke="#191970" points="355.1858,-719.825 364.6339,-715.031 354.2584,-712.8867 355.1858,-719.825"/>
</g>
<!-- Node3&#45;&gt;Node4 -->
<g id="edge3" class="edge">
<title>Node3&#45;&gt;Node4</title>
<path fill="none" stroke="#191970" d="M679.1959,-621.2651C694.9265,-617.8466 711.3961,-611.8685 724,-601.5 778.7591,-556.453 802.9422,-471.5865 811.9511,-429.4883"/>
<polygon fill="#191970" stroke="#191970" points="815.415,-430.0169 813.9689,-419.5212 808.5542,-428.6278 815.415,-430.0169"/>
</g>
<!-- Node5 -->
<g id="node5" class="node">
<title>Node5</title>
<g id="a_node5"><a xlink:href="namespacemom__error__handler.html#ad5f00a53059c72fe2332d1436c80ca71" target="_top" xlink:title="This returns .true. if the current PE is the root PE.">
<polygon fill="#ffffff" stroke="#000000" points="909,-389.5 909,-419.5 1015,-419.5 1015,-389.5 909,-389.5"/>
<text text-anchor="start" x="917" y="-407.5" font-family="Helvetica,sans-Serif" font-size="10.00" fill="#000000">mom_error_handler::</text>
<text text-anchor="middle" x="962" y="-396.5" font-family="Helvetica,sans-Serif" font-size="10.00" fill="#000000">is_root_pe</text>
</a>
</g>
</g>
<!-- Node4&#45;&gt;Node5 -->
<g id="edge4" class="edge">
<title>Node4&#45;&gt;Node5</title>
<path fill="none" stroke="#191970" d="M869.8526,-404.5C879.1442,-404.5 888.8912,-404.5 898.4246,-404.5"/>
<polygon fill="#191970" stroke="#191970" points="898.6538,-408.0001 908.6538,-404.5 898.6538,-401.0001 898.6538,-408.0001"/>
</g>
<!-- Node7 -->
<g id="node7" class="node">
<title>Node7</title>
<g id="a_node7"><a xlink:href="namespacemom__string__functions.html#aad76dee92b69dab4488da049fe11cdb8" target="_top" xlink:title="Returns the string corresponding to the nth word in the argument or &quot;&quot; if the string is not long enou...">
<polygon fill="#ffffff" stroke="#000000" points="356.5,-.5 356.5,-30.5 469.5,-30.5 469.5,-.5 356.5,-.5"/>
<text text-anchor="start" x="364.5" y="-18.5" font-family="Helvetica,sans-Serif" font-size="10.00" fill="#000000">mom_string_functions</text>
<text text-anchor="middle" x="413" y="-7.5" font-family="Helvetica,sans-Serif" font-size="10.00" fill="#000000">::extract_word</text>
</a>
</g>
</g>
<!-- Node6&#45;&gt;Node7 -->
<g id="edge6" class="edge">
<title>Node6&#45;&gt;Node7</title>
<path fill="none" stroke="#191970" d="M282.3483,-224.4633C286.7014,-221.6848 290.689,-218.395 294,-214.5 345.4298,-153.9991 276.1005,-97.8114 330,-39.5 334.7202,-34.3934 340.4527,-30.3493 346.6761,-27.1503"/>
<polygon fill="#191970" stroke="#191970" points="348.3204,-30.2516 356.0847,-23.0428 345.5196,-23.8363 348.3204,-30.2516"/>
</g>
<!-- Node8&#45;&gt;Node7 -->
<g id="edge8" class="edge">
<title>Node8&#45;&gt;Node7</title>
<path fill="none" stroke="#191970" d="M281.7295,-175.3896C286.265,-172.6238 290.4622,-169.3571 294,-165.5 333.3674,-122.5791 288.883,-80.7479 330,-39.5 334.8382,-34.6464 340.5931,-30.7608 346.7833,-27.6523"/>
<polygon fill="#191970" stroke="#191970" points="348.3112,-30.8051 356.1082,-23.6317 345.5396,-24.3771 348.3112,-30.8051"/>
</g>
<!-- Node9&#45;&gt;Node7 -->
<g id="edge10" class="edge">
<title>Node9&#45;&gt;Node7</title>
<path fill="none" stroke="#191970" d="M280.1379,-126.328C285.158,-123.5621 289.8996,-120.3125 294,-116.5 321.6664,-90.7759 301.2885,-64.0522 330,-39.5 334.9377,-35.2776 340.5805,-31.797 346.5484,-28.928"/>
<polygon fill="#191970" stroke="#191970" points="348.2722,-32.0004 356.1396,-24.9043 345.5641,-25.5454 348.2722,-32.0004"/>
</g>
<!-- Node11 -->
<g id="node11" class="node">
<title>Node11</title>
<g id="a_node11"><a xlink:href="namespacecoord__adapt.html#a32bbec6c2046de78b785d6f5e53307c5" target="_top" xlink:title="Initialise an adapt_CS with parameters.">
<polygon fill="#ffffff" stroke="#000000" points="569,-463.5 569,-493.5 687,-493.5 687,-463.5 569,-463.5"/>
<text text-anchor="start" x="577" y="-481.5" font-family="Helvetica,sans-Serif" font-size="10.00" fill="#000000">coord_adapt::init_coord</text>
<text text-anchor="middle" x="628" y="-470.5" font-family="Helvetica,sans-Serif" font-size="10.00" fill="#000000">_adapt</text>
</a>
</g>
</g>
<!-- Node10&#45;&gt;Node11 -->
<g id="edge12" class="edge">
<title>Node10&#45;&gt;Node11</title>
<path fill="none" stroke="#191970" d="M477.2159,-474.9934C502.8864,-475.5904 532.5102,-476.2793 558.6687,-476.8876"/>
<polygon fill="#191970" stroke="#191970" points="558.8066,-480.3917 568.8853,-477.1252 558.9694,-473.3936 558.8066,-480.3917"/>
</g>
<!-- Node12 -->
<g id="node12" class="node">
<title>Node12</title>
<g id="a_node12"><a xlink:href="namespacecoord__hycom.html#af9d18f01d89de225d8d4119186699af1" target="_top" xlink:title="Initialise a hycom_CS with pointers to parameters.">
<polygon fill="#ffffff" stroke="#000000" points="566.5,-414.5 566.5,-444.5 689.5,-444.5 689.5,-414.5 566.5,-414.5"/>
<text text-anchor="start" x="574.5" y="-432.5" font-family="Helvetica,sans-Serif" font-size="10.00" fill="#000000">coord_hycom::init_coord</text>
<text text-anchor="middle" x="628" y="-421.5" font-family="Helvetica,sans-Serif" font-size="10.00" fill="#000000">_hycom</text>
</a>
</g>
</g>
<!-- Node10&#45;&gt;Node12 -->
<g id="edge14" class="edge">
<title>Node10&#45;&gt;Node12</title>
<path fill="none" stroke="#191970" d="M459.6518,-463.9527C487.8465,-458.1826 524.3679,-450.7084 556.185,-444.197"/>
<polygon fill="#191970" stroke="#191970" points="557.2382,-447.5541 566.3334,-442.1201 555.8347,-440.6962 557.2382,-447.5541"/>
</g>
<!-- Node13 -->
<g id="node13" class="node">
<title>Node13</title>
<g id="a_node13"><a xlink:href="namespacecoord__sigma.html#adce9c462a3b61ba3791035534e1d8b2a" target="_top" xlink:title="Initialise a sigma_CS with pointers to parameters.">
<polygon fill="#ffffff" stroke="#000000" points="568,-365.5 568,-395.5 688,-395.5 688,-365.5 568,-365.5"/>
<text text-anchor="start" x="576" y="-383.5" font-family="Helvetica,sans-Serif" font-size="10.00" fill="#000000">coord_sigma::init_coord</text>
<text text-anchor="middle" x="628" y="-372.5" font-family="Helvetica,sans-Serif" font-size="10.00" fill="#000000">_sigma</text>
</a>
</g>
</g>
<!-- Node10&#45;&gt;Node13 -->
<g id="edge16" class="edge">
<title>Node10&#45;&gt;Node13</title>
<path fill="none" stroke="#191970" d="M452.8394,-463.9165C467.1629,-459.3811 482.9834,-453.0422 496,-444.5 515.7216,-431.5577 511.7683,-417.6294 532,-405.5 540.0579,-400.6691 549.0407,-396.7619 558.1885,-393.604"/>
<polygon fill="#191970" stroke="#191970" points="559.272,-396.9323 567.7492,-390.5772 557.1591,-390.2587 559.272,-396.9323"/>
</g>
<!-- Node14 -->
<g id="node14" class="node">
<title>Node14</title>
<g id="a_node14"><a xlink:href="namespacecoord__slight.html#a8d68c3e802996e29b81e9bbc17105bd0" target="_top" xlink:title="Initialise a slight_CS with pointers to parameters.">
<polygon fill="#ffffff" stroke="#000000" points="584,-561.5 584,-591.5 672,-591.5 672,-561.5 584,-561.5"/>
<text text-anchor="start" x="592" y="-579.5" font-family="Helvetica,sans-Serif" font-size="10.00" fill="#000000">coord_slight::init</text>
<text text-anchor="middle" x="628" y="-568.5" font-family="Helvetica,sans-Serif" font-size="10.00" fill="#000000">_coord_slight</text>
</a>
</g>
</g>
<!-- Node10&#45;&gt;Node14 -->
<g id="edge18" class="edge">
<title>Node10&#45;&gt;Node14</title>
<path fill="none" stroke="#191970" d="M424.3754,-483.0136C444.6931,-499.5374 489.1202,-533.581 532,-552.5 545.1538,-558.3036 559.9667,-562.8775 573.9483,-566.4056"/>
<polygon fill="#191970" stroke="#191970" points="573.4071,-569.8746 583.9465,-568.7923 575.0325,-563.066 573.4071,-569.8746"/>
</g>
<!-- Node15 -->
<g id="node15" class="node">
<title>Node15</title>
<g id="a_node15"><a xlink:href="namespacecoord__zlike.html#a873f4fca87825e9bb2e216348634f0a7" target="_top" xlink:title="Initialise a zlike_CS with pointers to parameters.">
<polygon fill="#ffffff" stroke="#000000" points="571,-512.5 571,-542.5 685,-542.5 685,-512.5 571,-512.5"/>
<text text-anchor="start" x="579" y="-530.5" font-family="Helvetica,sans-Serif" font-size="10.00" fill="#000000">coord_zlike::init_coord</text>
<text text-anchor="middle" x="628" y="-519.5" font-family="Helvetica,sans-Serif" font-size="10.00" fill="#000000">_zlike</text>
</a>
</g>
</g>
<!-- Node10&#45;&gt;Node15 -->
<g id="edge20" class="edge">
<title>Node10&#45;&gt;Node15</title>
<path fill="none" stroke="#191970" d="M450.7788,-483.0443C474.1696,-488.9487 504.8257,-496.6779 532,-503.5 541.4352,-505.8687 551.3932,-508.3637 561.1813,-510.8133"/>
<polygon fill="#191970" stroke="#191970" points="560.3365,-514.2098 570.887,-513.2414 562.0354,-507.4191 560.3365,-514.2098"/>
</g>
<!-- Node11&#45;&gt;Node4 -->
<g id="edge13" class="edge">
<title>Node11&#45;&gt;Node4</title>
<path fill="none" stroke="#191970" d="M687.1108,-466.1986C699.4791,-462.9397 712.3088,-459.0382 724,-454.5 744.5331,-446.5297 766.2588,-434.9656 783.4917,-424.9658"/>
<polygon fill="#191970" stroke="#191970" points="785.7378,-427.704 792.5672,-419.6041 782.1772,-421.6772 785.7378,-427.704"/>
</g>
<!-- Node12&#45;&gt;Node4 -->
<g id="edge15" class="edge">
<title>Node12&#45;&gt;Node4</title>
<path fill="none" stroke="#191970" d="M689.722,-421.3141C710.1134,-418.6096 732.8203,-415.5981 753.3194,-412.8794"/>
<polygon fill="#191970" stroke="#191970" points="754.0455,-416.3138 763.4985,-411.5294 753.1251,-409.3746 754.0455,-416.3138"/>
</g>
<!-- Node13&#45;&gt;Node4 -->
<g id="edge17" class="edge">
<title>Node13&#45;&gt;Node4</title>
<path fill="none" stroke="#191970" d="M688.1608,-388.1597C708.9019,-390.8005 732.1885,-393.7654 753.1745,-396.4373"/>
<polygon fill="#191970" stroke="#191970" points="752.9087,-399.9317 763.2707,-397.7228 753.7929,-392.9877 752.9087,-399.9317"/>
</g>
<!-- Node14&#45;&gt;Node4 -->
<g id="edge19" class="edge">
<title>Node14&#45;&gt;Node4</title>
<path fill="none" stroke="#191970" d="M672.1106,-572.6495C689.5616,-569.3859 708.9925,-563.4098 724,-552.5 767.3111,-521.0148 794.9048,-462.4729 807.8419,-429.2327"/>
<polygon fill="#191970" stroke="#191970" points="811.15,-430.3792 811.3875,-419.787 804.5965,-427.9192 811.15,-430.3792"/>
</g>
<!-- Node15&#45;&gt;Node4 -->
<g id="edge21" class="edge">
<title>Node15&#45;&gt;Node4</title>
<path fill="none" stroke="#191970" d="M685.1924,-518.8883C698.5133,-515.3701 712.2309,-510.4298 724,-503.5 756.2097,-484.5345 784.073,-450.9689 800.5753,-428.2359"/>
<polygon fill="#191970" stroke="#191970" points="803.6139,-430.0008 806.53,-419.8151 797.8986,-425.9592 803.6139,-430.0008"/>
</g>
<!-- Node17&#45;&gt;Node4 -->
<g id="edge25" class="edge">
<title>Node17&#45;&gt;Node4</title>
<path fill="none" stroke="#191970" d="M281.0579,-405.5258C296.7614,-407.5734 314.0435,-409.4823 330,-410.5 403.6282,-415.1959 431.0995,-445.5868 496,-410.5 521.7,-396.606 506.3,-369.394 532,-355.5 607.0657,-314.9177 641.1855,-334.92 724,-355.5 746.3779,-361.0611 769.2963,-373.1467 786.7222,-383.9232"/>
<polygon fill="#191970" stroke="#191970" points="784.9894,-386.9693 795.3022,-389.3978 788.7547,-381.0682 784.9894,-386.9693"/>
</g>
<!-- Node18 -->
<g id="node18" class="node">
<title>Node18</title>
<g id="a_node18"><a xlink:href="namespacecoord__hycom.html#af1b6262578c0ae1b48d576c9e43712f4" target="_top" xlink:title="This subroutine can be used to set the parameters for the coord_hycom module.">
<polygon fill="#ffffff" stroke="#000000" points="348.5,-371.5 348.5,-401.5 477.5,-401.5 477.5,-371.5 348.5,-371.5"/>
<text text-anchor="start" x="356.5" y="-389.5" font-family="Helvetica,sans-Serif" font-size="10.00" fill="#000000">coord_hycom::set_hycom</text>
<text text-anchor="middle" x="413" y="-378.5" font-family="Helvetica,sans-Serif" font-size="10.00" fill="#000000">_params</text>
</a>
</g>
</g>
<!-- Node17&#45;&gt;Node18 -->
<g id="edge26" class="edge">
<title>Node17&#45;&gt;Node18</title>
<path fill="none" stroke="#191970" d="M281.3703,-394.3478C299.0615,-393.2931 319.1314,-392.0965 338.1735,-390.9612"/>
<polygon fill="#191970" stroke="#191970" points="338.5471,-394.4452 348.321,-390.3562 338.1304,-387.4576 338.5471,-394.4452"/>
</g>
<!-- Node19 -->
<g id="node19" class="node">
<title>Node19</title>
<g id="a_node19"><a xlink:href="namespacecoord__slight.html#a5ffc8589603f020d1d5af03cfd308154" target="_top" xlink:title="This subroutine can be used to set the parameters for the coord_slight module.">
<polygon fill="#ffffff" stroke="#000000" points="354.5,-322.5 354.5,-352.5 471.5,-352.5 471.5,-322.5 354.5,-322.5"/>
<text text-anchor="start" x="362.5" y="-340.5" font-family="Helvetica,sans-Serif" font-size="10.00" fill="#000000">coord_slight::set_slight</text>
<text text-anchor="middle" x="413" y="-329.5" font-family="Helvetica,sans-Serif" font-size="10.00" fill="#000000">_params</text>
</a>
</g>
</g>
<!-- Node17&#45;&gt;Node19 -->
<g id="edge28" class="edge">
<title>Node17&#45;&gt;Node19</title>
<path fill="none" stroke="#191970" d="M269.3025,-382.4055C287.7536,-375.7407 309.8869,-367.9685 330,-361.5 336.3322,-359.4635 342.961,-357.4125 349.5938,-355.413"/>
<polygon fill="#191970" stroke="#191970" points="350.6953,-358.7369 359.2802,-352.5281 348.6972,-352.0281 350.6953,-358.7369"/>
</g>
<!-- Node18&#45;&gt;Node4 -->
<g id="edge27" class="edge">
<title>Node18&#45;&gt;Node4</title>
<path fill="none" stroke="#191970" d="M476.2116,-371.3939C483.1302,-368.6039 489.8758,-365.3308 496,-361.5 515.9989,-348.9904 510.3913,-331.961 532,-322.5 610.1692,-288.2751 644.2167,-292.2278 724,-322.5 754.8999,-334.2244 782.097,-361.5168 798.8643,-381.4042"/>
<polygon fill="#191970" stroke="#191970" points="796.3591,-383.8702 805.3921,-389.407 801.7834,-379.4457 796.3591,-383.8702"/>
</g>
<!-- Node19&#45;&gt;Node4 -->
<g id="edge29" class="edge">
<title>Node19&#45;&gt;Node4</title>
<path fill="none" stroke="#191970" d="M467.9261,-322.4062C477.3857,-319.3958 487.0488,-316.0556 496,-312.5 512.625,-305.8963 514.59,-298.6099 532,-294.5 615.0506,-274.8944 646.6426,-258.4776 724,-294.5 761.6724,-312.0426 789.4777,-353.3168 804.3098,-380.0194"/>
<polygon fill="#191970" stroke="#191970" points="801.3785,-381.9601 809.1815,-389.127 807.551,-378.6584 801.3785,-381.9601"/>
</g>
<!-- Node20&#45;&gt;Node18 -->
<g id="edge31" class="edge">
<title>Node20&#45;&gt;Node18</title>
<path fill="none" stroke="#191970" d="M287.1305,-360.5756C303.4484,-363.9365 321.3921,-367.6323 338.4909,-371.1539"/>
<polygon fill="#191970" stroke="#191970" points="337.9415,-374.6142 348.442,-373.2035 339.3537,-367.7581 337.9415,-374.6142"/>
</g>
<!-- Node20&#45;&gt;Node19 -->
<g id="edge32" class="edge">
<title>Node20&#45;&gt;Node19</title>
<path fill="none" stroke="#191970" d="M287.1305,-345.0044C305.2034,-343.9269 325.2707,-342.7305 343.9755,-341.6153"/>
<polygon fill="#191970" stroke="#191970" points="344.4316,-345.0944 354.2055,-341.0054 344.0149,-338.1068 344.4316,-345.0944"/>
</g>
<!-- Node21&#45;&gt;Node4 -->
<g id="edge34" class="edge">
<title>Node21&#45;&gt;Node4</title>
<path fill="none" stroke="#191970" d="M280.7964,-273.4885C285.632,-270.6969 290.1514,-267.3973 294,-263.5 326.6039,-230.4837 291.9506,-192.0581 330,-165.5 375.7123,-133.5932 718.1025,-185.1575 724,-189.5 786.7056,-235.6715 807.3653,-333.1971 813.7901,-379.3181"/>
<polygon fill="#191970" stroke="#191970" points="810.3348,-379.8912 815.0751,-389.3664 817.2782,-379.0032 810.3348,-379.8912"/>
</g>
<!-- Node21&#45;&gt;Node18 -->
<g id="edge37" class="edge">
<title>Node21&#45;&gt;Node18</title>
<path fill="none" stroke="#191970" d="M261.7422,-303.6294C272.487,-309.1953 284.1584,-315.9937 294,-323.5 312.4981,-337.6086 310.1968,-349.2906 330,-361.5 333.4327,-363.6164 337.0562,-365.5637 340.793,-367.354"/>
<polygon fill="#191970" stroke="#191970" points="339.7052,-370.6979 350.2705,-371.488 342.5039,-364.2817 339.7052,-370.6979"/>
</g>
<!-- Node21&#45;&gt;Node19 -->
<g id="edge45" class="edge">
<title>Node21&#45;&gt;Node19</title>
<path fill="none" stroke="#191970" d="M281.3703,-302.5414C301.6853,-307.9367 325.1369,-314.1651 346.567,-319.8566"/>
<polygon fill="#191970" stroke="#191970" points="345.6891,-323.2447 356.2525,-322.4288 347.486,-316.4792 345.6891,-323.2447"/>
</g>
<!-- Node22 -->
<g id="node22" class="node">
<title>Node22</title>
<g id="a_node22"><a xlink:href="namespacecoord__adapt.html#a35706e0359c3953aac56b160e48b0ef8" target="_top" xlink:title="This subtroutine can be used to set the parameters for coord_adapt module.">
<polygon fill="#ffffff" stroke="#000000" points="568.5,-87.5 568.5,-117.5 687.5,-117.5 687.5,-87.5 568.5,-87.5"/>
<text text-anchor="start" x="576.5" y="-105.5" font-family="Helvetica,sans-Serif" font-size="10.00" fill="#000000">coord_adapt::set_adapt</text>
<text text-anchor="middle" x="628" y="-94.5" font-family="Helvetica,sans-Serif" font-size="10.00" fill="#000000">_params</text>
</a>
</g>
</g>
<!-- Node21&#45;&gt;Node22 -->
<g id="edge35" class="edge">
<title>Node21&#45;&gt;Node22</title>
<path fill="none" stroke="#191970" d="M281.1362,-273.8103C285.9068,-270.9571 290.3182,-267.5552 294,-263.5 334.5883,-218.7964 283.8755,-171.4662 330,-132.5 363.3572,-104.3197 481.219,-100.2034 558.3415,-100.7051"/>
<polygon fill="#191970" stroke="#191970" points="558.4397,-104.2061 568.4717,-100.7989 558.5045,-97.2064 558.4397,-104.2061"/>
</g>
<!-- Node23 -->
<g id="node23" class="node">
<title>Node23</title>
<g id="a_node23"><a xlink:href="namespaceregrid__interp.html#a9ed8b5720d74090e95ca0074240a0d8a" target="_top" xlink:title="Store the boundary_extrapolation value in the interp_CS.">
<polygon fill="#ffffff" stroke="#000000" points="368.5,-224.5 368.5,-254.5 457.5,-254.5 457.5,-224.5 368.5,-224.5"/>
<text text-anchor="start" x="376.5" y="-242.5" font-family="Helvetica,sans-Serif" font-size="10.00" fill="#000000">regrid_interp::set</text>
<text text-anchor="middle" x="413" y="-231.5" font-family="Helvetica,sans-Serif" font-size="10.00" fill="#000000">_interp_extrap</text>
</a>
</g>
</g>
<!-- Node21&#45;&gt;Node23 -->
<g id="edge38" class="edge">
<title>Node21&#45;&gt;Node23</title>
<path fill="none" stroke="#191970" d="M281.3703,-274.4586C305.5162,-268.0458 334.0933,-260.4563 358.4403,-253.9901"/>
<polygon fill="#191970" stroke="#191970" points="359.4737,-257.3371 368.2402,-251.3874 357.6768,-250.5716 359.4737,-257.3371"/>
</g>
<!-- Node24 -->
<g id="node24" class="node">
<title>Node24</title>
<g id="a_node24"><a xlink:href="namespaceregrid__interp.html#ae77f3027ed51829db5d4ed6dbc744550" target="_top" xlink:title="Store the interpolation_scheme value in the interp_CS based on the input string.">
<polygon fill="#ffffff" stroke="#000000" points="368.5,-49.5 368.5,-79.5 457.5,-79.5 457.5,-49.5 368.5,-49.5"/>
<text text-anchor="start" x="376.5" y="-67.5" font-family="Helvetica,sans-Serif" font-size="10.00" fill="#000000">regrid_interp::set</text>
<text text-anchor="middle" x="413" y="-56.5" font-family="Helvetica,sans-Serif" font-size="10.00" fill="#000000">_interp_scheme</text>
</a>
</g>
</g>
<!-- Node21&#45;&gt;Node24 -->
<g id="edge39" class="edge">
<title>Node21&#45;&gt;Node24</title>
<path fill="none" stroke="#191970" d="M281.0648,-274.2176C285.9113,-271.2851 290.3588,-267.7532 294,-263.5 343.9437,-205.1622 279.5397,-152.3916 330,-94.5 337.631,-85.7452 348.0193,-79.5448 358.8632,-75.1536"/>
<polygon fill="#191970" stroke="#191970" points="360.2041,-78.3915 368.4521,-71.7416 357.8574,-71.7965 360.2041,-78.3915"/>
</g>
<!-- Node27 -->
<g id="node27" class="node">
<title>Node27</title>
<g id="a_node27"><a xlink:href="namespacecoord__sigma.html#aceccbaf232379cea8182c04130c03f5a" target="_top" xlink:title="This subroutine can be used to set the parameters for the coord_sigma module.">
<polygon fill="#ffffff" stroke="#000000" points="351.5,-273.5 351.5,-303.5 474.5,-303.5 474.5,-273.5 351.5,-273.5"/>
<text text-anchor="start" x="359.5" y="-291.5" font-family="Helvetica,sans-Serif" font-size="10.00" fill="#000000">coord_sigma::set_sigma</text>
<text text-anchor="middle" x="413" y="-280.5" font-family="Helvetica,sans-Serif" font-size="10.00" fill="#000000">_params</text>
</a>
</g>
</g>
<!-- Node21&#45;&gt;Node27 -->
<g id="edge43" class="edge">
<title>Node21&#45;&gt;Node27</title>
<path fill="none" stroke="#191970" d="M281.3703,-288.5C299.9591,-288.5 321.1741,-288.5 341.0636,-288.5"/>
<polygon fill="#191970" stroke="#191970" points="341.3227,-292.0001 351.3227,-288.5 341.3227,-285.0001 341.3227,-292.0001"/>
</g>
<!-- Node28 -->
<g id="node28" class="node">
<title>Node28</title>
<g id="a_node28"><a xlink:href="namespacecoord__zlike.html#acb2336ed52c2c3ed2509450c61790753" target="_top" xlink:title="Set parameters in the zlike structure.">
<polygon fill="#ffffff" stroke="#000000" points="357.5,-175.5 357.5,-205.5 468.5,-205.5 468.5,-175.5 357.5,-175.5"/>
<text text-anchor="start" x="365.5" y="-193.5" font-family="Helvetica,sans-Serif" font-size="10.00" fill="#000000">coord_zlike::set_zlike</text>
<text text-anchor="middle" x="413" y="-182.5" font-family="Helvetica,sans-Serif" font-size="10.00" fill="#000000">_params</text>
</a>
</g>
</g>
<!-- Node21&#45;&gt;Node28 -->
<g id="edge46" class="edge">
<title>Node21&#45;&gt;Node28</title>
<path fill="none" stroke="#191970" d="M277.3981,-273.481C283.2726,-270.6433 288.9648,-267.3349 294,-263.5 315.4985,-247.1266 307.8397,-229.9659 330,-214.5 335.4545,-210.6932 341.5098,-207.4852 347.794,-204.7826"/>
<polygon fill="#191970" stroke="#191970" points="349.0582,-208.0464 357.1216,-201.1738 346.5324,-201.5179 349.0582,-208.0464"/>
</g>
<!-- Node22&#45;&gt;Node4 -->
<g id="edge36" class="edge">
<title>Node22&#45;&gt;Node4</title>
<path fill="none" stroke="#191970" d="M687.5546,-111.7113C700.875,-116.1587 714,-122.7461 724,-132.5 794.5031,-201.2677 811.2767,-325.7707 815.2614,-379.1196"/>
<polygon fill="#191970" stroke="#191970" points="811.7871,-379.6278 815.9323,-389.378 818.7721,-379.1709 811.7871,-379.6278"/>
</g>
<!-- Node25 -->
<g id="node25" class="node">
<title>Node25</title>
<g id="a_node25"><a xlink:href="namespaceregrid__interp.html#ab4d21d91c26022a3e79268be4fe14d44" target="_top" xlink:title="Numeric value of interpolation_scheme corresponding to scheme name.">
<polygon fill="#ffffff" stroke="#000000" points="564,-38.5 564,-68.5 692,-68.5 692,-38.5 564,-38.5"/>
<text text-anchor="start" x="572" y="-56.5" font-family="Helvetica,sans-Serif" font-size="10.00" fill="#000000">regrid_interp::interpolation</text>
<text text-anchor="middle" x="628" y="-45.5" font-family="Helvetica,sans-Serif" font-size="10.00" fill="#000000">_scheme</text>
</a>
</g>
</g>
<!-- Node24&#45;&gt;Node25 -->
<g id="edge40" class="edge">
<title>Node24&#45;&gt;Node25</title>
<path fill="none" stroke="#191970" d="M457.5481,-62.2208C485.2947,-60.8012 521.6803,-58.9396 553.7059,-57.3011"/>
<polygon fill="#191970" stroke="#191970" points="554.1261,-60.7843 563.9342,-56.7778 553.7684,-53.7934 554.1261,-60.7843"/>
</g>
<!-- Node25&#45;&gt;Node4 -->
<g id="edge41" class="edge">
<title>Node25&#45;&gt;Node4</title>
<path fill="none" stroke="#191970" d="M692.2247,-59.6821C703.9601,-63.381 715.2437,-69.0084 724,-77.5 768.1225,-120.2886 801.6963,-310.0331 812.6653,-379.181"/>
<polygon fill="#191970" stroke="#191970" points="809.2291,-379.862 814.2298,-389.2024 816.1454,-378.7821 809.2291,-379.862"/>
</g>
<!-- Node26 -->
<g id="node26" class="node">
<title>Node26</title>
<g id="a_node26"><a xlink:href="namespacemom__string__functions.html#aca148baf726de2f028b7e7baad3c85d4" target="_top" xlink:title="Return a string in which all uppercase letters have been replaced by their lowercase counterparts.">
<polygon fill="#ffffff" stroke="#000000" points="760,-38.5 760,-68.5 873,-68.5 873,-38.5 760,-38.5"/>
<text text-anchor="start" x="768" y="-56.5" font-family="Helvetica,sans-Serif" font-size="10.00" fill="#000000">mom_string_functions</text>
<text text-anchor="middle" x="816.5" y="-45.5" font-family="Helvetica,sans-Serif" font-size="10.00" fill="#000000">::uppercase</text>
</a>
</g>
</g>
<!-- Node25&#45;&gt;Node26 -->
<g id="edge42" class="edge">
<title>Node25&#45;&gt;Node26</title>
<path fill="none" stroke="#191970" d="M692.0805,-53.5C710.6318,-53.5 730.9263,-53.5 749.6425,-53.5"/>
<polygon fill="#191970" stroke="#191970" points="749.857,-57.0001 759.8569,-53.5 749.8569,-50.0001 749.857,-57.0001"/>
</g>
<!-- Node27&#45;&gt;Node4 -->
<g id="edge44" class="edge">
<title>Node27&#45;&gt;Node4</title>
<path fill="none" stroke="#191970" d="M474.7969,-277.2582C552.914,-264.3169 682.2471,-247.4947 724,-269.5 767.9988,-292.6889 795.0765,-347.2893 807.8011,-379.4994"/>
<polygon fill="#191970" stroke="#191970" points="804.6213,-380.9861 811.4314,-389.1023 811.1691,-378.5107 804.6213,-380.9861"/>
</g>
<!-- Node28&#45;&gt;Node4 -->
<g id="edge47" class="edge">
<title>Node28&#45;&gt;Node4</title>
<path fill="none" stroke="#191970" d="M468.7013,-189.3745C535.2381,-190.7117 647.1741,-201.7331 724,-255.5 768.309,-286.5098 795.6624,-346.2197 808.2579,-379.8738"/>
<polygon fill="#191970" stroke="#191970" points="805.0147,-381.1981 811.6955,-389.4211 811.6008,-378.8267 805.0147,-381.1981"/>
</g>
<!-- Node29&#45;&gt;Node4 -->
<g id="edge49" class="edge">
<title>Node29&#45;&gt;Node4</title>
<path fill="none" stroke="#191970" d="M465.75,-800.4783C533.6958,-813.8126 651.6361,-825.0266 724,-764.5 776.1426,-720.887 805.1108,-505.2293 813.7325,-430.2473"/>
<polygon fill="#191970" stroke="#191970" points="817.2617,-430.1824 814.8998,-419.8542 810.3054,-429.401 817.2617,-430.1824"/>
</g>
<!-- Node31&#45;&gt;Node4 -->
<g id="edge52" class="edge">
<title>Node31&#45;&gt;Node4</title>
<path fill="none" stroke="#191970" d="M701.4605,-735.8657C709.7775,-732.3598 717.5614,-727.6927 724,-721.5 766.8592,-680.2779 800.9986,-497.6983 812.4058,-429.9307"/>
<polygon fill="#191970" stroke="#191970" points="815.9151,-430.1621 814.0972,-419.7245 809.0093,-429.0177 815.9151,-430.1621"/>
</g>
<!-- Node32&#45;&gt;Node4 -->
<g id="edge54" class="edge">
<title>Node32&#45;&gt;Node4</title>
<path fill="none" stroke="#191970" d="M496.2298,-709.7274C576.1654,-712.0342 689.7016,-710.1544 724,-683.5 765.2421,-651.4494 799.6736,-492.2557 811.8151,-429.7515"/>
<polygon fill="#191970" stroke="#191970" points="815.3182,-430.0664 813.7576,-419.5872 808.4426,-428.7524 815.3182,-430.0664"/>
</g>
</g>
</svg>
