<?xml version="1.0" encoding="UTF-8" standalone="no"?>
<!DOCTYPE svg PUBLIC "-//W3C//DTD SVG 1.1//EN"
 "http://www.w3.org/Graphics/SVG/1.1/DTD/svg11.dtd">
<!-- Generated by graphviz version 2.40.1 (20161225.0304)
 -->
<!-- Title: mom_diabatic_aux::applyboundaryfluxesinout Pages: 1 -->
<!--zoomable 209 -->
<svg id="main" version="1.1" xmlns="http://www.w3.org/2000/svg" xmlns:xlink="http://www.w3.org/1999/xlink" xml:space="preserve" onload="init(evt)">
<style type="text/css"><![CDATA[
.edge:hover path { stroke: red; }
.edge:hover polygon { stroke: red; fill: red; }
]]></style>
<script type="text/javascript"><![CDATA[
var edges = document.getElementsByTagName('g');
if (edges && edges.length) {
  for (var i=0;i<edges.length;i++) {
    if (edges[i].id.substr(0,4)=='edge') {
      edges[i].setAttribute('class','edge');
    }
  }
}
]]></script>
        <defs>
                <circle id="rim" cx="0" cy="0" r="7"/>
                <circle id="rim2" cx="0" cy="0" r="3.5"/>
                <g id="zoomPlus">
                        <use xlink:href="#rim" fill="#404040">
                                <set attributeName="fill" to="#808080" begin="zoomplus.mouseover" end="zoomplus.mouseout"/>
                        </use>
                        <path d="M-4,0h8M0,-4v8" fill="none" stroke="white" stroke-width="1.5" pointer-events="none"/>
                </g>
                <g id="zoomMin">
                        <use xlink:href="#rim" fill="#404040">
                                <set attributeName="fill" to="#808080" begin="zoomminus.mouseover" end="zoomminus.mouseout"/>
                        </use>
                        <path d="M-4,0h8" fill="none" stroke="white" stroke-width="1.5" pointer-events="none"/>
                </g>
                <g id="dirArrow">
                        <path fill="none" stroke="white" stroke-width="1.5" d="M0,-3.0v7 M-2.5,-0.5L0,-3.0L2.5,-0.5"/>
                </g>
               <g id="resetDef">
                       <use xlink:href="#rim2" fill="#404040">
                               <set attributeName="fill" to="#808080" begin="reset.mouseover" end="reset.mouseout"/>
                       </use>
               </g>
        </defs>

<script type="text/javascript">
var viewWidth = 718;
var viewHeight = 209;
var sectionId = 'dynsection-0';
</script>
<script xlink:href="svgpan.js"/>
<svg id="graph" class="graph">
<g id="viewport">
<title>mom_diabatic_aux::applyboundaryfluxesinout</title>
<polygon fill="#ffffff" stroke="transparent" points="-4,4 -4,-205 714,-205 714,4 -4,4"/>
<!-- Node1 -->
<g id="node1" class="node">
<title>Node1</title>
<g id="a_node1"><a xlink:title="Update the thickness, temperature, and salinity due to thermodynamic boundary forcing (contained in f...">
<polygon fill="#bfbfbf" stroke="#000000" points="0,-115.5 0,-134.5 215,-134.5 215,-115.5 0,-115.5"/>
<text text-anchor="middle" x="107.5" y="-122.5" font-family="Helvetica,sans-Serif" font-size="10.00" fill="#000000">mom_diabatic_aux::applyboundaryfluxesinout</text>
</a>
</g>
</g>
<!-- Node2 -->
<g id="node2" class="node">
<title>Node2</title>
<g id="a_node2"><a xlink:href="namespacemom__opacity.html#a21db9da24cea8b875040ba1e7e8b2e9b" target="_top" xlink:title="Apply shortwave heating below the boundary layer (when running with the bulk mixed layer inhereted fr...">
<polygon fill="#ffffff" stroke="#000000" points="253.5,-181.5 253.5,-200.5 418.5,-200.5 418.5,-181.5 253.5,-181.5"/>
<text text-anchor="middle" x="336" y="-188.5" font-family="Helvetica,sans-Serif" font-size="10.00" fill="#000000">mom_opacity::absorbremainingsw</text>
</a>
</g>
</g>
<!-- Node1&#45;&gt;Node2 -->
<g id="edge1" class="edge">
<title>Node1&#45;&gt;Node2</title>
<path fill="none" stroke="#191970" d="M133.9784,-134.5253C162.5989,-144.62 209.6703,-160.6411 251,-172 260.1982,-174.528 270.0249,-176.9639 279.6116,-179.1995"/>
<polygon fill="#191970" stroke="#191970" points="278.9506,-182.6386 289.4788,-181.4523 280.5087,-175.8142 278.9506,-182.6386"/>
</g>
<!-- Node3 -->
<g id="node3" class="node">
<title>Node3</title>
<g id="a_node3"><a xlink:href="namespacemom__eos.html#a2532426c3797952ec6e9cd628e7708a0" target="_top" xlink:title="Calls the appropriate subroutine to calculate specific volume derivatives for an array.">
<polygon fill="#ffffff" stroke="#000000" points="283.5,-132 283.5,-162 388.5,-162 388.5,-132 283.5,-132"/>
<text text-anchor="start" x="291.5" y="-150" font-family="Helvetica,sans-Serif" font-size="10.00" fill="#000000">mom_eos::calculate</text>
<text text-anchor="middle" x="336" y="-139" font-family="Helvetica,sans-Serif" font-size="10.00" fill="#000000">_specific_vol_derivs</text>
</a>
</g>
</g>
<!-- Node1&#45;&gt;Node3 -->
<g id="edge2" class="edge">
<title>Node1&#45;&gt;Node3</title>
<path fill="none" stroke="#191970" d="M206.3945,-134.5216C228.9914,-136.6972 252.4045,-138.9514 273.0109,-140.9354"/>
<polygon fill="#191970" stroke="#191970" points="272.908,-144.4416 283.1974,-141.9162 273.5789,-137.4738 272.908,-144.4416"/>
</g>
<!-- Node6 -->
<g id="node6" class="node">
<title>Node6</title>
<g id="a_node6"><a xlink:href="namespacemom__forcing__type.html#af676e516c2d3f88e56494bc14642ef7a" target="_top" xlink:title="This subroutine extracts fluxes from the surface fluxes type. It works on a j&#45;row for optimization pu...">
<polygon fill="#ffffff" stroke="#000000" points="251,-93.5 251,-112.5 421,-112.5 421,-93.5 251,-93.5"/>
<text text-anchor="middle" x="336" y="-100.5" font-family="Helvetica,sans-Serif" font-size="10.00" fill="#000000">mom_forcing_type::extractfluxes1d</text>
</a>
</g>
</g>
<!-- Node1&#45;&gt;Node6 -->
<g id="edge5" class="edge">
<title>Node1&#45;&gt;Node6</title>
<path fill="none" stroke="#191970" d="M206.3945,-115.4784C217.8689,-114.3737 229.5538,-113.2487 240.9748,-112.149"/>
<polygon fill="#191970" stroke="#191970" points="241.313,-115.6327 250.9315,-111.1904 240.6421,-108.665 241.313,-115.6327"/>
</g>
<!-- Node9 -->
<g id="node9" class="node">
<title>Node9</title>
<g id="a_node9"><a xlink:href="namespacemom__forcing__type.html#a1048a8e80ebd47f83b91772c02aedba2" target="_top" xlink:title="Write out values of the fluxes arrays at the i,j location. This is a debugging tool.">
<polygon fill="#ffffff" stroke="#000000" points="270,-20 270,-50 402,-50 402,-20 270,-20"/>
<text text-anchor="start" x="278" y="-38" font-family="Helvetica,sans-Serif" font-size="10.00" fill="#000000">mom_forcing_type::forcing</text>
<text text-anchor="middle" x="336" y="-27" font-family="Helvetica,sans-Serif" font-size="10.00" fill="#000000">_singlepointprint</text>
</a>
</g>
</g>
<!-- Node1&#45;&gt;Node9 -->
<g id="edge9" class="edge">
<title>Node1&#45;&gt;Node9</title>
<path fill="none" stroke="#191970" d="M131.9535,-115.3684C169.1134,-100.7321 240.5106,-72.6107 288.2115,-53.8226"/>
<polygon fill="#191970" stroke="#191970" points="289.6924,-57.0011 297.714,-50.0798 287.127,-50.4881 289.6924,-57.0011"/>
</g>
<!-- Node4 -->
<g id="node4" class="node">
<title>Node4</title>
<g id="a_node4"><a xlink:href="namespacemom__error__handler.html#a460cfb79a06c29fc249952c2a3710d67" target="_top" xlink:title="This provides a convenient interface for writing an mpp_error message with run&#45;time filter based on a...">
<polygon fill="#ffffff" stroke="#000000" points="459.5,-137 459.5,-167 565.5,-167 565.5,-137 459.5,-137"/>
<text text-anchor="start" x="467.5" y="-155" font-family="Helvetica,sans-Serif" font-size="10.00" fill="#000000">mom_error_handler::</text>
<text text-anchor="middle" x="512.5" y="-144" font-family="Helvetica,sans-Serif" font-size="10.00" fill="#000000">mom_error</text>
</a>
</g>
</g>
<!-- Node3&#45;&gt;Node4 -->
<g id="edge3" class="edge">
<title>Node3&#45;&gt;Node4</title>
<path fill="none" stroke="#191970" d="M388.9558,-148.5002C407.8925,-149.0366 429.425,-149.6466 449.15,-150.2054"/>
<polygon fill="#191970" stroke="#191970" points="449.1816,-153.7076 459.2768,-150.4923 449.3799,-146.7104 449.1816,-153.7076"/>
</g>
<!-- Node5 -->
<g id="node5" class="node">
<title>Node5</title>
<g id="a_node5"><a xlink:href="namespacemom__error__handler.html#ad5f00a53059c72fe2332d1436c80ca71" target="_top" xlink:title="This returns .true. if the current PE is the root PE.">
<polygon fill="#ffffff" stroke="#000000" points="604,-137 604,-167 710,-167 710,-137 604,-137"/>
<text text-anchor="start" x="612" y="-155" font-family="Helvetica,sans-Serif" font-size="10.00" fill="#000000">mom_error_handler::</text>
<text text-anchor="middle" x="657" y="-144" font-family="Helvetica,sans-Serif" font-size="10.00" fill="#000000">is_root_pe</text>
</a>
</g>
</g>
<!-- Node4&#45;&gt;Node5 -->
<g id="edge4" class="edge">
<title>Node4&#45;&gt;Node5</title>
<path fill="none" stroke="#191970" d="M565.8959,-152C574.8915,-152 584.3063,-152 593.5274,-152"/>
<polygon fill="#191970" stroke="#191970" points="593.8236,-155.5001 603.8236,-152 593.8235,-148.5001 593.8236,-155.5001"/>
</g>
<!-- Node6&#45;&gt;Node4 -->
<g id="edge7" class="edge">
<title>Node6&#45;&gt;Node4</title>
<path fill="none" stroke="#191970" d="M379.4028,-112.5437C392.7951,-115.6677 407.5545,-119.2932 421,-123 432.7976,-126.2525 445.3563,-130.0254 457.2685,-133.7525"/>
<polygon fill="#191970" stroke="#191970" points="456.5018,-137.1808 467.0918,-136.86 458.6132,-130.5068 456.5018,-137.1808"/>
</g>
<!-- Node7 -->
<g id="node7" class="node">
<title>Node7</title>
<g id="a_node7"><a xlink:href="namespacemom__opacity.html#a4c1942f798619a9ad854d1152ebcab63" target="_top" xlink:title="This subroutine returns a 2&#45;d slice at constant j of fields from an optics_type, with the potential f...">
<polygon fill="#ffffff" stroke="#000000" points="457,-88 457,-118 568,-118 568,-88 457,-88"/>
<text text-anchor="start" x="465" y="-106" font-family="Helvetica,sans-Serif" font-size="10.00" fill="#000000">mom_opacity::extract</text>
<text text-anchor="middle" x="512.5" y="-95" font-family="Helvetica,sans-Serif" font-size="10.00" fill="#000000">_optics_slice</text>
</a>
</g>
</g>
<!-- Node6&#45;&gt;Node7 -->
<g id="edge6" class="edge">
<title>Node6&#45;&gt;Node7</title>
<path fill="none" stroke="#191970" d="M421.148,-103C429.7967,-103 438.4851,-103 446.8805,-103"/>
<polygon fill="#191970" stroke="#191970" points="446.9533,-106.5001 456.9533,-103 446.9533,-99.5001 446.9533,-106.5001"/>
</g>
<!-- Node8 -->
<g id="node8" class="node">
<title>Node8</title>
<g id="a_node8"><a xlink:href="namespacemom__opacity.html#a349c6934f113d238e4e2ef229b931a0c" target="_top" xlink:title="Return the number of bands of penetrating shortwave radiation.">
<polygon fill="#ffffff" stroke="#000000" points="459,-39 459,-69 566,-69 566,-39 459,-39"/>
<text text-anchor="start" x="467" y="-57" font-family="Helvetica,sans-Serif" font-size="10.00" fill="#000000">mom_opacity::optics</text>
<text text-anchor="middle" x="512.5" y="-46" font-family="Helvetica,sans-Serif" font-size="10.00" fill="#000000">_nbands</text>
</a>
</g>
</g>
<!-- Node6&#45;&gt;Node8 -->
<g id="edge8" class="edge">
<title>Node6&#45;&gt;Node8</title>
<path fill="none" stroke="#191970" d="M370.45,-93.436C392.6893,-87.2619 422.2996,-79.0415 448.7292,-71.7041"/>
<polygon fill="#191970" stroke="#191970" points="449.9816,-74.9888 458.6809,-68.9413 448.109,-68.2439 449.9816,-74.9888"/>
</g>
<!-- Node10 -->
<g id="node10" class="node">
<title>Node10</title>
<g id="a_node10"><a xlink:href="MOM__forcing__type_8F90.html#a44866f115b527c8a90369632eb0b6eda" target="_top" xlink:title="Format and write a message depending on associated state of array.">
<polygon fill="#ffffff" stroke="#000000" points="488.5,-.5 488.5,-19.5 536.5,-19.5 536.5,-.5 488.5,-.5"/>
<text text-anchor="middle" x="512.5" y="-7.5" font-family="Helvetica,sans-Serif" font-size="10.00" fill="#000000">locmsg</text>
</a>
</g>
</g>
<!-- Node9&#45;&gt;Node10 -->
<g id="edge10" class="edge">
<title>Node9&#45;&gt;Node10</title>
<path fill="none" stroke="#191970" d="M402.2242,-25.6198C428.1153,-21.9525 456.7085,-17.9025 478.2905,-14.8455"/>
<polygon fill="#191970" stroke="#191970" points="478.8692,-18.2986 488.2795,-13.4307 477.8874,-11.3678 478.8692,-18.2986"/>
</g>
</g>
</svg>
        <g id="navigator" transform="translate(0 0)" fill="#404254">
                <rect fill="#f2f5e9" fill-opacity="0.5" stroke="#606060" stroke-width=".5" x="0" y="0" width="60" height="60"/>
                <use id="zoomplus" xlink:href="#zoomPlus" x="17" y="9" onmousedown="handleZoom(evt,'in')"/>
                <use id="zoomminus" xlink:href="#zoomMin" x="42" y="9" onmousedown="handleZoom(evt,'out')"/>
                <use id="reset" xlink:href="#resetDef" x="30" y="36" onmousedown="handleReset()"/>
                <g id="arrowUp" xlink:href="#dirArrow" transform="translate(30 24)" onmousedown="handlePan(0,-1)">
                  <use xlink:href="#rim" fill="#404040">
                        <set attributeName="fill" to="#808080" begin="arrowUp.mouseover" end="arrowUp.mouseout"/>
                  </use>
                  <path fill="none" stroke="white" stroke-width="1.5" d="M0,-3.0v7 M-2.5,-0.5L0,-3.0L2.5,-0.5"/>
                </g>
                <g id="arrowRight" xlink:href="#dirArrow" transform="rotate(90) translate(36 -43)" onmousedown="handlePan(1,0)">
                  <use xlink:href="#rim" fill="#404040">
                        <set attributeName="fill" to="#808080" begin="arrowRight.mouseover" end="arrowRight.mouseout"/>
                  </use>
                  <path fill="none" stroke="white" stroke-width="1.5" d="M0,-3.0v7 M-2.5,-0.5L0,-3.0L2.5,-0.5"/>
                </g>
                <g id="arrowDown" xlink:href="#dirArrow" transform="rotate(180) translate(-30 -48)" onmousedown="handlePan(0,1)">
                  <use xlink:href="#rim" fill="#404040">
                        <set attributeName="fill" to="#808080" begin="arrowDown.mouseover" end="arrowDown.mouseout"/>
                  </use>
                  <path fill="none" stroke="white" stroke-width="1.5" d="M0,-3.0v7 M-2.5,-0.5L0,-3.0L2.5,-0.5"/>
                </g>
                <g id="arrowLeft" xlink:href="#dirArrow" transform="rotate(270) translate(-36 17)" onmousedown="handlePan(-1,0)">
                  <use xlink:href="#rim" fill="#404040">
                        <set attributeName="fill" to="#808080" begin="arrowLeft.mouseover" end="arrowLeft.mouseout"/>
                  </use>
                  <path fill="none" stroke="white" stroke-width="1.5" d="M0,-3.0v7 M-2.5,-0.5L0,-3.0L2.5,-0.5"/>
                </g>
        </g>
        <svg viewBox="0 0 15 15" width="100%" height="30px" preserveAspectRatio="xMaxYMin meet">
         <g id="arrow_out" transform="scale(0.3 0.3)">
          <a xlink:href="namespacemom__diabatic__aux_ae7a279c765fa370c302532c13a1adaca_cgraph_org.svg" target="_base">
           <rect id="button" ry="5" rx="5" y="6" x="6" height="38" width="38"
                fill="#f2f5e9" fill-opacity="0.5" stroke="#606060" stroke-width="1.0"/>
           <path id="arrow"
             d="M 11.500037,31.436501 C 11.940474,20.09759 22.043105,11.32322 32.158766,21.979434 L 37.068811,17.246167 C 37.068811,17.246167 37.088388,32 37.088388,32 L 22.160133,31.978069 C 22.160133,31.978069 26.997745,27.140456 26.997745,27.140456 C 18.528582,18.264221 13.291696,25.230495 11.500037,31.436501 z"
             style="fill:#404040;"/>
          </a>
         </g>
        </svg>
</svg>
