<?xml version="1.0" encoding="UTF-8" standalone="no"?>
<!DOCTYPE svg PUBLIC "-//W3C//DTD SVG 1.1//EN"
 "http://www.w3.org/Graphics/SVG/1.1/DTD/svg11.dtd">
<!-- Generated by graphviz version 2.40.1 (20161225.0304)
 -->
<!-- Title: mom_remapping::check_reconstructions_1d Pages: 1 -->
<!--zoomable 382 -->
<svg id="main" version="1.1" xmlns="http://www.w3.org/2000/svg" xmlns:xlink="http://www.w3.org/1999/xlink" xml:space="preserve" onload="init(evt)">
<style type="text/css"><![CDATA[
.edge:hover path { stroke: red; }
.edge:hover polygon { stroke: red; fill: red; }
]]></style>
<script type="text/javascript"><![CDATA[
var edges = document.getElementsByTagName('g');
if (edges && edges.length) {
  for (var i=0;i<edges.length;i++) {
    if (edges[i].id.substr(0,4)=='edge') {
      edges[i].setAttribute('class','edge');
    }
  }
}
]]></script>
        <defs>
                <circle id="rim" cx="0" cy="0" r="7"/>
                <circle id="rim2" cx="0" cy="0" r="3.5"/>
                <g id="zoomPlus">
                        <use xlink:href="#rim" fill="#404040">
                                <set attributeName="fill" to="#808080" begin="zoomplus.mouseover" end="zoomplus.mouseout"/>
                        </use>
                        <path d="M-4,0h8M0,-4v8" fill="none" stroke="white" stroke-width="1.5" pointer-events="none"/>
                </g>
                <g id="zoomMin">
                        <use xlink:href="#rim" fill="#404040">
                                <set attributeName="fill" to="#808080" begin="zoomminus.mouseover" end="zoomminus.mouseout"/>
                        </use>
                        <path d="M-4,0h8" fill="none" stroke="white" stroke-width="1.5" pointer-events="none"/>
                </g>
                <g id="dirArrow">
                        <path fill="none" stroke="white" stroke-width="1.5" d="M0,-3.0v7 M-2.5,-0.5L0,-3.0L2.5,-0.5"/>
                </g>
               <g id="resetDef">
                       <use xlink:href="#rim2" fill="#404040">
                               <set attributeName="fill" to="#808080" begin="reset.mouseover" end="reset.mouseout"/>
                       </use>
               </g>
        </defs>

<script type="text/javascript">
var viewWidth = 1195;
var viewHeight = 382;
var sectionId = 'dynsection-6';
</script>
<script xlink:href="svgpan.js"/>
<svg id="graph" class="graph">
<g id="viewport">
<title>mom_remapping::check_reconstructions_1d</title>
<polygon fill="#ffffff" stroke="transparent" points="-4,4 -4,-378 1191,-378 1191,4 -4,4"/>
<!-- Node1 -->
<g id="node1" class="node">
<title>Node1</title>
<g id="a_node1"><a xlink:title="Checks that edge values and reconstructions satisfy bounds.">
<polygon fill="#bfbfbf" stroke="#000000" points="1059,-98.5 1059,-128.5 1187,-128.5 1187,-98.5 1059,-98.5"/>
<text text-anchor="start" x="1067" y="-116.5" font-family="Helvetica,sans-Serif" font-size="10.00" fill="#000000">mom_remapping::check</text>
<text text-anchor="middle" x="1123" y="-105.5" font-family="Helvetica,sans-Serif" font-size="10.00" fill="#000000">_reconstructions_1d</text>
</a>
</g>
</g>
<!-- Node2 -->
<g id="node2" class="node">
<title>Node2</title>
<g id="a_node2"><a xlink:href="namespacemom__remapping.html#abe4a1d5b1b9f26063a5e4aba5be0b0a5" target="_top" xlink:title="Remaps column of values u0 on grid h0 to grid h1 assuming the top edge is aligned.">
<polygon fill="#ffffff" stroke="#000000" points="873,-169.5 873,-199.5 1023,-199.5 1023,-169.5 873,-169.5"/>
<text text-anchor="start" x="881" y="-187.5" font-family="Helvetica,sans-Serif" font-size="10.00" fill="#000000">mom_remapping::remapping</text>
<text text-anchor="middle" x="948" y="-176.5" font-family="Helvetica,sans-Serif" font-size="10.00" fill="#000000">_core_h</text>
</a>
</g>
</g>
<!-- Node1&#45;&gt;Node2 -->
<g id="edge1" class="edge">
<title>Node1&#45;&gt;Node2</title>
<path fill="none" stroke="#191970" d="M1076.4995,-132.3659C1047.8916,-143.9725 1011.7287,-158.6444 985.0595,-169.4644"/>
<polygon fill="#191970" stroke="#191970" points="1077.9364,-135.5601 1085.887,-128.5573 1075.3047,-129.0736 1077.9364,-135.5601"/>
</g>
<!-- Node25 -->
<g id="node25" class="node">
<title>Node25</title>
<g id="a_node25"><a xlink:href="namespacemom__remapping.html#a38bd02a8643f4a984bc3985f34106d9a" target="_top" xlink:title="Remaps column of values u0 on grid h0 to implied grid h1 where the interfaces of h1 differ from those...">
<polygon fill="#ffffff" stroke="#000000" points="873,-74.5 873,-104.5 1023,-104.5 1023,-74.5 873,-74.5"/>
<text text-anchor="start" x="881" y="-92.5" font-family="Helvetica,sans-Serif" font-size="10.00" fill="#000000">mom_remapping::remapping</text>
<text text-anchor="middle" x="948" y="-81.5" font-family="Helvetica,sans-Serif" font-size="10.00" fill="#000000">_core_w</text>
</a>
</g>
</g>
<!-- Node1&#45;&gt;Node25 -->
<g id="edge28" class="edge">
<title>Node1&#45;&gt;Node25</title>
<path fill="none" stroke="#191970" d="M1048.9155,-103.3398C1040.3844,-102.1699 1031.6789,-100.976 1023.1341,-99.8041"/>
<polygon fill="#191970" stroke="#191970" points="1048.4473,-106.8083 1058.8302,-104.6996 1049.3985,-99.8732 1048.4473,-106.8083"/>
</g>
<!-- Node3 -->
<g id="node3" class="node">
<title>Node3</title>
<g id="a_node3"><a xlink:href="namespacemom__ale__sponge.html#a1f297a8680a56b92ad1ac4e09f375d05" target="_top" xlink:title="This subroutine applies damping to the layers thicknesses, temp, salt and a variety of tracers for ev...">
<polygon fill="#ffffff" stroke="#000000" points="698.5,-284.5 698.5,-314.5 829.5,-314.5 829.5,-284.5 698.5,-284.5"/>
<text text-anchor="start" x="706.5" y="-302.5" font-family="Helvetica,sans-Serif" font-size="10.00" fill="#000000">mom_ale_sponge::apply</text>
<text text-anchor="middle" x="764" y="-291.5" font-family="Helvetica,sans-Serif" font-size="10.00" fill="#000000">_ale_sponge</text>
</a>
</g>
</g>
<!-- Node2&#45;&gt;Node3 -->
<g id="edge2" class="edge">
<title>Node2&#45;&gt;Node3</title>
<path fill="none" stroke="#191970" d="M925.9612,-206.7982C904.7782,-227.1437 871.0437,-256.8057 837,-275.5 830.9192,-278.8391 824.2967,-281.812 817.6036,-284.4296"/>
<polygon fill="#191970" stroke="#191970" points="928.4604,-209.2497 933.1748,-199.7616 923.5725,-204.2389 928.4604,-209.2497"/>
</g>
<!-- Node9 -->
<g id="node9" class="node">
<title>Node9</title>
<g id="a_node9"><a xlink:href="namespacecoord__rho.html#aa5b249b62eabf07cdc7f02649f029cae" target="_top" xlink:title="Iteratively build a rho coordinate column.">
<polygon fill="#ffffff" stroke="#000000" points="707.5,-98.5 707.5,-128.5 820.5,-128.5 820.5,-98.5 707.5,-98.5"/>
<text text-anchor="start" x="715.5" y="-116.5" font-family="Helvetica,sans-Serif" font-size="10.00" fill="#000000">coord_rho::build_rho</text>
<text text-anchor="middle" x="764" y="-105.5" font-family="Helvetica,sans-Serif" font-size="10.00" fill="#000000">_column_iteratively</text>
</a>
</g>
</g>
<!-- Node2&#45;&gt;Node9 -->
<g id="edge8" class="edge">
<title>Node2&#45;&gt;Node9</title>
<path fill="none" stroke="#191970" d="M904.9398,-165.2854C884.511,-156.4231 859.6644,-146.0073 837,-137.5 828.8815,-134.4526 820.1794,-131.4055 811.7136,-128.555"/>
<polygon fill="#191970" stroke="#191970" points="903.722,-168.5727 914.2871,-169.3654 906.5223,-162.1572 903.722,-168.5727"/>
</g>
<!-- Node10 -->
<g id="node10" class="node">
<title>Node10</title>
<g id="a_node10"><a xlink:href="namespacemom__tidal__mixing.html#aef4b9f3c4ceece52a1cebe1bbee66988" target="_top" xlink:title="Calls the CVMix routines to compute tidal dissipation and to add the effect of internal&#45;tide&#45;driven m...">
<polygon fill="#ffffff" stroke="#000000" points="691,-49.5 691,-79.5 837,-79.5 837,-49.5 691,-49.5"/>
<text text-anchor="start" x="699" y="-67.5" font-family="Helvetica,sans-Serif" font-size="10.00" fill="#000000">mom_tidal_mixing::calculate</text>
<text text-anchor="middle" x="764" y="-56.5" font-family="Helvetica,sans-Serif" font-size="10.00" fill="#000000">_cvmix_tidal</text>
</a>
</g>
</g>
<!-- Node2&#45;&gt;Node10 -->
<g id="edge9" class="edge">
<title>Node2&#45;&gt;Node10</title>
<path fill="none" stroke="#191970" d="M924.4503,-162.175C897.7959,-137.267 855.6641,-99.0714 837,-88.5 831.0798,-85.1468 824.6212,-82.1771 818.0736,-79.5712"/>
<polygon fill="#191970" stroke="#191970" points="922.167,-164.832 931.8538,-169.1234 926.9574,-159.7278 922.167,-164.832"/>
</g>
<!-- Node12 -->
<g id="node12" class="node">
<title>Node12</title>
<g id="a_node12"><a xlink:href="namespacemom__state__initialization.html#a69c6f01824f00611082b6d5f1b6ca738" target="_top" xlink:title="Adjust the layer thicknesses by removing the top of the water column above the depth where the hydros...">
<polygon fill="#ffffff" stroke="#000000" points="699.5,-147.5 699.5,-177.5 828.5,-177.5 828.5,-147.5 699.5,-147.5"/>
<text text-anchor="start" x="707.5" y="-165.5" font-family="Helvetica,sans-Serif" font-size="10.00" fill="#000000">mom_state_initialization</text>
<text text-anchor="middle" x="764" y="-154.5" font-family="Helvetica,sans-Serif" font-size="10.00" fill="#000000">::cut_off_column_top</text>
</a>
</g>
</g>
<!-- Node2&#45;&gt;Node12 -->
<g id="edge11" class="edge">
<title>Node2&#45;&gt;Node12</title>
<path fill="none" stroke="#191970" d="M862.8251,-174.316C851.3037,-172.9385 839.6387,-171.5438 828.5582,-170.2189"/>
<polygon fill="#191970" stroke="#191970" points="862.5499,-177.808 872.8948,-175.52 863.381,-170.8575 862.5499,-177.808"/>
</g>
<!-- Node17 -->
<g id="node17" class="node">
<title>Node17</title>
<g id="a_node17"><a xlink:href="namespacemom__diag__remap.html#ac004e8411a2391dd4fff667714d7a539" target="_top" xlink:title="Remap diagnostic field to alternative vertical grid.">
<polygon fill="#ffffff" stroke="#000000" points="701,-235.5 701,-265.5 827,-265.5 827,-235.5 701,-235.5"/>
<text text-anchor="start" x="709" y="-253.5" font-family="Helvetica,sans-Serif" font-size="10.00" fill="#000000">mom_diag_remap::diag</text>
<text text-anchor="middle" x="764" y="-242.5" font-family="Helvetica,sans-Serif" font-size="10.00" fill="#000000">_remap_do_remap</text>
</a>
</g>
</g>
<!-- Node2&#45;&gt;Node17 -->
<g id="edge17" class="edge">
<title>Node2&#45;&gt;Node17</title>
<path fill="none" stroke="#191970" d="M896.0079,-203.1493C867.5469,-213.3582 832.7419,-225.8426 806.0169,-235.4287"/>
<polygon fill="#191970" stroke="#191970" points="897.5556,-206.3126 905.7867,-199.6417 895.1922,-199.7236 897.5556,-206.3126"/>
</g>
<!-- Node18 -->
<g id="node18" class="node">
<title>Node18</title>
<g id="a_node18"><a xlink:href="namespacemom__oda__driver__mod.html#a24806346258e5d9143e233999eef0e7f" target="_top" xlink:title="Copy ensemble member tracers to ensemble vector.">
<polygon fill="#ffffff" stroke="#000000" points="336,-191.5 336,-221.5 458,-221.5 458,-191.5 336,-191.5"/>
<text text-anchor="start" x="344" y="-209.5" font-family="Helvetica,sans-Serif" font-size="10.00" fill="#000000">mom_oda_driver_mod</text>
<text text-anchor="middle" x="397" y="-198.5" font-family="Helvetica,sans-Serif" font-size="10.00" fill="#000000">::set_prior_tracer</text>
</a>
</g>
</g>
<!-- Node2&#45;&gt;Node18 -->
<g id="edge18" class="edge">
<title>Node2&#45;&gt;Node18</title>
<path fill="none" stroke="#191970" d="M862.5757,-187.9108C750.4835,-192.3863 556.489,-200.132 458.0647,-204.0618"/>
<polygon fill="#191970" stroke="#191970" points="862.9765,-191.3977 872.8289,-187.5014 862.6972,-184.4032 862.9765,-191.3977"/>
</g>
<!-- Node19 -->
<g id="node19" class="node">
<title>Node19</title>
<g id="a_node19"><a xlink:href="namespacemom__wave__speed.html#a2bb7c3c0482510f3d50a2f2e933e4229" target="_top" xlink:title="Calculates the wave speed of the first baroclinic mode.">
<polygon fill="#ffffff" stroke="#000000" points="513,-333.5 513,-363.5 647,-363.5 647,-333.5 513,-333.5"/>
<text text-anchor="start" x="521" y="-351.5" font-family="Helvetica,sans-Serif" font-size="10.00" fill="#000000">mom_wave_speed::wave</text>
<text text-anchor="middle" x="580" y="-340.5" font-family="Helvetica,sans-Serif" font-size="10.00" fill="#000000">_speed</text>
</a>
</g>
</g>
<!-- Node2&#45;&gt;Node19 -->
<g id="edge20" class="edge">
<title>Node2&#45;&gt;Node19</title>
<path fill="none" stroke="#191970" d="M936.5215,-208.9486C919.7419,-241.6056 885.1892,-298.3758 837,-324.5 778.5961,-356.1617 701.6486,-359.2014 647.221,-356.1511"/>
<polygon fill="#191970" stroke="#191970" points="939.8282,-210.16 941.1538,-199.6484 933.5624,-207.0391 939.8282,-210.16"/>
</g>
<!-- Node4 -->
<g id="node4" class="node">
<title>Node4</title>
<g id="a_node4"><a xlink:href="namespacemom__diabatic__driver.html#a9005de9f3ad26b32de53e3cd9826b9b9" target="_top" xlink:title="This subroutine imposes the diapycnal mass fluxes and the accompanying diapycnal advection of momentu...">
<polygon fill="#ffffff" stroke="#000000" points="523,-235.5 523,-265.5 637,-265.5 637,-235.5 523,-235.5"/>
<text text-anchor="start" x="531" y="-253.5" font-family="Helvetica,sans-Serif" font-size="10.00" fill="#000000">mom_diabatic_driver</text>
<text text-anchor="middle" x="580" y="-242.5" font-family="Helvetica,sans-Serif" font-size="10.00" fill="#000000">::diabatic</text>
</a>
</g>
</g>
<!-- Node3&#45;&gt;Node4 -->
<g id="edge3" class="edge">
<title>Node3&#45;&gt;Node4</title>
<path fill="none" stroke="#191970" d="M697.8243,-281.8771C677.6938,-276.5163 655.7684,-270.6775 636.3498,-265.5062"/>
<polygon fill="#191970" stroke="#191970" points="696.9796,-285.2741 707.5435,-284.4654 698.781,-278.5098 696.9796,-285.2741"/>
</g>
<!-- Node5 -->
<g id="node5" class="node">
<title>Node5</title>
<g id="a_node5"><a xlink:href="namespacemom__diabatic__driver.html#a9cdc6d13fb212778da2d58f286528fde" target="_top" xlink:title="Imposes the diapycnal mass fluxes and the accompanying diapycnal advection of momentum and tracers us...">
<polygon fill="#ffffff" stroke="#000000" points="523,-284.5 523,-314.5 637,-314.5 637,-284.5 523,-284.5"/>
<text text-anchor="start" x="531" y="-302.5" font-family="Helvetica,sans-Serif" font-size="10.00" fill="#000000">mom_diabatic_driver</text>
<text text-anchor="middle" x="580" y="-291.5" font-family="Helvetica,sans-Serif" font-size="10.00" fill="#000000">::legacy_diabatic</text>
</a>
</g>
</g>
<!-- Node3&#45;&gt;Node5 -->
<g id="edge4" class="edge">
<title>Node3&#45;&gt;Node5</title>
<path fill="none" stroke="#191970" d="M687.8875,-299.5C670.893,-299.5 653.1525,-299.5 637.0814,-299.5"/>
<polygon fill="#191970" stroke="#191970" points="688.3511,-303.0001 698.351,-299.5 688.351,-296.0001 688.3511,-303.0001"/>
</g>
<!-- Node6 -->
<g id="node6" class="node">
<title>Node6</title>
<g id="a_node6"><a xlink:href="namespacemom.html#a1a81ea749a309f10f5c3c7a17efa3606" target="_top" xlink:title="MOM_step_thermo orchestrates the thermodynamic time stepping and vertical remapping,...">
<polygon fill="#ffffff" stroke="#000000" points="331.5,-241 331.5,-260 462.5,-260 462.5,-241 331.5,-241"/>
<text text-anchor="middle" x="397" y="-248" font-family="Helvetica,sans-Serif" font-size="10.00" fill="#000000">mom::step_mom_thermo</text>
</a>
</g>
</g>
<!-- Node5&#45;&gt;Node6 -->
<g id="edge5" class="edge">
<title>Node5&#45;&gt;Node6</title>
<path fill="none" stroke="#191970" d="M513.66,-281.7368C486.2211,-274.3898 455.5092,-266.1664 432.4868,-260.0019"/>
<polygon fill="#191970" stroke="#191970" points="513.0357,-285.1929 523.6007,-284.3986 514.8463,-278.4311 513.0357,-285.1929"/>
</g>
<!-- Node7 -->
<g id="node7" class="node">
<title>Node7</title>
<g id="a_node7"><a xlink:href="namespacemom.html#a972730596703580d4646320f2c9085a5" target="_top" xlink:title="This subroutine orchestrates the time stepping of MOM. The adiabatic dynamics are stepped by calls to...">
<polygon fill="#ffffff" stroke="#000000" points="188,-241 188,-260 280,-260 280,-241 188,-241"/>
<text text-anchor="middle" x="234" y="-248" font-family="Helvetica,sans-Serif" font-size="10.00" fill="#000000">mom::step_mom</text>
</a>
</g>
</g>
<!-- Node6&#45;&gt;Node7 -->
<g id="edge6" class="edge">
<title>Node6&#45;&gt;Node7</title>
<path fill="none" stroke="#191970" d="M321.0416,-250.5C307.0441,-250.5 292.8277,-250.5 280.054,-250.5"/>
<polygon fill="#191970" stroke="#191970" points="321.1715,-254.0001 331.1715,-250.5 321.1715,-247.0001 321.1715,-254.0001"/>
</g>
<!-- Node8 -->
<g id="node8" class="node">
<title>Node8</title>
<g id="a_node8"><a xlink:href="MOM__driver_8F90.html#a08fffeb2d8e8acbf9ed4609be6d258c6" target="_top" xlink:title=" ">
<polygon fill="#ffffff" stroke="#000000" points="37.5,-241 37.5,-260 105.5,-260 105.5,-241 37.5,-241"/>
<text text-anchor="middle" x="71.5" y="-248" font-family="Helvetica,sans-Serif" font-size="10.00" fill="#000000">mom_main</text>
</a>
</g>
</g>
<!-- Node7&#45;&gt;Node8 -->
<g id="edge7" class="edge">
<title>Node7&#45;&gt;Node8</title>
<path fill="none" stroke="#191970" d="M177.7972,-250.5C153.7688,-250.5 126.5011,-250.5 105.5994,-250.5"/>
<polygon fill="#191970" stroke="#191970" points="177.8687,-254.0001 187.8687,-250.5 177.8687,-247.0001 177.8687,-254.0001"/>
</g>
<!-- Node11 -->
<g id="node11" class="node">
<title>Node11</title>
<g id="a_node11"><a xlink:href="namespacemom__tidal__mixing.html#abf084268fd9c71f20880838d2bce7e3e" target="_top" xlink:title="Depending on whether or not CVMix is active, calls the associated subroutine to compute internal tida...">
<polygon fill="#ffffff" stroke="#000000" points="507,-49.5 507,-79.5 653,-79.5 653,-49.5 507,-49.5"/>
<text text-anchor="start" x="515" y="-67.5" font-family="Helvetica,sans-Serif" font-size="10.00" fill="#000000">mom_tidal_mixing::calculate</text>
<text text-anchor="middle" x="580" y="-56.5" font-family="Helvetica,sans-Serif" font-size="10.00" fill="#000000">_tidal_mixing</text>
</a>
</g>
</g>
<!-- Node10&#45;&gt;Node11 -->
<g id="edge10" class="edge">
<title>Node10&#45;&gt;Node11</title>
<path fill="none" stroke="#191970" d="M680.5517,-64.5C671.4601,-64.5 662.256,-64.5 653.2989,-64.5"/>
<polygon fill="#191970" stroke="#191970" points="680.7497,-68.0001 690.7496,-64.5 680.7496,-61.0001 680.7497,-68.0001"/>
</g>
<!-- Node13 -->
<g id="node13" class="node">
<title>Node13</title>
<g id="a_node13"><a xlink:href="namespacemom__state__initialization.html#a807c1c2bb13f172945c7c25f3af7abd1" target="_top" xlink:title="Run simple unit tests.">
<polygon fill="#ffffff" stroke="#000000" points="515.5,-147.5 515.5,-177.5 644.5,-177.5 644.5,-147.5 515.5,-147.5"/>
<text text-anchor="start" x="523.5" y="-165.5" font-family="Helvetica,sans-Serif" font-size="10.00" fill="#000000">mom_state_initialization</text>
<text text-anchor="middle" x="580" y="-154.5" font-family="Helvetica,sans-Serif" font-size="10.00" fill="#000000">::mom_state_init_tests</text>
</a>
</g>
</g>
<!-- Node12&#45;&gt;Node13 -->
<g id="edge12" class="edge">
<title>Node12&#45;&gt;Node13</title>
<path fill="none" stroke="#191970" d="M689.2895,-162.5C674.5335,-162.5 659.162,-162.5 644.7679,-162.5"/>
<polygon fill="#191970" stroke="#191970" points="689.3872,-166.0001 699.3872,-162.5 689.3872,-159.0001 689.3872,-166.0001"/>
</g>
<!-- Node14 -->
<g id="node14" class="node">
<title>Node14</title>
<g id="a_node14"><a xlink:href="namespacemom__state__initialization.html#abbe8ee99793eae86251739a8a1bf572f" target="_top" xlink:title="Adjust the layer thicknesses by cutting away the top of each model column at the depth where the hydr...">
<polygon fill="#ffffff" stroke="#000000" points="515.5,-98.5 515.5,-128.5 644.5,-128.5 644.5,-98.5 515.5,-98.5"/>
<text text-anchor="start" x="523.5" y="-116.5" font-family="Helvetica,sans-Serif" font-size="10.00" fill="#000000">mom_state_initialization</text>
<text text-anchor="middle" x="580" y="-105.5" font-family="Helvetica,sans-Serif" font-size="10.00" fill="#000000">::trim_for_ice</text>
</a>
</g>
</g>
<!-- Node12&#45;&gt;Node14 -->
<g id="edge13" class="edge">
<title>Node12&#45;&gt;Node14</title>
<path fill="none" stroke="#191970" d="M697.8243,-144.8771C677.6938,-139.5163 655.7684,-133.6775 636.3498,-128.5062"/>
<polygon fill="#191970" stroke="#191970" points="696.9796,-148.2741 707.5435,-147.4654 698.781,-141.5098 696.9796,-148.2741"/>
</g>
<!-- Node15 -->
<g id="node15" class="node">
<title>Node15</title>
<g id="a_node15"><a xlink:href="namespacemom__state__initialization.html#a81503d4f1855cb185f122d6314e4f06c" target="_top" xlink:title="Initialize temporally evolving fields, either as initial conditions or by reading them from a restart...">
<polygon fill="#ffffff" stroke="#000000" points="332.5,-98.5 332.5,-128.5 461.5,-128.5 461.5,-98.5 332.5,-98.5"/>
<text text-anchor="start" x="340.5" y="-116.5" font-family="Helvetica,sans-Serif" font-size="10.00" fill="#000000">mom_state_initialization</text>
<text text-anchor="middle" x="397" y="-105.5" font-family="Helvetica,sans-Serif" font-size="10.00" fill="#000000">::mom_initialize_state</text>
</a>
</g>
</g>
<!-- Node14&#45;&gt;Node15 -->
<g id="edge14" class="edge">
<title>Node14&#45;&gt;Node15</title>
<path fill="none" stroke="#191970" d="M505.087,-113.5C490.6445,-113.5 475.6316,-113.5 461.5531,-113.5"/>
<polygon fill="#191970" stroke="#191970" points="505.4811,-117.0001 515.481,-113.5 505.481,-110.0001 505.4811,-117.0001"/>
</g>
<!-- Node16 -->
<g id="node16" class="node">
<title>Node16</title>
<g id="a_node16"><a xlink:href="namespacemom.html#a96708b16215666edbfa5b46228f3a200" target="_top" xlink:title="Initialize MOM, including memory allocation, setting up parameters and diagnostics,...">
<polygon fill="#ffffff" stroke="#000000" points="179,-104 179,-123 289,-123 289,-104 179,-104"/>
<text text-anchor="middle" x="234" y="-111" font-family="Helvetica,sans-Serif" font-size="10.00" fill="#000000">mom::initialize_mom</text>
</a>
</g>
</g>
<!-- Node15&#45;&gt;Node16 -->
<g id="edge15" class="edge">
<title>Node15&#45;&gt;Node16</title>
<path fill="none" stroke="#191970" d="M322.0296,-113.5C310.9786,-113.5 299.7664,-113.5 289.2128,-113.5"/>
<polygon fill="#191970" stroke="#191970" points="322.1098,-117.0001 332.1097,-113.5 322.1097,-110.0001 322.1098,-117.0001"/>
</g>
<!-- Node16&#45;&gt;Node8 -->
<g id="edge16" class="edge">
<title>Node16&#45;&gt;Node8</title>
<path fill="none" stroke="#191970" d="M214.7308,-129.7455C180.6616,-158.4684 110.7803,-217.3837 83.1316,-240.6937"/>
<polygon fill="#191970" stroke="#191970" points="217.1839,-132.2552 222.5733,-123.1336 212.6718,-126.9034 217.1839,-132.2552"/>
</g>
<!-- Node18&#45;&gt;Node7 -->
<g id="edge19" class="edge">
<title>Node18&#45;&gt;Node7</title>
<path fill="none" stroke="#191970" d="M331.441,-224.1969C310.2762,-229.9101 287.6188,-236.0262 269.4832,-240.9217"/>
<polygon fill="#191970" stroke="#191970" points="332.6183,-227.5045 341.3605,-221.5192 330.7939,-220.7464 332.6183,-227.5045"/>
</g>
<!-- Node20 -->
<g id="node20" class="node">
<title>Node20</title>
<g id="a_node20"><a xlink:href="namespacemom__lateral__mixing__coeffs.html#a8652c5651033573cfd6f09b789d64713" target="_top" xlink:title="Calculates and stores the non&#45;dimensional resolution functions.">
<polygon fill="#ffffff" stroke="#000000" points="342,-329 342,-370 452,-370 452,-329 342,-329"/>
<text text-anchor="start" x="350" y="-358" font-family="Helvetica,sans-Serif" font-size="10.00" fill="#000000">mom_lateral_mixing</text>
<text text-anchor="start" x="350" y="-347" font-family="Helvetica,sans-Serif" font-size="10.00" fill="#000000">_coeffs::calc_resoln</text>
<text text-anchor="middle" x="397" y="-336" font-family="Helvetica,sans-Serif" font-size="10.00" fill="#000000">_function</text>
</a>
</g>
</g>
<!-- Node19&#45;&gt;Node20 -->
<g id="edge21" class="edge">
<title>Node19&#45;&gt;Node20</title>
<path fill="none" stroke="#191970" d="M502.4603,-348.9237C485.5289,-349.0162 467.9445,-349.1123 452.0999,-349.1989"/>
<polygon fill="#191970" stroke="#191970" points="502.916,-352.4214 512.8967,-348.8667 502.8777,-345.4215 502.916,-352.4214"/>
</g>
<!-- Node24 -->
<g id="node24" class="node">
<title>Node24</title>
<g id="a_node24"><a xlink:href="namespacemom__diagnostics.html#a6bd689b4d9f660020d8e3960879b4799" target="_top" xlink:title="Diagnostics not more naturally calculated elsewhere are computed here.">
<polygon fill="#ffffff" stroke="#000000" points="325,-279.5 325,-309.5 469,-309.5 469,-279.5 325,-279.5"/>
<text text-anchor="start" x="333" y="-297.5" font-family="Helvetica,sans-Serif" font-size="10.00" fill="#000000">mom_diagnostics::calculate</text>
<text text-anchor="middle" x="397" y="-286.5" font-family="Helvetica,sans-Serif" font-size="10.00" fill="#000000">_diagnostic_fields</text>
</a>
</g>
</g>
<!-- Node19&#45;&gt;Node24 -->
<g id="edge27" class="edge">
<title>Node19&#45;&gt;Node24</title>
<path fill="none" stroke="#191970" d="M519.3235,-330.5955C496.2171,-323.7772 470.1413,-316.0827 448.0194,-309.5549"/>
<polygon fill="#191970" stroke="#191970" points="518.4426,-333.9846 529.0243,-333.458 520.4237,-327.2708 518.4426,-333.9846"/>
</g>
<!-- Node20&#45;&gt;Node7 -->
<g id="edge22" class="edge">
<title>Node20&#45;&gt;Node7</title>
<path fill="none" stroke="#191970" d="M334.1941,-324.4748C331.0481,-322.8662 327.9661,-321.2053 325,-319.5 293.8889,-301.6136 261.2805,-274.5271 244.8444,-260.1912"/>
<polygon fill="#191970" stroke="#191970" points="332.665,-327.6231 343.187,-328.8635 335.7351,-321.3322 332.665,-327.6231"/>
</g>
<!-- Node21 -->
<g id="node21" class="node">
<title>Node21</title>
<g id="a_node21"><a xlink:href="namespacemom.html#ade4f7557fcda73ffc12284d3cecf4182" target="_top" xlink:title="step_offline is the main driver for running tracers offline in MOM6. This has been primarily develope...">
<polygon fill="#ffffff" stroke="#000000" points="185,-324 185,-343 283,-343 283,-324 185,-324"/>
<text text-anchor="middle" x="234" y="-331" font-family="Helvetica,sans-Serif" font-size="10.00" fill="#000000">mom::step_offline</text>
</a>
</g>
</g>
<!-- Node20&#45;&gt;Node21 -->
<g id="edge23" class="edge">
<title>Node20&#45;&gt;Node21</title>
<path fill="none" stroke="#191970" d="M331.8399,-343.1039C315.5915,-341.509 298.4395,-339.8253 283.1126,-338.3209"/>
<polygon fill="#191970" stroke="#191970" points="331.5215,-346.5894 341.8156,-344.0831 332.2054,-339.6229 331.5215,-346.5894"/>
</g>
<!-- Node21&#45;&gt;Node8 -->
<g id="edge24" class="edge">
<title>Node21&#45;&gt;Node8</title>
<path fill="none" stroke="#191970" d="M207.4717,-319.2369C189.3781,-309.5753 164.83,-296.5972 143,-285.5 125.7518,-276.7319 105.9851,-267.0864 91.6131,-260.1454"/>
<polygon fill="#191970" stroke="#191970" points="205.8282,-322.327 216.2966,-323.9594 209.1311,-316.1551 205.8282,-322.327"/>
</g>
<!-- Node22 -->
<g id="node22" class="node">
<title>Node22</title>
<g id="a_node22"><a xlink:href="namespacemom__ocean__model__mct.html#a422ba42ca07c0bf28ec5113aba4f1e96" target="_top" xlink:title="update_ocean_model uses the forcing in Ice_ocean_boundary to advance the ocean model&#39;s state from the...">
<polygon fill="#ffffff" stroke="#000000" points="6,-294.5 6,-324.5 137,-324.5 137,-294.5 6,-294.5"/>
<text text-anchor="start" x="14" y="-312.5" font-family="Helvetica,sans-Serif" font-size="10.00" fill="#000000">mom_ocean_model_mct</text>
<text text-anchor="middle" x="71.5" y="-301.5" font-family="Helvetica,sans-Serif" font-size="10.00" fill="#000000">::update_ocean_model</text>
</a>
</g>
</g>
<!-- Node21&#45;&gt;Node22 -->
<g id="edge25" class="edge">
<title>Node21&#45;&gt;Node22</title>
<path fill="none" stroke="#191970" d="M174.7104,-324.7434C162.4609,-322.9342 149.4913,-321.0187 137.0342,-319.1789"/>
<polygon fill="#191970" stroke="#191970" points="174.3996,-328.2354 184.8037,-326.2341 175.4224,-321.3105 174.3996,-328.2354"/>
</g>
<!-- Node23 -->
<g id="node23" class="node">
<title>Node23</title>
<g id="a_node23"><a xlink:href="namespacemom__ocean__model__nuopc.html#a02a87b4944febcc6828c55e8e4375e62" target="_top" xlink:title="update_ocean_model uses the forcing in Ice_ocean_boundary to advance the ocean model&#39;s state from the...">
<polygon fill="#ffffff" stroke="#000000" points="0,-343.5 0,-373.5 143,-373.5 143,-343.5 0,-343.5"/>
<text text-anchor="start" x="8" y="-361.5" font-family="Helvetica,sans-Serif" font-size="10.00" fill="#000000">mom_ocean_model_nuopc</text>
<text text-anchor="middle" x="71.5" y="-350.5" font-family="Helvetica,sans-Serif" font-size="10.00" fill="#000000">::update_ocean_model</text>
</a>
</g>
</g>
<!-- Node21&#45;&gt;Node23 -->
<g id="edge26" class="edge">
<title>Node21&#45;&gt;Node23</title>
<path fill="none" stroke="#191970" d="M174.7013,-342.6229C164.4023,-344.2073 153.5945,-345.8701 143.0104,-347.4984"/>
<polygon fill="#191970" stroke="#191970" points="175.4522,-346.0486 184.8037,-341.0687 174.3877,-339.13 175.4522,-346.0486"/>
</g>
<!-- Node26 -->
<g id="node26" class="node">
<title>Node26</title>
<g id="a_node26"><a xlink:href="namespacemom__remapping.html#a5849f564453d5ed76fb4feffd41eca26" target="_top" xlink:title="Runs unit tests on remapping functions. Should only be called from a single/root thread Returns True ...">
<polygon fill="#ffffff" stroke="#000000" points="505,-.5 505,-30.5 655,-30.5 655,-.5 505,-.5"/>
<text text-anchor="start" x="513" y="-18.5" font-family="Helvetica,sans-Serif" font-size="10.00" fill="#000000">mom_remapping::remapping</text>
<text text-anchor="middle" x="580" y="-7.5" font-family="Helvetica,sans-Serif" font-size="10.00" fill="#000000">_unit_tests</text>
</a>
</g>
</g>
<!-- Node25&#45;&gt;Node26 -->
<g id="edge29" class="edge">
<title>Node25&#45;&gt;Node26</title>
<path fill="none" stroke="#191970" d="M912.143,-69.6932C890.9291,-58.9171 863.1674,-46.4099 837,-39.5 777.1004,-23.6826 706.945,-17.9498 655.0801,-16.0225"/>
<polygon fill="#191970" stroke="#191970" points="910.6157,-72.8437 921.1044,-74.3397 913.8379,-66.6294 910.6157,-72.8437"/>
</g>
<!-- Node27 -->
<g id="node27" class="node">
<title>Node27</title>
<g id="a_node27"><a xlink:href="namespacemom__unit__tests.html#a57645db02bc734c32de50d028ef906ac" target="_top" xlink:title="Calls unit tests for other modules. Note that if a unit test returns true, a FATAL error is triggered...">
<polygon fill="#ffffff" stroke="#000000" points="341.5,-25.5 341.5,-55.5 452.5,-55.5 452.5,-25.5 341.5,-25.5"/>
<text text-anchor="start" x="349.5" y="-43.5" font-family="Helvetica,sans-Serif" font-size="10.00" fill="#000000">mom_unit_tests::unit</text>
<text text-anchor="middle" x="397" y="-32.5" font-family="Helvetica,sans-Serif" font-size="10.00" fill="#000000">_tests</text>
</a>
</g>
</g>
<!-- Node26&#45;&gt;Node27 -->
<g id="edge30" class="edge">
<title>Node26&#45;&gt;Node27</title>
<path fill="none" stroke="#191970" d="M494.477,-27.1835C480.2609,-29.1256 465.8516,-31.094 452.6295,-32.9003"/>
<polygon fill="#191970" stroke="#191970" points="495.3405,-30.5981 504.7747,-25.7767 494.3929,-23.6625 495.3405,-30.5981"/>
</g>
<!-- Node27&#45;&gt;Node16 -->
<g id="edge31" class="edge">
<title>Node27&#45;&gt;Node16</title>
<path fill="none" stroke="#191970" d="M353.7183,-59.8838C321.9495,-74.1116 280.1653,-92.8248 255.2937,-103.9636"/>
<polygon fill="#191970" stroke="#191970" points="355.5303,-62.9073 363.2263,-55.6256 352.6692,-56.5188 355.5303,-62.9073"/>
</g>
</g>
</svg>
        <g id="navigator" transform="translate(0 0)" fill="#404254">
                <rect fill="#f2f5e9" fill-opacity="0.5" stroke="#606060" stroke-width=".5" x="0" y="0" width="60" height="60"/>
                <use id="zoomplus" xlink:href="#zoomPlus" x="17" y="9" onmousedown="handleZoom(evt,'in')"/>
                <use id="zoomminus" xlink:href="#zoomMin" x="42" y="9" onmousedown="handleZoom(evt,'out')"/>
                <use id="reset" xlink:href="#resetDef" x="30" y="36" onmousedown="handleReset()"/>
                <g id="arrowUp" xlink:href="#dirArrow" transform="translate(30 24)" onmousedown="handlePan(0,-1)">
                  <use xlink:href="#rim" fill="#404040">
                        <set attributeName="fill" to="#808080" begin="arrowUp.mouseover" end="arrowUp.mouseout"/>
                  </use>
                  <path fill="none" stroke="white" stroke-width="1.5" d="M0,-3.0v7 M-2.5,-0.5L0,-3.0L2.5,-0.5"/>
                </g>
                <g id="arrowRight" xlink:href="#dirArrow" transform="rotate(90) translate(36 -43)" onmousedown="handlePan(1,0)">
                  <use xlink:href="#rim" fill="#404040">
                        <set attributeName="fill" to="#808080" begin="arrowRight.mouseover" end="arrowRight.mouseout"/>
                  </use>
                  <path fill="none" stroke="white" stroke-width="1.5" d="M0,-3.0v7 M-2.5,-0.5L0,-3.0L2.5,-0.5"/>
                </g>
                <g id="arrowDown" xlink:href="#dirArrow" transform="rotate(180) translate(-30 -48)" onmousedown="handlePan(0,1)">
                  <use xlink:href="#rim" fill="#404040">
                        <set attributeName="fill" to="#808080" begin="arrowDown.mouseover" end="arrowDown.mouseout"/>
                  </use>
                  <path fill="none" stroke="white" stroke-width="1.5" d="M0,-3.0v7 M-2.5,-0.5L0,-3.0L2.5,-0.5"/>
                </g>
                <g id="arrowLeft" xlink:href="#dirArrow" transform="rotate(270) translate(-36 17)" onmousedown="handlePan(-1,0)">
                  <use xlink:href="#rim" fill="#404040">
                        <set attributeName="fill" to="#808080" begin="arrowLeft.mouseover" end="arrowLeft.mouseout"/>
                  </use>
                  <path fill="none" stroke="white" stroke-width="1.5" d="M0,-3.0v7 M-2.5,-0.5L0,-3.0L2.5,-0.5"/>
                </g>
        </g>
        <svg viewBox="0 0 15 15" width="100%" height="30px" preserveAspectRatio="xMaxYMin meet">
         <g id="arrow_out" transform="scale(0.3 0.3)">
          <a xlink:href="namespacemom__remapping_a1756ab9c7329e586ded97e7270b14d4d_icgraph_org.svg" target="_base">
           <rect id="button" ry="5" rx="5" y="6" x="6" height="38" width="38"
                fill="#f2f5e9" fill-opacity="0.5" stroke="#606060" stroke-width="1.0"/>
           <path id="arrow"
             d="M 11.500037,31.436501 C 11.940474,20.09759 22.043105,11.32322 32.158766,21.979434 L 37.068811,17.246167 C 37.068811,17.246167 37.088388,32 37.088388,32 L 22.160133,31.978069 C 22.160133,31.978069 26.997745,27.140456 26.997745,27.140456 C 18.528582,18.264221 13.291696,25.230495 11.500037,31.436501 z"
             style="fill:#404040;"/>
          </a>
         </g>
        </svg>
</svg>
