<?xml version="1.0" encoding="UTF-8" standalone="no"?>
<!DOCTYPE svg PUBLIC "-//W3C//DTD SVG 1.1//EN"
 "http://www.w3.org/Graphics/SVG/1.1/DTD/svg11.dtd">
<!-- Generated by graphviz version 2.40.1 (20161225.0304)
 -->
<!-- Title: mom_coriolisadv::coriolisadv_init Pages: 1 -->
<svg width="339pt" height="160pt"
 viewBox="0.00 0.00 339.00 160.00" xmlns="http://www.w3.org/2000/svg" xmlns:xlink="http://www.w3.org/1999/xlink">
<g id="graph0" class="graph" transform="scale(1 1) rotate(0) translate(4 156)">
<title>mom_coriolisadv::coriolisadv_init</title>
<polygon fill="#ffffff" stroke="transparent" points="-4,4 -4,-156 335,-156 335,4 -4,4"/>
<!-- Node1 -->
<g id="node1" class="node">
<title>Node1</title>
<g id="a_node1"><a xlink:title="Initializes the control structure for coriolisadv_cs.">
<polygon fill="#bfbfbf" stroke="#000000" points="161,-66.5 161,-85.5 331,-85.5 331,-66.5 161,-66.5"/>
<text text-anchor="middle" x="246" y="-73.5" font-family="Helvetica,sans-Serif" font-size="10.00" fill="#000000">mom_coriolisadv::coriolisadv_init</text>
</a>
</g>
</g>
<!-- Node2 -->
<g id="node2" class="node">
<title>Node2</title>
<g id="a_node2"><a xlink:href="namespacemom__dynamics__split__rk2.html#aa9a0a027754d3ca2d49f3993bc64b1b7" target="_top" xlink:title="This subroutine initializes all of the variables that are used by this dynamic core,...">
<polygon fill="#ffffff" stroke="#000000" points="5.5,-110.5 5.5,-151.5 119.5,-151.5 119.5,-110.5 5.5,-110.5"/>
<text text-anchor="start" x="13.5" y="-139.5" font-family="Helvetica,sans-Serif" font-size="10.00" fill="#000000">mom_dynamics_split</text>
<text text-anchor="start" x="13.5" y="-128.5" font-family="Helvetica,sans-Serif" font-size="10.00" fill="#000000">_rk2::initialize_dyn</text>
<text text-anchor="middle" x="62.5" y="-117.5" font-family="Helvetica,sans-Serif" font-size="10.00" fill="#000000">_split_rk2</text>
</a>
</g>
</g>
<!-- Node1&#45;&gt;Node2 -->
<g id="edge1" class="edge">
<title>Node1&#45;&gt;Node2</title>
<path fill="none" stroke="#191970" d="M204.1319,-88.549C179.1138,-96.0476 146.9864,-105.6771 119.6566,-113.8686"/>
<polygon fill="#191970" stroke="#191970" points="205.4627,-91.8041 214.0367,-85.5803 203.4529,-85.0988 205.4627,-91.8041"/>
</g>
<!-- Node3 -->
<g id="node3" class="node">
<title>Node3</title>
<g id="a_node3"><a xlink:href="namespacemom__dynamics__unsplit.html#a60f13a45463d31749046a7908a5a589e" target="_top" xlink:title="Initialize parameters and allocate memory associated with the unsplit dynamics module.">
<polygon fill="#ffffff" stroke="#000000" points="0,-61 0,-91 125,-91 125,-61 0,-61"/>
<text text-anchor="start" x="8" y="-79" font-family="Helvetica,sans-Serif" font-size="10.00" fill="#000000">mom_dynamics_unsplit</text>
<text text-anchor="middle" x="62.5" y="-68" font-family="Helvetica,sans-Serif" font-size="10.00" fill="#000000">::initialize_dyn_unsplit</text>
</a>
</g>
</g>
<!-- Node1&#45;&gt;Node3 -->
<g id="edge2" class="edge">
<title>Node1&#45;&gt;Node3</title>
<path fill="none" stroke="#191970" d="M150.7422,-76C142.0346,-76 133.3693,-76 125.0605,-76"/>
<polygon fill="#191970" stroke="#191970" points="150.9647,-79.5001 160.9646,-76 150.9646,-72.5001 150.9647,-79.5001"/>
</g>
<!-- Node4 -->
<g id="node4" class="node">
<title>Node4</title>
<g id="a_node4"><a xlink:href="namespacemom__dynamics__unsplit__rk2.html#a1e1bea48a35b64c87b5b9d0965378592" target="_top" xlink:title="Initialize parameters and allocate memory associated with the unsplit RK2 dynamics module.">
<polygon fill="#ffffff" stroke="#000000" points="0,-.5 0,-41.5 125,-41.5 125,-.5 0,-.5"/>
<text text-anchor="start" x="8" y="-29.5" font-family="Helvetica,sans-Serif" font-size="10.00" fill="#000000">mom_dynamics_unsplit</text>
<text text-anchor="start" x="8" y="-18.5" font-family="Helvetica,sans-Serif" font-size="10.00" fill="#000000">_rk2::initialize_dyn</text>
<text text-anchor="middle" x="62.5" y="-7.5" font-family="Helvetica,sans-Serif" font-size="10.00" fill="#000000">_unsplit_rk2</text>
</a>
</g>
</g>
<!-- Node1&#45;&gt;Node4 -->
<g id="edge3" class="edge">
<title>Node1&#45;&gt;Node4</title>
<path fill="none" stroke="#191970" d="M204.4309,-63.5406C181.054,-56.5339 151.3999,-47.6457 125.2493,-39.8077"/>
<polygon fill="#191970" stroke="#191970" points="203.4528,-66.9012 214.0367,-66.4197 205.4627,-60.1959 203.4528,-66.9012"/>
</g>
</g>
</svg>
