<?xml version="1.0" encoding="UTF-8" standalone="no"?>
<!DOCTYPE svg PUBLIC "-//W3C//DTD SVG 1.1//EN"
 "http://www.w3.org/Graphics/SVG/1.1/DTD/svg11.dtd">
<!-- Generated by graphviz version 2.40.1 (20161225.0304)
 -->
<!-- Title: mom_ice_shelf_dynamics::ice_shelf_temp Pages: 1 -->
<svg width="474pt" height="88pt"
 viewBox="0.00 0.00 474.00 88.00" xmlns="http://www.w3.org/2000/svg" xmlns:xlink="http://www.w3.org/1999/xlink">
<g id="graph0" class="graph" transform="scale(1 1) rotate(0) translate(4 84)">
<title>mom_ice_shelf_dynamics::ice_shelf_temp</title>
<polygon fill="#ffffff" stroke="transparent" points="-4,4 -4,-84 470,-84 470,4 -4,4"/>
<!-- Node1 -->
<g id="node1" class="node">
<title>Node1</title>
<g id="a_node1"><a xlink:title="This subroutine updates the vertically averaged ice shelf temperature.">
<polygon fill="#bfbfbf" stroke="#000000" points="0,-24.5 0,-54.5 130,-54.5 130,-24.5 0,-24.5"/>
<text text-anchor="start" x="8" y="-42.5" font-family="Helvetica,sans-Serif" font-size="10.00" fill="#000000">mom_ice_shelf_dynamics</text>
<text text-anchor="middle" x="65" y="-31.5" font-family="Helvetica,sans-Serif" font-size="10.00" fill="#000000">::ice_shelf_temp</text>
</a>
</g>
</g>
<!-- Node2 -->
<g id="node2" class="node">
<title>Node2</title>
<g id="a_node2"><a xlink:href="namespacemom__ice__shelf__dynamics.html#a35d04c53a336a68833557924e6f90e3a" target="_top" xlink:title=" ">
<polygon fill="#ffffff" stroke="#000000" points="166,-49.5 166,-79.5 300,-79.5 300,-49.5 166,-49.5"/>
<text text-anchor="start" x="174" y="-67.5" font-family="Helvetica,sans-Serif" font-size="10.00" fill="#000000">mom_ice_shelf_dynamics</text>
<text text-anchor="middle" x="233" y="-56.5" font-family="Helvetica,sans-Serif" font-size="10.00" fill="#000000">::ice_shelf_advect_temp_x</text>
</a>
</g>
</g>
<!-- Node1&#45;&gt;Node2 -->
<g id="edge1" class="edge">
<title>Node1&#45;&gt;Node2</title>
<path fill="none" stroke="#191970" d="M130.4342,-49.2372C138.7779,-50.4789 147.3789,-51.7588 155.8851,-53.0246"/>
<polygon fill="#191970" stroke="#191970" points="155.3997,-56.4908 165.8059,-54.5009 156.43,-49.567 155.3997,-56.4908"/>
</g>
<!-- Node4 -->
<g id="node4" class="node">
<title>Node4</title>
<g id="a_node4"><a xlink:href="namespacemom__ice__shelf__dynamics.html#a210fb4837553eca5fc60c86367bbad26" target="_top" xlink:title=" ">
<polygon fill="#ffffff" stroke="#000000" points="166,-.5 166,-30.5 300,-30.5 300,-.5 166,-.5"/>
<text text-anchor="start" x="174" y="-18.5" font-family="Helvetica,sans-Serif" font-size="10.00" fill="#000000">mom_ice_shelf_dynamics</text>
<text text-anchor="middle" x="233" y="-7.5" font-family="Helvetica,sans-Serif" font-size="10.00" fill="#000000">::ice_shelf_advect_temp_y</text>
</a>
</g>
</g>
<!-- Node1&#45;&gt;Node4 -->
<g id="edge3" class="edge">
<title>Node1&#45;&gt;Node4</title>
<path fill="none" stroke="#191970" d="M130.4342,-30.1523C138.7779,-28.9603 147.3789,-27.7316 155.8851,-26.5164"/>
<polygon fill="#191970" stroke="#191970" points="156.4014,-29.9783 165.8059,-25.0992 155.4114,-23.0486 156.4014,-29.9783"/>
</g>
<!-- Node3 -->
<g id="node3" class="node">
<title>Node3</title>
<g id="a_node3"><a xlink:href="namespacemom__ice__shelf__dynamics.html#a0e3d8eb91b7cbea4bb6b5063f5b1aada" target="_top" xlink:title="used for flux limiting in advective subroutines Van Leer limiter (source: Wikipedia)">
<polygon fill="#ffffff" stroke="#000000" points="336,-24.5 336,-54.5 466,-54.5 466,-24.5 336,-24.5"/>
<text text-anchor="start" x="344" y="-42.5" font-family="Helvetica,sans-Serif" font-size="10.00" fill="#000000">mom_ice_shelf_dynamics</text>
<text text-anchor="middle" x="401" y="-31.5" font-family="Helvetica,sans-Serif" font-size="10.00" fill="#000000">::slope_limiter</text>
</a>
</g>
</g>
<!-- Node2&#45;&gt;Node3 -->
<g id="edge2" class="edge">
<title>Node2&#45;&gt;Node3</title>
<path fill="none" stroke="#191970" d="M300.364,-54.4756C308.7624,-53.2258 317.3919,-51.9417 325.8983,-50.6758"/>
<polygon fill="#191970" stroke="#191970" points="326.4305,-54.1353 335.8064,-49.2014 325.4001,-47.2115 326.4305,-54.1353"/>
</g>
<!-- Node4&#45;&gt;Node3 -->
<g id="edge4" class="edge">
<title>Node4&#45;&gt;Node3</title>
<path fill="none" stroke="#191970" d="M300.364,-25.1234C308.7624,-26.3232 317.3919,-27.556 325.8983,-28.7712"/>
<polygon fill="#191970" stroke="#191970" points="325.4119,-32.2371 335.8064,-30.1866 326.4019,-25.3075 325.4119,-32.2371"/>
</g>
</g>
</svg>
