<?xml version="1.0" encoding="UTF-8" standalone="no"?>
<!DOCTYPE svg PUBLIC "-//W3C//DTD SVG 1.1//EN"
 "http://www.w3.org/Graphics/SVG/1.1/DTD/svg11.dtd">
<!-- Generated by graphviz version 2.40.1 (20161225.0304)
 -->
<!-- Title: p3m_functions::is_cubic_monotonic Pages: 1 -->
<!--zoomable 137 -->
<svg id="main" version="1.1" xmlns="http://www.w3.org/2000/svg" xmlns:xlink="http://www.w3.org/1999/xlink" xml:space="preserve" onload="init(evt)">
<style type="text/css"><![CDATA[
.edge:hover path { stroke: red; }
.edge:hover polygon { stroke: red; fill: red; }
]]></style>
<script type="text/javascript"><![CDATA[
var edges = document.getElementsByTagName('g');
if (edges && edges.length) {
  for (var i=0;i<edges.length;i++) {
    if (edges[i].id.substr(0,4)=='edge') {
      edges[i].setAttribute('class','edge');
    }
  }
}
]]></script>
        <defs>
                <circle id="rim" cx="0" cy="0" r="7"/>
                <circle id="rim2" cx="0" cy="0" r="3.5"/>
                <g id="zoomPlus">
                        <use xlink:href="#rim" fill="#404040">
                                <set attributeName="fill" to="#808080" begin="zoomplus.mouseover" end="zoomplus.mouseout"/>
                        </use>
                        <path d="M-4,0h8M0,-4v8" fill="none" stroke="white" stroke-width="1.5" pointer-events="none"/>
                </g>
                <g id="zoomMin">
                        <use xlink:href="#rim" fill="#404040">
                                <set attributeName="fill" to="#808080" begin="zoomminus.mouseover" end="zoomminus.mouseout"/>
                        </use>
                        <path d="M-4,0h8" fill="none" stroke="white" stroke-width="1.5" pointer-events="none"/>
                </g>
                <g id="dirArrow">
                        <path fill="none" stroke="white" stroke-width="1.5" d="M0,-3.0v7 M-2.5,-0.5L0,-3.0L2.5,-0.5"/>
                </g>
               <g id="resetDef">
                       <use xlink:href="#rim2" fill="#404040">
                               <set attributeName="fill" to="#808080" begin="reset.mouseover" end="reset.mouseout"/>
                       </use>
               </g>
        </defs>

<script type="text/javascript">
var viewWidth = 1294;
var viewHeight = 137;
var sectionId = 'dynsection-1';
</script>
<script xlink:href="svgpan.js"/>
<svg id="graph" class="graph">
<g id="viewport">
<title>p3m_functions::is_cubic_monotonic</title>
<polygon fill="#ffffff" stroke="transparent" points="-4,4 -4,-133 1290,-133 1290,4 -4,4"/>
<!-- Node1 -->
<g id="node1" class="node">
<title>Node1</title>
<g id="a_node1"><a xlink:title="Check whether the cubic reconstruction in cell k is monotonic.">
<polygon fill="#bfbfbf" stroke="#000000" points="1160,-49.5 1160,-79.5 1286,-79.5 1286,-49.5 1160,-49.5"/>
<text text-anchor="start" x="1168" y="-67.5" font-family="Helvetica,sans-Serif" font-size="10.00" fill="#000000">p3m_functions::is_cubic</text>
<text text-anchor="middle" x="1223" y="-56.5" font-family="Helvetica,sans-Serif" font-size="10.00" fill="#000000">_monotonic</text>
</a>
</g>
</g>
<!-- Node2 -->
<g id="node2" class="node">
<title>Node2</title>
<g id="a_node2"><a xlink:href="namespacep3m__functions.html#a6e82e1b678b123181ea3fde88cd14e3a" target="_top" xlink:title="Calculate the edge values and slopes at boundary cells as part of building a piecewise cubic sub&#45;grid...">
<polygon fill="#ffffff" stroke="#000000" points="844,-74.5 844,-104.5 978,-104.5 978,-74.5 844,-74.5"/>
<text text-anchor="start" x="852" y="-92.5" font-family="Helvetica,sans-Serif" font-size="10.00" fill="#000000">p3m_functions::p3m</text>
<text text-anchor="middle" x="911" y="-81.5" font-family="Helvetica,sans-Serif" font-size="10.00" fill="#000000">_boundary_extrapolation</text>
</a>
</g>
</g>
<!-- Node1&#45;&gt;Node2 -->
<g id="edge1" class="edge">
<title>Node1&#45;&gt;Node2</title>
<path fill="none" stroke="#191970" d="M1149.7122,-70.3724C1097.7617,-74.5351 1028.5944,-80.0774 978.0905,-84.1242"/>
<polygon fill="#191970" stroke="#191970" points="1150.1737,-73.8468 1159.8621,-69.5591 1149.6145,-66.8691 1150.1737,-73.8468"/>
</g>
<!-- Node11 -->
<g id="node11" class="node">
<title>Node11</title>
<g id="a_node11"><a xlink:href="namespacep3m__functions.html#ab31ae8429b3676f925ae61510d7f047a" target="_top" xlink:title="Adust a piecewise cubic reconstruction with a limiter that adjusts the edge values and slopes.">
<polygon fill="#ffffff" stroke="#000000" points="1014,-27.5 1014,-57.5 1124,-57.5 1124,-27.5 1014,-27.5"/>
<text text-anchor="start" x="1022" y="-45.5" font-family="Helvetica,sans-Serif" font-size="10.00" fill="#000000">p3m_functions::p3m</text>
<text text-anchor="middle" x="1069" y="-34.5" font-family="Helvetica,sans-Serif" font-size="10.00" fill="#000000">_limiter</text>
</a>
</g>
</g>
<!-- Node1&#45;&gt;Node11 -->
<g id="edge10" class="edge">
<title>Node1&#45;&gt;Node11</title>
<path fill="none" stroke="#191970" d="M1149.8845,-54.0549C1141.2903,-52.8272 1132.6314,-51.5902 1124.3375,-50.4054"/>
<polygon fill="#191970" stroke="#191970" points="1149.5235,-57.5388 1159.918,-55.4883 1150.5135,-50.6092 1149.5235,-57.5388"/>
</g>
<!-- Node3 -->
<g id="node3" class="node">
<title>Node3</title>
<g id="a_node3"><a xlink:href="namespaceregrid__interp.html#a3d1406836d089b4553421776277e1339" target="_top" xlink:title="Builds an interpolated profile for the densities within each grid cell.">
<polygon fill="#ffffff" stroke="#000000" points="678,-49.5 678,-79.5 808,-79.5 808,-49.5 678,-49.5"/>
<text text-anchor="start" x="686" y="-67.5" font-family="Helvetica,sans-Serif" font-size="10.00" fill="#000000">regrid_interp::regridding</text>
<text text-anchor="middle" x="743" y="-56.5" font-family="Helvetica,sans-Serif" font-size="10.00" fill="#000000">_set_ppolys</text>
</a>
</g>
</g>
<!-- Node2&#45;&gt;Node3 -->
<g id="edge2" class="edge">
<title>Node2&#45;&gt;Node3</title>
<path fill="none" stroke="#191970" d="M833.6921,-77.9958C825.167,-76.7272 816.5495,-75.4449 808.1936,-74.2014"/>
<polygon fill="#191970" stroke="#191970" points="833.2297,-81.4655 843.636,-79.4756 834.2601,-74.5417 833.2297,-81.4655"/>
</g>
<!-- Node4 -->
<g id="node4" class="node">
<title>Node4</title>
<g id="a_node4"><a xlink:href="namespaceregrid__interp.html#abaef8cc7e1258b61710adbd6fb742122" target="_top" xlink:title="Build a grid by interpolating for target values.">
<polygon fill="#ffffff" stroke="#000000" points="521,-49.5 521,-79.5 642,-79.5 642,-49.5 521,-49.5"/>
<text text-anchor="start" x="529" y="-67.5" font-family="Helvetica,sans-Serif" font-size="10.00" fill="#000000">regrid_interp::build</text>
<text text-anchor="middle" x="581.5" y="-56.5" font-family="Helvetica,sans-Serif" font-size="10.00" fill="#000000">_and_interpolate_grid</text>
</a>
</g>
</g>
<!-- Node3&#45;&gt;Node4 -->
<g id="edge3" class="edge">
<title>Node3&#45;&gt;Node4</title>
<path fill="none" stroke="#191970" d="M667.7198,-64.5C659.0995,-64.5 650.3956,-64.5 642.0036,-64.5"/>
<polygon fill="#191970" stroke="#191970" points="667.7773,-68.0001 677.7773,-64.5 667.7773,-61.0001 667.7773,-68.0001"/>
</g>
<!-- Node5 -->
<g id="node5" class="node">
<title>Node5</title>
<g id="a_node5"><a xlink:href="namespacecoord__hycom.html#aec801ef9df8a887e77b7c1ecf459bd5a" target="_top" xlink:title="Build a HyCOM coordinate column.">
<polygon fill="#ffffff" stroke="#000000" points="375.5,-98.5 375.5,-128.5 481.5,-128.5 481.5,-98.5 375.5,-98.5"/>
<text text-anchor="start" x="383.5" y="-116.5" font-family="Helvetica,sans-Serif" font-size="10.00" fill="#000000">coord_hycom::build</text>
<text text-anchor="middle" x="428.5" y="-105.5" font-family="Helvetica,sans-Serif" font-size="10.00" fill="#000000">_hycom1_column</text>
</a>
</g>
</g>
<!-- Node4&#45;&gt;Node5 -->
<g id="edge4" class="edge">
<title>Node4&#45;&gt;Node5</title>
<path fill="none" stroke="#191970" d="M524.487,-82.7591C508.3495,-87.9273 490.9727,-93.4924 475.4978,-98.4484"/>
<polygon fill="#191970" stroke="#191970" points="525.8905,-85.9848 534.3465,-79.6014 523.7555,-79.3183 525.8905,-85.9848"/>
</g>
<!-- Node8 -->
<g id="node8" class="node">
<title>Node8</title>
<g id="a_node8"><a xlink:href="namespacecoord__rho.html#ac3f19bfa0e6b622cdf045c348ec4d183" target="_top" xlink:title="Build a rho coordinate column.">
<polygon fill="#ffffff" stroke="#000000" points="372,-49.5 372,-79.5 485,-79.5 485,-49.5 372,-49.5"/>
<text text-anchor="start" x="380" y="-67.5" font-family="Helvetica,sans-Serif" font-size="10.00" fill="#000000">coord_rho::build_rho</text>
<text text-anchor="middle" x="428.5" y="-56.5" font-family="Helvetica,sans-Serif" font-size="10.00" fill="#000000">_column</text>
</a>
</g>
</g>
<!-- Node4&#45;&gt;Node8 -->
<g id="edge7" class="edge">
<title>Node4&#45;&gt;Node8</title>
<path fill="none" stroke="#191970" d="M510.3746,-64.5C501.9409,-64.5 493.4196,-64.5 485.2236,-64.5"/>
<polygon fill="#191970" stroke="#191970" points="510.5908,-68.0001 520.5907,-64.5 510.5907,-61.0001 510.5908,-68.0001"/>
</g>
<!-- Node10 -->
<g id="node10" class="node">
<title>Node10</title>
<g id="a_node10"><a xlink:href="namespacecoord__rho.html#aa5b249b62eabf07cdc7f02649f029cae" target="_top" xlink:title="Iteratively build a rho coordinate column.">
<polygon fill="#ffffff" stroke="#000000" points="372,-.5 372,-30.5 485,-30.5 485,-.5 372,-.5"/>
<text text-anchor="start" x="380" y="-18.5" font-family="Helvetica,sans-Serif" font-size="10.00" fill="#000000">coord_rho::build_rho</text>
<text text-anchor="middle" x="428.5" y="-7.5" font-family="Helvetica,sans-Serif" font-size="10.00" fill="#000000">_column_iteratively</text>
</a>
</g>
</g>
<!-- Node4&#45;&gt;Node10 -->
<g id="edge9" class="edge">
<title>Node4&#45;&gt;Node10</title>
<path fill="none" stroke="#191970" d="M524.487,-46.2409C508.3495,-41.0727 490.9727,-35.5076 475.4978,-30.5516"/>
<polygon fill="#191970" stroke="#191970" points="523.7555,-49.6817 534.3465,-49.3986 525.8905,-43.0152 523.7555,-49.6817"/>
</g>
<!-- Node6 -->
<g id="node6" class="node">
<title>Node6</title>
<g id="a_node6"><a xlink:href="namespacemom__regridding.html#acbb6035a98bdce7e8d2d5a10174c0e22" target="_top" xlink:title="Builds a simple HyCOM&#45;like grid with the deepest location of potential density interpolated from the ...">
<polygon fill="#ffffff" stroke="#000000" points="213.5,-98.5 213.5,-128.5 332.5,-128.5 332.5,-98.5 213.5,-98.5"/>
<text text-anchor="start" x="221.5" y="-116.5" font-family="Helvetica,sans-Serif" font-size="10.00" fill="#000000">mom_regridding::build</text>
<text text-anchor="middle" x="273" y="-105.5" font-family="Helvetica,sans-Serif" font-size="10.00" fill="#000000">_grid_hycom1</text>
</a>
</g>
</g>
<!-- Node5&#45;&gt;Node6 -->
<g id="edge5" class="edge">
<title>Node5&#45;&gt;Node6</title>
<path fill="none" stroke="#191970" d="M365.209,-113.5C354.405,-113.5 343.2149,-113.5 332.5134,-113.5"/>
<polygon fill="#191970" stroke="#191970" points="365.4207,-117.0001 375.4206,-113.5 365.4206,-110.0001 365.4207,-117.0001"/>
</g>
<!-- Node7 -->
<g id="node7" class="node">
<title>Node7</title>
<g id="a_node7"><a xlink:href="namespacemom__regridding.html#ab354fe3423a39fef6f2b66f409b1682c" target="_top" xlink:title="Dispatching regridding routine for orchestrating regridding &amp; remapping.">
<polygon fill="#ffffff" stroke="#000000" points="0,-104 0,-123 174,-123 174,-104 0,-104"/>
<text text-anchor="middle" x="87" y="-111" font-family="Helvetica,sans-Serif" font-size="10.00" fill="#000000">mom_regridding::regridding_main</text>
</a>
</g>
</g>
<!-- Node6&#45;&gt;Node7 -->
<g id="edge6" class="edge">
<title>Node6&#45;&gt;Node7</title>
<path fill="none" stroke="#191970" d="M203.2123,-113.5C193.697,-113.5 183.8354,-113.5 174.0616,-113.5"/>
<polygon fill="#191970" stroke="#191970" points="203.381,-117.0001 213.381,-113.5 203.3809,-110.0001 203.381,-117.0001"/>
</g>
<!-- Node9 -->
<g id="node9" class="node">
<title>Node9</title>
<g id="a_node9"><a xlink:href="namespacemom__diag__remap.html#a1951a63528283e209401e317872f650b" target="_top" xlink:title="Build/update target vertical grids for diagnostic remapping.">
<polygon fill="#ffffff" stroke="#000000" points="210,-49.5 210,-79.5 336,-79.5 336,-49.5 210,-49.5"/>
<text text-anchor="start" x="218" y="-67.5" font-family="Helvetica,sans-Serif" font-size="10.00" fill="#000000">mom_diag_remap::diag</text>
<text text-anchor="middle" x="273" y="-56.5" font-family="Helvetica,sans-Serif" font-size="10.00" fill="#000000">_remap_update</text>
</a>
</g>
</g>
<!-- Node8&#45;&gt;Node9 -->
<g id="edge8" class="edge">
<title>Node8&#45;&gt;Node9</title>
<path fill="none" stroke="#191970" d="M361.6864,-64.5C353.2008,-64.5 344.5379,-64.5 336.1129,-64.5"/>
<polygon fill="#191970" stroke="#191970" points="361.9211,-68.0001 371.921,-64.5 361.921,-61.0001 361.9211,-68.0001"/>
</g>
<!-- Node12 -->
<g id="node12" class="node">
<title>Node12</title>
<g id="a_node12"><a xlink:href="namespacep3m__functions.html#af8700cc6f491ea22ec0cff6208dc2483" target="_top" xlink:title="Set up a piecewise cubic interpolation from cell averages and estimated edge slopes and values.">
<polygon fill="#ffffff" stroke="#000000" points="856,-25.5 856,-55.5 966,-55.5 966,-25.5 856,-25.5"/>
<text text-anchor="start" x="864" y="-43.5" font-family="Helvetica,sans-Serif" font-size="10.00" fill="#000000">p3m_functions::p3m</text>
<text text-anchor="middle" x="911" y="-32.5" font-family="Helvetica,sans-Serif" font-size="10.00" fill="#000000">_interpolation</text>
</a>
</g>
</g>
<!-- Node11&#45;&gt;Node12 -->
<g id="edge11" class="edge">
<title>Node11&#45;&gt;Node12</title>
<path fill="none" stroke="#191970" d="M1003.4736,-41.6706C991.0921,-41.5138 978.2556,-41.3513 966.2295,-41.1991"/>
<polygon fill="#191970" stroke="#191970" points="1003.6957,-45.1735 1013.7393,-41.8005 1003.7844,-38.1741 1003.6957,-45.1735"/>
</g>
<!-- Node12&#45;&gt;Node3 -->
<g id="edge12" class="edge">
<title>Node12&#45;&gt;Node3</title>
<path fill="none" stroke="#191970" d="M845.7575,-49.8204C833.3851,-51.5878 820.4406,-53.4371 808.0734,-55.2038"/>
<polygon fill="#191970" stroke="#191970" points="846.586,-53.2376 855.9905,-48.3585 845.596,-46.308 846.586,-53.2376"/>
</g>
</g>
</svg>
        <g id="navigator" transform="translate(0 0)" fill="#404254">
                <rect fill="#f2f5e9" fill-opacity="0.5" stroke="#606060" stroke-width=".5" x="0" y="0" width="60" height="60"/>
                <use id="zoomplus" xlink:href="#zoomPlus" x="17" y="9" onmousedown="handleZoom(evt,'in')"/>
                <use id="zoomminus" xlink:href="#zoomMin" x="42" y="9" onmousedown="handleZoom(evt,'out')"/>
                <use id="reset" xlink:href="#resetDef" x="30" y="36" onmousedown="handleReset()"/>
                <g id="arrowUp" xlink:href="#dirArrow" transform="translate(30 24)" onmousedown="handlePan(0,-1)">
                  <use xlink:href="#rim" fill="#404040">
                        <set attributeName="fill" to="#808080" begin="arrowUp.mouseover" end="arrowUp.mouseout"/>
                  </use>
                  <path fill="none" stroke="white" stroke-width="1.5" d="M0,-3.0v7 M-2.5,-0.5L0,-3.0L2.5,-0.5"/>
                </g>
                <g id="arrowRight" xlink:href="#dirArrow" transform="rotate(90) translate(36 -43)" onmousedown="handlePan(1,0)">
                  <use xlink:href="#rim" fill="#404040">
                        <set attributeName="fill" to="#808080" begin="arrowRight.mouseover" end="arrowRight.mouseout"/>
                  </use>
                  <path fill="none" stroke="white" stroke-width="1.5" d="M0,-3.0v7 M-2.5,-0.5L0,-3.0L2.5,-0.5"/>
                </g>
                <g id="arrowDown" xlink:href="#dirArrow" transform="rotate(180) translate(-30 -48)" onmousedown="handlePan(0,1)">
                  <use xlink:href="#rim" fill="#404040">
                        <set attributeName="fill" to="#808080" begin="arrowDown.mouseover" end="arrowDown.mouseout"/>
                  </use>
                  <path fill="none" stroke="white" stroke-width="1.5" d="M0,-3.0v7 M-2.5,-0.5L0,-3.0L2.5,-0.5"/>
                </g>
                <g id="arrowLeft" xlink:href="#dirArrow" transform="rotate(270) translate(-36 17)" onmousedown="handlePan(-1,0)">
                  <use xlink:href="#rim" fill="#404040">
                        <set attributeName="fill" to="#808080" begin="arrowLeft.mouseover" end="arrowLeft.mouseout"/>
                  </use>
                  <path fill="none" stroke="white" stroke-width="1.5" d="M0,-3.0v7 M-2.5,-0.5L0,-3.0L2.5,-0.5"/>
                </g>
        </g>
        <svg viewBox="0 0 15 15" width="100%" height="30px" preserveAspectRatio="xMaxYMin meet">
         <g id="arrow_out" transform="scale(0.3 0.3)">
          <a xlink:href="namespacep3m__functions_a2eaa8b32f092bbbb0e2cfcd78b0e700f_icgraph_org.svg" target="_base">
           <rect id="button" ry="5" rx="5" y="6" x="6" height="38" width="38"
                fill="#f2f5e9" fill-opacity="0.5" stroke="#606060" stroke-width="1.0"/>
           <path id="arrow"
             d="M 11.500037,31.436501 C 11.940474,20.09759 22.043105,11.32322 32.158766,21.979434 L 37.068811,17.246167 C 37.068811,17.246167 37.088388,32 37.088388,32 L 22.160133,31.978069 C 22.160133,31.978069 26.997745,27.140456 26.997745,27.140456 C 18.528582,18.264221 13.291696,25.230495 11.500037,31.436501 z"
             style="fill:#404040;"/>
          </a>
         </g>
        </svg>
</svg>
