<?xml version="1.0" encoding="UTF-8" standalone="no"?>
<!DOCTYPE svg PUBLIC "-//W3C//DTD SVG 1.1//EN"
 "http://www.w3.org/Graphics/SVG/1.1/DTD/svg11.dtd">
<!-- Generated by graphviz version 2.40.1 (20161225.0304)
 -->
<!-- Title: mom_vert_friction::updatecfltruncationvalue Pages: 1 -->
<svg width="335pt" height="100pt"
 viewBox="0.00 0.00 335.00 99.50" xmlns="http://www.w3.org/2000/svg" xmlns:xlink="http://www.w3.org/1999/xlink">
<g id="graph0" class="graph" transform="scale(1 1) rotate(0) translate(4 95.5)">
<title>mom_vert_friction::updatecfltruncationvalue</title>
<polygon fill="#ffffff" stroke="transparent" points="-4,4 -4,-95.5 331,-95.5 331,4 -4,4"/>
<!-- Node1 -->
<g id="node1" class="node">
<title>Node1</title>
<g id="a_node1"><a xlink:title="Update the CFL truncation value as a function of time. If called with the optional argument activate=...">
<polygon fill="#bfbfbf" stroke="#000000" points="196,-27.5 196,-57.5 327,-57.5 327,-27.5 196,-27.5"/>
<text text-anchor="start" x="204" y="-45.5" font-family="Helvetica,sans-Serif" font-size="10.00" fill="#000000">mom_vert_friction::</text>
<text text-anchor="middle" x="261.5" y="-34.5" font-family="Helvetica,sans-Serif" font-size="10.00" fill="#000000">updatecfltruncationvalue</text>
</a>
</g>
</g>
<!-- Node2 -->
<g id="node2" class="node">
<title>Node2</title>
<g id="a_node2"><a xlink:href="namespacemom__dynamics__split__rk2.html#aa9a0a027754d3ca2d49f3993bc64b1b7" target="_top" xlink:title="This subroutine initializes all of the variables that are used by this dynamic core,...">
<polygon fill="#ffffff" stroke="#000000" points="23,-50 23,-91 137,-91 137,-50 23,-50"/>
<text text-anchor="start" x="31" y="-79" font-family="Helvetica,sans-Serif" font-size="10.00" fill="#000000">mom_dynamics_split</text>
<text text-anchor="start" x="31" y="-68" font-family="Helvetica,sans-Serif" font-size="10.00" fill="#000000">_rk2::initialize_dyn</text>
<text text-anchor="middle" x="80" y="-57" font-family="Helvetica,sans-Serif" font-size="10.00" fill="#000000">_split_rk2</text>
</a>
</g>
</g>
<!-- Node1&#45;&gt;Node2 -->
<g id="edge1" class="edge">
<title>Node1&#45;&gt;Node2</title>
<path fill="none" stroke="#191970" d="M185.8999,-54.1628C169.5479,-56.6855 152.5205,-59.3123 137.023,-61.7031"/>
<polygon fill="#191970" stroke="#191970" points="186.6249,-57.5925 195.9743,-52.6086 185.5576,-50.6743 186.6249,-57.5925"/>
</g>
<!-- Node3 -->
<g id="node3" class="node">
<title>Node3</title>
<g id="a_node3"><a xlink:href="namespacemom__dynamics__split__rk2.html#a976e700971f232fc11bc69b31d611c32" target="_top" xlink:title="RK2 splitting for time stepping MOM adiabatic dynamics.">
<polygon fill="#ffffff" stroke="#000000" points="0,-.5 0,-30.5 160,-30.5 160,-.5 0,-.5"/>
<text text-anchor="start" x="8" y="-18.5" font-family="Helvetica,sans-Serif" font-size="10.00" fill="#000000">mom_dynamics_split</text>
<text text-anchor="middle" x="80" y="-7.5" font-family="Helvetica,sans-Serif" font-size="10.00" fill="#000000">_rk2::step_mom_dyn_split_rk2</text>
</a>
</g>
</g>
<!-- Node1&#45;&gt;Node3 -->
<g id="edge2" class="edge">
<title>Node1&#45;&gt;Node3</title>
<path fill="none" stroke="#191970" d="M185.8073,-31.2399C177.3832,-29.9868 168.781,-28.7071 160.302,-27.4458"/>
<polygon fill="#191970" stroke="#191970" points="185.5682,-34.7428 195.9743,-32.7524 186.5982,-27.819 185.5682,-34.7428"/>
</g>
</g>
</svg>
