<?xml version="1.0" encoding="UTF-8" standalone="no"?>
<!DOCTYPE svg PUBLIC "-//W3C//DTD SVG 1.1//EN"
 "http://www.w3.org/Graphics/SVG/1.1/DTD/svg11.dtd">
<!-- Generated by graphviz version 2.40.1 (20161225.0304)
 -->
<!-- Title: mom_tracer_registry::mom_tracer_chkinv Pages: 1 -->
<svg width="447pt" height="284pt"
 viewBox="0.00 0.00 447.00 284.00" xmlns="http://www.w3.org/2000/svg" xmlns:xlink="http://www.w3.org/1999/xlink">
<g id="graph0" class="graph" transform="scale(1 1) rotate(0) translate(4 280)">
<title>mom_tracer_registry::mom_tracer_chkinv</title>
<polygon fill="#ffffff" stroke="transparent" points="-4,4 -4,-280 443,-280 443,4 -4,4"/>
<!-- Node1 -->
<g id="node1" class="node">
<title>Node1</title>
<g id="a_node1"><a xlink:title="Calculates and prints the global inventory of all tracers in the registry.">
<polygon fill="#bfbfbf" stroke="#000000" points="331,-122.5 331,-152.5 439,-152.5 439,-122.5 331,-122.5"/>
<text text-anchor="start" x="339" y="-140.5" font-family="Helvetica,sans-Serif" font-size="10.00" fill="#000000">mom_tracer_registry</text>
<text text-anchor="middle" x="385" y="-129.5" font-family="Helvetica,sans-Serif" font-size="10.00" fill="#000000">::mom_tracer_chkinv</text>
</a>
</g>
</g>
<!-- Node2 -->
<g id="node2" class="node">
<title>Node2</title>
<g id="a_node2"><a xlink:href="namespacemom__ale.html#ae95451e2fbd4805eec01d00bebb268b4" target="_top" xlink:title="Regrid/remap stored fields used for offline tracer integrations. These input fields are assumed to ha...">
<polygon fill="#ffffff" stroke="#000000" points="177.5,-245.5 177.5,-275.5 284.5,-275.5 284.5,-245.5 177.5,-245.5"/>
<text text-anchor="start" x="185.5" y="-263.5" font-family="Helvetica,sans-Serif" font-size="10.00" fill="#000000">mom_ale::ale_offline</text>
<text text-anchor="middle" x="231" y="-252.5" font-family="Helvetica,sans-Serif" font-size="10.00" fill="#000000">_inputs</text>
</a>
</g>
</g>
<!-- Node1&#45;&gt;Node2 -->
<g id="edge1" class="edge">
<title>Node1&#45;&gt;Node2</title>
<path fill="none" stroke="#191970" d="M368.8921,-160.851C352.5472,-183.0091 325.38,-215.8993 295,-236.5 290.0892,-239.83 284.6553,-242.7747 279.09,-245.3577"/>
<polygon fill="#191970" stroke="#191970" points="371.7978,-162.8054 374.8112,-152.6481 366.1214,-158.7093 371.7978,-162.8054"/>
</g>
<!-- Node4 -->
<g id="node4" class="node">
<title>Node4</title>
<g id="a_node4"><a xlink:href="namespacemom__offline__main.html#ae85546d26ceb447742abe3c528cad2d7" target="_top" xlink:title="3D advection is done by doing flux&#45;limited nonlinear horizontal advection interspersed with an ALE re...">
<polygon fill="#ffffff" stroke="#000000" points="167,-196.5 167,-226.5 295,-226.5 295,-196.5 167,-196.5"/>
<text text-anchor="start" x="175" y="-214.5" font-family="Helvetica,sans-Serif" font-size="10.00" fill="#000000">mom_offline_main::offline</text>
<text text-anchor="middle" x="231" y="-203.5" font-family="Helvetica,sans-Serif" font-size="10.00" fill="#000000">_advection_ale</text>
</a>
</g>
</g>
<!-- Node1&#45;&gt;Node4 -->
<g id="edge3" class="edge">
<title>Node1&#45;&gt;Node4</title>
<path fill="none" stroke="#191970" d="M351.4809,-157.6791C334.8069,-167.3128 314.1661,-178.6419 295,-187.5 288.2137,-190.6365 280.8916,-193.6827 273.7084,-196.4931"/>
<polygon fill="#191970" stroke="#191970" points="353.4312,-160.5933 360.3015,-152.5279 349.9011,-154.5486 353.4312,-160.5933"/>
</g>
<!-- Node5 -->
<g id="node5" class="node">
<title>Node5</title>
<g id="a_node5"><a xlink:href="namespacemom__offline__main.html#aaef35c02f93931567c41ae8bc0544bdd" target="_top" xlink:title="The vertical/diabatic driver for offline tracers. First the eatr/ebtr associated with the interpolate...">
<polygon fill="#ffffff" stroke="#000000" points="167,-147.5 167,-177.5 295,-177.5 295,-147.5 167,-147.5"/>
<text text-anchor="start" x="175" y="-165.5" font-family="Helvetica,sans-Serif" font-size="10.00" fill="#000000">mom_offline_main::offline</text>
<text text-anchor="middle" x="231" y="-154.5" font-family="Helvetica,sans-Serif" font-size="10.00" fill="#000000">_diabatic_ale</text>
</a>
</g>
</g>
<!-- Node1&#45;&gt;Node5 -->
<g id="edge4" class="edge">
<title>Node1&#45;&gt;Node5</title>
<path fill="none" stroke="#191970" d="M320.5592,-147.9612C312.1343,-149.3289 303.5032,-150.73 295.0842,-152.0967"/>
<polygon fill="#191970" stroke="#191970" points="321.3954,-151.3713 330.7054,-146.3141 320.2737,-144.4618 321.3954,-151.3713"/>
</g>
<!-- Node6 -->
<g id="node6" class="node">
<title>Node6</title>
<g id="a_node6"><a xlink:href="namespacemom__offline__main.html#a04d329761570d6d9fbc38589bea929cc" target="_top" xlink:title="Apply positive freshwater fluxes (into the ocean) and update netMassOut with only the negative (out o...">
<polygon fill="#ffffff" stroke="#000000" points="167,-98.5 167,-128.5 295,-128.5 295,-98.5 167,-98.5"/>
<text text-anchor="start" x="175" y="-116.5" font-family="Helvetica,sans-Serif" font-size="10.00" fill="#000000">mom_offline_main::offline</text>
<text text-anchor="middle" x="231" y="-105.5" font-family="Helvetica,sans-Serif" font-size="10.00" fill="#000000">_fw_fluxes_into_ocean</text>
</a>
</g>
</g>
<!-- Node1&#45;&gt;Node6 -->
<g id="edge5" class="edge">
<title>Node1&#45;&gt;Node6</title>
<path fill="none" stroke="#191970" d="M320.5592,-127.4573C312.1343,-126.1443 303.5032,-124.7992 295.0842,-123.4871"/>
<polygon fill="#191970" stroke="#191970" points="320.2857,-130.9568 330.7054,-129.0385 321.3636,-124.0403 320.2857,-130.9568"/>
</g>
<!-- Node7 -->
<g id="node7" class="node">
<title>Node7</title>
<g id="a_node7"><a xlink:href="namespacemom__offline__main.html#ad96c09ff7c8f34d9602fd111ec492cfe" target="_top" xlink:title="Apply negative freshwater fluxes (out of the ocean)">
<polygon fill="#ffffff" stroke="#000000" points="167,-49.5 167,-79.5 295,-79.5 295,-49.5 167,-49.5"/>
<text text-anchor="start" x="175" y="-67.5" font-family="Helvetica,sans-Serif" font-size="10.00" fill="#000000">mom_offline_main::offline</text>
<text text-anchor="middle" x="231" y="-56.5" font-family="Helvetica,sans-Serif" font-size="10.00" fill="#000000">_fw_fluxes_out_ocean</text>
</a>
</g>
</g>
<!-- Node1&#45;&gt;Node7 -->
<g id="edge6" class="edge">
<title>Node1&#45;&gt;Node7</title>
<path fill="none" stroke="#191970" d="M349.4401,-117.2921C333.0842,-108.3213 313.2895,-97.9141 295,-89.5 287.5225,-86.06 279.4264,-82.6582 271.5885,-79.5239"/>
<polygon fill="#191970" stroke="#191970" points="348.1914,-120.6012 358.6355,-122.382 351.5814,-114.4769 348.1914,-120.6012"/>
</g>
<!-- Node8 -->
<g id="node8" class="node">
<title>Node8</title>
<g id="a_node8"><a xlink:href="namespacemom__offline__main.html#a312c47e83e64a6bdf064526f77a8a8ec" target="_top" xlink:title="In the case where the main advection routine did not converge, something needs to be done with the re...">
<polygon fill="#ffffff" stroke="#000000" points="167,-.5 167,-30.5 295,-30.5 295,-.5 167,-.5"/>
<text text-anchor="start" x="175" y="-18.5" font-family="Helvetica,sans-Serif" font-size="10.00" fill="#000000">mom_offline_main::offline</text>
<text text-anchor="middle" x="231" y="-7.5" font-family="Helvetica,sans-Serif" font-size="10.00" fill="#000000">_redistribute_residual</text>
</a>
</g>
</g>
<!-- Node1&#45;&gt;Node8 -->
<g id="edge7" class="edge">
<title>Node1&#45;&gt;Node8</title>
<path fill="none" stroke="#191970" d="M368.4526,-114.3633C351.9595,-92.736 324.8426,-60.8117 295,-40.5 289.4777,-36.7413 283.3089,-33.4308 277.0407,-30.5522"/>
<polygon fill="#191970" stroke="#191970" points="365.6523,-116.4629 374.4406,-122.3804 371.2606,-112.274 365.6523,-116.4629"/>
</g>
<!-- Node3 -->
<g id="node3" class="node">
<title>Node3</title>
<g id="a_node3"><a xlink:href="namespacemom__offline__main.html#a2e59b996b88713928c04f72d57c5a531" target="_top" xlink:title="Update fields used in this round of offline transport. First fields are updated from files or from ar...">
<polygon fill="#ffffff" stroke="#000000" points="0,-245.5 0,-275.5 131,-275.5 131,-245.5 0,-245.5"/>
<text text-anchor="start" x="8" y="-263.5" font-family="Helvetica,sans-Serif" font-size="10.00" fill="#000000">mom_offline_main::update</text>
<text text-anchor="middle" x="65.5" y="-252.5" font-family="Helvetica,sans-Serif" font-size="10.00" fill="#000000">_offline_fields</text>
</a>
</g>
</g>
<!-- Node2&#45;&gt;Node3 -->
<g id="edge2" class="edge">
<title>Node2&#45;&gt;Node3</title>
<path fill="none" stroke="#191970" d="M167.0689,-260.5C155.2772,-260.5 142.9471,-260.5 131.1068,-260.5"/>
<polygon fill="#191970" stroke="#191970" points="167.2669,-264.0001 177.2669,-260.5 167.2669,-257.0001 167.2669,-264.0001"/>
</g>
</g>
</svg>
