<?xml version="1.0" encoding="UTF-8" standalone="no"?>
<!DOCTYPE svg PUBLIC "-//W3C//DTD SVG 1.1//EN"
 "http://www.w3.org/Graphics/SVG/1.1/DTD/svg11.dtd">
<!-- Generated by graphviz version 2.40.1 (20161225.0304)
 -->
<!-- Title: baroclinic_zone_initialization::bcz_params Pages: 1 -->
<svg width="596pt" height="66pt"
 viewBox="0.00 0.00 596.00 66.00" xmlns="http://www.w3.org/2000/svg" xmlns:xlink="http://www.w3.org/1999/xlink">
<g id="graph0" class="graph" transform="scale(1 1) rotate(0) translate(4 62)">
<title>baroclinic_zone_initialization::bcz_params</title>
<polygon fill="#ffffff" stroke="transparent" points="-4,4 -4,-62 592,-62 592,4 -4,4"/>
<!-- Node1 -->
<g id="node1" class="node">
<title>Node1</title>
<g id="a_node1"><a xlink:title="Reads the parameters unique to this module.">
<polygon fill="#bfbfbf" stroke="#000000" points="0,-14 0,-44 151,-44 151,-14 0,-14"/>
<text text-anchor="start" x="8" y="-32" font-family="Helvetica,sans-Serif" font-size="10.00" fill="#000000">baroclinic_zone_initialization</text>
<text text-anchor="middle" x="75.5" y="-21" font-family="Helvetica,sans-Serif" font-size="10.00" fill="#000000">::bcz_params</text>
</a>
</g>
</g>
<!-- Node2 -->
<g id="node2" class="node">
<title>Node2</title>
<g id="a_node2"><a xlink:href="namespacemom__file__parser.html#a0d01b9a66f5ac12b657c00f1295351bb" target="_top" xlink:title="Remove the lowest level of recursion from the active block name.">
<polygon fill="#ffffff" stroke="#000000" points="187,-38.5 187,-57.5 384,-57.5 384,-38.5 187,-38.5"/>
<text text-anchor="middle" x="285.5" y="-45.5" font-family="Helvetica,sans-Serif" font-size="10.00" fill="#000000">mom_file_parser::closeparameterblock</text>
</a>
</g>
</g>
<!-- Node1&#45;&gt;Node2 -->
<g id="edge1" class="edge">
<title>Node1&#45;&gt;Node2</title>
<path fill="none" stroke="#191970" d="M151.0181,-35.8326C159.3852,-36.5896 168.0241,-37.3712 176.6977,-38.156"/>
<polygon fill="#191970" stroke="#191970" points="176.6066,-41.662 186.8814,-39.0774 177.2375,-34.6904 176.6066,-41.662"/>
</g>
<!-- Node4 -->
<g id="node4" class="node">
<title>Node4</title>
<g id="a_node4"><a xlink:href="namespacemom__file__parser.html#a363628fcd8540de780ebeacf24012229" target="_top" xlink:title="Tags blockName onto the end of the active parameter block name.">
<polygon fill="#ffffff" stroke="#000000" points="187,-.5 187,-19.5 384,-19.5 384,-.5 187,-.5"/>
<text text-anchor="middle" x="285.5" y="-7.5" font-family="Helvetica,sans-Serif" font-size="10.00" fill="#000000">mom_file_parser::openparameterblock</text>
</a>
</g>
</g>
<!-- Node1&#45;&gt;Node4 -->
<g id="edge3" class="edge">
<title>Node1&#45;&gt;Node4</title>
<path fill="none" stroke="#191970" d="M151.0181,-22.1674C159.3852,-21.4104 168.0241,-20.6288 176.6977,-19.844"/>
<polygon fill="#191970" stroke="#191970" points="177.2375,-23.3096 186.8814,-18.9226 176.6066,-16.338 177.2375,-23.3096"/>
</g>
<!-- Node3 -->
<g id="node3" class="node">
<title>Node3</title>
<g id="a_node3"><a xlink:href="namespacemom__file__parser.html#a73b11b969d303b1fc0ba5235c812fd05" target="_top" xlink:title="Truncates block name (shallower level of parameter block)">
<polygon fill="#ffffff" stroke="#000000" points="422,-38.5 422,-57.5 586,-57.5 586,-38.5 422,-38.5"/>
<text text-anchor="middle" x="504" y="-45.5" font-family="Helvetica,sans-Serif" font-size="10.00" fill="#000000">mom_file_parser::popblocklevel</text>
</a>
</g>
</g>
<!-- Node2&#45;&gt;Node3 -->
<g id="edge2" class="edge">
<title>Node2&#45;&gt;Node3</title>
<path fill="none" stroke="#191970" d="M384.2024,-48C393.3232,-48 402.5431,-48 411.6044,-48"/>
<polygon fill="#191970" stroke="#191970" points="411.7539,-51.5001 421.7539,-48 411.7539,-44.5001 411.7539,-51.5001"/>
</g>
<!-- Node5 -->
<g id="node5" class="node">
<title>Node5</title>
<g id="a_node5"><a xlink:href="namespacemom__file__parser.html#a58777b0faf747d59a793b4e238919dc6" target="_top" xlink:title="Extends block name (deeper level of parameter block)">
<polygon fill="#ffffff" stroke="#000000" points="420,-.5 420,-19.5 588,-19.5 588,-.5 420,-.5"/>
<text text-anchor="middle" x="504" y="-7.5" font-family="Helvetica,sans-Serif" font-size="10.00" fill="#000000">mom_file_parser::pushblocklevel</text>
</a>
</g>
</g>
<!-- Node4&#45;&gt;Node5 -->
<g id="edge4" class="edge">
<title>Node4&#45;&gt;Node5</title>
<path fill="none" stroke="#191970" d="M384.2024,-10C392.6447,-10 401.1718,-10 409.5795,-10"/>
<polygon fill="#191970" stroke="#191970" points="409.7621,-13.5001 419.7621,-10 409.7621,-6.5001 409.7621,-13.5001"/>
</g>
</g>
</svg>
