<?xml version="1.0" encoding="UTF-8" standalone="no"?>
<!DOCTYPE svg PUBLIC "-//W3C//DTD SVG 1.1//EN"
 "http://www.w3.org/Graphics/SVG/1.1/DTD/svg11.dtd">
<!-- Generated by graphviz version 2.40.1 (20161225.0304)
 -->
<!-- Title: mom_pressureforce_blk_afv::pressureforce_blk_afv_nonbouss Pages: 1 -->
<svg width="464pt" height="137pt"
 viewBox="0.00 0.00 464.00 137.00" xmlns="http://www.w3.org/2000/svg" xmlns:xlink="http://www.w3.org/1999/xlink">
<g id="graph0" class="graph" transform="scale(1 1) rotate(0) translate(4 133)">
<title>mom_pressureforce_blk_afv::pressureforce_blk_afv_nonbouss</title>
<polygon fill="#ffffff" stroke="transparent" points="-4,4 -4,-133 460,-133 460,4 -4,4"/>
<!-- Node1 -->
<g id="node1" class="node">
<title>Node1</title>
<g id="a_node1"><a xlink:title="Non&#45;Boussinesq analytically&#45;integrated finite volume form of pressure gradient.">
<polygon fill="#bfbfbf" stroke="#000000" points="0,-44 0,-85 129,-85 129,-44 0,-44"/>
<text text-anchor="start" x="8" y="-73" font-family="Helvetica,sans-Serif" font-size="10.00" fill="#000000">mom_pressureforce_blk</text>
<text text-anchor="start" x="8" y="-62" font-family="Helvetica,sans-Serif" font-size="10.00" fill="#000000">_afv::pressureforce_blk</text>
<text text-anchor="middle" x="64.5" y="-51" font-family="Helvetica,sans-Serif" font-size="10.00" fill="#000000">_afv_nonbouss</text>
</a>
</g>
</g>
<!-- Node2 -->
<g id="node2" class="node">
<title>Node2</title>
<g id="a_node2"><a xlink:href="namespacemom__tidal__forcing.html#a9614ae35fac1d880d5daacbd60f3d47a" target="_top" xlink:title="This subroutine calculates the geopotential anomalies that drive the tides, including self&#45;attraction...">
<polygon fill="#ffffff" stroke="#000000" points="181.5,-98.5 181.5,-128.5 288.5,-128.5 288.5,-98.5 181.5,-98.5"/>
<text text-anchor="start" x="189.5" y="-116.5" font-family="Helvetica,sans-Serif" font-size="10.00" fill="#000000">mom_tidal_forcing::</text>
<text text-anchor="middle" x="235" y="-105.5" font-family="Helvetica,sans-Serif" font-size="10.00" fill="#000000">calc_tidal_forcing</text>
</a>
</g>
</g>
<!-- Node1&#45;&gt;Node2 -->
<g id="edge1" class="edge">
<title>Node1&#45;&gt;Node2</title>
<path fill="none" stroke="#191970" d="M129.4451,-83.1646C143.7436,-87.2738 158.8513,-91.6156 173.0287,-95.6901"/>
<polygon fill="#191970" stroke="#191970" points="172.0961,-99.0637 182.6739,-98.462 174.0297,-92.336 172.0961,-99.0637"/>
</g>
<!-- Node3 -->
<g id="node3" class="node">
<title>Node3</title>
<g id="a_node3"><a xlink:href="namespacemom__error__handler.html#a460cfb79a06c29fc249952c2a3710d67" target="_top" xlink:title="This provides a convenient interface for writing an mpp_error message with run&#45;time filter based on a...">
<polygon fill="#ffffff" stroke="#000000" points="177.5,-49.5 177.5,-79.5 292.5,-79.5 292.5,-49.5 177.5,-49.5"/>
<text text-anchor="start" x="185.5" y="-67.5" font-family="Helvetica,sans-Serif" font-size="10.00" fill="#000000">mom_error_handler::</text>
<text text-anchor="middle" x="235" y="-56.5" font-family="Helvetica,sans-Serif" font-size="10.00" fill="#000000">mom_error</text>
</a>
</g>
</g>
<!-- Node1&#45;&gt;Node3 -->
<g id="edge2" class="edge">
<title>Node1&#45;&gt;Node3</title>
<path fill="none" stroke="#191970" d="M129.4451,-64.5C141.7968,-64.5 154.7522,-64.5 167.1903,-64.5"/>
<polygon fill="#191970" stroke="#191970" points="167.4919,-68.0001 177.4919,-64.5 167.4919,-61.0001 167.4919,-68.0001"/>
</g>
<!-- Node5 -->
<g id="node5" class="node">
<title>Node5</title>
<g id="a_node5"><a xlink:href="namespacemom__pressureforce__mont.html#af69ed946d3f9f5d504c28379113ac995" target="_top" xlink:title="Determines the partial derivative of the acceleration due to pressure forces with the column mass.">
<polygon fill="#ffffff" stroke="#000000" points="165,-.5 165,-30.5 305,-30.5 305,-.5 165,-.5"/>
<text text-anchor="start" x="173" y="-18.5" font-family="Helvetica,sans-Serif" font-size="10.00" fill="#000000">mom_pressureforce_mont</text>
<text text-anchor="middle" x="235" y="-7.5" font-family="Helvetica,sans-Serif" font-size="10.00" fill="#000000">::set_pbce_nonbouss</text>
</a>
</g>
</g>
<!-- Node1&#45;&gt;Node5 -->
<g id="edge4" class="edge">
<title>Node1&#45;&gt;Node5</title>
<path fill="none" stroke="#191970" d="M129.4451,-45.8354C143.7436,-41.7262 158.8513,-37.3844 173.0287,-33.3099"/>
<polygon fill="#191970" stroke="#191970" points="174.0297,-36.664 182.6739,-30.538 172.0961,-29.9363 174.0297,-36.664"/>
</g>
<!-- Node4 -->
<g id="node4" class="node">
<title>Node4</title>
<g id="a_node4"><a xlink:href="namespacemom__error__handler.html#ad5f00a53059c72fe2332d1436c80ca71" target="_top" xlink:title="This returns .true. if the current PE is the root PE.">
<polygon fill="#ffffff" stroke="#000000" points="341,-49.5 341,-79.5 456,-79.5 456,-49.5 341,-49.5"/>
<text text-anchor="start" x="349" y="-67.5" font-family="Helvetica,sans-Serif" font-size="10.00" fill="#000000">mom_error_handler::</text>
<text text-anchor="middle" x="398.5" y="-56.5" font-family="Helvetica,sans-Serif" font-size="10.00" fill="#000000">is_root_pe</text>
</a>
</g>
</g>
<!-- Node3&#45;&gt;Node4 -->
<g id="edge3" class="edge">
<title>Node3&#45;&gt;Node4</title>
<path fill="none" stroke="#191970" d="M292.644,-64.5C304.9767,-64.5 318.1133,-64.5 330.7859,-64.5"/>
<polygon fill="#191970" stroke="#191970" points="330.8255,-68.0001 340.8255,-64.5 330.8254,-61.0001 330.8255,-68.0001"/>
</g>
</g>
</svg>
