<?xml version="1.0" encoding="UTF-8" standalone="no"?>
<!DOCTYPE svg PUBLIC "-//W3C//DTD SVG 1.1//EN"
 "http://www.w3.org/Graphics/SVG/1.1/DTD/svg11.dtd">
<!-- Generated by graphviz version 2.40.1 (20161225.0304)
 -->
<!-- Title: mom_file_parser::close_param_file Pages: 1 -->
<svg width="476pt" height="239pt"
 viewBox="0.00 0.00 476.00 238.50" xmlns="http://www.w3.org/2000/svg" xmlns:xlink="http://www.w3.org/1999/xlink">
<g id="graph0" class="graph" transform="scale(1 1) rotate(0) translate(4 234.5)">
<title>mom_file_parser::close_param_file</title>
<polygon fill="#ffffff" stroke="transparent" points="-4,4 -4,-234.5 472,-234.5 472,4 -4,4"/>
<!-- Node1 -->
<g id="node1" class="node">
<title>Node1</title>
<g id="a_node1"><a xlink:title="Close any open input files and deallocate memory associated with this param_file_type....">
<polygon fill="#bfbfbf" stroke="#000000" points="350,-88 350,-118 468,-118 468,-88 350,-88"/>
<text text-anchor="start" x="358" y="-106" font-family="Helvetica,sans-Serif" font-size="10.00" fill="#000000">mom_file_parser::close</text>
<text text-anchor="middle" x="409" y="-95" font-family="Helvetica,sans-Serif" font-size="10.00" fill="#000000">_param_file</text>
</a>
</g>
</g>
<!-- Node2 -->
<g id="node2" class="node">
<title>Node2</title>
<g id="a_node2"><a xlink:href="namespacemom__tracer__flow__control.html#a736899f8b0b79d0e98384abf2b084880" target="_top" xlink:title="This subroutine carries out a series of calls to initialize the air&#45;sea tracer fluxes,...">
<polygon fill="#ffffff" stroke="#000000" points="178.5,-176 178.5,-206 304.5,-206 304.5,-176 178.5,-176"/>
<text text-anchor="start" x="186.5" y="-194" font-family="Helvetica,sans-Serif" font-size="10.00" fill="#000000">mom_tracer_flow_control</text>
<text text-anchor="middle" x="241.5" y="-183" font-family="Helvetica,sans-Serif" font-size="10.00" fill="#000000">::call_tracer_flux_init</text>
</a>
</g>
</g>
<!-- Node1&#45;&gt;Node2 -->
<g id="edge1" class="edge">
<title>Node1&#45;&gt;Node2</title>
<path fill="none" stroke="#191970" d="M381.0626,-124.2661C362.7137,-137.529 337.7873,-154.2497 314,-166 306.599,-169.6559 298.5303,-173.0074 290.5516,-175.9874"/>
<polygon fill="#191970" stroke="#191970" points="383.5157,-126.8073 389.5081,-118.0699 379.3749,-121.1634 383.5157,-126.8073"/>
</g>
<!-- Node5 -->
<g id="node5" class="node">
<title>Node5</title>
<g id="a_node5"><a xlink:href="MOM__driver_8F90.html#a08fffeb2d8e8acbf9ed4609be6d258c6" target="_top" xlink:title=" ">
<polygon fill="#ffffff" stroke="#000000" points="209,-137.5 209,-156.5 274,-156.5 274,-137.5 209,-137.5"/>
<text text-anchor="middle" x="241.5" y="-144.5" font-family="Helvetica,sans-Serif" font-size="10.00" fill="#000000">mom_main</text>
</a>
</g>
</g>
<!-- Node1&#45;&gt;Node5 -->
<g id="edge4" class="edge">
<title>Node1&#45;&gt;Node5</title>
<path fill="none" stroke="#191970" d="M341.9308,-120.6182C318.5347,-126.764 293.3284,-133.3854 274.0207,-138.4572"/>
<polygon fill="#191970" stroke="#191970" points="343.0419,-123.9451 351.8245,-118.0192 341.2634,-117.1748 343.0419,-123.9451"/>
</g>
<!-- Node6 -->
<g id="node6" class="node">
<title>Node6</title>
<g id="a_node6"><a xlink:href="namespacemom__ocean__model__mct.html#ab85c4a8f30fcf7782a514a3fc66165a2" target="_top" xlink:title="ocean_model_init initializes the ocean model, including registering fields for restarts and reading r...">
<polygon fill="#ffffff" stroke="#000000" points="180,-88 180,-118 303,-118 303,-88 180,-88"/>
<text text-anchor="start" x="188" y="-106" font-family="Helvetica,sans-Serif" font-size="10.00" fill="#000000">mom_ocean_model_mct</text>
<text text-anchor="middle" x="241.5" y="-95" font-family="Helvetica,sans-Serif" font-size="10.00" fill="#000000">::ocean_model_init</text>
</a>
</g>
</g>
<!-- Node1&#45;&gt;Node6 -->
<g id="edge5" class="edge">
<title>Node1&#45;&gt;Node6</title>
<path fill="none" stroke="#191970" d="M339.8474,-103C327.6788,-103 315.086,-103 303.1396,-103"/>
<polygon fill="#191970" stroke="#191970" points="339.9458,-106.5001 349.9458,-103 339.9457,-99.5001 339.9458,-106.5001"/>
</g>
<!-- Node7 -->
<g id="node7" class="node">
<title>Node7</title>
<g id="a_node7"><a xlink:href="namespacemom__ocean__model__nuopc.html#a7682efcc4c80e04e7e3d1f3ca9b123f7" target="_top" xlink:title="ocean_model_init initializes the ocean model, including registering fields for restarts and reading r...">
<polygon fill="#ffffff" stroke="#000000" points="175,-39 175,-69 308,-69 308,-39 175,-39"/>
<text text-anchor="start" x="183" y="-57" font-family="Helvetica,sans-Serif" font-size="10.00" fill="#000000">mom_ocean_model_nuopc</text>
<text text-anchor="middle" x="241.5" y="-46" font-family="Helvetica,sans-Serif" font-size="10.00" fill="#000000">::ocean_model_init</text>
</a>
</g>
</g>
<!-- Node1&#45;&gt;Node7 -->
<g id="edge6" class="edge">
<title>Node1&#45;&gt;Node7</title>
<path fill="none" stroke="#191970" d="M347.5823,-85.033C329.6356,-79.783 310.2129,-74.1011 292.9518,-69.0516"/>
<polygon fill="#191970" stroke="#191970" points="346.7973,-88.45 357.3777,-87.8986 348.7627,-81.7316 346.7973,-88.45"/>
</g>
<!-- Node8 -->
<g id="node8" class="node">
<title>Node8</title>
<g id="a_node8"><a xlink:href="namespaceocn__comp__mct.html#adfe794cbbae40df4bdb9fcec95d4ff9c" target="_top" xlink:title="This subroutine initializes MOM6.">
<polygon fill="#ffffff" stroke="#000000" points="169,-.5 169,-19.5 314,-19.5 314,-.5 169,-.5"/>
<text text-anchor="middle" x="241.5" y="-7.5" font-family="Helvetica,sans-Serif" font-size="10.00" fill="#000000">ocn_comp_mct::ocn_init_mct</text>
</a>
</g>
</g>
<!-- Node1&#45;&gt;Node8 -->
<g id="edge7" class="edge">
<title>Node1&#45;&gt;Node8</title>
<path fill="none" stroke="#191970" d="M386.1671,-80.842C367.9776,-64.3338 341.1423,-42.4151 314,-29 306.3012,-25.1949 297.7532,-22.0889 289.3056,-19.5744"/>
<polygon fill="#191970" stroke="#191970" points="384.1726,-83.7655 393.8861,-87.9961 388.9309,-78.6314 384.1726,-83.7655"/>
</g>
<!-- Node3 -->
<g id="node3" class="node">
<title>Node3</title>
<g id="a_node3"><a xlink:href="namespacemom__ocean__model__nuopc.html#ab8a89646dbbad4bae06c0d416f21160a" target="_top" xlink:title="ocean_model_flux_init is used to initialize properties of the air&#45;sea fluxes as determined by various...">
<polygon fill="#ffffff" stroke="#000000" points="0,-200 0,-230 133,-230 133,-200 0,-200"/>
<text text-anchor="start" x="8" y="-218" font-family="Helvetica,sans-Serif" font-size="10.00" fill="#000000">mom_ocean_model_nuopc</text>
<text text-anchor="middle" x="66.5" y="-207" font-family="Helvetica,sans-Serif" font-size="10.00" fill="#000000">::ocean_model_flux_init</text>
</a>
</g>
</g>
<!-- Node2&#45;&gt;Node3 -->
<g id="edge2" class="edge">
<title>Node2&#45;&gt;Node3</title>
<path fill="none" stroke="#191970" d="M168.2079,-201.0515C156.5748,-202.6469 144.5973,-204.2895 133.128,-205.8624"/>
<polygon fill="#191970" stroke="#191970" points="168.8893,-204.4909 178.321,-199.6646 167.9381,-197.5558 168.8893,-204.4909"/>
</g>
<!-- Node4 -->
<g id="node4" class="node">
<title>Node4</title>
<g id="a_node4"><a xlink:href="namespacemom__ocean__model__mct.html#aa8515d789e0bf3e772b3e78d6e5754cb" target="_top" xlink:title="ocean_model_flux_init is used to initialize properties of the air&#45;sea fluxes as determined by various...">
<polygon fill="#ffffff" stroke="#000000" points="5,-151 5,-181 128,-181 128,-151 5,-151"/>
<text text-anchor="start" x="13" y="-169" font-family="Helvetica,sans-Serif" font-size="10.00" fill="#000000">mom_ocean_model_mct</text>
<text text-anchor="middle" x="66.5" y="-158" font-family="Helvetica,sans-Serif" font-size="10.00" fill="#000000">::ocean_model_flux_init</text>
</a>
</g>
</g>
<!-- Node2&#45;&gt;Node4 -->
<g id="edge3" class="edge">
<title>Node2&#45;&gt;Node4</title>
<path fill="none" stroke="#191970" d="M168.2267,-180.5324C154.8831,-178.6262 141.0859,-176.6551 128.1215,-174.8031"/>
<polygon fill="#191970" stroke="#191970" points="167.9265,-184.025 178.321,-181.9744 168.9165,-177.0953 167.9265,-184.025"/>
</g>
</g>
</svg>
