<?xml version="1.0" encoding="UTF-8" standalone="no"?>
<!DOCTYPE svg PUBLIC "-//W3C//DTD SVG 1.1//EN"
 "http://www.w3.org/Graphics/SVG/1.1/DTD/svg11.dtd">
<!-- Generated by graphviz version 2.40.1 (20161225.0304)
 -->
<!-- Title: mom_ice_shelf_dynamics::cg_action_subgrid_basal Pages: 1 -->
<!--zoomable 149 -->
<svg id="main" version="1.1" xmlns="http://www.w3.org/2000/svg" xmlns:xlink="http://www.w3.org/1999/xlink" xml:space="preserve" onload="init(evt)">
<style type="text/css"><![CDATA[
.edge:hover path { stroke: red; }
.edge:hover polygon { stroke: red; fill: red; }
]]></style>
<script type="text/javascript"><![CDATA[
var edges = document.getElementsByTagName('g');
if (edges && edges.length) {
  for (var i=0;i<edges.length;i++) {
    if (edges[i].id.substr(0,4)=='edge') {
      edges[i].setAttribute('class','edge');
    }
  }
}
]]></script>
        <defs>
                <circle id="rim" cx="0" cy="0" r="7"/>
                <circle id="rim2" cx="0" cy="0" r="3.5"/>
                <g id="zoomPlus">
                        <use xlink:href="#rim" fill="#404040">
                                <set attributeName="fill" to="#808080" begin="zoomplus.mouseover" end="zoomplus.mouseout"/>
                        </use>
                        <path d="M-4,0h8M0,-4v8" fill="none" stroke="white" stroke-width="1.5" pointer-events="none"/>
                </g>
                <g id="zoomMin">
                        <use xlink:href="#rim" fill="#404040">
                                <set attributeName="fill" to="#808080" begin="zoomminus.mouseover" end="zoomminus.mouseout"/>
                        </use>
                        <path d="M-4,0h8" fill="none" stroke="white" stroke-width="1.5" pointer-events="none"/>
                </g>
                <g id="dirArrow">
                        <path fill="none" stroke="white" stroke-width="1.5" d="M0,-3.0v7 M-2.5,-0.5L0,-3.0L2.5,-0.5"/>
                </g>
               <g id="resetDef">
                       <use xlink:href="#rim2" fill="#404040">
                               <set attributeName="fill" to="#808080" begin="reset.mouseover" end="reset.mouseout"/>
                       </use>
               </g>
        </defs>

<script type="text/javascript">
var viewWidth = 837;
var viewHeight = 149;
var sectionId = 'dynsection-10';
</script>
<script xlink:href="svgpan.js"/>
<svg id="graph" class="graph">
<g id="viewport">
<title>mom_ice_shelf_dynamics::cg_action_subgrid_basal</title>
<polygon fill="#ffffff" stroke="transparent" points="-4,4 -4,-144.5 833,-144.5 833,4 -4,4"/>
<!-- Node1 -->
<g id="node1" class="node">
<title>Node1</title>
<g id="a_node1"><a xlink:title=" ">
<polygon fill="#bfbfbf" stroke="#000000" points="692,-48.5 692,-78.5 829,-78.5 829,-48.5 692,-48.5"/>
<text text-anchor="start" x="700" y="-66.5" font-family="Helvetica,sans-Serif" font-size="10.00" fill="#000000">mom_ice_shelf_dynamics</text>
<text text-anchor="middle" x="760.5" y="-55.5" font-family="Helvetica,sans-Serif" font-size="10.00" fill="#000000">::cg_action_subgrid_basal</text>
</a>
</g>
</g>
<!-- Node2 -->
<g id="node2" class="node">
<title>Node2</title>
<g id="a_node2"><a xlink:href="namespacemom__ice__shelf__dynamics.html#a80832e49ec6ba0f5061a95dfad0275b8" target="_top" xlink:title=" ">
<polygon fill="#ffffff" stroke="#000000" points="519,-73.5 519,-103.5 656,-103.5 656,-73.5 519,-73.5"/>
<text text-anchor="start" x="527" y="-91.5" font-family="Helvetica,sans-Serif" font-size="10.00" fill="#000000">mom_ice_shelf_dynamics</text>
<text text-anchor="middle" x="587.5" y="-80.5" font-family="Helvetica,sans-Serif" font-size="10.00" fill="#000000">::apply_boundary_values</text>
</a>
</g>
</g>
<!-- Node1&#45;&gt;Node2 -->
<g id="edge1" class="edge">
<title>Node1&#45;&gt;Node2</title>
<path fill="none" stroke="#191970" d="M681.684,-74.8896C673.1561,-76.1219 664.5279,-77.3688 656.1343,-78.5817"/>
<polygon fill="#191970" stroke="#191970" points="682.2321,-78.3468 691.6287,-73.4525 681.2309,-71.4188 682.2321,-78.3468"/>
</g>
<!-- Node8 -->
<g id="node8" class="node">
<title>Node8</title>
<g id="a_node8"><a xlink:href="namespacemom__ice__shelf__dynamics.html#ad0df9a4e6af446d7fab86850cc5d464e" target="_top" xlink:title=" ">
<polygon fill="#ffffff" stroke="#000000" points="519,-24.5 519,-54.5 656,-54.5 656,-24.5 519,-24.5"/>
<text text-anchor="start" x="527" y="-42.5" font-family="Helvetica,sans-Serif" font-size="10.00" fill="#000000">mom_ice_shelf_dynamics</text>
<text text-anchor="middle" x="587.5" y="-31.5" font-family="Helvetica,sans-Serif" font-size="10.00" fill="#000000">::cg_action</text>
</a>
</g>
</g>
<!-- Node1&#45;&gt;Node8 -->
<g id="edge8" class="edge">
<title>Node1&#45;&gt;Node8</title>
<path fill="none" stroke="#191970" d="M681.684,-52.566C673.1561,-51.3829 664.5279,-50.1859 656.1343,-49.0215"/>
<polygon fill="#191970" stroke="#191970" points="681.2426,-56.0382 691.6287,-53.9456 682.2046,-49.1046 681.2426,-56.0382"/>
</g>
<!-- Node3 -->
<g id="node3" class="node">
<title>Node3</title>
<g id="a_node3"><a xlink:href="namespacemom__ice__shelf__dynamics.html#ad90fe54af0b51e4b6e6adf069c7155ec" target="_top" xlink:title=" ">
<polygon fill="#ffffff" stroke="#000000" points="346,-49.5 346,-79.5 483,-79.5 483,-49.5 346,-49.5"/>
<text text-anchor="start" x="354" y="-67.5" font-family="Helvetica,sans-Serif" font-size="10.00" fill="#000000">mom_ice_shelf_dynamics</text>
<text text-anchor="middle" x="414.5" y="-56.5" font-family="Helvetica,sans-Serif" font-size="10.00" fill="#000000">::ice_shelf_solve_inner</text>
</a>
</g>
</g>
<!-- Node2&#45;&gt;Node3 -->
<g id="edge2" class="edge">
<title>Node2&#45;&gt;Node3</title>
<path fill="none" stroke="#191970" d="M508.684,-77.566C500.1561,-76.3829 491.5279,-75.1859 483.1343,-74.0215"/>
<polygon fill="#191970" stroke="#191970" points="508.2426,-81.0382 518.6287,-78.9456 509.2046,-74.1046 508.2426,-81.0382"/>
</g>
<!-- Node4 -->
<g id="node4" class="node">
<title>Node4</title>
<g id="a_node4"><a xlink:href="namespacemom__ice__shelf__dynamics.html#a4401e1ab9adde64c413a355641dc570b" target="_top" xlink:title=" ">
<polygon fill="#ffffff" stroke="#000000" points="173,-49.5 173,-79.5 310,-79.5 310,-49.5 173,-49.5"/>
<text text-anchor="start" x="181" y="-67.5" font-family="Helvetica,sans-Serif" font-size="10.00" fill="#000000">mom_ice_shelf_dynamics</text>
<text text-anchor="middle" x="241.5" y="-56.5" font-family="Helvetica,sans-Serif" font-size="10.00" fill="#000000">::ice_shelf_solve_outer</text>
</a>
</g>
</g>
<!-- Node2&#45;&gt;Node4 -->
<g id="edge7" class="edge">
<title>Node2&#45;&gt;Node4</title>
<path fill="none" stroke="#191970" d="M508.6247,-93.6402C461.3069,-95.5287 400.0184,-95.8716 346,-89.5 328.7709,-87.4678 310.2687,-83.6128 293.692,-79.5275"/>
<polygon fill="#191970" stroke="#191970" points="508.9664,-97.1288 518.8065,-93.2016 508.6651,-90.1353 508.9664,-97.1288"/>
</g>
<!-- Node3&#45;&gt;Node4 -->
<g id="edge3" class="edge">
<title>Node3&#45;&gt;Node4</title>
<path fill="none" stroke="#191970" d="M335.4059,-64.5C326.9686,-64.5 318.4367,-64.5 310.1343,-64.5"/>
<polygon fill="#191970" stroke="#191970" points="335.6288,-68.0001 345.6287,-64.5 335.6287,-61.0001 335.6288,-68.0001"/>
</g>
<!-- Node5 -->
<g id="node5" class="node">
<title>Node5</title>
<g id="a_node5"><a xlink:href="namespacemom__ice__shelf__dynamics.html#a65c987944c65ba5ab4c88ce809698a88" target="_top" xlink:title=" ">
<polygon fill="#ffffff" stroke="#000000" points="0,-99 0,-140 137,-140 137,-99 0,-99"/>
<text text-anchor="start" x="8" y="-128" font-family="Helvetica,sans-Serif" font-size="10.00" fill="#000000">mom_ice_shelf_dynamics</text>
<text text-anchor="start" x="8" y="-117" font-family="Helvetica,sans-Serif" font-size="10.00" fill="#000000">::initialize_diagnostic</text>
<text text-anchor="middle" x="68.5" y="-106" font-family="Helvetica,sans-Serif" font-size="10.00" fill="#000000">_fields</text>
</a>
</g>
</g>
<!-- Node4&#45;&gt;Node5 -->
<g id="edge4" class="edge">
<title>Node4&#45;&gt;Node5</title>
<path fill="none" stroke="#191970" d="M184.2754,-82.6928C167.9248,-87.891 149.992,-93.5922 133.2264,-98.9223"/>
<polygon fill="#191970" stroke="#191970" points="185.7574,-85.8943 194.227,-79.529 183.6366,-79.2233 185.7574,-85.8943"/>
</g>
<!-- Node6 -->
<g id="node6" class="node">
<title>Node6</title>
<g id="a_node6"><a xlink:href="namespacemom__ice__shelf__dynamics.html#a214304391d90b046fd3756249be46afb" target="_top" xlink:title="Initializes shelf model data, parameters and diagnostics.">
<polygon fill="#ffffff" stroke="#000000" points="0,-49.5 0,-79.5 137,-79.5 137,-49.5 0,-49.5"/>
<text text-anchor="start" x="8" y="-67.5" font-family="Helvetica,sans-Serif" font-size="10.00" fill="#000000">mom_ice_shelf_dynamics</text>
<text text-anchor="middle" x="68.5" y="-56.5" font-family="Helvetica,sans-Serif" font-size="10.00" fill="#000000">::initialize_ice_shelf_dyn</text>
</a>
</g>
</g>
<!-- Node4&#45;&gt;Node6 -->
<g id="edge5" class="edge">
<title>Node4&#45;&gt;Node6</title>
<path fill="none" stroke="#191970" d="M162.4059,-64.5C153.9686,-64.5 145.4367,-64.5 137.1343,-64.5"/>
<polygon fill="#191970" stroke="#191970" points="162.6288,-68.0001 172.6287,-64.5 162.6287,-61.0001 162.6288,-68.0001"/>
</g>
<!-- Node7 -->
<g id="node7" class="node">
<title>Node7</title>
<g id="a_node7"><a xlink:href="namespacemom__ice__shelf__dynamics.html#adb908b77efa101749be0be069916139c" target="_top" xlink:title="This subroutine updates the ice shelf velocities, mass, stresses and properties due to the ice shelf ...">
<polygon fill="#ffffff" stroke="#000000" points="0,-.5 0,-30.5 137,-30.5 137,-.5 0,-.5"/>
<text text-anchor="start" x="8" y="-18.5" font-family="Helvetica,sans-Serif" font-size="10.00" fill="#000000">mom_ice_shelf_dynamics</text>
<text text-anchor="middle" x="68.5" y="-7.5" font-family="Helvetica,sans-Serif" font-size="10.00" fill="#000000">::update_ice_shelf</text>
</a>
</g>
</g>
<!-- Node4&#45;&gt;Node7 -->
<g id="edge6" class="edge">
<title>Node4&#45;&gt;Node7</title>
<path fill="none" stroke="#191970" d="M178.3229,-46.6059C159.7154,-41.3356 139.5517,-35.6245 121.6413,-30.5516"/>
<polygon fill="#191970" stroke="#191970" points="177.6073,-50.0409 188.1827,-49.3986 179.515,-43.3058 177.6073,-50.0409"/>
</g>
<!-- Node8&#45;&gt;Node3 -->
<g id="edge9" class="edge">
<title>Node8&#45;&gt;Node3</title>
<path fill="none" stroke="#191970" d="M508.684,-50.8896C500.1561,-52.1219 491.5279,-53.3688 483.1343,-54.5817"/>
<polygon fill="#191970" stroke="#191970" points="509.2321,-54.3468 518.6287,-49.4525 508.2309,-47.4188 509.2321,-54.3468"/>
</g>
<!-- Node8&#45;&gt;Node4 -->
<g id="edge10" class="edge">
<title>Node8&#45;&gt;Node4</title>
<path fill="none" stroke="#191970" d="M508.6243,-34.8497C461.3064,-33.2146 400.0179,-33.1284 346,-39.5 328.7709,-41.5322 310.2687,-45.3872 293.692,-49.4725"/>
<polygon fill="#191970" stroke="#191970" points="508.6817,-38.3542 518.8062,-35.2327 508.9449,-31.3592 508.6817,-38.3542"/>
</g>
</g>
</svg>
        <g id="navigator" transform="translate(0 0)" fill="#404254">
                <rect fill="#f2f5e9" fill-opacity="0.5" stroke="#606060" stroke-width=".5" x="0" y="0" width="60" height="60"/>
                <use id="zoomplus" xlink:href="#zoomPlus" x="17" y="9" onmousedown="handleZoom(evt,'in')"/>
                <use id="zoomminus" xlink:href="#zoomMin" x="42" y="9" onmousedown="handleZoom(evt,'out')"/>
                <use id="reset" xlink:href="#resetDef" x="30" y="36" onmousedown="handleReset()"/>
                <g id="arrowUp" xlink:href="#dirArrow" transform="translate(30 24)" onmousedown="handlePan(0,-1)">
                  <use xlink:href="#rim" fill="#404040">
                        <set attributeName="fill" to="#808080" begin="arrowUp.mouseover" end="arrowUp.mouseout"/>
                  </use>
                  <path fill="none" stroke="white" stroke-width="1.5" d="M0,-3.0v7 M-2.5,-0.5L0,-3.0L2.5,-0.5"/>
                </g>
                <g id="arrowRight" xlink:href="#dirArrow" transform="rotate(90) translate(36 -43)" onmousedown="handlePan(1,0)">
                  <use xlink:href="#rim" fill="#404040">
                        <set attributeName="fill" to="#808080" begin="arrowRight.mouseover" end="arrowRight.mouseout"/>
                  </use>
                  <path fill="none" stroke="white" stroke-width="1.5" d="M0,-3.0v7 M-2.5,-0.5L0,-3.0L2.5,-0.5"/>
                </g>
                <g id="arrowDown" xlink:href="#dirArrow" transform="rotate(180) translate(-30 -48)" onmousedown="handlePan(0,1)">
                  <use xlink:href="#rim" fill="#404040">
                        <set attributeName="fill" to="#808080" begin="arrowDown.mouseover" end="arrowDown.mouseout"/>
                  </use>
                  <path fill="none" stroke="white" stroke-width="1.5" d="M0,-3.0v7 M-2.5,-0.5L0,-3.0L2.5,-0.5"/>
                </g>
                <g id="arrowLeft" xlink:href="#dirArrow" transform="rotate(270) translate(-36 17)" onmousedown="handlePan(-1,0)">
                  <use xlink:href="#rim" fill="#404040">
                        <set attributeName="fill" to="#808080" begin="arrowLeft.mouseover" end="arrowLeft.mouseout"/>
                  </use>
                  <path fill="none" stroke="white" stroke-width="1.5" d="M0,-3.0v7 M-2.5,-0.5L0,-3.0L2.5,-0.5"/>
                </g>
        </g>
        <svg viewBox="0 0 15 15" width="100%" height="30px" preserveAspectRatio="xMaxYMin meet">
         <g id="arrow_out" transform="scale(0.3 0.3)">
          <a xlink:href="namespacemom__ice__shelf__dynamics_a34bac8fd815ba44183f74a75ea3067bb_icgraph_org.svg" target="_base">
           <rect id="button" ry="5" rx="5" y="6" x="6" height="38" width="38"
                fill="#f2f5e9" fill-opacity="0.5" stroke="#606060" stroke-width="1.0"/>
           <path id="arrow"
             d="M 11.500037,31.436501 C 11.940474,20.09759 22.043105,11.32322 32.158766,21.979434 L 37.068811,17.246167 C 37.068811,17.246167 37.088388,32 37.088388,32 L 22.160133,31.978069 C 22.160133,31.978069 26.997745,27.140456 26.997745,27.140456 C 18.528582,18.264221 13.291696,25.230495 11.500037,31.436501 z"
             style="fill:#404040;"/>
          </a>
         </g>
        </svg>
</svg>
