<?xml version="1.0" encoding="UTF-8" standalone="no"?>
<!DOCTYPE svg PUBLIC "-//W3C//DTD SVG 1.1//EN"
 "http://www.w3.org/Graphics/SVG/1.1/DTD/svg11.dtd">
<!-- Generated by graphviz version 2.40.1 (20161225.0304)
 -->
<!-- Title: mom_eos::calculate_compress_scalar Pages: 1 -->
<svg width="599pt" height="186pt"
 viewBox="0.00 0.00 599.00 186.00" xmlns="http://www.w3.org/2000/svg" xmlns:xlink="http://www.w3.org/1999/xlink">
<g id="graph0" class="graph" transform="scale(1 1) rotate(0) translate(4 182)">
<title>mom_eos::calculate_compress_scalar</title>
<polygon fill="#ffffff" stroke="transparent" points="-4,4 -4,-182 595,-182 595,4 -4,4"/>
<!-- Node1 -->
<g id="node1" class="node">
<title>Node1</title>
<g id="a_node1"><a xlink:title="Calculate density and compressibility for a scalar. This just promotes the scalar to an array with a ...">
<polygon fill="#bfbfbf" stroke="#000000" points="0,-25.5 0,-55.5 104,-55.5 104,-25.5 0,-25.5"/>
<text text-anchor="start" x="8" y="-43.5" font-family="Helvetica,sans-Serif" font-size="10.00" fill="#000000">mom_eos::calculate</text>
<text text-anchor="middle" x="52" y="-32.5" font-family="Helvetica,sans-Serif" font-size="10.00" fill="#000000">_compress_scalar</text>
</a>
</g>
</g>
<!-- Node2 -->
<g id="node2" class="node">
<title>Node2</title>
<g id="a_node2"><a xlink:href="namespacemom__eos.html#a5f971080e0f12a9c171738cd8800c71b" target="_top" xlink:title="Calls the appropriate subroutine to calculate the density and compressibility for 1&#45;D array inputs.">
<polygon fill="#ffffff" stroke="#000000" points="140,-49.5 140,-79.5 244,-79.5 244,-49.5 140,-49.5"/>
<text text-anchor="start" x="148" y="-67.5" font-family="Helvetica,sans-Serif" font-size="10.00" fill="#000000">mom_eos::calculate</text>
<text text-anchor="middle" x="192" y="-56.5" font-family="Helvetica,sans-Serif" font-size="10.00" fill="#000000">_compress_array</text>
</a>
</g>
</g>
<!-- Node1&#45;&gt;Node2 -->
<g id="edge1" class="edge">
<title>Node1&#45;&gt;Node2</title>
<path fill="none" stroke="#191970" d="M104.1308,-49.4367C112.5124,-50.8736 121.2603,-52.3732 129.8486,-53.8455"/>
<polygon fill="#191970" stroke="#191970" points="129.378,-57.3158 139.8256,-55.5558 130.5608,-50.4164 129.378,-57.3158"/>
</g>
<!-- Node7 -->
<g id="node7" class="node">
<title>Node7</title>
<g id="a_node7"><a xlink:href="namespacemom__error__handler.html#a460cfb79a06c29fc249952c2a3710d67" target="_top" xlink:title="This provides a convenient interface for writing an mpp_error message with run&#45;time filter based on a...">
<polygon fill="#ffffff" stroke="#000000" points="297.5,-.5 297.5,-30.5 403.5,-30.5 403.5,-.5 297.5,-.5"/>
<text text-anchor="start" x="305.5" y="-18.5" font-family="Helvetica,sans-Serif" font-size="10.00" fill="#000000">mom_error_handler::</text>
<text text-anchor="middle" x="350.5" y="-7.5" font-family="Helvetica,sans-Serif" font-size="10.00" fill="#000000">mom_error</text>
</a>
</g>
</g>
<!-- Node1&#45;&gt;Node7 -->
<g id="edge8" class="edge">
<title>Node1&#45;&gt;Node7</title>
<path fill="none" stroke="#191970" d="M104.3363,-36.1167C155.3089,-31.8477 232.8515,-25.3533 287.253,-20.7971"/>
<polygon fill="#191970" stroke="#191970" points="287.7968,-24.2639 297.4698,-19.9414 287.2125,-17.2883 287.7968,-24.2639"/>
</g>
<!-- Node3 -->
<g id="node3" class="node">
<title>Node3</title>
<g id="a_node3"><a xlink:href="namespacemom__eos__linear.html#a2d051ebfb3ee1ef96888c74c09a1a6ca" target="_top" xlink:title="This subroutine computes the in situ density of sea water (rho) and the compressibility (drho/dp == C...">
<polygon fill="#ffffff" stroke="#000000" points="284,-147.5 284,-177.5 417,-177.5 417,-147.5 284,-147.5"/>
<text text-anchor="start" x="292" y="-165.5" font-family="Helvetica,sans-Serif" font-size="10.00" fill="#000000">mom_eos_linear::calculate</text>
<text text-anchor="middle" x="350.5" y="-154.5" font-family="Helvetica,sans-Serif" font-size="10.00" fill="#000000">_compress_linear</text>
</a>
</g>
</g>
<!-- Node2&#45;&gt;Node3 -->
<g id="edge2" class="edge">
<title>Node2&#45;&gt;Node3</title>
<path fill="none" stroke="#191970" d="M206.5791,-79.769C223.0489,-96.2532 251.3138,-122.3162 280,-138.5 283.0193,-140.2034 286.1795,-141.8133 289.418,-143.3305"/>
<polygon fill="#191970" stroke="#191970" points="288.1334,-146.5884 298.6999,-147.3618 290.922,-140.1678 288.1334,-146.5884"/>
</g>
<!-- Node4 -->
<g id="node4" class="node">
<title>Node4</title>
<g id="a_node4"><a xlink:href="namespacemom__eos__nemo.html#ab9441b5fdd50f09a5bac70012def0ea7" target="_top" xlink:title="Compute the in situ density of sea water (rho in [kg m&#45;3]) and the compressibility (drho/dp = C_sound...">
<polygon fill="#ffffff" stroke="#000000" points="283.5,-98.5 283.5,-128.5 417.5,-128.5 417.5,-98.5 283.5,-98.5"/>
<text text-anchor="start" x="291.5" y="-116.5" font-family="Helvetica,sans-Serif" font-size="10.00" fill="#000000">mom_eos_nemo::calculate</text>
<text text-anchor="middle" x="350.5" y="-105.5" font-family="Helvetica,sans-Serif" font-size="10.00" fill="#000000">_compress_nemo</text>
</a>
</g>
</g>
<!-- Node2&#45;&gt;Node4 -->
<g id="edge3" class="edge">
<title>Node2&#45;&gt;Node4</title>
<path fill="none" stroke="#191970" d="M240.8485,-79.6014C257.0442,-84.6083 275.2366,-90.2324 292.0781,-95.439"/>
<polygon fill="#191970" stroke="#191970" points="291.2251,-98.8386 301.8128,-98.4484 293.2927,-92.1509 291.2251,-98.8386"/>
</g>
<!-- Node6 -->
<g id="node6" class="node">
<title>Node6</title>
<g id="a_node6"><a xlink:href="namespacemom__eos__unesco.html#a4a125f4eb70d4b2517dadd2f9446f261" target="_top" xlink:title="This subroutine computes the in situ density of sea water (rho) and the compressibility (drho/dp == C...">
<polygon fill="#ffffff" stroke="#000000" points="280,-49.5 280,-79.5 421,-79.5 421,-49.5 280,-49.5"/>
<text text-anchor="start" x="288" y="-67.5" font-family="Helvetica,sans-Serif" font-size="10.00" fill="#000000">mom_eos_unesco::calculate</text>
<text text-anchor="middle" x="350.5" y="-56.5" font-family="Helvetica,sans-Serif" font-size="10.00" fill="#000000">_compress_unesco</text>
</a>
</g>
</g>
<!-- Node2&#45;&gt;Node6 -->
<g id="edge5" class="edge">
<title>Node2&#45;&gt;Node6</title>
<path fill="none" stroke="#191970" d="M244.3381,-64.5C252.5042,-64.5 261.1029,-64.5 269.7257,-64.5"/>
<polygon fill="#191970" stroke="#191970" points="269.8347,-68.0001 279.8346,-64.5 269.8346,-61.0001 269.8347,-68.0001"/>
</g>
<!-- Node2&#45;&gt;Node7 -->
<g id="edge6" class="edge">
<title>Node2&#45;&gt;Node7</title>
<path fill="none" stroke="#191970" d="M240.8485,-49.3986C257.0442,-44.3917 275.2366,-38.7676 292.0781,-33.561"/>
<polygon fill="#191970" stroke="#191970" points="293.2927,-36.8491 301.8128,-30.5516 291.2251,-30.1614 293.2927,-36.8491"/>
</g>
<!-- Node5 -->
<g id="node5" class="node">
<title>Node5</title>
<g id="a_node5"><a xlink:href="namespacemom__eos__nemo.html#a262e1078592bdb306dc27207c0463648" target="_top" xlink:title="This subroutine computes the in situ density of sea water (rho in [kg m&#45;3]) from absolute salinity (S...">
<polygon fill="#ffffff" stroke="#000000" points="457,-98.5 457,-128.5 591,-128.5 591,-98.5 457,-98.5"/>
<text text-anchor="start" x="465" y="-116.5" font-family="Helvetica,sans-Serif" font-size="10.00" fill="#000000">mom_eos_nemo::calculate</text>
<text text-anchor="middle" x="524" y="-105.5" font-family="Helvetica,sans-Serif" font-size="10.00" fill="#000000">_density_array_nemo</text>
</a>
</g>
</g>
<!-- Node4&#45;&gt;Node5 -->
<g id="edge4" class="edge">
<title>Node4&#45;&gt;Node5</title>
<path fill="none" stroke="#191970" d="M417.5796,-113.5C427.134,-113.5 437.0243,-113.5 446.7533,-113.5"/>
<polygon fill="#191970" stroke="#191970" points="446.8128,-117.0001 456.8127,-113.5 446.8127,-110.0001 446.8128,-117.0001"/>
</g>
<!-- Node8 -->
<g id="node8" class="node">
<title>Node8</title>
<g id="a_node8"><a xlink:href="namespacemom__error__handler.html#ad5f00a53059c72fe2332d1436c80ca71" target="_top" xlink:title="This returns .true. if the current PE is the root PE.">
<polygon fill="#ffffff" stroke="#000000" points="471,-.5 471,-30.5 577,-30.5 577,-.5 471,-.5"/>
<text text-anchor="start" x="479" y="-18.5" font-family="Helvetica,sans-Serif" font-size="10.00" fill="#000000">mom_error_handler::</text>
<text text-anchor="middle" x="524" y="-7.5" font-family="Helvetica,sans-Serif" font-size="10.00" fill="#000000">is_root_pe</text>
</a>
</g>
</g>
<!-- Node7&#45;&gt;Node8 -->
<g id="edge7" class="edge">
<title>Node7&#45;&gt;Node8</title>
<path fill="none" stroke="#191970" d="M403.9714,-15.5C421.8655,-15.5 441.9862,-15.5 460.5657,-15.5"/>
<polygon fill="#191970" stroke="#191970" points="460.7052,-19.0001 470.7051,-15.5 460.7051,-12.0001 460.7052,-19.0001"/>
</g>
</g>
</svg>
