<?xml version="1.0" encoding="UTF-8" standalone="no"?>
<!DOCTYPE svg PUBLIC "-//W3C//DTD SVG 1.1//EN"
 "http://www.w3.org/Graphics/SVG/1.1/DTD/svg11.dtd">
<!-- Generated by graphviz version 2.40.1 (20161225.0304)
 -->
<!-- Title: mom_state_initialization::adjustetatofitbathymetry Pages: 1 -->
<svg width="769pt" height="100pt"
 viewBox="0.00 0.00 769.00 99.50" xmlns="http://www.w3.org/2000/svg" xmlns:xlink="http://www.w3.org/1999/xlink">
<g id="graph0" class="graph" transform="scale(1 1) rotate(0) translate(4 95.5)">
<title>mom_state_initialization::adjustetatofitbathymetry</title>
<polygon fill="#ffffff" stroke="transparent" points="-4,4 -4,-95.5 765,-95.5 765,4 -4,4"/>
<!-- Node1 -->
<g id="node1" class="node">
<title>Node1</title>
<g id="a_node1"><a xlink:title="Adjust interface heights to fit the bathymetry and diagnose layer thickness.">
<polygon fill="#bfbfbf" stroke="#000000" points="628,-27.5 628,-57.5 761,-57.5 761,-27.5 628,-27.5"/>
<text text-anchor="start" x="636" y="-45.5" font-family="Helvetica,sans-Serif" font-size="10.00" fill="#000000">mom_state_initialization</text>
<text text-anchor="middle" x="694.5" y="-34.5" font-family="Helvetica,sans-Serif" font-size="10.00" fill="#000000">::adjustetatofitbathymetry</text>
</a>
</g>
</g>
<!-- Node2 -->
<g id="node2" class="node">
<title>Node2</title>
<g id="a_node2"><a xlink:href="namespacemom__state__initialization.html#a847ac374f69c4777e3e49a5ebdcebf43" target="_top" xlink:title="Reads the layer thicknesses or interface heights from a file.">
<polygon fill="#ffffff" stroke="#000000" points="439,-50 439,-91 568,-91 568,-50 439,-50"/>
<text text-anchor="start" x="447" y="-79" font-family="Helvetica,sans-Serif" font-size="10.00" fill="#000000">mom_state_initialization</text>
<text text-anchor="start" x="447" y="-68" font-family="Helvetica,sans-Serif" font-size="10.00" fill="#000000">::initialize_thickness</text>
<text text-anchor="middle" x="503.5" y="-57" font-family="Helvetica,sans-Serif" font-size="10.00" fill="#000000">_from_file</text>
</a>
</g>
</g>
<!-- Node1&#45;&gt;Node2 -->
<g id="edge1" class="edge">
<title>Node1&#45;&gt;Node2</title>
<path fill="none" stroke="#191970" d="M617.836,-53.7387C601.3763,-56.1516 584.1391,-58.6786 568.1868,-61.0171"/>
<polygon fill="#191970" stroke="#191970" points="618.579,-57.1673 627.9656,-52.2537 617.5637,-50.2413 618.579,-57.1673"/>
</g>
<!-- Node6 -->
<g id="node6" class="node">
<title>Node6</title>
<g id="a_node6"><a xlink:href="namespacemom__state__initialization.html#a4b1a2ab2ba01da2b898f5e65ebc30c9d" target="_top" xlink:title="This subroutine determines the isopycnal or other coordinate interfaces and layer potential temperatu...">
<polygon fill="#ffffff" stroke="#000000" points="415,-.5 415,-30.5 592,-30.5 592,-.5 415,-.5"/>
<text text-anchor="start" x="423" y="-18.5" font-family="Helvetica,sans-Serif" font-size="10.00" fill="#000000">mom_state_initialization</text>
<text text-anchor="middle" x="503.5" y="-7.5" font-family="Helvetica,sans-Serif" font-size="10.00" fill="#000000">::mom_temp_salt_initialize_from_z</text>
</a>
</g>
</g>
<!-- Node1&#45;&gt;Node6 -->
<g id="edge5" class="edge">
<title>Node1&#45;&gt;Node6</title>
<path fill="none" stroke="#191970" d="M617.8386,-31.663C609.4388,-30.4756 600.8366,-29.2596 592.3059,-28.0537"/>
<polygon fill="#191970" stroke="#191970" points="617.5741,-35.1604 627.9656,-33.0946 618.554,-28.2293 617.5741,-35.1604"/>
</g>
<!-- Node3 -->
<g id="node3" class="node">
<title>Node3</title>
<g id="a_node3"><a xlink:href="namespacemom__state__initialization.html#a81503d4f1855cb185f122d6314e4f06c" target="_top" xlink:title="Initialize temporally evolving fields, either as initial conditions or by reading them from a restart...">
<polygon fill="#ffffff" stroke="#000000" points="250,-27.5 250,-57.5 379,-57.5 379,-27.5 250,-27.5"/>
<text text-anchor="start" x="258" y="-45.5" font-family="Helvetica,sans-Serif" font-size="10.00" fill="#000000">mom_state_initialization</text>
<text text-anchor="middle" x="314.5" y="-34.5" font-family="Helvetica,sans-Serif" font-size="10.00" fill="#000000">::mom_initialize_state</text>
</a>
</g>
</g>
<!-- Node2&#45;&gt;Node3 -->
<g id="edge2" class="edge">
<title>Node2&#45;&gt;Node3</title>
<path fill="none" stroke="#191970" d="M428.8584,-59.442C412.388,-57.0019 395.0749,-54.437 379.0444,-52.0621"/>
<polygon fill="#191970" stroke="#191970" points="428.5806,-62.9389 438.9855,-60.9423 429.6065,-56.0145 428.5806,-62.9389"/>
</g>
<!-- Node4 -->
<g id="node4" class="node">
<title>Node4</title>
<g id="a_node4"><a xlink:href="namespacemom.html#a96708b16215666edbfa5b46228f3a200" target="_top" xlink:title="Initialize MOM, including memory allocation, setting up parameters and diagnostics,...">
<polygon fill="#ffffff" stroke="#000000" points="104,-33 104,-52 214,-52 214,-33 104,-33"/>
<text text-anchor="middle" x="159" y="-40" font-family="Helvetica,sans-Serif" font-size="10.00" fill="#000000">mom::initialize_mom</text>
</a>
</g>
</g>
<!-- Node3&#45;&gt;Node4 -->
<g id="edge3" class="edge">
<title>Node3&#45;&gt;Node4</title>
<path fill="none" stroke="#191970" d="M239.8331,-42.5C231.2119,-42.5 222.5401,-42.5 214.2425,-42.5"/>
<polygon fill="#191970" stroke="#191970" points="239.9049,-46.0001 249.9049,-42.5 239.9049,-39.0001 239.9049,-46.0001"/>
</g>
<!-- Node5 -->
<g id="node5" class="node">
<title>Node5</title>
<g id="a_node5"><a xlink:href="MOM__driver_8F90.html#a08fffeb2d8e8acbf9ed4609be6d258c6" target="_top" xlink:title=" ">
<polygon fill="#ffffff" stroke="#000000" points="0,-33 0,-52 68,-52 68,-33 0,-33"/>
<text text-anchor="middle" x="34" y="-40" font-family="Helvetica,sans-Serif" font-size="10.00" fill="#000000">mom_main</text>
</a>
</g>
</g>
<!-- Node4&#45;&gt;Node5 -->
<g id="edge4" class="edge">
<title>Node4&#45;&gt;Node5</title>
<path fill="none" stroke="#191970" d="M93.7848,-42.5C84.8995,-42.5 76.0876,-42.5 68.0691,-42.5"/>
<polygon fill="#191970" stroke="#191970" points="93.8094,-46.0001 103.8093,-42.5 93.8093,-39.0001 93.8094,-46.0001"/>
</g>
<!-- Node6&#45;&gt;Node3 -->
<g id="edge6" class="edge">
<title>Node6&#45;&gt;Node3</title>
<path fill="none" stroke="#191970" d="M404.6829,-29.6167C396.0596,-30.8486 387.4843,-32.0737 379.2451,-33.2507"/>
<polygon fill="#191970" stroke="#191970" points="405.4062,-33.049 414.8107,-28.1699 404.4162,-26.1194 405.4062,-33.049"/>
</g>
</g>
</svg>
