<?xml version="1.0" encoding="UTF-8" standalone="no"?>
<!DOCTYPE svg PUBLIC "-//W3C//DTD SVG 1.1//EN"
 "http://www.w3.org/Graphics/SVG/1.1/DTD/svg11.dtd">
<!-- Generated by graphviz version 2.40.1 (20161225.0304)
 -->
<!-- Title: mom_ocean_model_nuopc::get_eps_omesh Pages: 1 -->
<svg width="531pt" height="39pt"
 viewBox="0.00 0.00 531.00 39.00" xmlns="http://www.w3.org/2000/svg" xmlns:xlink="http://www.w3.org/1999/xlink">
<g id="graph0" class="graph" transform="scale(1 1) rotate(0) translate(4 35)">
<title>mom_ocean_model_nuopc::get_eps_omesh</title>
<polygon fill="#ffffff" stroke="transparent" points="-4,4 -4,-35 527,-35 527,4 -4,4"/>
<!-- Node1 -->
<g id="node1" class="node">
<title>Node1</title>
<g id="a_node1"><a xlink:title="Returns eps_omesh read from param file.">
<polygon fill="#bfbfbf" stroke="#000000" points="380,-.5 380,-30.5 523,-30.5 523,-.5 380,-.5"/>
<text text-anchor="start" x="388" y="-18.5" font-family="Helvetica,sans-Serif" font-size="10.00" fill="#000000">mom_ocean_model_nuopc</text>
<text text-anchor="middle" x="451.5" y="-7.5" font-family="Helvetica,sans-Serif" font-size="10.00" fill="#000000">::get_eps_omesh</text>
</a>
</g>
</g>
<!-- Node2 -->
<g id="node2" class="node">
<title>Node2</title>
<g id="a_node2"><a xlink:href="namespacemom__cap__mod.html#a11baa4d10abcce4225eb074a2c23e398" target="_top" xlink:title="Called by NUOPC to realize import and export fields. &quot;Realizing&quot; a field means that its grid has been...">
<polygon fill="#ffffff" stroke="#000000" points="182,-6 182,-25 344,-25 344,-6 182,-6"/>
<text text-anchor="middle" x="263" y="-13" font-family="Helvetica,sans-Serif" font-size="10.00" fill="#000000">mom_cap_mod::initializerealize</text>
</a>
</g>
</g>
<!-- Node1&#45;&gt;Node2 -->
<g id="edge1" class="edge">
<title>Node1&#45;&gt;Node2</title>
<path fill="none" stroke="#191970" d="M369.7468,-15.5C361.2968,-15.5 352.7105,-15.5 344.2659,-15.5"/>
<polygon fill="#191970" stroke="#191970" points="369.9675,-19.0001 379.9675,-15.5 369.9674,-12.0001 369.9675,-19.0001"/>
</g>
<!-- Node3 -->
<g id="node3" class="node">
<title>Node3</title>
<g id="a_node3"><a xlink:href="namespacemom__cap__mod.html#ae0439afc4c901d9850515768bdaaed09" target="_top" xlink:title="NUOPC SetService method is the only public entry point. SetServices registers all of the user&#45;provide...">
<polygon fill="#ffffff" stroke="#000000" points="0,-6 0,-25 146,-25 146,-6 0,-6"/>
<text text-anchor="middle" x="73" y="-13" font-family="Helvetica,sans-Serif" font-size="10.00" fill="#000000">mom_cap_mod::setservices</text>
</a>
</g>
</g>
<!-- Node2&#45;&gt;Node3 -->
<g id="edge2" class="edge">
<title>Node2&#45;&gt;Node3</title>
<path fill="none" stroke="#191970" d="M171.7763,-15.5C163.1457,-15.5 154.4734,-15.5 146.045,-15.5"/>
<polygon fill="#191970" stroke="#191970" points="171.8718,-19.0001 181.8718,-15.5 171.8717,-12.0001 171.8718,-19.0001"/>
</g>
</g>
</svg>
