<?xml version="1.0" encoding="UTF-8" standalone="no"?>
<!DOCTYPE svg PUBLIC "-//W3C//DTD SVG 1.1//EN"
 "http://www.w3.org/Graphics/SVG/1.1/DTD/svg11.dtd">
<!-- Generated by graphviz version 2.40.1 (20161225.0304)
 -->
<!-- Title: mom_restart::open_restart_units Pages: 1 -->
<svg width="451pt" height="61pt"
 viewBox="0.00 0.00 451.00 61.00" xmlns="http://www.w3.org/2000/svg" xmlns:xlink="http://www.w3.org/1999/xlink">
<g id="graph0" class="graph" transform="scale(1 1) rotate(0) translate(4 57)">
<title>mom_restart::open_restart_units</title>
<polygon fill="#ffffff" stroke="transparent" points="-4,4 -4,-57 447,-57 447,4 -4,4"/>
<!-- Node1 -->
<g id="node1" class="node">
<title>Node1</title>
<g id="a_node1"><a xlink:title="open_restart_units determines the number of existing restart files and optionally opens them and retu...">
<polygon fill="#bfbfbf" stroke="#000000" points="0,-22.5 0,-52.5 141,-52.5 141,-22.5 0,-22.5"/>
<text text-anchor="start" x="8" y="-40.5" font-family="Helvetica,sans-Serif" font-size="10.00" fill="#000000">mom_restart::open_restart</text>
<text text-anchor="middle" x="70.5" y="-29.5" font-family="Helvetica,sans-Serif" font-size="10.00" fill="#000000">_units</text>
</a>
</g>
</g>
<!-- Node2 -->
<g id="node2" class="node">
<title>Node2</title>
<g id="a_node2"><a xlink:href="namespacemom__error__handler.html#ad5f00a53059c72fe2332d1436c80ca71" target="_top" xlink:title="This returns .true. if the current PE is the root PE.">
<polygon fill="#ffffff" stroke="#000000" points="328,-22.5 328,-52.5 443,-52.5 443,-22.5 328,-22.5"/>
<text text-anchor="start" x="336" y="-40.5" font-family="Helvetica,sans-Serif" font-size="10.00" fill="#000000">mom_error_handler::</text>
<text text-anchor="middle" x="385.5" y="-29.5" font-family="Helvetica,sans-Serif" font-size="10.00" fill="#000000">is_root_pe</text>
</a>
</g>
</g>
<!-- Node1&#45;&gt;Node2 -->
<g id="edge1" class="edge">
<title>Node1&#45;&gt;Node2</title>
<path fill="none" stroke="#191970" d="M141.2434,-39.7719C153.1775,-40.0751 165.4406,-40.3372 177,-40.5 228.106,-41.2197 240.8955,-41.3196 292,-40.5 300.2869,-40.3671 308.9854,-40.168 317.602,-39.9343"/>
<polygon fill="#191970" stroke="#191970" points="317.7546,-43.4314 327.65,-39.646 317.5538,-36.4343 317.7546,-43.4314"/>
</g>
<!-- Node3 -->
<g id="node3" class="node">
<title>Node3</title>
<g id="a_node3"><a xlink:href="namespacemom__error__handler.html#a460cfb79a06c29fc249952c2a3710d67" target="_top" xlink:title="This provides a convenient interface for writing an mpp_error message with run&#45;time filter based on a...">
<polygon fill="#ffffff" stroke="#000000" points="177,-.5 177,-30.5 292,-30.5 292,-.5 177,-.5"/>
<text text-anchor="start" x="185" y="-18.5" font-family="Helvetica,sans-Serif" font-size="10.00" fill="#000000">mom_error_handler::</text>
<text text-anchor="middle" x="234.5" y="-7.5" font-family="Helvetica,sans-Serif" font-size="10.00" fill="#000000">mom_error</text>
</a>
</g>
</g>
<!-- Node1&#45;&gt;Node3 -->
<g id="edge2" class="edge">
<title>Node1&#45;&gt;Node3</title>
<path fill="none" stroke="#191970" d="M141.0025,-28.0423C149.6136,-26.8872 158.3972,-25.7089 166.9633,-24.5598"/>
<polygon fill="#191970" stroke="#191970" points="167.4501,-28.0259 176.8959,-23.2274 166.5193,-21.0881 167.4501,-28.0259"/>
</g>
<!-- Node3&#45;&gt;Node2 -->
<g id="edge3" class="edge">
<title>Node3&#45;&gt;Node2</title>
<path fill="none" stroke="#191970" d="M292.0174,-23.88C300.4639,-25.1106 309.2292,-26.3877 317.8561,-27.6446"/>
<polygon fill="#191970" stroke="#191970" points="317.4924,-31.1285 327.8925,-29.1069 318.5016,-24.2016 317.4924,-31.1285"/>
</g>
</g>
</svg>
