<?xml version="1.0" encoding="UTF-8" standalone="no"?>
<!DOCTYPE svg PUBLIC "-//W3C//DTD SVG 1.1//EN"
 "http://www.w3.org/Graphics/SVG/1.1/DTD/svg11.dtd">
<!-- Generated by graphviz version 2.40.1 (20161225.0304)
 -->
<!-- Title: mom_remapping::remapping_set_param Pages: 1 -->
<svg width="945pt" height="382pt"
 viewBox="0.00 0.00 945.00 382.00" xmlns="http://www.w3.org/2000/svg" xmlns:xlink="http://www.w3.org/1999/xlink">
<g id="graph0" class="graph" transform="scale(1 1) rotate(0) translate(4 378)">
<title>mom_remapping::remapping_set_param</title>
<polygon fill="#ffffff" stroke="transparent" points="-4,4 -4,-378 941,-378 941,4 -4,4"/>
<!-- Node1 -->
<g id="node1" class="node">
<title>Node1</title>
<g id="a_node1"><a xlink:title="Set parameters within remapping object.">
<polygon fill="#bfbfbf" stroke="#000000" points="787,-196.5 787,-226.5 937,-226.5 937,-196.5 787,-196.5"/>
<text text-anchor="start" x="795" y="-214.5" font-family="Helvetica,sans-Serif" font-size="10.00" fill="#000000">mom_remapping::remapping</text>
<text text-anchor="middle" x="862" y="-203.5" font-family="Helvetica,sans-Serif" font-size="10.00" fill="#000000">_set_param</text>
</a>
</g>
</g>
<!-- Node2 -->
<g id="node2" class="node">
<title>Node2</title>
<g id="a_node2"><a xlink:href="namespacemom__remapping.html#a6847e0c44ccb54fb72587677f90d95b6" target="_top" xlink:title="Constructor for remapping control structure.">
<polygon fill="#ffffff" stroke="#000000" points="614,-196.5 614,-226.5 751,-226.5 751,-196.5 614,-196.5"/>
<text text-anchor="start" x="622" y="-214.5" font-family="Helvetica,sans-Serif" font-size="10.00" fill="#000000">mom_remapping::initialize</text>
<text text-anchor="middle" x="682.5" y="-203.5" font-family="Helvetica,sans-Serif" font-size="10.00" fill="#000000">_remapping</text>
</a>
</g>
</g>
<!-- Node1&#45;&gt;Node2 -->
<g id="edge1" class="edge">
<title>Node1&#45;&gt;Node2</title>
<path fill="none" stroke="#191970" d="M776.8818,-211.5C768.296,-211.5 759.6536,-211.5 751.2698,-211.5"/>
<polygon fill="#191970" stroke="#191970" points="776.9159,-215.0001 786.9159,-211.5 776.9159,-208.0001 776.9159,-215.0001"/>
</g>
<!-- Node3 -->
<g id="node3" class="node">
<title>Node3</title>
<g id="a_node3"><a xlink:href="namespacemom__oda__driver__mod.html#aaaf67b8d0e0db3ba3dfe09e24d2b8b24" target="_top" xlink:title="initialize First_guess (prior) and Analysis grid information for all ensemble members">
<polygon fill="#ffffff" stroke="#000000" points="442,-343.5 442,-373.5 564,-373.5 564,-343.5 442,-343.5"/>
<text text-anchor="start" x="450" y="-361.5" font-family="Helvetica,sans-Serif" font-size="10.00" fill="#000000">mom_oda_driver_mod</text>
<text text-anchor="middle" x="503" y="-350.5" font-family="Helvetica,sans-Serif" font-size="10.00" fill="#000000">::init_oda</text>
</a>
</g>
</g>
<!-- Node2&#45;&gt;Node3 -->
<g id="edge2" class="edge">
<title>Node2&#45;&gt;Node3</title>
<path fill="none" stroke="#191970" d="M668.117,-235.405C650.2837,-263.089 617.3764,-308.2423 578,-334.5 572.8816,-337.9132 567.2452,-340.868 561.431,-343.4201"/>
<polygon fill="#191970" stroke="#191970" points="671.2073,-237.0657 673.5745,-226.7387 665.284,-233.3356 671.2073,-237.0657"/>
</g>
<!-- Node4 -->
<g id="node4" class="node">
<title>Node4</title>
<g id="a_node4"><a xlink:href="namespacemom__ale__sponge.html#a15129d167423dc162d22ef7cf4742651" target="_top" xlink:title="This subroutine determines the number of points which are within sponges in this computational domain...">
<polygon fill="#ffffff" stroke="#000000" points="431.5,-294.5 431.5,-324.5 574.5,-324.5 574.5,-294.5 431.5,-294.5"/>
<text text-anchor="start" x="439.5" y="-312.5" font-family="Helvetica,sans-Serif" font-size="10.00" fill="#000000">mom_ale_sponge::initialize</text>
<text text-anchor="middle" x="503" y="-301.5" font-family="Helvetica,sans-Serif" font-size="10.00" fill="#000000">_ale_sponge_fixed</text>
</a>
</g>
</g>
<!-- Node2&#45;&gt;Node4 -->
<g id="edge3" class="edge">
<title>Node2&#45;&gt;Node4</title>
<path fill="none" stroke="#191970" d="M656.8731,-233.0468C636.5443,-249.2706 606.8454,-271.103 578,-285.5 571.3946,-288.7968 564.2387,-291.7707 557.0585,-294.4111"/>
<polygon fill="#191970" stroke="#191970" points="659.1477,-235.7085 664.7153,-226.6944 654.7417,-230.269 659.1477,-235.7085"/>
</g>
<!-- Node5 -->
<g id="node5" class="node">
<title>Node5</title>
<g id="a_node5"><a xlink:href="namespacemom__ale__sponge.html#a0febb96fb2fd40a72580d078ca023098" target="_top" xlink:title="This subroutine determines the number of points which are within sponges in this computational domain...">
<polygon fill="#ffffff" stroke="#000000" points="431.5,-245.5 431.5,-275.5 574.5,-275.5 574.5,-245.5 431.5,-245.5"/>
<text text-anchor="start" x="439.5" y="-263.5" font-family="Helvetica,sans-Serif" font-size="10.00" fill="#000000">mom_ale_sponge::initialize</text>
<text text-anchor="middle" x="503" y="-252.5" font-family="Helvetica,sans-Serif" font-size="10.00" fill="#000000">_ale_sponge_varying</text>
</a>
</g>
</g>
<!-- Node2&#45;&gt;Node5 -->
<g id="edge4" class="edge">
<title>Node2&#45;&gt;Node5</title>
<path fill="none" stroke="#191970" d="M617.4826,-229.2485C598.0284,-234.5591 576.8925,-240.3288 558.1379,-245.4484"/>
<polygon fill="#191970" stroke="#191970" points="618.4541,-232.6114 627.1794,-226.6014 616.6107,-225.8585 618.4541,-232.6114"/>
</g>
<!-- Node6 -->
<g id="node6" class="node">
<title>Node6</title>
<g id="a_node6"><a xlink:href="namespacemom__open__boundary.html#adb17aba34a8aaceb524910d2e1196a0c" target="_top" xlink:title="Allocate space for reading OBC data from files. It sets up the required vertical remapping....">
<polygon fill="#ffffff" stroke="#000000" points="439,-196.5 439,-226.5 567,-226.5 567,-196.5 439,-196.5"/>
<text text-anchor="start" x="447" y="-214.5" font-family="Helvetica,sans-Serif" font-size="10.00" fill="#000000">mom_open_boundary::</text>
<text text-anchor="middle" x="503" y="-203.5" font-family="Helvetica,sans-Serif" font-size="10.00" fill="#000000">initialize_segment_data</text>
</a>
</g>
</g>
<!-- Node2&#45;&gt;Node6 -->
<g id="edge5" class="edge">
<title>Node2&#45;&gt;Node6</title>
<path fill="none" stroke="#191970" d="M603.6981,-211.5C591.4872,-211.5 579.0019,-211.5 567.1645,-211.5"/>
<polygon fill="#191970" stroke="#191970" points="603.8704,-215.0001 613.8704,-211.5 603.8704,-208.0001 603.8704,-215.0001"/>
</g>
<!-- Node8 -->
<g id="node8" class="node">
<title>Node8</title>
<g id="a_node8"><a xlink:href="namespacemom__tidal__mixing.html#a30a24b88982a5134253679d9484b3708" target="_top" xlink:title="This subroutine reads tidal input energy from a file by constituent.">
<polygon fill="#ffffff" stroke="#000000" points="439.5,-147.5 439.5,-177.5 566.5,-177.5 566.5,-147.5 439.5,-147.5"/>
<text text-anchor="start" x="447.5" y="-165.5" font-family="Helvetica,sans-Serif" font-size="10.00" fill="#000000">mom_tidal_mixing::read</text>
<text text-anchor="middle" x="503" y="-154.5" font-family="Helvetica,sans-Serif" font-size="10.00" fill="#000000">_tidal_constituents</text>
</a>
</g>
</g>
<!-- Node2&#45;&gt;Node8 -->
<g id="edge7" class="edge">
<title>Node2&#45;&gt;Node8</title>
<path fill="none" stroke="#191970" d="M617.4826,-193.7515C598.0284,-188.4409 576.8925,-182.6712 558.1379,-177.5516"/>
<polygon fill="#191970" stroke="#191970" points="616.6107,-197.1415 627.1794,-196.3986 618.4541,-190.3886 616.6107,-197.1415"/>
</g>
<!-- Node11 -->
<g id="node11" class="node">
<title>Node11</title>
<g id="a_node11"><a xlink:href="namespacemom__remapping.html#a5849f564453d5ed76fb4feffd41eca26" target="_top" xlink:title="Runs unit tests on remapping functions. Should only be called from a single/root thread Returns True ...">
<polygon fill="#ffffff" stroke="#000000" points="428,-98.5 428,-128.5 578,-128.5 578,-98.5 428,-98.5"/>
<text text-anchor="start" x="436" y="-116.5" font-family="Helvetica,sans-Serif" font-size="10.00" fill="#000000">mom_remapping::remapping</text>
<text text-anchor="middle" x="503" y="-105.5" font-family="Helvetica,sans-Serif" font-size="10.00" fill="#000000">_unit_tests</text>
</a>
</g>
</g>
<!-- Node2&#45;&gt;Node11 -->
<g id="edge10" class="edge">
<title>Node2&#45;&gt;Node11</title>
<path fill="none" stroke="#191970" d="M656.4056,-190.0729C636.0365,-174.1622 606.5014,-152.8259 578,-138.5 570.6421,-134.8016 562.6133,-131.4636 554.6324,-128.5201"/>
<polygon fill="#191970" stroke="#191970" points="654.2643,-192.8417 664.2761,-196.3078 658.6109,-187.3547 654.2643,-192.8417"/>
</g>
<!-- Node15 -->
<g id="node15" class="node">
<title>Node15</title>
<g id="a_node15"><a xlink:href="namespacemom__wave__speed.html#a46e21529ec8098b0b19053afa133b971" target="_top" xlink:title="Initialize control structure for MOM_wave_speed.">
<polygon fill="#ffffff" stroke="#000000" points="436,-49.5 436,-79.5 570,-79.5 570,-49.5 436,-49.5"/>
<text text-anchor="start" x="444" y="-67.5" font-family="Helvetica,sans-Serif" font-size="10.00" fill="#000000">mom_wave_speed::wave</text>
<text text-anchor="middle" x="503" y="-56.5" font-family="Helvetica,sans-Serif" font-size="10.00" fill="#000000">_speed_init</text>
</a>
</g>
</g>
<!-- Node2&#45;&gt;Node15 -->
<g id="edge14" class="edge">
<title>Node2&#45;&gt;Node15</title>
<path fill="none" stroke="#191970" d="M668.117,-187.595C650.2837,-159.911 617.3764,-114.7577 578,-88.5 572.8816,-85.0868 567.2452,-82.132 561.431,-79.5799"/>
<polygon fill="#191970" stroke="#191970" points="665.284,-189.6644 673.5745,-196.2613 671.2073,-185.9343 665.284,-189.6644"/>
</g>
<!-- Node7 -->
<g id="node7" class="node">
<title>Node7</title>
<g id="a_node7"><a xlink:href="namespacemom__open__boundary.html#ac94938f1a657896ff03efd3864faa02a" target="_top" xlink:title="Enables OBC module and reads configuration parameters This routine is called from MOM_initialize_fixe...">
<polygon fill="#ffffff" stroke="#000000" points="266,-196.5 266,-226.5 391,-226.5 391,-196.5 266,-196.5"/>
<text text-anchor="start" x="274" y="-214.5" font-family="Helvetica,sans-Serif" font-size="10.00" fill="#000000">mom_open_boundary::</text>
<text text-anchor="middle" x="328.5" y="-203.5" font-family="Helvetica,sans-Serif" font-size="10.00" fill="#000000">open_boundary_config</text>
</a>
</g>
</g>
<!-- Node6&#45;&gt;Node7 -->
<g id="edge6" class="edge">
<title>Node6&#45;&gt;Node7</title>
<path fill="none" stroke="#191970" d="M428.2635,-211.5C415.9334,-211.5 403.2628,-211.5 391.2645,-211.5"/>
<polygon fill="#191970" stroke="#191970" points="428.5185,-215.0001 438.5184,-211.5 428.5184,-208.0001 428.5185,-215.0001"/>
</g>
<!-- Node9 -->
<g id="node9" class="node">
<title>Node9</title>
<g id="a_node9"><a xlink:href="namespacemom__tidal__mixing.html#adfd3a137ee6402fdcdfb7c46711e0e23" target="_top" xlink:title="This subroutine read tidal energy inputs from a file.">
<polygon fill="#ffffff" stroke="#000000" points="265,-147.5 265,-177.5 392,-177.5 392,-147.5 265,-147.5"/>
<text text-anchor="start" x="273" y="-165.5" font-family="Helvetica,sans-Serif" font-size="10.00" fill="#000000">mom_tidal_mixing::read</text>
<text text-anchor="middle" x="328.5" y="-154.5" font-family="Helvetica,sans-Serif" font-size="10.00" fill="#000000">_tidal_energy</text>
</a>
</g>
</g>
<!-- Node8&#45;&gt;Node9 -->
<g id="edge8" class="edge">
<title>Node8&#45;&gt;Node9</title>
<path fill="none" stroke="#191970" d="M428.866,-162.5C416.6618,-162.5 404.1073,-162.5 392.1871,-162.5"/>
<polygon fill="#191970" stroke="#191970" points="429.0135,-166.0001 439.0135,-162.5 429.0135,-159.0001 429.0135,-166.0001"/>
</g>
<!-- Node10 -->
<g id="node10" class="node">
<title>Node10</title>
<g id="a_node10"><a xlink:href="namespacemom__tidal__mixing.html#a6278fe41ef74ac23ba02ae1540104c5f" target="_top" xlink:title="Initializes internal tidal dissipation scheme for diapycnal mixing.">
<polygon fill="#ffffff" stroke="#000000" points="104,-147.5 104,-177.5 229,-177.5 229,-147.5 104,-147.5"/>
<text text-anchor="start" x="112" y="-165.5" font-family="Helvetica,sans-Serif" font-size="10.00" fill="#000000">mom_tidal_mixing::tidal</text>
<text text-anchor="middle" x="166.5" y="-154.5" font-family="Helvetica,sans-Serif" font-size="10.00" fill="#000000">_mixing_init</text>
</a>
</g>
</g>
<!-- Node9&#45;&gt;Node10 -->
<g id="edge9" class="edge">
<title>Node9&#45;&gt;Node10</title>
<path fill="none" stroke="#191970" d="M254.8918,-162.5C246.2694,-162.5 237.5343,-162.5 229.0818,-162.5"/>
<polygon fill="#191970" stroke="#191970" points="254.9383,-166.0001 264.9383,-162.5 254.9382,-159.0001 254.9383,-166.0001"/>
</g>
<!-- Node12 -->
<g id="node12" class="node">
<title>Node12</title>
<g id="a_node12"><a xlink:href="namespacemom__unit__tests.html#a57645db02bc734c32de50d028ef906ac" target="_top" xlink:title="Calls unit tests for other modules. Note that if a unit test returns true, a FATAL error is triggered...">
<polygon fill="#ffffff" stroke="#000000" points="273,-98.5 273,-128.5 384,-128.5 384,-98.5 273,-98.5"/>
<text text-anchor="start" x="281" y="-116.5" font-family="Helvetica,sans-Serif" font-size="10.00" fill="#000000">mom_unit_tests::unit</text>
<text text-anchor="middle" x="328.5" y="-105.5" font-family="Helvetica,sans-Serif" font-size="10.00" fill="#000000">_tests</text>
</a>
</g>
</g>
<!-- Node11&#45;&gt;Node12 -->
<g id="edge11" class="edge">
<title>Node11&#45;&gt;Node12</title>
<path fill="none" stroke="#191970" d="M417.9479,-113.5C406.4906,-113.5 394.9827,-113.5 384.2152,-113.5"/>
<polygon fill="#191970" stroke="#191970" points="417.9836,-117.0001 427.9836,-113.5 417.9836,-110.0001 417.9836,-117.0001"/>
</g>
<!-- Node13 -->
<g id="node13" class="node">
<title>Node13</title>
<g id="a_node13"><a xlink:href="namespacemom.html#a96708b16215666edbfa5b46228f3a200" target="_top" xlink:title="Initialize MOM, including memory allocation, setting up parameters and diagnostics,...">
<polygon fill="#ffffff" stroke="#000000" points="111.5,-104 111.5,-123 221.5,-123 221.5,-104 111.5,-104"/>
<text text-anchor="middle" x="166.5" y="-111" font-family="Helvetica,sans-Serif" font-size="10.00" fill="#000000">mom::initialize_mom</text>
</a>
</g>
</g>
<!-- Node12&#45;&gt;Node13 -->
<g id="edge12" class="edge">
<title>Node12&#45;&gt;Node13</title>
<path fill="none" stroke="#191970" d="M262.4867,-113.5C248.8833,-113.5 234.6956,-113.5 221.5312,-113.5"/>
<polygon fill="#191970" stroke="#191970" points="262.7488,-117.0001 272.7488,-113.5 262.7488,-110.0001 262.7488,-117.0001"/>
</g>
<!-- Node14 -->
<g id="node14" class="node">
<title>Node14</title>
<g id="a_node14"><a xlink:href="MOM__driver_8F90.html#a08fffeb2d8e8acbf9ed4609be6d258c6" target="_top" xlink:title=" ">
<polygon fill="#ffffff" stroke="#000000" points="0,-104 0,-123 68,-123 68,-104 0,-104"/>
<text text-anchor="middle" x="34" y="-111" font-family="Helvetica,sans-Serif" font-size="10.00" fill="#000000">mom_main</text>
</a>
</g>
</g>
<!-- Node13&#45;&gt;Node14 -->
<g id="edge13" class="edge">
<title>Node13&#45;&gt;Node14</title>
<path fill="none" stroke="#191970" d="M101.4225,-113.5C89.9483,-113.5 78.4271,-113.5 68.2364,-113.5"/>
<polygon fill="#191970" stroke="#191970" points="101.4592,-117.0001 111.4592,-113.5 101.4591,-110.0001 101.4592,-117.0001"/>
</g>
<!-- Node16 -->
<g id="node16" class="node">
<title>Node16</title>
<g id="a_node16"><a xlink:href="namespacemom__diagnostics.html#ae8281123dfff124b0a362ea9fd1e0078" target="_top" xlink:title="This subroutine registers various diagnostics and allocates space for fields that other diagnostis de...">
<polygon fill="#ffffff" stroke="#000000" points="266,-49.5 266,-79.5 391,-79.5 391,-49.5 266,-49.5"/>
<text text-anchor="start" x="274" y="-67.5" font-family="Helvetica,sans-Serif" font-size="10.00" fill="#000000">mom_diagnostics::mom</text>
<text text-anchor="middle" x="328.5" y="-56.5" font-family="Helvetica,sans-Serif" font-size="10.00" fill="#000000">_diagnostics_init</text>
</a>
</g>
</g>
<!-- Node15&#45;&gt;Node16 -->
<g id="edge15" class="edge">
<title>Node15&#45;&gt;Node16</title>
<path fill="none" stroke="#191970" d="M425.5259,-64.5C414.0476,-64.5 402.3408,-64.5 391.2135,-64.5"/>
<polygon fill="#191970" stroke="#191970" points="425.5338,-68.0001 435.5337,-64.5 425.5337,-61.0001 425.5338,-68.0001"/>
</g>
<!-- Node17 -->
<g id="node17" class="node">
<title>Node17</title>
<g id="a_node17"><a xlink:href="namespacemom__lateral__mixing__coeffs.html#a1070a864ca570c00f483a8617afca133" target="_top" xlink:title="Initializes the variables mixing coefficients container.">
<polygon fill="#ffffff" stroke="#000000" points="273.5,-.5 273.5,-30.5 383.5,-30.5 383.5,-.5 273.5,-.5"/>
<text text-anchor="start" x="281.5" y="-18.5" font-family="Helvetica,sans-Serif" font-size="10.00" fill="#000000">mom_lateral_mixing</text>
<text text-anchor="middle" x="328.5" y="-7.5" font-family="Helvetica,sans-Serif" font-size="10.00" fill="#000000">_coeffs::varmix_init</text>
</a>
</g>
</g>
<!-- Node15&#45;&gt;Node17 -->
<g id="edge16" class="edge">
<title>Node15&#45;&gt;Node17</title>
<path fill="none" stroke="#191970" d="M439.5345,-46.6788C420.6938,-41.3882 400.251,-35.6478 382.102,-30.5516"/>
<polygon fill="#191970" stroke="#191970" points="438.6465,-50.0647 449.2204,-49.3986 440.539,-43.3254 438.6465,-50.0647"/>
</g>
</g>
</svg>
