<?xml version="1.0" encoding="UTF-8" standalone="no"?>
<!DOCTYPE svg PUBLIC "-//W3C//DTD SVG 1.1//EN"
 "http://www.w3.org/Graphics/SVG/1.1/DTD/svg11.dtd">
<!-- Generated by graphviz version 2.40.1 (20161225.0304)
 -->
<!-- Title: mom::step_mom_dynamics Pages: 1 -->
<!--zoomable 341 -->
<svg id="main" version="1.1" xmlns="http://www.w3.org/2000/svg" xmlns:xlink="http://www.w3.org/1999/xlink" xml:space="preserve" onload="init(evt)">
<style type="text/css"><![CDATA[
.edge:hover path { stroke: red; }
.edge:hover polygon { stroke: red; fill: red; }
]]></style>
<script type="text/javascript"><![CDATA[
var edges = document.getElementsByTagName('g');
if (edges && edges.length) {
  for (var i=0;i<edges.length;i++) {
    if (edges[i].id.substr(0,4)=='edge') {
      edges[i].setAttribute('class','edge');
    }
  }
}
]]></script>
        <defs>
                <circle id="rim" cx="0" cy="0" r="7"/>
                <circle id="rim2" cx="0" cy="0" r="3.5"/>
                <g id="zoomPlus">
                        <use xlink:href="#rim" fill="#404040">
                                <set attributeName="fill" to="#808080" begin="zoomplus.mouseover" end="zoomplus.mouseout"/>
                        </use>
                        <path d="M-4,0h8M0,-4v8" fill="none" stroke="white" stroke-width="1.5" pointer-events="none"/>
                </g>
                <g id="zoomMin">
                        <use xlink:href="#rim" fill="#404040">
                                <set attributeName="fill" to="#808080" begin="zoomminus.mouseover" end="zoomminus.mouseout"/>
                        </use>
                        <path d="M-4,0h8" fill="none" stroke="white" stroke-width="1.5" pointer-events="none"/>
                </g>
                <g id="dirArrow">
                        <path fill="none" stroke="white" stroke-width="1.5" d="M0,-3.0v7 M-2.5,-0.5L0,-3.0L2.5,-0.5"/>
                </g>
               <g id="resetDef">
                       <use xlink:href="#rim2" fill="#404040">
                               <set attributeName="fill" to="#808080" begin="reset.mouseover" end="reset.mouseout"/>
                       </use>
               </g>
        </defs>

<script type="text/javascript">
var viewWidth = 929;
var viewHeight = 341;
var sectionId = 'dynsection-20';
</script>
<script xlink:href="svgpan.js"/>
<svg id="graph" class="graph">
<g id="viewport">
<title>mom::step_mom_dynamics</title>
<polygon fill="#ffffff" stroke="transparent" points="-4,4 -4,-337 925,-337 925,4 -4,4"/>
<!-- Node1 -->
<g id="node1" class="node">
<title>Node1</title>
<g id="a_node1"><a xlink:title="Time step the ocean dynamics, including the momentum and continuity equations.">
<polygon fill="#bfbfbf" stroke="#000000" points="0,-248 0,-267 143,-267 143,-248 0,-248"/>
<text text-anchor="middle" x="71.5" y="-255" font-family="Helvetica,sans-Serif" font-size="10.00" fill="#000000">mom::step_mom_dynamics</text>
</a>
</g>
</g>
<!-- Node2 -->
<g id="node2" class="node">
<title>Node2</title>
<g id="a_node2"><a xlink:href="namespacemom__error__handler.html#a34a02e601a60f03cb97a72fe25a32853" target="_top" xlink:title="Writes a message about reaching a milestone if call tree reporting is active.">
<polygon fill="#ffffff" stroke="#000000" points="206,-302.5 206,-332.5 321,-332.5 321,-302.5 206,-302.5"/>
<text text-anchor="start" x="214" y="-320.5" font-family="Helvetica,sans-Serif" font-size="10.00" fill="#000000">mom_error_handler::</text>
<text text-anchor="middle" x="263.5" y="-309.5" font-family="Helvetica,sans-Serif" font-size="10.00" fill="#000000">calltree_waypoint</text>
</a>
</g>
</g>
<!-- Node1&#45;&gt;Node2 -->
<g id="edge1" class="edge">
<title>Node1&#45;&gt;Node2</title>
<path fill="none" stroke="#191970" d="M101.923,-267.0072C129.64,-275.6688 171.3272,-288.696 205.4153,-299.3485"/>
<polygon fill="#191970" stroke="#191970" points="204.6784,-302.7851 215.2672,-302.4272 206.7663,-296.1037 204.6784,-302.7851"/>
</g>
<!-- Node4 -->
<g id="node4" class="node">
<title>Node4</title>
<g id="a_node4"><a xlink:href="namespacemom__meke.html#a5f752f097ddeba7071e1703110e51bc2" target="_top" xlink:title="Integrates forward&#45;in&#45;time the MEKE eddy energy equation. See MEKE equations.">
<polygon fill="#ffffff" stroke="#000000" points="179,-248 179,-267 348,-267 348,-248 179,-248"/>
<text text-anchor="middle" x="263.5" y="-255" font-family="Helvetica,sans-Serif" font-size="10.00" fill="#000000">mom_meke::step_forward_meke</text>
</a>
</g>
</g>
<!-- Node1&#45;&gt;Node4 -->
<g id="edge3" class="edge">
<title>Node1&#45;&gt;Node4</title>
<path fill="none" stroke="#191970" d="M143.2667,-257.5C151.6114,-257.5 160.2174,-257.5 168.8095,-257.5"/>
<polygon fill="#191970" stroke="#191970" points="168.8729,-261.0001 178.8729,-257.5 168.8728,-254.0001 168.8729,-261.0001"/>
</g>
<!-- Node9 -->
<g id="node9" class="node">
<title>Node9</title>
<g id="a_node9"><a xlink:href="namespacemom__thickness__diffuse.html#a8a538b778a567f489bfd9c5eadeeebef" target="_top" xlink:title="Calculates thickness diffusion coefficients and applies thickness diffusion to layer thicknesses,...">
<polygon fill="#ffffff" stroke="#000000" points="200.5,-122.5 200.5,-152.5 326.5,-152.5 326.5,-122.5 200.5,-122.5"/>
<text text-anchor="start" x="208.5" y="-140.5" font-family="Helvetica,sans-Serif" font-size="10.00" fill="#000000">mom_thickness_diffuse</text>
<text text-anchor="middle" x="263.5" y="-129.5" font-family="Helvetica,sans-Serif" font-size="10.00" fill="#000000">::thickness_diffuse</text>
</a>
</g>
</g>
<!-- Node1&#45;&gt;Node9 -->
<g id="edge10" class="edge">
<title>Node1&#45;&gt;Node9</title>
<path fill="none" stroke="#191970" d="M86.8876,-247.8827C117.9763,-228.4523 188.8699,-184.1438 230.7713,-157.9554"/>
<polygon fill="#191970" stroke="#191970" points="232.8744,-160.7684 239.4994,-152.5004 229.1644,-154.8324 232.8744,-160.7684"/>
</g>
<!-- Node3 -->
<g id="node3" class="node">
<title>Node3</title>
<g id="a_node3"><a xlink:href="namespacemom__error__handler.html#ad5f00a53059c72fe2332d1436c80ca71" target="_top" xlink:title="This returns .true. if the current PE is the root PE.">
<polygon fill="#ffffff" stroke="#000000" points="806,-242.5 806,-272.5 921,-272.5 921,-242.5 806,-242.5"/>
<text text-anchor="start" x="814" y="-260.5" font-family="Helvetica,sans-Serif" font-size="10.00" fill="#000000">mom_error_handler::</text>
<text text-anchor="middle" x="863.5" y="-249.5" font-family="Helvetica,sans-Serif" font-size="10.00" fill="#000000">is_root_pe</text>
</a>
</g>
</g>
<!-- Node2&#45;&gt;Node3 -->
<g id="edge2" class="edge">
<title>Node2&#45;&gt;Node3</title>
<path fill="none" stroke="#191970" d="M321.0805,-322.0782C416.1008,-328.0701 611.0437,-333.7408 770,-295.5 788.2285,-291.1147 807.5534,-283.7567 823.8736,-276.6771"/>
<polygon fill="#191970" stroke="#191970" points="825.3938,-279.8316 833.1045,-272.5655 822.5456,-273.4372 825.3938,-279.8316"/>
</g>
<!-- Node5 -->
<g id="node5" class="node">
<title>Node5</title>
<g id="a_node5"><a xlink:href="namespacemom__meke.html#a0ef9a8bcdf705b544db9b8c28a5e6a56" target="_top" xlink:title="Calculates the equilibrium solutino where the source depends only on MEKE diffusivity and there is no...">
<polygon fill="#ffffff" stroke="#000000" points="389.5,-286 389.5,-305 544.5,-305 544.5,-286 389.5,-286"/>
<text text-anchor="middle" x="467" y="-293" font-family="Helvetica,sans-Serif" font-size="10.00" fill="#000000">mom_meke::meke_equilibrium</text>
</a>
</g>
</g>
<!-- Node4&#45;&gt;Node5 -->
<g id="edge4" class="edge">
<title>Node4&#45;&gt;Node5</title>
<path fill="none" stroke="#191970" d="M314.589,-267.04C342.2877,-272.2122 376.711,-278.6401 405.8309,-284.0778"/>
<polygon fill="#191970" stroke="#191970" points="405.4174,-287.561 415.89,-285.9561 406.7024,-280.6799 405.4174,-287.561"/>
</g>
<!-- Node7 -->
<g id="node7" class="node">
<title>Node7</title>
<g id="a_node7"><a xlink:href="namespacemom__meke.html#a8180d5d0cacf48bcbdffead9e6a06efd" target="_top" xlink:title="Calculates the eddy mixing length scale and &#160;and &#160;functions that are ratios of either bottom or barot...">
<polygon fill="#ffffff" stroke="#000000" points="384,-248 384,-267 550,-267 550,-248 384,-248"/>
<text text-anchor="middle" x="467" y="-255" font-family="Helvetica,sans-Serif" font-size="10.00" fill="#000000">mom_meke::meke_lengthscales</text>
</a>
</g>
</g>
<!-- Node4&#45;&gt;Node7 -->
<g id="edge6" class="edge">
<title>Node4&#45;&gt;Node7</title>
<path fill="none" stroke="#191970" d="M348.0344,-257.5C356.4191,-257.5 364.9644,-257.5 373.4335,-257.5"/>
<polygon fill="#191970" stroke="#191970" points="373.7105,-261.0001 383.7104,-257.5 373.7104,-254.0001 373.7105,-261.0001"/>
</g>
<!-- Node8 -->
<g id="node8" class="node">
<title>Node8</title>
<g id="a_node8"><a xlink:href="namespacemom__error__handler.html#a460cfb79a06c29fc249952c2a3710d67" target="_top" xlink:title="This provides a convenient interface for writing an mpp_error message with run&#45;time filter based on a...">
<polygon fill="#ffffff" stroke="#000000" points="620.5,-166.5 620.5,-196.5 735.5,-196.5 735.5,-166.5 620.5,-166.5"/>
<text text-anchor="start" x="628.5" y="-184.5" font-family="Helvetica,sans-Serif" font-size="10.00" fill="#000000">mom_error_handler::</text>
<text text-anchor="middle" x="678" y="-173.5" font-family="Helvetica,sans-Serif" font-size="10.00" fill="#000000">mom_error</text>
</a>
</g>
</g>
<!-- Node4&#45;&gt;Node8 -->
<g id="edge8" class="edge">
<title>Node4&#45;&gt;Node8</title>
<path fill="none" stroke="#191970" d="M315.577,-247.9515C390.3016,-234.2505 527.9986,-209.0033 610.4645,-193.8829"/>
<polygon fill="#191970" stroke="#191970" points="611.2816,-197.2915 620.4864,-192.0453 610.0191,-190.4063 611.2816,-197.2915"/>
</g>
<!-- Node6 -->
<g id="node6" class="node">
<title>Node6</title>
<g id="a_node6"><a xlink:href="namespacemom__meke.html#a94cd50f776e4a1af3f865a2bcdd5fbf9" target="_top" xlink:title="Calculates the eddy mixing length scale and &#160;and &#160;functions that are ratios of either bottom or barot...">
<polygon fill="#ffffff" stroke="#000000" points="586,-267 586,-286 770,-286 770,-267 586,-267"/>
<text text-anchor="middle" x="678" y="-274" font-family="Helvetica,sans-Serif" font-size="10.00" fill="#000000">mom_meke::meke_lengthscales_0d</text>
</a>
</g>
</g>
<!-- Node5&#45;&gt;Node6 -->
<g id="edge5" class="edge">
<title>Node5&#45;&gt;Node6</title>
<path fill="none" stroke="#191970" d="M544.6697,-288.506C554.8211,-287.5919 565.3427,-286.6445 575.8207,-285.701"/>
<polygon fill="#191970" stroke="#191970" points="576.1938,-289.1816 585.8396,-284.7988 575.566,-282.2098 576.1938,-289.1816"/>
</g>
<!-- Node7&#45;&gt;Node6 -->
<g id="edge7" class="edge">
<title>Node7&#45;&gt;Node6</title>
<path fill="none" stroke="#191970" d="M550.0899,-264.982C558.5446,-265.7434 567.2006,-266.5228 575.8269,-267.2996"/>
<polygon fill="#191970" stroke="#191970" points="575.6523,-270.7979 585.9259,-268.209 576.2801,-263.8261 575.6523,-270.7979"/>
</g>
<!-- Node8&#45;&gt;Node3 -->
<g id="edge9" class="edge">
<title>Node8&#45;&gt;Node3</title>
<path fill="none" stroke="#191970" d="M714.6488,-196.5152C744.025,-208.5507 785.4281,-225.5137 817.1131,-238.4951"/>
<polygon fill="#191970" stroke="#191970" points="816.0299,-241.8336 826.6103,-242.3862 818.6837,-235.3562 816.0299,-241.8336"/>
</g>
<!-- Node9&#45;&gt;Node8 -->
<g id="edge14" class="edge">
<title>Node9&#45;&gt;Node8</title>
<path fill="none" stroke="#191970" d="M326.6888,-152.3448C345.079,-156.193 365.2623,-159.9635 384,-162.5 461.1415,-172.9426 550.4728,-177.6841 610.2345,-179.8124"/>
<polygon fill="#191970" stroke="#191970" points="610.1878,-183.3128 620.3014,-180.1562 610.4267,-176.3169 610.1878,-183.3128"/>
</g>
<!-- Node10 -->
<g id="node10" class="node">
<title>Node10</title>
<g id="a_node10"><a xlink:href="namespacemom__thickness__diffuse.html#ab6206370a3f642ad57c63b6e268ee0fb" target="_top" xlink:title="Modifies thickness diffusivities to untangle layer structures.">
<polygon fill="#ffffff" stroke="#000000" points="404,-122.5 404,-152.5 530,-152.5 530,-122.5 404,-122.5"/>
<text text-anchor="start" x="412" y="-140.5" font-family="Helvetica,sans-Serif" font-size="10.00" fill="#000000">mom_thickness_diffuse</text>
<text text-anchor="middle" x="467" y="-129.5" font-family="Helvetica,sans-Serif" font-size="10.00" fill="#000000">::add_detangling_kh</text>
</a>
</g>
</g>
<!-- Node9&#45;&gt;Node10 -->
<g id="edge11" class="edge">
<title>Node9&#45;&gt;Node10</title>
<path fill="none" stroke="#191970" d="M326.7732,-137.5C347.9252,-137.5 371.6788,-137.5 393.5398,-137.5"/>
<polygon fill="#191970" stroke="#191970" points="393.766,-141.0001 403.766,-137.5 393.7659,-134.0001 393.766,-141.0001"/>
</g>
<!-- Node11 -->
<g id="node11" class="node">
<title>Node11</title>
<g id="a_node11"><a xlink:href="namespacemom__diag__mediator.html#a2e9db121a293f242f5a42e9d16d0d2e4" target="_top" xlink:title="Build/update vertical grids for diagnostic remapping.">
<polygon fill="#ffffff" stroke="#000000" points="397,-73.5 397,-103.5 537,-103.5 537,-73.5 397,-73.5"/>
<text text-anchor="start" x="405" y="-91.5" font-family="Helvetica,sans-Serif" font-size="10.00" fill="#000000">mom_diag_mediator::</text>
<text text-anchor="middle" x="467" y="-80.5" font-family="Helvetica,sans-Serif" font-size="10.00" fill="#000000">diag_update_remap_grids</text>
</a>
</g>
</g>
<!-- Node9&#45;&gt;Node11 -->
<g id="edge12" class="edge">
<title>Node9&#45;&gt;Node11</title>
<path fill="none" stroke="#191970" d="M325.9397,-122.4654C347.7194,-117.2211 372.3388,-111.2931 394.8428,-105.8745"/>
<polygon fill="#191970" stroke="#191970" points="395.7756,-109.25 404.6784,-103.5062 394.1369,-102.4445 395.7756,-109.25"/>
</g>
<!-- Node12 -->
<g id="node12" class="node">
<title>Node12</title>
<g id="a_node12"><a xlink:href="namespacemom__thickness__diffuse.html#ae9909642254fcf0160afe46997e10c30" target="_top" xlink:title="Calculates parameterized layer transports for use in the continuity equation. Fluxes are limited to g...">
<polygon fill="#ffffff" stroke="#000000" points="404,-24.5 404,-54.5 530,-54.5 530,-24.5 404,-24.5"/>
<text text-anchor="start" x="412" y="-42.5" font-family="Helvetica,sans-Serif" font-size="10.00" fill="#000000">mom_thickness_diffuse</text>
<text text-anchor="middle" x="467" y="-31.5" font-family="Helvetica,sans-Serif" font-size="10.00" fill="#000000">::thickness_diffuse_full</text>
</a>
</g>
</g>
<!-- Node9&#45;&gt;Node12 -->
<g id="edge15" class="edge">
<title>Node9&#45;&gt;Node12</title>
<path fill="none" stroke="#191970" d="M284.8022,-122.3103C308.2046,-106.1794 347.35,-80.8063 384,-64.5 389.285,-62.1486 394.8542,-59.9397 400.5029,-57.8835"/>
<polygon fill="#191970" stroke="#191970" points="401.7498,-61.1556 410.0485,-54.5691 399.4537,-54.5429 401.7498,-61.1556"/>
</g>
<!-- Node11&#45;&gt;Node8 -->
<g id="edge13" class="edge">
<title>Node11&#45;&gt;Node8</title>
<path fill="none" stroke="#191970" d="M522.4445,-103.5501C531.7537,-106.545 541.2326,-109.8915 550,-113.5 583.1592,-127.1476 619.0635,-146.6713 644.3825,-161.3007"/>
<polygon fill="#191970" stroke="#191970" points="642.8057,-164.4328 653.207,-166.449 646.3333,-158.3866 642.8057,-164.4328"/>
</g>
<!-- Node12&#45;&gt;Node8 -->
<g id="edge16" class="edge">
<title>Node12&#45;&gt;Node8</title>
<path fill="none" stroke="#191970" d="M528.5916,-54.6266C536.0175,-57.437 543.3263,-60.7094 550,-64.5 573.289,-77.7278 626.0344,-129.0839 656.042,-159.1799"/>
<polygon fill="#191970" stroke="#191970" points="653.6196,-161.7076 663.1494,-166.3372 658.5867,-156.7752 653.6196,-161.7076"/>
</g>
<!-- Node13 -->
<g id="node13" class="node">
<title>Node13</title>
<g id="a_node13"><a xlink:href="namespacemom__thickness__diffuse.html#a52d5fe57d53414fdc05f669723c9774e" target="_top" xlink:title="Tridiagonal solver for streamfunction at interfaces.">
<polygon fill="#ffffff" stroke="#000000" points="615,-49.5 615,-79.5 741,-79.5 741,-49.5 615,-49.5"/>
<text text-anchor="start" x="623" y="-67.5" font-family="Helvetica,sans-Serif" font-size="10.00" fill="#000000">mom_thickness_diffuse</text>
<text text-anchor="middle" x="678" y="-56.5" font-family="Helvetica,sans-Serif" font-size="10.00" fill="#000000">::streamfn_solver</text>
</a>
</g>
</g>
<!-- Node12&#45;&gt;Node13 -->
<g id="edge17" class="edge">
<title>Node12&#45;&gt;Node13</title>
<path fill="none" stroke="#191970" d="M530.0212,-46.967C553.5036,-49.7492 580.3567,-52.9309 604.6847,-55.8134"/>
<polygon fill="#191970" stroke="#191970" points="604.5969,-59.3273 614.9392,-57.0283 605.4205,-52.376 604.5969,-59.3273"/>
</g>
<!-- Node14 -->
<g id="node14" class="node">
<title>Node14</title>
<g id="a_node14"><a xlink:href="namespacemom__thickness__diffuse.html#aff6aa879773518e476ed0a603a1a301e" target="_top" xlink:title="Fills tracer values in massless layers with sensible values by diffusing vertically with a (small) co...">
<polygon fill="#ffffff" stroke="#000000" points="615,-.5 615,-30.5 741,-30.5 741,-.5 615,-.5"/>
<text text-anchor="start" x="623" y="-18.5" font-family="Helvetica,sans-Serif" font-size="10.00" fill="#000000">mom_thickness_diffuse</text>
<text text-anchor="middle" x="678" y="-7.5" font-family="Helvetica,sans-Serif" font-size="10.00" fill="#000000">::vert_fill_ts</text>
</a>
</g>
</g>
<!-- Node12&#45;&gt;Node14 -->
<g id="edge18" class="edge">
<title>Node12&#45;&gt;Node14</title>
<path fill="none" stroke="#191970" d="M530.0212,-32.3317C553.5036,-29.6607 580.3567,-26.6063 604.6847,-23.8392"/>
<polygon fill="#191970" stroke="#191970" points="605.3989,-27.2806 614.9392,-22.6728 604.6077,-20.3255 605.3989,-27.2806"/>
</g>
</g>
</svg>
        <g id="navigator" transform="translate(0 0)" fill="#404254">
                <rect fill="#f2f5e9" fill-opacity="0.5" stroke="#606060" stroke-width=".5" x="0" y="0" width="60" height="60"/>
                <use id="zoomplus" xlink:href="#zoomPlus" x="17" y="9" onmousedown="handleZoom(evt,'in')"/>
                <use id="zoomminus" xlink:href="#zoomMin" x="42" y="9" onmousedown="handleZoom(evt,'out')"/>
                <use id="reset" xlink:href="#resetDef" x="30" y="36" onmousedown="handleReset()"/>
                <g id="arrowUp" xlink:href="#dirArrow" transform="translate(30 24)" onmousedown="handlePan(0,-1)">
                  <use xlink:href="#rim" fill="#404040">
                        <set attributeName="fill" to="#808080" begin="arrowUp.mouseover" end="arrowUp.mouseout"/>
                  </use>
                  <path fill="none" stroke="white" stroke-width="1.5" d="M0,-3.0v7 M-2.5,-0.5L0,-3.0L2.5,-0.5"/>
                </g>
                <g id="arrowRight" xlink:href="#dirArrow" transform="rotate(90) translate(36 -43)" onmousedown="handlePan(1,0)">
                  <use xlink:href="#rim" fill="#404040">
                        <set attributeName="fill" to="#808080" begin="arrowRight.mouseover" end="arrowRight.mouseout"/>
                  </use>
                  <path fill="none" stroke="white" stroke-width="1.5" d="M0,-3.0v7 M-2.5,-0.5L0,-3.0L2.5,-0.5"/>
                </g>
                <g id="arrowDown" xlink:href="#dirArrow" transform="rotate(180) translate(-30 -48)" onmousedown="handlePan(0,1)">
                  <use xlink:href="#rim" fill="#404040">
                        <set attributeName="fill" to="#808080" begin="arrowDown.mouseover" end="arrowDown.mouseout"/>
                  </use>
                  <path fill="none" stroke="white" stroke-width="1.5" d="M0,-3.0v7 M-2.5,-0.5L0,-3.0L2.5,-0.5"/>
                </g>
                <g id="arrowLeft" xlink:href="#dirArrow" transform="rotate(270) translate(-36 17)" onmousedown="handlePan(-1,0)">
                  <use xlink:href="#rim" fill="#404040">
                        <set attributeName="fill" to="#808080" begin="arrowLeft.mouseover" end="arrowLeft.mouseout"/>
                  </use>
                  <path fill="none" stroke="white" stroke-width="1.5" d="M0,-3.0v7 M-2.5,-0.5L0,-3.0L2.5,-0.5"/>
                </g>
        </g>
        <svg viewBox="0 0 15 15" width="100%" height="30px" preserveAspectRatio="xMaxYMin meet">
         <g id="arrow_out" transform="scale(0.3 0.3)">
          <a xlink:href="namespacemom_a42ee7e91ffcf1340679e29ab28d9b41d_cgraph_org.svg" target="_base">
           <rect id="button" ry="5" rx="5" y="6" x="6" height="38" width="38"
                fill="#f2f5e9" fill-opacity="0.5" stroke="#606060" stroke-width="1.0"/>
           <path id="arrow"
             d="M 11.500037,31.436501 C 11.940474,20.09759 22.043105,11.32322 32.158766,21.979434 L 37.068811,17.246167 C 37.068811,17.246167 37.088388,32 37.088388,32 L 22.160133,31.978069 C 22.160133,31.978069 26.997745,27.140456 26.997745,27.140456 C 18.528582,18.264221 13.291696,25.230495 11.500037,31.436501 z"
             style="fill:#404040;"/>
          </a>
         </g>
        </svg>
</svg>
