<?xml version="1.0" encoding="UTF-8" standalone="no"?>
<!DOCTYPE svg PUBLIC "-//W3C//DTD SVG 1.1//EN"
 "http://www.w3.org/Graphics/SVG/1.1/DTD/svg11.dtd">
<!-- Generated by graphviz version 2.40.1 (20161225.0304)
 -->
<!-- Title: mom::extract_surface_state Pages: 1 -->
<svg width="434pt" height="137pt"
 viewBox="0.00 0.00 434.00 137.00" xmlns="http://www.w3.org/2000/svg" xmlns:xlink="http://www.w3.org/1999/xlink">
<g id="graph0" class="graph" transform="scale(1 1) rotate(0) translate(4 133)">
<title>mom::extract_surface_state</title>
<polygon fill="#ffffff" stroke="transparent" points="-4,4 -4,-133 430,-133 430,4 -4,4"/>
<!-- Node1 -->
<g id="node1" class="node">
<title>Node1</title>
<g id="a_node1"><a xlink:title="Set the surface (return) properties of the ocean model by setting the appropriate fields in sfc_state...">
<polygon fill="#bfbfbf" stroke="#000000" points="0,-49.5 0,-79.5 112,-79.5 112,-49.5 0,-49.5"/>
<text text-anchor="start" x="8" y="-67.5" font-family="Helvetica,sans-Serif" font-size="10.00" fill="#000000">mom::extract_surface</text>
<text text-anchor="middle" x="56" y="-56.5" font-family="Helvetica,sans-Serif" font-size="10.00" fill="#000000">_state</text>
</a>
</g>
</g>
<!-- Node2 -->
<g id="node2" class="node">
<title>Node2</title>
<g id="a_node2"><a xlink:href="namespacemom__error__handler.html#a9cda07a87815f0e5594066162b4345c3" target="_top" xlink:title="Writes a message about entering a subroutine if call tree reporting is active.">
<polygon fill="#ffffff" stroke="#000000" points="163,-98.5 163,-128.5 269,-128.5 269,-98.5 163,-98.5"/>
<text text-anchor="start" x="171" y="-116.5" font-family="Helvetica,sans-Serif" font-size="10.00" fill="#000000">mom_error_handler::</text>
<text text-anchor="middle" x="216" y="-105.5" font-family="Helvetica,sans-Serif" font-size="10.00" fill="#000000">calltree_enter</text>
</a>
</g>
</g>
<!-- Node1&#45;&gt;Node2 -->
<g id="edge1" class="edge">
<title>Node1&#45;&gt;Node2</title>
<path fill="none" stroke="#191970" d="M105.3108,-79.6014C121.6598,-84.6083 140.0243,-90.2324 157.0252,-95.439"/>
<polygon fill="#191970" stroke="#191970" points="156.2654,-98.8667 166.852,-98.4484 158.3152,-92.1735 156.2654,-98.8667"/>
</g>
<!-- Node4 -->
<g id="node4" class="node">
<title>Node4</title>
<g id="a_node4"><a xlink:href="namespacemom__error__handler.html#a88ea67781e2ed9b73ab7eac8ea5e8578" target="_top" xlink:title="Writes a message about leaving a subroutine if call tree reporting is active.">
<polygon fill="#ffffff" stroke="#000000" points="163,-49.5 163,-79.5 269,-79.5 269,-49.5 163,-49.5"/>
<text text-anchor="start" x="171" y="-67.5" font-family="Helvetica,sans-Serif" font-size="10.00" fill="#000000">mom_error_handler::</text>
<text text-anchor="middle" x="216" y="-56.5" font-family="Helvetica,sans-Serif" font-size="10.00" fill="#000000">calltree_leave</text>
</a>
</g>
</g>
<!-- Node1&#45;&gt;Node4 -->
<g id="edge3" class="edge">
<title>Node1&#45;&gt;Node4</title>
<path fill="none" stroke="#191970" d="M112.41,-64.5C125.4586,-64.5 139.4267,-64.5 152.7463,-64.5"/>
<polygon fill="#191970" stroke="#191970" points="152.7797,-68.0001 162.7796,-64.5 152.7796,-61.0001 152.7797,-68.0001"/>
</g>
<!-- Node5 -->
<g id="node5" class="node">
<title>Node5</title>
<g id="a_node5"><a xlink:href="namespacemom__checksum__packages.html#af70a5866a1bd6a5ea81ccab967bb2c39" target="_top" xlink:title="Write out chksums for the ocean surface variables.">
<polygon fill="#ffffff" stroke="#000000" points="148,-.5 148,-30.5 284,-30.5 284,-.5 148,-.5"/>
<text text-anchor="start" x="156" y="-18.5" font-family="Helvetica,sans-Serif" font-size="10.00" fill="#000000">mom_checksum_packages</text>
<text text-anchor="middle" x="216" y="-7.5" font-family="Helvetica,sans-Serif" font-size="10.00" fill="#000000">::mom_surface_chksum</text>
</a>
</g>
</g>
<!-- Node1&#45;&gt;Node5 -->
<g id="edge5" class="edge">
<title>Node1&#45;&gt;Node5</title>
<path fill="none" stroke="#191970" d="M105.3108,-49.3986C121.6598,-44.3917 140.0243,-38.7676 157.0252,-33.561"/>
<polygon fill="#191970" stroke="#191970" points="158.3152,-36.8265 166.852,-30.5516 156.2654,-30.1333 158.3152,-36.8265"/>
</g>
<!-- Node3 -->
<g id="node3" class="node">
<title>Node3</title>
<g id="a_node3"><a xlink:href="namespacemom__error__handler.html#ad5f00a53059c72fe2332d1436c80ca71" target="_top" xlink:title="This returns .true. if the current PE is the root PE.">
<polygon fill="#ffffff" stroke="#000000" points="320,-73.5 320,-103.5 426,-103.5 426,-73.5 320,-73.5"/>
<text text-anchor="start" x="328" y="-91.5" font-family="Helvetica,sans-Serif" font-size="10.00" fill="#000000">mom_error_handler::</text>
<text text-anchor="middle" x="373" y="-80.5" font-family="Helvetica,sans-Serif" font-size="10.00" fill="#000000">is_root_pe</text>
</a>
</g>
</g>
<!-- Node2&#45;&gt;Node3 -->
<g id="edge2" class="edge">
<title>Node2&#45;&gt;Node3</title>
<path fill="none" stroke="#191970" d="M269.153,-105.0361C282.1966,-102.9591 296.2861,-100.7156 309.7527,-98.5712"/>
<polygon fill="#191970" stroke="#191970" points="310.5765,-101.9842 319.9017,-96.9551 309.4757,-95.0713 310.5765,-101.9842"/>
</g>
<!-- Node4&#45;&gt;Node3 -->
<g id="edge4" class="edge">
<title>Node4&#45;&gt;Node3</title>
<path fill="none" stroke="#191970" d="M269.153,-72.6253C282.1966,-74.6192 296.2861,-76.773 309.7527,-78.8316"/>
<polygon fill="#191970" stroke="#191970" points="309.4876,-82.3317 319.9017,-80.3831 310.5454,-75.4121 309.4876,-82.3317"/>
</g>
</g>
</svg>
