<?xml version="1.0" encoding="UTF-8" standalone="no"?>
<!DOCTYPE svg PUBLIC "-//W3C//DTD SVG 1.1//EN"
 "http://www.w3.org/Graphics/SVG/1.1/DTD/svg11.dtd">
<!-- Generated by graphviz version 2.40.1 (20161225.0304)
 -->
<!-- Title: pqm_functions::pqm_limiter Pages: 1 -->
<svg width="263pt" height="100pt"
 viewBox="0.00 0.00 263.00 99.50" xmlns="http://www.w3.org/2000/svg" xmlns:xlink="http://www.w3.org/1999/xlink">
<g id="graph0" class="graph" transform="scale(1 1) rotate(0) translate(4 95.5)">
<title>pqm_functions::pqm_limiter</title>
<polygon fill="#ffffff" stroke="transparent" points="-4,4 -4,-95.5 259,-95.5 259,4 -4,4"/>
<!-- Node1 -->
<g id="node1" class="node">
<title>Node1</title>
<g id="a_node1"><a xlink:title="Limit the piecewise quartic method reconstruction.">
<polygon fill="#bfbfbf" stroke="#000000" points="0,-33 0,-63 105,-63 105,-33 0,-33"/>
<text text-anchor="start" x="8" y="-51" font-family="Helvetica,sans-Serif" font-size="10.00" fill="#000000">pqm_functions::pqm</text>
<text text-anchor="middle" x="52.5" y="-40" font-family="Helvetica,sans-Serif" font-size="10.00" fill="#000000">_limiter</text>
</a>
</g>
</g>
<!-- Node2 -->
<g id="node2" class="node">
<title>Node2</title>
<g id="a_node2"><a xlink:href="namespaceregrid__edge__values.html#aa3c7ea104f554d508b69efd860fc6b10" target="_top" xlink:title="Bound edge values by neighboring cell averages.">
<polygon fill="#ffffff" stroke="#000000" points="143.5,-61 143.5,-91 252.5,-91 252.5,-61 143.5,-61"/>
<text text-anchor="start" x="151.5" y="-79" font-family="Helvetica,sans-Serif" font-size="10.00" fill="#000000">regrid_edge_values</text>
<text text-anchor="middle" x="198" y="-68" font-family="Helvetica,sans-Serif" font-size="10.00" fill="#000000">::bound_edge_values</text>
</a>
</g>
</g>
<!-- Node1&#45;&gt;Node2 -->
<g id="edge1" class="edge">
<title>Node1&#45;&gt;Node2</title>
<path fill="none" stroke="#191970" d="M105.0288,-58.1086C114.1151,-59.8572 123.6585,-61.6937 133.0278,-63.4968"/>
<polygon fill="#191970" stroke="#191970" points="132.6151,-66.9815 143.0964,-65.4344 133.938,-60.1076 132.6151,-66.9815"/>
</g>
<!-- Node3 -->
<g id="node3" class="node">
<title>Node3</title>
<g id="a_node3"><a xlink:href="namespaceregrid__edge__values.html#a4a496536a77bef8467c441731619761d" target="_top" xlink:title="Check discontinuous edge values and replace them with their average if not monotonic.">
<polygon fill="#ffffff" stroke="#000000" points="141,-.5 141,-41.5 255,-41.5 255,-.5 141,-.5"/>
<text text-anchor="start" x="149" y="-29.5" font-family="Helvetica,sans-Serif" font-size="10.00" fill="#000000">regrid_edge_values</text>
<text text-anchor="start" x="149" y="-18.5" font-family="Helvetica,sans-Serif" font-size="10.00" fill="#000000">::check_discontinuous</text>
<text text-anchor="middle" x="198" y="-7.5" font-family="Helvetica,sans-Serif" font-size="10.00" fill="#000000">_edge_values</text>
</a>
</g>
</g>
<!-- Node1&#45;&gt;Node3 -->
<g id="edge2" class="edge">
<title>Node1&#45;&gt;Node3</title>
<path fill="none" stroke="#191970" d="M105.0288,-38.2524C113.3367,-36.7107 122.0268,-35.0981 130.6165,-33.5042"/>
<polygon fill="#191970" stroke="#191970" points="131.4316,-36.9127 140.6251,-31.6469 130.1543,-30.0302 131.4316,-36.9127"/>
</g>
</g>
</svg>
