<?xml version="1.0" encoding="UTF-8" standalone="no"?>
<!DOCTYPE svg PUBLIC "-//W3C//DTD SVG 1.1//EN"
 "http://www.w3.org/Graphics/SVG/1.1/DTD/svg11.dtd">
<!-- Generated by graphviz version 2.40.1 (20161225.0304)
 -->
<!-- Title: pcm_functions::pcm_reconstruction Pages: 1 -->
<!--zoomable 416 -->
<svg id="main" version="1.1" xmlns="http://www.w3.org/2000/svg" xmlns:xlink="http://www.w3.org/1999/xlink" xml:space="preserve" onload="init(evt)">
<style type="text/css"><![CDATA[
.edge:hover path { stroke: red; }
.edge:hover polygon { stroke: red; fill: red; }
]]></style>
<script type="text/javascript"><![CDATA[
var edges = document.getElementsByTagName('g');
if (edges && edges.length) {
  for (var i=0;i<edges.length;i++) {
    if (edges[i].id.substr(0,4)=='edge') {
      edges[i].setAttribute('class','edge');
    }
  }
}
]]></script>
        <defs>
                <circle id="rim" cx="0" cy="0" r="7"/>
                <circle id="rim2" cx="0" cy="0" r="3.5"/>
                <g id="zoomPlus">
                        <use xlink:href="#rim" fill="#404040">
                                <set attributeName="fill" to="#808080" begin="zoomplus.mouseover" end="zoomplus.mouseout"/>
                        </use>
                        <path d="M-4,0h8M0,-4v8" fill="none" stroke="white" stroke-width="1.5" pointer-events="none"/>
                </g>
                <g id="zoomMin">
                        <use xlink:href="#rim" fill="#404040">
                                <set attributeName="fill" to="#808080" begin="zoomminus.mouseover" end="zoomminus.mouseout"/>
                        </use>
                        <path d="M-4,0h8" fill="none" stroke="white" stroke-width="1.5" pointer-events="none"/>
                </g>
                <g id="dirArrow">
                        <path fill="none" stroke="white" stroke-width="1.5" d="M0,-3.0v7 M-2.5,-0.5L0,-3.0L2.5,-0.5"/>
                </g>
               <g id="resetDef">
                       <use xlink:href="#rim2" fill="#404040">
                               <set attributeName="fill" to="#808080" begin="reset.mouseover" end="reset.mouseout"/>
                       </use>
               </g>
        </defs>

<script type="text/javascript">
var viewWidth = 1332;
var viewHeight = 416;
var sectionId = 'dynsection-0';
</script>
<script xlink:href="svgpan.js"/>
<svg id="graph" class="graph">
<g id="viewport">
<title>pcm_functions::pcm_reconstruction</title>
<polygon fill="#ffffff" stroke="transparent" points="-4,4 -4,-411.6887 1328,-411.6887 1328,4 -4,4"/>
<!-- Node1 -->
<g id="node1" class="node">
<title>Node1</title>
<g id="a_node1"><a xlink:title="Reconstruction by constant polynomials within each cell. There is nothing to do but this routine is p...">
<polygon fill="#bfbfbf" stroke="#000000" points="1216,-355.1887 1216,-385.1887 1324,-385.1887 1324,-355.1887 1216,-355.1887"/>
<text text-anchor="start" x="1224" y="-373.1887" font-family="Helvetica,sans-Serif" font-size="10.00" fill="#000000">pcm_functions::pcm</text>
<text text-anchor="middle" x="1270" y="-362.1887" font-family="Helvetica,sans-Serif" font-size="10.00" fill="#000000">_reconstruction</text>
</a>
</g>
</g>
<!-- Node2 -->
<g id="node2" class="node">
<title>Node2</title>
<g id="a_node2"><a xlink:href="namespacemom__remapping.html#a5bb0006054c9fa4522783aa3f1f500d5" target="_top" xlink:title="Creates polynomial reconstructions of u0 on the source grid h0.">
<polygon fill="#ffffff" stroke="#000000" points="1059,-333.1887 1059,-363.1887 1180,-363.1887 1180,-333.1887 1059,-333.1887"/>
<text text-anchor="start" x="1067" y="-351.1887" font-family="Helvetica,sans-Serif" font-size="10.00" fill="#000000">mom_remapping::build</text>
<text text-anchor="middle" x="1119.5" y="-340.1887" font-family="Helvetica,sans-Serif" font-size="10.00" fill="#000000">_reconstructions_1d</text>
</a>
</g>
</g>
<!-- Node1&#45;&gt;Node2 -->
<g id="edge1" class="edge">
<title>Node1&#45;&gt;Node2</title>
<path fill="none" stroke="#191970" d="M1205.5136,-360.7622C1197.0919,-359.5311 1188.4866,-358.2731 1180.1313,-357.0518"/>
<polygon fill="#191970" stroke="#191970" points="1205.2649,-364.2629 1215.666,-362.2462 1206.2775,-357.3365 1205.2649,-364.2629"/>
</g>
<!-- Node27 -->
<g id="node27" class="node">
<title>Node27</title>
<g id="a_node27"><a xlink:href="namespacemom__remapping.html#a5849f564453d5ed76fb4feffd41eca26" target="_top" xlink:title="Runs unit tests on remapping functions. Should only be called from a single/root thread Returns True ...">
<polygon fill="#ffffff" stroke="#000000" points="687,-377.1887 687,-407.1887 837,-407.1887 837,-377.1887 687,-377.1887"/>
<text text-anchor="start" x="695" y="-395.1887" font-family="Helvetica,sans-Serif" font-size="10.00" fill="#000000">mom_remapping::remapping</text>
<text text-anchor="middle" x="762" y="-384.1887" font-family="Helvetica,sans-Serif" font-size="10.00" fill="#000000">_unit_tests</text>
</a>
</g>
</g>
<!-- Node1&#45;&gt;Node27 -->
<g id="edge33" class="edge">
<title>Node1&#45;&gt;Node27</title>
<path fill="none" stroke="#191970" d="M1205.4032,-372.9862C1111.3424,-377.0597 937.0546,-384.6076 837.2989,-388.9278"/>
<polygon fill="#191970" stroke="#191970" points="1205.7959,-376.4726 1215.6351,-372.5431 1205.493,-369.4791 1205.7959,-376.4726"/>
</g>
<!-- Node3 -->
<g id="node3" class="node">
<title>Node3</title>
<g id="a_node3"><a xlink:href="namespacemom__remapping.html#abe4a1d5b1b9f26063a5e4aba5be0b0a5" target="_top" xlink:title="Remaps column of values u0 on grid h0 to grid h1 assuming the top edge is aligned.">
<polygon fill="#ffffff" stroke="#000000" points="873,-147.1887 873,-177.1887 1023,-177.1887 1023,-147.1887 873,-147.1887"/>
<text text-anchor="start" x="881" y="-165.1887" font-family="Helvetica,sans-Serif" font-size="10.00" fill="#000000">mom_remapping::remapping</text>
<text text-anchor="middle" x="948" y="-154.1887" font-family="Helvetica,sans-Serif" font-size="10.00" fill="#000000">_core_h</text>
</a>
</g>
</g>
<!-- Node2&#45;&gt;Node3 -->
<g id="edge2" class="edge">
<title>Node2&#45;&gt;Node3</title>
<path fill="none" stroke="#191970" d="M1098.451,-325.3601C1062.9346,-286.8409 992.0443,-209.9569 961.988,-177.3593"/>
<polygon fill="#191970" stroke="#191970" points="1096.1136,-327.9883 1105.4654,-332.9676 1101.2599,-323.2432 1096.1136,-327.9883"/>
</g>
<!-- Node26 -->
<g id="node26" class="node">
<title>Node26</title>
<g id="a_node26"><a xlink:href="namespacemom__remapping.html#a38bd02a8643f4a984bc3985f34106d9a" target="_top" xlink:title="Remaps column of values u0 on grid h0 to implied grid h1 where the interfaces of h1 differ from those...">
<polygon fill="#ffffff" stroke="#000000" points="873,-333.1887 873,-363.1887 1023,-363.1887 1023,-333.1887 873,-333.1887"/>
<text text-anchor="start" x="881" y="-351.1887" font-family="Helvetica,sans-Serif" font-size="10.00" fill="#000000">mom_remapping::remapping</text>
<text text-anchor="middle" x="948" y="-340.1887" font-family="Helvetica,sans-Serif" font-size="10.00" fill="#000000">_core_w</text>
</a>
</g>
</g>
<!-- Node2&#45;&gt;Node26 -->
<g id="edge29" class="edge">
<title>Node2&#45;&gt;Node26</title>
<path fill="none" stroke="#191970" d="M1048.4774,-348.1887C1040.1212,-348.1887 1031.5726,-348.1887 1023.162,-348.1887"/>
<polygon fill="#191970" stroke="#191970" points="1048.5527,-351.6888 1058.5526,-348.1887 1048.5526,-344.6888 1048.5527,-351.6888"/>
</g>
<!-- Node4 -->
<g id="node4" class="node">
<title>Node4</title>
<g id="a_node4"><a xlink:href="namespacemom__ale__sponge.html#a1f297a8680a56b92ad1ac4e09f375d05" target="_top" xlink:title="This subroutine applies damping to the layers thicknesses, temp, salt and a variety of tracers for ev...">
<polygon fill="#ffffff" stroke="#000000" points="696.5,-306.1887 696.5,-336.1887 827.5,-336.1887 827.5,-306.1887 696.5,-306.1887"/>
<text text-anchor="start" x="704.5" y="-324.1887" font-family="Helvetica,sans-Serif" font-size="10.00" fill="#000000">mom_ale_sponge::apply</text>
<text text-anchor="middle" x="762" y="-313.1887" font-family="Helvetica,sans-Serif" font-size="10.00" fill="#000000">_ale_sponge</text>
</a>
</g>
</g>
<!-- Node3&#45;&gt;Node4 -->
<g id="edge3" class="edge">
<title>Node3&#45;&gt;Node4</title>
<path fill="none" stroke="#191970" d="M922.5294,-183.962C884.2712,-216.6666 812.9304,-277.6515 779.7805,-305.9893"/>
<polygon fill="#191970" stroke="#191970" points="924.8385,-186.5926 930.1655,-177.4343 920.2901,-181.2717 924.8385,-186.5926"/>
</g>
<!-- Node10 -->
<g id="node10" class="node">
<title>Node10</title>
<g id="a_node10"><a xlink:href="namespacecoord__rho.html#aa5b249b62eabf07cdc7f02649f029cae" target="_top" xlink:title="Iteratively build a rho coordinate column.">
<polygon fill="#ffffff" stroke="#000000" points="705.5,-125.1887 705.5,-155.1887 818.5,-155.1887 818.5,-125.1887 705.5,-125.1887"/>
<text text-anchor="start" x="713.5" y="-143.1887" font-family="Helvetica,sans-Serif" font-size="10.00" fill="#000000">coord_rho::build_rho</text>
<text text-anchor="middle" x="762" y="-132.1887" font-family="Helvetica,sans-Serif" font-size="10.00" fill="#000000">_column_iteratively</text>
</a>
</g>
</g>
<!-- Node3&#45;&gt;Node10 -->
<g id="edge9" class="edge">
<title>Node3&#45;&gt;Node10</title>
<path fill="none" stroke="#191970" d="M862.594,-152.0869C847.6438,-150.3186 832.4302,-148.5192 818.5123,-146.873"/>
<polygon fill="#191970" stroke="#191970" points="862.5409,-155.605 872.8828,-153.3039 863.3632,-148.6534 862.5409,-155.605"/>
</g>
<!-- Node11 -->
<g id="node11" class="node">
<title>Node11</title>
<g id="a_node11"><a xlink:href="namespacemom__tidal__mixing.html#aef4b9f3c4ceece52a1cebe1bbee66988" target="_top" xlink:title="Calls the CVMix routines to compute tidal dissipation and to add the effect of internal&#45;tide&#45;driven m...">
<polygon fill="#ffffff" stroke="#000000" points="689,-76.1887 689,-106.1887 835,-106.1887 835,-76.1887 689,-76.1887"/>
<text text-anchor="start" x="697" y="-94.1887" font-family="Helvetica,sans-Serif" font-size="10.00" fill="#000000">mom_tidal_mixing::calculate</text>
<text text-anchor="middle" x="762" y="-83.1887" font-family="Helvetica,sans-Serif" font-size="10.00" fill="#000000">_cvmix_tidal</text>
</a>
</g>
</g>
<!-- Node3&#45;&gt;Node11 -->
<g id="edge10" class="edge">
<title>Node3&#45;&gt;Node11</title>
<path fill="none" stroke="#191970" d="M904.97,-142.8931C884.5478,-134.0132 859.698,-123.6061 837,-115.1887 828.7963,-112.1465 820.007,-109.1254 811.4376,-106.3049"/>
<polygon fill="#191970" stroke="#191970" points="903.7493,-146.1793 914.3136,-146.9831 906.5564,-139.7668 903.7493,-146.1793"/>
</g>
<!-- Node13 -->
<g id="node13" class="node">
<title>Node13</title>
<g id="a_node13"><a xlink:href="namespacemom__state__initialization.html#a69c6f01824f00611082b6d5f1b6ca738" target="_top" xlink:title="Adjust the layer thicknesses by removing the top of the water column above the depth where the hydros...">
<polygon fill="#ffffff" stroke="#000000" points="697.5,-213.1887 697.5,-243.1887 826.5,-243.1887 826.5,-213.1887 697.5,-213.1887"/>
<text text-anchor="start" x="705.5" y="-231.1887" font-family="Helvetica,sans-Serif" font-size="10.00" fill="#000000">mom_state_initialization</text>
<text text-anchor="middle" x="762" y="-220.1887" font-family="Helvetica,sans-Serif" font-size="10.00" fill="#000000">::cut_off_column_top</text>
</a>
</g>
</g>
<!-- Node3&#45;&gt;Node13 -->
<g id="edge12" class="edge">
<title>Node3&#45;&gt;Node13</title>
<path fill="none" stroke="#191970" d="M895.8193,-180.7045C866.9799,-190.9378 831.6071,-203.4894 804.4736,-213.1175"/>
<polygon fill="#191970" stroke="#191970" points="897.074,-183.9731 905.3278,-177.3305 894.7331,-177.3761 897.074,-183.9731"/>
</g>
<!-- Node18 -->
<g id="node18" class="node">
<title>Node18</title>
<g id="a_node18"><a xlink:href="namespacemom__diag__remap.html#ac004e8411a2391dd4fff667714d7a539" target="_top" xlink:title="Remap diagnostic field to alternative vertical grid.">
<polygon fill="#ffffff" stroke="#000000" points="699,-27.1887 699,-57.1887 825,-57.1887 825,-27.1887 699,-27.1887"/>
<text text-anchor="start" x="707" y="-45.1887" font-family="Helvetica,sans-Serif" font-size="10.00" fill="#000000">mom_diag_remap::diag</text>
<text text-anchor="middle" x="762" y="-34.1887" font-family="Helvetica,sans-Serif" font-size="10.00" fill="#000000">_remap_do_remap</text>
</a>
</g>
</g>
<!-- Node3&#45;&gt;Node18 -->
<g id="edge18" class="edge">
<title>Node3&#45;&gt;Node18</title>
<path fill="none" stroke="#191970" d="M927.2989,-139.633C906.389,-118.0552 872.2238,-85.9554 837,-66.1887 831.0389,-62.8435 824.5453,-59.8895 817.9546,-57.3014"/>
<polygon fill="#191970" stroke="#191970" points="924.9478,-142.2393 934.3802,-147.0644 930.0155,-137.4103 924.9478,-142.2393"/>
</g>
<!-- Node19 -->
<g id="node19" class="node">
<title>Node19</title>
<g id="a_node19"><a xlink:href="namespacemom__oda__driver__mod.html#a24806346258e5d9143e233999eef0e7f" target="_top" xlink:title="Copy ensemble member tracers to ensemble vector.">
<polygon fill="#ffffff" stroke="#000000" points="336,-164.1887 336,-194.1887 458,-194.1887 458,-164.1887 336,-164.1887"/>
<text text-anchor="start" x="344" y="-182.1887" font-family="Helvetica,sans-Serif" font-size="10.00" fill="#000000">mom_oda_driver_mod</text>
<text text-anchor="middle" x="397" y="-171.1887" font-family="Helvetica,sans-Serif" font-size="10.00" fill="#000000">::set_prior_tracer</text>
</a>
</g>
</g>
<!-- Node3&#45;&gt;Node19 -->
<g id="edge19" class="edge">
<title>Node3&#45;&gt;Node19</title>
<path fill="none" stroke="#191970" d="M862.5757,-164.8243C750.4835,-168.2827 556.489,-174.268 458.0647,-177.3047"/>
<polygon fill="#191970" stroke="#191970" points="862.9416,-168.3148 872.8289,-164.508 862.7257,-161.3181 862.9416,-168.3148"/>
</g>
<!-- Node20 -->
<g id="node20" class="node">
<title>Node20</title>
<g id="a_node20"><a xlink:href="namespacemom__wave__speed.html#a2bb7c3c0482510f3d50a2f2e933e4229" target="_top" xlink:title="Calculates the wave speed of the first baroclinic mode.">
<polygon fill="#ffffff" stroke="#000000" points="511,-32.1887 511,-62.1887 645,-62.1887 645,-32.1887 511,-32.1887"/>
<text text-anchor="start" x="519" y="-50.1887" font-family="Helvetica,sans-Serif" font-size="10.00" fill="#000000">mom_wave_speed::wave</text>
<text text-anchor="middle" x="578" y="-39.1887" font-family="Helvetica,sans-Serif" font-size="10.00" fill="#000000">_speed</text>
</a>
</g>
</g>
<!-- Node3&#45;&gt;Node20 -->
<g id="edge21" class="edge">
<title>Node3&#45;&gt;Node20</title>
<path fill="none" stroke="#191970" d="M937.8041,-137.7188C921.9913,-103.4011 887.9671,-42.3591 837,-17.1887 762.9299,19.3911 662.8404,-11.4303 611.4728,-32.1439"/>
<polygon fill="#191970" stroke="#191970" points="934.6891,-139.3276 941.9532,-147.0401 941.0841,-136.481 934.6891,-139.3276"/>
</g>
<!-- Node5 -->
<g id="node5" class="node">
<title>Node5</title>
<g id="a_node5"><a xlink:href="namespacemom__diabatic__driver.html#a9005de9f3ad26b32de53e3cd9826b9b9" target="_top" xlink:title="This subroutine imposes the diapycnal mass fluxes and the accompanying diapycnal advection of momentu...">
<polygon fill="#ffffff" stroke="#000000" points="521,-355.1887 521,-385.1887 635,-385.1887 635,-355.1887 521,-355.1887"/>
<text text-anchor="start" x="529" y="-373.1887" font-family="Helvetica,sans-Serif" font-size="10.00" fill="#000000">mom_diabatic_driver</text>
<text text-anchor="middle" x="578" y="-362.1887" font-family="Helvetica,sans-Serif" font-size="10.00" fill="#000000">::diabatic</text>
</a>
</g>
</g>
<!-- Node4&#45;&gt;Node5 -->
<g id="edge4" class="edge">
<title>Node4&#45;&gt;Node5</title>
<path fill="none" stroke="#191970" d="M695.8243,-338.8116C675.6938,-344.1724 653.7684,-350.0113 634.3498,-355.1825"/>
<polygon fill="#191970" stroke="#191970" points="696.781,-342.1789 705.5435,-336.2233 694.9796,-335.4146 696.781,-342.1789"/>
</g>
<!-- Node6 -->
<g id="node6" class="node">
<title>Node6</title>
<g id="a_node6"><a xlink:href="namespacemom__diabatic__driver.html#a9cdc6d13fb212778da2d58f286528fde" target="_top" xlink:title="Imposes the diapycnal mass fluxes and the accompanying diapycnal advection of momentum and tracers us...">
<polygon fill="#ffffff" stroke="#000000" points="521,-306.1887 521,-336.1887 635,-336.1887 635,-306.1887 521,-306.1887"/>
<text text-anchor="start" x="529" y="-324.1887" font-family="Helvetica,sans-Serif" font-size="10.00" fill="#000000">mom_diabatic_driver</text>
<text text-anchor="middle" x="578" y="-313.1887" font-family="Helvetica,sans-Serif" font-size="10.00" fill="#000000">::legacy_diabatic</text>
</a>
</g>
</g>
<!-- Node4&#45;&gt;Node6 -->
<g id="edge5" class="edge">
<title>Node4&#45;&gt;Node6</title>
<path fill="none" stroke="#191970" d="M685.8875,-321.1887C668.893,-321.1887 651.1525,-321.1887 635.0814,-321.1887"/>
<polygon fill="#191970" stroke="#191970" points="686.3511,-324.6888 696.351,-321.1887 686.351,-317.6888 686.3511,-324.6888"/>
</g>
<!-- Node7 -->
<g id="node7" class="node">
<title>Node7</title>
<g id="a_node7"><a xlink:href="namespacemom.html#a1a81ea749a309f10f5c3c7a17efa3606" target="_top" xlink:title="MOM_step_thermo orchestrates the thermodynamic time stepping and vertical remapping,...">
<polygon fill="#ffffff" stroke="#000000" points="331.5,-216.6887 331.5,-235.6887 462.5,-235.6887 462.5,-216.6887 331.5,-216.6887"/>
<text text-anchor="middle" x="397" y="-223.6887" font-family="Helvetica,sans-Serif" font-size="10.00" fill="#000000">mom::step_mom_thermo</text>
</a>
</g>
</g>
<!-- Node6&#45;&gt;Node7 -->
<g id="edge6" class="edge">
<title>Node6&#45;&gt;Node7</title>
<path fill="none" stroke="#191970" d="M511.6643,-301.5342C509.3573,-300.1773 507.1263,-298.7306 505,-297.1887 483.1229,-281.3248 491.0432,-263.8211 469,-248.1887 461.5369,-242.8961 452.7718,-238.853 443.9749,-235.7717"/>
<polygon fill="#191970" stroke="#191970" points="510.3932,-304.8185 520.8789,-306.3352 513.6277,-298.6105 510.3932,-304.8185"/>
</g>
<!-- Node8 -->
<g id="node8" class="node">
<title>Node8</title>
<g id="a_node8"><a xlink:href="namespacemom.html#a972730596703580d4646320f2c9085a5" target="_top" xlink:title="This subroutine orchestrates the time stepping of MOM. The adiabatic dynamics are stepped by calls to...">
<polygon fill="#ffffff" stroke="#000000" points="188,-169.6887 188,-188.6887 280,-188.6887 280,-169.6887 188,-169.6887"/>
<text text-anchor="middle" x="234" y="-176.6887" font-family="Helvetica,sans-Serif" font-size="10.00" fill="#000000">mom::step_mom</text>
</a>
</g>
</g>
<!-- Node7&#45;&gt;Node8 -->
<g id="edge7" class="edge">
<title>Node7&#45;&gt;Node8</title>
<path fill="none" stroke="#191970" d="M354.3607,-213.8939C327.144,-206.0462 292.3784,-196.0218 267.2158,-188.7663"/>
<polygon fill="#191970" stroke="#191970" points="353.4363,-217.2699 364.0145,-216.6776 355.3757,-210.544 353.4363,-217.2699"/>
</g>
<!-- Node9 -->
<g id="node9" class="node">
<title>Node9</title>
<g id="a_node9"><a xlink:href="MOM__driver_8F90.html#a08fffeb2d8e8acbf9ed4609be6d258c6" target="_top" xlink:title=" ">
<polygon fill="#ffffff" stroke="#000000" points="37.5,-169.6887 37.5,-188.6887 105.5,-188.6887 105.5,-169.6887 37.5,-169.6887"/>
<text text-anchor="middle" x="71.5" y="-176.6887" font-family="Helvetica,sans-Serif" font-size="10.00" fill="#000000">mom_main</text>
</a>
</g>
</g>
<!-- Node8&#45;&gt;Node9 -->
<g id="edge8" class="edge">
<title>Node8&#45;&gt;Node9</title>
<path fill="none" stroke="#191970" d="M177.7972,-179.1887C153.7688,-179.1887 126.5011,-179.1887 105.5994,-179.1887"/>
<polygon fill="#191970" stroke="#191970" points="177.8687,-182.6888 187.8687,-179.1887 177.8687,-175.6888 177.8687,-182.6888"/>
</g>
<!-- Node12 -->
<g id="node12" class="node">
<title>Node12</title>
<g id="a_node12"><a xlink:href="namespacemom__tidal__mixing.html#abf084268fd9c71f20880838d2bce7e3e" target="_top" xlink:title="Depending on whether or not CVMix is active, calls the associated subroutine to compute internal tida...">
<polygon fill="#ffffff" stroke="#000000" points="505,-81.1887 505,-111.1887 651,-111.1887 651,-81.1887 505,-81.1887"/>
<text text-anchor="start" x="513" y="-99.1887" font-family="Helvetica,sans-Serif" font-size="10.00" fill="#000000">mom_tidal_mixing::calculate</text>
<text text-anchor="middle" x="578" y="-88.1887" font-family="Helvetica,sans-Serif" font-size="10.00" fill="#000000">_tidal_mixing</text>
</a>
</g>
</g>
<!-- Node11&#45;&gt;Node12 -->
<g id="edge11" class="edge">
<title>Node11&#45;&gt;Node12</title>
<path fill="none" stroke="#191970" d="M678.5517,-93.4563C669.4601,-93.7034 660.256,-93.9535 651.2989,-94.1969"/>
<polygon fill="#191970" stroke="#191970" points="678.8484,-96.9497 688.7496,-93.1792 678.6582,-89.9523 678.8484,-96.9497"/>
</g>
<!-- Node14 -->
<g id="node14" class="node">
<title>Node14</title>
<g id="a_node14"><a xlink:href="namespacemom__state__initialization.html#a807c1c2bb13f172945c7c25f3af7abd1" target="_top" xlink:title="Run simple unit tests.">
<polygon fill="#ffffff" stroke="#000000" points="513.5,-208.1887 513.5,-238.1887 642.5,-238.1887 642.5,-208.1887 513.5,-208.1887"/>
<text text-anchor="start" x="521.5" y="-226.1887" font-family="Helvetica,sans-Serif" font-size="10.00" fill="#000000">mom_state_initialization</text>
<text text-anchor="middle" x="578" y="-215.1887" font-family="Helvetica,sans-Serif" font-size="10.00" fill="#000000">::mom_state_init_tests</text>
</a>
</g>
</g>
<!-- Node13&#45;&gt;Node14 -->
<g id="edge13" class="edge">
<title>Node13&#45;&gt;Node14</title>
<path fill="none" stroke="#191970" d="M687.2895,-226.1586C672.5335,-225.7576 657.162,-225.3399 642.7679,-224.9487"/>
<polygon fill="#191970" stroke="#191970" points="687.2958,-229.6599 697.3872,-226.4329 687.486,-222.6625 687.2958,-229.6599"/>
</g>
<!-- Node15 -->
<g id="node15" class="node">
<title>Node15</title>
<g id="a_node15"><a xlink:href="namespacemom__state__initialization.html#abbe8ee99793eae86251739a8a1bf572f" target="_top" xlink:title="Adjust the layer thicknesses by cutting away the top of each model column at the depth where the hydr...">
<polygon fill="#ffffff" stroke="#000000" points="513.5,-257.1887 513.5,-287.1887 642.5,-287.1887 642.5,-257.1887 513.5,-257.1887"/>
<text text-anchor="start" x="521.5" y="-275.1887" font-family="Helvetica,sans-Serif" font-size="10.00" fill="#000000">mom_state_initialization</text>
<text text-anchor="middle" x="578" y="-264.1887" font-family="Helvetica,sans-Serif" font-size="10.00" fill="#000000">::trim_for_ice</text>
</a>
</g>
</g>
<!-- Node13&#45;&gt;Node15 -->
<g id="edge14" class="edge">
<title>Node13&#45;&gt;Node15</title>
<path fill="none" stroke="#191970" d="M689.333,-245.5656C673.2984,-249.4 656.4432,-253.4306 640.8369,-257.1625"/>
<polygon fill="#191970" stroke="#191970" points="690.2805,-248.9378 699.1923,-243.208 688.6524,-242.1297 690.2805,-248.9378"/>
</g>
<!-- Node16 -->
<g id="node16" class="node">
<title>Node16</title>
<g id="a_node16"><a xlink:href="namespacemom__state__initialization.html#a81503d4f1855cb185f122d6314e4f06c" target="_top" xlink:title="Initialize temporally evolving fields, either as initial conditions or by reading them from a restart...">
<polygon fill="#ffffff" stroke="#000000" points="332.5,-257.1887 332.5,-287.1887 461.5,-287.1887 461.5,-257.1887 332.5,-257.1887"/>
<text text-anchor="start" x="340.5" y="-275.1887" font-family="Helvetica,sans-Serif" font-size="10.00" fill="#000000">mom_state_initialization</text>
<text text-anchor="middle" x="397" y="-264.1887" font-family="Helvetica,sans-Serif" font-size="10.00" fill="#000000">::mom_initialize_state</text>
</a>
</g>
</g>
<!-- Node15&#45;&gt;Node16 -->
<g id="edge15" class="edge">
<title>Node15&#45;&gt;Node16</title>
<path fill="none" stroke="#191970" d="M503.4162,-272.1887C489.5235,-272.1887 475.1141,-272.1887 461.5537,-272.1887"/>
<polygon fill="#191970" stroke="#191970" points="503.4214,-275.6888 513.4214,-272.1887 503.4214,-268.6888 503.4214,-275.6888"/>
</g>
<!-- Node17 -->
<g id="node17" class="node">
<title>Node17</title>
<g id="a_node17"><a xlink:href="namespacemom.html#a96708b16215666edbfa5b46228f3a200" target="_top" xlink:title="Initialize MOM, including memory allocation, setting up parameters and diagnostics,...">
<polygon fill="#ffffff" stroke="#000000" points="179,-262.6887 179,-281.6887 289,-281.6887 289,-262.6887 179,-262.6887"/>
<text text-anchor="middle" x="234" y="-269.6887" font-family="Helvetica,sans-Serif" font-size="10.00" fill="#000000">mom::initialize_mom</text>
</a>
</g>
</g>
<!-- Node16&#45;&gt;Node17 -->
<g id="edge16" class="edge">
<title>Node16&#45;&gt;Node17</title>
<path fill="none" stroke="#191970" d="M322.0296,-272.1887C310.9786,-272.1887 299.7664,-272.1887 289.2128,-272.1887"/>
<polygon fill="#191970" stroke="#191970" points="322.1098,-275.6888 332.1097,-272.1887 322.1097,-268.6888 322.1098,-275.6888"/>
</g>
<!-- Node17&#45;&gt;Node9 -->
<g id="edge17" class="edge">
<title>Node17&#45;&gt;Node9</title>
<path fill="none" stroke="#191970" d="M208.4572,-257.5704C174.9301,-238.3826 116.998,-205.2276 88.4305,-188.8782"/>
<polygon fill="#191970" stroke="#191970" points="206.804,-260.6569 217.2217,-262.5864 210.2811,-254.5815 206.804,-260.6569"/>
</g>
<!-- Node19&#45;&gt;Node8 -->
<g id="edge20" class="edge">
<title>Node19&#45;&gt;Node8</title>
<path fill="none" stroke="#191970" d="M325.7872,-179.1887C310.3419,-179.1887 294.3956,-179.1887 280.2154,-179.1887"/>
<polygon fill="#191970" stroke="#191970" points="325.8411,-182.6888 335.8411,-179.1887 325.841,-175.6888 325.8411,-182.6888"/>
</g>
<!-- Node21 -->
<g id="node21" class="node">
<title>Node21</title>
<g id="a_node21"><a xlink:href="namespacemom__lateral__mixing__coeffs.html#a8652c5651033573cfd6f09b789d64713" target="_top" xlink:title="Calculates and stores the non&#45;dimensional resolution functions.">
<polygon fill="#ffffff" stroke="#000000" points="342,-45.6887 342,-86.6887 452,-86.6887 452,-45.6887 342,-45.6887"/>
<text text-anchor="start" x="350" y="-74.6887" font-family="Helvetica,sans-Serif" font-size="10.00" fill="#000000">mom_lateral_mixing</text>
<text text-anchor="start" x="350" y="-63.6887" font-family="Helvetica,sans-Serif" font-size="10.00" fill="#000000">_coeffs::calc_resoln</text>
<text text-anchor="middle" x="397" y="-52.6887" font-family="Helvetica,sans-Serif" font-size="10.00" fill="#000000">_function</text>
</a>
</g>
</g>
<!-- Node20&#45;&gt;Node21 -->
<g id="edge22" class="edge">
<title>Node20&#45;&gt;Node21</title>
<path fill="none" stroke="#191970" d="M500.7839,-55.2943C484.448,-57.0091 467.5217,-58.7859 452.1971,-60.3946"/>
<polygon fill="#191970" stroke="#191970" points="501.2796,-58.7616 510.8595,-54.2366 500.5487,-51.7998 501.2796,-58.7616"/>
</g>
<!-- Node25 -->
<g id="node25" class="node">
<title>Node25</title>
<g id="a_node25"><a xlink:href="namespacemom__diagnostics.html#a6bd689b4d9f660020d8e3960879b4799" target="_top" xlink:title="Diagnostics not more naturally calculated elsewhere are computed here.">
<polygon fill="#ffffff" stroke="#000000" points="325,-106.1887 325,-136.1887 469,-136.1887 469,-106.1887 325,-106.1887"/>
<text text-anchor="start" x="333" y="-124.1887" font-family="Helvetica,sans-Serif" font-size="10.00" fill="#000000">mom_diagnostics::calculate</text>
<text text-anchor="middle" x="397" y="-113.1887" font-family="Helvetica,sans-Serif" font-size="10.00" fill="#000000">_diagnostic_fields</text>
</a>
</g>
</g>
<!-- Node20&#45;&gt;Node25 -->
<g id="edge28" class="edge">
<title>Node20&#45;&gt;Node25</title>
<path fill="none" stroke="#191970" d="M516.1777,-66.091C512.3467,-67.6985 508.5915,-69.399 505,-71.1887 487.5652,-79.877 486.3622,-87.3564 469,-96.1887 461.8058,-99.8485 453.9521,-103.1836 446.1616,-106.141"/>
<polygon fill="#191970" stroke="#191970" points="517.7907,-69.2171 525.8063,-62.2888 515.2197,-62.7064 517.7907,-69.2171"/>
</g>
<!-- Node21&#45;&gt;Node8 -->
<g id="edge23" class="edge">
<title>Node21&#45;&gt;Node8</title>
<path fill="none" stroke="#191970" d="M333.0819,-91.3952C330.3074,-92.9338 327.6002,-94.5326 325,-96.1887 290.9128,-117.8994 257.5571,-152.7928 242.4323,-169.5702"/>
<polygon fill="#191970" stroke="#191970" points="334.8687,-94.411 342.1236,-86.6897 331.6371,-88.2015 334.8687,-94.411"/>
</g>
<!-- Node22 -->
<g id="node22" class="node">
<title>Node22</title>
<g id="a_node22"><a xlink:href="namespacemom.html#ade4f7557fcda73ffc12284d3cecf4182" target="_top" xlink:title="step_offline is the main driver for running tracers offline in MOM6. This has been primarily develope...">
<polygon fill="#ffffff" stroke="#000000" points="185,-83.6887 185,-102.6887 283,-102.6887 283,-83.6887 185,-83.6887"/>
<text text-anchor="middle" x="234" y="-90.6887" font-family="Helvetica,sans-Serif" font-size="10.00" fill="#000000">mom::step_offline</text>
</a>
</g>
</g>
<!-- Node21&#45;&gt;Node22 -->
<g id="edge24" class="edge">
<title>Node21&#45;&gt;Node22</title>
<path fill="none" stroke="#191970" d="M331.8399,-76.9821C315.5915,-79.6736 298.4395,-82.5147 283.1126,-85.0535"/>
<polygon fill="#191970" stroke="#191970" points="332.5221,-80.4169 341.8156,-75.3297 331.3781,-73.511 332.5221,-80.4169"/>
</g>
<!-- Node22&#45;&gt;Node9 -->
<g id="edge25" class="edge">
<title>Node22&#45;&gt;Node9</title>
<path fill="none" stroke="#191970" d="M207.4232,-107.6476C189.3085,-117.4663 164.7551,-130.7036 143,-142.1887 125.2015,-151.585 104.8032,-162.1175 90.3615,-169.535"/>
<polygon fill="#191970" stroke="#191970" points="209.1404,-110.698 216.2602,-102.8521 205.8016,-104.5455 209.1404,-110.698"/>
</g>
<!-- Node23 -->
<g id="node23" class="node">
<title>Node23</title>
<g id="a_node23"><a xlink:href="namespacemom__ocean__model__mct.html#a422ba42ca07c0bf28ec5113aba4f1e96" target="_top" xlink:title="update_ocean_model uses the forcing in Ice_ocean_boundary to advance the ocean model&#39;s state from the...">
<polygon fill="#ffffff" stroke="#000000" points="6,-103.1887 6,-133.1887 137,-133.1887 137,-103.1887 6,-103.1887"/>
<text text-anchor="start" x="14" y="-121.1887" font-family="Helvetica,sans-Serif" font-size="10.00" fill="#000000">mom_ocean_model_mct</text>
<text text-anchor="middle" x="71.5" y="-110.1887" font-family="Helvetica,sans-Serif" font-size="10.00" fill="#000000">::update_ocean_model</text>
</a>
</g>
</g>
<!-- Node22&#45;&gt;Node23 -->
<g id="edge26" class="edge">
<title>Node22&#45;&gt;Node23</title>
<path fill="none" stroke="#191970" d="M174.7104,-102.3102C162.4609,-104.1947 149.4913,-106.1901 137.0342,-108.1065"/>
<polygon fill="#191970" stroke="#191970" points="175.4522,-105.7374 184.8037,-100.7574 174.3877,-98.8187 175.4522,-105.7374"/>
</g>
<!-- Node24 -->
<g id="node24" class="node">
<title>Node24</title>
<g id="a_node24"><a xlink:href="namespacemom__ocean__model__nuopc.html#a02a87b4944febcc6828c55e8e4375e62" target="_top" xlink:title="update_ocean_model uses the forcing in Ice_ocean_boundary to advance the ocean model&#39;s state from the...">
<polygon fill="#ffffff" stroke="#000000" points="0,-54.1887 0,-84.1887 143,-84.1887 143,-54.1887 0,-54.1887"/>
<text text-anchor="start" x="8" y="-72.1887" font-family="Helvetica,sans-Serif" font-size="10.00" fill="#000000">mom_ocean_model_nuopc</text>
<text text-anchor="middle" x="71.5" y="-61.1887" font-family="Helvetica,sans-Serif" font-size="10.00" fill="#000000">::update_ocean_model</text>
</a>
</g>
</g>
<!-- Node22&#45;&gt;Node24 -->
<g id="edge27" class="edge">
<title>Node22&#45;&gt;Node24</title>
<path fill="none" stroke="#191970" d="M174.7013,-84.4308C164.4023,-82.9097 153.5945,-81.3135 143.0104,-79.7503"/>
<polygon fill="#191970" stroke="#191970" points="174.3996,-87.9241 184.8037,-85.9228 175.4224,-80.9992 174.3996,-87.9241"/>
</g>
<!-- Node26&#45;&gt;Node27 -->
<g id="edge30" class="edge">
<title>Node26&#45;&gt;Node27</title>
<path fill="none" stroke="#191970" d="M874.5431,-365.5656C858.3343,-369.4 841.2959,-373.4306 825.5199,-377.1625"/>
<polygon fill="#191970" stroke="#191970" points="875.5839,-368.9161 884.5096,-363.208 873.9724,-362.1041 875.5839,-368.9161"/>
</g>
<!-- Node28 -->
<g id="node28" class="node">
<title>Node28</title>
<g id="a_node28"><a xlink:href="namespacemom__unit__tests.html#a57645db02bc734c32de50d028ef906ac" target="_top" xlink:title="Calls unit tests for other modules. Note that if a unit test returns true, a FATAL error is triggered...">
<polygon fill="#ffffff" stroke="#000000" points="341.5,-352.1887 341.5,-382.1887 452.5,-382.1887 452.5,-352.1887 341.5,-352.1887"/>
<text text-anchor="start" x="349.5" y="-370.1887" font-family="Helvetica,sans-Serif" font-size="10.00" fill="#000000">mom_unit_tests::unit</text>
<text text-anchor="middle" x="397" y="-359.1887" font-family="Helvetica,sans-Serif" font-size="10.00" fill="#000000">_tests</text>
</a>
</g>
</g>
<!-- Node27&#45;&gt;Node28 -->
<g id="edge31" class="edge">
<title>Node27&#45;&gt;Node28</title>
<path fill="none" stroke="#191970" d="M676.7397,-399.0691C626.5466,-401.6559 561.9385,-402.4496 505,-395.1887 484.825,-392.616 463.0311,-387.4433 444.3404,-382.2363"/>
<polygon fill="#191970" stroke="#191970" points="677.1082,-402.5542 686.9011,-398.5109 676.7242,-395.5647 677.1082,-402.5542"/>
</g>
<!-- Node28&#45;&gt;Node17 -->
<g id="edge32" class="edge">
<title>Node28&#45;&gt;Node17</title>
<path fill="none" stroke="#191970" d="M362.403,-347.0248C328.0774,-327.0191 276.924,-297.2058 250.7491,-281.9505"/>
<polygon fill="#191970" stroke="#191970" points="360.77,-350.1241 371.1722,-352.1357 364.2949,-344.0763 360.77,-350.1241"/>
</g>
</g>
</svg>
        <g id="navigator" transform="translate(0 0)" fill="#404254">
                <rect fill="#f2f5e9" fill-opacity="0.5" stroke="#606060" stroke-width=".5" x="0" y="0" width="60" height="60"/>
                <use id="zoomplus" xlink:href="#zoomPlus" x="17" y="9" onmousedown="handleZoom(evt,'in')"/>
                <use id="zoomminus" xlink:href="#zoomMin" x="42" y="9" onmousedown="handleZoom(evt,'out')"/>
                <use id="reset" xlink:href="#resetDef" x="30" y="36" onmousedown="handleReset()"/>
                <g id="arrowUp" xlink:href="#dirArrow" transform="translate(30 24)" onmousedown="handlePan(0,-1)">
                  <use xlink:href="#rim" fill="#404040">
                        <set attributeName="fill" to="#808080" begin="arrowUp.mouseover" end="arrowUp.mouseout"/>
                  </use>
                  <path fill="none" stroke="white" stroke-width="1.5" d="M0,-3.0v7 M-2.5,-0.5L0,-3.0L2.5,-0.5"/>
                </g>
                <g id="arrowRight" xlink:href="#dirArrow" transform="rotate(90) translate(36 -43)" onmousedown="handlePan(1,0)">
                  <use xlink:href="#rim" fill="#404040">
                        <set attributeName="fill" to="#808080" begin="arrowRight.mouseover" end="arrowRight.mouseout"/>
                  </use>
                  <path fill="none" stroke="white" stroke-width="1.5" d="M0,-3.0v7 M-2.5,-0.5L0,-3.0L2.5,-0.5"/>
                </g>
                <g id="arrowDown" xlink:href="#dirArrow" transform="rotate(180) translate(-30 -48)" onmousedown="handlePan(0,1)">
                  <use xlink:href="#rim" fill="#404040">
                        <set attributeName="fill" to="#808080" begin="arrowDown.mouseover" end="arrowDown.mouseout"/>
                  </use>
                  <path fill="none" stroke="white" stroke-width="1.5" d="M0,-3.0v7 M-2.5,-0.5L0,-3.0L2.5,-0.5"/>
                </g>
                <g id="arrowLeft" xlink:href="#dirArrow" transform="rotate(270) translate(-36 17)" onmousedown="handlePan(-1,0)">
                  <use xlink:href="#rim" fill="#404040">
                        <set attributeName="fill" to="#808080" begin="arrowLeft.mouseover" end="arrowLeft.mouseout"/>
                  </use>
                  <path fill="none" stroke="white" stroke-width="1.5" d="M0,-3.0v7 M-2.5,-0.5L0,-3.0L2.5,-0.5"/>
                </g>
        </g>
        <svg viewBox="0 0 15 15" width="100%" height="30px" preserveAspectRatio="xMaxYMin meet">
         <g id="arrow_out" transform="scale(0.3 0.3)">
          <a xlink:href="namespacepcm__functions_acdb73aa523daabff83b15ce04492d70a_icgraph_org.svg" target="_base">
           <rect id="button" ry="5" rx="5" y="6" x="6" height="38" width="38"
                fill="#f2f5e9" fill-opacity="0.5" stroke="#606060" stroke-width="1.0"/>
           <path id="arrow"
             d="M 11.500037,31.436501 C 11.940474,20.09759 22.043105,11.32322 32.158766,21.979434 L 37.068811,17.246167 C 37.068811,17.246167 37.088388,32 37.088388,32 L 22.160133,31.978069 C 22.160133,31.978069 26.997745,27.140456 26.997745,27.140456 C 18.528582,18.264221 13.291696,25.230495 11.500037,31.436501 z"
             style="fill:#404040;"/>
          </a>
         </g>
        </svg>
</svg>
