<?xml version="1.0" encoding="UTF-8" standalone="no"?>
<!DOCTYPE svg PUBLIC "-//W3C//DTD SVG 1.1//EN"
 "http://www.w3.org/Graphics/SVG/1.1/DTD/svg11.dtd">
<!-- Generated by graphviz version 2.40.1 (20161225.0304)
 -->
<!-- Title: rgc_tracer::register_rgc_tracer Pages: 1 -->
<svg width="861pt" height="207pt"
 viewBox="0.00 0.00 861.00 206.92" xmlns="http://www.w3.org/2000/svg" xmlns:xlink="http://www.w3.org/1999/xlink">
<g id="graph0" class="graph" transform="scale(1 1) rotate(0) translate(4 202.9237)">
<title>rgc_tracer::register_rgc_tracer</title>
<polygon fill="#ffffff" stroke="transparent" points="-4,4 -4,-202.9237 857,-202.9237 857,4 -4,4"/>
<!-- Node1 -->
<g id="node1" class="node">
<title>Node1</title>
<g id="a_node1"><a xlink:title="This subroutine is used to register tracer fields.">
<polygon fill="#bfbfbf" stroke="#000000" points="0,-26.4237 0,-56.4237 98,-56.4237 98,-26.4237 0,-26.4237"/>
<text text-anchor="start" x="8" y="-44.4237" font-family="Helvetica,sans-Serif" font-size="10.00" fill="#000000">rgc_tracer::register</text>
<text text-anchor="middle" x="49" y="-33.4237" font-family="Helvetica,sans-Serif" font-size="10.00" fill="#000000">_rgc_tracer</text>
</a>
</g>
</g>
<!-- Node2 -->
<g id="node2" class="node">
<title>Node2</title>
<g id="a_node2"><a xlink:href="namespacemom__error__handler.html#a460cfb79a06c29fc249952c2a3710d67" target="_top" xlink:title="This provides a convenient interface for writing an mpp_error message with run&#45;time filter based on a...">
<polygon fill="#ffffff" stroke="#000000" points="605,-124.4237 605,-154.4237 711,-154.4237 711,-124.4237 605,-124.4237"/>
<text text-anchor="start" x="613" y="-142.4237" font-family="Helvetica,sans-Serif" font-size="10.00" fill="#000000">mom_error_handler::</text>
<text text-anchor="middle" x="658" y="-131.4237" font-family="Helvetica,sans-Serif" font-size="10.00" fill="#000000">mom_error</text>
</a>
</g>
</g>
<!-- Node1&#45;&gt;Node2 -->
<g id="edge1" class="edge">
<title>Node1&#45;&gt;Node2</title>
<path fill="none" stroke="#191970" d="M98.0895,-28.452C166.5212,-12.2073 294.3131,11.4478 402,-6.4237 479.3683,-19.2637 500.8562,-24.6019 569,-63.4237 594.5672,-77.9895 619.6894,-100.3971 636.6879,-117.1128"/>
<polygon fill="#191970" stroke="#191970" points="634.3593,-119.7343 643.8989,-124.3438 639.316,-114.7915 634.3593,-119.7343"/>
</g>
<!-- Node4 -->
<g id="node4" class="node">
<title>Node4</title>
<g id="a_node4"><a xlink:href="namespacemom__tracer__registry.html#a97a70989bd0318f51d90c2fc6f87c6f5" target="_top" xlink:title="This subroutine registers a tracer to be advected and laterally diffused.">
<polygon fill="#ffffff" stroke="#000000" points="134,-105.4237 134,-135.4237 240,-135.4237 240,-105.4237 134,-105.4237"/>
<text text-anchor="start" x="142" y="-123.4237" font-family="Helvetica,sans-Serif" font-size="10.00" fill="#000000">mom_tracer_registry</text>
<text text-anchor="middle" x="187" y="-112.4237" font-family="Helvetica,sans-Serif" font-size="10.00" fill="#000000">::register_tracer</text>
</a>
</g>
</g>
<!-- Node1&#45;&gt;Node4 -->
<g id="edge3" class="edge">
<title>Node1&#45;&gt;Node4</title>
<path fill="none" stroke="#191970" d="M75.2816,-56.469C96.9166,-68.8543 127.7896,-86.5279 151.6003,-100.1587"/>
<polygon fill="#191970" stroke="#191970" points="149.9288,-103.2347 160.3462,-105.1654 153.4065,-97.1597 149.9288,-103.2347"/>
</g>
<!-- Node8 -->
<g id="node8" class="node">
<title>Node8</title>
<g id="a_node8"><a xlink:href="namespacemom__io.html#a09be50ad112d6bc134d06d82fcbe1fdc" target="_top" xlink:title="Returns a vardesc type whose elements have been filled with the provided fields. The argument name is...">
<polygon fill="#ffffff" stroke="#000000" points="138.5,-31.9237 138.5,-50.9237 235.5,-50.9237 235.5,-31.9237 138.5,-31.9237"/>
<text text-anchor="middle" x="187" y="-38.9237" font-family="Helvetica,sans-Serif" font-size="10.00" fill="#000000">mom_io::var_desc</text>
</a>
</g>
</g>
<!-- Node1&#45;&gt;Node8 -->
<g id="edge11" class="edge">
<title>Node1&#45;&gt;Node8</title>
<path fill="none" stroke="#191970" d="M98.0422,-41.4237C107.7019,-41.4237 117.9325,-41.4237 127.8831,-41.4237"/>
<polygon fill="#191970" stroke="#191970" points="128.1158,-44.9238 138.1157,-41.4237 128.1157,-37.9238 128.1158,-44.9238"/>
</g>
<!-- Node3 -->
<g id="node3" class="node">
<title>Node3</title>
<g id="a_node3"><a xlink:href="namespacemom__error__handler.html#ad5f00a53059c72fe2332d1436c80ca71" target="_top" xlink:title="This returns .true. if the current PE is the root PE.">
<polygon fill="#ffffff" stroke="#000000" points="747,-146.4237 747,-176.4237 853,-176.4237 853,-146.4237 747,-146.4237"/>
<text text-anchor="start" x="755" y="-164.4237" font-family="Helvetica,sans-Serif" font-size="10.00" fill="#000000">mom_error_handler::</text>
<text text-anchor="middle" x="800" y="-153.4237" font-family="Helvetica,sans-Serif" font-size="10.00" fill="#000000">is_root_pe</text>
</a>
</g>
</g>
<!-- Node2&#45;&gt;Node3 -->
<g id="edge2" class="edge">
<title>Node2&#45;&gt;Node3</title>
<path fill="none" stroke="#191970" d="M711.2796,-147.6783C719.651,-148.9753 728.3736,-150.3267 736.94,-151.6539"/>
<polygon fill="#191970" stroke="#191970" points="736.4761,-155.1237 746.8941,-153.1961 737.5479,-148.2062 736.4761,-155.1237"/>
</g>
<!-- Node4&#45;&gt;Node2 -->
<g id="edge4" class="edge">
<title>Node4&#45;&gt;Node2</title>
<path fill="none" stroke="#191970" d="M240.1141,-122.5664C327.4207,-126.0883 500.8984,-133.0863 594.534,-136.8635"/>
<polygon fill="#191970" stroke="#191970" points="594.5862,-140.3684 604.7191,-137.2744 594.8684,-133.3741 594.5862,-140.3684"/>
</g>
<!-- Node5 -->
<g id="node5" class="node">
<title>Node5</title>
<g id="a_node5"><a xlink:href="namespacemom__io.html#aa583d22dfaf16e3157b2741d838f5240" target="_top" xlink:title="This routine queries vardesc.">
<polygon fill="#ffffff" stroke="#000000" points="278.5,-91.9237 278.5,-110.9237 399.5,-110.9237 399.5,-91.9237 278.5,-91.9237"/>
<text text-anchor="middle" x="339" y="-98.9237" font-family="Helvetica,sans-Serif" font-size="10.00" fill="#000000">mom_io::query_vardesc</text>
</a>
</g>
</g>
<!-- Node4&#45;&gt;Node5 -->
<g id="edge5" class="edge">
<title>Node4&#45;&gt;Node5</title>
<path fill="none" stroke="#191970" d="M240.1622,-113.7785C249.2155,-112.6468 258.7454,-111.4556 268.1689,-110.2776"/>
<polygon fill="#191970" stroke="#191970" points="268.8363,-113.7215 278.3249,-109.0081 267.968,-106.7756 268.8363,-113.7215"/>
</g>
<!-- Node7 -->
<g id="node7" class="node">
<title>Node7</title>
<g id="a_node7"><a xlink:href="namespacemom__tracer__registry.html#a452937bf1f9d01a47d1a80793e317b33" target="_top" xlink:title="Initialize the tracer registry.">
<polygon fill="#ffffff" stroke="#000000" points="450.5,-168.4237 450.5,-198.4237 556.5,-198.4237 556.5,-168.4237 450.5,-168.4237"/>
<text text-anchor="start" x="458.5" y="-186.4237" font-family="Helvetica,sans-Serif" font-size="10.00" fill="#000000">mom_tracer_registry</text>
<text text-anchor="middle" x="503.5" y="-175.4237" font-family="Helvetica,sans-Serif" font-size="10.00" fill="#000000">::tracer_registry_init</text>
</a>
</g>
</g>
<!-- Node4&#45;&gt;Node7 -->
<g id="edge8" class="edge">
<title>Node4&#45;&gt;Node7</title>
<path fill="none" stroke="#191970" d="M221.941,-135.446C238.1226,-141.8632 257.7659,-148.9018 276,-153.4237 330.6415,-166.9746 394.2792,-174.7065 440.3317,-178.9145"/>
<polygon fill="#191970" stroke="#191970" points="440.1981,-182.4162 450.4673,-179.8097 440.8141,-175.4434 440.1981,-182.4162"/>
</g>
<!-- Node6 -->
<g id="node6" class="node">
<title>Node6</title>
<g id="a_node6"><a xlink:href="namespacemom__io.html#ac4bc408e8b38dbd669842753f26ebf88" target="_top" xlink:title="Copies a string.">
<polygon fill="#ffffff" stroke="#000000" points="438,-72.9237 438,-91.9237 569,-91.9237 569,-72.9237 438,-72.9237"/>
<text text-anchor="middle" x="503.5" y="-79.9237" font-family="Helvetica,sans-Serif" font-size="10.00" fill="#000000">mom_io::safe_string_copy</text>
</a>
</g>
</g>
<!-- Node5&#45;&gt;Node6 -->
<g id="edge6" class="edge">
<title>Node5&#45;&gt;Node6</title>
<path fill="none" stroke="#191970" d="M399.7864,-94.4028C408.9272,-93.347 418.4484,-92.2473 427.8537,-91.161"/>
<polygon fill="#191970" stroke="#191970" points="428.4581,-94.6146 437.9904,-89.9902 427.6548,-87.6608 428.4581,-94.6146"/>
</g>
<!-- Node6&#45;&gt;Node2 -->
<g id="edge7" class="edge">
<title>Node6&#45;&gt;Node2</title>
<path fill="none" stroke="#191970" d="M529.3598,-91.9643C550.7054,-99.8393 581.6315,-111.249 607.8112,-120.9075"/>
<polygon fill="#191970" stroke="#191970" points="606.6218,-124.1992 617.2151,-124.3769 609.0447,-117.6319 606.6218,-124.1992"/>
</g>
<!-- Node7&#45;&gt;Node2 -->
<g id="edge10" class="edge">
<title>Node7&#45;&gt;Node2</title>
<path fill="none" stroke="#191970" d="M556.238,-168.4045C568.8465,-164.8137 582.427,-160.9462 595.4311,-157.2427"/>
<polygon fill="#191970" stroke="#191970" points="596.5786,-160.5552 605.2375,-154.4499 594.6613,-153.8229 596.5786,-160.5552"/>
</g>
<!-- Node7&#45;&gt;Node3 -->
<g id="edge9" class="edge">
<title>Node7&#45;&gt;Node3</title>
<path fill="none" stroke="#191970" d="M556.5083,-179.4906C607.0529,-175.7402 683.2119,-170.0893 736.8702,-166.1079"/>
<polygon fill="#191970" stroke="#191970" points="737.2381,-169.5903 746.9517,-165.3599 736.7201,-162.6095 737.2381,-169.5903"/>
</g>
<!-- Node8&#45;&gt;Node6 -->
<g id="edge14" class="edge">
<title>Node8&#45;&gt;Node6</title>
<path fill="none" stroke="#191970" d="M235.7595,-47.7401C286.9836,-54.3758 368.2281,-64.9004 427.7987,-72.6173"/>
<polygon fill="#191970" stroke="#191970" points="427.5429,-76.1133 437.9097,-73.9271 428.4423,-69.1713 427.5429,-76.1133"/>
</g>
<!-- Node9 -->
<g id="node9" class="node">
<title>Node9</title>
<g id="a_node9"><a xlink:href="namespacemom__io.html#a0dff28e4952f43175f84cd9cdcda9837" target="_top" xlink:title="This routine modifies the named elements of a vardesc type. All arguments are optional,...">
<polygon fill="#ffffff" stroke="#000000" points="276,-15.9237 276,-34.9237 402,-34.9237 402,-15.9237 276,-15.9237"/>
<text text-anchor="middle" x="339" y="-22.9237" font-family="Helvetica,sans-Serif" font-size="10.00" fill="#000000">mom_io::modify_vardesc</text>
</a>
</g>
</g>
<!-- Node8&#45;&gt;Node9 -->
<g id="edge12" class="edge">
<title>Node8&#45;&gt;Node9</title>
<path fill="none" stroke="#191970" d="M235.5117,-36.3173C245.1556,-35.3021 255.4821,-34.2151 265.7418,-33.1351"/>
<polygon fill="#191970" stroke="#191970" points="266.3729,-36.5881 275.9515,-32.0604 265.6401,-29.6266 266.3729,-36.5881"/>
</g>
<!-- Node9&#45;&gt;Node6 -->
<g id="edge13" class="edge">
<title>Node9&#45;&gt;Node6</title>
<path fill="none" stroke="#191970" d="M366.5336,-34.9643C393.8153,-44.4175 435.7959,-58.964 466.0893,-69.4608"/>
<polygon fill="#191970" stroke="#191970" points="465.2818,-72.8851 475.8766,-72.8521 467.5737,-66.2709 465.2818,-72.8851"/>
</g>
</g>
</svg>
