<?xml version="1.0" encoding="UTF-8" standalone="no"?>
<!DOCTYPE svg PUBLIC "-//W3C//DTD SVG 1.1//EN"
 "http://www.w3.org/Graphics/SVG/1.1/DTD/svg11.dtd">
<!-- Generated by graphviz version 2.40.1 (20161225.0304)
 -->
<!-- Title: mom_tidal_forcing::tidal_forcing_init Pages: 1 -->
<svg width="276pt" height="160pt"
 viewBox="0.00 0.00 276.00 160.00" xmlns="http://www.w3.org/2000/svg" xmlns:xlink="http://www.w3.org/1999/xlink">
<g id="graph0" class="graph" transform="scale(1 1) rotate(0) translate(4 156)">
<title>mom_tidal_forcing::tidal_forcing_init</title>
<polygon fill="#ffffff" stroke="transparent" points="-4,4 -4,-156 272,-156 272,4 -4,4"/>
<!-- Node1 -->
<g id="node1" class="node">
<title>Node1</title>
<g id="a_node1"><a xlink:title="This subroutine allocates space for the static variables used by this module. The metrics may be effe...">
<polygon fill="#bfbfbf" stroke="#000000" points="161,-61 161,-91 268,-91 268,-61 161,-61"/>
<text text-anchor="start" x="169" y="-79" font-family="Helvetica,sans-Serif" font-size="10.00" fill="#000000">mom_tidal_forcing::</text>
<text text-anchor="middle" x="214.5" y="-68" font-family="Helvetica,sans-Serif" font-size="10.00" fill="#000000">tidal_forcing_init</text>
</a>
</g>
</g>
<!-- Node2 -->
<g id="node2" class="node">
<title>Node2</title>
<g id="a_node2"><a xlink:href="namespacemom__dynamics__split__rk2.html#aa9a0a027754d3ca2d49f3993bc64b1b7" target="_top" xlink:title="This subroutine initializes all of the variables that are used by this dynamic core,...">
<polygon fill="#ffffff" stroke="#000000" points="5.5,-110.5 5.5,-151.5 119.5,-151.5 119.5,-110.5 5.5,-110.5"/>
<text text-anchor="start" x="13.5" y="-139.5" font-family="Helvetica,sans-Serif" font-size="10.00" fill="#000000">mom_dynamics_split</text>
<text text-anchor="start" x="13.5" y="-128.5" font-family="Helvetica,sans-Serif" font-size="10.00" fill="#000000">_rk2::initialize_dyn</text>
<text text-anchor="middle" x="62.5" y="-117.5" font-family="Helvetica,sans-Serif" font-size="10.00" fill="#000000">_split_rk2</text>
</a>
</g>
</g>
<!-- Node1&#45;&gt;Node2 -->
<g id="edge1" class="edge">
<title>Node1&#45;&gt;Node2</title>
<path fill="none" stroke="#191970" d="M163.4071,-94.4875C149.2617,-99.606 133.8219,-105.1927 119.3694,-110.4223"/>
<polygon fill="#191970" stroke="#191970" points="164.7529,-97.7228 172.9653,-91.029 162.3711,-91.1404 164.7529,-97.7228"/>
</g>
<!-- Node3 -->
<g id="node3" class="node">
<title>Node3</title>
<g id="a_node3"><a xlink:href="namespacemom__dynamics__unsplit.html#a60f13a45463d31749046a7908a5a589e" target="_top" xlink:title="Initialize parameters and allocate memory associated with the unsplit dynamics module.">
<polygon fill="#ffffff" stroke="#000000" points="0,-61 0,-91 125,-91 125,-61 0,-61"/>
<text text-anchor="start" x="8" y="-79" font-family="Helvetica,sans-Serif" font-size="10.00" fill="#000000">mom_dynamics_unsplit</text>
<text text-anchor="middle" x="62.5" y="-68" font-family="Helvetica,sans-Serif" font-size="10.00" fill="#000000">::initialize_dyn_unsplit</text>
</a>
</g>
</g>
<!-- Node1&#45;&gt;Node3 -->
<g id="edge2" class="edge">
<title>Node1&#45;&gt;Node3</title>
<path fill="none" stroke="#191970" d="M150.7435,-76C142.3005,-76 133.6504,-76 125.2249,-76"/>
<polygon fill="#191970" stroke="#191970" points="150.9105,-79.5001 160.9105,-76 150.9105,-72.5001 150.9105,-79.5001"/>
</g>
<!-- Node4 -->
<g id="node4" class="node">
<title>Node4</title>
<g id="a_node4"><a xlink:href="namespacemom__dynamics__unsplit__rk2.html#a1e1bea48a35b64c87b5b9d0965378592" target="_top" xlink:title="Initialize parameters and allocate memory associated with the unsplit RK2 dynamics module.">
<polygon fill="#ffffff" stroke="#000000" points="0,-.5 0,-41.5 125,-41.5 125,-.5 0,-.5"/>
<text text-anchor="start" x="8" y="-29.5" font-family="Helvetica,sans-Serif" font-size="10.00" fill="#000000">mom_dynamics_unsplit</text>
<text text-anchor="start" x="8" y="-18.5" font-family="Helvetica,sans-Serif" font-size="10.00" fill="#000000">_rk2::initialize_dyn</text>
<text text-anchor="middle" x="62.5" y="-7.5" font-family="Helvetica,sans-Serif" font-size="10.00" fill="#000000">_unsplit_rk2</text>
</a>
</g>
</g>
<!-- Node1&#45;&gt;Node4 -->
<g id="edge3" class="edge">
<title>Node1&#45;&gt;Node4</title>
<path fill="none" stroke="#191970" d="M163.4071,-57.5125C149.2617,-52.394 133.8219,-46.8073 119.3694,-41.5777"/>
<polygon fill="#191970" stroke="#191970" points="162.3711,-60.8596 172.9653,-60.971 164.7529,-54.2772 162.3711,-60.8596"/>
</g>
</g>
</svg>
