<?xml version="1.0" encoding="UTF-8" standalone="no"?>
<!DOCTYPE svg PUBLIC "-//W3C//DTD SVG 1.1//EN"
 "http://www.w3.org/Graphics/SVG/1.1/DTD/svg11.dtd">
<!-- Generated by graphviz version 2.40.1 (20161225.0304)
 -->
<!-- Title: mom_ocmip2_cfc::init_tracer_cfc Pages: 1 -->
<!--zoomable 178 -->
<svg id="main" version="1.1" xmlns="http://www.w3.org/2000/svg" xmlns:xlink="http://www.w3.org/1999/xlink" xml:space="preserve" onload="init(evt)">
<style type="text/css"><![CDATA[
.edge:hover path { stroke: red; }
.edge:hover polygon { stroke: red; fill: red; }
]]></style>
<script type="text/javascript"><![CDATA[
var edges = document.getElementsByTagName('g');
if (edges && edges.length) {
  for (var i=0;i<edges.length;i++) {
    if (edges[i].id.substr(0,4)=='edge') {
      edges[i].setAttribute('class','edge');
    }
  }
}
]]></script>
        <defs>
                <circle id="rim" cx="0" cy="0" r="7"/>
                <circle id="rim2" cx="0" cy="0" r="3.5"/>
                <g id="zoomPlus">
                        <use xlink:href="#rim" fill="#404040">
                                <set attributeName="fill" to="#808080" begin="zoomplus.mouseover" end="zoomplus.mouseout"/>
                        </use>
                        <path d="M-4,0h8M0,-4v8" fill="none" stroke="white" stroke-width="1.5" pointer-events="none"/>
                </g>
                <g id="zoomMin">
                        <use xlink:href="#rim" fill="#404040">
                                <set attributeName="fill" to="#808080" begin="zoomminus.mouseover" end="zoomminus.mouseout"/>
                        </use>
                        <path d="M-4,0h8" fill="none" stroke="white" stroke-width="1.5" pointer-events="none"/>
                </g>
                <g id="dirArrow">
                        <path fill="none" stroke="white" stroke-width="1.5" d="M0,-3.0v7 M-2.5,-0.5L0,-3.0L2.5,-0.5"/>
                </g>
               <g id="resetDef">
                       <use xlink:href="#rim2" fill="#404040">
                               <set attributeName="fill" to="#808080" begin="reset.mouseover" end="reset.mouseout"/>
                       </use>
               </g>
        </defs>

<script type="text/javascript">
var viewWidth = 683;
var viewHeight = 178;
var sectionId = 'dynsection-2';
</script>
<script xlink:href="svgpan.js"/>
<svg id="graph" class="graph">
<g id="viewport">
<title>mom_ocmip2_cfc::init_tracer_cfc</title>
<polygon fill="#ffffff" stroke="transparent" points="-4,4 -4,-174 679,-174 679,4 -4,4"/>
<!-- Node1 -->
<g id="node1" class="node">
<title>Node1</title>
<g id="a_node1"><a xlink:title="This subroutine initializes a tracer array.">
<polygon fill="#bfbfbf" stroke="#000000" points="0,-139.5 0,-169.5 113,-169.5 113,-139.5 0,-139.5"/>
<text text-anchor="start" x="8" y="-157.5" font-family="Helvetica,sans-Serif" font-size="10.00" fill="#000000">mom_ocmip2_cfc::init</text>
<text text-anchor="middle" x="56.5" y="-146.5" font-family="Helvetica,sans-Serif" font-size="10.00" fill="#000000">_tracer_cfc</text>
</a>
</g>
</g>
<!-- Node2 -->
<g id="node2" class="node">
<title>Node2</title>
<g id="a_node2"><a xlink:href="namespacemom__error__handler.html#a460cfb79a06c29fc249952c2a3710d67" target="_top" xlink:title="This provides a convenient interface for writing an mpp_error message with run&#45;time filter based on a...">
<polygon fill="#ffffff" stroke="#000000" points="427,-118.5 427,-148.5 533,-148.5 533,-118.5 427,-118.5"/>
<text text-anchor="start" x="435" y="-136.5" font-family="Helvetica,sans-Serif" font-size="10.00" fill="#000000">mom_error_handler::</text>
<text text-anchor="middle" x="480" y="-125.5" font-family="Helvetica,sans-Serif" font-size="10.00" fill="#000000">mom_error</text>
</a>
</g>
</g>
<!-- Node1&#45;&gt;Node2 -->
<g id="edge1" class="edge">
<title>Node1&#45;&gt;Node2</title>
<path fill="none" stroke="#191970" d="M113.2526,-158.4813C179.9797,-162.2432 293.9474,-165.7949 391,-154.5 399.3873,-153.5239 408.1312,-152.0469 416.7214,-150.3193"/>
<polygon fill="#191970" stroke="#191970" points="417.654,-153.6992 426.7045,-148.1911 416.1945,-146.853 417.654,-153.6992"/>
</g>
<!-- Node4 -->
<g id="node4" class="node">
<title>Node4</title>
<g id="a_node4"><a xlink:href="namespacemom__tracer__z__init.html#aef33387149983391f1ea92bad7344360" target="_top" xlink:title="This function initializes a tracer by reading a Z&#45;space file, returning .true. if this appears to hav...">
<polygon fill="#ffffff" stroke="#000000" points="149,-98.5 149,-128.5 252,-128.5 252,-98.5 149,-98.5"/>
<text text-anchor="start" x="157" y="-116.5" font-family="Helvetica,sans-Serif" font-size="10.00" fill="#000000">mom_tracer_z_init::</text>
<text text-anchor="middle" x="200.5" y="-105.5" font-family="Helvetica,sans-Serif" font-size="10.00" fill="#000000">tracer_z_init</text>
</a>
</g>
</g>
<!-- Node1&#45;&gt;Node4 -->
<g id="edge3" class="edge">
<title>Node1&#45;&gt;Node4</title>
<path fill="none" stroke="#191970" d="M109.3026,-139.4659C118.9348,-136.7234 129.0616,-133.8401 138.9219,-131.0326"/>
<polygon fill="#191970" stroke="#191970" points="140.006,-134.3632 148.6653,-128.2585 138.0891,-127.6307 140.006,-134.3632"/>
</g>
<!-- Node3 -->
<g id="node3" class="node">
<title>Node3</title>
<g id="a_node3"><a xlink:href="namespacemom__error__handler.html#ad5f00a53059c72fe2332d1436c80ca71" target="_top" xlink:title="This returns .true. if the current PE is the root PE.">
<polygon fill="#ffffff" stroke="#000000" points="569,-70.5 569,-100.5 675,-100.5 675,-70.5 569,-70.5"/>
<text text-anchor="start" x="577" y="-88.5" font-family="Helvetica,sans-Serif" font-size="10.00" fill="#000000">mom_error_handler::</text>
<text text-anchor="middle" x="622" y="-77.5" font-family="Helvetica,sans-Serif" font-size="10.00" fill="#000000">is_root_pe</text>
</a>
</g>
</g>
<!-- Node2&#45;&gt;Node3 -->
<g id="edge2" class="edge">
<title>Node2&#45;&gt;Node3</title>
<path fill="none" stroke="#191970" d="M524.5401,-118.4442C538.2858,-113.7977 553.5757,-108.6294 567.8926,-103.7898"/>
<polygon fill="#191970" stroke="#191970" points="569.2654,-107.0204 577.618,-100.5024 567.0237,-100.389 569.2654,-107.0204"/>
</g>
<!-- Node4&#45;&gt;Node2 -->
<g id="edge6" class="edge">
<title>Node4&#45;&gt;Node2</title>
<path fill="none" stroke="#191970" d="M244.0498,-128.5206C257.9227,-132.6055 273.4491,-136.4621 288,-138.5 330.5601,-144.4608 378.931,-143.1523 416.4744,-140.3832"/>
<polygon fill="#191970" stroke="#191970" points="417.0703,-143.8471 426.7627,-139.5683 416.5175,-136.869 417.0703,-143.8471"/>
</g>
<!-- Node5 -->
<g id="node5" class="node">
<title>Node5</title>
<g id="a_node5"><a xlink:href="namespacemom__tracer__z__init.html#a226f9ae9c2532e8d7047e6bf5680bd7a" target="_top" xlink:title="This subroutine determines a limited slope for val to be advected with a piecewise limited scheme.">
<polygon fill="#ffffff" stroke="#000000" points="288,-98.5 288,-128.5 391,-128.5 391,-98.5 288,-98.5"/>
<text text-anchor="start" x="296" y="-116.5" font-family="Helvetica,sans-Serif" font-size="10.00" fill="#000000">mom_tracer_z_init::</text>
<text text-anchor="middle" x="339.5" y="-105.5" font-family="Helvetica,sans-Serif" font-size="10.00" fill="#000000">find_limited_slope</text>
</a>
</g>
</g>
<!-- Node4&#45;&gt;Node5 -->
<g id="edge4" class="edge">
<title>Node4&#45;&gt;Node5</title>
<path fill="none" stroke="#191970" d="M252.2585,-113.5C260.4897,-113.5 269.0768,-113.5 277.5144,-113.5"/>
<polygon fill="#191970" stroke="#191970" points="277.6983,-117.0001 287.6983,-113.5 277.6983,-110.0001 277.6983,-117.0001"/>
</g>
<!-- Node6 -->
<g id="node6" class="node">
<title>Node6</title>
<g id="a_node6"><a xlink:href="namespacemom__tracer__z__init.html#a4cfb4818fc391a8d95ce737c06662d25" target="_top" xlink:title="Determines the layers bounded by interfaces e that overlap with the depth range between Z_top and Z_b...">
<polygon fill="#ffffff" stroke="#000000" points="288,-49.5 288,-79.5 391,-79.5 391,-49.5 288,-49.5"/>
<text text-anchor="start" x="296" y="-67.5" font-family="Helvetica,sans-Serif" font-size="10.00" fill="#000000">mom_tracer_z_init::</text>
<text text-anchor="middle" x="339.5" y="-56.5" font-family="Helvetica,sans-Serif" font-size="10.00" fill="#000000">find_overlap</text>
</a>
</g>
</g>
<!-- Node4&#45;&gt;Node6 -->
<g id="edge5" class="edge">
<title>Node4&#45;&gt;Node6</title>
<path fill="none" stroke="#191970" d="M243.3388,-98.3986C257.0789,-93.5549 272.4577,-88.1336 286.8175,-83.0715"/>
<polygon fill="#191970" stroke="#191970" points="288.2959,-86.2615 296.5634,-79.6359 285.9686,-79.6597 288.2959,-86.2615"/>
</g>
<!-- Node7 -->
<g id="node7" class="node">
<title>Node7</title>
<g id="a_node7"><a xlink:href="namespacemom__tracer__z__init.html#a9f9a4d16dbd230d126b3f4d255071ad8" target="_top" xlink:title="This subroutine reads the vertical coordinate data for a field from a NetCDF file....">
<polygon fill="#ffffff" stroke="#000000" points="288,-.5 288,-30.5 391,-30.5 391,-.5 288,-.5"/>
<text text-anchor="start" x="296" y="-18.5" font-family="Helvetica,sans-Serif" font-size="10.00" fill="#000000">mom_tracer_z_init::</text>
<text text-anchor="middle" x="339.5" y="-7.5" font-family="Helvetica,sans-Serif" font-size="10.00" fill="#000000">read_z_edges</text>
</a>
</g>
</g>
<!-- Node4&#45;&gt;Node7 -->
<g id="edge7" class="edge">
<title>Node4&#45;&gt;Node7</title>
<path fill="none" stroke="#191970" d="M215.9369,-98.2158C232.6778,-82.1962 260.6813,-56.9738 288,-39.5 290.1813,-38.1048 292.4568,-36.7433 294.7841,-35.4234"/>
<polygon fill="#191970" stroke="#191970" points="296.7466,-38.3438 303.9287,-30.5548 293.4569,-32.1649 296.7466,-38.3438"/>
</g>
<!-- Node7&#45;&gt;Node2 -->
<g id="edge8" class="edge">
<title>Node7&#45;&gt;Node2</title>
<path fill="none" stroke="#191970" d="M377.3025,-30.5573C382.1271,-33.2027 386.8296,-36.1863 391,-39.5 411.3259,-55.6504 409.3143,-66.4949 427,-85.5 435.3724,-94.497 445.1955,-103.7138 454.0952,-111.635"/>
<polygon fill="#191970" stroke="#191970" points="451.79,-114.2687 461.6187,-118.2244 456.402,-109.0028 451.79,-114.2687"/>
</g>
<!-- Node8 -->
<g id="node8" class="node">
<title>Node8</title>
<g id="a_node8"><a xlink:href="namespacemom__error__handler.html#a1c462df7b61f1296407b4af51dfeceab" target="_top" xlink:title="This provides a convenient interface for writing an informative comment.">
<polygon fill="#ffffff" stroke="#000000" points="427,-46.5 427,-76.5 533,-76.5 533,-46.5 427,-46.5"/>
<text text-anchor="start" x="435" y="-64.5" font-family="Helvetica,sans-Serif" font-size="10.00" fill="#000000">mom_error_handler::</text>
<text text-anchor="middle" x="480" y="-53.5" font-family="Helvetica,sans-Serif" font-size="10.00" fill="#000000">mom_mesg</text>
</a>
</g>
</g>
<!-- Node7&#45;&gt;Node8 -->
<g id="edge9" class="edge">
<title>Node7&#45;&gt;Node8</title>
<path fill="none" stroke="#191970" d="M385.505,-30.5621C397.8772,-34.6128 411.393,-39.0379 424.2339,-43.2421"/>
<polygon fill="#191970" stroke="#191970" points="423.299,-46.6187 433.8917,-46.404 425.4771,-39.9662 423.299,-46.6187"/>
</g>
<!-- Node8&#45;&gt;Node3 -->
<g id="edge10" class="edge">
<title>Node8&#45;&gt;Node3</title>
<path fill="none" stroke="#191970" d="M533.2796,-70.505C541.651,-71.9199 550.3736,-73.3941 558.94,-74.842"/>
<polygon fill="#191970" stroke="#191970" points="558.4506,-78.3088 568.8941,-76.5244 559.6172,-71.4067 558.4506,-78.3088"/>
</g>
</g>
</svg>
        <g id="navigator" transform="translate(0 0)" fill="#404254">
                <rect fill="#f2f5e9" fill-opacity="0.5" stroke="#606060" stroke-width=".5" x="0" y="0" width="60" height="60"/>
                <use id="zoomplus" xlink:href="#zoomPlus" x="17" y="9" onmousedown="handleZoom(evt,'in')"/>
                <use id="zoomminus" xlink:href="#zoomMin" x="42" y="9" onmousedown="handleZoom(evt,'out')"/>
                <use id="reset" xlink:href="#resetDef" x="30" y="36" onmousedown="handleReset()"/>
                <g id="arrowUp" xlink:href="#dirArrow" transform="translate(30 24)" onmousedown="handlePan(0,-1)">
                  <use xlink:href="#rim" fill="#404040">
                        <set attributeName="fill" to="#808080" begin="arrowUp.mouseover" end="arrowUp.mouseout"/>
                  </use>
                  <path fill="none" stroke="white" stroke-width="1.5" d="M0,-3.0v7 M-2.5,-0.5L0,-3.0L2.5,-0.5"/>
                </g>
                <g id="arrowRight" xlink:href="#dirArrow" transform="rotate(90) translate(36 -43)" onmousedown="handlePan(1,0)">
                  <use xlink:href="#rim" fill="#404040">
                        <set attributeName="fill" to="#808080" begin="arrowRight.mouseover" end="arrowRight.mouseout"/>
                  </use>
                  <path fill="none" stroke="white" stroke-width="1.5" d="M0,-3.0v7 M-2.5,-0.5L0,-3.0L2.5,-0.5"/>
                </g>
                <g id="arrowDown" xlink:href="#dirArrow" transform="rotate(180) translate(-30 -48)" onmousedown="handlePan(0,1)">
                  <use xlink:href="#rim" fill="#404040">
                        <set attributeName="fill" to="#808080" begin="arrowDown.mouseover" end="arrowDown.mouseout"/>
                  </use>
                  <path fill="none" stroke="white" stroke-width="1.5" d="M0,-3.0v7 M-2.5,-0.5L0,-3.0L2.5,-0.5"/>
                </g>
                <g id="arrowLeft" xlink:href="#dirArrow" transform="rotate(270) translate(-36 17)" onmousedown="handlePan(-1,0)">
                  <use xlink:href="#rim" fill="#404040">
                        <set attributeName="fill" to="#808080" begin="arrowLeft.mouseover" end="arrowLeft.mouseout"/>
                  </use>
                  <path fill="none" stroke="white" stroke-width="1.5" d="M0,-3.0v7 M-2.5,-0.5L0,-3.0L2.5,-0.5"/>
                </g>
        </g>
        <svg viewBox="0 0 15 15" width="100%" height="30px" preserveAspectRatio="xMaxYMin meet">
         <g id="arrow_out" transform="scale(0.3 0.3)">
          <a xlink:href="namespacemom__ocmip2__cfc_a293cd355bf164bfd6bbe2cda4b00ad12_cgraph_org.svg" target="_base">
           <rect id="button" ry="5" rx="5" y="6" x="6" height="38" width="38"
                fill="#f2f5e9" fill-opacity="0.5" stroke="#606060" stroke-width="1.0"/>
           <path id="arrow"
             d="M 11.500037,31.436501 C 11.940474,20.09759 22.043105,11.32322 32.158766,21.979434 L 37.068811,17.246167 C 37.068811,17.246167 37.088388,32 37.088388,32 L 22.160133,31.978069 C 22.160133,31.978069 26.997745,27.140456 26.997745,27.140456 C 18.528582,18.264221 13.291696,25.230495 11.500037,31.436501 z"
             style="fill:#404040;"/>
          </a>
         </g>
        </svg>
</svg>
