<?xml version="1.0" encoding="UTF-8" standalone="no"?>
<!DOCTYPE svg PUBLIC "-//W3C//DTD SVG 1.1//EN"
 "http://www.w3.org/Graphics/SVG/1.1/DTD/svg11.dtd">
<!-- Generated by graphviz version 2.40.1 (20161225.0304)
 -->
<!-- Title: mom_document::testformattedfloatisreal Pages: 1 -->
<svg width="754pt" height="116pt"
 viewBox="0.00 0.00 754.00 115.50" xmlns="http://www.w3.org/2000/svg" xmlns:xlink="http://www.w3.org/1999/xlink">
<g id="graph0" class="graph" transform="scale(1 1) rotate(0) translate(4 111.5)">
<title>mom_document::testformattedfloatisreal</title>
<polygon fill="#ffffff" stroke="transparent" points="-4,4 -4,-111.5 750,-111.5 750,4 -4,4"/>
<!-- Node1 -->
<g id="node1" class="node">
<title>Node1</title>
<g id="a_node1"><a xlink:title="This function tests whether a real value is encoded in a string.">
<polygon fill="#bfbfbf" stroke="#000000" points="543,-50 543,-69 746,-69 746,-50 543,-50"/>
<text text-anchor="middle" x="644.5" y="-57" font-family="Helvetica,sans-Serif" font-size="10.00" fill="#000000">mom_document::testformattedfloatisreal</text>
</a>
</g>
</g>
<!-- Node2 -->
<g id="node2" class="node">
<title>Node2</title>
<g id="a_node2"><a xlink:href="namespacemom__document.html#a966b8926bf40ee436654a0048b2bf42a" target="_top" xlink:title="This function returns a string with a real formatted like &#39;(G)&#39;.">
<polygon fill="#ffffff" stroke="#000000" points="394,-44.5 394,-74.5 507,-74.5 507,-44.5 394,-44.5"/>
<text text-anchor="start" x="402" y="-62.5" font-family="Helvetica,sans-Serif" font-size="10.00" fill="#000000">mom_document::real</text>
<text text-anchor="middle" x="450.5" y="-51.5" font-family="Helvetica,sans-Serif" font-size="10.00" fill="#000000">_string</text>
</a>
</g>
</g>
<!-- Node1&#45;&gt;Node2 -->
<g id="edge1" class="edge">
<title>Node1&#45;&gt;Node2</title>
<path fill="none" stroke="#191970" d="M532.9153,-59.5C524.0714,-59.5 515.393,-59.5 507.1833,-59.5"/>
<polygon fill="#191970" stroke="#191970" points="532.9546,-63.0001 542.9546,-59.5 532.9546,-56.0001 532.9546,-63.0001"/>
</g>
<!-- Node3 -->
<g id="node3" class="node">
<title>Node3</title>
<g id="a_node3"><a xlink:href="namespacemom__document.html#a350768d3604d8071328248457cff3b7c" target="_top" xlink:title="This subroutine handles parameter documentation for reals.">
<polygon fill="#ffffff" stroke="#000000" points="185,-88 185,-107 358,-107 358,-88 185,-88"/>
<text text-anchor="middle" x="271.5" y="-95" font-family="Helvetica,sans-Serif" font-size="10.00" fill="#000000">mom_document::doc_param_real</text>
</a>
</g>
</g>
<!-- Node2&#45;&gt;Node3 -->
<g id="edge2" class="edge">
<title>Node2&#45;&gt;Node3</title>
<path fill="none" stroke="#191970" d="M384.0209,-73.6129C361.4962,-78.3947 336.8844,-83.6195 316.4382,-87.96"/>
<polygon fill="#191970" stroke="#191970" points="384.8081,-77.0238 393.8633,-71.5234 383.3544,-70.1764 384.8081,-77.0238"/>
</g>
<!-- Node4 -->
<g id="node4" class="node">
<title>Node4</title>
<g id="a_node4"><a xlink:href="namespacemom__document.html#ae4b7c9070b5a4be36cb73f173fa82acd" target="_top" xlink:title="This subroutine handles parameter documentation for arrays of reals.">
<polygon fill="#ffffff" stroke="#000000" points="0,-22.5 0,-52.5 149,-52.5 149,-22.5 0,-22.5"/>
<text text-anchor="start" x="8" y="-40.5" font-family="Helvetica,sans-Serif" font-size="10.00" fill="#000000">mom_document::doc_param</text>
<text text-anchor="middle" x="74.5" y="-29.5" font-family="Helvetica,sans-Serif" font-size="10.00" fill="#000000">_real_array</text>
</a>
</g>
</g>
<!-- Node2&#45;&gt;Node4 -->
<g id="edge3" class="edge">
<title>Node2&#45;&gt;Node4</title>
<path fill="none" stroke="#191970" d="M383.5473,-55.5826C317.749,-51.7327 217.5335,-45.869 149.1876,-41.87"/>
<polygon fill="#191970" stroke="#191970" points="383.6145,-59.0924 393.8019,-56.1826 384.0234,-52.1043 383.6145,-59.0924"/>
</g>
<!-- Node5 -->
<g id="node5" class="node">
<title>Node5</title>
<g id="a_node5"><a xlink:href="namespacemom__document.html#a436486f7289eafc7b4e8ba65812f3459" target="_top" xlink:title="Returns a character string of a comma&#45;separated, compact formatted, reals e.g. &quot;1....">
<polygon fill="#ffffff" stroke="#000000" points="215,-.5 215,-30.5 328,-30.5 328,-.5 215,-.5"/>
<text text-anchor="start" x="223" y="-18.5" font-family="Helvetica,sans-Serif" font-size="10.00" fill="#000000">mom_document::real</text>
<text text-anchor="middle" x="271.5" y="-7.5" font-family="Helvetica,sans-Serif" font-size="10.00" fill="#000000">_array_string</text>
</a>
</g>
</g>
<!-- Node2&#45;&gt;Node5 -->
<g id="edge4" class="edge">
<title>Node2&#45;&gt;Node5</title>
<path fill="none" stroke="#191970" d="M384.0917,-43.1762C365.68,-38.6504 345.8689,-33.7806 328.0753,-29.4068"/>
<polygon fill="#191970" stroke="#191970" points="383.3169,-46.5898 393.8633,-45.5781 384.9878,-39.7922 383.3169,-46.5898"/>
</g>
<!-- Node5&#45;&gt;Node4 -->
<g id="edge5" class="edge">
<title>Node5&#45;&gt;Node4</title>
<path fill="none" stroke="#191970" d="M204.4954,-22.9827C186.6858,-24.9716 167.3409,-27.132 149.1506,-29.1634"/>
<polygon fill="#191970" stroke="#191970" points="205.234,-26.4221 214.7837,-21.8338 204.457,-19.4654 205.234,-26.4221"/>
</g>
</g>
</svg>
