<?xml version="1.0" encoding="UTF-8" standalone="no"?>
<!DOCTYPE svg PUBLIC "-//W3C//DTD SVG 1.1//EN"
 "http://www.w3.org/Graphics/SVG/1.1/DTD/svg11.dtd">
<!-- Generated by graphviz version 2.40.1 (20161225.0304)
 -->
<!-- Title: mom_domains::get_domain_extent Pages: 1 -->
<svg width="709pt" height="125pt"
 viewBox="0.00 0.00 709.00 124.50" xmlns="http://www.w3.org/2000/svg" xmlns:xlink="http://www.w3.org/1999/xlink">
<g id="graph0" class="graph" transform="scale(1 1) rotate(0) translate(4 120.5)">
<title>mom_domains::get_domain_extent</title>
<polygon fill="#ffffff" stroke="transparent" points="-4,4 -4,-120.5 705,-120.5 705,4 -4,4"/>
<!-- Node1 -->
<g id="node1" class="node">
<title>Node1</title>
<g id="a_node1"><a xlink:title="Returns various data that has been stored in a MOM_domain_type.">
<polygon fill="#bfbfbf" stroke="#000000" points="564,-50.5 564,-80.5 701,-80.5 701,-50.5 564,-50.5"/>
<text text-anchor="start" x="572" y="-68.5" font-family="Helvetica,sans-Serif" font-size="10.00" fill="#000000">mom_domains::get_domain</text>
<text text-anchor="middle" x="632.5" y="-57.5" font-family="Helvetica,sans-Serif" font-size="10.00" fill="#000000">_extent</text>
</a>
</g>
</g>
<!-- Node2 -->
<g id="node2" class="node">
<title>Node2</title>
<g id="a_node2"><a xlink:href="namespacemom__hor__index.html#a8e3912351dbf2be2659f3561de341f49" target="_top" xlink:title="Sets various index values in a hor_index_type.">
<polygon fill="#ffffff" stroke="#000000" points="423,-50.5 423,-80.5 528,-80.5 528,-50.5 423,-50.5"/>
<text text-anchor="start" x="431" y="-68.5" font-family="Helvetica,sans-Serif" font-size="10.00" fill="#000000">mom_hor_index::hor</text>
<text text-anchor="middle" x="475.5" y="-57.5" font-family="Helvetica,sans-Serif" font-size="10.00" fill="#000000">_index_init</text>
</a>
</g>
</g>
<!-- Node1&#45;&gt;Node2 -->
<g id="edge1" class="edge">
<title>Node1&#45;&gt;Node2</title>
<path fill="none" stroke="#191970" d="M553.5809,-65.5C544.9958,-65.5 536.4174,-65.5 528.2565,-65.5"/>
<polygon fill="#191970" stroke="#191970" points="553.6375,-69.0001 563.6375,-65.5 553.6375,-62.0001 553.6375,-69.0001"/>
</g>
<!-- Node3 -->
<g id="node3" class="node">
<title>Node3</title>
<g id="a_node3"><a xlink:href="namespacemom__oda__driver__mod.html#aaaf67b8d0e0db3ba3dfe09e24d2b8b24" target="_top" xlink:title="initialize First_guess (prior) and Analysis grid information for all ensemble members">
<polygon fill="#ffffff" stroke="#000000" points="106.5,-49.5 106.5,-79.5 219.5,-79.5 219.5,-49.5 106.5,-49.5"/>
<text text-anchor="start" x="114.5" y="-67.5" font-family="Helvetica,sans-Serif" font-size="10.00" fill="#000000">mom_oda_driver_mod</text>
<text text-anchor="middle" x="163" y="-56.5" font-family="Helvetica,sans-Serif" font-size="10.00" fill="#000000">::init_oda</text>
</a>
</g>
</g>
<!-- Node2&#45;&gt;Node3 -->
<g id="edge2" class="edge">
<title>Node2&#45;&gt;Node3</title>
<path fill="none" stroke="#191970" d="M412.6111,-65.2988C356.1515,-65.1181 274.0117,-64.8552 219.5772,-64.681"/>
<polygon fill="#191970" stroke="#191970" points="412.8308,-68.7994 422.842,-65.3315 412.8533,-61.7994 412.8308,-68.7994"/>
</g>
<!-- Node4 -->
<g id="node4" class="node">
<title>Node4</title>
<g id="a_node4"><a xlink:href="namespacemom.html#a96708b16215666edbfa5b46228f3a200" target="_top" xlink:title="Initialize MOM, including memory allocation, setting up parameters and diagnostics,...">
<polygon fill="#ffffff" stroke="#000000" points="270.5,-97 270.5,-116 377.5,-116 377.5,-97 270.5,-97"/>
<text text-anchor="middle" x="324" y="-104" font-family="Helvetica,sans-Serif" font-size="10.00" fill="#000000">mom::initialize_mom</text>
</a>
</g>
</g>
<!-- Node2&#45;&gt;Node4 -->
<g id="edge3" class="edge">
<title>Node2&#45;&gt;Node4</title>
<path fill="none" stroke="#191970" d="M413.1718,-82.3677C394.8151,-87.3355 375.3721,-92.5973 359.3423,-96.9354"/>
<polygon fill="#191970" stroke="#191970" points="414.1994,-85.7156 422.9378,-79.7247 412.3707,-78.9586 414.1994,-85.7156"/>
</g>
<!-- Node6 -->
<g id="node6" class="node">
<title>Node6</title>
<g id="a_node6"><a xlink:href="namespacemom__grid.html#a1de9705f83b687ad9a711630a95fe52c" target="_top" xlink:title="MOM_grid_init initializes the ocean grid array sizes and grid memory.">
<polygon fill="#ffffff" stroke="#000000" points="261,-18 261,-37 387,-37 387,-18 261,-18"/>
<text text-anchor="middle" x="324" y="-25" font-family="Helvetica,sans-Serif" font-size="10.00" fill="#000000">mom_grid::mom_grid_init</text>
</a>
</g>
</g>
<!-- Node2&#45;&gt;Node6 -->
<g id="edge5" class="edge">
<title>Node2&#45;&gt;Node6</title>
<path fill="none" stroke="#191970" d="M412.9303,-49.806C395.7016,-45.4846 377.5343,-40.9278 362.1427,-37.0672"/>
<polygon fill="#191970" stroke="#191970" points="412.3868,-53.278 422.9378,-52.3161 414.0898,-46.4883 412.3868,-53.278"/>
</g>
<!-- Node5 -->
<g id="node5" class="node">
<title>Node5</title>
<g id="a_node5"><a xlink:href="MOM__driver_8F90.html#a08fffeb2d8e8acbf9ed4609be6d258c6" target="_top" xlink:title=" ">
<polygon fill="#ffffff" stroke="#000000" points="0,-52 0,-71 65,-71 65,-52 0,-52"/>
<text text-anchor="middle" x="32.5" y="-59" font-family="Helvetica,sans-Serif" font-size="10.00" fill="#000000">mom_main</text>
</a>
</g>
</g>
<!-- Node4&#45;&gt;Node5 -->
<g id="edge4" class="edge">
<title>Node4&#45;&gt;Node5</title>
<path fill="none" stroke="#191970" d="M259.9062,-106.8744C214.8948,-105.8665 153.5842,-101.9266 101,-89.5 83.6206,-85.393 64.9194,-77.4911 51.4554,-71.1261"/>
<polygon fill="#191970" stroke="#191970" points="260.0544,-110.3776 270.1161,-107.0592 260.1811,-103.3787 260.0544,-110.3776"/>
</g>
<!-- Node6&#45;&gt;Node3 -->
<g id="edge6" class="edge">
<title>Node6&#45;&gt;Node3</title>
<path fill="none" stroke="#191970" d="M272.3785,-39.3633C255.6108,-43.2168 236.9161,-47.5131 219.7927,-51.4483"/>
<polygon fill="#191970" stroke="#191970" points="273.5765,-42.6793 282.5385,-37.0284 272.0086,-35.8572 273.5765,-42.6793"/>
</g>
<!-- Node7 -->
<g id="node7" class="node">
<title>Node7</title>
<g id="a_node7"><a xlink:href="namespacemom__ice__shelf.html#a5990f9918493ff4984245eac74e5f4d9" target="_top" xlink:title="Initializes shelf model data, parameters and diagnostics.">
<polygon fill="#ffffff" stroke="#000000" points="101,-.5 101,-30.5 225,-30.5 225,-.5 101,-.5"/>
<text text-anchor="start" x="109" y="-18.5" font-family="Helvetica,sans-Serif" font-size="10.00" fill="#000000">mom_ice_shelf::initialize</text>
<text text-anchor="middle" x="163" y="-7.5" font-family="Helvetica,sans-Serif" font-size="10.00" fill="#000000">_ice_shelf</text>
</a>
</g>
</g>
<!-- Node6&#45;&gt;Node7 -->
<g id="edge7" class="edge">
<title>Node6&#45;&gt;Node7</title>
<path fill="none" stroke="#191970" d="M250.8461,-22.0475C242.277,-21.4088 233.5958,-20.7618 225.1955,-20.1357"/>
<polygon fill="#191970" stroke="#191970" points="250.5981,-25.5387 260.8306,-22.7917 251.1185,-18.558 250.5981,-25.5387"/>
</g>
<!-- Node7&#45;&gt;Node5 -->
<g id="edge8" class="edge">
<title>Node7&#45;&gt;Node5</title>
<path fill="none" stroke="#191970" d="M110.7309,-33.9244C93.2616,-40.0821 74.4986,-46.6959 59.728,-51.9024"/>
<polygon fill="#191970" stroke="#191970" points="112.0017,-37.1875 120.2694,-30.5621 109.6746,-30.5857 112.0017,-37.1875"/>
</g>
</g>
</svg>
