<?xml version="1.0" encoding="UTF-8" standalone="no"?>
<!DOCTYPE svg PUBLIC "-//W3C//DTD SVG 1.1//EN"
 "http://www.w3.org/Graphics/SVG/1.1/DTD/svg11.dtd">
<!-- Generated by graphviz version 2.40.1 (20161225.0304)
 -->
<!-- Title: mom::step_mom_tracer_dyn Pages: 1 -->
<svg width="376pt" height="28pt"
 viewBox="0.00 0.00 376.00 28.00" xmlns="http://www.w3.org/2000/svg" xmlns:xlink="http://www.w3.org/1999/xlink">
<g id="graph0" class="graph" transform="scale(1 1) rotate(0) translate(4 24)">
<title>mom::step_mom_tracer_dyn</title>
<polygon fill="#ffffff" stroke="transparent" points="-4,4 -4,-24 372,-24 372,4 -4,4"/>
<!-- Node1 -->
<g id="node1" class="node">
<title>Node1</title>
<g id="a_node1"><a xlink:title="step_MOM_tracer_dyn does tracer advection and lateral diffusion, bringing the tracers up to date with...">
<polygon fill="#bfbfbf" stroke="#000000" points="227,-.5 227,-19.5 368,-19.5 368,-.5 227,-.5"/>
<text text-anchor="middle" x="297.5" y="-7.5" font-family="Helvetica,sans-Serif" font-size="10.00" fill="#000000">mom::step_mom_tracer_dyn</text>
</a>
</g>
</g>
<!-- Node2 -->
<g id="node2" class="node">
<title>Node2</title>
<g id="a_node2"><a xlink:href="namespacemom.html#ad55f786e26bcd3445a7224f2fad54f7e" target="_top" xlink:title="This subroutine orchestrates the time stepping of MOM. The adiabatic dynamics are stepped by calls to...">
<polygon fill="#ffffff" stroke="#000000" points="101,-.5 101,-19.5 191,-19.5 191,-.5 101,-.5"/>
<text text-anchor="middle" x="146" y="-7.5" font-family="Helvetica,sans-Serif" font-size="10.00" fill="#000000">mom::step_mom</text>
</a>
</g>
</g>
<!-- Node1&#45;&gt;Node2 -->
<g id="edge1" class="edge">
<title>Node1&#45;&gt;Node2</title>
<path fill="none" stroke="#191970" d="M216.4808,-10C207.8486,-10 199.3082,-10 191.3107,-10"/>
<polygon fill="#191970" stroke="#191970" points="216.6294,-13.5001 226.6293,-10 216.6293,-6.5001 216.6294,-13.5001"/>
</g>
<!-- Node3 -->
<g id="node3" class="node">
<title>Node3</title>
<g id="a_node3"><a xlink:href="MOM__driver_8F90.html#a08fffeb2d8e8acbf9ed4609be6d258c6" target="_top" xlink:title=" ">
<polygon fill="#ffffff" stroke="#000000" points="0,-.5 0,-19.5 65,-19.5 65,-.5 0,-.5"/>
<text text-anchor="middle" x="32.5" y="-7.5" font-family="Helvetica,sans-Serif" font-size="10.00" fill="#000000">mom_main</text>
</a>
</g>
</g>
<!-- Node2&#45;&gt;Node3 -->
<g id="edge2" class="edge">
<title>Node2&#45;&gt;Node3</title>
<path fill="none" stroke="#191970" d="M90.6826,-10C81.9915,-10 73.2555,-10 65.2908,-10"/>
<polygon fill="#191970" stroke="#191970" points="90.8157,-13.5001 100.8157,-10 90.8156,-6.5001 90.8157,-13.5001"/>
</g>
</g>
</svg>
