<?xml version="1.0" encoding="UTF-8" standalone="no"?>
<!DOCTYPE svg PUBLIC "-//W3C//DTD SVG 1.1//EN"
 "http://www.w3.org/Graphics/SVG/1.1/DTD/svg11.dtd">
<!-- Generated by graphviz version 2.40.1 (20161225.0304)
 -->
<!-- Title: mom_diabatic_driver::diabatic_driver_end Pages: 1 -->
<svg width="289pt" height="137pt"
 viewBox="0.00 0.00 289.00 137.00" xmlns="http://www.w3.org/2000/svg" xmlns:xlink="http://www.w3.org/1999/xlink">
<g id="graph0" class="graph" transform="scale(1 1) rotate(0) translate(4 133)">
<title>mom_diabatic_driver::diabatic_driver_end</title>
<polygon fill="#ffffff" stroke="transparent" points="-4,4 -4,-133 285,-133 285,4 -4,4"/>
<!-- Node1 -->
<g id="node1" class="node">
<title>Node1</title>
<g id="a_node1"><a xlink:title="Routine to close the diabatic driver module.">
<polygon fill="#bfbfbf" stroke="#000000" points="0,-49.5 0,-79.5 114,-79.5 114,-49.5 0,-49.5"/>
<text text-anchor="start" x="8" y="-67.5" font-family="Helvetica,sans-Serif" font-size="10.00" fill="#000000">mom_diabatic_driver</text>
<text text-anchor="middle" x="57" y="-56.5" font-family="Helvetica,sans-Serif" font-size="10.00" fill="#000000">::diabatic_driver_end</text>
</a>
</g>
</g>
<!-- Node2 -->
<g id="node2" class="node">
<title>Node2</title>
<g id="a_node2"><a xlink:href="namespacemom__cvmix__conv.html#a4f35df3a407ded91cd67384a14da3a3c" target="_top" xlink:title="Clear pointers and dealocate memory.">
<polygon fill="#ffffff" stroke="#000000" points="150,-98.5 150,-128.5 281,-128.5 281,-98.5 150,-98.5"/>
<text text-anchor="start" x="158" y="-116.5" font-family="Helvetica,sans-Serif" font-size="10.00" fill="#000000">mom_cvmix_conv::cvmix</text>
<text text-anchor="middle" x="215.5" y="-105.5" font-family="Helvetica,sans-Serif" font-size="10.00" fill="#000000">_conv_end</text>
</a>
</g>
</g>
<!-- Node1&#45;&gt;Node2 -->
<g id="edge1" class="edge">
<title>Node1&#45;&gt;Node2</title>
<path fill="none" stroke="#191970" d="M105.8485,-79.6014C122.0442,-84.6083 140.2366,-90.2324 157.0781,-95.439"/>
<polygon fill="#191970" stroke="#191970" points="156.2251,-98.8386 166.8128,-98.4484 158.2927,-92.1509 156.2251,-98.8386"/>
</g>
<!-- Node3 -->
<g id="node3" class="node">
<title>Node3</title>
<g id="a_node3"><a xlink:href="namespacemom__entrain__diffusive.html#a0e71b47abe1e1889f4b687139615ca14" target="_top" xlink:title="This subroutine cleans up and deallocates any memory associated with the entrain_diffusive module.">
<polygon fill="#ffffff" stroke="#000000" points="154.5,-49.5 154.5,-79.5 276.5,-79.5 276.5,-49.5 154.5,-49.5"/>
<text text-anchor="start" x="162.5" y="-67.5" font-family="Helvetica,sans-Serif" font-size="10.00" fill="#000000">mom_entrain_diffusive</text>
<text text-anchor="middle" x="215.5" y="-56.5" font-family="Helvetica,sans-Serif" font-size="10.00" fill="#000000">::entrain_diffusive_end</text>
</a>
</g>
</g>
<!-- Node1&#45;&gt;Node3 -->
<g id="edge2" class="edge">
<title>Node1&#45;&gt;Node3</title>
<path fill="none" stroke="#191970" d="M114.2221,-64.5C123.9983,-64.5 134.2603,-64.5 144.3455,-64.5"/>
<polygon fill="#191970" stroke="#191970" points="144.3473,-68.0001 154.3473,-64.5 144.3473,-61.0001 144.3473,-68.0001"/>
</g>
<!-- Node4 -->
<g id="node4" class="node">
<title>Node4</title>
<g id="a_node4"><a xlink:href="namespacemom__tidal__mixing.html#a4ec08e118dea2ecbac7e719ed73acc70" target="_top" xlink:title="Clear pointers and deallocate memory.">
<polygon fill="#ffffff" stroke="#000000" points="153,-.5 153,-30.5 278,-30.5 278,-.5 153,-.5"/>
<text text-anchor="start" x="161" y="-18.5" font-family="Helvetica,sans-Serif" font-size="10.00" fill="#000000">mom_tidal_mixing::tidal</text>
<text text-anchor="middle" x="215.5" y="-7.5" font-family="Helvetica,sans-Serif" font-size="10.00" fill="#000000">_mixing_end</text>
</a>
</g>
</g>
<!-- Node1&#45;&gt;Node4 -->
<g id="edge3" class="edge">
<title>Node1&#45;&gt;Node4</title>
<path fill="none" stroke="#191970" d="M105.8485,-49.3986C122.0442,-44.3917 140.2366,-38.7676 157.0781,-33.561"/>
<polygon fill="#191970" stroke="#191970" points="158.2927,-36.8491 166.8128,-30.5516 156.2251,-30.1614 158.2927,-36.8491"/>
</g>
</g>
</svg>
