<?xml version="1.0" encoding="UTF-8" standalone="no"?>
<!DOCTYPE svg PUBLIC "-//W3C//DTD SVG 1.1//EN"
 "http://www.w3.org/Graphics/SVG/1.1/DTD/svg11.dtd">
<!-- Generated by graphviz version 2.40.1 (20161225.0304)
 -->
<!-- Title: mom_obsolete_diagnostics::found_in_diagtable Pages: 1 -->
<svg width="600pt" height="39pt"
 viewBox="0.00 0.00 600.00 39.00" xmlns="http://www.w3.org/2000/svg" xmlns:xlink="http://www.w3.org/1999/xlink">
<g id="graph0" class="graph" transform="scale(1 1) rotate(0) translate(4 35)">
<title>mom_obsolete_diagnostics::found_in_diagtable</title>
<polygon fill="#ffffff" stroke="transparent" points="-4,4 -4,-35 596,-35 596,4 -4,4"/>
<!-- Node1 -->
<g id="node1" class="node">
<title>Node1</title>
<g id="a_node1"><a xlink:title="Fakes a register of a diagnostic to find out if an obsolete parameter appears in the diag_table.">
<polygon fill="#bfbfbf" stroke="#000000" points="448,-.5 448,-30.5 592,-30.5 592,-.5 448,-.5"/>
<text text-anchor="start" x="456" y="-18.5" font-family="Helvetica,sans-Serif" font-size="10.00" fill="#000000">mom_obsolete_diagnostics</text>
<text text-anchor="middle" x="520" y="-7.5" font-family="Helvetica,sans-Serif" font-size="10.00" fill="#000000">::found_in_diagtable</text>
</a>
</g>
</g>
<!-- Node2 -->
<g id="node2" class="node">
<title>Node2</title>
<g id="a_node2"><a xlink:href="namespacemom__obsolete__diagnostics.html#ad5e890c09abd2c650beb9ac36bbb49b4" target="_top" xlink:title="Scan through the diag_table searching for obsolete parameters and issue informational messages and op...">
<polygon fill="#ffffff" stroke="#000000" points="250,-.5 250,-30.5 412,-30.5 412,-.5 250,-.5"/>
<text text-anchor="start" x="258" y="-18.5" font-family="Helvetica,sans-Serif" font-size="10.00" fill="#000000">mom_obsolete_diagnostics</text>
<text text-anchor="middle" x="331" y="-7.5" font-family="Helvetica,sans-Serif" font-size="10.00" fill="#000000">::register_obsolete_diagnostics</text>
</a>
</g>
</g>
<!-- Node1&#45;&gt;Node2 -->
<g id="edge1" class="edge">
<title>Node1&#45;&gt;Node2</title>
<path fill="none" stroke="#191970" d="M437.5151,-15.5C429.0658,-15.5 420.4863,-15.5 412.0527,-15.5"/>
<polygon fill="#191970" stroke="#191970" points="437.7382,-19.0001 447.7382,-15.5 437.7382,-12.0001 437.7382,-19.0001"/>
</g>
<!-- Node3 -->
<g id="node3" class="node">
<title>Node3</title>
<g id="a_node3"><a xlink:href="namespacemom.html#a96708b16215666edbfa5b46228f3a200" target="_top" xlink:title="Initialize MOM, including memory allocation, setting up parameters and diagnostics,...">
<polygon fill="#ffffff" stroke="#000000" points="104,-6 104,-25 214,-25 214,-6 104,-6"/>
<text text-anchor="middle" x="159" y="-13" font-family="Helvetica,sans-Serif" font-size="10.00" fill="#000000">mom::initialize_mom</text>
</a>
</g>
</g>
<!-- Node2&#45;&gt;Node3 -->
<g id="edge2" class="edge">
<title>Node2&#45;&gt;Node3</title>
<path fill="none" stroke="#191970" d="M239.6484,-15.5C231.0239,-15.5 222.4715,-15.5 214.3399,-15.5"/>
<polygon fill="#191970" stroke="#191970" points="239.7849,-19.0001 249.7849,-15.5 239.7849,-12.0001 239.7849,-19.0001"/>
</g>
<!-- Node4 -->
<g id="node4" class="node">
<title>Node4</title>
<g id="a_node4"><a xlink:href="MOM__driver_8F90.html#a08fffeb2d8e8acbf9ed4609be6d258c6" target="_top" xlink:title=" ">
<polygon fill="#ffffff" stroke="#000000" points="0,-6 0,-25 68,-25 68,-6 0,-6"/>
<text text-anchor="middle" x="34" y="-13" font-family="Helvetica,sans-Serif" font-size="10.00" fill="#000000">mom_main</text>
</a>
</g>
</g>
<!-- Node3&#45;&gt;Node4 -->
<g id="edge3" class="edge">
<title>Node3&#45;&gt;Node4</title>
<path fill="none" stroke="#191970" d="M93.7848,-15.5C84.8995,-15.5 76.0876,-15.5 68.0691,-15.5"/>
<polygon fill="#191970" stroke="#191970" points="93.8094,-19.0001 103.8093,-15.5 93.8093,-12.0001 93.8094,-19.0001"/>
</g>
</g>
</svg>
