<?xml version="1.0" encoding="UTF-8" standalone="no"?>
<!DOCTYPE svg PUBLIC "-//W3C//DTD SVG 1.1//EN"
 "http://www.w3.org/Graphics/SVG/1.1/DTD/svg11.dtd">
<!-- Generated by graphviz version 2.40.1 (20161225.0304)
 -->
<!-- Title: mom_diag_mediator::diag_copy_storage_to_diag Pages: 1 -->
<svg width="317pt" height="137pt"
 viewBox="0.00 0.00 317.00 137.00" xmlns="http://www.w3.org/2000/svg" xmlns:xlink="http://www.w3.org/1999/xlink">
<g id="graph0" class="graph" transform="scale(1 1) rotate(0) translate(4 133)">
<title>mom_diag_mediator::diag_copy_storage_to_diag</title>
<polygon fill="#ffffff" stroke="transparent" points="-4,4 -4,-133 313,-133 313,4 -4,4"/>
<!-- Node1 -->
<g id="node1" class="node">
<title>Node1</title>
<g id="a_node1"><a xlink:title="Copy from the stored diagnostic arrays to the main diagnostic grids.">
<polygon fill="#bfbfbf" stroke="#000000" points="174,-49.5 174,-79.5 309,-79.5 309,-49.5 174,-49.5"/>
<text text-anchor="start" x="182" y="-67.5" font-family="Helvetica,sans-Serif" font-size="10.00" fill="#000000">mom_diag_mediator::</text>
<text text-anchor="middle" x="241.5" y="-56.5" font-family="Helvetica,sans-Serif" font-size="10.00" fill="#000000">diag_copy_storage_to_diag</text>
</a>
</g>
</g>
<!-- Node2 -->
<g id="node2" class="node">
<title>Node2</title>
<g id="a_node2"><a xlink:href="namespacemom__diagnostics.html#a6bd689b4d9f660020d8e3960879b4799" target="_top" xlink:title="Diagnostics not more naturally calculated elsewhere are computed here.">
<polygon fill="#ffffff" stroke="#000000" points="0,-98.5 0,-128.5 138,-128.5 138,-98.5 0,-98.5"/>
<text text-anchor="start" x="8" y="-116.5" font-family="Helvetica,sans-Serif" font-size="10.00" fill="#000000">mom_diagnostics::calculate</text>
<text text-anchor="middle" x="69" y="-105.5" font-family="Helvetica,sans-Serif" font-size="10.00" fill="#000000">_diagnostic_fields</text>
</a>
</g>
</g>
<!-- Node1&#45;&gt;Node2 -->
<g id="edge1" class="edge">
<title>Node1&#45;&gt;Node2</title>
<path fill="none" stroke="#191970" d="M178.5055,-82.3941C159.9518,-87.6644 139.8463,-93.3755 121.9877,-98.4484"/>
<polygon fill="#191970" stroke="#191970" points="179.6737,-85.7008 188.3368,-79.6014 177.7609,-78.9672 179.6737,-85.7008"/>
</g>
<!-- Node3 -->
<g id="node3" class="node">
<title>Node3</title>
<g id="a_node3"><a xlink:href="namespacemom__tracer__registry.html#aae115ceac71649d8499b52a5d1d1bd8b" target="_top" xlink:title="post_tracer_diagnostics does post_data calls for any diagnostics that are being handled via the trace...">
<polygon fill="#ffffff" stroke="#000000" points="6,-49.5 6,-79.5 132,-79.5 132,-49.5 6,-49.5"/>
<text text-anchor="start" x="14" y="-67.5" font-family="Helvetica,sans-Serif" font-size="10.00" fill="#000000">mom_tracer_registry</text>
<text text-anchor="middle" x="69" y="-56.5" font-family="Helvetica,sans-Serif" font-size="10.00" fill="#000000">::post_tracer_diagnostics</text>
</a>
</g>
</g>
<!-- Node1&#45;&gt;Node3 -->
<g id="edge2" class="edge">
<title>Node1&#45;&gt;Node3</title>
<path fill="none" stroke="#191970" d="M163.7802,-64.5C153.2334,-64.5 142.5149,-64.5 132.2636,-64.5"/>
<polygon fill="#191970" stroke="#191970" points="163.8186,-68.0001 173.8185,-64.5 163.8185,-61.0001 163.8186,-68.0001"/>
</g>
<!-- Node4 -->
<g id="node4" class="node">
<title>Node4</title>
<g id="a_node4"><a xlink:href="namespacemom__diagnostics.html#acab7430159d4702301069d0d4f82f45c" target="_top" xlink:title="This routine posts diagnostics of the transports, including the subgridscale contributions.">
<polygon fill="#ffffff" stroke="#000000" points="10,-.5 10,-30.5 128,-30.5 128,-.5 10,-.5"/>
<text text-anchor="start" x="18" y="-18.5" font-family="Helvetica,sans-Serif" font-size="10.00" fill="#000000">mom_diagnostics::post</text>
<text text-anchor="middle" x="69" y="-7.5" font-family="Helvetica,sans-Serif" font-size="10.00" fill="#000000">_transport_diagnostics</text>
</a>
</g>
</g>
<!-- Node1&#45;&gt;Node4 -->
<g id="edge3" class="edge">
<title>Node1&#45;&gt;Node4</title>
<path fill="none" stroke="#191970" d="M178.5055,-46.6059C159.9518,-41.3356 139.8463,-35.6245 121.9877,-30.5516"/>
<polygon fill="#191970" stroke="#191970" points="177.7609,-50.0328 188.3368,-49.3986 179.6737,-43.2992 177.7609,-50.0328"/>
</g>
</g>
</svg>
