<?xml version="1.0" encoding="UTF-8" standalone="no"?>
<!DOCTYPE svg PUBLIC "-//W3C//DTD SVG 1.1//EN"
 "http://www.w3.org/Graphics/SVG/1.1/DTD/svg11.dtd">
<!-- Generated by graphviz version 2.40.1 (20161225.0304)
 -->
<!-- Title: mom_continuity_ppm::zonal_flux_layer Pages: 1 -->
<!--zoomable 94 -->
<svg id="main" version="1.1" xmlns="http://www.w3.org/2000/svg" xmlns:xlink="http://www.w3.org/1999/xlink" xml:space="preserve" onload="init(evt)">
<style type="text/css"><![CDATA[
.edge:hover path { stroke: red; }
.edge:hover polygon { stroke: red; fill: red; }
]]></style>
<script type="text/javascript"><![CDATA[
var edges = document.getElementsByTagName('g');
if (edges && edges.length) {
  for (var i=0;i<edges.length;i++) {
    if (edges[i].id.substr(0,4)=='edge') {
      edges[i].setAttribute('class','edge');
    }
  }
}
]]></script>
        <defs>
                <circle id="rim" cx="0" cy="0" r="7"/>
                <circle id="rim2" cx="0" cy="0" r="3.5"/>
                <g id="zoomPlus">
                        <use xlink:href="#rim" fill="#404040">
                                <set attributeName="fill" to="#808080" begin="zoomplus.mouseover" end="zoomplus.mouseout"/>
                        </use>
                        <path d="M-4,0h8M0,-4v8" fill="none" stroke="white" stroke-width="1.5" pointer-events="none"/>
                </g>
                <g id="zoomMin">
                        <use xlink:href="#rim" fill="#404040">
                                <set attributeName="fill" to="#808080" begin="zoomminus.mouseover" end="zoomminus.mouseout"/>
                        </use>
                        <path d="M-4,0h8" fill="none" stroke="white" stroke-width="1.5" pointer-events="none"/>
                </g>
                <g id="dirArrow">
                        <path fill="none" stroke="white" stroke-width="1.5" d="M0,-3.0v7 M-2.5,-0.5L0,-3.0L2.5,-0.5"/>
                </g>
               <g id="resetDef">
                       <use xlink:href="#rim2" fill="#404040">
                               <set attributeName="fill" to="#808080" begin="reset.mouseover" end="reset.mouseout"/>
                       </use>
               </g>
        </defs>

<script type="text/javascript">
var viewWidth = 702;
var viewHeight = 94;
var sectionId = 'dynsection-23';
</script>
<script xlink:href="svgpan.js"/>
<svg id="graph" class="graph">
<g id="viewport">
<title>mom_continuity_ppm::zonal_flux_layer</title>
<polygon fill="#ffffff" stroke="transparent" points="-4,4 -4,-90.2738 698,-90.2738 698,4 -4,4"/>
<!-- Node1 -->
<g id="node1" class="node">
<title>Node1</title>
<g id="a_node1"><a xlink:title="Evaluates the zonal mass or volume fluxes in a layer.">
<polygon fill="#bfbfbf" stroke="#000000" points="584,-44.5 584,-74.5 694,-74.5 694,-44.5 584,-44.5"/>
<text text-anchor="start" x="592" y="-62.5" font-family="Helvetica,sans-Serif" font-size="10.00" fill="#000000">mom_continuity_ppm</text>
<text text-anchor="middle" x="639" y="-51.5" font-family="Helvetica,sans-Serif" font-size="10.00" fill="#000000">::zonal_flux_layer</text>
</a>
</g>
</g>
<!-- Node2 -->
<g id="node2" class="node">
<title>Node2</title>
<g id="a_node2"><a xlink:href="namespacemom__continuity__ppm.html#a30e5aef71acbeef6afe5f6cf1ea30dcc" target="_top" xlink:title="Sets a structure that describes the zonal barotropic volume or mass fluxes as a function of barotropi...">
<polygon fill="#ffffff" stroke="#000000" points="292,-41.5 292,-71.5 402,-71.5 402,-41.5 292,-41.5"/>
<text text-anchor="start" x="300" y="-59.5" font-family="Helvetica,sans-Serif" font-size="10.00" fill="#000000">mom_continuity_ppm</text>
<text text-anchor="middle" x="347" y="-48.5" font-family="Helvetica,sans-Serif" font-size="10.00" fill="#000000">::set_zonal_bt_cont</text>
</a>
</g>
</g>
<!-- Node1&#45;&gt;Node2 -->
<g id="edge1" class="edge">
<title>Node1&#45;&gt;Node2</title>
<path fill="none" stroke="#191970" d="M573.6818,-58.8289C522.0513,-58.2985 450.7977,-57.5664 402.0402,-57.0655"/>
<polygon fill="#191970" stroke="#191970" points="573.6983,-62.3292 583.7337,-58.9322 573.7703,-55.3295 573.6983,-62.3292"/>
</g>
<!-- Node3 -->
<g id="node3" class="node">
<title>Node3</title>
<g id="a_node3"><a xlink:href="namespacemom__continuity__ppm.html#a5f5d6764ed315043d3b91b209db5c0a0" target="_top" xlink:title="Calculates the mass or volume fluxes through the zonal faces, and other related quantities.">
<polygon fill="#ffffff" stroke="#000000" points="146,-41.5 146,-71.5 256,-71.5 256,-41.5 146,-41.5"/>
<text text-anchor="start" x="154" y="-59.5" font-family="Helvetica,sans-Serif" font-size="10.00" fill="#000000">mom_continuity_ppm</text>
<text text-anchor="middle" x="201" y="-48.5" font-family="Helvetica,sans-Serif" font-size="10.00" fill="#000000">::zonal_mass_flux</text>
</a>
</g>
</g>
<!-- Node1&#45;&gt;Node3 -->
<g id="edge7" class="edge">
<title>Node1&#45;&gt;Node3</title>
<path fill="none" stroke="#191970" d="M573.8006,-70.7661C503.8719,-81.1437 389.6926,-93.166 292,-80.5 277.7412,-78.6513 262.5324,-75.2377 248.7116,-71.5534"/>
<polygon fill="#191970" stroke="#191970" points="574.4281,-74.211 583.7897,-69.25 573.3777,-67.2903 574.4281,-74.211"/>
</g>
<!-- Node5 -->
<g id="node5" class="node">
<title>Node5</title>
<g id="a_node5"><a xlink:href="namespacemom__continuity__ppm.html#afad3f82b9824a13d3fe8792496e9b769" target="_top" xlink:title="Returns the barotropic velocity adjustment that gives the desired barotropic (layer&#45;summed) transport...">
<polygon fill="#ffffff" stroke="#000000" points="438,-.5 438,-30.5 548,-30.5 548,-.5 438,-.5"/>
<text text-anchor="start" x="446" y="-18.5" font-family="Helvetica,sans-Serif" font-size="10.00" fill="#000000">mom_continuity_ppm</text>
<text text-anchor="middle" x="493" y="-7.5" font-family="Helvetica,sans-Serif" font-size="10.00" fill="#000000">::zonal_flux_adjust</text>
</a>
</g>
</g>
<!-- Node1&#45;&gt;Node5 -->
<g id="edge4" class="edge">
<title>Node1&#45;&gt;Node5</title>
<path fill="none" stroke="#191970" d="M579.2298,-41.4871C567.2305,-37.8708 554.7378,-34.1059 543.1077,-30.6009"/>
<polygon fill="#191970" stroke="#191970" points="578.5788,-44.9463 589.1634,-44.4808 580.5987,-38.2441 578.5788,-44.9463"/>
</g>
<!-- Node2&#45;&gt;Node3 -->
<g id="edge2" class="edge">
<title>Node2&#45;&gt;Node3</title>
<path fill="none" stroke="#191970" d="M281.5899,-56.5C273.1353,-56.5 264.5433,-56.5 256.2744,-56.5"/>
<polygon fill="#191970" stroke="#191970" points="281.8037,-60.0001 291.8037,-56.5 281.8036,-53.0001 281.8037,-60.0001"/>
</g>
<!-- Node4 -->
<g id="node4" class="node">
<title>Node4</title>
<g id="a_node4"><a xlink:href="namespacemom__continuity__ppm.html#a665851a49a4bde77b4ef5e25332947f6" target="_top" xlink:title="Time steps the layer thicknesses, using a monotonically limit, directionally split PPM scheme,...">
<polygon fill="#ffffff" stroke="#000000" points="0,-41.5 0,-71.5 110,-71.5 110,-41.5 0,-41.5"/>
<text text-anchor="start" x="8" y="-59.5" font-family="Helvetica,sans-Serif" font-size="10.00" fill="#000000">mom_continuity_ppm</text>
<text text-anchor="middle" x="55" y="-48.5" font-family="Helvetica,sans-Serif" font-size="10.00" fill="#000000">::continuity_ppm</text>
</a>
</g>
</g>
<!-- Node3&#45;&gt;Node4 -->
<g id="edge3" class="edge">
<title>Node3&#45;&gt;Node4</title>
<path fill="none" stroke="#191970" d="M135.5899,-56.5C127.1353,-56.5 118.5433,-56.5 110.2744,-56.5"/>
<polygon fill="#191970" stroke="#191970" points="135.8037,-60.0001 145.8037,-56.5 135.8036,-53.0001 135.8037,-60.0001"/>
</g>
<!-- Node5&#45;&gt;Node2 -->
<g id="edge5" class="edge">
<title>Node5&#45;&gt;Node2</title>
<path fill="none" stroke="#191970" d="M429.8098,-33.2452C420.0496,-35.9861 410.0512,-38.7939 400.5295,-41.4677"/>
<polygon fill="#191970" stroke="#191970" points="430.7827,-36.6074 439.464,-30.5341 428.8901,-29.8681 430.7827,-36.6074"/>
</g>
<!-- Node5&#45;&gt;Node3 -->
<g id="edge6" class="edge">
<title>Node5&#45;&gt;Node3</title>
<path fill="none" stroke="#191970" d="M427.5838,-17.5863C388.0878,-19.6182 336.881,-23.6215 292,-31.5 277.9606,-33.9645 262.9537,-37.6413 249.2583,-41.4217"/>
<polygon fill="#191970" stroke="#191970" points="427.8014,-21.08 437.6199,-17.0993 427.462,-14.0882 427.8014,-21.08"/>
</g>
</g>
</svg>
        <g id="navigator" transform="translate(0 0)" fill="#404254">
                <rect fill="#f2f5e9" fill-opacity="0.5" stroke="#606060" stroke-width=".5" x="0" y="0" width="60" height="60"/>
                <use id="zoomplus" xlink:href="#zoomPlus" x="17" y="9" onmousedown="handleZoom(evt,'in')"/>
                <use id="zoomminus" xlink:href="#zoomMin" x="42" y="9" onmousedown="handleZoom(evt,'out')"/>
                <use id="reset" xlink:href="#resetDef" x="30" y="36" onmousedown="handleReset()"/>
                <g id="arrowUp" xlink:href="#dirArrow" transform="translate(30 24)" onmousedown="handlePan(0,-1)">
                  <use xlink:href="#rim" fill="#404040">
                        <set attributeName="fill" to="#808080" begin="arrowUp.mouseover" end="arrowUp.mouseout"/>
                  </use>
                  <path fill="none" stroke="white" stroke-width="1.5" d="M0,-3.0v7 M-2.5,-0.5L0,-3.0L2.5,-0.5"/>
                </g>
                <g id="arrowRight" xlink:href="#dirArrow" transform="rotate(90) translate(36 -43)" onmousedown="handlePan(1,0)">
                  <use xlink:href="#rim" fill="#404040">
                        <set attributeName="fill" to="#808080" begin="arrowRight.mouseover" end="arrowRight.mouseout"/>
                  </use>
                  <path fill="none" stroke="white" stroke-width="1.5" d="M0,-3.0v7 M-2.5,-0.5L0,-3.0L2.5,-0.5"/>
                </g>
                <g id="arrowDown" xlink:href="#dirArrow" transform="rotate(180) translate(-30 -48)" onmousedown="handlePan(0,1)">
                  <use xlink:href="#rim" fill="#404040">
                        <set attributeName="fill" to="#808080" begin="arrowDown.mouseover" end="arrowDown.mouseout"/>
                  </use>
                  <path fill="none" stroke="white" stroke-width="1.5" d="M0,-3.0v7 M-2.5,-0.5L0,-3.0L2.5,-0.5"/>
                </g>
                <g id="arrowLeft" xlink:href="#dirArrow" transform="rotate(270) translate(-36 17)" onmousedown="handlePan(-1,0)">
                  <use xlink:href="#rim" fill="#404040">
                        <set attributeName="fill" to="#808080" begin="arrowLeft.mouseover" end="arrowLeft.mouseout"/>
                  </use>
                  <path fill="none" stroke="white" stroke-width="1.5" d="M0,-3.0v7 M-2.5,-0.5L0,-3.0L2.5,-0.5"/>
                </g>
        </g>
        <svg viewBox="0 0 15 15" width="100%" height="30px" preserveAspectRatio="xMaxYMin meet">
         <g id="arrow_out" transform="scale(0.3 0.3)">
          <a xlink:href="namespacemom__continuity__ppm_a713196d0cfe6cb4cc8a91239a8dba02d_icgraph_org.svg" target="_base">
           <rect id="button" ry="5" rx="5" y="6" x="6" height="38" width="38"
                fill="#f2f5e9" fill-opacity="0.5" stroke="#606060" stroke-width="1.0"/>
           <path id="arrow"
             d="M 11.500037,31.436501 C 11.940474,20.09759 22.043105,11.32322 32.158766,21.979434 L 37.068811,17.246167 C 37.068811,17.246167 37.088388,32 37.088388,32 L 22.160133,31.978069 C 22.160133,31.978069 26.997745,27.140456 26.997745,27.140456 C 18.528582,18.264221 13.291696,25.230495 11.500037,31.436501 z"
             style="fill:#404040;"/>
          </a>
         </g>
        </svg>
</svg>
