<?xml version="1.0" encoding="UTF-8" standalone="no"?>
<!DOCTYPE svg PUBLIC "-//W3C//DTD SVG 1.1//EN"
 "http://www.w3.org/Graphics/SVG/1.1/DTD/svg11.dtd">
<!-- Generated by graphviz version 2.40.1 (20161225.0304)
 -->
<!-- Title: mom_dyn_horgrid::dyn_horgrid_type Pages: 1 -->
<!--zoomable 227 -->
<svg id="main" version="1.1" xmlns="http://www.w3.org/2000/svg" xmlns:xlink="http://www.w3.org/1999/xlink" xml:space="preserve" onload="init(evt)">
<style type="text/css"><![CDATA[
.edge:hover path { stroke: red; }
.edge:hover polygon { stroke: red; fill: red; }
]]></style>
<script type="text/javascript"><![CDATA[
var edges = document.getElementsByTagName('g');
if (edges && edges.length) {
  for (var i=0;i<edges.length;i++) {
    if (edges[i].id.substr(0,4)=='edge') {
      edges[i].setAttribute('class','edge');
    }
  }
}
]]></script>
        <defs>
                <circle id="rim" cx="0" cy="0" r="7"/>
                <circle id="rim2" cx="0" cy="0" r="3.5"/>
                <g id="zoomPlus">
                        <use xlink:href="#rim" fill="#404040">
                                <set attributeName="fill" to="#808080" begin="zoomplus.mouseover" end="zoomplus.mouseout"/>
                        </use>
                        <path d="M-4,0h8M0,-4v8" fill="none" stroke="white" stroke-width="1.5" pointer-events="none"/>
                </g>
                <g id="zoomMin">
                        <use xlink:href="#rim" fill="#404040">
                                <set attributeName="fill" to="#808080" begin="zoomminus.mouseover" end="zoomminus.mouseout"/>
                        </use>
                        <path d="M-4,0h8" fill="none" stroke="white" stroke-width="1.5" pointer-events="none"/>
                </g>
                <g id="dirArrow">
                        <path fill="none" stroke="white" stroke-width="1.5" d="M0,-3.0v7 M-2.5,-0.5L0,-3.0L2.5,-0.5"/>
                </g>
               <g id="resetDef">
                       <use xlink:href="#rim2" fill="#404040">
                               <set attributeName="fill" to="#808080" begin="reset.mouseover" end="reset.mouseout"/>
                       </use>
               </g>
        </defs>

<script type="text/javascript">
var viewWidth = 592;
var viewHeight = 227;
var sectionId = 'dynsection-0';
</script>
<script xlink:href="svgpan.js"/>
<svg id="graph" class="graph">
<g id="viewport">
<title>mom_dyn_horgrid::dyn_horgrid_type</title>
<polygon fill="#ffffff" stroke="transparent" points="-4,4 -4,-223 587.5,-223 587.5,4 -4,4"/>
<!-- Node1 -->
<g id="node1" class="node">
<title>Node1</title>
<g id="a_node1"><a xlink:title="Describes the horizontal ocean grid with only dynamic memory arrays.">
<polygon fill="#bfbfbf" stroke="#000000" points="223.5,-.5 223.5,-30.5 347.5,-30.5 347.5,-.5 223.5,-.5"/>
<text text-anchor="start" x="231.5" y="-18.5" font-family="Helvetica,sans-Serif" font-size="10.00" fill="#000000">mom_dyn_horgrid::dyn</text>
<text text-anchor="middle" x="285.5" y="-7.5" font-family="Helvetica,sans-Serif" font-size="10.00" fill="#000000">_horgrid_type</text>
</a>
</g>
</g>
<!-- Node2 -->
<g id="node2" class="node">
<title>Node2</title>
<g id="a_node2"><a xlink:title=" ">
<polygon fill="#ffffff" stroke="#bfbfbf" points="0,-194 0,-213 47,-213 47,-194 0,-194"/>
<text text-anchor="middle" x="23.5" y="-201" font-family="Helvetica,sans-Serif" font-size="10.00" fill="#000000">logical</text>
</a>
</g>
</g>
<!-- Node2&#45;&gt;Node1 -->
<g id="edge1" class="edge">
<title>Node2&#45;&gt;Node1</title>
<path fill="none" stroke="#9a32cd" stroke-dasharray="5,2" d="M17.954,-183.8404C10.0577,-151.1576 .0624,-85.6272 34.5,-49 47.2609,-35.4277 153.1592,-25.1421 223.2663,-19.7408"/>
<polygon fill="#9a32cd" stroke="#9a32cd" points="14.6745,-185.1354 20.5833,-193.9296 21.4483,-183.3701 14.6745,-185.1354"/>
<text text-anchor="middle" x="86" y="-118" font-family="Helvetica,sans-Serif" font-size="10.00" fill="#000000"> nonblocking_updates</text>
<text text-anchor="middle" x="86" y="-107" font-family="Helvetica,sans-Serif" font-size="10.00" fill="#000000">bathymetry_at_vel</text>
<text text-anchor="middle" x="86" y="-96" font-family="Helvetica,sans-Serif" font-size="10.00" fill="#000000">symmetric</text>
</g>
<!-- Node3 -->
<g id="node3" class="node">
<title>Node3</title>
<g id="a_node3"><a xlink:title=" ">
<polygon fill="#ffffff" stroke="#bfbfbf" points="84.5,-194 84.5,-213 174.5,-213 174.5,-194 84.5,-194"/>
<text text-anchor="middle" x="129.5" y="-201" font-family="Helvetica,sans-Serif" font-size="10.00" fill="#000000">hor_index_type</text>
</a>
</g>
</g>
<!-- Node3&#45;&gt;Node1 -->
<g id="edge2" class="edge">
<title>Node3&#45;&gt;Node1</title>
<path fill="none" stroke="#9a32cd" stroke-dasharray="5,2" d="M135.6263,-184.3589C146.6914,-152.4865 172.8095,-88.1784 214.5,-49 222.4457,-41.5331 232.359,-35.4615 242.2341,-30.6423"/>
<polygon fill="#9a32cd" stroke="#9a32cd" points="132.3076,-183.2473 132.4501,-193.8411 138.9451,-185.4706 132.3076,-183.2473"/>
<text text-anchor="middle" x="220.5" y="-107" font-family="Helvetica,sans-Serif" font-size="10.00" fill="#000000"> hi</text>
</g>
<!-- Node4 -->
<g id="node4" class="node">
<title>Node4</title>
<g id="a_node4"><a xlink:title=" ">
<polygon fill="#ffffff" stroke="#bfbfbf" points="192.5,-194 192.5,-213 294.5,-213 294.5,-194 192.5,-194"/>
<text text-anchor="middle" x="243.5" y="-201" font-family="Helvetica,sans-Serif" font-size="10.00" fill="#000000">character(len=40)</text>
</a>
</g>
</g>
<!-- Node4&#45;&gt;Node1 -->
<g id="edge3" class="edge">
<title>Node4&#45;&gt;Node1</title>
<path fill="none" stroke="#9a32cd" stroke-dasharray="5,2" d="M238.582,-184.0127C231.9547,-153.512 223.2671,-93.3965 244.5,-49 247.9107,-41.8685 253.6568,-35.7479 259.7844,-30.7638"/>
<polygon fill="#9a32cd" stroke="#9a32cd" points="235.1909,-184.8825 240.8712,-193.8258 242.0079,-183.2922 235.1909,-184.8825"/>
<text text-anchor="middle" x="275" y="-112.5" font-family="Helvetica,sans-Serif" font-size="10.00" fill="#000000"> y_axis_units</text>
<text text-anchor="middle" x="275" y="-101.5" font-family="Helvetica,sans-Serif" font-size="10.00" fill="#000000">x_axis_units</text>
</g>
<!-- Node5 -->
<g id="node5" class="node">
<title>Node5</title>
<g id="a_node5"><a xlink:title=" ">
<polygon fill="#ffffff" stroke="#bfbfbf" points="313,-194 313,-213 348,-213 348,-194 313,-194"/>
<text text-anchor="middle" x="330.5" y="-201" font-family="Helvetica,sans-Serif" font-size="10.00" fill="#000000">real</text>
</a>
</g>
</g>
<!-- Node5&#45;&gt;Node1 -->
<g id="edge4" class="edge">
<title>Node5&#45;&gt;Node1</title>
<path fill="none" stroke="#9a32cd" stroke-dasharray="5,2" d="M328.2209,-183.5601C323.9561,-147.6149 314.3951,-73.4198 305.5,-49 303.1817,-42.6355 299.6228,-36.1315 296.1462,-30.5683"/>
<polygon fill="#9a32cd" stroke="#9a32cd" points="324.7773,-184.2477 329.4119,-193.775 331.7302,-183.4369 324.7773,-184.2477"/>
<text text-anchor="middle" x="354.5" y="-162" font-family="Helvetica,sans-Serif" font-size="10.00" fill="#000000"> max_depth</text>
<text text-anchor="middle" x="354.5" y="-151" font-family="Helvetica,sans-Serif" font-size="10.00" fill="#000000">west_lon</text>
<text text-anchor="middle" x="354.5" y="-140" font-family="Helvetica,sans-Serif" font-size="10.00" fill="#000000">dblock_u</text>
<text text-anchor="middle" x="354.5" y="-129" font-family="Helvetica,sans-Serif" font-size="10.00" fill="#000000">iareabu</text>
<text text-anchor="middle" x="354.5" y="-118" font-family="Helvetica,sans-Serif" font-size="10.00" fill="#000000">areat</text>
<text text-anchor="middle" x="354.5" y="-107" font-family="Helvetica,sans-Serif" font-size="10.00" fill="#000000">dblock_v</text>
<text text-anchor="middle" x="354.5" y="-96" font-family="Helvetica,sans-Serif" font-size="10.00" fill="#000000">len_lon</text>
<text text-anchor="middle" x="354.5" y="-85" font-family="Helvetica,sans-Serif" font-size="10.00" fill="#000000">geoloncu</text>
<text text-anchor="middle" x="354.5" y="-74" font-family="Helvetica,sans-Serif" font-size="10.00" fill="#000000">cos_rot</text>
<text text-anchor="middle" x="354.5" y="-63" font-family="Helvetica,sans-Serif" font-size="10.00" fill="#000000">sin_rot</text>
<text text-anchor="middle" x="354.5" y="-52" font-family="Helvetica,sans-Serif" font-size="10.00" fill="#000000">...</text>
</g>
<!-- Node6 -->
<g id="node6" class="node">
<title>Node6</title>
<g id="a_node6"><a xlink:title=" ">
<polygon fill="#ffffff" stroke="#bfbfbf" points="381.5,-194 381.5,-213 431.5,-213 431.5,-194 381.5,-194"/>
<text text-anchor="middle" x="406.5" y="-201" font-family="Helvetica,sans-Serif" font-size="10.00" fill="#000000">integer</text>
</a>
</g>
</g>
<!-- Node6&#45;&gt;Node1 -->
<g id="edge5" class="edge">
<title>Node6&#45;&gt;Node1</title>
<path fill="none" stroke="#9a32cd" stroke-dasharray="5,2" d="M409.6818,-183.891C413.7172,-151.8051 416.7039,-87.7835 384.5,-49 378.9361,-42.2993 363.6232,-35.9132 346.6556,-30.5481"/>
<polygon fill="#9a32cd" stroke="#9a32cd" points="406.2136,-183.4207 408.2667,-193.8147 413.1435,-184.409 406.2136,-183.4207"/>
<text text-anchor="middle" x="435" y="-162" font-family="Helvetica,sans-Serif" font-size="10.00" fill="#000000"> iec</text>
<text text-anchor="middle" x="435" y="-151" font-family="Helvetica,sans-Serif" font-size="10.00" fill="#000000">ied</text>
<text text-anchor="middle" x="435" y="-140" font-family="Helvetica,sans-Serif" font-size="10.00" fill="#000000">jec</text>
<text text-anchor="middle" x="435" y="-129" font-family="Helvetica,sans-Serif" font-size="10.00" fill="#000000">jed</text>
<text text-anchor="middle" x="435" y="-118" font-family="Helvetica,sans-Serif" font-size="10.00" fill="#000000">jsgb</text>
<text text-anchor="middle" x="435" y="-107" font-family="Helvetica,sans-Serif" font-size="10.00" fill="#000000">isc</text>
<text text-anchor="middle" x="435" y="-96" font-family="Helvetica,sans-Serif" font-size="10.00" fill="#000000">jdg_offset</text>
<text text-anchor="middle" x="435" y="-85" font-family="Helvetica,sans-Serif" font-size="10.00" fill="#000000">isgb</text>
<text text-anchor="middle" x="435" y="-74" font-family="Helvetica,sans-Serif" font-size="10.00" fill="#000000">ieg</text>
<text text-anchor="middle" x="435" y="-63" font-family="Helvetica,sans-Serif" font-size="10.00" fill="#000000">isd</text>
<text text-anchor="middle" x="435" y="-52" font-family="Helvetica,sans-Serif" font-size="10.00" fill="#000000">...</text>
</g>
<!-- Node7 -->
<g id="node7" class="node">
<title>Node7</title>
<g id="a_node7"><a xlink:title=" ">
<polygon fill="#ffffff" stroke="#bfbfbf" points="449.5,-188.5 449.5,-218.5 583.5,-218.5 583.5,-188.5 449.5,-188.5"/>
<text text-anchor="start" x="457.5" y="-206.5" font-family="Helvetica,sans-Serif" font-size="10.00" fill="#000000">type(mom_domain_type)</text>
<text text-anchor="middle" x="516.5" y="-195.5" font-family="Helvetica,sans-Serif" font-size="10.00" fill="#000000">, pointer</text>
</a>
</g>
</g>
<!-- Node7&#45;&gt;Node1 -->
<g id="edge6" class="edge">
<title>Node7&#45;&gt;Node1</title>
<path fill="none" stroke="#9a32cd" stroke-dasharray="5,2" d="M515.1775,-178.2626C511.9338,-143.6376 500.7779,-81.9545 462.5,-49 445.4352,-34.3084 391.5644,-25.5453 347.6937,-20.6896"/>
<polygon fill="#9a32cd" stroke="#9a32cd" points="511.7077,-178.7864 515.9769,-188.483 518.6863,-178.2404 511.7077,-178.7864"/>
<text text-anchor="middle" x="542.5" y="-112.5" font-family="Helvetica,sans-Serif" font-size="10.00" fill="#000000"> domain</text>
<text text-anchor="middle" x="542.5" y="-101.5" font-family="Helvetica,sans-Serif" font-size="10.00" fill="#000000">domain_aux</text>
</g>
</g>
</svg>
        <g id="navigator" transform="translate(0 0)" fill="#404254">
                <rect fill="#f2f5e9" fill-opacity="0.5" stroke="#606060" stroke-width=".5" x="0" y="0" width="60" height="60"/>
                <use id="zoomplus" xlink:href="#zoomPlus" x="17" y="9" onmousedown="handleZoom(evt,'in')"/>
                <use id="zoomminus" xlink:href="#zoomMin" x="42" y="9" onmousedown="handleZoom(evt,'out')"/>
                <use id="reset" xlink:href="#resetDef" x="30" y="36" onmousedown="handleReset()"/>
                <g id="arrowUp" xlink:href="#dirArrow" transform="translate(30 24)" onmousedown="handlePan(0,-1)">
                  <use xlink:href="#rim" fill="#404040">
                        <set attributeName="fill" to="#808080" begin="arrowUp.mouseover" end="arrowUp.mouseout"/>
                  </use>
                  <path fill="none" stroke="white" stroke-width="1.5" d="M0,-3.0v7 M-2.5,-0.5L0,-3.0L2.5,-0.5"/>
                </g>
                <g id="arrowRight" xlink:href="#dirArrow" transform="rotate(90) translate(36 -43)" onmousedown="handlePan(1,0)">
                  <use xlink:href="#rim" fill="#404040">
                        <set attributeName="fill" to="#808080" begin="arrowRight.mouseover" end="arrowRight.mouseout"/>
                  </use>
                  <path fill="none" stroke="white" stroke-width="1.5" d="M0,-3.0v7 M-2.5,-0.5L0,-3.0L2.5,-0.5"/>
                </g>
                <g id="arrowDown" xlink:href="#dirArrow" transform="rotate(180) translate(-30 -48)" onmousedown="handlePan(0,1)">
                  <use xlink:href="#rim" fill="#404040">
                        <set attributeName="fill" to="#808080" begin="arrowDown.mouseover" end="arrowDown.mouseout"/>
                  </use>
                  <path fill="none" stroke="white" stroke-width="1.5" d="M0,-3.0v7 M-2.5,-0.5L0,-3.0L2.5,-0.5"/>
                </g>
                <g id="arrowLeft" xlink:href="#dirArrow" transform="rotate(270) translate(-36 17)" onmousedown="handlePan(-1,0)">
                  <use xlink:href="#rim" fill="#404040">
                        <set attributeName="fill" to="#808080" begin="arrowLeft.mouseover" end="arrowLeft.mouseout"/>
                  </use>
                  <path fill="none" stroke="white" stroke-width="1.5" d="M0,-3.0v7 M-2.5,-0.5L0,-3.0L2.5,-0.5"/>
                </g>
        </g>
        <svg viewBox="0 0 15 15" width="100%" height="30px" preserveAspectRatio="xMaxYMin meet">
         <g id="arrow_out" transform="scale(0.3 0.3)">
          <a xlink:href="structmom__dyn__horgrid_1_1dyn__horgrid__type__coll__graph_org.svg" target="_base">
           <rect id="button" ry="5" rx="5" y="6" x="6" height="38" width="38"
                fill="#f2f5e9" fill-opacity="0.5" stroke="#606060" stroke-width="1.0"/>
           <path id="arrow"
             d="M 11.500037,31.436501 C 11.940474,20.09759 22.043105,11.32322 32.158766,21.979434 L 37.068811,17.246167 C 37.068811,17.246167 37.088388,32 37.088388,32 L 22.160133,31.978069 C 22.160133,31.978069 26.997745,27.140456 26.997745,27.140456 C 18.528582,18.264221 13.291696,25.230495 11.500037,31.436501 z"
             style="fill:#404040;"/>
          </a>
         </g>
        </svg>
</svg>
