<?xml version="1.0" encoding="UTF-8" standalone="no"?>
<!DOCTYPE svg PUBLIC "-//W3C//DTD SVG 1.1//EN"
 "http://www.w3.org/Graphics/SVG/1.1/DTD/svg11.dtd">
<!-- Generated by graphviz version 2.40.1 (20161225.0304)
 -->
<!-- Title: mom_grid::ocean_grid_type Pages: 1 -->
<svg width="428pt" height="533pt"
 viewBox="0.00 0.00 428.00 532.70" xmlns="http://www.w3.org/2000/svg" xmlns:xlink="http://www.w3.org/1999/xlink">
<g id="graph0" class="graph" transform="scale(1 1) rotate(0) translate(4 528.6977)">
<title>mom_grid::ocean_grid_type</title>
<polygon fill="#ffffff" stroke="transparent" points="-4,4 -4,-528.6977 424,-528.6977 424,4 -4,4"/>
<!-- Node1 -->
<g id="node1" class="node">
<title>Node1</title>
<g id="a_node1"><a xlink:title="Ocean grid type. See mom_grid for details.">
<polygon fill="#bfbfbf" stroke="#000000" points="273,-342.1977 273,-361.1977 420,-361.1977 420,-342.1977 273,-342.1977"/>
<text text-anchor="middle" x="346.5" y="-349.1977" font-family="Helvetica,sans-Serif" font-size="10.00" fill="#000000">mom_grid::ocean_grid_type</text>
</a>
</g>
</g>
<!-- Node2 -->
<g id="node2" class="node">
<title>Node2</title>
<g id="a_node2"><a xlink:title=" ">
<polygon fill="#ffffff" stroke="#bfbfbf" points="43.5,-481.1977 43.5,-500.1977 90.5,-500.1977 90.5,-481.1977 43.5,-481.1977"/>
<text text-anchor="middle" x="67" y="-488.1977" font-family="Helvetica,sans-Serif" font-size="10.00" fill="#000000">logical</text>
</a>
</g>
</g>
<!-- Node2&#45;&gt;Node1 -->
<g id="edge1" class="edge">
<title>Node2&#45;&gt;Node1</title>
<path fill="none" stroke="#9a32cd" stroke-dasharray="5,2" d="M100.8964,-493.2239C140.4627,-494.6163 206.6348,-491.9922 255,-464.6977 299.4076,-439.6366 330.7042,-383.769 341.9315,-361.315"/>
<polygon fill="#9a32cd" stroke="#9a32cd" points="100.8691,-489.719 90.7187,-492.7556 100.5472,-496.7116 100.8691,-489.719"/>
<text text-anchor="middle" x="203.5" y="-516.6977" font-family="Helvetica,sans-Serif" font-size="10.00" fill="#000000"> nonblocking_updates</text>
<text text-anchor="middle" x="203.5" y="-505.6977" font-family="Helvetica,sans-Serif" font-size="10.00" fill="#000000">bathymetry_at_vel</text>
<text text-anchor="middle" x="203.5" y="-494.6977" font-family="Helvetica,sans-Serif" font-size="10.00" fill="#000000">symmetric</text>
</g>
<!-- Node3 -->
<g id="node3" class="node">
<title>Node3</title>
<g id="a_node3"><a xlink:title=" ">
<polygon fill="#ffffff" stroke="#bfbfbf" points="22,-443.1977 22,-462.1977 112,-462.1977 112,-443.1977 22,-443.1977"/>
<text text-anchor="middle" x="67" y="-450.1977" font-family="Helvetica,sans-Serif" font-size="10.00" fill="#000000">unit_scale_type</text>
</a>
</g>
</g>
<!-- Node3&#45;&gt;Node1 -->
<g id="edge2" class="edge">
<title>Node3&#45;&gt;Node1</title>
<path fill="none" stroke="#9a32cd" stroke-dasharray="5,2" d="M122.1458,-452.4403C160.7785,-450.4576 212.8292,-444.0939 255,-425.6977 290.205,-410.3401 323.0492,-377.6303 338.0138,-361.3368"/>
<polygon fill="#9a32cd" stroke="#9a32cd" points="121.9669,-448.9446 112.127,-452.8723 122.2685,-455.9381 121.9669,-448.9446"/>
<text text-anchor="middle" x="203.5" y="-452.6977" font-family="Helvetica,sans-Serif" font-size="10.00" fill="#000000"> us</text>
</g>
<!-- Node4 -->
<g id="node4" class="node">
<title>Node4</title>
<g id="a_node4"><a xlink:title=" ">
<polygon fill="#ffffff" stroke="#bfbfbf" points="22,-387.1977 22,-406.1977 112,-406.1977 112,-387.1977 22,-387.1977"/>
<text text-anchor="middle" x="67" y="-394.1977" font-family="Helvetica,sans-Serif" font-size="10.00" fill="#000000">hor_index_type</text>
</a>
</g>
</g>
<!-- Node4&#45;&gt;Node1 -->
<g id="edge3" class="edge">
<title>Node4&#45;&gt;Node1</title>
<path fill="none" stroke="#9a32cd" stroke-dasharray="5,2" d="M122.307,-392.1288C159.9089,-388.5574 210.6828,-382.8252 255,-374.6977 274.3331,-371.1521 295.6464,-365.8768 312.8354,-361.2724"/>
<polygon fill="#9a32cd" stroke="#9a32cd" points="121.7007,-388.6699 112.0669,-393.079 122.3476,-395.64 121.7007,-388.6699"/>
<text text-anchor="middle" x="203.5" y="-413.6977" font-family="Helvetica,sans-Serif" font-size="10.00" fill="#000000"> hi</text>
<text text-anchor="middle" x="203.5" y="-402.6977" font-family="Helvetica,sans-Serif" font-size="10.00" fill="#000000">hid2</text>
<text text-anchor="middle" x="203.5" y="-391.6977" font-family="Helvetica,sans-Serif" font-size="10.00" fill="#000000">block</text>
</g>
<!-- Node5 -->
<g id="node5" class="node">
<title>Node5</title>
<g id="a_node5"><a xlink:title=" ">
<polygon fill="#ffffff" stroke="#bfbfbf" points="16,-342.1977 16,-361.1977 118,-361.1977 118,-342.1977 16,-342.1977"/>
<text text-anchor="middle" x="67" y="-349.1977" font-family="Helvetica,sans-Serif" font-size="10.00" fill="#000000">character(len=40)</text>
</a>
</g>
</g>
<!-- Node5&#45;&gt;Node1 -->
<g id="edge4" class="edge">
<title>Node5&#45;&gt;Node1</title>
<path fill="none" stroke="#9a32cd" stroke-dasharray="5,2" d="M128.4893,-351.6977C171.0634,-351.6977 227.9388,-351.6977 272.9219,-351.6977"/>
<polygon fill="#9a32cd" stroke="#9a32cd" points="128.2646,-348.1978 118.2646,-351.6977 128.2646,-355.1978 128.2646,-348.1978"/>
<text text-anchor="middle" x="203.5" y="-365.6977" font-family="Helvetica,sans-Serif" font-size="10.00" fill="#000000"> y_axis_units</text>
<text text-anchor="middle" x="203.5" y="-354.6977" font-family="Helvetica,sans-Serif" font-size="10.00" fill="#000000">x_axis_units</text>
</g>
<!-- Node6 -->
<g id="node6" class="node">
<title>Node6</title>
<g id="a_node6"><a xlink:title=" ">
<polygon fill="#ffffff" stroke="#bfbfbf" points="49.5,-198.1977 49.5,-217.1977 84.5,-217.1977 84.5,-198.1977 49.5,-198.1977"/>
<text text-anchor="middle" x="67" y="-205.1977" font-family="Helvetica,sans-Serif" font-size="10.00" fill="#000000">real</text>
</a>
</g>
</g>
<!-- Node6&#45;&gt;Node1 -->
<g id="edge5" class="edge">
<title>Node6&#45;&gt;Node1</title>
<path fill="none" stroke="#9a32cd" stroke-dasharray="5,2" d="M94.7487,-203.8219C133.3981,-199.8318 204.3812,-197.7275 255,-226.6977 302.8505,-254.0835 332.7399,-317.7655 342.7498,-342.052"/>
<polygon fill="#9a32cd" stroke="#9a32cd" points="94.2829,-200.3523 84.7488,-204.973 95.0835,-207.3064 94.2829,-200.3523"/>
<text text-anchor="middle" x="203.5" y="-339.6977" font-family="Helvetica,sans-Serif" font-size="10.00" fill="#000000"> max_depth</text>
<text text-anchor="middle" x="203.5" y="-328.6977" font-family="Helvetica,sans-Serif" font-size="10.00" fill="#000000">west_lon</text>
<text text-anchor="middle" x="203.5" y="-317.6977" font-family="Helvetica,sans-Serif" font-size="10.00" fill="#000000">dblock_u</text>
<text text-anchor="middle" x="203.5" y="-306.6977" font-family="Helvetica,sans-Serif" font-size="10.00" fill="#000000">iareabu</text>
<text text-anchor="middle" x="203.5" y="-295.6977" font-family="Helvetica,sans-Serif" font-size="10.00" fill="#000000">areat</text>
<text text-anchor="middle" x="203.5" y="-284.6977" font-family="Helvetica,sans-Serif" font-size="10.00" fill="#000000">dblock_v</text>
<text text-anchor="middle" x="203.5" y="-273.6977" font-family="Helvetica,sans-Serif" font-size="10.00" fill="#000000">len_lon</text>
<text text-anchor="middle" x="203.5" y="-262.6977" font-family="Helvetica,sans-Serif" font-size="10.00" fill="#000000">geoloncu</text>
<text text-anchor="middle" x="203.5" y="-251.6977" font-family="Helvetica,sans-Serif" font-size="10.00" fill="#000000">cos_rot</text>
<text text-anchor="middle" x="203.5" y="-240.6977" font-family="Helvetica,sans-Serif" font-size="10.00" fill="#000000">sin_rot</text>
<text text-anchor="middle" x="203.5" y="-229.6977" font-family="Helvetica,sans-Serif" font-size="10.00" fill="#000000">...</text>
</g>
<!-- Node7 -->
<g id="node7" class="node">
<title>Node7</title>
<g id="a_node7"><a xlink:title=" ">
<polygon fill="#ffffff" stroke="#bfbfbf" points="42,-54.1977 42,-73.1977 92,-73.1977 92,-54.1977 42,-54.1977"/>
<text text-anchor="middle" x="67" y="-61.1977" font-family="Helvetica,sans-Serif" font-size="10.00" fill="#000000">integer</text>
</a>
</g>
</g>
<!-- Node7&#45;&gt;Node1 -->
<g id="edge6" class="edge">
<title>Node7&#45;&gt;Node1</title>
<path fill="none" stroke="#9a32cd" stroke-dasharray="5,2" d="M102.1186,-55.4677C143.2321,-48.0211 211.2546,-42.7946 255,-76.6977 299.7421,-111.3731 336.5175,-297.5266 344.768,-342.1022"/>
<polygon fill="#9a32cd" stroke="#9a32cd" points="101.4224,-52.0374 92.2769,-57.3863 102.7619,-58.9081 101.4224,-52.0374"/>
<text text-anchor="middle" x="203.5" y="-189.6977" font-family="Helvetica,sans-Serif" font-size="10.00" fill="#000000"> nblocks</text>
<text text-anchor="middle" x="203.5" y="-178.6977" font-family="Helvetica,sans-Serif" font-size="10.00" fill="#000000">iec</text>
<text text-anchor="middle" x="203.5" y="-167.6977" font-family="Helvetica,sans-Serif" font-size="10.00" fill="#000000">ied</text>
<text text-anchor="middle" x="203.5" y="-156.6977" font-family="Helvetica,sans-Serif" font-size="10.00" fill="#000000">jec</text>
<text text-anchor="middle" x="203.5" y="-145.6977" font-family="Helvetica,sans-Serif" font-size="10.00" fill="#000000">jed</text>
<text text-anchor="middle" x="203.5" y="-134.6977" font-family="Helvetica,sans-Serif" font-size="10.00" fill="#000000">jsgb</text>
<text text-anchor="middle" x="203.5" y="-123.6977" font-family="Helvetica,sans-Serif" font-size="10.00" fill="#000000">isc</text>
<text text-anchor="middle" x="203.5" y="-112.6977" font-family="Helvetica,sans-Serif" font-size="10.00" fill="#000000">jdg_offset</text>
<text text-anchor="middle" x="203.5" y="-101.6977" font-family="Helvetica,sans-Serif" font-size="10.00" fill="#000000">isgb</text>
<text text-anchor="middle" x="203.5" y="-90.6977" font-family="Helvetica,sans-Serif" font-size="10.00" fill="#000000">ieg</text>
<text text-anchor="middle" x="203.5" y="-79.6977" font-family="Helvetica,sans-Serif" font-size="10.00" fill="#000000">...</text>
</g>
<!-- Node8 -->
<g id="node8" class="node">
<title>Node8</title>
<g id="a_node8"><a xlink:title=" ">
<polygon fill="#ffffff" stroke="#bfbfbf" points="0,-3.6977 0,-33.6977 134,-33.6977 134,-3.6977 0,-3.6977"/>
<text text-anchor="start" x="8" y="-21.6977" font-family="Helvetica,sans-Serif" font-size="10.00" fill="#000000">type(mom_domain_type)</text>
<text text-anchor="middle" x="67" y="-10.6977" font-family="Helvetica,sans-Serif" font-size="10.00" fill="#000000">, pointer</text>
</a>
</g>
</g>
<!-- Node8&#45;&gt;Node1 -->
<g id="edge7" class="edge">
<title>Node8&#45;&gt;Node1</title>
<path fill="none" stroke="#9a32cd" stroke-dasharray="5,2" d="M137.1133,-2.256C175.7377,2.5713 222.3272,.919 255,-24.6977 307.7714,-66.0723 339.0109,-292.1542 345.3125,-341.98"/>
<polygon fill="#9a32cd" stroke="#9a32cd" points="136.3756,1.1745 126.9651,-3.6929 137.357,-5.7563 136.3756,1.1745"/>
<text text-anchor="middle" x="203.5" y="-38.6977" font-family="Helvetica,sans-Serif" font-size="10.00" fill="#000000"> domain</text>
<text text-anchor="middle" x="203.5" y="-27.6977" font-family="Helvetica,sans-Serif" font-size="10.00" fill="#000000">domain_aux</text>
</g>
</g>
</svg>
