<?xml version="1.0" encoding="UTF-8" standalone="no"?>
<!DOCTYPE svg PUBLIC "-//W3C//DTD SVG 1.1//EN"
 "http://www.w3.org/Graphics/SVG/1.1/DTD/svg11.dtd">
<!-- Generated by graphviz version 2.40.1 (20161225.0304)
 -->
<!-- Title: mom_tracer_registry::tracer_type Pages: 1 -->
<!--zoomable 584 -->
<svg id="main" version="1.1" xmlns="http://www.w3.org/2000/svg" xmlns:xlink="http://www.w3.org/1999/xlink" xml:space="preserve" onload="init(evt)">
<style type="text/css"><![CDATA[
.edge:hover path { stroke: red; }
.edge:hover polygon { stroke: red; fill: red; }
]]></style>
<script type="text/javascript"><![CDATA[
var edges = document.getElementsByTagName('g');
if (edges && edges.length) {
  for (var i=0;i<edges.length;i++) {
    if (edges[i].id.substr(0,4)=='edge') {
      edges[i].setAttribute('class','edge');
    }
  }
}
]]></script>
        <defs>
                <circle id="rim" cx="0" cy="0" r="7"/>
                <circle id="rim2" cx="0" cy="0" r="3.5"/>
                <g id="zoomPlus">
                        <use xlink:href="#rim" fill="#404040">
                                <set attributeName="fill" to="#808080" begin="zoomplus.mouseover" end="zoomplus.mouseout"/>
                        </use>
                        <path d="M-4,0h8M0,-4v8" fill="none" stroke="white" stroke-width="1.5" pointer-events="none"/>
                </g>
                <g id="zoomMin">
                        <use xlink:href="#rim" fill="#404040">
                                <set attributeName="fill" to="#808080" begin="zoomminus.mouseover" end="zoomminus.mouseout"/>
                        </use>
                        <path d="M-4,0h8" fill="none" stroke="white" stroke-width="1.5" pointer-events="none"/>
                </g>
                <g id="dirArrow">
                        <path fill="none" stroke="white" stroke-width="1.5" d="M0,-3.0v7 M-2.5,-0.5L0,-3.0L2.5,-0.5"/>
                </g>
               <g id="resetDef">
                       <use xlink:href="#rim2" fill="#404040">
                               <set attributeName="fill" to="#808080" begin="reset.mouseover" end="reset.mouseout"/>
                       </use>
               </g>
        </defs>

<script type="text/javascript">
var viewWidth = 369;
var viewHeight = 584;
var sectionId = 'dynsection-0';
</script>
<script xlink:href="svgpan.js"/>
<svg id="graph" class="graph">
<g id="viewport">
<title>mom_tracer_registry::tracer_type</title>
<polygon fill="#ffffff" stroke="transparent" points="-4,4 -4,-579.5586 365,-579.5586 365,4 -4,4"/>
<!-- Node1 -->
<g id="node1" class="node">
<title>Node1</title>
<g id="a_node1"><a xlink:title="The tracer type.">
<polygon fill="#bfbfbf" stroke="#000000" points="247,-343.5586 247,-373.5586 361,-373.5586 361,-343.5586 247,-343.5586"/>
<text text-anchor="start" x="255" y="-361.5586" font-family="Helvetica,sans-Serif" font-size="10.00" fill="#000000">mom_tracer_registry</text>
<text text-anchor="middle" x="304" y="-350.5586" font-family="Helvetica,sans-Serif" font-size="10.00" fill="#000000">::tracer_type</text>
</a>
</g>
</g>
<!-- Node2 -->
<g id="node2" class="node">
<title>Node2</title>
<g id="a_node2"><a xlink:title=" ">
<polygon fill="#ffffff" stroke="#bfbfbf" points="30.5,-517.0586 30.5,-536.0586 77.5,-536.0586 77.5,-517.0586 30.5,-517.0586"/>
<text text-anchor="middle" x="54" y="-524.0586" font-family="Helvetica,sans-Serif" font-size="10.00" fill="#000000">logical</text>
</a>
</g>
</g>
<!-- Node2&#45;&gt;Node1 -->
<g id="edge1" class="edge">
<title>Node2&#45;&gt;Node1</title>
<path fill="none" stroke="#9a32cd" stroke-dasharray="5,2" d="M87.6852,-530.8228C125.5414,-533.7884 187.1619,-532.9289 229,-503.5586 274.2335,-471.8048 294.0727,-404.2947 300.9591,-373.9248"/>
<polygon fill="#9a32cd" stroke="#9a32cd" points="87.9518,-527.3327 77.6741,-529.9055 87.313,-534.3035 87.9518,-527.3327"/>
<text text-anchor="middle" x="177.5" y="-567.5586" font-family="Helvetica,sans-Serif" font-size="10.00" fill="#000000"> remap_tr</text>
<text text-anchor="middle" x="177.5" y="-556.5586" font-family="Helvetica,sans-Serif" font-size="10.00" fill="#000000">advect_tr</text>
<text text-anchor="middle" x="177.5" y="-545.5586" font-family="Helvetica,sans-Serif" font-size="10.00" fill="#000000">hordiff_tr</text>
<text text-anchor="middle" x="177.5" y="-534.5586" font-family="Helvetica,sans-Serif" font-size="10.00" fill="#000000">registry_diags</text>
</g>
<!-- Node3 -->
<g id="node3" class="node">
<title>Node3</title>
<g id="a_node3"><a xlink:title=" ">
<polygon fill="#ffffff" stroke="#bfbfbf" points="0,-472.0586 0,-491.0586 108,-491.0586 108,-472.0586 0,-472.0586"/>
<text text-anchor="middle" x="54" y="-479.0586" font-family="Helvetica,sans-Serif" font-size="10.00" fill="#000000">character(len=240)</text>
</a>
</g>
</g>
<!-- Node3&#45;&gt;Node1 -->
<g id="edge2" class="edge">
<title>Node3&#45;&gt;Node1</title>
<path fill="none" stroke="#9a32cd" stroke-dasharray="5,2" d="M118.2828,-478.7287C160.2504,-475.8942 210.5567,-470.3292 229,-459.5586 263.5138,-439.403 287.0088,-396.4524 297.6018,-373.5961"/>
<polygon fill="#9a32cd" stroke="#9a32cd" points="117.8525,-475.2488 108.0943,-479.3755 118.296,-482.2348 117.8525,-475.2488"/>
<text text-anchor="middle" x="177.5" y="-491.5586" font-family="Helvetica,sans-Serif" font-size="10.00" fill="#000000"> longname</text>
<text text-anchor="middle" x="177.5" y="-480.5586" font-family="Helvetica,sans-Serif" font-size="10.00" fill="#000000">cmor_longname</text>
</g>
<!-- Node4 -->
<g id="node4" class="node">
<title>Node4</title>
<g id="a_node4"><a xlink:title=" ">
<polygon fill="#ffffff" stroke="#bfbfbf" points="3,-416.0586 3,-435.0586 105,-435.0586 105,-416.0586 3,-416.0586"/>
<text text-anchor="middle" x="54" y="-423.0586" font-family="Helvetica,sans-Serif" font-size="10.00" fill="#000000">character(len=48)</text>
</a>
</g>
</g>
<!-- Node4&#45;&gt;Node1 -->
<g id="edge3" class="edge">
<title>Node4&#45;&gt;Node1</title>
<path fill="none" stroke="#9a32cd" stroke-dasharray="5,2" d="M115.365,-424.0485C149.5917,-421.6846 192.5427,-416.1578 229,-403.5586 249.0927,-396.6148 269.6394,-383.8075 284.1344,-373.6267"/>
<polygon fill="#9a32cd" stroke="#9a32cd" points="114.8055,-420.5762 105.0398,-424.6849 115.2362,-427.563 114.8055,-420.5762"/>
<text text-anchor="middle" x="177.5" y="-447.5586" font-family="Helvetica,sans-Serif" font-size="10.00" fill="#000000"> conv_units</text>
<text text-anchor="middle" x="177.5" y="-436.5586" font-family="Helvetica,sans-Serif" font-size="10.00" fill="#000000">cmor_tendprefix</text>
<text text-anchor="middle" x="177.5" y="-425.5586" font-family="Helvetica,sans-Serif" font-size="10.00" fill="#000000">flux_units</text>
</g>
<!-- Node5 -->
<g id="node5" class="node">
<title>Node5</title>
<g id="a_node5"><a xlink:title=" ">
<polygon fill="#ffffff" stroke="#bfbfbf" points="3,-349.0586 3,-368.0586 105,-368.0586 105,-349.0586 3,-349.0586"/>
<text text-anchor="middle" x="54" y="-356.0586" font-family="Helvetica,sans-Serif" font-size="10.00" fill="#000000">character(len=64)</text>
</a>
</g>
</g>
<!-- Node5&#45;&gt;Node1 -->
<g id="edge4" class="edge">
<title>Node5&#45;&gt;Node1</title>
<path fill="none" stroke="#9a32cd" stroke-dasharray="5,2" d="M115.3816,-358.5586C155.4901,-358.5586 207.5134,-358.5586 246.7625,-358.5586"/>
<polygon fill="#9a32cd" stroke="#9a32cd" points="115.1945,-355.0587 105.1945,-358.5586 115.1945,-362.0587 115.1945,-355.0587"/>
<text text-anchor="middle" x="177.5" y="-394.5586" font-family="Helvetica,sans-Serif" font-size="10.00" fill="#000000"> units</text>
<text text-anchor="middle" x="177.5" y="-383.5586" font-family="Helvetica,sans-Serif" font-size="10.00" fill="#000000">flux_longname</text>
<text text-anchor="middle" x="177.5" y="-372.5586" font-family="Helvetica,sans-Serif" font-size="10.00" fill="#000000">cmor_units</text>
<text text-anchor="middle" x="177.5" y="-361.5586" font-family="Helvetica,sans-Serif" font-size="10.00" fill="#000000">cmor_name</text>
</g>
<!-- Node6 -->
<g id="node6" class="node">
<title>Node6</title>
<g id="a_node6"><a xlink:title=" ">
<polygon fill="#ffffff" stroke="#bfbfbf" points="3,-304.0586 3,-323.0586 105,-323.0586 105,-304.0586 3,-304.0586"/>
<text text-anchor="middle" x="54" y="-311.0586" font-family="Helvetica,sans-Serif" font-size="10.00" fill="#000000">character(len=32)</text>
</a>
</g>
</g>
<!-- Node6&#45;&gt;Node1 -->
<g id="edge5" class="edge">
<title>Node6&#45;&gt;Node1</title>
<path fill="none" stroke="#9a32cd" stroke-dasharray="5,2" d="M115.245,-316.8126C149.0884,-319.4567 191.7092,-324.1834 229,-332.5586 241.236,-335.3067 254.2498,-339.3864 265.9423,-343.5037"/>
<polygon fill="#9a32cd" stroke="#9a32cd" points="115.2705,-313.305 105.0393,-316.0571 114.7536,-320.2859 115.2705,-313.305"/>
<text text-anchor="middle" x="177.5" y="-346.5586" font-family="Helvetica,sans-Serif" font-size="10.00" fill="#000000"> flux_nameroot</text>
<text text-anchor="middle" x="177.5" y="-335.5586" font-family="Helvetica,sans-Serif" font-size="10.00" fill="#000000">name</text>
</g>
<!-- Node7 -->
<g id="node7" class="node">
<title>Node7</title>
<g id="a_node7"><a xlink:title=" ">
<polygon fill="#ffffff" stroke="#bfbfbf" points="29,-149.0586 29,-168.0586 79,-168.0586 79,-149.0586 29,-149.0586"/>
<text text-anchor="middle" x="54" y="-156.0586" font-family="Helvetica,sans-Serif" font-size="10.00" fill="#000000">integer</text>
</a>
</g>
</g>
<!-- Node7&#45;&gt;Node1 -->
<g id="edge6" class="edge">
<title>Node7&#45;&gt;Node1</title>
<path fill="none" stroke="#9a32cd" stroke-dasharray="5,2" d="M89.3712,-153.6059C127.7015,-150.2403 188.7623,-150.948 229,-181.5586 282.5216,-222.2748 298.2541,-308.5536 302.527,-343.4441"/>
<polygon fill="#9a32cd" stroke="#9a32cd" points="88.793,-150.1466 79.1991,-154.6418 89.5023,-157.1106 88.793,-150.1466"/>
<text text-anchor="middle" x="177.5" y="-305.5586" font-family="Helvetica,sans-Serif" font-size="10.00" fill="#000000"> id_trxh_tendency_2d</text>
<text text-anchor="middle" x="177.5" y="-294.5586" font-family="Helvetica,sans-Serif" font-size="10.00" fill="#000000">id_adx</text>
<text text-anchor="middle" x="177.5" y="-283.5586" font-family="Helvetica,sans-Serif" font-size="10.00" fill="#000000">id_dfxy_cont_2d</text>
<text text-anchor="middle" x="177.5" y="-272.5586" font-family="Helvetica,sans-Serif" font-size="10.00" fill="#000000">id_dfx</text>
<text text-anchor="middle" x="177.5" y="-261.5586" font-family="Helvetica,sans-Serif" font-size="10.00" fill="#000000">id_ady</text>
<text text-anchor="start" x="126" y="-250.5586" font-family="Helvetica,sans-Serif" font-size="10.00" fill="#000000">id_remap_cont</text>
<text text-anchor="middle" x="177.5" y="-239.5586" font-family="Helvetica,sans-Serif" font-size="10.00" fill="#000000">_2d</text>
<text text-anchor="middle" x="177.5" y="-228.5586" font-family="Helvetica,sans-Serif" font-size="10.00" fill="#000000">id_dfxy_conc</text>
<text text-anchor="middle" x="177.5" y="-217.5586" font-family="Helvetica,sans-Serif" font-size="10.00" fill="#000000">id_dfy</text>
<text text-anchor="middle" x="177.5" y="-206.5586" font-family="Helvetica,sans-Serif" font-size="10.00" fill="#000000">id_tr_vardec</text>
<text text-anchor="middle" x="177.5" y="-195.5586" font-family="Helvetica,sans-Serif" font-size="10.00" fill="#000000">id_remap_conc</text>
<text text-anchor="middle" x="177.5" y="-184.5586" font-family="Helvetica,sans-Serif" font-size="10.00" fill="#000000">...</text>
</g>
<!-- Node8 -->
<g id="node8" class="node">
<title>Node8</title>
<g id="a_node8"><a xlink:title=" ">
<polygon fill="#ffffff" stroke="#bfbfbf" points="36.5,-5.0586 36.5,-24.0586 71.5,-24.0586 71.5,-5.0586 36.5,-5.0586"/>
<text text-anchor="middle" x="54" y="-12.0586" font-family="Helvetica,sans-Serif" font-size="10.00" fill="#000000">real</text>
</a>
</g>
</g>
<!-- Node8&#45;&gt;Node1 -->
<g id="edge7" class="edge">
<title>Node8&#45;&gt;Node1</title>
<path fill="none" stroke="#9a32cd" stroke-dasharray="5,2" d="M81.5125,-7.3684C119.4782,.7572 187.8898,8.6728 229,-26.5586 278.3555,-68.8562 298.2706,-283.6452 302.8957,-343.2182"/>
<polygon fill="#9a32cd" stroke="#9a32cd" points="80.623,-3.9815 71.6596,-9.6301 82.1892,-10.8041 80.623,-3.9815"/>
<text text-anchor="middle" x="177.5" y="-139.5586" font-family="Helvetica,sans-Serif" font-size="10.00" fill="#000000"> diff_conc_xy</text>
<text text-anchor="middle" x="177.5" y="-128.5586" font-family="Helvetica,sans-Serif" font-size="10.00" fill="#000000">conv_scale</text>
<text text-anchor="middle" x="177.5" y="-117.5586" font-family="Helvetica,sans-Serif" font-size="10.00" fill="#000000">advection_xy</text>
<text text-anchor="middle" x="177.5" y="-106.5586" font-family="Helvetica,sans-Serif" font-size="10.00" fill="#000000">df2d_conc_x</text>
<text text-anchor="middle" x="177.5" y="-95.5586" font-family="Helvetica,sans-Serif" font-size="10.00" fill="#000000">df2d_conc_y</text>
<text text-anchor="middle" x="177.5" y="-84.5586" font-family="Helvetica,sans-Serif" font-size="10.00" fill="#000000">df2d_x</text>
<text text-anchor="middle" x="177.5" y="-73.5586" font-family="Helvetica,sans-Serif" font-size="10.00" fill="#000000">trxh_prev</text>
<text text-anchor="middle" x="177.5" y="-62.5586" font-family="Helvetica,sans-Serif" font-size="10.00" fill="#000000">df2d_y</text>
<text text-anchor="middle" x="177.5" y="-51.5586" font-family="Helvetica,sans-Serif" font-size="10.00" fill="#000000">df_x</text>
<text text-anchor="middle" x="177.5" y="-40.5586" font-family="Helvetica,sans-Serif" font-size="10.00" fill="#000000">ad2d_x</text>
<text text-anchor="middle" x="177.5" y="-29.5586" font-family="Helvetica,sans-Serif" font-size="10.00" fill="#000000">...</text>
</g>
</g>
</svg>
        <g id="navigator" transform="translate(0 0)" fill="#404254">
                <rect fill="#f2f5e9" fill-opacity="0.5" stroke="#606060" stroke-width=".5" x="0" y="0" width="60" height="60"/>
                <use id="zoomplus" xlink:href="#zoomPlus" x="17" y="9" onmousedown="handleZoom(evt,'in')"/>
                <use id="zoomminus" xlink:href="#zoomMin" x="42" y="9" onmousedown="handleZoom(evt,'out')"/>
                <use id="reset" xlink:href="#resetDef" x="30" y="36" onmousedown="handleReset()"/>
                <g id="arrowUp" xlink:href="#dirArrow" transform="translate(30 24)" onmousedown="handlePan(0,-1)">
                  <use xlink:href="#rim" fill="#404040">
                        <set attributeName="fill" to="#808080" begin="arrowUp.mouseover" end="arrowUp.mouseout"/>
                  </use>
                  <path fill="none" stroke="white" stroke-width="1.5" d="M0,-3.0v7 M-2.5,-0.5L0,-3.0L2.5,-0.5"/>
                </g>
                <g id="arrowRight" xlink:href="#dirArrow" transform="rotate(90) translate(36 -43)" onmousedown="handlePan(1,0)">
                  <use xlink:href="#rim" fill="#404040">
                        <set attributeName="fill" to="#808080" begin="arrowRight.mouseover" end="arrowRight.mouseout"/>
                  </use>
                  <path fill="none" stroke="white" stroke-width="1.5" d="M0,-3.0v7 M-2.5,-0.5L0,-3.0L2.5,-0.5"/>
                </g>
                <g id="arrowDown" xlink:href="#dirArrow" transform="rotate(180) translate(-30 -48)" onmousedown="handlePan(0,1)">
                  <use xlink:href="#rim" fill="#404040">
                        <set attributeName="fill" to="#808080" begin="arrowDown.mouseover" end="arrowDown.mouseout"/>
                  </use>
                  <path fill="none" stroke="white" stroke-width="1.5" d="M0,-3.0v7 M-2.5,-0.5L0,-3.0L2.5,-0.5"/>
                </g>
                <g id="arrowLeft" xlink:href="#dirArrow" transform="rotate(270) translate(-36 17)" onmousedown="handlePan(-1,0)">
                  <use xlink:href="#rim" fill="#404040">
                        <set attributeName="fill" to="#808080" begin="arrowLeft.mouseover" end="arrowLeft.mouseout"/>
                  </use>
                  <path fill="none" stroke="white" stroke-width="1.5" d="M0,-3.0v7 M-2.5,-0.5L0,-3.0L2.5,-0.5"/>
                </g>
        </g>
        <svg viewBox="0 0 15 15" width="100%" height="30px" preserveAspectRatio="xMaxYMin meet">
         <g id="arrow_out" transform="scale(0.3 0.3)">
          <a xlink:href="structmom__tracer__registry_1_1tracer__type__coll__graph_org.svg" target="_base">
           <rect id="button" ry="5" rx="5" y="6" x="6" height="38" width="38"
                fill="#f2f5e9" fill-opacity="0.5" stroke="#606060" stroke-width="1.0"/>
           <path id="arrow"
             d="M 11.500037,31.436501 C 11.940474,20.09759 22.043105,11.32322 32.158766,21.979434 L 37.068811,17.246167 C 37.068811,17.246167 37.088388,32 37.088388,32 L 22.160133,31.978069 C 22.160133,31.978069 26.997745,27.140456 26.997745,27.140456 C 18.528582,18.264221 13.291696,25.230495 11.500037,31.436501 z"
             style="fill:#404040;"/>
          </a>
         </g>
        </svg>
</svg>
