<?xml version="1.0" encoding="UTF-8" standalone="no"?>
<!DOCTYPE svg PUBLIC "-//W3C//DTD SVG 1.1//EN"
 "http://www.w3.org/Graphics/SVG/1.1/DTD/svg11.dtd">
<!-- Generated by graphviz version 2.40.1 (20161225.0304)
 -->
<!-- Title: mom_diabatic_driver::diabatic_cs Pages: 1 -->
<!--zoomable 1476 -->
<svg id="main" version="1.1" xmlns="http://www.w3.org/2000/svg" xmlns:xlink="http://www.w3.org/1999/xlink" xml:space="preserve" onload="init(evt)">
<style type="text/css"><![CDATA[
.edge:hover path { stroke: red; }
.edge:hover polygon { stroke: red; fill: red; }
]]></style>
<script type="text/javascript"><![CDATA[
var edges = document.getElementsByTagName('g');
if (edges && edges.length) {
  for (var i=0;i<edges.length;i++) {
    if (edges[i].id.substr(0,4)=='edge') {
      edges[i].setAttribute('class','edge');
    }
  }
}
]]></script>
        <defs>
                <circle id="rim" cx="0" cy="0" r="7"/>
                <circle id="rim2" cx="0" cy="0" r="3.5"/>
                <g id="zoomPlus">
                        <use xlink:href="#rim" fill="#404040">
                                <set attributeName="fill" to="#808080" begin="zoomplus.mouseover" end="zoomplus.mouseout"/>
                        </use>
                        <path d="M-4,0h8M0,-4v8" fill="none" stroke="white" stroke-width="1.5" pointer-events="none"/>
                </g>
                <g id="zoomMin">
                        <use xlink:href="#rim" fill="#404040">
                                <set attributeName="fill" to="#808080" begin="zoomminus.mouseover" end="zoomminus.mouseout"/>
                        </use>
                        <path d="M-4,0h8" fill="none" stroke="white" stroke-width="1.5" pointer-events="none"/>
                </g>
                <g id="dirArrow">
                        <path fill="none" stroke="white" stroke-width="1.5" d="M0,-3.0v7 M-2.5,-0.5L0,-3.0L2.5,-0.5"/>
                </g>
               <g id="resetDef">
                       <use xlink:href="#rim2" fill="#404040">
                               <set attributeName="fill" to="#808080" begin="reset.mouseover" end="reset.mouseout"/>
                       </use>
               </g>
        </defs>

<script type="text/javascript">
var viewWidth = 395;
var viewHeight = 1476;
var sectionId = 'dynsection-0';
</script>
<script xlink:href="svgpan.js"/>
<svg id="graph" class="graph">
<g id="viewport">
<title>mom_diabatic_driver::diabatic_cs</title>
<polygon fill="#ffffff" stroke="transparent" points="-4,4 -4,-1471.6727 391,-1471.6727 391,4 -4,4"/>
<!-- Node1 -->
<g id="node1" class="node">
<title>Node1</title>
<g id="a_node1"><a xlink:title="Control structure for this module.">
<polygon fill="#bfbfbf" stroke="#000000" points="280,-725.6727 280,-755.6727 387,-755.6727 387,-725.6727 280,-725.6727"/>
<text text-anchor="start" x="288" y="-743.6727" font-family="Helvetica,sans-Serif" font-size="10.00" fill="#000000">mom_diabatic_driver</text>
<text text-anchor="middle" x="333.5" y="-732.6727" font-family="Helvetica,sans-Serif" font-size="10.00" fill="#000000">::diabatic_cs</text>
</a>
</g>
</g>
<!-- Node2 -->
<g id="node2" class="node">
<title>Node2</title>
<g id="a_node2"><a xlink:title=" ">
<polygon fill="#ffffff" stroke="#bfbfbf" points="40,-1317.1727 40,-1336.1727 84,-1336.1727 84,-1317.1727 40,-1317.1727"/>
<text text-anchor="middle" x="62" y="-1324.1727" font-family="Helvetica,sans-Serif" font-size="10.00" fill="#000000">logical</text>
</a>
</g>
</g>
<!-- Node2&#45;&gt;Node1 -->
<g id="edge1" class="edge">
<title>Node2&#45;&gt;Node1</title>
<path fill="none" stroke="#9a32cd" stroke-dasharray="5,2" d="M94.0293,-1332.6132C138.4282,-1338.8138 218.1494,-1342.2451 262,-1297.6727 301.2724,-1257.7537 327.6426,-840.8582 332.6376,-755.7818"/>
<polygon fill="#9a32cd" stroke="#9a32cd" points="94.4826,-1329.1419 84.0688,-1331.0918 93.4257,-1336.0617 94.4826,-1329.1419"/>
<text text-anchor="middle" x="202" y="-1459.6727" font-family="Helvetica,sans-Serif" font-size="10.00" fill="#000000"> massless_match_targets</text>
<text text-anchor="middle" x="202" y="-1448.6727" font-family="Helvetica,sans-Serif" font-size="10.00" fill="#000000">aggregate_fw_forcing</text>
<text text-anchor="middle" x="202" y="-1437.6727" font-family="Helvetica,sans-Serif" font-size="10.00" fill="#000000">use_sponge</text>
<text text-anchor="start" x="142" y="-1426.6727" font-family="Helvetica,sans-Serif" font-size="10.00" fill="#000000">boundary_forcing_tendency</text>
<text text-anchor="middle" x="202" y="-1415.6727" font-family="Helvetica,sans-Serif" font-size="10.00" fill="#000000">_diag</text>
<text text-anchor="middle" x="202" y="-1404.6727" font-family="Helvetica,sans-Serif" font-size="10.00" fill="#000000">bulkmixedlayer</text>
<text text-anchor="middle" x="202" y="-1393.6727" font-family="Helvetica,sans-Serif" font-size="10.00" fill="#000000">use_legacy_diabatic</text>
<text text-anchor="middle" x="202" y="-1382.6727" font-family="Helvetica,sans-Serif" font-size="10.00" fill="#000000">frazil_tendency_diag</text>
<text text-anchor="middle" x="202" y="-1371.6727" font-family="Helvetica,sans-Serif" font-size="10.00" fill="#000000">usekpp</text>
<text text-anchor="middle" x="202" y="-1360.6727" font-family="Helvetica,sans-Serif" font-size="10.00" fill="#000000">use_tidal_mixing</text>
<text text-anchor="middle" x="202" y="-1349.6727" font-family="Helvetica,sans-Serif" font-size="10.00" fill="#000000">kppispassive</text>
<text text-anchor="middle" x="202" y="-1338.6727" font-family="Helvetica,sans-Serif" font-size="10.00" fill="#000000">...</text>
</g>
<!-- Node3 -->
<g id="node3" class="node">
<title>Node3</title>
<g id="a_node3"><a xlink:title=" ">
<polygon fill="#ffffff" stroke="#bfbfbf" points="14,-1267.6727 14,-1297.6727 110,-1297.6727 110,-1267.6727 14,-1267.6727"/>
<text text-anchor="start" x="22" y="-1285.6727" font-family="Helvetica,sans-Serif" font-size="10.00" fill="#000000">type(energetic_pbl</text>
<text text-anchor="middle" x="62" y="-1274.6727" font-family="Helvetica,sans-Serif" font-size="10.00" fill="#000000">_cs), pointer</text>
</a>
</g>
</g>
<!-- Node3&#45;&gt;Node1 -->
<g id="edge2" class="edge">
<title>Node3&#45;&gt;Node1</title>
<path fill="none" stroke="#9a32cd" stroke-dasharray="5,2" d="M120.2142,-1283.926C171.9727,-1283.7174 242.4041,-1279.7448 262,-1260.6727 299.3453,-1224.3253 327.0389,-837.7459 332.5115,-755.8586"/>
<polygon fill="#9a32cd" stroke="#9a32cd" points="120.1339,-1280.4261 110.1321,-1283.9209 120.1303,-1287.4261 120.1339,-1280.4261"/>
<text text-anchor="middle" x="202" y="-1285.6727" font-family="Helvetica,sans-Serif" font-size="10.00" fill="#000000"> energetic_pbl_csp</text>
</g>
<!-- Node4 -->
<g id="node4" class="node">
<title>Node4</title>
<g id="a_node4"><a xlink:title=" ">
<polygon fill="#ffffff" stroke="#bfbfbf" points="1.5,-1218.6727 1.5,-1248.6727 122.5,-1248.6727 122.5,-1218.6727 1.5,-1218.6727"/>
<text text-anchor="start" x="9.5" y="-1236.6727" font-family="Helvetica,sans-Serif" font-size="10.00" fill="#000000">type(tracer_flow_control</text>
<text text-anchor="middle" x="62" y="-1225.6727" font-family="Helvetica,sans-Serif" font-size="10.00" fill="#000000">_cs), pointer</text>
</a>
</g>
</g>
<!-- Node4&#45;&gt;Node1 -->
<g id="edge3" class="edge">
<title>Node4&#45;&gt;Node1</title>
<path fill="none" stroke="#9a32cd" stroke-dasharray="5,2" d="M132.6661,-1245.1721C175.6133,-1247.9083 228.4576,-1243.0134 262,-1210.6727 295.7559,-1178.126 325.9241,-833.001 332.2744,-755.8932"/>
<polygon fill="#9a32cd" stroke="#9a32cd" points="132.7863,-1241.6709 122.5429,-1244.3771 132.2382,-1248.6494 132.7863,-1241.6709"/>
<text text-anchor="middle" x="202" y="-1248.6727" font-family="Helvetica,sans-Serif" font-size="10.00" fill="#000000"> tracer_flow_csp</text>
</g>
<!-- Node5 -->
<g id="node5" class="node">
<title>Node5</title>
<g id="a_node5"><a xlink:title=" ">
<polygon fill="#ffffff" stroke="#bfbfbf" points="6,-1169.6727 6,-1199.6727 118,-1199.6727 118,-1169.6727 6,-1169.6727"/>
<text text-anchor="start" x="14" y="-1187.6727" font-family="Helvetica,sans-Serif" font-size="10.00" fill="#000000">type(regularize_layers</text>
<text text-anchor="middle" x="62" y="-1176.6727" font-family="Helvetica,sans-Serif" font-size="10.00" fill="#000000">_cs), pointer</text>
</a>
</g>
</g>
<!-- Node5&#45;&gt;Node1 -->
<g id="edge4" class="edge">
<title>Node5&#45;&gt;Node1</title>
<path fill="none" stroke="#9a32cd" stroke-dasharray="5,2" d="M128.5208,-1195.3198C172.0772,-1198.2893 227.1779,-1193.8226 262,-1160.6727 322.0008,-1103.5532 331.7424,-824.8303 333.2403,-756.0421"/>
<polygon fill="#9a32cd" stroke="#9a32cd" points="128.5386,-1191.8094 118.2841,-1194.4731 127.9616,-1198.7856 128.5386,-1191.8094"/>
<text text-anchor="middle" x="202" y="-1198.6727" font-family="Helvetica,sans-Serif" font-size="10.00" fill="#000000"> regularize_layers_csp</text>
</g>
<!-- Node6 -->
<g id="node6" class="node">
<title>Node6</title>
<g id="a_node6"><a xlink:title=" ">
<polygon fill="#ffffff" stroke="#bfbfbf" points="12.5,-1120.6727 12.5,-1150.6727 111.5,-1150.6727 111.5,-1120.6727 12.5,-1120.6727"/>
<text text-anchor="start" x="20.5" y="-1138.6727" font-family="Helvetica,sans-Serif" font-size="10.00" fill="#000000">type(set_diffusivity</text>
<text text-anchor="middle" x="62" y="-1127.6727" font-family="Helvetica,sans-Serif" font-size="10.00" fill="#000000">_cs), pointer</text>
</a>
</g>
</g>
<!-- Node6&#45;&gt;Node1 -->
<g id="edge5" class="edge">
<title>Node6&#45;&gt;Node1</title>
<path fill="none" stroke="#9a32cd" stroke-dasharray="5,2" d="M122.0068,-1144.9068C166.3546,-1148.1258 225.1901,-1144.2641 262,-1109.6727 314.783,-1060.0708 329.7895,-819.0039 332.8446,-755.8455"/>
<polygon fill="#9a32cd" stroke="#9a32cd" points="122.1883,-1141.4096 111.9244,-1144.0369 121.5865,-1148.3837 122.1883,-1141.4096"/>
<text text-anchor="middle" x="202" y="-1148.6727" font-family="Helvetica,sans-Serif" font-size="10.00" fill="#000000"> set_diff_csp</text>
</g>
<!-- Node7 -->
<g id="node7" class="node">
<title>Node7</title>
<g id="a_node7"><a xlink:title=" ">
<polygon fill="#ffffff" stroke="#bfbfbf" points="9.5,-1071.6727 9.5,-1101.6727 114.5,-1101.6727 114.5,-1071.6727 9.5,-1071.6727"/>
<text text-anchor="start" x="17.5" y="-1089.6727" font-family="Helvetica,sans-Serif" font-size="10.00" fill="#000000">type(geothermal_cs)</text>
<text text-anchor="middle" x="62" y="-1078.6727" font-family="Helvetica,sans-Serif" font-size="10.00" fill="#000000">, pointer</text>
</a>
</g>
</g>
<!-- Node7&#45;&gt;Node1 -->
<g id="edge6" class="edge">
<title>Node7&#45;&gt;Node1</title>
<path fill="none" stroke="#9a32cd" stroke-dasharray="5,2" d="M124.8183,-1094.7104C168.6882,-1096.6526 225.6805,-1091.2695 262,-1057.6727 307.3496,-1015.7227 327.4345,-813.5574 332.2929,-755.9953"/>
<polygon fill="#9a32cd" stroke="#9a32cd" points="125.0066,-1091.2156 114.8214,-1094.1331 124.603,-1098.2039 125.0066,-1091.2156"/>
<text text-anchor="middle" x="202" y="-1097.6727" font-family="Helvetica,sans-Serif" font-size="10.00" fill="#000000"> geothermal_csp</text>
</g>
<!-- Node8 -->
<g id="node8" class="node">
<title>Node8</title>
<g id="a_node8"><a xlink:title=" ">
<polygon fill="#ffffff" stroke="#bfbfbf" points="32.5,-1033.1727 32.5,-1052.1727 91.5,-1052.1727 91.5,-1033.1727 32.5,-1033.1727"/>
<text text-anchor="middle" x="62" y="-1040.1727" font-family="Helvetica,sans-Serif" font-size="10.00" fill="#000000">time_type</text>
</a>
</g>
</g>
<!-- Node8&#45;&gt;Node1 -->
<g id="edge7" class="edge">
<title>Node8&#45;&gt;Node1</title>
<path fill="none" stroke="#9a32cd" stroke-dasharray="5,2" d="M101.6902,-1043.476C153.078,-1043.6658 238.8074,-1040.8168 262,-1020.6727 303.0978,-984.9768 325.8962,-808.6107 331.8888,-755.7026"/>
<polygon fill="#9a32cd" stroke="#9a32cd" points="101.6167,-1039.9755 91.59,-1043.3982 101.5627,-1046.9753 101.6167,-1039.9755"/>
<text text-anchor="middle" x="202" y="-1045.6727" font-family="Helvetica,sans-Serif" font-size="10.00" fill="#000000"> time</text>
</g>
<!-- Node9 -->
<g id="node9" class="node">
<title>Node9</title>
<g id="a_node9"><a xlink:title=" ">
<polygon fill="#ffffff" stroke="#bfbfbf" points="8.5,-983.6727 8.5,-1013.6727 115.5,-1013.6727 115.5,-983.6727 8.5,-983.6727"/>
<text text-anchor="start" x="16.5" y="-1001.6727" font-family="Helvetica,sans-Serif" font-size="10.00" fill="#000000">type(ale_sponge_cs)</text>
<text text-anchor="middle" x="62" y="-990.6727" font-family="Helvetica,sans-Serif" font-size="10.00" fill="#000000">, pointer</text>
</a>
</g>
</g>
<!-- Node9&#45;&gt;Node1 -->
<g id="edge8" class="edge">
<title>Node9&#45;&gt;Node1</title>
<path fill="none" stroke="#9a32cd" stroke-dasharray="5,2" d="M125.9278,-1007.3914C169.1019,-1009.6316 224.7935,-1004.9289 262,-973.6727 296.5041,-944.6867 323.0889,-802.6349 331.0463,-755.7321"/>
<polygon fill="#9a32cd" stroke="#9a32cd" points="126.0087,-1003.8893 115.8015,-1006.7289 125.5516,-1010.8744 126.0087,-1003.8893"/>
<text text-anchor="middle" x="202" y="-1010.6727" font-family="Helvetica,sans-Serif" font-size="10.00" fill="#000000"> ale_sponge_csp</text>
</g>
<!-- Node10 -->
<g id="node10" class="node">
<title>Node10</title>
<g id="a_node10"><a xlink:title=" ">
<polygon fill="#ffffff" stroke="#bfbfbf" points="13,-945.1727 13,-964.1727 111,-964.1727 111,-945.1727 13,-945.1727"/>
<text text-anchor="middle" x="62" y="-952.1727" font-family="Helvetica,sans-Serif" font-size="10.00" fill="#000000">int_tide_input_type</text>
</a>
</g>
</g>
<!-- Node10&#45;&gt;Node1 -->
<g id="edge9" class="edge">
<title>Node10&#45;&gt;Node1</title>
<path fill="none" stroke="#9a32cd" stroke-dasharray="5,2" d="M121.5726,-959.8976C164.982,-960.4892 222.8141,-954.2029 262,-922.6727 315.4272,-879.6834 329.0569,-791.2198 332.4297,-755.812"/>
<polygon fill="#9a32cd" stroke="#9a32cd" points="121.5156,-956.395 111.4274,-959.6321 121.3324,-963.3926 121.5156,-956.395"/>
<text text-anchor="middle" x="202" y="-961.6727" font-family="Helvetica,sans-Serif" font-size="10.00" fill="#000000"> int_tide_input</text>
</g>
<!-- Node11 -->
<g id="node11" class="node">
<title>Node11</title>
<g id="a_node11"><a xlink:title=" ">
<polygon fill="#ffffff" stroke="#bfbfbf" points="14,-895.6727 14,-925.6727 110,-925.6727 110,-895.6727 14,-895.6727"/>
<text text-anchor="start" x="22" y="-913.6727" font-family="Helvetica,sans-Serif" font-size="10.00" fill="#000000">type(int_tide_input</text>
<text text-anchor="middle" x="62" y="-902.6727" font-family="Helvetica,sans-Serif" font-size="10.00" fill="#000000">_cs), pointer</text>
</a>
</g>
</g>
<!-- Node11&#45;&gt;Node1 -->
<g id="edge10" class="edge">
<title>Node11&#45;&gt;Node1</title>
<path fill="none" stroke="#9a32cd" stroke-dasharray="5,2" d="M120.1553,-910.5711C163.0961,-907.7503 220.9678,-897.8992 262,-867.6727 300.7067,-839.1592 321.3434,-783.0134 329.4114,-755.9585"/>
<polygon fill="#9a32cd" stroke="#9a32cd" points="119.9253,-907.0783 110.132,-911.1208 120.3087,-914.0678 119.9253,-907.0783"/>
<text text-anchor="middle" x="202" y="-910.6727" font-family="Helvetica,sans-Serif" font-size="10.00" fill="#000000"> int_tide_input_csp</text>
</g>
<!-- Node12 -->
<g id="node12" class="node">
<title>Node12</title>
<g id="a_node12"><a xlink:title=" ">
<polygon fill="#ffffff" stroke="#bfbfbf" points="6,-846.6727 6,-876.6727 118,-876.6727 118,-846.6727 6,-846.6727"/>
<text text-anchor="start" x="14" y="-864.6727" font-family="Helvetica,sans-Serif" font-size="10.00" fill="#000000">type(diabatic_aux_cs)</text>
<text text-anchor="middle" x="62" y="-853.6727" font-family="Helvetica,sans-Serif" font-size="10.00" fill="#000000">, pointer</text>
</a>
</g>
</g>
<!-- Node12&#45;&gt;Node1 -->
<g id="edge11" class="edge">
<title>Node12&#45;&gt;Node1</title>
<path fill="none" stroke="#9a32cd" stroke-dasharray="5,2" d="M128.2341,-855.6838C168.9424,-849.7521 220.9747,-837.9825 262,-814.6727 287.939,-799.9346 310.4627,-772.9342 322.9886,-755.9418"/>
<polygon fill="#9a32cd" stroke="#9a32cd" points="127.573,-852.2416 118.1422,-857.0695 128.5253,-859.1766 127.573,-852.2416"/>
<text text-anchor="middle" x="202" y="-855.6727" font-family="Helvetica,sans-Serif" font-size="10.00" fill="#000000"> diabatic_aux_csp</text>
</g>
<!-- Node13 -->
<g id="node13" class="node">
<title>Node13</title>
<g id="a_node13"><a xlink:title=" ">
<polygon fill="#ffffff" stroke="#bfbfbf" points="11.5,-797.6727 11.5,-827.6727 112.5,-827.6727 112.5,-797.6727 11.5,-797.6727"/>
<text text-anchor="start" x="19.5" y="-815.6727" font-family="Helvetica,sans-Serif" font-size="10.00" fill="#000000">type(diapyc_energy</text>
<text text-anchor="middle" x="62" y="-804.6727" font-family="Helvetica,sans-Serif" font-size="10.00" fill="#000000">_req_cs), pointer</text>
</a>
</g>
</g>
<!-- Node13&#45;&gt;Node1 -->
<g id="edge12" class="edge">
<title>Node13&#45;&gt;Node1</title>
<path fill="none" stroke="#9a32cd" stroke-dasharray="5,2" d="M122.7639,-803.5808C162.8393,-796.7667 216.1937,-786.1264 262,-771.6727 275.6768,-767.3571 290.286,-761.3005 302.7106,-755.6845"/>
<polygon fill="#9a32cd" stroke="#9a32cd" points="122.1617,-800.1328 112.874,-805.2307 123.3137,-807.0373 122.1617,-800.1328"/>
<text text-anchor="middle" x="202" y="-802.6727" font-family="Helvetica,sans-Serif" font-size="10.00" fill="#000000"> diapyc_en_rec_csp</text>
</g>
<!-- Node14 -->
<g id="node14" class="node">
<title>Node14</title>
<g id="a_node14"><a xlink:title=" ">
<polygon fill="#ffffff" stroke="#bfbfbf" points="10,-748.6727 10,-778.6727 114,-778.6727 114,-748.6727 10,-748.6727"/>
<text text-anchor="start" x="18" y="-766.6727" font-family="Helvetica,sans-Serif" font-size="10.00" fill="#000000">type(bulkmixedlayer</text>
<text text-anchor="middle" x="62" y="-755.6727" font-family="Helvetica,sans-Serif" font-size="10.00" fill="#000000">_cs), pointer</text>
</a>
</g>
</g>
<!-- Node14&#45;&gt;Node1 -->
<g id="edge13" class="edge">
<title>Node14&#45;&gt;Node1</title>
<path fill="none" stroke="#9a32cd" stroke-dasharray="5,2" d="M124.0852,-758.4131C171.0843,-754.4316 234.9815,-749.0186 279.7926,-745.2225"/>
<polygon fill="#9a32cd" stroke="#9a32cd" points="123.6955,-754.9335 114.0267,-759.2652 124.2865,-761.9085 123.6955,-754.9335"/>
<text text-anchor="middle" x="202" y="-759.6727" font-family="Helvetica,sans-Serif" font-size="10.00" fill="#000000"> bulkmixedlayer_csp</text>
</g>
<!-- Node15 -->
<g id="node15" class="node">
<title>Node15</title>
<g id="a_node15"><a xlink:title=" ">
<polygon fill="#ffffff" stroke="#bfbfbf" points="16.5,-710.1727 16.5,-729.1727 107.5,-729.1727 107.5,-710.1727 16.5,-710.1727"/>
<text text-anchor="middle" x="62" y="-717.1727" font-family="Helvetica,sans-Serif" font-size="10.00" fill="#000000">group_pass_type</text>
</a>
</g>
</g>
<!-- Node15&#45;&gt;Node1 -->
<g id="edge14" class="edge">
<title>Node15&#45;&gt;Node1</title>
<path fill="none" stroke="#9a32cd" stroke-dasharray="5,2" d="M117.6971,-715.4426C157.9892,-713.4087 213.6268,-712.7158 262,-719.6727 271.0921,-720.9802 280.6407,-723.1778 289.6932,-725.6712"/>
<polygon fill="#9a32cd" stroke="#9a32cd" points="117.3319,-711.9573 107.5387,-716 117.7155,-718.9467 117.3319,-711.9573"/>
<text text-anchor="middle" x="202" y="-733.6727" font-family="Helvetica,sans-Serif" font-size="10.00" fill="#000000"> pass_kv</text>
<text text-anchor="middle" x="202" y="-722.6727" font-family="Helvetica,sans-Serif" font-size="10.00" fill="#000000">pass_hold_eb_ea</text>
</g>
<!-- Node16 -->
<g id="node16" class="node">
<title>Node16</title>
<g id="a_node16"><a xlink:title=" ">
<polygon fill="#ffffff" stroke="#bfbfbf" points="7,-660.6727 7,-690.6727 117,-690.6727 117,-660.6727 7,-660.6727"/>
<text text-anchor="start" x="15" y="-678.6727" font-family="Helvetica,sans-Serif" font-size="10.00" fill="#000000">type(cvmix_conv_cs)</text>
<text text-anchor="middle" x="62" y="-667.6727" font-family="Helvetica,sans-Serif" font-size="10.00" fill="#000000">, pointer</text>
</a>
</g>
</g>
<!-- Node16&#45;&gt;Node1 -->
<g id="edge15" class="edge">
<title>Node16&#45;&gt;Node1</title>
<path fill="none" stroke="#9a32cd" stroke-dasharray="5,2" d="M127.3469,-676.3754C167.1558,-678.4581 218.5495,-684.1382 262,-698.6727 280.4313,-704.838 299.3069,-716.1807 313.0326,-725.5257"/>
<polygon fill="#9a32cd" stroke="#9a32cd" points="127.3775,-672.8732 117.2272,-675.9098 127.0557,-679.8658 127.3775,-672.8732"/>
<text text-anchor="middle" x="202" y="-701.6727" font-family="Helvetica,sans-Serif" font-size="10.00" fill="#000000"> cvmix_conv_csp</text>
</g>
<!-- Node17 -->
<g id="node17" class="node">
<title>Node17</title>
<g id="a_node17"><a xlink:title=" ">
<polygon fill="#ffffff" stroke="#bfbfbf" points="35.5,-622.1727 35.5,-641.1727 88.5,-641.1727 88.5,-622.1727 35.5,-622.1727"/>
<text text-anchor="middle" x="62" y="-629.1727" font-family="Helvetica,sans-Serif" font-size="10.00" fill="#000000">diag_ctrl</text>
</a>
</g>
</g>
<!-- Node17&#45;&gt;Node1 -->
<g id="edge16" class="edge">
<title>Node17&#45;&gt;Node1</title>
<path fill="none" stroke="#9a32cd" stroke-dasharray="5,2" d="M98.7313,-629.9873C140.6903,-629.629 210.2219,-633.919 262,-661.6727 290.043,-676.7041 312.6795,-707.1989 324.5154,-725.5927"/>
<polygon fill="#9a32cd" stroke="#9a32cd" points="98.6212,-626.4886 88.6855,-630.167 98.7465,-633.4875 98.6212,-626.4886"/>
<text text-anchor="middle" x="202" y="-664.6727" font-family="Helvetica,sans-Serif" font-size="10.00" fill="#000000"> diag</text>
</g>
<!-- Node18 -->
<g id="node18" class="node">
<title>Node18</title>
<g id="a_node18"><a xlink:title=" ">
<polygon fill="#ffffff" stroke="#bfbfbf" points="15.5,-584.1727 15.5,-603.1727 108.5,-603.1727 108.5,-584.1727 15.5,-584.1727"/>
<text text-anchor="middle" x="62" y="-591.1727" font-family="Helvetica,sans-Serif" font-size="10.00" fill="#000000">diag_grid_storage</text>
</a>
</g>
</g>
<!-- Node18&#45;&gt;Node1 -->
<g id="edge17" class="edge">
<title>Node18&#45;&gt;Node1</title>
<path fill="none" stroke="#9a32cd" stroke-dasharray="5,2" d="M119.0891,-586.7877C161.8177,-584.571 219.9011,-588.0674 262,-615.6727 301.9321,-641.8571 322.0789,-698.5515 329.7354,-725.6535"/>
<polygon fill="#9a32cd" stroke="#9a32cd" points="118.6069,-583.3113 108.8506,-587.4422 119.0535,-590.297 118.6069,-583.3113"/>
<text text-anchor="middle" x="202" y="-618.6727" font-family="Helvetica,sans-Serif" font-size="10.00" fill="#000000"> diag_grids_prev</text>
</g>
<!-- Node19 -->
<g id="node19" class="node">
<title>Node19</title>
<g id="a_node19"><a xlink:title=" ">
<polygon fill="#ffffff" stroke="#bfbfbf" points="8,-546.1727 8,-565.1727 116,-565.1727 116,-546.1727 8,-546.1727"/>
<text text-anchor="middle" x="62" y="-553.1727" font-family="Helvetica,sans-Serif" font-size="10.00" fill="#000000">type(kpp_cs), pointer</text>
</a>
</g>
</g>
<!-- Node19&#45;&gt;Node1 -->
<g id="edge18" class="edge">
<title>Node19&#45;&gt;Node1</title>
<path fill="none" stroke="#9a32cd" stroke-dasharray="5,2" d="M120.0148,-544.9528C163.1409,-540.3013 221.3133,-541.3943 262,-570.6727 314.1072,-608.1693 328.4519,-691.2102 332.2227,-725.4538"/>
<polygon fill="#9a32cd" stroke="#9a32cd" points="119.4567,-541.4947 109.9496,-546.1707 120.2976,-548.444 119.4567,-541.4947"/>
<text text-anchor="middle" x="202" y="-573.6727" font-family="Helvetica,sans-Serif" font-size="10.00" fill="#000000"> kpp_csp</text>
</g>
<!-- Node20 -->
<g id="node20" class="node">
<title>Node20</title>
<g id="a_node20"><a xlink:title=" ">
<polygon fill="#ffffff" stroke="#bfbfbf" points="28.5,-508.1727 28.5,-527.1727 95.5,-527.1727 95.5,-508.1727 28.5,-508.1727"/>
<text text-anchor="middle" x="62" y="-515.1727" font-family="Helvetica,sans-Serif" font-size="10.00" fill="#000000">optics_type</text>
</a>
</g>
</g>
<!-- Node20&#45;&gt;Node1 -->
<g id="edge19" class="edge">
<title>Node20&#45;&gt;Node1</title>
<path fill="none" stroke="#9a32cd" stroke-dasharray="5,2" d="M105.4057,-506.8812C149.4276,-498.6535 217.2706,-493.7787 262,-527.6727 294.7994,-552.5266 322.1036,-681.1091 330.6893,-725.5459"/>
<polygon fill="#9a32cd" stroke="#9a32cd" points="104.6933,-503.4543 95.5743,-508.8482 106.0666,-510.3182 104.6933,-503.4543"/>
<text text-anchor="middle" x="202" y="-530.6727" font-family="Helvetica,sans-Serif" font-size="10.00" fill="#000000"> optics</text>
</g>
<!-- Node21 -->
<g id="node21" class="node">
<title>Node21</title>
<g id="a_node21"><a xlink:title=" ">
<polygon fill="#ffffff" stroke="#bfbfbf" points="0,-470.1727 0,-489.1727 124,-489.1727 124,-470.1727 0,-470.1727"/>
<text text-anchor="middle" x="62" y="-477.1727" font-family="Helvetica,sans-Serif" font-size="10.00" fill="#000000">type(opacity_cs), pointer</text>
</a>
</g>
</g>
<!-- Node21&#45;&gt;Node1 -->
<g id="edge20" class="edge">
<title>Node21&#45;&gt;Node1</title>
<path fill="none" stroke="#9a32cd" stroke-dasharray="5,2" d="M103.7435,-467.7965C147.8811,-457.9621 217.1936,-450.6313 262,-485.6727 300.934,-516.1215 324.9027,-675.2869 331.5815,-725.4885"/>
<polygon fill="#9a32cd" stroke="#9a32cd" points="102.8373,-464.4142 93.911,-470.1214 104.448,-471.2264 102.8373,-464.4142"/>
<text text-anchor="middle" x="202" y="-488.6727" font-family="Helvetica,sans-Serif" font-size="10.00" fill="#000000"> opacity_csp</text>
</g>
<!-- Node22 -->
<g id="node22" class="node">
<title>Node22</title>
<g id="a_node22"><a xlink:title=" ">
<polygon fill="#ffffff" stroke="#bfbfbf" points="20,-432.1727 20,-451.1727 104,-451.1727 104,-432.1727 20,-432.1727"/>
<text text-anchor="middle" x="62" y="-439.1727" font-family="Helvetica,sans-Serif" font-size="10.00" fill="#000000">tidal_mixing_cs</text>
</a>
</g>
</g>
<!-- Node22&#45;&gt;Node1 -->
<g id="edge21" class="edge">
<title>Node22&#45;&gt;Node1</title>
<path fill="none" stroke="#9a32cd" stroke-dasharray="5,2" d="M114.0133,-435.2167C165.5769,-430.0172 239.9682,-426.1362 262,-443.6727 307.23,-479.6742 327.2765,-669.7327 332.2312,-725.3631"/>
<polygon fill="#9a32cd" stroke="#9a32cd" points="113.6057,-431.7401 104.0272,-436.2682 114.3388,-438.7016 113.6057,-431.7401"/>
<text text-anchor="middle" x="202" y="-446.6727" font-family="Helvetica,sans-Serif" font-size="10.00" fill="#000000"> tidal_mixing_csp</text>
</g>
<!-- Node23 -->
<g id="node23" class="node">
<title>Node23</title>
<g id="a_node23"><a xlink:title=" ">
<polygon fill="#ffffff" stroke="#bfbfbf" points="0,-394.1727 0,-413.1727 124,-413.1727 124,-394.1727 0,-394.1727"/>
<text text-anchor="middle" x="62" y="-401.1727" font-family="Helvetica,sans-Serif" font-size="10.00" fill="#000000">type(sponge_cs), pointer</text>
</a>
</g>
</g>
<!-- Node23&#45;&gt;Node1 -->
<g id="edge22" class="edge">
<title>Node23&#45;&gt;Node1</title>
<path fill="none" stroke="#9a32cd" stroke-dasharray="5,2" d="M134.0346,-399.1611C183.3753,-397.6797 243.1661,-399.5795 262,-415.6727 310.3145,-456.9563 328.393,-667.3044 332.5222,-725.6484"/>
<polygon fill="#9a32cd" stroke="#9a32cd" points="133.874,-395.6645 124.0024,-399.5119 134.1187,-402.6603 133.874,-395.6645"/>
<text text-anchor="middle" x="202" y="-418.6727" font-family="Helvetica,sans-Serif" font-size="10.00" fill="#000000"> sponge_csp</text>
</g>
<!-- Node24 -->
<g id="node24" class="node">
<title>Node24</title>
<g id="a_node24"><a xlink:title=" ">
<polygon fill="#ffffff" stroke="#bfbfbf" points="7,-344.6727 7,-374.6727 117,-374.6727 117,-344.6727 7,-344.6727"/>
<text text-anchor="start" x="15" y="-362.6727" font-family="Helvetica,sans-Serif" font-size="10.00" fill="#000000">type(entrain_diffusive</text>
<text text-anchor="middle" x="62" y="-351.6727" font-family="Helvetica,sans-Serif" font-size="10.00" fill="#000000">_cs), pointer</text>
</a>
</g>
</g>
<!-- Node24&#45;&gt;Node1 -->
<g id="edge23" class="edge">
<title>Node24&#45;&gt;Node1</title>
<path fill="none" stroke="#9a32cd" stroke-dasharray="5,2" d="M127.3619,-359.4702C178.0665,-360.7408 242.8427,-365.9584 262,-383.6727 313.3991,-431.2 329.3807,-663.7439 332.7548,-725.5585"/>
<polygon fill="#9a32cd" stroke="#9a32cd" points="127.1714,-355.9656 117.1021,-359.2609 127.0287,-362.9642 127.1714,-355.9656"/>
<text text-anchor="middle" x="202" y="-386.6727" font-family="Helvetica,sans-Serif" font-size="10.00" fill="#000000"> entrain_diffusive_csp</text>
</g>
<!-- Node25 -->
<g id="node25" class="node">
<title>Node25</title>
<g id="a_node25"><a xlink:title=" ">
<polygon fill="#ffffff" stroke="#bfbfbf" points="46,-222.1727 46,-241.1727 78,-241.1727 78,-222.1727 46,-222.1727"/>
<text text-anchor="middle" x="62" y="-229.1727" font-family="Helvetica,sans-Serif" font-size="10.00" fill="#000000">real</text>
</a>
</g>
</g>
<!-- Node25&#45;&gt;Node1 -->
<g id="edge24" class="edge">
<title>Node25&#45;&gt;Node1</title>
<path fill="none" stroke="#9a32cd" stroke-dasharray="5,2" d="M88.2257,-228.0491C136.5341,-222.0037 236.9387,-212.5717 262,-234.6727 300.0117,-268.1942 327.1303,-645.0026 332.518,-725.5707"/>
<polygon fill="#9a32cd" stroke="#9a32cd" points="87.6808,-224.5904 78.2141,-229.3475 88.5812,-231.5322 87.6808,-224.5904"/>
<text text-anchor="middle" x="202" y="-347.6727" font-family="Helvetica,sans-Serif" font-size="10.00" fill="#000000"> kpp_salt_flux</text>
<text text-anchor="middle" x="202" y="-336.6727" font-family="Helvetica,sans-Serif" font-size="10.00" fill="#000000">kpp_nltheat</text>
<text text-anchor="middle" x="202" y="-325.6727" font-family="Helvetica,sans-Serif" font-size="10.00" fill="#000000">mlddensitydifference</text>
<text text-anchor="middle" x="202" y="-314.6727" font-family="Helvetica,sans-Serif" font-size="10.00" fill="#000000">kpp_buoy_flux</text>
<text text-anchor="middle" x="202" y="-303.6727" font-family="Helvetica,sans-Serif" font-size="10.00" fill="#000000">frazil_heat_diag</text>
<text text-anchor="middle" x="202" y="-292.6727" font-family="Helvetica,sans-Serif" font-size="10.00" fill="#000000">kpp_nltscalar</text>
<text text-anchor="middle" x="202" y="-281.6727" font-family="Helvetica,sans-Serif" font-size="10.00" fill="#000000">dz_subml_n2</text>
<text text-anchor="middle" x="202" y="-270.6727" font-family="Helvetica,sans-Serif" font-size="10.00" fill="#000000">kd_min_tr</text>
<text text-anchor="middle" x="202" y="-259.6727" font-family="Helvetica,sans-Serif" font-size="10.00" fill="#000000">kd_bbl_tr</text>
<text text-anchor="middle" x="202" y="-248.6727" font-family="Helvetica,sans-Serif" font-size="10.00" fill="#000000">evap_cfl_limit</text>
<text text-anchor="middle" x="202" y="-237.6727" font-family="Helvetica,sans-Serif" font-size="10.00" fill="#000000">...</text>
</g>
<!-- Node26 -->
<g id="node26" class="node">
<title>Node26</title>
<g id="a_node26"><a xlink:title=" ">
<polygon fill="#ffffff" stroke="#bfbfbf" points="39,-56.1727 39,-75.1727 85,-75.1727 85,-56.1727 39,-56.1727"/>
<text text-anchor="middle" x="62" y="-63.1727" font-family="Helvetica,sans-Serif" font-size="10.00" fill="#000000">integer</text>
</a>
</g>
</g>
<!-- Node26&#45;&gt;Node1 -->
<g id="edge25" class="edge">
<title>Node26&#45;&gt;Node1</title>
<path fill="none" stroke="#9a32cd" stroke-dasharray="5,2" d="M94.7493,-55.4323C138.9031,-43.8801 217.147,-31.7204 262,-73.6727 311.3322,-119.8144 329.972,-630.124 333.0333,-725.4016"/>
<polygon fill="#9a32cd" stroke="#9a32cd" points="93.795,-52.0647 85.0836,-58.0949 95.6541,-58.8133 93.795,-52.0647"/>
<text text-anchor="start" x="155.5" y="-208.6727" font-family="Helvetica,sans-Serif" font-size="10.00" fill="#000000"> id_diabatic_diff_heat</text>
<text text-anchor="middle" x="202" y="-197.6727" font-family="Helvetica,sans-Serif" font-size="10.00" fill="#000000">_tend</text>
<text text-anchor="start" x="155.5" y="-186.6727" font-family="Helvetica,sans-Serif" font-size="10.00" fill="#000000">id_boundary_forcing</text>
<text text-anchor="middle" x="202" y="-175.6727" font-family="Helvetica,sans-Serif" font-size="10.00" fill="#000000">_heat_tend</text>
<text text-anchor="middle" x="202" y="-164.6727" font-family="Helvetica,sans-Serif" font-size="10.00" fill="#000000">id_s_predia</text>
<text text-anchor="middle" x="202" y="-153.6727" font-family="Helvetica,sans-Serif" font-size="10.00" fill="#000000">id_tadv</text>
<text text-anchor="middle" x="202" y="-142.6727" font-family="Helvetica,sans-Serif" font-size="10.00" fill="#000000">id_kd_epbl</text>
<text text-anchor="middle" x="202" y="-131.6727" font-family="Helvetica,sans-Serif" font-size="10.00" fill="#000000">id_kd_heat</text>
<text text-anchor="middle" x="202" y="-120.6727" font-family="Helvetica,sans-Serif" font-size="10.00" fill="#000000">id_t_predia</text>
<text text-anchor="middle" x="202" y="-109.6727" font-family="Helvetica,sans-Serif" font-size="10.00" fill="#000000">id_brine_lay</text>
<text text-anchor="middle" x="202" y="-98.6727" font-family="Helvetica,sans-Serif" font-size="10.00" fill="#000000">id_sadv</text>
<text text-anchor="middle" x="202" y="-87.6727" font-family="Helvetica,sans-Serif" font-size="10.00" fill="#000000">id_dudt_dia</text>
<text text-anchor="middle" x="202" y="-76.6727" font-family="Helvetica,sans-Serif" font-size="10.00" fill="#000000">...</text>
</g>
<!-- Node27 -->
<g id="node27" class="node">
<title>Node27</title>
<g id="a_node27"><a xlink:title=" ">
<polygon fill="#ffffff" stroke="#bfbfbf" points="16,-6.6727 16,-36.6727 108,-36.6727 108,-6.6727 16,-6.6727"/>
<text text-anchor="start" x="24" y="-24.6727" font-family="Helvetica,sans-Serif" font-size="10.00" fill="#000000">type(int_tide_cs),</text>
<text text-anchor="middle" x="62" y="-13.6727" font-family="Helvetica,sans-Serif" font-size="10.00" fill="#000000"> pointer</text>
</a>
</g>
</g>
<!-- Node27&#45;&gt;Node1 -->
<g id="edge26" class="edge">
<title>Node27&#45;&gt;Node1</title>
<path fill="none" stroke="#9a32cd" stroke-dasharray="5,2" d="M118.08,-6.0513C162.941,2.7176 224.3649,5.7607 262,-29.6727 314.5585,-79.1563 330.6492,-626.379 333.1384,-725.3687"/>
<polygon fill="#9a32cd" stroke="#9a32cd" points="117.2706,-2.6448 108.2032,-8.1249 118.709,-9.4955 117.2706,-2.6448"/>
<text text-anchor="middle" x="202" y="-32.6727" font-family="Helvetica,sans-Serif" font-size="10.00" fill="#000000"> int_tide_csp</text>
</g>
</g>
</svg>
        <g id="navigator" transform="translate(0 0)" fill="#404254">
                <rect fill="#f2f5e9" fill-opacity="0.5" stroke="#606060" stroke-width=".5" x="0" y="0" width="60" height="60"/>
                <use id="zoomplus" xlink:href="#zoomPlus" x="17" y="9" onmousedown="handleZoom(evt,'in')"/>
                <use id="zoomminus" xlink:href="#zoomMin" x="42" y="9" onmousedown="handleZoom(evt,'out')"/>
                <use id="reset" xlink:href="#resetDef" x="30" y="36" onmousedown="handleReset()"/>
                <g id="arrowUp" xlink:href="#dirArrow" transform="translate(30 24)" onmousedown="handlePan(0,-1)">
                  <use xlink:href="#rim" fill="#404040">
                        <set attributeName="fill" to="#808080" begin="arrowUp.mouseover" end="arrowUp.mouseout"/>
                  </use>
                  <path fill="none" stroke="white" stroke-width="1.5" d="M0,-3.0v7 M-2.5,-0.5L0,-3.0L2.5,-0.5"/>
                </g>
                <g id="arrowRight" xlink:href="#dirArrow" transform="rotate(90) translate(36 -43)" onmousedown="handlePan(1,0)">
                  <use xlink:href="#rim" fill="#404040">
                        <set attributeName="fill" to="#808080" begin="arrowRight.mouseover" end="arrowRight.mouseout"/>
                  </use>
                  <path fill="none" stroke="white" stroke-width="1.5" d="M0,-3.0v7 M-2.5,-0.5L0,-3.0L2.5,-0.5"/>
                </g>
                <g id="arrowDown" xlink:href="#dirArrow" transform="rotate(180) translate(-30 -48)" onmousedown="handlePan(0,1)">
                  <use xlink:href="#rim" fill="#404040">
                        <set attributeName="fill" to="#808080" begin="arrowDown.mouseover" end="arrowDown.mouseout"/>
                  </use>
                  <path fill="none" stroke="white" stroke-width="1.5" d="M0,-3.0v7 M-2.5,-0.5L0,-3.0L2.5,-0.5"/>
                </g>
                <g id="arrowLeft" xlink:href="#dirArrow" transform="rotate(270) translate(-36 17)" onmousedown="handlePan(-1,0)">
                  <use xlink:href="#rim" fill="#404040">
                        <set attributeName="fill" to="#808080" begin="arrowLeft.mouseover" end="arrowLeft.mouseout"/>
                  </use>
                  <path fill="none" stroke="white" stroke-width="1.5" d="M0,-3.0v7 M-2.5,-0.5L0,-3.0L2.5,-0.5"/>
                </g>
        </g>
        <svg viewBox="0 0 15 15" width="100%" height="30px" preserveAspectRatio="xMaxYMin meet">
         <g id="arrow_out" transform="scale(0.3 0.3)">
          <a xlink:href="structmom__diabatic__driver_1_1diabatic__cs__coll__graph_org.svg" target="_base">
           <rect id="button" ry="5" rx="5" y="6" x="6" height="38" width="38"
                fill="#f2f5e9" fill-opacity="0.5" stroke="#606060" stroke-width="1.0"/>
           <path id="arrow"
             d="M 11.500037,31.436501 C 11.940474,20.09759 22.043105,11.32322 32.158766,21.979434 L 37.068811,17.246167 C 37.068811,17.246167 37.088388,32 37.088388,32 L 22.160133,31.978069 C 22.160133,31.978069 26.997745,27.140456 26.997745,27.140456 C 18.528582,18.264221 13.291696,25.230495 11.500037,31.436501 z"
             style="fill:#404040;"/>
          </a>
         </g>
        </svg>
</svg>
