<?xml version="1.0" encoding="UTF-8" standalone="no"?>
<!DOCTYPE svg PUBLIC "-//W3C//DTD SVG 1.1//EN"
 "http://www.w3.org/Graphics/SVG/1.1/DTD/svg11.dtd">
<!-- Generated by graphviz version 2.40.1 (20161225.0304)
 -->
<!-- Title: mom_grid_initialize::gps Pages: 1 -->
<svg width="261pt" height="172pt"
 viewBox="0.00 0.00 261.00 172.00" xmlns="http://www.w3.org/2000/svg" xmlns:xlink="http://www.w3.org/1999/xlink">
<g id="graph0" class="graph" transform="scale(1 1) rotate(0) translate(4 168)">
<title>mom_grid_initialize::gps</title>
<polygon fill="#ffffff" stroke="transparent" points="-4,4 -4,-168 257,-168 257,4 -4,4"/>
<!-- Node1 -->
<g id="node1" class="node">
<title>Node1</title>
<g id="a_node1"><a xlink:title="Global positioning system (aka container for information to describe the grid)">
<polygon fill="#bfbfbf" stroke="#000000" points="63,-.5 63,-19.5 185,-19.5 185,-.5 63,-.5"/>
<text text-anchor="middle" x="124" y="-7.5" font-family="Helvetica,sans-Serif" font-size="10.00" fill="#000000">mom_grid_initialize::gps</text>
</a>
</g>
</g>
<!-- Node2 -->
<g id="node2" class="node">
<title>Node2</title>
<g id="a_node2"><a xlink:title=" ">
<polygon fill="#ffffff" stroke="#bfbfbf" points="0,-144.5 0,-163.5 44,-163.5 44,-144.5 0,-144.5"/>
<text text-anchor="middle" x="22" y="-151.5" font-family="Helvetica,sans-Serif" font-size="10.00" fill="#000000">logical</text>
</a>
</g>
</g>
<!-- Node2&#45;&gt;Node1 -->
<g id="edge1" class="edge">
<title>Node2&#45;&gt;Node1</title>
<path fill="none" stroke="#9a32cd" stroke-dasharray="5,2" d="M19.5063,-134.0054C17.504,-108.6469 18.0934,-64.9817 41,-38 46.8561,-31.1021 65.2025,-24.5668 83.1617,-19.5476"/>
<polygon fill="#9a32cd" stroke="#9a32cd" points="16.0528,-134.644 20.5378,-144.2427 23.0176,-133.9422 16.0528,-134.644"/>
<text text-anchor="middle" x="80.5" y="-85" font-family="Helvetica,sans-Serif" font-size="10.00" fill="#000000"> isotropic</text>
<text text-anchor="middle" x="80.5" y="-74" font-family="Helvetica,sans-Serif" font-size="10.00" fill="#000000">equator_reference</text>
</g>
<!-- Node3 -->
<g id="node3" class="node">
<title>Node3</title>
<g id="a_node3"><a xlink:title=" ">
<polygon fill="#ffffff" stroke="#bfbfbf" points="101,-144.5 101,-163.5 147,-163.5 147,-144.5 101,-144.5"/>
<text text-anchor="middle" x="124" y="-151.5" font-family="Helvetica,sans-Serif" font-size="10.00" fill="#000000">integer</text>
</a>
</g>
</g>
<!-- Node3&#45;&gt;Node1 -->
<g id="edge2" class="edge">
<title>Node3&#45;&gt;Node1</title>
<path fill="none" stroke="#9a32cd" stroke-dasharray="5,2" d="M124,-133.9129C124,-102.4665 124,-42.8094 124,-19.5877"/>
<polygon fill="#9a32cd" stroke="#9a32cd" points="120.5001,-134.1023 124,-144.1023 127.5001,-134.1023 120.5001,-134.1023"/>
<text text-anchor="middle" x="142.5" y="-85" font-family="Helvetica,sans-Serif" font-size="10.00" fill="#000000"> niglobal</text>
<text text-anchor="middle" x="142.5" y="-74" font-family="Helvetica,sans-Serif" font-size="10.00" fill="#000000">njglobal</text>
</g>
<!-- Node4 -->
<g id="node4" class="node">
<title>Node4</title>
<g id="a_node4"><a xlink:title=" ">
<polygon fill="#ffffff" stroke="#bfbfbf" points="168,-144.5 168,-163.5 200,-163.5 200,-144.5 168,-144.5"/>
<text text-anchor="middle" x="184" y="-151.5" font-family="Helvetica,sans-Serif" font-size="10.00" fill="#000000">real</text>
</a>
</g>
</g>
<!-- Node4&#45;&gt;Node1 -->
<g id="edge3" class="edge">
<title>Node4&#45;&gt;Node1</title>
<path fill="none" stroke="#9a32cd" stroke-dasharray="5,2" d="M184.5119,-134.2787C184.2441,-109.8462 180.7528,-67.8052 162,-38 157.2868,-30.5091 149.7872,-24.3552 142.6911,-19.7435"/>
<polygon fill="#9a32cd" stroke="#9a32cd" points="181.011,-134.4204 184.4445,-144.4434 188.0109,-134.4669 181.011,-134.4204"/>
<text text-anchor="middle" x="218.5" y="-118" font-family="Helvetica,sans-Serif" font-size="10.00" fill="#000000"> west_lon</text>
<text text-anchor="middle" x="218.5" y="-107" font-family="Helvetica,sans-Serif" font-size="10.00" fill="#000000">lat_eq_enhance</text>
<text text-anchor="middle" x="218.5" y="-96" font-family="Helvetica,sans-Serif" font-size="10.00" fill="#000000">len_lon</text>
<text text-anchor="middle" x="218.5" y="-85" font-family="Helvetica,sans-Serif" font-size="10.00" fill="#000000">south_lat</text>
<text text-anchor="middle" x="218.5" y="-74" font-family="Helvetica,sans-Serif" font-size="10.00" fill="#000000">len_lat</text>
<text text-anchor="middle" x="218.5" y="-63" font-family="Helvetica,sans-Serif" font-size="10.00" fill="#000000">rad_earth</text>
<text text-anchor="start" x="184" y="-52" font-family="Helvetica,sans-Serif" font-size="10.00" fill="#000000">lat_enhance</text>
<text text-anchor="middle" x="218.5" y="-41" font-family="Helvetica,sans-Serif" font-size="10.00" fill="#000000">_factor</text>
</g>
</g>
</svg>
