<?xml version="1.0" encoding="UTF-8" standalone="no"?>
<!DOCTYPE svg PUBLIC "-//W3C//DTD SVG 1.1//EN"
 "http://www.w3.org/Graphics/SVG/1.1/DTD/svg11.dtd">
<!-- Generated by graphviz version 2.40.1 (20161225.0304)
 -->
<!-- Title: mom_cvmix_shear::cvmix_shear_cs Pages: 1 -->
<svg width="419pt" height="172pt"
 viewBox="0.00 0.00 419.00 172.00" xmlns="http://www.w3.org/2000/svg" xmlns:xlink="http://www.w3.org/1999/xlink">
<g id="graph0" class="graph" transform="scale(1 1) rotate(0) translate(4 168)">
<title>mom_cvmix_shear::cvmix_shear_cs</title>
<polygon fill="#ffffff" stroke="transparent" points="-4,4 -4,-168 415,-168 415,4 -4,4"/>
<!-- Node1 -->
<g id="node1" class="node">
<title>Node1</title>
<g id="a_node1"><a xlink:title="Control structure including parameters for CVMix interior shear schemes.">
<polygon fill="#bfbfbf" stroke="#000000" points="115.5,-.5 115.5,-30.5 246.5,-30.5 246.5,-.5 115.5,-.5"/>
<text text-anchor="start" x="123.5" y="-18.5" font-family="Helvetica,sans-Serif" font-size="10.00" fill="#000000">mom_cvmix_shear::cvmix</text>
<text text-anchor="middle" x="181" y="-7.5" font-family="Helvetica,sans-Serif" font-size="10.00" fill="#000000">_shear_cs</text>
</a>
</g>
</g>
<!-- Node2 -->
<g id="node2" class="node">
<title>Node2</title>
<g id="a_node2"><a xlink:title=" ">
<polygon fill="#ffffff" stroke="#bfbfbf" points="0,-144.5 0,-163.5 44,-163.5 44,-144.5 0,-144.5"/>
<text text-anchor="middle" x="22" y="-151.5" font-family="Helvetica,sans-Serif" font-size="10.00" fill="#000000">logical</text>
</a>
</g>
</g>
<!-- Node2&#45;&gt;Node1 -->
<g id="edge1" class="edge">
<title>Node2&#45;&gt;Node1</title>
<path fill="none" stroke="#9a32cd" stroke-dasharray="5,2" d="M20.5486,-134.1698C19.9766,-110.6398 22.8392,-71.7417 45,-49 55.1824,-38.5506 85.7017,-30.5367 115.2546,-24.971"/>
<polygon fill="#9a32cd" stroke="#9a32cd" points="17.0616,-134.527 21.0359,-144.3482 24.0536,-134.1922 17.0616,-134.527"/>
<text text-anchor="middle" x="69" y="-96" font-family="Helvetica,sans-Serif" font-size="10.00" fill="#000000"> smooth_ri</text>
<text text-anchor="middle" x="69" y="-85" font-family="Helvetica,sans-Serif" font-size="10.00" fill="#000000">use_pp81</text>
<text text-anchor="middle" x="69" y="-74" font-family="Helvetica,sans-Serif" font-size="10.00" fill="#000000">use_lmd94</text>
</g>
<!-- Node3 -->
<g id="node3" class="node">
<title>Node3</title>
<g id="a_node3"><a xlink:title=" ">
<polygon fill="#ffffff" stroke="#bfbfbf" points="62,-144.5 62,-163.5 136,-163.5 136,-144.5 62,-144.5"/>
<text text-anchor="middle" x="99" y="-151.5" font-family="Helvetica,sans-Serif" font-size="10.00" fill="#000000">character(10)</text>
</a>
</g>
</g>
<!-- Node3&#45;&gt;Node1 -->
<g id="edge2" class="edge">
<title>Node3&#45;&gt;Node1</title>
<path fill="none" stroke="#9a32cd" stroke-dasharray="5,2" d="M97.6843,-134.0861C97.2119,-111.356 99.6866,-74.0886 118,-49 123.5507,-41.3957 131.3582,-35.354 139.5933,-30.6172"/>
<polygon fill="#9a32cd" stroke="#9a32cd" points="94.194,-134.3903 98.114,-144.2332 101.1877,-134.094 94.194,-134.3903"/>
<text text-anchor="middle" x="147.5" y="-85" font-family="Helvetica,sans-Serif" font-size="10.00" fill="#000000"> mix_scheme</text>
</g>
<!-- Node4 -->
<g id="node4" class="node">
<title>Node4</title>
<g id="a_node4"><a xlink:title=" ">
<polygon fill="#ffffff" stroke="#bfbfbf" points="154.5,-144.5 154.5,-163.5 207.5,-163.5 207.5,-144.5 154.5,-144.5"/>
<text text-anchor="middle" x="181" y="-151.5" font-family="Helvetica,sans-Serif" font-size="10.00" fill="#000000">diag_ctrl</text>
</a>
</g>
</g>
<!-- Node4&#45;&gt;Node1 -->
<g id="edge3" class="edge">
<title>Node4&#45;&gt;Node1</title>
<path fill="none" stroke="#9a32cd" stroke-dasharray="5,2" d="M181,-134.375C181,-106.5142 181,-56.0779 181,-30.8033"/>
<polygon fill="#9a32cd" stroke="#9a32cd" points="177.5001,-134.4803 181,-144.4803 184.5001,-134.4804 177.5001,-134.4803"/>
<text text-anchor="middle" x="192" y="-85" font-family="Helvetica,sans-Serif" font-size="10.00" fill="#000000"> diag</text>
</g>
<!-- Node5 -->
<g id="node5" class="node">
<title>Node5</title>
<g id="a_node5"><a xlink:title=" ">
<polygon fill="#ffffff" stroke="#bfbfbf" points="226,-144.5 226,-163.5 272,-163.5 272,-144.5 226,-144.5"/>
<text text-anchor="middle" x="249" y="-151.5" font-family="Helvetica,sans-Serif" font-size="10.00" fill="#000000">integer</text>
</a>
</g>
</g>
<!-- Node5&#45;&gt;Node1 -->
<g id="edge4" class="edge">
<title>Node5&#45;&gt;Node1</title>
<path fill="none" stroke="#9a32cd" stroke-dasharray="5,2" d="M241.3926,-134.7859C229.5986,-105.025 208.1295,-50.9715 207,-49 203.3403,-42.612 198.5724,-36.1029 194.1206,-30.5421"/>
<polygon fill="#9a32cd" stroke="#9a32cd" points="238.1748,-136.1662 245.1116,-144.1744 244.6828,-133.5882 238.1748,-136.1662"/>
<text text-anchor="middle" x="277.5" y="-112.5" font-family="Helvetica,sans-Serif" font-size="10.00" fill="#000000"> id_ri_grad_smooth</text>
<text text-anchor="middle" x="277.5" y="-101.5" font-family="Helvetica,sans-Serif" font-size="10.00" fill="#000000">id_ri_grad</text>
<text text-anchor="middle" x="277.5" y="-90.5" font-family="Helvetica,sans-Serif" font-size="10.00" fill="#000000">id_s2</text>
<text text-anchor="middle" x="277.5" y="-79.5" font-family="Helvetica,sans-Serif" font-size="10.00" fill="#000000">id_n2</text>
<text text-anchor="middle" x="277.5" y="-68.5" font-family="Helvetica,sans-Serif" font-size="10.00" fill="#000000">id_kd</text>
<text text-anchor="middle" x="277.5" y="-57.5" font-family="Helvetica,sans-Serif" font-size="10.00" fill="#000000">id_kv</text>
</g>
<!-- Node6 -->
<g id="node6" class="node">
<title>Node6</title>
<g id="a_node6"><a xlink:title=" ">
<polygon fill="#ffffff" stroke="#bfbfbf" points="327,-144.5 327,-163.5 359,-163.5 359,-144.5 327,-144.5"/>
<text text-anchor="middle" x="343" y="-151.5" font-family="Helvetica,sans-Serif" font-size="10.00" fill="#000000">real</text>
</a>
</g>
</g>
<!-- Node6&#45;&gt;Node1 -->
<g id="edge5" class="edge">
<title>Node6&#45;&gt;Node1</title>
<path fill="none" stroke="#9a32cd" stroke-dasharray="5,2" d="M344.6893,-134.164C345.5339,-110.6283 343.0896,-71.7246 321,-49 310.3304,-38.0238 277.8152,-29.8814 246.8043,-24.3741"/>
<polygon fill="#9a32cd" stroke="#9a32cd" points="341.1837,-134.1545 344.0821,-144.3451 348.1713,-134.5712 341.1837,-134.1545"/>
<text text-anchor="middle" x="377.5" y="-118" font-family="Helvetica,sans-Serif" font-size="10.00" fill="#000000"> kpp_exp</text>
<text text-anchor="middle" x="377.5" y="-107" font-family="Helvetica,sans-Serif" font-size="10.00" fill="#000000">ri_grad_smooth</text>
<text text-anchor="middle" x="377.5" y="-96" font-family="Helvetica,sans-Serif" font-size="10.00" fill="#000000">s2</text>
<text text-anchor="middle" x="377.5" y="-85" font-family="Helvetica,sans-Serif" font-size="10.00" fill="#000000">n2</text>
<text text-anchor="middle" x="377.5" y="-74" font-family="Helvetica,sans-Serif" font-size="10.00" fill="#000000">ri_zero</text>
<text text-anchor="middle" x="377.5" y="-63" font-family="Helvetica,sans-Serif" font-size="10.00" fill="#000000">ri_grad</text>
<text text-anchor="middle" x="377.5" y="-52" font-family="Helvetica,sans-Serif" font-size="10.00" fill="#000000">nu_zero</text>
</g>
</g>
</svg>
