<?xml version="1.0" encoding="UTF-8" standalone="no"?>
<!DOCTYPE svg PUBLIC "-//W3C//DTD SVG 1.1//EN"
 "http://www.w3.org/Graphics/SVG/1.1/DTD/svg11.dtd">
<!-- Generated by graphviz version 2.40.1 (20161225.0304)
 -->
<!-- Title: mom_tidal_mixing::tidal_mixing_cs Pages: 1 -->
<svg width="603pt" height="707pt"
 viewBox="0.00 0.00 603.00 706.82" xmlns="http://www.w3.org/2000/svg" xmlns:xlink="http://www.w3.org/1999/xlink">
<g id="graph0" class="graph" transform="scale(1 1) rotate(0) translate(4 702.8231)">
<title>mom_tidal_mixing::tidal_mixing_cs</title>
<polygon fill="#ffffff" stroke="transparent" points="-4,4 -4,-702.8231 599,-702.8231 599,4 -4,4"/>
<!-- Node1 -->
<g id="node1" class="node">
<title>Node1</title>
<g id="a_node1"><a xlink:title="Control structure with parameters for the tidal mixing module.">
<polygon fill="#bfbfbf" stroke="#000000" points="470,-319.8231 470,-349.8231 595,-349.8231 595,-319.8231 470,-319.8231"/>
<text text-anchor="start" x="478" y="-337.8231" font-family="Helvetica,sans-Serif" font-size="10.00" fill="#000000">mom_tidal_mixing::tidal</text>
<text text-anchor="middle" x="532.5" y="-326.8231" font-family="Helvetica,sans-Serif" font-size="10.00" fill="#000000">_mixing_cs</text>
</a>
</g>
</g>
<!-- Node2 -->
<g id="node2" class="node">
<title>Node2</title>
<g id="a_node2"><a xlink:title=" ">
<polygon fill="#ffffff" stroke="#bfbfbf" points="212.5,-611.3231 212.5,-630.3231 259.5,-630.3231 259.5,-611.3231 212.5,-611.3231"/>
<text text-anchor="middle" x="236" y="-618.3231" font-family="Helvetica,sans-Serif" font-size="10.00" fill="#000000">logical</text>
</a>
</g>
</g>
<!-- Node2&#45;&gt;Node1 -->
<g id="edge1" class="edge">
<title>Node2&#45;&gt;Node1</title>
<path fill="none" stroke="#9a32cd" stroke-dasharray="5,2" d="M269.4763,-627.8041C315.9585,-635.4245 400.1645,-641.4452 452,-598.8231 491.8799,-566.0316 521.6623,-401.3715 530.0875,-350.0927"/>
<polygon fill="#9a32cd" stroke="#9a32cd" points="270.0628,-624.3536 259.6076,-626.068 268.85,-631.2478 270.0628,-624.3536"/>
<text text-anchor="middle" x="388.5" y="-690.8231" font-family="Helvetica,sans-Serif" font-size="10.00" fill="#000000"> int_tide_dissipation</text>
<text text-anchor="middle" x="388.5" y="-679.8231" font-family="Helvetica,sans-Serif" font-size="10.00" fill="#000000">answers_2018</text>
<text text-anchor="middle" x="388.5" y="-668.8231" font-family="Helvetica,sans-Serif" font-size="10.00" fill="#000000">lee_wave_dissipation</text>
<text text-anchor="middle" x="388.5" y="-657.8231" font-family="Helvetica,sans-Serif" font-size="10.00" fill="#000000">use_cvmix_tidal</text>
<text text-anchor="middle" x="388.5" y="-646.8231" font-family="Helvetica,sans-Serif" font-size="10.00" fill="#000000">lowmode_itidal_dissipation</text>
<text text-anchor="middle" x="388.5" y="-635.8231" font-family="Helvetica,sans-Serif" font-size="10.00" fill="#000000">debug</text>
</g>
<!-- Node3 -->
<g id="node3" class="node">
<title>Node3</title>
<g id="a_node3"><a xlink:title=" ">
<polygon fill="#ffffff" stroke="#bfbfbf" points="194.5,-573.3231 194.5,-592.3231 277.5,-592.3231 277.5,-573.3231 194.5,-573.3231"/>
<text text-anchor="middle" x="236" y="-580.3231" font-family="Helvetica,sans-Serif" font-size="10.00" fill="#000000">remapping_cs</text>
</a>
</g>
</g>
<!-- Node3&#45;&gt;Node1 -->
<g id="edge2" class="edge">
<title>Node3&#45;&gt;Node1</title>
<path fill="none" stroke="#9a32cd" stroke-dasharray="5,2" d="M287.6561,-587.8261C335.49,-589.5935 405.9771,-584.5392 452,-546.8231 514.7283,-495.4168 528.6288,-389.4679 531.6657,-350.0426"/>
<polygon fill="#9a32cd" stroke="#9a32cd" points="287.6681,-584.3227 277.5111,-587.337 287.331,-591.3146 287.6681,-584.3227"/>
<text text-anchor="middle" x="388.5" y="-589.8231" font-family="Helvetica,sans-Serif" font-size="10.00" fill="#000000"> remap_cs</text>
</g>
<!-- Node4 -->
<g id="node4" class="node">
<title>Node4</title>
<g id="a_node4"><a xlink:title=" ">
<polygon fill="#ffffff" stroke="#bfbfbf" points="182,-535.3231 182,-554.3231 290,-554.3231 290,-535.3231 182,-535.3231"/>
<text text-anchor="middle" x="236" y="-542.3231" font-family="Helvetica,sans-Serif" font-size="10.00" fill="#000000">character(len=200)</text>
</a>
</g>
</g>
<!-- Node4&#45;&gt;Node1 -->
<g id="edge3" class="edge">
<title>Node4&#45;&gt;Node1</title>
<path fill="none" stroke="#9a32cd" stroke-dasharray="5,2" d="M300.2163,-537.277C346.7377,-528.9543 408.7955,-511.6302 452,-475.8231 493.8867,-441.1082 518.3703,-378.5961 527.884,-349.9308"/>
<polygon fill="#9a32cd" stroke="#9a32cd" points="299.515,-533.8458 290.2403,-538.9674 300.6845,-540.7475 299.515,-533.8458"/>
<text text-anchor="middle" x="388.5" y="-534.8231" font-family="Helvetica,sans-Serif" font-size="10.00" fill="#000000"> inputdir</text>
</g>
<!-- Node5 -->
<g id="node5" class="node">
<title>Node5</title>
<g id="a_node5"><a xlink:title=" ">
<polygon fill="#ffffff" stroke="#bfbfbf" points="165,-485.8231 165,-515.8231 307,-515.8231 307,-485.8231 165,-485.8231"/>
<text text-anchor="start" x="173" y="-503.8231" font-family="Helvetica,sans-Serif" font-size="10.00" fill="#000000">type(cvmix_global_params</text>
<text text-anchor="middle" x="236" y="-492.8231" font-family="Helvetica,sans-Serif" font-size="10.00" fill="#000000">_type)</text>
</a>
</g>
</g>
<!-- Node5&#45;&gt;Node1 -->
<g id="edge4" class="edge">
<title>Node5&#45;&gt;Node1</title>
<path fill="none" stroke="#9a32cd" stroke-dasharray="5,2" d="M283.8443,-481.7142C291.6697,-478.2738 299.6254,-474.5807 307,-470.8231 383.9895,-431.5949 470.21,-376.1616 510.0676,-349.8327"/>
<polygon fill="#9a32cd" stroke="#9a32cd" points="282.2139,-478.6054 274.4114,-485.7727 284.9805,-485.0355 282.2139,-478.6054"/>
<text text-anchor="middle" x="388.5" y="-463.8231" font-family="Helvetica,sans-Serif" font-size="10.00" fill="#000000"> cvmix_glb_params</text>
</g>
<!-- Node6 -->
<g id="node6" class="node">
<title>Node6</title>
<g id="a_node6"><a xlink:href="structmom__tidal__mixing_1_1tidal__mixing__diags.html" target="_top" xlink:title="Containers for tidal mixing diagnostics.">
<polygon fill="#ffffff" stroke="#000000" points="173.5,-267.8231 173.5,-297.8231 298.5,-297.8231 298.5,-267.8231 173.5,-267.8231"/>
<text text-anchor="start" x="181.5" y="-285.8231" font-family="Helvetica,sans-Serif" font-size="10.00" fill="#000000">mom_tidal_mixing::tidal</text>
<text text-anchor="middle" x="236" y="-274.8231" font-family="Helvetica,sans-Serif" font-size="10.00" fill="#000000">_mixing_diags</text>
</a>
</g>
</g>
<!-- Node6&#45;&gt;Node1 -->
<g id="edge5" class="edge">
<title>Node6&#45;&gt;Node1</title>
<path fill="none" stroke="#9a32cd" stroke-dasharray="5,2" d="M309.0441,-288.7136C351.1486,-292.9138 404.906,-299.6506 452,-309.8231 464.1586,-312.4494 477.1178,-316.0878 489.0056,-319.7767"/>
<polygon fill="#9a32cd" stroke="#9a32cd" points="309.1688,-285.2093 298.8772,-287.7259 308.4919,-292.1765 309.1688,-285.2093"/>
<text text-anchor="middle" x="388.5" y="-312.8231" font-family="Helvetica,sans-Serif" font-size="10.00" fill="#000000"> dd</text>
</g>
<!-- Node7 -->
<g id="node7" class="node">
<title>Node7</title>
<g id="a_node7"><a xlink:title=" ">
<polygon fill="#ffffff" stroke="#bfbfbf" points="0,-251.3231 0,-270.3231 35,-270.3231 35,-251.3231 0,-251.3231"/>
<text text-anchor="middle" x="17.5" y="-258.3231" font-family="Helvetica,sans-Serif" font-size="10.00" fill="#000000">real</text>
</a>
</g>
</g>
<!-- Node7&#45;&gt;Node1 -->
<g id="edge9" class="edge">
<title>Node7&#45;&gt;Node1</title>
<path fill="none" stroke="#9a32cd" stroke-dasharray="5,2" d="M23.3812,-280.307C28.7048,-294.2312 38.0461,-312.0039 53,-320.8231 87.9711,-341.4478 347.8792,-338.7751 469.7561,-336.3303"/>
<polygon fill="#9a32cd" stroke="#9a32cd" points="26.616,-278.9496 20.0669,-270.6213 19.993,-281.2159 26.616,-278.9496"/>
<text text-anchor="middle" x="236" y="-461.8231" font-family="Helvetica,sans-Serif" font-size="10.00" fill="#000000"> kappa_itides</text>
<text text-anchor="middle" x="236" y="-450.8231" font-family="Helvetica,sans-Serif" font-size="10.00" fill="#000000">gamma_itides</text>
<text text-anchor="start" x="189" y="-439.8231" font-family="Helvetica,sans-Serif" font-size="10.00" fill="#000000">polzin_decay_scale</text>
<text text-anchor="middle" x="236" y="-428.8231" font-family="Helvetica,sans-Serif" font-size="10.00" fill="#000000">_factor</text>
<text text-anchor="middle" x="236" y="-417.8231" font-family="Helvetica,sans-Serif" font-size="10.00" fill="#000000">mu_itides</text>
<text text-anchor="middle" x="236" y="-406.8231" font-family="Helvetica,sans-Serif" font-size="10.00" fill="#000000">tidal_qe_3d_in</text>
<text text-anchor="middle" x="236" y="-395.8231" font-family="Helvetica,sans-Serif" font-size="10.00" fill="#000000">tidal_qe_2d</text>
<text text-anchor="middle" x="236" y="-384.8231" font-family="Helvetica,sans-Serif" font-size="10.00" fill="#000000">gamma_lee</text>
<text text-anchor="middle" x="236" y="-373.8231" font-family="Helvetica,sans-Serif" font-size="10.00" fill="#000000">nb</text>
<text text-anchor="middle" x="236" y="-362.8231" font-family="Helvetica,sans-Serif" font-size="10.00" fill="#000000">utide</text>
<text text-anchor="middle" x="236" y="-351.8231" font-family="Helvetica,sans-Serif" font-size="10.00" fill="#000000">h_src</text>
<text text-anchor="middle" x="236" y="-340.8231" font-family="Helvetica,sans-Serif" font-size="10.00" fill="#000000">...</text>
</g>
<!-- Node7&#45;&gt;Node6 -->
<g id="edge6" class="edge">
<title>Node7&#45;&gt;Node6</title>
<path fill="none" stroke="#9a32cd" stroke-dasharray="5,2" d="M21.2173,-241.1121C25.6037,-223.9779 34.7483,-200.1736 53,-188.8231 88.477,-166.7603 113.9844,-163.2232 147,-188.8231 172.3859,-208.5071 143.1445,-235.2808 165,-258.8231 168.1869,-262.256 171.8816,-265.198 175.8782,-267.7193"/>
<polygon fill="#9a32cd" stroke="#9a32cd" points="17.726,-240.6895 18.974,-251.2105 24.5594,-242.2075 17.726,-240.6895"/>
<text text-anchor="middle" x="100" y="-312.8231" font-family="Helvetica,sans-Serif" font-size="10.00" fill="#000000"> tidal_qe_md</text>
<text text-anchor="middle" x="100" y="-301.8231" font-family="Helvetica,sans-Serif" font-size="10.00" fill="#000000">polzin_decay_scale</text>
<text text-anchor="middle" x="100" y="-290.8231" font-family="Helvetica,sans-Serif" font-size="10.00" fill="#000000">n2_meanz</text>
<text text-anchor="middle" x="100" y="-279.8231" font-family="Helvetica,sans-Serif" font-size="10.00" fill="#000000">kd_itidal</text>
<text text-anchor="middle" x="100" y="-268.8231" font-family="Helvetica,sans-Serif" font-size="10.00" fill="#000000">kd_lowmode_work</text>
<text text-anchor="middle" x="100" y="-257.8231" font-family="Helvetica,sans-Serif" font-size="10.00" fill="#000000">fl_itidal</text>
<text text-anchor="start" x="53" y="-246.8231" font-family="Helvetica,sans-Serif" font-size="10.00" fill="#000000">schmittner_coeff</text>
<text text-anchor="middle" x="100" y="-235.8231" font-family="Helvetica,sans-Serif" font-size="10.00" fill="#000000">_3d</text>
<text text-anchor="middle" x="100" y="-224.8231" font-family="Helvetica,sans-Serif" font-size="10.00" fill="#000000">n2_int</text>
<text text-anchor="middle" x="100" y="-213.8231" font-family="Helvetica,sans-Serif" font-size="10.00" fill="#000000">kd_itidal_work</text>
<text text-anchor="middle" x="100" y="-202.8231" font-family="Helvetica,sans-Serif" font-size="10.00" fill="#000000">kd_niku</text>
<text text-anchor="middle" x="100" y="-191.8231" font-family="Helvetica,sans-Serif" font-size="10.00" fill="#000000">...</text>
</g>
<!-- Node8 -->
<g id="node8" class="node">
<title>Node8</title>
<g id="a_node8"><a xlink:title=" ">
<polygon fill="#ffffff" stroke="#bfbfbf" points="169,-218.8231 169,-248.8231 303,-248.8231 303,-218.8231 169,-218.8231"/>
<text text-anchor="start" x="177" y="-236.8231" font-family="Helvetica,sans-Serif" font-size="10.00" fill="#000000">type(cvmix_tidal_params</text>
<text text-anchor="middle" x="236" y="-225.8231" font-family="Helvetica,sans-Serif" font-size="10.00" fill="#000000">_type)</text>
</a>
</g>
</g>
<!-- Node8&#45;&gt;Node1 -->
<g id="edge7" class="edge">
<title>Node8&#45;&gt;Node1</title>
<path fill="none" stroke="#9a32cd" stroke-dasharray="5,2" d="M313.4458,-240.533C355.7406,-246.2305 408.2548,-256.6923 452,-275.8231 476.7661,-286.6539 501.2412,-306.1936 516.5834,-319.8064"/>
<polygon fill="#9a32cd" stroke="#9a32cd" points="313.845,-237.0556 303.4805,-239.2525 312.9529,-243.9985 313.845,-237.0556"/>
<text text-anchor="middle" x="388.5" y="-278.8231" font-family="Helvetica,sans-Serif" font-size="10.00" fill="#000000"> cvmix_tidal_params</text>
</g>
<!-- Node9 -->
<g id="node9" class="node">
<title>Node9</title>
<g id="a_node9"><a xlink:title=" ">
<polygon fill="#ffffff" stroke="#bfbfbf" points="207.5,-180.3231 207.5,-199.3231 264.5,-199.3231 264.5,-180.3231 207.5,-180.3231"/>
<text text-anchor="middle" x="236" y="-187.3231" font-family="Helvetica,sans-Serif" font-size="10.00" fill="#000000">diag_ctrl</text>
</a>
</g>
</g>
<!-- Node9&#45;&gt;Node1 -->
<g id="edge8" class="edge">
<title>Node9&#45;&gt;Node1</title>
<path fill="none" stroke="#9a32cd" stroke-dasharray="5,2" d="M274.6384,-188.0962C320.325,-187.8374 397.0818,-193.1557 452,-226.8231 488.8839,-249.4347 514.4987,-295.7665 525.8698,-319.727"/>
<polygon fill="#9a32cd" stroke="#9a32cd" points="274.4992,-184.5978 264.5528,-188.2474 274.6042,-191.597 274.4992,-184.5978"/>
<text text-anchor="middle" x="388.5" y="-229.8231" font-family="Helvetica,sans-Serif" font-size="10.00" fill="#000000"> diag</text>
</g>
<!-- Node10 -->
<g id="node10" class="node">
<title>Node10</title>
<g id="a_node10"><a xlink:title=" ">
<polygon fill="#ffffff" stroke="#bfbfbf" points="211,-8.3231 211,-27.3231 261,-27.3231 261,-8.3231 211,-8.3231"/>
<text text-anchor="middle" x="236" y="-15.3231" font-family="Helvetica,sans-Serif" font-size="10.00" fill="#000000">integer</text>
</a>
</g>
</g>
<!-- Node10&#45;&gt;Node1 -->
<g id="edge10" class="edge">
<title>Node10&#45;&gt;Node1</title>
<path fill="none" stroke="#9a32cd" stroke-dasharray="5,2" d="M270.9877,-8.7968C317.8053,1.0217 400.8525,10.2123 452,-31.8231 497.9397,-69.5786 524.1023,-263.6164 530.7813,-319.6533"/>
<polygon fill="#9a32cd" stroke="#9a32cd" points="270.0186,-5.4267 261.0165,-11.0134 271.5377,-12.2599 270.0186,-5.4267"/>
<text text-anchor="middle" x="388.5" y="-177.8231" font-family="Helvetica,sans-Serif" font-size="10.00" fill="#000000"> id_n2_int</text>
<text text-anchor="start" x="346" y="-166.8231" font-family="Helvetica,sans-Serif" font-size="10.00" fill="#000000">id_polzin_decay</text>
<text text-anchor="middle" x="388.5" y="-155.8231" font-family="Helvetica,sans-Serif" font-size="10.00" fill="#000000">_scale_scaled</text>
<text text-anchor="middle" x="388.5" y="-144.8231" font-family="Helvetica,sans-Serif" font-size="10.00" fill="#000000">id_kd_lowmode</text>
<text text-anchor="middle" x="388.5" y="-133.8231" font-family="Helvetica,sans-Serif" font-size="10.00" fill="#000000">id_vert_dep</text>
<text text-anchor="start" x="346" y="-122.8231" font-family="Helvetica,sans-Serif" font-size="10.00" fill="#000000">id_polzin_decay</text>
<text text-anchor="middle" x="388.5" y="-111.8231" font-family="Helvetica,sans-Serif" font-size="10.00" fill="#000000">_scale</text>
<text text-anchor="start" x="346" y="-100.8231" font-family="Helvetica,sans-Serif" font-size="10.00" fill="#000000">id_schmittner</text>
<text text-anchor="middle" x="388.5" y="-89.8231" font-family="Helvetica,sans-Serif" font-size="10.00" fill="#000000">_coeff</text>
<text text-anchor="middle" x="388.5" y="-78.8231" font-family="Helvetica,sans-Serif" font-size="10.00" fill="#000000">id_nb</text>
<text text-anchor="middle" x="388.5" y="-67.8231" font-family="Helvetica,sans-Serif" font-size="10.00" fill="#000000">id_kd_niku_work</text>
<text text-anchor="middle" x="388.5" y="-56.8231" font-family="Helvetica,sans-Serif" font-size="10.00" fill="#000000">id_simmons_coeff</text>
<text text-anchor="middle" x="388.5" y="-45.8231" font-family="Helvetica,sans-Serif" font-size="10.00" fill="#000000">id_tke_itidal</text>
<text text-anchor="middle" x="388.5" y="-34.8231" font-family="Helvetica,sans-Serif" font-size="10.00" fill="#000000">...</text>
</g>
</g>
</svg>
