<?xml version="1.0" encoding="UTF-8" standalone="no"?>
<!DOCTYPE svg PUBLIC "-//W3C//DTD SVG 1.1//EN"
 "http://www.w3.org/Graphics/SVG/1.1/DTD/svg11.dtd">
<!-- Generated by graphviz version 2.40.1 (20161225.0304)
 -->
<!-- Title: mom_ale_sponge::p2d Pages: 1 -->
<svg width="132pt" height="117pt"
 viewBox="0.00 0.00 131.50 117.00" xmlns="http://www.w3.org/2000/svg" xmlns:xlink="http://www.w3.org/1999/xlink">
<g id="graph0" class="graph" transform="scale(1 1) rotate(0) translate(4 113)">
<title>mom_ale_sponge::p2d</title>
<polygon fill="#ffffff" stroke="transparent" points="-4,4 -4,-113 127.5,-113 127.5,4 -4,4"/>
<!-- Node1 -->
<g id="node1" class="node">
<title>Node1</title>
<g id="a_node1"><a xlink:title="A structure for creating arrays of pointers to 2D arrays with extra gridding information.">
<polygon fill="#bfbfbf" stroke="#000000" points="0,-.5 0,-19.5 115,-19.5 115,-.5 0,-.5"/>
<text text-anchor="middle" x="57.5" y="-7.5" font-family="Helvetica,sans-Serif" font-size="10.00" fill="#000000">mom_ale_sponge::p2d</text>
</a>
</g>
</g>
<!-- Node2 -->
<g id="node2" class="node">
<title>Node2</title>
<g id="a_node2"><a xlink:title=" ">
<polygon fill="#ffffff" stroke="#bfbfbf" points="11.5,-89.5 11.5,-108.5 43.5,-108.5 43.5,-89.5 11.5,-89.5"/>
<text text-anchor="middle" x="27.5" y="-96.5" font-family="Helvetica,sans-Serif" font-size="10.00" fill="#000000">real</text>
</a>
</g>
</g>
<!-- Node2&#45;&gt;Node1 -->
<g id="edge1" class="edge">
<title>Node2&#45;&gt;Node1</title>
<path fill="none" stroke="#9a32cd" stroke-dasharray="5,2" d="M24.0911,-79.2958C22.8382,-66.9338 22.8799,-50.9426 28.5,-38 31.6778,-30.6819 37.7761,-24.329 43.5638,-19.5329"/>
<polygon fill="#9a32cd" stroke="#9a32cd" points="20.6556,-80.0055 25.4826,-89.4368 27.5906,-79.0538 20.6556,-80.0055"/>
<text text-anchor="middle" x="47" y="-63" font-family="Helvetica,sans-Serif" font-size="10.00" fill="#000000"> h</text>
<text text-anchor="middle" x="47" y="-52" font-family="Helvetica,sans-Serif" font-size="10.00" fill="#000000">p</text>
<text text-anchor="middle" x="47" y="-41" font-family="Helvetica,sans-Serif" font-size="10.00" fill="#000000">mask_in</text>
</g>
<!-- Node3 -->
<g id="node3" class="node">
<title>Node3</title>
<g id="a_node3"><a xlink:title=" ">
<polygon fill="#ffffff" stroke="#bfbfbf" points="64.5,-89.5 64.5,-108.5 110.5,-108.5 110.5,-89.5 64.5,-89.5"/>
<text text-anchor="middle" x="87.5" y="-96.5" font-family="Helvetica,sans-Serif" font-size="10.00" fill="#000000">integer</text>
</a>
</g>
</g>
<!-- Node3&#45;&gt;Node1 -->
<g id="edge2" class="edge">
<title>Node3&#45;&gt;Node1</title>
<path fill="none" stroke="#9a32cd" stroke-dasharray="5,2" d="M81.0141,-79.7584C74.7828,-61.2723 65.6206,-34.0912 60.7784,-19.7259"/>
<polygon fill="#9a32cd" stroke="#9a32cd" points="77.7786,-81.1173 84.2895,-89.4754 84.4119,-78.8813 77.7786,-81.1173"/>
<text text-anchor="middle" x="100.5" y="-63" font-family="Helvetica,sans-Serif" font-size="10.00" fill="#000000"> id</text>
<text text-anchor="middle" x="100.5" y="-52" font-family="Helvetica,sans-Serif" font-size="10.00" fill="#000000">num_tlevs</text>
<text text-anchor="middle" x="100.5" y="-41" font-family="Helvetica,sans-Serif" font-size="10.00" fill="#000000">nz_data</text>
</g>
</g>
</svg>
