<?xml version="1.0" encoding="UTF-8" standalone="no"?>
<!DOCTYPE svg PUBLIC "-//W3C//DTD SVG 1.1//EN"
 "http://www.w3.org/Graphics/SVG/1.1/DTD/svg11.dtd">
<!-- Generated by graphviz version 2.40.1 (20161225.0304)
 -->
<!-- Title: idealized_hurricane::idealized_hurricane_cs Pages: 1 -->
<svg width="192pt" height="216pt"
 viewBox="0.00 0.00 192.00 216.00" xmlns="http://www.w3.org/2000/svg" xmlns:xlink="http://www.w3.org/1999/xlink">
<g id="graph0" class="graph" transform="scale(1 1) rotate(0) translate(4 212)">
<title>idealized_hurricane::idealized_hurricane_cs</title>
<polygon fill="#ffffff" stroke="transparent" points="-4,4 -4,-212 188,-212 188,4 -4,4"/>
<!-- Node1 -->
<g id="node1" class="node">
<title>Node1</title>
<g id="a_node1"><a xlink:title="Container for parameters describing idealized wind structure.">
<polygon fill="#bfbfbf" stroke="#000000" points="0,-.5 0,-30.5 122,-30.5 122,-.5 0,-.5"/>
<text text-anchor="start" x="8" y="-18.5" font-family="Helvetica,sans-Serif" font-size="10.00" fill="#000000">idealized_hurricane</text>
<text text-anchor="middle" x="61" y="-7.5" font-family="Helvetica,sans-Serif" font-size="10.00" fill="#000000">::idealized_hurricane_cs</text>
</a>
</g>
</g>
<!-- Node2 -->
<g id="node2" class="node">
<title>Node2</title>
<g id="a_node2"><a xlink:title=" ">
<polygon fill="#ffffff" stroke="#bfbfbf" points="2,-188.5 2,-207.5 46,-207.5 46,-188.5 2,-188.5"/>
<text text-anchor="middle" x="24" y="-195.5" font-family="Helvetica,sans-Serif" font-size="10.00" fill="#000000">logical</text>
</a>
</g>
</g>
<!-- Node2&#45;&gt;Node1 -->
<g id="edge1" class="edge">
<title>Node2&#45;&gt;Node1</title>
<path fill="none" stroke="#9a32cd" stroke-dasharray="5,2" d="M19.4327,-178.5442C13.5261,-149.0885 6.0823,-92.0501 25,-49 28.0912,-41.9655 33.4583,-35.7367 39.1191,-30.6165"/>
<polygon fill="#9a32cd" stroke="#9a32cd" points="16.0286,-179.3618 21.5631,-188.3962 22.8704,-177.8823 16.0286,-179.3618"/>
<text text-anchor="middle" x="50.5" y="-118" font-family="Helvetica,sans-Serif" font-size="10.00" fill="#000000"> br_bench</text>
<text text-anchor="middle" x="50.5" y="-107" font-family="Helvetica,sans-Serif" font-size="10.00" fill="#000000">relative_tau</text>
<text text-anchor="middle" x="50.5" y="-96" font-family="Helvetica,sans-Serif" font-size="10.00" fill="#000000">scm_mode</text>
</g>
<!-- Node3 -->
<g id="node3" class="node">
<title>Node3</title>
<g id="a_node3"><a xlink:title=" ">
<polygon fill="#ffffff" stroke="#bfbfbf" points="82,-188.5 82,-207.5 114,-207.5 114,-188.5 82,-188.5"/>
<text text-anchor="middle" x="98" y="-195.5" font-family="Helvetica,sans-Serif" font-size="10.00" fill="#000000">real</text>
</a>
</g>
</g>
<!-- Node3&#45;&gt;Node1 -->
<g id="edge2" class="edge">
<title>Node3&#45;&gt;Node1</title>
<path fill="none" stroke="#9a32cd" stroke-dasharray="5,2" d="M96.8222,-178.393C94.7071,-149.5493 89.1856,-94.2082 76,-49 74.1801,-42.7602 71.4291,-36.1745 68.7779,-30.5092"/>
<polygon fill="#9a32cd" stroke="#9a32cd" points="93.3315,-178.6503 97.4944,-188.393 100.3157,-178.1808 93.3315,-178.6503"/>
<text text-anchor="middle" x="140" y="-162" font-family="Helvetica,sans-Serif" font-size="10.00" fill="#000000"> hurr_translation_dir</text>
<text text-anchor="middle" x="140" y="-151" font-family="Helvetica,sans-Serif" font-size="10.00" fill="#000000">hurr_translation_spd</text>
<text text-anchor="middle" x="140" y="-140" font-family="Helvetica,sans-Serif" font-size="10.00" fill="#000000">dy_from_center</text>
<text text-anchor="middle" x="140" y="-129" font-family="Helvetica,sans-Serif" font-size="10.00" fill="#000000">holland_axbxdp</text>
<text text-anchor="middle" x="140" y="-118" font-family="Helvetica,sans-Serif" font-size="10.00" fill="#000000">pressure_central</text>
<text text-anchor="middle" x="140" y="-107" font-family="Helvetica,sans-Serif" font-size="10.00" fill="#000000">rho_a</text>
<text text-anchor="middle" x="140" y="-96" font-family="Helvetica,sans-Serif" font-size="10.00" fill="#000000">hurr_cen_y0</text>
<text text-anchor="middle" x="140" y="-85" font-family="Helvetica,sans-Serif" font-size="10.00" fill="#000000">hurr_cen_x0</text>
<text text-anchor="middle" x="140" y="-74" font-family="Helvetica,sans-Serif" font-size="10.00" fill="#000000">pressure_ambient</text>
<text text-anchor="middle" x="140" y="-63" font-family="Helvetica,sans-Serif" font-size="10.00" fill="#000000">pi</text>
<text text-anchor="middle" x="140" y="-52" font-family="Helvetica,sans-Serif" font-size="10.00" fill="#000000">...</text>
</g>
</g>
</svg>
