<?xml version="1.0" encoding="UTF-8" standalone="no"?>
<!DOCTYPE svg PUBLIC "-//W3C//DTD SVG 1.1//EN"
 "http://www.w3.org/Graphics/SVG/1.1/DTD/svg11.dtd">
<!-- Generated by graphviz version 2.40.1 (20161225.0304)
 -->
<!-- Title: regrid_interp::interp_cs_type Pages: 1 -->
<svg width="261pt" height="106pt"
 viewBox="0.00 0.00 260.50 106.00" xmlns="http://www.w3.org/2000/svg" xmlns:xlink="http://www.w3.org/1999/xlink">
<g id="graph0" class="graph" transform="scale(1 1) rotate(0) translate(4 102)">
<title>regrid_interp::interp_cs_type</title>
<polygon fill="#ffffff" stroke="transparent" points="-4,4 -4,-102 256.5,-102 256.5,4 -4,4"/>
<!-- Node1 -->
<g id="node1" class="node">
<title>Node1</title>
<g id="a_node1"><a xlink:title="Control structure for regrid_interp module.">
<polygon fill="#bfbfbf" stroke="#000000" points="38,-.5 38,-30.5 147,-30.5 147,-.5 38,-.5"/>
<text text-anchor="start" x="46" y="-18.5" font-family="Helvetica,sans-Serif" font-size="10.00" fill="#000000">regrid_interp::interp</text>
<text text-anchor="middle" x="92.5" y="-7.5" font-family="Helvetica,sans-Serif" font-size="10.00" fill="#000000">_cs_type</text>
</a>
</g>
</g>
<!-- Node2 -->
<g id="node2" class="node">
<title>Node2</title>
<g id="a_node2"><a xlink:title=" ">
<polygon fill="#ffffff" stroke="#bfbfbf" points="0,-78.5 0,-97.5 47,-97.5 47,-78.5 0,-78.5"/>
<text text-anchor="middle" x="23.5" y="-85.5" font-family="Helvetica,sans-Serif" font-size="10.00" fill="#000000">logical</text>
</a>
</g>
</g>
<!-- Node2&#45;&gt;Node1 -->
<g id="edge1" class="edge">
<title>Node2&#45;&gt;Node1</title>
<path fill="none" stroke="#9a32cd" stroke-dasharray="5,2" d="M20.0809,-68.0335C19.9493,-61.5266 20.9446,-54.5549 24.5,-49 29.4661,-41.2409 36.8007,-35.2203 44.837,-30.5676"/>
<polygon fill="#9a32cd" stroke="#9a32cd" points="16.6221,-68.6175 21.1132,-78.2133 23.5863,-67.9112 16.6221,-68.6175"/>
<text text-anchor="middle" x="82" y="-52" font-family="Helvetica,sans-Serif" font-size="10.00" fill="#000000"> boundary_extrapolation</text>
</g>
<!-- Node3 -->
<g id="node3" class="node">
<title>Node3</title>
<g id="a_node3"><a xlink:title=" ">
<polygon fill="#ffffff" stroke="#bfbfbf" points="136.5,-78.5 136.5,-97.5 186.5,-97.5 186.5,-78.5 136.5,-78.5"/>
<text text-anchor="middle" x="161.5" y="-85.5" font-family="Helvetica,sans-Serif" font-size="10.00" fill="#000000">integer</text>
</a>
</g>
</g>
<!-- Node3&#45;&gt;Node1 -->
<g id="edge2" class="edge">
<title>Node3&#45;&gt;Node1</title>
<path fill="none" stroke="#9a32cd" stroke-dasharray="5,2" d="M152.9648,-69.065C149.384,-62.3019 144.8095,-54.9023 139.5,-49 133.3346,-42.1464 125.5306,-35.8922 118.0619,-30.6919"/>
<polygon fill="#9a32cd" stroke="#9a32cd" points="149.9302,-70.8265 157.4702,-78.2696 156.2175,-67.7491 149.9302,-70.8265"/>
<text text-anchor="middle" x="200" y="-52" font-family="Helvetica,sans-Serif" font-size="10.00" fill="#000000"> interpolation_scheme</text>
</g>
</g>
</svg>
