<?xml version="1.0" encoding="UTF-8" standalone="no"?>
<!DOCTYPE svg PUBLIC "-//W3C//DTD SVG 1.1//EN"
 "http://www.w3.org/Graphics/SVG/1.1/DTD/svg11.dtd">
<!-- Generated by graphviz version 2.40.1 (20161225.0304)
 -->
<!-- Title: mom_ocean_model_mct::ocean_state_type Pages: 1 -->
<svg width="398pt" height="882pt"
 viewBox="0.00 0.00 398.00 881.91" xmlns="http://www.w3.org/2000/svg" xmlns:xlink="http://www.w3.org/1999/xlink">
<g id="graph0" class="graph" transform="scale(1 1) rotate(0) translate(4 877.9134)">
<title>mom_ocean_model_mct::ocean_state_type</title>
<polygon fill="#ffffff" stroke="transparent" points="-4,4 -4,-877.9134 394,-877.9134 394,4 -4,4"/>
<!-- Node1 -->
<g id="node1" class="node">
<title>Node1</title>
<g id="a_node1"><a xlink:title="The ocean_state_type contains all information about the state of the ocean, with a format that is pri...">
<polygon fill="#bfbfbf" stroke="#000000" points="267,-387.9134 267,-417.9134 390,-417.9134 390,-387.9134 267,-387.9134"/>
<text text-anchor="start" x="275" y="-405.9134" font-family="Helvetica,sans-Serif" font-size="10.00" fill="#000000">mom_ocean_model_mct</text>
<text text-anchor="middle" x="328.5" y="-394.9134" font-family="Helvetica,sans-Serif" font-size="10.00" fill="#000000">::ocean_state_type</text>
</a>
</g>
</g>
<!-- Node2 -->
<g id="node2" class="node">
<title>Node2</title>
<g id="a_node2"><a xlink:title=" ">
<polygon fill="#ffffff" stroke="#bfbfbf" points="42,-736.4134 42,-755.4134 86,-755.4134 86,-736.4134 42,-736.4134"/>
<text text-anchor="middle" x="64" y="-743.4134" font-family="Helvetica,sans-Serif" font-size="10.00" fill="#000000">logical</text>
</a>
</g>
</g>
<!-- Node2&#45;&gt;Node1 -->
<g id="edge1" class="edge">
<title>Node2&#45;&gt;Node1</title>
<path fill="none" stroke="#9a32cd" stroke-dasharray="5,2" d="M95.978,-751.0407C136.7945,-755.6408 207.1216,-756.7415 249,-718.9134 294.9681,-677.3912 320.4679,-475.6536 326.8787,-418.2062"/>
<polygon fill="#9a32cd" stroke="#9a32cd" points="96.388,-747.5647 86.028,-749.7832 95.5102,-754.5095 96.388,-747.5647"/>
<text text-anchor="middle" x="197.5" y="-865.9134" font-family="Helvetica,sans-Serif" font-size="10.00" fill="#000000"> use_waves</text>
<text text-anchor="middle" x="197.5" y="-854.9134" font-family="Helvetica,sans-Serif" font-size="10.00" fill="#000000">restore_temp</text>
<text text-anchor="middle" x="197.5" y="-843.9134" font-family="Helvetica,sans-Serif" font-size="10.00" fill="#000000">thermo_spans_coupling</text>
<text text-anchor="middle" x="197.5" y="-832.9134" font-family="Helvetica,sans-Serif" font-size="10.00" fill="#000000">offline_tracer_mode</text>
<text text-anchor="middle" x="197.5" y="-821.9134" font-family="Helvetica,sans-Serif" font-size="10.00" fill="#000000">restore_salinity</text>
<text text-anchor="middle" x="197.5" y="-810.9134" font-family="Helvetica,sans-Serif" font-size="10.00" fill="#000000">icebergs_alter_ocean</text>
<text text-anchor="middle" x="197.5" y="-799.9134" font-family="Helvetica,sans-Serif" font-size="10.00" fill="#000000">is_ocean_pe</text>
<text text-anchor="middle" x="197.5" y="-788.9134" font-family="Helvetica,sans-Serif" font-size="10.00" fill="#000000">diabatic_first</text>
<text text-anchor="middle" x="197.5" y="-777.9134" font-family="Helvetica,sans-Serif" font-size="10.00" fill="#000000">single_step_call</text>
<text text-anchor="middle" x="197.5" y="-766.9134" font-family="Helvetica,sans-Serif" font-size="10.00" fill="#000000">use_ice_shelf</text>
<text text-anchor="middle" x="197.5" y="-755.9134" font-family="Helvetica,sans-Serif" font-size="10.00" fill="#000000">...</text>
</g>
<!-- Node3 -->
<g id="node3" class="node">
<title>Node3</title>
<g id="a_node3"><a xlink:title=" ">
<polygon fill="#ffffff" stroke="#bfbfbf" points="21.5,-698.4134 21.5,-717.4134 106.5,-717.4134 106.5,-698.4134 21.5,-698.4134"/>
<text text-anchor="middle" x="64" y="-705.4134" font-family="Helvetica,sans-Serif" font-size="10.00" fill="#000000">unit_scale_type</text>
</a>
</g>
</g>
<!-- Node3&#45;&gt;Node1 -->
<g id="edge2" class="edge">
<title>Node3&#45;&gt;Node1</title>
<path fill="none" stroke="#9a32cd" stroke-dasharray="5,2" d="M117.0142,-706.4476C164.6002,-704.0406 229.8228,-697.6854 249,-680.9134 289.9036,-645.14 318.4821,-471.0445 326.3274,-418.1714"/>
<polygon fill="#9a32cd" stroke="#9a32cd" points="116.6775,-702.9594 106.8494,-706.9163 117,-709.9519 116.6775,-702.9594"/>
<text text-anchor="middle" x="197.5" y="-706.9134" font-family="Helvetica,sans-Serif" font-size="10.00" fill="#000000"> us</text>
</g>
<!-- Node4 -->
<g id="node4" class="node">
<title>Node4</title>
<g id="a_node4"><a xlink:title=" ">
<polygon fill="#ffffff" stroke="#bfbfbf" points="34.5,-660.4134 34.5,-679.4134 93.5,-679.4134 93.5,-660.4134 34.5,-660.4134"/>
<text text-anchor="middle" x="64" y="-667.4134" font-family="Helvetica,sans-Serif" font-size="10.00" fill="#000000">time_type</text>
</a>
</g>
</g>
<!-- Node4&#45;&gt;Node1 -->
<g id="edge3" class="edge">
<title>Node4&#45;&gt;Node1</title>
<path fill="none" stroke="#9a32cd" stroke-dasharray="5,2" d="M103.8687,-668.8903C151.5521,-666.8658 227.6267,-660.8401 249,-642.9134 284.9,-612.8025 316.2146,-465.9885 325.6225,-418.0715"/>
<polygon fill="#9a32cd" stroke="#9a32cd" points="103.7221,-665.3932 93.8638,-669.2744 103.9907,-672.3881 103.7221,-665.3932"/>
<text text-anchor="middle" x="197.5" y="-668.9134" font-family="Helvetica,sans-Serif" font-size="10.00" fill="#000000"> time</text>
</g>
<!-- Node5 -->
<g id="node5" class="node">
<title>Node5</title>
<g id="a_node5"><a xlink:title=" ">
<polygon fill="#ffffff" stroke="#bfbfbf" points="33,-622.4134 33,-641.4134 95,-641.4134 95,-622.4134 33,-622.4134"/>
<text text-anchor="middle" x="64" y="-629.4134" font-family="Helvetica,sans-Serif" font-size="10.00" fill="#000000">directories</text>
</a>
</g>
</g>
<!-- Node5&#45;&gt;Node1 -->
<g id="edge4" class="edge">
<title>Node5&#45;&gt;Node1</title>
<path fill="none" stroke="#9a32cd" stroke-dasharray="5,2" d="M105.2619,-630.8688C152.8627,-628.8622 227.3637,-623.0049 249,-605.9134 309.886,-557.8169 324.2387,-456.5761 327.5409,-418.1468"/>
<polygon fill="#9a32cd" stroke="#9a32cd" points="105.1088,-627.372 95.2497,-631.2512 105.376,-634.3669 105.1088,-627.372"/>
<text text-anchor="middle" x="197.5" y="-630.9134" font-family="Helvetica,sans-Serif" font-size="10.00" fill="#000000"> dirs</text>
</g>
<!-- Node6 -->
<g id="node6" class="node">
<title>Node6</title>
<g id="a_node6"><a xlink:title=" ">
<polygon fill="#ffffff" stroke="#bfbfbf" points="26.5,-584.4134 26.5,-603.4134 101.5,-603.4134 101.5,-584.4134 26.5,-584.4134"/>
<text text-anchor="middle" x="64" y="-591.4134" font-family="Helvetica,sans-Serif" font-size="10.00" fill="#000000">mech_forcing</text>
</a>
</g>
</g>
<!-- Node6&#45;&gt;Node1 -->
<g id="edge5" class="edge">
<title>Node6&#45;&gt;Node1</title>
<path fill="none" stroke="#9a32cd" stroke-dasharray="5,2" d="M111.8234,-593.3938C159.2215,-591.9825 227.7357,-587.2466 249,-571.9134 301.6004,-533.9846 320.5356,-452.1701 326.3028,-418.1913"/>
<polygon fill="#9a32cd" stroke="#9a32cd" points="111.6642,-589.8967 101.7579,-593.6537 111.8449,-596.8943 111.6642,-589.8967"/>
<text text-anchor="middle" x="197.5" y="-593.9134" font-family="Helvetica,sans-Serif" font-size="10.00" fill="#000000"> forces</text>
</g>
<!-- Node7 -->
<g id="node7" class="node">
<title>Node7</title>
<g id="a_node7"><a xlink:title=" ">
<polygon fill="#ffffff" stroke="#bfbfbf" points="39.5,-546.4134 39.5,-565.4134 88.5,-565.4134 88.5,-546.4134 39.5,-546.4134"/>
<text text-anchor="middle" x="64" y="-553.4134" font-family="Helvetica,sans-Serif" font-size="10.00" fill="#000000">surface</text>
</a>
</g>
</g>
<!-- Node7&#45;&gt;Node1 -->
<g id="edge6" class="edge">
<title>Node7&#45;&gt;Node1</title>
<path fill="none" stroke="#9a32cd" stroke-dasharray="5,2" d="M98.6857,-559.8475C138.2762,-562.547 203.4302,-561.3639 249,-531.9134 291.4218,-504.4973 314.9296,-445.6429 324.0322,-417.9291"/>
<polygon fill="#9a32cd" stroke="#9a32cd" points="98.9644,-556.3587 88.7167,-559.0481 98.4049,-563.3363 98.9644,-556.3587"/>
<text text-anchor="middle" x="197.5" y="-562.9134" font-family="Helvetica,sans-Serif" font-size="10.00" fill="#000000"> sfc_state</text>
</g>
<!-- Node8 -->
<g id="node8" class="node">
<title>Node8</title>
<g id="a_node8"><a xlink:title=" ">
<polygon fill="#ffffff" stroke="#bfbfbf" points="41,-508.4134 41,-527.4134 87,-527.4134 87,-508.4134 41,-508.4134"/>
<text text-anchor="middle" x="64" y="-515.4134" font-family="Helvetica,sans-Serif" font-size="10.00" fill="#000000">forcing</text>
</a>
</g>
</g>
<!-- Node8&#45;&gt;Node1 -->
<g id="edge7" class="edge">
<title>Node8&#45;&gt;Node1</title>
<path fill="none" stroke="#9a32cd" stroke-dasharray="5,2" d="M97.2472,-514.408C135.614,-509.3128 199.742,-497.5112 249,-471.9134 275.4331,-458.177 300.4355,-433.9597 315.1128,-418.1772"/>
<polygon fill="#9a32cd" stroke="#9a32cd" points="96.6303,-510.9578 87.1427,-515.6731 97.5001,-517.9036 96.6303,-510.9578"/>
<text text-anchor="middle" x="197.5" y="-519.9134" font-family="Helvetica,sans-Serif" font-size="10.00" fill="#000000"> flux_tmp</text>
<text text-anchor="middle" x="197.5" y="-508.9134" font-family="Helvetica,sans-Serif" font-size="10.00" fill="#000000">fluxes</text>
</g>
<!-- Node9 -->
<g id="node9" class="node">
<title>Node9</title>
<g id="a_node9"><a xlink:title=" ">
<polygon fill="#ffffff" stroke="#bfbfbf" points="8,-458.9134 8,-488.9134 120,-488.9134 120,-458.9134 8,-458.9134"/>
<text text-anchor="start" x="16" y="-476.9134" font-family="Helvetica,sans-Serif" font-size="10.00" fill="#000000">type(mom_restart_cs)</text>
<text text-anchor="middle" x="64" y="-465.9134" font-family="Helvetica,sans-Serif" font-size="10.00" fill="#000000">, pointer</text>
</a>
</g>
</g>
<!-- Node9&#45;&gt;Node1 -->
<g id="edge8" class="edge">
<title>Node9&#45;&gt;Node1</title>
<path fill="none" stroke="#9a32cd" stroke-dasharray="5,2" d="M130.563,-460.9305C166.0084,-453.4836 210.1816,-443.35 249,-431.9134 262.67,-427.886 277.3945,-422.747 290.4118,-417.9172"/>
<polygon fill="#9a32cd" stroke="#9a32cd" points="129.4137,-457.5945 120.335,-463.0559 130.838,-464.4481 129.4137,-457.5945"/>
<text text-anchor="middle" x="197.5" y="-459.9134" font-family="Helvetica,sans-Serif" font-size="10.00" fill="#000000"> restart_csp</text>
</g>
<!-- Node10 -->
<g id="node10" class="node">
<title>Node10</title>
<g id="a_node10"><a xlink:title=" ">
<polygon fill="#ffffff" stroke="#bfbfbf" points="6,-409.9134 6,-439.9134 122,-439.9134 122,-409.9134 6,-409.9134"/>
<text text-anchor="start" x="14" y="-427.9134" font-family="Helvetica,sans-Serif" font-size="10.00" fill="#000000">type(wave_parameters</text>
<text text-anchor="middle" x="64" y="-416.9134" font-family="Helvetica,sans-Serif" font-size="10.00" fill="#000000">_cs), pointer</text>
</a>
</g>
</g>
<!-- Node10&#45;&gt;Node1 -->
<g id="edge9" class="edge">
<title>Node10&#45;&gt;Node1</title>
<path fill="none" stroke="#9a32cd" stroke-dasharray="5,2" d="M132.0999,-419.2491C173.7226,-415.7871 226.5329,-411.3946 266.9063,-408.0365"/>
<polygon fill="#9a32cd" stroke="#9a32cd" points="131.7211,-415.7685 122.0456,-420.0854 132.3014,-422.7444 131.7211,-415.7685"/>
<text text-anchor="middle" x="197.5" y="-419.9134" font-family="Helvetica,sans-Serif" font-size="10.00" fill="#000000"> waves</text>
</g>
<!-- Node11 -->
<g id="node11" class="node">
<title>Node11</title>
<g id="a_node11"><a xlink:title=" ">
<polygon fill="#ffffff" stroke="#bfbfbf" points="37.5,-371.4134 37.5,-390.4134 90.5,-390.4134 90.5,-371.4134 37.5,-371.4134"/>
<text text-anchor="middle" x="64" y="-378.4134" font-family="Helvetica,sans-Serif" font-size="10.00" fill="#000000">diag_ctrl</text>
</a>
</g>
</g>
<!-- Node11&#45;&gt;Node1 -->
<g id="edge10" class="edge">
<title>Node11&#45;&gt;Node1</title>
<path fill="none" stroke="#9a32cd" stroke-dasharray="5,2" d="M101.065,-383.4473C138.4305,-386.0656 197.749,-390.3962 249,-394.9134 254.8037,-395.4249 260.8428,-395.9839 266.8841,-396.5611"/>
<polygon fill="#9a32cd" stroke="#9a32cd" points="100.8893,-379.9267 90.6703,-382.7235 100.403,-386.9098 100.8893,-379.9267"/>
<text text-anchor="middle" x="197.5" y="-397.9134" font-family="Helvetica,sans-Serif" font-size="10.00" fill="#000000"> diag</text>
</g>
<!-- Node12 -->
<g id="node12" class="node">
<title>Node12</title>
<g id="a_node12"><a xlink:title=" ">
<polygon fill="#ffffff" stroke="#bfbfbf" points="12,-321.9134 12,-351.9134 116,-351.9134 116,-321.9134 12,-321.9134"/>
<text text-anchor="start" x="20" y="-339.9134" font-family="Helvetica,sans-Serif" font-size="10.00" fill="#000000">type(marine_ice_cs)</text>
<text text-anchor="middle" x="64" y="-328.9134" font-family="Helvetica,sans-Serif" font-size="10.00" fill="#000000">, pointer</text>
</a>
</g>
</g>
<!-- Node12&#45;&gt;Node1 -->
<g id="edge11" class="edge">
<title>Node12&#45;&gt;Node1</title>
<path fill="none" stroke="#9a32cd" stroke-dasharray="5,2" d="M126.0294,-345.1273C162.2961,-350.7164 208.7204,-359.2342 249,-370.9134 264.5757,-375.4296 281.3003,-381.9013 295.3716,-387.8444"/>
<polygon fill="#9a32cd" stroke="#9a32cd" points="126.4931,-341.6578 116.0832,-343.6284 125.4499,-348.5796 126.4931,-341.6578"/>
<text text-anchor="middle" x="197.5" y="-373.9134" font-family="Helvetica,sans-Serif" font-size="10.00" fill="#000000"> marine_ice_csp</text>
</g>
<!-- Node13 -->
<g id="node13" class="node">
<title>Node13</title>
<g id="a_node13"><a xlink:title=" ">
<polygon fill="#ffffff" stroke="#bfbfbf" points="0,-272.9134 0,-302.9134 128,-302.9134 128,-272.9134 0,-272.9134"/>
<text text-anchor="start" x="8" y="-290.9134" font-family="Helvetica,sans-Serif" font-size="10.00" fill="#000000">type(mom_control_struct)</text>
<text text-anchor="middle" x="64" y="-279.9134" font-family="Helvetica,sans-Serif" font-size="10.00" fill="#000000">, pointer</text>
</a>
</g>
</g>
<!-- Node13&#45;&gt;Node1 -->
<g id="edge12" class="edge">
<title>Node13&#45;&gt;Node1</title>
<path fill="none" stroke="#9a32cd" stroke-dasharray="5,2" d="M138.509,-297.5882C173.4668,-304.2038 214.848,-315.1216 249,-332.9134 275.7474,-346.8477 300.8515,-371.6567 315.4407,-387.6886"/>
<polygon fill="#9a32cd" stroke="#9a32cd" points="138.8208,-294.0879 128.3575,-295.7523 137.575,-300.9761 138.8208,-294.0879"/>
<text text-anchor="middle" x="197.5" y="-335.9134" font-family="Helvetica,sans-Serif" font-size="10.00" fill="#000000"> mom_csp</text>
</g>
<!-- Node14 -->
<g id="node14" class="node">
<title>Node14</title>
<g id="a_node14"><a xlink:title=" ">
<polygon fill="#ffffff" stroke="#bfbfbf" points="11.5,-223.9134 11.5,-253.9134 116.5,-253.9134 116.5,-223.9134 11.5,-223.9134"/>
<text text-anchor="start" x="19.5" y="-241.9134" font-family="Helvetica,sans-Serif" font-size="10.00" fill="#000000">type(surface_forcing</text>
<text text-anchor="middle" x="64" y="-230.9134" font-family="Helvetica,sans-Serif" font-size="10.00" fill="#000000">_cs), pointer</text>
</a>
</g>
</g>
<!-- Node14&#45;&gt;Node1 -->
<g id="edge13" class="edge">
<title>Node14&#45;&gt;Node1</title>
<path fill="none" stroke="#9a32cd" stroke-dasharray="5,2" d="M126.8347,-242.7393C165.0376,-247.6958 213.1917,-258.8748 249,-283.9134 287.2803,-310.6806 312.2113,-362.311 322.7549,-387.851"/>
<polygon fill="#9a32cd" stroke="#9a32cd" points="127.1902,-239.257 116.8474,-241.5541 126.3652,-246.2082 127.1902,-239.257"/>
<text text-anchor="middle" x="197.5" y="-286.9134" font-family="Helvetica,sans-Serif" font-size="10.00" fill="#000000"> forcing_csp</text>
</g>
<!-- Node15 -->
<g id="node15" class="node">
<title>Node15</title>
<g id="a_node15"><a xlink:title=" ">
<polygon fill="#ffffff" stroke="#bfbfbf" points="7.5,-174.9134 7.5,-204.9134 120.5,-204.9134 120.5,-174.9134 7.5,-174.9134"/>
<text text-anchor="start" x="15.5" y="-192.9134" font-family="Helvetica,sans-Serif" font-size="10.00" fill="#000000">type(verticalgrid_type)</text>
<text text-anchor="middle" x="64" y="-181.9134" font-family="Helvetica,sans-Serif" font-size="10.00" fill="#000000">, pointer</text>
</a>
</g>
</g>
<!-- Node15&#45;&gt;Node1 -->
<g id="edge14" class="edge">
<title>Node15&#45;&gt;Node1</title>
<path fill="none" stroke="#9a32cd" stroke-dasharray="5,2" d="M130.6274,-190.4851C168.916,-194.0249 215.8364,-204.2066 249,-230.9134 300.243,-272.1795 319.9417,-353.9478 326.1079,-387.7468"/>
<polygon fill="#9a32cd" stroke="#9a32cd" points="130.8311,-186.9904 120.5855,-189.6882 130.2773,-193.9684 130.8311,-186.9904"/>
<text text-anchor="middle" x="197.5" y="-233.9134" font-family="Helvetica,sans-Serif" font-size="10.00" fill="#000000"> gv</text>
</g>
<!-- Node16 -->
<g id="node16" class="node">
<title>Node16</title>
<g id="a_node16"><a xlink:title=" ">
<polygon fill="#ffffff" stroke="#bfbfbf" points="20,-136.4134 20,-155.4134 108,-155.4134 108,-136.4134 20,-136.4134"/>
<text text-anchor="middle" x="64" y="-143.4134" font-family="Helvetica,sans-Serif" font-size="10.00" fill="#000000">ocean_grid_type</text>
</a>
</g>
</g>
<!-- Node16&#45;&gt;Node1 -->
<g id="edge15" class="edge">
<title>Node16&#45;&gt;Node1</title>
<path fill="none" stroke="#9a32cd" stroke-dasharray="5,2" d="M118.5389,-148.9873C165.8424,-152.7184 229.6702,-160.6557 249,-176.9134 282.741,-205.2919 315.1189,-341.6573 325.252,-387.6945"/>
<polygon fill="#9a32cd" stroke="#9a32cd" points="118.6499,-145.486 108.4172,-148.2323 118.1291,-152.4666 118.6499,-145.486"/>
<text text-anchor="middle" x="197.5" y="-179.9134" font-family="Helvetica,sans-Serif" font-size="10.00" fill="#000000"> grid</text>
</g>
<!-- Node17 -->
<g id="node17" class="node">
<title>Node17</title>
<g id="a_node17"><a xlink:title=" ">
<polygon fill="#ffffff" stroke="#bfbfbf" points="48,-96.4134 48,-115.4134 80,-115.4134 80,-96.4134 48,-96.4134"/>
<text text-anchor="middle" x="64" y="-103.4134" font-family="Helvetica,sans-Serif" font-size="10.00" fill="#000000">real</text>
</a>
</g>
</g>
<!-- Node17&#45;&gt;Node1 -->
<g id="edge16" class="edge">
<title>Node17&#45;&gt;Node1</title>
<path fill="none" stroke="#9a32cd" stroke-dasharray="5,2" d="M90.2087,-101.6348C135.2666,-94.8942 224.9018,-84.3694 249,-102.9134 295.6514,-138.8125 320.5823,-331.9774 326.8852,-387.7984"/>
<polygon fill="#9a32cd" stroke="#9a32cd" points="89.6373,-98.1815 80.2883,-103.1661 90.7052,-105.0996 89.6373,-98.1815"/>
<text text-anchor="middle" x="197.5" y="-138.9134" font-family="Helvetica,sans-Serif" font-size="10.00" fill="#000000"> press_to_z</text>
<text text-anchor="middle" x="197.5" y="-127.9134" font-family="Helvetica,sans-Serif" font-size="10.00" fill="#000000">dt_therm</text>
<text text-anchor="middle" x="197.5" y="-116.9134" font-family="Helvetica,sans-Serif" font-size="10.00" fill="#000000">c_p</text>
<text text-anchor="middle" x="197.5" y="-105.9134" font-family="Helvetica,sans-Serif" font-size="10.00" fill="#000000">dt</text>
</g>
<!-- Node18 -->
<g id="node18" class="node">
<title>Node18</title>
<g id="a_node18"><a xlink:title=" ">
<polygon fill="#ffffff" stroke="#bfbfbf" points="41,-51.4134 41,-70.4134 87,-70.4134 87,-51.4134 41,-51.4134"/>
<text text-anchor="middle" x="64" y="-58.4134" font-family="Helvetica,sans-Serif" font-size="10.00" fill="#000000">integer</text>
</a>
</g>
</g>
<!-- Node18&#45;&gt;Node1 -->
<g id="edge17" class="edge">
<title>Node18&#45;&gt;Node1</title>
<path fill="none" stroke="#9a32cd" stroke-dasharray="5,2" d="M97.1459,-50.8317C137.7058,-40.7167 206.2441,-31.1205 249,-65.9134 300.4049,-107.7445 322.2368,-327.5306 327.3032,-387.6825"/>
<polygon fill="#9a32cd" stroke="#9a32cd" points="95.9977,-47.515 87.2254,-53.4561 97.7879,-54.2822 95.9977,-47.515"/>
<text text-anchor="middle" x="197.5" y="-79.9134" font-family="Helvetica,sans-Serif" font-size="10.00" fill="#000000"> nstep</text>
<text text-anchor="middle" x="197.5" y="-68.9134" font-family="Helvetica,sans-Serif" font-size="10.00" fill="#000000">restart_control</text>
</g>
<!-- Node19 -->
<g id="node19" class="node">
<title>Node19</title>
<g id="a_node19"><a xlink:title=" ">
<polygon fill="#ffffff" stroke="#bfbfbf" points="14.5,-1.9134 14.5,-31.9134 113.5,-31.9134 113.5,-1.9134 14.5,-1.9134"/>
<text text-anchor="start" x="22.5" y="-19.9134" font-family="Helvetica,sans-Serif" font-size="10.00" fill="#000000">type(ice_shelf_cs),</text>
<text text-anchor="middle" x="64" y="-8.9134" font-family="Helvetica,sans-Serif" font-size="10.00" fill="#000000"> pointer</text>
</a>
</g>
</g>
<!-- Node19&#45;&gt;Node1 -->
<g id="edge18" class="edge">
<title>Node19&#45;&gt;Node1</title>
<path fill="none" stroke="#9a32cd" stroke-dasharray="5,2" d="M123.5497,-3.015C163.6111,2.6162 215.1052,2.1151 249,-26.9134 305.3772,-75.1966 323.8097,-323.5825 327.6684,-387.7629"/>
<polygon fill="#9a32cd" stroke="#9a32cd" points="122.9684,.4367 113.6286,-4.5651 124.049,-6.4794 122.9684,.4367"/>
<text text-anchor="middle" x="197.5" y="-29.9134" font-family="Helvetica,sans-Serif" font-size="10.00" fill="#000000"> ice_shelf_csp</text>
</g>
</g>
</svg>
