<?xml version="1.0" encoding="UTF-8" standalone="no"?>
<!DOCTYPE svg PUBLIC "-//W3C//DTD SVG 1.1//EN"
 "http://www.w3.org/Graphics/SVG/1.1/DTD/svg11.dtd">
<!-- Generated by graphviz version 2.40.1 (20161225.0304)
 -->
<!-- Title: mom_offline_main::offline_transport_cs Pages: 1 -->
<svg width="418pt" height="1007pt"
 viewBox="0.00 0.00 418.00 1007.24" xmlns="http://www.w3.org/2000/svg" xmlns:xlink="http://www.w3.org/1999/xlink">
<g id="graph0" class="graph" transform="scale(1 1) rotate(0) translate(4 1003.2429)">
<title>mom_offline_main::offline_transport_cs</title>
<polygon fill="#ffffff" stroke="transparent" points="-4,4 -4,-1003.2429 414,-1003.2429 414,4 -4,4"/>
<!-- Node1 -->
<g id="node1" class="node">
<title>Node1</title>
<g id="a_node1"><a xlink:title="The control structure for the offline transport module.">
<polygon fill="#bfbfbf" stroke="#000000" points="275,-522.2429 275,-552.2429 410,-552.2429 410,-522.2429 275,-522.2429"/>
<text text-anchor="start" x="283" y="-540.2429" font-family="Helvetica,sans-Serif" font-size="10.00" fill="#000000">mom_offline_main::offline</text>
<text text-anchor="middle" x="342.5" y="-529.2429" font-family="Helvetica,sans-Serif" font-size="10.00" fill="#000000">_transport_cs</text>
</a>
</g>
</g>
<!-- Node2 -->
<g id="node2" class="node">
<title>Node2</title>
<g id="a_node2"><a xlink:title=" ">
<polygon fill="#ffffff" stroke="#bfbfbf" points="43,-861.7429 43,-880.7429 90,-880.7429 90,-861.7429 43,-861.7429"/>
<text text-anchor="middle" x="66.5" y="-868.7429" font-family="Helvetica,sans-Serif" font-size="10.00" fill="#000000">logical</text>
</a>
</g>
</g>
<!-- Node2&#45;&gt;Node1 -->
<g id="edge1" class="edge">
<title>Node2&#45;&gt;Node1</title>
<path fill="none" stroke="#9a32cd" stroke-dasharray="5,2" d="M100.3172,-876.8462C142.3023,-881.7561 213.6565,-883.092 257,-845.2429 302.6667,-805.365 332.6647,-609.1853 340.4733,-552.5665"/>
<polygon fill="#9a32cd" stroke="#9a32cd" points="100.6791,-873.3638 90.3107,-875.5425 99.7747,-880.3052 100.6791,-873.3638"/>
<text text-anchor="middle" x="204" y="-991.2429" font-family="Helvetica,sans-Serif" font-size="10.00" fill="#000000"> redistribute_upwards</text>
<text text-anchor="middle" x="204" y="-980.2429" font-family="Helvetica,sans-Serif" font-size="10.00" fill="#000000">print_adv_offline</text>
<text text-anchor="middle" x="204" y="-969.2429" font-family="Helvetica,sans-Serif" font-size="10.00" fill="#000000">redistribute_barotropic</text>
<text text-anchor="middle" x="204" y="-958.2429" font-family="Helvetica,sans-Serif" font-size="10.00" fill="#000000">diurnal_sw</text>
<text text-anchor="middle" x="204" y="-947.2429" font-family="Helvetica,sans-Serif" font-size="10.00" fill="#000000">x_before_y</text>
<text text-anchor="middle" x="204" y="-936.2429" font-family="Helvetica,sans-Serif" font-size="10.00" fill="#000000">read_mld</text>
<text text-anchor="middle" x="204" y="-925.2429" font-family="Helvetica,sans-Serif" font-size="10.00" fill="#000000">read_sw</text>
<text text-anchor="middle" x="204" y="-914.2429" font-family="Helvetica,sans-Serif" font-size="10.00" fill="#000000">fields_are_offset</text>
<text text-anchor="middle" x="204" y="-903.2429" font-family="Helvetica,sans-Serif" font-size="10.00" fill="#000000">read_all_ts_uvh</text>
<text text-anchor="middle" x="204" y="-892.2429" font-family="Helvetica,sans-Serif" font-size="10.00" fill="#000000">debug</text>
<text text-anchor="middle" x="204" y="-881.2429" font-family="Helvetica,sans-Serif" font-size="10.00" fill="#000000">...</text>
</g>
<!-- Node3 -->
<g id="node3" class="node">
<title>Node3</title>
<g id="a_node3"><a xlink:title=" ">
<polygon fill="#ffffff" stroke="#bfbfbf" points="10,-823.7429 10,-842.7429 123,-842.7429 123,-823.7429 10,-823.7429"/>
<text text-anchor="middle" x="66.5" y="-830.7429" font-family="Helvetica,sans-Serif" font-size="10.00" fill="#000000">type(ale_cs), pointer</text>
</a>
</g>
</g>
<!-- Node3&#45;&gt;Node1 -->
<g id="edge2" class="edge">
<title>Node3&#45;&gt;Node1</title>
<path fill="none" stroke="#9a32cd" stroke-dasharray="5,2" d="M133.4771,-831.9329C180.672,-829.6511 238.6054,-823.6684 257,-808.2429 297.8261,-774.0063 330.6268,-604.6152 339.8803,-552.5164"/>
<polygon fill="#9a32cd" stroke="#9a32cd" points="133.1196,-828.4451 123.2816,-832.3777 133.4247,-835.4385 133.1196,-828.4451"/>
<text text-anchor="middle" x="204" y="-833.2429" font-family="Helvetica,sans-Serif" font-size="10.00" fill="#000000"> ale_csp</text>
</g>
<!-- Node4 -->
<g id="node4" class="node">
<title>Node4</title>
<g id="a_node4"><a xlink:title=" ">
<polygon fill="#ffffff" stroke="#bfbfbf" points="19,-785.7429 19,-804.7429 114,-804.7429 114,-785.7429 19,-785.7429"/>
<text text-anchor="middle" x="66.5" y="-792.7429" font-family="Helvetica,sans-Serif" font-size="10.00" fill="#000000">ocean_obc_type</text>
</a>
</g>
</g>
<!-- Node4&#45;&gt;Node1 -->
<g id="edge3" class="edge">
<title>Node4&#45;&gt;Node1</title>
<path fill="none" stroke="#9a32cd" stroke-dasharray="5,2" d="M124.394,-795.0994C172.7874,-793.8202 237.0083,-789.052 257,-773.2429 293.4038,-744.4553 328.419,-600.1949 339.1548,-552.5446"/>
<polygon fill="#9a32cd" stroke="#9a32cd" points="124.2493,-791.6016 114.3292,-795.3221 124.4042,-798.5999 124.2493,-791.6016"/>
<text text-anchor="middle" x="204" y="-796.2429" font-family="Helvetica,sans-Serif" font-size="10.00" fill="#000000"> obc</text>
</g>
<!-- Node5 -->
<g id="node5" class="node">
<title>Node5</title>
<g id="a_node5"><a xlink:title=" ">
<polygon fill="#ffffff" stroke="#bfbfbf" points="17,-736.2429 17,-766.2429 116,-766.2429 116,-736.2429 17,-736.2429"/>
<text text-anchor="start" x="25" y="-754.2429" font-family="Helvetica,sans-Serif" font-size="10.00" fill="#000000">type(diabatic_cs),</text>
<text text-anchor="middle" x="66.5" y="-743.2429" font-family="Helvetica,sans-Serif" font-size="10.00" fill="#000000"> pointer</text>
</a>
</g>
</g>
<!-- Node5&#45;&gt;Node1 -->
<g id="edge4" class="edge">
<title>Node5&#45;&gt;Node1</title>
<path fill="none" stroke="#9a32cd" stroke-dasharray="5,2" d="M126.3548,-758.8323C166.9398,-760.7507 219.7694,-756.5833 257,-729.2429 316.9976,-685.1834 335.6674,-589.4218 340.7765,-552.3366"/>
<polygon fill="#9a32cd" stroke="#9a32cd" points="126.5108,-755.3355 116.3173,-758.2239 126.0872,-762.3226 126.5108,-755.3355"/>
<text text-anchor="middle" x="204" y="-761.2429" font-family="Helvetica,sans-Serif" font-size="10.00" fill="#000000"> diabatic_csp</text>
</g>
<!-- Node6 -->
<g id="node6" class="node">
<title>Node6</title>
<g id="a_node6"><a xlink:title=" ">
<polygon fill="#ffffff" stroke="#bfbfbf" points="1,-687.2429 1,-717.2429 132,-717.2429 132,-687.2429 1,-687.2429"/>
<text text-anchor="start" x="9" y="-705.2429" font-family="Helvetica,sans-Serif" font-size="10.00" fill="#000000">type(tracer_flow_control</text>
<text text-anchor="middle" x="66.5" y="-694.2429" font-family="Helvetica,sans-Serif" font-size="10.00" fill="#000000">_cs), pointer</text>
</a>
</g>
</g>
<!-- Node6&#45;&gt;Node1 -->
<g id="edge5" class="edge">
<title>Node6&#45;&gt;Node1</title>
<path fill="none" stroke="#9a32cd" stroke-dasharray="5,2" d="M142.3431,-716.1739C179.485,-719.0308 223.3351,-716.1505 257,-695.2429 309.7258,-662.4974 332.144,-585.1873 339.5131,-552.3835"/>
<polygon fill="#9a32cd" stroke="#9a32cd" points="142.3382,-712.6587 132.0591,-715.2262 141.6957,-719.6292 142.3382,-712.6587"/>
<text text-anchor="middle" x="204" y="-719.2429" font-family="Helvetica,sans-Serif" font-size="10.00" fill="#000000"> tracer_flow_csp</text>
</g>
<!-- Node7 -->
<g id="node7" class="node">
<title>Node7</title>
<g id="a_node7"><a xlink:title=" ">
<polygon fill="#ffffff" stroke="#bfbfbf" points="12.5,-646.7429 12.5,-665.7429 120.5,-665.7429 120.5,-646.7429 12.5,-646.7429"/>
<text text-anchor="middle" x="66.5" y="-653.7429" font-family="Helvetica,sans-Serif" font-size="10.00" fill="#000000">character(len=200)</text>
</a>
</g>
</g>
<!-- Node7&#45;&gt;Node1 -->
<g id="edge6" class="edge">
<title>Node7&#45;&gt;Node1</title>
<path fill="none" stroke="#9a32cd" stroke-dasharray="5,2" d="M126.4479,-644.7849C180.0547,-634.4119 251.0835,-620.301 257,-617.2429 288.0608,-601.1883 315.9797,-570.5938 330.9573,-552.2447"/>
<polygon fill="#9a32cd" stroke="#9a32cd" points="125.4775,-641.4075 116.3224,-646.7399 126.8046,-648.2806 125.4775,-641.4075"/>
<text text-anchor="middle" x="204" y="-686.2429" font-family="Helvetica,sans-Serif" font-size="10.00" fill="#000000"> snap_file</text>
<text text-anchor="middle" x="204" y="-675.2429" font-family="Helvetica,sans-Serif" font-size="10.00" fill="#000000">surf_file</text>
<text text-anchor="middle" x="204" y="-664.2429" font-family="Helvetica,sans-Serif" font-size="10.00" fill="#000000">offlinedir</text>
<text text-anchor="middle" x="204" y="-653.2429" font-family="Helvetica,sans-Serif" font-size="10.00" fill="#000000">mean_file</text>
<text text-anchor="middle" x="204" y="-642.2429" font-family="Helvetica,sans-Serif" font-size="10.00" fill="#000000">sum_file</text>
</g>
<!-- Node8 -->
<g id="node8" class="node">
<title>Node8</title>
<g id="a_node8"><a xlink:title=" ">
<polygon fill="#ffffff" stroke="#bfbfbf" points="10.5,-608.7429 10.5,-627.7429 122.5,-627.7429 122.5,-608.7429 10.5,-608.7429"/>
<text text-anchor="middle" x="66.5" y="-615.7429" font-family="Helvetica,sans-Serif" font-size="10.00" fill="#000000">tracer_registry_type</text>
</a>
</g>
</g>
<!-- Node8&#45;&gt;Node1 -->
<g id="edge7" class="edge">
<title>Node8&#45;&gt;Node1</title>
<path fill="none" stroke="#9a32cd" stroke-dasharray="5,2" d="M132.9533,-607.3883C178.4332,-599.5691 234.4333,-589.0623 257,-581.2429 278.4525,-573.8095 301.2421,-561.8561 317.8936,-552.2831"/>
<polygon fill="#9a32cd" stroke="#9a32cd" points="132.1032,-603.9826 122.8339,-609.1139 133.28,-610.883 132.1032,-603.9826"/>
<text text-anchor="middle" x="204" y="-606.2429" font-family="Helvetica,sans-Serif" font-size="10.00" fill="#000000"> tracer_reg</text>
</g>
<!-- Node9 -->
<g id="node9" class="node">
<title>Node9</title>
<g id="a_node9"><a xlink:title=" ">
<polygon fill="#ffffff" stroke="#bfbfbf" points="19,-570.7429 19,-589.7429 114,-589.7429 114,-570.7429 19,-570.7429"/>
<text text-anchor="middle" x="66.5" y="-577.7429" font-family="Helvetica,sans-Serif" font-size="10.00" fill="#000000">thermo_var_ptrs</text>
</a>
</g>
</g>
<!-- Node9&#45;&gt;Node1 -->
<g id="edge8" class="edge">
<title>Node9&#45;&gt;Node1</title>
<path fill="none" stroke="#9a32cd" stroke-dasharray="5,2" d="M124.2094,-571.2519C168.1431,-564.4072 228.7243,-554.9688 274.9217,-547.7714"/>
<polygon fill="#9a32cd" stroke="#9a32cd" points="123.6024,-567.8042 114.2604,-572.8019 124.6801,-574.7207 123.6024,-567.8042"/>
<text text-anchor="middle" x="204" y="-569.2429" font-family="Helvetica,sans-Serif" font-size="10.00" fill="#000000"> tv</text>
</g>
<!-- Node10 -->
<g id="node10" class="node">
<title>Node10</title>
<g id="a_node10"><a xlink:title=" ">
<polygon fill="#ffffff" stroke="#bfbfbf" points="13.5,-521.2429 13.5,-551.2429 119.5,-551.2429 119.5,-521.2429 13.5,-521.2429"/>
<text text-anchor="start" x="21.5" y="-539.2429" font-family="Helvetica,sans-Serif" font-size="10.00" fill="#000000">type(tracer_advect</text>
<text text-anchor="middle" x="66.5" y="-528.2429" font-family="Helvetica,sans-Serif" font-size="10.00" fill="#000000">_cs), pointer</text>
</a>
</g>
</g>
<!-- Node10&#45;&gt;Node1 -->
<g id="edge9" class="edge">
<title>Node10&#45;&gt;Node1</title>
<path fill="none" stroke="#9a32cd" stroke-dasharray="5,2" d="M129.8499,-536.4724C173.1712,-536.6294 230.5328,-536.8372 274.7619,-536.9974"/>
<polygon fill="#9a32cd" stroke="#9a32cd" points="129.7282,-532.972 119.7156,-536.4357 129.7028,-539.972 129.7282,-532.972"/>
<text text-anchor="middle" x="204" y="-539.2429" font-family="Helvetica,sans-Serif" font-size="10.00" fill="#000000"> tracer_adv_csp</text>
</g>
<!-- Node11 -->
<g id="node11" class="node">
<title>Node11</title>
<g id="a_node11"><a xlink:title=" ">
<polygon fill="#ffffff" stroke="#bfbfbf" points="15.5,-482.7429 15.5,-501.7429 117.5,-501.7429 117.5,-482.7429 15.5,-482.7429"/>
<text text-anchor="middle" x="66.5" y="-489.7429" font-family="Helvetica,sans-Serif" font-size="10.00" fill="#000000">character(len=20)</text>
</a>
</g>
</g>
<!-- Node11&#45;&gt;Node1 -->
<g id="edge10" class="edge">
<title>Node11&#45;&gt;Node1</title>
<path fill="none" stroke="#9a32cd" stroke-dasharray="5,2" d="M128.1447,-494.7568C165.6811,-497.1044 214.4435,-501.6143 257,-510.2429 271.4931,-513.1814 287.0038,-517.6572 300.7811,-522.1246"/>
<polygon fill="#9a32cd" stroke="#9a32cd" points="128.0586,-491.2457 117.8697,-494.1503 127.6461,-498.2335 128.0586,-491.2457"/>
<text text-anchor="middle" x="204" y="-524.2429" font-family="Helvetica,sans-Serif" font-size="10.00" fill="#000000"> redistribute_method</text>
<text text-anchor="middle" x="204" y="-513.2429" font-family="Helvetica,sans-Serif" font-size="10.00" fill="#000000">mld_var_name</text>
</g>
<!-- Node12 -->
<g id="node12" class="node">
<title>Node12</title>
<g id="a_node12"><a xlink:title=" ">
<polygon fill="#ffffff" stroke="#bfbfbf" points="38,-444.7429 38,-463.7429 95,-463.7429 95,-444.7429 38,-444.7429"/>
<text text-anchor="middle" x="66.5" y="-451.7429" font-family="Helvetica,sans-Serif" font-size="10.00" fill="#000000">diag_ctrl</text>
</a>
</g>
</g>
<!-- Node12&#45;&gt;Node1 -->
<g id="edge11" class="edge">
<title>Node12&#45;&gt;Node1</title>
<path fill="none" stroke="#9a32cd" stroke-dasharray="5,2" d="M105.4526,-454.8263C144.8416,-456.541 206.8921,-462.3633 257,-481.2429 282.4052,-490.815 307.9833,-508.9482 324.453,-521.9903"/>
<polygon fill="#9a32cd" stroke="#9a32cd" points="105.3381,-451.3199 95.2167,-454.4514 105.0818,-458.3152 105.3381,-451.3199"/>
<text text-anchor="middle" x="204" y="-484.2429" font-family="Helvetica,sans-Serif" font-size="10.00" fill="#000000"> diag</text>
</g>
<!-- Node13 -->
<g id="node13" class="node">
<title>Node13</title>
<g id="a_node13"><a xlink:title=" ">
<polygon fill="#ffffff" stroke="#bfbfbf" points="0,-406.7429 0,-425.7429 133,-425.7429 133,-406.7429 0,-406.7429"/>
<text text-anchor="middle" x="66.5" y="-413.7429" font-family="Helvetica,sans-Serif" font-size="10.00" fill="#000000">type(opacity_cs), pointer</text>
</a>
</g>
</g>
<!-- Node13&#45;&gt;Node1 -->
<g id="edge12" class="edge">
<title>Node13&#45;&gt;Node1</title>
<path fill="none" stroke="#9a32cd" stroke-dasharray="5,2" d="M143.4468,-415.3102C179.6974,-417.7511 222.4571,-424.9618 257,-443.2429 292.0968,-461.8171 320.1086,-500.7435 333.6474,-522.219"/>
<polygon fill="#9a32cd" stroke="#9a32cd" points="143.5887,-411.8128 133.4071,-414.743 143.1938,-418.8016 143.5887,-411.8128"/>
<text text-anchor="middle" x="204" y="-446.2429" font-family="Helvetica,sans-Serif" font-size="10.00" fill="#000000"> opacity_csp</text>
</g>
<!-- Node14 -->
<g id="node14" class="node">
<title>Node14</title>
<g id="a_node14"><a xlink:title=" ">
<polygon fill="#ffffff" stroke="#bfbfbf" points="49,-270.7429 49,-289.7429 84,-289.7429 84,-270.7429 49,-270.7429"/>
<text text-anchor="middle" x="66.5" y="-277.7429" font-family="Helvetica,sans-Serif" font-size="10.00" fill="#000000">real</text>
</a>
</g>
</g>
<!-- Node14&#45;&gt;Node1 -->
<g id="edge13" class="edge">
<title>Node14&#45;&gt;Node1</title>
<path fill="none" stroke="#9a32cd" stroke-dasharray="5,2" d="M94.0498,-272.9438C134.2185,-264.0603 209.2623,-254.3277 257,-290.2429 295.8909,-319.5021 329.6353,-473.1383 339.5539,-522.1811"/>
<polygon fill="#9a32cd" stroke="#9a32cd" points="93.0929,-269.5733 84.1611,-275.2718 94.697,-276.3871 93.0929,-269.5733"/>
<text text-anchor="middle" x="204" y="-403.2429" font-family="Helvetica,sans-Serif" font-size="10.00" fill="#000000"> netmassout</text>
<text text-anchor="middle" x="204" y="-392.2429" font-family="Helvetica,sans-Serif" font-size="10.00" fill="#000000">vhtr</text>
<text text-anchor="middle" x="204" y="-381.2429" font-family="Helvetica,sans-Serif" font-size="10.00" fill="#000000">uhtr</text>
<text text-anchor="middle" x="204" y="-370.2429" font-family="Helvetica,sans-Serif" font-size="10.00" fill="#000000">dt_offline</text>
<text text-anchor="middle" x="204" y="-359.2429" font-family="Helvetica,sans-Serif" font-size="10.00" fill="#000000">vhtr_all</text>
<text text-anchor="middle" x="204" y="-348.2429" font-family="Helvetica,sans-Serif" font-size="10.00" fill="#000000">min_residual</text>
<text text-anchor="middle" x="204" y="-337.2429" font-family="Helvetica,sans-Serif" font-size="10.00" fill="#000000">evap_cfl_limit</text>
<text text-anchor="middle" x="204" y="-326.2429" font-family="Helvetica,sans-Serif" font-size="10.00" fill="#000000">netmassin</text>
<text text-anchor="middle" x="204" y="-315.2429" font-family="Helvetica,sans-Serif" font-size="10.00" fill="#000000">kd</text>
<text text-anchor="middle" x="204" y="-304.2429" font-family="Helvetica,sans-Serif" font-size="10.00" fill="#000000">uhtr_all</text>
<text text-anchor="middle" x="204" y="-293.2429" font-family="Helvetica,sans-Serif" font-size="10.00" fill="#000000">...</text>
</g>
<!-- Node15 -->
<g id="node15" class="node">
<title>Node15</title>
<g id="a_node15"><a xlink:title=" ">
<polygon fill="#ffffff" stroke="#bfbfbf" points="41.5,-136.7429 41.5,-155.7429 91.5,-155.7429 91.5,-136.7429 41.5,-136.7429"/>
<text text-anchor="middle" x="66.5" y="-143.7429" font-family="Helvetica,sans-Serif" font-size="10.00" fill="#000000">integer</text>
</a>
</g>
</g>
<!-- Node15&#45;&gt;Node1 -->
<g id="edge14" class="edge">
<title>Node15&#45;&gt;Node1</title>
<path fill="none" stroke="#9a32cd" stroke-dasharray="5,2" d="M101.6841,-139.6543C150.1208,-131.4516 233.9766,-120.6402 257,-139.2429 318.4311,-188.8786 337.7668,-455.2056 341.6861,-522.0277"/>
<polygon fill="#9a32cd" stroke="#9a32cd" points="100.8831,-136.2411 91.632,-141.4052 102.0843,-143.1373 100.8831,-136.2411"/>
<text text-anchor="middle" x="204" y="-252.2429" font-family="Helvetica,sans-Serif" font-size="10.00" fill="#000000"> id_uhtr_regrid</text>
<text text-anchor="middle" x="204" y="-241.2429" font-family="Helvetica,sans-Serif" font-size="10.00" fill="#000000">id_h_redist</text>
<text text-anchor="middle" x="204" y="-230.2429" font-family="Helvetica,sans-Serif" font-size="10.00" fill="#000000">id_eta_pre_distribute</text>
<text text-anchor="middle" x="204" y="-219.2429" font-family="Helvetica,sans-Serif" font-size="10.00" fill="#000000">id_ebr</text>
<text text-anchor="middle" x="204" y="-208.2429" font-family="Helvetica,sans-Serif" font-size="10.00" fill="#000000">id_ear</text>
<text text-anchor="middle" x="204" y="-197.2429" font-family="Helvetica,sans-Serif" font-size="10.00" fill="#000000">ridx_sum</text>
<text text-anchor="middle" x="204" y="-186.2429" font-family="Helvetica,sans-Serif" font-size="10.00" fill="#000000">id_eta_post_distribute</text>
<text text-anchor="middle" x="204" y="-175.2429" font-family="Helvetica,sans-Serif" font-size="10.00" fill="#000000">nk_input</text>
<text text-anchor="middle" x="204" y="-164.2429" font-family="Helvetica,sans-Serif" font-size="10.00" fill="#000000">id_salt_regrid</text>
<text text-anchor="middle" x="204" y="-153.2429" font-family="Helvetica,sans-Serif" font-size="10.00" fill="#000000">accumulated_time</text>
<text text-anchor="middle" x="204" y="-142.2429" font-family="Helvetica,sans-Serif" font-size="10.00" fill="#000000">...</text>
</g>
<!-- Node16 -->
<g id="node16" class="node">
<title>Node16</title>
<g id="a_node16"><a xlink:title=" ">
<polygon fill="#ffffff" stroke="#bfbfbf" points="5.5,-87.2429 5.5,-117.2429 127.5,-117.2429 127.5,-87.2429 5.5,-87.2429"/>
<text text-anchor="start" x="13.5" y="-105.2429" font-family="Helvetica,sans-Serif" font-size="10.00" fill="#000000">type(verticalgrid_type)</text>
<text text-anchor="middle" x="66.5" y="-94.2429" font-family="Helvetica,sans-Serif" font-size="10.00" fill="#000000">, pointer</text>
</a>
</g>
</g>
<!-- Node16&#45;&gt;Node1 -->
<g id="edge15" class="edge">
<title>Node16&#45;&gt;Node1</title>
<path fill="none" stroke="#9a32cd" stroke-dasharray="5,2" d="M137.8521,-86.8856C177.4464,-82.7059 225.0068,-85.4787 257,-113.2429 320.6621,-168.4898 338.4203,-452.9146 341.8267,-522.0733"/>
<polygon fill="#9a32cd" stroke="#9a32cd" points="137.2112,-83.4377 127.7088,-88.1232 138.0591,-90.3862 137.2112,-83.4377"/>
<text text-anchor="middle" x="204" y="-116.2429" font-family="Helvetica,sans-Serif" font-size="10.00" fill="#000000"> gv</text>
</g>
<!-- Node17 -->
<g id="node17" class="node">
<title>Node17</title>
<g id="a_node17"><a xlink:title=" ">
<polygon fill="#ffffff" stroke="#bfbfbf" points="18.5,-48.7429 18.5,-67.7429 114.5,-67.7429 114.5,-48.7429 18.5,-48.7429"/>
<text text-anchor="middle" x="66.5" y="-55.7429" font-family="Helvetica,sans-Serif" font-size="10.00" fill="#000000">ocean_grid_type</text>
</a>
</g>
</g>
<!-- Node17&#45;&gt;Node1 -->
<g id="edge16" class="edge">
<title>Node17&#45;&gt;Node1</title>
<path fill="none" stroke="#9a32cd" stroke-dasharray="5,2" d="M112.1698,-46.7933C154.9592,-39.0218 218.008,-35.6063 257,-70.2429 326.6334,-132.0983 339.9554,-448.7004 342.1215,-522.0545"/>
<polygon fill="#9a32cd" stroke="#9a32cd" points="111.4323,-43.3711 102.2921,-48.729 112.7786,-50.2405 111.4323,-43.3711"/>
<text text-anchor="middle" x="204" y="-73.2429" font-family="Helvetica,sans-Serif" font-size="10.00" fill="#000000"> g</text>
</g>
<!-- Node18 -->
<g id="node18" class="node">
<title>Node18</title>
<g id="a_node18"><a xlink:title=" ">
<polygon fill="#ffffff" stroke="#bfbfbf" points="31,-10.7429 31,-29.7429 102,-29.7429 102,-10.7429 31,-10.7429"/>
<text text-anchor="middle" x="66.5" y="-17.7429" font-family="Helvetica,sans-Serif" font-size="10.00" fill="#000000">optics_type</text>
</a>
</g>
</g>
<!-- Node18&#45;&gt;Node1 -->
<g id="edge17" class="edge">
<title>Node18&#45;&gt;Node1</title>
<path fill="none" stroke="#9a32cd" stroke-dasharray="5,2" d="M107.2949,-8.3201C149.9958,1.4261 216.3694,8.4441 257,-27.2429 295.5325,-61.087 333.396,-440.8289 341.086,-522.0235"/>
<polygon fill="#9a32cd" stroke="#9a32cd" points="106.3991,-4.9359 97.507,-10.6962 108.0504,-11.7383 106.3991,-4.9359"/>
<text text-anchor="middle" x="204" y="-30.2429" font-family="Helvetica,sans-Serif" font-size="10.00" fill="#000000"> optics</text>
</g>
</g>
</svg>
