<?xml version="1.0" encoding="UTF-8" standalone="no"?>
<!DOCTYPE svg PUBLIC "-//W3C//DTD SVG 1.1//EN"
 "http://www.w3.org/Graphics/SVG/1.1/DTD/svg11.dtd">
<!-- Generated by graphviz version 2.40.1 (20161225.0304)
 -->
<!-- Title: mom_tracer_hor_diff::tracer_hor_diff_cs Pages: 1 -->
<!--zoomable 499 -->
<svg id="main" version="1.1" xmlns="http://www.w3.org/2000/svg" xmlns:xlink="http://www.w3.org/1999/xlink" xml:space="preserve" onload="init(evt)">
<style type="text/css"><![CDATA[
.edge:hover path { stroke: red; }
.edge:hover polygon { stroke: red; fill: red; }
]]></style>
<script type="text/javascript"><![CDATA[
var edges = document.getElementsByTagName('g');
if (edges && edges.length) {
  for (var i=0;i<edges.length;i++) {
    if (edges[i].id.substr(0,4)=='edge') {
      edges[i].setAttribute('class','edge');
    }
  }
}
]]></script>
        <defs>
                <circle id="rim" cx="0" cy="0" r="7"/>
                <circle id="rim2" cx="0" cy="0" r="3.5"/>
                <g id="zoomPlus">
                        <use xlink:href="#rim" fill="#404040">
                                <set attributeName="fill" to="#808080" begin="zoomplus.mouseover" end="zoomplus.mouseout"/>
                        </use>
                        <path d="M-4,0h8M0,-4v8" fill="none" stroke="white" stroke-width="1.5" pointer-events="none"/>
                </g>
                <g id="zoomMin">
                        <use xlink:href="#rim" fill="#404040">
                                <set attributeName="fill" to="#808080" begin="zoomminus.mouseover" end="zoomminus.mouseout"/>
                        </use>
                        <path d="M-4,0h8" fill="none" stroke="white" stroke-width="1.5" pointer-events="none"/>
                </g>
                <g id="dirArrow">
                        <path fill="none" stroke="white" stroke-width="1.5" d="M0,-3.0v7 M-2.5,-0.5L0,-3.0L2.5,-0.5"/>
                </g>
               <g id="resetDef">
                       <use xlink:href="#rim2" fill="#404040">
                               <set attributeName="fill" to="#808080" begin="reset.mouseover" end="reset.mouseout"/>
                       </use>
               </g>
        </defs>

<script type="text/javascript">
var viewWidth = 401;
var viewHeight = 499;
var sectionId = 'dynsection-0';
</script>
<script xlink:href="svgpan.js"/>
<svg id="graph" class="graph">
<g id="viewport">
<title>mom_tracer_hor_diff::tracer_hor_diff_cs</title>
<polygon fill="#ffffff" stroke="transparent" points="-4,4 -4,-494.7149 397,-494.7149 397,4 -4,4"/>
<!-- Node1 -->
<g id="node1" class="node">
<title>Node1</title>
<g id="a_node1"><a xlink:title="The ocntrol structure for along&#45;layer and epineutral tracer diffusion.">
<polygon fill="#bfbfbf" stroke="#000000" points="287,-255.7149 287,-285.7149 393,-285.7149 393,-255.7149 287,-255.7149"/>
<text text-anchor="start" x="295" y="-273.7149" font-family="Helvetica,sans-Serif" font-size="10.00" fill="#000000">mom_tracer_hor_diff</text>
<text text-anchor="middle" x="340" y="-262.7149" font-family="Helvetica,sans-Serif" font-size="10.00" fill="#000000">::tracer_hor_diff_cs</text>
</a>
</g>
</g>
<!-- Node2 -->
<g id="node2" class="node">
<title>Node2</title>
<g id="a_node2"><a xlink:title=" ">
<polygon fill="#ffffff" stroke="#bfbfbf" points="34.5,-383.2149 34.5,-402.2149 78.5,-402.2149 78.5,-383.2149 34.5,-383.2149"/>
<text text-anchor="middle" x="56.5" y="-390.2149" font-family="Helvetica,sans-Serif" font-size="10.00" fill="#000000">logical</text>
</a>
</g>
</g>
<!-- Node2&#45;&gt;Node1 -->
<g id="edge1" class="edge">
<title>Node2&#45;&gt;Node1</title>
<path fill="none" stroke="#9a32cd" stroke-dasharray="5,2" d="M88.7467,-394.0203C132.5227,-394.3568 211.8421,-389.7635 269,-356.7149 298.3322,-339.7551 320.7401,-305.7947 331.9836,-286.002"/>
<polygon fill="#9a32cd" stroke="#9a32cd" points="88.7336,-390.5196 78.6757,-393.8497 88.6149,-397.5186 88.7336,-390.5196"/>
<text text-anchor="middle" x="200" y="-482.7149" font-family="Helvetica,sans-Serif" font-size="10.00" fill="#000000"> diffuse_ml_interior</text>
<text text-anchor="middle" x="200" y="-471.7149" font-family="Helvetica,sans-Serif" font-size="10.00" fill="#000000">first_call</text>
<text text-anchor="middle" x="200" y="-460.7149" font-family="Helvetica,sans-Serif" font-size="10.00" fill="#000000">show_call_tree</text>
<text text-anchor="middle" x="200" y="-449.7149" font-family="Helvetica,sans-Serif" font-size="10.00" fill="#000000">recalc_neutral_surf</text>
<text text-anchor="middle" x="200" y="-438.7149" font-family="Helvetica,sans-Serif" font-size="10.00" fill="#000000">check_diffusive_cfl</text>
<text text-anchor="start" x="153.5" y="-427.7149" font-family="Helvetica,sans-Serif" font-size="10.00" fill="#000000">use_lateral_boundary</text>
<text text-anchor="middle" x="200" y="-416.7149" font-family="Helvetica,sans-Serif" font-size="10.00" fill="#000000">_diffusion</text>
<text text-anchor="middle" x="200" y="-405.7149" font-family="Helvetica,sans-Serif" font-size="10.00" fill="#000000">debug</text>
<text text-anchor="middle" x="200" y="-394.7149" font-family="Helvetica,sans-Serif" font-size="10.00" fill="#000000">use_neutral_diffusion</text>
</g>
<!-- Node3 -->
<g id="node3" class="node">
<title>Node3</title>
<g id="a_node3"><a xlink:title=" ">
<polygon fill="#ffffff" stroke="#bfbfbf" points="0,-333.7149 0,-363.7149 113,-363.7149 113,-333.7149 0,-333.7149"/>
<text text-anchor="start" x="8" y="-351.7149" font-family="Helvetica,sans-Serif" font-size="10.00" fill="#000000">type(lateral_boundary</text>
<text text-anchor="middle" x="56.5" y="-340.7149" font-family="Helvetica,sans-Serif" font-size="10.00" fill="#000000">_diffusion_cs), pointer</text>
</a>
</g>
</g>
<!-- Node3&#45;&gt;Node1 -->
<g id="edge2" class="edge">
<title>Node3&#45;&gt;Node1</title>
<path fill="none" stroke="#9a32cd" stroke-dasharray="5,2" d="M123.4202,-343.7021C166.0895,-338.98 221.9958,-329.9261 269,-312.7149 287.0209,-306.1163 305.6292,-294.9182 319.2725,-285.7436"/>
<polygon fill="#9a32cd" stroke="#9a32cd" points="123.0024,-340.2267 113.4246,-344.7563 123.7366,-347.1881 123.0024,-340.2267"/>
<text text-anchor="middle" x="200" y="-344.7149" font-family="Helvetica,sans-Serif" font-size="10.00" fill="#000000"> lateral_boundary_diffusion_csp</text>
</g>
<!-- Node4 -->
<g id="node4" class="node">
<title>Node4</title>
<g id="a_node4"><a xlink:title=" ">
<polygon fill="#ffffff" stroke="#bfbfbf" points="11,-295.2149 11,-314.2149 102,-314.2149 102,-295.2149 11,-295.2149"/>
<text text-anchor="middle" x="56.5" y="-302.2149" font-family="Helvetica,sans-Serif" font-size="10.00" fill="#000000">group_pass_type</text>
</a>
</g>
</g>
<!-- Node4&#45;&gt;Node1 -->
<g id="edge3" class="edge">
<title>Node4&#45;&gt;Node1</title>
<path fill="none" stroke="#9a32cd" stroke-dasharray="5,2" d="M112.167,-299.9378C155.1027,-296.0149 215.9241,-289.9401 269,-282.7149 274.8219,-281.9224 280.8992,-281.0164 286.9419,-280.0653"/>
<polygon fill="#9a32cd" stroke="#9a32cd" points="111.8429,-296.4527 102.1988,-300.8393 112.4734,-303.4243 111.8429,-296.4527"/>
<text text-anchor="middle" x="200" y="-300.7149" font-family="Helvetica,sans-Serif" font-size="10.00" fill="#000000"> pass_t</text>
</g>
<!-- Node5 -->
<g id="node5" class="node">
<title>Node5</title>
<g id="a_node5"><a xlink:title=" ">
<polygon fill="#ffffff" stroke="#bfbfbf" points="30,-257.2149 30,-276.2149 83,-276.2149 83,-257.2149 30,-257.2149"/>
<text text-anchor="middle" x="56.5" y="-264.2149" font-family="Helvetica,sans-Serif" font-size="10.00" fill="#000000">diag_ctrl</text>
</a>
</g>
</g>
<!-- Node5&#45;&gt;Node1 -->
<g id="edge4" class="edge">
<title>Node5&#45;&gt;Node1</title>
<path fill="none" stroke="#9a32cd" stroke-dasharray="5,2" d="M93.3723,-267.2352C142.6573,-267.9305 230.3331,-269.1676 286.7785,-269.964"/>
<polygon fill="#9a32cd" stroke="#9a32cd" points="93.2194,-263.7327 83.171,-267.0912 93.1206,-270.732 93.2194,-263.7327"/>
<text text-anchor="middle" x="200" y="-271.7149" font-family="Helvetica,sans-Serif" font-size="10.00" fill="#000000"> diag</text>
</g>
<!-- Node6 -->
<g id="node6" class="node">
<title>Node6</title>
<g id="a_node6"><a xlink:title=" ">
<polygon fill="#ffffff" stroke="#bfbfbf" points="33.5,-174.2149 33.5,-193.2149 79.5,-193.2149 79.5,-174.2149 33.5,-174.2149"/>
<text text-anchor="middle" x="56.5" y="-181.2149" font-family="Helvetica,sans-Serif" font-size="10.00" fill="#000000">integer</text>
</a>
</g>
</g>
<!-- Node6&#45;&gt;Node1 -->
<g id="edge5" class="edge">
<title>Node6&#45;&gt;Node1</title>
<path fill="none" stroke="#9a32cd" stroke-dasharray="5,2" d="M89.5117,-178.854C132.8775,-173.9947 210.3902,-170.655 269,-197.7149 296.1265,-210.2391 318.3798,-238.0413 330.3721,-255.4916"/>
<polygon fill="#9a32cd" stroke="#9a32cd" points="89.015,-175.3885 79.511,-180.0708 89.8605,-182.3373 89.015,-175.3885"/>
<text text-anchor="middle" x="200" y="-255.7149" font-family="Helvetica,sans-Serif" font-size="10.00" fill="#000000"> id_cfl</text>
<text text-anchor="middle" x="200" y="-244.7149" font-family="Helvetica,sans-Serif" font-size="10.00" fill="#000000">id_khdt_x</text>
<text text-anchor="middle" x="200" y="-233.7149" font-family="Helvetica,sans-Serif" font-size="10.00" fill="#000000">id_khtr_h</text>
<text text-anchor="middle" x="200" y="-222.7149" font-family="Helvetica,sans-Serif" font-size="10.00" fill="#000000">id_khtr_u</text>
<text text-anchor="middle" x="200" y="-211.7149" font-family="Helvetica,sans-Serif" font-size="10.00" fill="#000000">id_khdt_y</text>
<text text-anchor="middle" x="200" y="-200.7149" font-family="Helvetica,sans-Serif" font-size="10.00" fill="#000000">id_khtr_v</text>
</g>
<!-- Node7 -->
<g id="node7" class="node">
<title>Node7</title>
<g id="a_node7"><a xlink:title=" ">
<polygon fill="#ffffff" stroke="#bfbfbf" points="1.5,-124.7149 1.5,-154.7149 111.5,-154.7149 111.5,-124.7149 1.5,-124.7149"/>
<text text-anchor="start" x="9.5" y="-142.7149" font-family="Helvetica,sans-Serif" font-size="10.00" fill="#000000">type(neutral_diffusion</text>
<text text-anchor="middle" x="56.5" y="-131.7149" font-family="Helvetica,sans-Serif" font-size="10.00" fill="#000000">_cs), pointer</text>
</a>
</g>
</g>
<!-- Node7&#45;&gt;Node1 -->
<g id="edge6" class="edge">
<title>Node7&#45;&gt;Node1</title>
<path fill="none" stroke="#9a32cd" stroke-dasharray="5,2" d="M121.8269,-131.6045C166.4173,-129.3147 225.1257,-132.9486 269,-159.7149 305.3232,-181.8746 326.3447,-230.4296 335.125,-255.3263"/>
<polygon fill="#9a32cd" stroke="#9a32cd" points="121.4395,-128.1218 111.6775,-132.2393 121.8765,-135.1082 121.4395,-128.1218"/>
<text text-anchor="middle" x="200" y="-162.7149" font-family="Helvetica,sans-Serif" font-size="10.00" fill="#000000"> neutral_diffusion_csp</text>
</g>
<!-- Node8 -->
<g id="node8" class="node">
<title>Node8</title>
<g id="a_node8"><a xlink:title=" ">
<polygon fill="#ffffff" stroke="#bfbfbf" points="40.5,-11.2149 40.5,-30.2149 72.5,-30.2149 72.5,-11.2149 40.5,-11.2149"/>
<text text-anchor="middle" x="56.5" y="-18.2149" font-family="Helvetica,sans-Serif" font-size="10.00" fill="#000000">real</text>
</a>
</g>
</g>
<!-- Node8&#45;&gt;Node1 -->
<g id="edge7" class="edge">
<title>Node8&#45;&gt;Node1</title>
<path fill="none" stroke="#9a32cd" stroke-dasharray="5,2" d="M82.5513,-12.76C126.141,-1.1868 214.4365,14.6084 269,-27.7149 306.1596,-56.5385 330.8072,-206.979 337.8945,-255.5664"/>
<polygon fill="#9a32cd" stroke="#9a32cd" points="81.4163,-9.443 72.7248,-15.5017 83.2976,-16.1854 81.4163,-9.443"/>
<text text-anchor="middle" x="200" y="-118.7149" font-family="Helvetica,sans-Serif" font-size="10.00" fill="#000000"> khtr_slope_cff</text>
<text text-anchor="middle" x="200" y="-107.7149" font-family="Helvetica,sans-Serif" font-size="10.00" fill="#000000">max_diff_cfl</text>
<text text-anchor="middle" x="200" y="-96.7149" font-family="Helvetica,sans-Serif" font-size="10.00" fill="#000000">ml_khtr_scale</text>
<text text-anchor="middle" x="200" y="-85.7149" font-family="Helvetica,sans-Serif" font-size="10.00" fill="#000000">khtr_passivity_min</text>
<text text-anchor="middle" x="200" y="-74.7149" font-family="Helvetica,sans-Serif" font-size="10.00" fill="#000000">khtr_max</text>
<text text-anchor="middle" x="200" y="-63.7149" font-family="Helvetica,sans-Serif" font-size="10.00" fill="#000000">khtr_min</text>
<text text-anchor="middle" x="200" y="-52.7149" font-family="Helvetica,sans-Serif" font-size="10.00" fill="#000000">khtr</text>
<text text-anchor="start" x="159" y="-41.7149" font-family="Helvetica,sans-Serif" font-size="10.00" fill="#000000">khtr_passivity</text>
<text text-anchor="middle" x="200" y="-30.7149" font-family="Helvetica,sans-Serif" font-size="10.00" fill="#000000">_coeff</text>
</g>
</g>
</svg>
        <g id="navigator" transform="translate(0 0)" fill="#404254">
                <rect fill="#f2f5e9" fill-opacity="0.5" stroke="#606060" stroke-width=".5" x="0" y="0" width="60" height="60"/>
                <use id="zoomplus" xlink:href="#zoomPlus" x="17" y="9" onmousedown="handleZoom(evt,'in')"/>
                <use id="zoomminus" xlink:href="#zoomMin" x="42" y="9" onmousedown="handleZoom(evt,'out')"/>
                <use id="reset" xlink:href="#resetDef" x="30" y="36" onmousedown="handleReset()"/>
                <g id="arrowUp" xlink:href="#dirArrow" transform="translate(30 24)" onmousedown="handlePan(0,-1)">
                  <use xlink:href="#rim" fill="#404040">
                        <set attributeName="fill" to="#808080" begin="arrowUp.mouseover" end="arrowUp.mouseout"/>
                  </use>
                  <path fill="none" stroke="white" stroke-width="1.5" d="M0,-3.0v7 M-2.5,-0.5L0,-3.0L2.5,-0.5"/>
                </g>
                <g id="arrowRight" xlink:href="#dirArrow" transform="rotate(90) translate(36 -43)" onmousedown="handlePan(1,0)">
                  <use xlink:href="#rim" fill="#404040">
                        <set attributeName="fill" to="#808080" begin="arrowRight.mouseover" end="arrowRight.mouseout"/>
                  </use>
                  <path fill="none" stroke="white" stroke-width="1.5" d="M0,-3.0v7 M-2.5,-0.5L0,-3.0L2.5,-0.5"/>
                </g>
                <g id="arrowDown" xlink:href="#dirArrow" transform="rotate(180) translate(-30 -48)" onmousedown="handlePan(0,1)">
                  <use xlink:href="#rim" fill="#404040">
                        <set attributeName="fill" to="#808080" begin="arrowDown.mouseover" end="arrowDown.mouseout"/>
                  </use>
                  <path fill="none" stroke="white" stroke-width="1.5" d="M0,-3.0v7 M-2.5,-0.5L0,-3.0L2.5,-0.5"/>
                </g>
                <g id="arrowLeft" xlink:href="#dirArrow" transform="rotate(270) translate(-36 17)" onmousedown="handlePan(-1,0)">
                  <use xlink:href="#rim" fill="#404040">
                        <set attributeName="fill" to="#808080" begin="arrowLeft.mouseover" end="arrowLeft.mouseout"/>
                  </use>
                  <path fill="none" stroke="white" stroke-width="1.5" d="M0,-3.0v7 M-2.5,-0.5L0,-3.0L2.5,-0.5"/>
                </g>
        </g>
        <svg viewBox="0 0 15 15" width="100%" height="30px" preserveAspectRatio="xMaxYMin meet">
         <g id="arrow_out" transform="scale(0.3 0.3)">
          <a xlink:href="structmom__tracer__hor__diff_1_1tracer__hor__diff__cs__coll__graph_org.svg" target="_base">
           <rect id="button" ry="5" rx="5" y="6" x="6" height="38" width="38"
                fill="#f2f5e9" fill-opacity="0.5" stroke="#606060" stroke-width="1.0"/>
           <path id="arrow"
             d="M 11.500037,31.436501 C 11.940474,20.09759 22.043105,11.32322 32.158766,21.979434 L 37.068811,17.246167 C 37.068811,17.246167 37.088388,32 37.088388,32 L 22.160133,31.978069 C 22.160133,31.978069 26.997745,27.140456 26.997745,27.140456 C 18.528582,18.264221 13.291696,25.230495 11.500037,31.436501 z"
             style="fill:#404040;"/>
          </a>
         </g>
        </svg>
</svg>
