<?xml version="1.0" encoding="UTF-8" standalone="no"?>
<!DOCTYPE svg PUBLIC "-//W3C//DTD SVG 1.1//EN"
 "http://www.w3.org/Graphics/SVG/1.1/DTD/svg11.dtd">
<!-- Generated by graphviz version 2.40.1 (20161225.0304)
 -->
<!-- Title: mom_lateral_mixing_coeffs::varmix_cs Pages: 1 -->
<!--zoomable 238 -->
<svg id="main" version="1.1" xmlns="http://www.w3.org/2000/svg" xmlns:xlink="http://www.w3.org/1999/xlink" xml:space="preserve" onload="init(evt)">
<style type="text/css"><![CDATA[
.edge:hover path { stroke: red; }
.edge:hover polygon { stroke: red; fill: red; }
]]></style>
<script type="text/javascript"><![CDATA[
var edges = document.getElementsByTagName('g');
if (edges && edges.length) {
  for (var i=0;i<edges.length;i++) {
    if (edges[i].id.substr(0,4)=='edge') {
      edges[i].setAttribute('class','edge');
    }
  }
}
]]></script>
        <defs>
                <circle id="rim" cx="0" cy="0" r="7"/>
                <circle id="rim2" cx="0" cy="0" r="3.5"/>
                <g id="zoomPlus">
                        <use xlink:href="#rim" fill="#404040">
                                <set attributeName="fill" to="#808080" begin="zoomplus.mouseover" end="zoomplus.mouseout"/>
                        </use>
                        <path d="M-4,0h8M0,-4v8" fill="none" stroke="white" stroke-width="1.5" pointer-events="none"/>
                </g>
                <g id="zoomMin">
                        <use xlink:href="#rim" fill="#404040">
                                <set attributeName="fill" to="#808080" begin="zoomminus.mouseover" end="zoomminus.mouseout"/>
                        </use>
                        <path d="M-4,0h8" fill="none" stroke="white" stroke-width="1.5" pointer-events="none"/>
                </g>
                <g id="dirArrow">
                        <path fill="none" stroke="white" stroke-width="1.5" d="M0,-3.0v7 M-2.5,-0.5L0,-3.0L2.5,-0.5"/>
                </g>
               <g id="resetDef">
                       <use xlink:href="#rim2" fill="#404040">
                               <set attributeName="fill" to="#808080" begin="reset.mouseover" end="reset.mouseout"/>
                       </use>
               </g>
        </defs>

<script type="text/javascript">
var viewWidth = 608;
var viewHeight = 238;
var sectionId = 'dynsection-0';
</script>
<script xlink:href="svgpan.js"/>
<svg id="graph" class="graph">
<g id="viewport">
<title>mom_lateral_mixing_coeffs::varmix_cs</title>
<polygon fill="#ffffff" stroke="transparent" points="-4,4 -4,-234 603.5,-234 603.5,4 -4,4"/>
<!-- Node1 -->
<g id="node1" class="node">
<title>Node1</title>
<g id="a_node1"><a xlink:title="Variable mixing coefficients.">
<polygon fill="#bfbfbf" stroke="#000000" points="266.5,-.5 266.5,-30.5 376.5,-30.5 376.5,-.5 266.5,-.5"/>
<text text-anchor="start" x="274.5" y="-18.5" font-family="Helvetica,sans-Serif" font-size="10.00" fill="#000000">mom_lateral_mixing</text>
<text text-anchor="middle" x="321.5" y="-7.5" font-family="Helvetica,sans-Serif" font-size="10.00" fill="#000000">_coeffs::varmix_cs</text>
</a>
</g>
</g>
<!-- Node2 -->
<g id="node2" class="node">
<title>Node2</title>
<g id="a_node2"><a xlink:title=" ">
<polygon fill="#ffffff" stroke="#bfbfbf" points="0,-205 0,-224 47,-224 47,-205 0,-205"/>
<text text-anchor="middle" x="23.5" y="-212" font-family="Helvetica,sans-Serif" font-size="10.00" fill="#000000">logical</text>
</a>
</g>
</g>
<!-- Node2&#45;&gt;Node1 -->
<g id="edge1" class="edge">
<title>Node2&#45;&gt;Node1</title>
<path fill="none" stroke="#9a32cd" stroke-dasharray="5,2" d="M17.1568,-194.8726C7.3801,-160.4105 -6.6149,-88.902 30.5,-49 46.2375,-32.0807 186.306,-22.3 266.2327,-18.0497"/>
<polygon fill="#9a32cd" stroke="#9a32cd" points="13.8741,-196.1096 20.1127,-204.6729 20.5759,-194.0882 13.8741,-196.1096"/>
<text text-anchor="middle" x="85" y="-173" font-family="Helvetica,sans-Serif" font-size="10.00" fill="#000000"> calculate_cg1</text>
<text text-anchor="middle" x="85" y="-162" font-family="Helvetica,sans-Serif" font-size="10.00" fill="#000000">use_stored_slopes</text>
<text text-anchor="start" x="30.5" y="-151" font-family="Helvetica,sans-Serif" font-size="10.00" fill="#000000">calculate_eady_growth</text>
<text text-anchor="middle" x="85" y="-140" font-family="Helvetica,sans-Serif" font-size="10.00" fill="#000000">_rate</text>
<text text-anchor="middle" x="85" y="-129" font-family="Helvetica,sans-Serif" font-size="10.00" fill="#000000">use_visbeck</text>
<text text-anchor="middle" x="85" y="-118" font-family="Helvetica,sans-Serif" font-size="10.00" fill="#000000">calculate_rd_dx</text>
<text text-anchor="middle" x="85" y="-107" font-family="Helvetica,sans-Serif" font-size="10.00" fill="#000000">khth_use_ebt_struct</text>
<text text-anchor="middle" x="85" y="-96" font-family="Helvetica,sans-Serif" font-size="10.00" fill="#000000">resoln_scaled_khtr</text>
<text text-anchor="middle" x="85" y="-85" font-family="Helvetica,sans-Serif" font-size="10.00" fill="#000000">use_qg_leith_gm</text>
<text text-anchor="middle" x="85" y="-74" font-family="Helvetica,sans-Serif" font-size="10.00" fill="#000000">use_beta_in_qg_leith</text>
<text text-anchor="middle" x="85" y="-63" font-family="Helvetica,sans-Serif" font-size="10.00" fill="#000000">resoln_scaled_kh</text>
<text text-anchor="middle" x="85" y="-52" font-family="Helvetica,sans-Serif" font-size="10.00" fill="#000000">...</text>
</g>
<!-- Node3 -->
<g id="node3" class="node">
<title>Node3</title>
<g id="a_node3"><a xlink:title=" ">
<polygon fill="#ffffff" stroke="#bfbfbf" points="85,-199.5 85,-229.5 206,-229.5 206,-199.5 85,-199.5"/>
<text text-anchor="start" x="93" y="-217.5" font-family="Helvetica,sans-Serif" font-size="10.00" fill="#000000">type(wave_speed_cs)</text>
<text text-anchor="middle" x="145.5" y="-206.5" font-family="Helvetica,sans-Serif" font-size="10.00" fill="#000000">, pointer</text>
</a>
</g>
</g>
<!-- Node3&#45;&gt;Node1 -->
<g id="edge2" class="edge">
<title>Node3&#45;&gt;Node1</title>
<path fill="none" stroke="#9a32cd" stroke-dasharray="5,2" d="M143.6893,-189.0446C142.5967,-152.8226 146.3286,-86.6372 183.5,-49 195.2372,-37.1158 233.2109,-28.4269 266.359,-22.8802"/>
<polygon fill="#9a32cd" stroke="#9a32cd" points="140.203,-189.4276 144.1516,-199.2591 147.1958,-189.1111 140.203,-189.4276"/>
<text text-anchor="middle" x="226.5" y="-112.5" font-family="Helvetica,sans-Serif" font-size="10.00" fill="#000000"> wave_speed_csp</text>
</g>
<!-- Node4 -->
<g id="node4" class="node">
<title>Node4</title>
<g id="a_node4"><a xlink:title=" ">
<polygon fill="#ffffff" stroke="#bfbfbf" points="224.5,-205 224.5,-224 322.5,-224 322.5,-205 224.5,-205"/>
<text text-anchor="middle" x="273.5" y="-212" font-family="Helvetica,sans-Serif" font-size="10.00" fill="#000000">group_pass_type</text>
</a>
</g>
</g>
<!-- Node4&#45;&gt;Node1 -->
<g id="edge3" class="edge">
<title>Node4&#45;&gt;Node1</title>
<path fill="none" stroke="#9a32cd" stroke-dasharray="5,2" d="M273.6585,-194.5794C274.5301,-162.7235 278.8386,-98.8339 298.5,-49 301.0374,-42.5688 305.0026,-36.1522 308.9307,-30.6815"/>
<polygon fill="#9a32cd" stroke="#9a32cd" points="270.1554,-194.7183 273.4708,-204.781 277.1542,-194.8471 270.1554,-194.7183"/>
<text text-anchor="middle" x="323" y="-112.5" font-family="Helvetica,sans-Serif" font-size="10.00" fill="#000000"> pass_cg1</text>
</g>
<!-- Node5 -->
<g id="node5" class="node">
<title>Node5</title>
<g id="a_node5"><a xlink:title=" ">
<polygon fill="#ffffff" stroke="#bfbfbf" points="341,-205 341,-224 398,-224 398,-205 341,-205"/>
<text text-anchor="middle" x="369.5" y="-212" font-family="Helvetica,sans-Serif" font-size="10.00" fill="#000000">diag_ctrl</text>
</a>
</g>
</g>
<!-- Node5&#45;&gt;Node1 -->
<g id="edge4" class="edge">
<title>Node5&#45;&gt;Node1</title>
<path fill="none" stroke="#9a32cd" stroke-dasharray="5,2" d="M370.1392,-194.454C370.4486,-162.4248 368.1165,-98.3001 347.5,-49 344.7733,-42.4795 340.4353,-36.1385 336.078,-30.7592"/>
<polygon fill="#9a32cd" stroke="#9a32cd" points="366.6348,-194.6473 369.9348,-204.7151 373.6334,-194.7869 366.6348,-194.6473"/>
<text text-anchor="middle" x="381.5" y="-112.5" font-family="Helvetica,sans-Serif" font-size="10.00" fill="#000000"> diag</text>
</g>
<!-- Node6 -->
<g id="node6" class="node">
<title>Node6</title>
<g id="a_node6"><a xlink:title=" ">
<polygon fill="#ffffff" stroke="#bfbfbf" points="416.5,-205 416.5,-224 466.5,-224 466.5,-205 416.5,-205"/>
<text text-anchor="middle" x="441.5" y="-212" font-family="Helvetica,sans-Serif" font-size="10.00" fill="#000000">integer</text>
</a>
</g>
</g>
<!-- Node6&#45;&gt;Node1 -->
<g id="edge5" class="edge">
<title>Node6&#45;&gt;Node1</title>
<path fill="none" stroke="#9a32cd" stroke-dasharray="5,2" d="M434.2795,-195.4448C432.6117,-190.754 430.9137,-185.7217 429.5,-181 412.186,-123.1703 436.2377,-95.2973 397.5,-49 391.0228,-41.2588 382.4055,-35.2463 373.3026,-30.596"/>
<polygon fill="#9a32cd" stroke="#9a32cd" points="431.0251,-196.7361 437.7603,-204.9146 437.5954,-194.3211 431.0251,-196.7361"/>
<text text-anchor="middle" x="462.5" y="-173" font-family="Helvetica,sans-Serif" font-size="10.00" fill="#000000"> id_kh_v_qg</text>
<text text-anchor="middle" x="462.5" y="-162" font-family="Helvetica,sans-Serif" font-size="10.00" fill="#000000">id_s2_u</text>
<text text-anchor="middle" x="462.5" y="-151" font-family="Helvetica,sans-Serif" font-size="10.00" fill="#000000">id_s2_v</text>
<text text-anchor="middle" x="462.5" y="-140" font-family="Helvetica,sans-Serif" font-size="10.00" fill="#000000">id_n2_u</text>
<text text-anchor="start" x="429.5" y="-129" font-family="Helvetica,sans-Serif" font-size="10.00" fill="#000000">res_fn_power</text>
<text text-anchor="middle" x="462.5" y="-118" font-family="Helvetica,sans-Serif" font-size="10.00" fill="#000000">_khth</text>
<text text-anchor="middle" x="462.5" y="-107" font-family="Helvetica,sans-Serif" font-size="10.00" fill="#000000">id_n2_v</text>
<text text-anchor="middle" x="462.5" y="-96" font-family="Helvetica,sans-Serif" font-size="10.00" fill="#000000">id_l2u</text>
<text text-anchor="middle" x="462.5" y="-85" font-family="Helvetica,sans-Serif" font-size="10.00" fill="#000000">id_l2v</text>
<text text-anchor="middle" x="462.5" y="-74" font-family="Helvetica,sans-Serif" font-size="10.00" fill="#000000">varmix_ktop</text>
<text text-anchor="middle" x="462.5" y="-63" font-family="Helvetica,sans-Serif" font-size="10.00" fill="#000000">id_rd_dx</text>
<text text-anchor="middle" x="462.5" y="-52" font-family="Helvetica,sans-Serif" font-size="10.00" fill="#000000">...</text>
</g>
<!-- Node7 -->
<g id="node7" class="node">
<title>Node7</title>
<g id="a_node7"><a xlink:title=" ">
<polygon fill="#ffffff" stroke="#bfbfbf" points="500,-205 500,-224 535,-224 535,-205 500,-205"/>
<text text-anchor="middle" x="517.5" y="-212" font-family="Helvetica,sans-Serif" font-size="10.00" fill="#000000">real</text>
</a>
</g>
</g>
<!-- Node7&#45;&gt;Node1 -->
<g id="edge6" class="edge">
<title>Node7&#45;&gt;Node1</title>
<path fill="none" stroke="#9a32cd" stroke-dasharray="5,2" d="M521.5233,-194.4326C527.1912,-159.8164 533.0313,-88.7756 495.5,-49 479.5074,-32.051 421.5046,-23.4303 376.8157,-19.2164"/>
<polygon fill="#9a32cd" stroke="#9a32cd" points="518.006,-194.2146 519.6706,-204.6779 524.8943,-195.4603 518.006,-194.2146"/>
<text text-anchor="middle" x="562.5" y="-167.5" font-family="Helvetica,sans-Serif" font-size="10.00" fill="#000000"> beta_dx2_u</text>
<text text-anchor="middle" x="562.5" y="-156.5" font-family="Helvetica,sans-Serif" font-size="10.00" fill="#000000">beta_dx2_h</text>
<text text-anchor="middle" x="562.5" y="-145.5" font-family="Helvetica,sans-Serif" font-size="10.00" fill="#000000">sn_u</text>
<text text-anchor="middle" x="562.5" y="-134.5" font-family="Helvetica,sans-Serif" font-size="10.00" fill="#000000">f2_dx2_h</text>
<text text-anchor="middle" x="562.5" y="-123.5" font-family="Helvetica,sans-Serif" font-size="10.00" fill="#000000">beta_dx2_v</text>
<text text-anchor="middle" x="562.5" y="-112.5" font-family="Helvetica,sans-Serif" font-size="10.00" fill="#000000">sn_v</text>
<text text-anchor="middle" x="562.5" y="-101.5" font-family="Helvetica,sans-Serif" font-size="10.00" fill="#000000">res_coef_visc</text>
<text text-anchor="middle" x="562.5" y="-90.5" font-family="Helvetica,sans-Serif" font-size="10.00" fill="#000000">visbeck_l_scale</text>
<text text-anchor="middle" x="562.5" y="-79.5" font-family="Helvetica,sans-Serif" font-size="10.00" fill="#000000">res_fn_q</text>
<text text-anchor="middle" x="562.5" y="-68.5" font-family="Helvetica,sans-Serif" font-size="10.00" fill="#000000">visbeck_s_max</text>
<text text-anchor="middle" x="562.5" y="-57.5" font-family="Helvetica,sans-Serif" font-size="10.00" fill="#000000">...</text>
</g>
</g>
</svg>
        <g id="navigator" transform="translate(0 0)" fill="#404254">
                <rect fill="#f2f5e9" fill-opacity="0.5" stroke="#606060" stroke-width=".5" x="0" y="0" width="60" height="60"/>
                <use id="zoomplus" xlink:href="#zoomPlus" x="17" y="9" onmousedown="handleZoom(evt,'in')"/>
                <use id="zoomminus" xlink:href="#zoomMin" x="42" y="9" onmousedown="handleZoom(evt,'out')"/>
                <use id="reset" xlink:href="#resetDef" x="30" y="36" onmousedown="handleReset()"/>
                <g id="arrowUp" xlink:href="#dirArrow" transform="translate(30 24)" onmousedown="handlePan(0,-1)">
                  <use xlink:href="#rim" fill="#404040">
                        <set attributeName="fill" to="#808080" begin="arrowUp.mouseover" end="arrowUp.mouseout"/>
                  </use>
                  <path fill="none" stroke="white" stroke-width="1.5" d="M0,-3.0v7 M-2.5,-0.5L0,-3.0L2.5,-0.5"/>
                </g>
                <g id="arrowRight" xlink:href="#dirArrow" transform="rotate(90) translate(36 -43)" onmousedown="handlePan(1,0)">
                  <use xlink:href="#rim" fill="#404040">
                        <set attributeName="fill" to="#808080" begin="arrowRight.mouseover" end="arrowRight.mouseout"/>
                  </use>
                  <path fill="none" stroke="white" stroke-width="1.5" d="M0,-3.0v7 M-2.5,-0.5L0,-3.0L2.5,-0.5"/>
                </g>
                <g id="arrowDown" xlink:href="#dirArrow" transform="rotate(180) translate(-30 -48)" onmousedown="handlePan(0,1)">
                  <use xlink:href="#rim" fill="#404040">
                        <set attributeName="fill" to="#808080" begin="arrowDown.mouseover" end="arrowDown.mouseout"/>
                  </use>
                  <path fill="none" stroke="white" stroke-width="1.5" d="M0,-3.0v7 M-2.5,-0.5L0,-3.0L2.5,-0.5"/>
                </g>
                <g id="arrowLeft" xlink:href="#dirArrow" transform="rotate(270) translate(-36 17)" onmousedown="handlePan(-1,0)">
                  <use xlink:href="#rim" fill="#404040">
                        <set attributeName="fill" to="#808080" begin="arrowLeft.mouseover" end="arrowLeft.mouseout"/>
                  </use>
                  <path fill="none" stroke="white" stroke-width="1.5" d="M0,-3.0v7 M-2.5,-0.5L0,-3.0L2.5,-0.5"/>
                </g>
        </g>
        <svg viewBox="0 0 15 15" width="100%" height="30px" preserveAspectRatio="xMaxYMin meet">
         <g id="arrow_out" transform="scale(0.3 0.3)">
          <a xlink:href="structmom__lateral__mixing__coeffs_1_1varmix__cs__coll__graph_org.svg" target="_base">
           <rect id="button" ry="5" rx="5" y="6" x="6" height="38" width="38"
                fill="#f2f5e9" fill-opacity="0.5" stroke="#606060" stroke-width="1.0"/>
           <path id="arrow"
             d="M 11.500037,31.436501 C 11.940474,20.09759 22.043105,11.32322 32.158766,21.979434 L 37.068811,17.246167 C 37.068811,17.246167 37.088388,32 37.088388,32 L 22.160133,31.978069 C 22.160133,31.978069 26.997745,27.140456 26.997745,27.140456 C 18.528582,18.264221 13.291696,25.230495 11.500037,31.436501 z"
             style="fill:#404040;"/>
          </a>
         </g>
        </svg>
</svg>
