<?xml version="1.0" encoding="UTF-8" standalone="no"?>
<!DOCTYPE svg PUBLIC "-//W3C//DTD SVG 1.1//EN"
 "http://www.w3.org/Graphics/SVG/1.1/DTD/svg11.dtd">
<!-- Generated by graphviz version 2.40.1 (20161225.0304)
 -->
<!-- Title: mom_document::doc_type Pages: 1 -->
<!--zoomable 228 -->
<svg id="main" version="1.1" xmlns="http://www.w3.org/2000/svg" xmlns:xlink="http://www.w3.org/1999/xlink" xml:space="preserve" onload="init(evt)">
<style type="text/css"><![CDATA[
.edge:hover path { stroke: red; }
.edge:hover polygon { stroke: red; fill: red; }
]]></style>
<script type="text/javascript"><![CDATA[
var edges = document.getElementsByTagName('g');
if (edges && edges.length) {
  for (var i=0;i<edges.length;i++) {
    if (edges[i].id.substr(0,4)=='edge') {
      edges[i].setAttribute('class','edge');
    }
  }
}
]]></script>
        <defs>
                <circle id="rim" cx="0" cy="0" r="7"/>
                <circle id="rim2" cx="0" cy="0" r="3.5"/>
                <g id="zoomPlus">
                        <use xlink:href="#rim" fill="#404040">
                                <set attributeName="fill" to="#808080" begin="zoomplus.mouseover" end="zoomplus.mouseout"/>
                        </use>
                        <path d="M-4,0h8M0,-4v8" fill="none" stroke="white" stroke-width="1.5" pointer-events="none"/>
                </g>
                <g id="zoomMin">
                        <use xlink:href="#rim" fill="#404040">
                                <set attributeName="fill" to="#808080" begin="zoomminus.mouseover" end="zoomminus.mouseout"/>
                        </use>
                        <path d="M-4,0h8" fill="none" stroke="white" stroke-width="1.5" pointer-events="none"/>
                </g>
                <g id="dirArrow">
                        <path fill="none" stroke="white" stroke-width="1.5" d="M0,-3.0v7 M-2.5,-0.5L0,-3.0L2.5,-0.5"/>
                </g>
               <g id="resetDef">
                       <use xlink:href="#rim2" fill="#404040">
                               <set attributeName="fill" to="#808080" begin="reset.mouseover" end="reset.mouseout"/>
                       </use>
               </g>
        </defs>

<script type="text/javascript">
var viewWidth = 617;
var viewHeight = 228;
var sectionId = 'dynsection-0';
</script>
<script xlink:href="svgpan.js"/>
<svg id="graph" class="graph">
<g id="viewport">
<title>mom_document::doc_type</title>
<polygon fill="#ffffff" stroke="transparent" points="-4,4 -4,-224 613,-224 613,4 -4,4"/>
<!-- Node1 -->
<g id="node1" class="node">
<title>Node1</title>
<g id="a_node1"><a xlink:title="A structure that controls where the documentation occurs, its veborsity and formatting.">
<polygon fill="#bfbfbf" stroke="#000000" points="190.5,-.5 190.5,-19.5 329.5,-19.5 329.5,-.5 190.5,-.5"/>
<text text-anchor="middle" x="260" y="-7.5" font-family="Helvetica,sans-Serif" font-size="10.00" fill="#000000">mom_document::doc_type</text>
</a>
</g>
</g>
<!-- Node2 -->
<g id="node2" class="node">
<title>Node2</title>
<g id="a_node2"><a xlink:title=" ">
<polygon fill="#ffffff" stroke="#bfbfbf" points="0,-133.5 0,-152.5 108,-152.5 108,-133.5 0,-133.5"/>
<text text-anchor="middle" x="54" y="-140.5" font-family="Helvetica,sans-Serif" font-size="10.00" fill="#000000">character(len=240)</text>
</a>
</g>
</g>
<!-- Node2&#45;&gt;Node1 -->
<g id="edge1" class="edge">
<title>Node2&#45;&gt;Node1</title>
<path fill="none" stroke="#9a32cd" stroke-dasharray="5,2" d="M55.7261,-123.2902C58.941,-99.2662 68.0894,-59.2529 94,-38 108.7447,-25.9058 151.5937,-18.8659 190.0621,-14.8701"/>
<polygon fill="#9a32cd" stroke="#9a32cd" points="52.2328,-123.0367 54.6021,-133.3632 59.1896,-123.813 52.2328,-123.0367"/>
<text text-anchor="middle" x="121" y="-74" font-family="Helvetica,sans-Serif" font-size="10.00" fill="#000000"> blockprefix</text>
</g>
<!-- Node3 -->
<g id="node3" class="node">
<title>Node3</title>
<g id="a_node3"><a xlink:title=" ">
<polygon fill="#ffffff" stroke="#bfbfbf" points="126.5,-133.5 126.5,-152.5 173.5,-152.5 173.5,-133.5 126.5,-133.5"/>
<text text-anchor="middle" x="150" y="-140.5" font-family="Helvetica,sans-Serif" font-size="10.00" fill="#000000">logical</text>
</a>
</g>
</g>
<!-- Node3&#45;&gt;Node1 -->
<g id="edge2" class="edge">
<title>Node3&#45;&gt;Node1</title>
<path fill="none" stroke="#9a32cd" stroke-dasharray="5,2" d="M150.8379,-123.4195C152.8652,-100.1362 159.6375,-61.4819 182,-38 190.0371,-29.5606 200.797,-23.6586 211.7521,-19.5332"/>
<polygon fill="#9a32cd" stroke="#9a32cd" points="147.3401,-123.2727 150.1763,-133.4808 154.325,-123.7321 147.3401,-123.2727"/>
<text text-anchor="middle" x="219" y="-107" font-family="Helvetica,sans-Serif" font-size="10.00" fill="#000000"> complete</text>
<text text-anchor="middle" x="219" y="-96" font-family="Helvetica,sans-Serif" font-size="10.00" fill="#000000">filesareopen</text>
<text text-anchor="middle" x="219" y="-85" font-family="Helvetica,sans-Serif" font-size="10.00" fill="#000000">minimal</text>
<text text-anchor="middle" x="219" y="-74" font-family="Helvetica,sans-Serif" font-size="10.00" fill="#000000">warnonconflicts</text>
<text text-anchor="middle" x="219" y="-63" font-family="Helvetica,sans-Serif" font-size="10.00" fill="#000000">layout</text>
<text text-anchor="middle" x="219" y="-52" font-family="Helvetica,sans-Serif" font-size="10.00" fill="#000000">definesyntax</text>
<text text-anchor="middle" x="219" y="-41" font-family="Helvetica,sans-Serif" font-size="10.00" fill="#000000">debugging</text>
</g>
<!-- Node4 -->
<g id="node4" class="node">
<title>Node4</title>
<g id="a_node4"><a xlink:href="structmom__document_1_1link__msg.html" target="_top" xlink:title="A linked list of the parameter documentation messages that have been issued so far.">
<polygon fill="#ffffff" stroke="#000000" points="191.5,-133.5 191.5,-152.5 328.5,-152.5 328.5,-133.5 191.5,-133.5"/>
<text text-anchor="middle" x="260" y="-140.5" font-family="Helvetica,sans-Serif" font-size="10.00" fill="#000000">mom_document::link_msg</text>
</a>
</g>
</g>
<!-- Node4&#45;&gt;Node1 -->
<g id="edge3" class="edge">
<title>Node4&#45;&gt;Node1</title>
<path fill="none" stroke="#9a32cd" stroke-dasharray="5,2" d="M260,-123.3284C260,-94.4521 260,-41.6559 260,-19.8372"/>
<polygon fill="#9a32cd" stroke="#9a32cd" points="256.5001,-123.4349 260,-133.435 263.5001,-123.435 256.5001,-123.4349"/>
<text text-anchor="middle" x="287.5" y="-74" font-family="Helvetica,sans-Serif" font-size="10.00" fill="#000000"> chain_msg</text>
</g>
<!-- Node4&#45;&gt;Node4 -->
<g id="edge4" class="edge">
<title>Node4&#45;&gt;Node4</title>
<path fill="none" stroke="#9a32cd" stroke-dasharray="5,2" d="M338.5502,-147.2208C343.5096,-146.2287 346.5,-144.8218 346.5,-143 346.5,-140.1563 339.2134,-138.3234 328.5253,-137.5013"/>
<polygon fill="#9a32cd" stroke="#9a32cd" points="338.0024,-143.7622 328.5253,-148.4987 338.8877,-150.706 338.0024,-143.7622"/>
<text text-anchor="middle" x="358.5" y="-140.5" font-family="Helvetica,sans-Serif" font-size="10.00" fill="#000000"> next</text>
</g>
<!-- Node5 -->
<g id="node5" class="node">
<title>Node5</title>
<g id="a_node5"><a xlink:title=" ">
<polygon fill="#ffffff" stroke="#bfbfbf" points="144,-200.5 144,-219.5 252,-219.5 252,-200.5 144,-200.5"/>
<text text-anchor="middle" x="198" y="-207.5" font-family="Helvetica,sans-Serif" font-size="10.00" fill="#000000">character(len=620)</text>
</a>
</g>
</g>
<!-- Node5&#45;&gt;Node4 -->
<g id="edge5" class="edge">
<title>Node5&#45;&gt;Node4</title>
<path fill="none" stroke="#9a32cd" stroke-dasharray="5,2" d="M213.9953,-192.7147C225.8158,-179.941 241.4718,-163.0224 251.1334,-152.5817"/>
<polygon fill="#9a32cd" stroke="#9a32cd" points="211.1061,-190.6837 206.8831,-200.4005 216.2439,-195.4381 211.1061,-190.6837"/>
<text text-anchor="middle" x="243.5" y="-174" font-family="Helvetica,sans-Serif" font-size="10.00" fill="#000000"> msg</text>
</g>
<!-- Node6 -->
<g id="node6" class="node">
<title>Node6</title>
<g id="a_node6"><a xlink:title=" ">
<polygon fill="#ffffff" stroke="#bfbfbf" points="270,-200.5 270,-219.5 372,-219.5 372,-200.5 270,-200.5"/>
<text text-anchor="middle" x="321" y="-207.5" font-family="Helvetica,sans-Serif" font-size="10.00" fill="#000000">character(len=80)</text>
</a>
</g>
</g>
<!-- Node6&#45;&gt;Node4 -->
<g id="edge6" class="edge">
<title>Node6&#45;&gt;Node4</title>
<path fill="none" stroke="#9a32cd" stroke-dasharray="5,2" d="M305.2626,-192.7147C293.6329,-179.941 278.2293,-163.0224 268.7236,-152.5817"/>
<polygon fill="#9a32cd" stroke="#9a32cd" points="302.9399,-195.3624 312.2602,-200.4005 308.116,-190.6498 302.9399,-195.3624"/>
<text text-anchor="middle" x="309" y="-174" font-family="Helvetica,sans-Serif" font-size="10.00" fill="#000000"> name</text>
</g>
<!-- Node7 -->
<g id="node7" class="node">
<title>Node7</title>
<g id="a_node7"><a xlink:title=" ">
<polygon fill="#ffffff" stroke="#bfbfbf" points="388.5,-133.5 388.5,-152.5 501.5,-152.5 501.5,-133.5 388.5,-133.5"/>
<text text-anchor="middle" x="445" y="-140.5" font-family="Helvetica,sans-Serif" font-size="10.00" fill="#000000">character(len=mlen)</text>
</a>
</g>
</g>
<!-- Node7&#45;&gt;Node1 -->
<g id="edge7" class="edge">
<title>Node7&#45;&gt;Node1</title>
<path fill="none" stroke="#9a32cd" stroke-dasharray="5,2" d="M427.8794,-126.3034C404.6095,-104.2015 361.0605,-64.8954 319,-38 307.9196,-30.9147 294.7668,-24.5014 283.6947,-19.6059"/>
<polygon fill="#9a32cd" stroke="#9a32cd" points="425.5899,-128.9571 435.2288,-133.355 430.4362,-123.9061 425.5899,-128.9571"/>
<text text-anchor="middle" x="441.5" y="-74" font-family="Helvetica,sans-Serif" font-size="10.00" fill="#000000"> docfilebase</text>
</g>
<!-- Node8 -->
<g id="node8" class="node">
<title>Node8</title>
<g id="a_node8"><a xlink:title=" ">
<polygon fill="#ffffff" stroke="#bfbfbf" points="520,-133.5 520,-152.5 570,-152.5 570,-133.5 520,-133.5"/>
<text text-anchor="middle" x="545" y="-140.5" font-family="Helvetica,sans-Serif" font-size="10.00" fill="#000000">integer</text>
</a>
</g>
</g>
<!-- Node8&#45;&gt;Node1 -->
<g id="edge8" class="edge">
<title>Node8&#45;&gt;Node1</title>
<path fill="none" stroke="#9a32cd" stroke-dasharray="5,2" d="M537.8791,-123.8662C527.7244,-99.4985 506.6202,-58.142 474,-38 450.4077,-23.4325 382.5691,-16.3503 329.5292,-12.9673"/>
<polygon fill="#9a32cd" stroke="#9a32cd" points="534.7354,-125.434 541.6698,-133.4443 541.2442,-122.858 534.7354,-125.434"/>
<text text-anchor="middle" x="571" y="-101.5" font-family="Helvetica,sans-Serif" font-size="10.00" fill="#000000"> max_line_len</text>
<text text-anchor="middle" x="571" y="-90.5" font-family="Helvetica,sans-Serif" font-size="10.00" fill="#000000">unitdebugging</text>
<text text-anchor="middle" x="571" y="-79.5" font-family="Helvetica,sans-Serif" font-size="10.00" fill="#000000">unitshort</text>
<text text-anchor="middle" x="571" y="-68.5" font-family="Helvetica,sans-Serif" font-size="10.00" fill="#000000">commentcolumn</text>
<text text-anchor="middle" x="571" y="-57.5" font-family="Helvetica,sans-Serif" font-size="10.00" fill="#000000">unitall</text>
<text text-anchor="middle" x="571" y="-46.5" font-family="Helvetica,sans-Serif" font-size="10.00" fill="#000000">unitlayout</text>
</g>
</g>
</svg>
        <g id="navigator" transform="translate(0 0)" fill="#404254">
                <rect fill="#f2f5e9" fill-opacity="0.5" stroke="#606060" stroke-width=".5" x="0" y="0" width="60" height="60"/>
                <use id="zoomplus" xlink:href="#zoomPlus" x="17" y="9" onmousedown="handleZoom(evt,'in')"/>
                <use id="zoomminus" xlink:href="#zoomMin" x="42" y="9" onmousedown="handleZoom(evt,'out')"/>
                <use id="reset" xlink:href="#resetDef" x="30" y="36" onmousedown="handleReset()"/>
                <g id="arrowUp" xlink:href="#dirArrow" transform="translate(30 24)" onmousedown="handlePan(0,-1)">
                  <use xlink:href="#rim" fill="#404040">
                        <set attributeName="fill" to="#808080" begin="arrowUp.mouseover" end="arrowUp.mouseout"/>
                  </use>
                  <path fill="none" stroke="white" stroke-width="1.5" d="M0,-3.0v7 M-2.5,-0.5L0,-3.0L2.5,-0.5"/>
                </g>
                <g id="arrowRight" xlink:href="#dirArrow" transform="rotate(90) translate(36 -43)" onmousedown="handlePan(1,0)">
                  <use xlink:href="#rim" fill="#404040">
                        <set attributeName="fill" to="#808080" begin="arrowRight.mouseover" end="arrowRight.mouseout"/>
                  </use>
                  <path fill="none" stroke="white" stroke-width="1.5" d="M0,-3.0v7 M-2.5,-0.5L0,-3.0L2.5,-0.5"/>
                </g>
                <g id="arrowDown" xlink:href="#dirArrow" transform="rotate(180) translate(-30 -48)" onmousedown="handlePan(0,1)">
                  <use xlink:href="#rim" fill="#404040">
                        <set attributeName="fill" to="#808080" begin="arrowDown.mouseover" end="arrowDown.mouseout"/>
                  </use>
                  <path fill="none" stroke="white" stroke-width="1.5" d="M0,-3.0v7 M-2.5,-0.5L0,-3.0L2.5,-0.5"/>
                </g>
                <g id="arrowLeft" xlink:href="#dirArrow" transform="rotate(270) translate(-36 17)" onmousedown="handlePan(-1,0)">
                  <use xlink:href="#rim" fill="#404040">
                        <set attributeName="fill" to="#808080" begin="arrowLeft.mouseover" end="arrowLeft.mouseout"/>
                  </use>
                  <path fill="none" stroke="white" stroke-width="1.5" d="M0,-3.0v7 M-2.5,-0.5L0,-3.0L2.5,-0.5"/>
                </g>
        </g>
        <svg viewBox="0 0 15 15" width="100%" height="30px" preserveAspectRatio="xMaxYMin meet">
         <g id="arrow_out" transform="scale(0.3 0.3)">
          <a xlink:href="structmom__document_1_1doc__type__coll__graph_org.svg" target="_base">
           <rect id="button" ry="5" rx="5" y="6" x="6" height="38" width="38"
                fill="#f2f5e9" fill-opacity="0.5" stroke="#606060" stroke-width="1.0"/>
           <path id="arrow"
             d="M 11.500037,31.436501 C 11.940474,20.09759 22.043105,11.32322 32.158766,21.979434 L 37.068811,17.246167 C 37.068811,17.246167 37.088388,32 37.088388,32 L 22.160133,31.978069 C 22.160133,31.978069 26.997745,27.140456 26.997745,27.140456 C 18.528582,18.264221 13.291696,25.230495 11.500037,31.436501 z"
             style="fill:#404040;"/>
          </a>
         </g>
        </svg>
</svg>
