<?xml version="1.0" encoding="UTF-8" standalone="no"?>
<!DOCTYPE svg PUBLIC "-//W3C//DTD SVG 1.1//EN"
 "http://www.w3.org/Graphics/SVG/1.1/DTD/svg11.dtd">
<!-- Generated by graphviz version 2.40.1 (20161225.0304)
 -->
<!-- Title: mom_ale_sponge::ale_sponge_cs Pages: 1 -->
<svg width="695pt" height="351pt"
 viewBox="0.00 0.00 695.00 351.00" xmlns="http://www.w3.org/2000/svg" xmlns:xlink="http://www.w3.org/1999/xlink">
<g id="graph0" class="graph" transform="scale(1 1) rotate(0) translate(4 347)">
<title>mom_ale_sponge::ale_sponge_cs</title>
<polygon fill="#ffffff" stroke="transparent" points="-4,4 -4,-347 691,-347 691,4 -4,4"/>
<!-- Node1 -->
<g id="node1" class="node">
<title>Node1</title>
<g id="a_node1"><a xlink:title="ALE sponge control structure.">
<polygon fill="#bfbfbf" stroke="#000000" points="279,-.5 279,-30.5 398,-30.5 398,-.5 279,-.5"/>
<text text-anchor="start" x="287" y="-18.5" font-family="Helvetica,sans-Serif" font-size="10.00" fill="#000000">mom_ale_sponge::ale</text>
<text text-anchor="middle" x="338.5" y="-7.5" font-family="Helvetica,sans-Serif" font-size="10.00" fill="#000000">_sponge_cs</text>
</a>
</g>
</g>
<!-- Node2 -->
<g id="node2" class="node">
<title>Node2</title>
<g id="a_node2"><a xlink:title=" ">
<polygon fill="#ffffff" stroke="#bfbfbf" points="0,-184 0,-203 47,-203 47,-184 0,-184"/>
<text text-anchor="middle" x="23.5" y="-191" font-family="Helvetica,sans-Serif" font-size="10.00" fill="#000000">logical</text>
</a>
</g>
</g>
<!-- Node2&#45;&gt;Node1 -->
<g id="edge1" class="edge">
<title>Node2&#45;&gt;Node1</title>
<path fill="none" stroke="#9a32cd" stroke-dasharray="5,2" d="M17.2165,-173.826C8.6876,-142.8594 -2.1257,-82.8017 29.5,-49 46.182,-31.1702 193.7416,-21.8064 278.7705,-17.8502"/>
<polygon fill="#9a32cd" stroke="#9a32cd" points="13.9789,-175.2202 20.1725,-183.8161 20.6912,-173.234 13.9789,-175.2202"/>
<text text-anchor="middle" x="63" y="-85" font-family="Helvetica,sans-Serif" font-size="10.00" fill="#000000"> sponge_uv</text>
<text text-anchor="middle" x="63" y="-74" font-family="Helvetica,sans-Serif" font-size="10.00" fill="#000000">new_sponges</text>
</g>
<!-- Node3 -->
<g id="node3" class="node">
<title>Node3</title>
<g id="a_node3"><a xlink:title=" ">
<polygon fill="#ffffff" stroke="#bfbfbf" points="68,-184 68,-203 151,-203 151,-184 68,-184"/>
<text text-anchor="middle" x="109.5" y="-191" font-family="Helvetica,sans-Serif" font-size="10.00" fill="#000000">remapping_cs</text>
</a>
</g>
</g>
<!-- Node3&#45;&gt;Node1 -->
<g id="edge2" class="edge">
<title>Node3&#45;&gt;Node1</title>
<path fill="none" stroke="#9a32cd" stroke-dasharray="5,2" d="M104.6831,-173.8246C98.3905,-142.8558 91.6096,-82.7954 123.5,-49 134.0975,-37.7694 218.8572,-27.2195 278.7258,-21.0617"/>
<polygon fill="#9a32cd" stroke="#9a32cd" points="101.3178,-174.8146 106.9069,-183.8153 108.1506,-173.2937 101.3178,-174.8146"/>
<text text-anchor="middle" x="148.5" y="-79.5" font-family="Helvetica,sans-Serif" font-size="10.00" fill="#000000"> remap_cs</text>
</g>
<!-- Node4 -->
<g id="node4" class="node">
<title>Node4</title>
<g id="a_node4"><a xlink:href="structmom__ale__sponge_1_1p2d.html" target="_top" xlink:title="A structure for creating arrays of pointers to 2D arrays with extra gridding information.">
<polygon fill="#ffffff" stroke="#000000" points="277,-184 277,-203 400,-203 400,-184 277,-184"/>
<text text-anchor="middle" x="338.5" y="-191" font-family="Helvetica,sans-Serif" font-size="10.00" fill="#000000">mom_ale_sponge::p2d</text>
</a>
</g>
</g>
<!-- Node4&#45;&gt;Node1 -->
<g id="edge3" class="edge">
<title>Node4&#45;&gt;Node1</title>
<path fill="none" stroke="#9a32cd" stroke-dasharray="5,2" d="M338.5,-173.7746C338.5,-137.9279 338.5,-62.8364 338.5,-30.6618"/>
<polygon fill="#9a32cd" stroke="#9a32cd" points="335.0001,-173.9299 338.5,-183.9299 342.0001,-173.93 335.0001,-173.9299"/>
<text text-anchor="middle" x="362" y="-107" font-family="Helvetica,sans-Serif" font-size="10.00" fill="#000000"> ref_val_u</text>
<text text-anchor="middle" x="362" y="-96" font-family="Helvetica,sans-Serif" font-size="10.00" fill="#000000">ref_val_v</text>
<text text-anchor="middle" x="362" y="-85" font-family="Helvetica,sans-Serif" font-size="10.00" fill="#000000">ref_h</text>
<text text-anchor="middle" x="362" y="-74" font-family="Helvetica,sans-Serif" font-size="10.00" fill="#000000">ref_hu</text>
<text text-anchor="middle" x="362" y="-63" font-family="Helvetica,sans-Serif" font-size="10.00" fill="#000000">ref_val</text>
<text text-anchor="middle" x="362" y="-52" font-family="Helvetica,sans-Serif" font-size="10.00" fill="#000000">ref_hv</text>
</g>
<!-- Node5 -->
<g id="node5" class="node">
<title>Node5</title>
<g id="a_node5"><a xlink:title=" ">
<polygon fill="#ffffff" stroke="#bfbfbf" points="282,-323.5 282,-342.5 317,-342.5 317,-323.5 282,-323.5"/>
<text text-anchor="middle" x="299.5" y="-330.5" font-family="Helvetica,sans-Serif" font-size="10.00" fill="#000000">real</text>
</a>
</g>
</g>
<!-- Node5&#45;&gt;Node1 -->
<g id="edge10" class="edge">
<title>Node5&#45;&gt;Node1</title>
<path fill="none" stroke="#9a32cd" stroke-dasharray="5,2" d="M272.7101,-321.1771C247.8054,-308.5483 212.2543,-285.938 196.5,-254 172.7096,-205.7707 173.6053,-181.6609 196.5,-133 219.3178,-84.5025 273.0672,-49.1663 307.5029,-30.5305"/>
<polygon fill="#9a32cd" stroke="#9a32cd" points="271.4687,-324.4648 281.994,-325.677 274.522,-318.1657 271.4687,-324.4648"/>
<text text-anchor="middle" x="232" y="-202" font-family="Helvetica,sans-Serif" font-size="10.00" fill="#000000"> iresttime_col</text>
<text text-anchor="middle" x="232" y="-191" font-family="Helvetica,sans-Serif" font-size="10.00" fill="#000000">iresttime_col_u</text>
<text text-anchor="middle" x="232" y="-180" font-family="Helvetica,sans-Serif" font-size="10.00" fill="#000000">iresttime_col_v</text>
</g>
<!-- Node5&#45;&gt;Node4 -->
<g id="edge4" class="edge">
<title>Node5&#45;&gt;Node4</title>
<path fill="none" stroke="#9a32cd" stroke-dasharray="5,2" d="M297.6763,-313.0451C297.1034,-300.9983 297.3041,-285.4306 300.5,-272 306.8091,-245.486 323.0327,-217.4481 332.1093,-203.1374"/>
<polygon fill="#9a32cd" stroke="#9a32cd" points="294.2062,-313.5979 298.3902,-323.3316 301.1894,-313.1132 294.2062,-313.5979"/>
<text text-anchor="middle" x="320.5" y="-297" font-family="Helvetica,sans-Serif" font-size="10.00" fill="#000000"> h</text>
<text text-anchor="middle" x="320.5" y="-286" font-family="Helvetica,sans-Serif" font-size="10.00" fill="#000000">p</text>
<text text-anchor="middle" x="320.5" y="-275" font-family="Helvetica,sans-Serif" font-size="10.00" fill="#000000">mask_in</text>
</g>
<!-- Node7 -->
<g id="node7" class="node">
<title>Node7</title>
<g id="a_node7"><a xlink:href="structmom__ale__sponge_1_1p3d.html" target="_top" xlink:title="A structure for creating arrays of pointers to 3D arrays with extra gridding information.">
<polygon fill="#ffffff" stroke="#000000" points="418,-184 418,-203 541,-203 541,-184 418,-184"/>
<text text-anchor="middle" x="479.5" y="-191" font-family="Helvetica,sans-Serif" font-size="10.00" fill="#000000">mom_ale_sponge::p3d</text>
</a>
</g>
</g>
<!-- Node5&#45;&gt;Node7 -->
<g id="edge7" class="edge">
<title>Node5&#45;&gt;Node7</title>
<path fill="none" stroke="#9a32cd" stroke-dasharray="5,2" d="M325.839,-317.6143C331.0494,-313.881 336.2229,-309.6188 340.5,-305 351.999,-292.5825 346.5229,-282.8635 359.5,-272 377.6103,-256.8394 389.1117,-265.9224 409.5,-254 433.9042,-239.7292 457.8386,-216.4851 470.4143,-203.3511"/>
<polygon fill="#9a32cd" stroke="#9a32cd" points="323.5764,-314.9156 317.1872,-323.3672 327.4524,-320.7446 323.5764,-314.9156"/>
<text text-anchor="middle" x="379.5" y="-297" font-family="Helvetica,sans-Serif" font-size="10.00" fill="#000000"> h</text>
<text text-anchor="middle" x="379.5" y="-286" font-family="Helvetica,sans-Serif" font-size="10.00" fill="#000000">p</text>
<text text-anchor="middle" x="379.5" y="-275" font-family="Helvetica,sans-Serif" font-size="10.00" fill="#000000">mask_in</text>
</g>
<!-- Node6 -->
<g id="node6" class="node">
<title>Node6</title>
<g id="a_node6"><a xlink:title=" ">
<polygon fill="#ffffff" stroke="#bfbfbf" points="471.5,-323.5 471.5,-342.5 521.5,-342.5 521.5,-323.5 471.5,-323.5"/>
<text text-anchor="middle" x="496.5" y="-330.5" font-family="Helvetica,sans-Serif" font-size="10.00" fill="#000000">integer</text>
</a>
</g>
</g>
<!-- Node6&#45;&gt;Node1 -->
<g id="edge11" class="edge">
<title>Node6&#45;&gt;Node1</title>
<path fill="none" stroke="#9a32cd" stroke-dasharray="5,2" d="M530.4217,-318.6892C535.894,-314.9814 540.9267,-310.455 544.5,-305 564.1103,-275.0627 563.0517,-164.3793 550.5,-133 531.3527,-85.1319 515.0043,-75.0258 470.5,-49 448.5598,-36.1695 421.7698,-28.2075 398.0719,-23.2875"/>
<polygon fill="#9a32cd" stroke="#9a32cd" points="528.463,-315.7804 521.6071,-323.8579 532.0039,-321.8188 528.463,-315.7804"/>
<text text-anchor="middle" x="576.5" y="-246" font-family="Helvetica,sans-Serif" font-size="10.00" fill="#000000"> iec</text>
<text text-anchor="middle" x="576.5" y="-235" font-family="Helvetica,sans-Serif" font-size="10.00" fill="#000000">ied</text>
<text text-anchor="middle" x="576.5" y="-224" font-family="Helvetica,sans-Serif" font-size="10.00" fill="#000000">jec</text>
<text text-anchor="middle" x="576.5" y="-213" font-family="Helvetica,sans-Serif" font-size="10.00" fill="#000000">jed</text>
<text text-anchor="middle" x="576.5" y="-202" font-family="Helvetica,sans-Serif" font-size="10.00" fill="#000000">col_i_u</text>
<text text-anchor="middle" x="576.5" y="-191" font-family="Helvetica,sans-Serif" font-size="10.00" fill="#000000">col_i</text>
<text text-anchor="middle" x="576.5" y="-180" font-family="Helvetica,sans-Serif" font-size="10.00" fill="#000000">isc</text>
<text text-anchor="middle" x="576.5" y="-169" font-family="Helvetica,sans-Serif" font-size="10.00" fill="#000000">col_i_v</text>
<text text-anchor="middle" x="576.5" y="-158" font-family="Helvetica,sans-Serif" font-size="10.00" fill="#000000">col_j_u</text>
<text text-anchor="middle" x="576.5" y="-147" font-family="Helvetica,sans-Serif" font-size="10.00" fill="#000000">col_j</text>
<text text-anchor="middle" x="576.5" y="-136" font-family="Helvetica,sans-Serif" font-size="10.00" fill="#000000">...</text>
</g>
<!-- Node6&#45;&gt;Node4 -->
<g id="edge5" class="edge">
<title>Node6&#45;&gt;Node4</title>
<path fill="none" stroke="#9a32cd" stroke-dasharray="5,2" d="M462.1186,-319.5284C453.6826,-315.472 444.9447,-310.5882 437.5,-305 416.2793,-289.071 365.561,-227.1538 346.1952,-203.1159"/>
<polygon fill="#9a32cd" stroke="#9a32cd" points="460.8768,-322.8083 471.4297,-323.75 463.7674,-316.4329 460.8768,-322.8083"/>
<text text-anchor="middle" x="461.5" y="-297" font-family="Helvetica,sans-Serif" font-size="10.00" fill="#000000"> id</text>
<text text-anchor="middle" x="461.5" y="-286" font-family="Helvetica,sans-Serif" font-size="10.00" fill="#000000">num_tlevs</text>
<text text-anchor="middle" x="461.5" y="-275" font-family="Helvetica,sans-Serif" font-size="10.00" fill="#000000">nz_data</text>
</g>
<!-- Node6&#45;&gt;Node7 -->
<g id="edge8" class="edge">
<title>Node6&#45;&gt;Node7</title>
<path fill="none" stroke="#9a32cd" stroke-dasharray="5,2" d="M494.0864,-313.1945C490.3833,-282.8067 483.4388,-225.8209 480.6767,-203.1555"/>
<polygon fill="#9a32cd" stroke="#9a32cd" points="490.6474,-313.9085 495.3315,-323.4116 497.596,-313.0616 490.6474,-313.9085"/>
<text text-anchor="middle" x="516.5" y="-297" font-family="Helvetica,sans-Serif" font-size="10.00" fill="#000000"> id</text>
<text text-anchor="middle" x="516.5" y="-286" font-family="Helvetica,sans-Serif" font-size="10.00" fill="#000000">num_tlevs</text>
<text text-anchor="middle" x="516.5" y="-275" font-family="Helvetica,sans-Serif" font-size="10.00" fill="#000000">nz_data</text>
</g>
<!-- Node7&#45;&gt;Node1 -->
<g id="edge6" class="edge">
<title>Node7&#45;&gt;Node1</title>
<path fill="none" stroke="#9a32cd" stroke-dasharray="5,2" d="M471.0211,-174.5755C457.1596,-145.1495 427.3579,-87.7831 389.5,-49 382.6922,-42.0259 374.1909,-35.7378 366.0924,-30.5435"/>
<polygon fill="#9a32cd" stroke="#9a32cd" points="467.8817,-176.1258 475.2464,-183.7423 474.2389,-173.1955 467.8817,-176.1258"/>
<text text-anchor="middle" x="451.5" y="-90.5" font-family="Helvetica,sans-Serif" font-size="10.00" fill="#000000"> var_u</text>
<text text-anchor="middle" x="451.5" y="-79.5" font-family="Helvetica,sans-Serif" font-size="10.00" fill="#000000">var_v</text>
<text text-anchor="middle" x="451.5" y="-68.5" font-family="Helvetica,sans-Serif" font-size="10.00" fill="#000000">var</text>
</g>
<!-- Node8 -->
<g id="node8" class="node">
<title>Node8</title>
<g id="a_node8"><a xlink:title=" ">
<polygon fill="#ffffff" stroke="#bfbfbf" points="630,-184 630,-203 687,-203 687,-184 630,-184"/>
<text text-anchor="middle" x="658.5" y="-191" font-family="Helvetica,sans-Serif" font-size="10.00" fill="#000000">diag_ctrl</text>
</a>
</g>
</g>
<!-- Node8&#45;&gt;Node1 -->
<g id="edge9" class="edge">
<title>Node8&#45;&gt;Node1</title>
<path fill="none" stroke="#9a32cd" stroke-dasharray="5,2" d="M655.5109,-173.8639C649.539,-141.9877 632.9476,-79.4837 591.5,-49 576.219,-37.7612 468.1679,-26.5678 398.301,-20.3884"/>
<polygon fill="#9a32cd" stroke="#9a32cd" points="652.0675,-174.4924 657.2037,-183.7589 658.9673,-173.3119 652.0675,-174.4924"/>
<text text-anchor="middle" x="649.5" y="-79.5" font-family="Helvetica,sans-Serif" font-size="10.00" fill="#000000"> diag</text>
</g>
</g>
</svg>
