<?xml version="1.0" encoding="UTF-8" standalone="no"?>
<!DOCTYPE svg PUBLIC "-//W3C//DTD SVG 1.1//EN"
 "http://www.w3.org/Graphics/SVG/1.1/DTD/svg11.dtd">
<!-- Generated by graphviz version 2.40.1 (20161225.0304)
 -->
<!-- Title: mom_continuity_ppm::continuity_ppm_cs Pages: 1 -->
<svg width="273pt" height="183pt"
 viewBox="0.00 0.00 272.50 183.00" xmlns="http://www.w3.org/2000/svg" xmlns:xlink="http://www.w3.org/1999/xlink">
<g id="graph0" class="graph" transform="scale(1 1) rotate(0) translate(4 179)">
<title>mom_continuity_ppm::continuity_ppm_cs</title>
<polygon fill="#ffffff" stroke="transparent" points="-4,4 -4,-179 268.5,-179 268.5,4 -4,4"/>
<!-- Node1 -->
<g id="node1" class="node">
<title>Node1</title>
<g id="a_node1"><a xlink:title="Control structure for mom_continuity_ppm.">
<polygon fill="#bfbfbf" stroke="#000000" points="79.5,-.5 79.5,-30.5 195.5,-30.5 195.5,-.5 79.5,-.5"/>
<text text-anchor="start" x="87.5" y="-18.5" font-family="Helvetica,sans-Serif" font-size="10.00" fill="#000000">mom_continuity_ppm</text>
<text text-anchor="middle" x="137.5" y="-7.5" font-family="Helvetica,sans-Serif" font-size="10.00" fill="#000000">::continuity_ppm_cs</text>
</a>
</g>
</g>
<!-- Node2 -->
<g id="node2" class="node">
<title>Node2</title>
<g id="a_node2"><a xlink:title=" ">
<polygon fill="#ffffff" stroke="#bfbfbf" points="0,-155.5 0,-174.5 47,-174.5 47,-155.5 0,-155.5"/>
<text text-anchor="middle" x="23.5" y="-162.5" font-family="Helvetica,sans-Serif" font-size="10.00" fill="#000000">logical</text>
</a>
</g>
</g>
<!-- Node2&#45;&gt;Node1 -->
<g id="edge1" class="edge">
<title>Node2&#45;&gt;Node1</title>
<path fill="none" stroke="#9a32cd" stroke-dasharray="5,2" d="M21.064,-145.054C19.1231,-119.7474 19.7782,-76.1375 42.5,-49 48.0013,-42.4296 63.2124,-35.9804 79.8932,-30.5225"/>
<polygon fill="#9a32cd" stroke="#9a32cd" points="17.6065,-145.659 22.0684,-155.2685 24.5729,-144.9739 17.6065,-145.659"/>
<text text-anchor="middle" x="88" y="-129" font-family="Helvetica,sans-Serif" font-size="10.00" fill="#000000"> aggress_adjust</text>
<text text-anchor="middle" x="88" y="-118" font-family="Helvetica,sans-Serif" font-size="10.00" fill="#000000">monotonic</text>
<text text-anchor="middle" x="88" y="-107" font-family="Helvetica,sans-Serif" font-size="10.00" fill="#000000">simple_2nd</text>
<text text-anchor="middle" x="88" y="-96" font-family="Helvetica,sans-Serif" font-size="10.00" fill="#000000">better_iter</text>
<text text-anchor="middle" x="88" y="-85" font-family="Helvetica,sans-Serif" font-size="10.00" fill="#000000">upwind_1st</text>
<text text-anchor="middle" x="88" y="-74" font-family="Helvetica,sans-Serif" font-size="10.00" fill="#000000">marginal_faces</text>
<text text-anchor="middle" x="88" y="-63" font-family="Helvetica,sans-Serif" font-size="10.00" fill="#000000">vol_cfl</text>
<text text-anchor="middle" x="88" y="-52" font-family="Helvetica,sans-Serif" font-size="10.00" fill="#000000">use_visc_rem_max</text>
</g>
<!-- Node3 -->
<g id="node3" class="node">
<title>Node3</title>
<g id="a_node3"><a xlink:title=" ">
<polygon fill="#ffffff" stroke="#bfbfbf" points="109,-155.5 109,-174.5 166,-174.5 166,-155.5 109,-155.5"/>
<text text-anchor="middle" x="137.5" y="-162.5" font-family="Helvetica,sans-Serif" font-size="10.00" fill="#000000">diag_ctrl</text>
</a>
</g>
</g>
<!-- Node3&#45;&gt;Node1 -->
<g id="edge2" class="edge">
<title>Node3&#45;&gt;Node1</title>
<path fill="none" stroke="#9a32cd" stroke-dasharray="5,2" d="M137.5,-145.0029C137.5,-114.7234 137.5,-57.8989 137.5,-30.727"/>
<polygon fill="#9a32cd" stroke="#9a32cd" points="134.0001,-145.1909 137.5,-155.1909 141.0001,-145.1909 134.0001,-145.1909"/>
<text text-anchor="middle" x="149.5" y="-90.5" font-family="Helvetica,sans-Serif" font-size="10.00" fill="#000000"> diag</text>
</g>
<!-- Node4 -->
<g id="node4" class="node">
<title>Node4</title>
<g id="a_node4"><a xlink:title=" ">
<polygon fill="#ffffff" stroke="#bfbfbf" points="184,-155.5 184,-174.5 219,-174.5 219,-155.5 184,-155.5"/>
<text text-anchor="middle" x="201.5" y="-162.5" font-family="Helvetica,sans-Serif" font-size="10.00" fill="#000000">real</text>
</a>
</g>
</g>
<!-- Node4&#45;&gt;Node1 -->
<g id="edge3" class="edge">
<title>Node4&#45;&gt;Node1</title>
<path fill="none" stroke="#9a32cd" stroke-dasharray="5,2" d="M197.9254,-145.5716C193.0036,-121.7532 182.7344,-80.6555 165.5,-49 161.948,-42.4759 157.0123,-36.0375 152.2727,-30.5753"/>
<polygon fill="#9a32cd" stroke="#9a32cd" points="194.5097,-146.3417 199.8679,-155.4817 201.3789,-144.9952 194.5097,-146.3417"/>
<text text-anchor="middle" x="230" y="-107" font-family="Helvetica,sans-Serif" font-size="10.00" fill="#000000"> tol_eta_aux</text>
<text text-anchor="middle" x="230" y="-96" font-family="Helvetica,sans-Serif" font-size="10.00" fill="#000000">tol_eta</text>
<text text-anchor="middle" x="230" y="-85" font-family="Helvetica,sans-Serif" font-size="10.00" fill="#000000">cfl_limit_adjust</text>
<text text-anchor="middle" x="230" y="-74" font-family="Helvetica,sans-Serif" font-size="10.00" fill="#000000">tol_vel</text>
</g>
</g>
</svg>
