<?xml version="1.0" encoding="UTF-8" standalone="no"?>
<!DOCTYPE svg PUBLIC "-//W3C//DTD SVG 1.1//EN"
 "http://www.w3.org/Graphics/SVG/1.1/DTD/svg11.dtd">
<!-- Generated by graphviz version 2.40.1 (20161225.0304)
 -->
<!-- Title: mom_set_diffusivity::diffusivity_diags Pages: 1 -->
<svg width="116pt" height="183pt"
 viewBox="0.00 0.00 116.00 183.00" xmlns="http://www.w3.org/2000/svg" xmlns:xlink="http://www.w3.org/1999/xlink">
<g id="graph0" class="graph" transform="scale(1 1) rotate(0) translate(4 179)">
<title>mom_set_diffusivity::diffusivity_diags</title>
<polygon fill="#ffffff" stroke="transparent" points="-4,4 -4,-179 112,-179 112,4 -4,4"/>
<!-- Node1 -->
<g id="node1" class="node">
<title>Node1</title>
<g id="a_node1"><a xlink:title="This structure has memory for used in calculating diagnostics of diffusivity.">
<polygon fill="#bfbfbf" stroke="#000000" points="0,-.5 0,-30.5 108,-30.5 108,-.5 0,-.5"/>
<text text-anchor="start" x="8" y="-18.5" font-family="Helvetica,sans-Serif" font-size="10.00" fill="#000000">mom_set_diffusivity</text>
<text text-anchor="middle" x="54" y="-7.5" font-family="Helvetica,sans-Serif" font-size="10.00" fill="#000000">::diffusivity_diags</text>
</a>
</g>
</g>
<!-- Node2 -->
<g id="node2" class="node">
<title>Node2</title>
<g id="a_node2"><a xlink:title=" ">
<polygon fill="#ffffff" stroke="#bfbfbf" points="36.5,-155.5 36.5,-174.5 71.5,-174.5 71.5,-155.5 36.5,-155.5"/>
<text text-anchor="middle" x="54" y="-162.5" font-family="Helvetica,sans-Serif" font-size="10.00" fill="#000000">real</text>
</a>
</g>
</g>
<!-- Node2&#45;&gt;Node1 -->
<g id="edge1" class="edge">
<title>Node2&#45;&gt;Node1</title>
<path fill="none" stroke="#9a32cd" stroke-dasharray="5,2" d="M54,-145.0029C54,-114.7234 54,-57.8989 54,-30.727"/>
<polygon fill="#9a32cd" stroke="#9a32cd" points="50.5001,-145.1909 54,-155.1909 57.5001,-145.1909 50.5001,-145.1909"/>
<text text-anchor="middle" x="77.5" y="-129" font-family="Helvetica,sans-Serif" font-size="10.00" fill="#000000"> n2_3d</text>
<text text-anchor="middle" x="77.5" y="-118" font-family="Helvetica,sans-Serif" font-size="10.00" fill="#000000">kd_work</text>
<text text-anchor="middle" x="77.5" y="-107" font-family="Helvetica,sans-Serif" font-size="10.00" fill="#000000">kd_user</text>
<text text-anchor="middle" x="77.5" y="-96" font-family="Helvetica,sans-Serif" font-size="10.00" fill="#000000">ks_extra</text>
<text text-anchor="middle" x="77.5" y="-85" font-family="Helvetica,sans-Serif" font-size="10.00" fill="#000000">kt_extra</text>
<text text-anchor="middle" x="77.5" y="-74" font-family="Helvetica,sans-Serif" font-size="10.00" fill="#000000">kd_bbl</text>
<text text-anchor="middle" x="77.5" y="-63" font-family="Helvetica,sans-Serif" font-size="10.00" fill="#000000">maxtke</text>
<text text-anchor="middle" x="77.5" y="-52" font-family="Helvetica,sans-Serif" font-size="10.00" fill="#000000">tke_to_kd</text>
</g>
</g>
</svg>
