<?xml version="1.0" encoding="UTF-8" standalone="no"?>
<!DOCTYPE svg PUBLIC "-//W3C//DTD SVG 1.1//EN"
 "http://www.w3.org/Graphics/SVG/1.1/DTD/svg11.dtd">
<!-- Generated by graphviz version 2.40.1 (20161225.0304)
 -->
<!-- Title: isomip_tracer::isomip_tracer_cs Pages: 1 -->
<svg width="347pt" height="303pt"
 viewBox="0.00 0.00 347.00 303.00" xmlns="http://www.w3.org/2000/svg" xmlns:xlink="http://www.w3.org/1999/xlink">
<g id="graph0" class="graph" transform="scale(1 1) rotate(0) translate(4 299)">
<title>isomip_tracer::isomip_tracer_cs</title>
<polygon fill="#ffffff" stroke="transparent" points="-4,4 -4,-299 343,-299 343,4 -4,4"/>
<!-- Node1 -->
<g id="node1" class="node">
<title>Node1</title>
<g id="a_node1"><a xlink:title="ISOMIP tracer package control structure.">
<polygon fill="#bfbfbf" stroke="#000000" points="224,-133 224,-163 339,-163 339,-133 224,-133"/>
<text text-anchor="start" x="232" y="-151" font-family="Helvetica,sans-Serif" font-size="10.00" fill="#000000">isomip_tracer::isomip</text>
<text text-anchor="middle" x="281.5" y="-140" font-family="Helvetica,sans-Serif" font-size="10.00" fill="#000000">_tracer_cs</text>
</a>
</g>
</g>
<!-- Node2 -->
<g id="node2" class="node">
<title>Node2</title>
<g id="a_node2"><a xlink:title=" ">
<polygon fill="#ffffff" stroke="#bfbfbf" points="32.5,-271.5 32.5,-290.5 79.5,-290.5 79.5,-271.5 32.5,-271.5"/>
<text text-anchor="middle" x="56" y="-278.5" font-family="Helvetica,sans-Serif" font-size="10.00" fill="#000000">logical</text>
</a>
</g>
</g>
<!-- Node2&#45;&gt;Node1 -->
<g id="edge1" class="edge">
<title>Node2&#45;&gt;Node1</title>
<path fill="none" stroke="#9a32cd" stroke-dasharray="5,2" d="M89.9688,-279.5507C122.1367,-276.759 170.6437,-268.752 206,-246 238.5099,-225.0797 262.6288,-185.1288 274.0842,-163.2519"/>
<polygon fill="#9a32cd" stroke="#9a32cd" points="89.4419,-276.0801 79.7287,-280.3113 89.9605,-283.0608 89.4419,-276.0801"/>
<text text-anchor="middle" x="168" y="-287" font-family="Helvetica,sans-Serif" font-size="10.00" fill="#000000"> use_sponge</text>
<text text-anchor="middle" x="168" y="-276" font-family="Helvetica,sans-Serif" font-size="10.00" fill="#000000">coupled_tracers</text>
</g>
<!-- Node3 -->
<g id="node3" class="node">
<title>Node3</title>
<g id="a_node3"><a xlink:title=" ">
<polygon fill="#ffffff" stroke="#bfbfbf" points="25,-233.5 25,-252.5 87,-252.5 87,-233.5 25,-233.5"/>
<text text-anchor="middle" x="56" y="-240.5" font-family="Helvetica,sans-Serif" font-size="10.00" fill="#000000">time_type</text>
</a>
</g>
</g>
<!-- Node3&#45;&gt;Node1 -->
<g id="edge2" class="edge">
<title>Node3&#45;&gt;Node1</title>
<path fill="none" stroke="#9a32cd" stroke-dasharray="5,2" d="M97.187,-237.5394C128.2344,-232.3264 171.2555,-222.717 206,-206 228.9376,-194.9638 251.6001,-176.2166 266.018,-163.0295"/>
<polygon fill="#9a32cd" stroke="#9a32cd" points="96.4692,-234.1096 87.1461,-239.1427 97.5729,-241.0221 96.4692,-234.1096"/>
<text text-anchor="middle" x="168" y="-234" font-family="Helvetica,sans-Serif" font-size="10.00" fill="#000000"> time</text>
</g>
<!-- Node4 -->
<g id="node4" class="node">
<title>Node4</title>
<g id="a_node4"><a xlink:title=" ">
<polygon fill="#ffffff" stroke="#bfbfbf" points="0,-195.5 0,-214.5 112,-214.5 112,-195.5 0,-195.5"/>
<text text-anchor="middle" x="56" y="-202.5" font-family="Helvetica,sans-Serif" font-size="10.00" fill="#000000">tracer_registry_type</text>
</a>
</g>
</g>
<!-- Node4&#45;&gt;Node1 -->
<g id="edge3" class="edge">
<title>Node4&#45;&gt;Node1</title>
<path fill="none" stroke="#9a32cd" stroke-dasharray="5,2" d="M121.9027,-193.9733C148.2595,-189.0054 178.7682,-182.5489 206,-175 218.0732,-171.6532 230.989,-167.3225 242.6627,-163.1134"/>
<polygon fill="#9a32cd" stroke="#9a32cd" points="121.2153,-190.541 112.0199,-195.8036 122.4901,-197.424 121.2153,-190.541"/>
<text text-anchor="middle" x="168" y="-194" font-family="Helvetica,sans-Serif" font-size="10.00" fill="#000000"> tr_reg</text>
</g>
<!-- Node5 -->
<g id="node5" class="node">
<title>Node5</title>
<g id="a_node5"><a xlink:title=" ">
<polygon fill="#ffffff" stroke="#bfbfbf" points="2,-157.5 2,-176.5 110,-176.5 110,-157.5 2,-157.5"/>
<text text-anchor="middle" x="56" y="-164.5" font-family="Helvetica,sans-Serif" font-size="10.00" fill="#000000">character(len=200)</text>
</a>
</g>
</g>
<!-- Node5&#45;&gt;Node1 -->
<g id="edge4" class="edge">
<title>Node5&#45;&gt;Node1</title>
<path fill="none" stroke="#9a32cd" stroke-dasharray="5,2" d="M120.3618,-161.5771C153.0161,-158.8257 192.353,-155.5113 223.986,-152.846"/>
<polygon fill="#9a32cd" stroke="#9a32cd" points="119.6837,-158.1217 110.0129,-162.449 120.2715,-165.097 119.6837,-158.1217"/>
<text text-anchor="middle" x="168" y="-163" font-family="Helvetica,sans-Serif" font-size="10.00" fill="#000000"> tracer_ic_file</text>
</g>
<!-- Node6 -->
<g id="node6" class="node">
<title>Node6</title>
<g id="a_node6"><a xlink:title=" ">
<polygon fill="#ffffff" stroke="#bfbfbf" points="29,-119.5 29,-138.5 83,-138.5 83,-119.5 29,-119.5"/>
<text text-anchor="middle" x="56" y="-126.5" font-family="Helvetica,sans-Serif" font-size="10.00" fill="#000000">vardesc</text>
</a>
</g>
</g>
<!-- Node6&#45;&gt;Node1 -->
<g id="edge5" class="edge">
<title>Node6&#45;&gt;Node1</title>
<path fill="none" stroke="#9a32cd" stroke-dasharray="5,2" d="M93.277,-130.9444C123.6535,-132.659 167.6429,-135.4377 206,-139 211.7833,-139.5371 217.8089,-140.1555 223.8228,-140.8112"/>
<polygon fill="#9a32cd" stroke="#9a32cd" points="93.3099,-127.441 83.1317,-130.3828 92.9229,-134.4303 93.3099,-127.441"/>
<text text-anchor="middle" x="168" y="-142" font-family="Helvetica,sans-Serif" font-size="10.00" fill="#000000"> tr_desc</text>
</g>
<!-- Node7 -->
<g id="node7" class="node">
<title>Node7</title>
<g id="a_node7"><a xlink:title=" ">
<polygon fill="#ffffff" stroke="#bfbfbf" points="27.5,-81.5 27.5,-100.5 84.5,-100.5 84.5,-81.5 27.5,-81.5"/>
<text text-anchor="middle" x="56" y="-88.5" font-family="Helvetica,sans-Serif" font-size="10.00" fill="#000000">diag_ctrl</text>
</a>
</g>
</g>
<!-- Node7&#45;&gt;Node1 -->
<g id="edge6" class="edge">
<title>Node7&#45;&gt;Node1</title>
<path fill="none" stroke="#9a32cd" stroke-dasharray="5,2" d="M94.8288,-95.8125C125.4026,-100.1212 168.9017,-107.4062 206,-118 219.9692,-121.9891 234.9196,-127.6246 247.8002,-132.9359"/>
<polygon fill="#9a32cd" stroke="#9a32cd" points="94.9672,-92.299 84.5852,-94.4121 94.019,-99.2345 94.9672,-92.299"/>
<text text-anchor="middle" x="168" y="-121" font-family="Helvetica,sans-Serif" font-size="10.00" fill="#000000"> diag</text>
</g>
<!-- Node8 -->
<g id="node8" class="node">
<title>Node8</title>
<g id="a_node8"><a xlink:title=" ">
<polygon fill="#ffffff" stroke="#bfbfbf" points="31,-43.5 31,-62.5 81,-62.5 81,-43.5 31,-43.5"/>
<text text-anchor="middle" x="56" y="-50.5" font-family="Helvetica,sans-Serif" font-size="10.00" fill="#000000">integer</text>
</a>
</g>
</g>
<!-- Node8&#45;&gt;Node1 -->
<g id="edge7" class="edge">
<title>Node8&#45;&gt;Node1</title>
<path fill="none" stroke="#9a32cd" stroke-dasharray="5,2" d="M91.0953,-56.0264C122.5058,-59.8045 169.1493,-68.1063 206,-86 230.1065,-97.7055 253.216,-118.5791 267.3766,-132.845"/>
<polygon fill="#9a32cd" stroke="#9a32cd" points="91.3887,-52.5376 81.0632,-54.9113 90.6153,-59.4947 91.3887,-52.5376"/>
<text text-anchor="middle" x="168" y="-89" font-family="Helvetica,sans-Serif" font-size="10.00" fill="#000000"> ind_tr</text>
</g>
<!-- Node9 -->
<g id="node9" class="node">
<title>Node9</title>
<g id="a_node9"><a xlink:title=" ">
<polygon fill="#ffffff" stroke="#bfbfbf" points="38.5,-.5 38.5,-19.5 73.5,-19.5 73.5,-.5 38.5,-.5"/>
<text text-anchor="middle" x="56" y="-7.5" font-family="Helvetica,sans-Serif" font-size="10.00" fill="#000000">real</text>
</a>
</g>
</g>
<!-- Node9&#45;&gt;Node1 -->
<g id="edge8" class="edge">
<title>Node9&#45;&gt;Node1</title>
<path fill="none" stroke="#9a32cd" stroke-dasharray="5,2" d="M84.1901,-8.545C116.232,-8.2422 168.8896,-11.9695 206,-36 224.8962,-48.236 257.9168,-105.118 273.2462,-132.7943"/>
<polygon fill="#9a32cd" stroke="#9a32cd" points="83.6891,-5.0559 73.7755,-8.7936 83.8562,-12.0539 83.6891,-5.0559"/>
<text text-anchor="middle" x="168" y="-50" font-family="Helvetica,sans-Serif" font-size="10.00" fill="#000000"> land_val</text>
<text text-anchor="middle" x="168" y="-39" font-family="Helvetica,sans-Serif" font-size="10.00" fill="#000000">tr</text>
</g>
</g>
</svg>
