<?xml version="1.0" encoding="UTF-8" standalone="no"?>
<!DOCTYPE svg PUBLIC "-//W3C//DTD SVG 1.1//EN"
 "http://www.w3.org/Graphics/SVG/1.1/DTD/svg11.dtd">
<!-- Generated by graphviz version 2.40.1 (20161225.0304)
 -->
<!-- Title: mom_mixed_layer_restrat::mixedlayer_restrat_cs Pages: 1 -->
<svg width="385pt" height="238pt"
 viewBox="0.00 0.00 385.00 238.00" xmlns="http://www.w3.org/2000/svg" xmlns:xlink="http://www.w3.org/1999/xlink">
<g id="graph0" class="graph" transform="scale(1 1) rotate(0) translate(4 234)">
<title>mom_mixed_layer_restrat::mixedlayer_restrat_cs</title>
<polygon fill="#ffffff" stroke="transparent" points="-4,4 -4,-234 381,-234 381,4 -4,4"/>
<!-- Node1 -->
<g id="node1" class="node">
<title>Node1</title>
<g id="a_node1"><a xlink:title="Control structure for mom_mixed_layer_restrat.">
<polygon fill="#bfbfbf" stroke="#000000" points="111.5,-.5 111.5,-30.5 240.5,-30.5 240.5,-.5 111.5,-.5"/>
<text text-anchor="start" x="119.5" y="-18.5" font-family="Helvetica,sans-Serif" font-size="10.00" fill="#000000">mom_mixed_layer_restrat</text>
<text text-anchor="middle" x="176" y="-7.5" font-family="Helvetica,sans-Serif" font-size="10.00" fill="#000000">::mixedlayer_restrat_cs</text>
</a>
</g>
</g>
<!-- Node2 -->
<g id="node2" class="node">
<title>Node2</title>
<g id="a_node2"><a xlink:title=" ">
<polygon fill="#ffffff" stroke="#bfbfbf" points="0,-210.5 0,-229.5 44,-229.5 44,-210.5 0,-210.5"/>
<text text-anchor="middle" x="22" y="-217.5" font-family="Helvetica,sans-Serif" font-size="10.00" fill="#000000">logical</text>
</a>
</g>
</g>
<!-- Node2&#45;&gt;Node1 -->
<g id="edge1" class="edge">
<title>Node2&#45;&gt;Node1</title>
<path fill="none" stroke="#9a32cd" stroke-dasharray="5,2" d="M16.8716,-200.5586C8.9434,-165.6815 -1.8083,-92.1104 35,-49 45.2518,-36.9929 79.3385,-28.7074 111.427,-23.3802"/>
<polygon fill="#9a32cd" stroke="#9a32cd" points="13.5108,-201.5504 19.2826,-210.4351 20.3111,-199.8903 13.5108,-201.5504"/>
<text text-anchor="middle" x="86.5" y="-129" font-family="Helvetica,sans-Serif" font-size="10.00" fill="#000000"> mle_use_mld_ave_bug</text>
<text text-anchor="middle" x="86.5" y="-118" font-family="Helvetica,sans-Serif" font-size="10.00" fill="#000000">mle_use_pbl_mld</text>
<text text-anchor="middle" x="86.5" y="-107" font-family="Helvetica,sans-Serif" font-size="10.00" fill="#000000">debug</text>
</g>
<!-- Node3 -->
<g id="node3" class="node">
<title>Node3</title>
<g id="a_node3"><a xlink:title=" ">
<polygon fill="#ffffff" stroke="#bfbfbf" points="115.5,-210.5 115.5,-229.5 168.5,-229.5 168.5,-210.5 115.5,-210.5"/>
<text text-anchor="middle" x="142" y="-217.5" font-family="Helvetica,sans-Serif" font-size="10.00" fill="#000000">diag_ctrl</text>
</a>
</g>
</g>
<!-- Node3&#45;&gt;Node1 -->
<g id="edge2" class="edge">
<title>Node3&#45;&gt;Node1</title>
<path fill="none" stroke="#9a32cd" stroke-dasharray="5,2" d="M141.9261,-199.7634C142.2938,-167.3271 145.0436,-101.9628 160,-49 161.7516,-42.7973 164.5762,-36.3288 167.3682,-30.7485"/>
<polygon fill="#9a32cd" stroke="#9a32cd" points="138.4246,-200.1243 141.8802,-210.1398 145.4245,-200.1554 138.4246,-200.1243"/>
<text text-anchor="middle" x="171" y="-118" font-family="Helvetica,sans-Serif" font-size="10.00" fill="#000000"> diag</text>
</g>
<!-- Node4 -->
<g id="node4" class="node">
<title>Node4</title>
<g id="a_node4"><a xlink:title=" ">
<polygon fill="#ffffff" stroke="#bfbfbf" points="187,-210.5 187,-229.5 233,-229.5 233,-210.5 187,-210.5"/>
<text text-anchor="middle" x="210" y="-217.5" font-family="Helvetica,sans-Serif" font-size="10.00" fill="#000000">integer</text>
</a>
</g>
</g>
<!-- Node4&#45;&gt;Node1 -->
<g id="edge3" class="edge">
<title>Node4&#45;&gt;Node1</title>
<path fill="none" stroke="#9a32cd" stroke-dasharray="5,2" d="M206.4369,-200.2929C205.9465,-197.5099 205.4554,-194.6837 205,-192 194.2305,-128.5349 192.7859,-112.4623 182,-49 180.9902,-43.0585 179.8326,-36.5334 178.8052,-30.8331"/>
<polygon fill="#9a32cd" stroke="#9a32cd" points="203.0416,-201.1894 208.2467,-210.4174 209.9323,-199.9576 203.0416,-201.1894"/>
<text text-anchor="middle" x="228" y="-184" font-family="Helvetica,sans-Serif" font-size="10.00" fill="#000000"> id_vml</text>
<text text-anchor="middle" x="228" y="-173" font-family="Helvetica,sans-Serif" font-size="10.00" fill="#000000">id_vdml</text>
<text text-anchor="middle" x="228" y="-162" font-family="Helvetica,sans-Serif" font-size="10.00" fill="#000000">id_udml</text>
<text text-anchor="middle" x="228" y="-151" font-family="Helvetica,sans-Serif" font-size="10.00" fill="#000000">id_mld</text>
<text text-anchor="middle" x="228" y="-140" font-family="Helvetica,sans-Serif" font-size="10.00" fill="#000000">id_vhml</text>
<text text-anchor="middle" x="228" y="-129" font-family="Helvetica,sans-Serif" font-size="10.00" fill="#000000">id_uhml</text>
<text text-anchor="start" x="205" y="-118" font-family="Helvetica,sans-Serif" font-size="10.00" fill="#000000">id_urestrat</text>
<text text-anchor="middle" x="228" y="-107" font-family="Helvetica,sans-Serif" font-size="10.00" fill="#000000">_time</text>
<text text-anchor="start" x="205" y="-96" font-family="Helvetica,sans-Serif" font-size="10.00" fill="#000000">id_vrestrat</text>
<text text-anchor="middle" x="228" y="-85" font-family="Helvetica,sans-Serif" font-size="10.00" fill="#000000">_time</text>
<text text-anchor="middle" x="228" y="-74" font-family="Helvetica,sans-Serif" font-size="10.00" fill="#000000">id_rml</text>
<text text-anchor="middle" x="228" y="-63" font-family="Helvetica,sans-Serif" font-size="10.00" fill="#000000">id_uml</text>
<text text-anchor="middle" x="228" y="-52" font-family="Helvetica,sans-Serif" font-size="10.00" fill="#000000">...</text>
</g>
<!-- Node5 -->
<g id="node5" class="node">
<title>Node5</title>
<g id="a_node5"><a xlink:title=" ">
<polygon fill="#ffffff" stroke="#bfbfbf" points="257,-210.5 257,-229.5 289,-229.5 289,-210.5 257,-210.5"/>
<text text-anchor="middle" x="273" y="-217.5" font-family="Helvetica,sans-Serif" font-size="10.00" fill="#000000">real</text>
</a>
</g>
</g>
<!-- Node5&#45;&gt;Node1 -->
<g id="edge4" class="edge">
<title>Node5&#45;&gt;Node1</title>
<path fill="none" stroke="#9a32cd" stroke-dasharray="5,2" d="M276.2274,-200.1419C280.6737,-165.72 284.6957,-94.3197 251,-49 245.214,-41.218 237.2101,-35.2065 228.5747,-30.5741"/>
<polygon fill="#9a32cd" stroke="#9a32cd" points="272.7248,-199.9086 274.7571,-210.3067 279.6527,-200.9107 272.7248,-199.9086"/>
<text text-anchor="middle" x="328" y="-173" font-family="Helvetica,sans-Serif" font-size="10.00" fill="#000000"> ml_restrat_coef2</text>
<text text-anchor="middle" x="328" y="-162" font-family="Helvetica,sans-Serif" font-size="10.00" fill="#000000">mle_mld_decay_time2</text>
<text text-anchor="middle" x="328" y="-151" font-family="Helvetica,sans-Serif" font-size="10.00" fill="#000000">mld_filtered_slow</text>
<text text-anchor="middle" x="328" y="-140" font-family="Helvetica,sans-Serif" font-size="10.00" fill="#000000">mle_mld_stretch</text>
<text text-anchor="middle" x="328" y="-129" font-family="Helvetica,sans-Serif" font-size="10.00" fill="#000000">mle_density_diff</text>
<text text-anchor="middle" x="328" y="-118" font-family="Helvetica,sans-Serif" font-size="10.00" fill="#000000">front_length</text>
<text text-anchor="middle" x="328" y="-107" font-family="Helvetica,sans-Serif" font-size="10.00" fill="#000000">mle_tail_dh</text>
<text text-anchor="middle" x="328" y="-96" font-family="Helvetica,sans-Serif" font-size="10.00" fill="#000000">mle_mld_decay_time</text>
<text text-anchor="middle" x="328" y="-85" font-family="Helvetica,sans-Serif" font-size="10.00" fill="#000000">mld_filtered</text>
<text text-anchor="middle" x="328" y="-74" font-family="Helvetica,sans-Serif" font-size="10.00" fill="#000000">ml_restrat_coef</text>
<text text-anchor="middle" x="328" y="-63" font-family="Helvetica,sans-Serif" font-size="10.00" fill="#000000">...</text>
</g>
</g>
</svg>
