<?xml version="1.0" encoding="UTF-8" standalone="no"?>
<!DOCTYPE svg PUBLIC "-//W3C//DTD SVG 1.1//EN"
 "http://www.w3.org/Graphics/SVG/1.1/DTD/svg11.dtd">
<!-- Generated by graphviz version 2.40.1 (20161225.0304)
 -->
<!-- Title: mom_tracer_flow_control::tracer_flow_control_cs Pages: 1 -->
<!--zoomable 765 -->
<svg id="main" version="1.1" xmlns="http://www.w3.org/2000/svg" xmlns:xlink="http://www.w3.org/1999/xlink" xml:space="preserve" onload="init(evt)">
<style type="text/css"><![CDATA[
.edge:hover path { stroke: red; }
.edge:hover polygon { stroke: red; fill: red; }
]]></style>
<script type="text/javascript"><![CDATA[
var edges = document.getElementsByTagName('g');
if (edges && edges.length) {
  for (var i=0;i<edges.length;i++) {
    if (edges[i].id.substr(0,4)=='edge') {
      edges[i].setAttribute('class','edge');
    }
  }
}
]]></script>
        <defs>
                <circle id="rim" cx="0" cy="0" r="7"/>
                <circle id="rim2" cx="0" cy="0" r="3.5"/>
                <g id="zoomPlus">
                        <use xlink:href="#rim" fill="#404040">
                                <set attributeName="fill" to="#808080" begin="zoomplus.mouseover" end="zoomplus.mouseout"/>
                        </use>
                        <path d="M-4,0h8M0,-4v8" fill="none" stroke="white" stroke-width="1.5" pointer-events="none"/>
                </g>
                <g id="zoomMin">
                        <use xlink:href="#rim" fill="#404040">
                                <set attributeName="fill" to="#808080" begin="zoomminus.mouseover" end="zoomminus.mouseout"/>
                        </use>
                        <path d="M-4,0h8" fill="none" stroke="white" stroke-width="1.5" pointer-events="none"/>
                </g>
                <g id="dirArrow">
                        <path fill="none" stroke="white" stroke-width="1.5" d="M0,-3.0v7 M-2.5,-0.5L0,-3.0L2.5,-0.5"/>
                </g>
               <g id="resetDef">
                       <use xlink:href="#rim2" fill="#404040">
                               <set attributeName="fill" to="#808080" begin="reset.mouseover" end="reset.mouseout"/>
                       </use>
               </g>
        </defs>

<script type="text/javascript">
var viewWidth = 432;
var viewHeight = 765;
var sectionId = 'dynsection-0';
</script>
<script xlink:href="svgpan.js"/>
<svg id="graph" class="graph">
<g id="viewport">
<title>mom_tracer_flow_control::tracer_flow_control_cs</title>
<polygon fill="#ffffff" stroke="transparent" points="-4,4 -4,-760.5 428,-760.5 428,4 -4,4"/>
<!-- Node1 -->
<g id="node1" class="node">
<title>Node1</title>
<g id="a_node1"><a xlink:title="The control structure for orchestrating the calling of tracer packages.">
<polygon fill="#bfbfbf" stroke="#000000" points="298,-294.5 298,-324.5 424,-324.5 424,-294.5 298,-294.5"/>
<text text-anchor="start" x="306" y="-312.5" font-family="Helvetica,sans-Serif" font-size="10.00" fill="#000000">mom_tracer_flow_control</text>
<text text-anchor="middle" x="361" y="-301.5" font-family="Helvetica,sans-Serif" font-size="10.00" fill="#000000">::tracer_flow_control_cs</text>
</a>
</g>
</g>
<!-- Node2 -->
<g id="node2" class="node">
<title>Node2</title>
<g id="a_node2"><a xlink:title=" ">
<polygon fill="#ffffff" stroke="#bfbfbf" points="9.5,-717.5 9.5,-747.5 119.5,-747.5 119.5,-717.5 9.5,-717.5"/>
<text text-anchor="start" x="17.5" y="-735.5" font-family="Helvetica,sans-Serif" font-size="10.00" fill="#000000">type(ideal_age_tracer</text>
<text text-anchor="middle" x="64.5" y="-724.5" font-family="Helvetica,sans-Serif" font-size="10.00" fill="#000000">_cs), pointer</text>
</a>
</g>
</g>
<!-- Node2&#45;&gt;Node1 -->
<g id="edge1" class="edge">
<title>Node2&#45;&gt;Node1</title>
<path fill="none" stroke="#9a32cd" stroke-dasharray="5,2" d="M130.1041,-744.5413C177.5838,-749.2588 240.1613,-746.6294 280,-710.5 338.793,-657.1812 356.667,-391.3155 360.2577,-324.6698"/>
<polygon fill="#9a32cd" stroke="#9a32cd" points="130.2401,-741.0346 119.9114,-743.3946 129.4574,-747.9907 130.2401,-741.0346"/>
<text text-anchor="middle" x="213.5" y="-748.5" font-family="Helvetica,sans-Serif" font-size="10.00" fill="#000000"> ideal_age_tracer_csp</text>
</g>
<!-- Node3 -->
<g id="node3" class="node">
<title>Node3</title>
<g id="a_node3"><a xlink:title=" ">
<polygon fill="#ffffff" stroke="#bfbfbf" points="42.5,-540 42.5,-559 86.5,-559 86.5,-540 42.5,-540"/>
<text text-anchor="middle" x="64.5" y="-547" font-family="Helvetica,sans-Serif" font-size="10.00" fill="#000000">logical</text>
</a>
</g>
</g>
<!-- Node3&#45;&gt;Node1 -->
<g id="edge2" class="edge">
<title>Node3&#45;&gt;Node1</title>
<path fill="none" stroke="#9a32cd" stroke-dasharray="5,2" d="M97.0649,-547.1052C153.7546,-542.669 265.9082,-532.6076 280,-521.5 343.8984,-471.1335 357.4149,-364.0805 360.253,-324.5642"/>
<polygon fill="#9a32cd" stroke="#9a32cd" points="96.5386,-543.6353 86.8363,-547.8916 97.0752,-550.6147 96.5386,-543.6353"/>
<text text-anchor="middle" x="213.5" y="-698.5" font-family="Helvetica,sans-Serif" font-size="10.00" fill="#000000"> use_ocmip2_cfc</text>
<text text-anchor="middle" x="213.5" y="-687.5" font-family="Helvetica,sans-Serif" font-size="10.00" fill="#000000">use_oil</text>
<text text-anchor="middle" x="213.5" y="-676.5" font-family="Helvetica,sans-Serif" font-size="10.00" fill="#000000">use_regional_dyes</text>
<text text-anchor="start" x="163.5" y="-665.5" font-family="Helvetica,sans-Serif" font-size="10.00" fill="#000000">use_user_tracer</text>
<text text-anchor="middle" x="213.5" y="-654.5" font-family="Helvetica,sans-Serif" font-size="10.00" fill="#000000">_example</text>
<text text-anchor="start" x="163.5" y="-643.5" font-family="Helvetica,sans-Serif" font-size="10.00" fill="#000000">use_pseudo_salt</text>
<text text-anchor="middle" x="213.5" y="-632.5" font-family="Helvetica,sans-Serif" font-size="10.00" fill="#000000">_tracer</text>
<text text-anchor="middle" x="213.5" y="-621.5" font-family="Helvetica,sans-Serif" font-size="10.00" fill="#000000">use_isomip_tracer</text>
<text text-anchor="middle" x="213.5" y="-610.5" font-family="Helvetica,sans-Serif" font-size="10.00" fill="#000000">use_dyed_obc_tracer</text>
<text text-anchor="start" x="163.5" y="-599.5" font-family="Helvetica,sans-Serif" font-size="10.00" fill="#000000">use_advection_test</text>
<text text-anchor="middle" x="213.5" y="-588.5" font-family="Helvetica,sans-Serif" font-size="10.00" fill="#000000">_tracer</text>
<text text-anchor="start" x="163.5" y="-577.5" font-family="Helvetica,sans-Serif" font-size="10.00" fill="#000000">use_boundary_impulse</text>
<text text-anchor="middle" x="213.5" y="-566.5" font-family="Helvetica,sans-Serif" font-size="10.00" fill="#000000">_tracer</text>
<text text-anchor="middle" x="213.5" y="-555.5" font-family="Helvetica,sans-Serif" font-size="10.00" fill="#000000">use_rgc_tracer</text>
<text text-anchor="middle" x="213.5" y="-544.5" font-family="Helvetica,sans-Serif" font-size="10.00" fill="#000000">...</text>
</g>
<!-- Node4 -->
<g id="node4" class="node">
<title>Node4</title>
<g id="a_node4"><a xlink:title=" ">
<polygon fill="#ffffff" stroke="#bfbfbf" points="14,-490.5 14,-520.5 115,-520.5 115,-490.5 14,-490.5"/>
<text text-anchor="start" x="22" y="-508.5" font-family="Helvetica,sans-Serif" font-size="10.00" fill="#000000">type(rgc_tracer_cs)</text>
<text text-anchor="middle" x="64.5" y="-497.5" font-family="Helvetica,sans-Serif" font-size="10.00" fill="#000000">, pointer</text>
</a>
</g>
</g>
<!-- Node4&#45;&gt;Node1 -->
<g id="edge3" class="edge">
<title>Node4&#45;&gt;Node1</title>
<path fill="none" stroke="#9a32cd" stroke-dasharray="5,2" d="M125.43,-507.9999C171.9872,-506.8766 235.5166,-498.4614 280,-465.5 328.3024,-429.7088 350.2308,-356.6227 357.7728,-324.8356"/>
<polygon fill="#9a32cd" stroke="#9a32cd" points="125.1257,-504.5036 115.1734,-508.1371 125.2194,-511.5029 125.1257,-504.5036"/>
<text text-anchor="middle" x="213.5" y="-509.5" font-family="Helvetica,sans-Serif" font-size="10.00" fill="#000000"> rgc_tracer_csp</text>
</g>
<!-- Node5 -->
<g id="node5" class="node">
<title>Node5</title>
<g id="a_node5"><a xlink:title=" ">
<polygon fill="#ffffff" stroke="#bfbfbf" points="16,-441.5 16,-471.5 113,-471.5 113,-441.5 16,-441.5"/>
<text text-anchor="start" x="24" y="-459.5" font-family="Helvetica,sans-Serif" font-size="10.00" fill="#000000">type(isomip_tracer</text>
<text text-anchor="middle" x="64.5" y="-448.5" font-family="Helvetica,sans-Serif" font-size="10.00" fill="#000000">_cs), pointer</text>
</a>
</g>
</g>
<!-- Node5&#45;&gt;Node1 -->
<g id="edge4" class="edge">
<title>Node5&#45;&gt;Node1</title>
<path fill="none" stroke="#9a32cd" stroke-dasharray="5,2" d="M123.3464,-454.1692C169.0408,-449.9904 232.4195,-438.8266 280,-409.5 314.4252,-388.2818 340.6623,-347.0781 353.081,-324.7565"/>
<polygon fill="#9a32cd" stroke="#9a32cd" points="122.9733,-450.688 113.2967,-455.0023 123.5517,-457.6641 122.9733,-450.688"/>
<text text-anchor="middle" x="213.5" y="-453.5" font-family="Helvetica,sans-Serif" font-size="10.00" fill="#000000"> isomip_tracer_csp</text>
</g>
<!-- Node6 -->
<g id="node6" class="node">
<title>Node6</title>
<g id="a_node6"><a xlink:title=" ">
<polygon fill="#ffffff" stroke="#bfbfbf" points="6,-392.5 6,-422.5 123,-422.5 123,-392.5 6,-392.5"/>
<text text-anchor="start" x="14" y="-410.5" font-family="Helvetica,sans-Serif" font-size="10.00" fill="#000000">type(boundary_impulse</text>
<text text-anchor="middle" x="64.5" y="-399.5" font-family="Helvetica,sans-Serif" font-size="10.00" fill="#000000">_tracer_cs), pointer</text>
</a>
</g>
</g>
<!-- Node6&#45;&gt;Node1 -->
<g id="edge5" class="edge">
<title>Node6&#45;&gt;Node1</title>
<path fill="none" stroke="#9a32cd" stroke-dasharray="5,2" d="M133.3799,-398.1759C176.5797,-390.8757 232.8272,-378.6757 280,-359.5 302.0455,-350.5385 324.9187,-335.8384 340.7131,-324.6911"/>
<polygon fill="#9a32cd" stroke="#9a32cd" points="132.5539,-394.7646 123.253,-399.8383 133.6879,-401.6721 132.5539,-394.7646"/>
<text text-anchor="middle" x="213.5" y="-397.5" font-family="Helvetica,sans-Serif" font-size="10.00" fill="#000000"> boundary_impulse_tracer_csp</text>
</g>
<!-- Node7 -->
<g id="node7" class="node">
<title>Node7</title>
<g id="a_node7"><a xlink:title=" ">
<polygon fill="#ffffff" stroke="#bfbfbf" points="16,-343.5 16,-373.5 113,-373.5 113,-343.5 16,-343.5"/>
<text text-anchor="start" x="24" y="-361.5" font-family="Helvetica,sans-Serif" font-size="10.00" fill="#000000">type(oil_tracer_cs)</text>
<text text-anchor="middle" x="64.5" y="-350.5" font-family="Helvetica,sans-Serif" font-size="10.00" fill="#000000">, pointer</text>
</a>
</g>
</g>
<!-- Node7&#45;&gt;Node1 -->
<g id="edge6" class="edge">
<title>Node7&#45;&gt;Node1</title>
<path fill="none" stroke="#9a32cd" stroke-dasharray="5,2" d="M123.4324,-349.6349C166.7858,-343.0081 227.1223,-333.5658 280,-324.5 285.7793,-323.5091 291.7851,-322.4509 297.7966,-321.3723"/>
<polygon fill="#9a32cd" stroke="#9a32cd" points="122.7039,-346.2055 113.3457,-351.1728 123.759,-353.1255 122.7039,-346.2055"/>
<text text-anchor="middle" x="213.5" y="-347.5" font-family="Helvetica,sans-Serif" font-size="10.00" fill="#000000"> oil_tracer_csp</text>
</g>
<!-- Node8 -->
<g id="node8" class="node">
<title>Node8</title>
<g id="a_node8"><a xlink:title=" ">
<polygon fill="#ffffff" stroke="#bfbfbf" points="0,-294.5 0,-324.5 129,-324.5 129,-294.5 0,-294.5"/>
<text text-anchor="start" x="8" y="-312.5" font-family="Helvetica,sans-Serif" font-size="10.00" fill="#000000">type(user_tracer_example</text>
<text text-anchor="middle" x="64.5" y="-301.5" font-family="Helvetica,sans-Serif" font-size="10.00" fill="#000000">_cs), pointer</text>
</a>
</g>
</g>
<!-- Node8&#45;&gt;Node1 -->
<g id="edge7" class="edge">
<title>Node8&#45;&gt;Node1</title>
<path fill="none" stroke="#9a32cd" stroke-dasharray="5,2" d="M139.4207,-309.5C188.3758,-309.5 251.5903,-309.5 297.9627,-309.5"/>
<polygon fill="#9a32cd" stroke="#9a32cd" points="139.2018,-306.0001 129.2018,-309.5 139.2018,-313.0001 139.2018,-306.0001"/>
<text text-anchor="middle" x="213.5" y="-312.5" font-family="Helvetica,sans-Serif" font-size="10.00" fill="#000000"> user_tracer_example_csp</text>
</g>
<!-- Node9 -->
<g id="node9" class="node">
<title>Node9</title>
<g id="a_node9"><a xlink:title=" ">
<polygon fill="#ffffff" stroke="#bfbfbf" points="11,-245.5 11,-275.5 118,-275.5 118,-245.5 11,-245.5"/>
<text text-anchor="start" x="19" y="-263.5" font-family="Helvetica,sans-Serif" font-size="10.00" fill="#000000">type(ocmip2_cfc_cs)</text>
<text text-anchor="middle" x="64.5" y="-252.5" font-family="Helvetica,sans-Serif" font-size="10.00" fill="#000000">, pointer</text>
</a>
</g>
</g>
<!-- Node9&#45;&gt;Node1 -->
<g id="edge8" class="edge">
<title>Node9&#45;&gt;Node1</title>
<path fill="none" stroke="#9a32cd" stroke-dasharray="5,2" d="M128.1725,-270.0905C171.1141,-276.6703 229.0231,-285.7601 280,-294.5 285.7793,-295.4909 291.7851,-296.5491 297.7966,-297.6277"/>
<polygon fill="#9a32cd" stroke="#9a32cd" points="128.5587,-266.6089 118.1446,-268.5579 127.501,-273.5286 128.5587,-266.6089"/>
<text text-anchor="middle" x="213.5" y="-297.5" font-family="Helvetica,sans-Serif" font-size="10.00" fill="#000000"> ocmip2_cfc_csp</text>
</g>
<!-- Node10 -->
<g id="node10" class="node">
<title>Node10</title>
<g id="a_node10"><a xlink:title=" ">
<polygon fill="#ffffff" stroke="#bfbfbf" points="9.5,-196.5 9.5,-226.5 119.5,-226.5 119.5,-196.5 9.5,-196.5"/>
<text text-anchor="start" x="17.5" y="-214.5" font-family="Helvetica,sans-Serif" font-size="10.00" fill="#000000">type(dyed_obc_tracer</text>
<text text-anchor="middle" x="64.5" y="-203.5" font-family="Helvetica,sans-Serif" font-size="10.00" fill="#000000">_cs), pointer</text>
</a>
</g>
</g>
<!-- Node10&#45;&gt;Node1 -->
<g id="edge9" class="edge">
<title>Node10&#45;&gt;Node1</title>
<path fill="none" stroke="#9a32cd" stroke-dasharray="5,2" d="M129.5817,-219.6732C173.2771,-226.6004 231.5015,-238.6592 280,-258.5 302.4555,-267.6866 325.6434,-282.9828 341.4246,-294.4318"/>
<polygon fill="#9a32cd" stroke="#9a32cd" points="130.0623,-216.206 119.6467,-218.1465 128.9991,-223.1248 130.0623,-216.206"/>
<text text-anchor="middle" x="213.5" y="-261.5" font-family="Helvetica,sans-Serif" font-size="10.00" fill="#000000"> dyed_obc_tracer_csp</text>
</g>
<!-- Node11 -->
<g id="node11" class="node">
<title>Node11</title>
<g id="a_node11"><a xlink:title=" ">
<polygon fill="#ffffff" stroke="#bfbfbf" points="4,-147.5 4,-177.5 125,-177.5 125,-147.5 4,-147.5"/>
<text text-anchor="start" x="12" y="-165.5" font-family="Helvetica,sans-Serif" font-size="10.00" fill="#000000">type(pseudo_salt_tracer</text>
<text text-anchor="middle" x="64.5" y="-154.5" font-family="Helvetica,sans-Serif" font-size="10.00" fill="#000000">_cs), pointer</text>
</a>
</g>
</g>
<!-- Node11&#45;&gt;Node1 -->
<g id="edge10" class="edge">
<title>Node11&#45;&gt;Node1</title>
<path fill="none" stroke="#9a32cd" stroke-dasharray="5,2" d="M135.3857,-165.1388C179.7564,-169.6086 236.544,-180.6919 280,-207.5 315.0265,-229.108 341.1897,-271.5462 353.3886,-294.2753"/>
<polygon fill="#9a32cd" stroke="#9a32cd" points="135.5328,-161.6377 125.2551,-164.2104 134.8939,-168.6085 135.5328,-161.6377"/>
<text text-anchor="middle" x="213.5" y="-210.5" font-family="Helvetica,sans-Serif" font-size="10.00" fill="#000000"> pseudo_salt_tracer_csp</text>
</g>
<!-- Node12 -->
<g id="node12" class="node">
<title>Node12</title>
<g id="a_node12"><a xlink:title=" ">
<polygon fill="#ffffff" stroke="#bfbfbf" points="13.5,-98.5 13.5,-128.5 115.5,-128.5 115.5,-98.5 13.5,-98.5"/>
<text text-anchor="start" x="21.5" y="-116.5" font-family="Helvetica,sans-Serif" font-size="10.00" fill="#000000">type(advection_test</text>
<text text-anchor="middle" x="64.5" y="-105.5" font-family="Helvetica,sans-Serif" font-size="10.00" fill="#000000">_tracer_cs), pointer</text>
</a>
</g>
</g>
<!-- Node12&#45;&gt;Node1 -->
<g id="edge11" class="edge">
<title>Node12&#45;&gt;Node1</title>
<path fill="none" stroke="#9a32cd" stroke-dasharray="5,2" d="M125.8823,-110.287C172.4015,-110.9385 235.6686,-118.7814 280,-151.5 329.1073,-187.7435 350.7064,-262.4393 357.9728,-294.4255"/>
<polygon fill="#9a32cd" stroke="#9a32cd" points="125.6413,-106.7863 115.6304,-110.2549 125.6193,-113.7863 125.6413,-106.7863"/>
<text text-anchor="middle" x="213.5" y="-154.5" font-family="Helvetica,sans-Serif" font-size="10.00" fill="#000000"> advection_test_tracer_csp</text>
</g>
<!-- Node13 -->
<g id="node13" class="node">
<title>Node13</title>
<g id="a_node13"><a xlink:title=" ">
<polygon fill="#ffffff" stroke="#bfbfbf" points="13,-49.5 13,-79.5 116,-79.5 116,-49.5 13,-49.5"/>
<text text-anchor="start" x="21" y="-67.5" font-family="Helvetica,sans-Serif" font-size="10.00" fill="#000000">type(dye_tracer_cs)</text>
<text text-anchor="middle" x="64.5" y="-56.5" font-family="Helvetica,sans-Serif" font-size="10.00" fill="#000000">, pointer</text>
</a>
</g>
</g>
<!-- Node13&#45;&gt;Node1 -->
<g id="edge12" class="edge">
<title>Node13&#45;&gt;Node1</title>
<path fill="none" stroke="#9a32cd" stroke-dasharray="5,2" d="M126.4685,-57.6038C173.4914,-55.7956 237.1436,-61.1324 280,-95.5 343.9963,-146.8203 357.4528,-254.5897 360.264,-294.3474"/>
<polygon fill="#9a32cd" stroke="#9a32cd" points="126.213,-54.1121 116.4009,-58.1086 126.5637,-61.1033 126.213,-54.1121"/>
<text text-anchor="middle" x="213.5" y="-98.5" font-family="Helvetica,sans-Serif" font-size="10.00" fill="#000000"> dye_tracer_csp</text>
</g>
<!-- Node14 -->
<g id="node14" class="node">
<title>Node14</title>
<g id="a_node14"><a xlink:title=" ">
<polygon fill="#ffffff" stroke="#bfbfbf" points="9,-.5 9,-30.5 120,-30.5 120,-.5 9,-.5"/>
<text text-anchor="start" x="17" y="-18.5" font-family="Helvetica,sans-Serif" font-size="10.00" fill="#000000">type(dome_tracer_cs)</text>
<text text-anchor="middle" x="64.5" y="-7.5" font-family="Helvetica,sans-Serif" font-size="10.00" fill="#000000">, pointer</text>
</a>
</g>
</g>
<!-- Node14&#45;&gt;Node1 -->
<g id="edge13" class="edge">
<title>Node14&#45;&gt;Node1</title>
<path fill="none" stroke="#9a32cd" stroke-dasharray="5,2" d="M130.1925,-5.9042C177.1376,-2.8412 239.0045,-7.0625 280,-41.5 320.195,-75.2651 350.226,-242.8446 358.6293,-294.3888"/>
<polygon fill="#9a32cd" stroke="#9a32cd" points="129.8127,-2.4231 120.1138,-6.687 130.3549,-9.402 129.8127,-2.4231"/>
<text text-anchor="middle" x="213.5" y="-44.5" font-family="Helvetica,sans-Serif" font-size="10.00" fill="#000000"> dome_tracer_csp</text>
</g>
</g>
</svg>
        <g id="navigator" transform="translate(0 0)" fill="#404254">
                <rect fill="#f2f5e9" fill-opacity="0.5" stroke="#606060" stroke-width=".5" x="0" y="0" width="60" height="60"/>
                <use id="zoomplus" xlink:href="#zoomPlus" x="17" y="9" onmousedown="handleZoom(evt,'in')"/>
                <use id="zoomminus" xlink:href="#zoomMin" x="42" y="9" onmousedown="handleZoom(evt,'out')"/>
                <use id="reset" xlink:href="#resetDef" x="30" y="36" onmousedown="handleReset()"/>
                <g id="arrowUp" xlink:href="#dirArrow" transform="translate(30 24)" onmousedown="handlePan(0,-1)">
                  <use xlink:href="#rim" fill="#404040">
                        <set attributeName="fill" to="#808080" begin="arrowUp.mouseover" end="arrowUp.mouseout"/>
                  </use>
                  <path fill="none" stroke="white" stroke-width="1.5" d="M0,-3.0v7 M-2.5,-0.5L0,-3.0L2.5,-0.5"/>
                </g>
                <g id="arrowRight" xlink:href="#dirArrow" transform="rotate(90) translate(36 -43)" onmousedown="handlePan(1,0)">
                  <use xlink:href="#rim" fill="#404040">
                        <set attributeName="fill" to="#808080" begin="arrowRight.mouseover" end="arrowRight.mouseout"/>
                  </use>
                  <path fill="none" stroke="white" stroke-width="1.5" d="M0,-3.0v7 M-2.5,-0.5L0,-3.0L2.5,-0.5"/>
                </g>
                <g id="arrowDown" xlink:href="#dirArrow" transform="rotate(180) translate(-30 -48)" onmousedown="handlePan(0,1)">
                  <use xlink:href="#rim" fill="#404040">
                        <set attributeName="fill" to="#808080" begin="arrowDown.mouseover" end="arrowDown.mouseout"/>
                  </use>
                  <path fill="none" stroke="white" stroke-width="1.5" d="M0,-3.0v7 M-2.5,-0.5L0,-3.0L2.5,-0.5"/>
                </g>
                <g id="arrowLeft" xlink:href="#dirArrow" transform="rotate(270) translate(-36 17)" onmousedown="handlePan(-1,0)">
                  <use xlink:href="#rim" fill="#404040">
                        <set attributeName="fill" to="#808080" begin="arrowLeft.mouseover" end="arrowLeft.mouseout"/>
                  </use>
                  <path fill="none" stroke="white" stroke-width="1.5" d="M0,-3.0v7 M-2.5,-0.5L0,-3.0L2.5,-0.5"/>
                </g>
        </g>
        <svg viewBox="0 0 15 15" width="100%" height="30px" preserveAspectRatio="xMaxYMin meet">
         <g id="arrow_out" transform="scale(0.3 0.3)">
          <a xlink:href="structmom__tracer__flow__control_1_1tracer__flow__control__cs__coll__graph_org.svg" target="_base">
           <rect id="button" ry="5" rx="5" y="6" x="6" height="38" width="38"
                fill="#f2f5e9" fill-opacity="0.5" stroke="#606060" stroke-width="1.0"/>
           <path id="arrow"
             d="M 11.500037,31.436501 C 11.940474,20.09759 22.043105,11.32322 32.158766,21.979434 L 37.068811,17.246167 C 37.068811,17.246167 37.088388,32 37.088388,32 L 22.160133,31.978069 C 22.160133,31.978069 26.997745,27.140456 26.997745,27.140456 C 18.528582,18.264221 13.291696,25.230495 11.500037,31.436501 z"
             style="fill:#404040;"/>
          </a>
         </g>
        </svg>
</svg>
