<?xml version="1.0" encoding="UTF-8" standalone="no"?>
<!DOCTYPE svg PUBLIC "-//W3C//DTD SVG 1.1//EN"
 "http://www.w3.org/Graphics/SVG/1.1/DTD/svg11.dtd">
<!-- Generated by graphviz version 2.40.1 (20161225.0304)
 -->
<!-- Title: mom_tracer_registry::tracer_registry_type Pages: 1 -->
<!--zoomable 305 -->
<svg id="main" version="1.1" xmlns="http://www.w3.org/2000/svg" xmlns:xlink="http://www.w3.org/1999/xlink" xml:space="preserve" onload="init(evt)">
<style type="text/css"><![CDATA[
.edge:hover path { stroke: red; }
.edge:hover polygon { stroke: red; fill: red; }
]]></style>
<script type="text/javascript"><![CDATA[
var edges = document.getElementsByTagName('g');
if (edges && edges.length) {
  for (var i=0;i<edges.length;i++) {
    if (edges[i].id.substr(0,4)=='edge') {
      edges[i].setAttribute('class','edge');
    }
  }
}
]]></script>
        <defs>
                <circle id="rim" cx="0" cy="0" r="7"/>
                <circle id="rim2" cx="0" cy="0" r="3.5"/>
                <g id="zoomPlus">
                        <use xlink:href="#rim" fill="#404040">
                                <set attributeName="fill" to="#808080" begin="zoomplus.mouseover" end="zoomplus.mouseout"/>
                        </use>
                        <path d="M-4,0h8M0,-4v8" fill="none" stroke="white" stroke-width="1.5" pointer-events="none"/>
                </g>
                <g id="zoomMin">
                        <use xlink:href="#rim" fill="#404040">
                                <set attributeName="fill" to="#808080" begin="zoomminus.mouseover" end="zoomminus.mouseout"/>
                        </use>
                        <path d="M-4,0h8" fill="none" stroke="white" stroke-width="1.5" pointer-events="none"/>
                </g>
                <g id="dirArrow">
                        <path fill="none" stroke="white" stroke-width="1.5" d="M0,-3.0v7 M-2.5,-0.5L0,-3.0L2.5,-0.5"/>
                </g>
               <g id="resetDef">
                       <use xlink:href="#rim2" fill="#404040">
                               <set attributeName="fill" to="#808080" begin="reset.mouseover" end="reset.mouseout"/>
                       </use>
               </g>
        </defs>

<script type="text/javascript">
var viewWidth = 712;
var viewHeight = 305;
var sectionId = 'dynsection-0';
</script>
<script xlink:href="svgpan.js"/>
<svg id="graph" class="graph">
<g id="viewport">
<title>mom_tracer_registry::tracer_registry_type</title>
<polygon fill="#ffffff" stroke="transparent" points="-4,4 -4,-301 707.5352,-301 707.5352,4 -4,4"/>
<!-- Node1 -->
<g id="node1" class="node">
<title>Node1</title>
<g id="a_node1"><a xlink:title="Type to carry basic tracer information.">
<polygon fill="#bfbfbf" stroke="#000000" points="268.5,-.5 268.5,-30.5 377.5,-30.5 377.5,-.5 268.5,-.5"/>
<text text-anchor="start" x="276.5" y="-18.5" font-family="Helvetica,sans-Serif" font-size="10.00" fill="#000000">mom_tracer_registry</text>
<text text-anchor="middle" x="323" y="-7.5" font-family="Helvetica,sans-Serif" font-size="10.00" fill="#000000">::tracer_registry_type</text>
</a>
</g>
</g>
<!-- Node2 -->
<g id="node2" class="node">
<title>Node2</title>
<g id="a_node2"><a xlink:title=" ">
<polygon fill="#ffffff" stroke="#bfbfbf" points="0,-277.5 0,-296.5 44,-296.5 44,-277.5 0,-277.5"/>
<text text-anchor="middle" x="22" y="-284.5" font-family="Helvetica,sans-Serif" font-size="10.00" fill="#000000">logical</text>
</a>
</g>
</g>
<!-- Node2&#45;&gt;Node1 -->
<g id="edge1" class="edge">
<title>Node2&#45;&gt;Node1</title>
<path fill="none" stroke="#9a32cd" stroke-dasharray="5,2" d="M16.495,-267.0869C8.7404,-234.426 -1.3116,-168.9233 29,-127 57.7863,-87.1864 191.441,-48.2367 268.2614,-28.6194"/>
<polygon fill="#9a32cd" stroke="#9a32cd" points="13.2063,-268.3545 19.0721,-277.1773 19.9886,-266.6222 13.2063,-268.3545"/>
<text text-anchor="middle" x="122" y="-91" font-family="Helvetica,sans-Serif" font-size="10.00" fill="#000000"> locked</text>
</g>
<!-- Node3 -->
<g id="node3" class="node">
<title>Node3</title>
<g id="a_node3"><a xlink:href="structmom__tracer__registry_1_1tracer__type.html" target="_top" xlink:title="The tracer type.">
<polygon fill="#ffffff" stroke="#000000" points="270,-78.5 270,-108.5 376,-108.5 376,-78.5 270,-78.5"/>
<text text-anchor="start" x="278" y="-96.5" font-family="Helvetica,sans-Serif" font-size="10.00" fill="#000000">mom_tracer_registry</text>
<text text-anchor="middle" x="323" y="-85.5" font-family="Helvetica,sans-Serif" font-size="10.00" fill="#000000">::tracer_type</text>
</a>
</g>
</g>
<!-- Node2&#45;&gt;Node3 -->
<g id="edge3" class="edge">
<title>Node2&#45;&gt;Node3</title>
<path fill="none" stroke="#9a32cd" stroke-dasharray="5,2" d="M24.8988,-267.2236C31.1366,-224.9531 45.4736,-129.4276 48,-127 63.6711,-111.9416 194.304,-101.4471 269.7479,-96.5786"/>
<polygon fill="#9a32cd" stroke="#9a32cd" points="21.4276,-266.7725 23.4348,-277.1754 28.353,-267.7913 21.4276,-266.7725"/>
<text text-anchor="middle" x="78.5" y="-196" font-family="Helvetica,sans-Serif" font-size="10.00" fill="#000000"> remap_tr</text>
<text text-anchor="middle" x="78.5" y="-185" font-family="Helvetica,sans-Serif" font-size="10.00" fill="#000000">registry_diags</text>
</g>
<!-- Node3&#45;&gt;Node1 -->
<g id="edge2" class="edge">
<title>Node3&#45;&gt;Node1</title>
<path fill="none" stroke="#9a32cd" stroke-dasharray="5,2" d="M323,-68.2875C323,-55.9187 323,-41.4264 323,-30.7592"/>
<polygon fill="#9a32cd" stroke="#9a32cd" points="319.5001,-68.4608 323,-78.4608 326.5001,-68.4608 319.5001,-68.4608"/>
<text text-anchor="middle" x="328" y="-52" font-family="Helvetica,sans-Serif" font-size="10.00" fill="#000000"> tr</text>
</g>
<!-- Node4 -->
<g id="node4" class="node">
<title>Node4</title>
<g id="a_node4"><a xlink:title=" ">
<polygon fill="#ffffff" stroke="#bfbfbf" points="445,-277.5 445,-296.5 543,-296.5 543,-277.5 445,-277.5"/>
<text text-anchor="middle" x="494" y="-284.5" font-family="Helvetica,sans-Serif" font-size="10.00" fill="#000000">character(len=240)</text>
</a>
</g>
</g>
<!-- Node4&#45;&gt;Node3 -->
<g id="edge4" class="edge">
<title>Node4&#45;&gt;Node3</title>
<path fill="none" stroke="#9a32cd" stroke-dasharray="5,2" d="M492.287,-267.3077C488.5891,-226.8205 479.4282,-137.165 470,-127 457.273,-113.2784 412.8965,-104.4335 376.2,-99.2986"/>
<polygon fill="#9a32cd" stroke="#9a32cd" points="488.8051,-267.6675 493.1808,-277.3165 495.7773,-267.0447 488.8051,-267.6675"/>
<text text-anchor="middle" x="526" y="-196" font-family="Helvetica,sans-Serif" font-size="10.00" fill="#000000"> longname</text>
<text text-anchor="middle" x="526" y="-185" font-family="Helvetica,sans-Serif" font-size="10.00" fill="#000000">cmor_longname</text>
</g>
<!-- Node5 -->
<g id="node5" class="node">
<title>Node5</title>
<g id="a_node5"><a xlink:title=" ">
<polygon fill="#ffffff" stroke="#bfbfbf" points="65,-277.5 65,-296.5 157,-296.5 157,-277.5 65,-277.5"/>
<text text-anchor="middle" x="111" y="-284.5" font-family="Helvetica,sans-Serif" font-size="10.00" fill="#000000">character(len=48)</text>
</a>
</g>
</g>
<!-- Node5&#45;&gt;Node3 -->
<g id="edge5" class="edge">
<title>Node5&#45;&gt;Node3</title>
<path fill="none" stroke="#9a32cd" stroke-dasharray="5,2" d="M112.4178,-266.7457C115.5454,-228.1678 124.3747,-146.2677 144,-127 161.4843,-109.8342 223.4163,-101.1743 269.5629,-97.013"/>
<polygon fill="#9a32cd" stroke="#9a32cd" points="108.8906,-266.974 111.6246,-277.21 115.8705,-267.5032 108.8906,-266.974"/>
<text text-anchor="middle" x="179" y="-201.5" font-family="Helvetica,sans-Serif" font-size="10.00" fill="#000000"> conv_units</text>
<text text-anchor="middle" x="179" y="-190.5" font-family="Helvetica,sans-Serif" font-size="10.00" fill="#000000">cmor_tendprefix</text>
<text text-anchor="middle" x="179" y="-179.5" font-family="Helvetica,sans-Serif" font-size="10.00" fill="#000000">flux_units</text>
</g>
<!-- Node6 -->
<g id="node6" class="node">
<title>Node6</title>
<g id="a_node6"><a xlink:title=" ">
<polygon fill="#ffffff" stroke="#bfbfbf" points="175,-277.5 175,-296.5 267,-296.5 267,-277.5 175,-277.5"/>
<text text-anchor="middle" x="221" y="-284.5" font-family="Helvetica,sans-Serif" font-size="10.00" fill="#000000">character(len=64)</text>
</a>
</g>
</g>
<!-- Node6&#45;&gt;Node3 -->
<g id="edge6" class="edge">
<title>Node6&#45;&gt;Node3</title>
<path fill="none" stroke="#9a32cd" stroke-dasharray="5,2" d="M219.2719,-266.999C217.5293,-234.2116 218.7458,-168.5309 251,-127 257.0041,-119.269 265.216,-113.2495 273.9493,-108.5868"/>
<polygon fill="#9a32cd" stroke="#9a32cd" points="215.7906,-267.3935 219.9657,-277.131 222.7743,-266.9153 215.7906,-267.3935"/>
<text text-anchor="middle" x="283" y="-207" font-family="Helvetica,sans-Serif" font-size="10.00" fill="#000000"> units</text>
<text text-anchor="middle" x="283" y="-196" font-family="Helvetica,sans-Serif" font-size="10.00" fill="#000000">flux_longname</text>
<text text-anchor="middle" x="283" y="-185" font-family="Helvetica,sans-Serif" font-size="10.00" fill="#000000">cmor_units</text>
<text text-anchor="middle" x="283" y="-174" font-family="Helvetica,sans-Serif" font-size="10.00" fill="#000000">cmor_name</text>
</g>
<!-- Node7 -->
<g id="node7" class="node">
<title>Node7</title>
<g id="a_node7"><a xlink:title=" ">
<polygon fill="#ffffff" stroke="#bfbfbf" points="285,-277.5 285,-296.5 377,-296.5 377,-277.5 285,-277.5"/>
<text text-anchor="middle" x="331" y="-284.5" font-family="Helvetica,sans-Serif" font-size="10.00" fill="#000000">character(len=32)</text>
</a>
</g>
</g>
<!-- Node7&#45;&gt;Node3 -->
<g id="edge7" class="edge">
<title>Node7&#45;&gt;Node3</title>
<path fill="none" stroke="#9a32cd" stroke-dasharray="5,2" d="M325.5077,-267.5594C324.8874,-264.7092 324.3524,-261.7933 324,-259 317.0581,-203.9812 320.0149,-137.8544 321.8906,-108.6397"/>
<polygon fill="#9a32cd" stroke="#9a32cd" points="322.1154,-268.4214 327.9564,-277.2607 328.9026,-266.7083 322.1154,-268.4214"/>
<text text-anchor="middle" x="356.5" y="-196" font-family="Helvetica,sans-Serif" font-size="10.00" fill="#000000"> flux_nameroot</text>
<text text-anchor="middle" x="356.5" y="-185" font-family="Helvetica,sans-Serif" font-size="10.00" fill="#000000">name</text>
</g>
<!-- Node8 -->
<g id="node8" class="node">
<title>Node8</title>
<g id="a_node8"><a xlink:title=" ">
<polygon fill="#ffffff" stroke="#bfbfbf" points="616,-277.5 616,-296.5 662,-296.5 662,-277.5 616,-277.5"/>
<text text-anchor="middle" x="639" y="-284.5" font-family="Helvetica,sans-Serif" font-size="10.00" fill="#000000">integer</text>
</a>
</g>
</g>
<!-- Node8&#45;&gt;Node1 -->
<g id="edge10" class="edge">
<title>Node8&#45;&gt;Node1</title>
<path fill="none" stroke="#9a32cd" stroke-dasharray="5,2" d="M669.0439,-271.7725C673.4532,-268.1981 677.3839,-263.9545 680,-259 707.3929,-207.1213 714.7542,-174.2644 680,-127 643.8423,-77.8269 468.2588,-40.7441 377.5312,-24.5133"/>
<polygon fill="#9a32cd" stroke="#9a32cd" points="667.0059,-268.9264 660.7712,-277.4925 670.9871,-274.6841 667.0059,-268.9264"/>
<text text-anchor="middle" x="665.5" y="-91" font-family="Helvetica,sans-Serif" font-size="10.00" fill="#000000"> ntr</text>
</g>
<!-- Node8&#45;&gt;Node3 -->
<g id="edge8" class="edge">
<title>Node8&#45;&gt;Node3</title>
<path fill="none" stroke="#9a32cd" stroke-dasharray="5,2" d="M606.758,-275.8649C598.8869,-271.7134 591.2341,-266.1993 586,-259 550.9817,-210.8337 605.8147,-168.3905 563,-127 549.7857,-114.2253 442.7801,-103.2812 376.1878,-97.6211"/>
<polygon fill="#9a32cd" stroke="#9a32cd" points="605.4216,-279.1031 615.9664,-280.1317 608.3646,-272.7518 605.4216,-279.1031"/>
<text text-anchor="middle" x="633" y="-251" font-family="Helvetica,sans-Serif" font-size="10.00" fill="#000000"> id_trxh_tendency_2d</text>
<text text-anchor="middle" x="633" y="-240" font-family="Helvetica,sans-Serif" font-size="10.00" fill="#000000">id_adx</text>
<text text-anchor="middle" x="633" y="-229" font-family="Helvetica,sans-Serif" font-size="10.00" fill="#000000">id_dfxy_cont_2d</text>
<text text-anchor="middle" x="633" y="-218" font-family="Helvetica,sans-Serif" font-size="10.00" fill="#000000">id_dfx</text>
<text text-anchor="middle" x="633" y="-207" font-family="Helvetica,sans-Serif" font-size="10.00" fill="#000000">id_ady</text>
<text text-anchor="start" x="586" y="-196" font-family="Helvetica,sans-Serif" font-size="10.00" fill="#000000">id_remap_cont</text>
<text text-anchor="middle" x="633" y="-185" font-family="Helvetica,sans-Serif" font-size="10.00" fill="#000000">_2d</text>
<text text-anchor="middle" x="633" y="-174" font-family="Helvetica,sans-Serif" font-size="10.00" fill="#000000">id_dfxy_conc</text>
<text text-anchor="middle" x="633" y="-163" font-family="Helvetica,sans-Serif" font-size="10.00" fill="#000000">id_dfy</text>
<text text-anchor="middle" x="633" y="-152" font-family="Helvetica,sans-Serif" font-size="10.00" fill="#000000">id_tr_vardec</text>
<text text-anchor="middle" x="633" y="-141" font-family="Helvetica,sans-Serif" font-size="10.00" fill="#000000">id_remap_conc</text>
<text text-anchor="middle" x="633" y="-130" font-family="Helvetica,sans-Serif" font-size="10.00" fill="#000000">...</text>
</g>
<!-- Node9 -->
<g id="node9" class="node">
<title>Node9</title>
<g id="a_node9"><a xlink:title=" ">
<polygon fill="#ffffff" stroke="#bfbfbf" points="395,-277.5 395,-296.5 427,-296.5 427,-277.5 395,-277.5"/>
<text text-anchor="middle" x="411" y="-284.5" font-family="Helvetica,sans-Serif" font-size="10.00" fill="#000000">real</text>
</a>
</g>
</g>
<!-- Node9&#45;&gt;Node3 -->
<g id="edge9" class="edge">
<title>Node9&#45;&gt;Node3</title>
<path fill="none" stroke="#9a32cd" stroke-dasharray="5,2" d="M410.529,-267.2533C409.2738,-229.5636 404.773,-149.1465 389,-127 383.5583,-119.3594 375.8533,-113.3523 367.6183,-108.6684"/>
<polygon fill="#9a32cd" stroke="#9a32cd" points="407.0366,-267.5715 410.8232,-277.4665 414.0337,-267.3698 407.0366,-267.5715"/>
<text text-anchor="middle" x="439" y="-251" font-family="Helvetica,sans-Serif" font-size="10.00" fill="#000000"> conv_scale</text>
<text text-anchor="middle" x="439" y="-240" font-family="Helvetica,sans-Serif" font-size="10.00" fill="#000000">lbd_dfx_2d</text>
<text text-anchor="middle" x="439" y="-229" font-family="Helvetica,sans-Serif" font-size="10.00" fill="#000000">advection_xy</text>
<text text-anchor="middle" x="439" y="-218" font-family="Helvetica,sans-Serif" font-size="10.00" fill="#000000">lbd_dfy_2d</text>
<text text-anchor="middle" x="439" y="-207" font-family="Helvetica,sans-Serif" font-size="10.00" fill="#000000">lbd_dfx</text>
<text text-anchor="middle" x="439" y="-196" font-family="Helvetica,sans-Serif" font-size="10.00" fill="#000000">lbd_dfy</text>
<text text-anchor="middle" x="439" y="-185" font-family="Helvetica,sans-Serif" font-size="10.00" fill="#000000">df2d_x</text>
<text text-anchor="start" x="410" y="-174" font-family="Helvetica,sans-Serif" font-size="10.00" fill="#000000">lbd_bulk_df</text>
<text text-anchor="middle" x="439" y="-163" font-family="Helvetica,sans-Serif" font-size="10.00" fill="#000000">_x</text>
<text text-anchor="middle" x="439" y="-152" font-family="Helvetica,sans-Serif" font-size="10.00" fill="#000000">trxh_prev</text>
<text text-anchor="middle" x="439" y="-141" font-family="Helvetica,sans-Serif" font-size="10.00" fill="#000000">df2d_y</text>
<text text-anchor="middle" x="439" y="-130" font-family="Helvetica,sans-Serif" font-size="10.00" fill="#000000">...</text>
</g>
</g>
</svg>
        <g id="navigator" transform="translate(0 0)" fill="#404254">
                <rect fill="#f2f5e9" fill-opacity="0.5" stroke="#606060" stroke-width=".5" x="0" y="0" width="60" height="60"/>
                <use id="zoomplus" xlink:href="#zoomPlus" x="17" y="9" onmousedown="handleZoom(evt,'in')"/>
                <use id="zoomminus" xlink:href="#zoomMin" x="42" y="9" onmousedown="handleZoom(evt,'out')"/>
                <use id="reset" xlink:href="#resetDef" x="30" y="36" onmousedown="handleReset()"/>
                <g id="arrowUp" xlink:href="#dirArrow" transform="translate(30 24)" onmousedown="handlePan(0,-1)">
                  <use xlink:href="#rim" fill="#404040">
                        <set attributeName="fill" to="#808080" begin="arrowUp.mouseover" end="arrowUp.mouseout"/>
                  </use>
                  <path fill="none" stroke="white" stroke-width="1.5" d="M0,-3.0v7 M-2.5,-0.5L0,-3.0L2.5,-0.5"/>
                </g>
                <g id="arrowRight" xlink:href="#dirArrow" transform="rotate(90) translate(36 -43)" onmousedown="handlePan(1,0)">
                  <use xlink:href="#rim" fill="#404040">
                        <set attributeName="fill" to="#808080" begin="arrowRight.mouseover" end="arrowRight.mouseout"/>
                  </use>
                  <path fill="none" stroke="white" stroke-width="1.5" d="M0,-3.0v7 M-2.5,-0.5L0,-3.0L2.5,-0.5"/>
                </g>
                <g id="arrowDown" xlink:href="#dirArrow" transform="rotate(180) translate(-30 -48)" onmousedown="handlePan(0,1)">
                  <use xlink:href="#rim" fill="#404040">
                        <set attributeName="fill" to="#808080" begin="arrowDown.mouseover" end="arrowDown.mouseout"/>
                  </use>
                  <path fill="none" stroke="white" stroke-width="1.5" d="M0,-3.0v7 M-2.5,-0.5L0,-3.0L2.5,-0.5"/>
                </g>
                <g id="arrowLeft" xlink:href="#dirArrow" transform="rotate(270) translate(-36 17)" onmousedown="handlePan(-1,0)">
                  <use xlink:href="#rim" fill="#404040">
                        <set attributeName="fill" to="#808080" begin="arrowLeft.mouseover" end="arrowLeft.mouseout"/>
                  </use>
                  <path fill="none" stroke="white" stroke-width="1.5" d="M0,-3.0v7 M-2.5,-0.5L0,-3.0L2.5,-0.5"/>
                </g>
        </g>
        <svg viewBox="0 0 15 15" width="100%" height="30px" preserveAspectRatio="xMaxYMin meet">
         <g id="arrow_out" transform="scale(0.3 0.3)">
          <a xlink:href="structmom__tracer__registry_1_1tracer__registry__type__coll__graph_org.svg" target="_base">
           <rect id="button" ry="5" rx="5" y="6" x="6" height="38" width="38"
                fill="#f2f5e9" fill-opacity="0.5" stroke="#606060" stroke-width="1.0"/>
           <path id="arrow"
             d="M 11.500037,31.436501 C 11.940474,20.09759 22.043105,11.32322 32.158766,21.979434 L 37.068811,17.246167 C 37.068811,17.246167 37.088388,32 37.088388,32 L 22.160133,31.978069 C 22.160133,31.978069 26.997745,27.140456 26.997745,27.140456 C 18.528582,18.264221 13.291696,25.230495 11.500037,31.436501 z"
             style="fill:#404040;"/>
          </a>
         </g>
        </svg>
</svg>
