<?xml version="1.0" encoding="UTF-8" standalone="no"?>
<!DOCTYPE svg PUBLIC "-//W3C//DTD SVG 1.1//EN"
 "http://www.w3.org/Graphics/SVG/1.1/DTD/svg11.dtd">
<!-- Generated by graphviz version 2.40.1 (20161225.0304)
 -->
<!-- Title: mom_open_boundary::obc_registry_type Pages: 1 -->
<svg width="250pt" height="184pt"
 viewBox="0.00 0.00 250.00 184.00" xmlns="http://www.w3.org/2000/svg" xmlns:xlink="http://www.w3.org/1999/xlink">
<g id="graph0" class="graph" transform="scale(1 1) rotate(0) translate(4 180)">
<title>mom_open_boundary::obc_registry_type</title>
<polygon fill="#ffffff" stroke="transparent" points="-4,4 -4,-180 246,-180 246,4 -4,4"/>
<!-- Node1 -->
<g id="node1" class="node">
<title>Node1</title>
<g id="a_node1"><a xlink:title="Type to carry basic OBC information needed for updating values.">
<polygon fill="#bfbfbf" stroke="#000000" points="62,-.5 62,-30.5 178,-30.5 178,-.5 62,-.5"/>
<text text-anchor="start" x="70" y="-18.5" font-family="Helvetica,sans-Serif" font-size="10.00" fill="#000000">mom_open_boundary::</text>
<text text-anchor="middle" x="120" y="-7.5" font-family="Helvetica,sans-Serif" font-size="10.00" fill="#000000">obc_registry_type</text>
</a>
</g>
</g>
<!-- Node2 -->
<g id="node2" class="node">
<title>Node2</title>
<g id="a_node2"><a xlink:title=" ">
<polygon fill="#ffffff" stroke="#bfbfbf" points="0,-84 0,-103 44,-103 44,-84 0,-84"/>
<text text-anchor="middle" x="22" y="-91" font-family="Helvetica,sans-Serif" font-size="10.00" fill="#000000">logical</text>
</a>
</g>
</g>
<!-- Node2&#45;&gt;Node1 -->
<g id="edge1" class="edge">
<title>Node2&#45;&gt;Node1</title>
<path fill="none" stroke="#9a32cd" stroke-dasharray="5,2" d="M42.2593,-77.3752C59.4439,-63.6977 83.9231,-44.2143 100.7991,-30.7824"/>
<polygon fill="#9a32cd" stroke="#9a32cd" points="39.6614,-74.9697 34.0167,-83.9357 44.0206,-80.4467 39.6614,-74.9697"/>
<text text-anchor="middle" x="93" y="-52" font-family="Helvetica,sans-Serif" font-size="10.00" fill="#000000"> locked</text>
</g>
<!-- Node3 -->
<g id="node3" class="node">
<title>Node3</title>
<g id="a_node3"><a xlink:href="structmom__open__boundary_1_1obc__struct__type.html" target="_top" xlink:title="Type to carry something (what] for the OBC registry.">
<polygon fill="#ffffff" stroke="#000000" points="62,-78.5 62,-108.5 178,-108.5 178,-78.5 62,-78.5"/>
<text text-anchor="start" x="70" y="-96.5" font-family="Helvetica,sans-Serif" font-size="10.00" fill="#000000">mom_open_boundary::</text>
<text text-anchor="middle" x="120" y="-85.5" font-family="Helvetica,sans-Serif" font-size="10.00" fill="#000000">obc_struct_type</text>
</a>
</g>
</g>
<!-- Node3&#45;&gt;Node1 -->
<g id="edge2" class="edge">
<title>Node3&#45;&gt;Node1</title>
<path fill="none" stroke="#9a32cd" stroke-dasharray="5,2" d="M120,-68.2875C120,-55.9187 120,-41.4264 120,-30.7592"/>
<polygon fill="#9a32cd" stroke="#9a32cd" points="116.5001,-68.4608 120,-78.4608 123.5001,-68.4608 116.5001,-68.4608"/>
<text text-anchor="middle" x="127" y="-52" font-family="Helvetica,sans-Serif" font-size="10.00" fill="#000000"> ob</text>
</g>
<!-- Node4 -->
<g id="node4" class="node">
<title>Node4</title>
<g id="a_node4"><a xlink:title=" ">
<polygon fill="#ffffff" stroke="#bfbfbf" points="74,-156.5 74,-175.5 166,-175.5 166,-156.5 74,-156.5"/>
<text text-anchor="middle" x="120" y="-163.5" font-family="Helvetica,sans-Serif" font-size="10.00" fill="#000000">character(len=32)</text>
</a>
</g>
</g>
<!-- Node4&#45;&gt;Node3 -->
<g id="edge3" class="edge">
<title>Node4&#45;&gt;Node3</title>
<path fill="none" stroke="#9a32cd" stroke-dasharray="5,2" d="M120,-146.0177C120,-134.2164 120,-119.513 120,-108.668"/>
<polygon fill="#9a32cd" stroke="#9a32cd" points="116.5001,-146.2223 120,-156.2223 123.5001,-146.2224 116.5001,-146.2223"/>
<text text-anchor="middle" x="134" y="-130" font-family="Helvetica,sans-Serif" font-size="10.00" fill="#000000"> name</text>
</g>
<!-- Node5 -->
<g id="node5" class="node">
<title>Node5</title>
<g id="a_node5"><a xlink:title=" ">
<polygon fill="#ffffff" stroke="#bfbfbf" points="196,-84 196,-103 242,-103 242,-84 196,-84"/>
<text text-anchor="middle" x="219" y="-91" font-family="Helvetica,sans-Serif" font-size="10.00" fill="#000000">integer</text>
</a>
</g>
</g>
<!-- Node5&#45;&gt;Node1 -->
<g id="edge4" class="edge">
<title>Node5&#45;&gt;Node1</title>
<path fill="none" stroke="#9a32cd" stroke-dasharray="5,2" d="M198.5339,-77.3752C181.174,-63.6977 156.4451,-44.2143 139.3969,-30.7824"/>
<polygon fill="#9a32cd" stroke="#9a32cd" points="196.8397,-80.4961 206.8607,-83.9357 201.1718,-74.9977 196.8397,-80.4961"/>
<text text-anchor="middle" x="188.5" y="-52" font-family="Helvetica,sans-Serif" font-size="10.00" fill="#000000"> nobc</text>
</g>
</g>
</svg>
