<?xml version="1.0" encoding="UTF-8" standalone="no"?>
<!DOCTYPE svg PUBLIC "-//W3C//DTD SVG 1.1//EN"
 "http://www.w3.org/Graphics/SVG/1.1/DTD/svg11.dtd">
<!-- Generated by graphviz version 2.40.1 (20161225.0304)
 -->
<!-- Title: mom_int_tide_input::int_tide_input_cs Pages: 1 -->
<!--zoomable 172 -->
<svg id="main" version="1.1" xmlns="http://www.w3.org/2000/svg" xmlns:xlink="http://www.w3.org/1999/xlink" xml:space="preserve" onload="init(evt)">
<style type="text/css"><![CDATA[
.edge:hover path { stroke: red; }
.edge:hover polygon { stroke: red; fill: red; }
]]></style>
<script type="text/javascript"><![CDATA[
var edges = document.getElementsByTagName('g');
if (edges && edges.length) {
  for (var i=0;i<edges.length;i++) {
    if (edges[i].id.substr(0,4)=='edge') {
      edges[i].setAttribute('class','edge');
    }
  }
}
]]></script>
        <defs>
                <circle id="rim" cx="0" cy="0" r="7"/>
                <circle id="rim2" cx="0" cy="0" r="3.5"/>
                <g id="zoomPlus">
                        <use xlink:href="#rim" fill="#404040">
                                <set attributeName="fill" to="#808080" begin="zoomplus.mouseover" end="zoomplus.mouseout"/>
                        </use>
                        <path d="M-4,0h8M0,-4v8" fill="none" stroke="white" stroke-width="1.5" pointer-events="none"/>
                </g>
                <g id="zoomMin">
                        <use xlink:href="#rim" fill="#404040">
                                <set attributeName="fill" to="#808080" begin="zoomminus.mouseover" end="zoomminus.mouseout"/>
                        </use>
                        <path d="M-4,0h8" fill="none" stroke="white" stroke-width="1.5" pointer-events="none"/>
                </g>
                <g id="dirArrow">
                        <path fill="none" stroke="white" stroke-width="1.5" d="M0,-3.0v7 M-2.5,-0.5L0,-3.0L2.5,-0.5"/>
                </g>
               <g id="resetDef">
                       <use xlink:href="#rim2" fill="#404040">
                               <set attributeName="fill" to="#808080" begin="reset.mouseover" end="reset.mouseout"/>
                       </use>
               </g>
        </defs>

<script type="text/javascript">
var viewWidth = 575;
var viewHeight = 172;
var sectionId = 'dynsection-0';
</script>
<script xlink:href="svgpan.js"/>
<svg id="graph" class="graph">
<g id="viewport">
<title>mom_int_tide_input::int_tide_input_cs</title>
<polygon fill="#ffffff" stroke="transparent" points="-4,4 -4,-168 570.5,-168 570.5,4 -4,4"/>
<!-- Node1 -->
<g id="node1" class="node">
<title>Node1</title>
<g id="a_node1"><a xlink:title="This control structure holds parameters that regulate internal tide energy inputs.">
<polygon fill="#bfbfbf" stroke="#000000" points="247.5,-.5 247.5,-30.5 355.5,-30.5 355.5,-.5 247.5,-.5"/>
<text text-anchor="start" x="255.5" y="-18.5" font-family="Helvetica,sans-Serif" font-size="10.00" fill="#000000">mom_int_tide_input</text>
<text text-anchor="middle" x="301.5" y="-7.5" font-family="Helvetica,sans-Serif" font-size="10.00" fill="#000000">::int_tide_input_cs</text>
</a>
</g>
</g>
<!-- Node2 -->
<g id="node2" class="node">
<title>Node2</title>
<g id="a_node2"><a xlink:title=" ">
<polygon fill="#ffffff" stroke="#bfbfbf" points="0,-144.5 0,-163.5 47,-163.5 47,-144.5 0,-144.5"/>
<text text-anchor="middle" x="23.5" y="-151.5" font-family="Helvetica,sans-Serif" font-size="10.00" fill="#000000">logical</text>
</a>
</g>
</g>
<!-- Node2&#45;&gt;Node1 -->
<g id="edge1" class="edge">
<title>Node2&#45;&gt;Node1</title>
<path fill="none" stroke="#9a32cd" stroke-dasharray="5,2" d="M19.7235,-134.2618C16.4391,-110.5366 15.202,-71.1573 37.5,-49 52.1041,-34.4881 174.3629,-23.9437 247.2785,-18.8774"/>
<polygon fill="#9a32cd" stroke="#9a32cd" points="16.2848,-134.9214 21.3527,-144.2255 23.1931,-133.7917 16.2848,-134.9214"/>
<text text-anchor="middle" x="87" y="-90.5" font-family="Helvetica,sans-Serif" font-size="10.00" fill="#000000"> int_tide_source_test</text>
<text text-anchor="middle" x="87" y="-79.5" font-family="Helvetica,sans-Serif" font-size="10.00" fill="#000000">debug</text>
</g>
<!-- Node3 -->
<g id="node3" class="node">
<title>Node3</title>
<g id="a_node3"><a xlink:title=" ">
<polygon fill="#ffffff" stroke="#bfbfbf" points="114.5,-144.5 114.5,-163.5 176.5,-163.5 176.5,-144.5 114.5,-144.5"/>
<text text-anchor="middle" x="145.5" y="-151.5" font-family="Helvetica,sans-Serif" font-size="10.00" fill="#000000">time_type</text>
</a>
</g>
</g>
<!-- Node3&#45;&gt;Node1 -->
<g id="edge2" class="edge">
<title>Node3&#45;&gt;Node1</title>
<path fill="none" stroke="#9a32cd" stroke-dasharray="5,2" d="M142.3041,-134.3056C139.7084,-110.9099 139.3792,-72.1444 160.5,-49 172.2873,-36.0833 212.8433,-27.317 247.4518,-22.0021"/>
<polygon fill="#9a32cd" stroke="#9a32cd" points="138.8636,-134.9817 143.6763,-144.4203 145.8001,-134.0406 138.8636,-134.9817"/>
<text text-anchor="middle" x="203.5" y="-85" font-family="Helvetica,sans-Serif" font-size="10.00" fill="#000000"> time_max_source</text>
</g>
<!-- Node4 -->
<g id="node4" class="node">
<title>Node4</title>
<g id="a_node4"><a xlink:title=" ">
<polygon fill="#ffffff" stroke="#bfbfbf" points="194.5,-144.5 194.5,-163.5 302.5,-163.5 302.5,-144.5 194.5,-144.5"/>
<text text-anchor="middle" x="248.5" y="-151.5" font-family="Helvetica,sans-Serif" font-size="10.00" fill="#000000">character(len=200)</text>
</a>
</g>
</g>
<!-- Node4&#45;&gt;Node1 -->
<g id="edge3" class="edge">
<title>Node4&#45;&gt;Node1</title>
<path fill="none" stroke="#9a32cd" stroke-dasharray="5,2" d="M249.7947,-134.4389C251.9031,-112.5631 257.3834,-76.5859 271.5,-49 274.9143,-42.328 279.9866,-35.949 284.9933,-30.5816"/>
<polygon fill="#9a32cd" stroke="#9a32cd" points="246.3009,-134.2213 248.9717,-144.4739 253.2775,-134.7935 246.3009,-134.2213"/>
<text text-anchor="middle" x="290.5" y="-85" font-family="Helvetica,sans-Serif" font-size="10.00" fill="#000000"> inputdir</text>
</g>
<!-- Node5 -->
<g id="node5" class="node">
<title>Node5</title>
<g id="a_node5"><a xlink:title=" ">
<polygon fill="#ffffff" stroke="#bfbfbf" points="321,-144.5 321,-163.5 378,-163.5 378,-144.5 321,-144.5"/>
<text text-anchor="middle" x="349.5" y="-151.5" font-family="Helvetica,sans-Serif" font-size="10.00" fill="#000000">diag_ctrl</text>
</a>
</g>
</g>
<!-- Node5&#45;&gt;Node1 -->
<g id="edge4" class="edge">
<title>Node5&#45;&gt;Node1</title>
<path fill="none" stroke="#9a32cd" stroke-dasharray="5,2" d="M342.8268,-134.7451C333.1984,-106.963 315.602,-56.1903 306.8037,-30.8033"/>
<polygon fill="#9a32cd" stroke="#9a32cd" points="339.6191,-136.1778 346.2008,-144.4803 346.2331,-133.8855 339.6191,-136.1778"/>
<text text-anchor="middle" x="350.5" y="-85" font-family="Helvetica,sans-Serif" font-size="10.00" fill="#000000"> diag</text>
</g>
<!-- Node6 -->
<g id="node6" class="node">
<title>Node6</title>
<g id="a_node6"><a xlink:title=" ">
<polygon fill="#ffffff" stroke="#bfbfbf" points="396.5,-144.5 396.5,-163.5 446.5,-163.5 446.5,-144.5 396.5,-144.5"/>
<text text-anchor="middle" x="421.5" y="-151.5" font-family="Helvetica,sans-Serif" font-size="10.00" fill="#000000">integer</text>
</a>
</g>
</g>
<!-- Node6&#45;&gt;Node1 -->
<g id="edge5" class="edge">
<title>Node6&#45;&gt;Node1</title>
<path fill="none" stroke="#9a32cd" stroke-dasharray="5,2" d="M415.4616,-134.7865C407.4417,-111.8977 391.3288,-73.6646 366.5,-49 359.0245,-41.5739 349.5637,-35.4417 340.1908,-30.545"/>
<polygon fill="#9a32cd" stroke="#9a32cd" points="412.1811,-136.0131 418.6654,-144.3919 418.8214,-133.7982 412.1811,-136.0131"/>
<text text-anchor="middle" x="440" y="-96" font-family="Helvetica,sans-Serif" font-size="10.00" fill="#000000"> id_nb</text>
<text text-anchor="middle" x="440" y="-85" font-family="Helvetica,sans-Serif" font-size="10.00" fill="#000000">id_tke_itidal</text>
<text text-anchor="middle" x="440" y="-74" font-family="Helvetica,sans-Serif" font-size="10.00" fill="#000000">id_n2_bot</text>
</g>
<!-- Node7 -->
<g id="node7" class="node">
<title>Node7</title>
<g id="a_node7"><a xlink:title=" ">
<polygon fill="#ffffff" stroke="#bfbfbf" points="474,-144.5 474,-163.5 509,-163.5 509,-144.5 474,-144.5"/>
<text text-anchor="middle" x="491.5" y="-151.5" font-family="Helvetica,sans-Serif" font-size="10.00" fill="#000000">real</text>
</a>
</g>
</g>
<!-- Node7&#45;&gt;Node1 -->
<g id="edge6" class="edge">
<title>Node7&#45;&gt;Node1</title>
<path fill="none" stroke="#9a32cd" stroke-dasharray="5,2" d="M493.3338,-134.0208C494.3211,-110.3437 492.0179,-71.3003 469.5,-49 453.6511,-33.3043 398.6969,-24.5007 355.9052,-19.9012"/>
<polygon fill="#9a32cd" stroke="#9a32cd" points="489.8236,-134.0607 492.6589,-144.2691 496.8085,-134.5207 489.8236,-134.0607"/>
<text text-anchor="middle" x="530" y="-118" font-family="Helvetica,sans-Serif" font-size="10.00" fill="#000000"> kappa_fill</text>
<text text-anchor="start" x="493.5" y="-107" font-family="Helvetica,sans-Serif" font-size="10.00" fill="#000000">int_tide_source</text>
<text text-anchor="middle" x="530" y="-96" font-family="Helvetica,sans-Serif" font-size="10.00" fill="#000000">_x</text>
<text text-anchor="middle" x="530" y="-85" font-family="Helvetica,sans-Serif" font-size="10.00" fill="#000000">tke_itidal_coef</text>
<text text-anchor="start" x="493.5" y="-74" font-family="Helvetica,sans-Serif" font-size="10.00" fill="#000000">int_tide_source</text>
<text text-anchor="middle" x="530" y="-63" font-family="Helvetica,sans-Serif" font-size="10.00" fill="#000000">_y</text>
<text text-anchor="middle" x="530" y="-52" font-family="Helvetica,sans-Serif" font-size="10.00" fill="#000000">tke_itide_max</text>
</g>
</g>
</svg>
        <g id="navigator" transform="translate(0 0)" fill="#404254">
                <rect fill="#f2f5e9" fill-opacity="0.5" stroke="#606060" stroke-width=".5" x="0" y="0" width="60" height="60"/>
                <use id="zoomplus" xlink:href="#zoomPlus" x="17" y="9" onmousedown="handleZoom(evt,'in')"/>
                <use id="zoomminus" xlink:href="#zoomMin" x="42" y="9" onmousedown="handleZoom(evt,'out')"/>
                <use id="reset" xlink:href="#resetDef" x="30" y="36" onmousedown="handleReset()"/>
                <g id="arrowUp" xlink:href="#dirArrow" transform="translate(30 24)" onmousedown="handlePan(0,-1)">
                  <use xlink:href="#rim" fill="#404040">
                        <set attributeName="fill" to="#808080" begin="arrowUp.mouseover" end="arrowUp.mouseout"/>
                  </use>
                  <path fill="none" stroke="white" stroke-width="1.5" d="M0,-3.0v7 M-2.5,-0.5L0,-3.0L2.5,-0.5"/>
                </g>
                <g id="arrowRight" xlink:href="#dirArrow" transform="rotate(90) translate(36 -43)" onmousedown="handlePan(1,0)">
                  <use xlink:href="#rim" fill="#404040">
                        <set attributeName="fill" to="#808080" begin="arrowRight.mouseover" end="arrowRight.mouseout"/>
                  </use>
                  <path fill="none" stroke="white" stroke-width="1.5" d="M0,-3.0v7 M-2.5,-0.5L0,-3.0L2.5,-0.5"/>
                </g>
                <g id="arrowDown" xlink:href="#dirArrow" transform="rotate(180) translate(-30 -48)" onmousedown="handlePan(0,1)">
                  <use xlink:href="#rim" fill="#404040">
                        <set attributeName="fill" to="#808080" begin="arrowDown.mouseover" end="arrowDown.mouseout"/>
                  </use>
                  <path fill="none" stroke="white" stroke-width="1.5" d="M0,-3.0v7 M-2.5,-0.5L0,-3.0L2.5,-0.5"/>
                </g>
                <g id="arrowLeft" xlink:href="#dirArrow" transform="rotate(270) translate(-36 17)" onmousedown="handlePan(-1,0)">
                  <use xlink:href="#rim" fill="#404040">
                        <set attributeName="fill" to="#808080" begin="arrowLeft.mouseover" end="arrowLeft.mouseout"/>
                  </use>
                  <path fill="none" stroke="white" stroke-width="1.5" d="M0,-3.0v7 M-2.5,-0.5L0,-3.0L2.5,-0.5"/>
                </g>
        </g>
        <svg viewBox="0 0 15 15" width="100%" height="30px" preserveAspectRatio="xMaxYMin meet">
         <g id="arrow_out" transform="scale(0.3 0.3)">
          <a xlink:href="structmom__int__tide__input_1_1int__tide__input__cs__coll__graph_org.svg" target="_base">
           <rect id="button" ry="5" rx="5" y="6" x="6" height="38" width="38"
                fill="#f2f5e9" fill-opacity="0.5" stroke="#606060" stroke-width="1.0"/>
           <path id="arrow"
             d="M 11.500037,31.436501 C 11.940474,20.09759 22.043105,11.32322 32.158766,21.979434 L 37.068811,17.246167 C 37.068811,17.246167 37.088388,32 37.088388,32 L 22.160133,31.978069 C 22.160133,31.978069 26.997745,27.140456 26.997745,27.140456 C 18.528582,18.264221 13.291696,25.230495 11.500037,31.436501 z"
             style="fill:#404040;"/>
          </a>
         </g>
        </svg>
</svg>
