<?xml version="1.0" encoding="UTF-8" standalone="no"?>
<!DOCTYPE svg PUBLIC "-//W3C//DTD SVG 1.1//EN"
 "http://www.w3.org/Graphics/SVG/1.1/DTD/svg11.dtd">
<!-- Generated by graphviz version 2.40.1 (20161225.0304)
 -->
<!-- Title: mom_tracer_hor_diff::tracer_hor_diff_cs Pages: 1 -->
<!--zoomable 216 -->
<svg id="main" version="1.1" xmlns="http://www.w3.org/2000/svg" xmlns:xlink="http://www.w3.org/1999/xlink" xml:space="preserve" onload="init(evt)">
<style type="text/css"><![CDATA[
.edge:hover path { stroke: red; }
.edge:hover polygon { stroke: red; fill: red; }
]]></style>
<script type="text/javascript"><![CDATA[
var edges = document.getElementsByTagName('g');
if (edges && edges.length) {
  for (var i=0;i<edges.length;i++) {
    if (edges[i].id.substr(0,4)=='edge') {
      edges[i].setAttribute('class','edge');
    }
  }
}
]]></script>
        <defs>
                <circle id="rim" cx="0" cy="0" r="7"/>
                <circle id="rim2" cx="0" cy="0" r="3.5"/>
                <g id="zoomPlus">
                        <use xlink:href="#rim" fill="#404040">
                                <set attributeName="fill" to="#808080" begin="zoomplus.mouseover" end="zoomplus.mouseout"/>
                        </use>
                        <path d="M-4,0h8M0,-4v8" fill="none" stroke="white" stroke-width="1.5" pointer-events="none"/>
                </g>
                <g id="zoomMin">
                        <use xlink:href="#rim" fill="#404040">
                                <set attributeName="fill" to="#808080" begin="zoomminus.mouseover" end="zoomminus.mouseout"/>
                        </use>
                        <path d="M-4,0h8" fill="none" stroke="white" stroke-width="1.5" pointer-events="none"/>
                </g>
                <g id="dirArrow">
                        <path fill="none" stroke="white" stroke-width="1.5" d="M0,-3.0v7 M-2.5,-0.5L0,-3.0L2.5,-0.5"/>
                </g>
               <g id="resetDef">
                       <use xlink:href="#rim2" fill="#404040">
                               <set attributeName="fill" to="#808080" begin="reset.mouseover" end="reset.mouseout"/>
                       </use>
               </g>
        </defs>

<script type="text/javascript">
var viewWidth = 613;
var viewHeight = 216;
var sectionId = 'dynsection-0';
</script>
<script xlink:href="svgpan.js"/>
<svg id="graph" class="graph">
<g id="viewport">
<title>mom_tracer_hor_diff::tracer_hor_diff_cs</title>
<polygon fill="#ffffff" stroke="transparent" points="-4,4 -4,-212 608.5,-212 608.5,4 -4,4"/>
<!-- Node1 -->
<g id="node1" class="node">
<title>Node1</title>
<g id="a_node1"><a xlink:title="The ocntrol structure for along&#45;layer and epineutral tracer diffusion.">
<polygon fill="#bfbfbf" stroke="#000000" points="205,-.5 205,-30.5 320,-30.5 320,-.5 205,-.5"/>
<text text-anchor="start" x="213" y="-18.5" font-family="Helvetica,sans-Serif" font-size="10.00" fill="#000000">mom_tracer_hor_diff</text>
<text text-anchor="middle" x="262.5" y="-7.5" font-family="Helvetica,sans-Serif" font-size="10.00" fill="#000000">::tracer_hor_diff_cs</text>
</a>
</g>
</g>
<!-- Node2 -->
<g id="node2" class="node">
<title>Node2</title>
<g id="a_node2"><a xlink:title=" ">
<polygon fill="#ffffff" stroke="#bfbfbf" points="0,-183 0,-202 47,-202 47,-183 0,-183"/>
<text text-anchor="middle" x="23.5" y="-190" font-family="Helvetica,sans-Serif" font-size="10.00" fill="#000000">logical</text>
</a>
</g>
</g>
<!-- Node2&#45;&gt;Node1 -->
<g id="edge1" class="edge">
<title>Node2&#45;&gt;Node1</title>
<path fill="none" stroke="#9a32cd" stroke-dasharray="5,2" d="M18.0572,-173.0084C10.7948,-142.3199 2.199,-82.7644 33.5,-49 45.0241,-36.569 140.8599,-25.9701 204.8468,-20.1895"/>
<polygon fill="#9a32cd" stroke="#9a32cd" points="14.7213,-174.0905 20.5961,-182.9074 21.5019,-172.3513 14.7213,-174.0905"/>
<text text-anchor="middle" x="83.5" y="-129" font-family="Helvetica,sans-Serif" font-size="10.00" fill="#000000"> diffuse_ml_interior</text>
<text text-anchor="middle" x="83.5" y="-118" font-family="Helvetica,sans-Serif" font-size="10.00" fill="#000000">first_call</text>
<text text-anchor="middle" x="83.5" y="-107" font-family="Helvetica,sans-Serif" font-size="10.00" fill="#000000">show_call_tree</text>
<text text-anchor="middle" x="83.5" y="-96" font-family="Helvetica,sans-Serif" font-size="10.00" fill="#000000">check_diffusive_cfl</text>
<text text-anchor="middle" x="83.5" y="-85" font-family="Helvetica,sans-Serif" font-size="10.00" fill="#000000">debug</text>
<text text-anchor="middle" x="83.5" y="-74" font-family="Helvetica,sans-Serif" font-size="10.00" fill="#000000">use_neutral_diffusion</text>
</g>
<!-- Node3 -->
<g id="node3" class="node">
<title>Node3</title>
<g id="a_node3"><a xlink:title=" ">
<polygon fill="#ffffff" stroke="#bfbfbf" points="81.5,-183 81.5,-202 179.5,-202 179.5,-183 81.5,-183"/>
<text text-anchor="middle" x="130.5" y="-190" font-family="Helvetica,sans-Serif" font-size="10.00" fill="#000000">group_pass_type</text>
</a>
</g>
</g>
<!-- Node3&#45;&gt;Node1 -->
<g id="edge2" class="edge">
<title>Node3&#45;&gt;Node1</title>
<path fill="none" stroke="#9a32cd" stroke-dasharray="5,2" d="M134.3867,-172.713C141.2412,-142.5264 158.1281,-84.7223 192.5,-49 199.7863,-41.4274 209.1309,-35.3594 218.6032,-30.5822"/>
<polygon fill="#9a32cd" stroke="#9a32cd" points="130.8927,-172.317 132.2354,-182.8264 137.7395,-173.7735 130.8927,-172.317"/>
<text text-anchor="middle" x="210" y="-101.5" font-family="Helvetica,sans-Serif" font-size="10.00" fill="#000000"> pass_t</text>
</g>
<!-- Node4 -->
<g id="node4" class="node">
<title>Node4</title>
<g id="a_node4"><a xlink:title=" ">
<polygon fill="#ffffff" stroke="#bfbfbf" points="198,-183 198,-202 255,-202 255,-183 198,-183"/>
<text text-anchor="middle" x="226.5" y="-190" font-family="Helvetica,sans-Serif" font-size="10.00" fill="#000000">diag_ctrl</text>
</a>
</g>
</g>
<!-- Node4&#45;&gt;Node1 -->
<g id="edge3" class="edge">
<title>Node4&#45;&gt;Node1</title>
<path fill="none" stroke="#9a32cd" stroke-dasharray="5,2" d="M229.3845,-172.6439C233.5884,-144.8162 242.0482,-92.7188 252.5,-49 253.9395,-42.9787 255.8194,-36.4374 257.5603,-30.7464"/>
<polygon fill="#9a32cd" stroke="#9a32cd" points="225.9013,-172.273 227.8952,-182.6785 232.8254,-173.3007 225.9013,-172.273"/>
<text text-anchor="middle" x="264.5" y="-101.5" font-family="Helvetica,sans-Serif" font-size="10.00" fill="#000000"> diag</text>
</g>
<!-- Node5 -->
<g id="node5" class="node">
<title>Node5</title>
<g id="a_node5"><a xlink:title=" ">
<polygon fill="#ffffff" stroke="#bfbfbf" points="273.5,-183 273.5,-202 323.5,-202 323.5,-183 273.5,-183"/>
<text text-anchor="middle" x="298.5" y="-190" font-family="Helvetica,sans-Serif" font-size="10.00" fill="#000000">integer</text>
</a>
</g>
</g>
<!-- Node5&#45;&gt;Node1 -->
<g id="edge4" class="edge">
<title>Node5&#45;&gt;Node1</title>
<path fill="none" stroke="#9a32cd" stroke-dasharray="5,2" d="M297.0155,-172.878C294.5609,-144.9421 288.6674,-92.2916 276.5,-49 274.7604,-42.8103 272.1845,-36.2348 269.7149,-30.5636"/>
<polygon fill="#9a32cd" stroke="#9a32cd" points="293.5341,-173.2487 297.8417,-182.9284 300.5106,-172.6752 293.5341,-173.2487"/>
<text text-anchor="middle" x="317.5" y="-129" font-family="Helvetica,sans-Serif" font-size="10.00" fill="#000000"> id_cfl</text>
<text text-anchor="middle" x="317.5" y="-118" font-family="Helvetica,sans-Serif" font-size="10.00" fill="#000000">id_khdt_x</text>
<text text-anchor="middle" x="317.5" y="-107" font-family="Helvetica,sans-Serif" font-size="10.00" fill="#000000">id_khtr_h</text>
<text text-anchor="middle" x="317.5" y="-96" font-family="Helvetica,sans-Serif" font-size="10.00" fill="#000000">id_khtr_u</text>
<text text-anchor="middle" x="317.5" y="-85" font-family="Helvetica,sans-Serif" font-size="10.00" fill="#000000">id_khdt_y</text>
<text text-anchor="middle" x="317.5" y="-74" font-family="Helvetica,sans-Serif" font-size="10.00" fill="#000000">id_khtr_v</text>
</g>
<!-- Node6 -->
<g id="node6" class="node">
<title>Node6</title>
<g id="a_node6"><a xlink:title=" ">
<polygon fill="#ffffff" stroke="#bfbfbf" points="341.5,-177.5 341.5,-207.5 459.5,-207.5 459.5,-177.5 341.5,-177.5"/>
<text text-anchor="start" x="349.5" y="-195.5" font-family="Helvetica,sans-Serif" font-size="10.00" fill="#000000">type(neutral_diffusion</text>
<text text-anchor="middle" x="400.5" y="-184.5" font-family="Helvetica,sans-Serif" font-size="10.00" fill="#000000">_cs), pointer</text>
</a>
</g>
</g>
<!-- Node6&#45;&gt;Node1 -->
<g id="edge5" class="edge">
<title>Node6&#45;&gt;Node1</title>
<path fill="none" stroke="#9a32cd" stroke-dasharray="5,2" d="M389.2927,-167.9535C387.9854,-164.9498 386.6937,-161.9133 385.5,-159 365.7178,-110.7213 380.8154,-86.4615 344.5,-49 337.0073,-41.2708 327.4812,-35.2638 317.5939,-30.615"/>
<polygon fill="#9a32cd" stroke="#9a32cd" points="386.1627,-169.5289 393.4218,-177.2462 392.5596,-166.6865 386.1627,-169.5289"/>
<text text-anchor="middle" x="437" y="-101.5" font-family="Helvetica,sans-Serif" font-size="10.00" fill="#000000"> neutral_diffusion_csp</text>
</g>
<!-- Node7 -->
<g id="node7" class="node">
<title>Node7</title>
<g id="a_node7"><a xlink:title=" ">
<polygon fill="#ffffff" stroke="#bfbfbf" points="493,-183 493,-202 528,-202 528,-183 493,-183"/>
<text text-anchor="middle" x="510.5" y="-190" font-family="Helvetica,sans-Serif" font-size="10.00" fill="#000000">real</text>
</a>
</g>
</g>
<!-- Node7&#45;&gt;Node1 -->
<g id="edge6" class="edge">
<title>Node7&#45;&gt;Node1</title>
<path fill="none" stroke="#9a32cd" stroke-dasharray="5,2" d="M514.0341,-172.7759C518.345,-141.7661 521.4382,-81.775 488.5,-49 476.6909,-37.2494 383.0512,-26.4942 320.0693,-20.4885"/>
<polygon fill="#9a32cd" stroke="#9a32cd" points="510.5562,-172.362 512.4553,-182.7853 517.4707,-173.4527 510.5562,-172.362"/>
<text text-anchor="middle" x="560.5" y="-151" font-family="Helvetica,sans-Serif" font-size="10.00" fill="#000000"> khtr_slope_cff</text>
<text text-anchor="middle" x="560.5" y="-140" font-family="Helvetica,sans-Serif" font-size="10.00" fill="#000000">max_diff_cfl</text>
<text text-anchor="middle" x="560.5" y="-129" font-family="Helvetica,sans-Serif" font-size="10.00" fill="#000000">ml_khtr_scale</text>
<text text-anchor="middle" x="560.5" y="-118" font-family="Helvetica,sans-Serif" font-size="10.00" fill="#000000">khtr_passivity_min</text>
<text text-anchor="middle" x="560.5" y="-107" font-family="Helvetica,sans-Serif" font-size="10.00" fill="#000000">khtr_max</text>
<text text-anchor="middle" x="560.5" y="-96" font-family="Helvetica,sans-Serif" font-size="10.00" fill="#000000">khtr_min</text>
<text text-anchor="middle" x="560.5" y="-85" font-family="Helvetica,sans-Serif" font-size="10.00" fill="#000000">khtr</text>
<text text-anchor="start" x="516.5" y="-74" font-family="Helvetica,sans-Serif" font-size="10.00" fill="#000000">khtr_passivity</text>
<text text-anchor="middle" x="560.5" y="-63" font-family="Helvetica,sans-Serif" font-size="10.00" fill="#000000">_coeff</text>
<text text-anchor="middle" x="560.5" y="-52" font-family="Helvetica,sans-Serif" font-size="10.00" fill="#000000">dt</text>
</g>
</g>
</svg>
        <g id="navigator" transform="translate(0 0)" fill="#404254">
                <rect fill="#f2f5e9" fill-opacity="0.5" stroke="#606060" stroke-width=".5" x="0" y="0" width="60" height="60"/>
                <use id="zoomplus" xlink:href="#zoomPlus" x="17" y="9" onmousedown="handleZoom(evt,'in')"/>
                <use id="zoomminus" xlink:href="#zoomMin" x="42" y="9" onmousedown="handleZoom(evt,'out')"/>
                <use id="reset" xlink:href="#resetDef" x="30" y="36" onmousedown="handleReset()"/>
                <g id="arrowUp" xlink:href="#dirArrow" transform="translate(30 24)" onmousedown="handlePan(0,-1)">
                  <use xlink:href="#rim" fill="#404040">
                        <set attributeName="fill" to="#808080" begin="arrowUp.mouseover" end="arrowUp.mouseout"/>
                  </use>
                  <path fill="none" stroke="white" stroke-width="1.5" d="M0,-3.0v7 M-2.5,-0.5L0,-3.0L2.5,-0.5"/>
                </g>
                <g id="arrowRight" xlink:href="#dirArrow" transform="rotate(90) translate(36 -43)" onmousedown="handlePan(1,0)">
                  <use xlink:href="#rim" fill="#404040">
                        <set attributeName="fill" to="#808080" begin="arrowRight.mouseover" end="arrowRight.mouseout"/>
                  </use>
                  <path fill="none" stroke="white" stroke-width="1.5" d="M0,-3.0v7 M-2.5,-0.5L0,-3.0L2.5,-0.5"/>
                </g>
                <g id="arrowDown" xlink:href="#dirArrow" transform="rotate(180) translate(-30 -48)" onmousedown="handlePan(0,1)">
                  <use xlink:href="#rim" fill="#404040">
                        <set attributeName="fill" to="#808080" begin="arrowDown.mouseover" end="arrowDown.mouseout"/>
                  </use>
                  <path fill="none" stroke="white" stroke-width="1.5" d="M0,-3.0v7 M-2.5,-0.5L0,-3.0L2.5,-0.5"/>
                </g>
                <g id="arrowLeft" xlink:href="#dirArrow" transform="rotate(270) translate(-36 17)" onmousedown="handlePan(-1,0)">
                  <use xlink:href="#rim" fill="#404040">
                        <set attributeName="fill" to="#808080" begin="arrowLeft.mouseover" end="arrowLeft.mouseout"/>
                  </use>
                  <path fill="none" stroke="white" stroke-width="1.5" d="M0,-3.0v7 M-2.5,-0.5L0,-3.0L2.5,-0.5"/>
                </g>
        </g>
        <svg viewBox="0 0 15 15" width="100%" height="30px" preserveAspectRatio="xMaxYMin meet">
         <g id="arrow_out" transform="scale(0.3 0.3)">
          <a xlink:href="structmom__tracer__hor__diff_1_1tracer__hor__diff__cs__coll__graph_org.svg" target="_base">
           <rect id="button" ry="5" rx="5" y="6" x="6" height="38" width="38"
                fill="#f2f5e9" fill-opacity="0.5" stroke="#606060" stroke-width="1.0"/>
           <path id="arrow"
             d="M 11.500037,31.436501 C 11.940474,20.09759 22.043105,11.32322 32.158766,21.979434 L 37.068811,17.246167 C 37.068811,17.246167 37.088388,32 37.088388,32 L 22.160133,31.978069 C 22.160133,31.978069 26.997745,27.140456 26.997745,27.140456 C 18.528582,18.264221 13.291696,25.230495 11.500037,31.436501 z"
             style="fill:#404040;"/>
          </a>
         </g>
        </svg>
</svg>
