<?xml version="1.0" encoding="UTF-8" standalone="no"?>
<!DOCTYPE svg PUBLIC "-//W3C//DTD SVG 1.1//EN"
 "http://www.w3.org/Graphics/SVG/1.1/DTD/svg11.dtd">
<!-- Generated by graphviz version 2.40.1 (20161225.0304)
 -->
<!-- Title: user_surface_forcing::user_surface_forcing_cs Pages: 1 -->
<svg width="223pt" height="139pt"
 viewBox="0.00 0.00 223.00 139.00" xmlns="http://www.w3.org/2000/svg" xmlns:xlink="http://www.w3.org/1999/xlink">
<g id="graph0" class="graph" transform="scale(1 1) rotate(0) translate(4 135)">
<title>user_surface_forcing::user_surface_forcing_cs</title>
<polygon fill="#ffffff" stroke="transparent" points="-4,4 -4,-135 219,-135 219,4 -4,4"/>
<!-- Node1 -->
<g id="node1" class="node">
<title>Node1</title>
<g id="a_node1"><a xlink:title="This control structure should be used to store any run&#45;time variables associated with the user&#45;specif...">
<polygon fill="#bfbfbf" stroke="#000000" points="53.5,-.5 53.5,-30.5 182.5,-30.5 182.5,-.5 53.5,-.5"/>
<text text-anchor="start" x="61.5" y="-18.5" font-family="Helvetica,sans-Serif" font-size="10.00" fill="#000000">user_surface_forcing</text>
<text text-anchor="middle" x="118" y="-7.5" font-family="Helvetica,sans-Serif" font-size="10.00" fill="#000000">::user_surface_forcing_cs</text>
</a>
</g>
</g>
<!-- Node2 -->
<g id="node2" class="node">
<title>Node2</title>
<g id="a_node2"><a xlink:title=" ">
<polygon fill="#ffffff" stroke="#bfbfbf" points="0,-111.5 0,-130.5 44,-130.5 44,-111.5 0,-111.5"/>
<text text-anchor="middle" x="22" y="-118.5" font-family="Helvetica,sans-Serif" font-size="10.00" fill="#000000">logical</text>
</a>
</g>
</g>
<!-- Node2&#45;&gt;Node1 -->
<g id="edge1" class="edge">
<title>Node2&#45;&gt;Node1</title>
<path fill="none" stroke="#9a32cd" stroke-dasharray="5,2" d="M22.6366,-101.1414C24.1325,-85.3339 28.5343,-63.5258 41,-49 47.6459,-41.2558 56.4144,-35.242 65.6479,-30.5913"/>
<polygon fill="#9a32cd" stroke="#9a32cd" points="19.126,-101.2002 21.9872,-111.4014 26.112,-101.6425 19.126,-101.2002"/>
<text text-anchor="middle" x="77.5" y="-74" font-family="Helvetica,sans-Serif" font-size="10.00" fill="#000000"> restorebuoy</text>
<text text-anchor="middle" x="77.5" y="-63" font-family="Helvetica,sans-Serif" font-size="10.00" fill="#000000">use_temperature</text>
</g>
<!-- Node3 -->
<g id="node3" class="node">
<title>Node3</title>
<g id="a_node3"><a xlink:title=" ">
<polygon fill="#ffffff" stroke="#bfbfbf" points="91.5,-111.5 91.5,-130.5 144.5,-130.5 144.5,-111.5 91.5,-111.5"/>
<text text-anchor="middle" x="118" y="-118.5" font-family="Helvetica,sans-Serif" font-size="10.00" fill="#000000">diag_ctrl</text>
</a>
</g>
</g>
<!-- Node3&#45;&gt;Node1 -->
<g id="edge2" class="edge">
<title>Node3&#45;&gt;Node1</title>
<path fill="none" stroke="#9a32cd" stroke-dasharray="5,2" d="M118,-101.1669C118,-80.6729 118,-49.1372 118,-30.5875"/>
<polygon fill="#9a32cd" stroke="#9a32cd" points="114.5001,-101.2639 118,-111.2639 121.5001,-101.264 114.5001,-101.2639"/>
<text text-anchor="middle" x="129" y="-68.5" font-family="Helvetica,sans-Serif" font-size="10.00" fill="#000000"> diag</text>
</g>
<!-- Node4 -->
<g id="node4" class="node">
<title>Node4</title>
<g id="a_node4"><a xlink:title=" ">
<polygon fill="#ffffff" stroke="#bfbfbf" points="163,-111.5 163,-130.5 195,-130.5 195,-111.5 163,-111.5"/>
<text text-anchor="middle" x="179" y="-118.5" font-family="Helvetica,sans-Serif" font-size="10.00" fill="#000000">real</text>
</a>
</g>
</g>
<!-- Node4&#45;&gt;Node1 -->
<g id="edge3" class="edge">
<title>Node4&#45;&gt;Node1</title>
<path fill="none" stroke="#9a32cd" stroke-dasharray="5,2" d="M170.9463,-101.7347C164.435,-86.8957 154.6293,-66.0964 144,-49 140.1128,-42.7478 135.2952,-36.2684 130.8672,-30.6933"/>
<polygon fill="#9a32cd" stroke="#9a32cd" points="167.9112,-103.5378 175.07,-111.3482 174.3444,-100.7782 167.9112,-103.5378"/>
<text text-anchor="middle" x="190.5" y="-85" font-family="Helvetica,sans-Serif" font-size="10.00" fill="#000000"> flux_const</text>
<text text-anchor="middle" x="190.5" y="-74" font-family="Helvetica,sans-Serif" font-size="10.00" fill="#000000">gust_const</text>
<text text-anchor="middle" x="190.5" y="-63" font-family="Helvetica,sans-Serif" font-size="10.00" fill="#000000">rho0</text>
<text text-anchor="middle" x="190.5" y="-52" font-family="Helvetica,sans-Serif" font-size="10.00" fill="#000000">g_earth</text>
</g>
</g>
</svg>
