<?xml version="1.0" encoding="UTF-8" standalone="no"?>
<!DOCTYPE svg PUBLIC "-//W3C//DTD SVG 1.1//EN"
 "http://www.w3.org/Graphics/SVG/1.1/DTD/svg11.dtd">
<!-- Generated by graphviz version 2.40.1 (20161225.0304)
 -->
<!-- Title: isomip_tracer::isomip_tracer_cs Pages: 1 -->
<svg width="327pt" height="301pt"
 viewBox="0.00 0.00 327.00 301.00" xmlns="http://www.w3.org/2000/svg" xmlns:xlink="http://www.w3.org/1999/xlink">
<g id="graph0" class="graph" transform="scale(1 1) rotate(0) translate(4 297)">
<title>isomip_tracer::isomip_tracer_cs</title>
<polygon fill="#ffffff" stroke="transparent" points="-4,4 -4,-297 323,-297 323,4 -4,4"/>
<!-- Node1 -->
<g id="node1" class="node">
<title>Node1</title>
<g id="a_node1"><a xlink:title="ISOMIP tracer package control structure.">
<polygon fill="#bfbfbf" stroke="#000000" points="209,-133 209,-163 319,-163 319,-133 209,-133"/>
<text text-anchor="start" x="217" y="-151" font-family="Helvetica,sans-Serif" font-size="10.00" fill="#000000">isomip_tracer::isomip</text>
<text text-anchor="middle" x="264" y="-140" font-family="Helvetica,sans-Serif" font-size="10.00" fill="#000000">_tracer_cs</text>
</a>
</g>
</g>
<!-- Node2 -->
<g id="node2" class="node">
<title>Node2</title>
<g id="a_node2"><a xlink:title=" ">
<polygon fill="#ffffff" stroke="#bfbfbf" points="29.5,-271.5 29.5,-290.5 73.5,-290.5 73.5,-271.5 29.5,-271.5"/>
<text text-anchor="middle" x="51.5" y="-278.5" font-family="Helvetica,sans-Serif" font-size="10.00" fill="#000000">logical</text>
</a>
</g>
</g>
<!-- Node2&#45;&gt;Node1 -->
<g id="edge1" class="edge">
<title>Node2&#45;&gt;Node1</title>
<path fill="none" stroke="#9a32cd" stroke-dasharray="5,2" d="M83.9411,-278.4178C113.9037,-274.712 158.549,-265.726 191,-244 222.1436,-223.1493 245.425,-184.522 256.6127,-163.1715"/>
<polygon fill="#9a32cd" stroke="#9a32cd" points="83.1717,-274.9814 73.6163,-279.558 83.9401,-281.9391 83.1717,-274.9814"/>
<text text-anchor="middle" x="156" y="-285" font-family="Helvetica,sans-Serif" font-size="10.00" fill="#000000"> use_sponge</text>
<text text-anchor="middle" x="156" y="-274" font-family="Helvetica,sans-Serif" font-size="10.00" fill="#000000">coupled_tracers</text>
</g>
<!-- Node3 -->
<g id="node3" class="node">
<title>Node3</title>
<g id="a_node3"><a xlink:title=" ">
<polygon fill="#ffffff" stroke="#bfbfbf" points="22,-233.5 22,-252.5 81,-252.5 81,-233.5 22,-233.5"/>
<text text-anchor="middle" x="51.5" y="-240.5" font-family="Helvetica,sans-Serif" font-size="10.00" fill="#000000">time_type</text>
</a>
</g>
</g>
<!-- Node3&#45;&gt;Node1 -->
<g id="edge2" class="edge">
<title>Node3&#45;&gt;Node1</title>
<path fill="none" stroke="#9a32cd" stroke-dasharray="5,2" d="M91.1742,-236.9761C119.9769,-231.55 159.2908,-221.9212 191,-206 213.1326,-194.8872 234.885,-176.3405 248.8059,-163.2151"/>
<polygon fill="#9a32cd" stroke="#9a32cd" points="90.2964,-233.5776 81.0718,-238.7889 91.5328,-240.4676 90.2964,-233.5776"/>
<text text-anchor="middle" x="156" y="-232" font-family="Helvetica,sans-Serif" font-size="10.00" fill="#000000"> time</text>
</g>
<!-- Node4 -->
<g id="node4" class="node">
<title>Node4</title>
<g id="a_node4"><a xlink:title=" ">
<polygon fill="#ffffff" stroke="#bfbfbf" points="0,-195.5 0,-214.5 103,-214.5 103,-195.5 0,-195.5"/>
<text text-anchor="middle" x="51.5" y="-202.5" font-family="Helvetica,sans-Serif" font-size="10.00" fill="#000000">tracer_registry_type</text>
</a>
</g>
</g>
<!-- Node4&#45;&gt;Node1 -->
<g id="edge3" class="edge">
<title>Node4&#45;&gt;Node1</title>
<path fill="none" stroke="#9a32cd" stroke-dasharray="5,2" d="M113.1493,-193.7112C137.5844,-188.7263 165.8079,-182.3272 191,-175 202.6775,-171.6036 215.1668,-167.2581 226.4538,-163.0508"/>
<polygon fill="#9a32cd" stroke="#9a32cd" points="112.3996,-190.2918 103.2831,-195.6899 113.7761,-197.1552 112.3996,-190.2918"/>
<text text-anchor="middle" x="156" y="-194" font-family="Helvetica,sans-Serif" font-size="10.00" fill="#000000"> tr_reg</text>
</g>
<!-- Node5 -->
<g id="node5" class="node">
<title>Node5</title>
<g id="a_node5"><a xlink:title=" ">
<polygon fill="#ffffff" stroke="#bfbfbf" points="2.5,-157.5 2.5,-176.5 100.5,-176.5 100.5,-157.5 2.5,-157.5"/>
<text text-anchor="middle" x="51.5" y="-164.5" font-family="Helvetica,sans-Serif" font-size="10.00" fill="#000000">character(len=200)</text>
</a>
</g>
</g>
<!-- Node5&#45;&gt;Node1 -->
<g id="edge4" class="edge">
<title>Node5&#45;&gt;Node1</title>
<path fill="none" stroke="#9a32cd" stroke-dasharray="5,2" d="M110.6704,-161.7095C141.4087,-158.9611 178.7367,-155.6235 208.8656,-152.9297"/>
<polygon fill="#9a32cd" stroke="#9a32cd" points="110.1671,-158.2404 100.5186,-162.6172 110.7906,-165.2126 110.1671,-158.2404"/>
<text text-anchor="middle" x="156" y="-163" font-family="Helvetica,sans-Serif" font-size="10.00" fill="#000000"> tracer_ic_file</text>
</g>
<!-- Node6 -->
<g id="node6" class="node">
<title>Node6</title>
<g id="a_node6"><a xlink:title=" ">
<polygon fill="#ffffff" stroke="#bfbfbf" points="26,-119.5 26,-138.5 77,-138.5 77,-119.5 26,-119.5"/>
<text text-anchor="middle" x="51.5" y="-126.5" font-family="Helvetica,sans-Serif" font-size="10.00" fill="#000000">vardesc</text>
</a>
</g>
</g>
<!-- Node6&#45;&gt;Node1 -->
<g id="edge5" class="edge">
<title>Node6&#45;&gt;Node1</title>
<path fill="none" stroke="#9a32cd" stroke-dasharray="5,2" d="M87.4268,-131.0691C115.6253,-132.8154 155.8566,-135.5763 191,-139 196.7192,-139.5572 202.6834,-140.1966 208.6297,-140.872"/>
<polygon fill="#9a32cd" stroke="#9a32cd" points="87.4382,-127.5634 77.2442,-130.4502 87.0134,-134.5506 87.4382,-127.5634"/>
<text text-anchor="middle" x="156" y="-142" font-family="Helvetica,sans-Serif" font-size="10.00" fill="#000000"> tr_desc</text>
</g>
<!-- Node7 -->
<g id="node7" class="node">
<title>Node7</title>
<g id="a_node7"><a xlink:title=" ">
<polygon fill="#ffffff" stroke="#bfbfbf" points="25,-81.5 25,-100.5 78,-100.5 78,-81.5 25,-81.5"/>
<text text-anchor="middle" x="51.5" y="-88.5" font-family="Helvetica,sans-Serif" font-size="10.00" fill="#000000">diag_ctrl</text>
</a>
</g>
</g>
<!-- Node7&#45;&gt;Node1 -->
<g id="edge6" class="edge">
<title>Node7&#45;&gt;Node1</title>
<path fill="none" stroke="#9a32cd" stroke-dasharray="5,2" d="M88.0067,-96.0312C116.4326,-100.4345 156.6897,-107.7408 191,-118 204.5216,-122.0431 218.9798,-127.6892 231.4321,-132.9939"/>
<polygon fill="#9a32cd" stroke="#9a32cd" points="88.5119,-92.5679 78.1022,-94.5402 87.4698,-99.4899 88.5119,-92.5679"/>
<text text-anchor="middle" x="156" y="-121" font-family="Helvetica,sans-Serif" font-size="10.00" fill="#000000"> diag</text>
</g>
<!-- Node8 -->
<g id="node8" class="node">
<title>Node8</title>
<g id="a_node8"><a xlink:title=" ">
<polygon fill="#ffffff" stroke="#bfbfbf" points="28.5,-43.5 28.5,-62.5 74.5,-62.5 74.5,-43.5 28.5,-43.5"/>
<text text-anchor="middle" x="51.5" y="-50.5" font-family="Helvetica,sans-Serif" font-size="10.00" fill="#000000">integer</text>
</a>
</g>
</g>
<!-- Node8&#45;&gt;Node1 -->
<g id="edge7" class="edge">
<title>Node8&#45;&gt;Node1</title>
<path fill="none" stroke="#9a32cd" stroke-dasharray="5,2" d="M84.6892,-56.7562C113.921,-61.0522 157.0117,-69.8387 191,-87 214.1467,-98.6872 236.3589,-118.9823 250.0769,-132.9314"/>
<polygon fill="#9a32cd" stroke="#9a32cd" points="84.9723,-53.2624 74.5892,-55.3695 84.0201,-60.1973 84.9723,-53.2624"/>
<text text-anchor="middle" x="156" y="-90" font-family="Helvetica,sans-Serif" font-size="10.00" fill="#000000"> ind_tr</text>
</g>
<!-- Node9 -->
<g id="node9" class="node">
<title>Node9</title>
<g id="a_node9"><a xlink:title=" ">
<polygon fill="#ffffff" stroke="#bfbfbf" points="35.5,-.5 35.5,-19.5 67.5,-19.5 67.5,-.5 35.5,-.5"/>
<text text-anchor="middle" x="51.5" y="-7.5" font-family="Helvetica,sans-Serif" font-size="10.00" fill="#000000">real</text>
</a>
</g>
</g>
<!-- Node9&#45;&gt;Node1 -->
<g id="edge8" class="edge">
<title>Node9&#45;&gt;Node1</title>
<path fill="none" stroke="#9a32cd" stroke-dasharray="5,2" d="M77.7075,-9.4543C107.5689,-10.0653 156.6666,-14.9377 191,-38 226.1983,-61.6432 248.647,-108.5601 258.3916,-132.7657"/>
<polygon fill="#9a32cd" stroke="#9a32cd" points="77.6593,-5.954 67.6392,-9.3961 77.6188,-12.9539 77.6593,-5.954"/>
<text text-anchor="middle" x="156" y="-52" font-family="Helvetica,sans-Serif" font-size="10.00" fill="#000000"> land_val</text>
<text text-anchor="middle" x="156" y="-41" font-family="Helvetica,sans-Serif" font-size="10.00" fill="#000000">tr</text>
</g>
</g>
</svg>
