<?xml version="1.0" encoding="UTF-8" standalone="no"?>
<!DOCTYPE svg PUBLIC "-//W3C//DTD SVG 1.1//EN"
 "http://www.w3.org/Graphics/SVG/1.1/DTD/svg11.dtd">
<!-- Generated by graphviz version 2.40.1 (20161225.0304)
 -->
<!-- Title: rgc_tracer::rgc_tracer_cs Pages: 1 -->
<!--zoomable 161 -->
<svg id="main" version="1.1" xmlns="http://www.w3.org/2000/svg" xmlns:xlink="http://www.w3.org/1999/xlink" xml:space="preserve" onload="init(evt)">
<style type="text/css"><![CDATA[
.edge:hover path { stroke: red; }
.edge:hover polygon { stroke: red; fill: red; }
]]></style>
<script type="text/javascript"><![CDATA[
var edges = document.getElementsByTagName('g');
if (edges && edges.length) {
  for (var i=0;i<edges.length;i++) {
    if (edges[i].id.substr(0,4)=='edge') {
      edges[i].setAttribute('class','edge');
    }
  }
}
]]></script>
        <defs>
                <circle id="rim" cx="0" cy="0" r="7"/>
                <circle id="rim2" cx="0" cy="0" r="3.5"/>
                <g id="zoomPlus">
                        <use xlink:href="#rim" fill="#404040">
                                <set attributeName="fill" to="#808080" begin="zoomplus.mouseover" end="zoomplus.mouseout"/>
                        </use>
                        <path d="M-4,0h8M0,-4v8" fill="none" stroke="white" stroke-width="1.5" pointer-events="none"/>
                </g>
                <g id="zoomMin">
                        <use xlink:href="#rim" fill="#404040">
                                <set attributeName="fill" to="#808080" begin="zoomminus.mouseover" end="zoomminus.mouseout"/>
                        </use>
                        <path d="M-4,0h8" fill="none" stroke="white" stroke-width="1.5" pointer-events="none"/>
                </g>
                <g id="dirArrow">
                        <path fill="none" stroke="white" stroke-width="1.5" d="M0,-3.0v7 M-2.5,-0.5L0,-3.0L2.5,-0.5"/>
                </g>
               <g id="resetDef">
                       <use xlink:href="#rim2" fill="#404040">
                               <set attributeName="fill" to="#808080" begin="reset.mouseover" end="reset.mouseout"/>
                       </use>
               </g>
        </defs>

<script type="text/javascript">
var viewWidth = 635;
var viewHeight = 161;
var sectionId = 'dynsection-0';
</script>
<script xlink:href="svgpan.js"/>
<svg id="graph" class="graph">
<g id="viewport">
<title>rgc_tracer::rgc_tracer_cs</title>
<polygon fill="#ffffff" stroke="transparent" points="-4,4 -4,-157 630.5,-157 630.5,4 -4,4"/>
<!-- Node1 -->
<g id="node1" class="node">
<title>Node1</title>
<g id="a_node1"><a xlink:title="tracer control structure">
<polygon fill="#bfbfbf" stroke="#000000" points="275,-.5 275,-19.5 410,-19.5 410,-.5 275,-.5"/>
<text text-anchor="middle" x="342.5" y="-7.5" font-family="Helvetica,sans-Serif" font-size="10.00" fill="#000000">rgc_tracer::rgc_tracer_cs</text>
</a>
</g>
</g>
<!-- Node2 -->
<g id="node2" class="node">
<title>Node2</title>
<g id="a_node2"><a xlink:title=" ">
<polygon fill="#ffffff" stroke="#bfbfbf" points="0,-133.5 0,-152.5 47,-152.5 47,-133.5 0,-133.5"/>
<text text-anchor="middle" x="23.5" y="-140.5" font-family="Helvetica,sans-Serif" font-size="10.00" fill="#000000">logical</text>
</a>
</g>
</g>
<!-- Node2&#45;&gt;Node1 -->
<g id="edge1" class="edge">
<title>Node2&#45;&gt;Node1</title>
<path fill="none" stroke="#9a32cd" stroke-dasharray="5,2" d="M22.57,-123.1936C22.6249,-99.0705 26.7749,-58.9553 51.5,-38 68.1732,-23.8689 194.1535,-16.0776 274.7974,-12.4923"/>
<polygon fill="#9a32cd" stroke="#9a32cd" points="19.0733,-123.3891 22.7865,-133.3119 26.0716,-123.2393 19.0733,-123.3891"/>
<text text-anchor="middle" x="89.5" y="-85" font-family="Helvetica,sans-Serif" font-size="10.00" fill="#000000"> use_sponge</text>
<text text-anchor="middle" x="89.5" y="-74" font-family="Helvetica,sans-Serif" font-size="10.00" fill="#000000">coupled_tracers</text>
<text text-anchor="middle" x="89.5" y="-63" font-family="Helvetica,sans-Serif" font-size="10.00" fill="#000000">mask_tracers</text>
</g>
<!-- Node3 -->
<g id="node3" class="node">
<title>Node3</title>
<g id="a_node3"><a xlink:title=" ">
<polygon fill="#ffffff" stroke="#bfbfbf" points="78.5,-133.5 78.5,-152.5 140.5,-152.5 140.5,-133.5 78.5,-133.5"/>
<text text-anchor="middle" x="109.5" y="-140.5" font-family="Helvetica,sans-Serif" font-size="10.00" fill="#000000">time_type</text>
</a>
</g>
</g>
<!-- Node3&#45;&gt;Node1 -->
<g id="edge2" class="edge">
<title>Node3&#45;&gt;Node1</title>
<path fill="none" stroke="#9a32cd" stroke-dasharray="5,2" d="M121.6159,-124.8483C138.5582,-100.9855 171.6522,-59.5729 210.5,-38 222.7883,-31.176 252.5603,-24.5972 280.7248,-19.5331"/>
<polygon fill="#9a32cd" stroke="#9a32cd" points="118.5556,-123.1202 115.747,-133.3361 124.3132,-127.1014 118.5556,-123.1202"/>
<text text-anchor="middle" x="222" y="-74" font-family="Helvetica,sans-Serif" font-size="10.00" fill="#000000"> time</text>
</g>
<!-- Node4 -->
<g id="node4" class="node">
<title>Node4</title>
<g id="a_node4"><a xlink:title=" ">
<polygon fill="#ffffff" stroke="#bfbfbf" points="158.5,-133.5 158.5,-152.5 270.5,-152.5 270.5,-133.5 158.5,-133.5"/>
<text text-anchor="middle" x="214.5" y="-140.5" font-family="Helvetica,sans-Serif" font-size="10.00" fill="#000000">tracer_registry_type</text>
</a>
</g>
</g>
<!-- Node4&#45;&gt;Node1 -->
<g id="edge3" class="edge">
<title>Node4&#45;&gt;Node1</title>
<path fill="none" stroke="#9a32cd" stroke-dasharray="5,2" d="M228.1042,-125.5114C245.29,-103.9017 276.2821,-66.5011 306.5,-38 313.5272,-31.372 322.0327,-24.7022 329.0114,-19.5357"/>
<polygon fill="#9a32cd" stroke="#9a32cd" points="225.2655,-123.4589 221.8251,-133.4796 230.7635,-127.7916 225.2655,-123.4589"/>
<text text-anchor="middle" x="322.5" y="-74" font-family="Helvetica,sans-Serif" font-size="10.00" fill="#000000"> tr_reg</text>
</g>
<!-- Node5 -->
<g id="node5" class="node">
<title>Node5</title>
<g id="a_node5"><a xlink:title=" ">
<polygon fill="#ffffff" stroke="#bfbfbf" points="288.5,-133.5 288.5,-152.5 396.5,-152.5 396.5,-133.5 288.5,-133.5"/>
<text text-anchor="middle" x="342.5" y="-140.5" font-family="Helvetica,sans-Serif" font-size="10.00" fill="#000000">character(len=200)</text>
</a>
</g>
</g>
<!-- Node5&#45;&gt;Node1 -->
<g id="edge4" class="edge">
<title>Node5&#45;&gt;Node1</title>
<path fill="none" stroke="#9a32cd" stroke-dasharray="5,2" d="M342.5,-123.3284C342.5,-94.4521 342.5,-41.6559 342.5,-19.8372"/>
<polygon fill="#9a32cd" stroke="#9a32cd" points="339.0001,-123.4349 342.5,-133.435 346.0001,-123.435 339.0001,-123.4349"/>
<text text-anchor="middle" x="374.5" y="-74" font-family="Helvetica,sans-Serif" font-size="10.00" fill="#000000"> tracer_ic_file</text>
</g>
<!-- Node6 -->
<g id="node6" class="node">
<title>Node6</title>
<g id="a_node6"><a xlink:title=" ">
<polygon fill="#ffffff" stroke="#bfbfbf" points="414.5,-133.5 414.5,-152.5 468.5,-152.5 468.5,-133.5 414.5,-133.5"/>
<text text-anchor="middle" x="441.5" y="-140.5" font-family="Helvetica,sans-Serif" font-size="10.00" fill="#000000">vardesc</text>
</a>
</g>
</g>
<!-- Node6&#45;&gt;Node1 -->
<g id="edge5" class="edge">
<title>Node6&#45;&gt;Node1</title>
<path fill="none" stroke="#9a32cd" stroke-dasharray="5,2" d="M440.6553,-123.2503C438.6519,-100.1099 432.0458,-61.9003 410.5,-38 402.9772,-29.6552 392.5912,-23.7388 382.1993,-19.5674"/>
<polygon fill="#9a32cd" stroke="#9a32cd" points="437.1655,-123.5222 441.3143,-133.2709 444.1504,-123.0627 437.1655,-123.5222"/>
<text text-anchor="middle" x="459" y="-74" font-family="Helvetica,sans-Serif" font-size="10.00" fill="#000000"> tr_desc</text>
</g>
<!-- Node7 -->
<g id="node7" class="node">
<title>Node7</title>
<g id="a_node7"><a xlink:title=" ">
<polygon fill="#ffffff" stroke="#bfbfbf" points="487,-133.5 487,-152.5 544,-152.5 544,-133.5 487,-133.5"/>
<text text-anchor="middle" x="515.5" y="-140.5" font-family="Helvetica,sans-Serif" font-size="10.00" fill="#000000">diag_ctrl</text>
</a>
</g>
</g>
<!-- Node7&#45;&gt;Node1 -->
<g id="edge6" class="edge">
<title>Node7&#45;&gt;Node1</title>
<path fill="none" stroke="#9a32cd" stroke-dasharray="5,2" d="M515.0418,-123.188C513.3676,-99.3561 506.8108,-59.8368 482.5,-38 471.482,-28.1033 440.2445,-21.3449 410.065,-16.9514"/>
<polygon fill="#9a32cd" stroke="#9a32cd" points="511.56,-123.6571 515.5279,-133.4809 518.5522,-123.3269 511.56,-123.6571"/>
<text text-anchor="middle" x="525.5" y="-74" font-family="Helvetica,sans-Serif" font-size="10.00" fill="#000000"> diag</text>
</g>
<!-- Node8 -->
<g id="node8" class="node">
<title>Node8</title>
<g id="a_node8"><a xlink:title=" ">
<polygon fill="#ffffff" stroke="#bfbfbf" points="562,-133.5 562,-152.5 597,-152.5 597,-133.5 562,-133.5"/>
<text text-anchor="middle" x="579.5" y="-140.5" font-family="Helvetica,sans-Serif" font-size="10.00" fill="#000000">real</text>
</a>
</g>
</g>
<!-- Node8&#45;&gt;Node1 -->
<g id="edge7" class="edge">
<title>Node8&#45;&gt;Node1</title>
<path fill="none" stroke="#9a32cd" stroke-dasharray="5,2" d="M578.2647,-123.2031C575.6259,-99.0898 567.3614,-58.9847 541.5,-38 531.2558,-29.6876 463.6519,-21.4235 410.0428,-16.0523"/>
<polygon fill="#9a32cd" stroke="#9a32cd" points="574.7909,-123.6571 579.1427,-133.3169 581.7647,-123.0517 574.7909,-123.6571"/>
<text text-anchor="middle" x="601.5" y="-107" font-family="Helvetica,sans-Serif" font-size="10.00" fill="#000000"> tr_aux</text>
<text text-anchor="middle" x="601.5" y="-96" font-family="Helvetica,sans-Serif" font-size="10.00" fill="#000000">csl</text>
<text text-anchor="middle" x="601.5" y="-85" font-family="Helvetica,sans-Serif" font-size="10.00" fill="#000000">lenlon</text>
<text text-anchor="middle" x="601.5" y="-74" font-family="Helvetica,sans-Serif" font-size="10.00" fill="#000000">lensponge</text>
<text text-anchor="middle" x="601.5" y="-63" font-family="Helvetica,sans-Serif" font-size="10.00" fill="#000000">land_val</text>
<text text-anchor="middle" x="601.5" y="-52" font-family="Helvetica,sans-Serif" font-size="10.00" fill="#000000">lenlat</text>
<text text-anchor="middle" x="601.5" y="-41" font-family="Helvetica,sans-Serif" font-size="10.00" fill="#000000">tr</text>
</g>
</g>
</svg>
        <g id="navigator" transform="translate(0 0)" fill="#404254">
                <rect fill="#f2f5e9" fill-opacity="0.5" stroke="#606060" stroke-width=".5" x="0" y="0" width="60" height="60"/>
                <use id="zoomplus" xlink:href="#zoomPlus" x="17" y="9" onmousedown="handleZoom(evt,'in')"/>
                <use id="zoomminus" xlink:href="#zoomMin" x="42" y="9" onmousedown="handleZoom(evt,'out')"/>
                <use id="reset" xlink:href="#resetDef" x="30" y="36" onmousedown="handleReset()"/>
                <g id="arrowUp" xlink:href="#dirArrow" transform="translate(30 24)" onmousedown="handlePan(0,-1)">
                  <use xlink:href="#rim" fill="#404040">
                        <set attributeName="fill" to="#808080" begin="arrowUp.mouseover" end="arrowUp.mouseout"/>
                  </use>
                  <path fill="none" stroke="white" stroke-width="1.5" d="M0,-3.0v7 M-2.5,-0.5L0,-3.0L2.5,-0.5"/>
                </g>
                <g id="arrowRight" xlink:href="#dirArrow" transform="rotate(90) translate(36 -43)" onmousedown="handlePan(1,0)">
                  <use xlink:href="#rim" fill="#404040">
                        <set attributeName="fill" to="#808080" begin="arrowRight.mouseover" end="arrowRight.mouseout"/>
                  </use>
                  <path fill="none" stroke="white" stroke-width="1.5" d="M0,-3.0v7 M-2.5,-0.5L0,-3.0L2.5,-0.5"/>
                </g>
                <g id="arrowDown" xlink:href="#dirArrow" transform="rotate(180) translate(-30 -48)" onmousedown="handlePan(0,1)">
                  <use xlink:href="#rim" fill="#404040">
                        <set attributeName="fill" to="#808080" begin="arrowDown.mouseover" end="arrowDown.mouseout"/>
                  </use>
                  <path fill="none" stroke="white" stroke-width="1.5" d="M0,-3.0v7 M-2.5,-0.5L0,-3.0L2.5,-0.5"/>
                </g>
                <g id="arrowLeft" xlink:href="#dirArrow" transform="rotate(270) translate(-36 17)" onmousedown="handlePan(-1,0)">
                  <use xlink:href="#rim" fill="#404040">
                        <set attributeName="fill" to="#808080" begin="arrowLeft.mouseover" end="arrowLeft.mouseout"/>
                  </use>
                  <path fill="none" stroke="white" stroke-width="1.5" d="M0,-3.0v7 M-2.5,-0.5L0,-3.0L2.5,-0.5"/>
                </g>
        </g>
        <svg viewBox="0 0 15 15" width="100%" height="30px" preserveAspectRatio="xMaxYMin meet">
         <g id="arrow_out" transform="scale(0.3 0.3)">
          <a xlink:href="structrgc__tracer_1_1rgc__tracer__cs__coll__graph_org.svg" target="_base">
           <rect id="button" ry="5" rx="5" y="6" x="6" height="38" width="38"
                fill="#f2f5e9" fill-opacity="0.5" stroke="#606060" stroke-width="1.0"/>
           <path id="arrow"
             d="M 11.500037,31.436501 C 11.940474,20.09759 22.043105,11.32322 32.158766,21.979434 L 37.068811,17.246167 C 37.068811,17.246167 37.088388,32 37.088388,32 L 22.160133,31.978069 C 22.160133,31.978069 26.997745,27.140456 26.997745,27.140456 C 18.528582,18.264221 13.291696,25.230495 11.500037,31.436501 z"
             style="fill:#404040;"/>
          </a>
         </g>
        </svg>
</svg>
