<?xml version="1.0" encoding="UTF-8" standalone="no"?>
<!DOCTYPE svg PUBLIC "-//W3C//DTD SVG 1.1//EN"
 "http://www.w3.org/Graphics/SVG/1.1/DTD/svg11.dtd">
<!-- Generated by graphviz version 2.40.1 (20161225.0304)
 -->
<!-- Title: mom_tracer_hor_diff::p2di Pages: 1 -->
<svg width="114pt" height="106pt"
 viewBox="0.00 0.00 114.00 106.00" xmlns="http://www.w3.org/2000/svg" xmlns:xlink="http://www.w3.org/1999/xlink">
<g id="graph0" class="graph" transform="scale(1 1) rotate(0) translate(4 102)">
<title>mom_tracer_hor_diff::p2di</title>
<polygon fill="#ffffff" stroke="transparent" points="-4,4 -4,-102 110,-102 110,4 -4,4"/>
<!-- Node1 -->
<g id="node1" class="node">
<title>Node1</title>
<g id="a_node1"><a xlink:title="A type that can be used to create arrays of pointers to 2D integer arrays.">
<polygon fill="#bfbfbf" stroke="#000000" points="0,-.5 0,-30.5 106,-30.5 106,-.5 0,-.5"/>
<text text-anchor="start" x="8" y="-18.5" font-family="Helvetica,sans-Serif" font-size="10.00" fill="#000000">mom_tracer_hor_diff</text>
<text text-anchor="middle" x="53" y="-7.5" font-family="Helvetica,sans-Serif" font-size="10.00" fill="#000000">::p2di</text>
</a>
</g>
</g>
<!-- Node2 -->
<g id="node2" class="node">
<title>Node2</title>
<g id="a_node2"><a xlink:title=" ">
<polygon fill="#ffffff" stroke="#bfbfbf" points="30,-78.5 30,-97.5 76,-97.5 76,-78.5 30,-78.5"/>
<text text-anchor="middle" x="53" y="-85.5" font-family="Helvetica,sans-Serif" font-size="10.00" fill="#000000">integer</text>
</a>
</g>
</g>
<!-- Node2&#45;&gt;Node1 -->
<g id="edge1" class="edge">
<title>Node2&#45;&gt;Node1</title>
<path fill="none" stroke="#9a32cd" stroke-dasharray="5,2" d="M53,-68.0177C53,-56.2164 53,-41.513 53,-30.668"/>
<polygon fill="#9a32cd" stroke="#9a32cd" points="49.5001,-68.2223 53,-78.2223 56.5001,-68.2224 49.5001,-68.2223"/>
<text text-anchor="middle" x="57.5" y="-52" font-family="Helvetica,sans-Serif" font-size="10.00" fill="#000000"> p</text>
</g>
</g>
</svg>
