<?xml version="1.0" encoding="UTF-8" standalone="no"?>
<!DOCTYPE svg PUBLIC "-//W3C//DTD SVG 1.1//EN"
 "http://www.w3.org/Graphics/SVG/1.1/DTD/svg11.dtd">
<!-- Generated by graphviz version 2.40.1 (20161225.0304)
 -->
<!-- Title: mom_diag_mediator::diagcs_dsamp Pages: 1 -->
<!--zoomable 910 -->
<svg id="main" version="1.1" xmlns="http://www.w3.org/2000/svg" xmlns:xlink="http://www.w3.org/1999/xlink" xml:space="preserve" onload="init(evt)">
<style type="text/css"><![CDATA[
.edge:hover path { stroke: red; }
.edge:hover polygon { stroke: red; fill: red; }
]]></style>
<script type="text/javascript"><![CDATA[
var edges = document.getElementsByTagName('g');
if (edges && edges.length) {
  for (var i=0;i<edges.length;i++) {
    if (edges[i].id.substr(0,4)=='edge') {
      edges[i].setAttribute('class','edge');
    }
  }
}
]]></script>
        <defs>
                <circle id="rim" cx="0" cy="0" r="7"/>
                <circle id="rim2" cx="0" cy="0" r="3.5"/>
                <g id="zoomPlus">
                        <use xlink:href="#rim" fill="#404040">
                                <set attributeName="fill" to="#808080" begin="zoomplus.mouseover" end="zoomplus.mouseout"/>
                        </use>
                        <path d="M-4,0h8M0,-4v8" fill="none" stroke="white" stroke-width="1.5" pointer-events="none"/>
                </g>
                <g id="zoomMin">
                        <use xlink:href="#rim" fill="#404040">
                                <set attributeName="fill" to="#808080" begin="zoomminus.mouseover" end="zoomminus.mouseout"/>
                        </use>
                        <path d="M-4,0h8" fill="none" stroke="white" stroke-width="1.5" pointer-events="none"/>
                </g>
                <g id="dirArrow">
                        <path fill="none" stroke="white" stroke-width="1.5" d="M0,-3.0v7 M-2.5,-0.5L0,-3.0L2.5,-0.5"/>
                </g>
               <g id="resetDef">
                       <use xlink:href="#rim2" fill="#404040">
                               <set attributeName="fill" to="#808080" begin="reset.mouseover" end="reset.mouseout"/>
                       </use>
               </g>
        </defs>

<script type="text/javascript">
var viewWidth = 1130;
var viewHeight = 910;
var sectionId = 'dynsection-0';
</script>
<script xlink:href="svgpan.js"/>
<svg id="graph" class="graph">
<g id="viewport">
<title>mom_diag_mediator::diagcs_dsamp</title>
<polygon fill="#ffffff" stroke="transparent" points="-4,4 -4,-906.3564 1126,-906.3564 1126,4 -4,4"/>
<!-- Node1 -->
<g id="node1" class="node">
<title>Node1</title>
<g id="a_node1"><a xlink:title="Container for down sampling information.">
<polygon fill="#bfbfbf" stroke="#000000" points="365,-205.3564 365,-235.3564 475,-235.3564 475,-205.3564 365,-205.3564"/>
<text text-anchor="start" x="373" y="-223.3564" font-family="Helvetica,sans-Serif" font-size="10.00" fill="#000000">mom_diag_mediator::</text>
<text text-anchor="middle" x="420" y="-212.3564" font-family="Helvetica,sans-Serif" font-size="10.00" fill="#000000">diagcs_dsamp</text>
</a>
</g>
</g>
<!-- Node4 -->
<g id="node4" class="node">
<title>Node4</title>
<g id="a_node4"><a xlink:href="structmom__diag__mediator_1_1diag__ctrl.html" target="_top" xlink:title="The following data type a list of diagnostic fields an their variants, as well as variables that cont...">
<polygon fill="#ffffff" stroke="#000000" points="604,-528.3564 604,-558.3564 714,-558.3564 714,-528.3564 604,-528.3564"/>
<text text-anchor="start" x="612" y="-546.3564" font-family="Helvetica,sans-Serif" font-size="10.00" fill="#000000">mom_diag_mediator::</text>
<text text-anchor="middle" x="659" y="-535.3564" font-family="Helvetica,sans-Serif" font-size="10.00" fill="#000000">diag_ctrl</text>
</a>
</g>
</g>
<!-- Node1&#45;&gt;Node4 -->
<g id="edge21" class="edge">
<title>Node1&#45;&gt;Node4</title>
<path fill="none" stroke="#9a32cd" stroke-dasharray="5,2" d="M474.6974,-241.2824C475.8469,-242.2626 476.9508,-243.2867 478,-244.3564 493.3728,-260.0297 479.4015,-275.9876 496,-290.3564 527.0549,-317.2396 557.5137,-281.7652 586,-311.3564 615.1978,-341.6868 592.2043,-363.9423 604,-404.3564 617.5247,-450.6945 640.4304,-503.0747 651.9458,-528.2555"/>
<polygon fill="#9a32cd" stroke="#9a32cd" points="476.7066,-238.4163 466.5411,-235.4305 472.6258,-244.1039 476.7066,-238.4163"/>
<text text-anchor="middle" x="541" y="-314.3564" font-family="Helvetica,sans-Serif" font-size="10.00" fill="#000000"> dsamp</text>
</g>
<!-- Node2 -->
<g id="node2" class="node">
<title>Node2</title>
<g id="a_node2"><a xlink:href="structmom__diag__mediator_1_1axes__grp.html" target="_top" xlink:title="A group of 1D axes that comprise a 1D/2D/3D mesh.">
<polygon fill="#ffffff" stroke="#000000" points="820,-264.3564 820,-294.3564 930,-294.3564 930,-264.3564 820,-264.3564"/>
<text text-anchor="start" x="828" y="-282.3564" font-family="Helvetica,sans-Serif" font-size="10.00" fill="#000000">mom_diag_mediator::</text>
<text text-anchor="middle" x="875" y="-271.3564" font-family="Helvetica,sans-Serif" font-size="10.00" fill="#000000">axes_grp</text>
</a>
</g>
</g>
<!-- Node2&#45;&gt;Node1 -->
<g id="edge1" class="edge">
<title>Node2&#45;&gt;Node1</title>
<path fill="none" stroke="#9a32cd" stroke-dasharray="5,2" d="M809.4898,-283.1609C715.9532,-287.5485 549.515,-291.1772 496,-265.3564 484.9286,-260.0145 487.9527,-251.5713 478,-244.3564 473.412,-241.0305 468.2948,-238.0655 463.0527,-235.452"/>
<polygon fill="#9a32cd" stroke="#9a32cd" points="809.8734,-286.6465 819.6919,-282.6658 809.534,-279.6547 809.8734,-286.6465"/>
<text text-anchor="middle" x="659" y="-399.3564" font-family="Helvetica,sans-Serif" font-size="10.00" fill="#000000"> remap_axescvi</text>
<text text-anchor="middle" x="659" y="-388.3564" font-family="Helvetica,sans-Serif" font-size="10.00" fill="#000000">remap_axesbi</text>
<text text-anchor="middle" x="659" y="-377.3564" font-family="Helvetica,sans-Serif" font-size="10.00" fill="#000000">axescui</text>
<text text-anchor="middle" x="659" y="-366.3564" font-family="Helvetica,sans-Serif" font-size="10.00" fill="#000000">axest1</text>
<text text-anchor="middle" x="659" y="-355.3564" font-family="Helvetica,sans-Serif" font-size="10.00" fill="#000000">remap_axesti</text>
<text text-anchor="middle" x="659" y="-344.3564" font-family="Helvetica,sans-Serif" font-size="10.00" fill="#000000">remap_axescvl</text>
<text text-anchor="middle" x="659" y="-333.3564" font-family="Helvetica,sans-Serif" font-size="10.00" fill="#000000">remap_axesbl</text>
<text text-anchor="middle" x="659" y="-322.3564" font-family="Helvetica,sans-Serif" font-size="10.00" fill="#000000">axesb1</text>
<text text-anchor="middle" x="659" y="-311.3564" font-family="Helvetica,sans-Serif" font-size="10.00" fill="#000000">axescvi</text>
<text text-anchor="middle" x="659" y="-300.3564" font-family="Helvetica,sans-Serif" font-size="10.00" fill="#000000">axescul</text>
<text text-anchor="middle" x="659" y="-289.3564" font-family="Helvetica,sans-Serif" font-size="10.00" fill="#000000">...</text>
</g>
<!-- Node2&#45;&gt;Node2 -->
<g id="edge28" class="edge">
<title>Node2&#45;&gt;Node2</title>
<path fill="none" stroke="#9a32cd" stroke-dasharray="5,2" d="M857.942,-304.8143C860.0591,-309.5354 865.7451,-312.8564 875,-312.8564 890.1875,-312.8564 895.7642,-303.913 891.73,-294.5154"/>
<polygon fill="#9a32cd" stroke="#9a32cd" points="861.4498,-304.6218 858.27,-294.5154 854.4533,-304.3989 861.4498,-304.6218"/>
<text text-anchor="middle" x="875" y="-315.8564" font-family="Helvetica,sans-Serif" font-size="10.00" fill="#000000"> xyave_axes</text>
</g>
<!-- Node2&#45;&gt;Node4 -->
<g id="edge22" class="edge">
<title>Node2&#45;&gt;Node4</title>
<path fill="none" stroke="#9a32cd" stroke-dasharray="5,2" d="M865.9166,-304.3426C854.5834,-332.6928 832.8647,-378.9305 802,-409.3564 776.7901,-434.208 758.8688,-424.3085 732,-447.3564 704.0298,-471.3491 680.0147,-507.7269 667.7368,-528.1199"/>
<polygon fill="#9a32cd" stroke="#9a32cd" points="869.2762,-305.3588 869.6198,-294.7695 862.7477,-302.8333 869.2762,-305.3588"/>
<text text-anchor="middle" x="767" y="-560.3564" font-family="Helvetica,sans-Serif" font-size="10.00" fill="#000000"> remap_axescvi</text>
<text text-anchor="middle" x="767" y="-549.3564" font-family="Helvetica,sans-Serif" font-size="10.00" fill="#000000">remap_axesbi</text>
<text text-anchor="middle" x="767" y="-538.3564" font-family="Helvetica,sans-Serif" font-size="10.00" fill="#000000">axeszi</text>
<text text-anchor="middle" x="767" y="-527.3564" font-family="Helvetica,sans-Serif" font-size="10.00" fill="#000000">axescui</text>
<text text-anchor="middle" x="767" y="-516.3564" font-family="Helvetica,sans-Serif" font-size="10.00" fill="#000000">axest1</text>
<text text-anchor="middle" x="767" y="-505.3564" font-family="Helvetica,sans-Serif" font-size="10.00" fill="#000000">remap_axesti</text>
<text text-anchor="middle" x="767" y="-494.3564" font-family="Helvetica,sans-Serif" font-size="10.00" fill="#000000">remap_axescvl</text>
<text text-anchor="middle" x="767" y="-483.3564" font-family="Helvetica,sans-Serif" font-size="10.00" fill="#000000">remap_axesbl</text>
<text text-anchor="middle" x="767" y="-472.3564" font-family="Helvetica,sans-Serif" font-size="10.00" fill="#000000">axesb1</text>
<text text-anchor="middle" x="767" y="-461.3564" font-family="Helvetica,sans-Serif" font-size="10.00" fill="#000000">axesnull</text>
<text text-anchor="middle" x="767" y="-450.3564" font-family="Helvetica,sans-Serif" font-size="10.00" fill="#000000">...</text>
</g>
<!-- Node10 -->
<g id="node10" class="node">
<title>Node10</title>
<g id="a_node10"><a xlink:href="structmom__diag__mediator_1_1diag__type.html" target="_top" xlink:title="This type is used to represent a diagnostic at the diag_mediator level.">
<polygon fill="#ffffff" stroke="#000000" points="1012,-690.3564 1012,-720.3564 1122,-720.3564 1122,-690.3564 1012,-690.3564"/>
<text text-anchor="start" x="1020" y="-708.3564" font-family="Helvetica,sans-Serif" font-size="10.00" fill="#000000">mom_diag_mediator::</text>
<text text-anchor="middle" x="1067" y="-697.3564" font-family="Helvetica,sans-Serif" font-size="10.00" fill="#000000">diag_type</text>
</a>
</g>
</g>
<!-- Node2&#45;&gt;Node10 -->
<g id="edge15" class="edge">
<title>Node2&#45;&gt;Node10</title>
<path fill="none" stroke="#9a32cd" stroke-dasharray="5,2" d="M886.1507,-304.097C921.6384,-382.8354 1031.3101,-626.1695 1060.0479,-689.9314"/>
<polygon fill="#9a32cd" stroke="#9a32cd" points="889.1333,-302.1967 881.8334,-294.518 882.7515,-305.073 889.1333,-302.1967"/>
<text text-anchor="middle" x="971" y="-546.3564" font-family="Helvetica,sans-Serif" font-size="10.00" fill="#000000"> axes</text>
</g>
<!-- Node3 -->
<g id="node3" class="node">
<title>Node3</title>
<g id="a_node3"><a xlink:title=" ">
<polygon fill="#ffffff" stroke="#bfbfbf" points="398,-760.8564 398,-779.8564 442,-779.8564 442,-760.8564 398,-760.8564"/>
<text text-anchor="middle" x="420" y="-767.8564" font-family="Helvetica,sans-Serif" font-size="10.00" fill="#000000">logical</text>
</a>
</g>
</g>
<!-- Node3&#45;&gt;Node2 -->
<g id="edge2" class="edge">
<title>Node3&#45;&gt;Node2</title>
<path fill="none" stroke="#9a32cd" stroke-dasharray="5,2" d="M452.3462,-777.7938C489.4854,-784.257 549.9152,-788.0959 586,-755.3564 617.8262,-726.4807 577.317,-694.0423 604,-660.3564 663.7943,-584.8692 740.0817,-646.1115 802,-572.3564 838.5717,-528.7934 865.595,-348.5566 872.9799,-294.6518"/>
<polygon fill="#9a32cd" stroke="#9a32cd" points="452.553,-774.2703 442.0745,-775.8357 451.2422,-781.1465 452.553,-774.2703"/>
<text text-anchor="middle" x="659" y="-751.3564" font-family="Helvetica,sans-Serif" font-size="10.00" fill="#000000"> needs_remapping</text>
<text text-anchor="middle" x="659" y="-740.3564" font-family="Helvetica,sans-Serif" font-size="10.00" fill="#000000">is_q_point</text>
<text text-anchor="middle" x="659" y="-729.3564" font-family="Helvetica,sans-Serif" font-size="10.00" fill="#000000">is_interface</text>
<text text-anchor="middle" x="659" y="-718.3564" font-family="Helvetica,sans-Serif" font-size="10.00" fill="#000000">is_u_point</text>
<text text-anchor="middle" x="659" y="-707.3564" font-family="Helvetica,sans-Serif" font-size="10.00" fill="#000000">is_v_point</text>
<text text-anchor="middle" x="659" y="-696.3564" font-family="Helvetica,sans-Serif" font-size="10.00" fill="#000000">is_layer</text>
<text text-anchor="middle" x="659" y="-685.3564" font-family="Helvetica,sans-Serif" font-size="10.00" fill="#000000">is_native</text>
<text text-anchor="middle" x="659" y="-674.3564" font-family="Helvetica,sans-Serif" font-size="10.00" fill="#000000">needs_interpolating</text>
<text text-anchor="middle" x="659" y="-663.3564" font-family="Helvetica,sans-Serif" font-size="10.00" fill="#000000">is_h_point</text>
</g>
<!-- Node3&#45;&gt;Node4 -->
<g id="edge4" class="edge">
<title>Node3&#45;&gt;Node4</title>
<path fill="none" stroke="#9a32cd" stroke-dasharray="5,2" d="M451.6612,-760.7928C460.7127,-757.154 470.2226,-752.3902 478,-746.3564 488.5347,-738.1835 484.9115,-729.7607 496,-722.3564 530.3345,-699.4298 557.0214,-728.7628 586,-699.3564 610.0613,-674.9399 590.1466,-655.7124 604,-624.3564 614.9909,-599.4795 633.7275,-574.0581 646.2344,-558.4904"/>
<polygon fill="#9a32cd" stroke="#9a32cd" points="450.2965,-757.5655 442.1229,-764.3066 452.7163,-764.134 450.2965,-757.5655"/>
<text text-anchor="middle" x="541" y="-747.3564" font-family="Helvetica,sans-Serif" font-size="10.00" fill="#000000"> ave_enabled</text>
<text text-anchor="middle" x="541" y="-736.3564" font-family="Helvetica,sans-Serif" font-size="10.00" fill="#000000">diag_as_chksum</text>
<text text-anchor="middle" x="541" y="-725.3564" font-family="Helvetica,sans-Serif" font-size="10.00" fill="#000000">diag_grid_overridden</text>
</g>
<!-- Node3&#45;&gt;Node10 -->
<g id="edge12" class="edge">
<title>Node3&#45;&gt;Node10</title>
<path fill="none" stroke="#9a32cd" stroke-dasharray="5,2" d="M452.4153,-775.5713C465.8609,-777.4867 481.6444,-779.416 496,-780.3564 535.9145,-782.9711 546.1196,-783.4469 586,-780.3564 741.4659,-768.3087 922.6799,-734.6707 1011.7776,-716.8205"/>
<polygon fill="#9a32cd" stroke="#9a32cd" points="452.6105,-772.0621 442.2052,-774.0574 451.5837,-778.9864 452.6105,-772.0621"/>
<text text-anchor="middle" x="767" y="-777.3564" font-family="Helvetica,sans-Serif" font-size="10.00" fill="#000000"> v_extensive</text>
<text text-anchor="middle" x="767" y="-766.3564" font-family="Helvetica,sans-Serif" font-size="10.00" fill="#000000">in_use</text>
</g>
<!-- Node4&#45;&gt;Node2 -->
<g id="edge3" class="edge">
<title>Node4&#45;&gt;Node2</title>
<path fill="none" stroke="#9a32cd" stroke-dasharray="5,2" d="M667.759,-518.8134C679.3569,-488.4733 701.907,-436.2178 732,-398.3564 767.0685,-354.2351 820.7714,-314.9721 851.4108,-294.4445"/>
<polygon fill="#9a32cd" stroke="#9a32cd" points="664.4696,-517.6175 664.2506,-528.21 671.0274,-520.066 664.4696,-517.6175"/>
<text text-anchor="middle" x="767" y="-401.3564" font-family="Helvetica,sans-Serif" font-size="10.00" fill="#000000"> diag_cs</text>
</g>
<!-- Node5 -->
<g id="node5" class="node">
<title>Node5</title>
<g id="a_node5"><a xlink:title=" ">
<polygon fill="#ffffff" stroke="#bfbfbf" points="377.5,-596.8564 377.5,-615.8564 462.5,-615.8564 462.5,-596.8564 377.5,-596.8564"/>
<text text-anchor="middle" x="420" y="-603.8564" font-family="Helvetica,sans-Serif" font-size="10.00" fill="#000000">unit_scale_type</text>
</a>
</g>
</g>
<!-- Node5&#45;&gt;Node4 -->
<g id="edge5" class="edge">
<title>Node5&#45;&gt;Node4</title>
<path fill="none" stroke="#9a32cd" stroke-dasharray="5,2" d="M472.6873,-598.0121C505.616,-592.1971 548.7029,-583.4898 586,-572.3564 598.8059,-568.5338 612.5051,-563.3881 624.5371,-558.4924"/>
<polygon fill="#9a32cd" stroke="#9a32cd" points="472.0674,-594.5672 462.8118,-599.7234 473.2626,-601.4645 472.0674,-594.5672"/>
<text text-anchor="middle" x="541" y="-596.3564" font-family="Helvetica,sans-Serif" font-size="10.00" fill="#000000"> us</text>
</g>
<!-- Node6 -->
<g id="node6" class="node">
<title>Node6</title>
<g id="a_node6"><a xlink:href="structmom__diag__mediator_1_1diag__grid__storage.html" target="_top" xlink:title="Stores all the remapping grids and the model&#39;s native space thicknesses.">
<polygon fill="#ffffff" stroke="#000000" points="365,-673.3564 365,-703.3564 475,-703.3564 475,-673.3564 365,-673.3564"/>
<text text-anchor="start" x="373" y="-691.3564" font-family="Helvetica,sans-Serif" font-size="10.00" fill="#000000">mom_diag_mediator::</text>
<text text-anchor="middle" x="420" y="-680.3564" font-family="Helvetica,sans-Serif" font-size="10.00" fill="#000000">diag_grid_storage</text>
</a>
</g>
</g>
<!-- Node6&#45;&gt;Node4 -->
<g id="edge6" class="edge">
<title>Node6&#45;&gt;Node4</title>
<path fill="none" stroke="#9a32cd" stroke-dasharray="5,2" d="M473.7364,-670.1806C481.1902,-667.8057 488.7686,-665.4672 496,-663.3564 535.6317,-651.7884 551.6466,-663.2548 586,-640.3564 602.3099,-629.485 633.4557,-583.2055 649.2691,-558.7092"/>
<polygon fill="#9a32cd" stroke="#9a32cd" points="472.4902,-666.9049 464.0489,-673.3077 474.6406,-673.5665 472.4902,-666.9049"/>
<text text-anchor="middle" x="541" y="-666.3564" font-family="Helvetica,sans-Serif" font-size="10.00" fill="#000000"> diag_grid_temp</text>
</g>
<!-- Node7 -->
<g id="node7" class="node">
<title>Node7</title>
<g id="a_node7"><a xlink:href="structmom__diag__mediator_1_1diag__grids__type.html" target="_top" xlink:title="Contains an array to store a diagnostic target grid.">
<polygon fill="#ffffff" stroke="#000000" points="106,-626.3564 106,-656.3564 216,-656.3564 216,-626.3564 106,-626.3564"/>
<text text-anchor="start" x="114" y="-644.3564" font-family="Helvetica,sans-Serif" font-size="10.00" fill="#000000">mom_diag_mediator::</text>
<text text-anchor="middle" x="161" y="-633.3564" font-family="Helvetica,sans-Serif" font-size="10.00" fill="#000000">diag_grids_type</text>
</a>
</g>
</g>
<!-- Node7&#45;&gt;Node6 -->
<g id="edge7" class="edge">
<title>Node7&#45;&gt;Node6</title>
<path fill="none" stroke="#9a32cd" stroke-dasharray="5,2" d="M226.2443,-649.1958C261.3119,-653.858 305.1986,-660.4141 344,-668.3564 351.0843,-669.8065 358.4927,-671.5134 365.7874,-673.3087"/>
<polygon fill="#9a32cd" stroke="#9a32cd" points="226.5006,-645.6995 216.1307,-647.871 225.5914,-652.6402 226.5006,-645.6995"/>
<text text-anchor="middle" x="289" y="-671.3564" font-family="Helvetica,sans-Serif" font-size="10.00" fill="#000000"> diag_grids</text>
</g>
<!-- Node8 -->
<g id="node8" class="node">
<title>Node8</title>
<g id="a_node8"><a xlink:title=" ">
<polygon fill="#ffffff" stroke="#bfbfbf" points="0,-631.8564 0,-650.8564 32,-650.8564 32,-631.8564 0,-631.8564"/>
<text text-anchor="middle" x="16" y="-638.8564" font-family="Helvetica,sans-Serif" font-size="10.00" fill="#000000">real</text>
</a>
</g>
</g>
<!-- Node8&#45;&gt;Node1 -->
<g id="edge34" class="edge">
<title>Node8&#45;&gt;Node1</title>
<path fill="none" stroke="#9a32cd" stroke-dasharray="5,2" d="M17.3973,-621.2359C23.0432,-546.1659 46.7711,-283.9982 106,-230.3564 179.0704,-164.1788 305.4906,-186.4661 373.4982,-205.2866"/>
<polygon fill="#9a32cd" stroke="#9a32cd" points="13.877,-621.3899 16.6437,-631.6171 20.8586,-621.8968 13.877,-621.3899"/>
<text text-anchor="middle" x="161" y="-343.3564" font-family="Helvetica,sans-Serif" font-size="10.00" fill="#000000"> mask3dbl</text>
<text text-anchor="middle" x="161" y="-332.3564" font-family="Helvetica,sans-Serif" font-size="10.00" fill="#000000">mask3dtl</text>
<text text-anchor="middle" x="161" y="-321.3564" font-family="Helvetica,sans-Serif" font-size="10.00" fill="#000000">mask3dcvi</text>
<text text-anchor="middle" x="161" y="-310.3564" font-family="Helvetica,sans-Serif" font-size="10.00" fill="#000000">mask3dcui</text>
<text text-anchor="middle" x="161" y="-299.3564" font-family="Helvetica,sans-Serif" font-size="10.00" fill="#000000">mask2dt</text>
<text text-anchor="middle" x="161" y="-288.3564" font-family="Helvetica,sans-Serif" font-size="10.00" fill="#000000">mask3dcvl</text>
<text text-anchor="middle" x="161" y="-277.3564" font-family="Helvetica,sans-Serif" font-size="10.00" fill="#000000">mask3dcul</text>
<text text-anchor="middle" x="161" y="-266.3564" font-family="Helvetica,sans-Serif" font-size="10.00" fill="#000000">mask2dbu</text>
<text text-anchor="middle" x="161" y="-255.3564" font-family="Helvetica,sans-Serif" font-size="10.00" fill="#000000">mask2dcu</text>
<text text-anchor="middle" x="161" y="-244.3564" font-family="Helvetica,sans-Serif" font-size="10.00" fill="#000000">mask3dbi</text>
<text text-anchor="middle" x="161" y="-233.3564" font-family="Helvetica,sans-Serif" font-size="10.00" fill="#000000">...</text>
</g>
<!-- Node8&#45;&gt;Node2 -->
<g id="edge29" class="edge">
<title>Node8&#45;&gt;Node2</title>
<path fill="none" stroke="#9a32cd" stroke-dasharray="5,2" d="M16.2345,-621.3254C17.2829,-551.7775 22.7794,-321.2961 50,-253.3564 77.8808,-183.769 86.035,-126.3564 161,-126.3564 161,-126.3564 161,-126.3564 659,-126.3564 722.9521,-126.3564 755.7084,-98.232 802,-142.3564 838.4939,-177.1419 789.418,-214.2744 820,-254.3564 822.9267,-258.1923 826.5774,-261.4568 830.5975,-264.2314"/>
<polygon fill="#9a32cd" stroke="#9a32cd" points="12.7296,-621.6708 16.0939,-631.7173 19.729,-621.7656 12.7296,-621.6708"/>
<text text-anchor="middle" x="420" y="-140.3564" font-family="Helvetica,sans-Serif" font-size="10.00" fill="#000000"> mask3d</text>
<text text-anchor="middle" x="420" y="-129.3564" font-family="Helvetica,sans-Serif" font-size="10.00" fill="#000000">mask2d</text>
</g>
<!-- Node8&#45;&gt;Node4 -->
<g id="edge25" class="edge">
<title>Node8&#45;&gt;Node4</title>
<path fill="none" stroke="#9a32cd" stroke-dasharray="5,2" d="M31.298,-658.4098C36.7804,-663.7601 43.2778,-669.3169 50,-673.3564 72.5278,-686.894 80.2651,-687.0198 106,-692.3564 268.1469,-725.981 318.5931,-758.2081 478,-713.3564 487.0251,-710.8171 487.4588,-706.2229 496,-702.3564 534.163,-685.0806 556.7879,-704.3817 586,-674.3564 606.6049,-653.178 590.3354,-636.555 604,-610.3564 614.3001,-590.6084 631.0733,-571.3007 643.3925,-558.5246"/>
<polygon fill="#9a32cd" stroke="#9a32cd" points="33.542,-655.6943 24.084,-650.9197 28.5002,-660.5503 33.542,-655.6943"/>
<text text-anchor="middle" x="289" y="-848.3564" font-family="Helvetica,sans-Serif" font-size="10.00" fill="#000000"> mask3dbl</text>
<text text-anchor="middle" x="289" y="-837.3564" font-family="Helvetica,sans-Serif" font-size="10.00" fill="#000000">h</text>
<text text-anchor="middle" x="289" y="-826.3564" font-family="Helvetica,sans-Serif" font-size="10.00" fill="#000000">mask3dtl</text>
<text text-anchor="middle" x="289" y="-815.3564" font-family="Helvetica,sans-Serif" font-size="10.00" fill="#000000">time_int</text>
<text text-anchor="middle" x="289" y="-804.3564" font-family="Helvetica,sans-Serif" font-size="10.00" fill="#000000">mask3dcvi</text>
<text text-anchor="middle" x="289" y="-793.3564" font-family="Helvetica,sans-Serif" font-size="10.00" fill="#000000">mask3dcui</text>
<text text-anchor="middle" x="289" y="-782.3564" font-family="Helvetica,sans-Serif" font-size="10.00" fill="#000000">mask2dt</text>
<text text-anchor="middle" x="289" y="-771.3564" font-family="Helvetica,sans-Serif" font-size="10.00" fill="#000000">mask3dcvl</text>
<text text-anchor="middle" x="289" y="-760.3564" font-family="Helvetica,sans-Serif" font-size="10.00" fill="#000000">mask3dcul</text>
<text text-anchor="middle" x="289" y="-749.3564" font-family="Helvetica,sans-Serif" font-size="10.00" fill="#000000">missing_value</text>
<text text-anchor="middle" x="289" y="-738.3564" font-family="Helvetica,sans-Serif" font-size="10.00" fill="#000000">...</text>
</g>
<!-- Node8&#45;&gt;Node6 -->
<g id="edge9" class="edge">
<title>Node8&#45;&gt;Node6</title>
<path fill="none" stroke="#9a32cd" stroke-dasharray="5,2" d="M41.5582,-653.4024C44.3719,-654.4965 47.2231,-655.5093 50,-656.3564 74.1823,-663.7337 80.9611,-662.8544 106,-666.3564 196.111,-678.9597 301.8318,-684.475 364.7398,-686.791"/>
<polygon fill="#9a32cd" stroke="#9a32cd" points="42.8738,-650.1587 32.2999,-649.4925 40.1504,-656.6072 42.8738,-650.1587"/>
<text text-anchor="middle" x="161" y="-680.3564" font-family="Helvetica,sans-Serif" font-size="10.00" fill="#000000"> h_state</text>
</g>
<!-- Node8&#45;&gt;Node7 -->
<g id="edge8" class="edge">
<title>Node8&#45;&gt;Node7</title>
<path fill="none" stroke="#9a32cd" stroke-dasharray="5,2" d="M42.2068,-641.3564C59.9233,-641.3564 83.9797,-641.3564 105.8117,-641.3564"/>
<polygon fill="#9a32cd" stroke="#9a32cd" points="42.0716,-637.8565 32.0716,-641.3564 42.0715,-644.8565 42.0716,-637.8565"/>
<text text-anchor="middle" x="69" y="-644.3564" font-family="Helvetica,sans-Serif" font-size="10.00" fill="#000000"> h</text>
</g>
<!-- Node8&#45;&gt;Node10 -->
<g id="edge16" class="edge">
<title>Node8&#45;&gt;Node10</title>
<path fill="none" stroke="#9a32cd" stroke-dasharray="5,2" d="M17.9663,-661.1016C25.0383,-720.1566 54.7063,-891.3564 161,-891.3564 161,-891.3564 161,-891.3564 875,-891.3564 972.9245,-891.3564 1039.8592,-764.9998 1060.3652,-720.5776"/>
<polygon fill="#9a32cd" stroke="#9a32cd" points="21.4446,-660.7112 16.8661,-651.1567 14.487,-661.481 21.4446,-660.7112"/>
<text text-anchor="middle" x="541" y="-894.3564" font-family="Helvetica,sans-Serif" font-size="10.00" fill="#000000"> conversion_factor</text>
</g>
<!-- Node19 -->
<g id="node19" class="node">
<title>Node19</title>
<g id="a_node19"><a xlink:href="structmom__diag__mediator_1_1diag__dsamp.html" target="_top" xlink:title="Contained for down sampled masks.">
<polygon fill="#ffffff" stroke="#000000" points="234,-45.3564 234,-75.3564 344,-75.3564 344,-45.3564 234,-45.3564"/>
<text text-anchor="start" x="242" y="-63.3564" font-family="Helvetica,sans-Serif" font-size="10.00" fill="#000000">mom_diag_mediator::</text>
<text text-anchor="middle" x="289" y="-52.3564" font-family="Helvetica,sans-Serif" font-size="10.00" fill="#000000">diag_dsamp</text>
</a>
</g>
</g>
<!-- Node8&#45;&gt;Node19 -->
<g id="edge33" class="edge">
<title>Node8&#45;&gt;Node19</title>
<path fill="none" stroke="#9a32cd" stroke-dasharray="5,2" d="M16.5174,-621.6276C19.126,-525.5129 31.4451,-110.1235 50,-90.3564 96.1507,-41.1907 178.9861,-42.0597 233.9818,-49.438"/>
<polygon fill="#9a32cd" stroke="#9a32cd" points="13.0163,-621.6282 16.2477,-631.7182 20.0138,-621.8153 13.0163,-621.6282"/>
<text text-anchor="middle" x="69" y="-104.3564" font-family="Helvetica,sans-Serif" font-size="10.00" fill="#000000"> mask3d</text>
<text text-anchor="middle" x="69" y="-93.3564" font-family="Helvetica,sans-Serif" font-size="10.00" fill="#000000">mask2d</text>
</g>
<!-- Node9 -->
<g id="node9" class="node">
<title>Node9</title>
<g id="a_node9"><a xlink:title=" ">
<polygon fill="#ffffff" stroke="#bfbfbf" points="138,-360.8564 138,-379.8564 184,-379.8564 184,-360.8564 138,-360.8564"/>
<text text-anchor="middle" x="161" y="-367.8564" font-family="Helvetica,sans-Serif" font-size="10.00" fill="#000000">integer</text>
</a>
</g>
</g>
<!-- Node9&#45;&gt;Node1 -->
<g id="edge35" class="edge">
<title>Node9&#45;&gt;Node1</title>
<path fill="none" stroke="#9a32cd" stroke-dasharray="5,2" d="M187.1842,-355.1534C197.6925,-347.7606 208.9596,-337.9521 216,-326.3564 237.3969,-291.1155 203.2228,-262.7885 234,-235.3564 252.7429,-218.6507 316.9755,-216.6757 364.7416,-217.7176"/>
<polygon fill="#9a32cd" stroke="#9a32cd" points="185.0687,-352.3558 178.6451,-360.7813 188.9208,-358.2006 185.0687,-352.3558"/>
<text text-anchor="middle" x="289" y="-348.3564" font-family="Helvetica,sans-Serif" font-size="10.00" fill="#000000"> iec</text>
<text text-anchor="middle" x="289" y="-337.3564" font-family="Helvetica,sans-Serif" font-size="10.00" fill="#000000">ied</text>
<text text-anchor="middle" x="289" y="-326.3564" font-family="Helvetica,sans-Serif" font-size="10.00" fill="#000000">jec</text>
<text text-anchor="middle" x="289" y="-315.3564" font-family="Helvetica,sans-Serif" font-size="10.00" fill="#000000">jed</text>
<text text-anchor="middle" x="289" y="-304.3564" font-family="Helvetica,sans-Serif" font-size="10.00" fill="#000000">jsgb</text>
<text text-anchor="middle" x="289" y="-293.3564" font-family="Helvetica,sans-Serif" font-size="10.00" fill="#000000">isc</text>
<text text-anchor="middle" x="289" y="-282.3564" font-family="Helvetica,sans-Serif" font-size="10.00" fill="#000000">isgb</text>
<text text-anchor="middle" x="289" y="-271.3564" font-family="Helvetica,sans-Serif" font-size="10.00" fill="#000000">ieg</text>
<text text-anchor="middle" x="289" y="-260.3564" font-family="Helvetica,sans-Serif" font-size="10.00" fill="#000000">isd</text>
<text text-anchor="middle" x="289" y="-249.3564" font-family="Helvetica,sans-Serif" font-size="10.00" fill="#000000">jsc</text>
<text text-anchor="middle" x="289" y="-238.3564" font-family="Helvetica,sans-Serif" font-size="10.00" fill="#000000">...</text>
</g>
<!-- Node9&#45;&gt;Node2 -->
<g id="edge30" class="edge">
<title>Node9&#45;&gt;Node2</title>
<path fill="none" stroke="#9a32cd" stroke-dasharray="5,2" d="M194.1537,-367.7964C202.3707,-365.5817 210.4132,-361.7811 216,-355.3564 257.455,-307.6847 189.9639,-259.6547 234,-214.3564 316.155,-129.8466 378.4932,-182.4951 496,-173.3564 535.8796,-170.255 547.2789,-163.3228 586,-173.3564 594.8591,-175.652 595.6579,-179.5932 604,-183.3564 678.9584,-217.1707 769.6752,-247.2219 824.8227,-264.3489"/>
<polygon fill="#9a32cd" stroke="#9a32cd" points="193.3204,-364.3936 184.1975,-369.7811 194.6889,-371.2585 193.3204,-364.3936"/>
<text text-anchor="middle" x="541" y="-253.3564" font-family="Helvetica,sans-Serif" font-size="10.00" fill="#000000"> downsample_level</text>
<text text-anchor="start" x="499" y="-242.3564" font-family="Helvetica,sans-Serif" font-size="10.00" fill="#000000">vertical_coordinate</text>
<text text-anchor="middle" x="541" y="-231.3564" font-family="Helvetica,sans-Serif" font-size="10.00" fill="#000000">_number</text>
<text text-anchor="middle" x="541" y="-220.3564" font-family="Helvetica,sans-Serif" font-size="10.00" fill="#000000">handles</text>
<text text-anchor="middle" x="541" y="-209.3564" font-family="Helvetica,sans-Serif" font-size="10.00" fill="#000000">id_volume</text>
<text text-anchor="middle" x="541" y="-198.3564" font-family="Helvetica,sans-Serif" font-size="10.00" fill="#000000">nz</text>
<text text-anchor="middle" x="541" y="-187.3564" font-family="Helvetica,sans-Serif" font-size="10.00" fill="#000000">rank</text>
<text text-anchor="middle" x="541" y="-176.3564" font-family="Helvetica,sans-Serif" font-size="10.00" fill="#000000">id_area</text>
</g>
<!-- Node9&#45;&gt;Node4 -->
<g id="edge26" class="edge">
<title>Node9&#45;&gt;Node4</title>
<path fill="none" stroke="#9a32cd" stroke-dasharray="5,2" d="M194.4156,-375.9572C233.1217,-380.6927 297.5143,-383.0219 344,-356.3564 356.1912,-349.3632 349.5508,-336.8792 362,-330.3564 407.6668,-306.4292 432.7491,-305.6516 478,-330.3564 490.9849,-337.4456 487.0846,-346.5505 496,-358.3564 546.3035,-424.9687 614.5479,-497.4412 644.2145,-528.1968"/>
<polygon fill="#9a32cd" stroke="#9a32cd" points="194.5943,-372.4497 184.2159,-374.5799 193.6575,-379.3867 194.5943,-372.4497"/>
<text text-anchor="middle" x="420" y="-465.3564" font-family="Helvetica,sans-Serif" font-size="10.00" fill="#000000"> num_chksum_diags</text>
<text text-anchor="middle" x="420" y="-454.3564" font-family="Helvetica,sans-Serif" font-size="10.00" fill="#000000">ied</text>
<text text-anchor="middle" x="420" y="-443.3564" font-family="Helvetica,sans-Serif" font-size="10.00" fill="#000000">jed</text>
<text text-anchor="middle" x="420" y="-432.3564" font-family="Helvetica,sans-Serif" font-size="10.00" fill="#000000">chksum_iounit</text>
<text text-anchor="middle" x="420" y="-421.3564" font-family="Helvetica,sans-Serif" font-size="10.00" fill="#000000">isd</text>
<text text-anchor="start" x="374.5" y="-410.3564" font-family="Helvetica,sans-Serif" font-size="10.00" fill="#000000">available_diag</text>
<text text-anchor="middle" x="420" y="-399.3564" font-family="Helvetica,sans-Serif" font-size="10.00" fill="#000000">_doc_unit</text>
<text text-anchor="middle" x="420" y="-388.3564" font-family="Helvetica,sans-Serif" font-size="10.00" fill="#000000">jsd</text>
<text text-anchor="start" x="374.5" y="-377.3564" font-family="Helvetica,sans-Serif" font-size="10.00" fill="#000000">volume_cell</text>
<text text-anchor="middle" x="420" y="-366.3564" font-family="Helvetica,sans-Serif" font-size="10.00" fill="#000000">_measure_dm_id</text>
<text text-anchor="middle" x="420" y="-355.3564" font-family="Helvetica,sans-Serif" font-size="10.00" fill="#000000">js</text>
<text text-anchor="middle" x="420" y="-344.3564" font-family="Helvetica,sans-Serif" font-size="10.00" fill="#000000">is</text>
<text text-anchor="middle" x="420" y="-333.3564" font-family="Helvetica,sans-Serif" font-size="10.00" fill="#000000">...</text>
</g>
<!-- Node9&#45;&gt;Node6 -->
<g id="edge10" class="edge">
<title>Node9&#45;&gt;Node6</title>
<path fill="none" stroke="#9a32cd" stroke-dasharray="5,2" d="M173.558,-388.1057C203.5093,-430.532 281.3149,-541.298 344,-635.3564 352.2044,-647.6671 350.7156,-653.7895 362,-663.3564 366.4328,-667.1145 371.5161,-670.3881 376.7906,-673.2167"/>
<polygon fill="#9a32cd" stroke="#9a32cd" points="176.3919,-386.0512 167.7627,-379.9039 170.675,-390.0907 176.3919,-386.0512"/>
<text text-anchor="middle" x="289" y="-638.3564" font-family="Helvetica,sans-Serif" font-size="10.00" fill="#000000"> num_diag_coords</text>
</g>
<!-- Node9&#45;&gt;Node10 -->
<g id="edge17" class="edge">
<title>Node9&#45;&gt;Node10</title>
<path fill="none" stroke="#9a32cd" stroke-dasharray="5,2" d="M165.0549,-389.6828C177.8593,-450.1152 217.5521,-632.7711 234,-654.3564 268.1466,-699.1686 310.0018,-672.4315 344,-717.3564 363.9048,-743.6585 336.4618,-768.4806 362,-789.3564 437.7035,-851.2391 705.23,-803.3588 802,-789.3564 889.3824,-776.7124 910.8238,-767.9752 994,-738.3564 1008.2817,-733.2708 1023.6358,-726.5333 1036.5599,-720.4726"/>
<polygon fill="#9a32cd" stroke="#9a32cd" points="168.4774,-388.9498 162.9887,-379.8875 161.6281,-390.3947 168.4774,-388.9498"/>
<text text-anchor="middle" x="659" y="-850.3564" font-family="Helvetica,sans-Serif" font-size="10.00" fill="#000000"> downsample_diag_id</text>
<text text-anchor="middle" x="659" y="-839.3564" font-family="Helvetica,sans-Serif" font-size="10.00" fill="#000000">fms_xyave_diag_id</text>
<text text-anchor="middle" x="659" y="-828.3564" font-family="Helvetica,sans-Serif" font-size="10.00" fill="#000000">fms_diag_id</text>
<text text-anchor="middle" x="659" y="-817.3564" font-family="Helvetica,sans-Serif" font-size="10.00" fill="#000000">xyz_method</text>
</g>
<!-- Node10&#45;&gt;Node4 -->
<g id="edge11" class="edge">
<title>Node10&#45;&gt;Node4</title>
<path fill="none" stroke="#9a32cd" stroke-dasharray="5,2" d="M1019.3751,-686.4466C937.5124,-653.9422 771.7253,-588.115 697.0173,-558.4515"/>
<polygon fill="#9a32cd" stroke="#9a32cd" points="1018.3448,-689.8032 1028.9306,-690.2406 1020.928,-683.2973 1018.3448,-689.8032"/>
<text text-anchor="middle" x="875" y="-653.3564" font-family="Helvetica,sans-Serif" font-size="10.00" fill="#000000"> diags</text>
</g>
<!-- Node10&#45;&gt;Node10 -->
<g id="edge13" class="edge">
<title>Node10&#45;&gt;Node10</title>
<path fill="none" stroke="#9a32cd" stroke-dasharray="5,2" d="M1049.942,-730.8143C1052.0591,-735.5354 1057.7451,-738.8564 1067,-738.8564 1082.1875,-738.8564 1087.7642,-729.913 1083.73,-720.5154"/>
<polygon fill="#9a32cd" stroke="#9a32cd" points="1053.4498,-730.6218 1050.27,-720.5154 1046.4533,-730.3989 1053.4498,-730.6218"/>
<text text-anchor="middle" x="1067" y="-741.8564" font-family="Helvetica,sans-Serif" font-size="10.00" fill="#000000"> next</text>
</g>
<!-- Node11 -->
<g id="node11" class="node">
<title>Node11</title>
<g id="a_node11"><a xlink:title=" ">
<polygon fill="#ffffff" stroke="#bfbfbf" points="838,-225.8564 838,-244.8564 912,-244.8564 912,-225.8564 838,-225.8564"/>
<text text-anchor="middle" x="875" y="-232.8564" font-family="Helvetica,sans-Serif" font-size="10.00" fill="#000000">character(64)</text>
</a>
</g>
</g>
<!-- Node11&#45;&gt;Node10 -->
<g id="edge14" class="edge">
<title>Node11&#45;&gt;Node10</title>
<path fill="none" stroke="#9a32cd" stroke-dasharray="5,2" d="M921.3948,-247.7667C924.5139,-249.6606 927.4311,-251.8427 930,-254.3564 995.7993,-318.7425 1051.765,-618.3367 1064.3543,-689.9505"/>
<polygon fill="#9a32cd" stroke="#9a32cd" points="922.7003,-244.5061 912.1919,-243.1557 919.5646,-250.7645 922.7003,-244.5061"/>
<text text-anchor="middle" x="971" y="-387.3564" font-family="Helvetica,sans-Serif" font-size="10.00" fill="#000000"> debug_str</text>
</g>
<!-- Node12 -->
<g id="node12" class="node">
<title>Node12</title>
<g id="a_node12"><a xlink:title=" ">
<polygon fill="#ffffff" stroke="#bfbfbf" points="390.5,-558.8564 390.5,-577.8564 449.5,-577.8564 449.5,-558.8564 390.5,-558.8564"/>
<text text-anchor="middle" x="420" y="-565.8564" font-family="Helvetica,sans-Serif" font-size="10.00" fill="#000000">time_type</text>
</a>
</g>
</g>
<!-- Node12&#45;&gt;Node4 -->
<g id="edge18" class="edge">
<title>Node12&#45;&gt;Node4</title>
<path fill="none" stroke="#9a32cd" stroke-dasharray="5,2" d="M459.8017,-564.1931C499.1551,-560.0766 559.701,-553.7434 603.7147,-549.1394"/>
<polygon fill="#9a32cd" stroke="#9a32cd" points="459.3679,-560.7193 449.7863,-565.2407 460.0962,-567.6813 459.3679,-560.7193"/>
<text text-anchor="middle" x="541" y="-562.3564" font-family="Helvetica,sans-Serif" font-size="10.00" fill="#000000"> time_end</text>
</g>
<!-- Node13 -->
<g id="node13" class="node">
<title>Node13</title>
<g id="a_node13"><a xlink:title=" ">
<polygon fill="#ffffff" stroke="#bfbfbf" points="362,-520.8564 362,-539.8564 478,-539.8564 478,-520.8564 362,-520.8564"/>
<text text-anchor="middle" x="420" y="-527.8564" font-family="Helvetica,sans-Serif" font-size="10.00" fill="#000000">type(eos_type), pointer</text>
</a>
</g>
</g>
<!-- Node13&#45;&gt;Node4 -->
<g id="edge19" class="edge">
<title>Node13&#45;&gt;Node4</title>
<path fill="none" stroke="#9a32cd" stroke-dasharray="5,2" d="M488.5252,-525.256C518.5223,-524.0186 554.0854,-523.9 586,-527.3564 591.8046,-527.9851 597.8241,-528.8871 603.8036,-529.947"/>
<polygon fill="#9a32cd" stroke="#9a32cd" points="487.9892,-521.777 478.162,-525.7363 488.3134,-528.7695 487.9892,-521.777"/>
<text text-anchor="middle" x="541" y="-530.3564" font-family="Helvetica,sans-Serif" font-size="10.00" fill="#000000"> eqn_of_state</text>
</g>
<!-- Node14 -->
<g id="node14" class="node">
<title>Node14</title>
<g id="a_node14"><a xlink:title=" ">
<polygon fill="#ffffff" stroke="#bfbfbf" points="377,-482.8564 377,-501.8564 463,-501.8564 463,-482.8564 377,-482.8564"/>
<text text-anchor="middle" x="420" y="-489.8564" font-family="Helvetica,sans-Serif" font-size="10.00" fill="#000000">diag_remap_ctrl</text>
</a>
</g>
</g>
<!-- Node14&#45;&gt;Node4 -->
<g id="edge20" class="edge">
<title>Node14&#45;&gt;Node4</title>
<path fill="none" stroke="#9a32cd" stroke-dasharray="5,2" d="M473.6593,-493.8792C506.5649,-495.8643 549.2823,-500.3411 586,-510.3564 601.5651,-514.602 618.0129,-521.7757 631.3475,-528.3521"/>
<polygon fill="#9a32cd" stroke="#9a32cd" points="473.5157,-490.3664 463.3404,-493.3184 473.1357,-497.356 473.5157,-490.3664"/>
<text text-anchor="middle" x="541" y="-513.3564" font-family="Helvetica,sans-Serif" font-size="10.00" fill="#000000"> diag_remap_cs</text>
</g>
<!-- Node15 -->
<g id="node15" class="node">
<title>Node15</title>
<g id="a_node15"><a xlink:title=" ">
<polygon fill="#ffffff" stroke="#bfbfbf" points="363.5,-254.3564 363.5,-284.3564 476.5,-284.3564 476.5,-254.3564 363.5,-254.3564"/>
<text text-anchor="start" x="371.5" y="-272.3564" font-family="Helvetica,sans-Serif" font-size="10.00" fill="#000000">type(verticalgrid_type)</text>
<text text-anchor="middle" x="420" y="-261.3564" font-family="Helvetica,sans-Serif" font-size="10.00" fill="#000000">, pointer</text>
</a>
</g>
</g>
<!-- Node15&#45;&gt;Node4 -->
<g id="edge23" class="edge">
<title>Node15&#45;&gt;Node4</title>
<path fill="none" stroke="#9a32cd" stroke-dasharray="5,2" d="M464.4518,-289.523C469.2429,-292.507 473.8699,-295.7917 478,-299.3564 488.3647,-308.3024 484.6882,-316.6427 496,-324.3564 530.1096,-347.6164 556.0054,-318.9871 586,-347.3564 605.301,-365.6116 595.1071,-379.3226 604,-404.3564 620.1584,-449.8431 641.8707,-502.6091 652.5365,-528.0645"/>
<polygon fill="#9a32cd" stroke="#9a32cd" points="466.1324,-286.4519 455.7225,-284.4812 462.6314,-292.5135 466.1324,-286.4519"/>
<text text-anchor="middle" x="541" y="-350.3564" font-family="Helvetica,sans-Serif" font-size="10.00" fill="#000000"> gv</text>
</g>
<!-- Node16 -->
<g id="node16" class="node">
<title>Node16</title>
<g id="a_node16"><a xlink:title=" ">
<polygon fill="#ffffff" stroke="#bfbfbf" points="376,-634.8564 376,-653.8564 464,-653.8564 464,-634.8564 376,-634.8564"/>
<text text-anchor="middle" x="420" y="-641.8564" font-family="Helvetica,sans-Serif" font-size="10.00" fill="#000000">ocean_grid_type</text>
</a>
</g>
</g>
<!-- Node16&#45;&gt;Node4 -->
<g id="edge24" class="edge">
<title>Node16&#45;&gt;Node4</title>
<path fill="none" stroke="#9a32cd" stroke-dasharray="5,2" d="M474.1506,-633.3199C518.6365,-624.028 575.9144,-611.4608 586,-606.3564 609.7493,-594.3368 632.1578,-572.9451 645.7296,-558.4598"/>
<polygon fill="#9a32cd" stroke="#9a32cd" points="473.3809,-629.905 464.3027,-635.3673 474.8058,-636.7585 473.3809,-629.905"/>
<text text-anchor="middle" x="541" y="-631.3564" font-family="Helvetica,sans-Serif" font-size="10.00" fill="#000000"> g</text>
</g>
<!-- Node17 -->
<g id="node17" class="node">
<title>Node17</title>
<g id="a_node17"><a xlink:title=" ">
<polygon fill="#ffffff" stroke="#bfbfbf" points="615.5,-154.8564 615.5,-173.8564 702.5,-173.8564 702.5,-154.8564 615.5,-154.8564"/>
<text text-anchor="middle" x="659" y="-161.8564" font-family="Helvetica,sans-Serif" font-size="10.00" fill="#000000">character(len=9)</text>
</a>
</g>
</g>
<!-- Node17&#45;&gt;Node2 -->
<g id="edge27" class="edge">
<title>Node17&#45;&gt;Node2</title>
<path fill="none" stroke="#9a32cd" stroke-dasharray="5,2" d="M696.1614,-152.1415C727.8692,-144.2478 772.8331,-139.3937 802,-163.3564 833.8557,-189.5283 794.4068,-222.0339 820,-254.3564 823.0602,-258.2213 826.8506,-261.5097 831,-264.303"/>
<polygon fill="#9a32cd" stroke="#9a32cd" points="695.1151,-148.7985 686.3693,-154.7785 696.9354,-155.5577 695.1151,-148.7985"/>
<text text-anchor="middle" x="767" y="-188.3564" font-family="Helvetica,sans-Serif" font-size="10.00" fill="#000000"> v_cell_method</text>
<text text-anchor="middle" x="767" y="-177.3564" font-family="Helvetica,sans-Serif" font-size="10.00" fill="#000000">y_cell_method</text>
<text text-anchor="middle" x="767" y="-166.3564" font-family="Helvetica,sans-Serif" font-size="10.00" fill="#000000">x_cell_method</text>
</g>
<!-- Node18 -->
<g id="node18" class="node">
<title>Node18</title>
<g id="a_node18"><a xlink:title=" ">
<polygon fill="#ffffff" stroke="#bfbfbf" points="613,-78.8564 613,-97.8564 705,-97.8564 705,-78.8564 613,-78.8564"/>
<text text-anchor="middle" x="659" y="-85.8564" font-family="Helvetica,sans-Serif" font-size="10.00" fill="#000000">character(len=15)</text>
</a>
</g>
</g>
<!-- Node18&#45;&gt;Node2 -->
<g id="edge31" class="edge">
<title>Node18&#45;&gt;Node2</title>
<path fill="none" stroke="#9a32cd" stroke-dasharray="5,2" d="M715.3102,-78.0173C744.9295,-75.9932 779.6346,-79.5748 802,-101.3564 851.0509,-149.1268 779.6265,-199.0574 820,-254.3564 822.845,-258.2532 826.4434,-261.5568 830.4326,-264.3545"/>
<polygon fill="#9a32cd" stroke="#9a32cd" points="714.7168,-74.5567 705.0741,-78.9464 715.3496,-81.528 714.7168,-74.5567"/>
<text text-anchor="middle" x="767" y="-104.3564" font-family="Helvetica,sans-Serif" font-size="10.00" fill="#000000"> id</text>
</g>
<!-- Node19&#45;&gt;Node2 -->
<g id="edge32" class="edge">
<title>Node19&#45;&gt;Node2</title>
<path fill="none" stroke="#9a32cd" stroke-dasharray="5,2" d="M340.0415,-42.238C442.924,-9.3456 676.1,46.2537 802,-74.3564 831.0286,-102.1654 796.5799,-221.6838 820,-254.3564 822.7498,-258.1926 826.2323,-261.4526 830.105,-264.2205"/>
<polygon fill="#9a32cd" stroke="#9a32cd" points="338.9256,-38.9204 330.4999,-45.3436 341.0922,-45.5767 338.9256,-38.9204"/>
<text text-anchor="middle" x="541" y="-9.3564" font-family="Helvetica,sans-Serif" font-size="10.00" fill="#000000"> dsamp</text>
</g>
</g>
</svg>
        <g id="navigator" transform="translate(0 0)" fill="#404254">
                <rect fill="#f2f5e9" fill-opacity="0.5" stroke="#606060" stroke-width=".5" x="0" y="0" width="60" height="60"/>
                <use id="zoomplus" xlink:href="#zoomPlus" x="17" y="9" onmousedown="handleZoom(evt,'in')"/>
                <use id="zoomminus" xlink:href="#zoomMin" x="42" y="9" onmousedown="handleZoom(evt,'out')"/>
                <use id="reset" xlink:href="#resetDef" x="30" y="36" onmousedown="handleReset()"/>
                <g id="arrowUp" xlink:href="#dirArrow" transform="translate(30 24)" onmousedown="handlePan(0,-1)">
                  <use xlink:href="#rim" fill="#404040">
                        <set attributeName="fill" to="#808080" begin="arrowUp.mouseover" end="arrowUp.mouseout"/>
                  </use>
                  <path fill="none" stroke="white" stroke-width="1.5" d="M0,-3.0v7 M-2.5,-0.5L0,-3.0L2.5,-0.5"/>
                </g>
                <g id="arrowRight" xlink:href="#dirArrow" transform="rotate(90) translate(36 -43)" onmousedown="handlePan(1,0)">
                  <use xlink:href="#rim" fill="#404040">
                        <set attributeName="fill" to="#808080" begin="arrowRight.mouseover" end="arrowRight.mouseout"/>
                  </use>
                  <path fill="none" stroke="white" stroke-width="1.5" d="M0,-3.0v7 M-2.5,-0.5L0,-3.0L2.5,-0.5"/>
                </g>
                <g id="arrowDown" xlink:href="#dirArrow" transform="rotate(180) translate(-30 -48)" onmousedown="handlePan(0,1)">
                  <use xlink:href="#rim" fill="#404040">
                        <set attributeName="fill" to="#808080" begin="arrowDown.mouseover" end="arrowDown.mouseout"/>
                  </use>
                  <path fill="none" stroke="white" stroke-width="1.5" d="M0,-3.0v7 M-2.5,-0.5L0,-3.0L2.5,-0.5"/>
                </g>
                <g id="arrowLeft" xlink:href="#dirArrow" transform="rotate(270) translate(-36 17)" onmousedown="handlePan(-1,0)">
                  <use xlink:href="#rim" fill="#404040">
                        <set attributeName="fill" to="#808080" begin="arrowLeft.mouseover" end="arrowLeft.mouseout"/>
                  </use>
                  <path fill="none" stroke="white" stroke-width="1.5" d="M0,-3.0v7 M-2.5,-0.5L0,-3.0L2.5,-0.5"/>
                </g>
        </g>
        <svg viewBox="0 0 15 15" width="100%" height="30px" preserveAspectRatio="xMaxYMin meet">
         <g id="arrow_out" transform="scale(0.3 0.3)">
          <a xlink:href="structmom__diag__mediator_1_1diagcs__dsamp__coll__graph_org.svg" target="_base">
           <rect id="button" ry="5" rx="5" y="6" x="6" height="38" width="38"
                fill="#f2f5e9" fill-opacity="0.5" stroke="#606060" stroke-width="1.0"/>
           <path id="arrow"
             d="M 11.500037,31.436501 C 11.940474,20.09759 22.043105,11.32322 32.158766,21.979434 L 37.068811,17.246167 C 37.068811,17.246167 37.088388,32 37.088388,32 L 22.160133,31.978069 C 22.160133,31.978069 26.997745,27.140456 26.997745,27.140456 C 18.528582,18.264221 13.291696,25.230495 11.500037,31.436501 z"
             style="fill:#404040;"/>
          </a>
         </g>
        </svg>
</svg>
