<?xml version="1.0" encoding="UTF-8" standalone="no"?>
<!DOCTYPE svg PUBLIC "-//W3C//DTD SVG 1.1//EN"
 "http://www.w3.org/Graphics/SVG/1.1/DTD/svg11.dtd">
<!-- Generated by graphviz version 2.40.1 (20161225.0304)
 -->
<!-- Title: mom_variables::thermo_var_ptrs Pages: 1 -->
<svg width="276pt" height="194pt"
 viewBox="0.00 0.00 276.00 194.00" xmlns="http://www.w3.org/2000/svg" xmlns:xlink="http://www.w3.org/1999/xlink">
<g id="graph0" class="graph" transform="scale(1 1) rotate(0) translate(4 190)">
<title>mom_variables::thermo_var_ptrs</title>
<polygon fill="#ffffff" stroke="transparent" points="-4,4 -4,-190 272,-190 272,4 -4,4"/>
<!-- Node1 -->
<g id="node1" class="node">
<title>Node1</title>
<g id="a_node1"><a xlink:title="Pointers to an assortment of thermodynamic fields that may be available, including potential temperat...">
<polygon fill="#bfbfbf" stroke="#000000" points="60.5,-.5 60.5,-30.5 179.5,-30.5 179.5,-.5 60.5,-.5"/>
<text text-anchor="start" x="68.5" y="-18.5" font-family="Helvetica,sans-Serif" font-size="10.00" fill="#000000">mom_variables::thermo</text>
<text text-anchor="middle" x="120" y="-7.5" font-family="Helvetica,sans-Serif" font-size="10.00" fill="#000000">_var_ptrs</text>
</a>
</g>
</g>
<!-- Node2 -->
<g id="node2" class="node">
<title>Node2</title>
<g id="a_node2"><a xlink:title=" ">
<polygon fill="#ffffff" stroke="#bfbfbf" points="0,-166.5 0,-185.5 44,-185.5 44,-166.5 0,-166.5"/>
<text text-anchor="middle" x="22" y="-173.5" font-family="Helvetica,sans-Serif" font-size="10.00" fill="#000000">logical</text>
</a>
</g>
</g>
<!-- Node2&#45;&gt;Node1 -->
<g id="edge1" class="edge">
<title>Node2&#45;&gt;Node1</title>
<path fill="none" stroke="#9a32cd" stroke-dasharray="5,2" d="M25.0677,-156.341C30.0759,-129.607 42.1638,-81.411 68,-49 73.7568,-41.7782 81.5142,-35.6279 89.2783,-30.6443"/>
<polygon fill="#9a32cd" stroke="#9a32cd" points="21.5876,-155.9262 23.3354,-166.3759 28.4856,-157.1171 21.5876,-155.9262"/>
<text text-anchor="middle" x="92" y="-101.5" font-family="Helvetica,sans-Serif" font-size="10.00" fill="#000000"> s_is_abss</text>
<text text-anchor="middle" x="92" y="-90.5" font-family="Helvetica,sans-Serif" font-size="10.00" fill="#000000">t_is_cont</text>
</g>
<!-- Node3 -->
<g id="node3" class="node">
<title>Node3</title>
<g id="a_node3"><a xlink:title=" ">
<polygon fill="#ffffff" stroke="#bfbfbf" points="62,-166.5 62,-185.5 178,-185.5 178,-166.5 62,-166.5"/>
<text text-anchor="middle" x="120" y="-173.5" font-family="Helvetica,sans-Serif" font-size="10.00" fill="#000000">type(eos_type), pointer</text>
</a>
</g>
</g>
<!-- Node3&#45;&gt;Node1 -->
<g id="edge2" class="edge">
<title>Node3&#45;&gt;Node1</title>
<path fill="none" stroke="#9a32cd" stroke-dasharray="5,2" d="M120,-156.4012C120,-123.9705 120,-59.8284 120,-30.622"/>
<polygon fill="#9a32cd" stroke="#9a32cd" points="116.5001,-156.4406 120,-166.4406 123.5001,-156.4407 116.5001,-156.4406"/>
<text text-anchor="middle" x="150" y="-96" font-family="Helvetica,sans-Serif" font-size="10.00" fill="#000000"> eqn_of_state</text>
</g>
<!-- Node4 -->
<g id="node4" class="node">
<title>Node4</title>
<g id="a_node4"><a xlink:title=" ">
<polygon fill="#ffffff" stroke="#bfbfbf" points="196,-166.5 196,-185.5 228,-185.5 228,-166.5 196,-166.5"/>
<text text-anchor="middle" x="212" y="-173.5" font-family="Helvetica,sans-Serif" font-size="10.00" fill="#000000">real</text>
</a>
</g>
</g>
<!-- Node4&#45;&gt;Node1 -->
<g id="edge3" class="edge">
<title>Node4&#45;&gt;Node1</title>
<path fill="none" stroke="#9a32cd" stroke-dasharray="5,2" d="M212.5802,-156.1371C212.3551,-129.1679 208.2395,-80.7017 184,-49 178.2106,-41.4284 170.2181,-35.3999 161.8407,-30.6656"/>
<polygon fill="#9a32cd" stroke="#9a32cd" points="209.0793,-156.2355 212.4859,-166.2677 216.079,-156.3008 209.0793,-156.2355"/>
<text text-anchor="middle" x="240" y="-140" font-family="Helvetica,sans-Serif" font-size="10.00" fill="#000000"> salt_deficit</text>
<text text-anchor="middle" x="240" y="-129" font-family="Helvetica,sans-Serif" font-size="10.00" fill="#000000">frazil</text>
<text text-anchor="middle" x="240" y="-118" font-family="Helvetica,sans-Serif" font-size="10.00" fill="#000000">min_salinity</text>
<text text-anchor="middle" x="240" y="-107" font-family="Helvetica,sans-Serif" font-size="10.00" fill="#000000">internal_heat</text>
<text text-anchor="middle" x="240" y="-96" font-family="Helvetica,sans-Serif" font-size="10.00" fill="#000000">p_ref</text>
<text text-anchor="middle" x="240" y="-85" font-family="Helvetica,sans-Serif" font-size="10.00" fill="#000000">s</text>
<text text-anchor="middle" x="240" y="-74" font-family="Helvetica,sans-Serif" font-size="10.00" fill="#000000">c_p</text>
<text text-anchor="middle" x="240" y="-63" font-family="Helvetica,sans-Serif" font-size="10.00" fill="#000000">t</text>
<text text-anchor="middle" x="240" y="-52" font-family="Helvetica,sans-Serif" font-size="10.00" fill="#000000">tempxpme</text>
</g>
</g>
</svg>
