<?xml version="1.0" encoding="UTF-8" standalone="no"?>
<!DOCTYPE svg PUBLIC "-//W3C//DTD SVG 1.1//EN"
 "http://www.w3.org/Graphics/SVG/1.1/DTD/svg11.dtd">
<!-- Generated by graphviz version 2.40.1 (20161225.0304)
 -->
<!-- Title: mom_continuity::continuity_cs Pages: 1 -->
<svg width="238pt" height="106pt"
 viewBox="0.00 0.00 237.50 106.00" xmlns="http://www.w3.org/2000/svg" xmlns:xlink="http://www.w3.org/1999/xlink">
<g id="graph0" class="graph" transform="scale(1 1) rotate(0) translate(4 102)">
<title>mom_continuity::continuity_cs</title>
<polygon fill="#ffffff" stroke="transparent" points="-4,4 -4,-102 233.5,-102 233.5,4 -4,4"/>
<!-- Node1 -->
<g id="node1" class="node">
<title>Node1</title>
<g id="a_node1"><a xlink:title="Control structure for mom_continuity.">
<polygon fill="#bfbfbf" stroke="#000000" points="27,-.5 27,-19.5 182,-19.5 182,-.5 27,-.5"/>
<text text-anchor="middle" x="104.5" y="-7.5" font-family="Helvetica,sans-Serif" font-size="10.00" fill="#000000">mom_continuity::continuity_cs</text>
</a>
</g>
</g>
<!-- Node2 -->
<g id="node2" class="node">
<title>Node2</title>
<g id="a_node2"><a xlink:title=" ">
<polygon fill="#ffffff" stroke="#bfbfbf" points="0,-67.5 0,-97.5 111,-97.5 111,-67.5 0,-67.5"/>
<text text-anchor="start" x="8" y="-85.5" font-family="Helvetica,sans-Serif" font-size="10.00" fill="#000000">type(continuity_ppm</text>
<text text-anchor="middle" x="55.5" y="-74.5" font-family="Helvetica,sans-Serif" font-size="10.00" fill="#000000">_cs), pointer</text>
</a>
</g>
</g>
<!-- Node2&#45;&gt;Node1 -->
<g id="edge1" class="edge">
<title>Node2&#45;&gt;Node1</title>
<path fill="none" stroke="#9a32cd" stroke-dasharray="5,2" d="M71.4907,-58.8403C80.4205,-45.6278 91.0725,-29.8672 97.8119,-19.8957"/>
<polygon fill="#9a32cd" stroke="#9a32cd" points="68.3527,-57.2329 65.6528,-67.478 74.1523,-61.1527 68.3527,-57.2329"/>
<text text-anchor="middle" x="107.5" y="-41" font-family="Helvetica,sans-Serif" font-size="10.00" fill="#000000"> ppm_csp</text>
</g>
<!-- Node3 -->
<g id="node3" class="node">
<title>Node3</title>
<g id="a_node3"><a xlink:title=" ">
<polygon fill="#ffffff" stroke="#bfbfbf" points="129.5,-73 129.5,-92 179.5,-92 179.5,-73 129.5,-73"/>
<text text-anchor="middle" x="154.5" y="-80" font-family="Helvetica,sans-Serif" font-size="10.00" fill="#000000">integer</text>
</a>
</g>
</g>
<!-- Node3&#45;&gt;Node1 -->
<g id="edge2" class="edge">
<title>Node3&#45;&gt;Node1</title>
<path fill="none" stroke="#9a32cd" stroke-dasharray="5,2" d="M146.6976,-63.3453C142.9609,-55.1875 138.0807,-45.7797 132.5,-38 127.6915,-31.2967 121.2386,-24.7254 115.7395,-19.6353"/>
<polygon fill="#9a32cd" stroke="#9a32cd" points="143.6023,-65.0057 150.7858,-72.7934 150.0267,-62.2258 143.6023,-65.0057"/>
<text text-anchor="middle" x="184" y="-41" font-family="Helvetica,sans-Serif" font-size="10.00" fill="#000000"> continuity_scheme</text>
</g>
</g>
</svg>
