<?xml version="1.0" encoding="UTF-8" standalone="no"?>
<!DOCTYPE svg PUBLIC "-//W3C//DTD SVG 1.1//EN"
 "http://www.w3.org/Graphics/SVG/1.1/DTD/svg11.dtd">
<!-- Generated by graphviz version 2.40.1 (20161225.0304)
 -->
<!-- Title: mom_int_tide_input::int_tide_input_cs Pages: 1 -->
<svg width="434pt" height="128pt"
 viewBox="0.00 0.00 433.50 128.00" xmlns="http://www.w3.org/2000/svg" xmlns:xlink="http://www.w3.org/1999/xlink">
<g id="graph0" class="graph" transform="scale(1 1) rotate(0) translate(4 124)">
<title>mom_int_tide_input::int_tide_input_cs</title>
<polygon fill="#ffffff" stroke="transparent" points="-4,4 -4,-124 429.5,-124 429.5,4 -4,4"/>
<!-- Node1 -->
<g id="node1" class="node">
<title>Node1</title>
<g id="a_node1"><a xlink:title="This control structure holds parameters that regulate internal tide energy inputs.">
<polygon fill="#bfbfbf" stroke="#000000" points="166.5,-.5 166.5,-30.5 274.5,-30.5 274.5,-.5 166.5,-.5"/>
<text text-anchor="start" x="174.5" y="-18.5" font-family="Helvetica,sans-Serif" font-size="10.00" fill="#000000">mom_int_tide_input</text>
<text text-anchor="middle" x="220.5" y="-7.5" font-family="Helvetica,sans-Serif" font-size="10.00" fill="#000000">::int_tide_input_cs</text>
</a>
</g>
</g>
<!-- Node2 -->
<g id="node2" class="node">
<title>Node2</title>
<g id="a_node2"><a xlink:title=" ">
<polygon fill="#ffffff" stroke="#bfbfbf" points="0,-100.5 0,-119.5 47,-119.5 47,-100.5 0,-100.5"/>
<text text-anchor="middle" x="23.5" y="-107.5" font-family="Helvetica,sans-Serif" font-size="10.00" fill="#000000">logical</text>
</a>
</g>
</g>
<!-- Node2&#45;&gt;Node1 -->
<g id="edge1" class="edge">
<title>Node2&#45;&gt;Node1</title>
<path fill="none" stroke="#9a32cd" stroke-dasharray="5,2" d="M42.313,-93.9186C59.0174,-80.3336 84.5767,-61.1942 109.5,-49 127.31,-40.2861 147.8476,-33.3184 166.3771,-28.0431"/>
<polygon fill="#9a32cd" stroke="#9a32cd" points="39.8994,-91.3732 34.435,-100.4502 44.3672,-96.762 39.8994,-91.3732"/>
<text text-anchor="middle" x="125.5" y="-63" font-family="Helvetica,sans-Serif" font-size="10.00" fill="#000000"> debug</text>
</g>
<!-- Node3 -->
<g id="node3" class="node">
<title>Node3</title>
<g id="a_node3"><a xlink:title=" ">
<polygon fill="#ffffff" stroke="#bfbfbf" points="65.5,-100.5 65.5,-119.5 173.5,-119.5 173.5,-100.5 65.5,-100.5"/>
<text text-anchor="middle" x="119.5" y="-107.5" font-family="Helvetica,sans-Serif" font-size="10.00" fill="#000000">character(len=200)</text>
</a>
</g>
</g>
<!-- Node3&#45;&gt;Node1 -->
<g id="edge2" class="edge">
<title>Node3&#45;&gt;Node1</title>
<path fill="none" stroke="#9a32cd" stroke-dasharray="5,2" d="M135.1912,-92.6141C146.7678,-80.0807 163.1162,-62.9813 178.5,-49 185.4023,-42.7269 193.3209,-36.243 200.4086,-30.6701"/>
<polygon fill="#9a32cd" stroke="#9a32cd" points="132.4989,-90.3717 128.3308,-100.1123 137.6634,-95.097 132.4989,-90.3717"/>
<text text-anchor="middle" x="197.5" y="-63" font-family="Helvetica,sans-Serif" font-size="10.00" fill="#000000"> inputdir</text>
</g>
<!-- Node4 -->
<g id="node4" class="node">
<title>Node4</title>
<g id="a_node4"><a xlink:title=" ">
<polygon fill="#ffffff" stroke="#bfbfbf" points="192,-100.5 192,-119.5 249,-119.5 249,-100.5 192,-100.5"/>
<text text-anchor="middle" x="220.5" y="-107.5" font-family="Helvetica,sans-Serif" font-size="10.00" fill="#000000">diag_ctrl</text>
</a>
</g>
</g>
<!-- Node4&#45;&gt;Node1 -->
<g id="edge3" class="edge">
<title>Node4&#45;&gt;Node1</title>
<path fill="none" stroke="#9a32cd" stroke-dasharray="5,2" d="M220.5,-90.1282C220.5,-72.3779 220.5,-46.7574 220.5,-30.6257"/>
<polygon fill="#9a32cd" stroke="#9a32cd" points="217.0001,-90.2427 220.5,-100.2428 224.0001,-90.2428 217.0001,-90.2427"/>
<text text-anchor="middle" x="232.5" y="-63" font-family="Helvetica,sans-Serif" font-size="10.00" fill="#000000"> diag</text>
</g>
<!-- Node5 -->
<g id="node5" class="node">
<title>Node5</title>
<g id="a_node5"><a xlink:title=" ">
<polygon fill="#ffffff" stroke="#bfbfbf" points="267.5,-100.5 267.5,-119.5 317.5,-119.5 317.5,-100.5 267.5,-100.5"/>
<text text-anchor="middle" x="292.5" y="-107.5" font-family="Helvetica,sans-Serif" font-size="10.00" fill="#000000">integer</text>
</a>
</g>
</g>
<!-- Node5&#45;&gt;Node1 -->
<g id="edge4" class="edge">
<title>Node5&#45;&gt;Node1</title>
<path fill="none" stroke="#9a32cd" stroke-dasharray="5,2" d="M279.9433,-91.8855C271.3162,-79.6181 259.4809,-63.1328 248.5,-49 243.7563,-42.8947 238.3477,-36.3364 233.5571,-30.6552"/>
<polygon fill="#9a32cd" stroke="#9a32cd" points="277.251,-94.1432 285.8478,-100.3356 282.989,-90.1337 277.251,-94.1432"/>
<text text-anchor="middle" x="301" y="-74" font-family="Helvetica,sans-Serif" font-size="10.00" fill="#000000"> id_nb</text>
<text text-anchor="middle" x="301" y="-63" font-family="Helvetica,sans-Serif" font-size="10.00" fill="#000000">id_tke_itidal</text>
<text text-anchor="middle" x="301" y="-52" font-family="Helvetica,sans-Serif" font-size="10.00" fill="#000000">id_n2_bot</text>
</g>
<!-- Node6 -->
<g id="node6" class="node">
<title>Node6</title>
<g id="a_node6"><a xlink:title=" ">
<polygon fill="#ffffff" stroke="#bfbfbf" points="345,-100.5 345,-119.5 380,-119.5 380,-100.5 345,-100.5"/>
<text text-anchor="middle" x="362.5" y="-107.5" font-family="Helvetica,sans-Serif" font-size="10.00" fill="#000000">real</text>
</a>
</g>
</g>
<!-- Node6&#45;&gt;Node1 -->
<g id="edge5" class="edge">
<title>Node6&#45;&gt;Node1</title>
<path fill="none" stroke="#9a32cd" stroke-dasharray="5,2" d="M357.7585,-90.4799C353.5273,-77.0258 346.0156,-59.7056 333.5,-49 324.2092,-41.0528 298.9696,-33.2255 274.6954,-27.1377"/>
<polygon fill="#9a32cd" stroke="#9a32cd" points="354.423,-91.549 360.4814,-100.2407 361.1656,-89.668 354.423,-91.549"/>
<text text-anchor="middle" x="389.5" y="-68.5" font-family="Helvetica,sans-Serif" font-size="10.00" fill="#000000"> tke_itidal_coef</text>
<text text-anchor="middle" x="389.5" y="-57.5" font-family="Helvetica,sans-Serif" font-size="10.00" fill="#000000">tke_itide_max</text>
</g>
</g>
</svg>
