<?xml version="1.0" encoding="UTF-8" standalone="no"?>
<!DOCTYPE svg PUBLIC "-//W3C//DTD SVG 1.1//EN"
 "http://www.w3.org/Graphics/SVG/1.1/DTD/svg11.dtd">
<!-- Generated by graphviz version 2.40.1 (20161225.0304)
 -->
<!-- Title: mom_pressureforce_blk_afv::pressureforce_blk_afv_cs Pages: 1 -->
<!--zoomable 161 -->
<svg id="main" version="1.1" xmlns="http://www.w3.org/2000/svg" xmlns:xlink="http://www.w3.org/1999/xlink" xml:space="preserve" onload="init(evt)">
<style type="text/css"><![CDATA[
.edge:hover path { stroke: red; }
.edge:hover polygon { stroke: red; fill: red; }
]]></style>
<script type="text/javascript"><![CDATA[
var edges = document.getElementsByTagName('g');
if (edges && edges.length) {
  for (var i=0;i<edges.length;i++) {
    if (edges[i].id.substr(0,4)=='edge') {
      edges[i].setAttribute('class','edge');
    }
  }
}
]]></script>
        <defs>
                <circle id="rim" cx="0" cy="0" r="7"/>
                <circle id="rim2" cx="0" cy="0" r="3.5"/>
                <g id="zoomPlus">
                        <use xlink:href="#rim" fill="#404040">
                                <set attributeName="fill" to="#808080" begin="zoomplus.mouseover" end="zoomplus.mouseout"/>
                        </use>
                        <path d="M-4,0h8M0,-4v8" fill="none" stroke="white" stroke-width="1.5" pointer-events="none"/>
                </g>
                <g id="zoomMin">
                        <use xlink:href="#rim" fill="#404040">
                                <set attributeName="fill" to="#808080" begin="zoomminus.mouseover" end="zoomminus.mouseout"/>
                        </use>
                        <path d="M-4,0h8" fill="none" stroke="white" stroke-width="1.5" pointer-events="none"/>
                </g>
                <g id="dirArrow">
                        <path fill="none" stroke="white" stroke-width="1.5" d="M0,-3.0v7 M-2.5,-0.5L0,-3.0L2.5,-0.5"/>
                </g>
               <g id="resetDef">
                       <use xlink:href="#rim2" fill="#404040">
                               <set attributeName="fill" to="#808080" begin="reset.mouseover" end="reset.mouseout"/>
                       </use>
               </g>
        </defs>

<script type="text/javascript">
var viewWidth = 520;
var viewHeight = 161;
var sectionId = 'dynsection-0';
</script>
<script xlink:href="svgpan.js"/>
<svg id="graph" class="graph">
<g id="viewport">
<title>mom_pressureforce_blk_afv::pressureforce_blk_afv_cs</title>
<polygon fill="#ffffff" stroke="transparent" points="-4,4 -4,-157 515.5,-157 515.5,4 -4,4"/>
<!-- Node1 -->
<g id="node1" class="node">
<title>Node1</title>
<g id="a_node1"><a xlink:title="Finite volume pressure gradient control structure.">
<polygon fill="#bfbfbf" stroke="#000000" points="183,-.5 183,-41.5 312,-41.5 312,-.5 183,-.5"/>
<text text-anchor="start" x="191" y="-29.5" font-family="Helvetica,sans-Serif" font-size="10.00" fill="#000000">mom_pressureforce_blk</text>
<text text-anchor="start" x="191" y="-18.5" font-family="Helvetica,sans-Serif" font-size="10.00" fill="#000000">_afv::pressureforce_blk</text>
<text text-anchor="middle" x="247.5" y="-7.5" font-family="Helvetica,sans-Serif" font-size="10.00" fill="#000000">_afv_cs</text>
</a>
</g>
</g>
<!-- Node2 -->
<g id="node2" class="node">
<title>Node2</title>
<g id="a_node2"><a xlink:title=" ">
<polygon fill="#ffffff" stroke="#bfbfbf" points="0,-128 0,-147 47,-147 47,-128 0,-128"/>
<text text-anchor="middle" x="23.5" y="-135" font-family="Helvetica,sans-Serif" font-size="10.00" fill="#000000">logical</text>
</a>
</g>
</g>
<!-- Node2&#45;&gt;Node1 -->
<g id="edge1" class="edge">
<title>Node2&#45;&gt;Node1</title>
<path fill="none" stroke="#9a32cd" stroke-dasharray="5,2" d="M25.2451,-117.8471C27.9022,-100.0741 34.6032,-74.5309 51.5,-60 70.966,-43.2597 133.4333,-32.8405 182.6754,-27.0286"/>
<polygon fill="#9a32cd" stroke="#9a32cd" points="21.746,-117.6318 24.0372,-127.9759 28.6968,-118.4608 21.746,-117.6318"/>
<text text-anchor="middle" x="97" y="-96" font-family="Helvetica,sans-Serif" font-size="10.00" fill="#000000"> reconstruct</text>
<text text-anchor="middle" x="97" y="-85" font-family="Helvetica,sans-Serif" font-size="10.00" fill="#000000">tides</text>
<text text-anchor="middle" x="97" y="-74" font-family="Helvetica,sans-Serif" font-size="10.00" fill="#000000">boundary_extrap</text>
<text text-anchor="middle" x="97" y="-63" font-family="Helvetica,sans-Serif" font-size="10.00" fill="#000000">usemasswghtinterp</text>
</g>
<!-- Node3 -->
<g id="node3" class="node">
<title>Node3</title>
<g id="a_node3"><a xlink:title=" ">
<polygon fill="#ffffff" stroke="#bfbfbf" points="90.5,-128 90.5,-147 152.5,-147 152.5,-128 90.5,-128"/>
<text text-anchor="middle" x="121.5" y="-135" font-family="Helvetica,sans-Serif" font-size="10.00" fill="#000000">time_type</text>
</a>
</g>
</g>
<!-- Node3&#45;&gt;Node1 -->
<g id="edge2" class="edge">
<title>Node3&#45;&gt;Node1</title>
<path fill="none" stroke="#9a32cd" stroke-dasharray="5,2" d="M134.2618,-119.2986C146.4739,-102.6664 166.0192,-77.9946 186.5,-60 194.0542,-53.3628 202.8441,-47.0652 211.3596,-41.5432"/>
<polygon fill="#9a32cd" stroke="#9a32cd" points="131.2746,-117.4576 128.2724,-127.6182 136.9556,-121.5475 131.2746,-117.4576"/>
<text text-anchor="middle" x="198" y="-79.5" font-family="Helvetica,sans-Serif" font-size="10.00" fill="#000000"> time</text>
</g>
<!-- Node4 -->
<g id="node4" class="node">
<title>Node4</title>
<g id="a_node4"><a xlink:title=" ">
<polygon fill="#ffffff" stroke="#bfbfbf" points="171,-128 171,-147 228,-147 228,-128 171,-128"/>
<text text-anchor="middle" x="199.5" y="-135" font-family="Helvetica,sans-Serif" font-size="10.00" fill="#000000">diag_ctrl</text>
</a>
</g>
</g>
<!-- Node4&#45;&gt;Node1 -->
<g id="edge3" class="edge">
<title>Node4&#45;&gt;Node1</title>
<path fill="none" stroke="#9a32cd" stroke-dasharray="5,2" d="M207.3422,-118.4664C216.0609,-97.3054 230.0916,-63.2516 239.0489,-41.5116"/>
<polygon fill="#9a32cd" stroke="#9a32cd" points="204.0015,-117.387 203.428,-127.9663 210.4737,-120.0537 204.0015,-117.387"/>
<text text-anchor="middle" x="242.5" y="-79.5" font-family="Helvetica,sans-Serif" font-size="10.00" fill="#000000"> diag</text>
</g>
<!-- Node5 -->
<g id="node5" class="node">
<title>Node5</title>
<g id="a_node5"><a xlink:title=" ">
<polygon fill="#ffffff" stroke="#bfbfbf" points="246.5,-122.5 246.5,-152.5 344.5,-152.5 344.5,-122.5 246.5,-122.5"/>
<text text-anchor="start" x="254.5" y="-140.5" font-family="Helvetica,sans-Serif" font-size="10.00" fill="#000000">type(tidal_forcing</text>
<text text-anchor="middle" x="295.5" y="-129.5" font-family="Helvetica,sans-Serif" font-size="10.00" fill="#000000">_cs), pointer</text>
</a>
</g>
</g>
<!-- Node5&#45;&gt;Node1 -->
<g id="edge4" class="edge">
<title>Node5&#45;&gt;Node1</title>
<path fill="none" stroke="#9a32cd" stroke-dasharray="5,2" d="M285.4004,-112.9874C276.6947,-91.858 264.2653,-61.6909 256.0451,-41.7397"/>
<polygon fill="#9a32cd" stroke="#9a32cd" points="282.1792,-114.357 289.2248,-122.2697 288.6514,-111.6903 282.1792,-114.357"/>
<text text-anchor="middle" x="305" y="-79.5" font-family="Helvetica,sans-Serif" font-size="10.00" fill="#000000"> tides_csp</text>
</g>
<!-- Node6 -->
<g id="node6" class="node">
<title>Node6</title>
<g id="a_node6"><a xlink:title=" ">
<polygon fill="#ffffff" stroke="#bfbfbf" points="362.5,-128 362.5,-147 412.5,-147 412.5,-128 362.5,-128"/>
<text text-anchor="middle" x="387.5" y="-135" font-family="Helvetica,sans-Serif" font-size="10.00" fill="#000000">integer</text>
</a>
</g>
</g>
<!-- Node6&#45;&gt;Node1 -->
<g id="edge5" class="edge">
<title>Node6&#45;&gt;Node1</title>
<path fill="none" stroke="#9a32cd" stroke-dasharray="5,2" d="M378.2772,-118.8581C368.9802,-101.6656 353.2054,-76.3964 333.5,-60 324.9306,-52.8696 314.8458,-46.7755 304.6553,-41.6703"/>
<polygon fill="#9a32cd" stroke="#9a32cd" points="375.2681,-120.6581 382.9834,-127.9193 381.4802,-117.4317 375.2681,-120.6581"/>
<text text-anchor="middle" x="403.5" y="-85" font-family="Helvetica,sans-Serif" font-size="10.00" fill="#000000"> id_e_tidal</text>
<text text-anchor="middle" x="403.5" y="-74" font-family="Helvetica,sans-Serif" font-size="10.00" fill="#000000">recon_scheme</text>
</g>
<!-- Node7 -->
<g id="node7" class="node">
<title>Node7</title>
<g id="a_node7"><a xlink:title=" ">
<polygon fill="#ffffff" stroke="#bfbfbf" points="453,-128 453,-147 488,-147 488,-128 453,-128"/>
<text text-anchor="middle" x="470.5" y="-135" font-family="Helvetica,sans-Serif" font-size="10.00" fill="#000000">real</text>
</a>
</g>
</g>
<!-- Node7&#45;&gt;Node1 -->
<g id="edge6" class="edge">
<title>Node7&#45;&gt;Node1</title>
<path fill="none" stroke="#9a32cd" stroke-dasharray="5,2" d="M468.7516,-117.8509C466.0923,-100.0806 459.3897,-74.5391 442.5,-60 423.2031,-43.3886 361.4079,-32.9723 312.4932,-27.1267"/>
<polygon fill="#9a32cd" stroke="#9a32cd" points="465.2999,-118.4636 469.961,-127.978 472.2505,-117.6335 465.2999,-118.4636"/>
<text text-anchor="middle" x="488.5" y="-85" font-family="Helvetica,sans-Serif" font-size="10.00" fill="#000000"> rho0</text>
<text text-anchor="middle" x="488.5" y="-74" font-family="Helvetica,sans-Serif" font-size="10.00" fill="#000000">gfs_scale</text>
</g>
</g>
</svg>
        <g id="navigator" transform="translate(0 0)" fill="#404254">
                <rect fill="#f2f5e9" fill-opacity="0.5" stroke="#606060" stroke-width=".5" x="0" y="0" width="60" height="60"/>
                <use id="zoomplus" xlink:href="#zoomPlus" x="17" y="9" onmousedown="handleZoom(evt,'in')"/>
                <use id="zoomminus" xlink:href="#zoomMin" x="42" y="9" onmousedown="handleZoom(evt,'out')"/>
                <use id="reset" xlink:href="#resetDef" x="30" y="36" onmousedown="handleReset()"/>
                <g id="arrowUp" xlink:href="#dirArrow" transform="translate(30 24)" onmousedown="handlePan(0,-1)">
                  <use xlink:href="#rim" fill="#404040">
                        <set attributeName="fill" to="#808080" begin="arrowUp.mouseover" end="arrowUp.mouseout"/>
                  </use>
                  <path fill="none" stroke="white" stroke-width="1.5" d="M0,-3.0v7 M-2.5,-0.5L0,-3.0L2.5,-0.5"/>
                </g>
                <g id="arrowRight" xlink:href="#dirArrow" transform="rotate(90) translate(36 -43)" onmousedown="handlePan(1,0)">
                  <use xlink:href="#rim" fill="#404040">
                        <set attributeName="fill" to="#808080" begin="arrowRight.mouseover" end="arrowRight.mouseout"/>
                  </use>
                  <path fill="none" stroke="white" stroke-width="1.5" d="M0,-3.0v7 M-2.5,-0.5L0,-3.0L2.5,-0.5"/>
                </g>
                <g id="arrowDown" xlink:href="#dirArrow" transform="rotate(180) translate(-30 -48)" onmousedown="handlePan(0,1)">
                  <use xlink:href="#rim" fill="#404040">
                        <set attributeName="fill" to="#808080" begin="arrowDown.mouseover" end="arrowDown.mouseout"/>
                  </use>
                  <path fill="none" stroke="white" stroke-width="1.5" d="M0,-3.0v7 M-2.5,-0.5L0,-3.0L2.5,-0.5"/>
                </g>
                <g id="arrowLeft" xlink:href="#dirArrow" transform="rotate(270) translate(-36 17)" onmousedown="handlePan(-1,0)">
                  <use xlink:href="#rim" fill="#404040">
                        <set attributeName="fill" to="#808080" begin="arrowLeft.mouseover" end="arrowLeft.mouseout"/>
                  </use>
                  <path fill="none" stroke="white" stroke-width="1.5" d="M0,-3.0v7 M-2.5,-0.5L0,-3.0L2.5,-0.5"/>
                </g>
        </g>
        <svg viewBox="0 0 15 15" width="100%" height="30px" preserveAspectRatio="xMaxYMin meet">
         <g id="arrow_out" transform="scale(0.3 0.3)">
          <a xlink:href="structmom__pressureforce__blk__afv_1_1pressureforce__blk__afv__cs__coll__graph_org.svg" target="_base">
           <rect id="button" ry="5" rx="5" y="6" x="6" height="38" width="38"
                fill="#f2f5e9" fill-opacity="0.5" stroke="#606060" stroke-width="1.0"/>
           <path id="arrow"
             d="M 11.500037,31.436501 C 11.940474,20.09759 22.043105,11.32322 32.158766,21.979434 L 37.068811,17.246167 C 37.068811,17.246167 37.088388,32 37.088388,32 L 22.160133,31.978069 C 22.160133,31.978069 26.997745,27.140456 26.997745,27.140456 C 18.528582,18.264221 13.291696,25.230495 11.500037,31.436501 z"
             style="fill:#404040;"/>
          </a>
         </g>
        </svg>
</svg>
