<?xml version="1.0" encoding="UTF-8" standalone="no"?>
<!DOCTYPE svg PUBLIC "-//W3C//DTD SVG 1.1//EN"
 "http://www.w3.org/Graphics/SVG/1.1/DTD/svg11.dtd">
<!-- Generated by graphviz version 2.40.1 (20161225.0304)
 -->
<!-- Title: mom_dynamics_unsplit_rk2::mom_dyn_unsplit_rk2_cs Pages: 1 -->
<!--zoomable 833 -->
<svg id="main" version="1.1" xmlns="http://www.w3.org/2000/svg" xmlns:xlink="http://www.w3.org/1999/xlink" xml:space="preserve" onload="init(evt)">
<style type="text/css"><![CDATA[
.edge:hover path { stroke: red; }
.edge:hover polygon { stroke: red; fill: red; }
]]></style>
<script type="text/javascript"><![CDATA[
var edges = document.getElementsByTagName('g');
if (edges && edges.length) {
  for (var i=0;i<edges.length;i++) {
    if (edges[i].id.substr(0,4)=='edge') {
      edges[i].setAttribute('class','edge');
    }
  }
}
]]></script>
        <defs>
                <circle id="rim" cx="0" cy="0" r="7"/>
                <circle id="rim2" cx="0" cy="0" r="3.5"/>
                <g id="zoomPlus">
                        <use xlink:href="#rim" fill="#404040">
                                <set attributeName="fill" to="#808080" begin="zoomplus.mouseover" end="zoomplus.mouseout"/>
                        </use>
                        <path d="M-4,0h8M0,-4v8" fill="none" stroke="white" stroke-width="1.5" pointer-events="none"/>
                </g>
                <g id="zoomMin">
                        <use xlink:href="#rim" fill="#404040">
                                <set attributeName="fill" to="#808080" begin="zoomminus.mouseover" end="zoomminus.mouseout"/>
                        </use>
                        <path d="M-4,0h8" fill="none" stroke="white" stroke-width="1.5" pointer-events="none"/>
                </g>
                <g id="dirArrow">
                        <path fill="none" stroke="white" stroke-width="1.5" d="M0,-3.0v7 M-2.5,-0.5L0,-3.0L2.5,-0.5"/>
                </g>
               <g id="resetDef">
                       <use xlink:href="#rim2" fill="#404040">
                               <set attributeName="fill" to="#808080" begin="reset.mouseover" end="reset.mouseout"/>
                       </use>
               </g>
        </defs>

<script type="text/javascript">
var viewWidth = 361;
var viewHeight = 833;
var sectionId = 'dynsection-0';
</script>
<script xlink:href="svgpan.js"/>
<svg id="graph" class="graph">
<g id="viewport">
<title>mom_dynamics_unsplit_rk2::mom_dyn_unsplit_rk2_cs</title>
<polygon fill="#ffffff" stroke="transparent" points="-4,4 -4,-828.7001 357,-828.7001 357,4 -4,4"/>
<!-- Node1 -->
<g id="node1" class="node">
<title>Node1</title>
<g id="a_node1"><a xlink:title="MOM_dynamics_unsplit_RK2 module control structure.">
<polygon fill="#bfbfbf" stroke="#000000" points="234,-450.2001 234,-491.2001 353,-491.2001 353,-450.2001 234,-450.2001"/>
<text text-anchor="start" x="242" y="-479.2001" font-family="Helvetica,sans-Serif" font-size="10.00" fill="#000000">mom_dynamics_unsplit</text>
<text text-anchor="start" x="242" y="-468.2001" font-family="Helvetica,sans-Serif" font-size="10.00" fill="#000000">_rk2::mom_dyn_unsplit</text>
<text text-anchor="middle" x="293.5" y="-457.2001" font-family="Helvetica,sans-Serif" font-size="10.00" fill="#000000">_rk2_cs</text>
</a>
</g>
</g>
<!-- Node2 -->
<g id="node2" class="node">
<title>Node2</title>
<g id="a_node2"><a xlink:title=" ">
<polygon fill="#ffffff" stroke="#bfbfbf" points="1,-797.2001 1,-816.2001 106,-816.2001 106,-797.2001 1,-797.2001"/>
<text text-anchor="middle" x="53.5" y="-804.2001" font-family="Helvetica,sans-Serif" font-size="10.00" fill="#000000">type(ale_cs), pointer</text>
</a>
</g>
</g>
<!-- Node2&#45;&gt;Node1 -->
<g id="edge1" class="edge">
<title>Node2&#45;&gt;Node1</title>
<path fill="none" stroke="#9a32cd" stroke-dasharray="5,2" d="M116.3933,-813.9876C149.8335,-814.3265 189.4128,-808.5746 216,-784.7001 260.3891,-744.8401 284.4852,-554.7986 291.3924,-491.3651"/>
<polygon fill="#9a32cd" stroke="#9a32cd" points="116.3285,-810.4844 106.2335,-813.7001 116.1305,-817.4816 116.3285,-810.4844"/>
<text text-anchor="middle" x="170.5" y="-816.7001" font-family="Helvetica,sans-Serif" font-size="10.00" fill="#000000"> ale_csp</text>
</g>
<!-- Node3 -->
<g id="node3" class="node">
<title>Node3</title>
<g id="a_node3"><a xlink:title=" ">
<polygon fill="#ffffff" stroke="#bfbfbf" points="31.5,-754.2001 31.5,-773.2001 75.5,-773.2001 75.5,-754.2001 31.5,-754.2001"/>
<text text-anchor="middle" x="53.5" y="-761.2001" font-family="Helvetica,sans-Serif" font-size="10.00" fill="#000000">logical</text>
</a>
</g>
</g>
<!-- Node3&#45;&gt;Node1 -->
<g id="edge2" class="edge">
<title>Node3&#45;&gt;Node1</title>
<path fill="none" stroke="#9a32cd" stroke-dasharray="5,2" d="M85.8643,-762.9651C127.619,-761.3507 197.1391,-756.1911 216,-739.7001 254.1428,-706.3501 281.5629,-548.8873 290.4252,-491.602"/>
<polygon fill="#9a32cd" stroke="#9a32cd" points="85.5189,-759.4747 75.6431,-763.3112 85.7559,-766.4707 85.5189,-759.4747"/>
<text text-anchor="middle" x="170.5" y="-773.7001" font-family="Helvetica,sans-Serif" font-size="10.00" fill="#000000"> debug</text>
<text text-anchor="middle" x="170.5" y="-762.7001" font-family="Helvetica,sans-Serif" font-size="10.00" fill="#000000">module_is_initialized</text>
</g>
<!-- Node4 -->
<g id="node4" class="node">
<title>Node4</title>
<g id="a_node4"><a xlink:title=" ">
<polygon fill="#ffffff" stroke="#bfbfbf" points="9.5,-716.2001 9.5,-735.2001 97.5,-735.2001 97.5,-716.2001 9.5,-716.2001"/>
<text text-anchor="middle" x="53.5" y="-723.2001" font-family="Helvetica,sans-Serif" font-size="10.00" fill="#000000">ocean_obc_type</text>
</a>
</g>
</g>
<!-- Node4&#45;&gt;Node1 -->
<g id="edge3" class="edge">
<title>Node4&#45;&gt;Node1</title>
<path fill="none" stroke="#9a32cd" stroke-dasharray="5,2" d="M107.6762,-726.9421C142.4828,-724.907 186.5333,-716.6552 216,-690.7001 246.9195,-663.4654 277.6541,-540.5115 288.9598,-491.2265"/>
<polygon fill="#9a32cd" stroke="#9a32cd" points="107.5016,-723.4463 97.6618,-727.3741 107.8034,-730.4398 107.5016,-723.4463"/>
<text text-anchor="middle" x="170.5" y="-727.7001" font-family="Helvetica,sans-Serif" font-size="10.00" fill="#000000"> obc</text>
</g>
<!-- Node5 -->
<g id="node5" class="node">
<title>Node5</title>
<g id="a_node5"><a xlink:title=" ">
<polygon fill="#ffffff" stroke="#bfbfbf" points="5,-666.7001 5,-696.7001 102,-696.7001 102,-666.7001 5,-666.7001"/>
<text text-anchor="start" x="13" y="-684.7001" font-family="Helvetica,sans-Serif" font-size="10.00" fill="#000000">type(set_visc_cs),</text>
<text text-anchor="middle" x="53.5" y="-673.7001" font-family="Helvetica,sans-Serif" font-size="10.00" fill="#000000"> pointer</text>
</a>
</g>
</g>
<!-- Node5&#45;&gt;Node1 -->
<g id="edge4" class="edge">
<title>Node5&#45;&gt;Node1</title>
<path fill="none" stroke="#9a32cd" stroke-dasharray="5,2" d="M112.4047,-678.3443C146.0472,-673.6657 187.1423,-662.9392 216,-638.7001 262.3624,-599.758 282.4678,-527.0781 289.847,-491.4582"/>
<polygon fill="#9a32cd" stroke="#9a32cd" points="111.7166,-674.9028 102.225,-679.6103 112.5806,-681.8493 111.7166,-674.9028"/>
<text text-anchor="middle" x="170.5" y="-678.7001" font-family="Helvetica,sans-Serif" font-size="10.00" fill="#000000"> set_visc_csp</text>
</g>
<!-- Node6 -->
<g id="node6" class="node">
<title>Node6</title>
<g id="a_node6"><a xlink:title=" ">
<polygon fill="#ffffff" stroke="#bfbfbf" points="6,-617.7001 6,-647.7001 101,-647.7001 101,-617.7001 6,-617.7001"/>
<text text-anchor="start" x="14" y="-635.7001" font-family="Helvetica,sans-Serif" font-size="10.00" fill="#000000">type(vertvisc_cs),</text>
<text text-anchor="middle" x="53.5" y="-624.7001" font-family="Helvetica,sans-Serif" font-size="10.00" fill="#000000"> pointer</text>
</a>
</g>
</g>
<!-- Node6&#45;&gt;Node1 -->
<g id="edge5" class="edge">
<title>Node6&#45;&gt;Node1</title>
<path fill="none" stroke="#9a32cd" stroke-dasharray="5,2" d="M111.1668,-627.7569C144.3817,-622.5302 185.4619,-611.7845 216,-589.7001 250.9616,-564.4168 274.3399,-518.0917 285.6339,-491.3079"/>
<polygon fill="#9a32cd" stroke="#9a32cd" points="110.5276,-624.3129 101.1315,-629.2083 111.5296,-631.2408 110.5276,-624.3129"/>
<text text-anchor="middle" x="170.5" y="-626.7001" font-family="Helvetica,sans-Serif" font-size="10.00" fill="#000000"> vertvisc_csp</text>
</g>
<!-- Node7 -->
<g id="node7" class="node">
<title>Node7</title>
<g id="a_node7"><a xlink:title=" ">
<polygon fill="#ffffff" stroke="#bfbfbf" points="13.5,-579.2001 13.5,-598.2001 93.5,-598.2001 93.5,-579.2001 13.5,-579.2001"/>
<text text-anchor="middle" x="53.5" y="-586.2001" font-family="Helvetica,sans-Serif" font-size="10.00" fill="#000000">cont_diag_ptrs</text>
</a>
</g>
</g>
<!-- Node7&#45;&gt;Node1 -->
<g id="edge6" class="edge">
<title>Node7&#45;&gt;Node1</title>
<path fill="none" stroke="#9a32cd" stroke-dasharray="5,2" d="M103.567,-580.4195C136.9457,-573.4457 180.9572,-561.3754 216,-541.7001 239.3894,-528.5678 261.4714,-507.1065 276.0353,-491.2116"/>
<polygon fill="#9a32cd" stroke="#9a32cd" points="102.6884,-577.0259 93.5712,-582.4229 104.064,-583.8894 102.6884,-577.0259"/>
<text text-anchor="middle" x="170.5" y="-577.7001" font-family="Helvetica,sans-Serif" font-size="10.00" fill="#000000"> cdp</text>
</g>
<!-- Node8 -->
<g id="node8" class="node">
<title>Node8</title>
<g id="a_node8"><a xlink:title=" ">
<polygon fill="#ffffff" stroke="#bfbfbf" points="5,-529.7001 5,-559.7001 102,-559.7001 102,-529.7001 5,-529.7001"/>
<text text-anchor="start" x="13" y="-547.7001" font-family="Helvetica,sans-Serif" font-size="10.00" fill="#000000">type(hor_visc_cs),</text>
<text text-anchor="middle" x="53.5" y="-536.7001" font-family="Helvetica,sans-Serif" font-size="10.00" fill="#000000"> pointer</text>
</a>
</g>
</g>
<!-- Node8&#45;&gt;Node1 -->
<g id="edge7" class="edge">
<title>Node8&#45;&gt;Node1</title>
<path fill="none" stroke="#9a32cd" stroke-dasharray="5,2" d="M112.1286,-531.0198C143.2561,-523.2974 182.0007,-512.9519 216,-501.7001 225.3551,-498.6041 235.2085,-494.9656 244.6353,-491.2913"/>
<polygon fill="#9a32cd" stroke="#9a32cd" points="111.1819,-527.6482 102.3056,-533.4328 112.8518,-534.4461 111.1819,-527.6482"/>
<text text-anchor="middle" x="170.5" y="-529.7001" font-family="Helvetica,sans-Serif" font-size="10.00" fill="#000000"> hor_visc_csp</text>
</g>
<!-- Node9 -->
<g id="node9" class="node">
<title>Node9</title>
<g id="a_node9"><a xlink:title=" ">
<polygon fill="#ffffff" stroke="#bfbfbf" points="4,-480.7001 4,-510.7001 103,-510.7001 103,-480.7001 4,-480.7001"/>
<text text-anchor="start" x="12" y="-498.7001" font-family="Helvetica,sans-Serif" font-size="10.00" fill="#000000">type(continuity_cs)</text>
<text text-anchor="middle" x="53.5" y="-487.7001" font-family="Helvetica,sans-Serif" font-size="10.00" fill="#000000">, pointer</text>
</a>
</g>
</g>
<!-- Node9&#45;&gt;Node1 -->
<g id="edge8" class="edge">
<title>Node9&#45;&gt;Node1</title>
<path fill="none" stroke="#9a32cd" stroke-dasharray="5,2" d="M113.3009,-489.4709C150.0275,-485.6452 196.907,-480.7619 233.6439,-476.9351"/>
<polygon fill="#9a32cd" stroke="#9a32cd" points="112.8117,-486.0028 103.2282,-490.5201 113.537,-492.9651 112.8117,-486.0028"/>
<text text-anchor="middle" x="170.5" y="-489.7001" font-family="Helvetica,sans-Serif" font-size="10.00" fill="#000000"> continuity_csp</text>
</g>
<!-- Node10 -->
<g id="node10" class="node">
<title>Node10</title>
<g id="a_node10"><a xlink:title=" ">
<polygon fill="#ffffff" stroke="#bfbfbf" points="0,-431.7001 0,-461.7001 107,-461.7001 107,-431.7001 0,-431.7001"/>
<text text-anchor="start" x="8" y="-449.7001" font-family="Helvetica,sans-Serif" font-size="10.00" fill="#000000">type(update_obc_cs)</text>
<text text-anchor="middle" x="53.5" y="-438.7001" font-family="Helvetica,sans-Serif" font-size="10.00" fill="#000000">, pointer</text>
</a>
</g>
</g>
<!-- Node10&#45;&gt;Node1 -->
<g id="edge9" class="edge">
<title>Node10&#45;&gt;Node1</title>
<path fill="none" stroke="#9a32cd" stroke-dasharray="5,2" d="M117.6072,-452.9419C147.5108,-455.8715 183.5789,-459.4307 216,-462.7001 221.787,-463.2837 227.8164,-463.8969 233.8437,-464.5134"/>
<polygon fill="#9a32cd" stroke="#9a32cd" points="117.5965,-449.4242 107.3031,-451.9334 116.9146,-456.3909 117.5965,-449.4242"/>
<text text-anchor="middle" x="170.5" y="-465.7001" font-family="Helvetica,sans-Serif" font-size="10.00" fill="#000000"> update_obc_csp</text>
</g>
<!-- Node11 -->
<g id="node11" class="node">
<title>Node11</title>
<g id="a_node11"><a xlink:title=" ">
<polygon fill="#ffffff" stroke="#bfbfbf" points="1.5,-382.7001 1.5,-412.7001 105.5,-412.7001 105.5,-382.7001 1.5,-382.7001"/>
<text text-anchor="start" x="9.5" y="-400.7001" font-family="Helvetica,sans-Serif" font-size="10.00" fill="#000000">type(coriolisadv_cs)</text>
<text text-anchor="middle" x="53.5" y="-389.7001" font-family="Helvetica,sans-Serif" font-size="10.00" fill="#000000">, pointer</text>
</a>
</g>
</g>
<!-- Node11&#45;&gt;Node1 -->
<g id="edge10" class="edge">
<title>Node11&#45;&gt;Node1</title>
<path fill="none" stroke="#9a32cd" stroke-dasharray="5,2" d="M115.723,-411.1742C146.2401,-418.3442 183.3629,-427.9076 216,-438.7001 226.0891,-442.0364 236.7261,-446.072 246.7781,-450.1369"/>
<polygon fill="#9a32cd" stroke="#9a32cd" points="116.1753,-407.6862 105.643,-408.836 114.5935,-414.5052 116.1753,-407.6862"/>
<text text-anchor="middle" x="170.5" y="-441.7001" font-family="Helvetica,sans-Serif" font-size="10.00" fill="#000000"> coriolisadv_csp</text>
</g>
<!-- Node12 -->
<g id="node12" class="node">
<title>Node12</title>
<g id="a_node12"><a xlink:title=" ">
<polygon fill="#ffffff" stroke="#bfbfbf" points="27,-344.2001 27,-363.2001 80,-363.2001 80,-344.2001 27,-344.2001"/>
<text text-anchor="middle" x="53.5" y="-351.2001" font-family="Helvetica,sans-Serif" font-size="10.00" fill="#000000">diag_ctrl</text>
</a>
</g>
</g>
<!-- Node12&#45;&gt;Node1 -->
<g id="edge11" class="edge">
<title>Node12&#45;&gt;Node1</title>
<path fill="none" stroke="#9a32cd" stroke-dasharray="5,2" d="M90.0486,-358.7042C124.2927,-364.5424 176.0471,-376.3842 216,-398.7001 239.7298,-411.9546 261.9247,-433.948 276.4283,-450.146"/>
<polygon fill="#9a32cd" stroke="#9a32cd" points="90.4466,-355.2232 80.0158,-357.0802 89.328,-362.1332 90.4466,-355.2232"/>
<text text-anchor="middle" x="170.5" y="-401.7001" font-family="Helvetica,sans-Serif" font-size="10.00" fill="#000000"> diag</text>
</g>
<!-- Node13 -->
<g id="node13" class="node">
<title>Node13</title>
<g id="a_node13"><a xlink:title=" ">
<polygon fill="#ffffff" stroke="#bfbfbf" points="8,-294.7001 8,-324.7001 99,-324.7001 99,-294.7001 8,-294.7001"/>
<text text-anchor="start" x="16" y="-312.7001" font-family="Helvetica,sans-Serif" font-size="10.00" fill="#000000">type(tidal_forcing</text>
<text text-anchor="middle" x="53.5" y="-301.7001" font-family="Helvetica,sans-Serif" font-size="10.00" fill="#000000">_cs), pointer</text>
</a>
</g>
</g>
<!-- Node13&#45;&gt;Node1 -->
<g id="edge12" class="edge">
<title>Node13&#45;&gt;Node1</title>
<path fill="none" stroke="#9a32cd" stroke-dasharray="5,2" d="M109.4304,-313.5458C142.9432,-318.2051 184.9324,-328.4149 216,-350.7001 251.266,-375.997 274.5326,-422.7843 285.7253,-449.8594"/>
<polygon fill="#9a32cd" stroke="#9a32cd" points="109.683,-310.05 99.3235,-312.2708 108.8068,-316.995 109.683,-310.05"/>
<text text-anchor="middle" x="170.5" y="-353.7001" font-family="Helvetica,sans-Serif" font-size="10.00" fill="#000000"> tides_csp</text>
</g>
<!-- Node14 -->
<g id="node14" class="node">
<title>Node14</title>
<g id="a_node14"><a xlink:title=" ">
<polygon fill="#ffffff" stroke="#bfbfbf" points="4.5,-245.7001 4.5,-275.7001 102.5,-275.7001 102.5,-245.7001 4.5,-245.7001"/>
<text text-anchor="start" x="12.5" y="-263.7001" font-family="Helvetica,sans-Serif" font-size="10.00" fill="#000000">type(pressureforce</text>
<text text-anchor="middle" x="53.5" y="-252.7001" font-family="Helvetica,sans-Serif" font-size="10.00" fill="#000000">_cs), pointer</text>
</a>
</g>
</g>
<!-- Node14&#45;&gt;Node1 -->
<g id="edge13" class="edge">
<title>Node14&#45;&gt;Node1</title>
<path fill="none" stroke="#9a32cd" stroke-dasharray="5,2" d="M112.4401,-269.6731C152.1929,-276.7426 200.1746,-287.58 216,-300.7001 263.3193,-339.9304 283.0497,-414.2325 290.1073,-450.1875"/>
<polygon fill="#9a32cd" stroke="#9a32cd" points="112.986,-266.2156 102.5354,-267.9579 111.7915,-273.113 112.986,-266.2156"/>
<text text-anchor="middle" x="170.5" y="-303.7001" font-family="Helvetica,sans-Serif" font-size="10.00" fill="#000000"> pressureforce_csp</text>
</g>
<!-- Node15 -->
<g id="node15" class="node">
<title>Node15</title>
<g id="a_node15"><a xlink:title=" ">
<polygon fill="#ffffff" stroke="#bfbfbf" points="30.5,-192.2001 30.5,-211.2001 76.5,-211.2001 76.5,-192.2001 30.5,-192.2001"/>
<text text-anchor="middle" x="53.5" y="-199.2001" font-family="Helvetica,sans-Serif" font-size="10.00" fill="#000000">integer</text>
</a>
</g>
</g>
<!-- Node15&#45;&gt;Node1 -->
<g id="edge14" class="edge">
<title>Node15&#45;&gt;Node1</title>
<path fill="none" stroke="#9a32cd" stroke-dasharray="5,2" d="M86.5724,-191.0453C122.2318,-181.7748 178.8654,-173.7537 216,-201.7001 256.5803,-232.2396 282.5558,-392.2075 290.7259,-449.9163"/>
<polygon fill="#9a32cd" stroke="#9a32cd" points="85.3649,-187.748 76.6644,-193.7938 87.2361,-194.4933 85.3649,-187.748"/>
<text text-anchor="middle" x="170.5" y="-259.7001" font-family="Helvetica,sans-Serif" font-size="10.00" fill="#000000"> id_vh</text>
<text text-anchor="middle" x="170.5" y="-248.7001" font-family="Helvetica,sans-Serif" font-size="10.00" fill="#000000">id_cau</text>
<text text-anchor="middle" x="170.5" y="-237.7001" font-family="Helvetica,sans-Serif" font-size="10.00" fill="#000000">id_uh</text>
<text text-anchor="middle" x="170.5" y="-226.7001" font-family="Helvetica,sans-Serif" font-size="10.00" fill="#000000">id_cav</text>
<text text-anchor="middle" x="170.5" y="-215.7001" font-family="Helvetica,sans-Serif" font-size="10.00" fill="#000000">id_pfu</text>
<text text-anchor="middle" x="170.5" y="-204.7001" font-family="Helvetica,sans-Serif" font-size="10.00" fill="#000000">id_pfv</text>
</g>
<!-- Node16 -->
<g id="node16" class="node">
<title>Node16</title>
<g id="a_node16"><a xlink:title=" ">
<polygon fill="#ffffff" stroke="#bfbfbf" points="37.5,-48.2001 37.5,-67.2001 69.5,-67.2001 69.5,-48.2001 37.5,-48.2001"/>
<text text-anchor="middle" x="53.5" y="-55.2001" font-family="Helvetica,sans-Serif" font-size="10.00" fill="#000000">real</text>
</a>
</g>
</g>
<!-- Node16&#45;&gt;Node1 -->
<g id="edge15" class="edge">
<title>Node16&#45;&gt;Node1</title>
<path fill="none" stroke="#9a32cd" stroke-dasharray="5,2" d="M79.111,-48.4492C114.2628,-37.5613 177.4743,-24.7171 216,-56.7001 277.537,-107.7865 290.4954,-373.852 292.9636,-450.1996"/>
<polygon fill="#9a32cd" stroke="#9a32cd" points="77.9874,-45.1342 69.5723,-51.5713 80.1649,-51.7869 77.9874,-45.1342"/>
<text text-anchor="middle" x="170.5" y="-169.7001" font-family="Helvetica,sans-Serif" font-size="10.00" fill="#000000"> cau</text>
<text text-anchor="middle" x="170.5" y="-158.7001" font-family="Helvetica,sans-Serif" font-size="10.00" fill="#000000">cav</text>
<text text-anchor="middle" x="170.5" y="-147.7001" font-family="Helvetica,sans-Serif" font-size="10.00" fill="#000000">begw</text>
<text text-anchor="middle" x="170.5" y="-136.7001" font-family="Helvetica,sans-Serif" font-size="10.00" fill="#000000">be</text>
<text text-anchor="middle" x="170.5" y="-125.7001" font-family="Helvetica,sans-Serif" font-size="10.00" fill="#000000">pfu</text>
<text text-anchor="middle" x="170.5" y="-114.7001" font-family="Helvetica,sans-Serif" font-size="10.00" fill="#000000">pfv</text>
<text text-anchor="middle" x="170.5" y="-103.7001" font-family="Helvetica,sans-Serif" font-size="10.00" fill="#000000">diffu</text>
<text text-anchor="middle" x="170.5" y="-92.7001" font-family="Helvetica,sans-Serif" font-size="10.00" fill="#000000">diffv</text>
<text text-anchor="middle" x="170.5" y="-81.7001" font-family="Helvetica,sans-Serif" font-size="10.00" fill="#000000">taux_bot</text>
<text text-anchor="middle" x="170.5" y="-70.7001" font-family="Helvetica,sans-Serif" font-size="10.00" fill="#000000">tauy_bot</text>
<text text-anchor="middle" x="170.5" y="-59.7001" font-family="Helvetica,sans-Serif" font-size="10.00" fill="#000000">...</text>
</g>
<!-- Node17 -->
<g id="node17" class="node">
<title>Node17</title>
<g id="a_node17"><a xlink:title=" ">
<polygon fill="#ffffff" stroke="#bfbfbf" points="11,-10.2001 11,-29.2001 96,-29.2001 96,-10.2001 11,-10.2001"/>
<text text-anchor="middle" x="53.5" y="-17.2001" font-family="Helvetica,sans-Serif" font-size="10.00" fill="#000000">accel_diag_ptrs</text>
</a>
</g>
</g>
<!-- Node17&#45;&gt;Node1 -->
<g id="edge16" class="edge">
<title>Node17&#45;&gt;Node1</title>
<path fill="none" stroke="#9a32cd" stroke-dasharray="5,2" d="M92.0202,-7.5841C128.3521,1.232 182.15,7.1656 216,-21.7001 282.2849,-78.2249 291.879,-369.8393 293.266,-450.1839"/>
<polygon fill="#9a32cd" stroke="#9a32cd" points="91.0641,-4.2162 82.267,-10.1206 92.826,-10.9909 91.0641,-4.2162"/>
<text text-anchor="middle" x="170.5" y="-24.7001" font-family="Helvetica,sans-Serif" font-size="10.00" fill="#000000"> adp</text>
</g>
</g>
</svg>
        <g id="navigator" transform="translate(0 0)" fill="#404254">
                <rect fill="#f2f5e9" fill-opacity="0.5" stroke="#606060" stroke-width=".5" x="0" y="0" width="60" height="60"/>
                <use id="zoomplus" xlink:href="#zoomPlus" x="17" y="9" onmousedown="handleZoom(evt,'in')"/>
                <use id="zoomminus" xlink:href="#zoomMin" x="42" y="9" onmousedown="handleZoom(evt,'out')"/>
                <use id="reset" xlink:href="#resetDef" x="30" y="36" onmousedown="handleReset()"/>
                <g id="arrowUp" xlink:href="#dirArrow" transform="translate(30 24)" onmousedown="handlePan(0,-1)">
                  <use xlink:href="#rim" fill="#404040">
                        <set attributeName="fill" to="#808080" begin="arrowUp.mouseover" end="arrowUp.mouseout"/>
                  </use>
                  <path fill="none" stroke="white" stroke-width="1.5" d="M0,-3.0v7 M-2.5,-0.5L0,-3.0L2.5,-0.5"/>
                </g>
                <g id="arrowRight" xlink:href="#dirArrow" transform="rotate(90) translate(36 -43)" onmousedown="handlePan(1,0)">
                  <use xlink:href="#rim" fill="#404040">
                        <set attributeName="fill" to="#808080" begin="arrowRight.mouseover" end="arrowRight.mouseout"/>
                  </use>
                  <path fill="none" stroke="white" stroke-width="1.5" d="M0,-3.0v7 M-2.5,-0.5L0,-3.0L2.5,-0.5"/>
                </g>
                <g id="arrowDown" xlink:href="#dirArrow" transform="rotate(180) translate(-30 -48)" onmousedown="handlePan(0,1)">
                  <use xlink:href="#rim" fill="#404040">
                        <set attributeName="fill" to="#808080" begin="arrowDown.mouseover" end="arrowDown.mouseout"/>
                  </use>
                  <path fill="none" stroke="white" stroke-width="1.5" d="M0,-3.0v7 M-2.5,-0.5L0,-3.0L2.5,-0.5"/>
                </g>
                <g id="arrowLeft" xlink:href="#dirArrow" transform="rotate(270) translate(-36 17)" onmousedown="handlePan(-1,0)">
                  <use xlink:href="#rim" fill="#404040">
                        <set attributeName="fill" to="#808080" begin="arrowLeft.mouseover" end="arrowLeft.mouseout"/>
                  </use>
                  <path fill="none" stroke="white" stroke-width="1.5" d="M0,-3.0v7 M-2.5,-0.5L0,-3.0L2.5,-0.5"/>
                </g>
        </g>
        <svg viewBox="0 0 15 15" width="100%" height="30px" preserveAspectRatio="xMaxYMin meet">
         <g id="arrow_out" transform="scale(0.3 0.3)">
          <a xlink:href="structmom__dynamics__unsplit__rk2_1_1mom__dyn__unsplit__rk2__cs__coll__graph_org.svg" target="_base">
           <rect id="button" ry="5" rx="5" y="6" x="6" height="38" width="38"
                fill="#f2f5e9" fill-opacity="0.5" stroke="#606060" stroke-width="1.0"/>
           <path id="arrow"
             d="M 11.500037,31.436501 C 11.940474,20.09759 22.043105,11.32322 32.158766,21.979434 L 37.068811,17.246167 C 37.068811,17.246167 37.088388,32 37.088388,32 L 22.160133,31.978069 C 22.160133,31.978069 26.997745,27.140456 26.997745,27.140456 C 18.528582,18.264221 13.291696,25.230495 11.500037,31.436501 z"
             style="fill:#404040;"/>
          </a>
         </g>
        </svg>
</svg>
