<?xml version="1.0" encoding="UTF-8" standalone="no"?>
<!DOCTYPE svg PUBLIC "-//W3C//DTD SVG 1.1//EN"
 "http://www.w3.org/Graphics/SVG/1.1/DTD/svg11.dtd">
<!-- Generated by graphviz version 2.40.1 (20161225.0304)
 -->
<!-- Title: mom_ice_shelf_dynamics::ice_shelf_dyn_cs Pages: 1 -->
<svg width="421pt" height="227pt"
 viewBox="0.00 0.00 421.00 227.00" xmlns="http://www.w3.org/2000/svg" xmlns:xlink="http://www.w3.org/1999/xlink">
<g id="graph0" class="graph" transform="scale(1 1) rotate(0) translate(4 223)">
<title>mom_ice_shelf_dynamics::ice_shelf_dyn_cs</title>
<polygon fill="#ffffff" stroke="transparent" points="-4,4 -4,-223 417,-223 417,4 -4,4"/>
<!-- Node1 -->
<g id="node1" class="node">
<title>Node1</title>
<g id="a_node1"><a xlink:title="The control structure for the ice shelf dynamics.">
<polygon fill="#bfbfbf" stroke="#000000" points="112,-.5 112,-30.5 242,-30.5 242,-.5 112,-.5"/>
<text text-anchor="start" x="120" y="-18.5" font-family="Helvetica,sans-Serif" font-size="10.00" fill="#000000">mom_ice_shelf_dynamics</text>
<text text-anchor="middle" x="177" y="-7.5" font-family="Helvetica,sans-Serif" font-size="10.00" fill="#000000">::ice_shelf_dyn_cs</text>
</a>
</g>
</g>
<!-- Node2 -->
<g id="node2" class="node">
<title>Node2</title>
<g id="a_node2"><a xlink:title=" ">
<polygon fill="#ffffff" stroke="#bfbfbf" points="0,-199.5 0,-218.5 44,-218.5 44,-199.5 0,-199.5"/>
<text text-anchor="middle" x="22" y="-206.5" font-family="Helvetica,sans-Serif" font-size="10.00" fill="#000000">logical</text>
</a>
</g>
</g>
<!-- Node2&#45;&gt;Node1 -->
<g id="edge1" class="edge">
<title>Node2&#45;&gt;Node1</title>
<path fill="none" stroke="#9a32cd" stroke-dasharray="5,2" d="M17.0086,-189.4199C9.8219,-156.2329 .885,-88.6827 35,-49 45.3616,-36.9474 79.6908,-28.6609 111.9979,-23.3446"/>
<polygon fill="#9a32cd" stroke="#9a32cd" points="13.6266,-190.3285 19.314,-199.2674 20.4423,-188.7328 13.6266,-190.3285"/>
<text text-anchor="middle" x="87" y="-145.5" font-family="Helvetica,sans-Serif" font-size="10.00" fill="#000000"> use_reproducing_sums</text>
<text text-anchor="middle" x="87" y="-134.5" font-family="Helvetica,sans-Serif" font-size="10.00" fill="#000000">moving_shelf_front</text>
<text text-anchor="middle" x="87" y="-123.5" font-family="Helvetica,sans-Serif" font-size="10.00" fill="#000000">calve_to_mask</text>
<text text-anchor="middle" x="87" y="-112.5" font-family="Helvetica,sans-Serif" font-size="10.00" fill="#000000">gl_couple</text>
<text text-anchor="middle" x="87" y="-101.5" font-family="Helvetica,sans-Serif" font-size="10.00" fill="#000000">gl_regularize</text>
<text text-anchor="middle" x="87" y="-90.5" font-family="Helvetica,sans-Serif" font-size="10.00" fill="#000000">debug</text>
<text text-anchor="middle" x="87" y="-79.5" font-family="Helvetica,sans-Serif" font-size="10.00" fill="#000000">module_is_initialized</text>
</g>
<!-- Node3 -->
<g id="node3" class="node">
<title>Node3</title>
<g id="a_node3"><a xlink:title=" ">
<polygon fill="#ffffff" stroke="#bfbfbf" points="116.5,-199.5 116.5,-218.5 169.5,-218.5 169.5,-199.5 116.5,-199.5"/>
<text text-anchor="middle" x="143" y="-206.5" font-family="Helvetica,sans-Serif" font-size="10.00" fill="#000000">diag_ctrl</text>
</a>
</g>
</g>
<!-- Node3&#45;&gt;Node1 -->
<g id="edge2" class="edge">
<title>Node3&#45;&gt;Node1</title>
<path fill="none" stroke="#9a32cd" stroke-dasharray="5,2" d="M143.1257,-189.2172C143.7848,-158.5849 146.948,-98.0884 161,-49 162.7738,-42.8036 165.6032,-36.3364 168.3929,-30.7556"/>
<polygon fill="#9a32cd" stroke="#9a32cd" points="139.6233,-189.3594 142.9781,-199.409 146.6226,-189.4608 139.6233,-189.3594"/>
<text text-anchor="middle" x="172" y="-112.5" font-family="Helvetica,sans-Serif" font-size="10.00" fill="#000000"> diag</text>
</g>
<!-- Node4 -->
<g id="node4" class="node">
<title>Node4</title>
<g id="a_node4"><a xlink:title=" ">
<polygon fill="#ffffff" stroke="#bfbfbf" points="188,-199.5 188,-218.5 234,-218.5 234,-199.5 188,-199.5"/>
<text text-anchor="middle" x="211" y="-206.5" font-family="Helvetica,sans-Serif" font-size="10.00" fill="#000000">integer</text>
</a>
</g>
</g>
<!-- Node4&#45;&gt;Node1 -->
<g id="edge3" class="edge">
<title>Node4&#45;&gt;Node1</title>
<path fill="none" stroke="#9a32cd" stroke-dasharray="5,2" d="M207.4692,-189.2873C206.974,-186.5052 206.4729,-183.6807 206,-181 195.6546,-122.3549 193.3605,-107.6424 183,-49 181.9309,-42.9489 180.7402,-36.2855 179.7032,-30.5059"/>
<polygon fill="#9a32cd" stroke="#9a32cd" points="204.0737,-190.1833 209.2776,-199.4121 210.9647,-188.9524 204.0737,-190.1833"/>
<text text-anchor="middle" x="246" y="-173" font-family="Helvetica,sans-Serif" font-size="10.00" fill="#000000"> id_od_av</text>
<text text-anchor="middle" x="246" y="-162" font-family="Helvetica,sans-Serif" font-size="10.00" fill="#000000">cg_max_iterations</text>
<text text-anchor="middle" x="246" y="-151" font-family="Helvetica,sans-Serif" font-size="10.00" fill="#000000">id_t_shelf</text>
<text text-anchor="middle" x="246" y="-140" font-family="Helvetica,sans-Serif" font-size="10.00" fill="#000000">id_col_thick</text>
<text text-anchor="middle" x="246" y="-129" font-family="Helvetica,sans-Serif" font-size="10.00" fill="#000000">id_u_shelf</text>
<text text-anchor="middle" x="246" y="-118" font-family="Helvetica,sans-Serif" font-size="10.00" fill="#000000">id_v_shelf</text>
<text text-anchor="start" x="206" y="-107" font-family="Helvetica,sans-Serif" font-size="10.00" fill="#000000">nonlin_solve_err</text>
<text text-anchor="middle" x="246" y="-96" font-family="Helvetica,sans-Serif" font-size="10.00" fill="#000000">_mode</text>
<text text-anchor="middle" x="246" y="-85" font-family="Helvetica,sans-Serif" font-size="10.00" fill="#000000">od_rt_counter</text>
<text text-anchor="middle" x="246" y="-74" font-family="Helvetica,sans-Serif" font-size="10.00" fill="#000000">id_v_mask</text>
<text text-anchor="middle" x="246" y="-63" font-family="Helvetica,sans-Serif" font-size="10.00" fill="#000000">n_sub_regularize</text>
<text text-anchor="middle" x="246" y="-52" font-family="Helvetica,sans-Serif" font-size="10.00" fill="#000000">...</text>
</g>
<!-- Node5 -->
<g id="node5" class="node">
<title>Node5</title>
<g id="a_node5"><a xlink:title=" ">
<polygon fill="#ffffff" stroke="#bfbfbf" points="292,-199.5 292,-218.5 324,-218.5 324,-199.5 292,-199.5"/>
<text text-anchor="middle" x="308" y="-206.5" font-family="Helvetica,sans-Serif" font-size="10.00" fill="#000000">real</text>
</a>
</g>
</g>
<!-- Node5&#45;&gt;Node1 -->
<g id="edge4" class="edge">
<title>Node5&#45;&gt;Node1</title>
<path fill="none" stroke="#9a32cd" stroke-dasharray="5,2" d="M311.4721,-189.0783C316.0492,-155.8763 319.956,-88.9371 286,-49 279.6202,-41.4965 261.7335,-34.765 242.2486,-29.3391"/>
<polygon fill="#9a32cd" stroke="#9a32cd" points="307.9584,-188.8977 309.8861,-199.3156 314.8759,-189.9694 307.9584,-188.8977"/>
<text text-anchor="middle" x="363.5" y="-167.5" font-family="Helvetica,sans-Serif" font-size="10.00" fill="#000000"> v_face_mask</text>
<text text-anchor="middle" x="363.5" y="-156.5" font-family="Helvetica,sans-Serif" font-size="10.00" fill="#000000">u_face_mask_bdry</text>
<text text-anchor="middle" x="363.5" y="-145.5" font-family="Helvetica,sans-Serif" font-size="10.00" fill="#000000">a_glen_isothermal</text>
<text text-anchor="middle" x="363.5" y="-134.5" font-family="Helvetica,sans-Serif" font-size="10.00" fill="#000000">thresh_float_col_depth</text>
<text text-anchor="middle" x="363.5" y="-123.5" font-family="Helvetica,sans-Serif" font-size="10.00" fill="#000000">taub_beta_eff</text>
<text text-anchor="middle" x="363.5" y="-112.5" font-family="Helvetica,sans-Serif" font-size="10.00" fill="#000000">u_bdry_val</text>
<text text-anchor="middle" x="363.5" y="-101.5" font-family="Helvetica,sans-Serif" font-size="10.00" fill="#000000">u_face_mask</text>
<text text-anchor="middle" x="363.5" y="-90.5" font-family="Helvetica,sans-Serif" font-size="10.00" fill="#000000">n_basal_friction</text>
<text text-anchor="middle" x="363.5" y="-79.5" font-family="Helvetica,sans-Serif" font-size="10.00" fill="#000000">od_rt</text>
<text text-anchor="middle" x="363.5" y="-68.5" font-family="Helvetica,sans-Serif" font-size="10.00" fill="#000000">t_bdry_val</text>
<text text-anchor="middle" x="363.5" y="-57.5" font-family="Helvetica,sans-Serif" font-size="10.00" fill="#000000">...</text>
</g>
</g>
</svg>
