<?xml version="1.0" encoding="UTF-8" standalone="no"?>
<!DOCTYPE svg PUBLIC "-//W3C//DTD SVG 1.1//EN"
 "http://www.w3.org/Graphics/SVG/1.1/DTD/svg11.dtd">
<!-- Generated by graphviz version 2.40.1 (20161225.0304)
 -->
<!-- Title: dyed_obc_tracer::dyed_obc_tracer_cs Pages: 1 -->
<svg width="367pt" height="349pt"
 viewBox="0.00 0.00 367.00 349.00" xmlns="http://www.w3.org/2000/svg" xmlns:xlink="http://www.w3.org/1999/xlink">
<g id="graph0" class="graph" transform="scale(1 1) rotate(0) translate(4 345)">
<title>dyed_obc_tracer::dyed_obc_tracer_cs</title>
<polygon fill="#ffffff" stroke="transparent" points="-4,4 -4,-345 363,-345 363,4 -4,4"/>
<!-- Node1 -->
<g id="node1" class="node">
<title>Node1</title>
<g id="a_node1"><a xlink:title="The control structure for the dyed_obc tracer package.">
<polygon fill="#bfbfbf" stroke="#000000" points="235,-164 235,-194 359,-194 359,-164 235,-164"/>
<text text-anchor="start" x="243" y="-182" font-family="Helvetica,sans-Serif" font-size="10.00" fill="#000000">dyed_obc_tracer::dyed</text>
<text text-anchor="middle" x="297" y="-171" font-family="Helvetica,sans-Serif" font-size="10.00" fill="#000000">_obc_tracer_cs</text>
</a>
</g>
</g>
<!-- Node2 -->
<g id="node2" class="node">
<title>Node2</title>
<g id="a_node2"><a xlink:title=" ">
<polygon fill="#ffffff" stroke="#bfbfbf" points="36.5,-321.5 36.5,-340.5 83.5,-340.5 83.5,-321.5 36.5,-321.5"/>
<text text-anchor="middle" x="60" y="-328.5" font-family="Helvetica,sans-Serif" font-size="10.00" fill="#000000">logical</text>
</a>
</g>
</g>
<!-- Node2&#45;&gt;Node1 -->
<g id="edge1" class="edge">
<title>Node2&#45;&gt;Node1</title>
<path fill="none" stroke="#9a32cd" stroke-dasharray="5,2" d="M93.9715,-330.7858C127.8324,-329.0303 179.9865,-322.0052 217,-297 255.5568,-270.9523 280.6278,-219.524 291.2264,-194.0405"/>
<polygon fill="#9a32cd" stroke="#9a32cd" points="93.5193,-327.3006 83.6629,-331.1867 93.7914,-334.2953 93.5193,-327.3006"/>
<text text-anchor="middle" x="177.5" y="-328" font-family="Helvetica,sans-Serif" font-size="10.00" fill="#000000"> coupled_tracers</text>
</g>
<!-- Node3 -->
<g id="node3" class="node">
<title>Node3</title>
<g id="a_node3"><a xlink:title=" ">
<polygon fill="#ffffff" stroke="#bfbfbf" points="29,-283.5 29,-302.5 91,-302.5 91,-283.5 29,-283.5"/>
<text text-anchor="middle" x="60" y="-290.5" font-family="Helvetica,sans-Serif" font-size="10.00" fill="#000000">time_type</text>
</a>
</g>
</g>
<!-- Node3&#45;&gt;Node1 -->
<g id="edge2" class="edge">
<title>Node3&#45;&gt;Node1</title>
<path fill="none" stroke="#9a32cd" stroke-dasharray="5,2" d="M101.4348,-289.3075C134.3985,-284.9816 180.8315,-275.7058 217,-256 245.6078,-240.4135 271.3089,-211.849 285.4735,-194.2342"/>
<polygon fill="#9a32cd" stroke="#9a32cd" points="100.7412,-285.8659 91.2356,-290.5451 101.5844,-292.815 100.7412,-285.8659"/>
<text text-anchor="middle" x="177.5" y="-285" font-family="Helvetica,sans-Serif" font-size="10.00" fill="#000000"> time</text>
</g>
<!-- Node4 -->
<g id="node4" class="node">
<title>Node4</title>
<g id="a_node4"><a xlink:title=" ">
<polygon fill="#ffffff" stroke="#bfbfbf" points="4,-245.5 4,-264.5 116,-264.5 116,-245.5 4,-245.5"/>
<text text-anchor="middle" x="60" y="-252.5" font-family="Helvetica,sans-Serif" font-size="10.00" fill="#000000">tracer_registry_type</text>
</a>
</g>
</g>
<!-- Node4&#45;&gt;Node1 -->
<g id="edge3" class="edge">
<title>Node4&#45;&gt;Node1</title>
<path fill="none" stroke="#9a32cd" stroke-dasharray="5,2" d="M126.0458,-244.1532C154.5023,-238.4932 187.8646,-230.5189 217,-220 236.0831,-213.1104 256.4148,-202.6452 271.8059,-194.0126"/>
<polygon fill="#9a32cd" stroke="#9a32cd" points="125.3525,-240.7223 116.2,-246.0591 126.6829,-247.5948 125.3525,-240.7223"/>
<text text-anchor="middle" x="177.5" y="-244" font-family="Helvetica,sans-Serif" font-size="10.00" fill="#000000"> tr_reg</text>
</g>
<!-- Node5 -->
<g id="node5" class="node">
<title>Node5</title>
<g id="a_node5"><a xlink:title=" ">
<polygon fill="#ffffff" stroke="#bfbfbf" points="6,-207.5 6,-226.5 114,-226.5 114,-207.5 6,-207.5"/>
<text text-anchor="middle" x="60" y="-214.5" font-family="Helvetica,sans-Serif" font-size="10.00" fill="#000000">character(len=200)</text>
</a>
</g>
</g>
<!-- Node5&#45;&gt;Node1 -->
<g id="edge4" class="edge">
<title>Node5&#45;&gt;Node1</title>
<path fill="none" stroke="#9a32cd" stroke-dasharray="5,2" d="M124.4277,-208.1525C152.8496,-204.0971 186.629,-199.0698 217,-194 222.7146,-193.0461 228.6508,-192.0129 234.5909,-190.9504"/>
<polygon fill="#9a32cd" stroke="#9a32cd" points="123.6246,-204.7313 114.2152,-209.6009 124.6076,-211.6619 123.6246,-204.7313"/>
<text text-anchor="middle" x="177.5" y="-208" font-family="Helvetica,sans-Serif" font-size="10.00" fill="#000000"> tracer_ic_file</text>
</g>
<!-- Node6 -->
<g id="node6" class="node">
<title>Node6</title>
<g id="a_node6"><a xlink:title=" ">
<polygon fill="#ffffff" stroke="#bfbfbf" points="33,-169.5 33,-188.5 87,-188.5 87,-169.5 33,-169.5"/>
<text text-anchor="middle" x="60" y="-176.5" font-family="Helvetica,sans-Serif" font-size="10.00" fill="#000000">vardesc</text>
</a>
</g>
</g>
<!-- Node6&#45;&gt;Node1 -->
<g id="edge5" class="edge">
<title>Node6&#45;&gt;Node1</title>
<path fill="none" stroke="#9a32cd" stroke-dasharray="5,2" d="M97.4709,-179C134.282,-179 191.113,-179 234.7214,-179"/>
<polygon fill="#9a32cd" stroke="#9a32cd" points="97.1869,-175.5001 87.1869,-179 97.1869,-182.5001 97.1869,-175.5001"/>
<text text-anchor="middle" x="177.5" y="-182" font-family="Helvetica,sans-Serif" font-size="10.00" fill="#000000"> tr_desc</text>
</g>
<!-- Node7 -->
<g id="node7" class="node">
<title>Node7</title>
<g id="a_node7"><a xlink:title=" ">
<polygon fill="#ffffff" stroke="#bfbfbf" points="0,-120 0,-150 120,-150 120,-120 0,-120"/>
<text text-anchor="start" x="8" y="-138" font-family="Helvetica,sans-Serif" font-size="10.00" fill="#000000">type(mom_restart_cs)</text>
<text text-anchor="middle" x="60" y="-127" font-family="Helvetica,sans-Serif" font-size="10.00" fill="#000000">, pointer</text>
</a>
</g>
</g>
<!-- Node7&#45;&gt;Node1 -->
<g id="edge6" class="edge">
<title>Node7&#45;&gt;Node1</title>
<path fill="none" stroke="#9a32cd" stroke-dasharray="5,2" d="M130.1984,-147.9249C157.3212,-152.9296 188.6082,-158.7161 217,-164 222.8348,-165.0859 228.9084,-166.2192 234.9853,-167.3552"/>
<polygon fill="#9a32cd" stroke="#9a32cd" points="130.4909,-144.4198 120.0219,-146.0477 129.2211,-151.3037 130.4909,-144.4198"/>
<text text-anchor="middle" x="177.5" y="-167" font-family="Helvetica,sans-Serif" font-size="10.00" fill="#000000"> restart_csp</text>
</g>
<!-- Node8 -->
<g id="node8" class="node">
<title>Node8</title>
<g id="a_node8"><a xlink:title=" ">
<polygon fill="#ffffff" stroke="#bfbfbf" points="31.5,-81.5 31.5,-100.5 88.5,-100.5 88.5,-81.5 31.5,-81.5"/>
<text text-anchor="middle" x="60" y="-88.5" font-family="Helvetica,sans-Serif" font-size="10.00" fill="#000000">diag_ctrl</text>
</a>
</g>
</g>
<!-- Node8&#45;&gt;Node1 -->
<g id="edge7" class="edge">
<title>Node8&#45;&gt;Node1</title>
<path fill="none" stroke="#9a32cd" stroke-dasharray="5,2" d="M98.7225,-98.8202C131.0436,-106.0011 177.9628,-117.96 217,-134 236.8985,-142.1761 258.0576,-154.2431 273.6142,-163.8236"/>
<polygon fill="#9a32cd" stroke="#9a32cd" points="99.2853,-95.3609 88.7701,-96.6575 97.7988,-102.2012 99.2853,-95.3609"/>
<text text-anchor="middle" x="177.5" y="-137" font-family="Helvetica,sans-Serif" font-size="10.00" fill="#000000"> diag</text>
</g>
<!-- Node9 -->
<g id="node9" class="node">
<title>Node9</title>
<g id="a_node9"><a xlink:title=" ">
<polygon fill="#ffffff" stroke="#bfbfbf" points="42.5,-43.5 42.5,-62.5 77.5,-62.5 77.5,-43.5 42.5,-43.5"/>
<text text-anchor="middle" x="60" y="-50.5" font-family="Helvetica,sans-Serif" font-size="10.00" fill="#000000">real</text>
</a>
</g>
</g>
<!-- Node9&#45;&gt;Node1 -->
<g id="edge8" class="edge">
<title>Node9&#45;&gt;Node1</title>
<path fill="none" stroke="#9a32cd" stroke-dasharray="5,2" d="M87.9419,-55.5758C120.8114,-59.6293 176.0799,-69.7172 217,-94 247.3238,-111.9947 273.3842,-144.7957 286.9679,-163.9626"/>
<polygon fill="#9a32cd" stroke="#9a32cd" points="88.0361,-52.0643 77.7066,-54.4207 87.251,-59.0201 88.0361,-52.0643"/>
<text text-anchor="middle" x="177.5" y="-97" font-family="Helvetica,sans-Serif" font-size="10.00" fill="#000000"> tr</text>
</g>
<!-- Node10 -->
<g id="node10" class="node">
<title>Node10</title>
<g id="a_node10"><a xlink:title=" ">
<polygon fill="#ffffff" stroke="#bfbfbf" points="35,-.5 35,-19.5 85,-19.5 85,-.5 35,-.5"/>
<text text-anchor="middle" x="60" y="-7.5" font-family="Helvetica,sans-Serif" font-size="10.00" fill="#000000">integer</text>
</a>
</g>
</g>
<!-- Node10&#45;&gt;Node1 -->
<g id="edge9" class="edge">
<title>Node10&#45;&gt;Node1</title>
<path fill="none" stroke="#9a32cd" stroke-dasharray="5,2" d="M95.4721,-8.0633C129.6159,-7.9724 181.2033,-12.6815 217,-38 261.5777,-69.5292 284.5347,-134.2454 293.0398,-163.743"/>
<polygon fill="#9a32cd" stroke="#9a32cd" points="94.9802,-4.571 85.0415,-8.2414 95.0998,-11.57 94.9802,-4.571"/>
<text text-anchor="middle" x="177.5" y="-52" font-family="Helvetica,sans-Serif" font-size="10.00" fill="#000000"> ntr</text>
<text text-anchor="middle" x="177.5" y="-41" font-family="Helvetica,sans-Serif" font-size="10.00" fill="#000000">ind_tr</text>
</g>
</g>
</svg>
