<?xml version="1.0" encoding="UTF-8" standalone="no"?>
<!DOCTYPE svg PUBLIC "-//W3C//DTD SVG 1.1//EN"
 "http://www.w3.org/Graphics/SVG/1.1/DTD/svg11.dtd">
<!-- Generated by graphviz version 2.40.1 (20161225.0304)
 -->
<!-- Title: mom_sponge::sponge_cs Pages: 1 -->
<svg width="502pt" height="318pt"
 viewBox="0.00 0.00 502.07 318.00" xmlns="http://www.w3.org/2000/svg" xmlns:xlink="http://www.w3.org/1999/xlink">
<g id="graph0" class="graph" transform="scale(1 1) rotate(0) translate(4 314)">
<title>mom_sponge::sponge_cs</title>
<polygon fill="#ffffff" stroke="transparent" points="-4,4 -4,-314 498.07,-314 498.07,4 -4,4"/>
<!-- Node1 -->
<g id="node1" class="node">
<title>Node1</title>
<g id="a_node1"><a xlink:title="This control structure holds memory and parameters for the MOM_sponge module.">
<polygon fill="#bfbfbf" stroke="#000000" points="209.07,-.5 209.07,-19.5 337.07,-19.5 337.07,-.5 209.07,-.5"/>
<text text-anchor="middle" x="273.07" y="-7.5" font-family="Helvetica,sans-Serif" font-size="10.00" fill="#000000">mom_sponge::sponge_cs</text>
</a>
</g>
</g>
<!-- Node2 -->
<g id="node2" class="node">
<title>Node2</title>
<g id="a_node2"><a xlink:href="structmom__sponge_1_1p2d.html" target="_top" xlink:title="A structure for creating arrays of pointers to 2D arrays.">
<polygon fill="#ffffff" stroke="#000000" points="81.57,-200.5 81.57,-219.5 178.57,-219.5 178.57,-200.5 81.57,-200.5"/>
<text text-anchor="middle" x="130.07" y="-207.5" font-family="Helvetica,sans-Serif" font-size="10.00" fill="#000000">mom_sponge::p2d</text>
</a>
</g>
</g>
<!-- Node2&#45;&gt;Node1 -->
<g id="edge1" class="edge">
<title>Node2&#45;&gt;Node1</title>
<path fill="none" stroke="#9a32cd" stroke-dasharray="5,2" d="M131.0155,-190.2239C133.7775,-154.7888 144.6072,-80.2406 187.07,-38 193.8049,-31.3004 213.386,-24.6787 232.1649,-19.5579"/>
<polygon fill="#9a32cd" stroke="#9a32cd" points="127.5189,-190.0605 130.3724,-200.2639 134.5046,-190.5081 127.5189,-190.0605"/>
<text text-anchor="middle" x="211.57" y="-101.5" font-family="Helvetica,sans-Serif" font-size="10.00" fill="#000000"> ref_val_im</text>
<text text-anchor="middle" x="211.57" y="-90.5" font-family="Helvetica,sans-Serif" font-size="10.00" fill="#000000">ref_val</text>
</g>
<!-- Node3 -->
<g id="node3" class="node">
<title>Node3</title>
<g id="a_node3"><a xlink:title=" ">
<polygon fill="#ffffff" stroke="#bfbfbf" points="114.07,-290.5 114.07,-309.5 146.07,-309.5 146.07,-290.5 114.07,-290.5"/>
<text text-anchor="middle" x="130.07" y="-297.5" font-family="Helvetica,sans-Serif" font-size="10.00" fill="#000000">real</text>
</a>
</g>
</g>
<!-- Node3&#45;&gt;Node1 -->
<g id="edge5" class="edge">
<title>Node3&#45;&gt;Node1</title>
<path fill="none" stroke="#9a32cd" stroke-dasharray="5,2" d="M103.4935,-295.7983C74.8117,-289.6907 30.5037,-275.3277 10.07,-243 -5.6027,-218.2046 -.2123,-204.4722 10.07,-177 38.7805,-100.2912 60.1787,-79.024 131.07,-38 144.4453,-30.2599 177.7485,-23.4937 208.7424,-18.5524"/>
<polygon fill="#9a32cd" stroke="#9a32cd" points="103.1568,-299.2978 113.6387,-297.7552 104.4826,-292.4245 103.1568,-299.2978"/>
<text text-anchor="middle" x="41.07" y="-235" font-family="Helvetica,sans-Serif" font-size="10.00" fill="#000000"> iresttime_col</text>
<text text-anchor="middle" x="41.07" y="-224" font-family="Helvetica,sans-Serif" font-size="10.00" fill="#000000">ref_eta</text>
<text text-anchor="middle" x="41.07" y="-213" font-family="Helvetica,sans-Serif" font-size="10.00" fill="#000000">iresttime_im</text>
<text text-anchor="middle" x="41.07" y="-202" font-family="Helvetica,sans-Serif" font-size="10.00" fill="#000000">rcv_ml_ref_im</text>
<text text-anchor="middle" x="41.07" y="-191" font-family="Helvetica,sans-Serif" font-size="10.00" fill="#000000">rcv_ml_ref</text>
<text text-anchor="middle" x="41.07" y="-180" font-family="Helvetica,sans-Serif" font-size="10.00" fill="#000000">ref_eta_im</text>
</g>
<!-- Node3&#45;&gt;Node2 -->
<g id="edge2" class="edge">
<title>Node3&#45;&gt;Node2</title>
<path fill="none" stroke="#9a32cd" stroke-dasharray="5,2" d="M130.07,-280.22C130.07,-261.4155 130.07,-233.9332 130.07,-219.5623"/>
<polygon fill="#9a32cd" stroke="#9a32cd" points="126.5701,-280.3684 130.07,-290.3684 133.5701,-280.3685 126.5701,-280.3684"/>
<text text-anchor="middle" x="134.57" y="-264" font-family="Helvetica,sans-Serif" font-size="10.00" fill="#000000"> p</text>
</g>
<!-- Node7 -->
<g id="node7" class="node">
<title>Node7</title>
<g id="a_node7"><a xlink:href="structmom__sponge_1_1p3d.html" target="_top" xlink:title="A structure for creating arrays of pointers to 3D arrays.">
<polygon fill="#ffffff" stroke="#000000" points="196.57,-200.5 196.57,-219.5 293.57,-219.5 293.57,-200.5 196.57,-200.5"/>
<text text-anchor="middle" x="245.07" y="-207.5" font-family="Helvetica,sans-Serif" font-size="10.00" fill="#000000">mom_sponge::p3d</text>
</a>
</g>
</g>
<!-- Node3&#45;&gt;Node7 -->
<g id="edge8" class="edge">
<title>Node3&#45;&gt;Node7</title>
<path fill="none" stroke="#9a32cd" stroke-dasharray="5,2" d="M150.4428,-284.0561C174.3434,-265.3512 213.1956,-234.9452 232.8515,-219.5623"/>
<polygon fill="#9a32cd" stroke="#9a32cd" points="148.095,-281.449 142.377,-290.3684 152.4092,-286.9616 148.095,-281.449"/>
<text text-anchor="middle" x="181.57" y="-264" font-family="Helvetica,sans-Serif" font-size="10.00" fill="#000000"> p</text>
</g>
<!-- Node4 -->
<g id="node4" class="node">
<title>Node4</title>
<g id="a_node4"><a xlink:title=" ">
<polygon fill="#ffffff" stroke="#bfbfbf" points="312.07,-200.5 312.07,-219.5 356.07,-219.5 356.07,-200.5 312.07,-200.5"/>
<text text-anchor="middle" x="334.07" y="-207.5" font-family="Helvetica,sans-Serif" font-size="10.00" fill="#000000">logical</text>
</a>
</g>
</g>
<!-- Node4&#45;&gt;Node1 -->
<g id="edge3" class="edge">
<title>Node4&#45;&gt;Node1</title>
<path fill="none" stroke="#9a32cd" stroke-dasharray="5,2" d="M317.127,-193.1367C308.8161,-183.8461 299.4573,-171.6518 294.07,-159 273.089,-109.7274 272.2441,-43.8216 272.7402,-19.5178"/>
<polygon fill="#9a32cd" stroke="#9a32cd" points="314.6377,-195.5987 324.0348,-200.4922 319.7404,-190.8067 314.6377,-195.5987"/>
<text text-anchor="middle" x="336.57" y="-101.5" font-family="Helvetica,sans-Serif" font-size="10.00" fill="#000000"> bulkmixedlayer</text>
<text text-anchor="middle" x="336.57" y="-90.5" font-family="Helvetica,sans-Serif" font-size="10.00" fill="#000000">do_i_mean_sponge</text>
</g>
<!-- Node5 -->
<g id="node5" class="node">
<title>Node5</title>
<g id="a_node5"><a xlink:title=" ">
<polygon fill="#ffffff" stroke="#bfbfbf" points="374.57,-200.5 374.57,-219.5 427.57,-219.5 427.57,-200.5 374.57,-200.5"/>
<text text-anchor="middle" x="401.07" y="-207.5" font-family="Helvetica,sans-Serif" font-size="10.00" fill="#000000">diag_ctrl</text>
</a>
</g>
</g>
<!-- Node5&#45;&gt;Node1 -->
<g id="edge4" class="edge">
<title>Node5&#45;&gt;Node1</title>
<path fill="none" stroke="#9a32cd" stroke-dasharray="5,2" d="M404.9213,-190.3924C410.6073,-155.2272 416.8589,-81.0959 379.07,-38 372.2935,-30.2719 352.369,-24.0809 331.5961,-19.5057"/>
<polygon fill="#9a32cd" stroke="#9a32cd" points="401.4552,-189.8936 403.1517,-200.3517 408.3473,-191.1183 401.4552,-189.8936"/>
<text text-anchor="middle" x="420.07" y="-96" font-family="Helvetica,sans-Serif" font-size="10.00" fill="#000000"> diag</text>
</g>
<!-- Node6 -->
<g id="node6" class="node">
<title>Node6</title>
<g id="a_node6"><a xlink:title=" ">
<polygon fill="#ffffff" stroke="#bfbfbf" points="446.07,-200.5 446.07,-219.5 492.07,-219.5 492.07,-200.5 446.07,-200.5"/>
<text text-anchor="middle" x="469.07" y="-207.5" font-family="Helvetica,sans-Serif" font-size="10.00" fill="#000000">integer</text>
</a>
</g>
</g>
<!-- Node6&#45;&gt;Node1 -->
<g id="edge6" class="edge">
<title>Node6&#45;&gt;Node1</title>
<path fill="none" stroke="#9a32cd" stroke-dasharray="5,2" d="M471.6369,-190.387C475.1167,-154.6045 476.7352,-78.6767 435.07,-38 421.1823,-24.4418 376.3296,-17.3869 337.3317,-13.7519"/>
<polygon fill="#9a32cd" stroke="#9a32cd" points="468.1394,-190.1687 470.4942,-200.4985 475.0951,-190.9548 468.1394,-190.1687"/>
<text text-anchor="middle" x="483.57" y="-151" font-family="Helvetica,sans-Serif" font-size="10.00" fill="#000000"> iec</text>
<text text-anchor="middle" x="483.57" y="-140" font-family="Helvetica,sans-Serif" font-size="10.00" fill="#000000">ied</text>
<text text-anchor="middle" x="483.57" y="-129" font-family="Helvetica,sans-Serif" font-size="10.00" fill="#000000">jec</text>
<text text-anchor="middle" x="483.57" y="-118" font-family="Helvetica,sans-Serif" font-size="10.00" fill="#000000">jed</text>
<text text-anchor="middle" x="483.57" y="-107" font-family="Helvetica,sans-Serif" font-size="10.00" fill="#000000">col_i</text>
<text text-anchor="middle" x="483.57" y="-96" font-family="Helvetica,sans-Serif" font-size="10.00" fill="#000000">isc</text>
<text text-anchor="middle" x="483.57" y="-85" font-family="Helvetica,sans-Serif" font-size="10.00" fill="#000000">col_j</text>
<text text-anchor="middle" x="483.57" y="-74" font-family="Helvetica,sans-Serif" font-size="10.00" fill="#000000">isd</text>
<text text-anchor="middle" x="483.57" y="-63" font-family="Helvetica,sans-Serif" font-size="10.00" fill="#000000">jsc</text>
<text text-anchor="middle" x="483.57" y="-52" font-family="Helvetica,sans-Serif" font-size="10.00" fill="#000000">jsd</text>
<text text-anchor="middle" x="483.57" y="-41" font-family="Helvetica,sans-Serif" font-size="10.00" fill="#000000">...</text>
</g>
<!-- Node7&#45;&gt;Node1 -->
<g id="edge7" class="edge">
<title>Node7&#45;&gt;Node1</title>
<path fill="none" stroke="#9a32cd" stroke-dasharray="5,2" d="M242.7494,-190.3107C239.6311,-157.6736 236.345,-90.7373 254.07,-38 256.3159,-31.3178 260.6311,-24.7478 264.5821,-19.6531"/>
<polygon fill="#9a32cd" stroke="#9a32cd" points="239.2782,-190.7685 243.8107,-200.3449 246.2394,-190.0322 239.2782,-190.7685"/>
<text text-anchor="middle" x="262.57" y="-96" font-family="Helvetica,sans-Serif" font-size="10.00" fill="#000000"> var</text>
</g>
</g>
</svg>
