<?xml version="1.0" encoding="UTF-8" standalone="no"?>
<!DOCTYPE svg PUBLIC "-//W3C//DTD SVG 1.1//EN"
 "http://www.w3.org/Graphics/SVG/1.1/DTD/svg11.dtd">
<!-- Generated by graphviz version 2.40.1 (20161225.0304)
 -->
<!-- Title: dumbbell_surface_forcing::dumbbell_surface_forcing_cs Pages: 1 -->
<svg width="245pt" height="183pt"
 viewBox="0.00 0.00 245.00 183.00" xmlns="http://www.w3.org/2000/svg" xmlns:xlink="http://www.w3.org/1999/xlink">
<g id="graph0" class="graph" transform="scale(1 1) rotate(0) translate(4 179)">
<title>dumbbell_surface_forcing::dumbbell_surface_forcing_cs</title>
<polygon fill="#ffffff" stroke="transparent" points="-4,4 -4,-179 241,-179 241,4 -4,4"/>
<!-- Node1 -->
<g id="node1" class="node">
<title>Node1</title>
<g id="a_node1"><a xlink:title="Control structure for the dumbbell test case forcing.">
<polygon fill="#bfbfbf" stroke="#000000" points="43.5,-.5 43.5,-30.5 192.5,-30.5 192.5,-.5 43.5,-.5"/>
<text text-anchor="start" x="51.5" y="-18.5" font-family="Helvetica,sans-Serif" font-size="10.00" fill="#000000">dumbbell_surface_forcing</text>
<text text-anchor="middle" x="118" y="-7.5" font-family="Helvetica,sans-Serif" font-size="10.00" fill="#000000">::dumbbell_surface_forcing_cs</text>
</a>
</g>
</g>
<!-- Node2 -->
<g id="node2" class="node">
<title>Node2</title>
<g id="a_node2"><a xlink:title=" ">
<polygon fill="#ffffff" stroke="#bfbfbf" points="0,-155.5 0,-174.5 44,-174.5 44,-155.5 0,-155.5"/>
<text text-anchor="middle" x="22" y="-162.5" font-family="Helvetica,sans-Serif" font-size="10.00" fill="#000000">logical</text>
</a>
</g>
</g>
<!-- Node2&#45;&gt;Node1 -->
<g id="edge1" class="edge">
<title>Node2&#45;&gt;Node1</title>
<path fill="none" stroke="#9a32cd" stroke-dasharray="5,2" d="M19.8705,-145.3015C18.2568,-120.259 19.2606,-76.9306 41,-49 47.0889,-41.177 55.376,-35.1463 64.2638,-30.5078"/>
<polygon fill="#9a32cd" stroke="#9a32cd" points="16.3945,-145.7331 20.731,-155.3998 23.3692,-145.1387 16.3945,-145.7331"/>
<text text-anchor="middle" x="77.5" y="-96" font-family="Helvetica,sans-Serif" font-size="10.00" fill="#000000"> restorebuoy</text>
<text text-anchor="middle" x="77.5" y="-85" font-family="Helvetica,sans-Serif" font-size="10.00" fill="#000000">use_temperature</text>
</g>
<!-- Node3 -->
<g id="node3" class="node">
<title>Node3</title>
<g id="a_node3"><a xlink:title=" ">
<polygon fill="#ffffff" stroke="#bfbfbf" points="91.5,-155.5 91.5,-174.5 144.5,-174.5 144.5,-155.5 91.5,-155.5"/>
<text text-anchor="middle" x="118" y="-162.5" font-family="Helvetica,sans-Serif" font-size="10.00" fill="#000000">diag_ctrl</text>
</a>
</g>
</g>
<!-- Node3&#45;&gt;Node1 -->
<g id="edge2" class="edge">
<title>Node3&#45;&gt;Node1</title>
<path fill="none" stroke="#9a32cd" stroke-dasharray="5,2" d="M118,-145.0029C118,-114.7234 118,-57.8989 118,-30.727"/>
<polygon fill="#9a32cd" stroke="#9a32cd" points="114.5001,-145.1909 118,-155.1909 121.5001,-145.1909 114.5001,-145.1909"/>
<text text-anchor="middle" x="129" y="-90.5" font-family="Helvetica,sans-Serif" font-size="10.00" fill="#000000"> diag</text>
</g>
<!-- Node4 -->
<g id="node4" class="node">
<title>Node4</title>
<g id="a_node4"><a xlink:title=" ">
<polygon fill="#ffffff" stroke="#bfbfbf" points="163,-155.5 163,-174.5 195,-174.5 195,-155.5 163,-155.5"/>
<text text-anchor="middle" x="179" y="-162.5" font-family="Helvetica,sans-Serif" font-size="10.00" fill="#000000">real</text>
</a>
</g>
</g>
<!-- Node4&#45;&gt;Node1 -->
<g id="edge3" class="edge">
<title>Node4&#45;&gt;Node1</title>
<path fill="none" stroke="#9a32cd" stroke-dasharray="5,2" d="M175.3634,-145.3086C170.463,-121.5353 160.4095,-80.7891 144,-49 140.6906,-42.5889 136.1048,-36.177 131.7048,-30.7045"/>
<polygon fill="#9a32cd" stroke="#9a32cd" points="171.9488,-146.0844 177.3087,-155.2235 178.8178,-144.7367 171.9488,-146.0844"/>
<text text-anchor="middle" x="205" y="-129" font-family="Helvetica,sans-Serif" font-size="10.00" fill="#000000"> slp_amplitude</text>
<text text-anchor="middle" x="205" y="-118" font-family="Helvetica,sans-Serif" font-size="10.00" fill="#000000">flux_const</text>
<text text-anchor="middle" x="205" y="-107" font-family="Helvetica,sans-Serif" font-size="10.00" fill="#000000">gust_const</text>
<text text-anchor="middle" x="205" y="-96" font-family="Helvetica,sans-Serif" font-size="10.00" fill="#000000">slp_period</text>
<text text-anchor="middle" x="205" y="-85" font-family="Helvetica,sans-Serif" font-size="10.00" fill="#000000">rho0</text>
<text text-anchor="middle" x="205" y="-74" font-family="Helvetica,sans-Serif" font-size="10.00" fill="#000000">forcing_mask</text>
<text text-anchor="middle" x="205" y="-63" font-family="Helvetica,sans-Serif" font-size="10.00" fill="#000000">s_restore</text>
<text text-anchor="middle" x="205" y="-52" font-family="Helvetica,sans-Serif" font-size="10.00" fill="#000000">g_earth</text>
</g>
</g>
</svg>
