<?xml version="1.0" encoding="UTF-8" standalone="no"?>
<!DOCTYPE svg PUBLIC "-//W3C//DTD SVG 1.1//EN"
 "http://www.w3.org/Graphics/SVG/1.1/DTD/svg11.dtd">
<!-- Generated by graphviz version 2.40.1 (20161225.0304)
 -->
<!-- Title: regrid_interp::interp_cs_type Pages: 1 -->
<svg width="239pt" height="117pt"
 viewBox="0.00 0.00 239.00 117.00" xmlns="http://www.w3.org/2000/svg" xmlns:xlink="http://www.w3.org/1999/xlink">
<g id="graph0" class="graph" transform="scale(1 1) rotate(0) translate(4 113)">
<title>regrid_interp::interp_cs_type</title>
<polygon fill="#ffffff" stroke="transparent" points="-4,4 -4,-113 235,-113 235,4 -4,4"/>
<!-- Node1 -->
<g id="node1" class="node">
<title>Node1</title>
<g id="a_node1"><a xlink:title="Control structure for regrid_interp module.">
<polygon fill="#bfbfbf" stroke="#000000" points="34,-.5 34,-30.5 134,-30.5 134,-.5 34,-.5"/>
<text text-anchor="start" x="42" y="-18.5" font-family="Helvetica,sans-Serif" font-size="10.00" fill="#000000">regrid_interp::interp</text>
<text text-anchor="middle" x="84" y="-7.5" font-family="Helvetica,sans-Serif" font-size="10.00" fill="#000000">_cs_type</text>
</a>
</g>
</g>
<!-- Node2 -->
<g id="node2" class="node">
<title>Node2</title>
<g id="a_node2"><a xlink:title=" ">
<polygon fill="#ffffff" stroke="#bfbfbf" points="0,-89.5 0,-108.5 44,-108.5 44,-89.5 0,-89.5"/>
<text text-anchor="middle" x="22" y="-96.5" font-family="Helvetica,sans-Serif" font-size="10.00" fill="#000000">logical</text>
</a>
</g>
</g>
<!-- Node2&#45;&gt;Node1 -->
<g id="edge1" class="edge">
<title>Node2&#45;&gt;Node1</title>
<path fill="none" stroke="#9a32cd" stroke-dasharray="5,2" d="M17.9933,-79.3543C17.0426,-69.5739 17.5777,-57.9585 23,-49 27.6297,-41.3512 34.6798,-35.3252 42.3642,-30.6229"/>
<polygon fill="#9a32cd" stroke="#9a32cd" points="14.5538,-80.017 19.5167,-89.3775 21.4743,-78.9651 14.5538,-80.017"/>
<text text-anchor="middle" x="73.5" y="-63" font-family="Helvetica,sans-Serif" font-size="10.00" fill="#000000"> answers_2018</text>
<text text-anchor="middle" x="73.5" y="-52" font-family="Helvetica,sans-Serif" font-size="10.00" fill="#000000">boundary_extrapolation</text>
</g>
<!-- Node3 -->
<g id="node3" class="node">
<title>Node3</title>
<g id="a_node3"><a xlink:title=" ">
<polygon fill="#ffffff" stroke="#bfbfbf" points="123,-89.5 123,-108.5 169,-108.5 169,-89.5 123,-89.5"/>
<text text-anchor="middle" x="146" y="-96.5" font-family="Helvetica,sans-Serif" font-size="10.00" fill="#000000">integer</text>
</a>
</g>
</g>
<!-- Node3&#45;&gt;Node1 -->
<g id="edge2" class="edge">
<title>Node3&#45;&gt;Node1</title>
<path fill="none" stroke="#9a32cd" stroke-dasharray="5,2" d="M139.929,-79.8258C136.2611,-70.0234 130.9418,-58.2451 124,-49 118.8874,-42.1911 112.1363,-35.8658 105.6393,-30.5869"/>
<polygon fill="#9a32cd" stroke="#9a32cd" points="136.6879,-81.1631 143.2595,-89.4736 143.3047,-78.8789 136.6879,-81.1631"/>
<text text-anchor="middle" x="183" y="-57.5" font-family="Helvetica,sans-Serif" font-size="10.00" fill="#000000"> interpolation_scheme</text>
</g>
</g>
</svg>
