<?xml version="1.0" encoding="UTF-8" standalone="no"?>
<!DOCTYPE svg PUBLIC "-//W3C//DTD SVG 1.1//EN"
 "http://www.w3.org/Graphics/SVG/1.1/DTD/svg11.dtd">
<!-- Generated by graphviz version 2.40.1 (20161225.0304)
 -->
<!-- Title: mom_thickness_diffuse::thickness_diffuse_cs Pages: 1 -->
<svg width="417pt" height="238pt"
 viewBox="0.00 0.00 416.50 238.00" xmlns="http://www.w3.org/2000/svg" xmlns:xlink="http://www.w3.org/1999/xlink">
<g id="graph0" class="graph" transform="scale(1 1) rotate(0) translate(4 234)">
<title>mom_thickness_diffuse::thickness_diffuse_cs</title>
<polygon fill="#ffffff" stroke="transparent" points="-4,4 -4,-234 412.5,-234 412.5,4 -4,4"/>
<!-- Node1 -->
<g id="node1" class="node">
<title>Node1</title>
<g id="a_node1"><a xlink:title="Control structure for thickness diffusion.">
<polygon fill="#bfbfbf" stroke="#000000" points="106.5,-.5 106.5,-30.5 232.5,-30.5 232.5,-.5 106.5,-.5"/>
<text text-anchor="start" x="114.5" y="-18.5" font-family="Helvetica,sans-Serif" font-size="10.00" fill="#000000">mom_thickness_diffuse</text>
<text text-anchor="middle" x="169.5" y="-7.5" font-family="Helvetica,sans-Serif" font-size="10.00" fill="#000000">::thickness_diffuse_cs</text>
</a>
</g>
</g>
<!-- Node2 -->
<g id="node2" class="node">
<title>Node2</title>
<g id="a_node2"><a xlink:title=" ">
<polygon fill="#ffffff" stroke="#bfbfbf" points="0,-210.5 0,-229.5 47,-229.5 47,-210.5 0,-210.5"/>
<text text-anchor="middle" x="23.5" y="-217.5" font-family="Helvetica,sans-Serif" font-size="10.00" fill="#000000">logical</text>
</a>
</g>
</g>
<!-- Node2&#45;&gt;Node1 -->
<g id="edge1" class="edge">
<title>Node2&#45;&gt;Node1</title>
<path fill="none" stroke="#9a32cd" stroke-dasharray="5,2" d="M18.286,-200.6182C10.1989,-165.8366 -.9135,-92.4129 35.5,-49 44.9774,-37.7008 76.2816,-29.526 106.2504,-24.0816"/>
<polygon fill="#9a32cd" stroke="#9a32cd" points="14.926,-201.6099 20.7413,-210.4661 21.7181,-199.9164 14.926,-201.6099"/>
<text text-anchor="middle" x="82.5" y="-162" font-family="Helvetica,sans-Serif" font-size="10.00" fill="#000000"> meke_geometric</text>
<text text-anchor="middle" x="82.5" y="-151" font-family="Helvetica,sans-Serif" font-size="10.00" fill="#000000">thickness_diffuse</text>
<text text-anchor="start" x="35.5" y="-140" font-family="Helvetica,sans-Serif" font-size="10.00" fill="#000000">use_gme_thickness</text>
<text text-anchor="middle" x="82.5" y="-129" font-family="Helvetica,sans-Serif" font-size="10.00" fill="#000000">_diffuse</text>
<text text-anchor="middle" x="82.5" y="-118" font-family="Helvetica,sans-Serif" font-size="10.00" fill="#000000">use_fgnv_streamfn</text>
<text text-anchor="middle" x="82.5" y="-107" font-family="Helvetica,sans-Serif" font-size="10.00" fill="#000000">gm_src_alt</text>
<text text-anchor="middle" x="82.5" y="-96" font-family="Helvetica,sans-Serif" font-size="10.00" fill="#000000">detangle_interfaces</text>
<text text-anchor="middle" x="82.5" y="-85" font-family="Helvetica,sans-Serif" font-size="10.00" fill="#000000">use_kh_in_meke</text>
<text text-anchor="middle" x="82.5" y="-74" font-family="Helvetica,sans-Serif" font-size="10.00" fill="#000000">debug</text>
</g>
<!-- Node3 -->
<g id="node3" class="node">
<title>Node3</title>
<g id="a_node3"><a xlink:title=" ">
<polygon fill="#ffffff" stroke="#bfbfbf" points="105,-210.5 105,-229.5 162,-229.5 162,-210.5 105,-210.5"/>
<text text-anchor="middle" x="133.5" y="-217.5" font-family="Helvetica,sans-Serif" font-size="10.00" fill="#000000">diag_ctrl</text>
</a>
</g>
</g>
<!-- Node3&#45;&gt;Node1 -->
<g id="edge2" class="edge">
<title>Node3&#45;&gt;Node1</title>
<path fill="none" stroke="#9a32cd" stroke-dasharray="5,2" d="M133.7319,-199.7588C134.5745,-167.3163 138.2183,-101.9434 153.5,-49 155.2874,-42.8075 158.1198,-36.3412 160.9081,-30.7599"/>
<polygon fill="#9a32cd" stroke="#9a32cd" points="130.2253,-200.0717 133.5318,-210.1374 137.224,-200.2067 130.2253,-200.0717"/>
<text text-anchor="middle" x="165.5" y="-118" font-family="Helvetica,sans-Serif" font-size="10.00" fill="#000000"> diag</text>
</g>
<!-- Node4 -->
<g id="node4" class="node">
<title>Node4</title>
<g id="a_node4"><a xlink:title=" ">
<polygon fill="#ffffff" stroke="#bfbfbf" points="180.5,-210.5 180.5,-229.5 230.5,-229.5 230.5,-210.5 180.5,-210.5"/>
<text text-anchor="middle" x="205.5" y="-217.5" font-family="Helvetica,sans-Serif" font-size="10.00" fill="#000000">integer</text>
</a>
</g>
</g>
<!-- Node4&#45;&gt;Node1 -->
<g id="edge3" class="edge">
<title>Node4&#45;&gt;Node1</title>
<path fill="none" stroke="#9a32cd" stroke-dasharray="5,2" d="M201.9369,-200.2929C201.4465,-197.5099 200.9554,-194.6837 200.5,-192 189.7305,-128.5349 190.096,-112.128 177.5,-49 176.3066,-43.0188 174.7941,-36.4857 173.4064,-30.7899"/>
<polygon fill="#9a32cd" stroke="#9a32cd" points="198.5416,-201.1894 203.7467,-210.4174 205.4323,-199.9576 198.5416,-201.1894"/>
<text text-anchor="middle" x="230" y="-184" font-family="Helvetica,sans-Serif" font-size="10.00" fill="#000000"> id_kh_t1</text>
<text text-anchor="middle" x="230" y="-173" font-family="Helvetica,sans-Serif" font-size="10.00" fill="#000000">id_gmwork</text>
<text text-anchor="middle" x="230" y="-162" font-family="Helvetica,sans-Serif" font-size="10.00" fill="#000000">id_kh_u1</text>
<text text-anchor="middle" x="230" y="-151" font-family="Helvetica,sans-Serif" font-size="10.00" fill="#000000">id_kh_v1</text>
<text text-anchor="middle" x="230" y="-140" font-family="Helvetica,sans-Serif" font-size="10.00" fill="#000000">id_sfn_x</text>
<text text-anchor="start" x="200.5" y="-129" font-family="Helvetica,sans-Serif" font-size="10.00" fill="#000000">id_sfn_unlim</text>
<text text-anchor="middle" x="230" y="-118" font-family="Helvetica,sans-Serif" font-size="10.00" fill="#000000">_x</text>
<text text-anchor="middle" x="230" y="-107" font-family="Helvetica,sans-Serif" font-size="10.00" fill="#000000">id_sfn_y</text>
<text text-anchor="start" x="200.5" y="-96" font-family="Helvetica,sans-Serif" font-size="10.00" fill="#000000">id_sfn_unlim</text>
<text text-anchor="middle" x="230" y="-85" font-family="Helvetica,sans-Serif" font-size="10.00" fill="#000000">_y</text>
<text text-anchor="middle" x="230" y="-74" font-family="Helvetica,sans-Serif" font-size="10.00" fill="#000000">id_slope_x</text>
<text text-anchor="middle" x="230" y="-63" font-family="Helvetica,sans-Serif" font-size="10.00" fill="#000000">id_slope_y</text>
<text text-anchor="middle" x="230" y="-52" font-family="Helvetica,sans-Serif" font-size="10.00" fill="#000000">...</text>
</g>
<!-- Node5 -->
<g id="node5" class="node">
<title>Node5</title>
<g id="a_node5"><a xlink:title=" ">
<polygon fill="#ffffff" stroke="#bfbfbf" points="264,-210.5 264,-229.5 299,-229.5 299,-210.5 264,-210.5"/>
<text text-anchor="middle" x="281.5" y="-217.5" font-family="Helvetica,sans-Serif" font-size="10.00" fill="#000000">real</text>
</a>
</g>
</g>
<!-- Node5&#45;&gt;Node1 -->
<g id="edge4" class="edge">
<title>Node5&#45;&gt;Node1</title>
<path fill="none" stroke="#9a32cd" stroke-dasharray="5,2" d="M285.0235,-199.9143C289.9243,-165.143 294.6228,-93.2229 259.5,-49 252.5527,-40.2527 243.0772,-33.7895 232.8727,-29.0139"/>
<polygon fill="#9a32cd" stroke="#9a32cd" points="281.5039,-199.7666 283.411,-210.1884 288.4192,-200.8521 281.5039,-199.7666"/>
<text text-anchor="middle" x="348" y="-173" font-family="Helvetica,sans-Serif" font-size="10.00" fill="#000000"> meke_geometric_epsilon</text>
<text text-anchor="middle" x="348" y="-162" font-family="Helvetica,sans-Serif" font-size="10.00" fill="#000000">khth_min</text>
<text text-anchor="middle" x="348" y="-151" font-family="Helvetica,sans-Serif" font-size="10.00" fill="#000000">khth</text>
<text text-anchor="middle" x="348" y="-140" font-family="Helvetica,sans-Serif" font-size="10.00" fill="#000000">diagslopex</text>
<text text-anchor="middle" x="348" y="-129" font-family="Helvetica,sans-Serif" font-size="10.00" fill="#000000">khth_slope_cff</text>
<text text-anchor="middle" x="348" y="-118" font-family="Helvetica,sans-Serif" font-size="10.00" fill="#000000">diagslopey</text>
<text text-anchor="middle" x="348" y="-107" font-family="Helvetica,sans-Serif" font-size="10.00" fill="#000000">fgnv_scale</text>
<text text-anchor="middle" x="348" y="-96" font-family="Helvetica,sans-Serif" font-size="10.00" fill="#000000">gmwork</text>
<text text-anchor="middle" x="348" y="-85" font-family="Helvetica,sans-Serif" font-size="10.00" fill="#000000">max_khth_cfl</text>
<text text-anchor="middle" x="348" y="-74" font-family="Helvetica,sans-Serif" font-size="10.00" fill="#000000">kh_u_gme</text>
<text text-anchor="middle" x="348" y="-63" font-family="Helvetica,sans-Serif" font-size="10.00" fill="#000000">...</text>
</g>
</g>
</svg>
