<?xml version="1.0" encoding="UTF-8" standalone="no"?>
<!DOCTYPE svg PUBLIC "-//W3C//DTD SVG 1.1//EN"
 "http://www.w3.org/Graphics/SVG/1.1/DTD/svg11.dtd">
<!-- Generated by graphviz version 2.40.1 (20161225.0304)
 -->
<!-- Title: mom_surface_forcing::surface_forcing_cs Pages: 1 -->
<svg width="425pt" height="1213pt"
 viewBox="0.00 0.00 425.00 1212.64" xmlns="http://www.w3.org/2000/svg" xmlns:xlink="http://www.w3.org/1999/xlink">
<g id="graph0" class="graph" transform="scale(1 1) rotate(0) translate(4 1208.6408)">
<title>mom_surface_forcing::surface_forcing_cs</title>
<polygon fill="#ffffff" stroke="transparent" points="-4,4 -4,-1208.6408 421,-1208.6408 421,4 -4,4"/>
<!-- Node1 -->
<g id="node1" class="node">
<title>Node1</title>
<g id="a_node1"><a xlink:title="Structure containing pointers to the forcing fields that may be used to drive MOM....">
<polygon fill="#bfbfbf" stroke="#000000" points="299,-597.6408 299,-627.6408 417,-627.6408 417,-597.6408 299,-597.6408"/>
<text text-anchor="start" x="307" y="-615.6408" font-family="Helvetica,sans-Serif" font-size="10.00" fill="#000000">mom_surface_forcing</text>
<text text-anchor="middle" x="358" y="-604.6408" font-family="Helvetica,sans-Serif" font-size="10.00" fill="#000000">::surface_forcing_cs</text>
</a>
</g>
</g>
<!-- Node2 -->
<g id="node2" class="node">
<title>Node2</title>
<g id="a_node2"><a xlink:title=" ">
<polygon fill="#ffffff" stroke="#bfbfbf" points="12.5,-1165.6408 12.5,-1195.6408 132.5,-1195.6408 132.5,-1165.6408 12.5,-1165.6408"/>
<text text-anchor="start" x="20.5" y="-1183.6408" font-family="Helvetica,sans-Serif" font-size="10.00" fill="#000000">type(scm_cvmix_tests</text>
<text text-anchor="middle" x="72.5" y="-1172.6408" font-family="Helvetica,sans-Serif" font-size="10.00" fill="#000000">_cs), pointer</text>
</a>
</g>
</g>
<!-- Node2&#45;&gt;Node1 -->
<g id="edge1" class="edge">
<title>Node2&#45;&gt;Node1</title>
<path fill="none" stroke="#9a32cd" stroke-dasharray="5,2" d="M142.8923,-1192.8963C188.273,-1196.5019 245.2752,-1192.2927 281,-1157.6408 320.3545,-1119.4682 351.0313,-711.73 356.9606,-627.7244"/>
<polygon fill="#9a32cd" stroke="#9a32cd" points="143.0918,-1189.3998 132.8095,-1191.9539 142.4404,-1196.3694 143.0918,-1189.3998"/>
<text text-anchor="middle" x="222" y="-1196.6408" font-family="Helvetica,sans-Serif" font-size="10.00" fill="#000000"> scm_cvmix_tests_csp</text>
</g>
<!-- Node3 -->
<g id="node3" class="node">
<title>Node3</title>
<g id="a_node3"><a xlink:title=" ">
<polygon fill="#ffffff" stroke="#bfbfbf" points="8.5,-1116.6408 8.5,-1146.6408 136.5,-1146.6408 136.5,-1116.6408 8.5,-1116.6408"/>
<text text-anchor="start" x="16.5" y="-1134.6408" font-family="Helvetica,sans-Serif" font-size="10.00" fill="#000000">type(neverland_surface</text>
<text text-anchor="middle" x="72.5" y="-1123.6408" font-family="Helvetica,sans-Serif" font-size="10.00" fill="#000000">_forcing_cs), pointer</text>
</a>
</g>
</g>
<!-- Node3&#45;&gt;Node1 -->
<g id="edge2" class="edge">
<title>Node3&#45;&gt;Node1</title>
<path fill="none" stroke="#9a32cd" stroke-dasharray="5,2" d="M146.8593,-1142.8085C191.5279,-1145.0829 246.2559,-1139.3284 281,-1105.6408 316.4503,-1071.2684 349.8321,-707.0679 356.7103,-627.8102"/>
<polygon fill="#9a32cd" stroke="#9a32cd" points="146.8249,-1139.2989 136.6182,-1142.1403 146.3691,-1146.2841 146.8249,-1139.2989"/>
<text text-anchor="middle" x="222" y="-1145.6408" font-family="Helvetica,sans-Serif" font-size="10.00" fill="#000000"> neverland_forcing_csp</text>
</g>
<!-- Node4 -->
<g id="node4" class="node">
<title>Node4</title>
<g id="a_node4"><a xlink:title=" ">
<polygon fill="#ffffff" stroke="#bfbfbf" points="32.5,-1078.1408 32.5,-1097.1408 112.5,-1097.1408 112.5,-1078.1408 32.5,-1078.1408"/>
<text text-anchor="middle" x="72.5" y="-1085.1408" font-family="Helvetica,sans-Serif" font-size="10.00" fill="#000000">forcing_diags</text>
</a>
</g>
</g>
<!-- Node4&#45;&gt;Node1 -->
<g id="edge3" class="edge">
<title>Node4&#45;&gt;Node1</title>
<path fill="none" stroke="#9a32cd" stroke-dasharray="5,2" d="M122.7205,-1090.3503C176.9832,-1092.1335 258.6958,-1091.1211 281,-1070.6408 347.9628,-1009.1539 356.7013,-700.6213 357.833,-627.9766"/>
<polygon fill="#9a32cd" stroke="#9a32cd" points="122.717,-1086.8479 112.5943,-1089.9752 122.4578,-1093.8431 122.717,-1086.8479"/>
<text text-anchor="middle" x="222" y="-1093.6408" font-family="Helvetica,sans-Serif" font-size="10.00" fill="#000000"> handles</text>
</g>
<!-- Node5 -->
<g id="node5" class="node">
<title>Node5</title>
<g id="a_node5"><a xlink:title=" ">
<polygon fill="#ffffff" stroke="#bfbfbf" points="49,-971.1408 49,-990.1408 96,-990.1408 96,-971.1408 49,-971.1408"/>
<text text-anchor="middle" x="72.5" y="-978.1408" font-family="Helvetica,sans-Serif" font-size="10.00" fill="#000000">logical</text>
</a>
</g>
</g>
<!-- Node5&#45;&gt;Node1 -->
<g id="edge4" class="edge">
<title>Node5&#45;&gt;Node1</title>
<path fill="none" stroke="#9a32cd" stroke-dasharray="5,2" d="M106.2467,-977.5378C161.9811,-972.1105 268.4005,-960.3527 281,-948.6408 329.3258,-903.7194 351.5281,-686.9084 356.7565,-627.641"/>
<polygon fill="#9a32cd" stroke="#9a32cd" points="105.7612,-974.0682 96.1409,-978.5066 106.4293,-981.0363 105.7612,-974.0682"/>
<text text-anchor="middle" x="222" y="-1061.6408" font-family="Helvetica,sans-Serif" font-size="10.00" fill="#000000"> first_call_set_forcing</text>
<text text-anchor="middle" x="222" y="-1050.6408" font-family="Helvetica,sans-Serif" font-size="10.00" fill="#000000">variable_winds</text>
<text text-anchor="middle" x="222" y="-1039.6408" font-family="Helvetica,sans-Serif" font-size="10.00" fill="#000000">restorebuoy</text>
<text text-anchor="middle" x="222" y="-1028.6408" font-family="Helvetica,sans-Serif" font-size="10.00" fill="#000000">read_gust_2d</text>
<text text-anchor="middle" x="222" y="-1017.6408" font-family="Helvetica,sans-Serif" font-size="10.00" fill="#000000">use_temperature</text>
<text text-anchor="middle" x="222" y="-1006.6408" font-family="Helvetica,sans-Serif" font-size="10.00" fill="#000000">archaic_omip_file</text>
<text text-anchor="middle" x="222" y="-995.6408" font-family="Helvetica,sans-Serif" font-size="10.00" fill="#000000">adiabatic</text>
<text text-anchor="middle" x="222" y="-984.6408" font-family="Helvetica,sans-Serif" font-size="10.00" fill="#000000">dataoverrideisinitialized</text>
<text text-anchor="middle" x="222" y="-973.6408" font-family="Helvetica,sans-Serif" font-size="10.00" fill="#000000">variable_buoyforce</text>
</g>
<!-- Node6 -->
<g id="node6" class="node">
<title>Node6</title>
<g id="a_node6"><a xlink:title=" ">
<polygon fill="#ffffff" stroke="#bfbfbf" points="2.5,-921.6408 2.5,-951.6408 142.5,-951.6408 142.5,-921.6408 2.5,-921.6408"/>
<text text-anchor="start" x="10.5" y="-939.6408" font-family="Helvetica,sans-Serif" font-size="10.00" fill="#000000">type(user_surface_forcing</text>
<text text-anchor="middle" x="72.5" y="-928.6408" font-family="Helvetica,sans-Serif" font-size="10.00" fill="#000000">_cs), pointer</text>
</a>
</g>
</g>
<!-- Node6&#45;&gt;Node1 -->
<g id="edge5" class="edge">
<title>Node6&#45;&gt;Node1</title>
<path fill="none" stroke="#9a32cd" stroke-dasharray="5,2" d="M152.7851,-935.327C203.2086,-932.8245 262.1477,-926.2742 281,-909.6408 324.5376,-871.2274 349.7625,-682.8647 356.2918,-627.7909"/>
<polygon fill="#9a32cd" stroke="#9a32cd" points="152.3336,-931.8436 142.5006,-935.7886 152.6475,-938.8366 152.3336,-931.8436"/>
<text text-anchor="middle" x="222" y="-937.6408" font-family="Helvetica,sans-Serif" font-size="10.00" fill="#000000"> user_forcing_csp</text>
</g>
<!-- Node7 -->
<g id="node7" class="node">
<title>Node7</title>
<g id="a_node7"><a xlink:title=" ">
<polygon fill="#ffffff" stroke="#bfbfbf" points="7,-872.6408 7,-902.6408 138,-902.6408 138,-872.6408 7,-872.6408"/>
<text text-anchor="start" x="15" y="-890.6408" font-family="Helvetica,sans-Serif" font-size="10.00" fill="#000000">type(tracer_flow_control</text>
<text text-anchor="middle" x="72.5" y="-879.6408" font-family="Helvetica,sans-Serif" font-size="10.00" fill="#000000">_cs), pointer</text>
</a>
</g>
</g>
<!-- Node7&#45;&gt;Node1 -->
<g id="edge6" class="edge">
<title>Node7&#45;&gt;Node1</title>
<path fill="none" stroke="#9a32cd" stroke-dasharray="5,2" d="M148.1238,-894.1453C199.1698,-896.875 260.784,-896.4048 281,-880.6408 322.2296,-848.4907 348.7016,-679.8009 355.9676,-627.8703"/>
<polygon fill="#9a32cd" stroke="#9a32cd" points="148.2574,-890.6472 138.0709,-893.5602 147.8506,-897.6354 148.2574,-890.6472"/>
<text text-anchor="middle" x="222" y="-897.6408" font-family="Helvetica,sans-Serif" font-size="10.00" fill="#000000"> tracer_flow_csp</text>
</g>
<!-- Node8 -->
<g id="node8" class="node">
<title>Node8</title>
<g id="a_node8"><a xlink:title=" ">
<polygon fill="#ffffff" stroke="#bfbfbf" points="18.5,-759.1408 18.5,-778.1408 126.5,-778.1408 126.5,-759.1408 18.5,-759.1408"/>
<text text-anchor="middle" x="72.5" y="-766.1408" font-family="Helvetica,sans-Serif" font-size="10.00" fill="#000000">character(len=200)</text>
</a>
</g>
</g>
<!-- Node8&#45;&gt;Node1 -->
<g id="edge7" class="edge">
<title>Node8&#45;&gt;Node1</title>
<path fill="none" stroke="#9a32cd" stroke-dasharray="5,2" d="M136.7201,-760.5323C193.4523,-752.9353 269.0034,-741.5899 281,-733.6408 320.2299,-707.6465 343.504,-654.0822 352.9994,-627.8252"/>
<polygon fill="#9a32cd" stroke="#9a32cd" points="136.1754,-757.0738 126.7226,-761.8586 137.0961,-764.013 136.1754,-757.0738"/>
<text text-anchor="middle" x="222" y="-869.6408" font-family="Helvetica,sans-Serif" font-size="10.00" fill="#000000"> shortwaveup_file</text>
<text text-anchor="middle" x="222" y="-858.6408" font-family="Helvetica,sans-Serif" font-size="10.00" fill="#000000">runoff_file</text>
<text text-anchor="middle" x="222" y="-847.6408" font-family="Helvetica,sans-Serif" font-size="10.00" fill="#000000">latentheat_file</text>
<text text-anchor="middle" x="222" y="-836.6408" font-family="Helvetica,sans-Serif" font-size="10.00" fill="#000000">shortwave_file</text>
<text text-anchor="middle" x="222" y="-825.6408" font-family="Helvetica,sans-Serif" font-size="10.00" fill="#000000">salinityrestore_file</text>
<text text-anchor="middle" x="222" y="-814.6408" font-family="Helvetica,sans-Serif" font-size="10.00" fill="#000000">evaporation_file</text>
<text text-anchor="middle" x="222" y="-803.6408" font-family="Helvetica,sans-Serif" font-size="10.00" fill="#000000">snow_file</text>
<text text-anchor="middle" x="222" y="-792.6408" font-family="Helvetica,sans-Serif" font-size="10.00" fill="#000000">sensibleheat_file</text>
<text text-anchor="middle" x="222" y="-781.6408" font-family="Helvetica,sans-Serif" font-size="10.00" fill="#000000">wind_config</text>
<text text-anchor="middle" x="222" y="-770.6408" font-family="Helvetica,sans-Serif" font-size="10.00" fill="#000000">rain_file</text>
<text text-anchor="middle" x="222" y="-759.6408" font-family="Helvetica,sans-Serif" font-size="10.00" fill="#000000">...</text>
</g>
<!-- Node9 -->
<g id="node9" class="node">
<title>Node9</title>
<g id="a_node9"><a xlink:title=" ">
<polygon fill="#ffffff" stroke="#bfbfbf" points="6,-709.6408 6,-739.6408 139,-739.6408 139,-709.6408 6,-709.6408"/>
<text text-anchor="start" x="14" y="-727.6408" font-family="Helvetica,sans-Serif" font-size="10.00" fill="#000000">type(idealized_hurricane</text>
<text text-anchor="middle" x="72.5" y="-716.6408" font-family="Helvetica,sans-Serif" font-size="10.00" fill="#000000">_cs), pointer</text>
</a>
</g>
</g>
<!-- Node9&#45;&gt;Node1 -->
<g id="edge8" class="edge">
<title>Node9&#45;&gt;Node1</title>
<path fill="none" stroke="#9a32cd" stroke-dasharray="5,2" d="M149.3467,-720.6755C199.0619,-717.0477 258.5512,-710.3938 281,-698.6408 312.248,-682.281 336.9245,-647.7674 349.2958,-627.7941"/>
<polygon fill="#9a32cd" stroke="#9a32cd" points="148.9576,-717.194 139.226,-721.3829 149.4458,-724.177 148.9576,-717.194"/>
<text text-anchor="middle" x="222" y="-721.6408" font-family="Helvetica,sans-Serif" font-size="10.00" fill="#000000"> idealized_hurricane_csp</text>
</g>
<!-- Node10 -->
<g id="node10" class="node">
<title>Node10</title>
<g id="a_node10"><a xlink:title=" ">
<polygon fill="#ffffff" stroke="#bfbfbf" points="6,-660.6408 6,-690.6408 139,-690.6408 139,-660.6408 6,-660.6408"/>
<text text-anchor="start" x="14" y="-678.6408" font-family="Helvetica,sans-Serif" font-size="10.00" fill="#000000">type(bfb_surface_forcing</text>
<text text-anchor="middle" x="72.5" y="-667.6408" font-family="Helvetica,sans-Serif" font-size="10.00" fill="#000000">_cs), pointer</text>
</a>
</g>
</g>
<!-- Node10&#45;&gt;Node1 -->
<g id="edge9" class="edge">
<title>Node10&#45;&gt;Node1</title>
<path fill="none" stroke="#9a32cd" stroke-dasharray="5,2" d="M149.1276,-683.6806C189.4105,-685.2939 239.006,-683.0801 281,-668.6408 305.3849,-660.2562 328.6437,-641.2954 343.0938,-627.7617"/>
<polygon fill="#9a32cd" stroke="#9a32cd" points="149.2553,-680.1828 139.0971,-683.1931 148.9154,-687.1745 149.2553,-680.1828"/>
<text text-anchor="middle" x="222" y="-686.6408" font-family="Helvetica,sans-Serif" font-size="10.00" fill="#000000"> bfb_forcing_csp</text>
</g>
<!-- Node11 -->
<g id="node11" class="node">
<title>Node11</title>
<g id="a_node11"><a xlink:title=" ">
<polygon fill="#ffffff" stroke="#bfbfbf" points="21.5,-548.1408 21.5,-567.1408 123.5,-567.1408 123.5,-548.1408 21.5,-548.1408"/>
<text text-anchor="middle" x="72.5" y="-555.1408" font-family="Helvetica,sans-Serif" font-size="10.00" fill="#000000">character(len=80)</text>
</a>
</g>
</g>
<!-- Node11&#45;&gt;Node1 -->
<g id="edge10" class="edge">
<title>Node11&#45;&gt;Node1</title>
<path fill="none" stroke="#9a32cd" stroke-dasharray="5,2" d="M115.2781,-545.6066C130.2449,-541.9601 147.2459,-538.4446 163,-536.6408 215.104,-530.6748 232.4823,-516.7296 281,-536.6408 310.8877,-548.9064 335.3728,-578.9977 348.2233,-597.4245"/>
<polygon fill="#9a32cd" stroke="#9a32cd" points="114.1197,-542.2892 105.2819,-548.1325 115.8346,-549.0759 114.1197,-542.2892"/>
<text text-anchor="middle" x="222" y="-660.6408" font-family="Helvetica,sans-Serif" font-size="10.00" fill="#000000"> snow_var</text>
<text text-anchor="middle" x="222" y="-649.6408" font-family="Helvetica,sans-Serif" font-size="10.00" fill="#000000">lw_var</text>
<text text-anchor="middle" x="222" y="-638.6408" font-family="Helvetica,sans-Serif" font-size="10.00" fill="#000000">rain_var</text>
<text text-anchor="middle" x="222" y="-627.6408" font-family="Helvetica,sans-Serif" font-size="10.00" fill="#000000">sens_var</text>
<text text-anchor="middle" x="222" y="-616.6408" font-family="Helvetica,sans-Serif" font-size="10.00" fill="#000000">latent_var</text>
<text text-anchor="middle" x="222" y="-605.6408" font-family="Helvetica,sans-Serif" font-size="10.00" fill="#000000">ustar_var</text>
<text text-anchor="start" x="195" y="-594.6408" font-family="Helvetica,sans-Serif" font-size="10.00" fill="#000000">sst_restore</text>
<text text-anchor="middle" x="222" y="-583.6408" font-family="Helvetica,sans-Serif" font-size="10.00" fill="#000000">_var</text>
<text text-anchor="middle" x="222" y="-572.6408" font-family="Helvetica,sans-Serif" font-size="10.00" fill="#000000">frunoff_var</text>
<text text-anchor="middle" x="222" y="-561.6408" font-family="Helvetica,sans-Serif" font-size="10.00" fill="#000000">sw_var</text>
<text text-anchor="middle" x="222" y="-550.6408" font-family="Helvetica,sans-Serif" font-size="10.00" fill="#000000">lrunoff_var</text>
<text text-anchor="middle" x="222" y="-539.6408" font-family="Helvetica,sans-Serif" font-size="10.00" fill="#000000">...</text>
</g>
<!-- Node12 -->
<g id="node12" class="node">
<title>Node12</title>
<g id="a_node12"><a xlink:title=" ">
<polygon fill="#ffffff" stroke="#bfbfbf" points="12.5,-498.6408 12.5,-528.6408 132.5,-528.6408 132.5,-498.6408 12.5,-498.6408"/>
<text text-anchor="start" x="20.5" y="-516.6408" font-family="Helvetica,sans-Serif" font-size="10.00" fill="#000000">type(mom_restart_cs)</text>
<text text-anchor="middle" x="72.5" y="-505.6408" font-family="Helvetica,sans-Serif" font-size="10.00" fill="#000000">, pointer</text>
</a>
</g>
</g>
<!-- Node12&#45;&gt;Node1 -->
<g id="edge11" class="edge">
<title>Node12&#45;&gt;Node1</title>
<path fill="none" stroke="#9a32cd" stroke-dasharray="5,2" d="M142.7245,-497.071C184.9489,-490.7795 238.55,-489.4988 281,-510.6408 317.5437,-528.8412 341.3341,-573.5719 351.8256,-597.2932"/>
<polygon fill="#9a32cd" stroke="#9a32cd" points="142.1152,-493.624 132.8002,-498.6718 143.23,-500.5347 142.1152,-493.624"/>
<text text-anchor="middle" x="222" y="-513.6408" font-family="Helvetica,sans-Serif" font-size="10.00" fill="#000000"> restart_csp</text>
</g>
<!-- Node13 -->
<g id="node13" class="node">
<title>Node13</title>
<g id="a_node13"><a xlink:title=" ">
<polygon fill="#ffffff" stroke="#bfbfbf" points="44,-460.1408 44,-479.1408 101,-479.1408 101,-460.1408 44,-460.1408"/>
<text text-anchor="middle" x="72.5" y="-467.1408" font-family="Helvetica,sans-Serif" font-size="10.00" fill="#000000">diag_ctrl</text>
</a>
</g>
</g>
<!-- Node13&#45;&gt;Node1 -->
<g id="edge12" class="edge">
<title>Node13&#45;&gt;Node1</title>
<path fill="none" stroke="#9a32cd" stroke-dasharray="5,2" d="M111.0935,-460.6237C155.5073,-452.4848 228.9967,-446.0855 281,-477.6408 325.7506,-504.7952 346.8956,-568.3214 354.5129,-597.4993"/>
<polygon fill="#9a32cd" stroke="#9a32cd" points="110.4128,-457.1905 101.2679,-462.5402 111.753,-464.061 110.4128,-457.1905"/>
<text text-anchor="middle" x="222" y="-480.6408" font-family="Helvetica,sans-Serif" font-size="10.00" fill="#000000"> diag</text>
</g>
<!-- Node14 -->
<g id="node14" class="node">
<title>Node14</title>
<g id="a_node14"><a xlink:title=" ">
<polygon fill="#ffffff" stroke="#bfbfbf" points="24.5,-422.1408 24.5,-441.1408 120.5,-441.1408 120.5,-422.1408 24.5,-422.1408"/>
<text text-anchor="middle" x="72.5" y="-429.1408" font-family="Helvetica,sans-Serif" font-size="10.00" fill="#000000">character(len=8)</text>
</a>
</g>
</g>
<!-- Node14&#45;&gt;Node1 -->
<g id="edge13" class="edge">
<title>Node14&#45;&gt;Node1</title>
<path fill="none" stroke="#9a32cd" stroke-dasharray="5,2" d="M118.6847,-420.0858C164.0187,-411.5493 233.1403,-406.3273 281,-438.6408 336.1668,-475.8878 352.1937,-562.3 356.5173,-597.4046"/>
<polygon fill="#9a32cd" stroke="#9a32cd" points="117.9421,-416.6649 108.8266,-422.0647 119.3198,-423.528 117.9421,-416.6649"/>
<text text-anchor="middle" x="222" y="-441.6408" font-family="Helvetica,sans-Serif" font-size="10.00" fill="#000000"> wind_stagger</text>
</g>
<!-- Node15 -->
<g id="node15" class="node">
<title>Node15</title>
<g id="a_node15"><a xlink:title=" ">
<polygon fill="#ffffff" stroke="#bfbfbf" points="0,-372.6408 0,-402.6408 145,-402.6408 145,-372.6408 0,-372.6408"/>
<text text-anchor="start" x="8" y="-390.6408" font-family="Helvetica,sans-Serif" font-size="10.00" fill="#000000">type(meso_surface_forcing</text>
<text text-anchor="middle" x="72.5" y="-379.6408" font-family="Helvetica,sans-Serif" font-size="10.00" fill="#000000">_cs), pointer</text>
</a>
</g>
</g>
<!-- Node15&#45;&gt;Node1 -->
<g id="edge14" class="edge">
<title>Node15&#45;&gt;Node1</title>
<path fill="none" stroke="#9a32cd" stroke-dasharray="5,2" d="M153.0414,-371.5258C195.0072,-367.7269 244.947,-370.9428 281,-397.6408 314.6152,-422.5336 345.1268,-552.4495 354.8148,-597.3539"/>
<polygon fill="#9a32cd" stroke="#9a32cd" points="152.4147,-368.0724 142.8358,-372.5994 153.1471,-375.034 152.4147,-368.0724"/>
<text text-anchor="middle" x="222" y="-400.6408" font-family="Helvetica,sans-Serif" font-size="10.00" fill="#000000"> meso_forcing_csp</text>
</g>
<!-- Node16 -->
<g id="node16" class="node">
<title>Node16</title>
<g id="a_node16"><a xlink:title=" ">
<polygon fill="#ffffff" stroke="#bfbfbf" points="11.5,-323.6408 11.5,-353.6408 133.5,-353.6408 133.5,-323.6408 11.5,-323.6408"/>
<text text-anchor="start" x="19.5" y="-341.6408" font-family="Helvetica,sans-Serif" font-size="10.00" fill="#000000">type(dumbbell_surface</text>
<text text-anchor="middle" x="72.5" y="-330.6408" font-family="Helvetica,sans-Serif" font-size="10.00" fill="#000000">_forcing_cs), pointer</text>
</a>
</g>
</g>
<!-- Node16&#45;&gt;Node1 -->
<g id="edge15" class="edge">
<title>Node16&#45;&gt;Node1</title>
<path fill="none" stroke="#9a32cd" stroke-dasharray="5,2" d="M143.7119,-335.7465C195.6501,-335.1478 260.4015,-338.0286 281,-354.6408 320.1147,-386.1857 347.8399,-546.7221 355.7174,-597.3348"/>
<polygon fill="#9a32cd" stroke="#9a32cd" points="143.4548,-332.2501 133.512,-335.9096 143.5667,-339.2492 143.4548,-332.2501"/>
<text text-anchor="middle" x="222" y="-357.6408" font-family="Helvetica,sans-Serif" font-size="10.00" fill="#000000"> dumbbell_forcing_csp</text>
</g>
<!-- Node17 -->
<g id="node17" class="node">
<title>Node17</title>
<g id="a_node17"><a xlink:title=" ">
<polygon fill="#ffffff" stroke="#bfbfbf" points="5.5,-274.6408 5.5,-304.6408 139.5,-304.6408 139.5,-274.6408 5.5,-274.6408"/>
<text text-anchor="start" x="13.5" y="-292.6408" font-family="Helvetica,sans-Serif" font-size="10.00" fill="#000000">type(user_revise_forcing</text>
<text text-anchor="middle" x="72.5" y="-281.6408" font-family="Helvetica,sans-Serif" font-size="10.00" fill="#000000">_cs), pointer</text>
</a>
</g>
</g>
<!-- Node17&#45;&gt;Node1 -->
<g id="edge16" class="edge">
<title>Node17&#45;&gt;Node1</title>
<path fill="none" stroke="#9a32cd" stroke-dasharray="5,2" d="M149.6954,-292.3956C200.8066,-295.8146 261.8305,-303.4758 281,-320.6408 323.4752,-358.6742 349.3571,-542.8567 356.1812,-597.3951"/>
<polygon fill="#9a32cd" stroke="#9a32cd" points="149.8193,-288.8966 139.6207,-291.7668 149.3832,-295.883 149.8193,-288.8966"/>
<text text-anchor="middle" x="222" y="-323.6408" font-family="Helvetica,sans-Serif" font-size="10.00" fill="#000000"> urf_cs</text>
</g>
<!-- Node18 -->
<g id="node18" class="node">
<title>Node18</title>
<g id="a_node18"><a xlink:title=" ">
<polygon fill="#ffffff" stroke="#bfbfbf" points="47.5,-159.1408 47.5,-178.1408 97.5,-178.1408 97.5,-159.1408 47.5,-159.1408"/>
<text text-anchor="middle" x="72.5" y="-166.1408" font-family="Helvetica,sans-Serif" font-size="10.00" fill="#000000">integer</text>
</a>
</g>
</g>
<!-- Node18&#45;&gt;Node1 -->
<g id="edge17" class="edge">
<title>Node18&#45;&gt;Node1</title>
<path fill="none" stroke="#9a32cd" stroke-dasharray="5,2" d="M108.0021,-163.1721C160.5988,-155.9269 255.7402,-146.3764 281,-167.6408 348.6287,-224.5724 356.86,-526.4879 357.8614,-597.6206"/>
<polygon fill="#9a32cd" stroke="#9a32cd" points="107.1819,-159.7534 97.774,-164.6259 108.167,-166.6838 107.1819,-159.7534"/>
<text text-anchor="middle" x="222" y="-280.6408" font-family="Helvetica,sans-Serif" font-size="10.00" fill="#000000"> sss_last_lev</text>
<text text-anchor="middle" x="222" y="-269.6408" font-family="Helvetica,sans-Serif" font-size="10.00" fill="#000000">wind_nlev</text>
<text text-anchor="middle" x="222" y="-258.6408" font-family="Helvetica,sans-Serif" font-size="10.00" fill="#000000">sw_last_lev</text>
<text text-anchor="middle" x="222" y="-247.6408" font-family="Helvetica,sans-Serif" font-size="10.00" fill="#000000">lw_nlev</text>
<text text-anchor="middle" x="222" y="-236.6408" font-family="Helvetica,sans-Serif" font-size="10.00" fill="#000000">sst_nlev</text>
<text text-anchor="middle" x="222" y="-225.6408" font-family="Helvetica,sans-Serif" font-size="10.00" fill="#000000">precip_last_lev</text>
<text text-anchor="middle" x="222" y="-214.6408" font-family="Helvetica,sans-Serif" font-size="10.00" fill="#000000">sss_nlev</text>
<text text-anchor="middle" x="222" y="-203.6408" font-family="Helvetica,sans-Serif" font-size="10.00" fill="#000000">runoff_nlev</text>
<text text-anchor="middle" x="222" y="-192.6408" font-family="Helvetica,sans-Serif" font-size="10.00" fill="#000000">latent_last_lev</text>
<text text-anchor="middle" x="222" y="-181.6408" font-family="Helvetica,sans-Serif" font-size="10.00" fill="#000000">evap_nlev</text>
<text text-anchor="middle" x="222" y="-170.6408" font-family="Helvetica,sans-Serif" font-size="10.00" fill="#000000">...</text>
</g>
<!-- Node19 -->
<g id="node19" class="node">
<title>Node19</title>
<g id="a_node19"><a xlink:title=" ">
<polygon fill="#ffffff" stroke="#bfbfbf" points="55,-15.1408 55,-34.1408 90,-34.1408 90,-15.1408 55,-15.1408"/>
<text text-anchor="middle" x="72.5" y="-22.1408" font-family="Helvetica,sans-Serif" font-size="10.00" fill="#000000">real</text>
</a>
</g>
</g>
<!-- Node19&#45;&gt;Node1 -->
<g id="edge18" class="edge">
<title>Node19&#45;&gt;Node1</title>
<path fill="none" stroke="#9a32cd" stroke-dasharray="5,2" d="M99.7516,-15.2259C143.8356,-1.9114 230.8974,16.1467 281,-28.6408 324.9358,-67.9156 352.177,-509.9158 357.168,-597.5808"/>
<polygon fill="#9a32cd" stroke="#9a32cd" points="98.4994,-11.951 90.019,-18.3018 100.6089,-18.6256 98.4994,-11.951"/>
<text text-anchor="middle" x="222" y="-141.6408" font-family="Helvetica,sans-Serif" font-size="10.00" fill="#000000"> wind_scale</text>
<text text-anchor="middle" x="222" y="-130.6408" font-family="Helvetica,sans-Serif" font-size="10.00" fill="#000000">gyres_taux_const</text>
<text text-anchor="middle" x="222" y="-119.6408" font-family="Helvetica,sans-Serif" font-size="10.00" fill="#000000">flux_const_s</text>
<text text-anchor="middle" x="222" y="-108.6408" font-family="Helvetica,sans-Serif" font-size="10.00" fill="#000000">latent_heat_fusion</text>
<text text-anchor="middle" x="222" y="-97.6408" font-family="Helvetica,sans-Serif" font-size="10.00" fill="#000000">flux_const_t</text>
<text text-anchor="middle" x="222" y="-86.6408" font-family="Helvetica,sans-Serif" font-size="10.00" fill="#000000">flux_const</text>
<text text-anchor="middle" x="222" y="-75.6408" font-family="Helvetica,sans-Serif" font-size="10.00" fill="#000000">gyres_taux_n_pis</text>
<text text-anchor="middle" x="222" y="-64.6408" font-family="Helvetica,sans-Serif" font-size="10.00" fill="#000000">gyres_taux_sin_amp</text>
<text text-anchor="middle" x="222" y="-53.6408" font-family="Helvetica,sans-Serif" font-size="10.00" fill="#000000">dens_restore</text>
<text text-anchor="middle" x="222" y="-42.6408" font-family="Helvetica,sans-Serif" font-size="10.00" fill="#000000">gyres_taux_cos_amp</text>
<text text-anchor="middle" x="222" y="-31.6408" font-family="Helvetica,sans-Serif" font-size="10.00" fill="#000000">...</text>
</g>
</g>
</svg>
