<?xml version="1.0" encoding="UTF-8" standalone="no"?>
<!DOCTYPE svg PUBLIC "-//W3C//DTD SVG 1.1//EN"
 "http://www.w3.org/Graphics/SVG/1.1/DTD/svg11.dtd">
<!-- Generated by graphviz version 2.40.1 (20161225.0304)
 -->
<!-- Title: mom_ocean_model_nuopc::ocean_state_type Pages: 1 -->
<svg width="437pt" height="890pt"
 viewBox="0.00 0.00 437.00 890.03" xmlns="http://www.w3.org/2000/svg" xmlns:xlink="http://www.w3.org/1999/xlink">
<g id="graph0" class="graph" transform="scale(1 1) rotate(0) translate(4 886.0272)">
<title>mom_ocean_model_nuopc::ocean_state_type</title>
<polygon fill="#ffffff" stroke="transparent" points="-4,4 -4,-886.0272 433,-886.0272 433,4 -4,4"/>
<!-- Node1 -->
<g id="node1" class="node">
<title>Node1</title>
<g id="a_node1"><a xlink:title="The ocean_state_type contains all information about the state of the ocean, with a format that is pri...">
<polygon fill="#bfbfbf" stroke="#000000" points="286,-395.0272 286,-425.0272 429,-425.0272 429,-395.0272 286,-395.0272"/>
<text text-anchor="start" x="294" y="-413.0272" font-family="Helvetica,sans-Serif" font-size="10.00" fill="#000000">mom_ocean_model_nuopc</text>
<text text-anchor="middle" x="357.5" y="-402.0272" font-family="Helvetica,sans-Serif" font-size="10.00" fill="#000000">::ocean_state_type</text>
</a>
</g>
</g>
<!-- Node2 -->
<g id="node2" class="node">
<title>Node2</title>
<g id="a_node2"><a xlink:title=" ">
<polygon fill="#ffffff" stroke="#bfbfbf" points="45,-743.5272 45,-762.5272 92,-762.5272 92,-743.5272 45,-743.5272"/>
<text text-anchor="middle" x="68.5" y="-750.5272" font-family="Helvetica,sans-Serif" font-size="10.00" fill="#000000">logical</text>
</a>
</g>
</g>
<!-- Node2&#45;&gt;Node1 -->
<g id="edge1" class="edge">
<title>Node2&#45;&gt;Node1</title>
<path fill="none" stroke="#9a32cd" stroke-dasharray="5,2" d="M102.1849,-758.9062C145.8511,-764.4779 221.8544,-766.9005 268,-727.0272 315.3811,-686.0863 347.1946,-483.2036 355.4009,-425.4131"/>
<polygon fill="#9a32cd" stroke="#9a32cd" points="102.468,-755.4117 92.0781,-757.4858 101.4937,-762.3436 102.468,-755.4117"/>
<text text-anchor="middle" x="211.5" y="-874.0272" font-family="Helvetica,sans-Serif" font-size="10.00" fill="#000000"> use_waves</text>
<text text-anchor="middle" x="211.5" y="-863.0272" font-family="Helvetica,sans-Serif" font-size="10.00" fill="#000000">restore_temp</text>
<text text-anchor="middle" x="211.5" y="-852.0272" font-family="Helvetica,sans-Serif" font-size="10.00" fill="#000000">thermo_spans_coupling</text>
<text text-anchor="middle" x="211.5" y="-841.0272" font-family="Helvetica,sans-Serif" font-size="10.00" fill="#000000">offline_tracer_mode</text>
<text text-anchor="middle" x="211.5" y="-830.0272" font-family="Helvetica,sans-Serif" font-size="10.00" fill="#000000">restore_salinity</text>
<text text-anchor="middle" x="211.5" y="-819.0272" font-family="Helvetica,sans-Serif" font-size="10.00" fill="#000000">icebergs_alter_ocean</text>
<text text-anchor="middle" x="211.5" y="-808.0272" font-family="Helvetica,sans-Serif" font-size="10.00" fill="#000000">is_ocean_pe</text>
<text text-anchor="middle" x="211.5" y="-797.0272" font-family="Helvetica,sans-Serif" font-size="10.00" fill="#000000">diabatic_first</text>
<text text-anchor="middle" x="211.5" y="-786.0272" font-family="Helvetica,sans-Serif" font-size="10.00" fill="#000000">single_step_call</text>
<text text-anchor="middle" x="211.5" y="-775.0272" font-family="Helvetica,sans-Serif" font-size="10.00" fill="#000000">use_ice_shelf</text>
<text text-anchor="middle" x="211.5" y="-764.0272" font-family="Helvetica,sans-Serif" font-size="10.00" fill="#000000">...</text>
</g>
<!-- Node3 -->
<g id="node3" class="node">
<title>Node3</title>
<g id="a_node3"><a xlink:title=" ">
<polygon fill="#ffffff" stroke="#bfbfbf" points="23.5,-705.5272 23.5,-724.5272 113.5,-724.5272 113.5,-705.5272 23.5,-705.5272"/>
<text text-anchor="middle" x="68.5" y="-712.5272" font-family="Helvetica,sans-Serif" font-size="10.00" fill="#000000">unit_scale_type</text>
</a>
</g>
</g>
<!-- Node3&#45;&gt;Node1 -->
<g id="edge2" class="edge">
<title>Node3&#45;&gt;Node1</title>
<path fill="none" stroke="#9a32cd" stroke-dasharray="5,2" d="M123.9472,-714.302C175.2624,-712.5016 246.7294,-706.7616 268,-689.0272 310.2936,-653.7647 345.0632,-478.6007 354.7859,-425.3858"/>
<polygon fill="#9a32cd" stroke="#9a32cd" points="123.5382,-710.8129 113.6513,-714.6206 123.7548,-717.8095 123.5382,-710.8129"/>
<text text-anchor="middle" x="211.5" y="-715.0272" font-family="Helvetica,sans-Serif" font-size="10.00" fill="#000000"> us</text>
</g>
<!-- Node4 -->
<g id="node4" class="node">
<title>Node4</title>
<g id="a_node4"><a xlink:title=" ">
<polygon fill="#ffffff" stroke="#bfbfbf" points="37.5,-667.5272 37.5,-686.5272 99.5,-686.5272 99.5,-667.5272 37.5,-667.5272"/>
<text text-anchor="middle" x="68.5" y="-674.5272" font-family="Helvetica,sans-Serif" font-size="10.00" fill="#000000">time_type</text>
</a>
</g>
</g>
<!-- Node4&#45;&gt;Node1 -->
<g id="edge3" class="edge">
<title>Node4&#45;&gt;Node1</title>
<path fill="none" stroke="#9a32cd" stroke-dasharray="5,2" d="M109.8787,-676.5481C161.0443,-675.1366 244.2893,-669.9051 268,-651.0272 341.1512,-592.786 354.5137,-468.4687 356.9545,-425.228"/>
<polygon fill="#9a32cd" stroke="#9a32cd" points="109.7042,-673.0512 99.7905,-676.7887 109.8712,-680.0492 109.7042,-673.0512"/>
<text text-anchor="middle" x="211.5" y="-677.0272" font-family="Helvetica,sans-Serif" font-size="10.00" fill="#000000"> time</text>
</g>
<!-- Node5 -->
<g id="node5" class="node">
<title>Node5</title>
<g id="a_node5"><a xlink:title=" ">
<polygon fill="#ffffff" stroke="#bfbfbf" points="35.5,-629.5272 35.5,-648.5272 101.5,-648.5272 101.5,-629.5272 35.5,-629.5272"/>
<text text-anchor="middle" x="68.5" y="-636.5272" font-family="Helvetica,sans-Serif" font-size="10.00" fill="#000000">directories</text>
</a>
</g>
</g>
<!-- Node5&#45;&gt;Node1 -->
<g id="edge4" class="edge">
<title>Node5&#45;&gt;Node1</title>
<path fill="none" stroke="#9a32cd" stroke-dasharray="5,2" d="M111.781,-638.497C162.9077,-637.0459 244.0509,-631.896 268,-614.0272 331.7007,-566.4991 350.8041,-463.8218 355.8622,-425.1619"/>
<polygon fill="#9a32cd" stroke="#9a32cd" points="111.5804,-635.0008 101.6701,-638.7472 111.7536,-641.9987 111.5804,-635.0008"/>
<text text-anchor="middle" x="211.5" y="-639.0272" font-family="Helvetica,sans-Serif" font-size="10.00" fill="#000000"> dirs</text>
</g>
<!-- Node6 -->
<g id="node6" class="node">
<title>Node6</title>
<g id="a_node6"><a xlink:title=" ">
<polygon fill="#ffffff" stroke="#bfbfbf" points="28.5,-591.5272 28.5,-610.5272 108.5,-610.5272 108.5,-591.5272 28.5,-591.5272"/>
<text text-anchor="middle" x="68.5" y="-598.5272" font-family="Helvetica,sans-Serif" font-size="10.00" fill="#000000">mech_forcing</text>
</a>
</g>
</g>
<!-- Node6&#45;&gt;Node1 -->
<g id="edge5" class="edge">
<title>Node6&#45;&gt;Node1</title>
<path fill="none" stroke="#9a32cd" stroke-dasharray="5,2" d="M118.8192,-600.751C169.8225,-599.5563 244.4736,-595.012 268,-579.0272 323.0606,-541.6166 346.7739,-459.1404 354.4679,-425.1375"/>
<polygon fill="#9a32cd" stroke="#9a32cd" points="118.5676,-597.2552 108.639,-600.9528 118.7065,-604.2538 118.5676,-597.2552"/>
<text text-anchor="middle" x="211.5" y="-602.0272" font-family="Helvetica,sans-Serif" font-size="10.00" fill="#000000"> forces</text>
</g>
<!-- Node7 -->
<g id="node7" class="node">
<title>Node7</title>
<g id="a_node7"><a xlink:title=" ">
<polygon fill="#ffffff" stroke="#bfbfbf" points="43,-553.5272 43,-572.5272 94,-572.5272 94,-553.5272 43,-553.5272"/>
<text text-anchor="middle" x="68.5" y="-560.5272" font-family="Helvetica,sans-Serif" font-size="10.00" fill="#000000">surface</text>
</a>
</g>
</g>
<!-- Node7&#45;&gt;Node1 -->
<g id="edge6" class="edge">
<title>Node7&#45;&gt;Node1</title>
<path fill="none" stroke="#9a32cd" stroke-dasharray="5,2" d="M104.3359,-566.8744C146.583,-569.6296 217.4332,-568.5194 268,-538.0272 312.3515,-511.2828 340.3429,-453.1941 351.6981,-425.4201"/>
<polygon fill="#9a32cd" stroke="#9a32cd" points="104.4779,-563.3751 94.2411,-566.1061 103.9467,-570.355 104.4779,-563.3751"/>
<text text-anchor="middle" x="211.5" y="-570.0272" font-family="Helvetica,sans-Serif" font-size="10.00" fill="#000000"> sfc_state</text>
</g>
<!-- Node8 -->
<g id="node8" class="node">
<title>Node8</title>
<g id="a_node8"><a xlink:title=" ">
<polygon fill="#ffffff" stroke="#bfbfbf" points="44,-515.5272 44,-534.5272 93,-534.5272 93,-515.5272 44,-515.5272"/>
<text text-anchor="middle" x="68.5" y="-522.5272" font-family="Helvetica,sans-Serif" font-size="10.00" fill="#000000">forcing</text>
</a>
</g>
</g>
<!-- Node8&#45;&gt;Node1 -->
<g id="edge7" class="edge">
<title>Node8&#45;&gt;Node1</title>
<path fill="none" stroke="#9a32cd" stroke-dasharray="5,2" d="M103.2572,-521.2987C144.2454,-515.912 213.6682,-503.642 268,-478.0272 296.7711,-464.463 325.1883,-440.604 342.0381,-425.0591"/>
<polygon fill="#9a32cd" stroke="#9a32cd" points="102.7165,-517.839 93.2283,-522.5533 103.5855,-524.7849 102.7165,-517.839"/>
<text text-anchor="middle" x="211.5" y="-526.0272" font-family="Helvetica,sans-Serif" font-size="10.00" fill="#000000"> flux_tmp</text>
<text text-anchor="middle" x="211.5" y="-515.0272" font-family="Helvetica,sans-Serif" font-size="10.00" fill="#000000">fluxes</text>
</g>
<!-- Node9 -->
<g id="node9" class="node">
<title>Node9</title>
<g id="a_node9"><a xlink:title=" ">
<polygon fill="#ffffff" stroke="#bfbfbf" points="8.5,-466.0272 8.5,-496.0272 128.5,-496.0272 128.5,-466.0272 8.5,-466.0272"/>
<text text-anchor="start" x="16.5" y="-484.0272" font-family="Helvetica,sans-Serif" font-size="10.00" fill="#000000">type(mom_restart_cs)</text>
<text text-anchor="middle" x="68.5" y="-473.0272" font-family="Helvetica,sans-Serif" font-size="10.00" fill="#000000">, pointer</text>
</a>
</g>
</g>
<!-- Node9&#45;&gt;Node1 -->
<g id="edge8" class="edge">
<title>Node9&#45;&gt;Node1</title>
<path fill="none" stroke="#9a32cd" stroke-dasharray="5,2" d="M138.7413,-468.1268C177.16,-460.5987 225.4589,-450.3632 268,-439.0272 283.1515,-434.9897 299.5253,-429.9022 314.074,-425.12"/>
<polygon fill="#9a32cd" stroke="#9a32cd" points="137.839,-464.7366 128.6897,-470.079 139.1736,-471.6082 137.839,-464.7366"/>
<text text-anchor="middle" x="211.5" y="-466.0272" font-family="Helvetica,sans-Serif" font-size="10.00" fill="#000000"> restart_csp</text>
</g>
<!-- Node10 -->
<g id="node10" class="node">
<title>Node10</title>
<g id="a_node10"><a xlink:title=" ">
<polygon fill="#ffffff" stroke="#bfbfbf" points="6,-417.0272 6,-447.0272 131,-447.0272 131,-417.0272 6,-417.0272"/>
<text text-anchor="start" x="14" y="-435.0272" font-family="Helvetica,sans-Serif" font-size="10.00" fill="#000000">type(wave_parameters</text>
<text text-anchor="middle" x="68.5" y="-424.0272" font-family="Helvetica,sans-Serif" font-size="10.00" fill="#000000">_cs), pointer</text>
</a>
</g>
</g>
<!-- Node10&#45;&gt;Node1 -->
<g id="edge9" class="edge">
<title>Node10&#45;&gt;Node1</title>
<path fill="none" stroke="#9a32cd" stroke-dasharray="5,2" d="M141.3113,-426.4845C185.5261,-423.1186 241.7342,-418.8398 285.7543,-415.4888"/>
<polygon fill="#9a32cd" stroke="#9a32cd" points="140.9141,-423.0045 131.2087,-427.2535 141.4455,-429.9843 140.9141,-423.0045"/>
<text text-anchor="middle" x="211.5" y="-427.0272" font-family="Helvetica,sans-Serif" font-size="10.00" fill="#000000"> waves</text>
</g>
<!-- Node11 -->
<g id="node11" class="node">
<title>Node11</title>
<g id="a_node11"><a xlink:title=" ">
<polygon fill="#ffffff" stroke="#bfbfbf" points="40,-378.5272 40,-397.5272 97,-397.5272 97,-378.5272 40,-378.5272"/>
<text text-anchor="middle" x="68.5" y="-385.5272" font-family="Helvetica,sans-Serif" font-size="10.00" fill="#000000">diag_ctrl</text>
</a>
</g>
</g>
<!-- Node11&#45;&gt;Node1 -->
<g id="edge10" class="edge">
<title>Node11&#45;&gt;Node1</title>
<path fill="none" stroke="#9a32cd" stroke-dasharray="5,2" d="M107.4309,-390.5386C147.6531,-393.185 212.241,-397.5791 268,-402.0272 273.7538,-402.4862 279.7139,-402.9796 285.7006,-403.4879"/>
<polygon fill="#9a32cd" stroke="#9a32cd" points="107.4627,-387.0332 97.2553,-389.8722 107.0052,-394.0183 107.4627,-387.0332"/>
<text text-anchor="middle" x="211.5" y="-405.0272" font-family="Helvetica,sans-Serif" font-size="10.00" fill="#000000"> diag</text>
</g>
<!-- Node12 -->
<g id="node12" class="node">
<title>Node12</title>
<g id="a_node12"><a xlink:title=" ">
<polygon fill="#ffffff" stroke="#bfbfbf" points="12,-329.0272 12,-359.0272 125,-359.0272 125,-329.0272 12,-329.0272"/>
<text text-anchor="start" x="20" y="-347.0272" font-family="Helvetica,sans-Serif" font-size="10.00" fill="#000000">type(marine_ice_cs)</text>
<text text-anchor="middle" x="68.5" y="-336.0272" font-family="Helvetica,sans-Serif" font-size="10.00" fill="#000000">, pointer</text>
</a>
</g>
</g>
<!-- Node12&#45;&gt;Node1 -->
<g id="edge11" class="edge">
<title>Node12&#45;&gt;Node1</title>
<path fill="none" stroke="#9a32cd" stroke-dasharray="5,2" d="M135.5198,-353.0513C174.5095,-358.9788 224.4094,-367.7315 268,-379.0272 284.714,-383.3583 302.7737,-389.3516 318.2635,-394.915"/>
<polygon fill="#9a32cd" stroke="#9a32cd" points="135.7484,-349.5467 125.3409,-351.5301 134.7137,-356.4698 135.7484,-349.5467"/>
<text text-anchor="middle" x="211.5" y="-382.0272" font-family="Helvetica,sans-Serif" font-size="10.00" fill="#000000"> marine_ice_csp</text>
</g>
<!-- Node13 -->
<g id="node13" class="node">
<title>Node13</title>
<g id="a_node13"><a xlink:title=" ">
<polygon fill="#ffffff" stroke="#bfbfbf" points="0,-280.0272 0,-310.0272 137,-310.0272 137,-280.0272 0,-280.0272"/>
<text text-anchor="start" x="8" y="-298.0272" font-family="Helvetica,sans-Serif" font-size="10.00" fill="#000000">type(mom_control_struct)</text>
<text text-anchor="middle" x="68.5" y="-287.0272" font-family="Helvetica,sans-Serif" font-size="10.00" fill="#000000">, pointer</text>
</a>
</g>
</g>
<!-- Node13&#45;&gt;Node1 -->
<g id="edge12" class="edge">
<title>Node13&#45;&gt;Node1</title>
<path fill="none" stroke="#9a32cd" stroke-dasharray="5,2" d="M147.3429,-305.1742C185.1186,-312.0188 230.2438,-323.174 268,-341.0272 296.911,-354.6979 325.2899,-378.9331 342.0935,-394.7374"/>
<polygon fill="#9a32cd" stroke="#9a32cd" points="147.855,-301.7107 137.4024,-303.4408 146.6524,-308.6067 147.855,-301.7107"/>
<text text-anchor="middle" x="211.5" y="-344.0272" font-family="Helvetica,sans-Serif" font-size="10.00" fill="#000000"> mom_csp</text>
</g>
<!-- Node14 -->
<g id="node14" class="node">
<title>Node14</title>
<g id="a_node14"><a xlink:title=" ">
<polygon fill="#ffffff" stroke="#bfbfbf" points="12,-231.0272 12,-261.0272 125,-261.0272 125,-231.0272 12,-231.0272"/>
<text text-anchor="start" x="20" y="-249.0272" font-family="Helvetica,sans-Serif" font-size="10.00" fill="#000000">type(surface_forcing</text>
<text text-anchor="middle" x="68.5" y="-238.0272" font-family="Helvetica,sans-Serif" font-size="10.00" fill="#000000">_cs), pointer</text>
</a>
</g>
</g>
<!-- Node14&#45;&gt;Node1 -->
<g id="edge13" class="edge">
<title>Node14&#45;&gt;Node1</title>
<path fill="none" stroke="#9a32cd" stroke-dasharray="5,2" d="M135.6039,-249.5315C176.6034,-254.3645 228.5551,-265.5266 268,-291.0272 308.8132,-317.4124 337.95,-369.2218 350.5492,-394.8839"/>
<polygon fill="#9a32cd" stroke="#9a32cd" points="135.7482,-246.0268 125.4305,-248.4342 134.9975,-252.9865 135.7482,-246.0268"/>
<text text-anchor="middle" x="211.5" y="-294.0272" font-family="Helvetica,sans-Serif" font-size="10.00" fill="#000000"> forcing_csp</text>
</g>
<!-- Node15 -->
<g id="node15" class="node">
<title>Node15</title>
<g id="a_node15"><a xlink:title=" ">
<polygon fill="#ffffff" stroke="#bfbfbf" points="7.5,-182.0272 7.5,-212.0272 129.5,-212.0272 129.5,-182.0272 7.5,-182.0272"/>
<text text-anchor="start" x="15.5" y="-200.0272" font-family="Helvetica,sans-Serif" font-size="10.00" fill="#000000">type(verticalgrid_type)</text>
<text text-anchor="middle" x="68.5" y="-189.0272" font-family="Helvetica,sans-Serif" font-size="10.00" fill="#000000">, pointer</text>
</a>
</g>
</g>
<!-- Node15&#45;&gt;Node1 -->
<g id="edge14" class="edge">
<title>Node15&#45;&gt;Node1</title>
<path fill="none" stroke="#9a32cd" stroke-dasharray="5,2" d="M140.1291,-204.7942C188.8549,-211.2938 247.9808,-221.9462 268,-237.0272 322.1543,-277.8229 346.3809,-360.8354 354.3401,-394.9116"/>
<polygon fill="#9a32cd" stroke="#9a32cd" points="140.274,-201.2838 129.9072,-203.4701 139.3747,-208.2258 140.274,-201.2838"/>
<text text-anchor="middle" x="211.5" y="-240.0272" font-family="Helvetica,sans-Serif" font-size="10.00" fill="#000000"> gv</text>
</g>
<!-- Node16 -->
<g id="node16" class="node">
<title>Node16</title>
<g id="a_node16"><a xlink:title=" ">
<polygon fill="#ffffff" stroke="#bfbfbf" points="20.5,-143.5272 20.5,-162.5272 116.5,-162.5272 116.5,-143.5272 20.5,-143.5272"/>
<text text-anchor="middle" x="68.5" y="-150.5272" font-family="Helvetica,sans-Serif" font-size="10.00" fill="#000000">ocean_grid_type</text>
</a>
</g>
</g>
<!-- Node16&#45;&gt;Node1 -->
<g id="edge15" class="edge">
<title>Node16&#45;&gt;Node1</title>
<path fill="none" stroke="#9a32cd" stroke-dasharray="5,2" d="M126.4954,-161.5084C181.4058,-169.9941 257.0524,-183.0442 268,-192.0272 333.312,-245.6183 351.4922,-354.5977 356.081,-394.7385"/>
<polygon fill="#9a32cd" stroke="#9a32cd" points="126.9185,-158.0324 116.504,-159.979 125.8593,-164.9519 126.9185,-158.0324"/>
<text text-anchor="middle" x="211.5" y="-195.0272" font-family="Helvetica,sans-Serif" font-size="10.00" fill="#000000"> grid</text>
</g>
<!-- Node17 -->
<g id="node17" class="node">
<title>Node17</title>
<g id="a_node17"><a xlink:title=" ">
<polygon fill="#ffffff" stroke="#bfbfbf" points="51,-98.5272 51,-117.5272 86,-117.5272 86,-98.5272 51,-98.5272"/>
<text text-anchor="middle" x="68.5" y="-105.5272" font-family="Helvetica,sans-Serif" font-size="10.00" fill="#000000">real</text>
</a>
</g>
</g>
<!-- Node17&#45;&gt;Node1 -->
<g id="edge16" class="edge">
<title>Node17&#45;&gt;Node1</title>
<path fill="none" stroke="#9a32cd" stroke-dasharray="5,2" d="M96.0954,-103.9468C144.3928,-97.4344 241.6262,-87.3172 268,-107.0272 316.0012,-142.9 347.2626,-338.2689 355.3912,-394.7362"/>
<polygon fill="#9a32cd" stroke="#9a32cd" points="95.4506,-100.5027 86.0287,-105.3481 96.4158,-107.4359 95.4506,-100.5027"/>
<text text-anchor="middle" x="211.5" y="-154.0272" font-family="Helvetica,sans-Serif" font-size="10.00" fill="#000000"> press_to_z</text>
<text text-anchor="middle" x="211.5" y="-143.0272" font-family="Helvetica,sans-Serif" font-size="10.00" fill="#000000">dt_therm</text>
<text text-anchor="middle" x="211.5" y="-132.0272" font-family="Helvetica,sans-Serif" font-size="10.00" fill="#000000">c_p</text>
<text text-anchor="middle" x="211.5" y="-121.0272" font-family="Helvetica,sans-Serif" font-size="10.00" fill="#000000">eps_omesh</text>
<text text-anchor="middle" x="211.5" y="-110.0272" font-family="Helvetica,sans-Serif" font-size="10.00" fill="#000000">dt</text>
</g>
<!-- Node18 -->
<g id="node18" class="node">
<title>Node18</title>
<g id="a_node18"><a xlink:title=" ">
<polygon fill="#ffffff" stroke="#bfbfbf" points="43.5,-53.5272 43.5,-72.5272 93.5,-72.5272 93.5,-53.5272 43.5,-53.5272"/>
<text text-anchor="middle" x="68.5" y="-60.5272" font-family="Helvetica,sans-Serif" font-size="10.00" fill="#000000">integer</text>
</a>
</g>
</g>
<!-- Node18&#45;&gt;Node1 -->
<g id="edge17" class="edge">
<title>Node18&#45;&gt;Node1</title>
<path fill="none" stroke="#9a32cd" stroke-dasharray="5,2" d="M103.63,-52.5914C147.1681,-41.9892 221.309,-31.8766 268,-69.0272 320.9243,-111.1374 349.1718,-334.6735 355.9064,-395.0095"/>
<polygon fill="#9a32cd" stroke="#9a32cd" points="102.5909,-49.2447 93.7788,-55.1266 104.3356,-56.0238 102.5909,-49.2447"/>
<text text-anchor="middle" x="211.5" y="-83.0272" font-family="Helvetica,sans-Serif" font-size="10.00" fill="#000000"> nstep</text>
<text text-anchor="middle" x="211.5" y="-72.0272" font-family="Helvetica,sans-Serif" font-size="10.00" fill="#000000">restart_control</text>
</g>
<!-- Node19 -->
<g id="node19" class="node">
<title>Node19</title>
<g id="a_node19"><a xlink:title=" ">
<polygon fill="#ffffff" stroke="#bfbfbf" points="16,-4.0272 16,-34.0272 121,-34.0272 121,-4.0272 16,-4.0272"/>
<text text-anchor="start" x="24" y="-22.0272" font-family="Helvetica,sans-Serif" font-size="10.00" fill="#000000">type(ice_shelf_cs),</text>
<text text-anchor="middle" x="68.5" y="-11.0272" font-family="Helvetica,sans-Serif" font-size="10.00" fill="#000000"> pointer</text>
</a>
</g>
</g>
<!-- Node19&#45;&gt;Node1 -->
<g id="edge18" class="edge">
<title>Node19&#45;&gt;Node1</title>
<path fill="none" stroke="#9a32cd" stroke-dasharray="5,2" d="M131.4513,-3.7697C174.6557,2.7625 230.7086,2.931 268,-28.0272 326.3052,-76.4304 350.8683,-329.2601 356.2986,-394.6015"/>
<polygon fill="#9a32cd" stroke="#9a32cd" points="130.6163,-.3603 121.3244,-5.4506 131.7626,-7.2658 130.6163,-.3603"/>
<text text-anchor="middle" x="211.5" y="-31.0272" font-family="Helvetica,sans-Serif" font-size="10.00" fill="#000000"> ice_shelf_csp</text>
</g>
</g>
</svg>
