<?xml version="1.0" encoding="UTF-8" standalone="no"?>
<!DOCTYPE svg PUBLIC "-//W3C//DTD SVG 1.1//EN"
 "http://www.w3.org/Graphics/SVG/1.1/DTD/svg11.dtd">
<!-- Generated by graphviz version 2.40.1 (20161225.0304)
 -->
<!-- Title: mom_continuity::continuity_cs Pages: 1 -->
<svg width="222pt" height="106pt"
 viewBox="0.00 0.00 222.00 106.00" xmlns="http://www.w3.org/2000/svg" xmlns:xlink="http://www.w3.org/1999/xlink">
<g id="graph0" class="graph" transform="scale(1 1) rotate(0) translate(4 102)">
<title>mom_continuity::continuity_cs</title>
<polygon fill="#ffffff" stroke="transparent" points="-4,4 -4,-102 218,-102 218,4 -4,4"/>
<!-- Node1 -->
<g id="node1" class="node">
<title>Node1</title>
<g id="a_node1"><a xlink:title="Control structure for mom_continuity.">
<polygon fill="#bfbfbf" stroke="#000000" points="23.5,-.5 23.5,-19.5 172.5,-19.5 172.5,-.5 23.5,-.5"/>
<text text-anchor="middle" x="98" y="-7.5" font-family="Helvetica,sans-Serif" font-size="10.00" fill="#000000">mom_continuity::continuity_cs</text>
</a>
</g>
</g>
<!-- Node2 -->
<g id="node2" class="node">
<title>Node2</title>
<g id="a_node2"><a xlink:title=" ">
<polygon fill="#ffffff" stroke="#bfbfbf" points="0,-67.5 0,-97.5 104,-97.5 104,-67.5 0,-67.5"/>
<text text-anchor="start" x="8" y="-85.5" font-family="Helvetica,sans-Serif" font-size="10.00" fill="#000000">type(continuity_ppm</text>
<text text-anchor="middle" x="52" y="-74.5" font-family="Helvetica,sans-Serif" font-size="10.00" fill="#000000">_cs), pointer</text>
</a>
</g>
</g>
<!-- Node2&#45;&gt;Node1 -->
<g id="edge1" class="edge">
<title>Node2&#45;&gt;Node1</title>
<path fill="none" stroke="#9a32cd" stroke-dasharray="5,2" d="M66.9791,-58.5992C71.179,-51.9237 75.7566,-44.6719 80,-38 83.9077,-31.8559 88.3292,-24.977 91.8122,-19.5749"/>
<polygon fill="#9a32cd" stroke="#9a32cd" points="63.9091,-56.9066 61.5532,-67.2362 69.8365,-60.6304 63.9091,-56.9066"/>
<text text-anchor="middle" x="101.5" y="-41" font-family="Helvetica,sans-Serif" font-size="10.00" fill="#000000"> ppm_csp</text>
</g>
<!-- Node3 -->
<g id="node3" class="node">
<title>Node3</title>
<g id="a_node3"><a xlink:title=" ">
<polygon fill="#ffffff" stroke="#bfbfbf" points="122,-73 122,-92 168,-92 168,-73 122,-73"/>
<text text-anchor="middle" x="145" y="-80" font-family="Helvetica,sans-Serif" font-size="10.00" fill="#000000">integer</text>
</a>
</g>
</g>
<!-- Node3&#45;&gt;Node1 -->
<g id="edge2" class="edge">
<title>Node3&#45;&gt;Node1</title>
<path fill="none" stroke="#9a32cd" stroke-dasharray="5,2" d="M136.984,-63.494C133.2094,-55.3626 128.3586,-45.9344 123,-38 118.5503,-31.4114 112.6639,-24.7434 107.7208,-19.5681"/>
<polygon fill="#9a32cd" stroke="#9a32cd" points="133.8961,-65.1649 141.1469,-72.8901 140.2962,-62.3294 133.8961,-65.1649"/>
<text text-anchor="middle" x="171.5" y="-41" font-family="Helvetica,sans-Serif" font-size="10.00" fill="#000000"> continuity_scheme</text>
</g>
</g>
</svg>
