<?xml version="1.0" encoding="UTF-8" standalone="no"?>
<!DOCTYPE svg PUBLIC "-//W3C//DTD SVG 1.1//EN"
 "http://www.w3.org/Graphics/SVG/1.1/DTD/svg11.dtd">
<!-- Generated by graphviz version 2.40.1 (20161225.0304)
 -->
<!-- Title: mom_domains::mom_domain_type Pages: 1 -->
<svg width="308pt" height="172pt"
 viewBox="0.00 0.00 307.50 172.00" xmlns="http://www.w3.org/2000/svg" xmlns:xlink="http://www.w3.org/1999/xlink">
<g id="graph0" class="graph" transform="scale(1 1) rotate(0) translate(4 168)">
<title>mom_domains::mom_domain_type</title>
<polygon fill="#ffffff" stroke="transparent" points="-4,4 -4,-168 303.5,-168 303.5,4 -4,4"/>
<!-- Node1 -->
<g id="node1" class="node">
<title>Node1</title>
<g id="a_node1"><a xlink:title="The MOM_domain_type contains information about the domain decompositoin.">
<polygon fill="#bfbfbf" stroke="#000000" points="60,-.5 60,-19.5 239,-19.5 239,-.5 60,-.5"/>
<text text-anchor="middle" x="149.5" y="-7.5" font-family="Helvetica,sans-Serif" font-size="10.00" fill="#000000">mom_domains::mom_domain_type</text>
</a>
</g>
</g>
<!-- Node2 -->
<g id="node2" class="node">
<title>Node2</title>
<g id="a_node2"><a xlink:title=" ">
<polygon fill="#ffffff" stroke="#bfbfbf" points="0,-144.5 0,-163.5 47,-163.5 47,-144.5 0,-144.5"/>
<text text-anchor="middle" x="23.5" y="-151.5" font-family="Helvetica,sans-Serif" font-size="10.00" fill="#000000">logical</text>
</a>
</g>
</g>
<!-- Node2&#45;&gt;Node1 -->
<g id="edge1" class="edge">
<title>Node2&#45;&gt;Node1</title>
<path fill="none" stroke="#9a32cd" stroke-dasharray="5,2" d="M20.7851,-134.4798C18.4061,-108.9628 18.4439,-64.4199 42.5,-38 49.5133,-30.2975 69.8022,-24.0945 90.8537,-19.5034"/>
<polygon fill="#9a32cd" stroke="#9a32cd" points="17.3106,-134.9029 21.9301,-144.4376 24.2648,-134.1032 17.3106,-134.9029"/>
<text text-anchor="middle" x="94" y="-96" font-family="Helvetica,sans-Serif" font-size="10.00" fill="#000000"> nonblocking_updates</text>
<text text-anchor="middle" x="94" y="-85" font-family="Helvetica,sans-Serif" font-size="10.00" fill="#000000">maskmap</text>
<text text-anchor="middle" x="94" y="-74" font-family="Helvetica,sans-Serif" font-size="10.00" fill="#000000">symmetric</text>
<text text-anchor="middle" x="94" y="-63" font-family="Helvetica,sans-Serif" font-size="10.00" fill="#000000">thin_halo_updates</text>
</g>
<!-- Node3 -->
<g id="node3" class="node">
<title>Node3</title>
<g id="a_node3"><a xlink:title=" ">
<polygon fill="#ffffff" stroke="#bfbfbf" points="118,-144.5 118,-163.5 181,-163.5 181,-144.5 118,-144.5"/>
<text text-anchor="middle" x="149.5" y="-151.5" font-family="Helvetica,sans-Serif" font-size="10.00" fill="#000000">domain2d</text>
</a>
</g>
</g>
<!-- Node3&#45;&gt;Node1 -->
<g id="edge2" class="edge">
<title>Node3&#45;&gt;Node1</title>
<path fill="none" stroke="#9a32cd" stroke-dasharray="5,2" d="M149.5,-133.9129C149.5,-102.4665 149.5,-42.8094 149.5,-19.5877"/>
<polygon fill="#9a32cd" stroke="#9a32cd" points="146.0001,-134.1023 149.5,-144.1023 153.0001,-134.1023 146.0001,-134.1023"/>
<text text-anchor="middle" x="190.5" y="-85" font-family="Helvetica,sans-Serif" font-size="10.00" fill="#000000"> mpp_domain_d2</text>
<text text-anchor="middle" x="190.5" y="-74" font-family="Helvetica,sans-Serif" font-size="10.00" fill="#000000">mpp_domain</text>
</g>
<!-- Node4 -->
<g id="node4" class="node">
<title>Node4</title>
<g id="a_node4"><a xlink:title=" ">
<polygon fill="#ffffff" stroke="#bfbfbf" points="229.5,-144.5 229.5,-163.5 279.5,-163.5 279.5,-144.5 229.5,-144.5"/>
<text text-anchor="middle" x="254.5" y="-151.5" font-family="Helvetica,sans-Serif" font-size="10.00" fill="#000000">integer</text>
</a>
</g>
</g>
<!-- Node4&#45;&gt;Node1 -->
<g id="edge3" class="edge">
<title>Node4&#45;&gt;Node1</title>
<path fill="none" stroke="#9a32cd" stroke-dasharray="5,2" d="M256.3961,-133.9521C257.6567,-108.5368 255.8463,-64.8109 232.5,-38 226.5579,-31.176 208.2054,-24.646 190.2644,-19.6111"/>
<polygon fill="#9a32cd" stroke="#9a32cd" points="252.8845,-133.9915 255.6671,-144.2144 259.867,-134.4876 252.8845,-133.9915"/>
<text text-anchor="middle" x="278" y="-118" font-family="Helvetica,sans-Serif" font-size="10.00" fill="#000000"> x_flags</text>
<text text-anchor="middle" x="278" y="-107" font-family="Helvetica,sans-Serif" font-size="10.00" fill="#000000">io_layout</text>
<text text-anchor="middle" x="278" y="-96" font-family="Helvetica,sans-Serif" font-size="10.00" fill="#000000">y_flags</text>
<text text-anchor="middle" x="278" y="-85" font-family="Helvetica,sans-Serif" font-size="10.00" fill="#000000">niglobal</text>
<text text-anchor="middle" x="278" y="-74" font-family="Helvetica,sans-Serif" font-size="10.00" fill="#000000">nihalo</text>
<text text-anchor="middle" x="278" y="-63" font-family="Helvetica,sans-Serif" font-size="10.00" fill="#000000">njhalo</text>
<text text-anchor="middle" x="278" y="-52" font-family="Helvetica,sans-Serif" font-size="10.00" fill="#000000">njglobal</text>
<text text-anchor="middle" x="278" y="-41" font-family="Helvetica,sans-Serif" font-size="10.00" fill="#000000">layout</text>
</g>
</g>
</svg>
