<?xml version="1.0" encoding="UTF-8" standalone="no"?>
<!DOCTYPE svg PUBLIC "-//W3C//DTD SVG 1.1//EN"
 "http://www.w3.org/Graphics/SVG/1.1/DTD/svg11.dtd">
<!-- Generated by graphviz version 2.40.1 (20161225.0304)
 -->
<!-- Title: mom_restart::field_restart Pages: 1 -->
<svg width="253pt" height="117pt"
 viewBox="0.00 0.00 252.50 117.00" xmlns="http://www.w3.org/2000/svg" xmlns:xlink="http://www.w3.org/1999/xlink">
<g id="graph0" class="graph" transform="scale(1 1) rotate(0) translate(4 113)">
<title>mom_restart::field_restart</title>
<polygon fill="#ffffff" stroke="transparent" points="-4,4 -4,-113 248.5,-113 248.5,4 -4,4"/>
<!-- Node1 -->
<g id="node1" class="node">
<title>Node1</title>
<g id="a_node1"><a xlink:title="A structure with information about a single restart field.">
<polygon fill="#bfbfbf" stroke="#000000" points="47.5,-.5 47.5,-30.5 147.5,-30.5 147.5,-.5 47.5,-.5"/>
<text text-anchor="start" x="55.5" y="-18.5" font-family="Helvetica,sans-Serif" font-size="10.00" fill="#000000">mom_restart::field</text>
<text text-anchor="middle" x="97.5" y="-7.5" font-family="Helvetica,sans-Serif" font-size="10.00" fill="#000000">_restart</text>
</a>
</g>
</g>
<!-- Node2 -->
<g id="node2" class="node">
<title>Node2</title>
<g id="a_node2"><a xlink:title=" ">
<polygon fill="#ffffff" stroke="#bfbfbf" points="0,-89.5 0,-108.5 47,-108.5 47,-89.5 0,-89.5"/>
<text text-anchor="middle" x="23.5" y="-96.5" font-family="Helvetica,sans-Serif" font-size="10.00" fill="#000000">logical</text>
</a>
</g>
</g>
<!-- Node2&#45;&gt;Node1 -->
<g id="edge1" class="edge">
<title>Node2&#45;&gt;Node1</title>
<path fill="none" stroke="#9a32cd" stroke-dasharray="5,2" d="M27.722,-79.3821C30.6112,-69.4587 35.2642,-57.706 42.5,-49 48.5744,-41.6914 56.6784,-35.543 64.7947,-30.59"/>
<polygon fill="#9a32cd" stroke="#9a32cd" points="24.2974,-78.6487 25.2404,-89.2015 31.084,-80.3639 24.2974,-78.6487"/>
<text text-anchor="middle" x="68" y="-63" font-family="Helvetica,sans-Serif" font-size="10.00" fill="#000000"> mand_var</text>
<text text-anchor="middle" x="68" y="-52" font-family="Helvetica,sans-Serif" font-size="10.00" fill="#000000">initialized</text>
</g>
<!-- Node3 -->
<g id="node3" class="node">
<title>Node3</title>
<g id="a_node3"><a xlink:title=" ">
<polygon fill="#ffffff" stroke="#bfbfbf" points="70.5,-89.5 70.5,-108.5 124.5,-108.5 124.5,-89.5 70.5,-89.5"/>
<text text-anchor="middle" x="97.5" y="-96.5" font-family="Helvetica,sans-Serif" font-size="10.00" fill="#000000">vardesc</text>
</a>
</g>
</g>
<!-- Node3&#45;&gt;Node1 -->
<g id="edge2" class="edge">
<title>Node3&#45;&gt;Node1</title>
<path fill="none" stroke="#9a32cd" stroke-dasharray="5,2" d="M97.5,-79.2427C97.5,-64.345 97.5,-44.2186 97.5,-30.597"/>
<polygon fill="#9a32cd" stroke="#9a32cd" points="94.0001,-79.4215 97.5,-89.4215 101.0001,-79.4215 94.0001,-79.4215"/>
<text text-anchor="middle" x="109.5" y="-57.5" font-family="Helvetica,sans-Serif" font-size="10.00" fill="#000000"> vars</text>
</g>
<!-- Node4 -->
<g id="node4" class="node">
<title>Node4</title>
<g id="a_node4"><a xlink:title=" ">
<polygon fill="#ffffff" stroke="#bfbfbf" points="142.5,-89.5 142.5,-108.5 244.5,-108.5 244.5,-89.5 142.5,-89.5"/>
<text text-anchor="middle" x="193.5" y="-96.5" font-family="Helvetica,sans-Serif" font-size="10.00" fill="#000000">character(len=32)</text>
</a>
</g>
</g>
<!-- Node4&#45;&gt;Node1 -->
<g id="edge3" class="edge">
<title>Node4&#45;&gt;Node1</title>
<path fill="none" stroke="#9a32cd" stroke-dasharray="5,2" d="M174.6976,-82.6458C157.3328,-67.5421 131.746,-45.2869 114.8571,-30.597"/>
<polygon fill="#9a32cd" stroke="#9a32cd" points="172.6454,-85.4995 182.4876,-89.4215 177.2393,-80.2179 172.6454,-85.4995"/>
<text text-anchor="middle" x="185" y="-57.5" font-family="Helvetica,sans-Serif" font-size="10.00" fill="#000000"> var_name</text>
</g>
</g>
</svg>
