<?xml version="1.0" encoding="UTF-8" standalone="no"?>
<!DOCTYPE svg PUBLIC "-//W3C//DTD SVG 1.1//EN"
 "http://www.w3.org/Graphics/SVG/1.1/DTD/svg11.dtd">
<!-- Generated by graphviz version 2.40.1 (20161225.0304)
 -->
<!-- Title: mom_diabatic_aux::diabatic_aux_cs Pages: 1 -->
<svg width="441pt" height="227pt"
 viewBox="0.00 0.00 441.00 227.00" xmlns="http://www.w3.org/2000/svg" xmlns:xlink="http://www.w3.org/1999/xlink">
<g id="graph0" class="graph" transform="scale(1 1) rotate(0) translate(4 223)">
<title>mom_diabatic_aux::diabatic_aux_cs</title>
<polygon fill="#ffffff" stroke="transparent" points="-4,4 -4,-223 437,-223 437,4 -4,4"/>
<!-- Node1 -->
<g id="node1" class="node">
<title>Node1</title>
<g id="a_node1"><a xlink:title="Control structure for diabatic_aux.">
<polygon fill="#bfbfbf" stroke="#000000" points="126,-.5 126,-30.5 264,-30.5 264,-.5 126,-.5"/>
<text text-anchor="start" x="134" y="-18.5" font-family="Helvetica,sans-Serif" font-size="10.00" fill="#000000">mom_diabatic_aux::diabatic</text>
<text text-anchor="middle" x="195" y="-7.5" font-family="Helvetica,sans-Serif" font-size="10.00" fill="#000000">_aux_cs</text>
</a>
</g>
</g>
<!-- Node2 -->
<g id="node2" class="node">
<title>Node2</title>
<g id="a_node2"><a xlink:title=" ">
<polygon fill="#ffffff" stroke="#bfbfbf" points="0,-199.5 0,-218.5 44,-218.5 44,-199.5 0,-199.5"/>
<text text-anchor="middle" x="22" y="-206.5" font-family="Helvetica,sans-Serif" font-size="10.00" fill="#000000">logical</text>
</a>
</g>
</g>
<!-- Node2&#45;&gt;Node1 -->
<g id="edge1" class="edge">
<title>Node2&#45;&gt;Node1</title>
<path fill="none" stroke="#9a32cd" stroke-dasharray="5,2" d="M16.2978,-189.3862C7.9491,-156.1486 -3.1616,-88.5245 31,-49 43.5419,-34.4892 86.7525,-26.0361 125.6702,-21.2516"/>
<polygon fill="#9a32cd" stroke="#9a32cd" points="12.9739,-190.5036 18.9538,-199.2496 19.7331,-188.6835 12.9739,-190.5036"/>
<text text-anchor="start" x="31" y="-173" font-family="Helvetica,sans-Serif" font-size="10.00" fill="#000000"> pressure_dependent</text>
<text text-anchor="middle" x="76.5" y="-162" font-family="Helvetica,sans-Serif" font-size="10.00" fill="#000000">_frazil</text>
<text text-anchor="middle" x="76.5" y="-151" font-family="Helvetica,sans-Serif" font-size="10.00" fill="#000000">reclaim_frazil</text>
<text text-anchor="middle" x="76.5" y="-140" font-family="Helvetica,sans-Serif" font-size="10.00" fill="#000000">do_rivermix</text>
<text text-anchor="middle" x="76.5" y="-129" font-family="Helvetica,sans-Serif" font-size="10.00" fill="#000000">chl_from_file</text>
<text text-anchor="start" x="31" y="-118" font-family="Helvetica,sans-Serif" font-size="10.00" fill="#000000">use_river_heat</text>
<text text-anchor="middle" x="76.5" y="-107" font-family="Helvetica,sans-Serif" font-size="10.00" fill="#000000">_content</text>
<text text-anchor="start" x="31" y="-96" font-family="Helvetica,sans-Serif" font-size="10.00" fill="#000000">use_calving_heat</text>
<text text-anchor="middle" x="76.5" y="-85" font-family="Helvetica,sans-Serif" font-size="10.00" fill="#000000">_content</text>
<text text-anchor="start" x="31" y="-74" font-family="Helvetica,sans-Serif" font-size="10.00" fill="#000000">ignore_fluxes</text>
<text text-anchor="middle" x="76.5" y="-63" font-family="Helvetica,sans-Serif" font-size="10.00" fill="#000000">_over_land</text>
<text text-anchor="middle" x="76.5" y="-52" font-family="Helvetica,sans-Serif" font-size="10.00" fill="#000000">var_pen_sw</text>
</g>
<!-- Node3 -->
<g id="node3" class="node">
<title>Node3</title>
<g id="a_node3"><a xlink:title=" ">
<polygon fill="#ffffff" stroke="#bfbfbf" points="91.5,-199.5 91.5,-218.5 150.5,-218.5 150.5,-199.5 91.5,-199.5"/>
<text text-anchor="middle" x="121" y="-206.5" font-family="Helvetica,sans-Serif" font-size="10.00" fill="#000000">time_type</text>
</a>
</g>
</g>
<!-- Node3&#45;&gt;Node1 -->
<g id="edge2" class="edge">
<title>Node3&#45;&gt;Node1</title>
<path fill="none" stroke="#9a32cd" stroke-dasharray="5,2" d="M124.5076,-189.1373C130.5377,-157.9818 144.6315,-96.2992 169,-49 172.3043,-42.5863 176.889,-36.1738 181.2894,-30.7015"/>
<polygon fill="#9a32cd" stroke="#9a32cd" points="121.0327,-188.6802 122.6467,-199.1514 127.9148,-189.9591 121.0327,-188.6802"/>
<text text-anchor="middle" x="180" y="-112.5" font-family="Helvetica,sans-Serif" font-size="10.00" fill="#000000"> time</text>
</g>
<!-- Node4 -->
<g id="node4" class="node">
<title>Node4</title>
<g id="a_node4"><a xlink:title=" ">
<polygon fill="#ffffff" stroke="#bfbfbf" points="168.5,-199.5 168.5,-218.5 221.5,-218.5 221.5,-199.5 168.5,-199.5"/>
<text text-anchor="middle" x="195" y="-206.5" font-family="Helvetica,sans-Serif" font-size="10.00" fill="#000000">diag_ctrl</text>
</a>
</g>
</g>
<!-- Node4&#45;&gt;Node1 -->
<g id="edge3" class="edge">
<title>Node4&#45;&gt;Node1</title>
<path fill="none" stroke="#9a32cd" stroke-dasharray="5,2" d="M195,-188.9277C195,-150.0883 195,-65.4319 195,-30.7657"/>
<polygon fill="#9a32cd" stroke="#9a32cd" points="191.5001,-189.4043 195,-199.4043 198.5001,-189.4043 191.5001,-189.4043"/>
<text text-anchor="middle" x="206" y="-112.5" font-family="Helvetica,sans-Serif" font-size="10.00" fill="#000000"> diag</text>
</g>
<!-- Node5 -->
<g id="node5" class="node">
<title>Node5</title>
<g id="a_node5"><a xlink:title=" ">
<polygon fill="#ffffff" stroke="#bfbfbf" points="240,-199.5 240,-218.5 286,-218.5 286,-199.5 240,-199.5"/>
<text text-anchor="middle" x="263" y="-206.5" font-family="Helvetica,sans-Serif" font-size="10.00" fill="#000000">integer</text>
</a>
</g>
</g>
<!-- Node5&#45;&gt;Node1 -->
<g id="edge4" class="edge">
<title>Node5&#45;&gt;Node1</title>
<path fill="none" stroke="#9a32cd" stroke-dasharray="5,2" d="M255.0647,-189.869C253.9651,-186.9233 252.9044,-183.8979 252,-181 234.0472,-123.4735 246.959,-103.3851 221,-49 217.8921,-42.4888 213.3535,-36.0535 208.935,-30.5901"/>
<polygon fill="#9a32cd" stroke="#9a32cd" points="251.8512,-191.2607 258.7811,-199.2749 258.3615,-188.6884 251.8512,-191.2607"/>
<text text-anchor="middle" x="292.5" y="-145.5" font-family="Helvetica,sans-Serif" font-size="10.00" fill="#000000"> sbc_chl</text>
<text text-anchor="middle" x="292.5" y="-134.5" font-family="Helvetica,sans-Serif" font-size="10.00" fill="#000000">id_brine_lay</text>
<text text-anchor="middle" x="292.5" y="-123.5" font-family="Helvetica,sans-Serif" font-size="10.00" fill="#000000">id_chl</text>
<text text-anchor="middle" x="292.5" y="-112.5" font-family="Helvetica,sans-Serif" font-size="10.00" fill="#000000">id_nonpensw_diag</text>
<text text-anchor="middle" x="292.5" y="-101.5" font-family="Helvetica,sans-Serif" font-size="10.00" fill="#000000">id_createdh</text>
<text text-anchor="middle" x="292.5" y="-90.5" font-family="Helvetica,sans-Serif" font-size="10.00" fill="#000000">id_pensw_diag</text>
<text text-anchor="middle" x="292.5" y="-79.5" font-family="Helvetica,sans-Serif" font-size="10.00" fill="#000000">id_penswflux_diag</text>
</g>
<!-- Node6 -->
<g id="node6" class="node">
<title>Node6</title>
<g id="a_node6"><a xlink:title=" ">
<polygon fill="#ffffff" stroke="#bfbfbf" points="339,-199.5 339,-218.5 371,-218.5 371,-199.5 339,-199.5"/>
<text text-anchor="middle" x="355" y="-206.5" font-family="Helvetica,sans-Serif" font-size="10.00" fill="#000000">real</text>
</a>
</g>
</g>
<!-- Node6&#45;&gt;Node1 -->
<g id="edge5" class="edge">
<title>Node6&#45;&gt;Node1</title>
<path fill="none" stroke="#9a32cd" stroke-dasharray="5,2" d="M358.6653,-189.2893C363.6478,-155.9063 368.2926,-88.0699 333,-49 323.3321,-38.2974 293.6762,-30.3802 264.3219,-24.938"/>
<polygon fill="#9a32cd" stroke="#9a32cd" points="355.2054,-188.7601 357.0199,-199.1984 362.1108,-189.9069 355.2054,-188.7601"/>
<text text-anchor="middle" x="397.5" y="-134.5" font-family="Helvetica,sans-Serif" font-size="10.00" fill="#000000"> penswflux_diag</text>
<text text-anchor="middle" x="397.5" y="-123.5" font-family="Helvetica,sans-Serif" font-size="10.00" fill="#000000">pensw_diag</text>
<text text-anchor="middle" x="397.5" y="-112.5" font-family="Helvetica,sans-Serif" font-size="10.00" fill="#000000">rivermix_depth</text>
<text text-anchor="middle" x="397.5" y="-101.5" font-family="Helvetica,sans-Serif" font-size="10.00" fill="#000000">nonpensw_diag</text>
<text text-anchor="middle" x="397.5" y="-90.5" font-family="Helvetica,sans-Serif" font-size="10.00" fill="#000000">createdh</text>
</g>
</g>
</svg>
