<?xml version="1.0" encoding="UTF-8" standalone="no"?>
<!DOCTYPE svg PUBLIC "-//W3C//DTD SVG 1.1//EN"
 "http://www.w3.org/Graphics/SVG/1.1/DTD/svg11.dtd">
<!-- Generated by graphviz version 2.40.1 (20161225.0304)
 -->
<!-- Title: mom_forcing_type::forcing Pages: 1 -->
<svg width="410pt" height="205pt"
 viewBox="0.00 0.00 409.50 205.00" xmlns="http://www.w3.org/2000/svg" xmlns:xlink="http://www.w3.org/1999/xlink">
<g id="graph0" class="graph" transform="scale(1 1) rotate(0) translate(4 201)">
<title>mom_forcing_type::forcing</title>
<polygon fill="#ffffff" stroke="transparent" points="-4,4 -4,-201 405.5,-201 405.5,4 -4,4"/>
<!-- Node1 -->
<g id="node1" class="node">
<title>Node1</title>
<g id="a_node1"><a xlink:title="Structure that contains pointers to the boundary forcing used to drive the liquid ocean simulated by ...">
<polygon fill="#bfbfbf" stroke="#000000" points="109.5,-.5 109.5,-19.5 249.5,-19.5 249.5,-.5 109.5,-.5"/>
<text text-anchor="middle" x="179.5" y="-7.5" font-family="Helvetica,sans-Serif" font-size="10.00" fill="#000000">mom_forcing_type::forcing</text>
</a>
</g>
</g>
<!-- Node2 -->
<g id="node2" class="node">
<title>Node2</title>
<g id="a_node2"><a xlink:title=" ">
<polygon fill="#ffffff" stroke="#bfbfbf" points="0,-177.5 0,-196.5 47,-196.5 47,-177.5 0,-177.5"/>
<text text-anchor="middle" x="23.5" y="-184.5" font-family="Helvetica,sans-Serif" font-size="10.00" fill="#000000">logical</text>
</a>
</g>
</g>
<!-- Node2&#45;&gt;Node1 -->
<g id="edge1" class="edge">
<title>Node2&#45;&gt;Node1</title>
<path fill="none" stroke="#9a32cd" stroke-dasharray="5,2" d="M17.0948,-167.4537C8.169,-136.1017 -3.6512,-74.4088 27.5,-38 38.4028,-25.2571 74.8979,-18.2827 109.3935,-14.4817"/>
<polygon fill="#9a32cd" stroke="#9a32cd" points="13.7968,-168.6385 20.0561,-177.1867 20.4937,-166.6009 13.7968,-168.6385"/>
<text text-anchor="middle" x="73" y="-101.5" font-family="Helvetica,sans-Serif" font-size="10.00" fill="#000000"> accumulate_p_surf</text>
<text text-anchor="middle" x="73" y="-90.5" font-family="Helvetica,sans-Serif" font-size="10.00" fill="#000000">fluxes_used</text>
</g>
<!-- Node3 -->
<g id="node3" class="node">
<title>Node3</title>
<g id="a_node3"><a xlink:title=" ">
<polygon fill="#ffffff" stroke="#bfbfbf" points="73.5,-177.5 73.5,-196.5 185.5,-196.5 185.5,-177.5 73.5,-177.5"/>
<text text-anchor="middle" x="129.5" y="-184.5" font-family="Helvetica,sans-Serif" font-size="10.00" fill="#000000">coupler_2d_bc_type</text>
</a>
</g>
</g>
<!-- Node3&#45;&gt;Node1 -->
<g id="edge2" class="edge">
<title>Node3&#45;&gt;Node1</title>
<path fill="none" stroke="#9a32cd" stroke-dasharray="5,2" d="M125.9237,-167.0597C121.585,-136.9746 117.4449,-79.1292 140.5,-38 144.8202,-30.293 152.2492,-24.1678 159.4718,-19.6359"/>
<polygon fill="#9a32cd" stroke="#9a32cd" points="122.5006,-167.8186 127.54,-177.1382 129.4123,-166.7101 122.5006,-167.8186"/>
<text text-anchor="middle" x="162" y="-96" font-family="Helvetica,sans-Serif" font-size="10.00" fill="#000000"> tr_fluxes</text>
</g>
<!-- Node4 -->
<g id="node4" class="node">
<title>Node4</title>
<g id="a_node4"><a xlink:title=" ">
<polygon fill="#ffffff" stroke="#bfbfbf" points="203.5,-177.5 203.5,-196.5 253.5,-196.5 253.5,-177.5 203.5,-177.5"/>
<text text-anchor="middle" x="228.5" y="-184.5" font-family="Helvetica,sans-Serif" font-size="10.00" fill="#000000">integer</text>
</a>
</g>
</g>
<!-- Node4&#45;&gt;Node1 -->
<g id="edge3" class="edge">
<title>Node4&#45;&gt;Node1</title>
<path fill="none" stroke="#9a32cd" stroke-dasharray="5,2" d="M223.1586,-167.7055C212.7094,-129.9605 189.908,-47.5961 182.1475,-19.5633"/>
<polygon fill="#9a32cd" stroke="#9a32cd" points="219.8243,-168.78 225.8655,-177.4837 226.5706,-166.9124 219.8243,-168.78"/>
<text text-anchor="middle" x="244" y="-101.5" font-family="Helvetica,sans-Serif" font-size="10.00" fill="#000000"> max_msg</text>
<text text-anchor="middle" x="244" y="-90.5" font-family="Helvetica,sans-Serif" font-size="10.00" fill="#000000">num_msg</text>
</g>
<!-- Node5 -->
<g id="node5" class="node">
<title>Node5</title>
<g id="a_node5"><a xlink:title=" ">
<polygon fill="#ffffff" stroke="#bfbfbf" points="277,-177.5 277,-196.5 312,-196.5 312,-177.5 277,-177.5"/>
<text text-anchor="middle" x="294.5" y="-184.5" font-family="Helvetica,sans-Serif" font-size="10.00" fill="#000000">real</text>
</a>
</g>
</g>
<!-- Node5&#45;&gt;Node1 -->
<g id="edge4" class="edge">
<title>Node5&#45;&gt;Node1</title>
<path fill="none" stroke="#9a32cd" stroke-dasharray="5,2" d="M297.6994,-167.0955C301.5475,-135.6926 304.0134,-74.4807 272.5,-38 266.1895,-30.6949 246.9197,-24.3231 227.5453,-19.5111"/>
<polygon fill="#9a32cd" stroke="#9a32cd" points="294.203,-166.8259 296.2795,-177.2152 301.1351,-167.7986 294.203,-166.8259"/>
<text text-anchor="middle" x="350.5" y="-151" font-family="Helvetica,sans-Serif" font-size="10.00" fill="#000000"> p_surf_ssh</text>
<text text-anchor="middle" x="350.5" y="-140" font-family="Helvetica,sans-Serif" font-size="10.00" fill="#000000">salt_flux</text>
<text text-anchor="middle" x="350.5" y="-129" font-family="Helvetica,sans-Serif" font-size="10.00" fill="#000000">heat_content_cond</text>
<text text-anchor="middle" x="350.5" y="-118" font-family="Helvetica,sans-Serif" font-size="10.00" fill="#000000">fprec</text>
<text text-anchor="middle" x="350.5" y="-107" font-family="Helvetica,sans-Serif" font-size="10.00" fill="#000000">latent_evap_diag</text>
<text text-anchor="middle" x="350.5" y="-96" font-family="Helvetica,sans-Serif" font-size="10.00" fill="#000000">dt_buoy_accum</text>
<text text-anchor="middle" x="350.5" y="-85" font-family="Helvetica,sans-Serif" font-size="10.00" fill="#000000">heat_content_massin</text>
<text text-anchor="middle" x="350.5" y="-74" font-family="Helvetica,sans-Serif" font-size="10.00" fill="#000000">netmassout</text>
<text text-anchor="middle" x="350.5" y="-63" font-family="Helvetica,sans-Serif" font-size="10.00" fill="#000000">lrunoff</text>
<text text-anchor="middle" x="350.5" y="-52" font-family="Helvetica,sans-Serif" font-size="10.00" fill="#000000">sw_vis_dif</text>
<text text-anchor="middle" x="350.5" y="-41" font-family="Helvetica,sans-Serif" font-size="10.00" fill="#000000">...</text>
</g>
</g>
</svg>
