<?xml version="1.0" encoding="UTF-8" standalone="no"?>
<!DOCTYPE svg PUBLIC "-//W3C//DTD SVG 1.1//EN"
 "http://www.w3.org/Graphics/SVG/1.1/DTD/svg11.dtd">
<!-- Generated by graphviz version 2.40.1 (20161225.0304)
 -->
<!-- Title: mom_ale::ale_cs Pages: 1 -->
<!--zoomable 227 -->
<svg id="main" version="1.1" xmlns="http://www.w3.org/2000/svg" xmlns:xlink="http://www.w3.org/1999/xlink" xml:space="preserve" onload="init(evt)">
<style type="text/css"><![CDATA[
.edge:hover path { stroke: red; }
.edge:hover polygon { stroke: red; fill: red; }
]]></style>
<script type="text/javascript"><![CDATA[
var edges = document.getElementsByTagName('g');
if (edges && edges.length) {
  for (var i=0;i<edges.length;i++) {
    if (edges[i].id.substr(0,4)=='edge') {
      edges[i].setAttribute('class','edge');
    }
  }
}
]]></script>
        <defs>
                <circle id="rim" cx="0" cy="0" r="7"/>
                <circle id="rim2" cx="0" cy="0" r="3.5"/>
                <g id="zoomPlus">
                        <use xlink:href="#rim" fill="#404040">
                                <set attributeName="fill" to="#808080" begin="zoomplus.mouseover" end="zoomplus.mouseout"/>
                        </use>
                        <path d="M-4,0h8M0,-4v8" fill="none" stroke="white" stroke-width="1.5" pointer-events="none"/>
                </g>
                <g id="zoomMin">
                        <use xlink:href="#rim" fill="#404040">
                                <set attributeName="fill" to="#808080" begin="zoomminus.mouseover" end="zoomminus.mouseout"/>
                        </use>
                        <path d="M-4,0h8" fill="none" stroke="white" stroke-width="1.5" pointer-events="none"/>
                </g>
                <g id="dirArrow">
                        <path fill="none" stroke="white" stroke-width="1.5" d="M0,-3.0v7 M-2.5,-0.5L0,-3.0L2.5,-0.5"/>
                </g>
               <g id="resetDef">
                       <use xlink:href="#rim2" fill="#404040">
                               <set attributeName="fill" to="#808080" begin="reset.mouseover" end="reset.mouseout"/>
                       </use>
               </g>
        </defs>

<script type="text/javascript">
var viewWidth = 641;
var viewHeight = 227;
var sectionId = 'dynsection-0';
</script>
<script xlink:href="svgpan.js"/>
<svg id="graph" class="graph">
<g id="viewport">
<title>mom_ale::ale_cs</title>
<polygon fill="#ffffff" stroke="transparent" points="-4,4 -4,-223 637,-223 637,4 -4,4"/>
<!-- Node1 -->
<g id="node1" class="node">
<title>Node1</title>
<g id="a_node1"><a xlink:title="ALE control structure.">
<polygon fill="#bfbfbf" stroke="#000000" points="228.5,-.5 228.5,-19.5 319.5,-19.5 319.5,-.5 228.5,-.5"/>
<text text-anchor="middle" x="274" y="-7.5" font-family="Helvetica,sans-Serif" font-size="10.00" fill="#000000">mom_ale::ale_cs</text>
</a>
</g>
</g>
<!-- Node2 -->
<g id="node2" class="node">
<title>Node2</title>
<g id="a_node2"><a xlink:title=" ">
<polygon fill="#ffffff" stroke="#bfbfbf" points="0,-199.5 0,-218.5 44,-218.5 44,-199.5 0,-199.5"/>
<text text-anchor="middle" x="22" y="-206.5" font-family="Helvetica,sans-Serif" font-size="10.00" fill="#000000">logical</text>
</a>
</g>
</g>
<!-- Node2&#45;&gt;Node1 -->
<g id="edge1" class="edge">
<title>Node2&#45;&gt;Node1</title>
<path fill="none" stroke="#9a32cd" stroke-dasharray="5,2" d="M15.8227,-189.6677C5.8967,-154.4188 -8.806,-79.5182 30,-38 43.2841,-23.7875 161.6319,-15.6089 228.4945,-12.0842"/>
<polygon fill="#9a32cd" stroke="#9a32cd" points="12.4701,-190.6728 18.6853,-199.2531 19.1774,-188.6697 12.4701,-190.6728"/>
<text text-anchor="middle" x="84.5" y="-129" font-family="Helvetica,sans-Serif" font-size="10.00" fill="#000000"> answers_2018</text>
<text text-anchor="middle" x="84.5" y="-118" font-family="Helvetica,sans-Serif" font-size="10.00" fill="#000000">remap_after_initialization</text>
<text text-anchor="middle" x="84.5" y="-107" font-family="Helvetica,sans-Serif" font-size="10.00" fill="#000000">show_call_tree</text>
<text text-anchor="middle" x="84.5" y="-96" font-family="Helvetica,sans-Serif" font-size="10.00" fill="#000000">do_tendency_diag</text>
<text text-anchor="middle" x="84.5" y="-85" font-family="Helvetica,sans-Serif" font-size="10.00" fill="#000000">remap_uv_using_old_alg</text>
</g>
<!-- Node3 -->
<g id="node3" class="node">
<title>Node3</title>
<g id="a_node3"><a xlink:title=" ">
<polygon fill="#ffffff" stroke="#bfbfbf" points="105.5,-199.5 105.5,-218.5 182.5,-218.5 182.5,-199.5 105.5,-199.5"/>
<text text-anchor="middle" x="144" y="-206.5" font-family="Helvetica,sans-Serif" font-size="10.00" fill="#000000">remapping_cs</text>
</a>
</g>
</g>
<!-- Node3&#45;&gt;Node1 -->
<g id="edge2" class="edge">
<title>Node3&#45;&gt;Node1</title>
<path fill="none" stroke="#9a32cd" stroke-dasharray="5,2" d="M143.3151,-188.9903C143.228,-153.7543 148.2213,-80.3633 188,-38 194.3952,-31.1892 213.4277,-24.6601 231.9669,-19.6225"/>
<polygon fill="#9a32cd" stroke="#9a32cd" points="139.8223,-189.4399 143.4965,-199.3772 146.8213,-189.3176 139.8223,-189.4399"/>
<text text-anchor="middle" x="208.5" y="-107" font-family="Helvetica,sans-Serif" font-size="10.00" fill="#000000"> remapcs</text>
</g>
<!-- Node4 -->
<g id="node4" class="node">
<title>Node4</title>
<g id="a_node4"><a xlink:title=" ">
<polygon fill="#ffffff" stroke="#bfbfbf" points="200.5,-199.5 200.5,-218.5 253.5,-218.5 253.5,-199.5 200.5,-199.5"/>
<text text-anchor="middle" x="227" y="-206.5" font-family="Helvetica,sans-Serif" font-size="10.00" fill="#000000">diag_ctrl</text>
</a>
</g>
</g>
<!-- Node4&#45;&gt;Node1 -->
<g id="edge3" class="edge">
<title>Node4&#45;&gt;Node1</title>
<path fill="none" stroke="#9a32cd" stroke-dasharray="5,2" d="M231.5812,-189.6028C241.4647,-147.7557 264.4832,-50.2944 271.7558,-19.5019"/>
<polygon fill="#9a32cd" stroke="#9a32cd" points="228.1593,-188.865 229.2669,-199.4018 234.9718,-190.4741 228.1593,-188.865"/>
<text text-anchor="middle" x="278" y="-107" font-family="Helvetica,sans-Serif" font-size="10.00" fill="#000000"> diag</text>
</g>
<!-- Node5 -->
<g id="node5" class="node">
<title>Node5</title>
<g id="a_node5"><a xlink:title=" ">
<polygon fill="#ffffff" stroke="#bfbfbf" points="271.5,-199.5 271.5,-218.5 370.5,-218.5 370.5,-199.5 271.5,-199.5"/>
<text text-anchor="middle" x="321" y="-206.5" font-family="Helvetica,sans-Serif" font-size="10.00" fill="#000000">type(regridding_cs)</text>
</a>
</g>
</g>
<!-- Node5&#45;&gt;Node1 -->
<g id="edge4" class="edge">
<title>Node5&#45;&gt;Node1</title>
<path fill="none" stroke="#9a32cd" stroke-dasharray="5,2" d="M320.5124,-189.3277C319.1135,-156.7401 313.7225,-89.9956 293,-38 290.3466,-31.3422 285.9071,-24.671 281.9865,-19.5112"/>
<polygon fill="#9a32cd" stroke="#9a32cd" points="317.0153,-189.4768 320.8593,-199.3497 324.0111,-189.2346 317.0153,-189.4768"/>
<text text-anchor="middle" x="339" y="-107" font-family="Helvetica,sans-Serif" font-size="10.00" fill="#000000"> regridcs</text>
</g>
<!-- Node6 -->
<g id="node6" class="node">
<title>Node6</title>
<g id="a_node6"><a xlink:title=" ">
<polygon fill="#ffffff" stroke="#bfbfbf" points="389,-199.5 389,-218.5 435,-218.5 435,-199.5 389,-199.5"/>
<text text-anchor="middle" x="412" y="-206.5" font-family="Helvetica,sans-Serif" font-size="10.00" fill="#000000">integer</text>
</a>
</g>
</g>
<!-- Node6&#45;&gt;Node1 -->
<g id="edge5" class="edge">
<title>Node6&#45;&gt;Node1</title>
<path fill="none" stroke="#9a32cd" stroke-dasharray="5,2" d="M401.9451,-190.2795C400.5082,-187.2264 399.1351,-184.0606 398,-181 375.2111,-119.551 406.8978,-85.7441 362,-38 355.465,-31.0507 335.9905,-24.5119 317.0183,-19.5035"/>
<polygon fill="#9a32cd" stroke="#9a32cd" points="398.9101,-192.0341 406.5411,-199.3838 405.159,-188.8795 398.9101,-192.0341"/>
<text text-anchor="middle" x="460" y="-173" font-family="Helvetica,sans-Serif" font-size="10.00" fill="#000000"> id_htracer_remap_tendency</text>
<text text-anchor="middle" x="460" y="-162" font-family="Helvetica,sans-Serif" font-size="10.00" fill="#000000">id_dzregrid</text>
<text text-anchor="middle" x="460" y="-151" font-family="Helvetica,sans-Serif" font-size="10.00" fill="#000000">id_v_preale</text>
<text text-anchor="middle" x="460" y="-140" font-family="Helvetica,sans-Serif" font-size="10.00" fill="#000000">id_s_preale</text>
<text text-anchor="middle" x="460" y="-129" font-family="Helvetica,sans-Serif" font-size="10.00" fill="#000000">id_h_preale</text>
<text text-anchor="start" x="398" y="-118" font-family="Helvetica,sans-Serif" font-size="10.00" fill="#000000">id_tracer_remap</text>
<text text-anchor="middle" x="460" y="-107" font-family="Helvetica,sans-Serif" font-size="10.00" fill="#000000">_tendency</text>
<text text-anchor="start" x="398" y="-96" font-family="Helvetica,sans-Serif" font-size="10.00" fill="#000000">id_htracer_remap</text>
<text text-anchor="middle" x="460" y="-85" font-family="Helvetica,sans-Serif" font-size="10.00" fill="#000000">_tendency_2d</text>
<text text-anchor="middle" x="460" y="-74" font-family="Helvetica,sans-Serif" font-size="10.00" fill="#000000">id_u_preale</text>
<text text-anchor="middle" x="460" y="-63" font-family="Helvetica,sans-Serif" font-size="10.00" fill="#000000">id_e_preale</text>
<text text-anchor="middle" x="460" y="-52" font-family="Helvetica,sans-Serif" font-size="10.00" fill="#000000">id_t_preale</text>
<text text-anchor="middle" x="460" y="-41" font-family="Helvetica,sans-Serif" font-size="10.00" fill="#000000">...</text>
</g>
<!-- Node7 -->
<g id="node7" class="node">
<title>Node7</title>
<g id="a_node7"><a xlink:title=" ">
<polygon fill="#ffffff" stroke="#bfbfbf" points="528,-199.5 528,-218.5 560,-218.5 560,-199.5 528,-199.5"/>
<text text-anchor="middle" x="544" y="-206.5" font-family="Helvetica,sans-Serif" font-size="10.00" fill="#000000">real</text>
</a>
</g>
</g>
<!-- Node7&#45;&gt;Node1 -->
<g id="edge6" class="edge">
<title>Node7&#45;&gt;Node1</title>
<path fill="none" stroke="#9a32cd" stroke-dasharray="5,2" d="M548.407,-188.9425C554.9828,-153.0789 562.6091,-77.9835 522,-38 507.8746,-24.0922 387.2157,-15.7602 319.551,-12.1392"/>
<polygon fill="#9a32cd" stroke="#9a32cd" points="544.9019,-188.6214 546.3714,-199.1138 551.7658,-189.9951 544.9019,-188.6214"/>
<text text-anchor="middle" x="593" y="-107" font-family="Helvetica,sans-Serif" font-size="10.00" fill="#000000"> regrid_time_scale</text>
</g>
</g>
</svg>
        <g id="navigator" transform="translate(0 0)" fill="#404254">
                <rect fill="#f2f5e9" fill-opacity="0.5" stroke="#606060" stroke-width=".5" x="0" y="0" width="60" height="60"/>
                <use id="zoomplus" xlink:href="#zoomPlus" x="17" y="9" onmousedown="handleZoom(evt,'in')"/>
                <use id="zoomminus" xlink:href="#zoomMin" x="42" y="9" onmousedown="handleZoom(evt,'out')"/>
                <use id="reset" xlink:href="#resetDef" x="30" y="36" onmousedown="handleReset()"/>
                <g id="arrowUp" xlink:href="#dirArrow" transform="translate(30 24)" onmousedown="handlePan(0,-1)">
                  <use xlink:href="#rim" fill="#404040">
                        <set attributeName="fill" to="#808080" begin="arrowUp.mouseover" end="arrowUp.mouseout"/>
                  </use>
                  <path fill="none" stroke="white" stroke-width="1.5" d="M0,-3.0v7 M-2.5,-0.5L0,-3.0L2.5,-0.5"/>
                </g>
                <g id="arrowRight" xlink:href="#dirArrow" transform="rotate(90) translate(36 -43)" onmousedown="handlePan(1,0)">
                  <use xlink:href="#rim" fill="#404040">
                        <set attributeName="fill" to="#808080" begin="arrowRight.mouseover" end="arrowRight.mouseout"/>
                  </use>
                  <path fill="none" stroke="white" stroke-width="1.5" d="M0,-3.0v7 M-2.5,-0.5L0,-3.0L2.5,-0.5"/>
                </g>
                <g id="arrowDown" xlink:href="#dirArrow" transform="rotate(180) translate(-30 -48)" onmousedown="handlePan(0,1)">
                  <use xlink:href="#rim" fill="#404040">
                        <set attributeName="fill" to="#808080" begin="arrowDown.mouseover" end="arrowDown.mouseout"/>
                  </use>
                  <path fill="none" stroke="white" stroke-width="1.5" d="M0,-3.0v7 M-2.5,-0.5L0,-3.0L2.5,-0.5"/>
                </g>
                <g id="arrowLeft" xlink:href="#dirArrow" transform="rotate(270) translate(-36 17)" onmousedown="handlePan(-1,0)">
                  <use xlink:href="#rim" fill="#404040">
                        <set attributeName="fill" to="#808080" begin="arrowLeft.mouseover" end="arrowLeft.mouseout"/>
                  </use>
                  <path fill="none" stroke="white" stroke-width="1.5" d="M0,-3.0v7 M-2.5,-0.5L0,-3.0L2.5,-0.5"/>
                </g>
        </g>
        <svg viewBox="0 0 15 15" width="100%" height="30px" preserveAspectRatio="xMaxYMin meet">
         <g id="arrow_out" transform="scale(0.3 0.3)">
          <a xlink:href="structmom__ale_1_1ale__cs__coll__graph_org.svg" target="_base">
           <rect id="button" ry="5" rx="5" y="6" x="6" height="38" width="38"
                fill="#f2f5e9" fill-opacity="0.5" stroke="#606060" stroke-width="1.0"/>
           <path id="arrow"
             d="M 11.500037,31.436501 C 11.940474,20.09759 22.043105,11.32322 32.158766,21.979434 L 37.068811,17.246167 C 37.068811,17.246167 37.088388,32 37.088388,32 L 22.160133,31.978069 C 22.160133,31.978069 26.997745,27.140456 26.997745,27.140456 C 18.528582,18.264221 13.291696,25.230495 11.500037,31.436501 z"
             style="fill:#404040;"/>
          </a>
         </g>
        </svg>
</svg>
