<?xml version="1.0" encoding="UTF-8" standalone="no"?>
<!DOCTYPE svg PUBLIC "-//W3C//DTD SVG 1.1//EN"
 "http://www.w3.org/Graphics/SVG/1.1/DTD/svg11.dtd">
<!-- Generated by graphviz version 2.40.1 (20161225.0304)
 -->
<!-- Title: mom_diag_mediator::axes_grp Pages: 1 -->
<svg width="976pt" height="1134pt"
 viewBox="0.00 0.00 976.00 1134.00" xmlns="http://www.w3.org/2000/svg" xmlns:xlink="http://www.w3.org/1999/xlink">
<g id="graph0" class="graph" transform="scale(1 1) rotate(0) translate(4 1130)">
<title>mom_diag_mediator::axes_grp</title>
<polygon fill="#ffffff" stroke="transparent" points="-4,4 -4,-1130 972,-1130 972,4 -4,4"/>
<!-- Node1 -->
<g id="node1" class="node">
<title>Node1</title>
<g id="a_node1"><a xlink:title="A group of 1D axes that comprise a 1D/2D/3D mesh.">
<polygon fill="#bfbfbf" stroke="#000000" points="358,-270 358,-300 475,-300 475,-270 358,-270"/>
<text text-anchor="start" x="366" y="-288" font-family="Helvetica,sans-Serif" font-size="10.00" fill="#000000">mom_diag_mediator::</text>
<text text-anchor="middle" x="416.5" y="-277" font-family="Helvetica,sans-Serif" font-size="10.00" fill="#000000">axes_grp</text>
</a>
</g>
</g>
<!-- Node1&#45;&gt;Node1 -->
<g id="edge30" class="edge">
<title>Node1&#45;&gt;Node1</title>
<path fill="none" stroke="#9a32cd" stroke-dasharray="5,2" d="M394.8221,-310.4579C397.5126,-315.179 404.7386,-318.5 416.5,-318.5 435.8008,-318.5 442.8878,-309.5566 437.761,-300.159"/>
<polygon fill="#9a32cd" stroke="#9a32cd" points="398.3315,-310.2924 395.239,-300.159 391.3373,-310.0092 398.3315,-310.2924"/>
<text text-anchor="middle" x="416.5" y="-321.5" font-family="Helvetica,sans-Serif" font-size="10.00" fill="#000000"> xyave_axes</text>
</g>
<!-- Node3 -->
<g id="node3" class="node">
<title>Node3</title>
<g id="a_node3"><a xlink:href="structmom__diag__mediator_1_1diag__ctrl.html" target="_top" xlink:title="The following data type a list of diagnostic fields an their variants, as well as variables that cont...">
<polygon fill="#ffffff" stroke="#000000" points="851,-321 851,-351 968,-351 968,-321 851,-321"/>
<text text-anchor="start" x="859" y="-339" font-family="Helvetica,sans-Serif" font-size="10.00" fill="#000000">mom_diag_mediator::</text>
<text text-anchor="middle" x="909.5" y="-328" font-family="Helvetica,sans-Serif" font-size="10.00" fill="#000000">diag_ctrl</text>
</a>
</g>
</g>
<!-- Node1&#45;&gt;Node3 -->
<g id="edge24" class="edge">
<title>Node1&#45;&gt;Node3</title>
<path fill="none" stroke="#9a32cd" stroke-dasharray="5,2" d="M484.0971,-267.8226C549.8812,-253.796 652.3198,-239.1141 739,-258 794.4997,-270.0923 853.5578,-301.9408 885.5361,-320.9938"/>
<polygon fill="#9a32cd" stroke="#9a32cd" points="483.2845,-264.4175 474.263,-269.9729 484.7798,-271.2559 483.2845,-264.4175"/>
<text text-anchor="middle" x="676" y="-371" font-family="Helvetica,sans-Serif" font-size="10.00" fill="#000000"> remap_axescvi</text>
<text text-anchor="middle" x="676" y="-360" font-family="Helvetica,sans-Serif" font-size="10.00" fill="#000000">remap_axesbi</text>
<text text-anchor="middle" x="676" y="-349" font-family="Helvetica,sans-Serif" font-size="10.00" fill="#000000">axeszi</text>
<text text-anchor="middle" x="676" y="-338" font-family="Helvetica,sans-Serif" font-size="10.00" fill="#000000">axescui</text>
<text text-anchor="middle" x="676" y="-327" font-family="Helvetica,sans-Serif" font-size="10.00" fill="#000000">axest1</text>
<text text-anchor="middle" x="676" y="-316" font-family="Helvetica,sans-Serif" font-size="10.00" fill="#000000">remap_axesti</text>
<text text-anchor="middle" x="676" y="-305" font-family="Helvetica,sans-Serif" font-size="10.00" fill="#000000">remap_axescvl</text>
<text text-anchor="middle" x="676" y="-294" font-family="Helvetica,sans-Serif" font-size="10.00" fill="#000000">remap_axesbl</text>
<text text-anchor="middle" x="676" y="-283" font-family="Helvetica,sans-Serif" font-size="10.00" fill="#000000">axesb1</text>
<text text-anchor="middle" x="676" y="-272" font-family="Helvetica,sans-Serif" font-size="10.00" fill="#000000">axesnull</text>
<text text-anchor="middle" x="676" y="-261" font-family="Helvetica,sans-Serif" font-size="10.00" fill="#000000">...</text>
</g>
<!-- Node9 -->
<g id="node9" class="node">
<title>Node9</title>
<g id="a_node9"><a xlink:href="structmom__diag__mediator_1_1diag__type.html" target="_top" xlink:title="This type is used to represent a diagnostic at the diag_mediator level.">
<polygon fill="#ffffff" stroke="#000000" points="617.5,-722 617.5,-752 734.5,-752 734.5,-722 617.5,-722"/>
<text text-anchor="start" x="625.5" y="-740" font-family="Helvetica,sans-Serif" font-size="10.00" fill="#000000">mom_diag_mediator::</text>
<text text-anchor="middle" x="676" y="-729" font-family="Helvetica,sans-Serif" font-size="10.00" fill="#000000">diag_type</text>
</a>
</g>
</g>
<!-- Node1&#45;&gt;Node9 -->
<g id="edge14" class="edge">
<title>Node1&#45;&gt;Node9</title>
<path fill="none" stroke="#9a32cd" stroke-dasharray="5,2" d="M425.08,-310.0534C436.9975,-342.5901 460.7848,-400.1619 493,-442 529.5281,-489.4393 560.4083,-481.1307 595,-530 640.0377,-593.6269 664.4325,-685.7248 672.7201,-721.7476"/>
<polygon fill="#9a32cd" stroke="#9a32cd" points="428.2975,-308.6564 421.6322,-300.4208 421.707,-311.0154 428.2975,-308.6564"/>
<text text-anchor="middle" x="544" y="-533" font-family="Helvetica,sans-Serif" font-size="10.00" fill="#000000"> axes</text>
</g>
<!-- Node14 -->
<g id="node14" class="node">
<title>Node14</title>
<g id="a_node14"><a xlink:href="structmom__diag__mediator_1_1diagcs__dsamp.html" target="_top" xlink:title="Container for down sampling information.">
<polygon fill="#ffffff" stroke="#000000" points="617.5,-445 617.5,-475 734.5,-475 734.5,-445 617.5,-445"/>
<text text-anchor="start" x="625.5" y="-463" font-family="Helvetica,sans-Serif" font-size="10.00" fill="#000000">mom_diag_mediator::</text>
<text text-anchor="middle" x="676" y="-452" font-family="Helvetica,sans-Serif" font-size="10.00" fill="#000000">diagcs_dsamp</text>
</a>
</g>
</g>
<!-- Node1&#45;&gt;Node14 -->
<g id="edge21" class="edge">
<title>Node1&#45;&gt;Node14</title>
<path fill="none" stroke="#9a32cd" stroke-dasharray="5,2" d="M485.52,-293.5025C532.3404,-299.9203 587.1185,-308.9639 595,-317 630.6093,-353.3077 582.5409,-389.2751 613,-430 617.5711,-436.1117 623.7077,-441.0321 630.3626,-444.9775"/>
<polygon fill="#9a32cd" stroke="#9a32cd" points="485.7417,-290.0008 475.3638,-292.1336 484.8066,-296.938 485.7417,-290.0008"/>
<text text-anchor="middle" x="544" y="-430" font-family="Helvetica,sans-Serif" font-size="10.00" fill="#000000"> remap_axescvi</text>
<text text-anchor="middle" x="544" y="-419" font-family="Helvetica,sans-Serif" font-size="10.00" fill="#000000">remap_axesbi</text>
<text text-anchor="middle" x="544" y="-408" font-family="Helvetica,sans-Serif" font-size="10.00" fill="#000000">axescui</text>
<text text-anchor="middle" x="544" y="-397" font-family="Helvetica,sans-Serif" font-size="10.00" fill="#000000">axest1</text>
<text text-anchor="middle" x="544" y="-386" font-family="Helvetica,sans-Serif" font-size="10.00" fill="#000000">remap_axesti</text>
<text text-anchor="middle" x="544" y="-375" font-family="Helvetica,sans-Serif" font-size="10.00" fill="#000000">remap_axescvl</text>
<text text-anchor="middle" x="544" y="-364" font-family="Helvetica,sans-Serif" font-size="10.00" fill="#000000">remap_axesbl</text>
<text text-anchor="middle" x="544" y="-353" font-family="Helvetica,sans-Serif" font-size="10.00" fill="#000000">axesb1</text>
<text text-anchor="middle" x="544" y="-342" font-family="Helvetica,sans-Serif" font-size="10.00" fill="#000000">axescvi</text>
<text text-anchor="middle" x="544" y="-331" font-family="Helvetica,sans-Serif" font-size="10.00" fill="#000000">axescul</text>
<text text-anchor="middle" x="544" y="-320" font-family="Helvetica,sans-Serif" font-size="10.00" fill="#000000">...</text>
</g>
<!-- Node2 -->
<g id="node2" class="node">
<title>Node2</title>
<g id="a_node2"><a xlink:title=" ">
<polygon fill="#ffffff" stroke="#bfbfbf" points="146,-786.5 146,-805.5 193,-805.5 193,-786.5 146,-786.5"/>
<text text-anchor="middle" x="169.5" y="-793.5" font-family="Helvetica,sans-Serif" font-size="10.00" fill="#000000">logical</text>
</a>
</g>
</g>
<!-- Node2&#45;&gt;Node1 -->
<g id="edge1" class="edge">
<title>Node2&#45;&gt;Node1</title>
<path fill="none" stroke="#9a32cd" stroke-dasharray="5,2" d="M181.5557,-777.6864C196.4357,-755.2014 222.6401,-715.9894 246,-683 286.5817,-625.6896 312.2164,-620.4937 340,-556 358.0399,-514.1243 346.5473,-499.1344 358,-455 373.1309,-396.6911 398.6972,-329.6774 410.3642,-300.2254"/>
<polygon fill="#9a32cd" stroke="#9a32cd" points="178.5026,-775.9583 175.9132,-786.2318 184.3441,-779.8154 178.5026,-775.9583"/>
<text text-anchor="middle" x="293" y="-774" font-family="Helvetica,sans-Serif" font-size="10.00" fill="#000000"> needs_remapping</text>
<text text-anchor="middle" x="293" y="-763" font-family="Helvetica,sans-Serif" font-size="10.00" fill="#000000">is_q_point</text>
<text text-anchor="middle" x="293" y="-752" font-family="Helvetica,sans-Serif" font-size="10.00" fill="#000000">is_interface</text>
<text text-anchor="middle" x="293" y="-741" font-family="Helvetica,sans-Serif" font-size="10.00" fill="#000000">is_u_point</text>
<text text-anchor="middle" x="293" y="-730" font-family="Helvetica,sans-Serif" font-size="10.00" fill="#000000">is_v_point</text>
<text text-anchor="middle" x="293" y="-719" font-family="Helvetica,sans-Serif" font-size="10.00" fill="#000000">is_layer</text>
<text text-anchor="middle" x="293" y="-708" font-family="Helvetica,sans-Serif" font-size="10.00" fill="#000000">is_native</text>
<text text-anchor="middle" x="293" y="-697" font-family="Helvetica,sans-Serif" font-size="10.00" fill="#000000">needs_interpolating</text>
<text text-anchor="middle" x="293" y="-686" font-family="Helvetica,sans-Serif" font-size="10.00" fill="#000000">is_h_point</text>
</g>
<!-- Node2&#45;&gt;Node3 -->
<g id="edge3" class="edge">
<title>Node2&#45;&gt;Node3</title>
<path fill="none" stroke="#9a32cd" stroke-dasharray="5,2" d="M202.9224,-805.722C294.9749,-830.4971 557.3988,-887.4934 739,-791 795.789,-760.8253 804.297,-738.5469 833,-681 891.5998,-563.5128 905.6856,-401.3665 908.7302,-351.3245"/>
<polygon fill="#9a32cd" stroke="#9a32cd" points="203.6229,-802.2848 193.053,-803.0117 201.7692,-809.0349 203.6229,-802.2848"/>
<text text-anchor="middle" x="544" y="-870" font-family="Helvetica,sans-Serif" font-size="10.00" fill="#000000"> ave_enabled</text>
<text text-anchor="middle" x="544" y="-859" font-family="Helvetica,sans-Serif" font-size="10.00" fill="#000000">diag_as_chksum</text>
<text text-anchor="middle" x="544" y="-848" font-family="Helvetica,sans-Serif" font-size="10.00" fill="#000000">diag_grid_overridden</text>
</g>
<!-- Node2&#45;&gt;Node9 -->
<g id="edge11" class="edge">
<title>Node2&#45;&gt;Node9</title>
<path fill="none" stroke="#9a32cd" stroke-dasharray="5,2" d="M203.0382,-800.4667C238.9672,-803.6657 296.6638,-804.1251 340,-782 350.9484,-776.4103 347.0332,-766.5535 358,-761 401.8983,-738.7702 538.1448,-735.8398 617.3347,-736.1254"/>
<polygon fill="#9a32cd" stroke="#9a32cd" points="203.3708,-796.9826 193.0693,-799.4584 202.6663,-803.9471 203.3708,-796.9826"/>
<text text-anchor="middle" x="416.5" y="-775" font-family="Helvetica,sans-Serif" font-size="10.00" fill="#000000"> v_extensive</text>
<text text-anchor="middle" x="416.5" y="-764" font-family="Helvetica,sans-Serif" font-size="10.00" fill="#000000">in_use</text>
</g>
<!-- Node3&#45;&gt;Node1 -->
<g id="edge2" class="edge">
<title>Node3&#45;&gt;Node1</title>
<path fill="none" stroke="#9a32cd" stroke-dasharray="5,2" d="M857.8646,-354.14C824.4379,-364.9034 779.7098,-377.4917 739,-383 683.5057,-390.5087 656.4652,-418.3097 613,-383 582.6904,-358.3775 624.4663,-322.6257 595,-297 562.7747,-268.9749 513.6716,-267.593 475.1177,-272.3186"/>
<polygon fill="#9a32cd" stroke="#9a32cd" points="859.0024,-357.4504 867.4184,-351.0145 856.8258,-350.7974 859.0024,-357.4504"/>
<text text-anchor="middle" x="676" y="-403" font-family="Helvetica,sans-Serif" font-size="10.00" fill="#000000"> diag_cs</text>
</g>
<!-- Node4 -->
<g id="node4" class="node">
<title>Node4</title>
<g id="a_node4"><a xlink:title=" ">
<polygon fill="#ffffff" stroke="#bfbfbf" points="631,-202.5 631,-221.5 721,-221.5 721,-202.5 631,-202.5"/>
<text text-anchor="middle" x="676" y="-209.5" font-family="Helvetica,sans-Serif" font-size="10.00" fill="#000000">unit_scale_type</text>
</a>
</g>
</g>
<!-- Node4&#45;&gt;Node3 -->
<g id="edge4" class="edge">
<title>Node4&#45;&gt;Node3</title>
<path fill="none" stroke="#9a32cd" stroke-dasharray="5,2" d="M731.3222,-209.0874C763.0652,-209.8328 802.5352,-215.0489 833,-233 868.1191,-253.6936 892.1205,-297.435 902.9531,-320.6986"/>
<polygon fill="#9a32cd" stroke="#9a32cd" points="731.3417,-205.5875 721.3087,-208.992 731.2749,-212.5872 731.3417,-205.5875"/>
<text text-anchor="middle" x="795" y="-236" font-family="Helvetica,sans-Serif" font-size="10.00" fill="#000000"> us</text>
</g>
<!-- Node5 -->
<g id="node5" class="node">
<title>Node5</title>
<g id="a_node5"><a xlink:href="structmom__diag__mediator_1_1diag__grid__storage.html" target="_top" xlink:title="Stores all the remapping grids and the model&#39;s native space thicknesses.">
<polygon fill="#ffffff" stroke="#000000" points="358,-917 358,-947 475,-947 475,-917 358,-917"/>
<text text-anchor="start" x="366" y="-935" font-family="Helvetica,sans-Serif" font-size="10.00" fill="#000000">mom_diag_mediator::</text>
<text text-anchor="middle" x="416.5" y="-924" font-family="Helvetica,sans-Serif" font-size="10.00" fill="#000000">diag_grid_storage</text>
</a>
</g>
</g>
<!-- Node5&#45;&gt;Node3 -->
<g id="edge5" class="edge">
<title>Node5&#45;&gt;Node3</title>
<path fill="none" stroke="#9a32cd" stroke-dasharray="5,2" d="M485.2291,-941.2695C578.3703,-949.5843 743.3133,-948.5127 833,-854 868.7849,-816.2896 901.6989,-432.3799 908.3006,-351.0764"/>
<polygon fill="#9a32cd" stroke="#9a32cd" points="485.3521,-937.7654 475.0647,-940.2993 484.6868,-944.7338 485.3521,-937.7654"/>
<text text-anchor="middle" x="676" y="-944" font-family="Helvetica,sans-Serif" font-size="10.00" fill="#000000"> diag_grid_temp</text>
</g>
<!-- Node6 -->
<g id="node6" class="node">
<title>Node6</title>
<g id="a_node6"><a xlink:href="structmom__diag__mediator_1_1diag__grids__type.html" target="_top" xlink:title="Contains an array to store a diagnostic target grid.">
<polygon fill="#ffffff" stroke="#000000" points="111,-899 111,-929 228,-929 228,-899 111,-899"/>
<text text-anchor="start" x="119" y="-917" font-family="Helvetica,sans-Serif" font-size="10.00" fill="#000000">mom_diag_mediator::</text>
<text text-anchor="middle" x="169.5" y="-906" font-family="Helvetica,sans-Serif" font-size="10.00" fill="#000000">diag_grids_type</text>
</a>
</g>
</g>
<!-- Node6&#45;&gt;Node5 -->
<g id="edge6" class="edge">
<title>Node6&#45;&gt;Node5</title>
<path fill="none" stroke="#9a32cd" stroke-dasharray="5,2" d="M238.4052,-919.0214C276.0207,-921.7626 322.096,-925.1204 357.9571,-927.7337"/>
<polygon fill="#9a32cd" stroke="#9a32cd" points="238.2635,-915.5019 228.0356,-918.2657 237.7547,-922.4834 238.2635,-915.5019"/>
<text text-anchor="middle" x="293" y="-929" font-family="Helvetica,sans-Serif" font-size="10.00" fill="#000000"> diag_grids</text>
</g>
<!-- Node7 -->
<g id="node7" class="node">
<title>Node7</title>
<g id="a_node7"><a xlink:title=" ">
<polygon fill="#ffffff" stroke="#bfbfbf" points="0,-860.5 0,-879.5 35,-879.5 35,-860.5 0,-860.5"/>
<text text-anchor="middle" x="17.5" y="-867.5" font-family="Helvetica,sans-Serif" font-size="10.00" fill="#000000">real</text>
</a>
</g>
</g>
<!-- Node7&#45;&gt;Node1 -->
<g id="edge31" class="edge">
<title>Node7&#45;&gt;Node1</title>
<path fill="none" stroke="#9a32cd" stroke-dasharray="5,2" d="M17.9919,-850.1834C20.1812,-767.7103 29.964,-454.245 53,-417 117.0115,-313.5051 272.5952,-290.3923 357.9961,-285.7187"/>
<polygon fill="#9a32cd" stroke="#9a32cd" points="14.4917,-850.1479 17.7328,-860.2348 21.4894,-850.3284 14.4917,-850.1479"/>
<text text-anchor="middle" x="169.5" y="-370" font-family="Helvetica,sans-Serif" font-size="10.00" fill="#000000"> mask3d</text>
<text text-anchor="middle" x="169.5" y="-359" font-family="Helvetica,sans-Serif" font-size="10.00" fill="#000000">mask2d</text>
</g>
<!-- Node7&#45;&gt;Node3 -->
<g id="edge27" class="edge">
<title>Node7&#45;&gt;Node3</title>
<path fill="none" stroke="#9a32cd" stroke-dasharray="5,2" d="M24.8483,-889.398C30.8389,-903.309 40.3717,-921.8408 53,-935 94.8251,-978.5833 109.0944,-1005 169.5,-1005 169.5,-1005 169.5,-1005 676,-1005 761.4559,-1005 788.6385,-967.0395 833,-894 890.8661,-798.7257 906.339,-430.5459 909.0314,-351.1464"/>
<polygon fill="#9a32cd" stroke="#9a32cd" points="27.9678,-887.7771 20.9651,-879.8266 21.4813,-890.4088 27.9678,-887.7771"/>
<text text-anchor="middle" x="416.5" y="-1118" font-family="Helvetica,sans-Serif" font-size="10.00" fill="#000000"> mask3dbl</text>
<text text-anchor="middle" x="416.5" y="-1107" font-family="Helvetica,sans-Serif" font-size="10.00" fill="#000000">h</text>
<text text-anchor="middle" x="416.5" y="-1096" font-family="Helvetica,sans-Serif" font-size="10.00" fill="#000000">mask3dtl</text>
<text text-anchor="middle" x="416.5" y="-1085" font-family="Helvetica,sans-Serif" font-size="10.00" fill="#000000">time_int</text>
<text text-anchor="middle" x="416.5" y="-1074" font-family="Helvetica,sans-Serif" font-size="10.00" fill="#000000">mask3dcvi</text>
<text text-anchor="middle" x="416.5" y="-1063" font-family="Helvetica,sans-Serif" font-size="10.00" fill="#000000">mask3dcui</text>
<text text-anchor="middle" x="416.5" y="-1052" font-family="Helvetica,sans-Serif" font-size="10.00" fill="#000000">mask2dt</text>
<text text-anchor="middle" x="416.5" y="-1041" font-family="Helvetica,sans-Serif" font-size="10.00" fill="#000000">mask3dcvl</text>
<text text-anchor="middle" x="416.5" y="-1030" font-family="Helvetica,sans-Serif" font-size="10.00" fill="#000000">mask3dcul</text>
<text text-anchor="middle" x="416.5" y="-1019" font-family="Helvetica,sans-Serif" font-size="10.00" fill="#000000">missing_value</text>
<text text-anchor="middle" x="416.5" y="-1008" font-family="Helvetica,sans-Serif" font-size="10.00" fill="#000000">...</text>
</g>
<!-- Node7&#45;&gt;Node5 -->
<g id="edge8" class="edge">
<title>Node7&#45;&gt;Node5</title>
<path fill="none" stroke="#9a32cd" stroke-dasharray="5,2" d="M30.7076,-887.6979C36.9046,-895.2049 44.7393,-903.6641 53,-910 75.8685,-927.54 83.0004,-932.1708 111,-939 194.8833,-959.4593 295.5837,-951.0757 357.8155,-942.2536"/>
<polygon fill="#9a32cd" stroke="#9a32cd" points="33.194,-885.1981 24.2575,-879.5069 27.6944,-889.5288 33.194,-885.1981"/>
<text text-anchor="middle" x="169.5" y="-954" font-family="Helvetica,sans-Serif" font-size="10.00" fill="#000000"> h_state</text>
</g>
<!-- Node7&#45;&gt;Node6 -->
<g id="edge7" class="edge">
<title>Node7&#45;&gt;Node6</title>
<path fill="none" stroke="#9a32cd" stroke-dasharray="5,2" d="M44.4978,-881.0455C47.3509,-882.0931 50.2234,-883.0988 53,-884 71.5741,-890.0285 92.1211,-895.6553 110.7221,-900.3695"/>
<polygon fill="#9a32cd" stroke="#9a32cd" points="45.6299,-877.7311 35.0398,-877.4138 43.1206,-884.2659 45.6299,-877.7311"/>
<text text-anchor="middle" x="73" y="-898" font-family="Helvetica,sans-Serif" font-size="10.00" fill="#000000"> h</text>
</g>
<!-- Node7&#45;&gt;Node9 -->
<g id="edge15" class="edge">
<title>Node7&#45;&gt;Node9</title>
<path fill="none" stroke="#9a32cd" stroke-dasharray="5,2" d="M45.4276,-871.8185C154.3598,-878.6923 547.0604,-901.348 595,-874 641.8005,-847.3018 664.3008,-781.7871 672.3664,-752.0812"/>
<polygon fill="#9a32cd" stroke="#9a32cd" points="45.4363,-868.312 35.2339,-871.1688 44.991,-875.2978 45.4363,-868.312"/>
<text text-anchor="middle" x="293" y="-888" font-family="Helvetica,sans-Serif" font-size="10.00" fill="#000000"> conversion_factor</text>
</g>
<!-- Node7&#45;&gt;Node14 -->
<g id="edge22" class="edge">
<title>Node7&#45;&gt;Node14</title>
<path fill="none" stroke="#9a32cd" stroke-dasharray="5,2" d="M19.8427,-850.019C29.8549,-775.2314 76.61,-511.8407 246,-428 283.4424,-409.4676 298.2693,-426.0173 340,-428 437.4545,-432.6302 550.2727,-444.7738 617.2458,-452.6989"/>
<polygon fill="#9a32cd" stroke="#9a32cd" points="16.319,-849.9864 18.5381,-860.3462 23.2638,-850.8637 16.319,-849.9864"/>
<text text-anchor="middle" x="293" y="-541" font-family="Helvetica,sans-Serif" font-size="10.00" fill="#000000"> mask3dbl</text>
<text text-anchor="middle" x="293" y="-530" font-family="Helvetica,sans-Serif" font-size="10.00" fill="#000000">mask3dtl</text>
<text text-anchor="middle" x="293" y="-519" font-family="Helvetica,sans-Serif" font-size="10.00" fill="#000000">mask3dcvi</text>
<text text-anchor="middle" x="293" y="-508" font-family="Helvetica,sans-Serif" font-size="10.00" fill="#000000">mask3dcui</text>
<text text-anchor="middle" x="293" y="-497" font-family="Helvetica,sans-Serif" font-size="10.00" fill="#000000">mask2dt</text>
<text text-anchor="middle" x="293" y="-486" font-family="Helvetica,sans-Serif" font-size="10.00" fill="#000000">mask3dcvl</text>
<text text-anchor="middle" x="293" y="-475" font-family="Helvetica,sans-Serif" font-size="10.00" fill="#000000">mask3dcul</text>
<text text-anchor="middle" x="293" y="-464" font-family="Helvetica,sans-Serif" font-size="10.00" fill="#000000">mask2dbu</text>
<text text-anchor="middle" x="293" y="-453" font-family="Helvetica,sans-Serif" font-size="10.00" fill="#000000">mask2dcu</text>
<text text-anchor="middle" x="293" y="-442" font-family="Helvetica,sans-Serif" font-size="10.00" fill="#000000">mask3dbi</text>
<text text-anchor="middle" x="293" y="-431" font-family="Helvetica,sans-Serif" font-size="10.00" fill="#000000">...</text>
</g>
<!-- Node19 -->
<g id="node19" class="node">
<title>Node19</title>
<g id="a_node19"><a xlink:href="structmom__diag__mediator_1_1diag__dsamp.html" target="_top" xlink:title="Contained for down sampled masks.">
<polygon fill="#ffffff" stroke="#000000" points="111,-246 111,-276 228,-276 228,-246 111,-246"/>
<text text-anchor="start" x="119" y="-264" font-family="Helvetica,sans-Serif" font-size="10.00" fill="#000000">mom_diag_mediator::</text>
<text text-anchor="middle" x="169.5" y="-253" font-family="Helvetica,sans-Serif" font-size="10.00" fill="#000000">diag_dsamp</text>
</a>
</g>
</g>
<!-- Node7&#45;&gt;Node19 -->
<g id="edge35" class="edge">
<title>Node7&#45;&gt;Node19</title>
<path fill="none" stroke="#9a32cd" stroke-dasharray="5,2" d="M17.9897,-850.0454C20.5555,-749.0828 33.094,-298.4943 53,-277 67.5655,-261.2723 89.7814,-255.7545 110.9215,-254.7173"/>
<polygon fill="#9a32cd" stroke="#9a32cd" points="14.489,-850.0316 17.7376,-860.1161 21.4869,-850.2069 14.489,-850.0316"/>
<text text-anchor="middle" x="73" y="-291" font-family="Helvetica,sans-Serif" font-size="10.00" fill="#000000"> mask3d</text>
<text text-anchor="middle" x="73" y="-280" font-family="Helvetica,sans-Serif" font-size="10.00" fill="#000000">mask2d</text>
</g>
<!-- Node8 -->
<g id="node8" class="node">
<title>Node8</title>
<g id="a_node8"><a xlink:title=" ">
<polygon fill="#ffffff" stroke="#bfbfbf" points="144.5,-614.5 144.5,-633.5 194.5,-633.5 194.5,-614.5 144.5,-614.5"/>
<text text-anchor="middle" x="169.5" y="-621.5" font-family="Helvetica,sans-Serif" font-size="10.00" fill="#000000">integer</text>
</a>
</g>
</g>
<!-- Node8&#45;&gt;Node1 -->
<g id="edge32" class="edge">
<title>Node8&#45;&gt;Node1</title>
<path fill="none" stroke="#9a32cd" stroke-dasharray="5,2" d="M171.7957,-604.0301C179.2113,-543.0393 204.4827,-360.9201 246,-321 250.1707,-316.9897 310.2575,-304.914 357.9335,-295.8461"/>
<polygon fill="#9a32cd" stroke="#9a32cd" points="168.2866,-603.9001 170.5848,-614.2427 175.2379,-604.7244 168.2866,-603.9001"/>
<text text-anchor="middle" x="293" y="-401" font-family="Helvetica,sans-Serif" font-size="10.00" fill="#000000"> downsample_level</text>
<text text-anchor="start" x="247.5" y="-390" font-family="Helvetica,sans-Serif" font-size="10.00" fill="#000000">vertical_coordinate</text>
<text text-anchor="middle" x="293" y="-379" font-family="Helvetica,sans-Serif" font-size="10.00" fill="#000000">_number</text>
<text text-anchor="middle" x="293" y="-368" font-family="Helvetica,sans-Serif" font-size="10.00" fill="#000000">handles</text>
<text text-anchor="middle" x="293" y="-357" font-family="Helvetica,sans-Serif" font-size="10.00" fill="#000000">id_volume</text>
<text text-anchor="middle" x="293" y="-346" font-family="Helvetica,sans-Serif" font-size="10.00" fill="#000000">nz</text>
<text text-anchor="middle" x="293" y="-335" font-family="Helvetica,sans-Serif" font-size="10.00" fill="#000000">rank</text>
<text text-anchor="middle" x="293" y="-324" font-family="Helvetica,sans-Serif" font-size="10.00" fill="#000000">id_area</text>
</g>
<!-- Node8&#45;&gt;Node3 -->
<g id="edge28" class="edge">
<title>Node8&#45;&gt;Node3</title>
<path fill="none" stroke="#9a32cd" stroke-dasharray="5,2" d="M205.1585,-627.4453C276.4344,-633.5702 433.24,-642.9888 475,-612 494.6398,-597.4259 474.4668,-575.9575 493,-560 527.9446,-529.9119 550.1973,-551.9149 595,-541 702.3718,-514.842 746.4671,-537.7386 833,-469 872.8379,-437.3542 895.8144,-378.8946 904.9138,-351.2483"/>
<polygon fill="#9a32cd" stroke="#9a32cd" points="205.1552,-623.9313 194.885,-626.534 204.5366,-630.9039 205.1552,-623.9313"/>
<text text-anchor="middle" x="544" y="-695" font-family="Helvetica,sans-Serif" font-size="10.00" fill="#000000"> num_chksum_diags</text>
<text text-anchor="middle" x="544" y="-684" font-family="Helvetica,sans-Serif" font-size="10.00" fill="#000000">ied</text>
<text text-anchor="middle" x="544" y="-673" font-family="Helvetica,sans-Serif" font-size="10.00" fill="#000000">jed</text>
<text text-anchor="middle" x="544" y="-662" font-family="Helvetica,sans-Serif" font-size="10.00" fill="#000000">chksum_iounit</text>
<text text-anchor="middle" x="544" y="-651" font-family="Helvetica,sans-Serif" font-size="10.00" fill="#000000">isd</text>
<text text-anchor="start" x="496" y="-640" font-family="Helvetica,sans-Serif" font-size="10.00" fill="#000000">available_diag</text>
<text text-anchor="middle" x="544" y="-629" font-family="Helvetica,sans-Serif" font-size="10.00" fill="#000000">_doc_unit</text>
<text text-anchor="middle" x="544" y="-618" font-family="Helvetica,sans-Serif" font-size="10.00" fill="#000000">jsd</text>
<text text-anchor="start" x="496" y="-607" font-family="Helvetica,sans-Serif" font-size="10.00" fill="#000000">volume_cell</text>
<text text-anchor="middle" x="544" y="-596" font-family="Helvetica,sans-Serif" font-size="10.00" fill="#000000">_measure_dm_id</text>
<text text-anchor="middle" x="544" y="-585" font-family="Helvetica,sans-Serif" font-size="10.00" fill="#000000">js</text>
<text text-anchor="middle" x="544" y="-574" font-family="Helvetica,sans-Serif" font-size="10.00" fill="#000000">is</text>
<text text-anchor="middle" x="544" y="-563" font-family="Helvetica,sans-Serif" font-size="10.00" fill="#000000">...</text>
</g>
<!-- Node8&#45;&gt;Node5 -->
<g id="edge9" class="edge">
<title>Node8&#45;&gt;Node5</title>
<path fill="none" stroke="#9a32cd" stroke-dasharray="5,2" d="M175.3311,-643.5165C185.6326,-675.6311 209.4757,-740.4875 246,-785 279.0417,-825.2682 300.6464,-820.8741 340,-855 363.2059,-875.1232 387.8744,-900.8374 402.7351,-916.8646"/>
<polygon fill="#9a32cd" stroke="#9a32cd" points="178.5627,-642.1211 172.2535,-633.6097 171.8778,-644.1979 178.5627,-642.1211"/>
<text text-anchor="middle" x="293" y="-858" font-family="Helvetica,sans-Serif" font-size="10.00" fill="#000000"> num_diag_coords</text>
</g>
<!-- Node8&#45;&gt;Node9 -->
<g id="edge16" class="edge">
<title>Node8&#45;&gt;Node9</title>
<path fill="none" stroke="#9a32cd" stroke-dasharray="5,2" d="M204.6727,-629.6787C274.3579,-641.2775 427.3423,-668.5732 475,-692 484.3456,-696.594 483.5283,-702.672 493,-707 532.0923,-724.863 580.1787,-732.2538 617.2476,-735.2369"/>
<polygon fill="#9a32cd" stroke="#9a32cd" points="205.0617,-626.1956 194.625,-628.0191 203.9209,-633.102 205.0617,-626.1956"/>
<text text-anchor="middle" x="416.5" y="-728" font-family="Helvetica,sans-Serif" font-size="10.00" fill="#000000"> downsample_diag_id</text>
<text text-anchor="middle" x="416.5" y="-717" font-family="Helvetica,sans-Serif" font-size="10.00" fill="#000000">fms_xyave_diag_id</text>
<text text-anchor="middle" x="416.5" y="-706" font-family="Helvetica,sans-Serif" font-size="10.00" fill="#000000">fms_diag_id</text>
<text text-anchor="middle" x="416.5" y="-695" font-family="Helvetica,sans-Serif" font-size="10.00" fill="#000000">xyz_method</text>
</g>
<!-- Node8&#45;&gt;Node14 -->
<g id="edge23" class="edge">
<title>Node8&#45;&gt;Node14</title>
<path fill="none" stroke="#9a32cd" stroke-dasharray="5,2" d="M204.8182,-618.5453C243.4409,-610.736 304.5496,-592.6621 340,-553 359.1216,-531.6067 335.9199,-509.3243 358,-491 377.4751,-474.8376 530.7947,-465.9646 617.2284,-462.2019"/>
<polygon fill="#9a32cd" stroke="#9a32cd" points="203.7364,-615.1878 194.561,-620.4851 205.0372,-622.0659 203.7364,-615.1878"/>
<text text-anchor="middle" x="416.5" y="-604" font-family="Helvetica,sans-Serif" font-size="10.00" fill="#000000"> iec</text>
<text text-anchor="middle" x="416.5" y="-593" font-family="Helvetica,sans-Serif" font-size="10.00" fill="#000000">ied</text>
<text text-anchor="middle" x="416.5" y="-582" font-family="Helvetica,sans-Serif" font-size="10.00" fill="#000000">jec</text>
<text text-anchor="middle" x="416.5" y="-571" font-family="Helvetica,sans-Serif" font-size="10.00" fill="#000000">jed</text>
<text text-anchor="middle" x="416.5" y="-560" font-family="Helvetica,sans-Serif" font-size="10.00" fill="#000000">jsgb</text>
<text text-anchor="middle" x="416.5" y="-549" font-family="Helvetica,sans-Serif" font-size="10.00" fill="#000000">isc</text>
<text text-anchor="middle" x="416.5" y="-538" font-family="Helvetica,sans-Serif" font-size="10.00" fill="#000000">isgb</text>
<text text-anchor="middle" x="416.5" y="-527" font-family="Helvetica,sans-Serif" font-size="10.00" fill="#000000">ieg</text>
<text text-anchor="middle" x="416.5" y="-516" font-family="Helvetica,sans-Serif" font-size="10.00" fill="#000000">isd</text>
<text text-anchor="middle" x="416.5" y="-505" font-family="Helvetica,sans-Serif" font-size="10.00" fill="#000000">jsc</text>
<text text-anchor="middle" x="416.5" y="-494" font-family="Helvetica,sans-Serif" font-size="10.00" fill="#000000">...</text>
</g>
<!-- Node9&#45;&gt;Node3 -->
<g id="edge10" class="edge">
<title>Node9&#45;&gt;Node3</title>
<path fill="none" stroke="#9a32cd" stroke-dasharray="5,2" d="M703.7896,-715.7011C738.7104,-687.5508 798.2653,-634.7298 833,-577 879.6208,-499.5151 900.7467,-390.6797 907.2205,-351.1216"/>
<polygon fill="#9a32cd" stroke="#9a32cd" points="701.5374,-713.0204 695.8914,-721.9856 705.8958,-718.498 701.5374,-713.0204"/>
<text text-anchor="middle" x="795" y="-669" font-family="Helvetica,sans-Serif" font-size="10.00" fill="#000000"> diags</text>
</g>
<!-- Node9&#45;&gt;Node9 -->
<g id="edge12" class="edge">
<title>Node9&#45;&gt;Node9</title>
<path fill="none" stroke="#9a32cd" stroke-dasharray="5,2" d="M655.0328,-762.4579C657.6351,-767.179 664.6242,-770.5 676,-770.5 694.668,-770.5 701.5226,-761.5566 696.5639,-752.159"/>
<polygon fill="#9a32cd" stroke="#9a32cd" points="658.5421,-762.2883 655.4361,-752.159 651.5474,-762.0144 658.5421,-762.2883"/>
<text text-anchor="middle" x="676" y="-773.5" font-family="Helvetica,sans-Serif" font-size="10.00" fill="#000000"> next</text>
</g>
<!-- Node10 -->
<g id="node10" class="node">
<title>Node10</title>
<g id="a_node10"><a xlink:title=" ">
<polygon fill="#ffffff" stroke="#bfbfbf" points="376,-792.5 376,-811.5 457,-811.5 457,-792.5 376,-792.5"/>
<text text-anchor="middle" x="416.5" y="-799.5" font-family="Helvetica,sans-Serif" font-size="10.00" fill="#000000">character(64)</text>
</a>
</g>
</g>
<!-- Node10&#45;&gt;Node9 -->
<g id="edge13" class="edge">
<title>Node10&#45;&gt;Node9</title>
<path fill="none" stroke="#9a32cd" stroke-dasharray="5,2" d="M467.5486,-793.7313C503.5003,-787.4166 552.5884,-777.8021 595,-766 609.102,-762.0758 624.2774,-756.9062 637.6377,-752.0198"/>
<polygon fill="#9a32cd" stroke="#9a32cd" points="466.5618,-790.3499 457.305,-795.5037 467.7554,-797.2474 466.5618,-790.3499"/>
<text text-anchor="middle" x="544" y="-791" font-family="Helvetica,sans-Serif" font-size="10.00" fill="#000000"> debug_str</text>
</g>
<!-- Node11 -->
<g id="node11" class="node">
<title>Node11</title>
<g id="a_node11"><a xlink:title=" ">
<polygon fill="#ffffff" stroke="#bfbfbf" points="645,-164.5 645,-183.5 707,-183.5 707,-164.5 645,-164.5"/>
<text text-anchor="middle" x="676" y="-171.5" font-family="Helvetica,sans-Serif" font-size="10.00" fill="#000000">time_type</text>
</a>
</g>
</g>
<!-- Node11&#45;&gt;Node3 -->
<g id="edge17" class="edge">
<title>Node11&#45;&gt;Node3</title>
<path fill="none" stroke="#9a32cd" stroke-dasharray="5,2" d="M717.3093,-169.769C751.2697,-168.4285 799.1391,-171.6687 833,-195 877.4902,-225.6553 898.4824,-290.8221 906.0409,-320.5892"/>
<polygon fill="#9a32cd" stroke="#9a32cd" points="717.043,-166.2782 707.2473,-170.3149 717.4222,-173.2679 717.043,-166.2782"/>
<text text-anchor="middle" x="795" y="-198" font-family="Helvetica,sans-Serif" font-size="10.00" fill="#000000"> time_end</text>
</g>
<!-- Node12 -->
<g id="node12" class="node">
<title>Node12</title>
<g id="a_node12"><a xlink:title=" ">
<polygon fill="#ffffff" stroke="#bfbfbf" points="613,-126.5 613,-145.5 739,-145.5 739,-126.5 613,-126.5"/>
<text text-anchor="middle" x="676" y="-133.5" font-family="Helvetica,sans-Serif" font-size="10.00" fill="#000000">type(eos_type), pointer</text>
</a>
</g>
</g>
<!-- Node12&#45;&gt;Node3 -->
<g id="edge18" class="edge">
<title>Node12&#45;&gt;Node3</title>
<path fill="none" stroke="#9a32cd" stroke-dasharray="5,2" d="M749.5825,-130.9502C778.1164,-132.5646 809.5043,-139.1406 833,-157 887.3485,-198.311 903.5587,-285.877 907.9791,-320.9808"/>
<polygon fill="#9a32cd" stroke="#9a32cd" points="749.3413,-127.4391 739.2191,-130.5683 749.0834,-134.4343 749.3413,-127.4391"/>
<text text-anchor="middle" x="795" y="-160" font-family="Helvetica,sans-Serif" font-size="10.00" fill="#000000"> eqn_of_state</text>
</g>
<!-- Node13 -->
<g id="node13" class="node">
<title>Node13</title>
<g id="a_node13"><a xlink:title=" ">
<polygon fill="#ffffff" stroke="#bfbfbf" points="629.5,-88.5 629.5,-107.5 722.5,-107.5 722.5,-88.5 629.5,-88.5"/>
<text text-anchor="middle" x="676" y="-95.5" font-family="Helvetica,sans-Serif" font-size="10.00" fill="#000000">diag_remap_ctrl</text>
</a>
</g>
</g>
<!-- Node13&#45;&gt;Node3 -->
<g id="edge19" class="edge">
<title>Node13&#45;&gt;Node3</title>
<path fill="none" stroke="#9a32cd" stroke-dasharray="5,2" d="M732.839,-91.0047C765.4569,-90.1102 805.3021,-94.7123 833,-117 866.1811,-143.6998 896.7514,-275.763 906.3768,-320.8688"/>
<polygon fill="#9a32cd" stroke="#9a32cd" points="732.3582,-87.5229 722.5273,-91.4729 732.6757,-94.5157 732.3582,-87.5229"/>
<text text-anchor="middle" x="795" y="-120" font-family="Helvetica,sans-Serif" font-size="10.00" fill="#000000"> diag_remap_cs</text>
</g>
<!-- Node14&#45;&gt;Node3 -->
<g id="edge20" class="edge">
<title>Node14&#45;&gt;Node3</title>
<path fill="none" stroke="#9a32cd" stroke-dasharray="5,2" d="M744.63,-456.6489C773.5422,-452.7392 806.5467,-444.8099 833,-429 864.9433,-409.909 889.4501,-372.4047 901.4185,-351.3228"/>
<polygon fill="#9a32cd" stroke="#9a32cd" points="744.0954,-453.188 734.5915,-457.8705 744.9411,-460.1368 744.0954,-453.188"/>
<text text-anchor="middle" x="795" y="-457" font-family="Helvetica,sans-Serif" font-size="10.00" fill="#000000"> dsamp</text>
</g>
<!-- Node15 -->
<g id="node15" class="node">
<title>Node15</title>
<g id="a_node15"><a xlink:title=" ">
<polygon fill="#ffffff" stroke="#bfbfbf" points="615,-39 615,-69 737,-69 737,-39 615,-39"/>
<text text-anchor="start" x="623" y="-57" font-family="Helvetica,sans-Serif" font-size="10.00" fill="#000000">type(verticalgrid_type)</text>
<text text-anchor="middle" x="676" y="-46" font-family="Helvetica,sans-Serif" font-size="10.00" fill="#000000">, pointer</text>
</a>
</g>
</g>
<!-- Node15&#45;&gt;Node3 -->
<g id="edge25" class="edge">
<title>Node15&#45;&gt;Node3</title>
<path fill="none" stroke="#9a32cd" stroke-dasharray="5,2" d="M747.5211,-48.4786C777.1,-49.9318 809.8244,-56.8967 833,-77 871.0739,-110.0266 899.1539,-270.2612 907.1716,-320.7393"/>
<polygon fill="#9a32cd" stroke="#9a32cd" points="747.3072,-44.9711 737.2107,-48.182 747.1059,-51.9682 747.3072,-44.9711"/>
<text text-anchor="middle" x="795" y="-80" font-family="Helvetica,sans-Serif" font-size="10.00" fill="#000000"> gv</text>
</g>
<!-- Node16 -->
<g id="node16" class="node">
<title>Node16</title>
<g id="a_node16"><a xlink:title=" ">
<polygon fill="#ffffff" stroke="#bfbfbf" points="628,-.5 628,-19.5 724,-19.5 724,-.5 628,-.5"/>
<text text-anchor="middle" x="676" y="-7.5" font-family="Helvetica,sans-Serif" font-size="10.00" fill="#000000">ocean_grid_type</text>
</a>
</g>
</g>
<!-- Node16&#45;&gt;Node3 -->
<g id="edge26" class="edge">
<title>Node16&#45;&gt;Node3</title>
<path fill="none" stroke="#9a32cd" stroke-dasharray="5,2" d="M734.4842,-4.6319C767.3005,-4.8741 806.7899,-11.0721 833,-35 876.404,-74.6247 901.3602,-265.0363 907.8127,-320.6917"/>
<polygon fill="#9a32cd" stroke="#9a32cd" points="734.0497,-1.1364 724.0893,-4.7476 734.1277,-8.136 734.0497,-1.1364"/>
<text text-anchor="middle" x="795" y="-38" font-family="Helvetica,sans-Serif" font-size="10.00" fill="#000000"> g</text>
</g>
<!-- Node17 -->
<g id="node17" class="node">
<title>Node17</title>
<g id="a_node17"><a xlink:title=" ">
<polygon fill="#ffffff" stroke="#bfbfbf" points="121.5,-156.5 121.5,-175.5 217.5,-175.5 217.5,-156.5 121.5,-156.5"/>
<text text-anchor="middle" x="169.5" y="-163.5" font-family="Helvetica,sans-Serif" font-size="10.00" fill="#000000">character(len=9)</text>
</a>
</g>
</g>
<!-- Node17&#45;&gt;Node1 -->
<g id="edge29" class="edge">
<title>Node17&#45;&gt;Node1</title>
<path fill="none" stroke="#9a32cd" stroke-dasharray="5,2" d="M228.2254,-160.9664C262.8305,-160.6319 306.2906,-164.9727 340,-184 375.0552,-203.787 399.084,-246.8959 409.9375,-269.8725"/>
<polygon fill="#9a32cd" stroke="#9a32cd" points="227.7065,-157.4774 217.7907,-161.2092 227.8695,-164.4755 227.7065,-157.4774"/>
<text text-anchor="middle" x="293" y="-209" font-family="Helvetica,sans-Serif" font-size="10.00" fill="#000000"> v_cell_method</text>
<text text-anchor="middle" x="293" y="-198" font-family="Helvetica,sans-Serif" font-size="10.00" fill="#000000">y_cell_method</text>
<text text-anchor="middle" x="293" y="-187" font-family="Helvetica,sans-Serif" font-size="10.00" fill="#000000">x_cell_method</text>
</g>
<!-- Node18 -->
<g id="node18" class="node">
<title>Node18</title>
<g id="a_node18"><a xlink:title=" ">
<polygon fill="#ffffff" stroke="#bfbfbf" points="118.5,-207.5 118.5,-226.5 220.5,-226.5 220.5,-207.5 118.5,-207.5"/>
<text text-anchor="middle" x="169.5" y="-214.5" font-family="Helvetica,sans-Serif" font-size="10.00" fill="#000000">character(len=15)</text>
</a>
</g>
</g>
<!-- Node18&#45;&gt;Node1 -->
<g id="edge33" class="edge">
<title>Node18&#45;&gt;Node1</title>
<path fill="none" stroke="#9a32cd" stroke-dasharray="5,2" d="M230.659,-219.9456C263.7425,-222.9349 304.9,-228.942 340,-241 359.9965,-247.8694 380.6642,-260.1186 395.4688,-269.9514"/>
<polygon fill="#9a32cd" stroke="#9a32cd" points="230.9232,-216.4556 220.6666,-219.1114 230.3407,-223.4313 230.9232,-216.4556"/>
<text text-anchor="middle" x="293" y="-244" font-family="Helvetica,sans-Serif" font-size="10.00" fill="#000000"> id</text>
</g>
<!-- Node19&#45;&gt;Node1 -->
<g id="edge34" class="edge">
<title>Node19&#45;&gt;Node1</title>
<path fill="none" stroke="#9a32cd" stroke-dasharray="5,2" d="M238.5344,-256.9443C269.6911,-256.2564 306.8616,-257.0268 340,-262 351.2463,-263.6878 363.1368,-266.6541 374.105,-269.9068"/>
<polygon fill="#9a32cd" stroke="#9a32cd" points="238.1128,-253.4545 228.2133,-257.2295 238.3062,-260.4518 238.1128,-253.4545"/>
<text text-anchor="middle" x="293" y="-265" font-family="Helvetica,sans-Serif" font-size="10.00" fill="#000000"> dsamp</text>
</g>
</g>
</svg>
