<?xml version="1.0" encoding="UTF-8" standalone="no"?>
<!DOCTYPE svg PUBLIC "-//W3C//DTD SVG 1.1//EN"
 "http://www.w3.org/Graphics/SVG/1.1/DTD/svg11.dtd">
<!-- Generated by graphviz version 2.40.1 (20161225.0304)
 -->
<!-- Title: mom_coriolisadv::coriolisadv_cs Pages: 1 -->
<svg width="431pt" height="183pt"
 viewBox="0.00 0.00 430.50 183.00" xmlns="http://www.w3.org/2000/svg" xmlns:xlink="http://www.w3.org/1999/xlink">
<g id="graph0" class="graph" transform="scale(1 1) rotate(0) translate(4 179)">
<title>mom_coriolisadv::coriolisadv_cs</title>
<polygon fill="#ffffff" stroke="transparent" points="-4,4 -4,-179 426.5,-179 426.5,4 -4,4"/>
<!-- Node1 -->
<g id="node1" class="node">
<title>Node1</title>
<g id="a_node1"><a xlink:title="Control structure for mom_coriolisadv.">
<polygon fill="#bfbfbf" stroke="#000000" points="101,-.5 101,-19.5 268,-19.5 268,-.5 101,-.5"/>
<text text-anchor="middle" x="184.5" y="-7.5" font-family="Helvetica,sans-Serif" font-size="10.00" fill="#000000">mom_coriolisadv::coriolisadv_cs</text>
</a>
</g>
</g>
<!-- Node2 -->
<g id="node2" class="node">
<title>Node2</title>
<g id="a_node2"><a xlink:title=" ">
<polygon fill="#ffffff" stroke="#bfbfbf" points="0,-155.5 0,-174.5 47,-174.5 47,-155.5 0,-155.5"/>
<text text-anchor="middle" x="23.5" y="-162.5" font-family="Helvetica,sans-Serif" font-size="10.00" fill="#000000">logical</text>
</a>
</g>
</g>
<!-- Node2&#45;&gt;Node1 -->
<g id="edge1" class="edge">
<title>Node2&#45;&gt;Node1</title>
<path fill="none" stroke="#9a32cd" stroke-dasharray="5,2" d="M19.5498,-145.0511C15.3,-117.228 12.3955,-66.9386 39.5,-38 48.5262,-28.363 73.7618,-21.9481 100.7021,-17.7226"/>
<polygon fill="#9a32cd" stroke="#9a32cd" points="16.1457,-145.9052 21.308,-155.1573 23.0421,-144.7054 16.1457,-145.9052"/>
<text text-anchor="middle" x="75" y="-96" font-family="Helvetica,sans-Serif" font-size="10.00" fill="#000000"> no_slip</text>
<text text-anchor="middle" x="75" y="-85" font-family="Helvetica,sans-Serif" font-size="10.00" fill="#000000">coriolis_en_dis</text>
<text text-anchor="middle" x="75" y="-74" font-family="Helvetica,sans-Serif" font-size="10.00" fill="#000000">bound_coriolis</text>
</g>
<!-- Node3 -->
<g id="node3" class="node">
<title>Node3</title>
<g id="a_node3"><a xlink:title=" ">
<polygon fill="#ffffff" stroke="#bfbfbf" points="75.5,-155.5 75.5,-174.5 137.5,-174.5 137.5,-155.5 75.5,-155.5"/>
<text text-anchor="middle" x="106.5" y="-162.5" font-family="Helvetica,sans-Serif" font-size="10.00" fill="#000000">time_type</text>
</a>
</g>
</g>
<!-- Node3&#45;&gt;Node1 -->
<g id="edge2" class="edge">
<title>Node3&#45;&gt;Node1</title>
<path fill="none" stroke="#9a32cd" stroke-dasharray="5,2" d="M111.6867,-145.7735C119.2131,-119.9004 134.7904,-73.0785 157.5,-38 161.9039,-31.1975 168.1118,-24.62 173.4647,-19.5512"/>
<polygon fill="#9a32cd" stroke="#9a32cd" points="108.2939,-144.91 108.9567,-155.4841 115.0326,-146.8046 108.2939,-144.91"/>
<text text-anchor="middle" x="169" y="-85" font-family="Helvetica,sans-Serif" font-size="10.00" fill="#000000"> time</text>
</g>
<!-- Node4 -->
<g id="node4" class="node">
<title>Node4</title>
<g id="a_node4"><a xlink:title=" ">
<polygon fill="#ffffff" stroke="#bfbfbf" points="156,-155.5 156,-174.5 213,-174.5 213,-155.5 156,-155.5"/>
<text text-anchor="middle" x="184.5" y="-162.5" font-family="Helvetica,sans-Serif" font-size="10.00" fill="#000000">diag_ctrl</text>
</a>
</g>
</g>
<!-- Node4&#45;&gt;Node1 -->
<g id="edge3" class="edge">
<title>Node4&#45;&gt;Node1</title>
<path fill="none" stroke="#9a32cd" stroke-dasharray="5,2" d="M184.5,-144.88C184.5,-111.1845 184.5,-44.5883 184.5,-19.6923"/>
<polygon fill="#9a32cd" stroke="#9a32cd" points="181.0001,-145.304 184.5,-155.3041 188.0001,-145.3041 181.0001,-145.304"/>
<text text-anchor="middle" x="196.5" y="-85" font-family="Helvetica,sans-Serif" font-size="10.00" fill="#000000"> diag</text>
</g>
<!-- Node5 -->
<g id="node5" class="node">
<title>Node5</title>
<g id="a_node5"><a xlink:title=" ">
<polygon fill="#ffffff" stroke="#bfbfbf" points="231,-155.5 231,-174.5 266,-174.5 266,-155.5 231,-155.5"/>
<text text-anchor="middle" x="248.5" y="-162.5" font-family="Helvetica,sans-Serif" font-size="10.00" fill="#000000">real</text>
</a>
</g>
</g>
<!-- Node5&#45;&gt;Node1 -->
<g id="edge4" class="edge">
<title>Node5&#45;&gt;Node1</title>
<path fill="none" stroke="#9a32cd" stroke-dasharray="5,2" d="M242.9457,-145.5852C242.1244,-142.7072 241.2893,-139.7764 240.5,-137 227.9968,-93.0167 235.6363,-77.4408 212.5,-38 208.3955,-31.0029 202.1258,-24.5073 196.5591,-19.5375"/>
<polygon fill="#9a32cd" stroke="#9a32cd" points="239.6408,-146.7587 245.7538,-155.4121 246.3714,-144.8353 239.6408,-146.7587"/>
<text text-anchor="middle" x="280" y="-90.5" font-family="Helvetica,sans-Serif" font-size="10.00" fill="#000000"> wt_lin_blend</text>
<text text-anchor="middle" x="280" y="-79.5" font-family="Helvetica,sans-Serif" font-size="10.00" fill="#000000">f_eff_max_blend</text>
</g>
<!-- Node6 -->
<g id="node6" class="node">
<title>Node6</title>
<g id="a_node6"><a xlink:title=" ">
<polygon fill="#ffffff" stroke="#bfbfbf" points="316.5,-155.5 316.5,-174.5 366.5,-174.5 366.5,-155.5 316.5,-155.5"/>
<text text-anchor="middle" x="341.5" y="-162.5" font-family="Helvetica,sans-Serif" font-size="10.00" fill="#000000">integer</text>
</a>
</g>
</g>
<!-- Node6&#45;&gt;Node1 -->
<g id="edge5" class="edge">
<title>Node6&#45;&gt;Node1</title>
<path fill="none" stroke="#9a32cd" stroke-dasharray="5,2" d="M344.272,-145.3941C347.0095,-117.5759 347.3983,-66.834 319.5,-38 311.5524,-29.7859 290.7474,-23.8037 267.7837,-19.5313"/>
<polygon fill="#9a32cd" stroke="#9a32cd" points="340.7793,-145.1264 343.0746,-155.4696 347.7304,-145.9525 340.7793,-145.1264"/>
<text text-anchor="middle" x="383.5" y="-129" font-family="Helvetica,sans-Serif" font-size="10.00" fill="#000000"> id_rv</text>
<text text-anchor="middle" x="383.5" y="-118" font-family="Helvetica,sans-Serif" font-size="10.00" fill="#000000">id_pv</text>
<text text-anchor="middle" x="383.5" y="-107" font-family="Helvetica,sans-Serif" font-size="10.00" fill="#000000">ke_scheme</text>
<text text-anchor="middle" x="383.5" y="-96" font-family="Helvetica,sans-Serif" font-size="10.00" fill="#000000">coriolis_scheme</text>
<text text-anchor="middle" x="383.5" y="-85" font-family="Helvetica,sans-Serif" font-size="10.00" fill="#000000">pv_adv_scheme</text>
<text text-anchor="middle" x="383.5" y="-74" font-family="Helvetica,sans-Serif" font-size="10.00" fill="#000000">id_gkeu</text>
<text text-anchor="middle" x="383.5" y="-63" font-family="Helvetica,sans-Serif" font-size="10.00" fill="#000000">id_gkev</text>
<text text-anchor="middle" x="383.5" y="-52" font-family="Helvetica,sans-Serif" font-size="10.00" fill="#000000">id_rvxu</text>
<text text-anchor="middle" x="383.5" y="-41" font-family="Helvetica,sans-Serif" font-size="10.00" fill="#000000">id_rvxv</text>
</g>
</g>
</svg>
