<?xml version="1.0" encoding="UTF-8" standalone="no"?>
<!DOCTYPE svg PUBLIC "-//W3C//DTD SVG 1.1//EN"
 "http://www.w3.org/Graphics/SVG/1.1/DTD/svg11.dtd">
<!-- Generated by graphviz version 2.40.1 (20161225.0304)
 -->
<!-- Title: oil_tracer::oil_tracer_cs Pages: 1 -->
<!--zoomable 505 -->
<svg id="main" version="1.1" xmlns="http://www.w3.org/2000/svg" xmlns:xlink="http://www.w3.org/1999/xlink" xml:space="preserve" onload="init(evt)">
<style type="text/css"><![CDATA[
.edge:hover path { stroke: red; }
.edge:hover polygon { stroke: red; fill: red; }
]]></style>
<script type="text/javascript"><![CDATA[
var edges = document.getElementsByTagName('g');
if (edges && edges.length) {
  for (var i=0;i<edges.length;i++) {
    if (edges[i].id.substr(0,4)=='edge') {
      edges[i].setAttribute('class','edge');
    }
  }
}
]]></script>
        <defs>
                <circle id="rim" cx="0" cy="0" r="7"/>
                <circle id="rim2" cx="0" cy="0" r="3.5"/>
                <g id="zoomPlus">
                        <use xlink:href="#rim" fill="#404040">
                                <set attributeName="fill" to="#808080" begin="zoomplus.mouseover" end="zoomplus.mouseout"/>
                        </use>
                        <path d="M-4,0h8M0,-4v8" fill="none" stroke="white" stroke-width="1.5" pointer-events="none"/>
                </g>
                <g id="zoomMin">
                        <use xlink:href="#rim" fill="#404040">
                                <set attributeName="fill" to="#808080" begin="zoomminus.mouseover" end="zoomminus.mouseout"/>
                        </use>
                        <path d="M-4,0h8" fill="none" stroke="white" stroke-width="1.5" pointer-events="none"/>
                </g>
                <g id="dirArrow">
                        <path fill="none" stroke="white" stroke-width="1.5" d="M0,-3.0v7 M-2.5,-0.5L0,-3.0L2.5,-0.5"/>
                </g>
               <g id="resetDef">
                       <use xlink:href="#rim2" fill="#404040">
                               <set attributeName="fill" to="#808080" begin="reset.mouseover" end="reset.mouseout"/>
                       </use>
               </g>
        </defs>

<script type="text/javascript">
var viewWidth = 363;
var viewHeight = 505;
var sectionId = 'dynsection-0';
</script>
<script xlink:href="svgpan.js"/>
<svg id="graph" class="graph">
<g id="viewport">
<title>oil_tracer::oil_tracer_cs</title>
<polygon fill="#ffffff" stroke="transparent" points="-4,4 -4,-501.4668 359,-501.4668 359,4 -4,4"/>
<!-- Node1 -->
<g id="node1" class="node">
<title>Node1</title>
<g id="a_node1"><a xlink:title="The control structure for the oil tracer package.">
<polygon fill="#bfbfbf" stroke="#000000" points="237,-297.9668 237,-316.9668 355,-316.9668 355,-297.9668 237,-297.9668"/>
<text text-anchor="middle" x="296" y="-304.9668" font-family="Helvetica,sans-Serif" font-size="10.00" fill="#000000">oil_tracer::oil_tracer_cs</text>
</a>
</g>
</g>
<!-- Node2 -->
<g id="node2" class="node">
<title>Node2</title>
<g id="a_node2"><a xlink:title=" ">
<polygon fill="#ffffff" stroke="#bfbfbf" points="34,-455.9668 34,-474.9668 78,-474.9668 78,-455.9668 34,-455.9668"/>
<text text-anchor="middle" x="56" y="-462.9668" font-family="Helvetica,sans-Serif" font-size="10.00" fill="#000000">logical</text>
</a>
</g>
</g>
<!-- Node2&#45;&gt;Node1 -->
<g id="edge1" class="edge">
<title>Node2&#45;&gt;Node1</title>
<path fill="none" stroke="#9a32cd" stroke-dasharray="5,2" d="M88.3899,-467.0351C123.5791,-467.1407 179.9816,-462.4839 219,-435.4668 262.708,-405.2025 285.7912,-341.3283 293.2537,-317.0796"/>
<polygon fill="#9a32cd" stroke="#9a32cd" points="88.2486,-463.5324 78.1929,-466.8689 88.1345,-470.5315 88.2486,-463.5324"/>
<text text-anchor="middle" x="174.5" y="-489.4668" font-family="Helvetica,sans-Serif" font-size="10.00" fill="#000000"> oil_may_reinit</text>
<text text-anchor="middle" x="174.5" y="-478.4668" font-family="Helvetica,sans-Serif" font-size="10.00" fill="#000000">z_ic_file</text>
<text text-anchor="middle" x="174.5" y="-467.4668" font-family="Helvetica,sans-Serif" font-size="10.00" fill="#000000">coupled_tracers</text>
</g>
<!-- Node3 -->
<g id="node3" class="node">
<title>Node3</title>
<g id="a_node3"><a xlink:title=" ">
<polygon fill="#ffffff" stroke="#bfbfbf" points="26.5,-417.9668 26.5,-436.9668 85.5,-436.9668 85.5,-417.9668 26.5,-417.9668"/>
<text text-anchor="middle" x="56" y="-424.9668" font-family="Helvetica,sans-Serif" font-size="10.00" fill="#000000">time_type</text>
</a>
</g>
</g>
<!-- Node3&#45;&gt;Node1 -->
<g id="edge2" class="edge">
<title>Node3&#45;&gt;Node1</title>
<path fill="none" stroke="#9a32cd" stroke-dasharray="5,2" d="M95.807,-425.7283C130.4057,-422.6908 180.8267,-414.4821 219,-392.4668 252.1174,-373.3673 278.8712,-335.1046 290.1783,-317.1669"/>
<polygon fill="#9a32cd" stroke="#9a32cd" points="95.3098,-422.2561 85.6085,-426.5145 95.8479,-429.2354 95.3098,-422.2561"/>
<text text-anchor="middle" x="174.5" y="-423.4668" font-family="Helvetica,sans-Serif" font-size="10.00" fill="#000000"> time</text>
</g>
<!-- Node4 -->
<g id="node4" class="node">
<title>Node4</title>
<g id="a_node4"><a xlink:title=" ">
<polygon fill="#ffffff" stroke="#bfbfbf" points="4.5,-379.9668 4.5,-398.9668 107.5,-398.9668 107.5,-379.9668 4.5,-379.9668"/>
<text text-anchor="middle" x="56" y="-386.9668" font-family="Helvetica,sans-Serif" font-size="10.00" fill="#000000">tracer_registry_type</text>
</a>
</g>
</g>
<!-- Node4&#45;&gt;Node1 -->
<g id="edge3" class="edge">
<title>Node4&#45;&gt;Node1</title>
<path fill="none" stroke="#9a32cd" stroke-dasharray="5,2" d="M117.4046,-380.7119C148.55,-375.079 186.5529,-366.3491 219,-353.4668 243.025,-343.9283 268.2689,-327.4184 283.0491,-316.9888"/>
<polygon fill="#9a32cd" stroke="#9a32cd" points="116.7978,-377.2648 107.5491,-382.4332 118.0022,-384.1604 116.7978,-377.2648"/>
<text text-anchor="middle" x="174.5" y="-380.4668" font-family="Helvetica,sans-Serif" font-size="10.00" fill="#000000"> tr_reg</text>
</g>
<!-- Node5 -->
<g id="node5" class="node">
<title>Node5</title>
<g id="a_node5"><a xlink:title=" ">
<polygon fill="#ffffff" stroke="#bfbfbf" points="7,-341.9668 7,-360.9668 105,-360.9668 105,-341.9668 7,-341.9668"/>
<text text-anchor="middle" x="56" y="-348.9668" font-family="Helvetica,sans-Serif" font-size="10.00" fill="#000000">character(len=200)</text>
</a>
</g>
</g>
<!-- Node5&#45;&gt;Node1 -->
<g id="edge4" class="edge">
<title>Node5&#45;&gt;Node1</title>
<path fill="none" stroke="#9a32cd" stroke-dasharray="5,2" d="M115.4335,-341.1328C146.342,-335.6979 184.7279,-328.8533 219,-322.4668 228.2383,-320.7453 238.0904,-318.8621 247.5543,-317.0294"/>
<polygon fill="#9a32cd" stroke="#9a32cd" points="114.4994,-337.7432 105.255,-342.9193 115.7095,-344.6378 114.4994,-337.7432"/>
<text text-anchor="middle" x="174.5" y="-341.4668" font-family="Helvetica,sans-Serif" font-size="10.00" fill="#000000"> ic_file</text>
</g>
<!-- Node6 -->
<g id="node6" class="node">
<title>Node6</title>
<g id="a_node6"><a xlink:title=" ">
<polygon fill="#ffffff" stroke="#bfbfbf" points="0,-292.4668 0,-322.4668 112,-322.4668 112,-292.4668 0,-292.4668"/>
<text text-anchor="start" x="8" y="-310.4668" font-family="Helvetica,sans-Serif" font-size="10.00" fill="#000000">type(mom_restart_cs)</text>
<text text-anchor="middle" x="56" y="-299.4668" font-family="Helvetica,sans-Serif" font-size="10.00" fill="#000000">, pointer</text>
</a>
</g>
</g>
<!-- Node6&#45;&gt;Node1 -->
<g id="edge5" class="edge">
<title>Node6&#45;&gt;Node1</title>
<path fill="none" stroke="#9a32cd" stroke-dasharray="5,2" d="M122.6174,-307.4668C158.4016,-307.4668 202.1404,-307.4668 236.7343,-307.4668"/>
<polygon fill="#9a32cd" stroke="#9a32cd" points="122.2694,-303.9669 112.2693,-307.4668 122.2693,-310.9669 122.2694,-303.9669"/>
<text text-anchor="middle" x="174.5" y="-310.4668" font-family="Helvetica,sans-Serif" font-size="10.00" fill="#000000"> restart_csp</text>
</g>
<!-- Node7 -->
<g id="node7" class="node">
<title>Node7</title>
<g id="a_node7"><a xlink:title=" ">
<polygon fill="#ffffff" stroke="#bfbfbf" points="30.5,-253.9668 30.5,-272.9668 81.5,-272.9668 81.5,-253.9668 30.5,-253.9668"/>
<text text-anchor="middle" x="56" y="-260.9668" font-family="Helvetica,sans-Serif" font-size="10.00" fill="#000000">vardesc</text>
</a>
</g>
</g>
<!-- Node7&#45;&gt;Node1 -->
<g id="edge6" class="edge">
<title>Node7&#45;&gt;Node1</title>
<path fill="none" stroke="#9a32cd" stroke-dasharray="5,2" d="M91.8021,-269.6635C124.848,-275.4242 175.2724,-284.3183 219,-292.4668 228.2383,-294.1884 238.0904,-296.0716 247.5543,-297.9043"/>
<polygon fill="#9a32cd" stroke="#9a32cd" points="92.1661,-266.1743 81.7141,-267.9082 90.9661,-273.0707 92.1661,-266.1743"/>
<text text-anchor="middle" x="174.5" y="-295.4668" font-family="Helvetica,sans-Serif" font-size="10.00" fill="#000000"> tr_desc</text>
</g>
<!-- Node8 -->
<g id="node8" class="node">
<title>Node8</title>
<g id="a_node8"><a xlink:title=" ">
<polygon fill="#ffffff" stroke="#bfbfbf" points="29.5,-215.9668 29.5,-234.9668 82.5,-234.9668 82.5,-215.9668 29.5,-215.9668"/>
<text text-anchor="middle" x="56" y="-222.9668" font-family="Helvetica,sans-Serif" font-size="10.00" fill="#000000">diag_ctrl</text>
</a>
</g>
</g>
<!-- Node8&#45;&gt;Node1 -->
<g id="edge7" class="edge">
<title>Node8&#45;&gt;Node1</title>
<path fill="none" stroke="#9a32cd" stroke-dasharray="5,2" d="M93.0962,-229.8106C126.8278,-234.5976 177.5218,-243.911 219,-260.4668 243.2914,-270.1626 268.6576,-287.2094 283.3591,-297.8903"/>
<polygon fill="#9a32cd" stroke="#9a32cd" points="93.153,-226.2864 82.7736,-228.412 92.2131,-233.2231 93.153,-226.2864"/>
<text text-anchor="middle" x="174.5" y="-263.4668" font-family="Helvetica,sans-Serif" font-size="10.00" fill="#000000"> diag</text>
</g>
<!-- Node9 -->
<g id="node9" class="node">
<title>Node9</title>
<g id="a_node9"><a xlink:title=" ">
<polygon fill="#ffffff" stroke="#bfbfbf" points="40,-80.9668 40,-99.9668 72,-99.9668 72,-80.9668 40,-80.9668"/>
<text text-anchor="middle" x="56" y="-87.9668" font-family="Helvetica,sans-Serif" font-size="10.00" fill="#000000">real</text>
</a>
</g>
</g>
<!-- Node9&#45;&gt;Node1 -->
<g id="edge8" class="edge">
<title>Node9&#45;&gt;Node1</title>
<path fill="none" stroke="#9a32cd" stroke-dasharray="5,2" d="M82.3048,-86.0767C117.3165,-81.7773 179.4055,-79.7284 219,-110.4668 281.3634,-158.8814 293.2868,-264.9261 295.5063,-297.6517"/>
<polygon fill="#9a32cd" stroke="#9a32cd" points="81.7905,-82.6145 72.3632,-87.4495 82.748,-89.5487 81.7905,-82.6145"/>
<text text-anchor="middle" x="174.5" y="-223.4668" font-family="Helvetica,sans-Serif" font-size="10.00" fill="#000000"> oil_decay_rate</text>
<text text-anchor="middle" x="174.5" y="-212.4668" font-family="Helvetica,sans-Serif" font-size="10.00" fill="#000000">oil_source_longitude</text>
<text text-anchor="middle" x="174.5" y="-201.4668" font-family="Helvetica,sans-Serif" font-size="10.00" fill="#000000">oil_decay_days</text>
<text text-anchor="middle" x="174.5" y="-190.4668" font-family="Helvetica,sans-Serif" font-size="10.00" fill="#000000">oil_source_rate</text>
<text text-anchor="middle" x="174.5" y="-179.4668" font-family="Helvetica,sans-Serif" font-size="10.00" fill="#000000">land_val</text>
<text text-anchor="middle" x="174.5" y="-168.4668" font-family="Helvetica,sans-Serif" font-size="10.00" fill="#000000">oil_end_year</text>
<text text-anchor="middle" x="174.5" y="-157.4668" font-family="Helvetica,sans-Serif" font-size="10.00" fill="#000000">ic_val</text>
<text text-anchor="middle" x="174.5" y="-146.4668" font-family="Helvetica,sans-Serif" font-size="10.00" fill="#000000">oil_start_year</text>
<text text-anchor="middle" x="174.5" y="-135.4668" font-family="Helvetica,sans-Serif" font-size="10.00" fill="#000000">oil_source_latitude</text>
<text text-anchor="middle" x="174.5" y="-124.4668" font-family="Helvetica,sans-Serif" font-size="10.00" fill="#000000">young_val</text>
<text text-anchor="middle" x="174.5" y="-113.4668" font-family="Helvetica,sans-Serif" font-size="10.00" fill="#000000">...</text>
</g>
<!-- Node10 -->
<g id="node10" class="node">
<title>Node10</title>
<g id="a_node10"><a xlink:title=" ">
<polygon fill="#ffffff" stroke="#bfbfbf" points="33,-2.9668 33,-21.9668 79,-21.9668 79,-2.9668 33,-2.9668"/>
<text text-anchor="middle" x="56" y="-9.9668" font-family="Helvetica,sans-Serif" font-size="10.00" fill="#000000">integer</text>
</a>
</g>
</g>
<!-- Node10&#45;&gt;Node1 -->
<g id="edge9" class="edge">
<title>Node10&#45;&gt;Node1</title>
<path fill="none" stroke="#9a32cd" stroke-dasharray="5,2" d="M89.3236,-4.6722C125.4664,1.6795 182.8282,5.3454 219,-24.4668 263.3024,-60.9802 289.3017,-252.7507 294.8681,-297.9278"/>
<polygon fill="#9a32cd" stroke="#9a32cd" points="88.4412,-1.2777 79.2815,-6.6021 89.7623,-8.1519 88.4412,-1.2777"/>
<text text-anchor="middle" x="174.5" y="-71.4668" font-family="Helvetica,sans-Serif" font-size="10.00" fill="#000000"> ntr</text>
<text text-anchor="middle" x="174.5" y="-60.4668" font-family="Helvetica,sans-Serif" font-size="10.00" fill="#000000">oil_source_i</text>
<text text-anchor="middle" x="174.5" y="-49.4668" font-family="Helvetica,sans-Serif" font-size="10.00" fill="#000000">oil_source_j</text>
<text text-anchor="middle" x="174.5" y="-38.4668" font-family="Helvetica,sans-Serif" font-size="10.00" fill="#000000">oil_source_k</text>
<text text-anchor="middle" x="174.5" y="-27.4668" font-family="Helvetica,sans-Serif" font-size="10.00" fill="#000000">ind_tr</text>
</g>
</g>
</svg>
        <g id="navigator" transform="translate(0 0)" fill="#404254">
                <rect fill="#f2f5e9" fill-opacity="0.5" stroke="#606060" stroke-width=".5" x="0" y="0" width="60" height="60"/>
                <use id="zoomplus" xlink:href="#zoomPlus" x="17" y="9" onmousedown="handleZoom(evt,'in')"/>
                <use id="zoomminus" xlink:href="#zoomMin" x="42" y="9" onmousedown="handleZoom(evt,'out')"/>
                <use id="reset" xlink:href="#resetDef" x="30" y="36" onmousedown="handleReset()"/>
                <g id="arrowUp" xlink:href="#dirArrow" transform="translate(30 24)" onmousedown="handlePan(0,-1)">
                  <use xlink:href="#rim" fill="#404040">
                        <set attributeName="fill" to="#808080" begin="arrowUp.mouseover" end="arrowUp.mouseout"/>
                  </use>
                  <path fill="none" stroke="white" stroke-width="1.5" d="M0,-3.0v7 M-2.5,-0.5L0,-3.0L2.5,-0.5"/>
                </g>
                <g id="arrowRight" xlink:href="#dirArrow" transform="rotate(90) translate(36 -43)" onmousedown="handlePan(1,0)">
                  <use xlink:href="#rim" fill="#404040">
                        <set attributeName="fill" to="#808080" begin="arrowRight.mouseover" end="arrowRight.mouseout"/>
                  </use>
                  <path fill="none" stroke="white" stroke-width="1.5" d="M0,-3.0v7 M-2.5,-0.5L0,-3.0L2.5,-0.5"/>
                </g>
                <g id="arrowDown" xlink:href="#dirArrow" transform="rotate(180) translate(-30 -48)" onmousedown="handlePan(0,1)">
                  <use xlink:href="#rim" fill="#404040">
                        <set attributeName="fill" to="#808080" begin="arrowDown.mouseover" end="arrowDown.mouseout"/>
                  </use>
                  <path fill="none" stroke="white" stroke-width="1.5" d="M0,-3.0v7 M-2.5,-0.5L0,-3.0L2.5,-0.5"/>
                </g>
                <g id="arrowLeft" xlink:href="#dirArrow" transform="rotate(270) translate(-36 17)" onmousedown="handlePan(-1,0)">
                  <use xlink:href="#rim" fill="#404040">
                        <set attributeName="fill" to="#808080" begin="arrowLeft.mouseover" end="arrowLeft.mouseout"/>
                  </use>
                  <path fill="none" stroke="white" stroke-width="1.5" d="M0,-3.0v7 M-2.5,-0.5L0,-3.0L2.5,-0.5"/>
                </g>
        </g>
        <svg viewBox="0 0 15 15" width="100%" height="30px" preserveAspectRatio="xMaxYMin meet">
         <g id="arrow_out" transform="scale(0.3 0.3)">
          <a xlink:href="structoil__tracer_1_1oil__tracer__cs__coll__graph_org.svg" target="_base">
           <rect id="button" ry="5" rx="5" y="6" x="6" height="38" width="38"
                fill="#f2f5e9" fill-opacity="0.5" stroke="#606060" stroke-width="1.0"/>
           <path id="arrow"
             d="M 11.500037,31.436501 C 11.940474,20.09759 22.043105,11.32322 32.158766,21.979434 L 37.068811,17.246167 C 37.068811,17.246167 37.088388,32 37.088388,32 L 22.160133,31.978069 C 22.160133,31.978069 26.997745,27.140456 26.997745,27.140456 C 18.528582,18.264221 13.291696,25.230495 11.500037,31.436501 z"
             style="fill:#404040;"/>
          </a>
         </g>
        </svg>
</svg>
