<?xml version="1.0" encoding="UTF-8" standalone="no"?>
<!DOCTYPE svg PUBLIC "-//W3C//DTD SVG 1.1//EN"
 "http://www.w3.org/Graphics/SVG/1.1/DTD/svg11.dtd">
<!-- Generated by graphviz version 2.40.1 (20161225.0304)
 -->
<!-- Title: mom_tracer_flow_control::tracer_flow_control_cs Pages: 1 -->
<!--zoomable 767 -->
<svg id="main" version="1.1" xmlns="http://www.w3.org/2000/svg" xmlns:xlink="http://www.w3.org/1999/xlink" xml:space="preserve" onload="init(evt)">
<style type="text/css"><![CDATA[
.edge:hover path { stroke: red; }
.edge:hover polygon { stroke: red; fill: red; }
]]></style>
<script type="text/javascript"><![CDATA[
var edges = document.getElementsByTagName('g');
if (edges && edges.length) {
  for (var i=0;i<edges.length;i++) {
    if (edges[i].id.substr(0,4)=='edge') {
      edges[i].setAttribute('class','edge');
    }
  }
}
]]></script>
        <defs>
                <circle id="rim" cx="0" cy="0" r="7"/>
                <circle id="rim2" cx="0" cy="0" r="3.5"/>
                <g id="zoomPlus">
                        <use xlink:href="#rim" fill="#404040">
                                <set attributeName="fill" to="#808080" begin="zoomplus.mouseover" end="zoomplus.mouseout"/>
                        </use>
                        <path d="M-4,0h8M0,-4v8" fill="none" stroke="white" stroke-width="1.5" pointer-events="none"/>
                </g>
                <g id="zoomMin">
                        <use xlink:href="#rim" fill="#404040">
                                <set attributeName="fill" to="#808080" begin="zoomminus.mouseover" end="zoomminus.mouseout"/>
                        </use>
                        <path d="M-4,0h8" fill="none" stroke="white" stroke-width="1.5" pointer-events="none"/>
                </g>
                <g id="dirArrow">
                        <path fill="none" stroke="white" stroke-width="1.5" d="M0,-3.0v7 M-2.5,-0.5L0,-3.0L2.5,-0.5"/>
                </g>
               <g id="resetDef">
                       <use xlink:href="#rim2" fill="#404040">
                               <set attributeName="fill" to="#808080" begin="reset.mouseover" end="reset.mouseout"/>
                       </use>
               </g>
        </defs>

<script type="text/javascript">
var viewWidth = 465;
var viewHeight = 767;
var sectionId = 'dynsection-0';
</script>
<script xlink:href="svgpan.js"/>
<svg id="graph" class="graph">
<g id="viewport">
<title>mom_tracer_flow_control::tracer_flow_control_cs</title>
<polygon fill="#ffffff" stroke="transparent" points="-4,4 -4,-762.5 461,-762.5 461,4 -4,4"/>
<!-- Node1 -->
<g id="node1" class="node">
<title>Node1</title>
<g id="a_node1"><a xlink:title="The control structure for orchestrating the calling of tracer packages.">
<polygon fill="#bfbfbf" stroke="#000000" points="321,-294.5 321,-324.5 457,-324.5 457,-294.5 321,-294.5"/>
<text text-anchor="start" x="329" y="-312.5" font-family="Helvetica,sans-Serif" font-size="10.00" fill="#000000">mom_tracer_flow_control</text>
<text text-anchor="middle" x="389" y="-301.5" font-family="Helvetica,sans-Serif" font-size="10.00" fill="#000000">::tracer_flow_control_cs</text>
</a>
</g>
</g>
<!-- Node2 -->
<g id="node2" class="node">
<title>Node2</title>
<g id="a_node2"><a xlink:title=" ">
<polygon fill="#ffffff" stroke="#bfbfbf" points="9.5,-717.5 9.5,-747.5 130.5,-747.5 130.5,-717.5 9.5,-717.5"/>
<text text-anchor="start" x="17.5" y="-735.5" font-family="Helvetica,sans-Serif" font-size="10.00" fill="#000000">type(ideal_age_tracer</text>
<text text-anchor="middle" x="70" y="-724.5" font-family="Helvetica,sans-Serif" font-size="10.00" fill="#000000">_cs), pointer</text>
</a>
</g>
</g>
<!-- Node2&#45;&gt;Node1 -->
<g id="edge1" class="edge">
<title>Node2&#45;&gt;Node1</title>
<path fill="none" stroke="#9a32cd" stroke-dasharray="5,2" d="M140.7696,-745.9965C191.9964,-751.4488 259.5905,-749.1014 303,-710.5 362.459,-657.6268 383.6471,-391.4286 388.0686,-324.6914"/>
<polygon fill="#9a32cd" stroke="#9a32cd" points="141.0967,-742.5108 130.7545,-744.8104 140.2734,-749.4623 141.0967,-742.5108"/>
<text text-anchor="middle" x="230.5" y="-750.5" font-family="Helvetica,sans-Serif" font-size="10.00" fill="#000000"> ideal_age_tracer_csp</text>
</g>
<!-- Node3 -->
<g id="node3" class="node">
<title>Node3</title>
<g id="a_node3"><a xlink:title=" ">
<polygon fill="#ffffff" stroke="#bfbfbf" points="46.5,-540 46.5,-559 93.5,-559 93.5,-540 46.5,-540"/>
<text text-anchor="middle" x="70" y="-547" font-family="Helvetica,sans-Serif" font-size="10.00" fill="#000000">logical</text>
</a>
</g>
</g>
<!-- Node3&#45;&gt;Node1 -->
<g id="edge2" class="edge">
<title>Node3&#45;&gt;Node1</title>
<path fill="none" stroke="#9a32cd" stroke-dasharray="5,2" d="M103.9647,-547.4724C164.8032,-543.5635 287.4939,-534.3174 303,-522.5 368.4982,-472.5828 384.2869,-364.6035 387.9439,-324.7123"/>
<polygon fill="#9a32cd" stroke="#9a32cd" points="103.4719,-543.9964 93.7117,-548.1182 103.912,-550.9826 103.4719,-543.9964"/>
<text text-anchor="middle" x="230.5" y="-700.5" font-family="Helvetica,sans-Serif" font-size="10.00" fill="#000000"> use_ocmip2_cfc</text>
<text text-anchor="middle" x="230.5" y="-689.5" font-family="Helvetica,sans-Serif" font-size="10.00" fill="#000000">use_oil</text>
<text text-anchor="middle" x="230.5" y="-678.5" font-family="Helvetica,sans-Serif" font-size="10.00" fill="#000000">use_regional_dyes</text>
<text text-anchor="start" x="176.5" y="-667.5" font-family="Helvetica,sans-Serif" font-size="10.00" fill="#000000">use_user_tracer</text>
<text text-anchor="middle" x="230.5" y="-656.5" font-family="Helvetica,sans-Serif" font-size="10.00" fill="#000000">_example</text>
<text text-anchor="start" x="176.5" y="-645.5" font-family="Helvetica,sans-Serif" font-size="10.00" fill="#000000">use_pseudo_salt</text>
<text text-anchor="middle" x="230.5" y="-634.5" font-family="Helvetica,sans-Serif" font-size="10.00" fill="#000000">_tracer</text>
<text text-anchor="middle" x="230.5" y="-623.5" font-family="Helvetica,sans-Serif" font-size="10.00" fill="#000000">use_isomip_tracer</text>
<text text-anchor="middle" x="230.5" y="-612.5" font-family="Helvetica,sans-Serif" font-size="10.00" fill="#000000">use_dyed_obc_tracer</text>
<text text-anchor="start" x="176.5" y="-601.5" font-family="Helvetica,sans-Serif" font-size="10.00" fill="#000000">use_advection_test</text>
<text text-anchor="middle" x="230.5" y="-590.5" font-family="Helvetica,sans-Serif" font-size="10.00" fill="#000000">_tracer</text>
<text text-anchor="start" x="176.5" y="-579.5" font-family="Helvetica,sans-Serif" font-size="10.00" fill="#000000">use_boundary_impulse</text>
<text text-anchor="middle" x="230.5" y="-568.5" font-family="Helvetica,sans-Serif" font-size="10.00" fill="#000000">_tracer</text>
<text text-anchor="middle" x="230.5" y="-557.5" font-family="Helvetica,sans-Serif" font-size="10.00" fill="#000000">use_rgc_tracer</text>
<text text-anchor="middle" x="230.5" y="-546.5" font-family="Helvetica,sans-Serif" font-size="10.00" fill="#000000">...</text>
</g>
<!-- Node4 -->
<g id="node4" class="node">
<title>Node4</title>
<g id="a_node4"><a xlink:title=" ">
<polygon fill="#ffffff" stroke="#bfbfbf" points="15,-490.5 15,-520.5 125,-520.5 125,-490.5 15,-490.5"/>
<text text-anchor="start" x="23" y="-508.5" font-family="Helvetica,sans-Serif" font-size="10.00" fill="#000000">type(rgc_tracer_cs)</text>
<text text-anchor="middle" x="70" y="-497.5" font-family="Helvetica,sans-Serif" font-size="10.00" fill="#000000">, pointer</text>
</a>
</g>
</g>
<!-- Node4&#45;&gt;Node1 -->
<g id="edge3" class="edge">
<title>Node4&#45;&gt;Node1</title>
<path fill="none" stroke="#9a32cd" stroke-dasharray="5,2" d="M135.1109,-509.6586C185.3243,-509.6079 254.2123,-502.1096 303,-467.5 353.4351,-431.7217 377.2991,-356.7715 385.5236,-324.6462"/>
<polygon fill="#9a32cd" stroke="#9a32cd" points="135.0419,-506.1579 125.0113,-509.5694 134.98,-513.1577 135.0419,-506.1579"/>
<text text-anchor="middle" x="230.5" y="-511.5" font-family="Helvetica,sans-Serif" font-size="10.00" fill="#000000"> rgc_tracer_csp</text>
</g>
<!-- Node5 -->
<g id="node5" class="node">
<title>Node5</title>
<g id="a_node5"><a xlink:title=" ">
<polygon fill="#ffffff" stroke="#bfbfbf" points="18,-441.5 18,-471.5 122,-471.5 122,-441.5 18,-441.5"/>
<text text-anchor="start" x="26" y="-459.5" font-family="Helvetica,sans-Serif" font-size="10.00" fill="#000000">type(isomip_tracer</text>
<text text-anchor="middle" x="70" y="-448.5" font-family="Helvetica,sans-Serif" font-size="10.00" fill="#000000">_cs), pointer</text>
</a>
</g>
</g>
<!-- Node5&#45;&gt;Node1 -->
<g id="edge4" class="edge">
<title>Node5&#45;&gt;Node1</title>
<path fill="none" stroke="#9a32cd" stroke-dasharray="5,2" d="M132.2707,-455.2562C181.6065,-451.7741 250.695,-441.159 303,-410.5 339.1607,-389.3041 367.3725,-347.1975 380.6611,-324.6257"/>
<polygon fill="#9a32cd" stroke="#9a32cd" points="131.8177,-451.7776 122.0559,-455.8956 132.255,-458.764 131.8177,-451.7776"/>
<text text-anchor="middle" x="230.5" y="-455.5" font-family="Helvetica,sans-Serif" font-size="10.00" fill="#000000"> isomip_tracer_csp</text>
</g>
<!-- Node6 -->
<g id="node6" class="node">
<title>Node6</title>
<g id="a_node6"><a xlink:title=" ">
<polygon fill="#ffffff" stroke="#bfbfbf" points="7.5,-392.5 7.5,-422.5 132.5,-422.5 132.5,-392.5 7.5,-392.5"/>
<text text-anchor="start" x="15.5" y="-410.5" font-family="Helvetica,sans-Serif" font-size="10.00" fill="#000000">type(boundary_impulse</text>
<text text-anchor="middle" x="70" y="-399.5" font-family="Helvetica,sans-Serif" font-size="10.00" fill="#000000">_tracer_cs), pointer</text>
</a>
</g>
</g>
<!-- Node6&#45;&gt;Node1 -->
<g id="edge5" class="edge">
<title>Node6&#45;&gt;Node1</title>
<path fill="none" stroke="#9a32cd" stroke-dasharray="5,2" d="M142.9864,-399.1994C189.8259,-392.3244 251.3287,-380.3728 303,-360.5 326.6543,-351.4026 351.3,-336.0938 368.1125,-324.6175"/>
<polygon fill="#9a32cd" stroke="#9a32cd" points="142.3292,-395.7576 132.9223,-400.6319 143.3157,-402.6877 142.3292,-395.7576"/>
<text text-anchor="middle" x="230.5" y="-398.5" font-family="Helvetica,sans-Serif" font-size="10.00" fill="#000000"> boundary_impulse_tracer_csp</text>
</g>
<!-- Node7 -->
<g id="node7" class="node">
<title>Node7</title>
<g id="a_node7"><a xlink:title=" ">
<polygon fill="#ffffff" stroke="#bfbfbf" points="17.5,-343.5 17.5,-373.5 122.5,-373.5 122.5,-343.5 17.5,-343.5"/>
<text text-anchor="start" x="25.5" y="-361.5" font-family="Helvetica,sans-Serif" font-size="10.00" fill="#000000">type(oil_tracer_cs)</text>
<text text-anchor="middle" x="70" y="-350.5" font-family="Helvetica,sans-Serif" font-size="10.00" fill="#000000">, pointer</text>
</a>
</g>
</g>
<!-- Node7&#45;&gt;Node1 -->
<g id="edge6" class="edge">
<title>Node7&#45;&gt;Node1</title>
<path fill="none" stroke="#9a32cd" stroke-dasharray="5,2" d="M132.8281,-349.814C179.7626,-343.2082 245.4626,-333.714 303,-324.5 308.8365,-323.5654 314.8906,-322.5674 320.9605,-321.547"/>
<polygon fill="#9a32cd" stroke="#9a32cd" points="132.2267,-346.364 122.8103,-351.2202 133.1998,-353.296 132.2267,-346.364"/>
<text text-anchor="middle" x="230.5" y="-348.5" font-family="Helvetica,sans-Serif" font-size="10.00" fill="#000000"> oil_tracer_csp</text>
</g>
<!-- Node8 -->
<g id="node8" class="node">
<title>Node8</title>
<g id="a_node8"><a xlink:title=" ">
<polygon fill="#ffffff" stroke="#bfbfbf" points="0,-294.5 0,-324.5 140,-324.5 140,-294.5 0,-294.5"/>
<text text-anchor="start" x="8" y="-312.5" font-family="Helvetica,sans-Serif" font-size="10.00" fill="#000000">type(user_tracer_example</text>
<text text-anchor="middle" x="70" y="-301.5" font-family="Helvetica,sans-Serif" font-size="10.00" fill="#000000">_cs), pointer</text>
</a>
</g>
</g>
<!-- Node8&#45;&gt;Node1 -->
<g id="edge7" class="edge">
<title>Node8&#45;&gt;Node1</title>
<path fill="none" stroke="#9a32cd" stroke-dasharray="5,2" d="M150.3066,-309.5C202.8852,-309.5 270.8492,-309.5 320.8004,-309.5"/>
<polygon fill="#9a32cd" stroke="#9a32cd" points="150.0059,-306.0001 140.0059,-309.5 150.0059,-313.0001 150.0059,-306.0001"/>
<text text-anchor="middle" x="230.5" y="-312.5" font-family="Helvetica,sans-Serif" font-size="10.00" fill="#000000"> user_tracer_example_csp</text>
</g>
<!-- Node9 -->
<g id="node9" class="node">
<title>Node9</title>
<g id="a_node9"><a xlink:title=" ">
<polygon fill="#ffffff" stroke="#bfbfbf" points="13,-245.5 13,-275.5 127,-275.5 127,-245.5 13,-245.5"/>
<text text-anchor="start" x="21" y="-263.5" font-family="Helvetica,sans-Serif" font-size="10.00" fill="#000000">type(ocmip2_cfc_cs)</text>
<text text-anchor="middle" x="70" y="-252.5" font-family="Helvetica,sans-Serif" font-size="10.00" fill="#000000">, pointer</text>
</a>
</g>
</g>
<!-- Node9&#45;&gt;Node1 -->
<g id="edge8" class="edge">
<title>Node9&#45;&gt;Node1</title>
<path fill="none" stroke="#9a32cd" stroke-dasharray="5,2" d="M137.0174,-269.7763C183.6203,-276.3501 247.1549,-285.557 303,-294.5 308.8365,-295.4346 314.8906,-296.4326 320.9605,-297.453"/>
<polygon fill="#9a32cd" stroke="#9a32cd" points="137.4322,-266.3003 127.0421,-268.3729 136.4569,-273.232 137.4322,-266.3003"/>
<text text-anchor="middle" x="230.5" y="-297.5" font-family="Helvetica,sans-Serif" font-size="10.00" fill="#000000"> ocmip2_cfc_csp</text>
</g>
<!-- Node10 -->
<g id="node10" class="node">
<title>Node10</title>
<g id="a_node10"><a xlink:title=" ">
<polygon fill="#ffffff" stroke="#bfbfbf" points="10,-196.5 10,-226.5 130,-226.5 130,-196.5 10,-196.5"/>
<text text-anchor="start" x="18" y="-214.5" font-family="Helvetica,sans-Serif" font-size="10.00" fill="#000000">type(dyed_obc_tracer</text>
<text text-anchor="middle" x="70" y="-203.5" font-family="Helvetica,sans-Serif" font-size="10.00" fill="#000000">_cs), pointer</text>
</a>
</g>
</g>
<!-- Node10&#45;&gt;Node1 -->
<g id="edge9" class="edge">
<title>Node10&#45;&gt;Node1</title>
<path fill="none" stroke="#9a32cd" stroke-dasharray="5,2" d="M140.1356,-218.8649C187.3413,-225.3742 250.3406,-237.1132 303,-257.5 326.9182,-266.7598 351.7244,-282.5311 368.5123,-294.2827"/>
<polygon fill="#9a32cd" stroke="#9a32cd" points="140.3846,-215.3673 130.0098,-217.5152 139.4597,-222.3059 140.3846,-215.3673"/>
<text text-anchor="middle" x="230.5" y="-260.5" font-family="Helvetica,sans-Serif" font-size="10.00" fill="#000000"> dyed_obc_tracer_csp</text>
</g>
<!-- Node11 -->
<g id="node11" class="node">
<title>Node11</title>
<g id="a_node11"><a xlink:title=" ">
<polygon fill="#ffffff" stroke="#bfbfbf" points="4.5,-147.5 4.5,-177.5 135.5,-177.5 135.5,-147.5 4.5,-147.5"/>
<text text-anchor="start" x="12.5" y="-165.5" font-family="Helvetica,sans-Serif" font-size="10.00" fill="#000000">type(pseudo_salt_tracer</text>
<text text-anchor="middle" x="70" y="-154.5" font-family="Helvetica,sans-Serif" font-size="10.00" fill="#000000">_cs), pointer</text>
</a>
</g>
</g>
<!-- Node11&#45;&gt;Node1 -->
<g id="edge10" class="edge">
<title>Node11&#45;&gt;Node1</title>
<path fill="none" stroke="#9a32cd" stroke-dasharray="5,2" d="M145.6842,-163.908C193.6327,-167.7928 255.357,-178.5292 303,-206.5 339.7635,-228.0835 367.9128,-271.4425 380.9773,-294.4156"/>
<polygon fill="#9a32cd" stroke="#9a32cd" points="145.8994,-160.4145 135.6717,-163.1793 145.3912,-167.396 145.8994,-160.4145"/>
<text text-anchor="middle" x="230.5" y="-209.5" font-family="Helvetica,sans-Serif" font-size="10.00" fill="#000000"> pseudo_salt_tracer_csp</text>
</g>
<!-- Node12 -->
<g id="node12" class="node">
<title>Node12</title>
<g id="a_node12"><a xlink:title=" ">
<polygon fill="#ffffff" stroke="#bfbfbf" points="15,-98.5 15,-128.5 125,-128.5 125,-98.5 15,-98.5"/>
<text text-anchor="start" x="23" y="-116.5" font-family="Helvetica,sans-Serif" font-size="10.00" fill="#000000">type(advection_test</text>
<text text-anchor="middle" x="70" y="-105.5" font-family="Helvetica,sans-Serif" font-size="10.00" fill="#000000">_tracer_cs), pointer</text>
</a>
</g>
</g>
<!-- Node12&#45;&gt;Node1 -->
<g id="edge11" class="edge">
<title>Node12&#45;&gt;Node1</title>
<path fill="none" stroke="#9a32cd" stroke-dasharray="5,2" d="M135.1171,-108.6179C185.3339,-108.1468 254.2235,-115.0122 303,-149.5 353.9844,-185.549 377.548,-261.5476 385.6082,-294.134"/>
<polygon fill="#9a32cd" stroke="#9a32cd" points="134.9473,-105.1204 125.0168,-108.813 135.0826,-112.1191 134.9473,-105.1204"/>
<text text-anchor="middle" x="230.5" y="-152.5" font-family="Helvetica,sans-Serif" font-size="10.00" fill="#000000"> advection_test_tracer_csp</text>
</g>
<!-- Node13 -->
<g id="node13" class="node">
<title>Node13</title>
<g id="a_node13"><a xlink:title=" ">
<polygon fill="#ffffff" stroke="#bfbfbf" points="14,-49.5 14,-79.5 126,-79.5 126,-49.5 14,-49.5"/>
<text text-anchor="start" x="22" y="-67.5" font-family="Helvetica,sans-Serif" font-size="10.00" fill="#000000">type(dye_tracer_cs)</text>
<text text-anchor="middle" x="70" y="-56.5" font-family="Helvetica,sans-Serif" font-size="10.00" fill="#000000">, pointer</text>
</a>
</g>
</g>
<!-- Node13&#45;&gt;Node1 -->
<g id="edge12" class="edge">
<title>Node13&#45;&gt;Node1</title>
<path fill="none" stroke="#9a32cd" stroke-dasharray="5,2" d="M136.548,-55.7741C187.2384,-52.8274 256.0743,-57.2416 303,-93.5 369.1146,-144.5852 384.5383,-254.282 388.0206,-294.4037"/>
<polygon fill="#9a32cd" stroke="#9a32cd" points="136.0774,-52.2982 126.3427,-56.4799 136.5604,-59.2815 136.0774,-52.2982"/>
<text text-anchor="middle" x="230.5" y="-96.5" font-family="Helvetica,sans-Serif" font-size="10.00" fill="#000000"> dye_tracer_csp</text>
</g>
<!-- Node14 -->
<g id="node14" class="node">
<title>Node14</title>
<g id="a_node14"><a xlink:title=" ">
<polygon fill="#ffffff" stroke="#bfbfbf" points="9.5,-.5 9.5,-30.5 130.5,-30.5 130.5,-.5 9.5,-.5"/>
<text text-anchor="start" x="17.5" y="-18.5" font-family="Helvetica,sans-Serif" font-size="10.00" fill="#000000">type(dome_tracer_cs)</text>
<text text-anchor="middle" x="70" y="-7.5" font-family="Helvetica,sans-Serif" font-size="10.00" fill="#000000">, pointer</text>
</a>
</g>
</g>
<!-- Node14&#45;&gt;Node1 -->
<g id="edge13" class="edge">
<title>Node14&#45;&gt;Node1</title>
<path fill="none" stroke="#9a32cd" stroke-dasharray="5,2" d="M140.8388,-3.8677C191.4324,.3225 258.2012,-3.0844 303,-39.5 344.2282,-73.0133 377.1084,-242.1897 386.3769,-294.2391"/>
<polygon fill="#9a32cd" stroke="#9a32cd" points="140.251,-.4076 130.6249,-4.8336 140.91,-7.3765 140.251,-.4076"/>
<text text-anchor="middle" x="230.5" y="-42.5" font-family="Helvetica,sans-Serif" font-size="10.00" fill="#000000"> dome_tracer_csp</text>
</g>
</g>
</svg>
        <g id="navigator" transform="translate(0 0)" fill="#404254">
                <rect fill="#f2f5e9" fill-opacity="0.5" stroke="#606060" stroke-width=".5" x="0" y="0" width="60" height="60"/>
                <use id="zoomplus" xlink:href="#zoomPlus" x="17" y="9" onmousedown="handleZoom(evt,'in')"/>
                <use id="zoomminus" xlink:href="#zoomMin" x="42" y="9" onmousedown="handleZoom(evt,'out')"/>
                <use id="reset" xlink:href="#resetDef" x="30" y="36" onmousedown="handleReset()"/>
                <g id="arrowUp" xlink:href="#dirArrow" transform="translate(30 24)" onmousedown="handlePan(0,-1)">
                  <use xlink:href="#rim" fill="#404040">
                        <set attributeName="fill" to="#808080" begin="arrowUp.mouseover" end="arrowUp.mouseout"/>
                  </use>
                  <path fill="none" stroke="white" stroke-width="1.5" d="M0,-3.0v7 M-2.5,-0.5L0,-3.0L2.5,-0.5"/>
                </g>
                <g id="arrowRight" xlink:href="#dirArrow" transform="rotate(90) translate(36 -43)" onmousedown="handlePan(1,0)">
                  <use xlink:href="#rim" fill="#404040">
                        <set attributeName="fill" to="#808080" begin="arrowRight.mouseover" end="arrowRight.mouseout"/>
                  </use>
                  <path fill="none" stroke="white" stroke-width="1.5" d="M0,-3.0v7 M-2.5,-0.5L0,-3.0L2.5,-0.5"/>
                </g>
                <g id="arrowDown" xlink:href="#dirArrow" transform="rotate(180) translate(-30 -48)" onmousedown="handlePan(0,1)">
                  <use xlink:href="#rim" fill="#404040">
                        <set attributeName="fill" to="#808080" begin="arrowDown.mouseover" end="arrowDown.mouseout"/>
                  </use>
                  <path fill="none" stroke="white" stroke-width="1.5" d="M0,-3.0v7 M-2.5,-0.5L0,-3.0L2.5,-0.5"/>
                </g>
                <g id="arrowLeft" xlink:href="#dirArrow" transform="rotate(270) translate(-36 17)" onmousedown="handlePan(-1,0)">
                  <use xlink:href="#rim" fill="#404040">
                        <set attributeName="fill" to="#808080" begin="arrowLeft.mouseover" end="arrowLeft.mouseout"/>
                  </use>
                  <path fill="none" stroke="white" stroke-width="1.5" d="M0,-3.0v7 M-2.5,-0.5L0,-3.0L2.5,-0.5"/>
                </g>
        </g>
        <svg viewBox="0 0 15 15" width="100%" height="30px" preserveAspectRatio="xMaxYMin meet">
         <g id="arrow_out" transform="scale(0.3 0.3)">
          <a xlink:href="structmom__tracer__flow__control_1_1tracer__flow__control__cs__coll__graph_org.svg" target="_base">
           <rect id="button" ry="5" rx="5" y="6" x="6" height="38" width="38"
                fill="#f2f5e9" fill-opacity="0.5" stroke="#606060" stroke-width="1.0"/>
           <path id="arrow"
             d="M 11.500037,31.436501 C 11.940474,20.09759 22.043105,11.32322 32.158766,21.979434 L 37.068811,17.246167 C 37.068811,17.246167 37.088388,32 37.088388,32 L 22.160133,31.978069 C 22.160133,31.978069 26.997745,27.140456 26.997745,27.140456 C 18.528582,18.264221 13.291696,25.230495 11.500037,31.436501 z"
             style="fill:#404040;"/>
          </a>
         </g>
        </svg>
</svg>
