<?xml version="1.0" encoding="UTF-8" standalone="no"?>
<!DOCTYPE svg PUBLIC "-//W3C//DTD SVG 1.1//EN"
 "http://www.w3.org/Graphics/SVG/1.1/DTD/svg11.dtd">
<!-- Generated by graphviz version 2.40.1 (20161225.0304)
 -->
<!-- Title: mom_variables::cont_diag_ptrs Pages: 1 -->
<svg width="120pt" height="150pt"
 viewBox="0.00 0.00 120.00 150.00" xmlns="http://www.w3.org/2000/svg" xmlns:xlink="http://www.w3.org/1999/xlink">
<g id="graph0" class="graph" transform="scale(1 1) rotate(0) translate(4 146)">
<title>mom_variables::cont_diag_ptrs</title>
<polygon fill="#ffffff" stroke="transparent" points="-4,4 -4,-146 116,-146 116,4 -4,4"/>
<!-- Node1 -->
<g id="node1" class="node">
<title>Node1</title>
<g id="a_node1"><a xlink:title="Pointers to arrays with transports, which can later be used for derived diagnostics,...">
<polygon fill="#bfbfbf" stroke="#000000" points="0,-.5 0,-30.5 112,-30.5 112,-.5 0,-.5"/>
<text text-anchor="start" x="8" y="-18.5" font-family="Helvetica,sans-Serif" font-size="10.00" fill="#000000">mom_variables::cont</text>
<text text-anchor="middle" x="56" y="-7.5" font-family="Helvetica,sans-Serif" font-size="10.00" fill="#000000">_diag_ptrs</text>
</a>
</g>
</g>
<!-- Node2 -->
<g id="node2" class="node">
<title>Node2</title>
<g id="a_node2"><a xlink:title=" ">
<polygon fill="#ffffff" stroke="#bfbfbf" points="38.5,-122.5 38.5,-141.5 73.5,-141.5 73.5,-122.5 38.5,-122.5"/>
<text text-anchor="middle" x="56" y="-129.5" font-family="Helvetica,sans-Serif" font-size="10.00" fill="#000000">real</text>
</a>
</g>
</g>
<!-- Node2&#45;&gt;Node1 -->
<g id="edge1" class="edge">
<title>Node2&#45;&gt;Node1</title>
<path fill="none" stroke="#9a32cd" stroke-dasharray="5,2" d="M56,-112.1543C56,-89.0555 56,-51.4235 56,-30.5848"/>
<polygon fill="#9a32cd" stroke="#9a32cd" points="52.5001,-112.4663 56,-122.4663 59.5001,-112.4663 52.5001,-112.4663"/>
<text text-anchor="middle" x="81.5" y="-96" font-family="Helvetica,sans-Serif" font-size="10.00" fill="#000000"> vh</text>
<text text-anchor="middle" x="81.5" y="-85" font-family="Helvetica,sans-Serif" font-size="10.00" fill="#000000">uh</text>
<text text-anchor="middle" x="81.5" y="-74" font-family="Helvetica,sans-Serif" font-size="10.00" fill="#000000">diapyc_vel</text>
<text text-anchor="middle" x="81.5" y="-63" font-family="Helvetica,sans-Serif" font-size="10.00" fill="#000000">vhgm</text>
<text text-anchor="middle" x="81.5" y="-52" font-family="Helvetica,sans-Serif" font-size="10.00" fill="#000000">uhgm</text>
</g>
</g>
</svg>
