<?xml version="1.0" encoding="UTF-8" standalone="no"?>
<!DOCTYPE svg PUBLIC "-//W3C//DTD SVG 1.1//EN"
 "http://www.w3.org/Graphics/SVG/1.1/DTD/svg11.dtd">
<!-- Generated by graphviz version 2.40.1 (20161225.0304)
 -->
<!-- Title: dome_tracer::dome_tracer_cs Pages: 1 -->
<svg width="363pt" height="299pt"
 viewBox="0.00 0.00 363.00 299.00" xmlns="http://www.w3.org/2000/svg" xmlns:xlink="http://www.w3.org/1999/xlink">
<g id="graph0" class="graph" transform="scale(1 1) rotate(0) translate(4 295)">
<title>dome_tracer::dome_tracer_cs</title>
<polygon fill="#ffffff" stroke="transparent" points="-4,4 -4,-295 359,-295 359,4 -4,4"/>
<!-- Node1 -->
<g id="node1" class="node">
<title>Node1</title>
<g id="a_node1"><a xlink:title="The DOME_tracer control structure.">
<polygon fill="#bfbfbf" stroke="#000000" points="209,-138.5 209,-157.5 355,-157.5 355,-138.5 209,-138.5"/>
<text text-anchor="middle" x="282" y="-145.5" font-family="Helvetica,sans-Serif" font-size="10.00" fill="#000000">dome_tracer::dome_tracer_cs</text>
</a>
</g>
</g>
<!-- Node2 -->
<g id="node2" class="node">
<title>Node2</title>
<g id="a_node2"><a xlink:title=" ">
<polygon fill="#ffffff" stroke="#bfbfbf" points="29.5,-271.5 29.5,-290.5 73.5,-290.5 73.5,-271.5 29.5,-271.5"/>
<text text-anchor="middle" x="51.5" y="-278.5" font-family="Helvetica,sans-Serif" font-size="10.00" fill="#000000">logical</text>
</a>
</g>
</g>
<!-- Node2&#45;&gt;Node1 -->
<g id="edge1" class="edge">
<title>Node2&#45;&gt;Node1</title>
<path fill="none" stroke="#9a32cd" stroke-dasharray="5,2" d="M83.8873,-276.8884C113.4525,-272.0298 157.5168,-261.9396 191,-242 229.0553,-219.3377 261.9353,-176.6597 275.444,-157.6077"/>
<polygon fill="#9a32cd" stroke="#9a32cd" points="83.0515,-273.4756 73.6973,-278.4503 84.1121,-280.3948 83.0515,-273.4756"/>
<text text-anchor="middle" x="156" y="-283" font-family="Helvetica,sans-Serif" font-size="10.00" fill="#000000"> use_sponge</text>
<text text-anchor="middle" x="156" y="-272" font-family="Helvetica,sans-Serif" font-size="10.00" fill="#000000">coupled_tracers</text>
</g>
<!-- Node3 -->
<g id="node3" class="node">
<title>Node3</title>
<g id="a_node3"><a xlink:title=" ">
<polygon fill="#ffffff" stroke="#bfbfbf" points="22,-233.5 22,-252.5 81,-252.5 81,-233.5 22,-233.5"/>
<text text-anchor="middle" x="51.5" y="-240.5" font-family="Helvetica,sans-Serif" font-size="10.00" fill="#000000">time_type</text>
</a>
</g>
</g>
<!-- Node3&#45;&gt;Node1 -->
<g id="edge2" class="edge">
<title>Node3&#45;&gt;Node1</title>
<path fill="none" stroke="#9a32cd" stroke-dasharray="5,2" d="M91.2044,-235.4426C119.7094,-229.2431 158.6444,-219.1693 191,-205 220.8836,-191.9132 252.435,-170.0824 269.4095,-157.5777"/>
<polygon fill="#9a32cd" stroke="#9a32cd" points="90.2682,-232.063 81.2059,-237.5517 91.7131,-238.9123 90.2682,-232.063"/>
<text text-anchor="middle" x="156" y="-230" font-family="Helvetica,sans-Serif" font-size="10.00" fill="#000000"> time</text>
</g>
<!-- Node4 -->
<g id="node4" class="node">
<title>Node4</title>
<g id="a_node4"><a xlink:title=" ">
<polygon fill="#ffffff" stroke="#bfbfbf" points="0,-195.5 0,-214.5 103,-214.5 103,-195.5 0,-195.5"/>
<text text-anchor="middle" x="51.5" y="-202.5" font-family="Helvetica,sans-Serif" font-size="10.00" fill="#000000">tracer_registry_type</text>
</a>
</g>
</g>
<!-- Node4&#45;&gt;Node1 -->
<g id="edge3" class="edge">
<title>Node4&#45;&gt;Node1</title>
<path fill="none" stroke="#9a32cd" stroke-dasharray="5,2" d="M110.1973,-193.419C135.2027,-188.2164 164.6311,-181.7367 191,-175 211.4371,-169.7787 234.1871,-163.0287 251.8279,-157.5841"/>
<polygon fill="#9a32cd" stroke="#9a32cd" points="109.2203,-190.0467 100.1331,-195.494 110.6339,-196.9025 109.2203,-190.0467"/>
<text text-anchor="middle" x="156" y="-193" font-family="Helvetica,sans-Serif" font-size="10.00" fill="#000000"> tr_reg</text>
</g>
<!-- Node5 -->
<g id="node5" class="node">
<title>Node5</title>
<g id="a_node5"><a xlink:title=" ">
<polygon fill="#ffffff" stroke="#bfbfbf" points="2.5,-157.5 2.5,-176.5 100.5,-176.5 100.5,-157.5 2.5,-157.5"/>
<text text-anchor="middle" x="51.5" y="-164.5" font-family="Helvetica,sans-Serif" font-size="10.00" fill="#000000">character(len=200)</text>
</a>
</g>
</g>
<!-- Node5&#45;&gt;Node1 -->
<g id="edge4" class="edge">
<title>Node5&#45;&gt;Node1</title>
<path fill="none" stroke="#9a32cd" stroke-dasharray="5,2" d="M110.9344,-162.1009C140.797,-159.6393 177.2508,-156.6344 208.8222,-154.032"/>
<polygon fill="#9a32cd" stroke="#9a32cd" points="110.344,-158.6376 100.6653,-162.9473 110.9191,-165.6139 110.344,-158.6376"/>
<text text-anchor="middle" x="156" y="-163" font-family="Helvetica,sans-Serif" font-size="10.00" fill="#000000"> tracer_ic_file</text>
</g>
<!-- Node6 -->
<g id="node6" class="node">
<title>Node6</title>
<g id="a_node6"><a xlink:title=" ">
<polygon fill="#ffffff" stroke="#bfbfbf" points="26,-119.5 26,-138.5 77,-138.5 77,-119.5 26,-119.5"/>
<text text-anchor="middle" x="51.5" y="-126.5" font-family="Helvetica,sans-Serif" font-size="10.00" fill="#000000">vardesc</text>
</a>
</g>
</g>
<!-- Node6&#45;&gt;Node1 -->
<g id="edge5" class="edge">
<title>Node6&#45;&gt;Node1</title>
<path fill="none" stroke="#9a32cd" stroke-dasharray="5,2" d="M87.3914,-131.7409C115.5708,-133.9145 155.7935,-137.0645 191,-140 196.8477,-140.4876 202.906,-141.0013 208.9919,-141.5235"/>
<polygon fill="#9a32cd" stroke="#9a32cd" points="87.4557,-128.2356 77.2166,-130.9582 86.9187,-135.215 87.4557,-128.2356"/>
<text text-anchor="middle" x="156" y="-143" font-family="Helvetica,sans-Serif" font-size="10.00" fill="#000000"> tr_desc</text>
</g>
<!-- Node7 -->
<g id="node7" class="node">
<title>Node7</title>
<g id="a_node7"><a xlink:title=" ">
<polygon fill="#ffffff" stroke="#bfbfbf" points="25,-81.5 25,-100.5 78,-100.5 78,-81.5 25,-81.5"/>
<text text-anchor="middle" x="51.5" y="-88.5" font-family="Helvetica,sans-Serif" font-size="10.00" fill="#000000">diag_ctrl</text>
</a>
</g>
</g>
<!-- Node7&#45;&gt;Node1 -->
<g id="edge6" class="edge">
<title>Node7&#45;&gt;Node1</title>
<path fill="none" stroke="#9a32cd" stroke-dasharray="5,2" d="M88.0395,-97.1936C116.3281,-102.2629 156.3907,-110.0412 191,-119 212.6707,-124.6096 236.7919,-132.3675 254.7527,-138.4479"/>
<polygon fill="#9a32cd" stroke="#9a32cd" points="88.6386,-93.7453 78.182,-95.4514 87.4202,-100.6385 88.6386,-93.7453"/>
<text text-anchor="middle" x="156" y="-122" font-family="Helvetica,sans-Serif" font-size="10.00" fill="#000000"> diag</text>
</g>
<!-- Node8 -->
<g id="node8" class="node">
<title>Node8</title>
<g id="a_node8"><a xlink:title=" ">
<polygon fill="#ffffff" stroke="#bfbfbf" points="28.5,-43.5 28.5,-62.5 74.5,-62.5 74.5,-43.5 28.5,-43.5"/>
<text text-anchor="middle" x="51.5" y="-50.5" font-family="Helvetica,sans-Serif" font-size="10.00" fill="#000000">integer</text>
</a>
</g>
</g>
<!-- Node8&#45;&gt;Node1 -->
<g id="edge7" class="edge">
<title>Node8&#45;&gt;Node1</title>
<path fill="none" stroke="#9a32cd" stroke-dasharray="5,2" d="M85.0013,-58.131C113.9265,-63.3198 156.3942,-72.7792 191,-88 221.8334,-101.5616 253.7839,-125.2716 270.3914,-138.461"/>
<polygon fill="#9a32cd" stroke="#9a32cd" points="85.4456,-54.6561 74.9969,-56.4098 84.2587,-61.5548 85.4456,-54.6561"/>
<text text-anchor="middle" x="156" y="-91" font-family="Helvetica,sans-Serif" font-size="10.00" fill="#000000"> ind_tr</text>
</g>
<!-- Node9 -->
<g id="node9" class="node">
<title>Node9</title>
<g id="a_node9"><a xlink:title=" ">
<polygon fill="#ffffff" stroke="#bfbfbf" points="35.5,-.5 35.5,-19.5 67.5,-19.5 67.5,-.5 35.5,-.5"/>
<text text-anchor="middle" x="51.5" y="-7.5" font-family="Helvetica,sans-Serif" font-size="10.00" fill="#000000">real</text>
</a>
</g>
</g>
<!-- Node9&#45;&gt;Node1 -->
<g id="edge8" class="edge">
<title>Node9&#45;&gt;Node1</title>
<path fill="none" stroke="#9a32cd" stroke-dasharray="5,2" d="M78.1315,-10.6673C107.6692,-12.5038 155.7939,-18.8379 191,-40 233.0287,-65.2631 264.9295,-116.9706 276.875,-138.3837"/>
<polygon fill="#9a32cd" stroke="#9a32cd" points="77.9456,-7.1541 67.7867,-10.1621 77.6041,-14.1458 77.9456,-7.1541"/>
<text text-anchor="middle" x="156" y="-54" font-family="Helvetica,sans-Serif" font-size="10.00" fill="#000000"> land_val</text>
<text text-anchor="middle" x="156" y="-43" font-family="Helvetica,sans-Serif" font-size="10.00" fill="#000000">tr</text>
</g>
</g>
</svg>
